<?xml version="1.0" encoding="iso-8859-1"?>
<!-- Generator: Adobe Illustrator 19.0.0, SVG Export Plug-In . SVG Version: 6.00 Build 0)  -->
<svg xmlns="http://www.w3.org/2000/svg" xmlns:xlink="http://www.w3.org/1999/xlink" version="1.1" id="Layer_1" x="0px" y="0px" viewBox="0 0 512 512" style="enable-background:new 0 0 512 512;" xml:space="preserve">
<g>
	<g>
		<g>
			<path d="M442.351,213.826c-1.256-0.803-2.743-1.274-4.344-1.274h-3.952c-3.005-0.315-6.052-0.482-9.139-0.482h-52.08v-55.419     c0-47.8-38.887-86.688-86.686-86.688h-60.295c-47.8,0-86.689,38.887-86.689,86.688v55.419h-52.08     c-3.181,0-6.319,0.182-9.412,0.516c-0.186,0.016-0.37,0.042-0.553,0.07C33.779,217.62,0,254.509,0,299.157v102.731     c0,22.138,18.011,40.148,40.149,40.148h32.71c4.466,0,8.084-3.618,8.084-8.084c0-4.466-3.618-8.084-8.084-8.084h-32.71     c-13.224,0-23.981-10.757-23.981-23.98V299.157c0-33.315,23.096-61.321,54.111-68.889v16.472c0,4.466,3.618,8.084,8.084,8.084     h1.392v1.725h-1.392c-4.466,0-8.084,3.618-8.084,8.084v31.524c0,4.466,3.618,8.084,8.084,8.084H97.21     c4.466,0,8.084-3.618,8.084-8.084v-31.524c0-4.466-3.619-8.084-8.084-8.084h-1.286v-1.725h34.844v36.533h-0.385     c-4.466,0-8.084,3.618-8.084,8.084v47.363c0,4.466,3.619,8.084,8.084,8.084h0.385v35.893c0,2.248,0.936,4.395,2.584,5.925     l21.724,20.167c1.55,1.439,3.526,2.159,5.5,2.159c1.975,0,3.949-0.72,5.5-2.159l21.726-20.167     c1.647-1.53,2.584-3.677,2.584-5.925v-35.893h0.383c4.466,0,8.084-3.618,8.084-8.084v-47.363c0-4.466-3.618-8.084-8.084-8.084     h-0.383v-36.533h131.225v36.533h-2.264c-4.466,0-8.084,3.618-8.084,8.084v50.313c0,4.466,3.619,8.084,8.084,8.084h2.264v33.842     c0,2.313,0.991,4.514,2.719,6.048l21.726,19.27c1.531,1.357,3.447,2.036,5.365,2.036c1.918,0,3.834-0.679,5.365-2.036     l21.726-19.27c1.729-1.535,2.72-3.736,2.72-6.048v-33.842h2.264c4.466,0,8.084-3.618,8.084-8.084v-50.313     c0-4.466-3.618-8.084-8.084-8.084h-2.264v-36.533h56.773c4.466,0,8.084-3.618,8.084-8.084V231.47     c28.794,9.026,49.743,35.955,49.743,67.688v102.731c0,13.223-10.756,23.98-23.979,23.98h-370.96     c-4.466,0-8.084,3.619-8.084,8.084c0,4.466,3.618,8.084,8.084,8.084h370.96c22.137,0,40.147-18.011,40.147-40.148V299.157     C512,257.106,482.043,221.924,442.351,213.826z M225.855,86.132h60.295c36.148,0,66.016,27.346,70.041,62.435h-19.347     c-7.045-26.599-31.315-46.265-60.098-46.265h-41.488c-28.784,0-53.054,19.666-60.1,46.265h-19.345     C159.838,113.477,189.705,86.132,225.855,86.132z M356.668,164.735v47.335h-17.754v-47.335H356.668z M322.745,164.471v47.598     H189.255v-47.598c0-25.365,20.637-46.002,46.002-46.002h41.488C302.109,118.469,322.745,139.106,322.745,164.471z      M155.334,164.735h17.752v47.335h-17.752V164.735z M89.127,288.072h-2.677v-15.356h2.677V288.072z M174.22,387.255h-0.001     l-13.642,12.663l-13.64-12.663v-32.366h27.283V387.255z M182.686,338.719h-0.383h-13.642v-4.616c0-4.466-3.619-8.084-8.084-8.084     s-8.084,3.619-8.084,8.084v4.616h-13.64h-0.385v-31.194h0.385h43.451h0.382V338.719z M146.936,291.357v-36.532h27.283v36.532     H146.936z M365.067,388.043h-0.001l-13.642,12.1l-13.642-12.1v-30.205h27.285V388.043z M375.412,341.669h-2.264h-13.642v-7.566     c0-4.466-3.618-8.084-8.084-8.084c-4.466,0-8.084,3.619-8.084,8.084v7.566h-13.642h-2.264v-34.144h2.264h43.453h2.263V341.669z      M337.781,291.357v-36.532h27.285v36.532H337.781z M373.15,238.656h-43.453H182.303h-43.451H86.448v-9.936h343.473v9.936H373.15z     "/>
			<path d="M287.908,321.905c0-17.516-14.251-31.767-31.767-31.767s-31.767,14.251-31.767,31.767     c0,17.516,14.251,31.766,31.767,31.766S287.908,339.421,287.908,321.905z M240.543,321.905c0-8.601,6.997-15.598,15.598-15.598     c8.602,0,15.598,6.997,15.598,15.598c0,8.601-6.997,15.597-15.598,15.597C247.54,337.502,240.543,330.506,240.543,321.905z"/>
		</g>
	</g>
</g>
<g>
</g>
<g>
</g>
<g>
</g>
<g>
</g>
<g>
</g>
<g>
</g>
<g>
</g>
<g>
</g>
<g>
</g>
<g>
</g>
<g>
</g>
<g>
</g>
<g>
</g>
<g>
</g>
<g>
</g>
</svg>
