<?xml version="1.0" encoding="iso-8859-1"?>
<!-- Generator: Adobe Illustrator 19.0.0, SVG Export Plug-In . SVG Version: 6.00 Build 0)  -->
<svg xmlns="http://www.w3.org/2000/svg" xmlns:xlink="http://www.w3.org/1999/xlink" version="1.1" id="Layer_1" x="0px" y="0px" viewBox="0 0 512.001 512.001" style="enable-background:new 0 0 512.001 512.001;" xml:space="preserve">
<g>
	<g>
		<g>
			<path d="M467.182,172.419c-1.593-4.177-6.27-6.272-10.448-4.68c-4.177,1.593-6.273,6.271-4.68,10.448     c17.068,44.76,37.649,112.151,42.814,186.684l-17.609-14.508c-16.769-111.397-49.28-189.487-61.19-215.442     c5.256-1.23,10.541-2.526,15.859-3.905c2.25,4.662,5.687,12.02,9.802,21.63c1.759,4.11,6.515,6.017,10.628,4.255     c4.11-1.76,6.015-6.518,4.255-10.628c-6.325-14.773-11.043-24.293-12.626-27.412l-9.271-50.073     c-0.417-2.249-1.766-4.217-3.712-5.418c-1.948-1.2-4.311-1.521-6.509-0.881C365.392,79.678,259.762,81.327,256,81.379     c-3.762-0.052-109.363-1.692-168.496-18.891c-2.195-0.64-4.56-0.32-6.508,0.881c-1.947,1.2-3.296,3.169-3.712,5.418     l-9.268,50.071c-3.02,5.941-17.173,34.585-31.969,77.835C20.972,240.749,2.485,308.751,0,382.536     c-0.001,0.052,0.002,0.103,0.001,0.154c-0.001,0.098,0.001,0.195,0.002,0.294c0.003,0.151,0.01,0.301,0.022,0.45     c0.008,0.099,0.017,0.199,0.028,0.298c0.017,0.148,0.039,0.295,0.064,0.44c0.017,0.099,0.033,0.198,0.054,0.296     c0.031,0.149,0.068,0.295,0.108,0.44c0.025,0.093,0.047,0.187,0.076,0.28c0.053,0.17,0.114,0.338,0.177,0.505     c0.025,0.064,0.044,0.13,0.07,0.193c0.092,0.224,0.195,0.443,0.308,0.656c0.037,0.07,0.079,0.138,0.118,0.208     c0.085,0.153,0.174,0.303,0.269,0.45c0.045,0.07,0.094,0.139,0.142,0.208c0.103,0.149,0.211,0.294,0.323,0.435     c0.028,0.036,0.052,0.073,0.081,0.109c0.018,0.023,0.04,0.042,0.059,0.064c0.18,0.215,0.368,0.423,0.571,0.618     c0.001,0.001,0.002,0.002,0.003,0.003c0.194,0.187,0.4,0.361,0.613,0.529c0.071,0.056,0.145,0.109,0.218,0.162     c0.147,0.108,0.298,0.21,0.452,0.309c0.081,0.051,0.162,0.104,0.244,0.152c0.187,0.11,0.38,0.21,0.576,0.305     c0.051,0.024,0.099,0.051,0.15,0.074c0.228,0.104,0.463,0.195,0.703,0.279c0.091,0.031,0.183,0.057,0.275,0.085     c0.105,0.032,0.207,0.069,0.315,0.098l73.917,19.534c0.923,0.272,1.861,0.536,2.823,0.79c0.219,0.058,0.437,0.09,0.656,0.128     l145.611,38.48c0.168,0.044,0.336,0.066,0.504,0.099c0.128,0.025,0.257,0.056,0.385,0.076c0.39,0.058,0.778,0.094,1.165,0.095     c0.005,0,0.011,0.001,0.016,0.001c0.001,0,0.001,0,0.002,0c0.001,0,0.001,0,0.002,0c0.023,0,0.044-0.005,0.067-0.005     c0.41-0.003,0.816-0.037,1.216-0.1c0.159-0.026,0.31-0.076,0.466-0.111c0.26-0.058,0.522-0.112,0.775-0.196     c0.168-0.055,0.326-0.133,0.489-0.199c0.231-0.094,0.463-0.182,0.685-0.297c0.159-0.082,0.307-0.181,0.46-0.273     c0.212-0.127,0.423-0.253,0.623-0.398c0.146-0.107,0.28-0.229,0.418-0.345c0.187-0.158,0.373-0.315,0.546-0.49     c0.133-0.134,0.251-0.278,0.375-0.422c0.157-0.181,0.31-0.363,0.45-0.56c0.115-0.161,0.218-0.332,0.322-0.504     c0.122-0.201,0.241-0.403,0.345-0.615c0.092-0.187,0.171-0.38,0.248-0.575c0.054-0.135,0.124-0.259,0.172-0.398l17.237-50.689     l17.237,50.689c1.369,4.025,5.614,6.307,9.733,5.22l145.611-38.48c0.219-0.039,0.439-0.071,0.658-0.13     c0.963-0.255,1.902-0.519,2.826-0.791l73.913-19.533c0.107-0.028,0.209-0.066,0.314-0.097c0.093-0.028,0.185-0.054,0.276-0.086     c0.237-0.083,0.472-0.174,0.697-0.276c0.054-0.024,0.105-0.053,0.158-0.079c0.195-0.094,0.386-0.195,0.573-0.303     c0.083-0.049,0.164-0.101,0.246-0.153c0.154-0.098,0.304-0.201,0.451-0.308c0.073-0.054,0.147-0.107,0.219-0.163     c0.213-0.167,0.419-0.341,0.612-0.528c0.001-0.001,0.003-0.003,0.005-0.005c0.202-0.194,0.389-0.401,0.569-0.615     c0.018-0.02,0.04-0.039,0.059-0.061c0.029-0.036,0.053-0.073,0.081-0.11c0.112-0.141,0.219-0.285,0.322-0.433     c0.049-0.07,0.097-0.139,0.144-0.209c0.095-0.148,0.183-0.299,0.27-0.452c0.039-0.069,0.08-0.136,0.117-0.206     c0.111-0.215,0.215-0.433,0.308-0.657c0.026-0.065,0.046-0.131,0.071-0.195c0.064-0.165,0.124-0.332,0.177-0.502     c0.028-0.093,0.051-0.187,0.077-0.281c0.039-0.146,0.077-0.292,0.108-0.441c0.021-0.097,0.037-0.195,0.054-0.294     c0.025-0.147,0.046-0.294,0.064-0.443c0.011-0.099,0.021-0.199,0.028-0.297c0.012-0.15,0.018-0.301,0.022-0.452     c0.002-0.097,0.004-0.194,0.002-0.291c0-0.052,0.003-0.104,0.001-0.155C509.174,298.608,486.069,221.949,467.182,172.419z      M91.604,80.369c62.753,15.828,160.002,17.152,164.3,17.202c0.064,0.002,0.126,0.002,0.19,0     c4.297-0.05,101.548-1.373,164.301-17.202l6.518,35.208c-98.595,25.432-186.96,23.965-244.272,18.1     c-48.714-4.987-83.654-13.869-97.603-17.838L91.604,80.369z M79.975,131.248c3.772,1.09,9.065,2.538,15.753,4.176     c-12.075,26.552-44.434,104.966-60.987,214.94l-17.611,14.509C24.959,252.629,68.207,155.793,79.975,131.248z M25.423,379.015     l10.287-8.474c0.595,2.177,1.38,4.473,2.42,6.839c0.813,1.848,1.813,3.797,3.035,5.795L25.423,379.015z M459.047,370.866     c-4.868,11.074-15.491,19.056-31.569,23.767l-141.346,37.352l-22.469-66.077c-1.116-3.281-4.198-5.488-7.664-5.488     c-3.467,0-6.547,2.207-7.664,5.488l-22.47,66.077l-141.34-37.351c-15.727-4.608-26.243-12.356-31.254-23.07     c-3.908-8.355-2.983-15.7-2.977-15.75c16.83-114.436,51.1-194.251,61.565-216.719c17.663,3.739,40.858,7.772,68.604,10.634     c20.748,2.138,45.463,3.718,73.215,3.718c42.687,0,92.553-3.742,146.177-14.932c9.898,21.267,44.946,102.352,61.86,217.351     C461.725,355.933,462.572,362.847,459.047,370.866z M470.835,383.176c1.222-1.999,2.222-3.947,3.035-5.795     c1.04-2.367,1.825-4.662,2.42-6.839l10.285,8.474L470.835,383.176z"/>
			<path d="M230.329,125.603h59.028c4.472,0,8.095-3.623,8.095-8.095s-3.623-8.095-8.095-8.095h-59.028     c-4.472,0-8.095,3.623-8.095,8.095S225.857,125.603,230.329,125.603z"/>
		</g>
	</g>
</g>
<g>
</g>
<g>
</g>
<g>
</g>
<g>
</g>
<g>
</g>
<g>
</g>
<g>
</g>
<g>
</g>
<g>
</g>
<g>
</g>
<g>
</g>
<g>
</g>
<g>
</g>
<g>
</g>
<g>
</g>
</svg>
