<?xml version="1.0" encoding="iso-8859-1"?>
<!-- Generator: Adobe Illustrator 19.0.0, SVG Export Plug-In . SVG Version: 6.00 Build 0)  -->
<svg xmlns="http://www.w3.org/2000/svg" xmlns:xlink="http://www.w3.org/1999/xlink" version="1.1" id="Layer_1" x="0px" y="0px" viewBox="0 0 512.001 512.001" style="enable-background:new 0 0 512.001 512.001;" xml:space="preserve">
<g>
	<g>
		<g>
			<path d="M265.584,207.046h-6.001v-18.823c0-4.49-3.638-8.129-8.129-8.129c-4.49,0-8.129,3.638-8.129,8.129v26.952     c0,4.49,3.638,8.129,8.129,8.129h14.13c4.49,0,8.129-3.638,8.129-8.129C273.713,210.685,270.075,207.046,265.584,207.046z"/>
			<path d="M413.493,361.196c-13.909-12.854-28.011-16.887-30.274-17.473l-81.004-24.072v-27.736     c24.638-12.301,42.487-36.218,46.339-64.536c19.866-1.607,35.543-18.277,35.543-38.549c0-10.884-4.523-20.726-11.78-27.763     V150.66c2.762-1.298,4.678-4.098,4.678-7.352V99.134c0-3.424-2.119-6.347-5.115-7.545C361.586,38.429,315.098,0,260.718,0h-8.766     c-26.875,0-52.932,9.582-73.37,26.981c-19.43,16.541-32.712,39.192-37.669,64.041c-4.328,0.182-7.783,3.738-7.783,8.112v44.173     c0,4.137,3.092,7.544,7.089,8.055v9.338c-7.481,7.06-12.164,17.054-12.164,28.128c0,20.272,15.676,36.941,35.54,38.549     c3.853,28.32,21.703,52.237,46.343,64.537v27.69l-81.155,24.118c-2.26,0.584-16.364,4.616-30.275,17.473     c-13.47,12.447-29.525,35.943-29.525,77.188v65.485c0,4.49,3.64,8.131,8.129,8.131h91.136c4.489,0,8.129-3.638,8.129-8.129     c0-4.49-3.64-8.129-8.129-8.129h-20.153v-60.336c0-4.49-3.638-8.129-8.129-8.129c-4.49,0-8.129,3.638-8.129,8.129v30.701H85.241     v-27.724c0-66.398,45.658-78.438,47.559-78.908c0.153-0.036,0.303-0.076,0.454-0.12l84.294-25.05     c7.312,3.481,28.941,16.041,30.327,43.236c-0.035,0.915-0.079,1.823-0.079,2.763c0,0.828,0.126,1.626,0.355,2.379v18.214     c0,4.49,3.638,8.129,8.129,8.129c4.49,0,8.129-3.638,8.129-8.129v-25.535c0-0.268-0.015-0.531-0.04-0.791     c2.741-25.159,23.073-36.93,30.081-40.265l84.296,25.051c0.121,0.036,0.288,0.079,0.411,0.111     c1.944,0.48,47.603,12.522,47.603,78.918v27.724h-48.485v-30.701c0-4.49-3.638-8.129-8.129-8.129     c-4.49,0-8.129,3.638-8.129,8.129v60.336H218.066h-9.339h-9.77c-4.49,0-8.129,3.638-8.129,8.129c0,4.49,3.638,8.129,8.129,8.129     h9.77h9.34h216.823c4.49,0,8.129-3.656,8.129-8.145v-65.472C443.018,397.138,426.963,373.642,413.493,361.196z M131.838,482.365     v13.377H85.241v-13.377H131.838z M367.839,188.828c0,11.021-7.995,20.189-18.485,22.062v-44.127     C359.844,168.636,367.839,177.805,367.839,188.828z M251.952,16.258h8.766c45.312,0,84.232,31.142,94.427,74.748H157.541     C167.727,47.361,206.526,16.258,251.952,16.258z M162.796,210.89c-10.49-1.874-18.483-11.042-18.483-22.061     c0-11.022,7.994-20.191,18.483-22.065V210.89z M149.386,135.179v-27.916h211.35v27.916H149.386z M285.958,320.385     c-7.423,3.783-21.144,12.422-29.958,27.894c-8.754-15.369-22.347-23.993-29.805-27.817v-22.417     c6.886,1.807,14.105,2.777,21.55,2.777h16.664c7.444,0,14.663-0.97,21.548-2.777V320.385z M264.41,284.565h-16.664     c-37.877,0-68.693-30.814-68.693-68.689v-64.44h154.044v64.44C333.096,253.752,302.284,284.565,264.41,284.565z M426.76,495.742     h-48.485v-13.377h48.485V495.742z"/>
			<path d="M199.679,421.176c-3.465,2.855-3.96,7.977-1.107,11.443l18.303,22.219c1.607,1.952,3.934,2.96,6.279,2.96     c1.82,0,3.65-0.608,5.165-1.854c3.465-2.855,3.96-7.977,1.107-11.443l-18.303-22.219     C208.266,418.815,203.143,418.323,199.679,421.176z"/>
			<path d="M200.411,455.943c3.465-2.855,3.96-7.977,1.107-11.443l-5.428-6.59c-2.855-3.464-7.976-3.958-11.443-1.107     c-3.465,2.855-3.96,7.977-1.107,11.443l5.428,6.59c1.607,1.951,3.934,2.96,6.279,2.96     C197.066,457.798,198.896,457.19,200.411,455.943z"/>
			<path d="M200.004,345.473l-73.439,22.104c-4.3,1.293-6.736,5.828-5.442,10.126c1.059,3.518,4.287,5.789,7.781,5.789     c0.776,0,1.564-0.113,2.345-0.347l73.439-22.104c4.3-1.293,6.736-5.828,5.442-10.126     C208.836,346.615,204.3,344.176,200.004,345.473z"/>
			<path d="M381.022,383.145c0.781,0.235,1.569,0.347,2.345,0.347c3.494,0,6.722-2.271,7.781-5.789     c1.294-4.299-1.142-8.832-5.442-10.126l-73.439-22.104c-4.301-1.297-8.832,1.141-10.126,5.442     c-1.294,4.299,1.142,8.832,5.442,10.126L381.022,383.145z"/>
		</g>
	</g>
</g>
<g>
</g>
<g>
</g>
<g>
</g>
<g>
</g>
<g>
</g>
<g>
</g>
<g>
</g>
<g>
</g>
<g>
</g>
<g>
</g>
<g>
</g>
<g>
</g>
<g>
</g>
<g>
</g>
<g>
</g>
</svg>
