<?xml version="1.0" encoding="iso-8859-1"?>
<!-- Generator: Adobe Illustrator 19.0.0, SVG Export Plug-In . SVG Version: 6.00 Build 0)  -->
<svg xmlns="http://www.w3.org/2000/svg" xmlns:xlink="http://www.w3.org/1999/xlink" version="1.1" id="Layer_1" x="0px" y="0px" viewBox="0 0 511.997 511.997" style="enable-background:new 0 0 511.997 511.997;" xml:space="preserve">
<g>
	<g>
		<g>
			<path d="M255.59,229.769h13.772c4.466,0,8.084-3.619,8.084-8.084c0-4.466-3.619-8.084-8.084-8.084h-5.687v-18.186     c0-4.466-3.62-8.084-8.084-8.084s-8.084,3.618-8.084,8.084v26.271C247.506,226.15,251.125,229.769,255.59,229.769z"/>
			<path d="M411.412,367.232c-13.912-13.137-27.927-18.27-29.545-18.835l-52.782-19.304c-0.141-0.052-0.285-0.099-0.429-0.143     l-25.845-7.847v-27.404c0.468-0.233,0.93-0.473,1.393-0.715c0.942,0.632,2.028,1.081,3.221,1.272     c20.17,3.22,38.621,8.436,53.361,15.086c1.079,0.486,2.208,0.717,3.319,0.717c2.826,0,5.522-1.504,6.992-4.058     c0.32-0.296,0.627-0.612,0.903-0.969c26.055-33.61,40.404-77.187,40.404-122.706c0-55.641-21.215-107.519-58.205-142.332     c-0.001-0.001-0.002-0.002-0.004-0.003C326.793,14.202,292.303,0,257.077,0C171.43,0,101.751,81.792,101.751,182.326     c0,46.52,14.907,90.806,41.977,124.701c0.056,0.069,0.119,0.129,0.177,0.196c0.053,0.061,0.107,0.12,0.161,0.179     c0.208,0.23,0.425,0.444,0.652,0.645c0.041,0.036,0.082,0.073,0.124,0.109c0.87,0.734,1.864,1.258,2.917,1.568     c0.024,0.006,0.046,0.013,0.07,0.019c0.34,0.097,0.684,0.172,1.034,0.224c0.022,0.003,0.043,0.008,0.065,0.011     c0.373,0.052,0.747,0.087,1.123,0.087c0.082,0,0.164-0.018,0.246-0.021c0.274-0.009,0.548-0.031,0.821-0.068     c0.155-0.02,0.308-0.044,0.462-0.073c0.316-0.061,0.632-0.138,0.944-0.239c0.157-0.051,0.31-0.116,0.466-0.178     c0.126-0.05,0.253-0.091,0.378-0.147c14.917-6.729,33.612-11.985,54.063-15.198c1.026-0.161,1.973-0.515,2.818-1.01     c0.319,0.165,0.638,0.331,0.959,0.493v27.369l-27.739,7.916c-0.189,0.054-0.374,0.113-0.558,0.181l-52.782,19.304     c-1.614,0.562-15.631,5.695-29.545,18.835c-13.338,12.596-29.237,35.26-29.237,71.704v64.977c0,4.466,3.62,8.086,8.084,8.086     h90.256c4.465,0,8.084-3.619,8.084-8.084c0-4.466-3.62-8.084-8.084-8.084h-19.804v-42.202     c26.612-33.801,20.833-75.336,13.545-100.195l17.399-6.364c8.077,18.167,33.754,68.191,72.481,70.45     c0.91,0.054,1.818,0.08,2.726,0.08c26.927,0,53.224-23.326,78.253-69.389l14.763,5.399c-14.504,49.636-1.53,81.471,13.059,100.04     v42.179H226.616h-20.287h-6.374c-4.465,0-8.084,3.619-8.084,8.084c0,4.466,3.62,8.084,8.084,8.084h6.374h20.287h205.951     c4.466,0,8.084-3.636,8.084-8.1v-64.964C440.651,402.492,424.751,379.828,411.412,367.232z M135.618,445.585     c-0.009,0.01-0.015,0.021-0.023,0.03c-0.13,0.156-0.25,0.319-0.369,0.485c-0.038,0.053-0.081,0.102-0.116,0.156     c-0.139,0.204-0.266,0.416-0.387,0.633c-0.01,0.017-0.02,0.032-0.03,0.05c-0.126,0.231-0.24,0.47-0.343,0.714     c-0.05,0.119-0.087,0.239-0.132,0.359c-0.047,0.128-0.099,0.253-0.14,0.384c-0.079,0.253-0.144,0.509-0.197,0.766     c-0.004,0.023-0.006,0.047-0.011,0.07c-0.046,0.238-0.085,0.477-0.11,0.719c-0.008,0.068-0.006,0.138-0.012,0.207     c-0.015,0.198-0.029,0.398-0.03,0.596c0,0.013-0.002,0.026-0.002,0.039v45.039H87.518v-56.895     c0-58.095,45.969-74.595,47.898-75.259c0.068-0.023,0.135-0.046,0.202-0.07l12.589-4.604     C154.55,381.217,159.28,417.488,135.618,445.585z M152.642,292.079c-22.428-30.37-34.722-69.083-34.722-109.751     c0-91.621,62.425-166.159,139.158-166.159c31.544,0,61.297,12.311,86.041,35.6c0,0,0,0.001,0.001,0.001     c33.755,31.77,53.117,79.356,53.117,130.557c0,40.581-12.303,79.391-34.714,109.755c-11.67-4.72-25.046-8.65-39.425-11.589     c14.259-13.003,24.034-30.828,26.762-50.864c19.713-1.606,35.266-18.15,35.266-38.268c0-17.457-11.709-32.222-27.683-36.876     c1.292-1.433,2.087-3.324,2.087-5.407v-43.931c0-4.466-3.62-8.084-8.084-8.084h-189.71c-4.465,0-8.084,3.619-8.084,8.084v43.931     c0,2.453,1.097,4.647,2.822,6.13c-14.817,5.33-25.442,19.523-25.442,36.154c0,20.12,15.554,36.665,35.268,38.269     c2.729,20.037,12.505,37.863,26.766,50.866C177.685,283.434,164.314,287.359,152.642,292.079z M342.359,140.994H168.818v-27.762     h173.541V140.994z M349.655,213.23v-43.741c10.388,1.867,18.302,10.954,18.302,21.873     C367.956,202.277,360.042,211.363,349.655,213.23z M164.503,169.489v43.742c-10.39-1.866-18.304-10.952-18.304-21.869     C146.2,180.441,154.115,171.354,164.503,169.489z M180.671,218.201v-61.038h152.816v61.038c0,37.572-30.566,68.14-68.137,68.14     h-16.537C211.239,286.34,180.671,255.773,180.671,218.201z M254.271,401.382c-26.412-1.525-48.513-38.433-57.995-59.309     l25.238-7.203c3.472-0.991,5.866-4.163,5.866-7.774v-27.356c6.847,1.801,14.028,2.769,21.433,2.769h16.537     c7.353,0,14.488-0.952,21.293-2.729v27.317c0,3.56,2.328,6.701,5.736,7.736l26.414,8.02     C296.908,382.356,274.703,402.565,254.271,401.382z M424.483,495.832h-0.001H378.28v-45.673c0-2.839-1.466-5.331-3.679-6.773     c-16.479-21.193-20.026-50.167-10.333-84.207l12.111,4.429c0.049,0.017,0.125,0.044,0.174,0.061     c1.956,0.674,47.93,17.173,47.93,75.268V495.832z"/>
			<path d="M275,473.603c1.81,0,3.63-0.605,5.136-1.844c3.446-2.839,3.939-7.933,1.099-11.38l-18.204-22.097     c-2.837-3.447-7.933-3.938-11.379-1.101c-3.446,2.839-3.939,7.933-1.099,11.38l18.202,22.097     C270.355,472.6,272.668,473.603,275,473.603z"/>
			<path d="M236.703,452.725c-3.446,2.839-3.939,7.933-1.099,11.38l5.399,6.554c1.599,1.941,3.912,2.944,6.244,2.944     c1.809,0,3.63-0.605,5.135-1.844c3.446-2.839,3.939-7.933,1.099-11.38l-5.399-6.554     C245.245,450.379,240.149,449.886,236.703,452.725z"/>
		</g>
	</g>
</g>
<g>
</g>
<g>
</g>
<g>
</g>
<g>
</g>
<g>
</g>
<g>
</g>
<g>
</g>
<g>
</g>
<g>
</g>
<g>
</g>
<g>
</g>
<g>
</g>
<g>
</g>
<g>
</g>
<g>
</g>
</svg>
