<?xml version="1.0" encoding="iso-8859-1"?>
<!-- Generator: Adobe Illustrator 19.0.0, SVG Export Plug-In . SVG Version: 6.00 Build 0)  -->
<svg xmlns="http://www.w3.org/2000/svg" xmlns:xlink="http://www.w3.org/1999/xlink" version="1.1" id="Layer_1" x="0px" y="0px" viewBox="0 0 512 512" style="enable-background:new 0 0 512 512;" xml:space="preserve">
<g>
	<g>
		<g>
			<path d="M366.247,198.904h-13.579h-10.779h-43.901c-6.241,0-11.318-5.077-11.318-11.318c0-6.241,5.077-11.318,11.318-11.318     h26.773h18.207h6.151c15.156,0,27.486-12.33,27.486-27.486c0-4.466-3.618-8.084-8.084-8.084c-4.466,0-8.084,3.618-8.084,8.084     c0,6.241-5.077,11.318-11.318,11.318h-6.151H324.76h-26.773c-15.156,0-27.486,12.33-27.486,27.486s12.33,27.486,27.486,27.486     h43.901h10.779h13.579c6.241,0,11.318,5.077,11.318,11.318c0,4.466,3.618,8.084,8.084,8.084c4.466,0,8.084-3.618,8.084-8.084     C393.733,211.235,381.402,198.904,366.247,198.904z"/>
			<path d="M401.271,110.731C362.468,71.929,310.878,50.56,256.002,50.56c-45.269,0-89.835,15.183-125.487,42.752     c-1.838,1.42-2.975,3.563-3.122,5.881c-0.149,2.317,0.708,4.588,2.351,6.23l150.365,150.365c0.005,0.005,0.009,0.011,0.013,0.015     l42.577,42.577c0.008,0.008,0.015,0.013,0.023,0.021l83.855,83.855c1.521,1.52,3.58,2.367,5.717,2.367     c0.17,0,0.342-0.005,0.514-0.017c2.318-0.148,4.461-1.284,5.882-3.122C481.668,300.04,474.181,183.642,401.271,110.731z      M343.6,284.581h-11.834l-26.408-26.408H343.6V284.581z M411.355,364.17l-63.421-63.421h3.75h34.798     c4.466,0,8.084-3.618,8.084-8.084v-42.577c0-4.466-3.618-8.084-8.084-8.084h-34.798h-62.495L147.835,100.648     c31.492-21.931,69.549-33.92,108.168-33.92c50.556,0,98.087,19.688,133.835,55.437     C454.825,187.151,463.404,289.631,411.355,364.17z M359.769,284.581v-26.408h18.629v26.408H359.769z"/>
			<path d="M262.631,286.948l-42.577-42.577l-114.63-114.63c-1.642-1.641-3.908-2.507-6.23-2.351     c-2.318,0.148-4.461,1.284-5.882,3.122c-62.977,81.446-55.489,197.845,17.42,270.756c38.802,38.802,90.391,60.171,145.266,60.171     c45.269,0,89.836-15.183,125.488-42.751c1.838-1.421,2.975-3.565,3.122-5.882c0.149-2.317-0.708-4.588-2.351-6.23     L262.631,286.948z M255.999,445.271c-50.555,0-98.085-19.688-133.832-55.437c-64.986-64.987-73.565-167.467-21.521-242.005     l94.175,94.174h-10.06h-67.966c-4.466,0-8.084,3.619-8.084,8.084v42.577c0,4.466,3.618,8.084,8.084,8.084h67.966h19.606     c4.466,0,8.084-3.618,8.084-8.084c0-4.466-3.618-8.084-8.084-8.084h-11.522v-26.408h18.144l26.408,26.408h-5.723     c-4.466,0-8.084,3.618-8.084,8.084c0,4.466,3.618,8.084,8.084,8.084h21.891l110.6,110.601     C332.675,433.281,294.617,445.271,255.999,445.271z M176.677,258.172v26.408h-51.798v-26.408H176.677z"/>
			<path d="M437.02,74.98C388.668,26.628,324.38,0,256,0S123.333,26.628,74.981,74.98C26.63,123.332,0.001,187.62,0.001,255.999     s26.628,132.667,74.98,181.019C123.333,485.371,187.621,512,256,512s132.667-26.629,181.019-74.981     c48.352-48.352,74.98-112.64,74.98-181.019S485.371,123.332,437.02,74.98z M425.587,425.585     c-45.297,45.298-105.523,70.246-169.586,70.246s-124.289-24.948-169.586-70.246c-45.3-45.297-70.246-105.523-70.246-169.586     S41.116,131.711,86.414,86.414C131.712,41.115,191.939,16.168,256,16.168s124.289,24.947,169.586,70.245     c45.299,45.297,70.245,105.523,70.245,169.586S470.885,380.288,425.587,425.585z"/>
		</g>
	</g>
</g>
<g>
</g>
<g>
</g>
<g>
</g>
<g>
</g>
<g>
</g>
<g>
</g>
<g>
</g>
<g>
</g>
<g>
</g>
<g>
</g>
<g>
</g>
<g>
</g>
<g>
</g>
<g>
</g>
<g>
</g>
</svg>
