<?xml version="1.0" encoding="iso-8859-1"?>
<!-- Generator: Adobe Illustrator 19.0.0, SVG Export Plug-In . SVG Version: 6.00 Build 0)  -->
<svg xmlns="http://www.w3.org/2000/svg" xmlns:xlink="http://www.w3.org/1999/xlink" version="1.1" id="Layer_1" x="0px" y="0px" viewBox="0 0 512 512" style="enable-background:new 0 0 512 512;" xml:space="preserve">
<g>
	<g>
		<g>
			<path d="M336.419,360.738c-0.002-0.002-0.003-0.004-0.004-0.005l-13.911-13.91l-65.643-65.643l-2.793-2.794     c-0.002-0.002-0.003-0.004-0.005-0.006l-16.116-16.116l-35.19-35.189l-45.705-45.706l-26.952-26.952     c-0.001-0.001-0.001-0.001-0.002-0.002l-24.673-24.674c-1.642-1.641-3.91-2.507-6.23-2.351c-2.318,0.148-4.461,1.284-5.882,3.122     c-62.979,81.448-55.49,197.846,17.419,270.756c38.802,38.802,90.391,60.171,145.265,60.171     c45.269,0,89.835-15.183,125.486-42.752c1.838-1.42,2.975-3.564,3.124-5.881c0.148-2.317-0.709-4.588-2.352-6.23L336.419,360.738     z M244.996,292.179l20.703,20.703h-136.17c-2.096,0.001-3.802-2.022-3.802-4.51v-11.68c0-2.488,1.705-4.512,3.802-4.512h56.496     l12.131,15.362c1.144,1.45,2.737,2.448,4.501,2.861c0.589,0.138,1.195,0.21,1.811,0.212c0.011,0,0.02,0,0.031,0     c0.612,0,1.217-0.069,1.803-0.204c1.758-0.402,3.351-1.386,4.502-2.821l12.369-15.412H244.996z M212.414,259.6l8.973,8.973     l-8.391,10.456c-0.002,0.003-0.004,0.005-0.006,0.008l-8.439,10.516l-8-10.131c-0.179-0.251-0.367-0.496-0.572-0.724     l-6.542-8.285l-8.538-10.812H212.414z M196.246,243.43h-32.031H144.44h-18.713v-13.323h4.998h52.198L196.246,243.43z      M116.77,198.639c1.602-8.799,4.664-17.359,9.132-25.552l40.852,40.853h-36.031c-5.177,0-8.902-1.254-11.073-3.725     C116.163,206.242,116.665,199.684,116.77,198.639z M122.982,259.6h21.459h15.858l12.958,16.413h-43.728h-6.547v-0.001     c-4.023,0-7.296-3.679-7.296-8.202C115.685,263.283,118.959,259.6,122.982,259.6z M255.998,445.271     c-50.555,0-98.085-19.688-133.832-55.437c-64.987-64.986-73.566-167.466-21.521-242.005l13.421,13.421     c-6.632,11.01-11.088,22.68-13.255,34.781c-0.023,0.126-0.042,0.253-0.059,0.382c-0.318,2.443-1.484,15.096,6.751,24.471     c0.649,0.739,1.336,1.432,2.056,2.082v24.865c-6.065,4.412-10.042,11.72-10.042,19.979c0,8.927,4.649,16.744,11.562,20.99     c-0.974,2.434-1.519,5.097-1.519,7.892v11.68c0,1.551,0.179,3.057,0.494,4.512h-2.451c-4.466,0-8.084,3.618-8.084,8.084v28.063     c0,14.062,11.001,25.503,24.524,25.503h50.553c4.466,0,8.084-3.618,8.084-8.084c0-4.466-3.618-8.084-8.084-8.084h-50.553     c-4.607,0-8.356-4.188-8.356-9.335v-19.979h13.844h152.337l7.968,7.968l21.346,21.346H201.537c-4.466,0-8.084,3.618-8.084,8.084     c0,4.466,3.618,8.084,8.084,8.084h125.812l36.815,36.815C332.674,433.281,294.617,445.271,255.998,445.271z"/>
			<path d="M401.269,110.731C362.467,71.929,310.878,50.56,256.001,50.56c-45.269,0-89.836,15.183-125.489,42.752     c-1.837,1.42-2.975,3.563-3.122,5.881c-0.149,2.317,0.708,4.588,2.351,6.23l30.737,30.737l91.579,91.579     c0.003,0.003,0.008,0.006,0.011,0.01l29.482,29.481l32.581,32.581l36.871,36.871l41.589,41.589l0.001,0.001l13.981,13.982     c1.521,1.52,3.58,2.367,5.717,2.367c0.17,0,0.342-0.005,0.514-0.017c2.318-0.148,4.461-1.284,5.881-3.122     C481.666,300.038,474.179,183.639,401.269,110.731z M174.253,127.07c23.717-12.803,52.292-19.778,81.594-19.786     c0.044,0.001,0.094,0.001,0.128,0.001l0.126-0.001c69.905,0,129.669,39.273,139.134,91.386c0.248,2.182,0.18,8.049-2.881,11.54     c-2.172,2.475-5.899,3.731-11.079,3.731H261.123L174.253,127.07z M277.292,230.107h103.984h4.998v13.323h-95.66L277.292,230.107z      M339.364,292.18h43.106c2.098,0,3.804,2.024,3.804,4.512v11.68c0,2.488-1.706,4.512-3.804,4.512h-22.403v-0.001L339.364,292.18z      M396.314,349.03c0,0.033,0,0.067,0,0.099l-2.508-2.508l-17.57-17.57h6.233h13.844V349.03z M389.021,276.012h-6.551h-59.273     l-16.413-16.413h82.238c4.022,0.001,7.293,3.684,7.293,8.211C396.314,272.333,393.042,276.012,389.021,276.012z M411.353,364.17     l-2.243-2.243c2.182-3.863,3.372-8.293,3.372-12.896v-28.063c0-4.466-3.619-8.084-8.084-8.084h-2.449     c0.314-1.454,0.494-2.961,0.494-4.512v-11.68c0-2.795-0.544-5.458-1.519-7.892c6.911-4.245,11.559-12.062,11.559-20.99     c0-8.259-3.976-15.566-10.039-19.979v-24.864c0.724-0.655,1.415-1.354,2.068-2.098c8.239-9.395,7.057-22.031,6.736-24.469     c-0.016-0.123-0.035-0.247-0.057-0.37c-5.221-29.181-23.887-55.895-52.56-75.221c-28.41-19.15-64.823-29.696-102.528-29.696     c-0.053-0.001-0.152-0.001-0.203,0c-33.702,0-66.637,8.518-93.522,24.079l-14.545-14.545     c31.493-21.932,69.551-33.921,108.17-33.921c50.556,0,98.086,19.688,133.834,55.437     C454.824,187.15,463.402,289.63,411.353,364.17z"/>
			<path d="M437.02,74.98C388.667,26.628,324.379,0,256,0S123.333,26.628,74.981,74.98C26.63,123.332,0.001,187.62,0.001,255.999     s26.628,132.667,74.98,181.019C123.333,485.371,187.621,512,256,512s132.667-26.629,181.02-74.981     c48.351-48.352,74.979-112.64,74.979-181.019S485.371,123.332,437.02,74.98z M425.586,425.585     C380.289,470.884,320.062,495.832,256,495.832s-124.289-24.948-169.586-70.246c-45.298-45.297-70.245-105.523-70.245-169.586     S41.116,131.711,86.414,86.414C131.712,41.115,191.939,16.168,256,16.168s124.289,24.947,169.587,70.245     c45.298,45.297,70.244,105.523,70.244,169.586S470.885,380.288,425.586,425.585z"/>
		</g>
	</g>
</g>
<g>
</g>
<g>
</g>
<g>
</g>
<g>
</g>
<g>
</g>
<g>
</g>
<g>
</g>
<g>
</g>
<g>
</g>
<g>
</g>
<g>
</g>
<g>
</g>
<g>
</g>
<g>
</g>
<g>
</g>
</svg>
