<?xml version="1.0" encoding="iso-8859-1"?>
<!-- Generator: Adobe Illustrator 19.0.0, SVG Export Plug-In . SVG Version: 6.00 Build 0)  -->
<svg xmlns="http://www.w3.org/2000/svg" xmlns:xlink="http://www.w3.org/1999/xlink" version="1.1" id="Layer_1" x="0px" y="0px" viewBox="0 0 512.001 512.001" style="enable-background:new 0 0 512.001 512.001;" xml:space="preserve">
<g>
	<g>
		<g>
			<path d="M392.977,202.385c-13.829-23.558-33.536-43.264-57.095-57.091c-0.233-0.17-0.476-0.331-0.731-0.478     c-0.217-0.126-0.439-0.235-0.663-0.339c-23.295-13.358-50.267-21.002-78.991-21.003c0,0,0,0-0.001,0c0,0-0.001,0-0.002,0     c-28.748,0-55.741,7.656-79.051,21.034c-0.203,0.095-0.404,0.194-0.601,0.308c-0.249,0.144-0.488,0.3-0.717,0.466     c-23.577,13.834-43.297,33.553-57.13,57.13c-0.165,0.227-0.319,0.464-0.463,0.712c-0.108,0.188-0.202,0.381-0.293,0.573     c-13.388,23.315-21.051,50.317-21.051,79.076v0.001c0,28.771,7.668,55.785,21.065,79.106c0.088,0.183,0.176,0.365,0.279,0.544     c0.102,0.176,0.222,0.333,0.334,0.498c13.844,23.682,33.62,43.485,57.279,57.364c0.222,0.161,0.454,0.311,0.697,0.451     c0.126,0.073,0.257,0.125,0.385,0.19c23.358,13.456,50.43,21.158,79.268,21.158c0,0,0.001,0,0.002,0c0,0,0,0,0.001,0     c28.809,0,55.855-7.688,79.197-21.119c0.152-0.075,0.306-0.138,0.454-0.223c0.255-0.146,0.497-0.307,0.729-0.476     c23.624-13.866,43.376-33.642,57.211-57.288c0.125-0.181,0.256-0.355,0.368-0.548c0.118-0.205,0.221-0.414,0.32-0.625     c13.37-23.304,21.021-50.289,21.023-79.028v-0.001c0,0,0,0,0-0.001s0-0.002,0-0.002c0-28.708-7.638-55.665-20.981-78.952     c-0.107-0.235-0.226-0.468-0.357-0.697C393.312,202.866,393.149,202.621,392.977,202.385z M398.294,274.645h-18.237     c-4.493,0-8.133,3.64-8.133,8.133s3.64,8.133,8.133,8.133h18.237c-1.134,20.124-6.446,39.146-15.08,56.216l-15.779-9.109     c-3.891-2.248-8.865-0.913-11.11,2.977c-2.246,3.891-0.913,8.865,2.977,11.11l15.755,9.095     c-10.762,16.353-24.785,30.377-41.139,41.141l-9.098-15.754c-2.247-3.889-7.22-5.221-11.111-2.976     c-3.89,2.246-5.221,7.221-2.976,11.111l9.112,15.779c-17.07,8.635-36.092,13.947-56.214,15.081V407.34     c0-4.493-3.64-8.133-8.133-8.133c-4.493,0-8.133,3.64-8.133,8.133v18.242c-20.124-1.133-39.148-6.445-56.219-15.081l9.116-15.783     c2.247-3.89,0.915-8.864-2.975-11.11c-3.888-2.246-8.864-0.916-11.11,2.975l-9.103,15.76     c-16.356-10.764-30.38-24.789-41.144-41.145l15.76-9.095c3.89-2.245,5.224-7.219,2.979-11.11     c-2.247-3.89-7.221-5.225-11.11-2.979l-15.788,9.111c-8.635-17.07-13.947-36.094-15.08-56.216l18.242,0.002     c0.001,0,0.001,0,0.001,0c4.492,0,8.133-3.64,8.133-8.132c0.001-4.493-3.64-8.133-8.132-8.134l-18.244-0.002     c1.133-20.123,6.445-39.145,15.08-56.215l15.784,9.113c1.282,0.74,2.68,1.091,4.059,1.091c2.811,0,5.545-1.459,7.051-4.069     c2.246-3.89,0.913-8.864-2.977-11.11l-15.758-9.098c10.764-16.355,24.788-30.378,41.143-41.141l9.097,15.758     c1.506,2.609,4.24,4.069,7.051,4.069c1.379,0,2.779-0.351,4.059-1.091c3.89-2.246,5.223-7.22,2.977-11.11l-9.112-15.784     c17.071-8.635,36.094-13.946,56.217-15.08v18.24c0,4.492,3.64,8.133,8.133,8.133s8.133-3.641,8.133-8.133v-18.24     c20.124,1.134,39.146,6.446,56.216,15.081l-9.109,15.776c-2.246,3.89-0.913,8.864,2.977,11.11c1.281,0.74,2.68,1.091,4.059,1.091     c2.811,0,5.545-1.459,7.051-4.068l9.094-15.75c16.354,10.763,30.378,24.787,41.141,41.142l-15.752,9.095     c-3.89,2.246-5.223,7.22-2.977,11.11c1.507,2.609,4.24,4.068,7.051,4.068c1.379,0,2.779-0.351,4.059-1.091l15.777-9.109     C391.85,235.501,397.16,254.522,398.294,274.645z"/>
			<path d="M458.332,282.777c0-18.798-2.572-37.419-7.646-55.343c-1.224-4.321-5.716-6.836-10.042-5.611     c-4.321,1.223-6.834,5.718-5.611,10.041c4.666,16.484,7.031,33.614,7.031,50.914c0,72.328-41.37,135.175-101.688,166.122     c-0.01,0.004-0.018,0.01-0.028,0.014c-25.47,13.062-54.318,20.437-84.855,20.437c-30.511,0-59.335-7.363-84.79-20.406     c-0.075-0.038-0.149-0.077-0.223-0.116C110.234,417.858,68.925,355.05,68.925,282.775c0-94.381,70.448-172.606,161.521-184.882     c0.248-0.01,0.498-0.025,0.747-0.057c6.187-0.807,12.305-1.314,18.263-1.521c0.056-0.002,0.113-0.004,0.169-0.006     c1.975-0.067,3.933-0.102,5.869-0.102c7.828,0,16.005,0.549,24.301,1.63c0.18,0.024,0.358,0.024,0.537,0.035     c63.725,8.558,119.388,49.639,145.871,109.504c1.816,4.108,6.619,5.964,10.728,4.148c4.108-1.817,5.964-6.62,4.147-10.728     C413.19,137.752,355.535,93.867,288.98,82.722V58.176h18.657c4.493,0,8.133-3.641,8.133-8.133V13.685     c0-4.492-3.64-8.133-8.133-8.133H203.349c-4.493,0-8.133,3.641-8.133,8.133v36.357c0,4.492,3.64,8.133,8.133,8.133h18.66v24.546     C126.046,98.732,52.66,182.339,52.66,282.777c0,63.019,28.889,119.414,74.115,156.648L95.28,494.266     c-1.446,2.517-1.44,5.614,0.014,8.126c1.454,2.511,4.136,4.058,7.039,4.058h41.797c2.906,0,5.59-1.551,7.043-4.067l20.229-35.036     c25.633,11.726,54.112,18.271,84.093,18.271c29.982,0,58.461-6.546,84.095-18.272l20.229,35.038     c1.453,2.516,4.137,4.067,7.043,4.067h41.801c2.903,0,5.585-1.546,7.039-4.058c1.454-2.512,1.46-5.609,0.014-8.126     l-31.496-54.843C429.446,402.189,458.332,345.794,458.332,282.777z M272.715,80.681c-5.693-0.485-11.436-0.739-17.219-0.739     c-1.49,0-2.992,0.021-4.503,0.057c-4.273,0.093-8.512,0.326-12.717,0.681V58.176h34.439V80.681z M211.483,41.909V21.818h88.022     v20.091h-18.657h-50.705H211.483z M139.435,490.183h-23.052l23.439-40.815c5.486,3.813,11.18,7.365,17.038,10.633     L139.435,490.183z M394.614,490.183h-23.056L354.133,460c5.856-3.265,11.551-6.818,17.042-10.634L394.614,490.183z"/>
			<path d="M331.51,303.081l-44.814-25.167c-1.041-6.708-4.203-12.725-8.776-17.341l32.065-56.346     c2.222-3.904,0.858-8.869-3.046-11.091c-3.906-2.22-8.869-0.859-11.093,3.046l-31.96,56.163c-2.673-0.737-5.484-1.14-8.389-1.14     c-17.409,0-31.573,14.164-31.573,31.571c0,17.411,14.165,31.576,31.573,31.576c3.803,0,7.451-0.677,10.831-1.915l45.552,25.579     c2.995,1.684,6.387,2.574,9.809,2.574c7.235,0,13.932-3.917,17.473-10.224C344.575,320.733,341.141,308.493,331.51,303.081z      M270.798,282.846c0,0.072-0.007,0.142-0.009,0.214c-0.007,0.338-0.023,0.674-0.051,1.006c-0.017,0.198-0.039,0.397-0.063,0.594     c-0.033,0.259-0.073,0.516-0.118,0.771c-0.049,0.277-0.104,0.551-0.168,0.823c-0.062,0.267-0.128,0.531-0.204,0.793     c-0.059,0.202-0.122,0.401-0.19,0.6c-0.078,0.23-0.163,0.458-0.25,0.683c-0.083,0.214-0.168,0.426-0.26,0.634     c-0.137,0.307-0.281,0.608-0.436,0.904c-0.078,0.15-0.162,0.296-0.245,0.444c-0.154,0.27-0.314,0.535-0.483,0.795     c-0.063,0.096-0.121,0.196-0.187,0.292c-0.241,0.351-0.496,0.692-0.765,1.021c-0.062,0.076-0.126,0.149-0.189,0.223     c-0.246,0.292-0.502,0.574-0.769,0.846c-0.049,0.05-0.096,0.102-0.146,0.151c-0.322,0.319-0.657,0.625-1.006,0.914     c-0.039,0.033-0.08,0.063-0.119,0.094c-0.311,0.254-0.634,0.494-0.966,0.723c-0.074,0.051-0.146,0.102-0.221,0.152     c-2.425,1.615-5.332,2.56-8.457,2.56c-8.439-0.001-15.306-6.869-15.306-15.311c0-8.439,6.867-15.304,15.307-15.304     c8.437,0,15.301,6.86,15.307,15.295C270.804,282.792,270.798,282.818,270.798,282.846z M324.98,322.398     c-0.796,1.419-2.223,1.924-3.291,1.924c-0.644,0-1.262-0.164-1.84-0.488l-39.185-22.004c0.04-0.053,0.076-0.11,0.116-0.164     c0.313-0.418,0.616-0.844,0.908-1.277c0.111-0.165,0.215-0.335,0.322-0.502c0.218-0.336,0.432-0.674,0.637-1.019     c0.091-0.154,0.179-0.309,0.267-0.464c0.223-0.389,0.437-0.784,0.644-1.183c0.057-0.111,0.115-0.221,0.17-0.333     c0.259-0.516,0.506-1.04,0.739-1.571l39.077,21.944C325.354,318.28,326.001,320.584,324.98,322.398z"/>
			<path d="M270.923,332.109h-30.855c-4.493,0-8.133,3.64-8.133,8.133s3.64,8.133,8.133,8.133h30.855     c4.493,0,8.133-3.64,8.133-8.133C279.056,335.751,275.415,332.109,270.923,332.109z"/>
			<path d="M511.893,109.879c-0.678-14.073-4.539-27.49-11.161-39.469c4.191-5.611,6.459-12.378,6.459-19.517     c0-18.07-14.7-32.769-32.768-32.769c-9.116,0-17.665,3.764-23.801,10.272c-9.355-3.198-19.246-4.876-29.328-4.876     c-25.541,0-50.032,10.839-67.198,29.741c-2.741,3.024-5.348,6.334-7.747,9.839c-2.295,3.352-1.764,7.885,1.243,10.615     l121.108,109.969c1.547,1.404,3.506,2.111,5.469,2.111c1.848,0,3.699-0.628,5.212-1.889c3.254-2.716,6.303-5.635,9.059-8.671     C504.73,157.297,513.06,134.086,511.893,109.879z M474.423,34.391c9.099,0,16.502,7.403,16.502,16.503     c0,1.465-0.19,2.9-0.558,4.276c-0.604-0.615-1.215-1.208-1.823-1.807c-1.979-2.18-4.072-4.277-6.281-6.282     c-4.654-4.226-9.699-7.902-15.028-11.039C469.44,34.972,471.889,34.391,474.423,34.391z M476.396,164.303     c-0.723,0.797-1.472,1.584-2.243,2.36L364.014,66.654c0.698-0.845,1.41-1.666,2.131-2.461     c14.084-15.51,34.186-24.406,55.15-24.406c12.931,0,25.485,3.353,36.561,9.61c5.581,3.689,10.87,7.777,15.779,12.233     c1.011,0.919,2.018,1.866,3.019,2.84c11.47,12.716,18.154,28.859,18.991,46.192C496.603,130.529,489.767,149.579,476.396,164.303     z"/>
			<path d="M165.653,63.102c-2.394-3.499-5.001-6.809-7.753-9.844c-17.16-18.898-41.651-29.737-67.194-29.737     c-10.081,0-19.972,1.679-29.327,4.876c-6.136-6.508-14.685-10.272-23.8-10.272c-18.07,0-32.77,14.7-32.77,32.769     c0,7.14,2.269,13.906,6.46,19.516C4.648,82.388,0.787,95.807,0.108,109.879c-1.166,24.206,7.163,47.417,23.452,65.354     c2.746,3.029,5.794,5.947,9.058,8.673c1.513,1.263,3.365,1.891,5.214,1.891c1.963,0,3.921-0.707,5.469-2.111L164.409,73.717     C167.417,70.985,167.948,66.454,165.653,63.102z M37.58,34.391c2.533,0,4.981,0.58,7.186,1.652     c-5.329,3.136-10.375,6.813-15.029,11.039c-2.205,2.002-4.295,4.098-6.272,6.274c-0.612,0.601-1.224,1.196-1.831,1.813     c-0.369-1.376-0.558-2.811-0.558-4.276C21.076,41.793,28.479,34.391,37.58,34.391z M37.849,166.663     c-0.773-0.776-1.52-1.565-2.244-2.361c-13.37-14.723-20.207-33.773-19.248-53.639c0.835-17.334,7.52-33.478,18.991-46.194     c1-0.973,2.006-1.919,3.016-2.837c4.914-4.46,10.207-8.551,15.795-12.243c11.073-6.253,23.622-9.603,36.548-9.603     c20.966,0,41.067,8.896,55.147,24.402c0.724,0.798,1.437,1.621,2.136,2.467L37.849,166.663z"/>
		</g>
	</g>
</g>
<g>
</g>
<g>
</g>
<g>
</g>
<g>
</g>
<g>
</g>
<g>
</g>
<g>
</g>
<g>
</g>
<g>
</g>
<g>
</g>
<g>
</g>
<g>
</g>
<g>
</g>
<g>
</g>
<g>
</g>
</svg>
