<?xml version="1.0" encoding="iso-8859-1"?>
<!-- Generator: Adobe Illustrator 19.0.0, SVG Export Plug-In . SVG Version: 6.00 Build 0)  -->
<svg xmlns="http://www.w3.org/2000/svg" xmlns:xlink="http://www.w3.org/1999/xlink" version="1.1" id="Layer_1" x="0px" y="0px" viewBox="0 0 511.999 511.999" style="enable-background:new 0 0 511.999 511.999;" xml:space="preserve">
<g>
	<g>
		<g>
			<path d="M229.542,204.833V41.534c0-4.443-3.6-8.043-8.043-8.043H64.67c-4.443,0-8.043,3.6-8.043,8.043v163.299     c0,4.443,3.6,8.043,8.043,8.043H221.5C225.941,212.876,229.542,209.275,229.542,204.833z M213.457,196.791H72.713v-16.08h140.744     V196.791z M213.457,164.624H72.713V49.577h140.744V164.624z"/>
			<path d="M82.77,285.842c0,33.26,27.057,60.317,60.314,60.317c33.261,0,60.319-27.057,60.319-60.317s-27.058-60.317-60.319-60.317     C109.827,225.526,82.77,252.583,82.77,285.842z M187.318,285.842c0,24.389-19.843,44.231-44.233,44.231     c-24.388,0-44.229-19.842-44.229-44.231s19.841-44.231,44.229-44.231C167.475,241.612,187.318,261.454,187.318,285.842z"/>
			<path d="M126.28,255.971c-2.563,1.384-4.177,4.046-4.219,6.959l-0.662,45.593c-0.043,2.911,1.494,5.619,4.014,7.079     c1.246,0.721,2.637,1.081,4.028,1.081c1.422,0,2.844-0.377,4.11-1.129l37.441-22.258c2.402-1.428,3.891-4.002,3.931-6.798     c0.041-2.794-1.373-5.41-3.733-6.907l-36.779-23.335C131.952,254.693,128.839,254.587,126.28,255.971z M137.936,277.541     l13.582,8.617l-13.826,8.22L137.936,277.541z"/>
			<path d="M92.649,87.221h6.361c4.443,0,8.043-3.6,8.043-8.043s-3.6-8.043-8.043-8.043h-6.361c-4.443,0-8.043,3.6-8.043,8.043     S88.207,87.221,92.649,87.221z"/>
			<path d="M125.345,87.221H193.8c4.443,0,8.043-3.6,8.043-8.043s-3.6-8.043-8.043-8.043h-68.456c-4.443,0-8.043,3.6-8.043,8.043     S120.902,87.221,125.345,87.221z"/>
			<path d="M92.649,116.115h6.361c4.443,0,8.043-3.6,8.043-8.043c0-4.443-3.6-8.043-8.043-8.043h-6.361     c-4.443,0-8.043,3.6-8.043,8.043C84.606,112.515,88.207,116.115,92.649,116.115z"/>
			<path d="M125.345,116.115H193.8c4.443,0,8.043-3.6,8.043-8.043c0-4.443-3.6-8.043-8.043-8.043h-68.456     c-4.443,0-8.043,3.6-8.043,8.043C117.302,112.515,120.902,116.115,125.345,116.115z"/>
			<path d="M92.649,145.011h6.361c4.443,0,8.043-3.6,8.043-8.043c0-4.443-3.6-8.043-8.043-8.043h-6.361     c-4.443,0-8.043,3.6-8.043,8.043C84.606,141.411,88.207,145.011,92.649,145.011z"/>
			<path d="M125.345,145.011H193.8c4.443,0,8.043-3.6,8.043-8.043c0-4.443-3.6-8.043-8.043-8.043h-68.456     c-4.443,0-8.043,3.6-8.043,8.043C117.302,141.411,120.902,145.011,125.345,145.011z"/>
			<path d="M323.393,197.606V331.96c-0.01,1.083-0.059,26.712,15.627,42.539c7.941,8.013,18.279,12.076,30.726,12.076     c7.021,0,13.652,1.058,19.712,3.148c0.869,0.299,1.752,0.441,2.621,0.441c3.336,0,6.456-2.092,7.604-5.424     c1.448-4.199-0.783-8.778-4.982-10.225c-7.751-2.671-16.147-4.026-24.955-4.026c-8.085,0-14.383-2.376-19.253-7.265     c-10.963-11.004-11.014-30.94-11.014-31.191V197.606c8.339-3.237,14.276-11.327,14.276-20.798V90.37h7.948v6.787     c0,12.498,10.168,22.668,22.669,22.668h10.359c12.5,0,22.669-10.168,22.669-22.668V53.279c0-12.498-10.168-22.668-22.669-22.668     h-10.359c-11.563,0-21.114,8.708-22.483,19.906h-30.453c-0.279,0-0.553,0.014-0.824,0.042     c-11.925,0.439-21.497,10.249-21.497,22.28v103.97C309.116,186.278,315.053,194.369,323.393,197.606z M377.789,82.327V58.56     v-5.281c0-3.63,2.953-6.582,6.583-6.582h10.359c3.63,0,6.583,2.952,6.583,6.582v43.878c0,3.63-2.953,6.582-6.583,6.582h-10.359     c-3.63,0-6.583-2.952-6.583-6.582V82.327z M361.704,66.602v0.001v7.68h-7.948v-1.446c0-0.687-0.042-1.364-0.103-2.036     c-0.016-0.182-0.038-0.362-0.058-0.543c-0.064-0.554-0.148-1.103-0.252-1.645c-0.023-0.12-0.04-0.241-0.065-0.361     c-0.117-0.558-0.25-1.109-0.408-1.65H361.704z M325.201,72.839c0-3.438,2.797-6.235,6.235-6.235     c3.437-0.001,6.234,2.797,6.234,6.235v9.488v94.481c0,3.438-2.796,6.235-6.234,6.235c-3.438,0-6.235-2.797-6.235-6.235V72.839z"/>
			<path d="M468.296,157.653c-0.271-0.028-0.546-0.042-0.824-0.042H437.02c-1.368-11.2-10.919-19.907-22.483-19.907h-10.359     c-12.5,0-22.669,10.168-22.669,22.668v43.878c0,12.498,10.168,22.668,22.669,22.668h10.359c12.5,0,22.669-10.168,22.669-22.668     v-6.788h7.946v86.44c0,9.47,5.938,17.561,14.278,20.798v52.452c0,0.134,0.003,0.269,0.011,0.403     c0.016,0.322,1.493,32.588-9.185,65.901c-2.972,9.27-6.551,17.656-10.725,25.164c0.307-2.67,0.477-5.364,0.499-8.076     c0.149-19.287-7.292-37.755-20.416-50.669c-3.166-3.114-8.257-3.073-11.374,0.091c-3.115,3.166-3.075,8.258,0.091,11.374     c10.038,9.878,15.729,24.122,15.614,39.079c-0.128,16.399-7.022,32.061-19.411,44.228c-10.22,5.628-21.784,9.18-34.684,10.605     c-40.451,4.471-52.171-14.356-64.587-34.283c-12.398-19.9-26.447-42.456-68.952-28.054     c-37.893,12.836-65.565,21.31-76.581,13.415c-5.014-3.596-7.792-11.673-8.446-24.589c7.212-3.168,12.267-10.369,12.267-18.737     v-20.998h73.031c15.101,0,27.387-12.285,27.387-27.385v-95.235c0-4.443-3.6-8.043-8.043-8.043c-4.443,0-8.043,3.6-8.043,8.043     v95.235c0,6.232-5.07,11.3-11.302,11.3h-81.073h-24.843H49.591c-6.232,0-11.3-5.069-11.3-11.3V27.386     c0-6.23,5.069-11.301,11.3-11.301h186.988c6.233,0,11.302,5.07,11.302,11.301v206.269c0,4.443,3.6,8.043,8.043,8.043     c4.443,0,8.043-3.6,8.043-8.043V27.386C263.967,12.285,251.68,0,236.579,0H49.591c-15.1,0-27.385,12.285-27.385,27.386v327.232     c0,15.1,12.285,27.385,27.385,27.385h73.031v20.998c0,8.491,5.2,15.787,12.58,18.88c0.88,18.753,5.748,30.775,15.153,37.518     c17.682,12.68,46.142,3.986,91.116-11.251c30.426-10.308,37.847,1.596,50.14,21.326c11.925,19.14,26.492,42.526,66.824,42.525     c4.116-0.001,8.504-0.245,13.179-0.76c15.061-1.664,28.676-5.907,40.742-12.585c0.593-0.238,1.161-0.557,1.696-0.943     c23.695-13.735,41.198-37.139,51.522-69.347c11.215-34.994,10.085-68.137,9.942-71.402v-52.264     c8.34-3.236,14.278-11.327,14.278-20.798v-103.97C489.793,167.903,480.221,158.092,468.296,157.653z M421.119,165.656v23.764     v14.831c0,3.63-2.953,6.582-6.583,6.582h-10.359c-3.63,0-6.583-2.952-6.583-6.582v-43.878c0-3.63,2.953-6.582,6.583-6.582h10.359     c3.63,0,6.583,2.952,6.583,6.582V165.656z M445.629,175.346c-0.026,0.121-0.043,0.246-0.066,0.367     c-0.104,0.539-0.187,1.086-0.251,1.639c-0.021,0.181-0.042,0.362-0.059,0.546c-0.061,0.671-0.103,1.348-0.103,2.035v1.444h-7.945     v-0.001v-7.678h8.832C445.879,174.239,445.746,174.79,445.629,175.346z M147.464,403.002c0,2.414-1.965,4.379-4.38,4.379     c-2.414,0-4.377-1.965-4.377-4.379v-20.998h8.757V403.002z M473.708,283.901h-0.001c0,3.438-2.797,6.235-6.235,6.235     c-3.438,0-6.235-2.797-6.235-6.235v-94.482v-9.487c0-3.222,2.458-5.882,5.599-6.202c0.209-0.021,0.421-0.032,0.637-0.032     c3.438,0,6.235,2.796,6.235,6.234V283.901z"/>
		</g>
	</g>
</g>
<g>
</g>
<g>
</g>
<g>
</g>
<g>
</g>
<g>
</g>
<g>
</g>
<g>
</g>
<g>
</g>
<g>
</g>
<g>
</g>
<g>
</g>
<g>
</g>
<g>
</g>
<g>
</g>
<g>
</g>
</svg>
