<?xml version="1.0" encoding="iso-8859-1"?>
<!-- Generator: Adobe Illustrator 19.0.0, SVG Export Plug-In . SVG Version: 6.00 Build 0)  -->
<svg xmlns="http://www.w3.org/2000/svg" xmlns:xlink="http://www.w3.org/1999/xlink" version="1.1" id="Layer_1" x="0px" y="0px" viewBox="0 0 512.002 512.002" style="enable-background:new 0 0 512.002 512.002;" xml:space="preserve">
<g>
	<g>
		<path d="M480.883,336.617l6.423-23.412c4.65-16.951-6.299-26.91-17.086-30.288c-0.098-0.031-0.195-0.059-0.294-0.086l-3.655-1.003    c3.306-15.072,4.998-30.535,4.998-46.093c0-118.069-96.057-214.125-214.127-214.125c-118.069,0-214.125,96.057-214.125,214.125    c0,15.341,1.645,30.621,4.863,45.505l-5.805,1.593c-0.098,0.026-0.195,0.055-0.293,0.086    c-10.787,3.377-21.736,13.335-17.086,30.288l6.423,23.412C7.03,349.703-5.287,377.732,2.162,404.886    c7.105,25.894,30.8,43.98,57.624,43.981c0.001,0,0.003,0,0.005,0c0.702,0,1.406-0.019,2.109-0.044l6.423,23.413    c3.164,11.538,11.588,18.156,23.111,18.156c0.001,0,0.001,0,0.002,0c2.92,0,5.438-0.45,7.036-0.826    c0.099-0.024,0.2-0.049,0.299-0.076l56.54-15.511c4.557-1.251,7.24-5.958,5.988-10.517l-52.166-190.152    c-0.6-2.188-2.046-4.049-4.018-5.172c-1.972-1.123-4.31-1.415-6.498-0.816l-34.214,9.386c-1.34-6.341-2.353-12.763-3.063-19.229    c0.094-0.406,0.168-0.82,0.202-1.248c8.079-101.425,94.212-180.874,196.092-180.874c98.858,0,182.756,73.837,195.154,171.75    c0.125,0.992,0.424,1.917,0.849,2.761c-0.657,9.245-1.963,18.41-3.897,27.424l-36.35-9.973c-2.187-0.602-4.526-0.308-6.498,0.816    c-1.972,1.124-3.417,2.984-4.018,5.172l-52.167,190.152c-1.252,4.558,1.431,9.266,5.988,10.517l56.54,15.511    c0.099,0.027,0.2,0.054,0.299,0.076c2.224,0.525,4.588,0.822,6.988,0.822c9.472,0,19.452-4.631,23.161-18.152l6.419-23.4    c0.758,0.029,1.514,0.047,2.267,0.047c26.492-0.001,50.23-17.595,57.473-43.997C517.287,377.732,504.971,349.702,480.883,336.617z     M18.668,400.357c-4.943-18.019,2.298-36.582,17.152-46.603l21.375,77.919C39.138,430.566,23.51,418,18.668,400.357z     M94.891,286.09l47.638,173.648l-48.119,13.2c-0.618,0.139-1.728,0.339-2.974,0.339h-0.001c-3.136,0-5.334-0.931-6.607-5.569    l-8.328-30.357c-0.001-0.003-0.001-0.008-0.002-0.011l-26.964-98.289c-0.001-0.003-0.002-0.007-0.003-0.01l-8.33-30.362    c-0.623-2.271-1.916-6.983,5.563-9.384L94.891,286.09z M257.632,58.241c-54.117,0-105.756,20.259-145.405,57.044    c-14.642,13.584-27.159,28.962-37.335,45.66C104.403,89.298,174.971,38.726,257.141,38.726    c80.387,0,149.672,48.401,180.273,117.585C399.06,96.98,332.274,58.241,257.632,58.241z M493.334,400.357    c-4.944,18.016-20.649,30.277-38.529,31.324l16.932-61.719c0-0.001,0-0.002,0.001-0.003c0-0.001,0.001-0.002,0.001-0.003    l0.501-1.834c1.247-4.558-1.439-9.265-5.998-10.511c-4.554-1.241-9.264,1.438-10.511,5.998l-0.501,1.834c0,0.001,0,0.001,0,0.002    l-19.71,71.845c-0.008,0.026-0.015,0.052-0.022,0.08l-8.323,30.338c-0.623,2.27-1.916,6.982-9.576,5.233l-48.126-13.202    l47.638-173.648l36.754,10.083c0.001,0,0.002,0.001,0.003,0.001h0.001l11.367,3.118c7.478,2.401,6.186,7.112,5.563,9.384    l-8.332,30.371c-0.156,0.566-0.251,1.138-0.289,1.706c-0.006,0.081-0.001,0.162-0.005,0.243c-0.007,0.197-0.016,0.396-0.009,0.592    c0.006,0.187,0.026,0.371,0.044,0.556c0.009,0.089,0.011,0.18,0.023,0.269c0.027,0.215,0.07,0.424,0.113,0.634    c0.013,0.059,0.019,0.119,0.033,0.178c0.048,0.205,0.108,0.407,0.17,0.608c0.019,0.062,0.033,0.124,0.054,0.186    c0.06,0.18,0.134,0.355,0.205,0.531c0.032,0.079,0.059,0.161,0.094,0.239c0.066,0.149,0.145,0.294,0.22,0.439    c0.051,0.099,0.096,0.201,0.152,0.298c0.068,0.121,0.148,0.236,0.223,0.355c0.072,0.115,0.14,0.233,0.218,0.345    c0.071,0.1,0.149,0.194,0.224,0.291c0.094,0.121,0.181,0.245,0.282,0.362c0.08,0.094,0.168,0.178,0.251,0.268    c0.104,0.112,0.204,0.227,0.315,0.333c0.117,0.113,0.245,0.217,0.37,0.323c0.086,0.073,0.165,0.152,0.254,0.221    c0.662,0.524,1.41,0.956,2.231,1.272C488.101,357.21,499.147,379.16,493.334,400.357z"/>
	</g>
</g>
<g>
</g>
<g>
</g>
<g>
</g>
<g>
</g>
<g>
</g>
<g>
</g>
<g>
</g>
<g>
</g>
<g>
</g>
<g>
</g>
<g>
</g>
<g>
</g>
<g>
</g>
<g>
</g>
<g>
</g>
</svg>
