<?xml version="1.0" encoding="iso-8859-1"?>
<!-- Generator: Adobe Illustrator 19.0.0, SVG Export Plug-In . SVG Version: 6.00 Build 0)  -->
<svg xmlns="http://www.w3.org/2000/svg" xmlns:xlink="http://www.w3.org/1999/xlink" version="1.1" id="Layer_1" x="0px" y="0px" viewBox="0 0 511.999 511.999" style="enable-background:new 0 0 511.999 511.999;" xml:space="preserve">
<g>
	<g>
		<path d="M441.846,188.643h-83.202v-34.036c0-4.466-3.618-8.084-8.084-8.084H335.38c1.606-9.619,3.821-19.209,6.67-28.857    c0.181-0.615,0.36-1.231,0.545-1.845c0.39-1.284,0.79-2.57,1.202-3.857c0.037-0.115,0.072-0.232,0.109-0.347    c1.923-5.973,4.091-11.975,6.508-18.027c0.117-0.294,0.24-0.591,0.36-0.886c0.448-1.113,0.904-2.228,1.37-3.345    c0.3-0.717,0.608-1.437,0.915-2.158c1.079-2.533,2.19-5.073,3.357-7.626c22.486-49.227,15.194-71.899,14.289-74.322    C369.523,2.094,366.505,0,363.131,0H77.538c-3.374,0-6.392,2.094-7.572,5.254c-0.905,2.423-8.197,25.094,14.289,74.321    c1.111,2.434,2.173,4.856,3.205,7.269c0.35,0.818,0.698,1.635,1.038,2.449c0.355,0.849,0.702,1.698,1.046,2.545    c0.217,0.531,0.435,1.064,0.648,1.594c0.46,1.151,0.911,2.301,1.354,3.449c0.096,0.248,0.194,0.497,0.289,0.745    c0.527,1.379,1.042,2.755,1.544,4.129c0.018,0.052,0.039,0.103,0.057,0.155c1.029,2.826,2.001,5.643,2.92,8.453    c0.041,0.126,0.085,0.251,0.125,0.377c0.35,1.075,0.684,2.147,1.019,3.22c0.129,0.417,0.265,0.834,0.393,1.251    c0.165,0.54,0.319,1.079,0.481,1.618c0.27,0.903,0.542,1.807,0.802,2.712c0.002,0.01,0.006,0.017,0.01,0.027    c2.583,9.005,4.608,17.964,6.108,26.953H70.224c-4.466,0-8.084,3.618-8.084,8.084v84.241c0,4.466,3.618,8.084,8.084,8.084h28.687    c-5.319,19.597-11.49,36.598-18.395,50.629c-1.206,2.452-2.337,4.939-3.411,7.451c-0.033,0.077-0.067,0.153-0.098,0.231    c-26.683,62.725-12.754,143.315,4.138,200.946c1.01,3.444,4.168,5.811,7.758,5.811h262.863c3.589,0,6.749-2.366,7.758-5.811    c16.893-57.631,30.826-138.218,4.139-200.946c-0.031-0.078-0.064-0.153-0.098-0.23c-1.074-2.513-2.204-5-3.412-7.453    c-1.386-2.818-2.703-5.66-3.96-8.509h85.654c4.466,0,8.084-3.618,8.084-8.084v-84.241    C449.931,192.262,446.312,188.643,441.846,188.643z M98.991,72.926c-0.011-0.023-0.021-0.045-0.03-0.068    C85.257,42.86,83.943,24.543,84.416,16.168h271.854c0.453,8.304-0.849,26.671-14.561,56.691c-0.011,0.023-0.019,0.044-0.03,0.067    c-37.154-9.371-78.936-14.313-121.345-14.313C177.925,58.613,136.144,63.555,98.991,72.926z M220.334,94.314    c-37.887,0-75.009,4.526-107.929,13.125c-0.089-0.282-0.188-0.566-0.278-0.848c-0.234-0.725-0.473-1.451-0.715-2.176    c-0.307-0.929-0.617-1.858-0.935-2.787c-0.18-0.525-0.365-1.05-0.549-1.575c-0.38-1.091-0.764-2.183-1.16-3.275    c-0.15-0.413-0.304-0.826-0.456-1.237c-0.428-1.165-0.86-2.33-1.306-3.499c-0.17-0.446-0.348-0.895-0.522-1.342    c-0.351-0.905-0.694-1.81-1.056-2.718c35.247-8.647,74.756-13.198,114.905-13.198c40.149,0,79.659,4.551,114.907,13.198    c-1.842,4.624-3.531,9.204-5.095,13.779c-0.037,0.104-0.074,0.208-0.11,0.314c-0.39,1.145-0.764,2.291-1.137,3.435    c-0.171,0.524-0.348,1.049-0.516,1.573c-0.039,0.12-0.08,0.239-0.117,0.359C295.348,98.841,258.221,94.314,220.334,94.314z     M323.82,123.002c-1.99,7.837-3.593,15.664-4.817,23.522H121.67c-1.227-7.861-2.829-15.689-4.818-23.523    c31.507-8.195,67.088-12.519,103.482-12.519C256.73,110.482,292.313,114.804,323.82,123.002z M78.308,230.764v-68.072h14.293    v26.427c0,4.466,3.618,8.084,8.084,8.084c4.466,0,8.084-3.618,8.084-8.084v-26.427h15.238v13.836c0,4.466,3.618,8.084,8.084,8.084    c4.466,0,8.084-3.618,8.084-8.084v-13.836h15.238v26.427c0,4.466,3.618,8.084,8.084,8.084c4.466,0,8.084-3.618,8.084-8.084    v-26.427h15.236v13.836c0,4.466,3.619,8.084,8.084,8.084s8.084-3.618,8.084-8.084v-13.836h15.238v26.427    c0,4.466,3.618,8.084,8.084,8.084c4.466,0,8.084-3.618,8.084-8.084v-26.427h15.24v13.836c0,4.466,3.618,8.084,8.084,8.084    c4.466,0,8.084-3.618,8.084-8.084v-13.836h15.236v26.427c0,4.466,3.618,8.084,8.084,8.084c4.466,0,8.084-3.618,8.084-8.084    v-26.427h15.238v13.836c0,4.466,3.619,8.084,8.084,8.084c4.466,0,8.084-3.618,8.084-8.084v-13.836h13.865v34.036v34.037h-9.356    h-2.057H109.355H78.308z M105.266,280.495h40.552c4.466,0,8.084-3.618,8.084-8.084c0-4.466-3.618-8.084-8.084-8.084h-35.115    c1.724-5.579,3.374-11.374,4.943-17.393h208.422v-0.001c1.476,5.77,3.169,11.579,5.07,17.393H175.635    c-4.466,0-8.084,3.618-8.084,8.084c0,4.466,3.618,8.084,8.084,8.084h159.323c0.461,1.176,0.923,2.351,1.401,3.525    c0.23,0.563,0.535,1.075,0.872,1.56c1.911,4.851,4,9.752,6.266,14.618H97.165C99.996,294.082,102.7,287.508,105.266,280.495z     M345.673,495.832H228.418v-34.973c0-33.692,19.037-53.889,19.271-54.134c3.101-3.192,3.039-8.292-0.143-11.409    c-3.191-3.122-8.306-3.07-11.432,0.121c-0.585,0.598-9.088,9.463-15.779,25.248c-6.692-15.785-15.194-24.649-15.779-25.248    c-3.117-3.181-8.203-3.234-11.397-0.132c-3.194,3.101-3.267,8.212-0.18,11.419c0.193,0.201,19.272,20.407,19.272,54.135v34.973    H94.993C82.379,450.84,67.674,374.84,89.957,316.364h260.755C372.997,374.842,358.287,450.842,345.673,495.832z M433.762,272.884    h-84.056c-3.37-9.242-6.08-18.125-8.215-25.951h9.069c4.466,0,8.084-3.618,8.084-8.084v-34.037h12.741v28.136    c0,4.466,3.619,8.084,8.084,8.084s8.084-3.618,8.084-8.084v-28.136h15.238v15.545c0,4.466,3.618,8.084,8.084,8.084    c4.466,0,8.084-3.618,8.084-8.084v-15.545h14.802V272.884z"/>
	</g>
</g>
<g>
</g>
<g>
</g>
<g>
</g>
<g>
</g>
<g>
</g>
<g>
</g>
<g>
</g>
<g>
</g>
<g>
</g>
<g>
</g>
<g>
</g>
<g>
</g>
<g>
</g>
<g>
</g>
<g>
</g>
</svg>
