<?xml version="1.0" encoding="iso-8859-1"?>
<!-- Generator: Adobe Illustrator 19.0.0, SVG Export Plug-In . SVG Version: 6.00 Build 0)  -->
<svg xmlns="http://www.w3.org/2000/svg" xmlns:xlink="http://www.w3.org/1999/xlink" version="1.1" id="Layer_1" x="0px" y="0px" viewBox="0 0 512 512" style="enable-background:new 0 0 512 512;" xml:space="preserve">
<g>
	<g>
		<path d="M505.755,199.766c-0.072-0.569-0.204-1.13-0.393-1.673c-8.454-36.462-24.814-70.633-47.982-100.133    c-0.16-0.228-0.33-0.448-0.514-0.661c-10.321-13.053-21.965-25.191-34.864-36.188c-3.426-2.922-8.57-2.511-11.489,0.914    c-2.921,3.425-2.511,8.569,0.914,11.489c10.749,9.165,20.56,19.181,29.405,29.887c-37.508,63.534-107.427,127.312-192.819,175.676    c-70.595,39.985-145.471,65.78-211.597,72.989c-10.378-23.63-17.051-49.239-19.278-76.093    c56.437-4.562,120.544-25.842,181.596-60.42c42.832-24.259,81.657-53.813,112.281-85.469    c27.161-28.078,47.404-57.268,59.001-84.978c7.002,3.796,13.844,7.947,20.492,12.461c3.725,2.532,8.793,1.563,11.321-2.162    c2.529-3.724,1.562-8.792-2.162-11.321c-9.779-6.642-19.943-12.553-30.421-17.732c-0.016-0.008-0.033-0.016-0.049-0.024    c-31.18-15.403-65.164-24.245-100.23-25.996c-0.126-0.009-0.251-0.015-0.376-0.017c-4.182-0.203-8.379-0.315-12.589-0.315    c-68.381,0-132.667,26.629-181.019,74.981C26.629,123.335,0,187.621,0,256.001c0,3.715,0.093,7.416,0.25,11.105    c-0.09,0.559-0.125,1.133-0.096,1.72c0.029,0.572,0.121,1.125,0.261,1.658c3.487,62.935,29.643,121.613,74.566,166.535    c2.617,2.617,5.289,5.156,7.997,7.644c0.078,0.075,0.158,0.149,0.238,0.222C130.516,488.244,191.429,512,256,512    c68.381,0,132.667-26.629,181.019-74.98C485.371,388.668,512,324.381,512,256.001C512,236.892,509.865,218.049,505.755,199.766z     M256,16.301c0.089,0,0.178,0.002,0.267,0.002c-17.186,35.628-56.746,73.775-106.252,101.813    c-37.36,21.159-77.425,34.794-112.057,38.364C75.826,73.846,159.315,16.301,256,16.301z M16.299,256.002    c0-29.014,5.184-56.84,14.671-82.602c39.219-2.278,84.092-16.756,127.079-41.101c55.955-31.693,98.704-74.414,115.786-115.344    c28.371,2.086,55.908,9.144,81.558,20.85c-23.241,56.67-85.539,118.732-164.692,163.563    C131.853,234.7,70.321,255.231,16.346,259.685C16.328,258.458,16.299,257.233,16.299,256.002z M43.917,367.597    c66.857-8.271,141.671-34.431,212.128-74.337c85.312-48.32,155.791-111.927,195.436-175.985    c17.536,24.693,30.219,52.474,37.39,81.896C452.073,252.006,387.96,307.36,312.28,351.508    c-76.169,44.436-156.294,73.035-220.595,78.842C72.518,412.275,56.327,391.084,43.917,367.597z M256,495.7    c-6.631,0-13.195-0.283-19.691-0.814c43.011-11.598,88.979-30.977,132.751-56.19c36.919-21.265,70.603-45.561,99.191-71.42    C428.096,443.56,348.029,495.7,256,495.7z M484.532,328.35c-32.386,35.027-75.08,68.271-123.608,96.222    c-54.847,31.593-113.061,53.73-163.923,62.334c-0.863,0.146-1.669,0.426-2.405,0.81c-31.74-8.418-60.918-23.191-86.076-42.883    c63.703-8.8,139.729-37.103,211.972-79.246c71.757-41.86,133.569-93.788,172.624-144.616c1.696,11.517,2.584,23.218,2.584,35.03    C495.701,281.206,491.779,305.511,484.532,328.35z"/>
	</g>
</g>
<g>
</g>
<g>
</g>
<g>
</g>
<g>
</g>
<g>
</g>
<g>
</g>
<g>
</g>
<g>
</g>
<g>
</g>
<g>
</g>
<g>
</g>
<g>
</g>
<g>
</g>
<g>
</g>
<g>
</g>
</svg>
