<?xml version="1.0" encoding="iso-8859-1"?>
<!-- Generator: Adobe Illustrator 19.0.0, SVG Export Plug-In . SVG Version: 6.00 Build 0)  -->
<svg xmlns="http://www.w3.org/2000/svg" xmlns:xlink="http://www.w3.org/1999/xlink" version="1.1" id="Layer_1" x="0px" y="0px" viewBox="0 0 512 512" style="enable-background:new 0 0 512 512;" xml:space="preserve">
<g>
	<g>
		<g>
			<path d="M503.897,105.687H469.47c-4.476,0-8.103,3.627-8.103,8.103v3.81h-88.804h-61.62H152.412     c-23.546,0-46.27,5.434-66.696,15.375c0.482-2.349,0.735-4.78,0.735-7.269c0-19.923-16.21-36.132-36.134-36.132     c-19.922,0-36.131,16.209-36.131,36.132c0,18.252,13.606,33.376,31.207,35.787c-10.558,10.41-19.7,22.439-26.995,35.869     c-2.136,3.933-0.68,8.852,3.253,10.989c3.936,2.134,8.852,0.679,10.989-3.253c23.887-43.974,69.781-71.291,119.772-71.291     c1.528,0,3.049,0.035,4.568,0.085c0.402,0.013,0.804,0.029,1.205,0.045c1.348,0.056,2.694,0.13,4.034,0.225     c0.184,0.013,0.368,0.022,0.551,0.035c1.456,0.11,2.906,0.25,4.352,0.405c0.465,0.05,0.928,0.105,1.392,0.16     c1.088,0.129,2.172,0.271,3.252,0.425c0.432,0.062,0.868,0.117,1.299,0.183c1.285,0.196,2.562,0.415,3.836,0.646     c0.7,0.127,1.398,0.264,2.095,0.402c0.629,0.124,1.255,0.256,1.882,0.389c61.486,13.124,107.741,67.86,107.741,133.204     c0,75.105-61.102,136.206-136.206,136.206s-136.207-61.1-136.207-136.204c0-14.453,2.252-28.684,6.692-42.295     c1.388-4.255-0.935-8.828-5.19-10.217c-4.253-1.387-8.83,0.935-10.217,5.191C2.521,237.928,0,253.849,0,270.013     c0,84.04,68.371,152.413,152.412,152.413c83.618,0,151.713-67.689,152.396-151.147c12.556-40.907,63.509-48.385,68.234-48.99     h88.324v1.057c0,4.476,3.627,8.103,8.103,8.103h34.427c4.476,0,8.103-3.627,8.103-8.103V113.791     C512,109.314,508.373,105.687,503.897,105.687z M50.318,145.63c-10.987,0.001-19.924-8.938-19.924-19.924     c0-10.987,8.938-19.925,19.924-19.925c10.988,0,19.927,8.938,19.927,19.925C70.245,136.692,61.306,145.63,50.318,145.63z      M319.045,133.807h45.413v18.221h-45.413V133.807z M302.214,241.892c-1.254-6.698-2.948-13.243-5.05-19.604h27.617     C316.688,227.22,308.783,233.616,302.214,241.892z M461.365,206.081h-88.793c-0.001,0-0.002,0-0.002,0h-81.765     c-14.752-31.939-39.613-57.081-69.847-72.274h81.88v26.324c0,4.476,3.627,8.103,8.103,8.103h61.62     c4.476,0,8.103-3.627,8.103-8.103v-26.324h80.701V206.081z M495.793,215.24L495.793,215.24h-18.22v-1.057v-88.481v-3.81h18.22     V215.24z"/>
			<path d="M215.241,320.292c3.758,2.435,8.773,1.362,11.206-2.394c9.242-14.264,14.127-30.822,14.127-47.885     c0-48.612-39.549-88.161-88.163-88.161c-48.612,0-88.161,39.549-88.161,88.161c0,48.613,39.549,88.163,88.161,88.163     c19.172,0,37.399-6.048,52.713-17.49c3.585-2.678,4.32-7.757,1.641-11.342c-2.68-3.584-7.754-4.321-11.342-1.641     c-12.49,9.333-27.365,14.265-43.013,14.265c-39.675,0-71.954-32.28-71.954-71.956c0-39.675,32.279-71.954,71.954-71.954     c39.677,0,71.956,32.279,71.956,71.954c0,13.928-3.985,27.439-11.521,39.073C210.413,312.841,211.485,317.859,215.241,320.292z"/>
		</g>
	</g>
</g>
<g>
</g>
<g>
</g>
<g>
</g>
<g>
</g>
<g>
</g>
<g>
</g>
<g>
</g>
<g>
</g>
<g>
</g>
<g>
</g>
<g>
</g>
<g>
</g>
<g>
</g>
<g>
</g>
<g>
</g>
</svg>
