<?xml version="1.0" encoding="iso-8859-1"?>
<!-- Generator: Adobe Illustrator 19.0.0, SVG Export Plug-In . SVG Version: 6.00 Build 0)  -->
<svg xmlns="http://www.w3.org/2000/svg" xmlns:xlink="http://www.w3.org/1999/xlink" version="1.1" id="Layer_1" x="0px" y="0px" viewBox="0 0 511.999 511.999" style="enable-background:new 0 0 511.999 511.999;" xml:space="preserve">
<g>
	<g>
		<path d="M508.23,166.148l-13.843-8.843l1.243-0.624c4.03-2.023,5.657-6.929,3.633-10.959c-2.024-4.03-6.929-5.66-10.959-3.633    l-0.96,0.482l1.132-15.771c0.21-2.928-1.168-5.745-3.61-7.376c-2.442-1.629-5.571-1.823-8.196-0.506l-49.317,24.759    c-2.571,1.292-4.274,3.842-4.48,6.713l-1.829,25.469L397.26,187.8c-10.364-21.846-24.404-41.621-41.331-58.509l17.342-17.234    l25.329,6.509c0.672,0.173,1.354,0.257,2.031,0.257c2.129,0,4.207-0.835,5.756-2.374l39.14-38.899    c2.083-2.07,2.894-5.099,2.123-7.933s-3.004-5.035-5.847-5.765l-15.913-4.088l0.987-0.981c3.198-3.178,3.214-8.348,0.035-11.546    c-3.179-3.198-8.349-3.213-11.546-0.035l-0.761,0.757l-3.84-15.338c-0.713-2.849-2.901-5.096-5.731-5.883    c-2.83-0.786-5.862,0.005-7.946,2.075l-39.14,38.898c-2.041,2.028-2.863,4.982-2.164,7.774l6.2,24.769l-18.073,17.962    c-36.451-31.113-83.701-49.93-135.269-49.93C93.596,68.284,0,161.878,0,276.922c0,27.194,5.155,53.646,15.323,78.619    c1.702,4.176,6.467,6.184,10.642,4.483c4.176-1.701,6.183-6.464,4.483-10.64c-9.368-23.007-14.118-47.388-14.118-72.461    c0-106.039,86.271-192.309,192.311-192.309c47.047,0,90.193,16.992,123.649,45.148l-25.96,25.799    c-26.746-21.571-60.732-34.508-97.688-34.508c-85.949,0-155.874,69.922-155.874,155.871s69.925,155.871,155.874,155.871    c85.947,0,155.87-69.922,155.87-155.871c0-17.57-2.925-34.468-8.309-50.238l32.808-16.472    c7.715,20.792,11.938,43.266,11.938,66.71c0,106.039-86.27,192.308-192.309,192.308c-68.741,0-132.711-37.086-166.948-96.786    c-2.244-3.913-7.232-5.264-11.144-3.02c-3.911,2.244-5.265,7.233-3.021,11.144c17.965,31.327,43.891,57.612,74.974,76.013    c32.023,18.958,68.725,28.978,106.138,28.978c115.044,0,208.639-93.595,208.639-208.637c0-26.076-4.823-51.043-13.599-74.075    l24.406-12.254l22.04,14.078c1.335,0.852,2.863,1.285,4.395,1.285c1.252,0,2.508-0.288,3.663-0.869l49.315-24.762    c2.625-1.317,4.338-3.943,4.491-6.875C512.14,170.517,510.706,167.729,508.23,166.148z M412.711,73.237l11.115,2.855    l-25.658,25.502l-11.118-2.856L412.711,73.237z M398.412,50.517l2.713,10.834l-25.661,25.503l-2.712-10.834L398.412,50.517z     M306.939,177.978c11.8,11.725,21.519,25.54,28.554,40.835l-30.814,15.471c-5.364-12.034-12.923-22.88-22.169-32.028    L306.939,177.978z M290.057,241.625l-31.585,15.858c-2.809-7.172-7.115-13.593-12.542-18.875l24.996-24.842    C278.962,221.693,285.491,231.135,290.057,241.625z M208.643,416.464c-76.945,0-139.545-62.598-139.545-139.541    s62.599-139.541,139.545-139.541c32.434,0,62.318,11.124,86.04,29.755l-24.681,24.528c-17.277-12.468-38.474-19.827-61.359-19.827    c-57.945,0-105.088,47.142-105.088,105.085c0,57.946,47.143,105.088,105.088,105.088c39.307,0,75.027-21.665,93.222-56.542    c2.086-3.997,0.536-8.929-3.463-11.015c-3.995-2.087-8.929-0.536-11.015,3.463c-15.371,29.462-45.543,47.765-78.745,47.765    c-48.942,0-88.758-39.817-88.758-88.758c0-48.94,39.817-88.755,88.758-88.755c18.357,0,35.43,5.602,49.6,15.185l-25.822,25.661    c-7.169-3.572-15.24-5.593-23.778-5.593c-29.503,0-53.505,24.001-53.505,53.503s24.002,53.503,53.505,53.503    c29.501,0,53.501-24.001,53.501-53.503c0-0.996-0.033-1.985-0.086-2.968l33.133-16.636c1.429,6.311,2.209,12.866,2.209,19.603    c0,5.578-0.519,11.163-1.547,16.599c-0.836,4.431,2.077,8.702,6.509,9.539c4.433,0.837,8.702-2.077,9.539-6.509    c1.214-6.433,1.83-13.038,1.83-19.628c0-9.377-1.241-18.468-3.557-27.125l31.279-15.705c4.362,13.501,6.731,27.892,6.731,42.828    C348.183,353.865,285.585,416.464,208.643,416.464z M194.631,278.075c1.596,1.606,3.694,2.409,5.792,2.409    c2.081,0,4.163-0.791,5.756-2.374l28.173-27.999c4.224,4.053,7.493,9.089,9.44,14.74L210.233,281.7    c-4.029,2.025-5.657,6.931-3.633,10.961c1.433,2.854,4.313,4.504,7.303,4.504c1.231,0,2.482-0.28,3.657-0.871l27.857-13.987    c-2.617,17.953-18.11,31.786-36.778,31.786c-20.499,0-37.175-16.675-37.175-37.173s16.677-37.173,37.175-37.173    c3.911,0,7.683,0.612,11.227,1.736l-25.2,25.044C191.468,269.707,191.452,274.877,194.631,278.075z M350.089,211.483    c-7.823-16.842-18.562-32.066-31.574-45.011l25.835-25.675c15.716,15.668,28.734,34.034,38.312,54.332L350.089,211.483z     M438.827,156.19l32.332-16.233l-0.801,11.142l-32.332,16.233L438.827,156.19z M455.005,188.412l-9.673-6.179l32.332-16.234    l9.672,6.178L455.005,188.412z"/>
	</g>
</g>
<g>
</g>
<g>
</g>
<g>
</g>
<g>
</g>
<g>
</g>
<g>
</g>
<g>
</g>
<g>
</g>
<g>
</g>
<g>
</g>
<g>
</g>
<g>
</g>
<g>
</g>
<g>
</g>
<g>
</g>
</svg>
