<?xml version="1.0" encoding="iso-8859-1"?>
<!-- Generator: Adobe Illustrator 19.0.0, SVG Export Plug-In . SVG Version: 6.00 Build 0)  -->
<svg xmlns="http://www.w3.org/2000/svg" xmlns:xlink="http://www.w3.org/1999/xlink" version="1.1" id="Layer_1" x="0px" y="0px" viewBox="0 0 512 512" style="enable-background:new 0 0 512 512;" xml:space="preserve">
<g>
	<g>
		<path d="M511.925,250.08l-0.046-1.703c-0.045-1.505-0.101-3.005-0.17-4.505l-0.072-1.545c-0.102-1.938-0.223-3.871-0.369-5.826    l-0.083-0.973c-0.128-1.624-0.272-3.243-0.429-4.855c-0.057-0.58-0.115-1.159-0.178-1.743c-0.162-1.539-0.337-3.074-0.526-4.6    l-0.149-1.229c-0.245-1.898-0.51-3.788-0.79-5.647c-0.05-0.337-0.104-0.673-0.157-1.009l-0.068-0.422    c-0.231-1.47-0.472-2.937-0.728-4.383c-0.098-0.566-0.197-1.133-0.298-1.685c-0.305-1.685-0.625-3.365-0.966-5.042l-0.119-0.605    c-0.382-1.857-0.786-3.705-1.205-5.535l-0.369-1.577c-0.328-1.395-0.668-2.786-1.025-4.201l-0.39-1.534    c-0.472-1.818-0.957-3.628-1.469-5.435l-0.193-0.658c-0.458-1.595-0.931-3.184-1.42-4.777c-0.168-0.545-0.34-1.09-0.507-1.615    c-0.435-1.385-0.884-2.765-1.345-4.143l-0.438-1.317c-0.596-1.755-1.212-3.502-1.838-5.22c-0.094-0.26-0.191-0.517-0.289-0.776    l-0.162-0.433c-0.513-1.382-1.034-2.757-1.572-4.135l-0.626-1.59c-0.57-1.434-1.152-2.859-1.761-4.31l-0.372-0.896    c-0.718-1.692-1.457-3.375-2.217-5.069l-0.628-1.37c-0.582-1.277-1.177-2.548-1.774-3.8c-0.24-0.505-0.479-1.009-0.721-1.506    c-0.797-1.643-1.605-3.28-2.431-4.894l-0.114-0.22c-0.815-1.589-1.649-3.165-2.494-4.729c-0.241-0.446-0.485-0.891-0.73-1.337    l-0.068-0.124c-0.668-1.22-1.346-2.434-2.036-3.643l-0.753-1.323c-0.91-1.577-1.835-3.145-2.78-4.702l-0.562-0.912    c-0.783-1.276-1.575-2.546-2.38-3.809l-1.718-2.679c-0.082-0.125-0.167-0.248-0.257-0.37l-0.056-0.076    c-5.137-7.817-10.688-15.352-16.506-22.402c0,0-0.003-0.004-0.006-0.008l-0.008-0.01c-0.005-0.005-0.01-0.012-0.015-0.018    l-0.138-0.163c-1.303-1.577-2.681-3.201-4.094-4.828c-0.322-0.37-0.649-0.736-0.975-1.102l-0.504-0.565    c-0.957-1.084-1.918-2.167-2.897-3.237c-0.418-0.458-0.842-0.91-1.264-1.362l-0.489-0.523c-0.906-0.971-1.818-1.941-2.742-2.901    c-0.581-0.604-1.167-1.2-1.754-1.797l-0.136-0.137c-0.905-0.924-1.821-1.842-2.739-2.749c-0.651-0.645-1.307-1.285-1.969-1.923    c-0.931-0.9-1.87-1.791-2.819-2.68l-0.125-0.116c-0.614-0.576-1.228-1.149-1.845-1.717c-0.985-0.904-1.98-1.795-2.98-2.684    l-0.501-0.447c-0.472-0.42-0.942-0.84-1.417-1.255c-1.104-0.964-2.223-1.909-3.339-2.85l-0.56-0.475    c-0.362-0.308-0.725-0.617-1.096-0.925c-1.774-1.468-3.44-2.813-5.11-4.126c-0.01-0.008-0.019-0.015-0.03-0.024    c-1.654-1.299-3.395-2.63-5.176-3.955c-0.372-0.277-0.747-0.55-1.123-0.822l-0.599-0.434c-1.19-0.874-2.385-1.742-3.602-2.604    c-0.493-0.346-0.988-0.689-1.484-1.03l-0.608-0.419c-1.109-0.766-2.22-1.531-3.344-2.281c-0.689-0.46-1.382-0.913-2.077-1.367    l-0.165-0.109c-1.098-0.718-2.201-1.429-3.31-2.13c-0.767-0.484-1.537-0.965-2.313-1.444c-1.115-0.688-2.236-1.365-3.366-2.039    l-0.201-0.119c-0.709-0.424-1.419-0.845-2.123-1.253c-1.167-0.68-2.344-1.344-3.532-2.011l-0.628-0.352    c-0.531-0.299-1.063-0.598-1.601-0.894c-1.305-0.715-2.625-1.41-3.942-2.102l-0.647-0.343c-0.418-0.222-0.835-0.444-1.253-0.658    c-3.902-2.007-7.924-3.945-11.941-5.754c-0.444-0.202-0.89-0.395-1.338-0.589l-0.631-0.274c-1.373-0.606-2.752-1.205-4.147-1.791    c-0.574-0.241-1.153-0.474-1.731-0.709l-0.643-0.26c-1.27-0.517-2.539-1.029-3.824-1.528c-0.845-0.329-1.693-0.649-2.542-0.967    c-1.247-0.47-2.499-0.93-3.749-1.378c-0.872-0.313-1.743-0.62-2.614-0.921c-1.263-0.438-2.533-0.863-3.872-1.302    c-0.845-0.279-1.691-0.557-2.532-0.822c-1.314-0.417-2.637-0.817-3.961-1.213l-0.618-0.185c-0.626-0.189-1.253-0.377-1.882-0.558    c-1.456-0.419-2.921-0.816-4.379-1.206l-0.723-0.198c-0.472-0.129-0.944-0.259-1.414-0.38c-4.355-1.13-8.802-2.156-13.218-3.052    c-0.479-0.097-0.959-0.188-1.439-0.278l-0.737-0.139c-1.506-0.292-3.015-0.58-4.536-0.847c-0.599-0.106-1.201-0.203-1.803-0.301    l-0.817-0.133c-1.382-0.227-2.766-0.449-4.161-0.655c-0.93-0.137-1.863-0.264-2.792-0.39c-1.354-0.185-2.707-0.36-4.065-0.523    c-0.949-0.113-1.901-0.222-2.861-0.328c-1.361-0.148-2.729-0.282-4.102-0.411l-0.178-0.016c-0.886-0.082-1.774-0.163-2.656-0.235    c-1.42-0.114-2.844-0.213-4.26-0.304l-0.662-0.043c-0.681-0.046-1.362-0.092-2.046-0.128c-1.564-0.084-3.136-0.144-4.701-0.202    l-0.797-0.031c-0.499-0.022-0.998-0.041-1.51-0.056c-4.987-0.134-9.077-0.134-14.096,0c-0.499,0.015-0.998,0.034-1.497,0.056    l-0.791,0.031c-1.57,0.057-3.142,0.116-4.709,0.202c-0.676,0.037-1.351,0.082-2.026,0.126l-0.672,0.042    c-1.425,0.091-2.85,0.19-4.261,0.304c-0.878,0.07-1.754,0.151-2.628,0.232l-0.216,0.02c-1.37,0.126-2.735,0.261-4.108,0.411    c-0.953,0.103-1.904,0.212-2.851,0.327c-1.36,0.163-2.716,0.337-4.062,0.522c-0.935,0.127-1.869,0.254-2.806,0.392    c-1.387,0.205-2.77,0.427-4.166,0.655l-0.83,0.136c-0.593,0.097-1.187,0.194-1.78,0.298c-1.517,0.265-3.026,0.554-4.531,0.845    l-0.759,0.144c-0.472,0.089-0.946,0.178-1.419,0.274c-4.422,0.897-8.869,1.923-13.218,3.052c-0.469,0.121-0.933,0.248-1.399,0.376    l-0.729,0.199c-1.466,0.393-2.932,0.79-4.383,1.208c-0.626,0.18-1.249,0.368-1.871,0.554l-0.632,0.191    c-1.325,0.395-2.645,0.796-3.958,1.211c-0.798,0.252-1.593,0.514-2.389,0.775l-0.216,0.07c-1.273,0.418-2.539,0.843-3.799,1.281    c-0.876,0.303-1.753,0.61-2.608,0.919c-1.038,0.371-2.067,0.753-3.097,1.138c-2.274-0.209-4.623,0.536-6.387,2.257    c-0.128,0.125-0.253,0.252-0.382,0.377c-0.088,0.036-0.177,0.07-0.265,0.106l-0.704,0.287c-0.556,0.225-1.112,0.451-1.671,0.684    c-1.387,0.582-2.763,1.182-4.139,1.787l-0.696,0.303c-0.424,0.183-0.846,0.368-1.269,0.557c-4.016,1.809-8.036,3.746-11.932,5.749    c-0.429,0.22-0.855,0.446-1.279,0.673l-0.629,0.334c-1.323,0.694-2.64,1.391-3.942,2.103c-0.537,0.292-1.067,0.592-1.599,0.89    l-0.64,0.36c-1.184,0.663-2.361,1.328-3.526,2.006c-0.705,0.411-1.407,0.828-2.107,1.245l-0.224,0.133    c-1.124,0.672-2.245,1.348-3.355,2.034c-0.78,0.48-1.554,0.965-2.311,1.442c-1.113,0.702-2.219,1.415-3.328,2.14l-0.361,0.236    c-0.624,0.41-1.248,0.818-1.869,1.234c-1.125,0.751-2.24,1.516-3.337,2.275l-0.443,0.305c-0.554,0.382-1.106,0.761-1.662,1.152    c-1.207,0.854-2.4,1.722-3.603,2.603l-0.652,0.475c-0.356,0.258-0.712,0.516-1.065,0.778c-1.789,1.333-3.538,2.671-5.197,3.973    c-0.014,0.011-0.027,0.022-0.04,0.031c-1.621,1.274-3.281,2.615-5.082,4.106c-0.365,0.304-0.729,0.612-1.091,0.921l-0.552,0.468    c-1.125,0.949-2.247,1.897-3.348,2.858c-0.474,0.415-0.945,0.834-1.416,1.255l-0.503,0.448c-1,0.89-2,1.783-2.966,2.673    c-0.67,0.612-1.331,1.232-1.985,1.846c-0.945,0.885-1.884,1.776-2.817,2.677c-0.661,0.637-1.317,1.278-1.958,1.912    c-0.923,0.91-1.836,1.827-2.745,2.752c-0.634,0.645-1.265,1.288-1.895,1.942c-0.922,0.958-1.833,1.927-2.73,2.89l-0.35,0.375    c-0.476,0.509-0.954,1.016-1.415,1.522c-0.974,1.066-1.934,2.146-2.905,3.243l-0.582,0.654c-0.293,0.33-0.587,0.659-0.887,1.002    c-1.384,1.594-2.763,3.218-4.058,4.786c-0.012,0.013-0.065,0.073-0.075,0.087c-0.038,0.044-0.077,0.092-0.115,0.138    c-5.821,7.056-11.377,14.598-16.516,22.418l-0.056,0.075c-0.089,0.121-0.175,0.245-0.257,0.37l-1.727,2.688    c-0.8,1.259-1.592,2.527-2.368,3.794l-0.57,0.925c-0.941,1.553-1.865,3.12-2.762,4.672c-0.181,0.313-0.359,0.625-0.536,0.939    l-0.233,0.41c-0.686,1.203-1.362,2.413-2.045,3.657l-0.789,1.447c-0.844,1.567-1.678,3.14-2.502,4.745l-0.096,0.184    c-0.833,1.627-1.642,3.265-2.439,4.907l-0.717,1.497c-0.603,1.262-1.193,2.53-1.788,3.83l-0.627,1.374    c-0.751,1.675-1.491,3.357-2.208,5.049l-0.385,0.927c-0.596,1.421-1.178,2.847-1.754,4.292l-0.624,1.587    c-0.536,1.371-1.061,2.751-1.573,4.137l-0.157,0.423c-0.098,0.258-0.195,0.516-0.279,0.748c-0.635,1.736-1.248,3.484-1.849,5.245    c-0.113,0.334-0.223,0.667-0.333,1.001l-0.106,0.321c-0.46,1.374-0.909,2.755-1.338,4.12c-0.172,0.545-0.344,1.09-0.515,1.644    c-0.487,1.587-0.965,3.178-1.421,4.778l-0.052,0.177c-0.055,0.181-0.108,0.361-0.139,0.475c-0.512,1.801-0.999,3.612-1.477,5.452    l-0.386,1.527c-0.352,1.392-0.693,2.786-1.02,4.178l-0.372,1.582c-0.419,1.839-0.823,3.683-1.206,5.549l-0.115,0.595    c-0.34,1.671-0.659,3.347-0.97,5.056l-0.294,1.664c-0.253,1.457-0.495,2.92-0.724,4.38l-0.068,0.428    c-0.055,0.336-0.109,0.672-0.155,0.984c-0.285,1.884-0.55,3.774-0.793,5.672l-0.148,1.223c-0.19,1.532-0.365,3.067-0.528,4.609    c-0.061,0.58-0.12,1.159-0.176,1.734c-0.158,1.616-0.304,3.235-0.433,4.866l-0.086,0.985c-0.147,1.929-0.265,3.865-0.366,5.787    c-0.021,0.362-0.037,0.727-0.053,1.091l-0.022,0.473c-0.069,1.502-0.127,3.006-0.171,4.512c-0.017,0.564-0.034,1.129-0.047,1.701    C0.03,252.052,0,254.022,0,255.998c0,10.89,0.692,21.855,2.056,32.594C18.246,415.956,127.418,511.998,256,511.998    c127.242,0,235.462-94.057,253.393-219.438c0.025-0.141,0.043-0.284,0.059-0.426c0.167-1.18,0.342-2.356,0.493-3.541    c1.365-10.739,2.056-21.706,2.056-32.594C512,254.019,511.97,252.047,511.925,250.08z M19.773,214.416l0.273-1.572    c0.288-1.575,0.587-3.146,0.904-4.708l0.112-0.579c0.357-1.738,0.736-3.466,1.122-5.161l0.352-1.5    c0.307-1.306,0.624-2.611,0.958-3.926l0.365-1.443c0.442-1.7,0.898-3.394,1.395-5.145l0.165-0.562    c0.427-1.496,0.873-2.987,1.326-4.46c0.156-0.506,0.313-1.01,0.479-1.533c0.406-1.292,0.826-2.581,1.264-3.892l0.4-1.209    c0.56-1.641,1.134-3.277,1.738-4.929l0.409-1.094c0.477-1.292,0.967-2.579,1.464-3.85l0.591-1.504    c0.537-1.345,1.083-2.684,1.647-4.03l0.355-0.854c0.672-1.588,1.365-3.165,2.061-4.714l0.603-1.32    c0.547-1.193,1.101-2.381,1.659-3.551l0.676-1.413c0.746-1.54,1.505-3.074,2.288-4.605l0.095-0.181    c0.765-1.491,1.549-2.969,2.328-4.416l0.755-1.381c0.628-1.145,1.266-2.283,1.909-3.414l0.711-1.248    c0.852-1.476,1.717-2.943,2.573-4.356l0.55-0.889c0.736-1.2,1.481-2.394,2.228-3.571l1.508-2.35l0.035-0.047    c0.087-0.117,0.17-0.238,0.251-0.361c4.84-7.379,10.073-14.489,15.553-21.135c0.071-0.083,0.139-0.162,0.18-0.213    c1.249-1.509,2.541-3.032,3.83-4.515c0.248-0.286,0.501-0.567,0.752-0.849l0.641-0.72c0.899-1.015,1.797-2.03,2.719-3.038    c0.422-0.461,0.848-0.917,1.276-1.371l0.371-0.396c0.848-0.911,1.702-1.82,2.563-2.714c0.59-0.611,1.184-1.216,1.777-1.821    c0.847-0.862,1.699-1.719,2.571-2.577c0.607-0.6,1.219-1.196,1.832-1.79c0.875-0.843,1.755-1.68,2.648-2.517    c0.61-0.572,1.221-1.146,1.857-1.728c0.919-0.845,1.852-1.679,2.782-2.507l0.522-0.466c0.424-0.378,0.846-0.756,1.279-1.133    c1.033-0.901,2.079-1.786,3.139-2.677l0.613-0.521c0.309-0.263,0.619-0.526,0.926-0.781c1.696-1.405,3.257-2.667,4.775-3.859    l0.012-0.009c1.554-1.22,3.196-2.475,4.877-3.728c0.292-0.218,0.589-0.431,0.884-0.646l0.735-0.536    c1.12-0.819,2.239-1.635,3.366-2.432c0.498-0.351,0.999-0.696,1.501-1.041l0.468-0.322c1.038-0.718,2.079-1.434,3.13-2.135    c0.579-0.387,1.162-0.769,1.744-1.15l0.357-0.234c1.026-0.67,2.056-1.334,3.109-1.998c0.716-0.454,1.436-0.902,2.163-1.351    c0.028-0.017,0.057-0.034,0.085-0.052c-21.289,27.363-38.274,58.075-49.921,90.559c-1.507,4.202,0.678,8.831,4.881,10.338    c0.901,0.323,1.822,0.476,2.728,0.476c3.316,0,6.426-2.057,7.61-5.358c15.428-43.026,40.72-82.77,73.212-115.204    c0.103-0.04,0.207-0.084,0.31-0.124c0.792-0.308,1.589-0.607,2.386-0.908c1.164-0.438,2.33-0.869,3.521-1.293    c0.808-0.291,1.621-0.577,2.441-0.86c1.179-0.409,2.362-0.806,3.552-1.195l0.22-0.072c0.738-0.243,1.477-0.485,2.22-0.72    c1.232-0.39,2.471-0.764,3.711-1.136l0.658-0.197c0.557-0.168,1.115-0.336,1.68-0.498c1.361-0.391,2.729-0.763,4.11-1.133    l0.824-0.224c0.388-0.108,0.777-0.213,1.168-0.316c4.072-1.055,8.237-2.016,12.375-2.855c0.397-0.081,0.796-0.156,1.193-0.231    l0.845-0.16c1.415-0.275,2.828-0.544,4.247-0.793c0.526-0.092,1.055-0.178,1.586-0.264l0.866-0.141    c1.299-0.213,2.598-0.424,3.894-0.614c0.872-0.128,1.748-0.247,2.63-0.368c1.263-0.172,2.531-0.337,3.803-0.489    c0.891-0.108,1.785-0.208,2.672-0.306c1.281-0.138,2.563-0.264,3.846-0.383l0.213-0.021c0.811-0.074,1.622-0.151,2.445-0.216    c1.326-0.109,2.66-0.201,4.001-0.286l0.706-0.047c0.608-0.04,1.216-0.081,1.824-0.113c1.469-0.08,2.942-0.136,4.424-0.189    l0.876-0.036c0.427-0.017,0.855-0.036,1.271-0.047c4.702-0.126,8.53-0.126,13.203,0c0.429,0.012,0.856,0.03,1.283,0.048    l0.882,0.034c1.476,0.053,2.948,0.109,4.416,0.189c0.615,0.032,1.23,0.074,1.843,0.114l0.696,0.046    c1.334,0.086,2.666,0.177,4,0.286c0.665,0.054,1.331,0.115,1.997,0.177c-31.974,24.941-59.507,56.056-80.251,90.839    c-2.287,3.835-1.033,8.797,2.803,11.084c1.298,0.774,2.724,1.143,4.134,1.143c2.754,0,5.438-1.408,6.95-3.944    c22.477-37.689,53.339-70.841,89.274-95.943c0.431,0.083,0.862,0.158,1.294,0.242l0.825,0.156c0.404,0.075,0.808,0.152,1.21,0.234    c4.134,0.838,8.297,1.799,12.381,2.858c0.396,0.102,0.787,0.21,1.18,0.318l0.816,0.223c1.371,0.367,2.74,0.738,4.1,1.129    c0.567,0.164,1.134,0.334,1.7,0.504l0.64,0.192c1.239,0.371,2.476,0.745,3.717,1.138c0.787,0.248,1.57,0.507,2.435,0.791    c1.187,0.388,2.371,0.786,3.556,1.195c0.817,0.284,1.63,0.569,2.448,0.863c1.175,0.42,2.344,0.852,3.512,1.29    c0.795,0.299,1.59,0.598,2.378,0.904c1.199,0.467,2.389,0.946,3.582,1.432l0.676,0.274c0.518,0.209,1.037,0.419,1.544,0.632    c1.3,0.545,2.591,1.109,3.892,1.684l0.715,0.31c0.37,0.16,0.739,0.319,1.113,0.488c3.773,1.698,7.538,3.513,11.196,5.395    c0.351,0.18,0.7,0.365,1.049,0.552l0.72,0.382c1.237,0.651,2.475,1.303,3.697,1.971c0.482,0.264,0.961,0.534,1.441,0.803    l0.648,0.364c1.107,0.622,2.213,1.246,3.323,1.892c0.66,0.383,1.314,0.773,1.968,1.162l0.195,0.115    c1.056,0.631,2.108,1.265,3.15,1.908c0.728,0.449,1.453,0.902,2.176,1.359c1.038,0.655,2.07,1.322,3.098,1.993l0.165,0.109    c0.471,0.307,0.94,0.617,1.408,0.927c-18.157,6.243-35.066,14.882-50.419,25.493c-0.153,0.097-0.301,0.203-0.447,0.312    c-26.217,18.222-47.854,42.208-63.314,69.883c-0.257,0.333-0.497,0.682-0.704,1.062c-0.199,0.365-0.358,0.742-0.496,1.122    c-15.803,29.096-24.825,62.144-25.258,96.772c-25.266,13.793-52.682,21.401-80.238,23.093    c0.162-46.047,10.681-91.969,30.612-133.327c1.938-4.022,0.248-8.854-3.774-10.793c-4.019-1.936-8.853-0.248-10.793,3.774    c-21.025,43.632-32.098,92.089-32.214,140.663c-25.379-0.566-50.539-6.119-73.907-16.457    c-0.513-28.459,2.849-56.719,10.016-84.081c1.132-4.319-1.453-8.737-5.771-9.868c-4.319-1.129-8.736,1.453-9.868,5.771    c-6.838,26.106-10.377,52.984-10.577,80.084c-14.795-8.297-28.649-18.653-41.11-31.011c-0.338-0.335-0.703-0.627-1.08-0.89    C19.402,216.622,19.581,215.517,19.773,214.416z M28.595,332.381c-4.924-14.666-8.488-29.984-10.502-45.826    c-1.276-10.065-1.925-20.345-1.925-30.557c0-1.857,0.028-3.708,0.069-5.547c0.012-0.524,0.028-1.048,0.045-1.599    c0.041-1.414,0.096-2.824,0.161-4.232l0.067-1.443c0.096-1.819,0.208-3.633,0.343-5.42l0.015-0.184    c14.617,13.049,30.764,23.735,47.888,32.004c0.878,0.673,1.897,1.164,3.002,1.433c27.679,12.824,57.801,19.384,88.094,19.384    c0.723,0,1.448-0.027,2.171-0.034c0.536,0.112,1.09,0.174,1.658,0.174c0.066,0,0.131-0.001,0.198-0.002    c0.591-0.014,1.163-0.095,1.714-0.229c32.973-0.903,65.974-9.612,96.067-26.47c24.264,15.154,44.276,35.166,59.253,58.202    c-87.755,50.105-194.461,54.275-286.334,10.977C29.933,332.707,29.266,332.505,28.595,332.381z M102.534,440.175    c-27.967-23.292-50.632-52.862-65.717-86.7c40.614,17.021,83.628,25.477,126.531,25.477c56.024,0,111.842-14.429,161.806-43.008    c12.042,22.417,19.618,47.119,22.115,72.63c-0.133,0.069-0.266,0.131-0.396,0.208c-72.607,43.107-161.027,54.651-242.582,31.681    C103.705,440.298,103.117,440.207,102.534,440.175z M341.867,475.942c-0.356,1.351-0.348,2.711-0.038,3.977    c-26.757,10.292-55.725,15.911-85.83,15.911c-42.965,0-83.611-11.452-118.823-31.591c17.054,2.738,34.24,4.118,51.485,4.118    c13.436,0,26.911-0.832,40.379-2.501c42.1-5.215,82.137-18.385,119.133-39.161C348.219,443.052,346.177,459.592,341.867,475.942z     M359.372,472.34c19.368-86.802-18.985-177.143-95.246-223.524c0.68-28.718,7.766-56.211,20.026-80.883    c87.68,50.933,144.759,141.088,153.24,242.81c0.049,0.583,0.163,1.144,0.327,1.682    C416.087,437.476,389.401,457.946,359.372,472.34z M451.898,394.317c-13.079-100.924-71.874-189.526-159.95-240.553    c13.148-21.698,30.502-40.719,51.103-55.805c74.223,41.055,128.743,111.324,150.141,193.721    C487.53,329.67,473.002,364.543,451.898,394.317z M451.085,169.673c-25.598-33.145-56.826-60.571-92.929-81.714    c14.387-8.574,30.056-15.345,46.739-19.974c1.279,1.014,2.574,2.06,3.945,3.195c0.313,0.259,0.622,0.522,0.931,0.786l0.617,0.524    c1.053,0.887,2.103,1.775,3.141,2.68c0.427,0.365,0.85,0.744,1.273,1.122l0.52,0.465c0.935,0.831,1.868,1.667,2.792,2.516    c0.581,0.532,1.157,1.071,1.733,1.611l0.123,0.114c0.886,0.831,1.767,1.667,2.64,2.509c0.614,0.595,1.227,1.191,1.837,1.795    c0.86,0.848,1.713,1.705,2.564,2.573l0.143,0.146c0.548,0.557,1.095,1.113,1.636,1.675c0.863,0.897,1.717,1.805,2.565,2.715    l0.509,0.544c0.383,0.41,0.767,0.82,1.146,1.233c0.914,0.997,1.811,2.009,2.709,3.027l0.562,0.631    c0.276,0.308,0.552,0.617,0.825,0.93c1.328,1.53,2.621,3.053,3.809,4.489l0.123,0.148c0.013,0.015,0.024,0.028,0.036,0.043    c5.497,6.66,10.748,13.792,15.606,21.197c0.081,0.123,0.164,0.244,0.251,0.361l1.54,2.396c0.753,1.185,1.498,2.375,2.214,3.543    l0.543,0.882c0.882,1.454,1.746,2.919,2.594,4.39l0.711,1.247c0.643,1.13,1.278,2.266,1.908,3.415l0.073,0.133    c0.224,0.409,0.448,0.817,0.673,1.233c0.793,1.47,1.576,2.945,2.324,4.403l0.112,0.214c0.779,1.524,1.537,3.06,2.287,4.606    c0.223,0.46,0.442,0.921,0.668,1.395c0.562,1.18,1.117,2.363,1.665,3.568l0.595,1.297c0.705,1.569,1.398,3.146,2.071,4.735    l0.36,0.867c0.558,1.332,1.104,2.672,1.636,4.004l0.593,1.507c0.501,1.283,0.991,2.574,1.467,3.858l0.415,1.112    c0.593,1.627,1.168,3.262,1.728,4.906l0.415,1.246c0.428,1.282,0.847,2.57,1.26,3.883c0.16,0.503,0.317,1.008,0.471,1.504    c0.457,1.486,0.901,2.98,1.328,4.469l0.184,0.629c0.477,1.684,0.931,3.378,1.375,5.088l0.367,1.437    c0.329,1.304,0.649,2.612,0.951,3.898l0.351,1.505c0.395,1.721,0.774,3.446,1.126,5.169l0.115,0.589    c0.317,1.562,0.614,3.129,0.902,4.714c0.095,0.52,0.185,1.042,0.279,1.579c0.24,1.365,0.466,2.734,0.682,4.112l0.206,1.307    c0.267,1.764,0.516,3.533,0.743,5.312l0.139,1.146c0.177,1.439,0.342,2.881,0.495,4.323c0.057,0.54,0.112,1.079,0.165,1.623    c0.149,1.512,0.284,3.03,0.407,4.599l0.074,0.881c0.135,1.81,0.249,3.626,0.344,5.434l0.068,1.457    c0.045,0.974,0.078,1.943,0.111,2.912C484.5,219.715,469.595,193.641,451.085,169.673z"/>
	</g>
</g>
<g>
</g>
<g>
</g>
<g>
</g>
<g>
</g>
<g>
</g>
<g>
</g>
<g>
</g>
<g>
</g>
<g>
</g>
<g>
</g>
<g>
</g>
<g>
</g>
<g>
</g>
<g>
</g>
<g>
</g>
</svg>
