<?xml version="1.0" encoding="iso-8859-1"?>
<!-- Generator: Adobe Illustrator 19.0.0, SVG Export Plug-In . SVG Version: 6.00 Build 0)  -->
<svg xmlns="http://www.w3.org/2000/svg" xmlns:xlink="http://www.w3.org/1999/xlink" version="1.1" id="Layer_1" x="0px" y="0px" viewBox="0 0 512 512" style="enable-background:new 0 0 512 512;" xml:space="preserve">
<g>
	<g>
		<path d="M511.913,250.289c0.012-0.315,0.01-0.629-0.014-0.943c-1.021-39.049-10.993-77.652-29.024-112.045    c-1.835-3.501-3.776-6.946-5.774-10.358c-0.169-0.351-0.368-0.686-0.587-1.008c-18.026-30.455-42.436-57.22-71.217-77.915    c-3.656-2.629-8.748-1.796-11.375,1.858c-2.629,3.654-1.795,8.747,1.858,11.375c26.648,19.162,48.701,43.381,65.263,70.804    l-14.003,60.63l-98.783,33.783l-84.021-62.909l-0.079-103.856l57.525-33.394c0.309-0.179,0.595-0.381,0.871-0.593    c17.509,5.044,34.43,12.058,50.358,20.975c3.927,2.199,8.895,0.798,11.092-3.13c2.198-3.928,0.798-8.894-3.13-11.092    C342.929,11.229,299.749,0.001,256,0.001c-68.381,0-132.667,26.629-181.019,74.981c-15.526,15.526-28.798,32.701-39.682,51.121    c-0.089,0.138-0.168,0.281-0.248,0.425C13.41,163.315,1.329,205.065,0.112,248.674c-0.121,0.748-0.138,1.507-0.05,2.259    C0.029,252.62,0,254.309,0,256.001c0,68.381,26.629,132.667,74.981,181.019c48.352,48.351,112.638,74.98,181.019,74.98    s132.667-26.629,181.019-74.98C485.371,388.668,512,324.381,512,256.001C512,254.096,511.955,252.193,511.913,250.289z     M472.737,153.849c11.063,23.451,18.349,48.699,21.369,74.78l-31.333-31.635L472.737,153.849z M256,16.3    c14.655,0,29.238,1.369,43.556,4.008L256,45.593l-43.592-25.308C226.548,17.676,241.115,16.3,256,16.3z M189.443,25.71    c0.278,0.214,0.567,0.418,0.879,0.6l57.534,33.402l0.079,103.8l-84.087,62.957l-98.976-33.85l-13.984-60.546    C81.764,81.164,131.051,42.613,189.443,25.71z M39.191,153.848l9.964,43.146l-31.277,31.58    C20.905,202.128,28.247,176.979,39.191,153.848z M71.619,408.993c-34.528-41.54-55.319-94.882-55.319-152.993    c0-0.904,0.024-1.804,0.035-2.706l44.427-44.855l98.583,33.715l32.084,96.855l-58.485,77.436L71.619,408.993z M88.711,427.489    l41.422,5.034c0.05,0.045,0.104,0.087,0.156,0.13c3.423,5.694,10.499,17.43,17.683,29.126c2.706,4.406,5.088,8.264,7.19,11.646    C130.442,461.914,108.002,446.311,88.711,427.489z M255.999,495.7c-26.079,0-51.194-4.202-74.719-11.939    c-4.619-6.343-20.541-32.09-35.601-57.136l59.76-79.124h18.971c4.502,0,8.15-3.648,8.15-8.15c0-4.502-3.648-8.15-8.15-8.15    h-18.401l-30.167-91.07c0.127-0.271,0.26-0.537,0.359-0.826c0.229-0.672,0.356-1.352,0.408-2.028l79.444-59.482l80.815,60.509    l-30.77,92.896h-52.343c-4.502,0-8.15,3.648-8.15,8.15c0,4.502,3.648,8.15,8.15,8.15h53.772l59.276,78.482    c-15.14,25.191-31.259,51.27-35.958,57.737C307.284,491.483,282.126,495.7,255.999,495.7z M356.972,473.362    c2.094-3.366,4.462-7.204,7.151-11.582c7.232-11.776,14.36-23.596,17.756-29.247l41.398-5.031    C404.023,446.285,381.633,461.86,356.972,473.362z M440.37,409.005l-60.419,7.342l-59.009-78.13l31.82-96.064l98.449-33.669    l44.449,44.877c0.01,0.88,0.04,1.757,0.04,2.638C495.701,314.117,474.904,367.464,440.37,409.005z"/>
	</g>
</g>
<g>
</g>
<g>
</g>
<g>
</g>
<g>
</g>
<g>
</g>
<g>
</g>
<g>
</g>
<g>
</g>
<g>
</g>
<g>
</g>
<g>
</g>
<g>
</g>
<g>
</g>
<g>
</g>
<g>
</g>
</svg>
