<?xml version="1.0" encoding="iso-8859-1"?>
<!-- Generator: Adobe Illustrator 19.0.0, SVG Export Plug-In . SVG Version: 6.00 Build 0)  -->
<svg xmlns="http://www.w3.org/2000/svg" xmlns:xlink="http://www.w3.org/1999/xlink" version="1.1" id="Layer_1" x="0px" y="0px" viewBox="0 0 512 512" style="enable-background:new 0 0 512 512;" xml:space="preserve">
<g>
	<g>
		<g>
			<path d="M420.975,242.108V136.012c0-27.563-21.031-42.971-40.817-43.476c-0.059-0.001-0.117-0.003-0.177-0.003     c-0.16-0.003-0.295-0.004-0.44-0.004h-30.288l1.371-12.443h6.827c4.466,0,8.084-3.619,8.084-8.084V40.043     c0-4.466-3.619-8.084-8.084-8.084h-76.234V8.084c0-4.466-3.618-8.084-8.084-8.084h-72.44c-4.466,0-8.084,3.619-8.084,8.084     v23.874H98.944c-4.466,0-8.084,3.619-8.084,8.084v31.958c0,4.466,3.619,8.084,8.084,8.084h2.307l26.125,35.457l1.595,13.952     l21.933,198.976v26.089c-14.368,3.952-26.286,12.256-35.054,24.59c-11.009,15.484-16.826,37.015-16.826,62.266v22.456     c-4.454,0.014-8.059,3.626-8.059,8.083v31.961c0,4.466,3.619,8.084,8.084,8.084h277.686c4.466,0,8.084-3.618,8.084-8.084v-31.958     c0-4.397-3.511-7.966-7.883-8.073v-22.465c0-24.908-6.632-46.545-19.182-62.566c-9.143-11.674-20.969-19.677-34.829-23.771     v-24.817c0.125-0.437,0.22-0.887,0.272-1.352l0.677-6.141c0.715,0.096,1.435,0.154,2.157,0.154c2.26,0,4.531-0.473,6.661-1.437     c15.335-6.936,33.49-17.075,46.748-24.478c5.941-3.318,11.072-6.183,14.441-7.924     C415.888,277.731,422.299,257.567,420.975,242.108z M208.779,16.168h56.271v15.79h-56.271V16.168z M107.028,48.127h93.667h72.44     h76.234v15.79h-5.986H107.028V48.127z M372.558,245.205c-0.075,0.196-0.308,0.498-1.111,0.927     c-5.517,2.949-12.673,6.964-20.249,11.214c-7.343,4.12-15.299,8.583-21.418,11.864l14.151-128.378     c0.711,0.096,1.428,0.162,2.155,0.162h26.43l0.055,102.084C372.546,243.537,372.514,244.278,372.558,245.205z M360.769,441.418     v22.455h-73.166H185.56c-4.466,0-8.084,3.618-8.084,8.084c0,4.466,3.619,8.084,8.084,8.084h102.042h81.048v15.79H107.133v-15.79     h47.537h4.314c4.466,0,8.084-3.618,8.084-8.084c0-4.466-3.618-8.084-8.084-8.084h-4.314h-39.478v-22.455     c0-22.054,5.487-73.349,56.305-73.349H300.2C344.906,368.07,360.769,407.582,360.769,441.418z M167.072,351.901v-15.79h139.685     v15.79H300.2H171.497H167.072z M307.921,319.943H166.229l-19.374-175.764h121.345c4.466,0,8.084-3.618,8.084-8.084     c0-4.466-3.618-8.084-8.084-8.084H145.074l-0.036-0.319l-1.844-16.127c-0.16-1.403-0.686-2.74-1.523-3.877l-20.338-27.601H334.36     l-5.283,47.924h-32.851c-4.466,0-8.084,3.618-8.084,8.084c0,4.466,3.618,8.084,8.084,8.084h31.069L307.921,319.943z      M386.466,274.721c-11.44,5.906-38.958,22.321-60.435,32.036l2.046-18.57c9.101-4.037,36.602-20.103,50.994-27.798     c10.448-5.588,9.684-15.557,9.668-15.654c-0.075-0.453,0-0.911,0-1.37l-0.057-107.352c0-6.126-2.394-8.341-4.194-9.473     c-2.227-1.402-4.691-1.674-5.175-1.715h-33.227l1.776-16.128h31.68c0.069,0,0.135,0.001,0.204,0.002     c10.074,0.257,25.061,7.74,25.061,27.313v106.865C405.257,247.061,405.882,264.7,386.466,274.721z"/>
			<path d="M236.916,392.974c-16.991,0-30.813,13.822-30.813,30.812c0,16.989,13.822,30.809,30.813,30.809     c16.988,0,30.808-13.821,30.808-30.809C267.724,406.795,253.903,392.974,236.916,392.974z M236.916,438.426     c-8.075,0-14.644-6.569-14.644-14.641c0-8.075,6.57-14.643,14.644-14.643c8.072,0,14.64,6.569,14.64,14.643     C251.556,431.857,244.989,438.426,236.916,438.426z"/>
		</g>
	</g>
</g>
<g>
</g>
<g>
</g>
<g>
</g>
<g>
</g>
<g>
</g>
<g>
</g>
<g>
</g>
<g>
</g>
<g>
</g>
<g>
</g>
<g>
</g>
<g>
</g>
<g>
</g>
<g>
</g>
<g>
</g>
</svg>
