<?xml version="1.0" encoding="iso-8859-1"?>
<!-- Generator: Adobe Illustrator 19.0.0, SVG Export Plug-In . SVG Version: 6.00 Build 0)  -->
<svg xmlns="http://www.w3.org/2000/svg" xmlns:xlink="http://www.w3.org/1999/xlink" version="1.1" id="Layer_1" x="0px" y="0px" viewBox="0 0 512 512" style="enable-background:new 0 0 512 512;" xml:space="preserve">
<g>
	<g>
		<path d="M410.875,31.908L345.898,4.442c-0.529-0.224-1.069-0.388-1.612-0.495c-0.334-0.228-0.681-0.441-1.056-0.622    c-1.424-0.689-14.271-6.557-26.982-0.859c-8.414,3.769-14.316,11.416-17.544,22.724c-0.001,0.003-0.002,0.007-0.003,0.01    l-26.627,93.312H104.321c-4.537,0-8.213,3.676-8.213,8.213v67.716v269.375v39.97c0,4.537,3.676,8.213,8.213,8.213h236.571    c4.537,0,8.213-3.676,8.213-8.213v-39.97V194.441v-67.716c0-4.537-3.676-8.213-8.213-8.213h-51.737l25.34-88.801    c0-0.001,0.001-0.002,0.001-0.003c1.824-6.392,4.647-10.503,8.394-12.217c5.823-2.67,13.004,0.54,13.244,0.649    c0.617,0.292,1.253,0.492,1.893,0.622c0.454,0.313,0.946,0.587,1.475,0.81l64.978,27.467c1.044,0.441,2.127,0.651,3.194,0.651    c3.201,0,6.243-1.884,7.568-5.018C417.008,38.492,415.053,33.675,410.875,31.908z M112.534,134.938h154.853l-14.636,51.29H112.534    V134.938z M332.68,495.574H112.534v0V472.03h46.898c4.537,0,8.213-3.676,8.213-8.213c0-4.537-3.676-8.213-8.213-8.213h-46.898    V202.654h220.145v252.949h-144.78c-4.537,0-8.213,3.676-8.213,8.213s3.676,8.213,8.213,8.213H332.68V495.574z M332.68,134.938    v51.29h-62.848l14.636-51.29H332.68z"/>
	</g>
</g>
<g>
</g>
<g>
</g>
<g>
</g>
<g>
</g>
<g>
</g>
<g>
</g>
<g>
</g>
<g>
</g>
<g>
</g>
<g>
</g>
<g>
</g>
<g>
</g>
<g>
</g>
<g>
</g>
<g>
</g>
</svg>
