<?xml version="1.0" encoding="iso-8859-1"?>
<!-- Generator: Adobe Illustrator 19.0.0, SVG Export Plug-In . SVG Version: 6.00 Build 0)  -->
<svg xmlns="http://www.w3.org/2000/svg" xmlns:xlink="http://www.w3.org/1999/xlink" version="1.1" id="Layer_1" x="0px" y="0px" viewBox="0 0 512 512" style="enable-background:new 0 0 512 512;" xml:space="preserve">
<g>
	<g>
		<path d="M405.537,203.085c-0.03-0.038-0.063-0.076-0.093-0.113l-43.895-61.203v-25.298h17.463c4.466,0,8.084-3.618,8.084-8.084    V8.084c0-4.466-3.618-8.084-8.084-8.084H132.99c-4.466,0-8.084,3.619-8.084,8.084v100.302c0,4.466,3.618,8.084,8.084,8.084h17.465    v25.298l-43.94,61.263c-5.232,5.701-8.105,13.058-8.105,20.796v27.86v149.356v80.162c0,16.98,13.813,30.793,30.793,30.793h253.594    c16.98,0,30.793-13.813,30.793-30.793v-80.162V251.688v-27.861C413.591,216.116,410.737,208.781,405.537,203.085z M337.893,16.168    h33.035v84.134h-17.463h-15.572V16.168z M345.381,116.471v19.814H166.623v-19.814H345.381z M288.688,16.168h33.035v84.134h-33.035    V16.168z M239.484,16.168h33.035v84.134h-33.035V16.168z M190.277,16.168h33.037v84.134h-33.037V16.168z M141.074,100.302V16.168    h33.035v84.134h-15.57H141.074z M397.423,392.961H189.541c-4.466,0-8.084,3.619-8.084,8.084s3.618,8.084,8.084,8.084h207.882    v72.078c0,8.064-6.561,14.625-14.625,14.625H129.204c-8.065,0-14.625-6.561-14.625-14.625v-72.078h46.935    c4.466,0,8.084-3.619,8.084-8.084s-3.618-8.084-8.084-8.084h-46.935V259.773h282.844V392.961z M397.423,243.604H114.579v-19.777    c0-3.78,1.452-7.374,4.088-10.118c0.374-0.389,0.702-0.808,0.985-1.251l43.037-60.004h186.625l43.031,59.998    c0.283,0.444,0.613,0.867,0.988,1.256c2.637,2.748,4.09,6.341,4.09,10.121V243.604z"/>
	</g>
</g>
<g>
</g>
<g>
</g>
<g>
</g>
<g>
</g>
<g>
</g>
<g>
</g>
<g>
</g>
<g>
</g>
<g>
</g>
<g>
</g>
<g>
</g>
<g>
</g>
<g>
</g>
<g>
</g>
<g>
</g>
</svg>
