<?xml version="1.0" encoding="iso-8859-1"?>
<!-- Generator: Adobe Illustrator 19.0.0, SVG Export Plug-In . SVG Version: 6.00 Build 0)  -->
<svg xmlns="http://www.w3.org/2000/svg" xmlns:xlink="http://www.w3.org/1999/xlink" version="1.1" id="Layer_1" x="0px" y="0px" viewBox="0 0 512.001 512.001" style="enable-background:new 0 0 512.001 512.001;" xml:space="preserve">
<g>
	<g>
		<g>
			<path d="M81.258,52.415C36.452,52.415,0,88.867,0,133.673v244.655c0,44.806,36.452,81.259,81.258,81.259     c44.818,0,81.281-36.452,81.281-81.259v-64.028c0-4.487-3.637-8.122-8.122-8.122s-8.122,3.635-8.122,8.122v64.028     c0,35.849-29.175,65.014-65.037,65.014c-35.848,0-65.013-29.166-65.013-65.014v-114.69h130.05v23.587     c0,4.487,3.637,8.122,8.122,8.122s8.122-3.635,8.122-8.122V133.673C162.539,88.867,126.076,52.415,81.258,52.415z      M146.295,247.395H16.244V133.673c0-35.849,29.165-65.014,65.013-65.014c35.861,0,65.037,29.166,65.037,65.014V247.395z"/>
			<path d="M488.244,249.209L335.507,96.474c-3.173-3.171-8.315-3.171-11.487,0c-3.172,3.173-3.172,8.315,0,11.487l60.153,60.151     l-91.958,91.958l-80.414-80.413c-25.349-25.349-25.349-66.594,0.001-91.943c12.287-12.288,28.621-19.056,45.991-19.056     c17.365,0,33.69,6.762,45.967,19.039c3.172,3.172,8.315,3.173,11.487,0.001c3.173-3.172,3.173-8.315,0.001-11.486     c-15.347-15.348-35.751-23.799-57.455-23.799c-21.708,0-42.124,8.458-57.478,23.813c-31.682,31.682-31.683,83.233,0,114.917     l86.137,86.136c0.007,0.007,0.013,0.015,0.02,0.022s0.014,0.013,0.022,0.019l86.821,86.82     c15.343,15.344,35.75,23.796,57.457,23.796c0.001,0,0,0,0.001,0c21.707,0,42.114-8.451,57.459-23.794     C519.918,332.452,519.926,280.894,488.244,249.209z M476.741,352.656c-12.276,12.276-28.603,19.036-45.973,19.036     c-17.369,0-33.694-6.761-45.969-19.037l-81.097-81.096L395.66,179.6l81.097,81.096     C502.106,286.047,502.099,327.3,476.741,352.656z"/>
			<path d="M257.168,306.598c-20.433,0-39.642,7.958-54.089,22.404c-29.825,29.825-29.825,78.354,0,108.181     c14.448,14.448,33.657,22.404,54.089,22.404s39.643-7.956,54.091-22.404c29.824-29.826,29.822-78.355,0-108.18     C296.811,314.555,277.6,306.598,257.168,306.598z M299.773,425.696c-11.381,11.38-26.511,17.647-42.605,17.647     c-16.094,0-31.224-6.267-42.604-17.646c-23.49-23.493-23.49-61.716,0-85.208c11.38-11.38,26.51-17.647,42.604-17.647     c16.093,0,31.224,6.267,42.604,17.647C323.262,363.982,323.262,402.205,299.773,425.696z"/>
			<path d="M237.396,355.557c-3.172-3.17-8.315-3.172-11.487,0c-3.172,3.173-3.172,8.315,0,11.487l47.306,47.307     c1.587,1.585,3.665,2.378,5.744,2.378c2.078,0,4.157-0.793,5.744-2.378c3.172-3.173,3.172-8.315,0-11.487L237.396,355.557z"/>
		</g>
	</g>
</g>
<g>
</g>
<g>
</g>
<g>
</g>
<g>
</g>
<g>
</g>
<g>
</g>
<g>
</g>
<g>
</g>
<g>
</g>
<g>
</g>
<g>
</g>
<g>
</g>
<g>
</g>
<g>
</g>
<g>
</g>
</svg>
