<?xml version="1.0" encoding="iso-8859-1"?>
<!-- Generator: Adobe Illustrator 19.0.0, SVG Export Plug-In . SVG Version: 6.00 Build 0)  -->
<svg xmlns="http://www.w3.org/2000/svg" xmlns:xlink="http://www.w3.org/1999/xlink" version="1.1" id="Layer_1" x="0px" y="0px" viewBox="0 0 512 512" style="enable-background:new 0 0 512 512;" xml:space="preserve">
<g>
	<g>
		<g>
			<path d="M471.864,104.975V90.187c0-43.246-30.602-79.465-71.286-88.178c-0.337-0.159-0.682-0.304-1.046-0.419     c-0.999-0.313-2.012-0.415-2.996-0.344C391.698,0.44,386.739,0,381.676,0H130.328c-5.064,0-10.025,0.44-14.864,1.246     c-0.983-0.07-1.995,0.031-2.994,0.343c-0.366,0.114-0.712,0.26-1.049,0.42c-40.683,8.714-71.284,44.932-71.284,88.177v14.789     c0,41.767,28.452,77.157,67.419,87.274c-0.702,0.667-1.403,1.332-2.101,2.011l-0.378,0.367c-0.354,0.344-0.708,0.688-1.05,1.027     c-1.081,1.069-2.146,2.153-3.211,3.255l-0.326,0.334c-0.189,0.192-0.378,0.384-0.558,0.572c-1.325,1.387-2.657,2.82-3.959,4.257     c-0.206,0.228-0.41,0.458-0.613,0.69l-0.36,0.406c-0.972,1.088-1.936,2.182-2.886,3.289c-0.408,0.476-0.81,0.956-1.212,1.435     l-0.099,0.118c-0.836,0.992-1.666,1.992-2.484,3.003c-0.439,0.54-0.878,1.082-1.303,1.617c-0.842,1.058-1.673,2.127-2.506,3.216     l-0.402,0.523c-0.231,0.299-0.461,0.598-0.689,0.901c-6.849,9.102-13.032,18.847-18.382,28.967     c-0.087,0.145-0.17,0.291-0.249,0.441c-0.095,0.182-0.188,0.366-0.279,0.55l-0.141,0.279c-0.623,1.202-1.235,2.411-1.83,3.613     l-0.225,0.451c-0.203,0.405-0.406,0.809-0.597,1.205c-1.696,3.489-3.329,7.099-4.851,10.729     c-0.187,0.443-0.368,0.889-0.548,1.336l-0.147,0.361c-0.519,1.268-1.031,2.539-1.525,3.817c-0.257,0.661-0.507,1.327-0.754,1.985     c-0.464,1.231-0.915,2.467-1.345,3.686c-0.235,0.657-0.47,1.317-0.701,1.986c-0.472,1.373-0.926,2.755-1.37,4.133l-0.168,0.515     c-0.111,0.34-0.222,0.677-0.33,1.019c-0.6,1.913-1.173,3.836-1.701,5.702c-0.073,0.258-0.143,0.519-0.211,0.779l-0.078,0.294     c-0.436,1.569-0.857,3.143-1.26,4.735c-0.113,0.451-0.223,0.904-0.333,1.357l-0.147,0.604c-0.316,1.306-0.624,2.616-0.922,3.946     c-0.158,0.71-0.312,1.419-0.463,2.127c-0.28,1.32-0.545,2.646-0.8,3.977l-0.121,0.624c-0.09,0.455-0.178,0.912-0.266,1.389     c-0.292,1.604-0.564,3.217-0.823,4.834l-0.068,0.408c-0.042,0.25-0.084,0.499-0.121,0.742c-0.3,1.948-0.584,3.978-0.84,6.042     c-0.045,0.366-0.086,0.734-0.126,1.101l-0.062,0.542c-0.173,1.477-0.337,2.958-0.48,4.448c-0.052,0.529-0.097,1.057-0.142,1.588     l-0.052,0.593c-0.115,1.345-0.22,2.696-0.313,4.053c-0.05,0.744-0.098,1.488-0.142,2.244c-0.08,1.414-0.142,2.836-0.197,4.273     l-0.026,0.682c-0.017,0.424-0.035,0.848-0.047,1.283c-0.065,2.266-0.096,4.305-0.096,6.235     c0,61.379,26.276,120.063,72.092,161.001c1.482,1.326,3.401,2.057,5.391,2.057h276.763c1.989,0,3.908-0.732,5.391-2.057     c45.814-40.937,72.09-99.62,72.09-161.001c0-1.894-0.03-3.931-0.094-6.247c-0.015-0.485-0.034-0.97-0.056-1.455l-0.021-0.501     c-0.053-1.426-0.117-2.852-0.197-4.259c-0.041-0.747-0.092-1.492-0.142-2.248c-0.09-1.356-0.195-2.711-0.312-4.07l-0.037-0.416     c-0.051-0.586-0.101-1.17-0.157-1.745c-0.142-1.49-0.306-2.975-0.481-4.475l-0.072-0.646c-0.037-0.327-0.072-0.653-0.114-0.996     c-0.258-2.053-0.54-4.078-0.837-6.016c-0.038-0.249-0.08-0.499-0.122-0.748l-0.068-0.409c-0.258-1.618-0.532-3.231-0.824-4.832     c-0.091-0.494-0.186-0.985-0.282-1.476l-0.106-0.543c-0.257-1.333-0.522-2.664-0.802-3.971c-0.153-0.721-0.307-1.438-0.465-2.135     c-0.293-1.324-0.604-2.641-0.92-3.933l-0.091-0.38c-0.127-0.532-0.255-1.063-0.391-1.601c-0.401-1.583-0.822-3.158-1.259-4.73     l-0.286-1.058c-0.518-1.832-1.094-3.754-1.697-5.683c-0.104-0.336-0.213-0.667-0.321-0.999l-0.182-0.558     c-0.445-1.386-0.902-2.767-1.37-4.127c-0.229-0.668-0.466-1.333-0.696-1.977c-0.438-1.238-0.889-2.469-1.351-3.7     c-0.25-0.666-0.503-1.331-0.757-1.989c-0.496-1.284-1.009-2.561-1.52-3.807l-0.206-0.509c-0.16-0.396-0.32-0.792-0.491-1.201     c-1.511-3.604-3.145-7.215-4.848-10.721c-0.197-0.407-0.399-0.811-0.602-1.217l-0.218-0.436c-0.604-1.218-1.217-2.43-1.83-3.607     l-0.117-0.233c-0.11-0.221-0.22-0.441-0.337-0.659c-0.071-0.135-0.148-0.266-0.225-0.397     c-5.346-10.117-11.53-19.861-18.382-28.967c-0.249-0.331-0.503-0.658-0.755-0.986l-0.34-0.441     c-0.824-1.079-1.656-2.149-2.493-3.201c-0.436-0.55-0.878-1.095-1.32-1.638c-0.817-1.006-1.642-2.003-2.468-2.986l-0.107-0.125     c-0.402-0.479-0.805-0.959-1.218-1.441c-0.947-1.101-1.908-2.192-2.882-3.284l-0.357-0.405c-0.203-0.231-0.408-0.463-0.613-0.688     c-1.302-1.439-2.634-2.872-3.976-4.274l-0.877-0.9c-1.055-1.091-2.119-2.173-3.191-3.236c-0.393-0.389-0.789-0.775-1.188-1.16     l-0.249-0.243c-0.691-0.674-1.395-1.343-2.1-2.012C443.412,182.132,471.864,146.741,471.864,104.975z M130.327,16.181h251.349     c1.599,0,3.181,0.069,4.755,0.169l-9.26,29.566H134.831l-9.26-29.566C127.145,16.25,128.728,16.181,130.327,16.181z      M409.766,90.187v14.789c0,15.488-12.601,28.088-28.09,28.088H130.328c-15.49,0-28.092-12.601-28.092-28.088V90.187     c0-15.488,12.602-28.089,28.092-28.089h251.348C397.165,62.098,409.766,74.699,409.766,90.187z M56.32,104.975V90.187     c0-33.576,22.485-61.983,53.182-71.002l8.889,28.38c-18.63,5.224-32.337,22.346-32.337,42.621v14.789     c0,24.411,19.861,44.27,44.273,44.27h43.607l-0.565,0.231c-0.327,0.132-0.653,0.264-0.97,0.398     c-1.866,0.785-3.683,1.577-5.393,2.352l-0.968,0.451c-1.464,0.673-2.921,1.359-4.365,2.06c-0.44,0.214-0.877,0.433-1.314,0.652     l-0.487,0.245c-1.176,0.585-2.343,1.178-3.515,1.787c-0.635,0.332-1.27,0.665-1.899,1.002c-1.157,0.617-2.306,1.247-3.439,1.88     l-0.42,0.233c-0.442,0.246-0.883,0.491-1.339,0.749c-1.391,0.793-2.771,1.604-4.139,2.424l-0.906,0.536     c-1.59,0.962-3.256,2.005-4.941,3.093c-0.317,0.204-0.632,0.412-0.945,0.619l-0.445,0.293c-1.175,0.769-2.341,1.546-3.511,2.344     c-0.571,0.391-1.141,0.787-1.709,1.184c-1.053,0.736-2.098,1.478-3.136,2.229c-0.571,0.412-1.14,0.825-1.701,1.24     c-1.1,0.813-2.187,1.639-3.278,2.477l-0.472,0.36c-0.249,0.19-0.493,0.379-0.735,0.565     C85.522,175.112,56.32,143.312,56.32,104.975z M404.93,215.943c0.903,1.013,1.796,2.028,2.672,3.047     c0.372,0.433,0.738,0.869,1.102,1.304l0.113,0.135c0.771,0.917,1.535,1.839,2.291,2.771c0.405,0.497,0.809,0.996,1.216,1.507     c0.778,0.975,1.543,1.961,2.311,2.967l0.385,0.5c0.211,0.274,0.424,0.547,0.63,0.823c6.386,8.485,12.145,17.573,17.117,27.011     c0.068,0.127,0.138,0.252,0.211,0.376l0.296,0.586c0.577,1.108,1.14,2.224,1.702,3.358l0.243,0.484     c0.17,0.34,0.341,0.681,0.511,1.031c1.579,3.25,3.087,6.586,4.479,9.903c0.14,0.338,0.277,0.677,0.415,1.017l0.233,0.574     c0.479,1.167,0.949,2.339,1.408,3.522c0.236,0.611,0.469,1.224,0.697,1.834c0.425,1.133,0.841,2.272,1.253,3.436     c0.214,0.598,0.427,1.195,0.638,1.81c0.438,1.271,0.859,2.55,1.265,3.812l0.22,0.676c0.079,0.239,0.157,0.477,0.242,0.748     c0.57,1.819,1.101,3.597,1.571,5.253l0.274,1.018c0.403,1.449,0.792,2.903,1.16,4.356c0.118,0.47,0.232,0.942,0.344,1.415     l0.1,0.413c0.293,1.207,0.579,2.417,0.853,3.654c0.147,0.65,0.287,1.3,0.428,1.971c0.26,1.217,0.505,2.44,0.74,3.663l0.112,0.573     c0.083,0.428,0.166,0.855,0.246,1.288c0.272,1.487,0.524,2.979,0.764,4.476l0.176,1.06c0.275,1.795,0.536,3.673,0.775,5.567     l0.175,1.535c0.16,1.369,0.312,2.74,0.444,4.126c0.051,0.531,0.097,1.063,0.143,1.596l0.036,0.416     c0.108,1.244,0.204,2.492,0.289,3.768c0.046,0.683,0.093,1.365,0.132,2.06c0.074,1.312,0.133,2.628,0.182,3.972l0.023,0.557     c0.018,0.421,0.035,0.84,0.047,1.242c0.059,2.146,0.087,4.038,0.087,5.782c0,55.759-23.44,109.111-64.423,146.877H120.744     C79.76,458.05,56.319,404.698,56.319,348.94c0-1.776,0.029-3.663,0.09-5.764c0.011-0.368,0.025-0.735,0.04-1.101l0.028-0.729     c0.051-1.323,0.108-2.642,0.182-3.946c0.041-0.699,0.085-1.394,0.132-2.086c0.085-1.255,0.183-2.506,0.29-3.744l0.053-0.611     c0.04-0.471,0.08-0.942,0.125-1.409c0.134-1.381,0.287-2.757,0.449-4.142l0.069-0.628c0.033-0.298,0.067-0.598,0.102-0.887     c0.237-1.901,0.497-3.773,0.776-5.575l0.176-1.059c0.239-1.498,0.49-2.991,0.757-4.456c0.076-0.409,0.156-0.817,0.235-1.223     l0.127-0.657c0.237-1.23,0.482-2.456,0.742-3.683c0.139-0.66,0.284-1.319,0.426-1.96c0.275-1.224,0.561-2.443,0.852-3.644     l0.151-0.624c0.098-0.402,0.195-0.805,0.293-1.196c0.37-1.462,0.758-2.917,1.173-4.406l0.253-0.946     c0.492-1.736,1.023-3.515,1.578-5.285c0.083-0.268,0.17-0.533,0.258-0.797l0.198-0.607c0.414-1.283,0.832-2.563,1.268-3.825     c0.209-0.607,0.426-1.212,0.651-1.839c0.403-1.14,0.817-2.273,1.245-3.411c0.23-0.613,0.461-1.227,0.697-1.839     c0.457-1.181,0.931-2.356,1.42-3.548l0.163-0.403c0.155-0.382,0.31-0.766,0.469-1.147c1.409-3.355,2.916-6.691,4.489-9.927     c0.164-0.341,0.336-0.681,0.505-1.019l0.25-0.5c0.557-1.123,1.121-2.242,1.685-3.328c0.096-0.181,0.188-0.365,0.278-0.547     l0.033-0.067c0.07-0.119,0.139-0.241,0.203-0.364c4.975-9.441,10.736-18.529,17.118-27.01c0.191-0.252,0.383-0.503,0.575-0.752     l0.445-0.579c0.761-0.994,1.528-1.982,2.315-2.971c0.395-0.498,0.796-0.992,1.215-1.506c0.751-0.928,1.515-1.848,2.291-2.769     l0.107-0.127c0.366-0.435,0.731-0.872,1.102-1.305c0.877-1.02,1.766-2.031,2.662-3.034l0.905-1.021     c1.207-1.332,2.441-2.658,3.673-3.948l0.818-0.837c0.974-1.009,1.957-2.008,2.962-3.003c0.31-0.307,0.621-0.609,0.933-0.914     l0.389-0.38c0.861-0.836,1.726-1.668,2.59-2.479c0.483-0.454,0.968-0.905,1.444-1.345c0.899-0.827,1.807-1.643,2.709-2.445     l0.538-0.478c0.264-0.237,0.529-0.474,0.793-0.704c1.207-1.052,2.426-2.088,3.663-3.117l0.448-0.38     c0.59-0.488,1.201-0.985,1.834-1.494c0.071-0.053,0.146-0.101,0.215-0.156c2.191-1.762,4.411-3.471,6.657-5.13     c0.198-0.146,0.399-0.291,0.599-0.437c0.435-0.318,0.873-0.63,1.31-0.945c0.792-0.57,1.586-1.137,2.386-1.696     c0.529-0.369,1.058-0.739,1.579-1.095c1.071-0.732,2.151-1.45,3.248-2.167l0.513-0.339c0.252-0.167,0.505-0.336,0.768-0.504     c1.59-1.026,3.083-1.96,4.564-2.858l0.836-0.494c1.274-0.764,2.556-1.516,3.83-2.244c0.394-0.223,0.789-0.442,1.185-0.661     l0.447-0.249c1.056-0.589,2.117-1.17,3.187-1.742c0.586-0.313,1.174-0.622,1.755-0.926c1.076-0.56,2.159-1.109,3.247-1.652     l0.518-0.259c0.378-0.189,0.755-0.379,1.14-0.565c1.342-0.652,2.691-1.287,4.027-1.902l0.907-0.423     c1.58-0.716,3.259-1.449,4.994-2.178c0.253-0.108,0.51-0.21,0.767-0.314l0.667-0.273c1.209-0.497,2.423-0.987,3.668-1.469     c0.557-0.217,1.117-0.427,1.677-0.639l0.149-0.056c1.129-0.425,2.262-0.84,3.384-1.241l0.338-0.12     c0.513-0.182,1.026-0.365,1.552-0.545c1.215-0.42,2.434-0.823,3.663-1.219l0.66-0.216c0.311-0.102,0.622-0.205,0.935-0.303     c1.858-0.584,3.583-1.101,5.261-1.577l0.598-0.162c1.583-0.442,3.17-0.867,4.785-1.275c0.389-0.1,0.784-0.194,1.177-0.289     l0.595-0.145c1.222-0.297,2.448-0.587,3.666-0.86c0.666-0.149,1.332-0.293,2.003-0.436c1.21-0.258,2.425-0.503,3.632-0.737     l0.629-0.121c0.431-0.084,0.863-0.168,1.289-0.247c1.431-0.261,2.869-0.505,4.312-0.738l1.242-0.205     c1.821-0.28,3.7-0.543,5.576-0.779l1.449-0.165c1.401-0.164,2.805-0.32,4.221-0.456c0.539-0.053,1.08-0.099,1.62-0.146     l0.378-0.032c1.253-0.108,2.512-0.206,3.769-0.291c0.694-0.047,1.387-0.093,2.083-0.132c1.318-0.076,2.639-0.134,3.972-0.185     l0.653-0.026c0.319-0.013,0.641-0.025,0.962-0.036c0.139-0.004,0.277-0.01,0.415-0.013c0.714-0.019,1.399-0.036,2.068-0.047     c1.169-0.019,2.339-0.037,3.511-0.037c1.173,0,2.343,0.016,3.512,0.037c0.667,0.013,1.351,0.028,2.063,0.047     c0.138,0.003,0.275,0.009,0.413,0.013c0.319,0.011,0.64,0.023,0.958,0.036l0.671,0.027c1.326,0.05,2.646,0.108,3.964,0.183     c0.696,0.039,1.388,0.084,2.08,0.132c1.26,0.084,2.517,0.183,3.77,0.292l0.397,0.033c0.535,0.045,1.07,0.092,1.61,0.145     c1.41,0.135,2.812,0.291,4.21,0.455l1.442,0.164c1.889,0.237,3.767,0.499,5.593,0.782l1.235,0.203     c1.442,0.233,2.88,0.476,4.305,0.737c0.433,0.079,0.865,0.163,1.297,0.247l0.617,0.119c1.218,0.236,2.433,0.48,3.646,0.74     c0.666,0.141,1.33,0.286,1.991,0.433c1.231,0.275,2.454,0.564,3.68,0.863l0.585,0.142c0.397,0.095,0.794,0.191,1.195,0.292     c1.597,0.404,3.187,0.828,4.76,1.27l0.592,0.16c1.668,0.472,3.395,0.99,5.277,1.581c0.314,0.098,0.625,0.201,0.936,0.303     l0.662,0.216c1.223,0.395,2.446,0.798,3.672,1.222c0.557,0.192,1.109,0.388,1.661,0.585l0.2,0.07     c1.139,0.407,2.273,0.822,3.407,1.249c0.611,0.23,1.221,0.46,1.837,0.698c1.228,0.476,2.443,0.967,3.657,1.465l1.436,0.587     c1.698,0.714,3.378,1.447,4.992,2.177l0.875,0.408c1.358,0.625,2.712,1.261,4.049,1.912c0.389,0.19,0.778,0.384,1.165,0.577     l0.494,0.247c1.088,0.543,2.175,1.093,3.243,1.648c0.591,0.309,1.179,0.618,1.768,0.932c1.067,0.571,2.127,1.152,3.194,1.748     l0.401,0.223c0.402,0.223,0.806,0.447,1.205,0.675c1.29,0.736,2.571,1.487,3.826,2.239l0.85,0.503     c1.484,0.9,3.022,1.862,4.576,2.864c0.232,0.149,0.463,0.301,0.693,0.454l0.583,0.385c1.088,0.713,2.173,1.433,3.233,2.158     c0.533,0.365,1.063,0.735,1.591,1.104c0.806,0.562,1.602,1.132,2.394,1.7c0.434,0.313,0.868,0.621,1.3,0.939     c0.201,0.146,0.402,0.292,0.6,0.437c1.099,0.812,2.193,1.636,3.28,2.474l0.003,0.002c1.133,0.873,2.258,1.758,3.375,2.658     c0.036,0.029,0.078,0.049,0.113,0.077c0.662,0.532,1.31,1.058,1.945,1.583l0.437,0.37c1.233,1.025,2.453,2.065,3.658,3.115     c0.31,0.27,0.616,0.544,0.922,0.817l0.409,0.366c0.913,0.809,1.818,1.623,2.716,2.451c0.483,0.444,0.964,0.892,1.434,1.332     c0.872,0.819,1.735,1.647,2.604,2.495l0.273,0.264c0.349,0.34,0.699,0.677,1.05,1.025c0.997,0.988,1.981,1.99,2.948,2.991     l0.834,0.853c1.227,1.283,2.46,2.609,3.669,3.944L404.93,215.943z M388.659,178.649c-0.216-0.167-0.433-0.333-0.648-0.498     l-0.566-0.434c-1.081-0.828-2.168-1.654-3.279-2.476c-0.559-0.411-1.119-0.819-1.688-1.233c-1.041-0.752-2.087-1.495-3.14-2.23     c-0.566-0.396-1.137-0.793-1.721-1.193c-1.155-0.787-2.321-1.562-3.505-2.339l-0.504-0.332c-0.292-0.194-0.585-0.387-0.873-0.573     c-1.673-1.078-3.339-2.121-4.93-3.084c-0.198-0.121-0.398-0.238-0.599-0.356l-0.321-0.19c-1.373-0.824-2.757-1.636-4.15-2.429     c-0.453-0.258-0.909-0.512-1.367-0.765l-0.375-0.208c-1.145-0.64-2.292-1.27-3.447-1.886c-0.632-0.338-1.266-0.671-1.91-1.009     c-1.16-0.604-2.328-1.195-3.504-1.782l-0.476-0.238c-0.438-0.219-0.877-0.438-1.321-0.654c-1.447-0.703-2.903-1.389-4.393-2.074     l-0.941-0.438c-1.748-0.791-3.563-1.584-5.401-2.356c-0.336-0.14-0.67-0.276-1.005-0.412l-0.525-0.215h43.606     c24.411,0,44.271-19.859,44.271-44.27v-14.79c0-20.275-13.707-37.398-32.336-42.622l8.889-28.38     c30.698,9.018,53.182,37.426,53.182,71.002v14.789C455.683,143.313,426.481,175.111,388.659,178.649z"/>
			<path d="M257.308,182.353c-93.03,0-168.716,75.686-168.716,168.716c0,39.763,14.109,78.379,39.729,108.736     c1.537,1.821,3.798,2.873,6.182,2.873h51.207c4.469,0,8.091-3.621,8.091-8.091c0-4.469-3.621-8.091-8.091-8.091h-47.388     c-21.662-26.985-33.55-60.721-33.55-95.427c0-84.109,68.427-152.535,152.535-152.535s152.535,68.427,152.535,152.535     c0,34.707-11.888,68.442-33.55,95.427H214.835c-4.469,0-8.091,3.621-8.091,8.091c0,4.469,3.621,8.091,8.091,8.091h165.278     c2.384,0,4.646-1.052,6.182-2.873c25.62-30.357,39.729-68.973,39.729-108.736C426.025,258.039,350.339,182.353,257.308,182.353z"/>
		</g>
	</g>
</g>
<g>
</g>
<g>
</g>
<g>
</g>
<g>
</g>
<g>
</g>
<g>
</g>
<g>
</g>
<g>
</g>
<g>
</g>
<g>
</g>
<g>
</g>
<g>
</g>
<g>
</g>
<g>
</g>
<g>
</g>
</svg>
