<?xml version="1.0" encoding="iso-8859-1"?>
<!-- Generator: Adobe Illustrator 19.0.0, SVG Export Plug-In . SVG Version: 6.00 Build 0)  -->
<svg xmlns="http://www.w3.org/2000/svg" xmlns:xlink="http://www.w3.org/1999/xlink" version="1.1" id="Layer_1" x="0px" y="0px" viewBox="0 0 512.001 512.001" style="enable-background:new 0 0 512.001 512.001;" xml:space="preserve">
<g>
	<g>
		<path d="M475.613,202.837c-4.174-1.621-8.876,0.448-10.499,4.624c-0.546,1.405-0.665,2.868-0.435,4.256    c-0.069,0.428-0.116,0.864-0.116,1.312v88.573v15.728v28.968c0,17.107-13.917,31.025-31.025,31.025h-26.09    c-17.107,0-31.025-13.917-31.025-31.025v-41.377v-97.84v-41.377c0-17.107,13.917-31.025,31.025-31.025h26.09    c17.107,0,31.025,13.917,31.025,31.025v17.505c0,4.481,3.631,8.112,8.112,8.112c4.481,0,8.112-3.631,8.112-8.112v-17.505    c0-26.053-21.197-47.25-47.25-47.25h-26.09c-26.053,0-47.25,21.197-47.25,47.25v33.265H151.801v-33.265    c0-26.053-21.197-47.25-47.25-47.25h-26.09c-26.054,0-47.252,21.197-47.252,47.25v24.819v14.619C12.08,214.8,0,234.2,0,256.001    c0,21.8,12.08,41.201,31.21,50.859v10.47v28.968c0,26.053,21.198,47.25,47.252,47.25h26.09c26.053,0,47.25-21.197,47.25-47.25    v-33.265h32.273c4.481,0,8.112-3.631,8.112-8.112s-3.631-8.112-8.112-8.112h-32.273v-81.616H360.2v81.616H212.193    c-4.481,0-8.112,3.631-8.112,8.112s3.631,8.112,8.112,8.112H360.2v33.265c0,26.053,21.197,47.25,47.25,47.25h26.09    c26.053,0,47.25-21.197,47.25-47.25V317.33v-10.47c19.132-9.658,31.212-29.058,31.212-50.859    C512,232.294,497.717,211.426,475.613,202.837z M31.21,287.625c-9.355-7.592-14.986-19.045-14.986-31.623    c0-12.579,5.631-24.033,14.986-31.622V287.625z M135.577,207.081v97.84v41.376c0,17.107-13.917,31.025-31.025,31.025h-26.09    c-17.108,0-31.027-13.917-31.027-31.025V317.33v-15.728V210.4v-19.877v-24.819c0-17.107,13.918-31.025,31.027-31.025h26.09    c17.107,0,31.025,13.917,31.025,31.025V207.081z M480.788,287.625v-63.249c9.357,7.591,14.988,19.044,14.988,31.624    C495.776,268.58,490.145,280.035,480.788,287.625z"/>
	</g>
</g>
<g>
</g>
<g>
</g>
<g>
</g>
<g>
</g>
<g>
</g>
<g>
</g>
<g>
</g>
<g>
</g>
<g>
</g>
<g>
</g>
<g>
</g>
<g>
</g>
<g>
</g>
<g>
</g>
<g>
</g>
</svg>
