<?xml version="1.0" encoding="iso-8859-1"?>
<!-- Generator: Adobe Illustrator 19.0.0, SVG Export Plug-In . SVG Version: 6.00 Build 0)  -->
<svg xmlns="http://www.w3.org/2000/svg" xmlns:xlink="http://www.w3.org/1999/xlink" version="1.1" id="Layer_1" x="0px" y="0px" viewBox="0 0 512.002 512.002" style="enable-background:new 0 0 512.002 512.002;" xml:space="preserve">
<g>
	<g>
		<g>
			<path d="M347.879,137.535V92.472V72.267V35.259c0-10.53,8.566-19.098,19.097-19.098h1.51c10.529,0,19.097,8.567,19.097,19.098     v45.815c0,4.464,3.618,8.08,8.08,8.08c4.464,0,8.08-3.617,8.08-8.08V35.259C403.744,15.817,387.927,0,368.486,0h-1.51     c-19.441,0-35.258,15.817-35.258,35.259v37.009v20.204v45.063c0,10.529-8.565,19.098-19.095,19.098h-1.513     c-10.529,0-19.097-8.567-19.097-19.098v-24.244V82.719v-7.123c0-19.441-15.817-35.257-35.258-35.257h-1.508     c-19.443,0-35.261,15.816-35.261,35.257v70.816v25.675v9.185c0,10.529-8.565,19.096-19.095,19.096h-1.51     c-10.53,0-19.099-8.566-19.099-19.096v-16.56c0-4.464-3.618-8.08-8.08-8.08s-8.081,3.617-8.081,8.08v16.56     c0,19.441,15.817,35.257,35.26,35.257h1.51c19.441,0,35.256-15.816,35.256-35.257v-9.185v-25.675V75.597     c0-10.529,8.569-19.096,19.1-19.096h1.508c10.531,0,19.097,8.566,19.097,19.096v7.123v30.572v24.244     c0,19.442,15.817,35.259,35.258,35.259h1.513C332.064,172.794,347.879,156.977,347.879,137.535z"/>
			<path d="M167.099,234.31h-42.678V130.281c0-10.529,8.566-19.098,19.097-19.098h1.51c10.528,0,19.095,8.567,19.095,19.098v8.973     c0,4.464,3.618,8.08,8.081,8.08s8.08-3.617,8.08-8.08v-8.973c0-19.442-15.815-35.259-35.256-35.259h-1.51     c-19.44,0-35.258,15.817-35.258,35.259V234.31H65.582c-4.463,0-8.08,3.617-8.08,8.08v44.864c0,4.464,3.618,8.081,8.08,8.081     h5.469c4.669,5.104,15.813,20.146,7.043,39.968c-0.158,0.358-0.279,0.722-0.381,1.087c-2.865,4.332-4.538,9.519-4.538,15.09     v133.083c0,15.129,12.309,27.438,27.439,27.438h31.456c15.129,0,27.437-12.309,27.437-27.438V351.479     c0-5.568-1.671-10.751-4.533-15.082c-0.103-0.368-0.224-0.736-0.384-1.096c-8.79-19.862,2.312-34.831,7.035-39.967h5.474     c4.463,0,8.081-3.617,8.081-8.08v-44.864C175.18,237.927,171.562,234.31,167.099,234.31z M143.345,484.562     c0,6.218-5.058,11.277-11.276,11.277h-31.456c-6.219,0-11.278-5.058-11.278-11.277V351.479c0-6.219,5.059-11.279,11.278-11.279     h31.456c6.218,0,11.276,5.059,11.276,11.279V484.562z M135.307,324.237c-1.063-0.126-2.142-0.197-3.239-0.197h-31.456     c-1.097,0-2.175,0.072-3.239,0.197c0.827-11.208-2.271-21.131-6.538-28.903h51.006     C137.578,303.106,134.479,313.029,135.307,324.237z M159.019,279.174H73.662v-28.703h85.357V279.174z"/>
			<path d="M446.421,234.31h-42.677V109.086c0-4.464-3.617-8.08-8.08-8.08c-4.463,0-8.08,3.617-8.08,8.08V234.31h-42.677     c-4.464,0-8.08,3.617-8.08,8.08v44.864c0,4.464,3.617,8.081,8.08,8.081h5.473c4.724,5.137,15.823,20.107,7.035,39.967     c-0.159,0.36-0.28,0.727-0.384,1.096c-2.862,4.331-4.533,9.514-4.533,15.084v133.083c0,15.129,12.308,27.438,27.436,27.438     h31.457c15.129,0,27.438-12.309,27.438-27.438V351.479c0-5.571-1.673-10.757-4.537-15.089c-0.103-0.366-0.224-0.73-0.383-1.089     c-8.787-19.863,2.315-34.832,7.04-39.968h5.471c4.464,0,8.08-3.617,8.08-8.081v-44.864     C454.501,237.927,450.884,234.31,446.421,234.31z M422.667,484.562c0,6.218-5.058,11.277-11.277,11.277h-31.457     c-6.217,0-11.275-5.058-11.275-11.277V351.479c0-6.219,5.057-11.279,11.275-11.279h31.457c6.218,0,11.277,5.059,11.277,11.279     V484.562z M414.63,324.237c-1.063-0.126-2.143-0.198-3.24-0.198h-31.457c-1.096,0-2.175,0.072-3.238,0.197     c0.829-11.208-2.27-21.131-6.535-28.903h51.007C416.901,303.106,413.802,313.029,414.63,324.237z M438.341,279.174h-85.354     v-28.703h85.354V279.174z"/>
		</g>
	</g>
</g>
<g>
</g>
<g>
</g>
<g>
</g>
<g>
</g>
<g>
</g>
<g>
</g>
<g>
</g>
<g>
</g>
<g>
</g>
<g>
</g>
<g>
</g>
<g>
</g>
<g>
</g>
<g>
</g>
<g>
</g>
</svg>
