<?xml version="1.0" encoding="iso-8859-1"?>
<!-- Generator: Adobe Illustrator 19.0.0, SVG Export Plug-In . SVG Version: 6.00 Build 0)  -->
<svg version="1.1" id="Capa_1" xmlns="http://www.w3.org/2000/svg" xmlns:xlink="http://www.w3.org/1999/xlink" x="0px" y="0px"
	 viewBox="0 0 462.996 462.996" style="enable-background:new 0 0 462.996 462.996;" xml:space="preserve">
<g>
	<path d="M31.996,350.17c0,39.425,32.075,71.5,71.5,71.5s71.5-32.075,71.5-71.5s-32.075-71.5-71.5-71.5
		S31.996,310.746,31.996,350.17z M159.996,350.17c0,31.154-25.346,56.5-56.5,56.5s-56.5-25.346-56.5-56.5s25.346-56.5,56.5-56.5
		S159.996,319.016,159.996,350.17z"/>
	<path d="M359.496,278.67c-39.425,0-71.5,32.075-71.5,71.5s32.075,71.5,71.5,71.5s71.5-32.075,71.5-71.5
		S398.921,278.67,359.496,278.67z M359.496,406.67c-31.154,0-56.5-25.346-56.5-56.5s25.346-56.5,56.5-56.5s56.5,25.346,56.5,56.5
		S390.65,406.67,359.496,406.67z"/>
	<path d="M399.485,254.8c-0.244-0.102-0.49-0.307-0.49-0.501V230.17c0-11.018-7.623-20.285-17.871-22.814
		c1.204-2.823,1.871-5.928,1.871-9.186v-16c0-8.084-4.103-15.226-10.336-19.457c0.281-0.372,0.572-0.734,0.833-1.124
		c3.487-5.22,4.733-11.484,3.509-17.641l-3.122-15.692c-1.225-6.156-4.773-11.468-9.992-14.955
		c-1.994-1.333-4.142-2.335-6.378-3.001c2.062-5.568,1.977-11.611-0.308-17.127l-6.123-14.782
		c-2.402-5.799-6.918-10.316-12.718-12.718c-3.288-1.362-6.764-1.924-10.215-1.741c0.017-0.569,0.021-1.141-0.003-1.716
		c-0.262-6.271-2.95-12.066-7.57-16.315l-11.775-10.832c-4.62-4.251-10.621-6.438-16.89-6.185c-2.495,0.104-4.911,0.598-7.188,1.439
		c-2.291-6.448-7.355-11.852-14.293-14.31l-15.083-5.341c-8.52-3.016-17.641-0.801-23.849,4.957
		c-6.208-5.757-15.329-7.971-23.848-4.957l-15.083,5.342c-6.938,2.457-12.002,7.861-14.293,14.309
		c-2.276-0.841-4.693-1.335-7.188-1.439c-6.274-0.258-12.27,1.935-16.89,6.185l-11.775,10.832c-4.62,4.249-7.308,10.044-7.57,16.315
		c-0.024,0.575-0.02,1.146-0.003,1.716c-3.451-0.182-6.927,0.38-10.215,1.741c-5.799,2.401-10.316,6.919-12.718,12.718
		l-6.123,14.782c-2.285,5.516-2.37,11.558-0.308,17.127c-2.235,0.665-4.383,1.668-6.378,3.001
		c-5.219,3.487-8.768,8.799-9.992,14.955l-3.122,15.692c-1.225,6.156,0.021,12.421,3.509,17.641
		c0.261,0.391,0.552,0.753,0.833,1.124c-6.232,4.23-10.336,11.373-10.336,19.457v16c0,3.258,0.668,6.363,1.871,9.186
		c-10.248,2.529-17.871,11.796-17.871,22.814v24.126c0,0.205-0.255,0.406-0.491,0.505C23.231,271.7-2.228,312.351,0.154,355.957
		c2.875,52.636,46.404,95.519,99.099,97.628c1.436,0.058,2.865,0.086,4.292,0.086c26.882,0,52.185-10.157,71.649-28.857
		c20.508-19.703,31.802-46.212,31.802-74.644c0-41.748-24.93-79.183-63.51-95.37c-0.244-0.102-0.49-0.307-0.49-0.501V230.17
		c0-11.018-7.623-20.285-17.871-22.814c1.204-2.823,1.871-5.928,1.871-9.186v-16c0-5.326-1.784-10.242-4.782-14.188
		c5.151-3.488,8.658-8.758,9.873-14.866l3.121-15.691c0.861-4.329,0.495-8.711-1.007-12.746c6.548-1.956,12.198-6.729,15.011-13.519
		l6.123-14.782c1.297-3.13,1.869-6.431,1.766-9.719c0.083,0.004,0.165,0.013,0.248,0.016c0.335,0.014,0.669,0.021,1.003,0.021
		c5.905-0.001,11.514-2.184,15.886-6.206l11.775-10.832c2.875-2.645,5.001-5.888,6.261-9.473c2.588,0.958,5.345,1.482,8.158,1.482
		c2.597,0,5.238-0.435,7.822-1.35l15.083-5.341c3.129-1.108,5.875-2.819,8.16-4.951c2.285,2.132,5.031,3.843,8.16,4.951
		l15.083,5.342c2.584,0.915,5.224,1.349,7.821,1.349c2.813,0,5.57-0.523,8.158-1.482c1.26,3.584,3.386,6.828,6.261,9.473
		l11.775,10.832c4.373,4.023,9.98,6.206,15.886,6.206c0.333,0,0.668-0.008,1.003-0.021c0.083-0.003,0.165-0.012,0.248-0.016
		c-0.103,3.288,0.469,6.589,1.766,9.719l6.123,14.782c2.813,6.791,8.462,11.564,15.01,13.52c-1.503,4.035-1.868,8.416-1.007,12.745
		l3.121,15.692c1.215,6.108,4.722,11.378,9.873,14.866c-2.998,3.946-4.782,8.861-4.782,14.188v16c0,3.258,0.668,6.363,1.871,9.186
		c-10.248,2.529-17.871,11.796-17.871,22.814v24.126c0,0.205-0.255,0.406-0.491,0.505c-40.273,16.898-65.732,57.55-63.351,101.156
		c2.875,52.636,46.404,95.519,99.099,97.628c1.436,0.058,2.865,0.086,4.292,0.086c26.882,0,52.185-10.157,71.649-28.857
		c20.508-19.703,31.802-46.212,31.802-74.644C462.996,308.422,438.066,270.988,399.485,254.8z M350.996,198.17v-16
		c0-4.687,3.813-8.5,8.5-8.5s8.5,3.813,8.5,8.5v16c0,4.687-3.813,8.5-8.5,8.5S350.996,202.857,350.996,198.17z M362.29,146.874
		c0.443,2.228-0.008,4.493-1.269,6.381s-3.182,3.171-5.41,3.614c-2.224,0.441-4.492-0.008-6.379-1.27
		c-1.888-1.262-3.172-3.183-3.615-5.409l-3.121-15.693c-0.443-2.226,0.008-4.492,1.269-6.38c1.261-1.888,3.182-3.171,5.409-3.614
		c0,0,0,0,0.001,0c0.559-0.11,1.119-0.166,1.676-0.166c1.663,0,3.29,0.49,4.704,1.436c1.888,1.261,3.171,3.183,3.614,5.409
		L362.29,146.874z M100.701,146.874l3.122-15.692c0.443-2.227,1.727-4.148,3.614-5.409c1.414-0.945,3.041-1.436,4.704-1.436
		c0.557,0,1.118,0.056,1.676,0.166c0,0,0,0,0,0c2.227,0.443,4.148,1.727,5.409,3.614c1.261,1.888,1.712,4.154,1.269,6.381
		l-3.121,15.692c-0.443,2.227-1.727,4.147-3.615,5.409c-1.887,1.262-4.153,1.71-6.38,1.27c-2.227-0.443-4.148-1.727-5.409-3.614
		S100.258,149.102,100.701,146.874z M111.996,198.17c0,4.687-3.813,8.5-8.5,8.5s-8.5-3.813-8.5-8.5v-16c0-4.687,3.813-8.5,8.5-8.5
		s8.5,3.813,8.5,8.5V198.17z M127.996,230.17v24.129c0,6.238,3.802,11.863,9.686,14.333c32.995,13.843,54.314,45.849,54.314,81.538
		c0,24.311-9.658,46.979-27.194,63.827c-17.526,16.838-40.588,25.558-64.949,24.6c-45.049-1.803-82.263-38.462-84.721-83.458
		c-2.037-37.291,19.735-72.055,54.178-86.507c5.884-2.47,9.686-8.098,9.686-14.336V230.17c0-4.687,3.813-8.5,8.5-8.5h32
		C124.183,221.67,127.996,225.484,127.996,230.17z M141.476,90.637l-6.123,14.782c-1.793,4.329-6.774,6.392-11.105,4.601
		c-4.33-1.794-6.394-6.776-4.6-11.106l6.123-14.782c0.869-2.098,2.502-3.731,4.6-4.601c1.048-0.435,2.15-0.651,3.252-0.651
		s2.204,0.217,3.253,0.651c2.098,0.869,3.731,2.503,4.6,4.601C142.345,86.229,142.345,88.539,141.476,90.637z M175.858,58.62
		l-11.775,10.832c-1.67,1.538-3.842,2.345-6.109,2.236c-2.269-0.094-4.364-1.066-5.902-2.738c-1.537-1.67-2.331-3.84-2.236-6.108
		c0.094-2.269,1.067-4.364,2.738-5.901l11.775-10.832c1.582-1.455,3.61-2.244,5.746-2.244c0.121,0,0.242,0.002,0.363,0.008
		c2.269,0.094,4.364,1.066,5.901,2.737l0,0.001c1.537,1.67,2.331,3.84,2.236,6.108C178.502,54.987,177.529,57.082,175.858,58.62z
		 M218.329,40.838l-15.082,5.34c-4.42,1.564-9.286-0.757-10.851-5.175s0.757-9.285,5.175-10.85l15.083-5.341
		c0.935-0.331,1.89-0.488,2.829-0.488c3.501,0,6.788,2.18,8.021,5.663v0.001C225.068,34.406,222.747,39.273,218.329,40.838z
		 M259.745,46.179l-15.082-5.341c-4.418-1.565-6.74-6.433-5.176-10.851c1.565-4.418,6.435-6.739,10.85-5.175l15.082,5.34
		c4.418,1.565,6.74,6.433,5.175,10.851C269.031,45.421,264.165,47.742,259.745,46.179z M305.018,71.688
		c-2.256,0.103-4.438-0.699-6.109-2.236L287.133,58.62c-1.671-1.537-2.644-3.633-2.738-5.901c-0.095-2.269,0.699-4.438,2.236-6.108
		l0-0.001c1.537-1.671,3.633-2.644,5.901-2.737c0.121-0.006,0.242-0.008,0.363-0.008c2.136,0,4.165,0.789,5.746,2.244l11.775,10.832
		c1.671,1.537,2.644,3.633,2.738,5.901c0.095,2.269-0.699,4.438-2.237,6.109C309.382,70.621,307.286,71.594,305.018,71.688z
		 M321.516,90.637c-0.869-2.098-0.869-4.408,0-6.506c0.869-2.098,2.502-3.731,4.6-4.601c1.049-0.435,2.151-0.651,3.253-0.651
		s2.204,0.217,3.252,0.651c2.098,0.869,3.731,2.503,4.6,4.601l6.123,14.782c1.794,4.33-0.27,9.313-4.6,11.105
		c-4.333,1.796-9.313-0.27-11.106-4.6L321.516,90.637z M420.801,413.997c-17.526,16.838-40.591,25.558-64.949,24.6
		c-45.049-1.803-82.263-38.462-84.721-83.458c-2.037-37.291,19.735-72.055,54.178-86.507c5.884-2.47,9.686-8.098,9.686-14.336
		V230.17c0-4.687,3.813-8.5,8.5-8.5h32c4.687,0,8.5,3.813,8.5,8.5v24.129c0,6.238,3.802,11.863,9.686,14.333
		c32.995,13.843,54.314,45.849,54.314,81.538C447.996,374.481,438.338,397.149,420.801,413.997z"/>
	<path d="M103.496,261.67c4.142,0,7.5-3.357,7.5-7.5v-8c0-4.143-3.358-7.5-7.5-7.5s-7.5,3.357-7.5,7.5v8
		C95.996,258.313,99.354,261.67,103.496,261.67z"/>
	<path d="M359.496,261.67c4.142,0,7.5-3.357,7.5-7.5v-8c0-4.143-3.358-7.5-7.5-7.5s-7.5,3.357-7.5,7.5v8
		C351.996,258.313,355.354,261.67,359.496,261.67z"/>
</g>
<g>
</g>
<g>
</g>
<g>
</g>
<g>
</g>
<g>
</g>
<g>
</g>
<g>
</g>
<g>
</g>
<g>
</g>
<g>
</g>
<g>
</g>
<g>
</g>
<g>
</g>
<g>
</g>
<g>
</g>
</svg>
