<?xml version="1.0" encoding="iso-8859-1"?>
<!-- Generator: Adobe Illustrator 19.0.0, SVG Export Plug-In . SVG Version: 6.00 Build 0)  -->
<svg version="1.1" id="Capa_1" xmlns="http://www.w3.org/2000/svg" xmlns:xlink="http://www.w3.org/1999/xlink" x="0px" y="0px"
	 viewBox="0 0 463.001 463.001" style="enable-background:new 0 0 463.001 463.001;" xml:space="preserve">
<g>
	<path d="M311.5,0C227.963,0,160,67.963,160,151.5c0,39.076,14.873,74.742,39.252,101.641l-31.612,31.612
		c-5.019-3.094-10.806-4.754-16.851-4.754c-8.604,0-16.692,3.351-22.776,9.435L9.434,408.013C3.35,414.097,0,422.186,0,430.79
		c0,8.604,3.351,16.692,9.435,22.775c6.084,6.084,14.172,9.436,22.776,9.436c8.604,0,16.692-3.351,22.776-9.435l118.579-118.579
		c6.084-6.084,9.435-14.173,9.434-22.777c0-6.044-1.66-11.831-4.753-16.85l31.612-31.612C236.758,288.127,272.425,303,311.5,303
		c83.537,0,151.5-67.963,151.5-151.5S395.038,0,311.5,0z M32.211,448c-4.598,0-8.919-1.79-12.171-5.042
		c-3.25-3.25-5.041-7.571-5.041-12.169c0-4.597,1.791-8.919,5.042-12.169l1.986-1.986l24.339,24.339l-1.986,1.986
		C41.13,446.21,36.808,448,32.211,448z M162.959,324.38L56.974,430.366l-24.339-24.339l105.986-105.986
		c3.25-3.251,7.572-5.041,12.169-5.041c4.598,0,8.919,1.79,12.171,5.042c3.25,3.25,5.041,7.571,5.041,12.169
		C168.001,316.808,166.21,321.13,162.959,324.38z M311.5,288C236.234,288,175,226.767,175,151.5S236.234,15,311.5,15
		S448,76.233,448,151.5S386.767,288,311.5,288z"/>
	<path d="M311.5,72c-39.425,0-71.5,24.897-71.5,55.5c0,5.619,1.069,11.162,3.177,16.476c1.528,3.851,5.888,5.73,9.738,4.205
		c3.85-1.528,5.732-5.888,4.205-9.738c-1.407-3.544-2.12-7.226-2.12-10.942c0-22.332,25.346-40.5,56.5-40.5s56.5,18.168,56.5,40.5
		c0,20.54-21.462,37.834-49.923,40.226c-7.894,0.663-14.077,7.427-14.077,15.398v8.376c0,4.143,3.357,7.5,7.5,7.5s7.5-3.357,7.5-7.5
		v-8.376c0-0.226,0.155-0.437,0.333-0.451C355.629,179.622,383,155.903,383,127.5C383,96.897,350.925,72,311.5,72z"/>
	<path d="M311.5,217c-7.995,0-14.5,6.505-14.5,14.5s6.505,14.5,14.5,14.5s14.5-6.505,14.5-14.5S319.496,217,311.5,217z"/>
</g>
<g>
</g>
<g>
</g>
<g>
</g>
<g>
</g>
<g>
</g>
<g>
</g>
<g>
</g>
<g>
</g>
<g>
</g>
<g>
</g>
<g>
</g>
<g>
</g>
<g>
</g>
<g>
</g>
<g>
</g>
</svg>
