<?xml version="1.0" encoding="iso-8859-1"?>
<!-- Generator: Adobe Illustrator 19.0.0, SVG Export Plug-In . SVG Version: 6.00 Build 0)  -->
<svg version="1.1" id="Layer_1" xmlns="http://www.w3.org/2000/svg" xmlns:xlink="http://www.w3.org/1999/xlink" x="0px" y="0px"
	 viewBox="0 0 511.999 511.999" style="enable-background:new 0 0 511.999 511.999;" xml:space="preserve">
<g>
	<g>
		<path d="M413.756,9.815C407.426,3.486,399.007,0,390.049,0H115.261c-4.751,0-8.603,3.852-8.603,8.603v29.08h-9.62
			c-4.751,0-8.603,3.852-8.603,8.603c0,4.751,3.852,8.603,8.603,8.603h9.619l-0.001,36.847h-9.619c-4.751,0-8.603,3.852-8.603,8.603
			s3.852,8.603,8.603,8.603h9.618l0.001,36.847h-9.618c-4.751,0-8.603,3.852-8.603,8.603s3.852,8.603,8.603,8.603h9.618
			l-0.001,36.847h-9.617c-4.751,0-8.603,3.852-8.603,8.603c0,4.751,3.852,8.603,8.603,8.603h9.617l-0.001,36.847h-9.616
			c-4.751,0-8.603,3.852-8.603,8.603c0,4.751,3.852,8.603,8.603,8.603h9.616l-0.001,36.847h-9.614c-4.751,0-8.603,3.852-8.603,8.603
			s3.852,8.603,8.603,8.603h9.614L106.651,362h-9.613c-4.751,0-8.603,3.852-8.603,8.603s3.852,8.603,8.603,8.603h9.613
			l-0.001,36.847h-9.612c-4.751,0-8.603,3.852-8.603,8.603c0,4.751,3.852,8.603,8.603,8.603h9.612v29.08
			c0,0.005,0.001,0.01,0.001,0.015l-0.001,41.044c0,2.294,0.917,4.494,2.546,6.109c1.612,1.598,3.789,2.492,6.056,2.492
			c0.025,0,0.05,0,0.076,0l269.947-2.377c21.112-0.185,38.289-17.513,38.289-38.626v-41.058v-31.439V33.521
			C423.57,24.565,420.087,16.147,413.756,9.815z M123.856,433.258h19.611c4.751,0,8.603-3.852,8.603-8.603s-3.852-8.603-8.603-8.603
			h-19.611l0.001-36.847h19.61c4.751,0,8.603-3.852,8.603-8.603c0-4.751-3.852-8.603-8.603-8.603h-19.61l0.001-36.847h19.609
			c4.751,0,8.603-3.852,8.603-8.603c0-4.751-3.852-8.603-8.603-8.603h-19.609l0.001-36.847h19.607c4.751,0,8.603-3.852,8.603-8.603
			s-3.852-8.603-8.603-8.603h-19.607l0.001-36.847h19.606c4.751,0,8.603-3.852,8.603-8.603c0-4.751-3.852-8.603-8.603-8.603H123.86
			l0.001-36.847h19.605c4.751,0,8.603-3.852,8.603-8.603c0-4.751-3.852-8.603-8.603-8.603h-19.605l0.001-36.847h19.604
			c4.751,0,8.603-3.852,8.603-8.603s-3.852-8.603-8.603-8.603h-19.604l0.001-36.847h19.604c4.751,0,8.603-3.852,8.603-8.603
			s-3.852-8.603-8.603-8.603h-19.603V17.206h266.185c4.362,0,8.461,1.696,11.54,4.776c3.079,3.079,4.772,7.172,4.769,11.533v364.983
			v31.439c0,11.709-9.526,21.319-21.235,21.422l-261.268,2.299v-11.574h-0.001L123.856,433.258z M406.359,470.996
			c0,11.709-9.526,21.319-21.235,21.422l-261.268,2.3v-23.853l261.42-2.301c7.786-0.069,15.032-2.474,21.084-6.535V470.996z"/>
	</g>
</g>
<g>
	<g>
		<path d="M334.736,410.601l-17.277-86.343c-0.7-3.497-3.485-6.2-7.002-6.794l-42.945-7.256c-4.737-19.494-7.32-43.692-7.312-68.871
			c0-25.195,2.582-49.388,7.312-68.853l42.944-7.256c3.517-0.595,6.302-3.298,7.002-6.795l17.267-86.352
			c0.837-4.187-1.523-8.354-5.544-9.789l-25.449-9.085c-2.015-0.719-4.226-0.662-6.201,0.161l-54.537,22.722
			c-2.486,1.036-4.343,3.175-5.018,5.782l-7.082,27.31c-20.815,80.275-20.812,184.028,0.008,264.322l7.075,27.316
			c0.676,2.607,2.533,4.749,5.019,5.784l54.537,22.722c1.058,0.44,2.182,0.662,3.308,0.662c0.978,0,1.958-0.167,2.894-0.501
			l25.457-9.094C333.214,418.955,335.573,414.788,334.736,410.601z M307.245,72.727l9.153,3.268L301.75,149.25l-10.883,1.839
			L307.245,72.727z M253.563,392.365l-6.002-23.18c-20.14-77.673-20.143-178.036-0.009-255.688l6.009-23.171l35.523-14.799
			l-16.436,78.638l-13.491,2.279c-3.298,0.556-5.974,2.972-6.863,6.194c-5.994,21.725-9.296,49.674-9.296,78.695
			c-0.009,29.003,3.292,56.959,9.296,78.719c0.889,3.223,3.565,5.639,6.863,6.194l13.491,2.279l16.436,78.64L253.563,392.365z
			 M307.245,409.962l-16.377-78.359l10.884,1.838l14.656,73.247L307.245,409.962z"/>
	</g>
</g>
<g>
</g>
<g>
</g>
<g>
</g>
<g>
</g>
<g>
</g>
<g>
</g>
<g>
</g>
<g>
</g>
<g>
</g>
<g>
</g>
<g>
</g>
<g>
</g>
<g>
</g>
<g>
</g>
<g>
</g>
</svg>
