<?xml version="1.0" encoding="iso-8859-1"?>
<!-- Generator: Adobe Illustrator 19.0.0, SVG Export Plug-In . SVG Version: 6.00 Build 0)  -->
<svg version="1.1" id="Layer_1" xmlns="http://www.w3.org/2000/svg" xmlns:xlink="http://www.w3.org/1999/xlink" x="0px" y="0px"
	 viewBox="0 0 512 512" style="enable-background:new 0 0 512 512;" xml:space="preserve">
<g>
	<g>
		<path d="M444.868,0H67.132C57.53,0,49.717,7.812,49.717,17.415v123.703c0,6.329,3.405,11.863,8.472,14.913v347.012
			c0,4.946,4.01,8.956,8.956,8.956h377.722c4.946,0,8.956-4.01,8.956-8.956V156.025c5.057-3.051,8.458-8.583,8.458-14.907V17.415
			C462.283,7.812,454.47,0,444.868,0z M435.911,494.087H76.102V158.533h359.809V494.087z M444.37,140.62H67.63V17.913H444.37V140.62
			z"/>
	</g>
</g>
<g>
	<g>
		<path d="M156.854,51.424c-15.351,0-27.841,12.49-27.841,27.843c0,15.351,12.49,27.842,27.841,27.842
			c15.353,0,27.843-12.49,27.843-27.842C184.696,63.915,172.206,51.424,156.854,51.424z M156.854,89.196
			c-5.474,0-9.929-4.454-9.929-9.929c0-5.475,4.454-9.93,9.929-9.93c5.475,0,9.93,4.454,9.93,9.93
			C166.783,84.741,162.329,89.196,156.854,89.196z"/>
	</g>
</g>
<g>
	<g>
		<path d="M355.158,51.424c-15.353,0-27.843,12.49-27.843,27.843c0,15.351,12.49,27.842,27.843,27.842
			c15.353,0,27.843-12.49,27.843-27.842C383.001,63.915,370.511,51.424,355.158,51.424z M355.158,89.196
			c-5.475,0-9.93-4.454-9.93-9.929c0-5.475,4.454-9.93,9.93-9.93c5.475,0,9.93,4.454,9.93,9.93
			C365.088,84.741,360.634,89.196,355.158,89.196z"/>
	</g>
</g>
<g>
	<g>
		<path d="M313.335,187.163H198.67c-4.946,0-8.956,4.01-8.956,8.956s4.009,8.956,8.956,8.956h114.666
			c4.946,0,8.956-4.01,8.956-8.956S318.282,187.163,313.335,187.163z"/>
	</g>
</g>
<g>
	<g>
		<circle cx="137.774" cy="322.015" r="8.956"/>
	</g>
</g>
<g>
	<g>
		<circle cx="173.6" cy="322.015" r="8.956"/>
	</g>
</g>
<g>
	<g>
		<circle cx="209.426" cy="322.015" r="8.956"/>
	</g>
</g>
<g>
	<g>
		<circle cx="245.252" cy="322.015" r="8.956"/>
	</g>
</g>
<g>
	<g>
		<circle cx="281.078" cy="322.015" r="8.956"/>
	</g>
</g>
<g>
	<g>
		<circle cx="338.399" cy="322.015" r="8.956"/>
	</g>
</g>
<g>
	<g>
		<circle cx="374.225" cy="322.015" r="8.956"/>
	</g>
</g>
<g>
	<g>
		<circle cx="137.774" cy="368.386" r="8.956"/>
	</g>
</g>
<g>
	<g>
		<circle cx="173.6" cy="368.386" r="8.956"/>
	</g>
</g>
<g>
	<g>
		<circle cx="209.426" cy="368.386" r="8.956"/>
	</g>
</g>
<g>
	<g>
		<circle cx="245.252" cy="368.386" r="8.956"/>
	</g>
</g>
<g>
	<g>
		<circle cx="281.078" cy="368.386" r="8.956"/>
	</g>
</g>
<g>
	<g>
		<circle cx="338.399" cy="368.386" r="8.956"/>
	</g>
</g>
<g>
	<g>
		<circle cx="374.225" cy="368.386" r="8.956"/>
	</g>
</g>
<g>
	<g>
		<circle cx="209.426" cy="275.633" r="8.956"/>
	</g>
</g>
<g>
	<g>
		<circle cx="245.252" cy="275.633" r="8.956"/>
	</g>
</g>
<g>
	<g>
		<circle cx="281.078" cy="275.633" r="8.956"/>
	</g>
</g>
<g>
	<g>
		<circle cx="338.399" cy="275.633" r="8.956"/>
	</g>
</g>
<g>
	<g>
		<circle cx="374.225" cy="275.633" r="8.956"/>
	</g>
</g>
<g>
	<g>
		<circle cx="137.774" cy="414.757" r="8.956"/>
	</g>
</g>
<g>
	<g>
		<circle cx="173.6" cy="414.757" r="8.956"/>
	</g>
</g>
<g>
	<g>
		<circle cx="209.426" cy="414.757" r="8.956"/>
	</g>
</g>
<g>
	<g>
		<circle cx="245.252" cy="414.757" r="8.956"/>
	</g>
</g>
<g>
</g>
<g>
</g>
<g>
</g>
<g>
</g>
<g>
</g>
<g>
</g>
<g>
</g>
<g>
</g>
<g>
</g>
<g>
</g>
<g>
</g>
<g>
</g>
<g>
</g>
<g>
</g>
<g>
</g>
</svg>
