<?xml version="1.0" encoding="iso-8859-1"?>
<!-- Generator: Adobe Illustrator 19.0.0, SVG Export Plug-In . SVG Version: 6.00 Build 0)  -->
<svg version="1.1" id="Layer_1" xmlns="http://www.w3.org/2000/svg" xmlns:xlink="http://www.w3.org/1999/xlink" x="0px" y="0px"
	 viewBox="0 0 511.999 511.999" style="enable-background:new 0 0 511.999 511.999;" xml:space="preserve">
<g>
	<g>
		<path d="M237.672,9.205H36.6C16.419,9.205,0,25.625,0,45.805v69.44c0,14.788,8.81,28.038,22.435,33.753
			c4.486,1.889,9.252,2.848,14.165,2.848h47.425l-8.991,41.948c-0.723,3.37,0.631,6.847,3.44,8.844
			c1.492,1.06,3.242,1.595,4.998,1.595c1.551,0,3.104-0.418,4.485-1.258l84.016-51.128h65.699c20.182,0,36.6-16.419,36.6-36.6
			V45.805C274.272,25.624,257.852,9.205,237.672,9.205z M257.011,115.245c0,10.665-8.677,19.341-19.341,19.341h-68.117
			c-1.582,0-3.134,0.435-4.486,1.258l-68.956,41.964l7.027-32.783c0.547-2.549-0.089-5.207-1.727-7.234
			c-1.638-2.027-4.104-3.204-6.711-3.204H36.6c-2.6,0-5.112-0.503-7.478-1.499c-7.206-3.021-11.863-10.025-11.863-17.84V45.805
			c0-10.665,8.677-19.341,19.341-19.341h201.071c10.665,0,19.341,8.677,19.341,19.341V115.245z"/>
	</g>
</g>
<g>
	<g>
		<path d="M475.4,159.205H254.954c-20.182,0-36.6,16.419-36.6,36.6v69.427c0,20.182,16.419,36.6,36.6,36.6h26.399l84.003,51.14
			c1.382,0.841,2.935,1.259,4.486,1.259c1.755,0,3.505-0.534,4.997-1.594c2.81-1.996,4.164-5.473,3.441-8.844l-8.992-41.961h106.111
			c20.182,0,36.6-16.419,36.6-36.6v-69.427C512,175.624,495.581,159.205,475.4,159.205z M475.4,284.574H358.614
			c-2.606,0-5.073,1.178-6.712,3.204s-2.274,4.685-1.727,7.234l7.027,32.792l-68.944-41.972c-1.352-0.823-2.904-1.259-4.487-1.259
			h-28.819c-10.665,0-19.341-8.677-19.341-19.341v-69.427c0-10.665,8.677-19.341,19.341-19.341h220.446
			c10.665,0,19.341,8.677,19.341,19.341v69.427h0.002C494.741,275.898,486.064,284.574,475.4,284.574z"/>
	</g>
</g>
<g>
	<g>
		<path d="M220.408,54.119H53.865c-4.766,0-8.63,3.864-8.63,8.63s3.864,8.63,8.63,8.63h166.543c4.766,0,8.63-3.864,8.63-8.63
			S225.174,54.119,220.408,54.119z"/>
	</g>
</g>
<g>
	<g>
		<path d="M220.408,89.672h-54.595c-4.766,0-8.63,3.864-8.63,8.63c0,4.766,3.864,8.63,8.63,8.63h54.595
			c4.766,0,8.63-3.864,8.63-8.63C229.038,93.536,225.174,89.672,220.408,89.672z"/>
	</g>
</g>
<g>
	<g>
		<path d="M124.644,89.672H53.865c-4.766,0-8.63,3.864-8.63,8.63c0,4.766,3.864,8.63,8.63,8.63h70.779c4.766,0,8.63-3.864,8.63-8.63
			C133.273,93.536,129.409,89.672,124.644,89.672z"/>
	</g>
</g>
<g>
	<g>
		<path d="M237.672,307.769H36.6C16.419,307.767,0,324.186,0,344.368v69.44c0,14.787,8.81,28.037,22.436,33.753
			c4.486,1.889,9.252,2.847,14.164,2.847h47.425l-8.991,41.948c-0.723,3.37,0.631,6.847,3.44,8.844
			c1.492,1.06,3.242,1.595,4.998,1.595c1.551,0,3.104-0.418,4.485-1.258l84.016-51.128h65.699c20.182,0,36.6-16.419,36.6-36.6
			v-69.44C274.272,324.187,257.852,307.769,237.672,307.769z M257.011,413.807c0,10.665-8.677,19.341-19.341,19.341h-68.117
			c-1.582,0-3.134,0.435-4.486,1.258l-68.956,41.964l7.027-32.783c0.547-2.549-0.089-5.207-1.727-7.234
			c-1.638-2.027-4.104-3.204-6.711-3.204H36.6c-2.599,0-5.112-0.503-7.478-1.499c-7.206-3.023-11.863-10.026-11.863-17.841v-69.44
			c0-10.665,8.677-19.341,19.341-19.341h201.071c10.665,0,19.341,8.677,19.341,19.341V413.807z"/>
	</g>
</g>
<g>
	<g>
		<path d="M168.841,388.234H53.865c-4.766,0-8.63,3.864-8.63,8.63c0,4.766,3.864,8.63,8.63,8.63h114.976
			c4.766,0,8.63-3.864,8.63-8.63C177.471,392.097,173.607,388.234,168.841,388.234z"/>
	</g>
</g>
<g>
	<g>
		<path d="M220.408,388.234h-22.226c-4.766,0-8.63,3.864-8.63,8.63c0,4.766,3.864,8.63,8.63,8.63h22.225
			c4.766,0,8.63-3.864,8.63-8.63C229.036,392.097,225.174,388.234,220.408,388.234z"/>
	</g>
</g>
<g>
	<g>
		<path d="M95.777,352.68H53.865c-4.766,0-8.63,3.864-8.63,8.63c0,4.766,3.864,8.63,8.63,8.63h41.912c4.766,0,8.63-3.864,8.63-8.63
			C104.407,356.543,100.543,352.68,95.777,352.68z"/>
	</g>
</g>
<g>
	<g>
		<path d="M220.408,352.68h-83.462c-4.766,0-8.63,3.864-8.63,8.63c0,4.766,3.863,8.63,8.63,8.63h83.462
			c4.766,0,8.63-3.864,8.63-8.63C229.038,356.543,225.174,352.68,220.408,352.68z"/>
	</g>
</g>
<g>
	<g>
		<path d="M465.605,204.11H329.339c-4.766,0-8.63,3.864-8.63,8.63c0,4.766,3.864,8.63,8.63,8.63h136.266
			c4.766,0,8.63-3.864,8.63-8.63C474.235,207.974,470.371,204.11,465.605,204.11z"/>
	</g>
</g>
<g>
	<g>
		<path d="M297.527,204.11h-32.783c-4.766,0-8.63,3.864-8.63,8.63c0,4.766,3.864,8.63,8.63,8.63h32.783
			c4.766,0,8.63-3.864,8.63-8.63C306.156,207.974,302.293,204.11,297.527,204.11z"/>
	</g>
</g>
<g>
	<g>
		<path d="M465.605,239.664h-44.574c-4.766,0-8.63,3.864-8.63,8.63c0,4.766,3.864,8.63,8.63,8.63h44.574
			c4.766,0,8.63-3.864,8.63-8.63C474.235,243.528,470.371,239.664,465.605,239.664z"/>
	</g>
</g>
<g>
	<g>
		<path d="M391.713,239.664h-126.97c-4.766,0-8.63,3.864-8.63,8.63c0,4.766,3.864,8.63,8.63,8.63h126.97
			c4.766,0,8.63-3.864,8.63-8.63C400.342,243.528,396.48,239.664,391.713,239.664z"/>
	</g>
</g>
<g>
</g>
<g>
</g>
<g>
</g>
<g>
</g>
<g>
</g>
<g>
</g>
<g>
</g>
<g>
</g>
<g>
</g>
<g>
</g>
<g>
</g>
<g>
</g>
<g>
</g>
<g>
</g>
<g>
</g>
</svg>
