<?xml version="1.0" encoding="iso-8859-1"?>
<!-- Generator: Adobe Illustrator 19.0.0, SVG Export Plug-In . SVG Version: 6.00 Build 0)  -->
<svg version="1.1" id="Layer_1" xmlns="http://www.w3.org/2000/svg" xmlns:xlink="http://www.w3.org/1999/xlink" x="0px" y="0px"
	 viewBox="0 0 512 512" style="enable-background:new 0 0 512 512;" xml:space="preserve">
<g>
	<g>
		<path d="M412.303,53.554H99.685c-4.783,0-8.66,3.877-8.66,8.66v201.424c0,4.783,3.877,8.66,8.66,8.66h312.619
			c4.784,0,8.66-3.877,8.66-8.66V62.214C420.963,57.432,417.087,53.554,412.303,53.554z M403.645,254.978h-0.001H108.345V70.874
			h295.299V254.978z"/>
	</g>
</g>
<g>
	<g>
		<path d="M511.346,437.124l-0.013-0.03c-0.009-0.023-0.018-0.046-0.028-0.068l-59.421-144.211V59.48
			c0-20.318-16.526-36.849-36.836-36.849H96.939c-20.312,0-36.836,16.53-36.836,36.849v233.365L0.693,437.027
			c-0.009,0.021-0.017,0.043-0.025,0.063l-0.014,0.034h0.001c-0.42,1.018-0.655,2.132-0.655,3.3v5.195
			c0,24.124,19.627,43.75,43.75,43.75h424.5c24.124,0,43.75-19.626,43.75-43.75v-5.195C512,439.255,511.766,438.142,511.346,437.124
			z M77.423,59.48c0-10.768,8.755-19.529,19.516-19.529h318.11c10.761,0,19.516,8.76,19.516,19.529v226.419H77.423V59.48z
			 M74.561,303.219h362.878l52.965,128.545H323.098l-15.694-26.579c-1.558-2.638-4.393-4.257-7.457-4.257h-87.895
			c-3.063,0-5.899,1.619-7.457,4.257l-15.693,26.579H21.594L74.561,303.219z M302.985,431.764h-93.968l7.98-13.515h78.009
			L302.985,431.764z M468.25,472.048H43.75c-13.4,0-24.502-10.022-26.204-22.965h476.908
			C492.752,462.025,481.65,472.048,468.25,472.048z"/>
	</g>
</g>
<g>
	<g>
		<path d="M255.988,85.354c-39.899,0-72.359,32.46-72.359,72.359v36.846c0,4.783,3.877,8.66,8.66,8.66
			c4.761,0,8.62-3.842,8.656-8.593v11.065c0,4.783,3.877,8.66,8.66,8.66s8.66-3.877,8.66-8.66v-35.87c0-4.783-3.877-8.66-8.66-8.66
			c-4.761,0-8.62,3.842-8.656,8.593v-12.042c0-30.349,24.69-55.039,55.039-55.039c30.348,0,55.039,24.69,55.039,55.039v12.042
			c-0.037-4.751-3.896-8.593-8.656-8.593c-4.784,0-8.66,3.877-8.66,8.66v32.518c0,10.032-8.161,18.192-18.193,18.192h-17.675
			c-4.783,0-8.66,3.877-8.66,8.66s3.877,8.66,8.66,8.66h17.675c19.582,0,35.513-15.931,35.513-35.512v-7.713
			c0.037,4.751,3.896,8.593,8.656,8.593c4.784,0,8.66-3.877,8.66-8.66v-36.846C328.347,117.813,295.887,85.354,255.988,85.354z"/>
	</g>
</g>
<g>
	<g>
		<path d="M454.128,379.423l-23.587-57.242c-1.337-3.243-4.499-5.361-8.008-5.361H89.465c-3.509,0-6.67,2.117-8.008,5.361
			l-23.586,57.242c-1.1,2.672-0.797,5.717,0.811,8.117c1.608,2.402,4.307,3.843,7.196,3.843H446.12c2.89,0,5.59-1.441,7.198-3.843
			C454.925,385.14,455.229,382.095,454.128,379.423z M78.814,374.063l16.45-39.922h321.472l16.45,39.922H78.814z"/>
	</g>
</g>
<g>
</g>
<g>
</g>
<g>
</g>
<g>
</g>
<g>
</g>
<g>
</g>
<g>
</g>
<g>
</g>
<g>
</g>
<g>
</g>
<g>
</g>
<g>
</g>
<g>
</g>
<g>
</g>
<g>
</g>
</svg>
