<?xml version="1.0" encoding="iso-8859-1"?>
<!-- Generator: Adobe Illustrator 19.0.0, SVG Export Plug-In . SVG Version: 6.00 Build 0)  -->
<svg version="1.1" id="Layer_1" xmlns="http://www.w3.org/2000/svg" xmlns:xlink="http://www.w3.org/1999/xlink" x="0px" y="0px"
	 viewBox="0 0 512 512" style="enable-background:new 0 0 512 512;" xml:space="preserve">
<g>
	<g>
		<path d="M332.04,0H179.958c-62.661,0-113.64,50.979-113.64,113.641v318.782c0,23.112,18.804,41.917,41.917,41.917h8.035v9.809
			C116.269,499.505,128.763,512,144.121,512h223.757c15.358,0,27.852-12.494,27.852-27.852v-9.809h8.035
			c23.112,0,41.917-18.804,41.917-41.917V113.641C445.681,50.979,394.702,0,332.04,0z M376.847,484.148
			c0,4.946-4.023,8.969-8.969,8.969H144.121c-4.946,0-8.969-4.023-8.969-8.969v-9.809h241.695V484.148z M426.799,432.423
			c0,12.7-10.333,23.034-23.034,23.034h-295.53c-12.702,0-23.034-10.332-23.034-23.034V113.641
			c0.001-52.25,42.508-94.758,94.758-94.758H332.04c52.25,0,94.758,42.508,94.758,94.758V432.423z"/>
	</g>
</g>
<g>
	<g>
		<path d="M391.881,75.876c-10.141-10.125-23.611-15.701-37.929-15.701H158.028c-29.569,0-53.626,24.063-53.626,53.639
			c0,14.309,5.575,27.774,15.706,37.921c8.729,8.729,19.941,14.067,32.041,15.378v233.223c0,5.214,4.226,9.441,9.441,9.441h188.812
			c5.215,0,9.441-4.227,9.441-9.441V167.11c26.813-2.943,47.747-25.718,47.747-53.296C407.591,99.495,402.015,86.026,391.881,75.876
			z M290.421,216.232L171.032,372.435V122.124h47.463L290.421,216.232z M242.26,122.124h27.476l-13.736,17.977L242.26,122.124z
			 M180.691,390.894l75.306-98.529l75.302,98.529H180.691z M340.962,372.444L340.962,372.444l-73.083-95.625l41.925-54.855
			c2.587-3.384,2.587-8.08,0-11.464l-41.923-54.852l25.617-33.524h47.463V372.444z M359.844,148.047v-25.923h4.561
			c5.215,0,9.441-4.227,9.441-9.441c0-5.214-4.226-9.441-9.441-9.441H147.583c-5.215,0-9.441,4.227-9.441,9.441
			c0,5.214,4.226,9.441,9.441,9.441h4.567v25.932c-7.044-1.193-13.535-4.518-18.685-9.668c-6.565-6.576-10.18-15.304-10.18-24.574
			c0-19.164,15.586-34.756,34.744-34.756h195.924c9.28,0,18.011,3.615,24.575,10.171c6.566,6.575,10.181,15.306,10.181,24.585
			C388.709,130.964,376.211,145.24,359.844,148.047z"/>
	</g>
</g>
<g>
</g>
<g>
</g>
<g>
</g>
<g>
</g>
<g>
</g>
<g>
</g>
<g>
</g>
<g>
</g>
<g>
</g>
<g>
</g>
<g>
</g>
<g>
</g>
<g>
</g>
<g>
</g>
<g>
</g>
</svg>
