<?xml version="1.0" encoding="iso-8859-1"?>
<!-- Generator: Adobe Illustrator 19.0.0, SVG Export Plug-In . SVG Version: 6.00 Build 0)  -->
<svg version="1.1" id="Layer_1" xmlns="http://www.w3.org/2000/svg" xmlns:xlink="http://www.w3.org/1999/xlink" x="0px" y="0px"
	 viewBox="0 0 512 512" style="enable-background:new 0 0 512 512;" xml:space="preserve">
<g>
	<g>
		<path d="M360.493,24.609C318.92,0.364,270.392-6.239,223.852,6.014s-85.523,41.898-109.768,83.472
			C89.839,131.06,83.236,179.587,95.49,226.127c7.065,26.834,19.921,51.147,37.501,71.579c-6.714,1.806-12.75,6.148-16.521,12.615
			l-1.86,3.19c-7.596,13.024-3.178,29.801,9.847,37.398l7.777,4.536l-64.086,98.79c-5.659,8.723-7.431,19.505-4.865,29.581
			s9.282,18.696,18.426,23.65C87.262,510.474,93.332,512,99.465,512c3.677,0,7.378-0.548,10.999-1.657
			c9.659-2.957,17.55-9.518,22.219-18.476l54.421-104.427l7.78,4.537c4.321,2.52,9.054,3.717,13.729,3.717
			c9.416,0,18.593-4.861,23.669-13.565l1.859-3.188c3.68-6.31,4.682-13.674,2.822-20.738c-0.075-0.286-0.181-0.557-0.265-0.838
			c10.867,2.016,21.821,3.026,32.73,3.025c62.039-0.004,122.503-32.026,155.946-89.373
			C475.42,185.197,446.315,74.658,360.493,24.609z M116.757,483.569c-2.427,4.657-6.529,8.067-11.549,9.604
			c-5.022,1.536-10.328,1.007-14.947-1.496c-4.823-2.612-8.224-6.978-9.578-12.293s-0.455-10.776,2.529-15.378l64.551-99.507
			l23.81,13.885L116.757,483.569z M218.627,369.897l-1.859,3.188c-2.608,4.471-8.369,5.988-12.841,3.381l-70.426-41.07
			c-4.472-2.608-5.989-8.369-3.382-12.841l1.86-3.189c2.607-4.472,8.366-5.989,12.84-3.381l70.426,41.07
			C219.72,359.665,221.235,365.425,218.627,369.897z M409.859,261.973c-45.062,77.268-144.585,103.471-221.853,58.411
			c-37.43-21.828-64.119-56.926-75.153-98.829c-11.032-41.902-5.088-85.593,16.741-123.023
			c21.828-37.43,56.926-64.121,98.829-75.153c13.762-3.624,27.71-5.414,41.574-5.414c28.346,0,56.313,7.497,81.45,22.157
			C428.717,85.181,454.921,184.705,409.859,261.973z"/>
	</g>
</g>
<g>
	<g>
		<path d="M341.375,57.394c-32.817-19.138-71.12-24.35-107.86-14.677c-36.737,9.672-67.51,33.072-86.646,65.889
			c-19.138,32.817-24.35,71.123-14.677,107.86c9.672,36.737,33.072,67.51,65.89,86.646c22.041,12.853,46.556,19.425,71.411,19.425
			c12.152,0,24.385-1.572,36.449-4.748c36.737-9.672,67.51-33.072,86.646-65.889C432.092,184.155,409.119,96.901,341.375,57.394z
			 M377.074,242.854c-34.518,59.191-110.757,79.264-169.948,44.745c-59.191-34.518-79.264-110.757-44.746-169.948
			c23.068-39.555,64.762-61.64,107.555-61.64c21.242,0,42.759,5.444,62.393,16.896C391.521,107.424,411.594,183.663,377.074,242.854
			z"/>
	</g>
</g>
<g>
	<g>
		<path d="M269.727,84.584c-18.709,0-33.93,15.221-33.93,33.93c0,18.709,15.222,33.93,33.93,33.93
			c18.709,0,33.93-15.221,33.93-33.93C303.657,99.805,288.436,84.584,269.727,84.584z M269.727,134.488
			c-8.808,0-15.974-7.166-15.974-15.974s7.167-15.974,15.974-15.974c8.808,0,15.974,7.166,15.974,15.974
			S278.535,134.488,269.727,134.488z"/>
	</g>
</g>
<g>
	<g>
		<path d="M309.867,246.721h-9.493v-72.794c0-4.958-4.02-8.978-8.978-8.978h-61.809c-4.958,0-8.978,4.02-8.978,8.978
			s4.02,8.978,8.978,8.978h9.494v63.815h-9.494c-4.958,0-8.978,4.02-8.978,8.978c0,4.958,4.02,8.978,8.978,8.978h80.28
			c4.958,0,8.978-4.02,8.978-8.978C318.846,250.741,314.826,246.721,309.867,246.721z M282.418,246.721h-25.382v-63.815h25.382
			V246.721z"/>
	</g>
</g>
<g>
</g>
<g>
</g>
<g>
</g>
<g>
</g>
<g>
</g>
<g>
</g>
<g>
</g>
<g>
</g>
<g>
</g>
<g>
</g>
<g>
</g>
<g>
</g>
<g>
</g>
<g>
</g>
<g>
</g>
</svg>
