<?xml version="1.0" encoding="iso-8859-1"?>
<!-- Generator: Adobe Illustrator 19.0.0, SVG Export Plug-In . SVG Version: 6.00 Build 0)  -->
<svg version="1.1" id="Layer_1" xmlns="http://www.w3.org/2000/svg" xmlns:xlink="http://www.w3.org/1999/xlink" x="0px" y="0px"
	 viewBox="0 0 512 512" style="enable-background:new 0 0 512 512;" xml:space="preserve">
<g>
	<g>
		<path d="M274.224,126.031h-36.448c-55.73,0-101.07,45.334-101.07,101.058v66.602c0,11.673,9.491,21.17,21.158,21.17h2.518
			c1.153,0,2.275-0.117,3.377-0.296c3.356,26.998,21.852,50.047,48.141,58.903l30.561,10.277c4.367,1.474,8.956,2.21,13.543,2.21
			c4.584,0,9.168-0.736,13.528-2.207l30.573-10.281c26.286-8.851,44.782-31.901,48.138-58.903c1.106,0.18,2.233,0.297,3.389,0.297
			h2.506c11.667,0,21.158-9.497,21.158-21.17v-66.602C375.294,171.367,329.954,126.031,274.224,126.031z M163.205,293.691
			c0,1.563-1.266,2.836-2.823,2.836h-2.518c-1.557,0-2.823-1.272-2.823-2.836v-35.947v-1.259c0-1.557,1.266-2.823,2.823-2.823h2.518
			c1.557,0,2.823,1.266,2.823,2.823V293.691z M330.461,293.691v6.122l-52.713,24.182c-4.602,2.111-6.621,7.552-4.509,12.154
			c1.542,3.364,4.865,5.347,8.338,5.347c1.279,0,2.578-0.269,3.817-0.837l42.81-19.638c-4.872,16.207-17.307,29.467-33.946,35.068
			l-30.579,10.283c-4.953,1.671-10.406,1.671-15.365-0.002l-30.565-10.278c-21.658-7.296-36.209-27.549-36.209-50.397v-12.003
			v-16.11h35.739c19.433,0,38.182-5.798,54.218-16.77c11.558-7.906,21.121-18.099,28.198-29.956l30.766,43.074V293.691z
			 M330.461,242.387l-24.772-34.682c-1.957-2.739-5.259-4.185-8.6-3.768c-3.34,0.419-6.184,2.636-7.403,5.775
			c-11.698,30.091-40.12,49.535-72.408,49.535h-35.739v-29.322c0-33.483,27.241-60.723,60.723-60.723h27.477
			c33.483,0,60.723,27.24,60.723,60.723V242.387z M356.96,257.745v35.947c0,1.563-1.266,2.836-2.823,2.836h-2.506
			c-1.563,0-2.836-1.272-2.836-2.836v-37.206c0-1.557,1.272-2.823,2.836-2.823h2.506c1.557,0,2.823,1.266,2.823,2.823V257.745z
			 M356.96,235.539L356.96,235.539c-0.927-0.125-1.864-0.211-2.823-0.211h-2.506c-0.964,0-1.906,0.087-2.836,0.213v-5.615
			c0-43.593-35.466-79.057-79.057-79.057h-27.477c-43.593,0-79.057,35.464-79.057,79.057v5.614
			c-0.927-0.125-1.864-0.211-2.823-0.211h-2.518c-0.959,0-1.897,0.087-2.823,0.211v-8.448c0-45.614,37.116-82.724,82.736-82.724
			h36.448c45.62,0,82.736,37.11,82.736,82.724V235.539z"/>
	</g>
</g>
<g>
	<g>
		<path d="M368.786,0H143.214c-20.704,0-37.548,16.844-37.548,37.548v440.321c0,18.819,15.31,34.131,34.13,34.131h232.409
			c18.819,0,34.13-15.31,34.13-34.131V37.548C406.334,16.844,389.49,0,368.786,0z M388,477.869c0,8.71-7.086,15.797-15.795,15.797
			H139.797c-8.71,0-15.797-7.087-15.797-15.797v-44.132h264V477.869z M388,415.403H124V90.901h264V415.403z M388,72.567H124V37.548
			c0-10.595,8.619-19.214,19.214-19.214h225.571c10.595,0,19.214,8.62,19.214,19.214V72.567z"/>
	</g>
</g>
<g>
	<g>
		<path d="M296.335,38.346h-80.667c-5.063,0-9.167,4.104-9.167,9.167s4.104,9.167,9.167,9.167h80.667
			c5.063,0,9.167-4.104,9.167-9.167S301.398,38.346,296.335,38.346z"/>
	</g>
</g>
<g>
	<g>
		<path d="M268.963,465.553l2.161-2.161c3.58-3.58,3.58-9.385,0-12.964c-3.58-3.58-9.385-3.58-12.964,0L256,452.59l-2.161-2.161
			c-3.58-3.58-9.385-3.58-12.964,0c-3.58,3.58-3.58,9.385,0,12.964l2.161,2.161l-2.161,2.161c-3.58,3.579-3.58,9.383,0,12.964
			c1.789,1.789,4.136,2.685,6.482,2.685c2.346,0,4.692-0.895,6.482-2.685l2.161-2.161l2.161,2.161
			c1.789,1.789,4.136,2.685,6.482,2.685s4.692-0.895,6.482-2.685c3.58-3.58,3.58-9.385,0-12.964L268.963,465.553z"/>
	</g>
</g>
<g>
</g>
<g>
</g>
<g>
</g>
<g>
</g>
<g>
</g>
<g>
</g>
<g>
</g>
<g>
</g>
<g>
</g>
<g>
</g>
<g>
</g>
<g>
</g>
<g>
</g>
<g>
</g>
<g>
</g>
</svg>
