<?xml version="1.0" encoding="iso-8859-1"?>
<!-- Generator: Adobe Illustrator 19.0.0, SVG Export Plug-In . SVG Version: 6.00 Build 0)  -->
<svg version="1.1" id="Layer_1" xmlns="http://www.w3.org/2000/svg" xmlns:xlink="http://www.w3.org/1999/xlink" x="0px" y="0px"
	 viewBox="0 0 512.002 512.002" style="enable-background:new 0 0 512.002 512.002;" xml:space="preserve">
<g>
	<g>
		<path d="M395.078,21.963c-1.911-1.908-4.592-2.831-7.272-2.495L286.012,32.203c-3.316,0.414-6.105,2.682-7.189,5.841
			c-1.085,3.16-0.274,6.661,2.088,9.025l17.157,17.157L197.345,164.95c-3.417,3.415-3.417,8.955,0,12.371l42.374,42.374
			c1.708,1.708,3.947,2.563,6.186,2.563c2.238,0,4.478-0.854,6.186-2.563l100.724-100.723l17.156,17.157
			c2.363,2.362,5.864,3.172,9.025,2.089c3.16-1.085,5.426-3.874,5.843-7.189l12.735-101.796
			C397.908,26.555,396.987,23.871,395.078,21.963z M369.698,111.112l-10.696-10.696c-1.641-1.641-3.866-2.563-6.187-2.563
			c-2.321,0-4.544,0.921-6.187,2.563L245.904,201.14l-30.003-30.003L316.626,70.412c3.417-3.417,3.417-8.956,0-12.371
			l-10.697-10.696l72.886-9.118L369.698,111.112z"/>
	</g>
</g>
<g>
	<g>
		<path d="M512.002,142.508c0-2.32-0.922-4.546-2.563-6.186l-42.377-42.375c-3.418-3.417-8.956-3.417-12.372,0L353.968,194.671
			l-17.157-17.157c-2.363-2.363-5.867-3.174-9.025-2.089c-3.161,1.085-5.427,3.874-5.843,7.189L309.21,284.409
			c-0.335,2.679,0.586,5.363,2.495,7.272c1.652,1.651,3.881,2.563,6.187,2.563c0.36,0,0.723-0.022,1.086-0.068l101.796-12.735
			c3.316-0.414,6.105-2.682,7.189-5.841c1.085-3.16,0.274-6.661-2.088-9.025l-17.158-17.157l100.725-100.724
			C511.081,147.054,512.002,144.828,512.002,142.508z M390.156,243.231c-1.64,1.64-2.561,3.866-2.561,6.186
			c0,2.32,0.922,4.546,2.561,6.186l10.697,10.696l-72.885,9.118l9.117-72.886l10.696,10.696c1.641,1.641,3.866,2.563,6.187,2.563
			s4.544-0.921,6.187-2.563l100.723-100.724l30.004,30.003L390.156,243.231z"/>
	</g>
</g>
<g>
	<g>
		<path d="M486.569,408.325l-120.046-80.021c-3.015-2.011-6.961-1.953-9.921,0.147l-61.018,43.371
			c-29.159-17.302-61.716-43.363-92.269-73.916c-30.542-30.543-56.605-63.102-73.915-92.269l43.378-61.004
			c2.102-2.957,2.163-6.904,0.149-9.923L103.292,30.254c-0.084-0.141-0.172-0.281-0.264-0.419L92.906,14.661
			c-2.408-3.61-7.1-4.908-11.022-3.051L41.859,30.562c-1.968,0.931-3.517,2.563-4.346,4.576L0.659,124.645
			c-1.043,2.532-0.84,5.406,0.549,7.767l23.427,39.817c0.664,1.142,1.339,2.273,2.018,3.405
			C94.488,289.396,211.829,406.735,325.569,474.56c1.143,0.686,2.289,1.373,3.398,2.018l39.855,23.449
			c1.362,0.801,2.895,1.208,4.436,1.208c1.129,0,2.26-0.218,3.331-0.659l89.499-36.864c2.012-0.828,3.642-2.377,4.574-4.343
			l18.963-40.016C491.485,415.428,490.183,410.733,486.569,408.325z M82.544,30.655l5.658,8.481c0.083,0.14,0.17,0.279,0.261,0.415
			l66.567,99.851l-17.15,24.118L58.42,42.078L82.544,30.655z M373.946,482.741l-36.142-21.264c-1.077-0.628-2.156-1.274-3.253-1.933
			c-111.453-66.46-226.411-181.419-292.87-292.87c-0.005-0.007-0.008-0.014-0.013-0.022c-0.646-1.077-1.283-2.144-1.93-3.258
			l-21.244-36.108l28.879-70.138l79.62,121.687l-15.112,21.255c-1.97,2.77-2.157,6.432-0.479,9.387
			c17.986,31.694,46.237,67.493,79.545,100.802c33.319,33.319,69.119,61.569,100.803,79.546c2.956,1.677,6.617,1.49,9.387-0.479
			l21.255-15.109l121.687,79.616L373.946,482.741z M459.148,442.806L337.706,363.35l24.123-17.148l108.745,72.49L459.148,442.806z"
			/>
	</g>
</g>
<g>
</g>
<g>
</g>
<g>
</g>
<g>
</g>
<g>
</g>
<g>
</g>
<g>
</g>
<g>
</g>
<g>
</g>
<g>
</g>
<g>
</g>
<g>
</g>
<g>
</g>
<g>
</g>
<g>
</g>
</svg>
