<?xml version="1.0" encoding="iso-8859-1"?>
<!-- Generator: Adobe Illustrator 19.0.0, SVG Export Plug-In . SVG Version: 6.00 Build 0)  -->
<svg version="1.1" id="Layer_1" xmlns="http://www.w3.org/2000/svg" xmlns:xlink="http://www.w3.org/1999/xlink" x="0px" y="0px"
	 viewBox="0 0 512.001 512.001" style="enable-background:new 0 0 512.001 512.001;" xml:space="preserve">
<g>
	<g>
		<path d="M477.901,147.104l-24.943-1.644c-2.338-8.325-5.65-16.31-9.897-23.858l16.481-18.814
			c3.169-3.618,2.989-9.074-0.412-12.475l-26.638-26.64c-3.404-3.403-8.862-3.58-12.478-0.409L401.211,79.75
			c-7.552-4.252-15.538-7.565-23.867-9.903l-1.645-24.935c-0.317-4.8-4.302-8.531-9.112-8.531h-37.66
			c-4.811,0-8.797,3.732-9.112,8.532l-1.645,24.932c-8.33,2.338-16.313,5.652-23.861,9.903l-18.809-16.486
			c-3.619-3.172-9.078-2.992-12.478,0.412l-26.635,26.635c-3.405,3.401-3.585,8.861-0.414,12.481l16.487,18.81
			c-4.251,7.545-7.565,15.53-9.904,23.86l-24.934,1.644c-4.8,0.317-8.532,4.302-8.532,9.113v37.66c0,4.811,3.731,8.796,8.532,9.113
			l24.934,1.644c2.339,8.329,5.654,16.315,9.904,23.867l-16.486,18.8c-3.171,3.618-2.993,9.075,0.408,12.477l26.649,26.649
			c3.403,3.394,8.853,3.57,12.467,0.403l18.811-16.481c7.549,4.248,15.533,7.559,23.86,9.896l1.645,24.943
			c0.317,4.8,4.302,8.532,9.112,8.532h37.66c4.81,0,8.796-3.731,9.112-8.532l1.645-24.943c8.324-2.337,16.312-5.65,23.866-9.898
			l13.986,12.253c0.094,0.089,0.189,0.175,0.286,0.261l4.537,3.971c3.616,3.167,9.071,2.988,12.472-0.414l26.638-26.64
			c3.401-3.401,3.58-8.858,0.41-12.477l-16.48-18.804c4.247-7.555,7.559-15.541,9.897-23.866l24.943-1.641
			c4.8-0.317,8.532-4.302,8.532-9.113v-37.66C486.433,151.406,482.702,147.42,477.901,147.104z M468.169,185.327l-23.074,1.521
			c-4.079,0.269-7.48,3.213-8.332,7.21c-2.314,10.86-6.566,21.111-12.634,30.468c-2.223,3.428-1.901,7.916,0.793,10.989
			l15.246,17.396l-14.544,14.545l-17.401-15.246c-3.072-2.69-7.559-3.016-10.988-0.791c-9.358,6.07-19.608,10.321-30.467,12.634
			c-3.996,0.851-6.941,4.254-7.21,8.331l-1.521,23.074h-20.561l-1.521-23.074c-0.269-4.078-3.213-7.48-7.21-8.331
			c-10.864-2.315-21.11-6.564-30.456-12.633c-3.425-2.225-7.916-1.904-10.99,0.79l-17.412,15.253l-14.542-14.551l15.256-17.398
			c2.696-3.075,3.019-7.568,0.79-10.997c-6.072-9.347-10.326-19.597-12.642-30.463c-0.851-3.996-4.253-6.941-8.331-7.21
			l-23.063-1.521v-20.56l23.063-1.521c4.078-0.269,7.48-3.213,8.331-7.21c2.316-10.871,6.569-21.115,12.639-30.45
			c2.231-3.429,1.908-7.922-0.787-10.998l-15.253-17.404l14.545-14.548l17.405,15.255c3.075,2.693,7.565,3.019,10.998,0.788
			c9.336-6.071,19.58-10.323,30.45-12.638c3.996-0.851,6.941-4.253,7.21-8.33l1.522-23.065h20.56l1.521,23.065
			c0.269,4.077,3.213,7.48,7.21,8.331c10.865,2.315,21.114,6.568,30.462,12.64c3.428,2.227,7.921,1.906,10.995-0.791l17.398-15.253
			l14.546,14.547l-15.247,17.409c-2.693,3.073-3.016,7.563-0.789,10.99c6.066,9.344,10.317,19.591,12.632,30.454
			c0.851,3.996,4.253,6.941,8.331,7.21l23.074,1.521V185.327z"/>
	</g>
</g>
<g>
	<g>
		<path d="M347.762,147.691c-15.087,0-27.36,12.274-27.36,27.359c0,15.088,12.274,27.363,27.36,27.363
			c15.089,0,27.364-12.275,27.364-27.363C375.125,159.964,362.85,147.691,347.762,147.691z M347.762,184.149
			c-5.015,0-9.096-4.082-9.096-9.098c0-5.016,4.08-9.095,9.096-9.095c5.017,0,9.099,4.08,9.099,9.095
			C356.86,180.068,352.778,184.149,347.762,184.149z"/>
	</g>
</g>
<g>
	<g>
		<path d="M347.757,111.161c-35.226,0-63.885,28.658-63.885,63.884c0,35.234,28.658,63.897,63.885,63.897
			c35.234,0,63.898-28.664,63.898-63.897C411.654,139.82,382.989,111.161,347.757,111.161z M347.757,220.678
			c-25.155,0-45.62-20.471-45.62-45.632c0-25.155,20.465-45.619,45.62-45.619c25.163,0,45.634,20.465,45.634,45.619
			C393.389,200.207,372.919,220.678,347.757,220.678z"/>
	</g>
</g>
<g>
	<g>
		<path d="M507.931,415.013l-125.317-83.534c-3.149-2.099-7.267-2.038-10.356,0.153l-63.696,45.276
			c-30.441-18.063-64.428-45.268-96.32-77.161c-31.884-31.884-59.09-65.872-77.161-96.32l45.284-63.683
			c2.195-3.087,2.258-7.207,0.156-10.358l-72.693-109.04c-0.086-0.149-0.179-0.296-0.276-0.441L96.985,4.066
			c-2.513-3.769-7.407-5.125-11.505-3.185L43.697,20.665c-2.054,0.972-3.671,2.675-4.537,4.777L0.688,118.88
			c-1.089,2.643-0.875,5.644,0.575,8.108l24.453,41.562c0.692,1.19,1.395,2.368,2.108,3.558
			c70.814,118.755,193.305,241.245,312.039,312.047c1.193,0.716,2.389,1.432,3.548,2.107l41.604,24.477
			c1.422,0.837,3.022,1.262,4.631,1.262c1.179,0,2.36-0.228,3.478-0.688l93.428-38.482c2.1-0.865,3.802-2.482,4.774-4.533
			l19.795-41.774C513.061,422.427,511.704,417.526,507.931,415.013z M86.168,20.762l5.906,8.852
			c0.086,0.147,0.178,0.292,0.274,0.436l69.49,104.235l-17.902,25.177L60.985,32.687L86.168,20.762z M390.363,492.696
			l-37.725-22.195c-1.126-0.656-2.253-1.332-3.401-2.02C232.893,399.103,112.888,279.098,43.51,162.753
			c-0.004-0.006-0.007-0.013-0.012-0.02c-0.673-1.124-1.339-2.238-2.016-3.403l-22.176-37.693L49.452,48.42l83.115,127.029
			l-15.777,22.188c-2.055,2.892-2.251,6.713-0.499,9.798c18.776,33.085,48.266,70.455,83.036,105.227
			c34.781,34.779,72.153,64.271,105.23,83.038c3.086,1.752,6.908,1.556,9.8-0.5l22.188-15.772l127.029,83.113L390.363,492.696z
			 M479.306,451.009l-126.773-82.946l25.181-17.899l113.521,75.672L479.306,451.009z"/>
	</g>
</g>
<g>
</g>
<g>
</g>
<g>
</g>
<g>
</g>
<g>
</g>
<g>
</g>
<g>
</g>
<g>
</g>
<g>
</g>
<g>
</g>
<g>
</g>
<g>
</g>
<g>
</g>
<g>
</g>
<g>
</g>
</svg>
