<?xml version="1.0" encoding="iso-8859-1"?>
<!-- Generator: Adobe Illustrator 19.0.0, SVG Export Plug-In . SVG Version: 6.00 Build 0)  -->
<svg version="1.1" id="Layer_1" xmlns="http://www.w3.org/2000/svg" xmlns:xlink="http://www.w3.org/1999/xlink" x="0px" y="0px"
	 viewBox="0 0 512.001 512.001" style="enable-background:new 0 0 512.001 512.001;" xml:space="preserve">
<g>
	<g>
		<path d="M511.347,159.907l-31.241-74.973c-1.023-2.455-3.137-4.289-5.711-4.957l-37.518-9.724
			c-1.073-0.283-2.145-0.555-3.23-0.826C325.73,42.136,186.268,42.135,78.317,69.437c-1.073,0.268-2.146,0.537-3.167,0.807
			l-37.558,9.734c-2.575,0.667-4.689,2.502-5.712,4.958L0.653,159.909c-0.812,1.951-0.869,4.134-0.159,6.124l12.492,34.993
			c1.226,3.434,4.468,5.641,7.997,5.641c0.553,0,1.114-0.054,1.674-0.167l118.703-23.748c3.454-0.691,6.124-3.442,6.711-6.915
			l10.345-61.192c27.357-6.894,61.744-10.668,97.583-10.668c35.829,0,70.217,3.774,97.585,10.669l10.332,61.189
			c0.587,3.475,3.257,6.227,6.713,6.918l103.255,20.651c0.146,0.037,0.293,0.071,0.443,0.101l15.009,2.998
			c4.138,0.823,8.248-1.505,9.665-5.474l12.503-34.993C512.217,164.044,512.16,161.858,511.347,159.907z M132.29,167.234
			l-105.769,21.16l-6.746-18.895l116.237-24.292L132.29,167.234z M369.429,106.411c-0.549-3.256-2.935-5.898-6.119-6.776
			c-29.575-8.159-67.685-12.654-107.311-12.654c-39.637,0-77.748,4.494-107.311,12.654c-3.182,0.878-5.568,3.521-6.118,6.776
			l-3.516,20.796L22.539,151.56l23.405-56.192l33.51-8.685c0.988-0.261,1.986-0.511,3.063-0.781
			c105.386-26.651,241.575-26.651,346.961,0c0.007,0.002,0.015,0.003,0.022,0.006c1.017,0.255,2.023,0.509,3.07,0.785l33.472,8.675
			l23.414,56.192L372.94,127.211L369.429,106.411z M485.467,188.399l-7.372-1.472c-0.144-0.037-0.29-0.07-0.438-0.1l-97.957-19.591
			l-3.719-22.029l116.241,24.291L485.467,188.399z"/>
	</g>
</g>
<g>
	<g>
		<path d="M255.999,195.881c-52.94,0-96.009,43.07-96.009,96.009c0,52.94,43.069,96.01,96.009,96.01s96.01-43.07,96.01-96.01
			S308.939,195.881,255.999,195.881z M264.496,370.44v-14.803c0-4.693-3.804-8.497-8.497-8.497s-8.497,3.804-8.497,8.497v14.803
			c-36.794-3.953-66.101-33.26-70.054-70.054h14.803c4.693,0,8.497-3.804,8.497-8.497s-3.804-8.497-8.497-8.497h-14.803
			c3.953-36.793,33.26-66.101,70.054-70.054v14.803c0,4.693,3.804,8.497,8.497,8.497s8.497-3.804,8.497-8.497v-14.803
			c36.794,3.953,66.101,33.26,70.055,70.054h-14.803c-4.693,0-8.497,3.804-8.497,8.497c0,4.693,3.804,8.497,8.497,8.497h14.803
			C330.599,337.181,301.292,366.487,264.496,370.44z"/>
	</g>
</g>
<g>
	<g>
		<path d="M471.475,452.143l-9.678-32.867c-1.064-3.614-4.382-6.096-8.15-6.096h-3.195l-24.359-199.689
			c-0.44-3.598-3.113-6.522-6.658-7.28l-61.567-13.159l-7.755-50.548c-0.637-4.147-4.203-7.209-8.398-7.209h-24.469v-12.266
			c0-4.693-3.804-8.497-8.497-8.497s-8.497,3.804-8.497,8.497v12.266H211.75v-12.266c-0.001-4.694-3.806-8.498-8.498-8.498
			s-8.497,3.804-8.497,8.497v12.266h-24.469c-4.195,0-7.762,3.061-8.398,7.207l-7.765,50.549l-61.568,13.16
			c-3.545,0.758-6.22,3.682-6.658,7.281L61.55,413.18h-3.194c-3.768,0-7.087,2.482-8.15,6.096l-9.678,32.867
			c-0.757,2.57-0.258,5.345,1.346,7.49s4.126,3.408,6.804,3.408h414.645c2.678,0,5.2-1.263,6.804-3.408
			S472.231,454.713,471.475,452.143z M102.032,221.562l61.376-13.118c3.451-0.738,6.086-3.531,6.622-7.02l7.549-49.137H334.42
			l7.537,49.136c0.535,3.488,3.171,6.283,6.622,7.021l61.376,13.118l23.375,191.617l-354.66-0.01L102.032,221.562z M60.038,446.047
			l4.673-15.872h382.579l4.673,15.872H60.038z"/>
	</g>
</g>
<g>
	<g>
		<path d="M276.736,283.392h-12.239V258.65c0-4.693-3.804-8.497-8.497-8.497s-8.497,3.804-8.497,8.497v33.239
			c0,4.693,3.804,8.497,8.497,8.497h20.736c4.693,0,8.497-3.804,8.497-8.497S281.428,283.392,276.736,283.392z"/>
	</g>
</g>
<g>
</g>
<g>
</g>
<g>
</g>
<g>
</g>
<g>
</g>
<g>
</g>
<g>
</g>
<g>
</g>
<g>
</g>
<g>
</g>
<g>
</g>
<g>
</g>
<g>
</g>
<g>
</g>
<g>
</g>
</svg>
