<?xml version="1.0" encoding="iso-8859-1"?>
<!-- Generator: Adobe Illustrator 19.0.0, SVG Export Plug-In . SVG Version: 6.00 Build 0)  -->
<svg version="1.1" id="Layer_1" xmlns="http://www.w3.org/2000/svg" xmlns:xlink="http://www.w3.org/1999/xlink" x="0px" y="0px"
	 viewBox="0 0 512 512" style="enable-background:new 0 0 512 512;" xml:space="preserve">
<g>
	<g>
		<path d="M471.503,93.043H239.395c-22.336,0-40.508,18.171-40.508,40.508v80.145c0,22.33,18.171,40.496,40.508,40.496h112.697
			l-8.299,38.988c-0.683,3.206,0.608,6.512,3.281,8.408c1.419,1.006,3.083,1.513,4.751,1.513c1.476,0,2.955-0.397,4.269-1.198
			l78.388-47.712h37.024c22.33,0,40.496-18.167,40.496-40.496V133.55C512,111.215,493.833,93.043,471.503,93.043z M495.576,213.696
			c0,13.274-10.799,24.072-24.072,24.072h-39.326c-1.505,0-2.984,0.414-4.269,1.198l-64.088,39.009l6.447-30.284
			c0.516-2.424-0.09-4.95-1.649-6.877c-1.559-1.926-3.904-3.045-6.382-3.045H239.395c-13.28,0-24.084-10.799-24.084-24.072v-80.145
			c0-13.28,10.804-24.084,24.084-24.084h232.11c13.274,0,24.072,10.804,24.072,24.084V213.696z"/>
	</g>
</g>
<g>
	<g>
		<path d="M459.344,132.214h-38.473c-4.535,0-8.212,3.677-8.212,8.212s3.677,8.212,8.212,8.212h38.473
			c4.535,0,8.212-3.677,8.212-8.212S463.88,132.214,459.344,132.214z"/>
	</g>
</g>
<g>
	<g>
		<path d="M378.902,132.214H251.547c-4.535,0-8.212,3.677-8.212,8.212s3.677,8.212,8.212,8.212h127.355
			c4.535,0,8.212-3.677,8.212-8.212S383.437,132.214,378.902,132.214z"/>
	</g>
</g>
<g>
	<g>
		<path d="M459.344,199.298H251.547c-4.535,0-8.212,3.677-8.212,8.212s3.677,8.212,8.212,8.212h207.798
			c4.535,0,8.212-3.677,8.212-8.212S463.88,199.298,459.344,199.298z"/>
	</g>
</g>
<g>
	<g>
		<path d="M459.344,165.756H356.167c-4.535,0-8.212,3.677-8.212,8.212s3.677,8.212,8.212,8.212h103.178
			c4.535,0,8.212-3.677,8.212-8.212S463.88,165.756,459.344,165.756z"/>
	</g>
</g>
<g>
	<g>
		<path d="M317.693,165.756h-66.146c-4.535,0-8.212,3.677-8.212,8.212s3.677,8.212,8.212,8.212h66.146
			c4.535,0,8.212-3.677,8.212-8.212S322.229,165.756,317.693,165.756z"/>
	</g>
</g>
<g>
	<g>
		<path d="M423.625,387.812L319.343,318.3c-2.833-1.888-6.537-1.833-9.311,0.139l-52.681,37.444
			c-25.2-15.005-53.305-37.528-79.688-63.912c-26.378-26.378-48.899-54.482-63.912-79.689l37.452-52.669
			c1.973-2.776,2.03-6.481,0.14-9.314L90.86,59.575c-0.076-0.128-0.155-0.255-0.239-0.38l-8.793-13.182
			c-2.26-3.389-6.665-4.607-10.346-2.864l-34.77,16.463c-1.847,0.875-3.301,2.407-4.08,4.295L0.619,141.662
			c-0.979,2.377-0.788,5.075,0.516,7.291l20.347,34.584c0.58,0.997,1.172,1.987,1.77,2.986
			C82.23,285.421,184.236,387.422,283.206,446.44c0.967,0.579,1.933,1.158,2.863,1.699l34.621,20.369
			c1.279,0.752,2.719,1.134,4.165,1.134c1.059,0,2.122-0.205,3.127-0.619L405.727,437c1.889-0.777,3.419-2.231,4.293-4.076
			l16.472-34.761C428.239,394.478,427.017,390.072,423.625,387.812z M72.101,61.028l4.612,6.913
			c0.074,0.126,0.153,0.251,0.235,0.374l57.592,86.388l-14.133,19.876L52.257,70.423L72.101,61.028z M325.499,452.281
			l-31.138-18.319c-0.903-0.526-1.807-1.068-2.71-1.61c-0.005-0.003-0.103-0.062-0.109-0.066
			C194.808,374.605,95.029,274.826,37.346,178.09c-0.004-0.008-0.009-0.014-0.013-0.022c-0.56-0.932-1.11-1.856-1.674-2.825
			L17.359,144.14l24.527-59.57l68.299,104.384l-12.886,18.122c-1.849,2.6-2.025,6.036-0.45,8.812
			c15.652,27.58,40.227,58.724,69.199,87.695c28.98,28.98,60.125,53.556,87.697,69.2c2.776,1.574,6.211,1.399,8.811-0.45
			l18.123-12.883l104.385,68.297L325.499,452.281z M399.214,417.377L295.058,349.23l19.879-14.13l93.675,62.443L399.214,417.377z"/>
	</g>
</g>
<g>
</g>
<g>
</g>
<g>
</g>
<g>
</g>
<g>
</g>
<g>
</g>
<g>
</g>
<g>
</g>
<g>
</g>
<g>
</g>
<g>
</g>
<g>
</g>
<g>
</g>
<g>
</g>
<g>
</g>
</svg>
