<?xml version="1.0" encoding="iso-8859-1"?>
<!-- Generator: Adobe Illustrator 19.0.0, SVG Export Plug-In . SVG Version: 6.00 Build 0)  -->
<svg version="1.1" id="Layer_1" xmlns="http://www.w3.org/2000/svg" xmlns:xlink="http://www.w3.org/1999/xlink" x="0px" y="0px"
	 viewBox="0 0 512 512" style="enable-background:new 0 0 512 512;" xml:space="preserve">
<g>
	<g>
		<path d="M403.892,102.679c-4.819,0-8.725,3.906-8.725,8.724v40.407c0,41.152-33.479,74.631-74.631,74.631
			c-41.152,0-74.631-33.479-74.631-74.631v-40.407c-0.001-4.819-3.906-8.724-8.726-8.724c-4.819,0-8.725,3.906-8.725,8.724v40.407
			c0,47.83,36.662,87.245,83.356,91.655v53.943h-35.554c-4.819,0-8.725,3.906-8.725,8.725s3.905,8.724,8.725,8.724h88.558
			c4.819,0,8.725-3.906,8.725-8.724s-3.905-8.725-8.725-8.725h-35.554v-53.943c46.694-4.411,83.354-43.826,83.354-91.655v-40.407
			C412.616,106.586,408.711,102.679,403.892,102.679z"/>
	</g>
</g>
<g>
	<g>
		<path d="M320.535,0c-34.739,0-62.998,28.26-62.998,62.999v88.812c0,34.738,28.262,62.998,62.999,62.998
			c34.738,0,62.998-28.26,62.998-62.998V62.999C383.536,28.26,355.274,0,320.535,0z M366.085,98.68h-19.424
			c-4.819,0-8.724,3.906-8.724,8.724c0,4.818,3.905,8.725,8.724,8.725h19.424v26.958h-19.424c-4.819,0-8.724,3.906-8.724,8.724
			c0,4.818,3.905,8.725,8.724,8.725h18.577c-4.083,20.955-22.57,36.824-44.702,36.824h-0.001c-22.132,0-40.619-15.869-44.702-36.824
			h18.577c4.819,0,8.725-3.906,8.725-8.725c0-4.818-3.905-8.724-8.725-8.724h-19.424v-26.958h19.424
			c4.819,0,8.725-3.906,8.725-8.725c0-4.818-3.905-8.724-8.724-8.724h-19.424V71.724h19.424c4.819,0,8.725-3.906,8.725-8.725
			c0-4.818-3.905-8.724-8.724-8.724h-18.577c4.083-20.956,22.571-36.826,44.703-36.826c22.132,0,40.619,15.869,44.702,36.826
			h-18.577c-4.819,0-8.724,3.906-8.724,8.724c0,4.818,3.905,8.725,8.724,8.725h19.424V98.68z"/>
	</g>
</g>
<g>
	<g>
		<path d="M496.681,419.342L376.96,339.538c-3.008-2.007-6.942-1.947-9.894,0.147l-60.852,43.254
			c-29.082-17.256-61.551-43.247-92.019-73.715c-30.46-30.46-56.451-62.93-73.715-92.019l43.262-60.839
			c2.097-2.949,2.157-6.885,0.149-9.896L114.443,42.299c-0.083-0.142-0.171-0.283-0.264-0.421l-10.096-15.133
			c-2.402-3.6-7.077-4.896-10.992-3.043L53.176,42.605c-1.962,0.928-3.507,2.556-4.334,4.563l-36.755,89.266
			c-1.04,2.525-0.836,5.392,0.549,7.746l23.36,39.705c0.661,1.138,1.333,2.264,2.015,3.4
			c67.652,113.452,184.674,230.473,298.105,298.113c1.14,0.684,2.282,1.368,3.39,2.012l39.747,23.384
			c1.359,0.799,2.887,1.205,4.424,1.205c1.126,0,2.254-0.218,3.322-0.657l89.256-36.764c2.007-0.826,3.632-2.371,4.561-4.331
			l18.911-39.908C501.583,426.425,500.286,421.744,496.681,419.342z M93.751,42.698l5.642,8.457c0.083,0.141,0.17,0.279,0.262,0.416
			l66.387,99.58l-17.102,24.053L69.694,54.09L93.751,42.698z M384.364,493.556l-36.04-21.204c-1.076-0.627-2.152-1.273-3.249-1.93
			c-111.15-66.28-225.795-180.926-292.076-292.076c-0.003-0.006-0.007-0.013-0.012-0.019c-0.643-1.073-1.278-2.136-1.926-3.251
			l-21.185-36.009l28.8-69.947l79.404,121.356l-15.072,21.197c-1.964,2.763-2.151,6.413-0.477,9.361
			c17.938,31.607,46.111,67.309,79.328,100.529c33.228,33.226,68.931,61.401,100.531,79.33c2.948,1.674,6.599,1.487,9.362-0.478
			l21.197-15.068l121.357,79.402L384.364,493.556z M469.335,453.731l-121.113-79.242l24.056-17.1l108.452,72.293L469.335,453.731z"
			/>
	</g>
</g>
<g>
</g>
<g>
</g>
<g>
</g>
<g>
</g>
<g>
</g>
<g>
</g>
<g>
</g>
<g>
</g>
<g>
</g>
<g>
</g>
<g>
</g>
<g>
</g>
<g>
</g>
<g>
</g>
<g>
</g>
</svg>
