<?xml version="1.0" encoding="iso-8859-1"?>
<!-- Generator: Adobe Illustrator 19.0.0, SVG Export Plug-In . SVG Version: 6.00 Build 0)  -->
<svg xmlns="http://www.w3.org/2000/svg" xmlns:xlink="http://www.w3.org/1999/xlink" version="1.1" id="Layer_1" x="0px" y="0px" viewBox="0 0 512.002 512.002" style="enable-background:new 0 0 512.002 512.002;" xml:space="preserve">
<g>
	<g>
		<path d="M497.075,322.374c-18.745-10.267-105.714-49.217-109.407-50.87c-3.336-1.495-7.271-0.546-9.574,2.293    c-0.208,0.256-21.184,25.709-50.541,28.439c-16.629,1.56-33.16-4.515-49.089-18.024c-6.27-5.318-13.54-11.764-22.877-20.284    c-3.294-3.005-8.398-2.77-11.402,0.521c-3.004,3.293-2.771,8.398,0.521,11.402c9.484,8.655,16.894,15.222,23.317,20.67    c19.41,16.462,39.987,23.785,61.175,21.772c27.873-2.651,48.669-20.858,57.217-29.659c19.625,8.822,87.327,39.364,102.907,47.898    c4.635,2.537,6.059,4.355,6.441,4.972c-0.695,1.191-3.444,3.257-5.78,4.305c-190.565,82.754-287.365-6.822-333.883-49.871    c-27.189-25.159-64.462-39.908-94.717-48.345c0.376-8.881,1.017-17.579,1.942-25.914c0.492-4.429-2.701-8.419-7.131-8.911    c-4.441-0.497-8.42,2.701-8.911,7.131c-0.848,7.638-1.477,15.551-1.884,23.628c-12.434-2.867-22.721-4.564-29.196-5.485    c0.34-19.168,2.039-35.649,4.385-49.575c0.086-0.51,0.176-0.999,0.265-1.501c0.152-0.872,0.302-1.752,0.458-2.603    c0.068-0.369,0.14-0.722,0.209-1.088c0.181-0.961,0.362-1.924,0.549-2.859c0.116-0.583,0.237-1.142,0.355-1.714    c0.144-0.695,0.285-1.402,0.432-2.082c0.131-0.607,0.266-1.19,0.398-1.785c0.139-0.621,0.275-1.254,0.415-1.862    c0.123-0.529,0.247-1.035,0.371-1.555c0.155-0.649,0.308-1.308,0.464-1.941c0.151-0.611,0.305-1.198,0.457-1.795    c0.132-0.515,0.263-1.045,0.395-1.549c0.151-0.575,0.303-1.123,0.456-1.683c0.137-0.505,0.273-1.022,0.411-1.516    c0.085-0.305,0.171-0.591,0.256-0.891c0.498-1.755,0.999-3.453,1.5-5.064c0.001-0.002,0.001-0.003,0.002-0.005    c3.816-12.253,7.644-20.386,9.926-24.683c1.116,0.076,2.247,0.182,3.392,0.313c0.056,0.006,0.112,0.014,0.168,0.02    c8.144,0.953,17.013,3.294,26.517,7c-4.788,10.072-11.508,27.324-16.472,52.522c-0.862,4.373,1.985,8.617,6.358,9.478    c4.375,0.866,8.616-1.985,9.478-6.358c4.75-24.111,11.202-40.283,15.382-49.039c47.412,23.758,100.637,72.978,142.556,111.743    l0.322,0.298c3.271,3.025,8.376,2.826,11.405-0.447c3.026-3.272,2.826-8.378-0.447-11.405l-0.322-0.297    c-61.754-57.11-138.382-127.969-200.079-130.082c-0.943-0.033-1.879-0.051-2.806-0.051c-2.658,0-5.145,1.308-6.651,3.498    C25.62,121.074,0,159.327,0,245.15c0,0.023,0.003,0.044,0.003,0.067c0,0.072,0.008,0.144,0.011,0.216    c0.008,0.231,0.024,0.461,0.052,0.687c0.011,0.086,0.024,0.172,0.037,0.258c0.037,0.236,0.083,0.467,0.139,0.696    c0.011,0.043,0.014,0.086,0.026,0.129L37.82,389.995c0.932,3.547,4.139,6.018,7.805,6.018h39.469c4.458,0,8.07-3.612,8.07-8.07    V275.759c18.604,7.862,37.127,18.286,51.976,32.026c23.516,21.761,62.874,58.183,121.471,76.596    c24.498,7.698,50.3,11.543,77.317,11.542c47.312,0,98.331-11.79,152.501-35.314c2.509-1.095,15.05-7.131,15.557-18.448    C512.321,334.633,507.305,327.977,497.075,322.374z M77.023,379.871h-0.001H51.847L18.964,254.84    c12.806,2.103,34.647,6.488,58.059,14.697V379.871z"/>
	</g>
</g>
<g>
</g>
<g>
</g>
<g>
</g>
<g>
</g>
<g>
</g>
<g>
</g>
<g>
</g>
<g>
</g>
<g>
</g>
<g>
</g>
<g>
</g>
<g>
</g>
<g>
</g>
<g>
</g>
<g>
</g>
</svg>
