<?xml version="1.0" encoding="iso-8859-1"?>
<!-- Generator: Adobe Illustrator 19.0.0, SVG Export Plug-In . SVG Version: 6.00 Build 0)  -->
<svg xmlns="http://www.w3.org/2000/svg" xmlns:xlink="http://www.w3.org/1999/xlink" version="1.1" id="Layer_1" x="0px" y="0px" viewBox="0 0 512 512" style="enable-background:new 0 0 512 512;" xml:space="preserve">
<g>
	<g>
		<path d="M499.775,308.316c-21.297-29.923-64.628-33.495-93.301-35.856c-2.311-0.191-4.532-0.374-6.646-0.563    c-31.039-2.775-62.042-10.77-67.292-12.167c-2.18-1.142-9.326-4.966-19.221-11.087l1.248-1.633    c2.712-3.549,2.035-8.624-1.514-11.337c-3.55-2.714-8.624-2.033-11.337,1.514l-2.021,2.644c-4.357-2.943-8.963-6.182-13.697-9.684    l1.351-1.5c2.99-3.318,2.724-8.431-0.594-11.422c-3.316-2.989-8.43-2.726-11.422,0.594l-2.158,2.395    c-3.688-2.997-7.394-6.138-11.069-9.414l2.09-1.774c3.405-2.891,3.823-7.995,0.932-11.399c-2.891-3.405-7.994-3.824-11.399-0.932    l-3.448,2.928c-3.925-3.938-7.747-8.028-11.397-12.26l3.49-2.748c3.509-2.763,4.114-7.847,1.351-11.357    c-2.764-3.509-7.848-4.116-11.357-1.351l-3.54,2.786c-9.363-12.918-16.779-26.909-20.678-41.69c0-0.001,0-0.002-0.001-0.003    c-0.096-0.367-0.187-0.715-0.273-1.054c-0.252-1.001-0.496-2.004-0.715-3.011c-1.873-8.62-7.025-32.257-25.177-39.007    c-0.078-0.029-0.155-0.054-0.232-0.082c-0.47-0.17-0.941-0.338-1.429-0.484c-0.598-0.183-1.2-0.344-1.805-0.487    c-0.067-0.015-0.135-0.027-0.202-0.042c-0.684-0.156-1.372-0.283-2.063-0.389c-0.011-0.002-0.023-0.003-0.033-0.005    c-5.046-0.77-10.295-0.243-15.709,1.184c-0.038,0.01-0.074,0.021-0.112,0.03c-1.77,0.47-3.557,1.034-5.36,1.68    c-0.164,0.058-0.329,0.119-0.493,0.178c-0.851,0.312-1.705,0.635-2.563,0.98c-0.085,0.035-0.171,0.072-0.257,0.107    c-0.762,0.31-1.528,0.633-2.295,0.967c-0.245,0.107-0.488,0.212-0.734,0.32c-0.801,0.356-1.606,0.72-2.412,1.099    c-0.229,0.107-0.458,0.219-0.688,0.328c-0.646,0.307-1.294,0.621-1.944,0.942c-0.273,0.135-0.546,0.268-0.818,0.405    c-0.798,0.399-1.597,0.807-2.399,1.223c-0.267,0.138-0.535,0.28-0.802,0.421c-0.658,0.345-1.317,0.694-1.978,1.048    c-0.236,0.126-0.471,0.251-0.707,0.378c-0.836,0.452-1.675,0.91-2.515,1.374c-0.249,0.138-0.5,0.277-0.751,0.415    c-0.759,0.422-1.52,0.845-2.284,1.275c-0.135,0.076-0.27,0.151-0.404,0.226c-0.905,0.509-1.813,1.023-2.722,1.541    c-0.234,0.133-0.469,0.266-0.704,0.4c-0.869,0.495-1.739,0.991-2.613,1.489c-0.947,0.54-1.896,1.081-2.845,1.622    c-0.187,0.107-0.374,0.212-0.561,0.319c-0.978,0.555-1.957,1.111-2.937,1.662c-0.133,0.074-0.265,0.149-0.398,0.223    c-2.073,1.165-4.148,2.314-6.224,3.431c-0.065,0.036-0.13,0.07-0.195,0.106c-1.068,0.574-2.135,1.139-3.202,1.693    c-0.008,0.004-0.015,0.008-0.023,0.012c-11.976,6.216-23.875,11.035-34.928,11.074c-0.077,0-0.154,0.002-0.231,0.001    c-0.791-0.002-1.57-0.026-2.335-0.078c-0.044-0.003-0.088-0.01-0.134-0.013c-0.659-0.046-1.305-0.118-1.946-0.202    c-0.257-0.033-0.512-0.074-0.768-0.114c-0.463-0.072-0.921-0.154-1.377-0.247c-0.24-0.048-0.481-0.095-0.72-0.149    c-0.676-0.153-1.347-0.321-2.012-0.52c-1.062-0.317-2.111-0.606-3.154-0.878c-0.376-0.098-0.747-0.187-1.12-0.279    c-0.651-0.162-1.3-0.316-1.944-0.46c-0.452-0.101-0.903-0.197-1.35-0.29c-0.553-0.113-1.101-0.218-1.648-0.318    c-0.477-0.087-0.954-0.178-1.424-0.256c-0.527-0.086-1.046-0.156-1.567-0.231c-0.895-0.127-1.78-0.234-2.656-0.323    c-0.416-0.042-0.835-0.089-1.247-0.123c-0.546-0.045-1.085-0.074-1.623-0.104c-0.369-0.021-0.737-0.04-1.1-0.053    c-0.565-0.021-1.126-0.033-1.681-0.037c-0.102-0.001-0.207-0.006-0.31-0.006c-0.115,0-0.225,0.01-0.34,0.011    c-0.93,0.005-1.848,0.033-2.753,0.085c-0.067,0.004-0.133,0.009-0.2,0.013c-8.243,0.512-15.461,2.989-21.571,7.467    c-4.129,3.027-7.323,6.688-9.808,10.534c-0.154,0.237-0.308,0.476-0.46,0.717c-0.385,0.62-0.753,1.244-1.102,1.871    c-0.221,0.395-0.433,0.799-0.645,1.204c-0.167,0.321-0.327,0.642-0.485,0.963c-0.182,0.369-0.378,0.722-0.553,1.099    c-2.627,5.661-3.968,11.305-4.654,15.536c-0.018,0.112-0.037,0.223-0.054,0.334c-0.033,0.215-0.065,0.424-0.096,0.63    c-0.043,0.291-0.082,0.573-0.119,0.848c-0.008,0.058-0.016,0.117-0.024,0.176c-0.349,2.667-0.413,4.477-0.424,4.941    c-0.001,0.041-0.002,0.071-0.002,0.089c0,0.002,0,0.008,0,0.009C0,168.488,0,168.53,0,168.571v7.308v70.108v93.213v76.626    c0,4.467,3.62,8.087,8.087,8.087h89.63c4.467,0,8.087-3.62,8.087-8.087s-3.62-8.087-8.087-8.087H16.175v-60.451h57.477h71.49    l33.076,9.904l93.758,28.07c0.753,0.225,1.534,0.34,2.319,0.34h210.316c0.396,0,0.788,0.023,1.178,0.065    c0.094,0.01,0.185,0.03,0.278,0.043c0.294,0.039,0.589,0.083,0.878,0.146c0.104,0.023,0.204,0.054,0.307,0.079    c0.274,0.068,0.546,0.139,0.813,0.227c0.107,0.036,0.21,0.078,0.315,0.115c0.257,0.094,0.511,0.192,0.76,0.304    c0.106,0.047,0.209,0.1,0.314,0.152c0.242,0.119,0.48,0.244,0.712,0.38c0.1,0.058,0.199,0.12,0.298,0.181    c0.233,0.146,0.46,0.301,0.683,0.465c0.086,0.063,0.171,0.126,0.256,0.191c0.236,0.184,0.466,0.381,0.688,0.586    c0.059,0.054,0.12,0.106,0.177,0.161c0.268,0.259,0.527,0.529,0.771,0.816c1.643,1.931,2.641,4.429,2.641,7.158    c0,6.103-4.966,11.07-11.068,11.07H259.942l-100.429-27.364c-2.429-0.66-5.034-0.154-7.035,1.376    c-2.002,1.53-3.178,3.907-3.178,6.427v19.562h-24.983c-4.467,0-8.087,3.62-8.087,8.087s3.62,8.087,8.087,8.087h33.071    c4.467,0,8.087-3.62,8.087-8.087v-17.062l91.259,24.866c0.693,0.189,1.408,0.285,2.126,0.285h225.753    c15.022,0,27.242-12.222,27.242-27.245c0-5.125-1.424-9.923-3.896-14.021C515.345,351.334,512.601,326.337,499.775,308.316z     M16.175,331.112v-75.273c15.519,4.577,46.414,20.538,49.188,75.273H16.175z M193.77,325.417    c-1.133,0.857-2.258,1.741-3.371,2.653c-0.322,0.264-0.637,0.547-0.958,0.815c-0.795,0.665-1.588,1.33-2.371,2.024    c-0.416,0.369-0.823,0.76-1.236,1.138c-0.677,0.619-1.355,1.231-2.023,1.873c-0.438,0.421-0.866,0.864-1.299,1.295    c-0.63,0.627-1.263,1.247-1.883,1.894c-0.441,0.459-0.871,0.941-1.307,1.411c-0.511,0.552-1.03,1.089-1.533,1.656l-29.139-8.724    c-0.753-0.225-1.534-0.34-2.319-0.34H81.546v-0.001c-2.023-43.735-20.331-66.592-35.838-78.176    c-11.189-8.358-22.416-12.099-29.535-13.751v-49.647c11.101,5.072,28.935,10.987,51.767,10.986    c18.68-0.002,40.706-3.964,65.102-15.587c4.032-1.92,5.744-6.747,3.823-10.779c-1.92-4.034-6.747-5.745-10.779-3.823    c-27.715,13.204-55.163,17.061-81.582,11.465c-13.638-2.891-23.491-7.699-28.329-10.432v-2.691    c0.001-0.018,0.002-0.053,0.003-0.082c0.001-0.021,0.002-0.042,0.003-0.068c0.002-0.053,0.006-0.121,0.01-0.195    c0.001-0.017,0.002-0.037,0.003-0.055c0.022-0.366,0.063-0.944,0.141-1.693c0.001-0.011,0.002-0.023,0.003-0.033    c0.058-0.546,0.137-1.183,0.24-1.888c0.008-0.052,0.015-0.101,0.023-0.153c0.03-0.203,0.064-0.413,0.099-0.628    c0.017-0.104,0.036-0.209,0.053-0.315c0.035-0.204,0.07-0.408,0.109-0.62c0.054-0.294,0.112-0.595,0.175-0.904    c0.029-0.144,0.063-0.294,0.094-0.442c0.05-0.234,0.101-0.469,0.156-0.71c0.031-0.137,0.064-0.276,0.097-0.415    c0.077-0.322,0.157-0.648,0.245-0.98c0.015-0.059,0.029-0.118,0.045-0.177c0.113-0.424,0.234-0.855,0.364-1.292    c0.01-0.033,0.021-0.067,0.03-0.1c0.126-0.418,0.26-0.841,0.402-1.267c0.012-0.036,0.024-0.07,0.036-0.105    c0.472-1.397,1.038-2.831,1.719-4.252c0.283-0.589,0.576-1.158,0.881-1.71c0.013-0.024,0.027-0.047,0.04-0.071    c0.285-0.511,0.579-1.006,0.883-1.485c0.026-0.041,0.051-0.084,0.078-0.125c0.291-0.454,0.594-0.89,0.904-1.316    c0.093-0.126,0.188-0.251,0.283-0.376c0.237-0.314,0.481-0.619,0.728-0.917c0.096-0.115,0.19-0.234,0.288-0.348    c0.325-0.376,0.659-0.738,1.001-1.086c0.1-0.102,0.205-0.201,0.307-0.301c0.281-0.276,0.568-0.546,0.863-0.803    c0.1-0.088,0.201-0.178,0.303-0.265c1.588-1.348,3.346-2.436,5.272-3.278c0.122-0.053,0.237-0.114,0.36-0.165    c0.229-0.095,0.469-0.174,0.703-0.262c0.315-0.119,0.625-0.244,0.95-0.35c0.033-0.011,0.07-0.019,0.104-0.03    c2.184-0.704,4.566-1.13,7.146-1.271c0.445-0.024,0.904-0.029,1.362-0.037c0.208-0.003,0.41-0.016,0.621-0.016    c0.199,0,0.408,0.011,0.61,0.014c0.437,0.006,0.873,0.014,1.32,0.036c0.34,0.016,0.687,0.044,1.033,0.069    c0.319,0.023,0.636,0.043,0.96,0.073c0.38,0.036,0.765,0.08,1.152,0.125c0.304,0.036,0.609,0.071,0.919,0.113    c0.394,0.053,0.792,0.112,1.193,0.176c0.321,0.051,0.646,0.105,0.972,0.162c0.389,0.068,0.78,0.139,1.174,0.216    c0.37,0.072,0.745,0.151,1.12,0.232c0.36,0.077,0.72,0.153,1.085,0.237c0.468,0.108,0.944,0.228,1.42,0.348    c0.287,0.072,0.57,0.139,0.859,0.217c0.781,0.207,1.57,0.427,2.372,0.666c0.678,0.203,1.364,0.384,2.055,0.556    c0.239,0.059,0.479,0.115,0.719,0.171c0.448,0.104,0.898,0.202,1.35,0.292c0.28,0.057,0.561,0.116,0.842,0.167    c0.514,0.094,1.033,0.178,1.553,0.256c0.456,0.069,0.913,0.127,1.369,0.182c0.331,0.04,0.661,0.081,0.993,0.114    c0.375,0.038,0.75,0.07,1.126,0.099c0.327,0.026,0.655,0.046,0.982,0.066c0.361,0.021,0.722,0.043,1.084,0.057    c0.436,0.016,0.873,0.023,1.311,0.028c0.541,0.006,1.083,0.003,1.624-0.006c0.362-0.006,0.725-0.011,1.088-0.025    c0.39-0.015,0.781-0.039,1.172-0.062c0.309-0.018,0.619-0.037,0.928-0.06c0.423-0.032,0.845-0.069,1.268-0.11    c0.25-0.025,0.499-0.052,0.749-0.079c0.477-0.052,0.952-0.107,1.429-0.169c0.087-0.012,0.175-0.026,0.263-0.038    c15.883-2.18,31.659-10.437,46.342-18.736c0.015-0.009,0.029-0.016,0.044-0.025c1.745-0.986,3.475-1.972,5.187-2.949    c1.066-0.608,2.129-1.215,3.186-1.816c0.625-0.356,1.25-0.71,1.871-1.061c0.267-0.151,0.535-0.301,0.801-0.452    c0.656-0.369,1.308-0.735,1.958-1.098c0.151-0.084,0.303-0.169,0.454-0.253c0.733-0.408,1.463-0.81,2.189-1.207    c0.165-0.091,0.33-0.18,0.495-0.271c0.773-0.421,1.542-0.835,2.305-1.24c0.099-0.053,0.198-0.105,0.299-0.157    c1.663-0.88,3.302-1.721,4.909-2.506c0.011-0.005,0.02-0.01,0.031-0.015c7.504-3.665,14.336-6.158,19.967-6.158    c0.173,0,0.362,0.001,0.56,0.003c1.807,0.065,3.475,0.405,4.982,1.077c0.329,0.147,0.652,0.319,0.974,0.5    c0.135,0.079,0.271,0.16,0.408,0.246c0.083,0.051,0.164,0.109,0.247,0.162c3.52,2.343,7.527,7.459,10.838,18.61    c0.054,0.183,0.109,0.366,0.163,0.552c0.145,0.498,0.287,1.014,0.428,1.536c0.085,0.315,0.169,0.632,0.253,0.953    c0.116,0.449,0.233,0.908,0.347,1.374c0.1,0.409,0.199,0.823,0.297,1.241c0.057,0.245,0.114,0.496,0.17,0.746l-42.509,26.373    c-3.796,2.355-4.964,7.341-2.608,11.136c2.355,3.797,7.34,4.962,11.136,2.608l38.621-23.961    c4.815,13.238,11.895,25.726,20.322,37.317l-11.54,9.085c-3.509,2.763-4.114,7.847-1.351,11.357    c1.595,2.026,3.966,3.084,6.359,3.084c1.751,0,3.515-0.565,4.998-1.733l11.565-9.104c3.768,4.416,7.695,8.676,11.723,12.772    l-11.106,9.427c-3.405,2.891-3.823,7.995-0.932,11.399c1.599,1.885,3.878,2.853,6.17,2.853c1.849,0,3.708-0.631,5.23-1.922    l12.373-10.503c4.207,3.816,8.452,7.454,12.675,10.907l-10.616,11.781c-2.99,3.318-2.724,8.431,0.594,11.422    c1.546,1.393,3.482,2.08,5.411,2.08c2.211,0,4.414-0.901,6.009-2.673l11.383-12.632c5.098,3.8,10.059,7.302,14.757,10.48    l-9.571,12.523c-2.712,3.549-2.035,8.624,1.514,11.337c1.465,1.12,3.193,1.662,4.905,1.662c2.434,0,4.839-1.094,6.432-3.176    l10.338-13.525c6.017,3.729,11.171,6.706,15.038,8.858l-16.822,29.158c-4.374-0.48-11.03-1.008-19.181-1.008    c-0.817,0-1.657,0.005-2.517,0.018c-0.286,0.004-0.586,0.013-0.877,0.018c-0.582,0.011-1.164,0.022-1.763,0.038    c-0.365,0.011-0.744,0.027-1.115,0.039c-0.542,0.018-1.08,0.036-1.636,0.06c-0.413,0.018-0.838,0.042-1.257,0.064    c-0.533,0.027-1.061,0.052-1.606,0.084c-0.446,0.027-0.904,0.059-1.358,0.09c-0.532,0.036-1.06,0.069-1.6,0.11    c-0.478,0.037-0.965,0.079-1.449,0.12c-0.534,0.044-1.063,0.088-1.606,0.138c-0.503,0.046-1.015,0.1-1.525,0.152    c-0.537,0.054-1.072,0.108-1.615,0.168c-0.525,0.058-1.057,0.123-1.588,0.187c-0.542,0.065-1.084,0.129-1.633,0.201    c-0.543,0.07-1.092,0.148-1.642,0.224c-0.549,0.077-1.098,0.153-1.652,0.235c-0.561,0.084-1.126,0.174-1.692,0.264    c-0.553,0.088-1.106,0.177-1.665,0.272c-0.577,0.098-1.158,0.203-1.74,0.307c-0.559,0.101-1.117,0.203-1.679,0.311    c-0.589,0.112-1.181,0.231-1.774,0.352c-0.565,0.114-1.131,0.232-1.699,0.354c-0.6,0.128-1.201,0.262-1.804,0.399    c-0.569,0.128-1.14,0.261-1.711,0.397c-0.608,0.145-1.219,0.294-1.83,0.448c-0.575,0.145-1.151,0.292-1.727,0.445    c-0.616,0.163-1.233,0.329-1.851,0.5c-0.577,0.16-1.154,0.325-1.733,0.493c-0.623,0.181-1.245,0.365-1.87,0.554    c-0.58,0.177-1.161,0.36-1.744,0.546c-0.626,0.199-1.252,0.401-1.879,0.61c-0.583,0.195-1.168,0.398-1.753,0.602    c-0.628,0.219-1.254,0.438-1.883,0.667c-0.587,0.214-1.173,0.437-1.76,0.66c-0.628,0.238-1.255,0.478-1.884,0.727    c-0.589,0.234-1.176,0.479-1.764,0.721c-0.626,0.259-1.252,0.518-1.877,0.787c-0.591,0.256-1.18,0.523-1.77,0.788    c-0.622,0.279-1.243,0.557-1.863,0.849c-0.595,0.279-1.188,0.573-1.781,0.863c-0.612,0.299-1.225,0.594-1.835,0.905    c-0.602,0.306-1.2,0.629-1.799,0.946c-0.601,0.318-1.201,0.631-1.799,0.96c-0.607,0.334-1.209,0.687-1.813,1.034    c-0.587,0.336-1.174,0.666-1.759,1.015c-0.616,0.368-1.226,0.756-1.837,1.137c-0.566,0.353-1.134,0.695-1.697,1.059    c-0.644,0.416-1.281,0.856-1.921,1.287c-0.524,0.354-1.05,0.695-1.571,1.059c-0.734,0.513-1.46,1.054-2.188,1.588    C194.608,324.809,194.185,325.102,193.77,325.417z M493.879,371.052c-0.016-0.005-0.032-0.01-0.049-0.015    c-0.683-0.246-1.379-0.463-2.087-0.655c-0.05-0.013-0.098-0.029-0.148-0.042c-0.686-0.182-1.383-0.333-2.09-0.463    c-0.101-0.018-0.202-0.037-0.303-0.054c-0.688-0.118-1.382-0.21-2.087-0.275c-0.106-0.01-0.211-0.016-0.317-0.024    c-0.721-0.057-1.448-0.096-2.185-0.096H275.481v-0.003l-80.262-24.03c0.877-0.836,1.762-1.652,2.658-2.445    c0.264-0.233,0.534-0.452,0.799-0.682c0.673-0.581,1.347-1.16,2.03-1.718c0.381-0.311,0.768-0.607,1.151-0.91    c0.576-0.455,1.152-0.911,1.734-1.351c0.422-0.318,0.846-0.624,1.271-0.934c0.554-0.404,1.11-0.809,1.67-1.199    c0.44-0.307,0.883-0.606,1.326-0.905c0.552-0.372,1.105-0.741,1.662-1.1c0.452-0.292,0.906-0.579,1.36-0.862    c0.555-0.346,1.113-0.686,1.671-1.019c0.457-0.273,0.915-0.545,1.376-0.81c0.566-0.327,1.135-0.644,1.705-0.959    c0.454-0.25,0.908-0.503,1.364-0.746c0.589-0.314,1.18-0.616,1.771-0.917c0.44-0.224,0.88-0.453,1.321-0.67    c0.636-0.313,1.273-0.611,1.912-0.91c0.399-0.187,0.797-0.381,1.197-0.563c0.842-0.383,1.686-0.749,2.532-1.109    c0.277-0.118,0.554-0.238,0.832-0.355c0.947-0.394,1.893-0.775,2.841-1.142c0.401-0.155,0.802-0.299,1.203-0.449    c0.645-0.242,1.291-0.483,1.936-0.713c0.446-0.159,0.892-0.307,1.338-0.459c0.599-0.205,1.198-0.41,1.796-0.604    c0.464-0.151,0.925-0.294,1.388-0.439c0.58-0.181,1.16-0.361,1.739-0.533c0.469-0.139,0.937-0.274,1.405-0.408    c0.57-0.163,1.14-0.321,1.708-0.476c0.469-0.127,0.936-0.251,1.404-0.373c0.568-0.148,1.134-0.289,1.699-0.428    c0.459-0.113,0.919-0.225,1.376-0.333c0.576-0.136,1.149-0.264,1.722-0.39c0.44-0.098,0.88-0.197,1.318-0.29    c0.602-0.127,1.199-0.247,1.795-0.366c0.402-0.08,0.805-0.164,1.206-0.239c0.689-0.13,1.372-0.251,2.053-0.371    c0.302-0.053,0.607-0.111,0.907-0.162c0.969-0.164,1.932-0.317,2.886-0.46c0.287-0.043,0.567-0.079,0.852-0.12    c0.676-0.097,1.351-0.194,2.018-0.28c0.373-0.049,0.741-0.092,1.112-0.137c0.568-0.07,1.137-0.14,1.697-0.204    c0.393-0.044,0.78-0.084,1.169-0.125c0.532-0.056,1.061-0.111,1.585-0.161c0.389-0.037,0.774-0.071,1.158-0.105    c0.51-0.045,1.018-0.088,1.52-0.127c0.383-0.03,0.763-0.058,1.141-0.085c0.495-0.036,0.986-0.068,1.472-0.099    c0.366-0.023,0.73-0.045,1.09-0.066c0.492-0.028,0.977-0.052,1.459-0.074c0.34-0.016,0.682-0.032,1.016-0.046    c0.495-0.021,0.98-0.037,1.463-0.053c0.307-0.01,0.619-0.022,0.922-0.029c0.525-0.014,1.037-0.024,1.547-0.032    c0.243-0.004,0.493-0.011,0.732-0.014c0.743-0.01,1.473-0.015,2.181-0.015c12.308,0,20.871,1.333,21.958,1.511    c0.072,0.012,0.112,0.018,0.116,0.019c3.346,0.59,6.711-0.977,8.411-3.923l20.621-35.743c11.555,2.886,37.847,8.904,64.867,11.319    c2.149,0.192,4.409,0.378,6.759,0.571c27.226,2.243,64.513,5.316,81.452,29.116C495.601,330.344,498.037,348.257,493.879,371.052z    "/>
	</g>
</g>
<g>
</g>
<g>
</g>
<g>
</g>
<g>
</g>
<g>
</g>
<g>
</g>
<g>
</g>
<g>
</g>
<g>
</g>
<g>
</g>
<g>
</g>
<g>
</g>
<g>
</g>
<g>
</g>
<g>
</g>
</svg>
