<?xml version="1.0" encoding="iso-8859-1"?>
<!-- Generator: Adobe Illustrator 19.0.0, SVG Export Plug-In . SVG Version: 6.00 Build 0)  -->
<svg xmlns="http://www.w3.org/2000/svg" xmlns:xlink="http://www.w3.org/1999/xlink" version="1.1" id="Layer_1" x="0px" y="0px" viewBox="0 0 512 512" style="enable-background:new 0 0 512 512;" xml:space="preserve">
<g>
	<g>
		<g>
			<path d="M401.16,56.264h-69.204V42.198v-2.622C331.956,17.753,314.203,0,292.38,0h-72.76c-21.822,0-39.576,17.753-39.576,39.576     v2.622v14.066H110.84c-17.684,0-32.07,14.387-32.07,32.07v21.38v325.204v45.011c0,17.684,14.387,32.07,32.07,32.07H401.16     c17.684,0,32.07-14.387,32.07-32.07v-45.011V109.714v-21.38C433.231,70.65,418.844,56.264,401.16,56.264z M319.239,150.737     c0.124,0.074,0.253,0.132,0.38,0.198c0.277,0.144,0.557,0.277,0.846,0.39c0.15,0.057,0.299,0.109,0.45,0.159     c0.288,0.092,0.578,0.167,0.872,0.23c0.147,0.029,0.291,0.065,0.44,0.087c0.354,0.056,0.712,0.083,1.07,0.092     c0.073,0.002,0.146,0.02,0.218,0.02c0.018,0,0.036-0.002,0.054-0.002c0.072-0.001,0.143-0.01,0.214-0.013     c0.287-0.009,0.574-0.03,0.86-0.069c0.117-0.016,0.231-0.036,0.347-0.057c0.254-0.045,0.504-0.102,0.755-0.17     c0.108-0.03,0.215-0.057,0.323-0.09c0.348-0.111,0.691-0.237,1.026-0.395c2.966-1.387,4.86-4.368,4.86-7.643v-25.32h84.396     v316.765c0,8.377-6.815,15.191-15.191,15.191H286.945V123.983l31.169,25.974C318.469,150.253,318.848,150.507,319.239,150.737z      M315.077,64.703v45.011v15.738l-44.992-37.491l44.992-29.994V64.703z M219.62,16.879h72.76c11.894,0,21.681,9.196,22.621,20.85     L256,77.066l-59.003-39.336C197.938,26.075,207.726,16.879,219.62,16.879z M270.066,109.919V450.11h-28.132V109.919L256,98.196     L270.066,109.919z M196.923,109.714V64.703v-6.736l44.991,29.994l-44.991,37.491V109.714z M95.648,88.334     c0-8.375,6.816-15.191,15.191-15.191h69.204v28.132H95.648V88.334z M95.648,118.154h84.396v25.319     c0,3.275,1.895,6.255,4.859,7.643c0.338,0.158,0.681,0.284,1.031,0.395c0.105,0.033,0.209,0.06,0.314,0.088     c0.253,0.071,0.506,0.127,0.763,0.173c0.115,0.02,0.228,0.041,0.342,0.055c0.287,0.039,0.575,0.062,0.863,0.071     c0.071,0.003,0.143,0.012,0.213,0.013c0.018,0,0.035,0.002,0.054,0.002c0.072,0,0.145-0.018,0.218-0.02     c0.358-0.009,0.716-0.036,1.07-0.092c0.147-0.023,0.293-0.057,0.44-0.087c0.295-0.063,0.585-0.137,0.872-0.23     c0.152-0.05,0.302-0.101,0.45-0.159c0.289-0.114,0.569-0.246,0.846-0.39c0.127-0.066,0.255-0.124,0.38-0.198     c0.392-0.231,0.77-0.485,1.125-0.781l31.17-25.974V450.11H110.84c-8.375,0-15.191-6.815-15.191-15.191V118.154z M401.16,495.121     H110.84c-8.375,0-15.191-6.815-15.191-15.191v-16.772c0.076,0.042,0.159,0.078,0.236,0.119c0.43,0.227,0.865,0.446,1.306,0.655     c0.18,0.086,0.362,0.164,0.545,0.246c0.367,0.167,0.734,0.324,1.106,0.475c0.197,0.079,0.393,0.159,0.592,0.233     c0.391,0.15,0.784,0.289,1.184,0.423c0.172,0.059,0.342,0.12,0.515,0.176c0.569,0.181,1.143,0.35,1.725,0.498     c0.059,0.016,0.12,0.026,0.178,0.041c0.527,0.132,1.056,0.251,1.589,0.354c0.194,0.039,0.392,0.072,0.586,0.106     c0.412,0.073,0.825,0.14,1.242,0.197c0.214,0.029,0.429,0.059,0.646,0.083c0.424,0.048,0.853,0.088,1.282,0.12     c0.196,0.015,0.389,0.032,0.584,0.045c0.62,0.034,1.245,0.059,1.874,0.059h122.655h45.011h122.655     c0.629,0,1.254-0.025,1.874-0.059c0.195-0.013,0.388-0.03,0.583-0.045c0.43-0.033,0.859-0.073,1.283-0.12     c0.216-0.026,0.432-0.054,0.646-0.083c0.417-0.057,0.83-0.123,1.242-0.197c0.195-0.034,0.392-0.066,0.586-0.106     c0.535-0.105,1.062-0.223,1.588-0.354c0.06-0.015,0.12-0.026,0.179-0.041c0.583-0.15,1.156-0.317,1.725-0.498     c0.173-0.055,0.343-0.117,0.515-0.176c0.397-0.134,0.793-0.273,1.184-0.423c0.199-0.074,0.396-0.154,0.592-0.233     c0.372-0.151,0.74-0.308,1.105-0.475c0.182-0.081,0.366-0.161,0.546-0.246c0.442-0.209,0.877-0.428,1.306-0.655     c0.078-0.042,0.159-0.078,0.236-0.119v16.772h0.002C416.352,488.306,409.537,495.121,401.16,495.121z M416.352,101.275h-84.396     V73.143h69.204c8.377,0,15.191,6.816,15.191,15.191V101.275z"/>
			<path d="M357.275,309.451c11.577,0,22.596-3.643,31.863-10.533c3.739-2.782,4.519-8.068,1.737-11.807     c-2.782-3.74-8.068-4.519-11.808-1.739c-6.336,4.71-13.871,7.2-21.793,7.2c-20.165,0-36.571-16.407-36.571-36.571v-25.319h73.143     V256c0,1.521-0.093,3.049-0.279,4.546c-0.573,4.625,2.714,8.841,7.339,9.412c4.634,0.571,8.84-2.713,9.413-7.339     c0.269-2.181,0.406-4.408,0.406-6.619v-33.758v-33.758c0-4.662-3.779-8.44-8.44-8.44h-90.022c-4.661,0-8.44,3.778-8.44,8.44     v33.758V256C303.824,285.472,327.803,309.451,357.275,309.451z M320.703,196.923h73.143v16.879h-73.143V196.923z"/>
		</g>
	</g>
</g>
<g>
</g>
<g>
</g>
<g>
</g>
<g>
</g>
<g>
</g>
<g>
</g>
<g>
</g>
<g>
</g>
<g>
</g>
<g>
</g>
<g>
</g>
<g>
</g>
<g>
</g>
<g>
</g>
<g>
</g>
</svg>
