<?xml version="1.0" encoding="iso-8859-1"?>
<!-- Generator: Adobe Illustrator 19.0.0, SVG Export Plug-In . SVG Version: 6.00 Build 0)  -->
<svg xmlns="http://www.w3.org/2000/svg" xmlns:xlink="http://www.w3.org/1999/xlink" version="1.1" id="Layer_1" x="0px" y="0px" viewBox="0 0 512.002 512.002" style="enable-background:new 0 0 512.002 512.002;" xml:space="preserve">
<g>
	<g>
		<path d="M511.908,457.998l-52.576-350.492l-5.166-34.435l-9.778-65.188c-0.62-4.131-4.168-7.187-8.346-7.187H75.951    c-4.177,0-7.726,3.056-8.346,7.187l-9.779,65.188l-5.165,34.434v0.001l-8.338,55.612L0.088,457.998    c-0.008,0.047-0.003,0.093-0.01,0.141c-0.036,0.273-0.051,0.549-0.06,0.826C0.015,459.088,0,459.213,0,459.337    c0.005,0.385,0.034,0.772,0.092,1.158c0,0.007,0,0.014,0.001,0.02c0.002,0.018,0.002,0.037,0.005,0.056    c0.482,3.03,2.568,5.562,5.453,6.611c80.515,29.279,164.779,44.124,250.447,44.124c42.27,0,84.789-3.692,126.374-10.974    c0.017-0.003,0.032-0.008,0.047-0.011c0.028-0.006,0.057-0.008,0.084-0.015c42.101-7.38,83.802-18.524,123.942-33.124    C510.22,465.81,512.503,461.969,511.908,457.998z M399.47,17.576h29.304l7.056,47.032c-0.76-0.088-1.532-0.173-2.298-0.261    c-0.713-0.081-1.422-0.161-2.139-0.242c-1.013-0.111-2.037-0.219-3.057-0.331c-0.663-0.071-1.32-0.144-1.986-0.215    c-1.327-0.141-2.666-0.279-4.007-0.415c-0.631-0.064-1.26-0.127-1.895-0.191c-1.438-0.145-2.883-0.288-4.338-0.426    c-0.692-0.069-1.394-0.132-2.091-0.199c-1.052-0.099-2.102-0.199-3.162-0.296c-0.787-0.072-1.582-0.142-2.374-0.213    c-0.985-0.09-1.969-0.178-2.961-0.263c-0.824-0.072-1.655-0.143-2.482-0.214c-0.971-0.082-1.941-0.165-2.918-0.246    c-0.218-0.019-0.432-0.037-0.65-0.055V17.576z M354.458,17.576h28.132v42.178c-0.581-0.039-1.166-0.081-1.749-0.12    c-0.993-0.069-1.991-0.135-2.991-0.203c-0.892-0.061-1.785-0.119-2.682-0.178c-1.012-0.068-2.03-0.131-3.047-0.196    c-0.899-0.055-1.798-0.114-2.701-0.168c-1.027-0.063-2.06-0.125-3.093-0.186c-0.895-0.053-1.788-0.108-2.686-0.159    c-1.071-0.063-2.148-0.122-3.224-0.182c-0.871-0.048-1.74-0.099-2.614-0.145c-1.112-0.06-2.228-0.117-3.346-0.176V17.576z     M309.447,17.576h28.132v39.672c-1.18-0.049-2.359-0.1-3.543-0.147c-0.832-0.034-1.669-0.065-2.503-0.098    c-1.191-0.046-2.38-0.092-3.575-0.136c-0.877-0.033-1.76-0.062-2.64-0.093c-1.162-0.041-2.325-0.082-3.493-0.122    c-0.899-0.03-1.803-0.059-2.704-0.088c-1.148-0.037-2.296-0.072-3.448-0.108c-0.928-0.028-1.859-0.054-2.79-0.081    c-1.131-0.033-2.261-0.064-3.395-0.096c-0.015,0-0.028,0-0.042-0.001V17.576z M264.437,17.576h28.132v38.32    c-0.636-0.011-1.275-0.021-1.912-0.031c-0.946-0.017-1.892-0.034-2.838-0.047c-1.173-0.02-2.346-0.037-3.522-0.053    c-0.93-0.013-1.86-0.026-2.793-0.037c-1.214-0.017-2.43-0.028-3.646-0.042c-0.901-0.011-1.803-0.021-2.706-0.029    c-1.259-0.012-2.522-0.021-3.783-0.029c-0.864-0.008-1.725-0.015-2.592-0.019c-1.404-0.009-2.814-0.016-4.223-0.023    c-0.039,0-0.078,0-0.117,0V17.576z M219.427,17.576h28.132v38.009c-0.039,0-0.078,0-0.117,0c-1.41,0.007-2.819,0.013-4.225,0.023    c-0.865,0.006-1.727,0.012-2.592,0.019c-1.261,0.009-2.524,0.018-3.784,0.029c-0.904,0.009-1.804,0.019-2.705,0.029    c-1.218,0.013-2.432,0.025-3.646,0.042c-0.932,0.011-1.863,0.024-2.793,0.037c-1.176,0.016-2.35,0.033-3.522,0.053    c-0.946,0.013-1.892,0.029-2.836,0.046c-0.637,0.011-1.275,0.02-1.912,0.031V17.576z M174.412,17.576h28.132v38.702    c-0.013,0.001-0.026,0.001-0.042,0.001c-1.132,0.032-2.263,0.062-3.395,0.095c-0.929,0.027-1.86,0.053-2.79,0.081    c-1.151,0.035-2.3,0.071-3.448,0.108c-0.901,0.029-1.805,0.057-2.703,0.088c-1.167,0.039-2.329,0.081-3.493,0.122    c-0.881,0.031-1.762,0.061-2.64,0.093c-1.196,0.044-2.384,0.09-3.575,0.136c-0.834,0.033-1.671,0.064-2.503,0.098    c-1.187,0.047-2.365,0.098-3.545,0.147V17.576z M129.402,17.576h28.132v40.466c-1.116,0.058-2.234,0.117-3.346,0.176    c-0.874,0.046-1.742,0.097-2.613,0.145c-1.077,0.061-2.154,0.119-3.225,0.182c-0.898,0.051-1.791,0.106-2.687,0.159    c-1.033,0.061-2.066,0.123-3.092,0.186c-0.904,0.055-1.8,0.113-2.7,0.168c-1.016,0.065-2.035,0.128-3.047,0.196    c-0.897,0.059-1.789,0.117-2.682,0.178c-1,0.068-1.997,0.134-2.992,0.203c-0.583,0.039-1.168,0.081-1.749,0.12V17.576z     M83.219,17.576h29.304v43.465c-0.218,0.018-0.433,0.036-0.65,0.055c-0.977,0.08-1.947,0.164-2.917,0.246    c-0.828,0.071-1.66,0.142-2.482,0.214c-0.993,0.086-1.977,0.173-2.962,0.263c-0.792,0.071-1.587,0.141-2.374,0.213    c-1.06,0.097-2.11,0.197-3.162,0.296c-0.697,0.068-1.398,0.131-2.091,0.199c-1.455,0.138-2.899,0.281-4.337,0.427    c-0.634,0.064-1.264,0.127-1.895,0.191c-1.34,0.136-2.682,0.275-4.009,0.415c-0.666,0.071-1.323,0.143-1.985,0.215    c-1.022,0.111-2.044,0.219-3.057,0.331c-0.718,0.08-1.427,0.161-2.14,0.242c-0.765,0.087-1.538,0.172-2.297,0.261L83.219,17.576z     M255.997,494.427c-77.161,0-153.151-12.326-226.187-36.666c18.793-7.265,54.298-15.368,108.465-5.828    c0.686,0.12,1.37,0.24,2.062,0.367c0.781,0.142,1.571,0.293,2.361,0.443c1.04,0.198,2.086,0.403,3.141,0.614    c0.616,0.124,1.227,0.245,1.847,0.372c1.721,0.356,3.45,0.721,5.207,1.111c34.758,7.725,61.87,16.932,85.792,25.053    c2.059,0.699,4.096,1.39,6.119,2.074c0.692,0.234,1.378,0.465,2.066,0.697c1.395,0.47,2.79,0.938,4.169,1.401    c0.826,0.276,1.651,0.549,2.471,0.821c1.258,0.416,2.513,0.831,3.762,1.24c0.832,0.272,1.664,0.544,2.493,0.811    c1.269,0.411,2.535,0.817,3.799,1.216c0.775,0.246,1.553,0.494,2.326,0.737c1.48,0.463,2.958,0.915,4.431,1.362    c0.54,0.163,1.079,0.332,1.618,0.493c1.988,0.595,3.976,1.176,5.963,1.739c0.519,0.146,1.039,0.285,1.557,0.429    c1.209,0.336,2.417,0.675,3.627,0.999C274.051,494.253,265.018,494.427,255.997,494.427z M433.492,472.062l-22.796-284.948    c-0.371-4.646-4.434-8.112-9.084-7.741c-4.647,0.371-8.112,4.439-7.741,9.086l23.012,287.649    c-12.346,2.849-24.757,5.374-37.206,7.56c-1.03,0.126-2.039,0.239-3.053,0.353c-0.697,0.08-1.404,0.168-2.093,0.242    c-1.053,0.115-2.085,0.209-3.122,0.308c-0.664,0.064-1.338,0.137-1.994,0.196c-1.052,0.095-2.081,0.171-3.115,0.252    c-0.623,0.048-1.256,0.107-1.875,0.151c-1.046,0.074-2.073,0.132-3.102,0.194c-0.587,0.035-1.187,0.078-1.77,0.109    c-1.01,0.053-2,0.09-2.995,0.131c-0.475,0.019-0.956,0.044-1.428,0.061l-11.929-298.214c-0.186-4.656-4.124-8.265-8.77-8.095    c-4.658,0.186-8.282,4.113-8.095,8.77l11.901,297.513c-0.503-0.02-1.013-0.032-1.513-0.056c-0.95-0.044-1.886-0.102-2.826-0.158    c-0.491-0.029-0.989-0.051-1.477-0.083c-0.94-0.062-1.866-0.14-2.796-0.213c-0.477-0.038-0.96-0.071-1.435-0.111    c-0.928-0.08-1.848-0.173-2.767-0.266c-0.466-0.046-0.936-0.086-1.4-0.135c-0.92-0.099-1.831-0.212-2.743-0.318    c-0.455-0.055-0.913-0.104-1.366-0.161c-0.926-0.117-1.844-0.248-2.763-0.376c-0.43-0.061-0.863-0.113-1.292-0.176    c-0.919-0.134-1.833-0.281-2.745-0.426c-0.422-0.069-0.847-0.128-1.268-0.198c-0.918-0.152-1.831-0.315-2.743-0.478    c-0.409-0.073-0.821-0.141-1.229-0.214c-0.919-0.168-1.835-0.351-2.749-0.53c-0.398-0.078-0.796-0.151-1.193-0.228    c-0.963-0.196-1.924-0.401-2.884-0.607c-0.343-0.073-0.686-0.142-1.029-0.216c-1.05-0.23-2.096-0.469-3.142-0.712    c-0.251-0.059-0.502-0.113-0.752-0.171c-1.096-0.255-2.188-0.524-3.28-0.796c-0.203-0.049-0.403-0.096-0.604-0.146    c-1.167-0.291-2.334-0.593-3.501-0.9c-0.124-0.034-0.251-0.065-0.377-0.097c-1.225-0.324-2.452-0.658-3.679-0.997    c-0.068-0.019-0.134-0.036-0.201-0.056c-6.645-1.844-13.329-3.913-20.192-6.146c0.094-0.505,0.15-1.025,0.15-1.559V187.786    c0-4.662-3.779-8.44-8.44-8.44c-4.662,0-8.44,3.778-8.44,8.44v277.294c-1.143-0.387-2.289-0.775-3.448-1.17    c-19.844-6.737-41.853-14.208-68.638-21.033l10.189-254.753c0.187-4.658-3.438-8.585-8.095-8.771    c-4.668-0.185-8.584,3.438-8.771,8.095L158.741,438.86c-0.73-0.165-1.446-0.333-2.184-0.497c-1.992-0.442-3.954-0.856-5.903-1.255    c-0.555-0.116-1.105-0.224-1.658-0.335c-1.488-0.298-2.963-0.583-4.429-0.857c-0.496-0.092-0.995-0.189-1.488-0.279    c-1.888-0.344-3.758-0.673-5.606-0.978c-0.263-0.044-0.521-0.081-0.783-0.124c-1.6-0.261-3.181-0.505-4.751-0.737    c-0.526-0.079-1.047-0.153-1.568-0.228c-1.439-0.205-2.864-0.398-4.278-0.581c-0.383-0.049-0.77-0.104-1.15-0.152    c-1.757-0.218-3.492-0.421-5.204-0.607c-0.371-0.038-0.736-0.074-1.106-0.111c-1.37-0.144-2.725-0.275-4.069-0.395    c-0.486-0.043-0.971-0.087-1.453-0.127c-1.432-0.122-2.85-0.232-4.255-0.329c-0.237-0.017-0.479-0.037-0.717-0.053    c-1.624-0.11-3.224-0.199-4.809-0.277c-0.41-0.021-0.816-0.037-1.224-0.055c-1.13-0.051-2.253-0.093-3.361-0.128l19.384-242.295    c0.371-4.646-3.095-8.714-7.741-9.086c-4.643-0.363-8.712,3.095-9.086,7.741l-19.5,243.669c-1.123,0.043-2.235,0.092-3.334,0.15    c-0.21,0.01-0.412,0.024-0.62,0.036c-1.158,0.063-2.299,0.134-3.428,0.214c-0.401,0.028-0.8,0.057-1.198,0.088    c-1.016,0.078-2.024,0.161-3.018,0.251c-0.305,0.028-0.616,0.053-0.918,0.081c-1.258,0.12-2.497,0.248-3.719,0.385    c-0.286,0.033-0.563,0.069-0.846,0.101c-0.963,0.114-1.916,0.231-2.855,0.353c-0.359,0.047-0.72,0.096-1.077,0.144    c-0.991,0.136-1.971,0.278-2.937,0.426c-0.19,0.029-0.386,0.056-0.575,0.086c-1.139,0.178-2.255,0.363-3.357,0.556    c-0.298,0.052-0.587,0.106-0.881,0.159c-0.838,0.15-1.664,0.305-2.48,0.463c-0.309,0.06-0.619,0.12-0.923,0.18    c-1.031,0.205-2.049,0.415-3.044,0.631c-0.024,0.006-0.048,0.01-0.071,0.016c-1.026,0.224-2.028,0.455-3.017,0.689    c-0.271,0.065-0.538,0.129-0.806,0.196c-0.761,0.185-1.51,0.371-2.248,0.562c-0.235,0.061-0.473,0.118-0.703,0.18    c-0.945,0.249-1.872,0.497-2.781,0.754c-0.078,0.022-0.155,0.045-0.233,0.068c-0.828,0.235-1.637,0.473-2.435,0.712    c-0.221,0.068-0.441,0.134-0.659,0.201c-0.722,0.221-1.43,0.443-2.126,0.667c-0.141,0.046-0.284,0.09-0.423,0.136    c-0.839,0.272-1.659,0.547-2.461,0.824c-0.099,0.035-0.196,0.071-0.295,0.105c-0.697,0.244-1.38,0.488-2.046,0.731    c-0.161,0.058-0.32,0.117-0.479,0.176c-0.719,0.266-1.425,0.533-2.11,0.8c-0.018,0.008-0.035,0.015-0.053,0.02    c-0.743,0.289-1.462,0.58-2.162,0.868c-0.078,0.031-0.155,0.065-0.234,0.098c-0.616,0.254-1.215,0.509-1.799,0.762    c-0.051,0.022-0.105,0.044-0.155,0.065l49.111-327.411c28.62-3.62,62.74-6.413,99.192-8.108c4.656-0.217,8.255-4.167,8.038-8.825    c-0.215-4.656-4.158-8.283-8.822-8.038c-5.082,0.236-10.112,0.496-15.097,0.774c-0.028,0.002-0.057,0-0.084,0.002    c-1.249,0.07-2.486,0.143-3.727,0.214c-0.231,0.012-0.461,0.025-0.691,0.039c-27.817,1.625-53.377,3.841-76.209,6.609l2.559-17.06    c0.695-0.083,1.392-0.167,2.091-0.251c0.666-0.077,1.33-0.158,2-0.235c0.978-0.114,1.966-0.224,2.954-0.334    c0.679-0.077,1.352-0.155,2.033-0.231c0.995-0.11,1.996-0.216,3-0.325c0.688-0.073,1.373-0.147,2.066-0.221    c1.033-0.111,2.076-0.216,3.118-0.323c0.672-0.07,1.338-0.138,2.012-0.208c1.062-0.106,2.134-0.21,3.207-0.314    c0.675-0.066,1.344-0.133,2.022-0.198c1.156-0.11,2.32-0.218,3.485-0.327c0.596-0.055,1.188-0.113,1.787-0.165    c1.413-0.128,2.838-0.257,4.267-0.38c0.368-0.031,0.731-0.068,1.102-0.098c1.787-0.156,3.587-0.307,5.398-0.457    c0.621-0.051,1.248-0.1,1.87-0.15c1.196-0.097,2.391-0.195,3.6-0.289c0.809-0.063,1.628-0.124,2.444-0.187    c1.031-0.079,2.057-0.158,3.095-0.234c0.855-0.064,1.717-0.125,2.578-0.187c1.014-0.072,2.027-0.147,3.048-0.219    c0.878-0.061,1.764-0.12,2.649-0.18c1-0.069,1.995-0.138,3.001-0.205c0.919-0.062,1.848-0.119,2.77-0.179    c0.989-0.064,1.977-0.126,2.972-0.19c0.918-0.056,1.845-0.113,2.769-0.169c1.007-0.061,2.013-0.122,3.025-0.18    c0.934-0.055,1.871-0.108,2.809-0.162c1.007-0.056,2.014-0.114,3.026-0.17c0.953-0.051,1.909-0.101,2.866-0.152    c1.005-0.055,2.011-0.108,3.021-0.16c0.97-0.049,1.946-0.098,2.92-0.146c1.005-0.051,2.009-0.101,3.016-0.147    c0.985-0.048,1.974-0.095,2.962-0.138c1.007-0.046,2.018-0.092,3.029-0.137c0.987-0.043,1.976-0.086,2.967-0.128    c1.031-0.044,2.062-0.087,3.097-0.127c0.987-0.042,1.976-0.081,2.966-0.119c1.034-0.039,2.07-0.08,3.109-0.118    c0.994-0.036,1.987-0.073,2.982-0.109c1.055-0.038,2.113-0.074,3.171-0.11c0.987-0.033,1.974-0.068,2.963-0.099    c1.066-0.034,2.132-0.069,3.201-0.099c0.994-0.03,1.99-0.062,2.985-0.09c1.075-0.032,2.154-0.062,3.233-0.09    c0.992-0.027,1.985-0.055,2.979-0.08c1.091-0.028,2.183-0.054,3.278-0.081c0.988-0.024,1.974-0.047,2.965-0.07    c1.119-0.025,2.24-0.048,3.363-0.071c0.971-0.021,1.942-0.041,2.914-0.06c1.147-0.021,2.296-0.042,3.446-0.063    c0.951-0.017,1.9-0.033,2.853-0.048c1.178-0.019,2.364-0.035,3.546-0.053c0.935-0.013,1.869-0.026,2.806-0.037    c1.194-0.017,2.391-0.028,3.587-0.042c0.929-0.011,1.856-0.022,2.787-0.03c1.268-0.013,2.54-0.022,3.811-0.03    c0.855-0.007,1.708-0.015,2.563-0.02c1.412-0.009,2.83-0.016,4.245-0.02c0.726-0.005,1.448-0.01,2.175-0.012    c2.139-0.007,4.281-0.01,6.425-0.01c2.145,0,4.286,0.003,6.425,0.01c0.726,0.002,1.451,0.008,2.176,0.012    c1.414,0.005,2.832,0.011,4.246,0.02c0.855,0.006,1.708,0.013,2.562,0.02c1.272,0.009,2.543,0.018,3.813,0.03    c0.929,0.009,1.857,0.02,2.786,0.03c1.197,0.014,2.393,0.025,3.589,0.042c0.937,0.011,1.871,0.024,2.806,0.037    c1.184,0.018,2.368,0.034,3.547,0.053c0.953,0.016,1.901,0.032,2.851,0.048c1.149,0.02,2.299,0.042,3.445,0.063    c0.973,0.019,1.943,0.038,2.914,0.06c1.123,0.024,2.245,0.046,3.363,0.071c0.991,0.023,1.977,0.046,2.965,0.07    c1.094,0.027,2.186,0.053,3.278,0.081c0.996,0.025,1.987,0.053,2.979,0.08c1.079,0.028,2.157,0.058,3.233,0.09    c0.997,0.028,1.993,0.06,2.985,0.09c1.068,0.03,2.135,0.065,3.2,0.099c0.99,0.031,1.977,0.066,2.964,0.099    c1.059,0.035,2.117,0.071,3.171,0.11c0.996,0.035,1.988,0.073,2.982,0.109c1.039,0.038,2.075,0.079,3.11,0.118    c0.99,0.038,1.978,0.078,2.965,0.119c1.034,0.041,2.066,0.083,3.096,0.127c0.991,0.043,1.982,0.086,2.969,0.128    c1.012,0.045,2.022,0.091,3.029,0.137c0.988,0.044,1.976,0.09,2.961,0.138c1.007,0.046,2.012,0.097,3.017,0.147    c0.974,0.048,1.949,0.097,2.921,0.146c1.008,0.052,2.014,0.105,3.019,0.16c0.959,0.051,1.914,0.101,2.868,0.152    c1.012,0.057,2.019,0.115,3.027,0.17c0.936,0.054,1.875,0.107,2.808,0.162c1.01,0.06,2.018,0.119,3.025,0.18    c0.924,0.057,1.851,0.114,2.769,0.169c0.995,0.064,1.983,0.126,2.972,0.19c0.924,0.061,1.851,0.117,2.771,0.179    c1.004,0.066,2.001,0.136,3.002,0.205c0.882,0.06,1.769,0.119,2.648,0.18c1.021,0.072,2.035,0.147,3.048,0.219    c0.861,0.062,1.723,0.123,2.578,0.187c1.036,0.077,2.064,0.155,3.093,0.234c0.817,0.063,1.635,0.124,2.446,0.187    c1.206,0.095,2.403,0.192,3.598,0.289c0.623,0.049,1.251,0.099,1.87,0.15c1.812,0.15,3.611,0.302,5.399,0.457    c0.369,0.03,0.733,0.066,1.102,0.098c1.427,0.124,2.854,0.252,4.267,0.38c0.599,0.054,1.191,0.111,1.788,0.165    c1.164,0.109,2.327,0.217,3.483,0.327c0.68,0.065,1.348,0.132,2.023,0.198c1.071,0.105,2.144,0.209,3.207,0.314    c0.674,0.07,1.34,0.138,2.012,0.208c1.042,0.107,2.084,0.212,3.118,0.323c0.693,0.073,1.378,0.147,2.066,0.221    c1.003,0.109,2.006,0.215,2.999,0.325c0.682,0.075,1.356,0.154,2.033,0.231c0.988,0.11,1.977,0.221,2.954,0.334    c0.672,0.078,1.335,0.159,2.001,0.235c0.699,0.083,1.396,0.167,2.091,0.251l2.558,17.059c-0.731-0.089-1.477-0.176-2.216-0.263    c-0.792-0.093-1.579-0.189-2.377-0.281c-0.937-0.109-1.887-0.215-2.833-0.321c-0.765-0.088-1.525-0.176-2.296-0.26    c-1.31-0.146-2.634-0.289-3.96-0.43c-1.093-0.117-2.191-0.231-3.294-0.347c-1.03-0.106-2.055-0.214-3.093-0.317    c-0.847-0.086-1.706-0.168-2.559-0.253c-0.937-0.092-1.871-0.186-2.815-0.276c-0.872-0.084-1.754-0.165-2.632-0.248    c-0.932-0.088-1.862-0.176-2.801-0.261c-0.9-0.081-1.808-0.162-2.713-0.243c-0.933-0.082-1.864-0.165-2.801-0.246    c-0.916-0.08-1.839-0.158-2.761-0.235c-0.941-0.08-1.88-0.16-2.827-0.237c-0.928-0.077-1.861-0.153-2.795-0.226    c-0.949-0.075-1.897-0.152-2.851-0.226c-0.952-0.073-1.905-0.147-2.863-0.218c-0.95-0.073-1.902-0.143-2.856-0.215    c-0.96-0.071-1.922-0.141-2.888-0.21c-0.967-0.071-1.937-0.138-2.909-0.207c-0.967-0.069-1.933-0.134-2.904-0.199    c-0.981-0.068-1.966-0.132-2.952-0.197c-0.979-0.065-1.957-0.128-2.94-0.191c-0.991-0.064-1.987-0.124-2.982-0.187    c-0.978-0.061-1.955-0.12-2.936-0.18c-1.035-0.062-2.076-0.122-3.117-0.181c-0.956-0.056-1.91-0.111-2.871-0.165    c-1.097-0.061-2.203-0.12-3.306-0.18c-0.913-0.048-1.822-0.099-2.739-0.147c-1.242-0.065-2.496-0.127-3.746-0.19    c-0.787-0.038-1.57-0.08-2.36-0.119c-2.004-0.097-4.017-0.191-6.038-0.284c-0.82-0.035-1.645-0.071-2.467-0.106    c-1.246-0.055-2.49-0.111-3.743-0.162c-0.916-0.039-1.838-0.073-2.756-0.111c-1.17-0.048-2.339-0.095-3.514-0.141    c-0.937-0.034-1.879-0.069-2.82-0.101c-1.166-0.044-2.33-0.086-3.501-0.127c-0.961-0.033-1.928-0.064-2.891-0.097    c-1.149-0.037-2.298-0.075-3.45-0.11c-0.977-0.033-1.957-0.061-2.935-0.09c-1.159-0.035-2.319-0.069-3.483-0.1    c-0.977-0.027-1.958-0.053-2.939-0.08c-1.165-0.029-2.332-0.06-3.501-0.088c-0.985-0.024-1.97-0.048-2.958-0.071    c-1.166-0.026-2.334-0.052-3.504-0.077c-1.005-0.021-2.011-0.042-3.018-0.062c-1.168-0.022-2.339-0.044-3.511-0.065    c-0.989-0.017-1.977-0.035-2.967-0.051c-1.224-0.021-2.451-0.038-3.677-0.056c-0.955-0.015-1.91-0.027-2.867-0.042    c-1.256-0.016-2.514-0.029-3.774-0.043c-0.935-0.012-1.868-0.021-2.805-0.03c-1.311-0.013-2.625-0.024-3.94-0.034    c-0.889-0.007-1.776-0.015-2.666-0.02c-1.456-0.011-2.916-0.016-4.376-0.021c-0.748-0.005-1.495-0.009-2.245-0.011    c-2.212-0.008-4.427-0.011-6.645-0.011c-4.297,0-8.611,0.016-12.91,0.042c-0.136,0-0.271,0.002-0.407,0.003    c-3.986,0.025-7.96,0.063-11.894,0.111c-0.012,0-0.025,0.002-0.036,0.002c-0.244,0.002-0.492,0.005-0.734,0.007    c-4.66,0.061-8.39,3.886-8.332,8.548c0.062,4.661,3.931,8.387,8.548,8.332c2.852-0.037,5.739-0.06,8.619-0.083    c1.474-0.011,2.934-0.031,4.41-0.041c4.243-0.025,8.502-0.041,12.738-0.041c2.229,0,4.457,0.003,6.68,0.011    c0.719,0.002,1.432,0.009,2.15,0.011c1.499,0.007,3,0.011,4.495,0.021c0.889,0.006,1.776,0.015,2.664,0.023    c1.319,0.009,2.639,0.02,3.954,0.031c0.94,0.01,1.877,0.021,2.814,0.033c1.267,0.013,2.534,0.027,3.798,0.043    c0.952,0.014,1.899,0.028,2.848,0.042c1.24,0.019,2.48,0.037,3.717,0.057c0.969,0.016,1.935,0.033,2.901,0.051    c1.215,0.022,2.431,0.044,3.641,0.069c0.97,0.019,1.935,0.039,2.902,0.06c1.201,0.026,2.405,0.053,3.602,0.079    c0.97,0.024,1.939,0.048,2.905,0.071c1.188,0.029,2.374,0.059,3.557,0.09c0.976,0.025,1.948,0.054,2.922,0.08    c1.169,0.033,2.338,0.068,3.503,0.101c0.972,0.028,1.942,0.061,2.912,0.09c1.162,0.037,2.326,0.073,3.486,0.114    c0.96,0.031,1.916,0.065,2.872,0.098c1.16,0.042,2.318,0.082,3.473,0.125c0.959,0.035,1.914,0.071,2.869,0.108    c1.141,0.045,2.279,0.09,3.414,0.136c0.959,0.037,1.915,0.077,2.871,0.118c1.137,0.046,2.271,0.097,3.401,0.145    c0.937,0.042,1.872,0.083,2.805,0.126c1.135,0.052,2.267,0.105,3.398,0.16c0.933,0.044,1.865,0.088,2.794,0.134    c1.117,0.055,2.229,0.114,3.342,0.17c0.927,0.047,1.852,0.095,2.775,0.144c1.12,0.06,2.234,0.12,3.348,0.181    c0.906,0.051,1.812,0.1,2.714,0.153c1.115,0.062,2.226,0.127,3.338,0.194c0.888,0.053,1.778,0.106,2.662,0.16    c1.129,0.068,2.251,0.138,3.374,0.21c0.853,0.053,1.708,0.106,2.557,0.162c1.146,0.073,2.283,0.151,3.421,0.227    c0.82,0.055,1.643,0.109,2.459,0.164c1.147,0.079,2.282,0.161,3.421,0.241c0.806,0.058,1.614,0.114,2.415,0.172    c1.17,0.086,2.331,0.173,3.492,0.261c0.746,0.055,1.498,0.111,2.24,0.168c1.223,0.094,2.435,0.191,3.648,0.288    c0.681,0.056,1.367,0.109,2.045,0.164c1.301,0.107,2.593,0.215,3.881,0.323c0.577,0.051,1.159,0.097,1.733,0.147    c1.736,0.149,3.461,0.302,5.176,0.457c0.117,0.009,0.237,0.02,0.354,0.029c1.848,0.168,3.683,0.34,5.506,0.512    c0.347,0.034,0.685,0.068,1.032,0.101c1.453,0.14,2.903,0.28,4.338,0.425c0.621,0.062,1.232,0.126,1.85,0.189    c1.151,0.117,2.306,0.235,3.447,0.354c0.698,0.073,1.385,0.149,2.079,0.223c1.051,0.114,2.101,0.226,3.141,0.341    c0.73,0.081,1.451,0.164,2.177,0.245c0.985,0.111,1.97,0.222,2.946,0.335c0.748,0.087,1.485,0.174,2.228,0.263    c0.945,0.112,1.894,0.224,2.831,0.338c0.743,0.09,1.476,0.182,2.213,0.275c0.686,0.086,1.373,0.17,2.055,0.258l7.392,49.315    l43.208,288.022C474.279,460.667,453.998,466.812,433.492,472.062z"/>
	</g>
</g>
<g>
</g>
<g>
</g>
<g>
</g>
<g>
</g>
<g>
</g>
<g>
</g>
<g>
</g>
<g>
</g>
<g>
</g>
<g>
</g>
<g>
</g>
<g>
</g>
<g>
</g>
<g>
</g>
<g>
</g>
</svg>
