<?xml version="1.0" encoding="iso-8859-1"?>
<!-- Generator: Adobe Illustrator 19.0.0, SVG Export Plug-In . SVG Version: 6.00 Build 0)  -->
<svg xmlns="http://www.w3.org/2000/svg" xmlns:xlink="http://www.w3.org/1999/xlink" version="1.1" id="Layer_1" x="0px" y="0px" viewBox="0 0 511.999 511.999" style="enable-background:new 0 0 511.999 511.999;" xml:space="preserve">
<g>
	<g>
		<g>
			<path d="M511.639,438.993c-0.06-0.595-0.106-1.189-0.182-1.784l-0.512-3.969l-31.017-240.39     c-4.243-32.96-32.502-57.818-65.737-57.818h-48.466v-25.319C365.725,49.217,316.507,0,256.01,0S146.296,49.217,146.296,109.714     v25.319H97.83c-33.234,0-61.493,24.857-65.737,57.817L0.564,437.214c-2.44,18.905,3.378,37.954,15.961,52.268     c6.293,7.156,13.978,12.785,22.471,16.626c0.833,0.377,1.679,0.722,2.525,1.063c0.233,0.093,0.459,0.2,0.692,0.291     c7.598,2.965,15.758,4.536,24.092,4.536h0.007h26.391H419.32h26.389h0.007c11.908,0,23.457-3.205,33.519-9.101     c6.039-3.541,11.541-8.048,16.261-13.417C507.685,475.618,513.503,457.308,511.639,438.993z M256.01,101.275     c-17.064,0-30.945,13.881-30.945,30.945v2.813h-16.879v-25.319c0-26.372,21.454-47.824,47.824-47.824     c26.372,0,47.824,21.452,47.824,47.824v25.319h-16.879v-2.813C286.955,115.156,273.074,101.275,256.01,101.275z M270.076,132.22     v2.813h-28.132v-2.813c0-7.757,6.309-14.066,14.066-14.066C263.767,118.154,270.076,124.463,270.076,132.22z M303.835,208.176     v14.066c0,17.064,13.88,30.945,30.945,30.945c17.064,0,30.945-13.881,30.945-30.945v-14.066h1.879c8.273,0,15,6.729,15,15v20.638     c0,8.271-6.727,15-15,15h-65.649c-8.271,0-15-6.729-15-15v-20.638c0-8.271,6.729-15,15-15H303.835z M163.175,199.736v-56.264     v-33.758c0-51.189,41.646-92.835,92.835-92.835c51.191,0,92.835,41.646,92.835,92.835v33.758v56.264v22.505     c0,7.757-6.309,14.066-14.066,14.066s-14.066-6.309-14.066-14.066v-22.505v-56.264v-33.758c0-35.678-29.026-64.703-64.703-64.703     c-35.677,0-64.703,29.025-64.703,64.703v33.758v56.264v22.505c0,7.757-6.309,14.066-14.066,14.066s-14.066-6.309-14.066-14.066     V199.736z M146.296,208.176v14.066c0,17.064,13.88,30.945,30.945,30.945c17.064,0,30.945-13.881,30.945-30.945v-14.066h1.879     c8.271,0,15,6.729,15,15v20.638c0,8.271-6.729,15-15,15h-65.648c-8.271,0-15-6.729-15-15v-20.638c0-8.271,6.729-15,15-15H146.296     z M482.807,478.344c-3.516,3.999-7.616,7.357-12.115,9.994c-0.083,0.049-0.171,0.092-0.255,0.141     c-0.668,0.387-1.34,0.763-2.024,1.115c-6.943,3.592-14.719,5.527-22.708,5.527h-18.611c-0.039-1.059-0.06-2.119-0.06-3.177     c0-19.542,6.826-38.597,19.22-53.655c2.963-3.599,2.446-8.918-1.153-11.88c-3.597-2.963-8.917-2.446-11.88,1.153     c-14.873,18.073-23.066,40.936-23.066,64.381c0,1.058,0.018,2.118,0.051,3.177H101.812c0.033-1.059,0.051-2.119,0.051-3.177     c0-23.304-8.105-46.063-22.819-64.083c-2.949-3.61-8.266-4.146-11.877-1.197c-3.609,2.948-4.146,8.265-1.197,11.875     c12.261,15.015,19.015,33.982,19.015,53.407c0,1.058-0.019,2.118-0.06,3.177H66.31c-6.215,0-12.299-1.171-17.963-3.38     c-7.277-2.841-13.861-7.4-19.136-13.396c-9.383-10.669-13.723-24.874-11.908-38.972l3.796-29.385     c7.2,1.799,14.117,4.545,20.647,8.204c4.066,2.279,9.207,0.83,11.488-3.235c2.279-4.066,0.83-9.21-3.235-11.488     c-8.424-4.721-17.389-8.161-26.732-10.299l25.567-198.163c3.163-24.569,24.226-43.096,48.996-43.096h48.466v39.385h-1.879     c-17.578,0-31.879,14.301-31.879,31.879v20.638c0,17.578,14.301,31.879,31.879,31.879h65.649     c17.578,0,31.879-14.301,31.879-31.879v-20.638c0-17.578-14.301-31.879-31.879-31.879h-1.879v-39.385h25.319h45.011h25.319     v39.385h-1.879c-17.578,0-31.879,14.301-31.879,31.879v20.638c0,17.578,14.301,31.879,31.879,31.879h65.649     c17.578,0,31.879-14.301,31.879-31.879v-20.638c0-17.578-14.301-31.879-31.879-31.879h-1.879v-39.385h48.466     c24.77,0,45.832,18.526,48.996,43.098l25.57,198.161c-9.475,2.17-18.556,5.671-27.08,10.492     c-4.057,2.294-5.486,7.444-3.191,11.501c2.297,4.059,7.444,5.485,11.501,3.191c6.615-3.742,13.628-6.542,20.936-8.369     l2.677,20.731l1.116,8.657c0.147,1.141,0.24,2.282,0.307,3.422C495.779,455.748,491.43,468.539,482.807,478.344z"/>
			<path d="M389.637,324.448c-1.308-11.757-11.213-20.624-23.044-20.624H145.427c-11.829,0-21.736,8.867-23.042,20.624     l-7.978,71.786c-0.727,6.545,1.376,13.114,5.767,18.022c4.394,4.907,10.691,7.722,17.277,7.722h237.117     c6.587,0,12.883-2.814,17.277-7.722c4.393-4.907,6.494-11.477,5.767-18.022L389.637,324.448z M379.266,402.998     c-0.701,0.784-2.246,2.1-4.699,2.1H137.451c-2.453,0-3.996-1.315-4.699-2.1c-0.701-0.784-1.839-2.464-1.569-4.902l7.976-71.785     c0.356-3.198,3.051-5.608,6.268-5.608h221.165c3.217,0,5.912,2.411,6.268,5.608l7.976,71.785     C381.106,400.534,379.97,402.214,379.266,402.998z"/>
			<path d="M357.274,348.835H154.724c-4.662,0-8.44,3.779-8.44,8.44s3.778,8.44,8.44,8.44h171.604v14.066     c0,4.661,3.778,8.44,8.44,8.44c4.662,0,8.44-3.779,8.44-8.44v-14.066h14.066c4.662,0,8.44-3.779,8.44-8.44     S361.936,348.835,357.274,348.835z"/>
		</g>
	</g>
</g>
<g>
</g>
<g>
</g>
<g>
</g>
<g>
</g>
<g>
</g>
<g>
</g>
<g>
</g>
<g>
</g>
<g>
</g>
<g>
</g>
<g>
</g>
<g>
</g>
<g>
</g>
<g>
</g>
<g>
</g>
</svg>
