<?xml version="1.0" encoding="iso-8859-1"?>
<!-- Generator: Adobe Illustrator 19.0.0, SVG Export Plug-In . SVG Version: 6.00 Build 0)  -->
<svg xmlns="http://www.w3.org/2000/svg" xmlns:xlink="http://www.w3.org/1999/xlink" version="1.1" id="Layer_1" x="0px" y="0px" viewBox="0 0 512 512" style="enable-background:new 0 0 512 512;" xml:space="preserve">
<g>
	<g>
		<g>
			<path d="M419.165,225.055h-6.453c-5.369-22.424-16.555-43.144-32.781-60.191c-17.634-18.529-28.531-42.371-30.686-67.134     l-0.001-0.002v-0.006c-0.269-3.069-0.406-6.2-0.406-9.308v-1.205C348.836,39.121,309.715,0,261.627,0H149.1     c-0.056,0-0.11,0.007-0.164,0.008c-0.165,0.001-0.33-0.009-0.494-0.008c-47.725,0.358-86.55,39.926-86.55,88.199v335.422     c0,48.571,38.986,88.218,86.912,88.379c0.092,0,0.185,0,0.277,0c0.009,0,0.017,0,0.024,0h112.524     c48.087,0,87.209-39.121,87.209-87.209v-1.204c0-3.109,0.137-6.241,0.406-9.308v-0.004l0.001-0.003     c2.155-24.764,13.053-48.605,30.686-67.133c16.226-17.048,27.413-37.768,32.781-60.192h6.453     c17.064,0,30.945-13.881,30.945-30.945S436.229,225.055,419.165,225.055z M341.871,137.03     c-18.045-8.785-37.454-13.25-57.739-13.25c-20.252,0-39.628,4.449-57.647,13.204c4.051-9.644,6.897-19.736,8.444-30.083h98.415     C334.908,117.238,337.801,127.356,341.871,137.03z M261.627,16.877v0.002c38.779,0,70.33,31.55,70.33,70.33v1.204     c0,0.536,0.003,1.072,0.01,1.609h-95.669c0.007-0.537,0.01-1.073,0.01-1.609v-1.204c0-1.273-0.037-2.537-0.091-3.798     c-0.013-0.295-0.025-0.591-0.04-0.886c-0.064-1.2-0.149-2.393-0.259-3.578c-0.029-0.314-0.068-0.627-0.101-0.938     c-0.095-0.915-0.207-1.823-0.33-2.73c-0.057-0.407-0.109-0.818-0.169-1.224c-0.154-1.005-0.325-2.002-0.512-2.995     c-0.113-0.6-0.234-1.197-0.358-1.796c-0.099-0.466-0.204-0.932-0.309-1.395c-0.286-1.266-0.6-2.525-0.943-3.774     c-0.038-0.145-0.077-0.29-0.117-0.434c-3.904-13.984-11.264-26.846-21.685-37.485c-3.35-3.42-6.934-6.514-10.701-9.297H261.627z      M194.465,66.295c0.214-0.69,0.437-1.376,0.672-2.058c0.122-0.357,0.251-0.712,0.38-1.067c0.235-0.646,0.478-1.288,0.73-1.925     c0.138-0.349,0.277-0.697,0.42-1.043c0.284-0.68,0.582-1.354,0.886-2.024c0.128-0.284,0.252-0.57,0.383-0.852     c0.446-0.948,0.91-1.888,1.398-2.818c0.025-0.044,0.051-0.088,0.073-0.131c0.465-0.879,0.951-1.749,1.455-2.607     c0.167-0.286,0.344-0.567,0.515-0.851c0.374-0.618,0.753-1.233,1.148-1.841c0.207-0.318,0.417-0.635,0.63-0.951     c0.386-0.577,0.781-1.148,1.186-1.712c0.218-0.305,0.438-0.611,0.659-0.915c0.115-0.155,0.237-0.305,0.352-0.457     c6.78,9.02,11.442,19.716,13.246,31.347c0.024,0.147,0.042,0.295,0.063,0.445c0.136,0.914,0.253,1.834,0.351,2.758     c0.033,0.303,0.064,0.604,0.092,0.909c0.076,0.812,0.137,1.629,0.187,2.451c0.02,0.312,0.042,0.623,0.056,0.936     c0.052,1.101,0.084,2.208,0.084,3.32v1.204c0,1.609-0.041,3.214-0.113,4.815c-0.034,0.763-0.099,1.517-0.15,2.274     c-0.053,0.818-0.097,1.636-0.17,2.451c-0.09,1.016-0.213,2.031-0.333,3.043c-0.062,0.539-0.116,1.08-0.187,1.618     c-0.167,1.24-0.361,2.477-0.572,3.71c-0.046,0.27-0.086,0.539-0.132,0.81c-0.261,1.47-0.549,2.932-0.872,4.392     c-0.001,0.003-0.001,0.006-0.002,0.008c-3.886,17.578-12.182,34.226-24.085,48.301c-0.455,0.538-0.896,1.081-1.36,1.61     c-0.052,0.057-0.106,0.115-0.156,0.171V87.209c0-1.071,0.028-2.138,0.077-3.203c0.016-0.339,0.042-0.677,0.062-1.016     c0.043-0.727,0.093-1.454,0.159-2.177c0.034-0.389,0.075-0.776,0.117-1.165c0.073-0.684,0.155-1.367,0.248-2.046     c0.053-0.383,0.106-0.765,0.162-1.148c0.111-0.721,0.235-1.438,0.369-2.156c0.06-0.32,0.113-0.643,0.176-0.962     c0.205-1.031,0.429-2.055,0.679-3.074c0.008-0.025,0.016-0.051,0.021-0.075c0.248-0.99,0.517-1.973,0.806-2.949     C194.265,66.921,194.368,66.608,194.465,66.295z M191.025,481.272c-0.236,0.176-0.479,0.342-0.718,0.514     c-0.643,0.466-1.286,0.926-1.943,1.371c-0.323,0.216-0.65,0.425-0.976,0.636c-0.585,0.383-1.174,0.76-1.768,1.121     c-0.353,0.216-0.711,0.425-1.068,0.635c-0.584,0.341-1.17,0.675-1.763,0.999c-0.365,0.2-0.73,0.398-1.101,0.591     c-0.604,0.317-1.214,0.621-1.827,0.919c-0.36,0.176-0.719,0.353-1.083,0.523c-0.662,0.307-1.331,0.6-2.001,0.887     c-0.318,0.137-0.637,0.281-0.96,0.413c-0.893,0.367-1.797,0.713-2.704,1.043c-0.102,0.037-0.203,0.08-0.305,0.117     c-1.013,0.362-2.036,0.698-3.064,1.012c-0.318,0.097-0.639,0.18-0.956,0.271c-0.715,0.208-1.43,0.41-2.153,0.594     c-0.403,0.104-0.81,0.196-1.218,0.292c-0.643,0.154-1.291,0.302-1.94,0.437c-0.438,0.089-0.877,0.172-1.317,0.255     c-0.631,0.118-1.264,0.228-1.899,0.329c-0.447,0.071-0.895,0.14-1.344,0.203c-0.648,0.09-1.299,0.167-1.95,0.24     c-0.434,0.047-0.868,0.099-1.303,0.138c-0.718,0.068-1.438,0.116-2.161,0.16c-0.371,0.023-0.739,0.054-1.111,0.071     c-1.094,0.05-2.191,0.08-3.293,0.08c-0.002,0-0.003,0-0.006,0h-0.012c-0.074,0-0.15,0-0.224,0     c-38.649-0.129-70.09-32.204-70.09-71.5V88.199c0-39.036,31.311-71.031,69.795-71.32c0.167-0.001,0.33-0.001,0.494-0.002     c0.013,0,0.026,0.002,0.039,0.002c1.171,0,2.336,0.03,3.493,0.089c0.164,0.008,0.327,0.024,0.491,0.029     c1.015,0.059,2.029,0.132,3.033,0.233c0.136,0.013,0.27,0.028,0.406,0.044c13.943,1.468,26.684,7.031,36.998,15.456     c-0.808,1.008-1.589,2.032-2.347,3.068c-0.219,0.3-0.424,0.609-0.639,0.91c-0.556,0.78-1.106,1.563-1.635,2.359     c-0.271,0.408-0.53,0.823-0.792,1.236c-0.453,0.706-0.9,1.416-1.331,2.134c-0.269,0.449-0.531,0.902-0.791,1.354     c-0.403,0.701-0.798,1.407-1.18,2.118c-0.252,0.464-0.497,0.928-0.738,1.395c-0.376,0.727-0.736,1.461-1.09,2.198     c-0.218,0.455-0.441,0.909-0.653,1.369c-0.365,0.799-0.712,1.606-1.056,2.415c-0.169,0.404-0.349,0.805-0.514,1.213     c-0.445,1.095-0.862,2.199-1.259,3.313c-0.044,0.124-0.097,0.248-0.141,0.374c-0.438,1.241-0.842,2.495-1.223,3.757     c-0.116,0.381-0.214,0.77-0.325,1.151c-0.253,0.883-0.5,1.771-0.727,2.664c-0.12,0.483-0.23,0.968-0.343,1.453     c-0.189,0.805-0.371,1.613-0.537,2.423c-0.106,0.52-0.205,1.043-0.3,1.566c-0.145,0.791-0.281,1.587-0.406,2.384     c-0.083,0.528-0.162,1.055-0.236,1.587c-0.114,0.818-0.208,1.637-0.298,2.46c-0.055,0.51-0.116,1.017-0.163,1.529     c-0.081,0.899-0.142,1.803-0.196,2.705c-0.026,0.438-0.064,0.87-0.083,1.309c-0.058,1.341-0.094,2.687-0.094,4.037v94.857     c-9.143,13.561-15.726,28.791-19.326,44.995c-0.028,0.125-0.06,0.25-0.086,0.375c-0.002,0.008-0.003,0.016-0.005,0.024     c-0.207,0.943-0.398,1.888-0.585,2.837c-0.046,0.239-0.101,0.474-0.147,0.712c-0.051,0.263-0.094,0.53-0.143,0.796     c-0.188,1.022-0.36,2.046-0.526,3.074c-0.024,0.158-0.053,0.311-0.076,0.468c-0.077,0.487-0.158,0.973-0.228,1.462     c-0.005,0.042-0.009,0.083-0.017,0.125c-0.124,0.872-0.232,1.752-0.34,2.629c-0.046,0.371-0.101,0.739-0.144,1.111     c-0.025,0.21-0.045,0.42-0.068,0.63c-0.115,1.024-0.207,2.055-0.297,3.086c-0.03,0.365-0.073,0.729-0.1,1.096     c-0.023,0.273-0.049,0.548-0.069,0.825c-0.002,0.033-0.002,0.069-0.004,0.101c-0.074,1.026-0.12,2.057-0.171,3.088     c-0.016,0.347-0.043,0.688-0.057,1.035c-0.002,0.068-0.004,0.136-0.007,0.205c-0.069,1.748-0.113,3.501-0.113,5.262     c0,1.761,0.044,3.514,0.113,5.262c0.002,0.07,0.004,0.137,0.007,0.206c0.015,0.347,0.042,0.688,0.057,1.034     c0.051,1.031,0.097,2.062,0.171,3.088c0.002,0.033,0.002,0.069,0.004,0.102c0.02,0.276,0.046,0.549,0.069,0.824     c0.027,0.366,0.07,0.73,0.1,1.096c0.09,1.031,0.182,2.061,0.297,3.086c0.023,0.21,0.042,0.42,0.068,0.63     c0.043,0.371,0.098,0.739,0.144,1.111c0.108,0.877,0.215,1.757,0.34,2.63c0.008,0.042,0.012,0.082,0.017,0.123     c0.071,0.491,0.152,0.976,0.228,1.465c0.024,0.156,0.053,0.311,0.078,0.468c0.164,1.026,0.336,2.05,0.524,3.071     c0.048,0.267,0.092,0.533,0.143,0.798c0.046,0.239,0.101,0.475,0.147,0.713c0.187,0.949,0.378,1.895,0.585,2.837l0.004,0.024     c0.026,0.123,0.056,0.246,0.084,0.369c3.599,16.206,10.184,31.44,19.327,45.001v94.855c0,1.35,0.036,2.696,0.097,4.036     c0.02,0.438,0.057,0.871,0.083,1.308c0.054,0.905,0.115,1.808,0.196,2.707c0.047,0.511,0.108,1.017,0.163,1.526     c0.09,0.823,0.185,1.644,0.298,2.462c0.073,0.529,0.153,1.057,0.236,1.584c0.125,0.799,0.261,1.596,0.406,2.389     c0.097,0.521,0.196,1.042,0.3,1.561c0.165,0.811,0.348,1.618,0.537,2.424c0.114,0.486,0.222,0.971,0.343,1.455     c0.226,0.892,0.474,1.776,0.725,2.658c0.11,0.385,0.212,0.774,0.326,1.156c0.382,1.261,0.785,2.515,1.222,3.756     c0.047,0.132,0.102,0.261,0.149,0.393c0.396,1.106,0.811,2.204,1.251,3.295c0.167,0.41,0.349,0.815,0.52,1.223     c0.341,0.806,0.685,1.608,1.051,2.404c0.212,0.461,0.434,0.918,0.655,1.377c0.351,0.734,0.712,1.465,1.086,2.189     c0.243,0.47,0.491,0.937,0.74,1.403c0.383,0.708,0.774,1.409,1.176,2.107c0.262,0.456,0.527,0.913,0.798,1.365     c0.429,0.713,0.871,1.418,1.321,2.119c0.268,0.416,0.528,0.835,0.802,1.248c0.522,0.787,1.066,1.56,1.616,2.33     c0.221,0.311,0.433,0.63,0.662,0.94c0.766,1.048,1.554,2.082,2.37,3.098C192.72,479.98,191.878,480.636,191.025,481.272z      M199.333,457.491c-0.488-0.927-0.952-1.867-1.395-2.815c-0.133-0.282-0.258-0.569-0.385-0.854     c-0.305-0.67-0.602-1.341-0.883-2.022c-0.145-0.347-0.284-0.695-0.422-1.044c-0.253-0.637-0.495-1.277-0.729-1.922     c-0.129-0.356-0.26-0.712-0.383-1.069c-0.234-0.682-0.456-1.368-0.671-2.057c-0.097-0.314-0.2-0.627-0.293-0.943     c-0.289-0.977-0.558-1.959-0.806-2.949c-0.006-0.025-0.013-0.051-0.021-0.077c-0.251-1.017-0.475-2.042-0.679-3.073     c-0.064-0.32-0.117-0.643-0.176-0.963c-0.134-0.717-0.258-1.434-0.369-2.156c-0.057-0.381-0.11-0.764-0.162-1.147     c-0.092-0.68-0.173-1.362-0.248-2.046c-0.042-0.388-0.083-0.775-0.117-1.166c-0.065-0.722-0.116-1.449-0.159-2.176     c-0.019-0.34-0.046-0.677-0.062-1.017c-0.05-1.064-0.078-2.131-0.078-3.203v-74.409c0.05,0.055,0.102,0.109,0.151,0.165     c0.485,0.549,0.944,1.116,1.417,1.673c11.877,14.064,20.156,30.69,24.035,48.243c0.001,0.002,0.001,0.005,0.002,0.008     c0.323,1.458,0.611,2.923,0.872,4.392c0.046,0.27,0.086,0.54,0.132,0.81c0.21,1.234,0.404,2.47,0.572,3.71     c0.071,0.539,0.125,1.079,0.187,1.618c0.12,1.013,0.243,2.027,0.333,3.043c0.073,0.816,0.117,1.634,0.17,2.451     c0.051,0.758,0.115,1.512,0.15,2.274c0.071,1.601,0.113,3.207,0.113,4.815v1.204c0,1.079-0.03,2.153-0.079,3.224     c-0.016,0.354-0.042,0.71-0.064,1.063c-0.043,0.716-0.092,1.429-0.156,2.138c-0.038,0.419-0.081,0.836-0.126,1.254     c-0.07,0.648-0.151,1.293-0.239,1.939c-0.06,0.431-0.117,0.864-0.183,1.293c-0.1,0.65-0.216,1.294-0.335,1.94     c-0.074,0.405-0.141,0.811-0.222,1.214c-0.196,0.97-0.411,1.935-0.648,2.894c-0.114,0.46-0.245,0.915-0.367,1.374     c-0.147,0.542-0.293,1.086-0.449,1.625c-0.153,0.518-0.317,1.031-0.483,1.544c-0.15,0.47-0.304,0.94-0.464,1.405     c-0.182,0.531-0.369,1.06-0.565,1.584c-0.162,0.44-0.334,0.873-0.504,1.309c-0.212,0.537-0.421,1.072-0.646,1.602     c-0.17,0.403-0.352,0.8-0.531,1.198c-0.466,1.047-0.959,2.082-1.477,3.106c-0.173,0.343-0.339,0.688-0.518,1.027     c-0.276,0.523-0.568,1.037-0.856,1.553c-0.221,0.395-0.44,0.788-0.668,1.177c-0.29,0.498-0.593,0.992-0.899,1.483     c-0.248,0.401-0.498,0.799-0.756,1.196c-0.307,0.475-0.619,0.95-0.938,1.418c-0.281,0.412-0.574,0.818-0.864,1.225     c-0.316,0.442-0.629,0.887-0.956,1.322c-0.02,0.029-0.044,0.056-0.065,0.084c-0.122-0.163-0.249-0.32-0.368-0.482     c-0.226-0.306-0.448-0.615-0.668-0.925c-0.402-0.562-0.794-1.129-1.178-1.701c-0.213-0.318-0.426-0.637-0.635-0.96     c-0.393-0.605-0.771-1.216-1.143-1.833c-0.171-0.286-0.352-0.568-0.519-0.857c-0.501-0.855-0.985-1.718-1.447-2.593     C199.388,457.587,199.359,457.54,199.333,457.491z M331.957,423.587v1.204c0,38.779-31.55,70.33-70.33,70.33h-60.929     c0.044-0.033,0.086-0.068,0.129-0.099c0.212-0.156,0.415-0.322,0.625-0.479c0.831-0.626,1.651-1.264,2.46-1.92     c0.334-0.271,0.665-0.548,0.995-0.824c0.711-0.592,1.412-1.197,2.104-1.815c0.305-0.27,0.611-0.539,0.911-0.815     c0.961-0.879,1.912-1.776,2.839-2.702l0.008-0.008l0.002-0.001v-0.001h0.002c0.205-0.206,0.404-0.411,0.601-0.616     c0.006-0.006,0.015-0.011,0.019-0.018c0.016-0.015,0.026-0.029,0.042-0.043c0.024-0.025,0.048-0.049,0.072-0.074     c0.015-0.013,0.024-0.027,0.036-0.042c0.277-0.285,0.539-0.582,0.812-0.869c0.59-0.625,1.186-1.245,1.755-1.881     c0.361-0.403,0.706-0.818,1.058-1.228c0.589-0.68,1.178-1.362,1.744-2.057c0.302-0.372,0.587-0.754,0.881-1.131     c0.589-0.752,1.179-1.503,1.743-2.272c0.24-0.327,0.465-0.662,0.699-0.991c0.593-0.833,1.185-1.668,1.745-2.518     c0.18-0.273,0.349-0.554,0.525-0.829c0.591-0.916,1.176-1.838,1.73-2.775c0.132-0.221,0.252-0.447,0.38-0.671     c0.582-1,1.151-2.005,1.688-3.026c0.088-0.164,0.167-0.334,0.253-0.498c0.563-1.084,1.109-2.175,1.626-3.279     c0.054-0.117,0.101-0.234,0.155-0.35c0.533-1.157,1.048-2.323,1.528-3.502c0.035-0.083,0.065-0.17,0.099-0.255     c0.491-1.212,0.959-2.433,1.393-3.667c0.025-0.069,0.046-0.138,0.069-0.208c0.438-1.249,0.851-2.508,1.231-3.779     c0.02-0.073,0.039-0.148,0.063-0.223c0.374-1.266,0.726-2.54,1.042-3.823c0.028-0.115,0.048-0.231,0.077-0.345     c0.302-1.245,0.584-2.497,0.83-3.758c0.041-0.206,0.069-0.415,0.108-0.622c0.221-1.173,0.431-2.35,0.603-3.534     c0.054-0.363,0.087-0.731,0.135-1.097c0.137-1.035,0.277-2.072,0.378-3.115c0.062-0.629,0.091-1.261,0.138-1.892     c0.06-0.789,0.134-1.574,0.172-2.368c0.069-1.431,0.105-2.868,0.105-4.311v-1.204c0-0.536-0.003-1.072-0.01-1.609h95.669     C331.96,422.515,331.957,423.052,331.957,423.587z M333.345,405.099H234.93c-1.547-10.347-4.393-20.438-8.444-30.083     c18.019,8.755,37.395,13.204,57.647,13.204c20.286,0,39.695-4.465,57.738-13.25C337.801,384.644,334.908,394.763,333.345,405.099     z M399.357,261.105c-0.003,0.092-0.006,0.185-0.009,0.277c-0.009,0.169-0.026,0.338-0.034,0.509     c-0.074,1.471-0.17,2.937-0.302,4.401c-0.011,0.142-0.021,0.285-0.035,0.427c-0.148,1.615-0.334,3.221-0.549,4.82     c-0.02,0.143-0.036,0.286-0.056,0.429c-0.231,1.663-0.495,3.317-0.8,4.959c-0.226,1.242-0.48,2.479-0.747,3.711     c-0.102,0.467-0.214,0.931-0.321,1.396c-0.162,0.703-0.33,1.405-0.504,2.105c-0.171,0.679-0.347,1.354-0.53,2.028     c-0.105,0.386-0.214,0.77-0.32,1.152c-8.658,30.594-29.986,56.83-58.596,71.454c-16.307,8.341-33.945,12.568-52.422,12.568     c-18.477,0-36.115-4.228-52.422-12.567c-11.303-5.778-21.35-13.224-29.928-21.94c-0.407-0.443-0.805-0.896-1.222-1.333V335.5     c-0.011-0.013-0.024-0.025-0.034-0.036c-0.878-0.924-1.737-1.867-2.586-2.82c-0.161-0.182-0.323-0.363-0.484-0.547     c-1.805-2.055-3.541-4.169-5.189-6.336c0,0-0.002-0.003-0.005-0.006c-0.855-1.128-1.69-2.27-2.501-3.422     c0,0-0.003-0.003-0.005-0.006c-0.001-0.001-0.002-0.003-0.003-0.004c-3.368-4.78-6.342-9.773-8.92-14.935     c-0.078-0.158-0.159-0.314-0.235-0.471c-0.574-1.161-1.124-2.33-1.658-3.509c-0.117-0.261-0.233-0.526-0.349-0.789     c-0.428-0.965-0.841-1.938-1.24-2.914c-0.115-0.279-0.235-0.557-0.347-0.837c-0.423-1.055-0.824-2.121-1.214-3.189     c-0.169-0.461-0.336-0.924-0.499-1.389c-0.33-0.935-0.646-1.874-0.95-2.817c-0.182-0.562-0.353-1.126-0.527-1.69     c-0.218-0.711-0.429-1.425-0.631-2.138c-0.136-0.482-0.273-0.962-0.405-1.445c-0.028-0.11-0.059-0.221-0.088-0.332     c-0.252-0.945-0.495-1.895-0.722-2.848c-0.115-0.484-0.225-0.969-0.335-1.456c-0.011-0.052-0.024-0.104-0.034-0.156     c-0.174-0.774-0.34-1.551-0.495-2.327c-0.079-0.383-0.152-0.765-0.224-1.147c-0.053-0.266-0.104-0.529-0.154-0.794     c-0.143-0.774-0.275-1.552-0.404-2.332c-0.101-0.625-0.2-1.249-0.293-1.877c-0.115-0.767-0.213-1.538-0.309-2.309     c-0.076-0.603-0.154-1.207-0.221-1.813c-0.007-0.06-0.012-0.118-0.019-0.178c-0.083-0.771-0.154-1.544-0.222-2.318     c-0.052-0.599-0.112-1.196-0.156-1.797c-0.066-0.915-0.113-1.833-0.156-2.751c-0.019-0.392-0.046-0.782-0.062-1.174     c-0.007-0.208-0.015-0.414-0.021-0.62c-0.044-1.322-0.074-2.644-0.074-3.97c0-1.328,0.03-2.649,0.074-3.969     c0.008-0.207,0.016-0.413,0.021-0.62c0.016-0.394,0.043-0.784,0.062-1.177c0.044-0.917,0.09-1.835,0.156-2.748     c0.044-0.602,0.104-1.197,0.156-1.797c0.069-0.774,0.138-1.547,0.222-2.318c0.007-0.062,0.012-0.122,0.019-0.182     c0.068-0.604,0.144-1.206,0.219-1.808c0.099-0.771,0.197-1.541,0.311-2.309c0.09-0.63,0.191-1.254,0.293-1.879     c0.129-0.779,0.261-1.557,0.404-2.332c0.048-0.258,0.101-0.517,0.15-0.774c0.074-0.389,0.15-0.779,0.228-1.167     c0.158-0.778,0.323-1.554,0.495-2.327c0.008-0.035,0.017-0.072,0.026-0.108c0.113-0.502,0.224-1.005,0.344-1.503     c0.227-0.952,0.47-1.901,0.722-2.847c0.029-0.111,0.06-0.221,0.088-0.331c0.132-0.484,0.269-0.964,0.405-1.448     c0.203-0.712,0.412-1.425,0.629-2.132c0.174-0.569,0.349-1.139,0.531-1.708c0.305-0.937,0.62-1.871,0.945-2.8     c0.164-0.466,0.332-0.932,0.501-1.395c0.392-1.066,0.79-2.128,1.213-3.182c0.115-0.286,0.234-0.565,0.349-0.848     c0.398-0.971,0.811-1.939,1.237-2.901c0.118-0.266,0.233-0.532,0.352-0.798c0.532-1.176,1.081-2.345,1.654-3.504     c0.078-0.16,0.159-0.315,0.237-0.475c2.577-5.162,5.551-10.152,8.919-14.934c0.001,0,0.002-0.002,0.002-0.002     c0.002-0.002,0.003-0.005,0.006-0.008c2.373-3.377,4.958-6.651,7.71-9.783c0.15-0.168,0.298-0.336,0.448-0.503     c0.866-0.974,1.743-1.939,2.64-2.882c0.415-0.435,0.81-0.886,1.218-1.328c8.578-8.716,18.627-16.165,29.932-21.945     c16.307-8.34,33.945-12.568,52.422-12.568c18.477,0,36.115,4.228,52.422,12.567c28.62,14.63,49.954,40.88,58.608,71.5     c0.101,0.361,0.204,0.722,0.302,1.084c0.187,0.688,0.366,1.38,0.54,2.072c0.172,0.689,0.338,1.382,0.497,2.075     c0.109,0.468,0.221,0.938,0.323,1.409c0.269,1.238,0.523,2.479,0.752,3.726c0.3,1.633,0.565,3.278,0.793,4.932     c0.022,0.156,0.041,0.313,0.063,0.468c0.147,1.095,0.258,2.198,0.376,3.299c0.052,0.496,0.123,0.989,0.169,1.488     c0.013,0.147,0.024,0.297,0.036,0.446c0.144,1.627,0.259,3.259,0.334,4.896c0.005,0.092,0.006,0.185,0.009,0.277     c0.074,1.699,0.117,3.399,0.117,5.105C399.473,257.705,399.432,259.406,399.357,261.105z M419.165,270.066h-3.555     c0.019-0.173,0.032-0.349,0.048-0.522c0.01-0.096,0.018-0.191,0.027-0.287c0.074-0.761,0.145-1.524,0.208-2.285     c0.024-0.275,0.047-0.549,0.07-0.825c0.006-0.072,0.009-0.147,0.015-0.221c0.054-0.734,0.101-1.47,0.143-2.204     c0.02-0.32,0.042-0.639,0.057-0.959c0.003-0.051,0.003-0.1,0.007-0.15c0.037-0.755,0.065-1.512,0.089-2.27     c0.012-0.322,0.026-0.644,0.034-0.966c0.001-0.024,0.001-0.048,0.001-0.071c0.027-1.102,0.044-2.203,0.044-3.306     s-0.017-2.204-0.044-3.306c0-0.024,0-0.048-0.001-0.072c-0.008-0.323-0.022-0.645-0.034-0.967     c-0.024-0.758-0.052-1.515-0.089-2.27c-0.003-0.048-0.003-0.098-0.007-0.147c-0.016-0.314-0.037-0.628-0.056-0.942     c-0.043-0.744-0.09-1.488-0.145-2.23c-0.005-0.071-0.009-0.143-0.013-0.213c-0.021-0.26-0.043-0.519-0.066-0.779     c-0.064-0.787-0.136-1.572-0.213-2.357c-0.009-0.086-0.017-0.173-0.025-0.26c-0.017-0.172-0.029-0.349-0.048-0.522h3.555     c7.757,0,14.066,6.309,14.066,14.066S426.922,270.066,419.165,270.066z"/>
			<path d="M373.776,244.148c-4.659,0.173-8.293,4.09-8.12,8.747c0.038,1.031,0.059,2.066,0.059,3.106     c0,24.889-11.151,48.103-30.598,63.691c-14.595,11.705-32.224,17.892-50.984,17.892c-18.758,0-36.389-6.187-50.986-17.894     C213.702,304.103,202.55,280.889,202.55,256c0-24.889,11.151-48.102,30.599-63.691c14.595-11.704,32.226-17.892,50.984-17.892     c14.91,0,29.492,4.057,42.171,11.731c3.988,2.415,9.177,1.137,11.59-2.85c2.415-3.987,1.138-9.177-2.849-11.59     c-15.315-9.268-32.921-14.169-50.912-14.169c-22.316,0-44.174,7.672-61.541,21.602c-23.463,18.807-36.92,46.822-36.92,76.86     s13.457,58.053,36.918,76.857c17.37,13.932,39.227,21.604,61.544,21.604c22.318,0,44.174-7.672,61.541-21.603     c23.464-18.806,36.92-46.82,36.92-76.859c0-1.25-0.024-2.497-0.071-3.734C382.35,247.609,378.46,243.969,373.776,244.148z"/>
			<path d="M284.133,202.55c-4.661,0-8.44,3.778-8.44,8.44v56.264c0,4.661,3.779,8.44,8.44,8.44h33.758     c4.661,0,8.44-3.779,8.44-8.44s-3.779-8.44-8.44-8.44h-25.319v-47.824C292.572,206.327,288.793,202.55,284.133,202.55z"/>
		</g>
	</g>
</g>
<g>
</g>
<g>
</g>
<g>
</g>
<g>
</g>
<g>
</g>
<g>
</g>
<g>
</g>
<g>
</g>
<g>
</g>
<g>
</g>
<g>
</g>
<g>
</g>
<g>
</g>
<g>
</g>
<g>
</g>
</svg>
