<?xml version="1.0" encoding="iso-8859-1"?>
<!-- Generator: Adobe Illustrator 19.0.0, SVG Export Plug-In . SVG Version: 6.00 Build 0)  -->
<svg xmlns="http://www.w3.org/2000/svg" xmlns:xlink="http://www.w3.org/1999/xlink" version="1.1" id="Layer_1" x="0px" y="0px" viewBox="0 0 512 512" style="enable-background:new 0 0 512 512;" xml:space="preserve">
<g>
	<g>
		<path d="M454.926,256.2c-13.796-3.067-27.495-6.369-40.715-9.812h-0.001c-43.504-11.357-84.825-25.098-122.815-40.839    c-38.51-15.954-63.98-26.069-75.757-30.09l-32.731-21.821c-3.338-2.224-7.78-1.786-10.616,1.052    c-11.312,11.311-16.261,23.062-14.711,34.93c1.522,11.655,9.039,20.548,16.049,26.476c-12.897,8.513-28.597,12.996-49.421,14.284    h-0.002c-4.157,0.25-8.623,0.377-13.277,0.377c-20.297,0-35.955-4.961-44.092-13.971c-5.01-5.545-7.118-12.614-6.26-21.006    c0.549-5.389-2.129-10.607-6.826-13.291c-4.725-2.699-10.385-2.373-14.77,0.856c-27.713,20.39-41.097,50.239-38.707,86.321v0.013    c1.598,24.15,9.749,43.863,12.491,49.901v22.522c0,9.744,7.925,17.67,17.67,17.67h439.496c23.198,0,42.07-18.872,42.07-42.07    C512,285.764,492.263,264.497,454.926,256.2z M211.929,200.04c0.462-0.721,0.92-1.451,1.375-2.19    c0.233-0.378,0.467-0.756,0.698-1.141c0.531-0.882,1.055-1.779,1.571-2.688c0.117-0.202,0.237-0.396,0.352-0.599    c13.109,4.816,36.251,14.094,69.028,27.672c34.336,14.228,71.322,26.844,110.13,37.576c-0.039,0.016-0.079,0.03-0.119,0.045    c-0.453,0.165-0.917,0.319-1.388,0.459c-0.078,0.024-0.162,0.045-0.241,0.068c-0.448,0.128-0.904,0.249-1.365,0.356    c-0.061,0.015-0.119,0.029-0.181,0.044c-0.5,0.113-1.01,0.213-1.525,0.305c-0.095,0.017-0.192,0.031-0.287,0.048    c-1.064,0.177-2.153,0.309-3.261,0.398c-0.077,0.006-0.157,0.013-0.233,0.02c-0.553,0.042-1.112,0.072-1.674,0.094    c-0.058,0.002-0.117,0.002-0.175,0.005c-0.567,0.021-1.136,0.033-1.709,0.033h-0.043c-0.586,0-1.176-0.01-1.767-0.028    c-0.067-0.002-0.136-0.004-0.203-0.007c-1.196-0.039-2.399-0.116-3.599-0.22c-0.037-0.003-0.075-0.008-0.113-0.01    c-0.607-0.055-1.214-0.117-1.819-0.186c-0.019-0.002-0.041-0.005-0.062-0.007c-1.23-0.14-2.451-0.309-3.656-0.499    c-0.025-0.003-0.048-0.009-0.073-0.011c-11.04-1.753-20.696-5.311-21.92-5.775c-0.006-0.001-0.01-0.003-0.015-0.005    c-0.06-0.022-0.1-0.039-0.112-0.044l-138.014-53.079C211.665,200.469,211.795,200.251,211.929,200.04z M179.671,171.706    l21.199,14.132c-0.099,0.174-0.197,0.347-0.297,0.517c-0.517,0.891-1.039,1.768-1.568,2.63c-0.145,0.237-0.288,0.478-0.435,0.712    c-0.656,1.052-1.323,2.081-1.997,3.087c-0.141,0.211-0.285,0.414-0.426,0.622c-0.554,0.814-1.115,1.61-1.681,2.391    c-0.193,0.266-0.386,0.534-0.58,0.794c-0.693,0.937-1.392,1.858-2.104,2.746c-0.007,0.008-0.011,0.016-0.018,0.024    c0,0-0.002,0.002-0.003,0.004l-0.001,0.002c-0.773,0.967-1.565,1.913-2.368,2.834c-0.27,0.312-0.551,0.607-0.826,0.912    c-0.537,0.6-1.075,1.2-1.625,1.779c-0.055,0.058-0.113,0.112-0.167,0.171c-6.103-4.602-11.627-10.9-12.507-17.624    C173.623,182.519,175.438,177.245,179.671,171.706z M43.595,201.158c0.387,10.278,4.041,19.478,10.752,26.908    c10.207,11.301,26.707,17.886,48.03,19.254c-0.126,0.044-0.259,0.085-0.387,0.129c-0.427,0.146-0.857,0.286-1.297,0.414    c-0.219,0.064-0.442,0.123-0.665,0.183c-0.415,0.11-0.837,0.213-1.264,0.307c-0.224,0.048-0.448,0.099-0.677,0.145    c-0.491,0.099-0.992,0.184-1.499,0.26c-0.164,0.024-0.324,0.057-0.491,0.079c-0.677,0.094-1.368,0.171-2.073,0.228    c-0.162,0.015-0.329,0.02-0.491,0.03c-0.553,0.039-1.113,0.071-1.684,0.089c-0.249,0.008-0.501,0.01-0.754,0.015    c-0.51,0.007-1.029,0.007-1.555-0.002c-0.263-0.002-0.527-0.007-0.793-0.017c-0.577-0.018-1.163-0.048-1.756-0.084    c-0.213-0.016-0.423-0.024-0.638-0.039c-0.812-0.061-1.639-0.136-2.484-0.229c-0.15-0.018-0.305-0.04-0.457-0.058    c-0.701-0.083-1.412-0.177-2.136-0.283c-0.292-0.044-0.589-0.092-0.884-0.138c-0.608-0.096-1.226-0.202-1.85-0.313    c-0.32-0.057-0.644-0.117-0.968-0.178c-0.657-0.125-1.328-0.259-2.005-0.403c-0.285-0.061-0.563-0.116-0.85-0.178    c-0.959-0.21-1.935-0.434-2.934-0.678c-0.127-0.031-0.263-0.067-0.393-0.1c-0.878-0.218-1.77-0.448-2.678-0.691    c-0.344-0.092-0.696-0.191-1.043-0.287c-0.719-0.199-1.444-0.402-2.18-0.617c-0.388-0.112-0.775-0.224-1.168-0.342    c-0.757-0.225-1.527-0.46-2.305-0.701c-0.356-0.111-0.706-0.216-1.065-0.331c-1.135-0.359-2.282-0.729-3.458-1.122    c-0.58-0.193-1.16-0.372-1.742-0.541c-0.191-0.055-0.381-0.101-0.572-0.154c-0.391-0.108-0.78-0.214-1.17-0.31    c-0.23-0.056-0.458-0.104-0.688-0.157c-0.351-0.081-0.703-0.162-1.056-0.232c-0.246-0.05-0.492-0.092-0.738-0.138    c-0.335-0.062-0.671-0.121-1.005-0.175c-0.255-0.04-0.509-0.075-0.763-0.11c-0.329-0.046-0.655-0.09-0.982-0.129    c-0.261-0.028-0.522-0.055-0.784-0.079c-0.318-0.031-0.637-0.059-0.957-0.082c-0.266-0.019-0.533-0.034-0.801-0.049    c-0.313-0.017-0.627-0.028-0.941-0.037c-0.269-0.009-0.537-0.015-0.808-0.018c-0.125-0.001-0.25-0.008-0.375-0.008    c-0.184,0-0.367,0.009-0.55,0.011c-0.278,0.005-0.558,0.009-0.835,0.019c-0.305,0.009-0.609,0.026-0.913,0.044    c-0.28,0.016-0.561,0.03-0.839,0.053c-0.304,0.024-0.607,0.055-0.91,0.085c-0.278,0.027-0.558,0.053-0.837,0.086    c-0.302,0.037-0.605,0.082-0.908,0.126c-0.279,0.039-0.558,0.076-0.837,0.122c-0.301,0.048-0.599,0.108-0.899,0.164    c-0.28,0.053-0.561,0.101-0.841,0.159c-0.303,0.064-0.605,0.136-0.908,0.208c-0.274,0.063-0.547,0.121-0.821,0.19    c-0.329,0.083-0.657,0.177-0.986,0.267c-0.505,0.14-1.009,0.291-1.515,0.449c-0.299,0.094-0.598,0.184-0.897,0.287    c-0.287,0.096-0.573,0.204-0.86,0.307c-0.285,0.102-0.568,0.201-0.85,0.31c-0.289,0.111-0.577,0.23-0.864,0.348    c-0.281,0.113-0.561,0.224-0.84,0.346c-0.288,0.122-0.576,0.255-0.862,0.384c-0.278,0.126-0.556,0.25-0.835,0.381    c-0.285,0.136-0.57,0.278-0.855,0.418c-0.276,0.138-0.554,0.276-0.832,0.421c-0.283,0.147-0.565,0.301-0.846,0.453    c-0.278,0.151-0.556,0.303-0.835,0.459c-0.278,0.159-0.555,0.321-0.832,0.486c-0.279,0.164-0.558,0.331-0.836,0.501    c-0.276,0.168-0.551,0.342-0.827,0.517c-0.276,0.177-0.554,0.357-0.832,0.541c-0.271,0.18-0.543,0.361-0.814,0.547    c-0.13,0.09-0.261,0.173-0.392,0.263C20.147,229.9,28.842,213.829,43.595,201.158z M320.345,326.116h20.567H493.73    c-3.472,9.794-12.83,16.828-23.801,16.828H30.432c-0.464,0-0.841-0.377-0.841-0.841v-15.987h208.109h40.761    c4.648,0,8.414-3.767,8.414-8.414c0-4.647-3.766-8.414-8.414-8.414h-40.761H26.653c-2.822-6.9-7.734-20.828-9.319-37.373    c0.024-0.025,0.047-0.055,0.072-0.082c0.215-0.245,0.432-0.466,0.647-0.702c0.521-0.572,1.04-1.144,1.562-1.679    c0.28-0.291,0.561-0.554,0.841-0.832c0.458-0.456,0.915-0.912,1.377-1.343c0.305-0.285,0.613-0.549,0.918-0.822    c0.436-0.388,0.872-0.779,1.308-1.144c0.32-0.267,0.639-0.515,0.958-0.77c0.424-0.338,0.849-0.675,1.272-0.988    c0.329-0.243,0.657-0.471,0.986-0.7c0.418-0.291,0.835-0.58,1.252-0.849c0.334-0.215,0.67-0.418,1.005-0.62    c0.412-0.249,0.826-0.491,1.24-0.719c0.338-0.186,0.677-0.362,1.015-0.535c0.412-0.209,0.822-0.407,1.235-0.596    c0.342-0.156,0.682-0.304,1.023-0.444c0.411-0.169,0.822-0.329,1.234-0.477c0.342-0.122,0.683-0.243,1.025-0.352    c0.412-0.131,0.826-0.248,1.236-0.357c0.343-0.091,0.684-0.182,1.025-0.259c0.415-0.093,0.83-0.167,1.243-0.24    c0.342-0.059,0.681-0.12,1.021-0.166c0.421-0.053,0.839-0.088,1.258-0.12c0.335-0.026,0.673-0.062,1.01-0.072    c0.426-0.017,0.855-0.009,1.282-0.002c0.329,0.004,0.657,0,0.986,0.018c0.444,0.024,0.89,0.076,1.336,0.127    c0.309,0.033,0.62,0.053,0.931,0.099c0.492,0.073,0.986,0.18,1.479,0.283c0.263,0.055,0.526,0.092,0.789,0.157    c0.756,0.182,1.513,0.396,2.267,0.647c0.881,0.293,1.764,0.582,2.649,0.867c0.254,0.081,0.508,0.16,0.763,0.241    c0.628,0.201,1.257,0.399,1.887,0.595c0.338,0.104,0.678,0.205,1.014,0.306c0.553,0.167,1.105,0.337,1.659,0.5    c0.363,0.107,0.726,0.209,1.092,0.312c0.528,0.153,1.056,0.305,1.587,0.453c0.38,0.105,0.763,0.208,1.145,0.31    c0.515,0.14,1.028,0.278,1.543,0.414c0.396,0.101,0.791,0.2,1.186,0.299c0.499,0.126,1.001,0.251,1.501,0.371    c0.407,0.1,0.818,0.192,1.226,0.287c0.488,0.112,0.976,0.223,1.465,0.332c0.416,0.091,0.832,0.177,1.25,0.264    c0.479,0.099,0.958,0.2,1.437,0.294c0.421,0.081,0.841,0.16,1.262,0.237c0.476,0.088,0.953,0.173,1.428,0.257    c0.423,0.071,0.844,0.138,1.264,0.205c0.473,0.073,0.945,0.147,1.416,0.213c0.425,0.062,0.849,0.118,1.273,0.172    c0.467,0.061,0.931,0.117,1.396,0.169c0.427,0.05,0.853,0.094,1.278,0.136c0.461,0.047,0.921,0.088,1.381,0.127    c0.426,0.034,0.853,0.066,1.277,0.094c0.458,0.03,0.912,0.055,1.368,0.076c0.425,0.022,0.85,0.039,1.271,0.052    c0.454,0.015,0.908,0.021,1.359,0.027c0.421,0.006,0.844,0.009,1.262,0.006c0.45-0.003,0.899-0.015,1.345-0.027    c0.418-0.011,0.837-0.022,1.253-0.042c0.444-0.022,0.89-0.053,1.333-0.083c0.414-0.028,0.828-0.057,1.239-0.094    c0.444-0.042,0.884-0.092,1.325-0.143c0.407-0.048,0.816-0.092,1.221-0.149c0.441-0.061,0.878-0.134,1.316-0.206    c0.401-0.066,0.802-0.127,1.199-0.202c0.44-0.083,0.874-0.182,1.31-0.276c0.392-0.083,0.782-0.164,1.17-0.257    c0.443-0.107,0.881-0.231,1.319-0.351c0.375-0.103,0.753-0.197,1.126-0.309c0.449-0.136,0.893-0.291,1.338-0.44    c0.356-0.12,0.715-0.231,1.069-0.358c0.478-0.175,0.951-0.371,1.426-0.563c0.311-0.127,0.627-0.241,0.938-0.375    c0.671-0.289,1.334-0.604,1.994-0.93c0.239-0.117,0.478-0.241,0.715-0.365c0.629-0.325,1.255-0.659,1.874-1.019    c0.282-0.164,0.556-0.35,0.836-0.522c0.463-0.286,0.93-0.567,1.388-0.874c0.307-0.205,0.609-0.432,0.913-0.648    c0.422-0.3,0.846-0.591,1.262-0.91c0.311-0.239,0.617-0.497,0.927-0.747c0.399-0.322,0.799-0.639,1.193-0.981    c0.311-0.268,0.616-0.56,0.924-0.841c0.38-0.348,0.763-0.691,1.138-1.059c0.306-0.301,0.609-0.62,0.912-0.933    c0.365-0.377,0.729-0.752,1.089-1.147c0.301-0.331,0.596-0.68,0.892-1.024c0.351-0.407,0.703-0.818,1.048-1.244    c0.292-0.359,0.577-0.735,0.863-1.11c0.229-0.3,0.464-0.58,0.69-0.886c27.18-2.287,47.584-10.211,63.963-24.782    c0.909-0.807,1.805-1.648,2.695-2.503c0.199-0.191,0.397-0.38,0.593-0.573c0.867-0.85,1.729-1.718,2.575-2.611    c0.12-0.126,0.237-0.256,0.354-0.383c0.439-0.467,0.876-0.933,1.308-1.411l142.519,54.808c0.039,0.017,0.099,0.039,0.168,0.067    c0.011,0.005,0.025,0.01,0.038,0.016c0.056,0.022,0.119,0.046,0.192,0.074c0.04,0.016,0.083,0.031,0.129,0.048    c0.057,0.024,0.116,0.046,0.181,0.071c0.062,0.024,0.121,0.046,0.188,0.072c0.075,0.028,0.159,0.059,0.243,0.09    c0.061,0.024,0.116,0.046,0.181,0.07c0.154,0.056,0.314,0.117,0.489,0.18c0.066,0.025,0.139,0.05,0.208,0.075    c0.121,0.044,0.243,0.088,0.374,0.134c0.088,0.031,0.178,0.064,0.269,0.096c0.13,0.046,0.263,0.092,0.401,0.14    c0.091,0.031,0.182,0.064,0.276,0.096c0.158,0.056,0.32,0.112,0.488,0.168c0.09,0.03,0.176,0.062,0.268,0.092    c0.191,0.064,0.389,0.13,0.59,0.199c0.081,0.027,0.158,0.054,0.239,0.08c0.276,0.091,0.561,0.184,0.856,0.279    c0.096,0.031,0.197,0.065,0.296,0.095c0.212,0.068,0.427,0.137,0.648,0.206c0.121,0.038,0.245,0.076,0.368,0.116    c0.211,0.066,0.427,0.132,0.646,0.2c0.129,0.04,0.259,0.08,0.39,0.119c0.236,0.071,0.476,0.142,0.719,0.214    c0.121,0.036,0.241,0.072,0.362,0.108c0.333,0.099,0.673,0.195,1.019,0.295c0.037,0.011,0.073,0.024,0.112,0.031    c0.384,0.11,0.775,0.219,1.175,0.329c0.117,0.031,0.234,0.064,0.352,0.094c0.291,0.081,0.583,0.159,0.882,0.237    c0.143,0.039,0.287,0.075,0.432,0.113c0.287,0.075,0.578,0.15,0.871,0.224c0.147,0.037,0.294,0.074,0.442,0.111    c0.321,0.081,0.647,0.162,0.976,0.24c0.12,0.029,0.239,0.059,0.36,0.087c0.456,0.108,0.918,0.217,1.387,0.323    c0.027,0.006,0.056,0.012,0.082,0.019c0.438,0.099,0.878,0.195,1.327,0.292c0.132,0.028,0.269,0.057,0.404,0.085    c0.348,0.073,0.699,0.147,1.053,0.219c0.155,0.03,0.309,0.062,0.466,0.092c0.352,0.071,0.707,0.138,1.064,0.206    c0.149,0.027,0.298,0.056,0.448,0.083c0.43,0.08,0.863,0.157,1.299,0.232c0.071,0.013,0.143,0.026,0.213,0.037    c0.525,0.09,1.052,0.176,1.585,0.259c0.074,0.012,0.15,0.022,0.223,0.034c0.444,0.07,0.892,0.136,1.343,0.197    c0.149,0.022,0.301,0.042,0.451,0.063c0.386,0.053,0.772,0.104,1.161,0.153c0.164,0.021,0.325,0.04,0.49,0.062    c0.403,0.048,0.808,0.094,1.215,0.138c0.137,0.015,0.273,0.029,0.409,0.044c1.098,0.114,2.206,0.21,3.321,0.285    c0.113,0.008,0.227,0.013,0.34,0.02c0.44,0.028,0.88,0.053,1.32,0.074c0.16,0.008,0.32,0.015,0.481,0.02    c0.403,0.018,0.808,0.03,1.212,0.043c0.166,0.003,0.333,0.009,0.499,0.012c0.435,0.009,0.872,0.013,1.308,0.016    c0.093,0,0.186,0.002,0.279,0.002c0.021,0,0.043,0,0.063,0c0.826,0,1.654-0.018,2.478-0.046c0.105-0.004,0.21-0.007,0.312-0.011    c0.81-0.033,1.619-0.081,2.425-0.142c0.112-0.009,0.223-0.018,0.335-0.026c0.808-0.066,1.613-0.149,2.414-0.248    c0.101-0.012,0.201-0.025,0.301-0.039c0.818-0.105,1.631-0.224,2.44-0.366c0.067-0.013,0.131-0.025,0.197-0.037    c1.697-0.303,3.37-0.689,5.008-1.169c0.046-0.015,0.092-0.025,0.138-0.039c0.784-0.232,1.558-0.49,2.323-0.768    c0.09-0.031,0.18-0.062,0.268-0.096c0.742-0.273,1.473-0.57,2.193-0.89c0.105-0.046,0.209-0.092,0.314-0.138    c0.711-0.322,1.411-0.666,2.101-1.034c0.101-0.053,0.2-0.109,0.3-0.164c0.693-0.378,1.377-0.776,2.043-1.204    c0.076-0.052,0.153-0.104,0.23-0.154c0.687-0.449,1.361-0.918,2.017-1.421c0.031-0.026,0.063-0.052,0.094-0.076    c0.664-0.514,1.311-1.057,1.941-1.63c0.028-0.025,0.058-0.05,0.086-0.075c0.615-0.565,1.207-1.163,1.786-1.787    c0.07-0.075,0.141-0.148,0.211-0.224c0.393-0.433,0.781-0.874,1.156-1.335c11.597,2.954,23.506,5.791,35.486,8.452    c25.881,5.753,40.108,17.783,43.234,36.663H340.907H320.34c-4.648,0-8.414,3.767-8.414,8.414S315.698,326.116,320.345,326.116z"/>
	</g>
</g>
<g>
</g>
<g>
</g>
<g>
</g>
<g>
</g>
<g>
</g>
<g>
</g>
<g>
</g>
<g>
</g>
<g>
</g>
<g>
</g>
<g>
</g>
<g>
</g>
<g>
</g>
<g>
</g>
<g>
</g>
</svg>
