<?xml version="1.0" encoding="iso-8859-1"?>
<!-- Generator: Adobe Illustrator 19.0.0, SVG Export Plug-In . SVG Version: 6.00 Build 0)  -->
<svg xmlns="http://www.w3.org/2000/svg" xmlns:xlink="http://www.w3.org/1999/xlink" version="1.1" id="Layer_1" x="0px" y="0px" viewBox="0 0 512.002 512.002" style="enable-background:new 0 0 512.002 512.002;" xml:space="preserve">
<g>
	<g>
		<path d="M431.259,315.038c0,0-2.245-13.914-5.707-35.013c-0.002-0.015-0.008-0.029-0.01-0.044    c-6.774-41.283-18.186-110.007-26.506-155.777c-0.801-4.405-5.025-7.336-9.426-6.527c-4.406,0.8-7.328,5.021-6.527,9.427    c7.814,42.99,18.371,106.327,25.225,147.997l-40.674,9.105l-22.576-93.888c0.066-0.384,0.129-0.77,0.195-1.155    c0.177-1.031,0.36-2.058,0.541-3.086c0.424-2.413,0.855-4.818,1.295-7.217c0.146-0.795,0.29-1.59,0.437-2.383    c0.264-1.417,0.531-2.829,0.799-4.241c0.15-0.791,0.302-1.584,0.453-2.374c0.271-1.412,0.544-2.821,0.818-4.226    c0.147-0.75,0.295-1.498,0.442-2.247c0.895-4.54,1.803-9.034,2.716-13.474c0.227-1.105,0.454-2.212,0.681-3.312    c0.214-1.033,0.427-2.063,0.641-3.09c0.281-1.354,0.563-2.707,0.844-4.055c0.166-0.798,0.334-1.599,0.499-2.391    c0.416-1.99,0.833-3.977,1.249-5.954c0.014-0.068,0.029-0.138,0.043-0.208c0.049-0.23,0.095-0.453,0.144-0.683    c0.301-1.433,0.6-2.86,0.896-4.271c0.179-0.858,0.357-1.705,0.534-2.553c0.167-0.796,0.333-1.594,0.497-2.383    c0.224-1.07,0.443-2.129,0.662-3.184c0.108-0.522,0.217-1.046,0.324-1.565c0.257-1.241,0.509-2.471,0.76-3.692    c0.049-0.238,0.097-0.477,0.146-0.715c3.677-17.958,6.616-33.693,7.961-46.913c2.681,7.133,5.34,15.973,7.667,26.886    c0.538,2.526,1.126,5.406,1.758,8.593c0.871,4.392,5.131,7.246,9.528,6.378c4.392-0.87,7.248-5.136,6.378-9.528    c-0.649-3.273-1.253-6.23-1.806-8.823c-9.366-43.946-24.358-59.256-29.425-63.329c-1.684-2.047-3.705-3.746-6.134-5.046    C321.811,1.44,311.776,0,301.348,0c-0.294,0-0.587,0.016-0.877,0.048c-0.119,0.013-0.235,0.04-0.351,0.057    c-0.169,0.026-0.339,0.047-0.507,0.083c-0.158,0.035-0.312,0.085-0.468,0.129c-0.122,0.035-0.246,0.062-0.366,0.102    c-0.152,0.051-0.299,0.117-0.45,0.177c-0.118,0.048-0.238,0.088-0.353,0.139c-0.169,0.077-0.329,0.169-0.491,0.257    c-0.09,0.049-0.184,0.091-0.272,0.143c-0.173,0.103-0.338,0.221-0.504,0.336c-0.071,0.05-0.146,0.093-0.216,0.145    c-0.171,0.128-0.332,0.27-0.493,0.411c-0.057,0.05-0.119,0.094-0.175,0.146c-0.16,0.149-0.309,0.312-0.458,0.475    c-0.048,0.053-0.102,0.099-0.148,0.154c-0.001,0.001-0.001,0.002-0.002,0.003c-0.003,0.003-0.007,0.007-0.01,0.01    c-0.011,0.012-0.017,0.026-0.027,0.038c-0.236,0.277-0.445,0.57-0.639,0.871c-0.05,0.077-0.098,0.152-0.145,0.23    c-0.19,0.318-0.364,0.644-0.508,0.984c-0.014,0.034-0.024,0.068-0.038,0.102c-0.13,0.317-0.235,0.641-0.323,0.971    c-0.023,0.082-0.045,0.164-0.065,0.248c-0.084,0.36-0.149,0.723-0.184,1.093c0,0.008-0.003,0.014-0.003,0.022    c-0.047,0.038-0.095,0.076-0.145,0.114c-0.149,0.114-0.311,0.228-0.497,0.347c-0.088,0.056-0.186,0.114-0.281,0.171    c-0.195,0.117-0.402,0.235-0.629,0.355c-0.117,0.062-0.243,0.124-0.369,0.187c-0.239,0.119-0.492,0.24-0.761,0.361    c-0.144,0.065-0.294,0.13-0.446,0.196c-0.293,0.125-0.601,0.252-0.925,0.378c-0.154,0.06-0.31,0.12-0.47,0.181    c-0.36,0.135-0.739,0.27-1.135,0.405c-0.139,0.048-0.276,0.095-0.419,0.143c-0.45,0.148-0.923,0.296-1.415,0.443    c-0.134,0.04-0.263,0.08-0.399,0.12c-0.526,0.154-1.081,0.304-1.654,0.454c-0.144,0.038-0.285,0.076-0.431,0.112    c-0.589,0.15-1.204,0.296-1.839,0.441c-0.15,0.035-0.299,0.068-0.453,0.103c-0.652,0.144-1.33,0.284-2.028,0.421    c-0.156,0.03-0.312,0.061-0.47,0.091c-0.717,0.136-1.456,0.267-2.218,0.392c-0.157,0.026-0.315,0.052-0.472,0.077    c-0.784,0.125-1.589,0.245-2.419,0.358c-0.155,0.022-0.31,0.041-0.466,0.062c-0.853,0.112-1.729,0.217-2.629,0.315    c-0.145,0.015-0.293,0.03-0.439,0.045c-0.926,0.096-1.876,0.185-2.851,0.264c-0.13,0.011-0.264,0.019-0.395,0.029    c-1.005,0.078-2.032,0.147-3.087,0.203c-0.106,0.005-0.214,0.01-0.32,0.015c-1.093,0.056-2.207,0.101-3.351,0.131    c-0.066,0.002-0.135,0.002-0.201,0.004c-1.193,0.03-2.411,0.048-3.659,0.048c-1.25,0-2.47-0.017-3.665-0.048    c-0.065-0.002-0.131-0.002-0.196-0.004c-1.149-0.03-2.269-0.076-3.366-0.132c-0.101-0.005-0.202-0.009-0.302-0.014    c-1.062-0.056-2.095-0.125-3.106-0.204c-0.125-0.01-0.252-0.018-0.376-0.028c-0.984-0.079-1.94-0.169-2.874-0.266    c-0.136-0.014-0.275-0.028-0.411-0.042c-0.912-0.098-1.798-0.205-2.661-0.319c-0.143-0.019-0.286-0.038-0.428-0.057    c-0.844-0.115-1.664-0.237-2.46-0.364c-0.143-0.023-0.285-0.045-0.427-0.069c-0.779-0.129-1.536-0.263-2.268-0.402    c-0.139-0.026-0.276-0.053-0.413-0.08c-0.719-0.141-1.416-0.284-2.086-0.433c-0.131-0.029-0.258-0.058-0.387-0.088    c-0.657-0.149-1.294-0.302-1.903-0.456c-0.123-0.031-0.243-0.064-0.364-0.095c-0.597-0.156-1.173-0.313-1.721-0.472    c-0.11-0.032-0.214-0.065-0.323-0.097c-0.537-0.16-1.057-0.322-1.544-0.484c-0.099-0.034-0.191-0.066-0.29-0.099    c-0.441-0.15-0.863-0.3-1.26-0.451c-0.117-0.044-0.229-0.088-0.343-0.132c-0.363-0.142-0.705-0.282-1.029-0.422    c-0.118-0.051-0.236-0.102-0.347-0.151c-0.301-0.135-0.579-0.268-0.842-0.4c-0.098-0.05-0.201-0.099-0.294-0.148    c-0.252-0.133-0.478-0.262-0.69-0.389c-0.085-0.051-0.173-0.103-0.252-0.152c-0.193-0.123-0.361-0.243-0.516-0.361    c-0.047-0.036-0.093-0.071-0.135-0.106c-0.001-0.011-0.004-0.022-0.005-0.032c-0.037-0.364-0.103-0.724-0.188-1.079    c-0.021-0.086-0.044-0.171-0.068-0.256c-0.09-0.328-0.197-0.651-0.328-0.965c-0.014-0.034-0.024-0.068-0.038-0.102    c-0.146-0.338-0.321-0.664-0.511-0.982c-0.048-0.079-0.096-0.156-0.146-0.232c-0.195-0.3-0.404-0.593-0.639-0.868    c-0.011-0.012-0.018-0.027-0.028-0.039c-0.003-0.003-0.007-0.006-0.01-0.01c-0.001-0.001-0.001-0.002-0.002-0.003    c-0.05-0.058-0.107-0.108-0.159-0.164c-0.146-0.159-0.291-0.318-0.448-0.463c-0.092-0.085-0.192-0.16-0.289-0.24    c-0.127-0.107-0.249-0.218-0.382-0.317c-0.121-0.09-0.251-0.168-0.377-0.251c-0.116-0.077-0.227-0.159-0.346-0.229    c-0.149-0.089-0.307-0.162-0.462-0.241c-0.103-0.052-0.202-0.112-0.307-0.16c-0.158-0.071-0.321-0.128-0.482-0.189    c-0.109-0.041-0.215-0.091-0.326-0.128c-0.154-0.051-0.311-0.086-0.467-0.129c-0.124-0.034-0.246-0.075-0.372-0.102    c-0.186-0.041-0.376-0.065-0.565-0.092c-0.099-0.014-0.197-0.037-0.296-0.049C211.192,0.016,210.9,0,210.604,0    c-10.379,0-20.414,1.44-55.2,20.075c-2.428,1.3-4.448,2.998-6.132,5.044c-5.065,4.07-20.06,19.378-29.427,63.333    c-7.441,34.908-24.448,137.082-33.382,191.516c-0.003,0.019-0.01,0.039-0.013,0.058c-3.461,21.099-5.707,35.013-5.707,35.013    c-0.683,4.233,2.049,8.267,6.233,9.204l53.362,11.947c0.597,0.134,1.192,0.199,1.779,0.199c0.458,0,0.911-0.039,1.354-0.115    c3.103-0.53,5.74-2.852,6.521-6.099l22.956-95.468c2.676,28.803,2.429,56.768-3.656,80.832    c-26.546,104.972-0.966,187.361,0.136,190.818c1.071,3.362,4.195,5.645,7.725,5.645h26.689c4.479,0,8.108-3.629,8.108-8.108    c0-4.479-3.629-8.108-8.108-8.108h-20.517c-5.106-20.063-19.833-91.174,1.687-176.272c9.771-38.643,5.745-85.361-1.783-130.143    c-0.006-0.045-0.009-0.091-0.016-0.136c-0.061-0.36-0.125-0.716-0.186-1.075c-0.305-1.796-0.616-3.587-0.931-5.375    c-0.127-0.718-0.251-1.438-0.378-2.153c-0.381-2.129-0.766-4.252-1.159-6.367c-0.197-1.065-0.398-2.124-0.597-3.185    c-0.24-1.278-0.482-2.552-0.725-3.825c-0.217-1.134-0.436-2.267-0.655-3.397c-0.241-1.241-0.484-2.478-0.729-3.712    c-0.211-1.066-0.419-2.134-0.631-3.195c-0.423-2.12-0.849-4.231-1.276-6.328c-0.175-0.859-0.35-1.713-0.526-2.571    c-0.31-1.516-0.621-3.028-0.931-4.531c-0.178-0.862-0.356-1.72-0.534-2.579c-0.344-1.655-0.686-3.299-1.028-4.936    c-0.125-0.602-0.251-1.203-0.376-1.803c-0.455-2.176-0.909-4.338-1.358-6.479c-0.009-0.043-0.018-0.086-0.027-0.13    c-0.168-0.798-0.335-1.598-0.503-2.397c-0.096-0.461-0.194-0.923-0.29-1.382c-4.719-22.516-9.363-45.139-10.994-62.164    c-0.004-0.042-0.009-0.085-0.012-0.128c-0.05-0.519-0.09-1.02-0.133-1.53c-1.026-12.594,0.023-19.069,1.38-22.385    c0.32-0.744,0.676-1.419,1.089-1.988c0.012-0.016,0.021-0.034,0.032-0.051c0.486-0.643,0.953-1.005,1.325-1.204    c23.329-12.499,34.033-16.389,40.544-17.602c2.98,17.498,13.709,60.255,48.825,77.47c1.126,0.552,2.348,0.828,3.57,0.828    s2.443-0.276,3.57-0.828c35.118-17.215,45.847-59.977,48.826-77.473c6.495,1.21,17.196,5.097,40.543,17.605    c0.371,0.198,0.836,0.558,1.321,1.199c0.013,0.018,0.024,0.038,0.037,0.055c0.413,0.569,0.769,1.243,1.089,1.988    c1.359,3.315,2.406,9.791,1.38,22.385c-0.044,0.508-0.083,1.01-0.133,1.53c-0.003,0.042-0.009,0.085-0.012,0.128    c-1.632,17.025-6.275,39.65-10.994,62.164c-0.096,0.458-0.193,0.921-0.29,1.382c-0.168,0.799-0.335,1.599-0.503,2.397    c-0.009,0.043-0.018,0.086-0.027,0.13c-0.45,2.14-0.903,4.302-1.358,6.479c-0.125,0.6-0.251,1.201-0.376,1.803    c-0.342,1.637-0.684,3.281-1.028,4.936c-0.178,0.859-0.357,1.718-0.534,2.579c-0.31,1.503-0.62,3.015-0.931,4.531    c-0.175,0.857-0.351,1.711-0.526,2.571c-0.427,2.098-0.852,4.208-1.276,6.328c-0.212,1.062-0.421,2.13-0.631,3.195    c-0.244,1.234-0.486,2.47-0.729,3.712c-0.219,1.13-0.438,2.261-0.655,3.397c-0.244,1.272-0.485,2.547-0.725,3.825    c-0.2,1.06-0.4,2.12-0.597,3.185c-0.392,2.117-0.778,4.239-1.159,6.367c-0.128,0.716-0.252,1.436-0.378,2.153    c-0.315,1.788-0.626,3.579-0.931,5.375c-0.061,0.36-0.125,0.715-0.186,1.075c-0.008,0.045-0.009,0.091-0.016,0.136    c-7.527,44.782-11.554,91.5-1.783,130.143c21.521,85.104,6.79,156.219,1.688,176.272h-96.73c-4.479,0-8.108,3.629-8.108,8.108    c0,4.479,3.629,8.108,8.108,8.108h102.903c3.53,0,6.653-2.282,7.725-5.645c1.103-3.456,26.682-85.845,0.136-190.818    c-6.085-24.065-6.331-52.029-3.656-80.832l14.678,61.041c0.001,0.003,0.001,0.008,0.002,0.011l8.276,34.417    c0.892,3.711,4.209,6.214,7.875,6.214c0.587,0,1.183-0.065,1.779-0.199l53.362-11.947    C429.21,323.305,431.941,319.271,431.259,315.038z M136.094,318.622l-38.12-8.535c0.744-4.575,1.801-11.068,3.093-18.961    l39.511,8.846L136.094,318.622z M159.232,149.816c0.922,4.488,1.84,9.031,2.746,13.622c0.144,0.73,0.288,1.457,0.431,2.188    c0.276,1.41,0.549,2.824,0.82,4.241c0.151,0.787,0.302,1.575,0.451,2.364c0.268,1.413,0.536,2.828,0.8,4.247    c0.147,0.789,0.291,1.583,0.436,2.375c0.44,2.4,0.872,4.808,1.296,7.222c0.181,1.028,0.362,2.055,0.54,3.086    c0.066,0.384,0.129,0.77,0.195,1.155l-22.578,93.889l-40.673-9.105c9.165-55.71,24.957-150.186,32.008-183.267    c2.326-10.913,4.986-19.756,7.667-26.888c1.348,13.251,4.297,29.03,7.985,47.039c0.029,0.141,0.058,0.282,0.086,0.424    c0.271,1.323,0.546,2.658,0.825,4.005c0.072,0.35,0.146,0.706,0.219,1.058c0.257,1.237,0.515,2.48,0.777,3.736    c0.073,0.351,0.148,0.708,0.222,1.06c0.592,2.834,1.193,5.705,1.809,8.637c0.177,0.846,0.358,1.707,0.536,2.559    c0.236,1.122,0.471,2.245,0.707,3.372c0.199,0.95,0.399,1.91,0.599,2.867c0.256,1.227,0.512,2.457,0.769,3.69    c0.226,1.088,0.452,2.178,0.679,3.274C158.8,147.714,159.016,148.766,159.232,149.816z M256.001,77.753    c-19.885-11.731-29.354-34.826-33.741-51.345c1.448,0.419,2.926,0.795,4.417,1.134c8.641,2.007,18.568,2.923,27.989,3.002    c0.509,0.005,0.961,0.008,1.335,0.008s0.826-0.002,1.335-0.008c9.402-0.079,19.307-0.991,27.936-2.99    c1.509-0.343,3.005-0.721,4.47-1.146C285.356,42.927,275.886,66.022,256.001,77.753z M375.908,318.623l-4.484-18.651l39.512-8.846    c1.292,7.896,2.349,14.386,3.092,18.961L375.908,318.623z"/>
	</g>
</g>
<g>
</g>
<g>
</g>
<g>
</g>
<g>
</g>
<g>
</g>
<g>
</g>
<g>
</g>
<g>
</g>
<g>
</g>
<g>
</g>
<g>
</g>
<g>
</g>
<g>
</g>
<g>
</g>
<g>
</g>
</svg>
