<?xml version="1.0" encoding="iso-8859-1"?>
<!-- Generator: Adobe Illustrator 19.0.0, SVG Export Plug-In . SVG Version: 6.00 Build 0)  -->
<svg xmlns="http://www.w3.org/2000/svg" xmlns:xlink="http://www.w3.org/1999/xlink" version="1.1" id="Layer_1" x="0px" y="0px" viewBox="0 0 512 512" style="enable-background:new 0 0 512 512;" xml:space="preserve">
<g>
	<g>
		<path d="M397.284,503.097c-10.189-98.996-30.467-183.81-57.459-241.013h33.483c4.461,0,8.076-3.615,8.076-8.076V72.13    c0-1.491-0.729-36.478-63.474-53.033L289.642,1.247c-0.29-0.182-0.591-0.338-0.898-0.481c-0.084-0.04-0.169-0.075-0.254-0.112    c-0.256-0.11-0.517-0.205-0.782-0.286c-0.062-0.019-0.124-0.043-0.187-0.06c-0.327-0.093-0.66-0.164-0.997-0.213    c-0.064-0.01-0.127-0.014-0.191-0.022c-0.288-0.037-0.576-0.056-0.867-0.061C285.421,0.009,285.376,0,285.33,0h-58.661    c-0.046,0-0.091,0.009-0.138,0.01c-0.29,0.005-0.578,0.025-0.866,0.061c-0.064,0.008-0.128,0.012-0.192,0.023    c-0.336,0.051-0.668,0.121-0.995,0.213c-0.066,0.018-0.129,0.043-0.194,0.062c-0.263,0.081-0.52,0.177-0.774,0.284    c-0.087,0.037-0.173,0.073-0.258,0.113c-0.306,0.143-0.607,0.299-0.896,0.481l-28.265,17.849    c-62.746,16.553-63.475,51.541-63.475,53.033v181.879c0,4.461,3.615,8.076,8.076,8.076h33.483    c-26.992,57.206-47.27,142.02-57.459,241.013c-0.234,2.273,0.507,4.54,2.038,6.237c1.531,1.697,3.709,2.666,5.995,2.666h54.713    c4.461,0,8.076-3.615,8.076-8.076c0-4.461-3.615-8.076-8.076-8.076h-45.732c10.73-97.51,31.332-179.98,58.4-233.764H321.87    c27.069,53.779,47.669,136.251,58.399,233.764H204.383c-4.461,0-8.076,3.615-8.076,8.076c0,4.461,3.615,8.076,8.076,8.076H389.25    c2.286,0,4.464-0.968,5.995-2.666C396.777,507.636,397.517,505.371,397.284,503.097z M288.035,19.335l12.682,8.009l3.094,1.953    l-24.603,42.992L265.89,56.631L288.035,19.335z M271.141,16.151L256,41.651l-15.143-25.5H271.141z M214.811,25.117l9.154-5.781    l22.147,37.296l-13.317,15.658l-24.603-42.993L214.811,25.117z M323.528,97.241c-4.461,0-8.076,3.615-8.076,8.076v101.515h-15.238    c-4.461,0-8.076,3.615-8.076,8.076c0,4.461,3.615,8.076,8.076,8.076h15.238v22.95H197.189v-22.95h75.031    c4.461,0,8.076-3.615,8.076-8.076c0-4.461-3.615-8.076-8.076-8.076h-75.672V105.317c0-4.461-3.615-8.076-8.076-8.076    s-8.076,3.615-8.076,8.076v140.617h-33.626V72.272c0.087-1.074,2.492-23.125,46.679-36.22l31.038,54.239    c1.307,2.284,3.644,3.788,6.262,4.03c0.25,0.023,0.5,0.034,0.747,0.034c2.356,0,4.609-1.03,6.15-2.844l10.279-12.084v51.617    c0,4.461,3.615,8.076,8.076,8.076s8.076-3.615,8.076-8.076V79.427l10.279,12.084c1.542,1.813,3.794,2.844,6.15,2.844    c0.248,0,0.497-0.012,0.747-0.034c2.62-0.243,4.956-1.747,6.262-4.03l31.038-54.239c44.187,13.096,46.592,35.146,46.679,36.22    v173.661h-33.627v-31.026v-109.59C331.604,100.856,327.989,97.241,323.528,97.241z"/>
	</g>
</g>
<g>
</g>
<g>
</g>
<g>
</g>
<g>
</g>
<g>
</g>
<g>
</g>
<g>
</g>
<g>
</g>
<g>
</g>
<g>
</g>
<g>
</g>
<g>
</g>
<g>
</g>
<g>
</g>
<g>
</g>
</svg>
