<?xml version="1.0" encoding="iso-8859-1"?>
<!-- Generator: Adobe Illustrator 19.0.0, SVG Export Plug-In . SVG Version: 6.00 Build 0)  -->
<svg xmlns="http://www.w3.org/2000/svg" xmlns:xlink="http://www.w3.org/1999/xlink" version="1.1" id="Layer_1" x="0px" y="0px" viewBox="0 0 512.002 512.002" style="enable-background:new 0 0 512.002 512.002;" xml:space="preserve">
<g>
	<g>
		<path d="M480.451,473.852c1.465-22.145,2.214-44.724,2.214-67.15c0-97.59-14.169-192.201-39.843-271.192    c-0.063-0.327-0.145-0.652-0.251-0.973c-6.259-19.098-13.18-37.212-20.67-54.155c-0.09-0.205-0.182-0.409-0.272-0.614    c-1.245-2.804-2.503-5.578-3.778-8.317c-0.137-0.294-0.275-0.584-0.412-0.877c-1.266-2.705-2.546-5.384-3.842-8.022    c-0.11-0.223-0.221-0.442-0.33-0.664c-1.178-2.388-2.367-4.748-3.569-7.08V21.297C409.698,9.554,400.143,0,388.399,0h-28.374    c-4.456,0-8.067,3.611-8.067,8.067c0,4.456,3.611,8.067,8.067,8.067h28.374c2.847,0,5.164,2.316,5.164,5.163v28.145h-39.73    H158.172h-39.73V21.297c0-2.846,2.316-5.163,5.163-5.163h208.813c4.456,0,8.067-3.611,8.067-8.067    c0-4.456-3.611-8.067-8.067-8.067H123.605c-11.744,0-21.297,9.554-21.297,21.297v33.511c-1.21,2.348-2.408,4.724-3.595,7.13    c-0.098,0.198-0.197,0.394-0.295,0.593c-1.311,2.668-2.604,5.375-3.884,8.111c-0.12,0.257-0.242,0.512-0.361,0.77    c-1.292,2.774-2.568,5.585-3.828,8.428c-0.072,0.162-0.144,0.325-0.216,0.487c-7.499,16.956-14.428,35.09-20.696,54.212    c-0.106,0.325-0.188,0.654-0.253,0.985C43.509,214.514,29.34,309.118,29.34,406.704c0,22.441,0.748,45.019,2.214,67.149    c-3.565,3.798-5.766,8.89-5.766,14.498v2.428c0,11.703,9.52,21.223,21.222,21.223h417.983c11.703,0,21.222-9.521,21.222-21.223    v-2.428C486.217,482.742,484.015,477.65,480.451,473.852z M397.083,65.577c1.298,2.574,2.576,5.185,3.841,7.821    c0.428,0.893,0.848,1.804,1.274,2.704c0.835,1.767,1.666,3.54,2.486,5.333c0.481,1.052,0.954,2.118,1.43,3.18    c0.764,1.704,1.524,3.414,2.275,5.142c0.459,1.057,0.915,2.123,1.37,3.19c0.782,1.833,1.556,3.677,2.323,5.535    c0.388,0.939,0.774,1.878,1.159,2.824c0.888,2.188,1.766,4.393,2.635,6.614c0.24,0.613,0.482,1.223,0.721,1.839    c2.351,6.079,4.628,12.277,6.826,18.59c-18.538-1.975-33.147-8.529-43.524-19.553c-13.395-14.229-16.884-32.931-17.759-43.219    H397.083z M95.436,109.687c0.212-0.546,0.427-1.087,0.64-1.632c0.892-2.284,1.794-4.549,2.707-6.797    c0.372-0.915,0.746-1.825,1.122-2.734c0.777-1.881,1.561-3.747,2.352-5.602c0.451-1.056,0.902-2.111,1.357-3.159    c0.752-1.731,1.513-3.443,2.278-5.15c0.477-1.063,0.95-2.13,1.431-3.182c0.817-1.789,1.647-3.556,2.479-5.319    c0.427-0.905,0.85-1.822,1.28-2.719c1.265-2.634,2.543-5.245,3.84-7.818h34.97v0.001c-0.84,10.231-4.282,28.8-17.685,43.111    c-10.384,11.089-25.026,17.677-43.623,19.659C90.79,122.01,93.076,115.788,95.436,109.687z M464.995,495.866H47.012    c-2.805,0-5.088-2.282-5.088-5.089v-2.428c0-2.806,2.283-5.089,5.088-5.089h67.412c4.456,0,8.067-3.611,8.067-8.067    c0-4.456-3.611-8.067-8.067-8.067h-67.13c-1.204-19.959-1.817-40.247-1.817-60.423c0-94.157,13.358-185.332,37.604-261.761    c25.93-1.278,46.404-9.743,60.903-25.225c17.237-18.405,21.238-41.772,22.088-54.14h179.862    c0.85,12.368,4.851,35.736,22.088,54.141c14.498,15.482,34.973,23.947,60.903,25.225c24.247,76.43,37.605,167.603,37.605,261.76    c0,20.164-0.613,40.451-1.817,60.423H141.313c-4.456,0-8.067,3.611-8.067,8.067c0,4.456,3.611,8.067,8.067,8.067h323.68    c2.805,0,5.088,2.283,5.088,5.089v2.427h0.001C470.082,493.583,467.8,495.866,464.995,495.866z"/>
	</g>
</g>
<g>
</g>
<g>
</g>
<g>
</g>
<g>
</g>
<g>
</g>
<g>
</g>
<g>
</g>
<g>
</g>
<g>
</g>
<g>
</g>
<g>
</g>
<g>
</g>
<g>
</g>
<g>
</g>
<g>
</g>
</svg>
