<?xml version="1.0" encoding="iso-8859-1"?>
<!-- Generator: Adobe Illustrator 19.0.0, SVG Export Plug-In . SVG Version: 6.00 Build 0)  -->
<svg xmlns="http://www.w3.org/2000/svg" xmlns:xlink="http://www.w3.org/1999/xlink" version="1.1" id="Layer_1" x="0px" y="0px" viewBox="0 0 512 512" style="enable-background:new 0 0 512 512;" xml:space="preserve">
<g>
	<g>
		<path d="M317.349,201.285v-27.107l24.123-107.977c0.003-0.014,0.004-0.028,0.006-0.042c0.056-0.26,0.1-0.525,0.13-0.793    c0.003-0.025,0.009-0.05,0.012-0.074c0.029-0.28,0.045-0.565,0.045-0.854V22.943C341.667,10.293,331.373,0,318.722,0    c-12.65,0-22.943,10.293-22.943,22.943v38.648c-0.158,0.421-0.286,0.86-0.374,1.316c-1.824,9.451-10.147,16.311-19.79,16.311    h-39.229c-9.642,0-17.965-6.86-19.791-16.312c-0.087-0.452-0.213-0.888-0.371-1.307V22.943C216.223,10.293,205.929,0,193.278,0    c-12.652,0-22.945,10.293-22.945,22.943V64.39c0,0.002,0,0.004,0,0.008v0.04c0,0.287,0.016,0.569,0.045,0.848    c0.004,0.039,0.013,0.077,0.017,0.115c0.03,0.254,0.07,0.506,0.124,0.752c0.003,0.015,0.004,0.031,0.008,0.046l24.122,107.976    v27.109c-53.102,35.883-87.231,115.009-87.231,202.992c0,35.551,5.699,70.915,16.481,102.267c1.122,3.263,4.193,5.455,7.644,5.455    h248.911c3.451,0,6.522-2.191,7.645-5.456c4.689-13.635,8.441-28.039,11.152-42.81c0.805-4.391-2.101-8.604-6.492-9.41    c-4.397-0.805-8.604,2.101-9.411,6.492c-2.205,12.02-5.137,23.772-8.73,35.014H137.38c-9.035-28.304-13.794-59.823-13.794-91.554    c0-83.179,31.665-157.438,80.854-190.099h103.117c49.19,32.661,80.856,106.92,80.856,190.099c0,9.981-0.466,20.013-1.382,29.819    c-0.416,4.445,2.852,8.386,7.296,8.802c4.441,0.412,8.386-2.85,8.802-7.297c0.964-10.304,1.452-20.842,1.452-31.325    C404.583,316.294,370.453,237.168,317.349,201.285z M311.946,22.943c0-3.736,3.039-6.775,6.775-6.775    c3.737,0,6.777,3.039,6.777,6.775v33.41h-13.551V22.943z M186.501,22.943c0-3.736,3.04-6.775,6.777-6.775    c3.737,0,6.777,3.039,6.777,6.775v33.41h-13.553V22.943z M301.18,198.01h-90.363V181.37h90.363V198.01z M302.786,165.201H209.21    l-20.704-92.68h14.132c5.415,13.572,18.689,22.863,33.747,22.863h39.229c15.06,0,28.333-9.29,33.748-22.863h14.131    L302.786,165.201z"/>
	</g>
</g>
<g>
</g>
<g>
</g>
<g>
</g>
<g>
</g>
<g>
</g>
<g>
</g>
<g>
</g>
<g>
</g>
<g>
</g>
<g>
</g>
<g>
</g>
<g>
</g>
<g>
</g>
<g>
</g>
<g>
</g>
</svg>
