<?xml version="1.0" encoding="iso-8859-1"?>
<!-- Generator: Adobe Illustrator 19.0.0, SVG Export Plug-In . SVG Version: 6.00 Build 0)  -->
<svg xmlns="http://www.w3.org/2000/svg" xmlns:xlink="http://www.w3.org/1999/xlink" version="1.1" id="Layer_1" x="0px" y="0px" viewBox="0 0 512 512" style="enable-background:new 0 0 512 512;" xml:space="preserve">
<g>
	<g>
		<g>
			<path d="M507.919,177.208c-3.671-4.698-9.194-7.393-15.157-7.393H380.121v-32.544c0-68.437-55.679-124.117-124.119-124.117     c-68.438,0-124.117,55.678-124.117,124.117v32.544H19.241c-5.963,0-11.486,2.695-15.159,7.397     c-3.672,4.704-4.946,10.718-3.498,16.498l53.394,213.573c0.003,0.012,0.004,0.024,0.006,0.036l6.494,25.964l12.749,50.998     c2.143,8.576,9.815,14.565,18.657,14.565h328.234c8.843,0,16.515-5.99,18.656-14.564l8.577-34.309     c0.001-0.005,0.004-0.011,0.005-0.016l10.659-42.639c0.001-0.005,0.001-0.011,0.003-0.015l53.398-213.594     C512.863,187.925,511.589,181.914,507.919,177.208z M140.739,222.606c6.767,0,12.272,5.506,12.272,12.273     c0,6.767-5.505,12.273-12.272,12.273c-6.767,0-12.273-5.506-12.273-12.273S133.972,222.606,140.739,222.606z M433.153,439.879     h-61.702c-4.481,0-8.112,3.631-8.112,8.112c0,4.481,3.631,8.112,8.112,8.112h57.646l-6.062,24.248     c-0.334,1.338-1.533,2.272-2.916,2.272H91.884c-1.382,0-2.583-0.935-2.917-2.276l-6.061-24.245h260.433     c4.481,0,8.112-3.631,8.112-8.112c0-4.481-3.631-8.112-8.112-8.112H78.851l-2.277-9.104l-4.328-17.311h67.133h233.246h67.132     L433.153,439.879z M147.49,397.24v-87.617c0-5.337,4.341-9.679,9.678-9.679h197.667c5.337,0,9.678,4.342,9.678,9.679v87.617     H147.49z M495.679,189.774l-51.866,207.465h-63.076v-87.617c0-14.283-11.619-25.902-25.901-25.902H157.168     c-14.282,0-25.901,11.619-25.901,25.902v87.617H68.19L16.323,189.769c-0.226-0.901-0.026-1.841,0.546-2.574     c0.574-0.737,1.44-1.157,2.372-1.157h112.644v20.304c0,0.482,0.05,0.952,0.131,1.411c-11.458,3.693-19.773,14.455-19.773,27.125     c0,15.713,12.783,28.497,28.497,28.497c15.712,0,28.496-12.783,28.496-28.497c0-13.19-9.008-24.31-21.193-27.544     c0.04-0.327,0.067-0.655,0.067-0.993v-20.304h142.229c4.481,0,8.112-3.631,8.112-8.112c0-4.481-3.631-8.112-8.112-8.112h-142.23     v-32.544c0-59.493,48.401-107.894,107.894-107.894c59.494,0,107.896,48.401,107.896,107.894v32.544h-44.353     c-4.481,0-8.112,3.631-8.112,8.112c0,4.481,3.631,8.112,8.112,8.112h44.353v20.304c0,0.407,0.04,0.804,0.097,1.195     c-11.822,3.471-20.482,14.411-20.482,27.342c0,15.713,12.783,28.497,28.497,28.497s28.497-12.783,28.497-28.497     c0-12.931-8.66-23.87-20.482-27.342c0.057-0.391,0.097-0.788,0.097-1.195v-20.304h112.642c0.932,0,1.797,0.422,2.369,1.153     C495.706,187.927,495.905,188.868,495.679,189.774z M372.009,222.606c6.767,0,12.273,5.506,12.273,12.273     c0,6.767-5.506,12.273-12.273,12.273s-12.273-5.506-12.273-12.273S365.242,222.606,372.009,222.606z"/>
			<path d="M332.104,326.22H211.74c-4.481,0-8.112,3.631-8.112,8.112s3.631,8.112,8.112,8.112h120.364     c4.481,0,8.112-3.631,8.112-8.112S336.585,326.22,332.104,326.22z"/>
			<path d="M185.428,326.22h-3.057c-4.481,0-8.112,3.631-8.112,8.112s3.631,8.112,8.112,8.112h3.057     c4.481,0,8.112-3.631,8.112-8.112S189.909,326.22,185.428,326.22z"/>
		</g>
	</g>
</g>
<g>
</g>
<g>
</g>
<g>
</g>
<g>
</g>
<g>
</g>
<g>
</g>
<g>
</g>
<g>
</g>
<g>
</g>
<g>
</g>
<g>
</g>
<g>
</g>
<g>
</g>
<g>
</g>
<g>
</g>
</svg>
