<?xml version="1.0" encoding="iso-8859-1"?>
<!-- Generator: Adobe Illustrator 19.0.0, SVG Export Plug-In . SVG Version: 6.00 Build 0)  -->
<svg xmlns="http://www.w3.org/2000/svg" xmlns:xlink="http://www.w3.org/1999/xlink" version="1.1" id="Layer_1" x="0px" y="0px" viewBox="0 0 511.999 511.999" style="enable-background:new 0 0 511.999 511.999;" xml:space="preserve">
<g>
	<g>
		<g>
			<path d="M307.862,207.776c-3.899,2.176-5.295,7.101-3.119,10.999c6.312,11.309,9.649,24.181,9.649,37.223     c0,42.182-34.317,76.499-76.498,76.499s-76.498-34.317-76.498-76.499c0-42.18,34.317-76.497,76.498-76.497     c19.434,0,37.961,7.296,52.166,20.545c3.264,3.046,8.381,2.866,11.426-0.398c3.045-3.264,2.867-8.38-0.398-11.426     c-17.207-16.051-39.65-24.89-63.192-24.89c-51.096,0-92.666,41.569-92.666,92.665c-0.001,51.097,41.569,92.668,92.665,92.668     c51.096,0,92.666-41.57,92.666-92.667c0-15.794-4.046-31.39-11.699-45.103C316.684,206.997,311.757,205.602,307.862,207.776z"/>
			<path d="M378.888,233.235h-15.484c-4.091-22.609-14.162-43.159-28.509-59.955L322.255,75.98     c-0.523-4.028-3.955-7.043-8.017-7.043h-16.193V41.268v-18.54C298.045,10.196,287.849,0,275.317,0h-74.846     c-12.533,0-22.728,10.196-22.728,22.728v18.539v27.669H161.55c-4.063,0-7.493,3.015-8.017,7.043l-12.639,97.299     c-19.034,22.288-30.546,51.183-30.546,82.719c0,31.538,11.512,60.434,30.545,82.722l12.639,97.298     c0.523,4.028,3.955,7.043,8.017,7.043h16.192v27.672v18.539c0,12.533,10.196,22.728,22.728,22.728h74.847     c12.532,0,22.727-10.196,22.727-22.728v-18.539V443.06h16.193c4.063,0,7.494-3.015,8.017-7.043l12.639-97.298     c14.346-16.797,24.417-37.347,28.508-59.955h15.485c12.553,0,22.765-10.213,22.765-22.766     C401.653,243.446,391.44,233.235,378.888,233.235z M193.912,49.351h45.799c4.466,0,8.084-3.618,8.084-8.084     s-3.618-8.084-8.084-8.084h-45.799V22.728c-0.001-3.617,2.943-6.56,6.559-6.56h74.846c3.616,0,6.559,2.943,6.559,6.56v10.454     h-13.062c-4.466,0-8.084,3.618-8.084,8.084s3.618,8.084,8.084,8.084h13.062v15.09h-87.964V49.351z M193.91,80.61h0.001h87.964     v10.454c0,3.616-2.942,6.56-6.559,6.56H200.47c-3.616,0-6.56-2.943-6.56-6.56V80.61z M168.653,85.105h9.091v5.96     c0,12.533,10.196,22.728,22.728,22.728h74.847c12.532,0,22.727-10.196,22.727-22.728v-5.96h9.092l9.131,70.287     c-2.219-1.728-4.505-3.357-6.826-4.928c-0.135-0.092-0.268-0.184-0.403-0.276c-0.77-0.517-1.541-1.029-2.322-1.53     c-0.954-0.614-1.918-1.215-2.889-1.804c-0.483-0.291-0.969-0.576-1.455-0.861c-1.216-0.716-2.44-1.419-3.682-2.094     c-0.014-0.008-0.027-0.015-0.041-0.023c-15.092-8.21-32.018-13.453-49.989-14.963c-0.058-0.005-0.116-0.011-0.174-0.015     c-1.636-0.135-3.281-0.238-4.933-0.312c-0.258-0.012-0.514-0.019-0.772-0.029c-1.622-0.061-3.25-0.102-4.886-0.102     c-1.636,0-3.264,0.041-4.886,0.102c-0.258,0.01-0.515,0.018-0.773,0.029c-1.652,0.072-3.297,0.176-4.934,0.312     c-0.058,0.005-0.115,0.011-0.174,0.015c-17.972,1.509-34.898,6.753-49.989,14.963c-0.015,0.009-0.03,0.017-0.045,0.026     c-1.24,0.675-2.462,1.376-3.676,2.091c-0.487,0.286-0.974,0.57-1.458,0.862c-0.97,0.589-1.933,1.189-2.887,1.802     c-0.781,0.501-1.555,1.014-2.326,1.533c-0.132,0.088-0.261,0.179-0.391,0.267c-2.324,1.574-4.612,3.205-6.835,4.935     L168.653,85.105z M281.875,462.649h-10.906c-4.466,0-8.084,3.618-8.084,8.084s3.618,8.084,8.084,8.084h10.906v10.454     c0.001,3.616-2.942,6.56-6.558,6.56h-74.846c-3.616,0-6.56-2.943-6.56-6.56v-10.454h49.033c4.466,0,8.084-3.618,8.084-8.084     s-3.618-8.084-8.084-8.084h-49.033v-15.09h87.964V462.649z M281.877,431.39h-0.001h-87.964v-10.454c0-3.616,2.943-6.56,6.56-6.56     h74.847c3.616,0,6.559,2.943,6.559,6.56V431.39z M307.136,426.893h-9.092v-5.958c0-12.533-10.196-22.728-22.727-22.728H200.47     c-12.533,0-22.728,10.196-22.728,22.728v5.958h-9.091l-9.131-70.285c2.234,1.74,4.536,3.379,6.873,4.96     c0.112,0.077,0.224,0.154,0.336,0.231c0.78,0.525,1.563,1.044,2.354,1.551c0.946,0.609,1.901,1.205,2.865,1.789     c0.492,0.296,0.986,0.586,1.482,0.877c1.2,0.706,2.408,1.399,3.633,2.066c0.027,0.015,0.054,0.03,0.081,0.045     c15.09,8.208,32.013,13.451,49.983,14.96c0.058,0.005,0.115,0.011,0.174,0.015c1.635,0.135,3.279,0.238,4.931,0.312     c0.259,0.012,0.517,0.019,0.776,0.029c1.621,0.061,3.248,0.102,4.884,0.102s3.263-0.041,4.884-0.102     c0.259-0.01,0.517-0.018,0.776-0.029c1.652-0.072,3.296-0.176,4.931-0.312c0.058-0.005,0.116-0.011,0.174-0.015     c17.97-1.509,34.893-6.752,49.984-14.96c0.026-0.014,0.051-0.028,0.075-0.042c1.227-0.668,2.436-1.362,3.638-2.07     c0.495-0.29,0.988-0.579,1.479-0.875c0.964-0.584,1.92-1.181,2.867-1.79c0.789-0.506,1.57-1.024,2.349-1.548     c0.116-0.079,0.233-0.16,0.349-0.238c2.335-1.58,4.633-3.217,6.864-4.955L307.136,426.893z M349.221,259.216     c-0.008,0.261-0.021,0.521-0.03,0.78c-0.03,0.832-0.067,1.665-0.115,2.499c-0.016,0.278-0.034,0.556-0.053,0.834     c-0.054,0.826-0.117,1.651-0.19,2.477c-0.024,0.267-0.046,0.536-0.071,0.803c-0.081,0.86-0.175,1.718-0.276,2.574     c-4.222,35.626-25.32,66.154-55.06,83.333c-0.328,0.189-0.659,0.373-0.988,0.558c-0.42,0.237-0.841,0.476-1.264,0.708     c-15.249,8.308-32.37,13.024-50.017,13.543c-0.105,0.003-0.208,0.01-0.313,0.012c-0.982,0.026-1.965,0.04-2.95,0.04     c-0.985,0-1.968-0.013-2.95-0.04c-0.105-0.002-0.208-0.009-0.312-0.012c-17.647-0.518-34.768-5.233-50.016-13.542     c-0.431-0.236-0.858-0.479-1.286-0.719c-0.323-0.181-0.647-0.361-0.968-0.546c-33.352-19.264-55.847-55.314-55.847-96.521     c0.002-40.299,21.518-75.669,53.665-95.225c0.008-0.004,0.015-0.009,0.023-0.014c0.712-0.433,1.431-0.857,2.154-1.275     c0.338-0.194,0.679-0.384,1.019-0.574c0.411-0.232,0.821-0.465,1.235-0.691c15.25-8.311,32.373-13.026,50.023-13.545     c0.103-0.003,0.207-0.01,0.312-0.012c0.982-0.026,1.965-0.04,2.95-0.04c0.985,0,1.968,0.013,2.95,0.04     c0.105,0.002,0.208,0.009,0.313,0.012c17.65,0.518,34.774,5.235,50.025,13.546c0.407,0.223,0.811,0.452,1.214,0.68     c0.347,0.195,0.695,0.388,1.04,0.586c0.72,0.416,1.436,0.839,2.145,1.27c0.01,0.006,0.019,0.012,0.029,0.017     c28.58,17.387,48.75,47.276,52.874,82.013c0.102,0.869,0.197,1.739,0.28,2.611c0.025,0.26,0.046,0.521,0.07,0.783     c0.073,0.831,0.137,1.664,0.191,2.496c0.018,0.273,0.037,0.547,0.052,0.82c0.049,0.838,0.085,1.674,0.115,2.51     c0.01,0.258,0.023,0.515,0.029,0.773c0.031,1.076,0.05,2.149,0.05,3.219S349.252,258.142,349.221,259.216z M378.888,262.597     h-13.616c0.112-2.186,0.169-4.385,0.169-6.598c0-2.212-0.057-4.411-0.169-6.596h13.616c3.638,0,6.597,2.959,6.597,6.596     C385.484,259.637,382.525,262.597,378.888,262.597z"/>
			<path d="M237.894,195.127c-4.466,0-8.084,3.618-8.084,8.084v33.19c-7.694,3.185-13.123,10.766-13.123,19.597     c0,11.695,9.513,21.209,21.208,21.209c3.147,0,6.127-0.708,8.815-1.943l17.301,16.124c1.558,1.453,3.536,2.171,5.509,2.171     c2.164,0,4.325-0.864,5.915-2.573c3.044-3.266,2.864-8.382-0.402-11.426l-17.303-16.126c0.872-2.317,1.371-4.816,1.371-7.435     c0-8.831-5.429-16.412-13.123-19.597v-33.19C245.978,198.747,242.36,195.127,237.894,195.127z M237.894,261.039     c-2.779,0-5.039-2.261-5.039-5.04c0-2.778,2.26-5.038,5.039-5.038s5.039,2.26,5.039,5.038     C242.933,258.778,240.673,261.039,237.894,261.039z"/>
		</g>
	</g>
</g>
<g>
</g>
<g>
</g>
<g>
</g>
<g>
</g>
<g>
</g>
<g>
</g>
<g>
</g>
<g>
</g>
<g>
</g>
<g>
</g>
<g>
</g>
<g>
</g>
<g>
</g>
<g>
</g>
<g>
</g>
</svg>
