<?xml version="1.0" encoding="iso-8859-1"?>
<!-- Generator: Adobe Illustrator 19.0.0, SVG Export Plug-In . SVG Version: 6.00 Build 0)  -->
<svg xmlns="http://www.w3.org/2000/svg" xmlns:xlink="http://www.w3.org/1999/xlink" version="1.1" id="Layer_1" x="0px" y="0px" viewBox="0 0 512 512" style="enable-background:new 0 0 512 512;" xml:space="preserve">
<g>
	<g>
		<path d="M512,231.179c0-21.602-14.561-52.03-83.926-74.312c-10.575-3.398-22.081-6.49-34.196-9.194    c-4.377-0.968-8.701,1.778-9.676,6.146c-0.974,4.369,1.778,8.701,6.146,9.676c11.636,2.596,22.662,5.56,32.768,8.805    c47.544,15.273,72.674,35.633,72.674,58.879c0,17.926-15.311,34.396-44.453,47.992c-0.078-1.036-0.169-2.08-0.269-3.127    c-0.011-0.107-0.021-0.215-0.031-0.322c-0.098-1.009-0.205-2.022-0.327-3.04c-0.002-0.014-0.003-0.028-0.004-0.041    c-0.119-0.997-0.25-1.998-0.392-3.002c-0.028-0.196-0.058-0.389-0.086-0.585c-0.108-0.738-0.222-1.476-0.343-2.215    c-0.025-0.15-0.045-0.304-0.07-0.453c21.863-10.88,33.809-23.263,33.809-35.207c0-16.945-23.41-34.183-64.228-47.295    C375.837,169.89,317.81,162.184,256,162.184s-119.839,7.706-163.395,21.698c-40.817,13.112-64.228,30.35-64.228,47.295    c0,11.943,11.945,24.326,33.809,35.207c-0.023,0.136-0.042,0.278-0.064,0.415c-0.128,0.775-0.246,1.547-0.359,2.32    c-0.024,0.165-0.05,0.33-0.073,0.495c-0.292,2.059-0.532,4.108-0.731,6.139c-0.009,0.083-0.016,0.167-0.024,0.251    c-0.102,1.06-0.193,2.115-0.272,3.163c-29.14-13.594-44.453-30.064-44.453-47.989c0-22.914,25.81-43.824,72.674-58.879    c44.726-14.368,104.075-22.281,167.117-22.281c37.658,0,75.07,2.908,108.19,8.412c4.416,0.733,8.591-2.251,9.324-6.667    c0.734-4.415-2.251-8.59-6.667-9.324c-34.469-5.727-71.764-8.631-110.848-8.631c-64.68,0-125.79,8.189-172.074,23.058    C14.561,179.149,0,209.577,0,231.179c0,18.342,10.612,44.33,60.211,65.535c-0.204,22.191,3.487,51.738,21.567,70.153    c7.378,7.513,17.945,11.323,31.412,11.323c35.454,0,85.371-26.797,109.969-41.421c3.592,2.629,8.004,4.202,12.787,4.202h40.296    c4.745,0,9.126-1.546,12.703-4.138c12.317,7.313,31.962,18.249,52.892,27.017c4.127,1.732,8.879-0.215,10.606-4.343    c1.73-4.129-0.214-8.879-4.343-10.607c-19.849-8.316-38.581-18.717-50.485-25.77c0.06-0.333,0.092-0.672,0.137-1.008    c0.036-0.265,0.082-0.525,0.108-0.792c0.067-0.69,0.106-1.386,0.106-2.086v-3.696l48.684,6.681    c0.374,0.051,0.745,0.076,1.112,0.076c3.987,0,7.462-2.944,8.019-7.004c0.608-4.435-2.494-8.523-6.928-9.131l-50.887-6.983v-9.456    l50.887-6.985c4.435-0.608,7.536-4.698,6.928-9.131c-0.608-4.435-4.696-7.522-9.131-6.928l-48.684,6.683v-2.366    c0-0.7-0.039-1.396-0.106-2.089c-0.026-0.266-0.072-0.525-0.107-0.788c-0.045-0.338-0.077-0.68-0.138-1.016    c45.801-27.186,102.887-50.868,121.039-32.376c7.209,7.342,11.501,17.412,13.963,28.045c0.032,0.25,0.073,0.499,0.13,0.749    c1.85,8.25,2.803,17.599,2.832,27.79c0,0.054,0.01,0.107,0.011,0.16c0.002,1.187-0.008,2.354-0.028,3.496    c-0.001,0.099-0.001,0.199,0,0.297c0.352,19.265-2.294,45.354-16.908,60.237c-9.808,9.989-30.874,6.563-46.821,1.924    c-4.3-1.251-8.796,1.222-10.046,5.52c-1.249,4.298,1.222,8.795,5.52,10.046c11.838,3.442,22.344,5.161,31.479,5.161    c13.525,0,24.044-3.769,31.434-11.294c18.077-18.412,21.771-47.959,21.57-70.153C501.389,275.509,512,249.519,512,231.179z     M163.146,282.747l50.885,6.985v9.456l-50.885,6.983c-4.435,0.608-7.536,4.698-6.928,9.131c0.558,4.061,4.032,7.004,8.019,7.004    c0.367,0,0.739-0.025,1.112-0.076l48.682-6.68v3.696c0,1.31,0.118,2.608,0.349,3.882c-20.977,12.404-69.452,38.853-101.19,38.853    c-8.953,0-15.63-2.176-19.846-6.47c-14.617-14.887-17.261-40.974-16.906-60.236c0.001-0.1,0.001-0.2,0-0.299    c-0.021-1.139-0.03-2.305-0.029-3.488c0.001-0.056,0.011-0.112,0.011-0.169c0.027-10.187,0.979-19.536,2.83-27.789    c0.056-0.252,0.098-0.505,0.131-0.756c2.461-10.628,6.754-20.695,13.962-28.037c4.216-4.294,10.893-6.471,19.847-6.471    c31.745,0,80.214,26.451,101.191,38.854c-0.232,1.275-0.35,2.575-0.35,3.885v2.365l-48.682-6.683    c-4.432-0.608-8.522,2.494-9.131,6.928C155.61,278.05,158.712,282.139,163.146,282.747z M281.758,319.246    c0,0.334-0.042,0.656-0.098,0.974c-0.019,0.105-0.043,0.21-0.069,0.313c-0.051,0.212-0.118,0.418-0.192,0.619    c-0.041,0.11-0.076,0.224-0.124,0.331c-0.123,0.274-0.264,0.539-0.428,0.788c-0.013,0.022-0.024,0.043-0.037,0.064    c-0.993,1.463-2.668,2.427-4.566,2.427h-40.296v-0.001c-3.041,0-5.516-2.475-5.516-5.516v-48.241c0-3.041,2.474-5.516,5.516-5.516    h40.296c2.25,0,4.183,1.358,5.039,3.295c0.039,0.088,0.066,0.178,0.101,0.267c0.086,0.227,0.161,0.459,0.217,0.699    c0.021,0.086,0.041,0.173,0.057,0.262c0.059,0.323,0.1,0.654,0.1,0.994V319.246z M430.22,223.379    c-14.421-14.688-40.727-15.033-78.19-1.028c-24.458,9.142-48.376,22.322-63.088,31.063c-3.577-2.59-7.956-4.136-12.7-4.136    h-40.296c-4.781,0-9.192,1.571-12.784,4.198c-24.595-14.623-74.509-41.422-109.971-41.422c-13.467,0-24.036,3.809-31.413,11.324    c-7.368,7.504-12.341,16.86-15.64,26.813c-17.345-9.243-21.551-16.835-21.551-19.013c0-3.135,8.991-17.732,52.975-31.862    c41.997-13.491,98.265-20.921,158.437-20.921s116.44,7.43,158.437,20.921c43.984,14.129,52.975,28.727,52.975,31.862    c0,2.179-4.206,9.771-21.551,19.013C442.561,240.239,437.588,230.883,430.22,223.379z"/>
	</g>
</g>
<g>
</g>
<g>
</g>
<g>
</g>
<g>
</g>
<g>
</g>
<g>
</g>
<g>
</g>
<g>
</g>
<g>
</g>
<g>
</g>
<g>
</g>
<g>
</g>
<g>
</g>
<g>
</g>
<g>
</g>
</svg>
