<?xml version="1.0" encoding="iso-8859-1"?>
<!-- Generator: Adobe Illustrator 19.0.0, SVG Export Plug-In . SVG Version: 6.00 Build 0)  -->
<svg xmlns="http://www.w3.org/2000/svg" xmlns:xlink="http://www.w3.org/1999/xlink" version="1.1" id="Layer_1" x="0px" y="0px" viewBox="0 0 512.001 512.001" style="enable-background:new 0 0 512.001 512.001;" xml:space="preserve">
<g>
	<g>
		<g>
			<path d="M369.653,298.442c0,4.473,3.624,8.097,8.097,8.097c32.961,0,61.562-17.988,69.555-43.744     c1.325-4.271-1.062-8.808-5.333-10.133c-4.275-1.327-8.808,1.063-10.133,5.333c-5.816,18.743-28.564,32.349-54.088,32.349     C373.279,290.345,369.653,293.97,369.653,298.442z"/>
			<path d="M196.121,252.663c-4.269-1.323-8.808,1.062-10.132,5.333c-5.815,18.745-28.563,32.349-54.087,32.349     c-4.472,0-8.097,3.624-8.097,8.097s3.625,8.097,8.097,8.097c32.962,0,61.564-17.988,69.554-43.744     C202.78,258.525,200.392,253.989,196.121,252.663z"/>
			<path d="M489.821,189.424h-9.801c-2.672-9.249-11.199-16.038-21.297-16.038h-23.092c-4.473,0-8.097,3.624-8.097,8.097     s3.624,8.097,8.097,8.097h23.092c3.302,0,5.987,2.685,5.987,5.985v1.956v49.679v8.801c0,36.625-39.009,66.421-86.959,66.421     c-47.947,0-86.956-29.797-86.956-66.421v-18.777v-41.661c0-3.3,2.684-5.985,5.984-5.985h111.321c4.473,0,8.097-3.624,8.097-8.097     s-3.624-8.097-8.097-8.097H296.779H215.22H53.276c-10.098,0-18.624,6.79-21.295,16.038h-9.801C9.95,189.424,0,199.374,0,211.604     v21.514c0,12.23,9.95,22.18,22.18,22.18h8.918v0.704c0,45.554,46.273,82.615,103.151,82.615     c56.878,0,103.152-37.061,103.152-82.615v-16.163c0.125-0.367,0.232-0.743,0.304-1.134c1.496-8.053,8.531-13.897,16.727-13.897     h3.141c8.194,0,15.227,5.845,16.724,13.898c0.072,0.391,0.179,0.768,0.305,1.135v16.161c0,45.554,46.273,82.615,103.151,82.615     c56.879,0,103.153-37.061,103.153-82.615v-0.704h8.918c12.229,0,22.179-9.95,22.179-22.18v-21.514     C512,199.374,502.05,189.424,489.821,189.424z M31.098,239.103H22.18c-3.3,0-5.985-2.685-5.985-5.985v-21.514     c0-3.3,2.685-5.985,5.985-5.985h8.918V239.103z M221.206,237.224v18.777c0,36.625-39.009,66.421-86.957,66.421     s-86.956-29.797-86.956-66.421V247.2v-49.679v-1.956c0-3.3,2.684-5.985,5.984-5.985H215.22c3.3,0,5.985,2.685,5.985,5.985     V237.224z M275.058,191.071c-0.01,0.049-0.016,0.098-0.026,0.147c-0.119,0.597-0.208,1.205-0.279,1.818     c-0.019,0.169-0.038,0.339-0.053,0.511c-0.06,0.666-0.103,1.337-0.103,2.018v17.747c-5.007-2.997-10.849-4.7-17.027-4.7h-3.141     c-6.179,0-12.019,1.703-17.03,4.7v-17.747c0-0.681-0.042-1.352-0.103-2.018c-0.015-0.171-0.033-0.34-0.053-0.511     c-0.07-0.613-0.159-1.221-0.279-1.818c-0.01-0.049-0.015-0.098-0.026-0.147c-0.104-0.504-0.224-1.002-0.362-1.492h38.841     C275.281,190.069,275.162,190.568,275.058,191.071z M495.806,233.117c0,3.3-2.684,5.985-5.984,5.985h-8.918v-33.485h8.918     c3.3,0,5.984,2.685,5.984,5.985V233.117z"/>
			<path d="M106.978,285.747c-2.138,0-4.221,0.864-5.733,2.363c-1.501,1.511-2.364,3.595-2.364,5.734     c0,2.127,0.864,4.209,2.364,5.722c1.511,1.511,3.595,2.375,5.733,2.375c2.127,0,4.211-0.864,5.722-2.375     c1.511-1.511,2.375-3.595,2.375-5.722c0-2.138-0.864-4.221-2.375-5.734C111.189,286.61,109.106,285.747,106.978,285.747z"/>
			<path d="M347.045,288.11c-1.511,1.511-2.375,3.595-2.375,5.734c0,2.127,0.864,4.209,2.375,5.722     c1.51,1.511,3.595,2.375,5.722,2.375c2.137,0,4.221-0.864,5.733-2.375c1.502-1.511,2.364-3.595,2.364-5.722     c0-2.138-0.864-4.221-2.364-5.734c-1.511-1.501-3.595-2.363-5.733-2.363C350.64,285.747,348.555,286.61,347.045,288.11z"/>
		</g>
	</g>
</g>
<g>
</g>
<g>
</g>
<g>
</g>
<g>
</g>
<g>
</g>
<g>
</g>
<g>
</g>
<g>
</g>
<g>
</g>
<g>
</g>
<g>
</g>
<g>
</g>
<g>
</g>
<g>
</g>
<g>
</g>
</svg>
