<?xml version="1.0" encoding="iso-8859-1"?>
<!-- Generator: Adobe Illustrator 19.0.0, SVG Export Plug-In . SVG Version: 6.00 Build 0)  -->
<svg xmlns="http://www.w3.org/2000/svg" xmlns:xlink="http://www.w3.org/1999/xlink" version="1.1" id="Layer_1" x="0px" y="0px" viewBox="0 0 512 512" style="enable-background:new 0 0 512 512;" xml:space="preserve">
<g>
	<g>
		<path d="M511.971,478.944L498.93,326.088l-17.343-203.25c-0.356-4.172-3.847-7.377-8.034-7.377h-2.876V93.594V64.273V46.955    c0-12.488-10.159-22.648-22.647-22.648H63.971c-12.488,0-22.648,10.159-22.648,22.648v17.318v29.321v21.866h-2.875    c-4.187,0-7.678,3.205-8.034,7.377L13.071,326.088L0.029,478.944c-0.192,2.25,0.568,4.477,2.094,6.14    c1.528,1.662,3.682,2.609,5.939,2.609h98.445h0.021h47.772c4.454,0,8.063-3.609,8.063-8.063c0-4.454-3.609-8.063-8.063-8.063    h-39.883c-1.993-57.62-25.088-95.304-44.611-117.049c-2.609-2.906-5.217-5.6-7.792-8.107l18.331-214.824h351.311l10.265,120.315    c0.378,4.437,4.285,7.728,8.719,7.348c4.437-0.378,7.728-4.282,7.348-8.719l-10.148-118.945h14.773h3.534l16.251,190.462    c-4.069,2.231-10.196,5.937-17.338,11.366l-4.623-54.18c-0.378-4.438-4.287-7.727-8.719-7.348    c-4.437,0.378-7.728,4.282-7.348,8.719l5.615,65.805c-2.575,2.506-5.183,5.2-7.792,8.107    c-19.523,21.746-42.615,59.431-44.609,117.049h-98.635l-35.072-160.169c-0.811-3.7-4.087-6.339-7.876-6.339    c-3.787,0-7.065,2.637-7.876,6.339L213.05,471.566h-30.798c-4.454,0-8.063,3.609-8.063,8.063s3.609,8.063,8.063,8.063h37.287    c3.789,0,7.065-2.637,7.876-6.339l28.586-130.538l28.584,130.538c0.811,3.7,4.087,6.339,7.876,6.339h113.032h98.445    c2.258,0,4.412-0.947,5.939-2.609C511.403,483.421,512.163,481.194,511.971,478.944z M98.301,471.567H16.842l11.234-131.652    c7.801,4.981,19.073,13.381,30.237,25.943C83.357,394.036,96.79,429.564,98.301,471.567z M46.939,333.414    c-7.142-5.429-13.269-9.134-17.338-11.366l16.251-190.462h3.533h14.776L46.939,333.414z M454.55,115.46h-15.49H72.942H57.448    v-13.803H454.55V115.46z M454.551,85.53H57.448V72.336h294.114c4.454,0,8.063-3.609,8.063-8.063s-3.609-8.063-8.063-8.063H57.448    v-9.255c0-3.596,2.926-6.522,6.523-6.522H448.03c3.596,0,6.52,2.926,6.52,6.521v9.255h-76.111c-4.454,0-8.063,3.609-8.063,8.063    c0,4.454,3.609,8.063,8.063,8.063h76.112V85.53z M413.698,471.567c1.512-42.002,14.945-77.53,39.988-105.709    c11.165-12.561,22.438-20.964,30.237-25.943l11.234,131.652H413.698z"/>
	</g>
</g>
<g>
</g>
<g>
</g>
<g>
</g>
<g>
</g>
<g>
</g>
<g>
</g>
<g>
</g>
<g>
</g>
<g>
</g>
<g>
</g>
<g>
</g>
<g>
</g>
<g>
</g>
<g>
</g>
<g>
</g>
</svg>
