<?xml version="1.0" encoding="iso-8859-1"?>
<!-- Generator: Adobe Illustrator 19.0.0, SVG Export Plug-In . SVG Version: 6.00 Build 0)  -->
<svg xmlns="http://www.w3.org/2000/svg" xmlns:xlink="http://www.w3.org/1999/xlink" version="1.1" id="Layer_1" x="0px" y="0px" viewBox="0 0 512 512" style="enable-background:new 0 0 512 512;" xml:space="preserve">
<g>
	<g>
		<path d="M511.959,459.109l-3.994-39.712c-0.442-4.392-4.364-7.599-8.75-7.152l-0.758,0.077l-16.776-158.162    c-0.466-4.388-4.395-7.568-8.79-7.104c-4.389,0.466-7.57,4.401-7.104,8.79l16.765,158.076l-194.437,19.551h-4.955l-19.422-76.067    c-0.904-3.539-4.091-6.015-7.743-6.015c-3.653,0-6.84,2.475-7.743,6.015l-19.423,76.067h-4.744L29.445,413.9l32.904-310.235h2.128    h144.39v37.854c-7.11,3.096-12.098,10.184-12.098,18.421c0,11.077,9.012,20.091,20.09,20.091s20.092-9.013,20.092-20.091    c0-8.237-4.989-15.325-12.1-18.422v-37.853h62.301v37.854c-7.11,3.096-12.098,10.184-12.098,18.421    c0,11.077,9.012,20.091,20.09,20.091s20.091-9.013,20.091-20.091c0-8.237-4.989-15.325-12.099-18.422v-37.853h144.39h2.124    l13.141,123.891c0.466,4.389,4.395,7.575,8.79,7.104c4.389-0.466,7.57-4.401,7.104-8.79l-13.86-130.68    c2.913-3.727,4.666-8.402,4.666-13.489V43.279c0-12.11-9.853-21.962-21.964-21.962h-61.441c-4.415,0-7.992,3.577-7.992,7.991    c0,4.415,3.577,7.992,7.992,7.992h61.441c3.298,0,5.981,2.683,5.981,5.979v11.22H58.495v-11.22c0-3.297,2.683-5.979,5.981-5.979    h294.968c4.414,0,7.992-3.577,7.992-7.992c0-4.414-3.577-7.991-7.992-7.991H64.476c-12.111,0-21.964,9.852-21.964,21.962v38.422    c0,5.084,1.752,9.757,4.663,13.483L13.539,412.321l-0.755-0.076c-4.386-0.442-8.309,2.76-8.75,7.152L0.04,459.11    c-0.212,2.109,0.422,4.215,1.762,5.856c1.34,1.641,3.28,2.683,5.389,2.894l226.548,22.78c0.272,0.028,0.541,0.042,0.809,0.042    c4.054,0,7.527-3.073,7.941-7.193l3.994-39.712c0.212-2.109-0.422-4.215-1.762-5.856c-0.13-0.159-0.271-0.308-0.411-0.455    l11.688-45.777l11.689,45.782c-0.14,0.147-0.279,0.294-0.408,0.452c-1.341,1.641-1.975,3.749-1.762,5.856l3.994,39.712    c0.414,4.12,3.887,7.193,7.941,7.193c0.267,0,0.537-0.014,0.809-0.042l226.548-22.78c2.109-0.211,4.048-1.253,5.389-2.894    S512.172,461.218,511.959,459.109z M303.133,70.483h150.371v11.218c0,3.298-2.683,5.981-5.981,5.981h-144.39V70.483z     M295.141,155.834c2.265,0,4.108,1.842,4.108,4.107c0,2.265-1.842,4.108-4.108,4.108c-2.264,0-4.107-1.842-4.107-4.108    C291.035,157.676,292.877,155.834,295.141,155.834z M224.849,70.483h62.301v17.199h-62.301V70.483z M216.858,155.834    c2.265,0,4.109,1.842,4.109,4.107c0,2.265-1.843,4.108-4.109,4.108c-2.264,0-4.107-1.842-4.107-4.108    C212.751,157.676,214.594,155.834,216.858,155.834z M58.495,70.483h150.371v17.199H64.476c-3.298,0-5.981-2.684-5.981-5.981    V70.483z M227.387,473.937L16.742,452.756l2.394-23.809l210.645,21.181L227.387,473.937z M284.612,473.937l-2.394-23.809    l6.912-0.695c0.124-0.006,0.248-0.006,0.372-0.019l202.649-20.376c0.127-0.013,0.251-0.038,0.377-0.057l0.336-0.034l2.394,23.809    L284.612,473.937z"/>
	</g>
</g>
<g>
</g>
<g>
</g>
<g>
</g>
<g>
</g>
<g>
</g>
<g>
</g>
<g>
</g>
<g>
</g>
<g>
</g>
<g>
</g>
<g>
</g>
<g>
</g>
<g>
</g>
<g>
</g>
<g>
</g>
</svg>
