<?xml version="1.0" encoding="iso-8859-1"?>
<!-- Generator: Adobe Illustrator 19.0.0, SVG Export Plug-In . SVG Version: 6.00 Build 0)  -->
<svg xmlns="http://www.w3.org/2000/svg" xmlns:xlink="http://www.w3.org/1999/xlink" version="1.1" id="Layer_1" x="0px" y="0px" viewBox="0 0 512 512" style="enable-background:new 0 0 512 512;" xml:space="preserve">
<g>
	<g>
		<g>
			<path d="M277.086,46.937h5.862c4.466,0,8.084-3.619,8.084-8.084s-3.618-8.084-8.084-8.084h-5.862     c-4.466,0-8.084,3.619-8.084,8.084S272.62,46.937,277.086,46.937z"/>
			<path d="M458.2,0H247.779H53.8C41.586,0,31.648,9.937,31.648,22.152v47.472v1.758c0,0.142,0.003,0.285,0.011,0.427     l20.602,389.838c-2.188,1.447-3.635,3.926-3.635,6.747v35.523c0,4.466,3.62,8.084,8.084,8.084h180.518     c4.465,0,8.084-3.618,8.084-8.084v-35.524c0-2.436-1.082-4.614-2.786-6.097L256,344.59l13.596,118.774     c-1.098,1.381-1.759,3.125-1.759,5.027v35.524c0,4.466,3.618,8.084,8.084,8.084h180.518c4.466,0,8.084-3.618,8.084-8.084v-35.524     c0-3.276-1.951-6.089-4.751-7.36l10.059-190.346c0.236-4.458-3.187-8.263-7.647-8.499c-4.445-0.25-8.264,3.187-8.499,7.647     l-10.066,190.475H285.519l-21.435-187.266v-37.619l35.373-17.694c2.738-1.37,4.468-4.168,4.468-7.231V77.708h76.202     c0.144,15.136,3.161,46.475,23.72,68.993c13.492,14.778,31.99,23.035,55.042,24.643l-3.735,70.662     c-0.236,4.458,3.187,8.263,7.647,8.499c4.439,0.254,8.264-3.187,8.499-7.647l9.04-171.05c0.008-0.142,0.012-0.285,0.012-0.427     v-1.758V22.152C480.352,9.937,470.415,0,458.2,0z M284.004,476.476h164.35v19.356h-164.35V476.476z M148.018,16.168h91.677     v45.371h-91.677V16.168z M47.817,22.152c0-3.299,2.684-5.983,5.983-5.983h78.049v45.371H47.817V22.152z M48.162,77.708h68.496     c-0.177,12.863-2.714,39.81-19.517,58.157c-10.703,11.688-25.79,18.185-44.88,19.396L48.162,77.708z M229.145,495.832H64.795     v-19.356h164.35V495.832z M247.916,273.042l-21.435,187.266H68.382L53.114,171.403c23.51-1.438,42.344-9.714,56.029-24.702     c20.559-22.518,23.576-53.857,23.72-68.993H247.78h0.136V273.042z M287.757,205.503l-23.673,11.842V77.708h23.673V205.503z      M362.779,61.539H255.863V16.168h106.916V61.539z M459.743,155.203c-18.628-1.369-33.374-7.851-43.894-19.339     c-16.803-18.347-19.341-45.294-19.519-58.157h67.508L459.743,155.203z M464.184,61.539h-75.82c-0.003,0-0.008,0-0.011,0h-9.404     V16.168H458.2c3.298,0,5.983,2.684,5.983,5.983V61.539z"/>
		</g>
	</g>
</g>
<g>
</g>
<g>
</g>
<g>
</g>
<g>
</g>
<g>
</g>
<g>
</g>
<g>
</g>
<g>
</g>
<g>
</g>
<g>
</g>
<g>
</g>
<g>
</g>
<g>
</g>
<g>
</g>
<g>
</g>
</svg>
