<?xml version="1.0" encoding="iso-8859-1"?>
<!-- Generator: Adobe Illustrator 19.0.0, SVG Export Plug-In . SVG Version: 6.00 Build 0)  -->
<svg xmlns="http://www.w3.org/2000/svg" xmlns:xlink="http://www.w3.org/1999/xlink" version="1.1" id="Layer_1" x="0px" y="0px" viewBox="0 0 512.001 512.001" style="enable-background:new 0 0 512.001 512.001;" xml:space="preserve">
<g>
	<g>
		<path d="M462.642,241.356c4.466,0,8.084-3.618,8.084-8.084V116.556c0-0.582-0.023-1.149-0.06-1.707    c-1.021-24.428-23.408-46.406-66.54-65.32c-25.844-11.333-51.149-18.037-59.131-20.018L321.069,2.701    c-1.504-1.685-3.643-2.656-5.897-2.694c-0.012,0-0.023-0.002-0.034-0.003c-0.004,0-0.009,0-0.013,0    c-0.029,0-0.057-0.004-0.086-0.004H196.965c-0.039,0-0.078,0.005-0.116,0.006c-0.043,0.001-0.086-0.003-0.129-0.002    c-0.104,0.003-0.206,0.018-0.309,0.025c-0.138,0.01-0.275,0.017-0.412,0.033c-0.146,0.017-0.288,0.044-0.431,0.069    c-0.13,0.023-0.262,0.043-0.391,0.072c-0.144,0.033-0.286,0.075-0.428,0.115c-0.124,0.036-0.25,0.068-0.372,0.109    c-0.142,0.049-0.28,0.107-0.419,0.162c-0.117,0.047-0.236,0.091-0.351,0.143c-0.139,0.064-0.274,0.138-0.409,0.209    c-0.11,0.057-0.221,0.111-0.328,0.174c-0.137,0.081-0.267,0.172-0.4,0.261c-0.098,0.066-0.201,0.126-0.295,0.197    c-0.141,0.104-0.274,0.219-0.407,0.332c-0.079,0.067-0.163,0.127-0.239,0.197c-0.207,0.189-0.405,0.387-0.593,0.597    l-23.979,26.868c-7.88,2.1-33.267,9.282-59.194,21.131C83.343,61.858,65.595,73.872,54.61,86.628    c-1.348,0.901-2.418,2.201-3.03,3.761c-6.431,8.588-9.859,17.497-10.244,26.699c-0.038,0.559-0.06,1.124-0.06,1.708v284.487    c0,3.65,2.446,6.847,5.967,7.802l12.958,3.516v32.527c0,3.716,2.533,6.952,6.139,7.846l39.958,9.907    c0.016,0.03,0.037,0.057,0.054,0.087c0.258,0.46,0.53,0.912,0.821,1.35c0.115,0.174,0.238,0.341,0.359,0.51    c0.244,0.344,0.494,0.682,0.756,1.011c0.141,0.177,0.286,0.349,0.432,0.522c0.271,0.317,0.551,0.624,0.84,0.924    c0.148,0.153,0.292,0.308,0.444,0.457c0.346,0.338,0.706,0.662,1.074,0.977c0.107,0.091,0.206,0.188,0.315,0.276    c0.482,0.396,0.982,0.77,1.498,1.122c0.12,0.082,0.247,0.154,0.369,0.233c0.402,0.262,0.811,0.514,1.232,0.749    c0.188,0.105,0.38,0.202,0.571,0.3c0.373,0.194,0.751,0.377,1.137,0.549c0.207,0.092,0.415,0.181,0.625,0.266    c0.401,0.163,0.808,0.309,1.221,0.448c0.196,0.066,0.388,0.136,0.586,0.195c0.082,0.025,0.159,0.057,0.242,0.081l0.165,1.11    l4.321,29.06c0.589,3.961,3.99,6.894,7.996,6.894h0.002h40.792h168.867h39.628h0.002c4.005,0,7.407-2.934,7.997-6.895    l4.438-29.858c0.445-0.1,0.881-0.227,1.315-0.356c0.119-0.035,0.241-0.06,0.359-0.097c0.618-0.194,1.223-0.417,1.815-0.666    c0.155-0.065,0.303-0.143,0.456-0.211c0.431-0.193,0.859-0.394,1.274-0.615c0.203-0.108,0.397-0.225,0.595-0.34    c0.356-0.204,0.707-0.414,1.049-0.638c0.205-0.135,0.404-0.274,0.605-0.415c0.324-0.229,0.64-0.466,0.951-0.711    c0.192-0.152,0.382-0.304,0.567-0.462c0.31-0.264,0.609-0.539,0.902-0.82c0.165-0.157,0.332-0.31,0.492-0.473    c0.323-0.33,0.631-0.675,0.932-1.025c0.111-0.129,0.23-0.252,0.339-0.384c0.401-0.489,0.783-0.996,1.138-1.522    c0.064-0.094,0.117-0.194,0.18-0.29c0.285-0.434,0.558-0.877,0.811-1.333c0.001-0.003,0.003-0.005,0.005-0.009l39.958-9.907    c3.607-0.894,6.139-4.13,6.139-7.846v-32.842l11.794-3.2c3.523-0.956,5.967-4.153,5.967-7.802V259.661    c0-4.466-3.618-8.084-8.084-8.084c-4.466,0-8.084,3.619-8.084,8.084v137.438l-45.778,12.421c-0.737-2.809-2.034-5.39-3.777-7.612    c2.8-3.571,4.486-8.056,4.486-12.935v-39.895c0-4.879-1.686-9.364-4.486-12.935c2.8-3.571,4.486-8.056,4.486-12.935v-39.894    c0-4.88-1.686-9.364-4.486-12.935c2.8-3.571,4.486-8.056,4.486-12.935v-39.895c0-4.88-1.686-9.364-4.486-12.935    c2.8-3.571,4.486-8.056,4.486-12.935v-35.585c0-39.279,29.266-50.749,40.959-53.764c2.449,4.259,3.891,8.689,4.068,13.272    c0.003,0.087,0.009,0.176,0.015,0.263c0.016,0.225,0.027,0.454,0.027,0.69v116.716    C454.557,237.737,458.176,241.356,462.642,241.356z M409.487,426.08l27.307-7.409v22.131l-27.307,6.77V426.08z M329.361,36.436    l-65.275,64.694v-31.24h0l50.451-50.064L329.361,36.436z M186.304,32.171l11.017-12.344l50.451,50.064v31.238l-65.275-64.694    L186.304,32.171z M103.678,447.572l-27.307-6.77v-21.815l26.143,7.094v12.423c0,1.531,0.426,2.962,1.164,4.182V447.572z     M108.164,270.38c-2.8,3.571-4.486,8.055-4.486,12.935v39.895c0,4.88,1.686,9.365,4.486,12.935    c-2.8,3.571-4.486,8.055-4.486,12.935v39.895c0,4.879,1.686,9.364,4.486,12.935c-1.804,2.301-3.131,4.983-3.852,7.907    l-31.892-8.653c-1.21-0.722-2.62-1.145-4.133-1.145c-0.025,0-0.049,0.003-0.074,0.003l-10.768-2.921V118.796h-0.001    c0-0.238,0.012-0.468,0.028-0.695c0.006-0.086,0.011-0.174,0.014-0.26c0.207-5.344,2.141-10.514,5.375-15.473    c11.789,3.072,40.817,14.612,40.817,53.729v35.585c0,4.879,1.686,9.364,4.486,12.935c-2.8,3.571-4.486,8.055-4.486,12.935v39.895    C103.678,262.324,105.364,266.809,108.164,270.38z M116.512,132.426c-5.471-17.932-16.742-28.951-26.64-35.476    c-5.256-3.464-10.509-5.928-15.113-7.671c24.718-21.173,69.848-36.973,94.176-43.521l78.983,78.28v6.728H124.697    C121.795,130.766,119.029,131.358,116.512,132.426z M124.697,328.06c-2.674,0-4.851-2.177-4.851-4.852v-39.895    c0-2.674,2.176-4.851,4.851-4.851h123.221v49.597H124.697z M247.917,344.228v49.595H124.697c-2.675,0-4.851-2.175-4.851-4.851    v-39.895c0-2.673,2.176-4.849,4.851-4.849H247.917z M124.697,262.295c-2.674,0-4.851-2.176-4.851-4.851v-39.895    c0-2.674,2.176-4.851,4.851-4.851h123.221v49.596H124.697z M124.697,196.53c-2.674,0-4.851-2.176-4.851-4.851v-39.895    c0-2.674,2.176-4.851,4.851-4.851h123.221v49.596H124.697z M164.065,495.832h-25.739l-2.985-20.076h28.724V495.832z     M172.149,459.587h-46.183h-1.27c-2.674,0-4.851-2.176-4.851-4.851v-16.234v-23.661c0-2.674,2.176-4.851,4.851-4.851h123.221    v49.596h-39.742h-25.273H172.149z M248.498,495.832h-68.265v-20.076h2.668h25.273h40.324V495.832z M216.589,16.168h78.68    l-39.34,39.039L216.589,16.168z M332.932,495.832h-68.265v-20.076h68.265V495.832z M373.673,495.832H349.1v-20.076h27.557    L373.673,495.832z M393.32,419.896v34.84c0,2.674-2.176,4.851-4.851,4.851h-2.436h-45.017h-76.349v-1.683    c0-1.061-0.21-2.071-0.581-2.999V409.99h124.384c2.674,0.001,4.851,2.177,4.851,4.852V419.896z M393.32,388.973    c0,2.674-2.176,4.851-4.851,4.851H264.086v-49.595h124.384c2.674,0,4.851,2.175,4.851,4.849V388.973z M393.32,323.209    c0,2.674-2.176,4.852-4.851,4.852H264.086v-49.597h124.384c2.674,0,4.851,2.175,4.851,4.851V323.209z M393.32,257.444    c0,2.674-2.176,4.851-4.851,4.851H264.086v-49.596h124.384c2.674,0,4.851,2.176,4.851,4.851V257.444z M393.32,191.68    c0,2.674-2.176,4.851-4.851,4.851H264.086v-49.596h124.384c2.674,0,4.851,2.176,4.851,4.851V191.68z M423.294,96.95    c-9.899,6.524-21.169,17.544-26.64,35.476c-2.517-1.068-5.283-1.66-8.184-1.66H264.086v-6.873l78.934-78.233    c24.879,6.201,71.837,21.768,96.115,43.344C434.362,90.762,428.828,93.303,423.294,96.95z"/>
	</g>
</g>
<g>
</g>
<g>
</g>
<g>
</g>
<g>
</g>
<g>
</g>
<g>
</g>
<g>
</g>
<g>
</g>
<g>
</g>
<g>
</g>
<g>
</g>
<g>
</g>
<g>
</g>
<g>
</g>
<g>
</g>
</svg>
