<?xml version="1.0" encoding="iso-8859-1"?>
<!-- Generator: Adobe Illustrator 19.0.0, SVG Export Plug-In . SVG Version: 6.00 Build 0)  -->
<svg xmlns="http://www.w3.org/2000/svg" xmlns:xlink="http://www.w3.org/1999/xlink" version="1.1" id="Layer_1" x="0px" y="0px" viewBox="0 0 512.003 512.003" style="enable-background:new 0 0 512.003 512.003;" xml:space="preserve">
<g>
	<g>
		<g>
			<path d="M462.642,241.357c4.466,0,8.084-3.618,8.084-8.084V116.557c0-0.582-0.022-1.149-0.059-1.706     c-1.021-24.428-23.408-46.407-66.54-65.321c-26.707-11.711-52.841-18.482-59.873-20.201L309.264,1.736     c-0.004-0.003-0.01-0.005-0.014-0.01c-0.327-0.257-0.67-0.476-1.022-0.676c-0.05-0.028-0.097-0.058-0.147-0.085     c-0.352-0.19-0.716-0.348-1.085-0.481c-0.058-0.021-0.115-0.041-0.175-0.061c-0.376-0.126-0.759-0.224-1.146-0.293     c-0.057-0.011-0.114-0.017-0.172-0.026c-0.399-0.061-0.8-0.099-1.201-0.101c-0.015,0-0.029-0.003-0.044-0.003h-96.514     c-0.017,0-0.033,0.004-0.05,0.004c-0.397,0.002-0.793,0.039-1.187,0.099c-0.063,0.01-0.124,0.017-0.186,0.028     c-0.384,0.068-0.763,0.167-1.137,0.291c-0.06,0.021-0.12,0.041-0.179,0.063c-0.37,0.134-0.732,0.291-1.084,0.481     c-0.049,0.026-0.095,0.056-0.143,0.083c-0.358,0.202-0.707,0.426-1.039,0.687l-35.048,27.637     c-6.909,1.817-33.13,9.079-59.93,21.326c-25.24,11.538-43.354,23.989-54.236,37.226c-0.136,0.15-0.266,0.305-0.391,0.467     c-7.435,9.201-11.383,18.78-11.798,28.698c-0.038,0.559-0.059,1.124-0.059,1.708v261.175v42.714c0,3.65,2.446,6.847,5.967,7.802     l55.269,14.996v8.865c0,0.001,0,0.003,0,0.005l0.001,13.321c0,4.466,3.62,8.084,8.084,8.084h7.283v27.484v0.676     c0,4.466,3.619,8.084,8.084,8.084h0.002h260.065h0.002c4.466,0,8.084-3.618,8.084-8.084v-28.16h7.284     c4.466,0,8.084-3.618,8.084-8.084v-13.027v-9.162l55.269-14.996c3.523-0.956,5.967-4.153,5.967-7.802v-42.714V259.662     c0-4.466-3.618-8.084-8.084-8.084c-4.466,0-8.084,3.619-8.084,8.084v114.066l-45.07,11.774V171.04     c0-0.133-0.005-0.293-0.012-0.427c-0.095-1.926-1.718-45.641,41.557-67.203c2.087,3.928,3.321,7.997,3.483,12.194     c0.003,0.087,0.009,0.176,0.015,0.263c0.016,0.225,0.026,0.454,0.026,0.69v116.716     C454.558,237.738,458.176,241.357,462.642,241.357z M409.488,402.213l45.07-11.774v26.064l-45.07,12.229V402.213z      M305.358,19.248l23.1,18.215l-62.321,61.661C273.023,62.405,295.436,31.497,305.358,19.248z M287.194,16.17     c-9.458,12.635-22.753,33.175-31.192,58.031c-8.44-24.855-21.735-45.396-31.193-58.031H287.194z M206.644,19.249     c9.926,12.252,32.336,43.159,39.22,79.875l-62.318-61.661L206.644,19.249z M103.647,429.038l-46.201-12.535V390.39l46.201,11.845     V429.038z M103.66,170.584c-0.009,0.152-0.013,0.303-0.013,0.455v214.504l-46.201-11.845V118.797     c0-0.237,0.011-0.466,0.027-0.692c0.005-0.087,0.011-0.175,0.014-0.262c0.192-4.958,1.872-9.765,4.695-14.394     C105.375,125.025,103.754,168.686,103.66,170.584z M154.635,495.157h-20.583v-18.725h20.583V495.157z M341.035,495.833H170.803     v-20.076h12.098c4.466,0,8.084-3.619,8.084-8.084s-3.619-8.084-8.084-8.084h-56.933h-6.152v-4.413     c0.012-0.177,0.03-0.351,0.03-0.53v-58.676c0-0.123-0.025-0.24-0.03-0.362V171.218c0.087-2.204,0.365-16.399-5.877-33.222     c-5.435-14.646-16.901-33.889-40.968-47.138c24.272-21.966,71.043-38.391,95.968-45.1l78.977,78.142v335.689h-39.742     c-4.466,0-8.084,3.619-8.084,8.084s3.618,8.084,8.084,8.084h132.859V495.833z M377.787,495.157h-20.583v-18.725h20.583V495.157z      M399.197,137.995c-6.244,16.827-5.964,31.025-5.877,33.224v288.368h-7.283h-0.001h-0.001H264.086V123.899l79.044-78.209     c25.487,6.365,73.954,22.501,97.657,44.83C416.298,103.779,404.678,123.225,399.197,137.995z"/>
			<path d="M286.17,144.649h-1.546c-4.466,0-8.084,3.619-8.084,8.084c0,4.466,3.619,8.084,8.084,8.084h1.546     c4.466,0,8.084-3.618,8.084-8.084C294.254,148.268,290.636,144.649,286.17,144.649z"/>
			<path d="M286.17,203.697h-1.546c-4.466,0-8.084,3.618-8.084,8.084c0,4.466,3.619,8.084,8.084,8.084h1.546     c4.466,0,8.084-3.619,8.084-8.084C294.254,207.316,290.636,203.697,286.17,203.697z"/>
			<path d="M286.17,262.744h-1.546c-4.466,0-8.084,3.619-8.084,8.084s3.619,8.084,8.084,8.084h1.546     c4.466,0,8.084-3.619,8.084-8.084C294.254,266.363,290.636,262.744,286.17,262.744z"/>
			<path d="M286.17,380.837h-1.546c-4.466,0-8.084,3.619-8.084,8.084s3.619,8.084,8.084,8.084h1.546     c4.466,0,8.084-3.619,8.084-8.084S290.636,380.837,286.17,380.837z"/>
			<path d="M286.17,321.79h-1.546c-4.466,0-8.084,3.618-8.084,8.084c0,4.466,3.619,8.084,8.084,8.084h1.546     c4.466,0,8.084-3.618,8.084-8.084C294.254,325.409,290.636,321.79,286.17,321.79z"/>
			<path d="M320.593,340.187c-3.698,2.501-4.668,7.527-2.167,11.225l36.457,53.895c1.562,2.311,4.11,3.556,6.703,3.556     c1.559,0,3.133-0.451,4.522-1.389c3.698-2.501,4.668-7.527,2.167-11.225l-36.457-53.895     C329.317,338.653,324.292,337.686,320.593,340.187z"/>
			<path d="M191.411,340.187c-3.699-2.504-8.724-1.532-11.225,2.167l-36.457,53.895c-2.502,3.698-1.532,8.724,2.167,11.225     c1.388,0.94,2.963,1.389,4.522,1.389c2.593,0,5.142-1.246,6.703-3.556l36.457-53.895     C196.08,347.714,195.11,342.688,191.411,340.187z"/>
		</g>
	</g>
</g>
<g>
</g>
<g>
</g>
<g>
</g>
<g>
</g>
<g>
</g>
<g>
</g>
<g>
</g>
<g>
</g>
<g>
</g>
<g>
</g>
<g>
</g>
<g>
</g>
<g>
</g>
<g>
</g>
<g>
</g>
</svg>
