<?xml version="1.0" encoding="iso-8859-1"?>
<!-- Generator: Adobe Illustrator 19.0.0, SVG Export Plug-In . SVG Version: 6.00 Build 0)  -->
<svg xmlns="http://www.w3.org/2000/svg" xmlns:xlink="http://www.w3.org/1999/xlink" version="1.1" id="Layer_1" x="0px" y="0px" viewBox="0 0 512 512" style="enable-background:new 0 0 512 512;" xml:space="preserve">
<g>
	<g>
		<g>
			<path d="M230.999,439.554v-85.452v-27.862c0-4.466-3.619-8.084-8.084-8.084H148.54c-4.466,0-8.084,3.618-8.084,8.084v27.862     v85.452c0,4.466,3.618,8.084,8.084,8.084h74.375C227.38,447.638,230.999,444.019,230.999,439.554z M214.831,431.469h-58.206     v-56.938c1.56,0.371,3.179,0.587,4.851,0.587h48.505c1.672,0,3.291-0.217,4.851-0.587V431.469z M214.831,354.101     c0,2.674-2.176,4.851-4.851,4.851h-48.505c-2.674,0-4.851-2.176-4.851-4.851v-19.778h58.206V354.101z"/>
			<path d="M363.102,318.155h-74.375c-4.466,0-8.084,3.618-8.084,8.084v27.862v85.452c0,4.466,3.618,8.084,8.084,8.084h74.375     c4.466,0,8.084-3.618,8.084-8.084v-85.452v-27.862C371.186,321.774,367.567,318.155,363.102,318.155z M355.018,431.469h-58.206     v-56.938c1.56,0.371,3.179,0.587,4.851,0.587h48.505c1.672,0,3.291-0.217,4.851-0.587V431.469z M355.018,354.101     c0,2.674-2.176,4.851-4.851,4.851h-48.505c-2.674,0-4.851-2.176-4.851-4.851v-19.778h58.206V354.101z"/>
			<path d="M454.933,251.45c4.466,0,8.084-3.618,8.084-8.084V134.238c0-10.934-3.696-20.719-9.644-29.4     c-0.311-0.584-0.693-1.11-1.12-1.586c-11.942-16.406-31.883-28.727-49.75-37.197c-19.571-55.197-57.141-65.39-58.764-65.804     c-0.154-0.04-0.31-0.056-0.466-0.086c-0.152-0.029-0.302-0.064-0.456-0.085c-0.263-0.036-0.526-0.05-0.789-0.058     C341.931,0.018,341.837,0,341.738,0H171.206c-0.094,0-0.184,0.017-0.278,0.021c-0.267,0.01-0.535,0.024-0.803,0.059     c-0.155,0.022-0.306,0.056-0.458,0.085c-0.155,0.03-0.31,0.047-0.466,0.087c-1.61,0.412-38.928,10.55-58.555,65.261     c-27.98,13.073-61.664,35.673-61.664,68.724v291.476c0,3.65,2.446,6.847,5.967,7.802l52.985,14.377v21.131     c0,4.466,3.618,8.084,8.084,8.084h6.712v26.808c0,4.466,3.618,8.084,8.084,8.084h250.367c4.466,0,8.084-3.618,8.084-8.084     v-26.808h6.712c4.466,0,8.084-3.619,8.084-8.084v-21.131l52.986-14.377c3.523-0.956,5.967-4.153,5.967-7.802V270.847     c0-4.466-3.619-8.084-8.084-8.084c-4.466,0-8.084,3.619-8.084,8.084V419.53l-42.785,11.609V183.454     c0-0.133-0.004-0.293-0.012-0.427c-0.091-1.834-1.621-43.166,38.971-63.981c2.437,4.803,3.826,9.875,3.826,15.19v109.128     C446.849,247.832,450.467,251.45,454.933,251.45z M343.875,17.497c7.683,3.475,24.533,13.654,37.394,39.696     c-8.745-3.196-15.02-4.963-16.462-5.357c-0.093-0.025-0.163-0.044-0.193-0.053c-0.487-0.131-0.983-0.216-1.481-0.254     c-1.49-0.115-2.992,0.184-4.337,0.881L315.74,74.682c-1.119-3.124-4.096-5.361-7.604-5.361c-4.466,0-8.084,3.619-8.084,8.084     v5.393l-38.898,20.12l1.124-1.161l49.446-51.059c0.001,0,0.001-0.001,0.002-0.002l18.303-18.9L343.875,17.497z M313.528,191.665     c0,2.974-2.419,5.393-5.393,5.393s-5.393-2.419-5.393-5.393c0-2.974,2.419-5.394,5.393-5.394S313.528,188.691,313.528,191.665z      M256.471,84.511l-30.364-31.356h60.73L256.471,84.511z M322.655,16.168l-10.996,11.354l-9.165,9.464h-92.045l-11.428-11.801     l-8.733-9.018H322.655z M169.062,17.492l76.154,78.641l-1.369,1.414l-1.131,1.167l-28.403-14.692v-6.618     c0-4.466-3.618-8.084-8.084-8.084c-3.898,0-7.149,2.757-7.913,6.427L153.201,52.41c-0.263-0.136-0.535-0.252-0.808-0.359     c-0.081-0.031-0.162-0.057-0.243-0.085c-0.203-0.071-0.405-0.134-0.612-0.188c-0.088-0.023-0.176-0.046-0.264-0.067     c-0.231-0.052-0.462-0.094-0.695-0.125c-0.056-0.008-0.112-0.019-0.168-0.026c-0.291-0.033-0.583-0.051-0.876-0.052     c-0.015,0-0.03-0.003-0.046-0.003c-0.04,0-0.08,0.008-0.12,0.008c-0.268,0.004-0.536,0.023-0.803,0.053     c-0.08,0.01-0.159,0.018-0.237,0.029c-0.316,0.046-0.631,0.104-0.942,0.188c-0.947,0.255-6.923,1.9-15.498,4.989     C144.725,30.998,161.4,20.941,169.062,17.492z M211.624,191.665c0,2.974-2.419,5.393-5.393,5.393     c-2.974,0-5.393-2.419-5.393-5.393c0-2.974,2.419-5.394,5.393-5.394C209.205,186.271,211.624,188.691,211.624,191.665z      M109.038,183c-0.009,0.152-0.013,0.303-0.013,0.455v247.98l-43.874-11.904V134.238c0-5.475,1.475-10.69,4.05-15.62     C110.672,139.287,109.128,181.18,109.038,183z M138.9,495.832v-18.724h25.972c4.466,0,8.084-3.619,8.084-8.084     s-3.618-8.084-8.084-8.084h-34.056h-5.621V183.632c0.084-2.161,0.344-15.868-5.677-32.093     c-5.316-14.328-16.609-33.208-40.459-46.017c10.789-10.902,26.32-19.881,40.961-26.536c0.141-0.054,0.285-0.092,0.424-0.153     c12.282-5.498,23.173-9.049,28.201-10.576l49.502,25.607v77.828c-7.892,3.206-13.477,10.945-13.477,19.974     c0,9.029,5.585,16.768,13.477,19.974v16.674c0,4.466,3.618,8.084,8.084,8.084c4.466,0,8.084-3.618,8.084-8.084V211.64     c7.892-3.206,13.477-10.945,13.477-19.974c0-9.029-5.585-16.769-13.477-19.974v-69.466l33.599,17.38v341.333h-56.636     c-4.466,0-8.084,3.619-8.084,8.084c0,4.466,3.618,8.084,8.084,8.084h181.82v18.725H138.9z M393.572,151.539     c-6.02,16.222-5.762,29.926-5.677,32.091v258.079v19.23h-6.712H264.083V119.606l35.968-18.606v70.689     c-7.892,3.206-13.477,10.945-13.477,19.974c0,9.028,5.585,16.768,13.477,19.974v16.674c0,4.466,3.618,8.084,8.084,8.084     c4.466,0,8.084-3.618,8.084-8.084v-16.674c7.892-3.206,13.477-10.945,13.477-19.974c0-9.03-5.585-16.769-13.477-19.974V92.636     l47.134-24.381c5.175,1.572,16.559,5.285,29.283,11.061c0.13,0.059,0.264,0.101,0.396,0.152     c14.502,6.684,29.738,15.625,40.284,26.438C409.954,118.709,398.835,137.354,393.572,151.539z"/>
		</g>
	</g>
</g>
<g>
</g>
<g>
</g>
<g>
</g>
<g>
</g>
<g>
</g>
<g>
</g>
<g>
</g>
<g>
</g>
<g>
</g>
<g>
</g>
<g>
</g>
<g>
</g>
<g>
</g>
<g>
</g>
<g>
</g>
</svg>
