<?xml version="1.0" encoding="iso-8859-1"?>
<!-- Generator: Adobe Illustrator 19.0.0, SVG Export Plug-In . SVG Version: 6.00 Build 0)  -->
<svg xmlns="http://www.w3.org/2000/svg" xmlns:xlink="http://www.w3.org/1999/xlink" version="1.1" id="Layer_1" x="0px" y="0px" viewBox="0 0 512.002 512.002" style="enable-background:new 0 0 512.002 512.002;" xml:space="preserve">
<g>
	<g>
		<g>
			<path d="M454.933,251.983c-4.466,0-8.084,3.618-8.084,8.084v113.72l-42.785,11.61V233.616v-50.162     c0-4.466-3.618-8.084-8.084-8.084c-4.466,0-8.084,3.618-8.084,8.084v42.078H264.083V119.605l99.271-51.35     c5.175,1.572,16.559,5.285,29.283,11.061c0.134,0.06,0.269,0.103,0.404,0.156c25.74,11.864,53.807,30.84,53.807,54.764v4.686     h-8.469c-12.298,0-22.303,10.005-22.303,22.304v26.859c0,12.298,10.005,22.303,22.303,22.303h8.469v23.271     c0,4.466,3.618,8.084,8.084,8.084c4.466,0,8.084-3.618,8.084-8.084v-31.355v-55.298v-12.77c0-32.599-32.77-55.029-60.514-68.181     c-19.571-55.197-57.142-65.39-58.763-65.804c-0.154-0.039-0.309-0.056-0.464-0.086c-0.153-0.03-0.304-0.065-0.459-0.085     c-0.258-0.034-0.515-0.047-0.774-0.057C341.94,0.018,341.841,0,341.739,0H171.329c-0.003,0-0.005,0-0.009,0h-0.113     c-0.087,0-0.171,0.016-0.258,0.019c-0.275,0.009-0.551,0.024-0.826,0.061c-0.153,0.02-0.301,0.055-0.451,0.084     c-0.156,0.03-0.314,0.047-0.47,0.088c-1.61,0.412-38.928,10.55-58.554,65.261c-27.98,13.073-61.664,35.673-61.664,68.724v12.77     v55.298v177.666v45.742c0,3.65,2.445,6.847,5.967,7.802l52.985,14.378v21.13v34.893c0,4.466,3.619,8.084,8.084,8.084h1.12h42.786     h193.265h42.787c4.466,0,8.084-3.618,8.084-8.084v-34.893v-21.13l52.986-14.378c3.523-0.956,5.967-4.153,5.967-7.802v-45.742     V260.067C463.017,255.602,459.398,251.983,454.933,251.983z M446.848,194.221h-8.469c-3.383,0-6.134-2.752-6.134-6.134v-26.859     c0-3.383,2.752-6.135,6.134-6.135h8.469V194.221z M322.656,16.168l-10.004,10.331l-10.157,10.488H210.45l-9.082-9.379     l-11.079-11.44H322.656z M169.064,17.492l76.154,78.641l-1.637,1.692l-0.861,0.889L153.204,52.41     c-0.262-0.136-0.532-0.251-0.805-0.357c-0.084-0.032-0.169-0.059-0.254-0.089c-0.198-0.069-0.398-0.13-0.599-0.183     c-0.092-0.024-0.182-0.047-0.274-0.068c-0.227-0.052-0.457-0.093-0.688-0.124c-0.058-0.008-0.115-0.02-0.174-0.027     c-0.291-0.033-0.584-0.051-0.877-0.052c-0.015,0-0.029-0.002-0.044-0.002c-0.039,0-0.077,0.008-0.114,0.008     c-0.272,0.003-0.542,0.023-0.814,0.054c-0.077,0.009-0.152,0.017-0.229,0.028c-0.317,0.046-0.633,0.105-0.945,0.189     c-0.947,0.255-6.923,1.9-15.498,4.988C144.725,30.998,161.4,20.942,169.064,17.492z M65.153,155.091h9.474     c3.383,0,6.134,2.753,6.134,6.135v26.859c0,3.383-2.752,6.134-6.134,6.134h-9.474V155.091z M107.936,431.139l-42.784-11.61     V390.54l42.784,11.61V431.139z M151.843,495.832h-26.618v-18.725h26.618V495.832z M247.915,495.832h-79.904v-18.725h79.904     V495.832z M247.915,225.532h-36.697c-4.466,0-8.084,3.618-8.084,8.084c0,4.466,3.618,8.084,8.084,8.084h36.697v219.238h-87.988     h-34.702V241.7h58.508c4.466,0,8.084-3.618,8.084-8.084c0-4.466-3.618-8.084-8.084-8.084h-59.628v-42.078     c0-4.466-3.618-8.084-8.084-8.084s-8.084,3.618-8.084,8.084v201.943l-42.784-11.61V210.39h9.474     c12.298,0,22.303-10.005,22.303-22.303v-26.859c0-12.299-10.005-22.304-22.303-22.304h-9.474v-4.686     c0-24.256,28.847-43.424,54.869-55.252c0.14-0.054,0.285-0.091,0.424-0.153c12.282-5.498,23.173-9.049,28.201-10.576     l99.269,51.35V225.532z M226.107,53.155h60.73l-30.365,31.356L226.107,53.155z M343.876,17.497     c7.683,3.474,24.532,13.654,37.393,39.694c-8.769-3.205-15.054-4.972-16.472-5.359c-0.087-0.024-0.153-0.042-0.182-0.05     c-0.107-0.029-0.216-0.046-0.323-0.071c-1.552-0.351-3.165-0.237-4.644,0.324c-0.289,0.109-0.573,0.23-0.85,0.373l-97.643,50.508     L343.876,17.497z M345.107,495.832h-81.024v-18.725h81.024V495.832z M387.895,495.832h-26.619v-18.725h26.619V495.832z      M387.895,395.967v45.742v19.229h-34.703h-89.108V241.7h123.811V395.967z M446.848,419.53l-42.785,11.61v-28.989l42.785-11.61     V419.53z"/>
			<path d="M351.706,417.061c1.57,2.26,4.086,3.472,6.645,3.472c1.592,0,3.2-0.47,4.606-1.448c3.666-2.548,4.572-7.586,2.024-11.251     l-45.027-64.777c-2.546-3.665-7.583-4.572-11.251-2.024c-3.666,2.548-4.572,7.586-2.024,11.251L351.706,417.061z"/>
			<path d="M146.222,407.834c-2.548,3.665-1.642,8.703,2.024,11.251c1.407,0.978,3.015,1.448,4.607,1.448     c2.558,0,5.075-1.212,6.645-3.472l45.027-64.777c2.548-3.665,1.642-8.703-2.024-11.251c-3.665-2.549-8.703-1.641-11.251,2.024     L146.222,407.834z"/>
			<path d="M300.87,174.654c0,13.937,11.339,25.275,25.276,25.275c13.935,0,25.271-11.339,25.271-25.275     c0-13.935-11.337-25.271-25.271-25.271C312.21,149.383,300.87,160.719,300.87,174.654z M335.25,174.654     c0,5.022-4.083,9.107-9.103,9.107c-5.022,0-9.107-4.085-9.107-9.107c0-5.02,4.085-9.103,9.107-9.103     C331.167,165.551,335.25,169.634,335.25,174.654z"/>
		</g>
	</g>
</g>
<g>
</g>
<g>
</g>
<g>
</g>
<g>
</g>
<g>
</g>
<g>
</g>
<g>
</g>
<g>
</g>
<g>
</g>
<g>
</g>
<g>
</g>
<g>
</g>
<g>
</g>
<g>
</g>
<g>
</g>
</svg>
