<?xml version="1.0" encoding="iso-8859-1"?>
<!-- Generator: Adobe Illustrator 19.0.0, SVG Export Plug-In . SVG Version: 6.00 Build 0)  -->
<svg xmlns="http://www.w3.org/2000/svg" xmlns:xlink="http://www.w3.org/1999/xlink" version="1.1" id="Layer_1" x="0px" y="0px" viewBox="0 0 512 512" style="enable-background:new 0 0 512 512;" xml:space="preserve">
<g>
	<g>
		<g>
			<path d="M223.772,339.831h1.592c4.466,0,8.084-3.618,8.084-8.084c0-4.466-3.618-8.084-8.084-8.084h-1.592     c-4.466,0-8.084,3.618-8.084,8.084C215.688,336.213,219.306,339.831,223.772,339.831z"/>
			<path d="M223.772,389.995h1.592c4.466,0,8.084-3.618,8.084-8.084c0-4.466-3.618-8.084-8.084-8.084h-1.592     c-4.466,0-8.084,3.618-8.084,8.084C215.688,386.377,219.306,389.995,223.772,389.995z"/>
			<path d="M223.772,440.16h1.592c4.466,0,8.084-3.618,8.084-8.084c0-4.466-3.618-8.084-8.084-8.084h-1.592     c-4.466,0-8.084,3.618-8.084,8.084C215.688,436.542,219.306,440.16,223.772,440.16z"/>
			<path d="M458.932,212.689c4.466,0,8.084-3.618,8.084-8.084v-18.56c0-81.176-48.991-111.989-51.077-113.262     c-0.002-0.001-0.003-0.002-0.005-0.003l-71.86-43.919L320.57,3.968c-0.199-0.336-0.414-0.664-0.664-0.972     C318.37,1.101,316.064,0,313.624,0h-0.287H198.662c-0.292,0-0.581,0.017-0.869,0.049c-0.096,0.011-0.19,0.03-0.285,0.044     c-0.074,0.011-0.148,0.022-0.222,0.034c-0.088,0.015-0.176,0.023-0.264,0.04c-0.029,0.005-0.056,0.015-0.084,0.022     c-0.102,0.023-0.203,0.053-0.304,0.079c-0.181,0.047-0.361,0.095-0.537,0.153c-0.092,0.031-0.181,0.067-0.273,0.101     c-0.182,0.068-0.362,0.14-0.538,0.22c-0.082,0.038-0.162,0.079-0.241,0.119c-0.179,0.089-0.354,0.183-0.523,0.285     c-0.076,0.045-0.15,0.092-0.224,0.139c-0.168,0.108-0.331,0.222-0.49,0.342c-0.071,0.053-0.142,0.106-0.211,0.162     c-0.065,0.052-0.132,0.102-0.194,0.156c-0.049,0.041-0.093,0.087-0.14,0.13c-0.041,0.038-0.081,0.075-0.122,0.113     c-0.063,0.058-0.126,0.113-0.186,0.174c-0.044,0.044-0.087,0.087-0.13,0.133c-0.013,0.014-0.028,0.025-0.041,0.039L167.925,28.86     l-71.859,43.92c-0.002,0.001-0.003,0.002-0.005,0.003c-2.085,1.272-51.077,32.086-51.077,113.262v235.099v40.576     c0,4.466,3.618,8.084,8.084,8.084h73.99h0.338c0.15,0,0.296-0.014,0.444-0.023l-3.393,33.316     c-0.233,2.274,0.511,4.541,2.044,6.238c1.533,1.697,3.712,2.666,5.998,2.666h48.71c4.466,0,8.084-3.618,8.084-8.084     c0-4.466-3.619-8.084-8.084-8.084h-39.761l18.783-184.418c0.088-0.867,0.037-1.742-0.155-2.592l-22.531-100.219     c-0.001-0.01-0.004-0.018-0.006-0.028l-11.414-50.769c-0.979-4.356-5.309-7.09-9.661-6.114c-4.356,0.979-7.093,5.304-6.114,9.661     l11.164,49.658l-2.04,202.049H61.152V186.045c0-30.117,7.284-56,21.651-76.926c10.64-15.499,21.453-22.391,21.705-22.548     c0.001-0.001,0.002-0.002,0.003-0.002l51.071-31.214l-9.099,21.134c-1.457,3.385-0.441,7.325,2.469,9.585l22.456,17.425     l-17.481,24.096c-0.223,0.307-0.412,0.627-0.585,0.953c-0.031,0.058-0.061,0.117-0.091,0.177     c-0.336,0.669-0.572,1.369-0.71,2.081c-0.01,0.052-0.019,0.102-0.028,0.154c-0.124,0.72-0.151,1.449-0.08,2.168     c0.006,0.067,0.014,0.134,0.023,0.201c0.089,0.722,0.275,1.429,0.554,2.105c0.023,0.054,0.044,0.108,0.068,0.162     c0.152,0.346,0.323,0.683,0.525,1.007c0,0.001,0.001,0.002,0.001,0.003l94.311,151.991v207.236h-38.689     c-4.466,0-8.084,3.619-8.084,8.084c0,4.466,3.618,8.084,8.084,8.084h170.285c2.286,0,4.467-0.968,5.998-2.666     c1.532-1.698,2.275-3.963,2.044-6.238l-3.393-33.316c0.148,0.009,0.294,0.023,0.444,0.023h0.338h73.99     c4.466,0,8.084-3.618,8.084-8.084v-40.576V231.545c0-4.466-3.619-8.084-8.084-8.084c-4.466,0-8.084,3.618-8.084,8.084v181.514     h-58.312l-2.04-202.062l11.161-49.646c0.979-4.356-1.758-8.681-6.115-9.66c-4.354-0.984-8.68,1.758-9.66,6.115l-33.948,151.016     c-0.192,0.849-0.244,1.726-0.155,2.591l18.783,184.418H264.083V288.593l94.309-151.991c1.731-2.791,1.602-6.352-0.327-9.009     l-17.481-24.095l22.458-17.426c2.91-2.259,3.927-6.2,2.469-9.585l-9.1-21.136l51.076,31.216c0,0,0.001,0,0.001,0.001     c0.109,0.068,10.996,6.947,21.708,22.551c14.366,20.926,21.651,46.809,21.651,76.926v18.561     C450.848,209.071,454.466,212.689,458.932,212.689z M136.98,279.842l7.025,31.243l-8.148,79.997L136.98,279.842z      M119.301,429.227l-0.247,24.408H61.152v-24.408H119.301z M450.848,429.227v24.408h-57.902l-0.247-24.408H450.848z      M367.995,311.085l7.025-31.247l1.123,111.244L367.995,311.085z M303.398,16.168l-6.592,31.712h-81.615L208.6,16.168H303.398z      M163.809,77.134l16.113-37.428l13.958-14.781l7.671,37.224c-0.31,0.307-0.607,0.636-0.872,1.002l-19.771,27.251L163.809,77.134z      M170.205,132.693l18.888-26.035c0.01-0.013,0.016-0.026,0.026-0.039l16.818-23.182l32.971,159.979L170.205,132.693z      M255.999,244.184L218.553,64.049h74.892L255.999,244.184z M341.79,132.693l-68.701,110.719l32.957-159.908l29.464,40.612     c0.153,0.21,0.32,0.403,0.489,0.595L341.79,132.693z M331.048,90.433l-20.582-28.37l0.964-4.674l6.851-32.295l13.793,14.608     l16.115,37.432L331.048,90.433z"/>
		</g>
	</g>
</g>
<g>
</g>
<g>
</g>
<g>
</g>
<g>
</g>
<g>
</g>
<g>
</g>
<g>
</g>
<g>
</g>
<g>
</g>
<g>
</g>
<g>
</g>
<g>
</g>
<g>
</g>
<g>
</g>
<g>
</g>
</svg>
