<?xml version="1.0" encoding="iso-8859-1"?>
<!-- Generator: Adobe Illustrator 19.0.0, SVG Export Plug-In . SVG Version: 6.00 Build 0)  -->
<svg xmlns="http://www.w3.org/2000/svg" xmlns:xlink="http://www.w3.org/1999/xlink" version="1.1" id="Layer_1" x="0px" y="0px" viewBox="0 0 512 512" style="enable-background:new 0 0 512 512;" xml:space="preserve">
<g>
	<g>
		<path d="M382.514,36.015c-24.488-8.905-56.625-34.017-56.946-34.27c-1.44-1.13-3.219-1.745-5.05-1.745H191.483    c-0.214,0-0.422,0.036-0.633,0.053c-0.206,0.016-0.412,0.02-0.617,0.051c-0.257,0.04-0.505,0.111-0.756,0.174    c-0.196,0.05-0.395,0.085-0.588,0.15c-0.269,0.09-0.524,0.214-0.783,0.331c-0.164,0.074-0.332,0.131-0.493,0.217    c-0.412,0.221-0.809,0.476-1.18,0.768c-0.181,0.142-10.403,8.13-23.669,16.681c-0.027,0.017-0.055,0.035-0.082,0.052    c-1.358,0.875-2.751,1.756-4.165,2.635c-0.273,0.169-0.546,0.338-0.821,0.507c-0.375,0.231-0.753,0.462-1.133,0.693    c-0.353,0.216-0.706,0.432-1.062,0.645c-0.166,0.1-0.334,0.199-0.499,0.299c-0.924,0.555-1.855,1.106-2.794,1.653    c-0.11,0.064-0.22,0.129-0.33,0.193c-0.547,0.318-1.097,0.633-1.647,0.947c-6.955,3.962-14.128,7.555-20.745,9.961    C99.225,47.02,58.994,73.985,58.994,180.647v205.565v43.404v0.543c0,4.516,3.659,8.176,8.176,8.176h64.449    c-5.373,36.472-12.392,62.815-12.538,63.354c-0.664,2.457-0.147,5.083,1.4,7.105c1.547,2.021,3.946,3.206,6.491,3.206H179    c4.516,0,8.176-3.659,8.176-8.175c0-4.516-3.659-8.176-8.176-8.176h-41.555c7.149-30.139,25.537-119.639,11.543-192.272    c-2.694-13.982-4.758-25.162-6.499-35.183c-0.022-0.117-0.044-0.235-0.069-0.352c-18.617-84.851-2.689-127.615-2.526-128.038    c1.639-4.189-0.415-8.921-4.602-10.579c-4.195-1.663-8.948,0.39-10.612,4.589c-0.747,1.884-18.03,47.128,1.73,137.356    c1.752,10.076,3.826,21.3,6.523,35.302c4.376,22.712,5.345,47.503,4.441,71.565H75.346v-197.39    c0-95.32,31.919-119.153,59.727-129.265c5.781-2.102,11.845-4.945,17.817-8.121l63.657,61.936c1.589,1.547,3.646,2.316,5.7,2.316    c1.715,0,3.422-0.545,4.861-1.612v60.914v33.935c0,4.516,3.659,8.175,8.176,8.175h41.433c4.516,0,8.176-3.659,8.176-8.175v-33.935    v-19.482c0-4.516-3.659-8.176-8.176-8.176s-8.175,3.659-8.175,8.176v11.306h-25.083V89.279l12.385-12.716l12.697,13.036v31.577    c0,4.516,3.659,8.175,8.175,8.175s8.176-3.659,8.176-8.175v-15.044c1.37,0.919,2.958,1.38,4.549,1.38    c2.055,0,4.111-0.77,5.7-2.316l63.767-62.043c6.038,3.22,12.172,6.103,18.018,8.229c27.809,10.112,59.728,33.945,59.728,129.265    v197.39h-62.66c-0.9-24.055,0.07-48.843,4.448-71.565c2.702-14.023,4.778-25.247,6.524-35.301    c19.761-90.228,2.476-135.474,1.73-137.357c-1.665-4.199-6.418-6.253-10.612-4.589c-4.198,1.662-6.252,6.415-4.589,10.612    c0.165,0.415,16.226,42.489-2.539,128.006c-0.025,0.117-0.048,0.235-0.069,0.353c-1.735,9.998-3.801,21.177-6.5,35.182    c-13.993,72.633,4.395,162.131,11.545,192.272H205.162c-4.516,0-8.176,3.659-8.176,8.176c0,4.516,3.659,8.175,8.176,8.175h179.242    c2.545,0,4.946-1.186,6.492-3.207c1.547-2.021,2.065-4.648,1.399-7.105c-0.146-0.539-7.172-26.877-12.548-63.353h65.083    c4.516,0,8.175-3.659,8.175-8.176v-0.543v-43.404V180.646C453.005,73.985,412.775,47.02,382.514,36.015z M136.479,394.388    c-0.675,9.472-1.596,18.72-2.664,27.568l-58.469-0.451v-27.117H136.479z M243.459,174.99h25.083v17.584h-25.083V174.99z     M229.427,80.251c-0.002,0.002-0.003,0.004-0.005,0.005l-7.329,7.524l-54.509-53.036c9.763-6.078,18.265-12.138,23.495-16.008    l52.768,46.708L229.427,80.251z M213.054,16.351h85.58l-42.79,37.876L213.054,16.351z M289.595,87.78l-7.019-7.206    c-0.001-0.001-0.002-0.002-0.003-0.004l-14.732-15.125l52.771-46.711c5.228,3.863,13.735,9.924,23.5,16.004L289.595,87.78z     M436.654,421.505l-59.104,0.456c-1.069-8.848-1.989-18.098-2.664-27.572h61.768V421.505z"/>
	</g>
</g>
<g>
</g>
<g>
</g>
<g>
</g>
<g>
</g>
<g>
</g>
<g>
</g>
<g>
</g>
<g>
</g>
<g>
</g>
<g>
</g>
<g>
</g>
<g>
</g>
<g>
</g>
<g>
</g>
<g>
</g>
</svg>
