<?xml version="1.0" encoding="iso-8859-1"?>
<!-- Generator: Adobe Illustrator 19.0.0, SVG Export Plug-In . SVG Version: 6.00 Build 0)  -->
<svg xmlns="http://www.w3.org/2000/svg" xmlns:xlink="http://www.w3.org/1999/xlink" version="1.1" id="Layer_1" x="0px" y="0px" viewBox="0 0 512 512" style="enable-background:new 0 0 512 512;" xml:space="preserve">
<g>
	<g>
		<g>
			<path d="M265.458,22.481h-21.648c-4.466,0-8.084,3.618-8.084,8.084c0,4.466,3.62,8.084,8.084,8.084h21.648     c4.466,0,8.084-3.618,8.084-8.084C273.542,26.099,269.924,22.481,265.458,22.481z"/>
			<path d="M302.383,176.353c-4.466,0-8.084,3.618-8.084,8.084c0,4.466,3.618,8.084,8.084,8.084h47.427     c4.466,0,8.084-3.619,8.084-8.084c0-4.466-3.618-8.084-8.084-8.084H302.383z"/>
			<path d="M217.345,184.437c0-4.466-3.618-8.084-8.084-8.084h-47.427c-4.466,0-8.084,3.618-8.084,8.084     c0,4.466,3.618,8.084,8.084,8.084h47.427C213.726,192.522,217.345,188.903,217.345,184.437z"/>
			<path d="M474.933,236.227c-0.373-4.45-4.295-7.739-8.73-7.383c-4.45,0.372-7.754,4.28-7.383,8.73     c5.448,65.115,5.435,137.363,4.73,180.702l-69.693,10.477v-238.74c0-4.466-3.619-8.084-8.084-8.084s-8.084,3.618-8.084,8.084     v248.13v33.774v15.999v7.915H276.872V98.249c1.416,1.053,3.112,1.599,4.824,1.599c1.376,0,2.763-0.351,4.017-1.069     c26.351-15.099,36.656-34.478,40.664-46.493c18.182,8.929,60.182,29.587,94.529,46.713c9.036,4.506,25.654,25.165,35.427,112.899     c0.495,4.438,4.507,7.628,8.929,7.14c4.438-0.495,7.634-4.493,7.14-8.929c-8.215-73.74-22.699-114.818-44.282-125.579     c-39.54-19.716-89.201-44.101-101.092-49.936c-1.845-4.005-5.141-10.53-9.572-16.839c-0.171-0.245-0.348-0.487-0.523-0.731     c-0.151-0.21-0.3-0.42-0.453-0.629c-4.871-6.66-10.99-12.843-17.957-15.252c-0.078-0.028-0.155-0.056-0.233-0.083     c-0.12-0.04-0.237-0.089-0.358-0.127c-0.095-0.029-0.191-0.042-0.287-0.068C295.851,0.316,294.003,0,292.101,0H219.91     c-1.664,0-3.29,0.235-4.873,0.66c-0.404,0.061-0.807,0.148-1.206,0.272c-14.408,4.502-25.284,25.382-29.161,33.816     c-12.396,6.083-61.555,30.224-100.777,49.781c-16.222,8.09-28.247,32.766-36.763,75.442     c-6.385,32.003-10.826,74.281-13.197,125.663c-2.488,53.911-2.151,106.834-1.524,139.566c0,0.07-0.009,0.14-0.008,0.21     c0.322,16.536,0.723,27.984,0.857,31.584c0.003,0.094,0.006,0.176,0.01,0.259c0,0.001,0,0.003,0,0.004     c0.022,0.572,0.034,0.903,0.037,0.951c0.006,0.155,0.024,0.308,0.039,0.461c0.009,0.083,0.011,0.167,0.022,0.248     c0.006,0.046,0.017,0.092,0.024,0.139c0.164,1.117,0.552,2.164,1.126,3.088c1.077,1.732,2.795,3.034,4.851,3.562     c0.229,0.058,0.461,0.108,0.697,0.147l78.091,12.921v9.142v16c0,4.466,3.618,8.084,8.084,8.084h49.83     c4.466,0,8.084-3.618,8.084-8.084c0-4.466-3.619-8.084-8.084-8.084h-41.746v-7.915v-15.999v-33.774v-248.13     c0-4.466-3.618-8.084-8.084-8.084c-4.466,0-8.084,3.618-8.084,8.084v238.74l-69.699-10.478     c-0.537-32.712-0.679-81.873,1.629-131.897C57.202,132.17,81.145,103.966,91.108,98.997     c34.216-17.061,76.025-37.625,94.317-46.609c4.032,12.023,14.351,31.332,40.628,46.389c1.254,0.718,2.639,1.069,4.017,1.069     c1.71,0,3.406-0.544,4.822-1.597v397.583h-31.875c-4.466,0-8.084,3.619-8.084,8.084c0,4.466,3.619,8.084,8.084,8.084h39.96     h25.811h116.985c4.466,0,8.084-3.618,8.084-8.084v-15.999v-9.142l78.091-12.921c0.236-0.039,0.469-0.088,0.697-0.147     c1.827-0.47,3.387-1.55,4.468-3.002c0.086-0.115,0.164-0.237,0.244-0.357c0.045-0.069,0.096-0.135,0.139-0.205     c0.575-0.924,0.963-1.971,1.126-3.088c0.006-0.046,0.018-0.092,0.024-0.139c0.011-0.082,0.013-0.166,0.022-0.248     c0.015-0.153,0.032-0.306,0.039-0.461c0.002-0.057,0.016-0.4,0.038-0.995c0.125-3.34,0.536-14.923,0.866-31.803     c0.001-0.098-0.01-0.195-0.012-0.293C480.408,382.415,480.719,305.391,474.933,236.227z M118.155,445.104v17.282l-68.924-11.404     c-0.125-3.899-0.288-9.435-0.45-16.307L118.155,445.104z M237.505,73.948c-0.005,0.005-0.01,0.011-0.015,0.015l-8.399,7.721     c-23.174-15.194-28.568-33.426-29.764-39.571c2.188-4.881,4.982-9.881,7.894-14.175c4.337,19.727,22.981,34.223,34.964,41.707     L237.505,73.948z M260.703,495.832h-9.643V83.448l3.787-3.482l1.035-0.952l4.821,4.432V495.832z M255.882,58.92     c-9.585-5.289-35.754-21.772-33.119-42.751h66.24C291.638,37.152,265.458,53.637,255.882,58.92z M274.26,73.948l-4.679-4.302     c12.031-7.515,30.785-22.096,35.022-41.947c3.076,4.526,5.899,9.67,7.905,14.033c-1.068,5.83-6.226,24.474-29.834,39.952     l-8.409-7.731C274.263,73.951,274.262,73.949,274.26,73.948z M462.78,450.981l-68.923,11.404v-17.282l69.369-10.429     C463.066,441.546,462.906,447.084,462.78,450.981z"/>
		</g>
	</g>
</g>
<g>
</g>
<g>
</g>
<g>
</g>
<g>
</g>
<g>
</g>
<g>
</g>
<g>
</g>
<g>
</g>
<g>
</g>
<g>
</g>
<g>
</g>
<g>
</g>
<g>
</g>
<g>
</g>
<g>
</g>
</svg>
