<?xml version="1.0" encoding="iso-8859-1"?>
<!-- Generator: Adobe Illustrator 19.0.0, SVG Export Plug-In . SVG Version: 6.00 Build 0)  -->
<svg xmlns="http://www.w3.org/2000/svg" xmlns:xlink="http://www.w3.org/1999/xlink" version="1.1" id="Layer_1" x="0px" y="0px" viewBox="0 0 511.998 511.998" style="enable-background:new 0 0 511.998 511.998;" xml:space="preserve">
<g>
	<g>
		<g>
			<path d="M312.497,399.061c3.699,2.497,8.726,1.526,11.224-2.174c9.13-13.513,13.954-29.307,13.954-45.675     c0-45.04-36.642-81.682-81.681-81.682c-45.04,0-81.682,36.642-81.682,81.682c0,45.04,36.642,81.682,81.682,81.682     c16.695,0,32.754-5.007,46.438-14.477c3.67-2.541,4.588-7.577,2.046-11.249c-2.541-3.67-7.574-4.588-11.249-2.046     c-10.968,7.591-23.843,11.604-37.236,11.604c-36.125,0-65.513-29.39-65.513-65.513s29.39-65.513,65.513-65.513     s65.512,29.39,65.512,65.513c0,13.13-3.867,25.794-11.184,36.625C307.825,391.536,308.797,396.561,312.497,399.061z"/>
			<path d="M212.272,351.213c0,24.108,19.613,43.723,43.723,43.723c24.108,0,43.723-19.613,43.723-43.723     s-19.613-43.723-43.723-43.723C231.886,307.491,212.272,327.104,212.272,351.213z M283.549,351.213     c0,15.193-12.361,27.554-27.554,27.554c-15.194,0-27.554-12.361-27.554-27.554s12.361-27.554,27.554-27.554     C271.188,323.659,283.549,336.02,283.549,351.213z"/>
			<path d="M430.602,280.792c-4.466,0-8.084,3.619-8.084,8.084v127.733c0,1.366-0.034,2.738-0.103,4.083     c-2.135,42.135-36.889,75.14-79.117,75.14H168.701c-42.23,0-76.982-33.005-79.117-75.142c-0.068-1.343-0.103-2.716-0.103-4.081     V185.141c0-3.915,3.184-7.099,7.099-7.099h25.437v18.086v37.96c0,4.466,3.618,8.084,8.084,8.084h0.002h38.736h0.002     c4.466,0,8.084-3.618,8.084-8.084v-56.046h14.587c1.756,0,3.938,0,4.067,3.475v2.99c0,12.83,10.438,23.27,23.271,23.27h74.302     c12.829,0,23.267-10.439,23.267-23.27v-2.99c0.129-3.475,2.312-3.475,4.067-3.475h14.587v18.086v37.96     c0,4.466,3.618,8.084,8.084,8.084h0.002h38.736h0.002c4.466,0,8.084-3.618,8.084-8.084v-56.046h25.437     c3.915,0,7.099,3.184,7.099,7.099v75.708c-0.002,4.466,3.617,8.084,8.082,8.084c4.466,0,8.084-3.618,8.084-8.084v-75.708     c0-12.829-10.438-23.267-23.267-23.267h-25.439V46.822c0-0.106-0.012-0.209-0.016-0.314c-0.002-0.065-0.005-0.129-0.01-0.194     c-0.046-0.75-0.194-1.471-0.431-2.151c-0.013-0.037-0.027-0.073-0.04-0.11c-0.258-0.706-0.609-1.366-1.043-1.964     c-0.032-0.044-0.066-0.087-0.098-0.131c-0.237-0.314-0.49-0.613-0.77-0.888L348.874,2.368C347.358,0.852,345.302,0,343.157,0     H168.838c-2.144,0-4.199,0.852-5.716,2.367l-38.741,38.737c-0.016,0.016-0.029,0.036-0.045,0.053     c-0.23,0.234-0.441,0.484-0.64,0.745c-0.06,0.079-0.121,0.157-0.178,0.237c-0.196,0.275-0.38,0.561-0.541,0.859     c-0.026,0.05-0.047,0.101-0.072,0.151c-0.135,0.264-0.254,0.538-0.36,0.818c-0.033,0.087-0.067,0.174-0.096,0.262     c-0.108,0.32-0.203,0.646-0.271,0.982c-0.012,0.057-0.016,0.114-0.026,0.171c-0.05,0.277-0.084,0.558-0.105,0.844     c-0.01,0.122-0.015,0.244-0.018,0.366c-0.002,0.077-0.012,0.15-0.012,0.226v115.052H96.579     c-12.829,0-23.267,10.438-23.267,23.267v231.467c0,1.638,0.042,3.289,0.124,4.902c2.572,50.742,44.417,90.489,95.265,90.489     h174.596c50.849,0,92.694-39.747,95.265-90.487c0.082-1.616,0.124-3.266,0.124-4.904V288.876     C438.686,284.41,435.068,280.792,430.602,280.792z M373.81,226.004h-22.569v-21.792h22.569V226.004z M373.81,188.045h-22.569     v-18.086v-31.987c0-4.466-3.618-8.084-8.084-8.084c-4.466,0-8.084,3.618-8.084,8.084v23.902h-14.587v-0.001     c-13.549,0-19.986,10.006-20.233,19.303c-0.002,0.071-0.003,0.143-0.003,0.214v3.116c0,3.916-3.184,7.101-7.102,7.101h-74.302     c-3.915,0-7.099-3.185-7.099-7.101v-3.116c0-0.071-0.001-0.143-0.003-0.214c-0.247-9.297-6.683-19.303-20.233-19.303H176.92     V54.906h158.153v55.039c0,4.466,3.618,8.084,8.084,8.084c4.466,0,8.084-3.618,8.084-8.084V54.906h22.569V188.045z      M172.186,16.168h167.623l22.568,22.569h-19.219h-174.32h-19.222L172.186,16.168z M138.184,169.958V54.906h22.569v133.138     h-22.569V169.958z M138.183,204.213h22.569v21.792h-22.569V204.213z"/>
		</g>
	</g>
</g>
<g>
</g>
<g>
</g>
<g>
</g>
<g>
</g>
<g>
</g>
<g>
</g>
<g>
</g>
<g>
</g>
<g>
</g>
<g>
</g>
<g>
</g>
<g>
</g>
<g>
</g>
<g>
</g>
<g>
</g>
</svg>
