<?xml version="1.0" encoding="iso-8859-1"?>
<!-- Generator: Adobe Illustrator 19.0.0, SVG Export Plug-In . SVG Version: 6.00 Build 0)  -->
<svg xmlns="http://www.w3.org/2000/svg" xmlns:xlink="http://www.w3.org/1999/xlink" version="1.1" id="Layer_1" x="0px" y="0px" viewBox="0 0 512.001 512.001" style="enable-background:new 0 0 512.001 512.001;" xml:space="preserve">
<g>
	<g>
		<path d="M470.424,495.014c-0.084-0.45-0.162-0.895-0.245-1.344c-0.373-2.012-0.74-4.028-1.097-6.052    c-0.091-0.512-0.176-1.021-0.265-1.533c-0.335-1.927-0.665-3.859-0.985-5.793c-0.107-0.649-0.21-1.294-0.316-1.94    c-0.281-1.732-0.557-3.466-0.824-5.198c-20.45-132.538,4.734-227.434,5.008-228.441c1.073-3.917-0.918-8.025-4.658-9.609    c-30.183-12.78-48.424-47.115-54.216-102.052c-0.47-4.453-4.476-7.689-8.913-7.212c-4.454,0.469-7.682,4.459-7.213,8.913    c6.074,57.598,25.486,95.333,57.742,112.308c-2.474,10.899-7.181,34.766-9.936,68.731c-2.87,35.364-3.934,87.659,4.625,149.329    H174.777c-4.478,0-8.107,3.629-8.107,8.107c0,4.477,3.629,8.107,8.107,8.107h276.792c0.013,0.079,0.027,0.158,0.04,0.237    c0.764,4.691,1.585,9.43,2.466,14.215H57.927c0.889-4.824,1.714-9.601,2.485-14.331c0.006-0.04,0.014-0.08,0.021-0.12h86.241    c4.478,0,8.107-3.63,8.107-8.107c0-4.478-3.629-8.107-8.107-8.107H62.87c8.56-61.67,7.497-113.964,4.627-149.329    c-2.756-33.972-7.464-57.839-9.938-68.737c19.603-10.352,34.6-28.592,44.633-54.318c8.532-21.873,13.506-49.269,14.782-81.426    c1.611-40.601-3.006-78.056-5.575-95.096h20.708v28.063V64.91c0,68.316,55.579,123.895,123.895,123.895    c68.316,0,123.895-55.579,123.895-123.895V44.277V16.214h20.709c-2.468,16.384-6.831,51.648-5.733,90.454    c0.124,4.398,3.728,7.878,8.1,7.878c0.077,0,0.156-0.001,0.234-0.003c4.476-0.126,8.001-3.858,7.875-8.333    c-1.428-50.479,6.957-96.162,7.043-96.617c0.441-2.369-0.195-4.814-1.734-6.666C414.848,1.073,412.562,0,410.153,0h-38.363    c-4.478,0-8.107,3.63-8.107,8.107v36.17c0,16.826-10.71,32.914-30.159,45.3c-20.584,13.108-48.115,20.326-77.522,20.326    c-29.406,0-56.937-7.219-77.52-20.326c-19.449-12.385-30.16-28.473-30.16-45.3V8.107c0-4.477-3.629-8.107-8.107-8.107h-38.365    c-2.411,0-4.697,1.073-6.236,2.927c-1.54,1.855-2.176,4.299-1.734,6.669c0.091,0.482,8.968,48.757,6.891,101.071    c-1.857,46.772-13.046,106.327-55.811,124.434c-3.741,1.584-5.732,5.691-4.659,9.609c0.277,1.006,25.451,95.469,5.083,227.969    c-0.325,2.117-0.662,4.231-1.005,6.341c-0.053,0.323-0.104,0.646-0.158,0.971c-0.37,2.243-0.75,4.481-1.14,6.71    c-0.045,0.258-0.088,0.515-0.133,0.773c-0.391,2.225-0.794,4.438-1.204,6.643c-0.053,0.285-0.103,0.569-0.157,0.855    c-0.462,2.462-0.933,4.911-1.416,7.34c-0.475,2.38,0.144,4.848,1.684,6.726c1.54,1.877,3.84,2.964,6.267,2.964h415.763    c2.428,0,4.727-1.087,6.267-2.964c0.192-0.235,0.371-0.478,0.534-0.73c1.142-1.763,1.563-3.914,1.148-5.996    C471.352,499.894,470.883,497.459,470.424,495.014z M169.771,103.254c23.154,14.744,53.778,22.864,86.231,22.864    c32.453,0,63.077-8.12,86.23-22.864c7.354-4.684,13.708-9.867,18.992-15.448c-0.027,0.123-0.054,0.246-0.081,0.37    c-0.293,1.324-0.606,2.642-0.948,3.948c-0.046,0.179-0.097,0.357-0.145,0.536c-0.346,1.297-0.713,2.587-1.107,3.864    c-0.028,0.09-0.053,0.181-0.081,0.27c-0.403,1.298-0.837,2.583-1.287,3.861c-0.082,0.233-0.163,0.468-0.248,0.702    c-0.443,1.228-0.909,2.445-1.394,3.653c-0.099,0.247-0.201,0.493-0.303,0.739c-0.502,1.218-1.019,2.428-1.564,3.623    c-0.075,0.164-0.154,0.325-0.229,0.49c-0.529,1.146-1.077,2.281-1.644,3.405c-0.078,0.154-0.152,0.31-0.23,0.464    c-0.592,1.16-1.211,2.306-1.844,3.441c-0.136,0.244-0.271,0.489-0.41,0.731c-0.627,1.105-1.272,2.198-1.937,3.277    c-0.144,0.234-0.291,0.466-0.437,0.698c-0.69,1.102-1.393,2.194-2.122,3.269c-0.088,0.13-0.179,0.256-0.268,0.386    c-0.694,1.015-1.406,2.016-2.133,3.005c-0.134,0.183-0.266,0.368-0.401,0.55c-0.758,1.018-1.537,2.019-2.329,3.009    c-0.185,0.231-0.37,0.462-0.557,0.691c-0.792,0.974-1.601,1.934-2.427,2.88c-0.178,0.204-0.359,0.404-0.539,0.607    c-0.862,0.972-1.735,1.933-2.631,2.872c-0.076,0.079-0.152,0.156-0.228,0.235c-0.866,0.903-1.75,1.788-2.647,2.66    c-0.182,0.176-0.361,0.356-0.544,0.531c-0.909,0.872-1.834,1.726-2.774,2.566c-0.221,0.198-0.442,0.393-0.665,0.59    c-0.947,0.833-1.907,1.654-2.883,2.455c-0.19,0.157-0.384,0.309-0.576,0.464c-0.975,0.788-1.961,1.563-2.963,2.318    c-0.085,0.065-0.169,0.131-0.255,0.196c-1.05,0.786-2.119,1.547-3.198,2.294c-0.216,0.15-0.431,0.302-0.649,0.45    c-1.046,0.715-2.108,1.41-3.18,2.087c-0.24,0.151-0.482,0.302-0.723,0.452c-1.093,0.679-2.197,1.343-3.314,1.982    c-0.178,0.102-0.359,0.2-0.538,0.302c-1.094,0.618-2.2,1.219-3.318,1.8c-0.13,0.067-0.258,0.138-0.388,0.205    c-1.17,0.602-2.355,1.177-3.55,1.737c-0.24,0.112-0.48,0.226-0.721,0.337c-1.172,0.538-2.354,1.056-3.548,1.553    c-0.244,0.102-0.49,0.201-0.734,0.3c-1.229,0.502-2.466,0.986-3.716,1.442c-0.142,0.052-0.284,0.099-0.426,0.15    c-1.219,0.439-2.448,0.856-3.687,1.252c-0.163,0.052-0.325,0.108-0.49,0.159c-1.274,0.4-2.561,0.773-3.856,1.126    c-0.253,0.069-0.506,0.138-0.76,0.206c-1.281,0.341-2.572,0.658-3.871,0.951c-0.235,0.053-0.471,0.103-0.707,0.155    c-1.351,0.295-2.709,0.572-4.078,0.816c-0.083,0.015-0.167,0.027-0.25,0.041c-1.341,0.236-2.694,0.443-4.051,0.628    c-0.196,0.027-0.39,0.056-0.586,0.082c-1.357,0.177-2.721,0.325-4.093,0.452c-0.263,0.024-0.525,0.048-0.789,0.07    c-1.368,0.116-2.745,0.209-4.127,0.273c-0.222,0.011-0.445,0.016-0.667,0.025c-1.454,0.058-2.913,0.096-4.381,0.096    c-1.468,0-2.927-0.038-4.381-0.096c-0.223-0.009-0.445-0.015-0.668-0.026c-1.384-0.064-2.76-0.157-4.13-0.273    c-0.262-0.023-0.522-0.045-0.783-0.07c-1.373-0.126-2.74-0.275-4.098-0.453c-0.195-0.025-0.387-0.055-0.581-0.081    c-1.36-0.186-2.713-0.393-4.056-0.629c-0.082-0.014-0.165-0.027-0.249-0.041c-1.37-0.244-2.726-0.521-4.077-0.816    c-0.236-0.052-0.472-0.102-0.708-0.155c-1.3-0.293-2.591-0.612-3.872-0.951c-0.252-0.067-0.504-0.136-0.756-0.204    c-1.296-0.355-2.585-0.726-3.86-1.128c-0.162-0.051-0.322-0.106-0.483-0.157c-1.243-0.397-2.477-0.815-3.7-1.256    c-0.138-0.05-0.278-0.096-0.415-0.146c-1.254-0.457-2.494-0.943-3.725-1.445c-0.242-0.098-0.484-0.197-0.724-0.296    c-1.197-0.498-2.382-1.017-3.556-1.557c-0.238-0.109-0.475-0.222-0.711-0.333c-1.198-0.561-2.386-1.138-3.559-1.741    c-0.126-0.065-0.25-0.133-0.376-0.199c-1.123-0.584-2.233-1.187-3.333-1.808c-0.175-0.099-0.352-0.196-0.528-0.295    c-1.122-0.642-2.229-1.308-3.325-1.989c-0.238-0.147-0.475-0.295-0.711-0.444c-1.077-0.68-2.141-1.377-3.191-2.095    c-0.213-0.145-0.424-0.294-0.635-0.441c-1.083-0.751-2.157-1.516-3.212-2.305c-0.078-0.058-0.155-0.12-0.232-0.178    c-1.012-0.761-2.006-1.544-2.99-2.339c-0.186-0.15-0.374-0.299-0.56-0.451c-0.982-0.804-1.946-1.629-2.897-2.467    c-0.216-0.19-0.432-0.382-0.647-0.574c-0.944-0.844-1.874-1.703-2.788-2.579c-0.177-0.171-0.351-0.344-0.528-0.516    c-0.905-0.881-1.798-1.774-2.671-2.685c-0.066-0.068-0.133-0.135-0.199-0.203c-0.905-0.949-1.787-1.92-2.657-2.9    c-0.174-0.196-0.349-0.39-0.521-0.587c-0.83-0.95-1.643-1.917-2.441-2.896c-0.182-0.223-0.361-0.448-0.542-0.672    c-0.798-0.996-1.581-2.003-2.344-3.027c-0.13-0.174-0.254-0.35-0.383-0.524c-0.736-1.002-1.457-2.015-2.16-3.043    c-0.082-0.12-0.168-0.238-0.249-0.359c-0.732-1.081-1.44-2.179-2.133-3.286c-0.142-0.227-0.285-0.453-0.425-0.681    c-0.668-1.085-1.317-2.184-1.947-3.294c-0.134-0.237-0.266-0.475-0.399-0.712c-0.637-1.142-1.257-2.292-1.853-3.458    c-0.075-0.146-0.146-0.295-0.219-0.442c-0.573-1.134-1.125-2.279-1.658-3.435c-0.072-0.157-0.148-0.311-0.219-0.469    c-0.546-1.2-1.066-2.414-1.57-3.636c-0.099-0.242-0.199-0.483-0.297-0.726c-0.489-1.212-0.956-2.434-1.401-3.668    c-0.081-0.226-0.16-0.453-0.24-0.68c-0.453-1.283-0.889-2.576-1.294-3.881c-0.025-0.081-0.048-0.164-0.073-0.245    c-0.397-1.287-0.766-2.586-1.115-3.893c-0.046-0.174-0.096-0.347-0.142-0.521c-0.343-1.31-0.657-2.631-0.95-3.961    c-0.027-0.121-0.053-0.241-0.079-0.362C156.063,93.386,162.417,98.57,169.771,103.254z"/>
	</g>
</g>
<g>
</g>
<g>
</g>
<g>
</g>
<g>
</g>
<g>
</g>
<g>
</g>
<g>
</g>
<g>
</g>
<g>
</g>
<g>
</g>
<g>
</g>
<g>
</g>
<g>
</g>
<g>
</g>
<g>
</g>
</svg>
