<?xml version="1.0" encoding="iso-8859-1"?>
<!-- Generator: Adobe Illustrator 19.0.0, SVG Export Plug-In . SVG Version: 6.00 Build 0)  -->
<svg xmlns="http://www.w3.org/2000/svg" xmlns:xlink="http://www.w3.org/1999/xlink" version="1.1" id="Layer_1" x="0px" y="0px" viewBox="0 0 512 512" style="enable-background:new 0 0 512 512;" xml:space="preserve">
<g>
	<g>
		<g>
			<path d="M424.898,272.032h-1.241V167.658C423.657,75.21,348.446,0,255.999,0S88.342,75.21,88.342,167.658v104.375h-1.237     c-14.74,0-26.733,11.992-26.733,26.732v38.849c0,14.74,11.993,26.732,26.733,26.732h1.237v4.247v119.432     c0,13.221,10.756,23.977,23.976,23.977H173.6c4.466,0,8.084-3.618,8.084-8.084s-3.618-8.084-8.084-8.084h-61.283     c-4.305,0-7.807-3.503-7.807-7.808v-75.514c11.539,13.577,28.303,22.566,47.16,23.833v8.359     c0,12.491,10.161,22.652,22.651,22.652c12.491,0,22.652-10.161,22.652-22.652v-8.187h118.054v8.187     c0,12.491,10.161,22.652,22.652,22.652c12.49,0,22.651-10.161,22.651-22.652v-8.359c18.857-1.268,35.621-10.256,47.16-23.833     v75.513c0,4.305-3.502,7.808-7.807,7.808H200.547c-4.466,0-8.084,3.618-8.084,8.084s3.618,8.084,8.084,8.084H399.68     c13.22,0,23.976-10.756,23.976-23.977v-119.43v-4.247h1.241c14.74,0,26.732-11.992,26.732-26.732v-38.849     C451.629,284.024,439.638,272.032,424.898,272.032z M88.341,296.007v34.43v17.739h-1.237v0.001     c-5.825,0-10.564-4.738-10.564-10.563v-38.849c0-5.824,4.738-10.563,10.564-10.563h1.237V296.007z M104.51,167.658     c0-83.531,67.957-151.489,151.489-151.489s151.489,67.958,151.489,151.489v104.375h-1.238c-1.067,0-2.16,0.095-3.261,0.234     c-1.082-0.15-2.185-0.234-3.308-0.234H112.317c-1.122,0-2.225,0.083-3.307,0.234c-1.099-0.138-2.192-0.234-3.26-0.234h-1.241     V167.658z M180.804,428.431v16.271c0,3.574-2.908,6.484-6.484,6.484s-6.482-2.908-6.482-6.484v-16.271v-17.497     c0-3.574,2.907-6.484,6.482-6.484s6.484,2.908,6.484,6.484V428.431z M344.16,428.431v16.271c0,3.574-2.907,6.484-6.482,6.484     c-3.575,0-6.484-2.908-6.484-6.484v-16.271v-17.497c0-3.574,2.908-6.484,6.484-6.484c3.575,0,6.482,2.908,6.482,6.484V428.431z      M407.492,330.44v25.823v12.331c-0.003,26.987-20.77,49.219-47.163,51.551v-9.212c0-12.491-10.161-22.652-22.651-22.652     c-12.491,0-22.652,10.161-22.652,22.652v9.413H196.972v-9.413c0-12.491-10.161-22.652-22.652-22.652     c-12.49,0-22.651,10.161-22.651,22.652v9.212c-26.393-2.333-47.16-24.564-47.16-51.553v-12.331v-25.823v-34.43     c0-0.25,0.014-0.497,0.038-0.742c0.009-0.094,0.025-0.185,0.037-0.279c0.019-0.147,0.04-0.293,0.067-0.438     c0.022-0.113,0.048-0.225,0.075-0.337c0.028-0.12,0.058-0.238,0.092-0.355c0.034-0.12,0.072-0.237,0.112-0.355     c0.037-0.107,0.075-0.211,0.115-0.316c0.046-0.117,0.093-0.235,0.144-0.35c0.046-0.102,0.096-0.203,0.147-0.303     c0.055-0.109,0.108-0.219,0.167-0.326c0.065-0.115,0.136-0.227,0.206-0.34c0.053-0.084,0.102-0.171,0.158-0.253     c0.132-0.193,0.272-0.38,0.419-0.56c0.019-0.025,0.042-0.046,0.063-0.07c0.136-0.162,0.278-0.319,0.427-0.469     c0.031-0.032,0.065-0.061,0.097-0.093c0.143-0.14,0.291-0.276,0.445-0.404c0.032-0.027,0.067-0.054,0.1-0.081     c0.16-0.129,0.324-0.253,0.495-0.37c0.03-0.021,0.06-0.04,0.089-0.06c0.18-0.12,0.364-0.232,0.554-0.336     c0.024-0.013,0.047-0.027,0.072-0.04c0.204-0.11,0.412-0.21,0.626-0.302c0.013-0.005,0.025-0.012,0.038-0.017     c0.931-0.392,1.953-0.61,3.025-0.61h287.364c1.073,0,2.094,0.218,3.026,0.61c0.012,0.005,0.025,0.011,0.037,0.016     c0.213,0.092,0.424,0.193,0.627,0.303c0.024,0.013,0.049,0.027,0.072,0.04c0.19,0.105,0.374,0.217,0.554,0.336     c0.03,0.021,0.06,0.04,0.091,0.061c0.17,0.116,0.334,0.24,0.494,0.37c0.033,0.027,0.067,0.053,0.1,0.081     c0.154,0.128,0.302,0.264,0.445,0.404c0.032,0.031,0.066,0.06,0.097,0.093c0.149,0.15,0.29,0.307,0.427,0.469     c0.021,0.024,0.043,0.046,0.063,0.07c0.149,0.18,0.288,0.368,0.42,0.562c0.056,0.082,0.105,0.168,0.157,0.252     c0.07,0.112,0.141,0.223,0.206,0.34c0.06,0.107,0.113,0.218,0.168,0.328c0.05,0.1,0.1,0.199,0.146,0.302     c0.052,0.115,0.098,0.233,0.144,0.35c0.041,0.105,0.08,0.209,0.116,0.316c0.04,0.117,0.078,0.235,0.112,0.355     c0.033,0.117,0.064,0.236,0.092,0.355c0.027,0.112,0.053,0.223,0.075,0.337c0.027,0.144,0.047,0.291,0.067,0.438     c0.012,0.093,0.028,0.185,0.037,0.279c0.023,0.245,0.038,0.492,0.038,0.742V330.44z M435.461,337.613     c0,5.824-4.738,10.563-10.563,10.563h-1.241v-17.739v-34.43v-7.806h1.241c5.824,0,10.563,4.738,10.563,10.563V337.613z"/>
			<path d="M337.678,318.821h-4.55c-4.466,0-8.084,3.619-8.084,8.084s3.618,8.084,8.084,8.084h4.55c4.466,0,8.084-3.618,8.084-8.084     S342.142,318.821,337.678,318.821z"/>
			<path d="M306.541,318.821H174.32c-4.466,0-8.084,3.619-8.084,8.084s3.618,8.084,8.084,8.084h132.221     c4.466,0,8.084-3.618,8.084-8.084S311.006,318.821,306.541,318.821z"/>
		</g>
	</g>
</g>
<g>
</g>
<g>
</g>
<g>
</g>
<g>
</g>
<g>
</g>
<g>
</g>
<g>
</g>
<g>
</g>
<g>
</g>
<g>
</g>
<g>
</g>
<g>
</g>
<g>
</g>
<g>
</g>
<g>
</g>
</svg>
