<?xml version="1.0" encoding="iso-8859-1"?>
<!-- Generator: Adobe Illustrator 19.0.0, SVG Export Plug-In . SVG Version: 6.00 Build 0)  -->
<svg xmlns="http://www.w3.org/2000/svg" xmlns:xlink="http://www.w3.org/1999/xlink" version="1.1" id="Layer_1" x="0px" y="0px" viewBox="0 0 512 512" style="enable-background:new 0 0 512 512;" xml:space="preserve">
<g>
	<g>
		<g>
			<path d="M349.65,153.353H162.35c-4.466,0-8.084,3.618-8.084,8.084s3.618,8.084,8.084,8.084H349.65     c4.466,0,8.084-3.619,8.084-8.084S354.115,153.353,349.65,153.353z"/>
			<path d="M489.369,87.888H357.734v-47.85c0-10.591-7.516-19.457-17.493-21.555c-2.627-9.591-11.395-16.669-21.808-16.669H193.566     c-10.413,0-19.183,7.079-21.809,16.669c-9.977,2.099-17.492,10.963-17.492,21.555V87.89H22.631C10.153,87.888,0,98.041,0,110.52     v189.532v187.5c0,12.479,10.153,22.631,22.631,22.631h58.063c4.466,0,8.084-3.618,8.084-8.084s-3.618-8.084-8.084-8.084H22.631     c-3.565,0-6.463-2.898-6.463-6.463V346.96c6.004,7.689,13.441,14.199,21.912,19.13v87.327c0,11.248,9.149,20.398,20.397,20.398     h307.857c4.466,0,8.084-3.618,8.084-8.084s-3.618-8.084-8.084-8.084H58.478c-2.331,0-4.229-1.897-4.229-4.23v-80.247     c2.206,0.67,4.443,1.224,6.701,1.688c0.032,0.006,0.064,0.013,0.096,0.019c2.446,0.499,4.919,0.882,7.419,1.137     c0.122,0.013,0.246,0.022,0.368,0.033c1.041,0.101,2.086,0.18,3.136,0.239c0.279,0.016,0.558,0.032,0.839,0.045     c1.182,0.054,2.369,0.091,3.561,0.091h130.33v1.615c0,12.479,10.153,22.631,22.631,22.631h53.34     c12.479,0,22.631-10.153,22.631-22.631v-1.615h130.33c1.192,0,2.379-0.037,3.561-0.091c0.28-0.013,0.56-0.03,0.84-0.045     c1.048-0.059,2.092-0.138,3.131-0.239c0.124-0.012,0.248-0.022,0.372-0.033c2.499-0.255,4.971-0.638,7.416-1.136     c0.033-0.006,0.067-0.013,0.099-0.02c2.257-0.464,4.493-1.019,6.699-1.688v80.247c0,2.333-1.897,4.23-4.229,4.23h-58.084     c-4.466,0-8.084,3.618-8.084,8.084s3.618,8.084,8.084,8.084h58.084c11.248,0,20.397-9.15,20.397-20.398v-87.327     c8.471-4.931,15.909-11.441,21.912-19.13v140.592c0,3.565-2.898,6.463-6.463,6.463H108.719c-4.466,0-8.084,3.618-8.084,8.084     s3.618,8.084,8.084,8.084h380.649c12.479,0,22.631-10.153,22.631-22.631V300.052V110.52     C512,98.041,501.847,87.888,489.369,87.888z M187.102,26.093v-1.646c0-3.565,2.899-6.463,6.464-6.463h124.867     c3.565,0,6.463,2.898,6.463,6.463v1.646v4.417c0,3.565-2.898,6.463-6.463,6.463H193.566c-3.565,0-6.464-2.898-6.464-6.463V26.093     z M170.434,40.039c0-1.376,0.477-2.644,1.275-3.646c0.045,0.167,0.106,0.327,0.155,0.492c0.072,0.245,0.149,0.487,0.229,0.729     c0.141,0.427,0.296,0.845,0.462,1.26c0.091,0.227,0.179,0.456,0.277,0.68c0.197,0.451,0.414,0.889,0.639,1.325     c0.087,0.169,0.167,0.343,0.259,0.51c0.327,0.593,0.676,1.172,1.053,1.731c0.064,0.094,0.136,0.181,0.201,0.275     c0.32,0.46,0.654,0.911,1.008,1.346c0.144,0.178,0.297,0.346,0.446,0.518c0.293,0.34,0.593,0.674,0.904,0.995     c0.176,0.18,0.355,0.356,0.535,0.53c0.313,0.302,0.635,0.593,0.965,0.876c0.188,0.161,0.373,0.322,0.566,0.478     c0.368,0.295,0.747,0.575,1.133,0.847c0.167,0.117,0.328,0.242,0.497,0.356c0.562,0.375,1.137,0.73,1.732,1.053     c0.058,0.032,0.121,0.057,0.179,0.088c0.539,0.288,1.09,0.554,1.653,0.798c0.206,0.089,0.418,0.166,0.627,0.249     c0.429,0.17,0.861,0.333,1.303,0.477c0.244,0.08,0.489,0.152,0.736,0.223c0.427,0.124,0.859,0.235,1.296,0.334     c0.252,0.057,0.504,0.114,0.76,0.163c0.469,0.089,0.943,0.157,1.422,0.218c0.226,0.028,0.449,0.065,0.677,0.086     c0.707,0.067,1.421,0.109,2.145,0.109h124.867c0.724,0,1.438-0.042,2.145-0.109c0.229-0.022,0.452-0.058,0.677-0.086     c0.477-0.06,0.953-0.128,1.421-0.218c0.257-0.049,0.508-0.106,0.761-0.164c0.435-0.099,0.867-0.209,1.292-0.333     c0.248-0.072,0.496-0.144,0.74-0.225c0.439-0.144,0.869-0.305,1.295-0.474c0.211-0.084,0.426-0.162,0.635-0.252     c0.558-0.241,1.105-0.506,1.638-0.79c0.064-0.033,0.13-0.061,0.194-0.096c0.594-0.324,1.168-0.678,1.729-1.052     c0.172-0.115,0.335-0.241,0.504-0.361c0.384-0.272,0.761-0.549,1.126-0.843c0.193-0.155,0.38-0.318,0.568-0.48     c0.329-0.282,0.649-0.572,0.961-0.874c0.182-0.176,0.362-0.352,0.539-0.534c0.312-0.321,0.61-0.653,0.902-0.993     c0.15-0.174,0.303-0.343,0.447-0.521c0.354-0.435,0.688-0.887,1.009-1.348c0.065-0.093,0.136-0.179,0.198-0.272     c0.377-0.559,0.727-1.139,1.054-1.732c0.091-0.165,0.169-0.337,0.255-0.504c0.226-0.437,0.444-0.877,0.641-1.33     c0.098-0.223,0.186-0.452,0.277-0.678c0.166-0.415,0.321-0.834,0.462-1.261c0.08-0.242,0.157-0.485,0.23-0.731     c0.049-0.165,0.11-0.324,0.154-0.49c0.798,1.001,1.276,2.268,1.276,3.647v47.851H170.434V40.039z M289.133,368.34v9.699     c0,3.565-2.898,6.463-6.463,6.463h-53.34c-3.565,0-6.463-2.898-6.463-6.463v-9.699v-9.699c0-3.565,2.898-6.463,6.463-6.463h53.34     c3.565,0,6.463,2.898,6.463,6.463V368.34z M495.832,300.052c0,23.795-13.877,44.407-33.961,54.175     c-0.487,0.236-0.98,0.454-1.471,0.676c-0.992,0.449-1.996,0.873-3.015,1.27c-0.379,0.148-0.755,0.305-1.136,0.445     c-0.626,0.229-1.262,0.435-1.897,0.643c-0.359,0.119-0.717,0.241-1.078,0.352c-0.645,0.198-1.297,0.378-1.951,0.555     c-0.361,0.098-0.722,0.195-1.084,0.287c-0.649,0.163-1.302,0.313-1.96,0.454c-0.388,0.083-0.777,0.162-1.167,0.236     c-0.633,0.123-1.268,0.239-1.907,0.342c-0.454,0.072-0.91,0.134-1.366,0.195c-0.583,0.08-1.166,0.161-1.755,0.223     c-0.593,0.063-1.189,0.107-1.785,0.152c-0.467,0.036-0.93,0.082-1.399,0.107c-1.083,0.057-2.172,0.092-3.267,0.092H305.302     v-1.615c0-12.479-10.153-22.631-22.631-22.631h-53.34c-12.479,0-22.631,10.153-22.631,22.631v1.615H76.369     c-1.095,0-2.183-0.034-3.267-0.092c-0.471-0.026-0.936-0.071-1.403-0.107c-0.595-0.045-1.19-0.088-1.781-0.152     c-0.59-0.064-1.175-0.144-1.759-0.224c-0.454-0.061-0.909-0.123-1.36-0.195c-0.641-0.102-1.277-0.22-1.911-0.343     c-0.388-0.075-0.776-0.153-1.162-0.236c-0.659-0.141-1.314-0.292-1.964-0.455c-0.361-0.091-0.721-0.188-1.08-0.286     c-0.654-0.177-1.307-0.358-1.953-0.556c-0.362-0.111-0.721-0.235-1.081-0.354c-0.634-0.208-1.269-0.414-1.893-0.641     c-0.4-0.147-0.795-0.313-1.192-0.468c-0.982-0.383-1.951-0.791-2.907-1.223c-0.512-0.232-1.026-0.458-1.534-0.705     c-20.079-9.767-33.953-30.375-33.953-54.167V110.52c0-3.565,2.898-6.463,6.463-6.463H162.35H349.65h139.718     c3.565,0,6.463,2.898,6.463,6.463V300.052z"/>
		</g>
	</g>
</g>
<g>
</g>
<g>
</g>
<g>
</g>
<g>
</g>
<g>
</g>
<g>
</g>
<g>
</g>
<g>
</g>
<g>
</g>
<g>
</g>
<g>
</g>
<g>
</g>
<g>
</g>
<g>
</g>
<g>
</g>
</svg>
