<?xml version="1.0" encoding="iso-8859-1"?>
<!-- Generator: Adobe Illustrator 19.0.0, SVG Export Plug-In . SVG Version: 6.00 Build 0)  -->
<svg xmlns="http://www.w3.org/2000/svg" xmlns:xlink="http://www.w3.org/1999/xlink" version="1.1" id="Layer_1" x="0px" y="0px" viewBox="0 0 512 512" style="enable-background:new 0 0 512 512;" xml:space="preserve">
<g>
	<g>
		<g>
			<path d="M450.36,388.154l-10.39-76.556c-0.602-4.425-4.678-7.525-9.097-6.923c-4.424,0.6-7.525,4.674-6.923,9.097l10.314,76.006     c-0.036,7.049-0.763,14.096-2.166,20.952c-0.703,3.433-1.587,6.868-2.625,10.206c-0.261,0.841-0.532,1.675-0.808,2.493     c-14.655,43.307-55.243,72.403-100.994,72.403H184.328c-45.75,0-86.337-29.097-100.993-72.408     c-0.28-0.826-0.548-1.655-0.806-2.486c-1.044-3.36-1.927-6.794-2.626-10.209c-1.402-6.848-2.13-13.894-2.166-20.952     l27.47-202.437h22.236l-14.015,103.279c-0.05,0.361-0.073,0.724-0.073,1.088c0,6.16,0.621,12.32,1.846,18.308     c0.597,2.91,1.349,5.84,2.252,8.748c0.22,0.696,0.445,1.393,0.68,2.09c12.497,36.93,47.103,61.741,86.113,61.741h14.612     c0.057,11.95,9.793,21.655,21.757,21.655h30.773c11.964,0,21.697-9.704,21.755-21.655h14.614     c39.009,0,73.616-24.812,86.114-61.746c0.239-0.707,0.471-1.419,0.689-2.121c0.893-2.872,1.646-5.804,2.24-8.714     c1.226-5.988,1.846-12.148,1.846-18.307c0-0.363-0.024-0.727-0.073-1.088l-14.013-103.279h22.236l13.383,98.625     c0.601,4.425,4.666,7.523,9.097,6.923c4.424-0.6,7.524-4.674,6.923-9.097l-11.534-84.995     c8.985-8.408,14.131-20.206,14.131-32.529c0-19.202-11.973-35.908-29.977-42.112c-6.63-31.849-23.094-60.917-47.404-83.188     C332.573,14.549,295.137,0,255.999,0c-39.137,0-76.574,14.549-105.415,40.968c-24.312,22.271-40.777,51.343-47.406,83.196     c-17.975,6.211-29.974,22.98-29.974,42.104c0,12.294,5.15,24.149,14.129,32.547l-25.693,189.34     c-0.05,0.361-0.073,0.724-0.073,1.088c0,8.325,0.839,16.645,2.493,24.727c0.805,3.938,1.824,7.898,3.028,11.774     c0.3,0.964,0.61,1.919,0.93,2.867C84.901,478.488,131.641,512,184.328,512h143.343c52.689,0,99.429-33.512,116.315-83.403     c0.318-0.946,0.627-1.897,0.927-2.857c1.196-3.851,2.215-7.809,3.026-11.768c1.656-8.095,2.494-16.415,2.494-24.728     C450.433,388.879,450.409,388.515,450.36,388.154z M276.978,374.511v7.979c0,3.083-2.508,5.592-5.592,5.592h-30.773     c-3.084,0-5.594-2.508-5.594-5.592v-7.979v-6.838c0-3.084,2.509-5.593,5.594-5.593h30.773c3.083,0,5.592,2.509,5.592,5.593     V374.511z M380.957,306.776c-0.487,2.388-1.105,4.793-1.842,7.163c-0.18,0.58-0.369,1.161-0.563,1.732     c-10.272,30.359-38.724,50.756-70.797,50.756h-14.642c-0.01-0.175-0.041-0.343-0.055-0.516c-0.027-0.335-0.064-0.667-0.106-0.998     c-0.049-0.382-0.106-0.761-0.174-1.136c-0.059-0.328-0.126-0.651-0.201-0.973c-0.084-0.368-0.178-0.731-0.281-1.091     c-0.091-0.317-0.186-0.632-0.291-0.942c-0.119-0.352-0.247-0.698-0.382-1.042c-0.12-0.305-0.244-0.607-0.376-0.905     c-0.15-0.335-0.312-0.663-0.478-0.99c-0.148-0.29-0.297-0.579-0.458-0.861c-0.18-0.317-0.372-0.625-0.567-0.932     c-0.175-0.274-0.348-0.548-0.535-0.813c-0.208-0.297-0.429-0.584-0.651-0.871c-0.198-0.255-0.396-0.511-0.605-0.757     c-0.235-0.277-0.483-0.541-0.732-0.805c-0.221-0.235-0.439-0.471-0.669-0.695c-0.261-0.254-0.535-0.494-0.807-0.734     c-0.241-0.212-0.479-0.428-0.729-0.63c-0.285-0.23-0.582-0.442-0.878-0.657c-0.259-0.189-0.513-0.382-0.78-0.558     c-0.309-0.205-0.633-0.39-0.953-0.58c-0.273-0.161-0.539-0.329-0.819-0.478c-0.335-0.179-0.683-0.335-1.028-0.497     c-0.282-0.132-0.558-0.273-0.847-0.392c-0.363-0.151-0.739-0.276-1.112-0.407c-0.286-0.101-0.565-0.213-0.856-0.302     c-0.4-0.123-0.811-0.214-1.22-0.315c-0.278-0.068-0.549-0.15-0.831-0.207c-0.46-0.093-0.932-0.152-1.403-0.215     c-0.241-0.032-0.476-0.082-0.72-0.107c-0.719-0.072-1.447-0.111-2.184-0.111h-30.773c-0.737,0-1.466,0.039-2.184,0.111     c-0.242,0.025-0.477,0.073-0.718,0.106c-0.471,0.064-0.943,0.122-1.404,0.214c-0.281,0.057-0.553,0.139-0.831,0.207     c-0.409,0.099-0.82,0.192-1.219,0.315c-0.291,0.089-0.571,0.202-0.857,0.303c-0.373,0.132-0.748,0.257-1.111,0.407     c-0.288,0.12-0.565,0.261-0.846,0.392c-0.346,0.162-0.694,0.318-1.029,0.497c-0.279,0.149-0.546,0.316-0.818,0.478     c-0.321,0.19-0.643,0.375-0.954,0.58c-0.267,0.177-0.522,0.37-0.78,0.558c-0.296,0.216-0.594,0.428-0.878,0.657     c-0.25,0.203-0.488,0.418-0.73,0.631c-0.273,0.24-0.547,0.48-0.806,0.733c-0.231,0.225-0.449,0.461-0.67,0.696     c-0.248,0.264-0.496,0.528-0.731,0.804c-0.209,0.247-0.406,0.502-0.606,0.758c-0.222,0.287-0.443,0.573-0.651,0.87     c-0.185,0.265-0.36,0.539-0.535,0.813c-0.195,0.307-0.387,0.615-0.567,0.932c-0.161,0.282-0.31,0.571-0.458,0.862     c-0.166,0.326-0.327,0.653-0.478,0.988c-0.134,0.299-0.257,0.602-0.377,0.907c-0.135,0.344-0.264,0.689-0.382,1.04     c-0.105,0.311-0.2,0.626-0.291,0.944c-0.102,0.36-0.196,0.722-0.28,1.089c-0.074,0.323-0.141,0.648-0.2,0.976     c-0.068,0.374-0.125,0.751-0.174,1.132c-0.042,0.332-0.079,0.666-0.106,1.002c-0.014,0.172-0.044,0.34-0.054,0.513h-14.641     c-32.073,0-60.524-20.397-70.796-50.751c-0.201-0.592-0.391-1.189-0.567-1.743c-0.732-2.361-1.352-4.771-1.841-7.162     c-0.971-4.75-1.481-9.636-1.516-14.532l10.859-80.026c0.525,0.758,1.063,1.503,1.611,2.241c0.158,0.213,0.321,0.422,0.482,0.633     c0.434,0.572,0.873,1.14,1.322,1.701c0.209,0.261,0.419,0.521,0.632,0.779c0.434,0.53,0.876,1.054,1.324,1.574     c0.197,0.229,0.392,0.46,0.592,0.687c0.636,0.722,1.281,1.436,1.94,2.135c0.072,0.077,0.147,0.149,0.218,0.224     c0.596,0.626,1.202,1.242,1.815,1.849c0.229,0.225,0.46,0.446,0.691,0.669c0.48,0.464,0.965,0.921,1.455,1.372     c0.246,0.226,0.492,0.453,0.74,0.676c0.548,0.492,1.103,0.974,1.663,1.452c0.179,0.153,0.356,0.309,0.536,0.46     c0.731,0.611,1.471,1.209,2.222,1.795c0.212,0.166,0.429,0.326,0.643,0.489c0.558,0.427,1.121,0.848,1.689,1.261     c0.275,0.199,0.552,0.397,0.829,0.593c0.547,0.386,1.097,0.764,1.652,1.138c0.259,0.174,0.515,0.349,0.776,0.521     c0.798,0.523,1.602,1.036,2.417,1.531c0.084,0.051,0.17,0.099,0.255,0.15c0.743,0.447,1.494,0.883,2.251,1.307     c0.28,0.157,0.564,0.309,0.845,0.463c0.583,0.318,1.171,0.631,1.761,0.935c0.3,0.154,0.6,0.308,0.902,0.46     c0.654,0.328,1.315,0.645,1.979,0.955c0.218,0.101,0.433,0.208,0.652,0.308c0.871,0.398,1.75,0.78,2.637,1.149     c0.24,0.1,0.484,0.193,0.727,0.291c0.666,0.269,1.336,0.532,2.009,0.785c0.315,0.117,0.631,0.233,0.946,0.347     c0.642,0.232,1.288,0.455,1.937,0.672c0.292,0.097,0.583,0.197,0.876,0.292c0.925,0.297,1.853,0.583,2.79,0.848     c0.047,0.014,0.096,0.025,0.144,0.039c0.895,0.251,1.797,0.486,2.702,0.708c0.302,0.074,0.606,0.142,0.91,0.213     c0.675,0.157,1.352,0.307,2.032,0.448c0.324,0.067,0.649,0.134,0.974,0.197c0.744,0.144,1.491,0.278,2.241,0.403     c0.234,0.039,0.467,0.083,0.702,0.12c0.974,0.154,1.954,0.29,2.937,0.41c0.24,0.029,0.482,0.052,0.722,0.079     c0.758,0.085,1.519,0.162,2.282,0.226c0.331,0.028,0.663,0.053,0.995,0.077c0.714,0.052,1.429,0.094,2.146,0.128     c0.309,0.014,0.618,0.032,0.927,0.043c1.008,0.037,2.019,0.06,3.034,0.06h94.103c1.015,0,2.025-0.024,3.034-0.06     c0.31-0.011,0.619-0.028,0.928-0.043c0.717-0.033,1.431-0.076,2.144-0.128c0.332-0.024,0.664-0.049,0.995-0.077     c0.762-0.065,1.522-0.141,2.28-0.226c0.241-0.027,0.484-0.05,0.725-0.079c0.984-0.12,1.963-0.255,2.937-0.41     c0.234-0.037,0.467-0.081,0.701-0.12c0.749-0.125,1.496-0.258,2.24-0.403c0.327-0.064,0.651-0.13,0.977-0.197     c0.68-0.141,1.358-0.291,2.033-0.448c0.303-0.071,0.606-0.139,0.908-0.213c0.906-0.222,1.809-0.456,2.704-0.708     c0.047-0.013,0.096-0.025,0.143-0.039c0.936-0.265,1.864-0.55,2.786-0.847c0.296-0.095,0.591-0.196,0.886-0.294     c0.646-0.216,1.288-0.438,1.928-0.668c0.318-0.114,0.635-0.23,0.951-0.348c0.674-0.252,1.342-0.515,2.008-0.785     c0.241-0.098,0.485-0.191,0.727-0.291c0.885-0.368,1.763-0.75,2.634-1.148c0.222-0.101,0.441-0.209,0.662-0.313     c0.662-0.309,1.319-0.625,1.973-0.952c0.302-0.151,0.602-0.305,0.9-0.459c0.591-0.304,1.177-0.617,1.76-0.935     c0.283-0.155,0.568-0.307,0.849-0.466c0.76-0.427,1.513-0.863,2.259-1.313c0.081-0.049,0.164-0.095,0.244-0.143     c0.815-0.495,1.618-1.008,2.414-1.53c0.263-0.172,0.523-0.35,0.784-0.525c0.553-0.372,1.103-0.749,1.646-1.134     c0.278-0.196,0.555-0.395,0.831-0.594c0.569-0.413,1.133-0.835,1.691-1.263c0.213-0.163,0.429-0.322,0.64-0.487     c0.75-0.585,1.491-1.184,2.22-1.794c0.184-0.154,0.364-0.315,0.546-0.47c0.556-0.474,1.108-0.954,1.651-1.442     c0.25-0.225,0.498-0.453,0.746-0.681c0.489-0.451,0.972-0.907,1.451-1.369c0.231-0.223,0.463-0.445,0.692-0.67     c0.614-0.607,1.221-1.223,1.817-1.851c0.072-0.075,0.146-0.148,0.218-0.224c0.66-0.698,1.303-1.412,1.939-2.133     c0.201-0.227,0.397-0.46,0.595-0.69c0.446-0.518,0.887-1.041,1.32-1.57c0.212-0.26,0.424-0.52,0.633-0.781     c0.448-0.562,0.888-1.13,1.323-1.703c0.16-0.211,0.322-0.418,0.481-0.631c0.546-0.736,1.085-1.481,1.608-2.238l10.858,80.028     C382.439,297.136,381.929,302.022,380.957,306.776z M406.379,157.778c3.304-3.986,5.083-8.88,5.135-13.985     c6.817,5.286,11.113,13.551,11.113,22.474c0,3.199-0.552,6.34-1.582,9.305c-1.35-2.633-4.084-4.4-7.19-4.4h-36.933     c-3.871,0-7.198,2.743-7.935,6.543c-0.031,0.16-0.059,0.321-0.086,0.482l-0.016,0.093c-0.037,0.181-0.086,0.361-0.125,0.541     c-1.902-3.848-2.906-8.115-2.906-12.565c0-4.621,1.122-9.091,3.197-13.082c3.599,7.566,11.256,12.672,20.121,12.672     c0.693,0,1.398-0.032,2.095-0.098C397.205,165.204,402.57,162.369,406.379,157.778z M116.676,142.951     c3.225-34.55,19.147-66.534,44.831-90.062c25.85-23.679,59.409-36.721,94.493-36.721s68.643,13.041,94.493,36.721     c25.684,23.528,41.606,55.513,44.831,90.063c0.317,3.382-2.178,6.392-5.562,6.708c-3.423,0.328-6.393-2.178-6.708-5.563     c-2.236-23.948-11.03-46.606-25.434-65.528c-2.703-3.551-7.775-4.242-11.33-1.536c-3.553,2.704-4.24,7.777-1.536,11.33     c9.95,13.072,16.821,28.203,20.227,44.324c-9.727,8.478-15.296,20.655-15.296,33.582c0,11.438,4.465,22.502,12.32,30.751     c-11.633,21.267-34.075,34.918-58.952,34.918h-94.103c-7.211,0-14.219-1.147-20.817-3.292     c-16.174-5.26-29.886-16.531-38.141-31.635c7.864-8.252,12.328-19.274,12.328-30.743c0-13.002-5.555-25.122-15.308-33.602     c10.765-50.988,55.533-88.001,108.99-88.001c26.084,0,51.383,9.042,71.234,25.46c3.442,2.847,8.538,2.363,11.383-1.077     c2.846-3.441,2.363-8.537-1.077-11.383c-22.744-18.81-51.701-29.17-81.538-29.17c-66.279,0-120.899,49.697-127.051,115.603     c-0.315,3.376-3.344,5.878-6.708,5.562C118.858,149.344,116.36,146.334,116.676,142.951z M100.481,143.736     c0.1,11.3,8.765,20.948,20.274,22.024c9.544,0.88,18.253-4.444,22.18-12.622c2.085,3.993,3.214,8.471,3.214,13.129     c0,4.375-1.024,8.647-2.917,12.503c-0.041-0.192-0.091-0.373-0.13-0.567c-0.027-0.163-0.056-0.327-0.087-0.487     c-0.738-3.8-4.065-6.543-7.935-6.543H98.147c-3.121,0-5.864,1.783-7.208,4.437c-1.024-2.957-1.565-6.099-1.565-9.342     C89.374,157.208,93.61,148.99,100.481,143.736z"/>
			<path d="M298.74,271.042h-85.48c-4.466,0-8.084,3.618-8.084,8.084c0,4.466,3.618,8.084,8.084,8.084h85.48     c4.466,0,8.084-3.618,8.084-8.084C306.824,274.661,303.206,271.042,298.74,271.042z"/>
		</g>
	</g>
</g>
<g>
</g>
<g>
</g>
<g>
</g>
<g>
</g>
<g>
</g>
<g>
</g>
<g>
</g>
<g>
</g>
<g>
</g>
<g>
</g>
<g>
</g>
<g>
</g>
<g>
</g>
<g>
</g>
<g>
</g>
</svg>
