<?xml version="1.0" encoding="iso-8859-1"?>
<!-- Generator: Adobe Illustrator 19.0.0, SVG Export Plug-In . SVG Version: 6.00 Build 0)  -->
<svg xmlns="http://www.w3.org/2000/svg" xmlns:xlink="http://www.w3.org/1999/xlink" version="1.1" id="Layer_1" x="0px" y="0px" viewBox="0 0 512 512" style="enable-background:new 0 0 512 512;" xml:space="preserve">
<g>
	<g>
		<g>
			<path d="M141.725,289.667c-12.252,0-22.221,9.968-22.221,22.221v36.661v104.848c0,12.254,9.968,22.222,22.221,22.222h228.547     c12.252,0,22.221-9.968,22.221-22.222V348.549v-36.66c0.001-12.254-9.967-22.222-22.22-22.222H141.725z M376.324,311.889v28.577     H190.279c-4.465,0-8.084,3.618-8.084,8.084c0,4.466,3.62,8.084,8.084,8.084h186.047v96.764c0,3.337-2.715,6.053-6.052,6.053     H141.725c-3.337,0-6.052-2.716-6.052-6.053v-96.764h26.94c4.465,0,8.084-3.618,8.084-8.084c0-4.466-3.62-8.084-8.084-8.084     h-26.94v-28.577c0-3.338,2.715-6.052,6.052-6.052h228.547C373.61,305.836,376.324,308.552,376.324,311.889z"/>
			<path d="M455.684,273.834h-25.491v-28.437v-71.573c0-10.052-1.231-19.823-3.534-29.173V22.221C426.658,9.968,416.689,0,404.437,0     h-39.304c-12.252,0-22.221,9.968-22.221,22.221v34.652c-10.122-3.01-20.789-4.743-31.815-5.001     C309.365,22.979,285.32,0,255.999,0s-53.367,22.979-55.098,51.873c-11.027,0.258-21.694,1.992-31.817,5.001V22.221     C169.084,9.968,159.116,0,146.863,0h-39.302C95.309,0,85.34,9.968,85.34,22.221v122.428c-2.303,9.352-3.534,19.121-3.534,29.173     v71.573v28.437H56.315c-12.253,0-22.222,9.968-22.222,22.221v36.661v157.063c0,12.252,9.969,22.221,22.222,22.221h43.589     c1.715,0,3.416-0.222,5.089-0.621c1.934,0.406,3.936,0.622,5.99,0.622h290.033c2.053,0,4.056-0.216,5.991-0.621     c1.673,0.399,3.373,0.621,5.088,0.621h43.59c12.252,0,22.221-9.968,22.221-22.221v-86.647c0-4.466-3.618-8.084-8.084-8.084     c-4.466,0-8.084,3.619-8.084,8.084v86.647c0,3.338-2.714,6.052-6.052,6.052h-28.511c1.094-2.211,1.9-4.58,2.407-7.052     c0.012-0.057,0.024-0.114,0.036-0.171c0.077-0.386,0.148-0.774,0.209-1.165c0.028-0.176,0.052-0.352,0.077-0.528     c0.043-0.312,0.086-0.622,0.12-0.937c0.031-0.285,0.052-0.571,0.074-0.858c0.017-0.23,0.04-0.458,0.053-0.689     c0.029-0.532,0.046-1.068,0.046-1.607V340.801h31.545v35.384c0,4.466,3.618,8.084,8.084,8.084c4.466,0,8.084-3.618,8.084-8.084     v-43.469v-36.661C477.905,283.802,467.937,273.834,455.684,273.834z M50.261,296.055c0-3.338,2.716-6.052,6.053-6.052h25.49     v34.63H50.261V296.055z M56.315,495.832c-3.338,0-6.053-2.715-6.053-6.052V340.8h31.545v142.023c0,0.539,0.017,1.075,0.046,1.607     c0.013,0.232,0.035,0.46,0.053,0.691c0.023,0.286,0.043,0.571,0.074,0.855c0.033,0.317,0.077,0.631,0.121,0.944     c0.025,0.172,0.047,0.346,0.076,0.517c0.063,0.396,0.134,0.788,0.211,1.179c0.011,0.052,0.02,0.102,0.031,0.154     c0.507,2.475,1.313,4.847,2.408,7.06H56.315z M359.08,22.221L359.08,22.221c0-3.338,2.715-6.052,6.052-6.052h39.304     c3.338,0,6.052,2.715,6.052,6.052v85.151c-12.492-19.17-30.277-34.729-51.409-44.442V22.221z M255.999,16.168     c20.391,0,37.181,15.714,38.895,35.668h-77.789C218.818,31.882,235.608,16.168,255.999,16.168z M107.561,16.168h39.302     c3.337,0,6.052,2.715,6.052,6.052v40.71c-21.133,9.716-38.916,25.27-51.407,44.441c0,0,0-85.15,0-85.15     C101.509,18.883,104.224,16.168,107.561,16.168z M414.024,281.917v50.798v150.108c0,0.402-0.024,0.797-0.059,1.189     c-0.016,0.169-0.041,0.336-0.063,0.504c-0.027,0.206-0.057,0.41-0.094,0.612c-0.041,0.223-0.086,0.444-0.138,0.664     c-0.028,0.117-0.059,0.233-0.089,0.349c-0.767,2.86-2.499,5.387-4.863,7.143c-0.081,0.059-0.158,0.122-0.24,0.179     c-0.183,0.129-0.373,0.249-0.563,0.37c-0.144,0.091-0.289,0.18-0.437,0.265c-0.171,0.099-0.346,0.194-0.523,0.286     c-0.177,0.092-0.358,0.177-0.54,0.261c-0.167,0.077-0.333,0.154-0.504,0.224c-0.203,0.083-0.41,0.154-0.617,0.226     c-0.165,0.057-0.326,0.122-0.493,0.172c-1.199,0.365-2.468,0.565-3.784,0.565H110.982c-1.317,0-2.587-0.201-3.787-0.566     c-0.162-0.049-0.316-0.111-0.474-0.166c-0.214-0.074-0.429-0.149-0.639-0.235c-0.164-0.067-0.324-0.142-0.484-0.216     c-0.19-0.087-0.378-0.177-0.564-0.272c-0.169-0.088-0.337-0.179-0.502-0.275c-0.156-0.089-0.309-0.184-0.461-0.28     c-0.182-0.115-0.364-0.231-0.54-0.354c-0.095-0.067-0.184-0.139-0.277-0.207c-2.351-1.754-4.07-4.272-4.834-7.12     c-0.031-0.116-0.063-0.233-0.091-0.351c-0.052-0.219-0.097-0.44-0.138-0.662c-0.037-0.204-0.067-0.409-0.094-0.615     c-0.023-0.167-0.046-0.334-0.063-0.503c-0.036-0.392-0.06-0.787-0.06-1.189V332.715v-50.798V253.48h30.833h256.675h28.542     V281.917z M377.397,237.313H136.892v-66.049c0-37.164,30.234-67.398,67.395-67.398h105.714c37.163,0,67.395,30.235,67.395,67.398     V237.313z M414.025,237.313h-20.457v-66.049c0-46.079-37.486-83.566-83.564-83.566H204.289     c-46.078,0-83.564,37.487-83.564,83.566v66.049H97.974v-63.489c0-58.349,47.469-105.819,105.818-105.819h5.318h93.777h5.318     c58.349,0,105.819,47.47,105.819,105.819V237.313z M461.736,324.632h-31.544v-34.629h25.491c3.338,0,6.052,2.715,6.052,6.052     V324.632z"/>
			<path d="M157.202,387.355c0,4.466,3.62,8.084,8.084,8.084h181.425c4.466,0,8.084-3.618,8.084-8.084     c0-4.466-3.618-8.084-8.084-8.084H165.286C160.822,379.271,157.202,382.89,157.202,387.355z"/>
			<path d="M346.711,152.098H165.286c-4.465,0-8.084,3.618-8.084,8.084c0,4.466,3.62,8.084,8.084,8.084h181.425     c4.466,0,8.084-3.618,8.084-8.084C354.795,155.717,351.177,152.098,346.711,152.098z"/>
			<path d="M346.711,415.863H165.286c-4.465,0-8.084,3.619-8.084,8.084s3.62,8.084,8.084,8.084h181.425     c4.466,0,8.084-3.619,8.084-8.084S351.177,415.863,346.711,415.863z"/>
		</g>
	</g>
</g>
<g>
</g>
<g>
</g>
<g>
</g>
<g>
</g>
<g>
</g>
<g>
</g>
<g>
</g>
<g>
</g>
<g>
</g>
<g>
</g>
<g>
</g>
<g>
</g>
<g>
</g>
<g>
</g>
<g>
</g>
</svg>
