<?xml version="1.0" encoding="iso-8859-1"?>
<!-- Generator: Adobe Illustrator 19.0.0, SVG Export Plug-In . SVG Version: 6.00 Build 0)  -->
<svg xmlns="http://www.w3.org/2000/svg" xmlns:xlink="http://www.w3.org/1999/xlink" version="1.1" id="Layer_1" x="0px" y="0px" viewBox="0 0 511.999 511.999" style="enable-background:new 0 0 511.999 511.999;" xml:space="preserve">
<g>
	<g>
		<g>
			<path d="M476.061,377.576H216.178l259.034-200.395c2.873-2.223,3.915-6.087,2.547-9.452l-22.622-55.682     c-0.082-0.202-0.182-0.394-0.28-0.587c-0.034-0.067-0.062-0.137-0.096-0.203c-0.178-0.33-0.379-0.645-0.599-0.945     c-0.059-0.081-0.125-0.157-0.188-0.235c-0.174-0.22-0.357-0.43-0.553-0.63c-0.082-0.083-0.163-0.166-0.247-0.246     c-0.225-0.211-0.461-0.408-0.708-0.593c-0.052-0.039-0.1-0.083-0.153-0.121c-0.3-0.213-0.618-0.403-0.947-0.573     c-0.09-0.046-0.184-0.085-0.275-0.128c-0.25-0.119-0.507-0.225-0.772-0.318c-0.112-0.04-0.223-0.078-0.338-0.112     c-0.08-0.025-0.158-0.057-0.239-0.08c-0.22-0.059-0.444-0.098-0.666-0.138c-0.069-0.013-0.135-0.031-0.204-0.042     c-0.377-0.058-0.755-0.085-1.133-0.09c-0.035,0-0.068-0.009-0.104-0.009H195.499h-5.376c-4.784-25.466-27.033-44.45-53.698-44.45     H54.664C24.522,62.547,0,87.07,0,117.212v51.444c0,30.144,24.522,54.669,54.664,54.669h81.762     c26.663,0,48.918-18.984,53.704-44.45h5.369h156.461L92.925,379.269c-2.873,2.223-3.915,6.087-2.547,9.452l22.622,55.682     c0.08,0.195,0.177,0.38,0.27,0.568c0.038,0.075,0.068,0.153,0.108,0.227c0.177,0.327,0.377,0.639,0.594,0.936     c0.062,0.084,0.131,0.162,0.195,0.244c0.172,0.217,0.353,0.424,0.546,0.622c0.083,0.085,0.165,0.168,0.252,0.249     c0.224,0.209,0.458,0.406,0.703,0.589c0.053,0.04,0.103,0.084,0.157,0.123c0.3,0.213,0.618,0.402,0.946,0.572     c0.091,0.048,0.185,0.086,0.278,0.13c0.25,0.119,0.506,0.225,0.77,0.317c0.112,0.04,0.225,0.078,0.339,0.113     c0.08,0.025,0.158,0.057,0.239,0.08c0.177,0.048,0.356,0.071,0.534,0.107c0.132,0.026,0.261,0.059,0.395,0.079     c0.392,0.057,0.784,0.093,1.177,0.093H476.06c19.816,0,35.939-16.122,35.939-35.937C512,393.699,495.877,377.576,476.061,377.576     z M136.425,207.129H54.664c-21.212,0-38.469-17.259-38.469-38.474v-51.444c0-21.211,17.257-38.469,38.469-38.469h81.762     c17.696,0,32.635,11.876,37.104,28.255h-11.373c-4.08-10.325-14.121-17.458-25.73-17.458H54.664     c-15.259,0-27.673,12.414-27.673,27.673v17.854c-3.564,0.849-6.217,4.046-6.217,7.869c0,3.824,2.653,7.02,6.217,7.869v17.851     c0,15.261,12.414,27.677,27.673,27.677h81.762c11.609,0,21.649-7.133,25.728-17.458h11.374     C169.059,195.254,154.118,207.129,136.425,207.129z M97.88,178.874h43.782c-1.574,0.807-3.354,1.263-5.237,1.263H54.664     c-6.329,0-11.478-5.151-11.478-11.482v-17.622h46.596v19.744C89.782,175.249,93.407,178.874,97.88,178.874z M124.641,134.838     h-18.664v-11.646h35.359v39.488h-35.359v-11.646h18.664c4.473,0,8.097-3.624,8.097-8.097S129.115,134.838,124.641,134.838z      M97.88,106.997c-4.473,0-8.097,3.624-8.097,8.097v19.744H43.186v-17.627c0-6.329,5.149-11.478,11.478-11.478h81.762     c1.883,0,3.663,0.457,5.239,1.263C141.664,106.997,97.88,106.997,97.88,106.997z M187.401,162.679h-4.46h-25.41v-39.487h25.41     h0.022h4.438V162.679z M203.596,162.681v-0.001v-39.487h220.339l-19.308,14.937l-31.736,24.552H203.596z M107.695,388.318     l272.91-211.131c0.003-0.002,0.007-0.004,0.01-0.006l63.535-49.153l16.293,40.104L123.988,428.423L107.695,388.318z      M476.061,433.259H144.203l51.042-39.488H476.06c10.887,0,19.744,8.858,19.744,19.746     C495.805,424.402,486.949,433.259,476.061,433.259z"/>
			<path d="M230.722,405.418h-0.985c-4.473,0-8.097,3.624-8.097,8.097c0,4.473,3.624,8.097,8.097,8.097h0.985     c4.473,0,8.097-3.624,8.097-8.097C238.82,409.042,235.195,405.418,230.722,405.418z"/>
			<path d="M276.121,405.418h-0.985c-4.473,0-8.097,3.624-8.097,8.097c0,4.473,3.624,8.097,8.097,8.097h0.985     c4.473,0,8.097-3.624,8.097-8.097C284.219,409.042,280.594,405.418,276.121,405.418z"/>
			<path d="M321.518,405.418h-0.98c-4.473,0-8.097,3.624-8.097,8.097c0,4.473,3.624,8.097,8.097,8.097h0.98     c4.473,0,8.097-3.624,8.097-8.097C329.615,409.042,325.991,405.418,321.518,405.418z"/>
			<path d="M366.918,405.418h-0.985c-4.473,0-8.097,3.624-8.097,8.097c0,4.473,3.624,8.097,8.097,8.097h0.985     c4.473,0,8.097-3.624,8.097-8.097C375.016,409.042,371.39,405.418,366.918,405.418z"/>
			<path d="M412.317,405.418h-0.985c-4.473,0-8.097,3.624-8.097,8.097c0,4.473,3.624,8.097,8.097,8.097h0.985     c4.473,0,8.097-3.624,8.097-8.097C420.415,409.042,416.789,405.418,412.317,405.418z"/>
		</g>
	</g>
</g>
<g>
</g>
<g>
</g>
<g>
</g>
<g>
</g>
<g>
</g>
<g>
</g>
<g>
</g>
<g>
</g>
<g>
</g>
<g>
</g>
<g>
</g>
<g>
</g>
<g>
</g>
<g>
</g>
<g>
</g>
</svg>
