<?xml version="1.0" encoding="iso-8859-1"?>
<!-- Generator: Adobe Illustrator 19.0.0, SVG Export Plug-In . SVG Version: 6.00 Build 0)  -->
<svg xmlns="http://www.w3.org/2000/svg" xmlns:xlink="http://www.w3.org/1999/xlink" version="1.1" id="Layer_1" x="0px" y="0px" viewBox="0 0 512.001 512.001" style="enable-background:new 0 0 512.001 512.001;" xml:space="preserve">
<g>
	<g>
		<path d="M510.165,333.683c-5.333-13.679-20.807-20.47-34.488-15.136c-14.631,5.706-30.451,10.773-47.234,15.169    c-4.678-31.473-13.534-83.246-26.781-129.316c-19.309-67.147-41.391-99.788-67.508-99.788c-2.329,0-4.693,0.273-7.024,0.811    c-9.11,2.102-17.239,4.151-24.412,5.956c-18.969,4.779-32.675,8.231-46.461,8.231h-0.514c-13.788,0.001-27.49-3.451-46.457-8.23    c-7.174-1.807-15.303-3.855-24.415-5.958c-2.331-0.538-4.694-0.811-7.024-0.811c-26.12,0-48.202,32.639-67.51,99.787    c-13.244,46.062-22.101,97.841-26.779,129.317c-16.785-4.395-32.605-9.464-47.236-15.17c-13.686-5.334-29.155,1.46-34.486,15.136    c-2.585,6.626-2.435,13.863,0.424,20.378c2.858,6.514,8.082,11.525,14.712,14.11c30.102,11.74,64.504,21.066,102.252,27.721    c4.393,0.783,8.591-2.162,9.366-6.559c0.776-4.398-2.16-8.591-6.559-9.366c-36.7-6.471-70.07-15.508-99.183-26.862    c-2.604-1.014-4.655-2.984-5.777-5.542c-1.123-2.558-1.183-5.401-0.165-8.006c2.093-5.371,8.174-8.04,13.544-5.945    c17.726,6.914,37.124,12.912,57.805,17.95c0.037,0.01,0.072,0.023,0.109,0.032c0.247,0.06,0.5,0.115,0.748,0.175    c2.74,0.663,5.503,1.311,8.287,1.94c0.226,0.051,0.451,0.104,0.677,0.155c3.101,0.696,6.228,1.371,9.381,2.025    c0.11,0.023,0.221,0.044,0.33,0.067c3.08,0.637,6.187,1.252,9.316,1.848c0.167,0.031,0.333,0.064,0.499,0.096    c29.585,5.613,61.235,9.39,94.038,11.185c0.141,0.008,0.284,0.015,0.426,0.023c3.442,0.187,6.895,0.353,10.363,0.496    c0.168,0.006,0.336,0.015,0.505,0.022c3.498,0.141,7.007,0.262,10.526,0.359c0.424,0.012,0.849,0.019,1.273,0.03    c2.907,0.075,5.821,0.134,8.74,0.179c0.838,0.013,1.674,0.026,2.513,0.037c3.331,0.041,6.668,0.068,10.015,0.068    c3.347,0,6.684-0.028,10.015-0.068c0.839-0.011,1.675-0.024,2.513-0.037c2.921-0.044,5.834-0.104,8.74-0.179    c0.425-0.011,0.85-0.019,1.273-0.03c3.52-0.097,7.029-0.217,10.526-0.359c0.168-0.006,0.336-0.015,0.505-0.022    c3.466-0.142,6.919-0.309,10.362-0.495c0.142-0.008,0.285-0.015,0.427-0.023c32.808-1.795,64.463-5.574,94.051-11.187    c0.156-0.029,0.312-0.06,0.468-0.089c3.145-0.599,6.268-1.217,9.364-1.858c0.096-0.019,0.192-0.039,0.288-0.058    c3.163-0.655,6.299-1.333,9.41-2.031c0.21-0.047,0.417-0.096,0.627-0.143c2.805-0.634,5.587-1.286,8.348-1.953    c0.239-0.058,0.484-0.111,0.723-0.169c0.036-0.009,0.069-0.022,0.106-0.031c20.681-5.038,40.08-11.036,57.806-17.95    c5.371-2.094,11.453,0.57,13.547,5.946c1.016,2.602,0.957,5.445-0.166,8.004c-1.122,2.558-3.174,4.527-5.776,5.542    c-63.023,24.578-145.825,38.114-233.156,38.114c-36.762,0-72.918-2.393-107.462-7.113c-4.421-0.609-8.502,2.492-9.106,6.916    c-0.606,4.424,2.493,8.502,6.916,9.106c35.269,4.819,72.161,7.262,109.651,7.262c89.292,0,174.18-13.928,239.031-39.219    c6.627-2.584,11.851-7.596,14.71-14.11C512.6,347.546,512.751,340.309,510.165,333.683z M320.078,351.519    c-2.15,0.177-4.307,0.342-6.467,0.5c-5.008,0.368-10.038,0.695-15.096,0.966c-7.031,0.377-14.106,0.665-21.217,0.854    c-0.59,0.015-1.18,0.028-1.77,0.042c-2.559,0.063-5.123,0.111-7.69,0.149c-0.809,0.012-1.617,0.026-2.427,0.035    c-3.132,0.037-6.268,0.06-9.41,0.06c-3.142,0-6.278-0.024-9.41-0.06c-0.81-0.01-1.618-0.023-2.427-0.035    c-2.567-0.038-5.131-0.086-7.69-0.149c-0.59-0.014-1.18-0.027-1.77-0.042c-7.111-0.19-14.185-0.477-21.217-0.854    c-5.201-0.279-10.371-0.616-15.518-0.996c-1.87-0.138-3.739-0.28-5.602-0.432c-32.684-2.662-64.102-7.361-93.032-13.986    c1.459-9.877,3.456-22.617,5.978-36.893c46.093,9.728,97.984,14.853,150.686,14.853c28.752,0,57.252-1.504,84.711-4.47    c4.44-0.48,7.65-4.469,7.17-8.908s-4.458-7.649-8.908-7.17c-26.884,2.904-54.8,4.377-82.974,4.377    c-51.767,0-102.66-5.045-147.772-14.604c4.598-24.171,10.47-50.913,17.651-75.888c16.097-55.979,35.038-88.083,51.968-88.083    c1.106,0,2.247,0.133,3.387,0.396c8.955,2.067,17.003,4.095,24.102,5.883c20.096,5.063,34.614,8.721,50.407,8.72h0.514    c15.792,0,30.314-3.658,50.411-8.721c7.099-1.789,15.146-3.815,24.099-5.882c1.141-0.263,2.28-0.396,3.387-0.396    c16.928,0,35.869,32.105,51.966,88.085c7.182,24.979,13.056,51.72,17.654,75.889c-12.302,2.608-25.084,4.901-38.118,6.823    c-4.418,0.651-7.471,4.762-6.819,9.18s4.764,7.466,9.18,6.819c13.209-1.949,26.179-4.265,38.673-6.903    c2.517,14.252,4.516,27.002,5.977,36.893C383.868,344.165,352.603,348.851,320.078,351.519z"/>
	</g>
</g>
<g>
</g>
<g>
</g>
<g>
</g>
<g>
</g>
<g>
</g>
<g>
</g>
<g>
</g>
<g>
</g>
<g>
</g>
<g>
</g>
<g>
</g>
<g>
</g>
<g>
</g>
<g>
</g>
<g>
</g>
</svg>
