<?xml version="1.0" encoding="iso-8859-1"?>
<!-- Generator: Adobe Illustrator 19.0.0, SVG Export Plug-In . SVG Version: 6.00 Build 0)  -->
<svg xmlns="http://www.w3.org/2000/svg" xmlns:xlink="http://www.w3.org/1999/xlink" version="1.1" id="Layer_1" x="0px" y="0px" viewBox="0 0 512 512" style="enable-background:new 0 0 512 512;" xml:space="preserve">
<g>
	<g>
		<g>
			<path d="M458.01,381.428v-35.994v-43.937c0-0.534-0.016-1.063-0.021-1.595c0-0.002,0-0.004,0-0.006     c0-0.028-0.001-0.056-0.001-0.084c-0.031-3.836-0.172-7.647-0.416-11.43c-0.019-0.304-0.037-0.608-0.058-0.911     c-0.072-1.044-0.152-2.086-0.24-3.125c-0.043-0.511-0.089-1.022-0.137-1.533c-0.085-0.928-0.171-1.856-0.269-2.78     c-0.092-0.866-0.195-1.729-0.297-2.592c-0.096-0.807-0.192-1.616-0.297-2.421c-0.169-1.294-0.349-2.585-0.543-3.873     c-0.055-0.365-0.115-0.73-0.172-1.094c-0.205-1.311-0.421-2.618-0.652-3.924c-0.037-0.209-0.073-0.417-0.111-0.626     c-1.752-9.755-4.211-19.359-7.388-28.752c-0.08-0.235-0.179-0.459-0.278-0.683c-23.418-68.219-82.395-120.057-154.697-133.28     c13.068-10.619,21.438-26.807,21.438-44.92C313.869,25.959,287.909,0,256.001,0c-31.909,0-57.869,25.959-57.869,57.867     c0,18.112,8.37,34.301,21.438,44.92c-72.283,13.219-131.248,65.034-154.679,133.228c-0.101,0.227-0.203,0.456-0.283,0.695     c-3.183,9.405-5.647,19.023-7.402,28.793c-0.038,0.207-0.073,0.414-0.11,0.621c-0.231,1.31-0.448,2.621-0.654,3.935     c-0.056,0.359-0.115,0.718-0.17,1.078c-0.196,1.305-0.379,2.613-0.551,3.924c-0.105,0.798-0.198,1.599-0.294,2.398     c-0.101,0.855-0.204,1.708-0.294,2.565c-0.098,0.925-0.184,1.852-0.269,2.78c-0.046,0.512-0.094,1.024-0.137,1.536     c-0.088,1.039-0.168,2.081-0.24,3.125c-0.021,0.302-0.038,0.605-0.057,0.906c-0.244,3.787-0.385,7.6-0.416,11.44     c0,0.028-0.001,0.056-0.001,0.084c0,0.002,0,0.004,0,0.006c-0.004,0.532-0.021,1.062-0.021,1.595v43.933v35.998     c-12.501,4.248-21.526,16.092-21.526,30.012v68.866C32.466,497.783,46.685,512,64.161,512h50.499     c4.466,0,8.084-3.618,8.084-8.084c0-4.466-3.618-8.084-8.084-8.084H64.161c-8.561,0-15.526-6.965-15.526-15.526V411.44     c0-8.016,6.108-14.632,13.915-15.442c0.081-0.004,0.161-0.003,0.241-0.011c0.07-0.006,0.122-0.009,0.189-0.014     c0.391-0.03,0.784-0.06,1.182-0.06h49.788h26.111h102.965h26.032h103.277h26.031h49.475c0.399,0,0.791,0.03,1.182,0.06     c0.066,0.005,0.117,0.008,0.188,0.014c0.081,0.008,0.161,0.007,0.241,0.011c7.806,0.81,13.915,7.426,13.915,15.442v68.866     c0,8.561-6.965,15.526-15.526,15.526H141.606c-4.466,0-8.084,3.619-8.084,8.084c0,4.466,3.618,8.084,8.084,8.084H447.84     c17.477,0,31.694-14.217,31.694-31.694V411.44C479.536,397.52,470.512,385.676,458.01,381.428z M214.301,57.867     c0-22.993,18.707-41.698,41.701-41.698s41.699,18.706,41.699,41.698c0,22.289-17.577,40.549-39.599,41.648     c-0.701-0.008-1.399-0.027-2.102-0.027c-0.703,0-1.401,0.019-2.102,0.027C231.879,98.416,214.301,80.157,214.301,57.867z      M70.477,290.714c0-0.004,0.001-0.01,0.001-0.014c0.097-1.697,0.221-3.389,0.363-5.078c0.025-0.296,0.053-0.593,0.079-0.889     c0.123-1.374,0.263-2.745,0.415-4.115c0.054-0.483,0.108-0.966,0.166-1.448c0.137-1.143,0.289-2.282,0.446-3.421     c0.089-0.647,0.176-1.295,0.272-1.939c0.129-0.866,0.275-1.729,0.416-2.592c1.004-6.1,2.306-12.1,3.89-17.987l45.396,37.123     c2.985,2.44,7.277,2.435,10.254-0.015l59.434-48.892l59.243,48.886c2.981,2.461,7.287,2.465,10.271,0.015l59.638-48.913     l19.081,15.697c3.448,2.836,8.543,2.342,11.379-1.107c2.837-3.448,2.341-8.542-1.107-11.379l-24.209-19.916     c-2.98-2.451-7.28-2.453-10.263-0.008l-59.629,48.906l-59.252-48.891c-2.983-2.462-7.294-2.465-10.281-0.008l-59.457,48.912     l-45.197-36.96c26.133-69.984,93.295-120.117,172.074-120.997c0.698,0.025,1.397,0.053,2.101,0.053s1.402-0.028,2.101-0.053     c78.799,0.878,145.976,51.038,172.09,121.052l-44.844,36.891l-15.071-12.398c-3.447-2.835-8.543-2.341-11.379,1.107     c-2.837,3.448-2.341,8.542,1.107,11.379l20.207,16.623c2.984,2.454,7.289,2.454,10.271,0l45.009-37.028     c1.579,5.878,2.876,11.868,3.876,17.959c0.139,0.855,0.284,1.707,0.411,2.564c0.098,0.651,0.184,1.305,0.275,1.959     c0.156,1.134,0.308,2.268,0.443,3.405c0.058,0.483,0.112,0.966,0.166,1.45c0.153,1.372,0.293,2.748,0.415,4.125     c0.026,0.289,0.053,0.578,0.078,0.867c0.295,3.504,0.497,7.024,0.595,10.557l-56.404,46.403l-59.442-48.901     c-2.98-2.451-7.28-2.453-10.263-0.008l-59.629,48.908l-59.252-48.893c-2.983-2.462-7.294-2.465-10.281-0.008l-59.457,48.914     l-56.779-46.43C70.295,294.355,70.373,292.532,70.477,290.714z M70.16,379.746v-17.279l21.131,17.279H70.16z M162.61,379.746     l29.002-23.858l28.912,23.858H162.61z M291.661,379.746l29.104-23.871l29.017,23.871H291.661z M441.842,379.746h-20.924     l20.924-17.214V379.746z M441.842,341.595l-46.374,38.15h-20.236v0.001l-49.323-40.575c-2.98-2.451-7.28-2.453-10.263-0.008     l-49.48,40.583h-20.236l-49.164-40.569c-2.983-2.462-7.294-2.465-10.281-0.008l-49.323,40.575h-20.328L70.16,341.581v-24.586     l51.765,42.33c1.49,1.218,3.303,1.826,5.118,1.826c1.822,0,3.644-0.613,5.136-1.841l59.434-48.894l59.243,48.887     c2.981,2.46,7.287,2.465,10.271,0.015l59.638-48.915l59.448,48.907c2.984,2.454,7.289,2.454,10.271,0l51.357-42.25V341.595z"/>
			<path d="M71.639,424.181v43.476c0,4.466,3.62,8.084,8.084,8.084c4.466,0,8.084-3.618,8.084-8.084v-43.476     c0-4.466-3.618-8.084-8.084-8.084C75.258,416.096,71.639,419.716,71.639,424.181z"/>
			<path d="M118.896,416.096c-4.466,0-8.084,3.618-8.084,8.084v43.476c0,4.466,3.618,8.084,8.084,8.084     c4.466,0,8.084-3.618,8.084-8.084v-43.476C126.98,419.716,123.361,416.096,118.896,416.096z"/>
			<path d="M166.153,467.656v-43.476c0-4.466-3.618-8.084-8.084-8.084c-4.466,0-8.084,3.618-8.084,8.084v43.476     c0,4.466,3.618,8.084,8.084,8.084S166.153,472.122,166.153,467.656z"/>
			<path d="M205.326,467.656v-43.476c0-4.466-3.618-8.084-8.084-8.084c-4.466,0-8.084,3.618-8.084,8.084v43.476     c0,4.466,3.619,8.084,8.084,8.084C201.708,475.741,205.326,472.122,205.326,467.656z"/>
			<path d="M244.499,467.656v-43.476c0-4.466-3.619-8.084-8.084-8.084s-8.084,3.618-8.084,8.084v43.476     c0,4.466,3.619,8.084,8.084,8.084S244.499,472.122,244.499,467.656z"/>
			<path d="M283.672,467.656v-43.476c0-4.466-3.619-8.084-8.084-8.084c-4.466,0-8.084,3.618-8.084,8.084v43.476     c0,4.466,3.618,8.084,8.084,8.084C280.052,475.741,283.672,472.122,283.672,467.656z"/>
			<path d="M322.845,467.656v-43.476c0-4.466-3.619-8.084-8.084-8.084s-8.084,3.618-8.084,8.084v43.476     c0,4.466,3.619,8.084,8.084,8.084C319.225,475.741,322.845,472.122,322.845,467.656z"/>
			<path d="M362.016,467.656v-43.476c0-4.466-3.618-8.084-8.084-8.084c-4.466,0-8.084,3.618-8.084,8.084v43.476     c0,4.466,3.618,8.084,8.084,8.084C358.398,475.741,362.016,472.122,362.016,467.656z"/>
			<path d="M440.363,467.656v-43.476c0-4.466-3.619-8.084-8.084-8.084c-4.466,0-8.084,3.618-8.084,8.084v43.476     c0,4.466,3.618,8.084,8.084,8.084C436.745,475.741,440.363,472.122,440.363,467.656z"/>
			<path d="M401.19,467.656v-43.476c0-4.466-3.618-8.084-8.084-8.084c-4.466,0-8.084,3.618-8.084,8.084v43.476     c0,4.466,3.618,8.084,8.084,8.084C397.572,475.741,401.19,472.122,401.19,467.656z"/>
		</g>
	</g>
</g>
<g>
</g>
<g>
</g>
<g>
</g>
<g>
</g>
<g>
</g>
<g>
</g>
<g>
</g>
<g>
</g>
<g>
</g>
<g>
</g>
<g>
</g>
<g>
</g>
<g>
</g>
<g>
</g>
<g>
</g>
</svg>
