<?xml version="1.0" encoding="iso-8859-1"?>
<!-- Generator: Adobe Illustrator 19.0.0, SVG Export Plug-In . SVG Version: 6.00 Build 0)  -->
<svg xmlns="http://www.w3.org/2000/svg" xmlns:xlink="http://www.w3.org/1999/xlink" version="1.1" id="Layer_1" x="0px" y="0px" viewBox="0 0 511.999 511.999" style="enable-background:new 0 0 511.999 511.999;" xml:space="preserve">
<g>
	<g>
		<path d="M445.08,345.122c-2.194-3.195-4.638-6.25-7.323-9.142l-19.871-21.398c0,0,0,0-0.001-0.001l-49.329-53.121    c-3.039-3.272-8.153-3.461-11.426-0.424c-3.271,3.039-3.461,8.153-0.424,11.426l47.481,51.13    c2.087,24.588-7.294,49.037-25.393,65.844c-14.929,13.863-34.363,21.499-54.726,21.5c-3.402,0-6.87-0.238-10.347-0.69    L206.456,294.737c12.104-10.92,19.13-26.418,19.13-43.039c0-29.277-21.782-53.55-49.988-57.498V51.686v-29.46    c0-3.34,2.718-6.058,6.06-6.058h13.129v77.785c0,4.466,3.62,8.084,8.084,8.084s8.084-3.618,8.084-8.084V16.168h19.19v77.785    c0,4.466,3.62,8.084,8.084,8.084c4.465,0,8.084-3.618,8.084-8.084V16.168h19.189v77.785c0,4.466,3.619,8.084,8.084,8.084    c4.465,0,8.084-3.618,8.084-8.084V16.168h13.309c2.794,0,5.24,1.969,5.88,4.654v188.325c0,2.04,0.772,4.005,2.16,5.502    l35.906,38.665c3.04,3.273,8.152,3.462,11.426,0.424c3.271-3.037,3.461-8.153,0.424-11.426l-33.746-36.339V20.076    c0-0.41-0.031-0.819-0.094-1.224C315.262,7.928,306.029,0,294.98,0H181.66c-12.257,0-22.228,9.971-22.228,22.226v21.376H75.41    c-12.257,0-22.228,9.972-22.228,22.227v179.487v35.204c0,19.956,7.48,38.998,21.059,53.619l141.786,152.683    c14.857,16,35.905,25.176,57.749,25.177h0.009c19.946-0.001,38.982-7.479,53.603-21.057c8.932-8.294,15.728-18.42,20.004-29.667    c9.9,4.505,20.716,6.974,31.761,7.098c0.292,0.003,0.582,0.023,0.875,0.023h0.001c0.002,0,0.005,0,0.009,0    c19.946-0.002,38.982-7.481,53.602-21.057c5.784-5.371,10.653-11.467,14.521-18.096c6.448-11.049,10.116-23.585,10.602-36.731    C459.394,375.424,454.587,358.966,445.08,345.122z M175.601,210.579c19.251,3.778,33.819,20.78,33.819,41.122    c0,12.062-5.117,23.318-13.949,31.207l-3.133-3.374c-10.793-11.622-16.738-26.757-16.738-42.617L175.601,210.579z M89.222,326.51    l-3.134-3.375c-10.793-11.62-16.738-26.754-16.738-42.616l0.001-26.338c19.251,3.777,33.819,20.78,33.819,41.121    C103.17,307.363,98.053,318.621,89.222,326.51z M217.804,454.541c-3.395,0-6.859-0.237-10.328-0.689L100.208,338.343    c12.104-10.919,19.13-26.417,19.13-43.039c0-29.277-21.781-53.549-49.988-57.497V65.829c0-3.34,2.718-6.059,6.06-6.059h13.129    v77.785c0,4.466,3.62,8.084,8.084,8.084c4.465,0,8.084-3.618,8.084-8.084V59.77h19.19v77.785c0,4.466,3.62,8.084,8.084,8.084    s8.084-3.618,8.084-8.084V59.77h19.368v141.943v35.205c0,1.247,0.029,2.491,0.087,3.73c0.871,18.588,8.239,36.181,20.971,49.889    l109.866,118.308c-4.345,9.108-10.312,17.236-17.809,24.198C257.619,446.905,238.185,454.541,217.804,454.541z M316.385,479.096    c-10.168,9.441-23.022,15.174-36.696,16.459c-1.953,0.183-3.924,0.277-5.905,0.277l-0.006,7.002v-7.003    c-17.364-0.001-34.094-7.295-45.902-20.011l-4.873-5.248c22.557-1.199,43.89-10.212,60.547-25.682    c7.434-6.904,13.628-14.759,18.5-23.452l20.228,21.78c0.897,0.967,1.821,1.905,2.763,2.823c0.185,0.18,0.378,0.351,0.565,0.53    c0.79,0.756,1.591,1.498,2.41,2.219c0.136,0.119,0.275,0.233,0.411,0.351c0.915,0.794,1.847,1.567,2.796,2.319    c0.026,0.021,0.053,0.041,0.079,0.061c0.628,0.495,1.251,0.996,1.894,1.471C329.894,462.941,324.15,471.884,316.385,479.096z     M442.603,391.917c-0.193,5.224-1.019,10.327-2.437,15.221c-3.119,10.768-9.104,20.529-17.532,28.354    c-8.714,8.094-19.403,13.46-30.89,15.638c-3.829,0.727-7.747,1.098-11.71,1.098c-0.003,0-0.003,0-0.006,0    c-8.682,0-17.205-1.824-25.035-5.237c-4.651-2.028-9.049-4.63-13.097-7.731c-0.32-0.247-0.645-0.489-0.96-0.743    c-0.529-0.421-1.048-0.857-1.564-1.297c-0.512-0.439-1.018-0.886-1.517-1.341c-0.379-0.345-0.761-0.688-1.132-1.042    c-0.86-0.826-1.706-1.669-2.521-2.544c-0.025-0.027-0.051-0.051-0.076-0.078l-4.873-5.247c22.557-1.2,43.89-10.214,60.546-25.683    c17.173-15.947,27.814-37.617,30.291-60.57l5.82,6.267C437.294,359.241,443.223,375.199,442.603,391.917z"/>
	</g>
</g>
<g>
</g>
<g>
</g>
<g>
</g>
<g>
</g>
<g>
</g>
<g>
</g>
<g>
</g>
<g>
</g>
<g>
</g>
<g>
</g>
<g>
</g>
<g>
</g>
<g>
</g>
<g>
</g>
<g>
</g>
</svg>
