<?xml version="1.0" encoding="iso-8859-1"?>
<!-- Generator: Adobe Illustrator 19.0.0, SVG Export Plug-In . SVG Version: 6.00 Build 0)  -->
<svg xmlns="http://www.w3.org/2000/svg" xmlns:xlink="http://www.w3.org/1999/xlink" version="1.1" id="Layer_1" x="0px" y="0px" viewBox="0 0 512.001 512.001" style="enable-background:new 0 0 512.001 512.001;" xml:space="preserve">
<g>
	<g>
		<path d="M507.94,377.68c-1.575-2.397-3.094-3.947-3.462-4.308c-0.087-0.084-0.177-0.168-0.269-0.25    c-17.04-15.172-52.605-43.154-99.351-60.08c-0.374-0.135-0.754-0.242-1.136-0.32c-2.225-0.454-4.532,0.06-6.364,1.389    c-0.058,0.042-0.122,0.074-0.179,0.119c-0.203,0.155-0.387,0.338-0.576,0.514c-0.1,0.093-0.209,0.173-0.304,0.271    c-0.284,0.292-28.939,29.211-78.907,29.214c-11.764,0-23.929-1.623-36.156-4.823c-0.019-0.004-0.037-0.01-0.055-0.014    c-0.035-0.01-0.068-0.019-0.103-0.027c-4.264-1.122-8.576-2.442-12.817-3.925c-0.119-0.042-0.242-0.074-0.363-0.11    c-7.767-2.733-15.599-6.096-23.488-10.077L159.76,192.363c-2.402-3.77-7.407-4.88-11.173-2.478    c-3.77,2.401-4.878,7.403-2.478,11.173l67.161,105.433c-0.16-0.112-0.32-0.224-0.48-0.337c-1.752-1.228-3.504-2.475-5.251-3.757    c-12.818-9.402-24.963-18.318-36.436-26.751l-13.161-20.661l-39.221-61.572c-0.002-0.003-0.005-0.006-0.008-0.011L59.053,99.751    c-2.812-4.417-1.507-10.299,2.906-13.111c4.42-2.814,10.301-1.509,13.114,2.907l57.542,90.333    c2.401,3.771,7.406,4.878,11.173,2.478c3.77-2.401,4.878-7.404,2.478-11.173L88.724,80.851    c-7.609-11.943-23.514-15.468-35.461-7.863c-11.942,7.611-15.468,23.517-7.861,35.458l56.937,89.381L90.814,216.45    c-44.412-32.86-66.946-49.751-67.312-50.027c-2.023-1.516-4.638-2.001-7.07-1.31c-2.432,0.693-4.402,2.481-5.323,4.835    C10.657,171.109,0,198.707,0,230.358c0,0.044,0.009,0.087,0.009,0.132c0.002,0.161,0.022,0.322,0.033,0.482    c0.017,0.229,0.036,0.455,0.072,0.68c0.025,0.158,0.064,0.312,0.098,0.468c0.051,0.228,0.107,0.452,0.176,0.673    c0.022,0.068,0.03,0.138,0.054,0.206c0.343,0.996,34.347,100.733,34.347,201.932c0,4.471,3.622,8.093,8.093,8.093h28.925    c4.038,0,7.458-2.977,8.016-6.977l8.282-59.49c0.615-4.427-2.473-8.516-6.901-9.132c-4.42-0.619-8.516,2.473-9.132,6.901    l-7.31,52.513H50.908c-1.239-75.037-19.281-146.27-29.044-179.58c14.669,8.396,37.208,21.836,62.49,38.825l-8.734,62.745    c-0.615,4.426,2.473,8.516,6.901,9.132c4.422,0.616,8.515-2.472,9.132-6.901l7.62-54.743    c23.933,16.753,49.317,36.223,72.204,57.264c35.205,32.366,77.128,65.257,130.428,80.574c0.221,0.064,0.444,0.129,0.665,0.193    c1.539,0.437,3.089,0.855,4.646,1.261c0.692,0.181,1.382,0.364,2.074,0.538c1.306,0.328,2.619,0.644,3.938,0.951    c0.978,0.228,1.956,0.449,2.936,0.664c0.497,0.109,0.998,0.211,1.498,0.317c1.803,0.382,3.609,0.745,5.42,1.081    c0.39,0.072,0.781,0.142,1.172,0.214c1.923,0.347,3.85,0.67,5.783,0.968c0.401,0.062,0.803,0.125,1.205,0.185    c1.865,0.276,3.734,0.528,5.608,0.758c0.496,0.062,0.99,0.127,1.487,0.185c0.985,0.114,1.971,0.22,2.96,0.322    c0.96,0.099,1.925,0.19,2.892,0.277c1.102,0.099,2.206,0.192,3.312,0.275c1.233,0.094,2.472,0.178,3.716,0.253    c0.598,0.036,1.195,0.073,1.794,0.105c1.745,0.091,3.503,0.161,5.269,0.214c0.418,0.012,0.835,0.022,1.253,0.031    c1.913,0.046,3.834,0.079,5.772,0.079c0,0,0.006,0,0.014,0c39.638,0,82.204-10.129,126.513-30.103    c0.035-0.016,0.068-0.031,0.104-0.047c0.378-0.177,0.779-0.356,1.202-0.537c0.059-0.025,0.117-0.051,0.176-0.077    c0.929-0.423,1.867-0.861,2.805-1.298l0.721-0.336c0.091-0.042,0.181-0.086,0.271-0.133c2.706-1.387,5.049-2.915,7.025-4.581    c4.346-3.664,6.914-7.992,7.657-12.929c0.1-0.661,0.162-1.313,0.191-1.954C512.228,385.546,510.033,380.862,507.94,377.68z     M111.995,212.985l0.526,0.826l22.406,35.174l-31.047-22.886L111.995,212.985z M190.969,349.393    c-2.892-2.573-5.737-5.151-8.539-7.727c-26.796-24.638-56.902-47.149-84.279-65.778c-0.174-0.141-0.341-0.289-0.529-0.417    c-37.372-25.406-69.869-43.635-81.345-49.896c0.588-15.732,3.93-30.206,6.57-39.434c11.295,8.427,33.127,24.68,65.409,48.548    c0.004,0.003,0.009,0.008,0.013,0.011l0.485,0.357c27.311,20.193,62.07,45.813,104.186,76.708c1.664,1.22,3.339,2.449,5.026,3.687    c1.448,1.062,2.895,2.1,4.341,3.125c0.316,0.223,0.632,0.442,0.948,0.665c1.212,0.851,2.424,1.691,3.634,2.516    c0.226,0.153,0.45,0.305,0.675,0.459c4.726,3.204,9.445,6.211,14.153,9.015C205.49,333.655,196.22,341.085,190.969,349.393z     M495.784,390.592c-0.259,1.613-2.472,3.639-5.932,5.432l-0.585,0.273c-0.859,0.401-1.717,0.802-2.569,1.189    c-0.55,0.236-1.072,0.471-1.566,0.7c-42.189,19.011-82.5,28.65-119.82,28.65h-0.014c-2.092,0-4.165-0.037-6.224-0.095    c-0.226-0.006-0.452-0.01-0.678-0.017c-1.902-0.06-3.789-0.15-5.663-0.258c-0.409-0.024-0.818-0.046-1.225-0.072    c-1.732-0.11-3.451-0.242-5.158-0.392c-0.575-0.051-1.148-0.106-1.721-0.161c-1.53-0.147-3.052-0.306-4.563-0.484    c-0.816-0.097-1.626-0.203-2.438-0.309c-0.816-0.106-1.627-0.218-2.438-0.332c-1.75-0.249-3.492-0.516-5.219-0.806    c-0.181-0.03-0.363-0.059-0.543-0.091c-49.808-8.504-90.102-33.892-124.149-62.12c-0.363-0.302-0.728-0.604-1.089-0.905    c-0.261-0.218-0.52-0.435-0.78-0.653c2.825-5.777,9.959-13.562,30.137-13.562c10.785,0,21.908,2.256,29.507,4.204    c18.386,6.413,36.534,9.648,54.331,9.648c46.093,0,76.14-21.607,86.523-30.467c6.528,2.509,12.814,5.239,18.835,8.111    c32.51,15.512,57.269,35.199,70.501,46.957C494.232,386.078,496.082,388.722,495.784,390.592z"/>
	</g>
</g>
<g>
</g>
<g>
</g>
<g>
</g>
<g>
</g>
<g>
</g>
<g>
</g>
<g>
</g>
<g>
</g>
<g>
</g>
<g>
</g>
<g>
</g>
<g>
</g>
<g>
</g>
<g>
</g>
<g>
</g>
</svg>
