<?xml version="1.0" encoding="iso-8859-1"?>
<!-- Generator: Adobe Illustrator 19.0.0, SVG Export Plug-In . SVG Version: 6.00 Build 0)  -->
<svg xmlns="http://www.w3.org/2000/svg" xmlns:xlink="http://www.w3.org/1999/xlink" version="1.1" id="Layer_1" x="0px" y="0px" viewBox="0 0 512 512" style="enable-background:new 0 0 512 512;" xml:space="preserve">
<g>
	<g>
		<path d="M510.575,137.068c-0.173-0.252-17.532-25.479-37.682-50.368c-37.931-46.854-53.048-52.863-61.98-52.863h-49.509    c-0.043,0-0.086,0.006-0.13,0.006c-0.202,0.003-0.402,0.014-0.601,0.032c-0.067,0.006-0.135,0.01-0.202,0.017    c-0.265,0.03-0.526,0.071-0.784,0.128c-0.003,0.001-0.005,0.001-0.009,0.001c-0.264,0.057-0.523,0.13-0.777,0.213    c-0.076,0.025-0.15,0.055-0.225,0.082c-0.167,0.059-0.331,0.122-0.493,0.193c-0.106,0.047-0.21,0.096-0.315,0.146    c-0.124,0.061-0.247,0.124-0.368,0.191c-0.116,0.064-0.23,0.128-0.343,0.197c-0.102,0.063-0.2,0.131-0.299,0.199    c-0.272,0.185-0.535,0.385-0.785,0.603c-0.031,0.027-0.066,0.052-0.096,0.08c-0.105,0.095-0.204,0.198-0.305,0.298    c-0.085,0.086-0.172,0.172-0.254,0.262c-0.039,0.042-0.082,0.08-0.12,0.123c-0.052,0.06-0.095,0.124-0.145,0.186    c-0.085,0.104-0.169,0.21-0.25,0.319c-0.075,0.099-0.148,0.199-0.217,0.303c-0.091,0.135-0.175,0.275-0.258,0.415    c-0.049,0.083-0.102,0.164-0.148,0.249c-0.123,0.226-0.236,0.458-0.337,0.697c-0.027,0.065-0.049,0.132-0.075,0.197    c-0.071,0.181-0.139,0.363-0.198,0.551c-0.03,0.097-0.055,0.197-0.082,0.295c-0.028,0.103-0.062,0.202-0.085,0.306    c-0.146,0.631-15.485,63.15-97.503,63.15c-34.314,0-61.104-10.557-79.627-31.378c-13.918-15.646-17.843-31.641-17.874-31.772    c-0.026-0.11-0.061-0.216-0.09-0.325c-0.025-0.09-0.047-0.178-0.075-0.267c-0.067-0.215-0.143-0.425-0.227-0.631    c-0.015-0.038-0.027-0.076-0.042-0.114c-0.106-0.251-0.224-0.493-0.352-0.729c-0.027-0.049-0.057-0.095-0.084-0.143    c-0.105-0.183-0.215-0.361-0.332-0.533c-0.05-0.073-0.103-0.144-0.155-0.215c-0.106-0.145-0.216-0.286-0.332-0.424    c-0.037-0.044-0.068-0.092-0.106-0.136c-0.027-0.03-0.057-0.057-0.085-0.088c-0.119-0.132-0.244-0.257-0.371-0.382    c-0.066-0.065-0.129-0.132-0.197-0.193c-0.182-0.164-0.371-0.321-0.566-0.469c-0.096-0.072-0.197-0.137-0.296-0.205    c-0.114-0.078-0.227-0.156-0.344-0.228c-0.112-0.069-0.228-0.134-0.344-0.197c-0.112-0.062-0.226-0.121-0.341-0.177    c-0.119-0.058-0.238-0.115-0.359-0.168c-0.123-0.053-0.25-0.101-0.376-0.147c-0.117-0.043-0.231-0.09-0.35-0.128    c-0.231-0.075-0.467-0.139-0.707-0.194c-0.101-0.023-0.203-0.036-0.305-0.054c-0.16-0.029-0.319-0.058-0.481-0.078    c-0.114-0.014-0.228-0.022-0.342-0.03c-0.158-0.013-0.317-0.022-0.477-0.026c-0.055-0.001-0.109-0.009-0.165-0.009h-49.512    c-8.931,0-24.049,6.009-61.98,52.863C18.956,111.59,1.598,136.818,1.425,137.07c-2.437,3.549-1.676,8.383,1.734,11.011    l71.49,55.106c-11.912,49.186,8.487,111.824,18.098,137.121c19.51,51.345,0.679,124.13-0.21,127.487    c-0.018,0.071-0.031,0.118-0.034,0.123c-0.06,0.224-0.102,0.45-0.143,0.676c-0.015,0.082-0.039,0.163-0.052,0.244    c-0.045,0.296-0.071,0.594-0.083,0.89c0,0.012-0.003,0.025-0.003,0.037c-0.009,0.256,0.001,0.51,0.016,0.765    c0.003,0.053-0.001,0.107,0.003,0.161c0.071,0.906,0.297,1.795,0.665,2.629c0.007,0.015,0.011,0.03,0.017,0.045    c0.253,0.565,0.573,1.106,0.957,1.609c1.281,1.678,3.157,2.764,5.212,3.081c0.405,0.063,0.816,0.106,1.232,0.106h311.349    c2.528,0,4.912-1.18,6.446-3.188c1.105-1.449,1.669-3.21,1.653-4.995c-0.001-0.07,0.006-0.141,0.004-0.211    c-0.004-0.118-0.023-0.235-0.032-0.352c-0.039-0.501-0.112-1.001-0.246-1.495c-0.005-0.022-0.117-0.434-0.308-1.187    c-0.018-0.071-0.036-0.139-0.055-0.217c-0.011-0.041-0.022-0.084-0.032-0.128c-2.728-10.902-18.182-77.837,0.151-126.082    c6.854-18.041,12.211-36.114,15.923-53.721c0.924-4.382-1.879-8.683-6.262-9.607c-4.383-0.921-8.681,1.88-9.607,6.262    c-3.539,16.786-8.658,34.048-15.214,51.305c-11.945,31.435-11.123,68.836-7.8,96.728H201.541c-4.478,0-8.108,3.629-8.108,8.108    s3.63,8.108,8.108,8.108h197.095c0.954,5.642,1.927,10.546,2.772,14.454H110.593c0.845-3.907,1.818-8.812,2.772-14.454h60.066    c4.478,0,8.108-3.629,8.108-8.108s-3.63-8.108-8.108-8.108h-57.726c3.322-27.892,4.146-65.292-7.799-96.728    C89.842,287,83.296,241.196,89.809,209.797l1.044-4.527c0.254-0.975,0.52-1.937,0.802-2.88c0.191-0.639,0.278-1.289,0.308-1.935    l9.817-42.561c1.007-4.363-1.715-8.717-6.079-9.724c-4.363-1.008-8.717,1.715-9.724,6.078l-7.284,31.579l-59.497-45.863    c6.328-8.919,18.752-26.065,32.513-43.064c36.864-45.532,48.204-46.846,49.375-46.846h40.593    c-0.001,0.009-0.001,0.019-0.002,0.028c-0.044,0.63-0.086,1.296-0.129,1.981c-0.009,0.147-0.017,0.292-0.027,0.442    c-0.04,0.69-0.079,1.402-0.116,2.143c-0.006,0.125-0.012,0.254-0.017,0.381c-0.034,0.699-0.065,1.418-0.093,2.16    c-0.004,0.115-0.01,0.225-0.014,0.341c-0.03,0.804-0.055,1.635-0.078,2.484c-0.005,0.181-0.01,0.362-0.014,0.545    c-0.022,0.872-0.04,1.762-0.052,2.68c-0.001,0.077-0.001,0.157-0.002,0.235c-0.011,0.869-0.016,1.761-0.018,2.667    c0,0.18-0.001,0.356-0.001,0.536c0,0.948,0.007,1.916,0.018,2.902c0.002,0.197,0.005,0.395,0.009,0.592    c0.014,0.995,0.034,2.003,0.062,3.034c0.001,0.042,0.002,0.083,0.003,0.125c0.029,1.052,0.068,2.125,0.111,3.211    c0.009,0.222,0.018,0.443,0.028,0.667c0.047,1.076,0.101,2.163,0.164,3.268c0.01,0.174,0.022,0.351,0.032,0.526    c0.062,1.045,0.132,2.103,0.21,3.172c0.011,0.15,0.021,0.297,0.031,0.448c0.085,1.142,0.183,2.297,0.288,3.463    c0.022,0.243,0.044,0.487,0.067,0.73c0.11,1.183,0.229,2.373,0.361,3.577c0.012,0.108,0.025,0.217,0.038,0.326    c0.127,1.141,0.266,2.291,0.414,3.448c0.028,0.219,0.055,0.437,0.083,0.657c0.158,1.207,0.328,2.422,0.51,3.645    c0.036,0.243,0.073,0.487,0.111,0.73c0.189,1.243,0.388,2.492,0.604,3.749c0.004,0.027,0.009,0.053,0.013,0.079    c0.218,1.27,0.456,2.548,0.703,3.829c0.05,0.256,0.098,0.511,0.149,0.768c0.248,1.255,0.508,2.515,0.784,3.777    c0.045,0.21,0.094,0.419,0.142,0.629c0.265,1.19,0.543,2.384,0.835,3.579c0.04,0.162,0.077,0.323,0.117,0.485    c0.315,1.273,0.649,2.547,0.995,3.822c0.073,0.27,0.148,0.541,0.223,0.811c0.357,1.284,0.725,2.57,1.116,3.853    c0.039,0.13,0.081,0.258,0.121,0.387c0.371,1.209,0.759,2.415,1.161,3.621c0.077,0.23,0.151,0.461,0.229,0.69    c0.427,1.261,0.874,2.518,1.337,3.772c0.095,0.256,0.192,0.512,0.289,0.769c0.481,1.281,0.976,2.558,1.497,3.829    c0.006,0.016,0.012,0.031,0.018,0.048c0.523,1.277,1.075,2.547,1.64,3.812c0.115,0.257,0.228,0.514,0.345,0.77    c0.559,1.231,1.137,2.456,1.737,3.674c0.105,0.212,0.213,0.423,0.319,0.635c0.573,1.146,1.164,2.287,1.775,3.417    c0.081,0.149,0.158,0.299,0.239,0.449c0.657,1.204,1.341,2.397,2.042,3.581c0.15,0.254,0.303,0.508,0.455,0.761    c0.714,1.184,1.444,2.36,2.204,3.521c0.088,0.133,0.178,0.264,0.266,0.397c0.717,1.084,1.455,2.157,2.214,3.219    c0.145,0.203,0.288,0.409,0.435,0.611c0.809,1.117,1.644,2.219,2.502,3.308c0.178,0.226,0.36,0.451,0.539,0.676    c0.896,1.119,1.809,2.227,2.758,3.314c0.614,0.703,1.236,1.395,1.866,2.076c1.89,2.043,3.85,3.988,5.881,5.836    c1.354,1.231,2.74,2.421,4.156,3.566c18.415,14.883,42.097,22.41,70.635,22.41c35.122,0,62.891-11.401,82.537-33.887    c0.949-1.087,1.862-2.195,2.758-3.313c0.181-0.226,0.363-0.451,0.542-0.678c0.857-1.089,1.692-2.19,2.501-3.307    c0.147-0.203,0.289-0.408,0.435-0.611c0.758-1.061,1.496-2.132,2.211-3.215c0.089-0.134,0.182-0.267,0.269-0.402    c0.759-1.16,1.49-2.335,2.203-3.518c0.154-0.254,0.305-0.508,0.456-0.763c0.701-1.184,1.384-2.375,2.041-3.579    c0.082-0.151,0.161-0.304,0.243-0.456c0.609-1.128,1.198-2.264,1.77-3.407c0.107-0.214,0.217-0.428,0.323-0.643    c0.599-1.215,1.175-2.438,1.734-3.666c0.118-0.261,0.235-0.521,0.35-0.783c0.563-1.263,1.114-2.529,1.636-3.803    c0.008-0.019,0.015-0.039,0.023-0.057c0.519-1.267,1.012-2.541,1.492-3.817c0.097-0.258,0.196-0.517,0.291-0.775    c0.463-1.252,0.908-2.508,1.335-3.766c0.079-0.234,0.155-0.466,0.232-0.699c0.4-1.198,0.786-2.398,1.155-3.599    c0.042-0.136,0.086-0.272,0.128-0.409c0.389-1.281,0.758-2.562,1.112-3.843c0.076-0.274,0.151-0.547,0.226-0.821    c0.346-1.272,0.679-2.544,0.994-3.814c0.041-0.165,0.079-0.33,0.119-0.495c0.291-1.19,0.566-2.378,0.831-3.564    c0.048-0.213,0.097-0.427,0.144-0.64c0.276-1.26,0.535-2.514,0.782-3.766c0.052-0.262,0.102-0.523,0.152-0.785    c0.247-1.277,0.483-2.55,0.701-3.816c0.005-0.032,0.011-0.065,0.016-0.097c0.215-1.252,0.413-2.496,0.602-3.735    c0.037-0.243,0.075-0.488,0.111-0.73c0.182-1.222,0.352-2.437,0.51-3.643c0.029-0.222,0.056-0.44,0.084-0.661    c0.148-1.16,0.288-2.313,0.414-3.455c0.012-0.104,0.025-0.209,0.036-0.311c0.133-1.209,0.252-2.403,0.363-3.59    c0.023-0.239,0.044-0.477,0.066-0.715c0.106-1.17,0.203-2.33,0.289-3.476c0.011-0.143,0.019-0.282,0.03-0.424    c0.079-1.084,0.15-2.156,0.213-3.215c0.01-0.163,0.021-0.328,0.03-0.49c0.064-1.116,0.118-2.215,0.165-3.302    c0.009-0.209,0.017-0.414,0.026-0.622c0.045-1.099,0.084-2.187,0.114-3.253c0-0.014,0.001-0.028,0.001-0.042    c0.029-1.067,0.049-2.11,0.064-3.14c0.002-0.174,0.005-0.348,0.008-0.521c0.012-1.008,0.018-1.996,0.019-2.964    c0-0.149-0.001-0.294-0.001-0.442c-0.001-0.963-0.008-1.91-0.019-2.831c0-0.031,0-0.065-0.001-0.096    c-0.013-0.951-0.031-1.872-0.054-2.776c-0.003-0.142-0.007-0.283-0.011-0.424c-0.024-0.892-0.051-1.761-0.082-2.602    c-0.002-0.046-0.003-0.091-0.005-0.137c-0.032-0.851-0.068-1.674-0.106-2.468c-0.002-0.047-0.004-0.093-0.006-0.139    c-0.039-0.805-0.082-1.577-0.125-2.323c-0.004-0.072-0.009-0.142-0.013-0.213c-0.044-0.742-0.091-1.459-0.137-2.137h40.592    c1.171,0,12.501,1.313,49.32,46.779c13.774,17.008,26.229,34.197,32.568,43.133l-59.496,45.862l-7.282-31.578    c-1.009-4.365-5.364-7.087-9.724-6.078c-4.363,1.007-7.086,5.359-6.079,9.724l9.817,42.564c0.031,0.645,0.118,1.293,0.308,1.932    c0.269,0.901,0.525,1.815,0.77,2.742l1.257,5.452c2.621,13.021,3.039,28.367,1.229,45.767c-0.464,4.454,2.772,8.441,7.226,8.904    c4.466,0.462,8.441-2.773,8.904-7.226c1.987-19.096,1.472-36.138-1.506-50.836c-0.012-0.054-0.016-0.109-0.029-0.163l-0.024-0.105    c-0.258-1.262-0.53-2.513-0.825-3.74l71.494-55.109C512.25,145.451,513.012,140.616,510.575,137.068z M354.439,74.826    c-0.017,0.478-0.037,0.959-0.057,1.444c-0.013,0.303-0.027,0.607-0.041,0.911c-0.023,0.488-0.048,0.978-0.075,1.473    c-0.016,0.295-0.031,0.59-0.049,0.888c-0.031,0.548-0.066,1.102-0.103,1.656c-0.016,0.249-0.03,0.495-0.048,0.745    c-0.054,0.799-0.114,1.603-0.177,2.415c-0.012,0.151-0.026,0.306-0.039,0.458c-0.054,0.667-0.111,1.337-0.173,2.012    c-0.027,0.296-0.056,0.596-0.085,0.894c-0.051,0.537-0.104,1.076-0.159,1.617c-0.035,0.335-0.07,0.671-0.107,1.008    c-0.056,0.518-0.115,1.039-0.174,1.561c-0.04,0.343-0.08,0.684-0.121,1.028c-0.065,0.535-0.133,1.074-0.203,1.613    c-0.042,0.33-0.084,0.658-0.129,0.988c-0.084,0.626-0.173,1.255-0.264,1.885c-0.035,0.242-0.067,0.482-0.103,0.725    c-0.128,0.859-0.262,1.722-0.402,2.589c-0.043,0.265-0.09,0.531-0.134,0.797c-0.103,0.615-0.207,1.231-0.317,1.849    c-0.062,0.345-0.125,0.691-0.189,1.037c-0.099,0.544-0.201,1.088-0.307,1.633c-0.07,0.366-0.144,0.733-0.217,1.101    c-0.107,0.537-0.218,1.076-0.332,1.615c-0.076,0.361-0.151,0.723-0.23,1.085c-0.124,0.573-0.254,1.147-0.385,1.722    c-0.074,0.324-0.146,0.648-0.222,0.972c-0.181,0.771-0.369,1.542-0.561,2.313c-0.034,0.133-0.065,0.267-0.098,0.4    c-0.222,0.877-0.454,1.755-0.692,2.631c-0.084,0.308-0.173,0.616-0.258,0.925c-0.164,0.589-0.331,1.178-0.503,1.767    c-0.104,0.355-0.211,0.709-0.318,1.065c-0.164,0.547-0.332,1.094-0.504,1.64c-0.114,0.363-0.229,0.725-0.346,1.088    c-0.177,0.55-0.36,1.098-0.545,1.647c-0.117,0.347-0.234,0.694-0.354,1.041c-0.211,0.609-0.429,1.216-0.65,1.823    c-0.102,0.279-0.199,0.559-0.303,0.838c-0.324,0.876-0.658,1.748-1.003,2.619c-0.071,0.181-0.148,0.359-0.221,0.539    c-0.279,0.695-0.563,1.388-0.855,2.079c-0.132,0.312-0.27,0.623-0.405,0.934c-0.242,0.559-0.488,1.117-0.74,1.673    c-0.154,0.339-0.31,0.677-0.467,1.015c-0.248,0.532-0.498,1.062-0.755,1.589c-0.162,0.335-0.325,0.67-0.491,1.004    c-0.271,0.547-0.55,1.091-0.831,1.634c-0.157,0.303-0.311,0.607-0.471,0.908c-0.349,0.657-0.707,1.309-1.07,1.959    c-0.101,0.18-0.196,0.361-0.297,0.539c-0.466,0.822-0.945,1.638-1.435,2.447c-0.137,0.227-0.281,0.45-0.421,0.676    c-0.36,0.585-0.724,1.167-1.098,1.744c-0.189,0.293-0.384,0.582-0.576,0.872c-0.336,0.508-0.677,1.013-1.024,1.515    c-0.21,0.304-0.423,0.605-0.637,0.907c-0.349,0.491-0.704,0.978-1.063,1.463c-0.215,0.291-0.43,0.581-0.649,0.869    c-0.394,0.517-0.796,1.027-1.2,1.536c-0.192,0.242-0.382,0.487-0.577,0.727c-0.605,0.743-1.221,1.478-1.853,2.202    c-16.433,18.802-40.095,28.336-70.327,28.336c-3.776,0-7.45-0.149-11.02-0.445c-24.99-2.079-44.892-11.421-59.266-27.85    c-0.631-0.721-1.245-1.455-1.85-2.196c-0.196-0.24-0.386-0.485-0.578-0.728c-0.405-0.507-0.807-1.017-1.199-1.533    c-0.218-0.286-0.431-0.575-0.645-0.864c-0.359-0.484-0.715-0.971-1.064-1.463c-0.214-0.301-0.426-0.602-0.636-0.905    c-0.346-0.501-0.687-1.004-1.023-1.511c-0.194-0.291-0.388-0.582-0.578-0.875c-0.372-0.574-0.734-1.155-1.093-1.736    c-0.139-0.226-0.284-0.45-0.422-0.678c-0.49-0.808-0.968-1.623-1.434-2.443c-0.103-0.181-0.2-0.364-0.301-0.546    c-0.361-0.647-0.718-1.295-1.065-1.948c-0.161-0.303-0.317-0.609-0.475-0.912c-0.28-0.541-0.558-1.082-0.829-1.627    c-0.167-0.334-0.33-0.67-0.493-1.007c-0.255-0.525-0.505-1.054-0.751-1.583c-0.158-0.339-0.316-0.678-0.469-1.018    c-0.251-0.552-0.494-1.108-0.736-1.664c-0.136-0.313-0.275-0.627-0.409-0.942c-0.292-0.69-0.575-1.382-0.854-2.076    c-0.072-0.181-0.148-0.359-0.219-0.538c-0.345-0.868-0.678-1.741-1.002-2.615c-0.105-0.282-0.204-0.566-0.307-0.85    c-0.219-0.603-0.436-1.208-0.645-1.813c-0.12-0.348-0.237-0.696-0.355-1.044c-0.184-0.546-0.365-1.093-0.543-1.64    c-0.118-0.364-0.234-0.729-0.348-1.094c-0.171-0.545-0.338-1.09-0.503-1.636c-0.107-0.356-0.215-0.711-0.319-1.067    c-0.172-0.587-0.337-1.175-0.502-1.763c-0.086-0.309-0.175-0.618-0.259-0.928c-0.24-0.881-0.472-1.763-0.696-2.644    c-0.036-0.142-0.069-0.284-0.104-0.426c-0.189-0.757-0.374-1.514-0.551-2.27c-0.078-0.333-0.152-0.666-0.228-0.999    c-0.129-0.565-0.256-1.13-0.379-1.694c-0.08-0.368-0.157-0.735-0.235-1.103c-0.112-0.534-0.222-1.067-0.329-1.599    c-0.075-0.372-0.148-0.743-0.219-1.114c-0.105-0.541-0.205-1.081-0.305-1.621c-0.065-0.35-0.13-0.701-0.192-1.05    c-0.109-0.612-0.212-1.222-0.314-1.831c-0.045-0.271-0.094-0.544-0.137-0.815c-0.141-0.864-0.275-1.725-0.402-2.583    c-0.038-0.254-0.071-0.506-0.108-0.759c-0.09-0.621-0.177-1.24-0.261-1.856c-0.045-0.334-0.088-0.666-0.13-0.999    c-0.069-0.535-0.137-1.07-0.202-1.602c-0.042-0.348-0.083-0.695-0.123-1.042c-0.061-0.518-0.118-1.034-0.174-1.547    c-0.037-0.341-0.073-0.681-0.109-1.021c-0.055-0.538-0.108-1.073-0.159-1.607c-0.029-0.303-0.059-0.608-0.086-0.909    c-0.063-0.685-0.121-1.365-0.176-2.042c-0.012-0.139-0.025-0.282-0.036-0.422c-0.065-0.812-0.124-1.617-0.179-2.416    c-0.018-0.264-0.034-0.523-0.051-0.786c-0.036-0.542-0.07-1.082-0.101-1.616c-0.017-0.304-0.034-0.603-0.05-0.905    c-0.027-0.492-0.052-0.981-0.075-1.466c-0.014-0.306-0.028-0.611-0.042-0.915c-0.022-0.484-0.04-0.964-0.058-1.442    c-0.006-0.181-0.013-0.361-0.019-0.542c1.817,2.528,3.84,5.1,6.087,7.671c14.95,17.103,43.105,37.492,92.34,37.492    c49.236,0,77.39-20.388,92.34-37.492c2.26-2.585,4.29-5.17,6.115-7.711C354.452,74.469,354.446,74.648,354.439,74.826z"/>
	</g>
</g>
<g>
</g>
<g>
</g>
<g>
</g>
<g>
</g>
<g>
</g>
<g>
</g>
<g>
</g>
<g>
</g>
<g>
</g>
<g>
</g>
<g>
</g>
<g>
</g>
<g>
</g>
<g>
</g>
<g>
</g>
</svg>
