<?xml version="1.0" encoding="iso-8859-1"?>
<!-- Generator: Adobe Illustrator 19.0.0, SVG Export Plug-In . SVG Version: 6.00 Build 0)  -->
<svg version="1.1" id="Capa_1" xmlns="http://www.w3.org/2000/svg" xmlns:xlink="http://www.w3.org/1999/xlink" x="0px" y="0px"
	 viewBox="0 0 470 470" style="enable-background:new 0 0 470 470;" xml:space="preserve">
<g>
	<path d="M340.477,155.286c-13.273-5.498-27.23-8.286-41.482-8.286c-20.212,0-40.065,5.717-57.176,16.288
		c-3.18-32.589-17.41-62.813-40.868-86.27c-2.929-2.928-7.678-2.929-10.606,0.001c-2.929,2.929-2.929,7.678,0,10.606
		c20.396,20.396,32.986,46.514,36.281,74.732C209.871,152.39,190.61,147,171.005,147c-14.252,0-28.209,2.788-41.482,8.286
		c-53.7,22.243-80.303,82.454-60.565,137.075c6.481,17.938,68.588,138.123,71.231,143.235C151.181,456.817,172.88,470,196.82,470
		c8.38,0,16.584-1.639,24.385-4.869c4.941-2.047,9.56-4.672,13.794-7.836c4.234,3.164,8.853,5.789,13.793,7.835
		c7.801,3.231,16.005,4.87,24.386,4.87c23.941,0,45.645-13.187,56.637-34.414c2.641-5.107,64.744-125.284,71.225-143.221
		C420.782,237.742,394.179,177.529,340.477,155.286z M386.934,287.268c-4.922,13.621-48.23,98.468-70.44,141.425
		c-8.403,16.228-25,26.308-43.315,26.308c-6.4,0-12.673-1.254-18.646-3.728c-5.359-2.22-10.219-5.325-14.444-9.229
		c-1.437-1.327-3.263-1.991-5.09-1.991c-1.826,0-3.653,0.664-5.09,1.991c-4.226,3.904-9.085,7.01-14.444,9.229
		C209.494,453.746,203.22,455,196.82,455c-18.313,0-34.909-10.078-43.31-26.297c-22.213-42.964-65.523-127.816-70.446-141.439
		c-17.008-47.066,5.92-98.95,52.198-118.12c11.444-4.74,23.47-7.144,35.742-7.144c21.508,0,42.551,7.506,59.254,21.134
		c0.343,0.273,0.68,0.501,1.033,0.702c0.027,0.016,0.052,0.033,0.079,0.048c0.335,0.186,0.688,0.341,1.051,0.474
		c0.057,0.021,0.113,0.043,0.17,0.063c0.348,0.118,0.706,0.211,1.075,0.277c0.066,0.012,0.132,0.02,0.198,0.03
		c0.367,0.056,0.739,0.093,1.121,0.094c0.411-0.001,0.784-0.038,1.15-0.094c0.066-0.011,0.132-0.019,0.198-0.03
		c0.369-0.066,0.727-0.159,1.075-0.277c0.057-0.02,0.113-0.041,0.17-0.063c0.364-0.133,0.716-0.288,1.051-0.474
		c0.027-0.015,0.052-0.032,0.079-0.048c0.353-0.201,0.69-0.429,1.004-0.683C256.444,169.506,277.487,162,298.995,162
		c12.272,0,24.298,2.403,35.742,7.144C381.016,188.313,403.944,240.199,386.934,287.268z"/>
	<circle cx="119" cy="234" r="7.5"/>
	<circle cx="149" cy="204" r="7.5"/>
	<circle cx="301.001" cy="377" r="7.5"/>
	<path d="M247.212,118.208c0.008,0.026,0.015,0.053,0.023,0.079c0.013,0.041,0.032,0.078,0.045,0.118
		c0.072,0.214,0.152,0.425,0.243,0.633c0.032,0.072,0.065,0.143,0.099,0.213c0.088,0.186,0.185,0.367,0.289,0.546
		c0.041,0.07,0.081,0.141,0.124,0.209c0.111,0.177,0.232,0.348,0.359,0.517c0.044,0.059,0.084,0.119,0.129,0.176
		c0.172,0.216,0.355,0.425,0.554,0.624c0.207,0.207,0.416,0.39,0.632,0.563c0.058,0.046,0.121,0.088,0.181,0.133
		c0.167,0.125,0.336,0.245,0.511,0.354c0.07,0.044,0.143,0.085,0.215,0.127c0.176,0.103,0.356,0.198,0.538,0.285
		c0.073,0.035,0.145,0.069,0.219,0.102c0.206,0.091,0.415,0.17,0.627,0.241c0.041,0.014,0.08,0.033,0.122,0.047
		c0.026,0.008,0.052,0.015,0.078,0.023c0.034,0.01,0.069,0.021,0.104,0.03c8.84,2.777,18.032,4.19,27.325,4.19
		c24.252,0,47.052-9.442,64.195-26.586c24.024-24.023,32.594-59.079,22.394-91.525c-0.009-0.033-0.019-0.065-0.029-0.098
		c-0.008-0.026-0.015-0.053-0.023-0.079c-0.013-0.04-0.032-0.077-0.045-0.117c-0.072-0.215-0.153-0.427-0.244-0.635
		c-0.031-0.071-0.064-0.141-0.098-0.211c-0.089-0.186-0.186-0.368-0.291-0.548c-0.041-0.069-0.08-0.14-0.123-0.207
		c-0.112-0.178-0.233-0.351-0.361-0.521c-0.043-0.057-0.082-0.116-0.127-0.172c-0.173-0.218-0.358-0.429-0.559-0.63
		c-0.201-0.201-0.412-0.385-0.629-0.559c-0.056-0.045-0.116-0.084-0.173-0.127c-0.169-0.128-0.341-0.249-0.519-0.36
		c-0.069-0.044-0.14-0.083-0.21-0.124c-0.178-0.104-0.358-0.2-0.542-0.288c-0.072-0.034-0.144-0.068-0.218-0.101
		c-0.205-0.09-0.413-0.169-0.624-0.24c-0.043-0.014-0.082-0.034-0.125-0.048c-0.027-0.009-0.054-0.016-0.08-0.023
		c-0.033-0.01-0.065-0.02-0.098-0.029C352.26,1.412,343.067,0,333.773,0c-24.253,0-47.051,9.441-64.195,26.586
		c-24.024,24.024-32.595,59.079-22.395,91.524C247.193,118.144,247.203,118.176,247.212,118.208z M280.185,37.192
		C294.496,22.881,313.527,15,333.773,15c3.465,0,6.911,0.241,10.322,0.707l-32.091,32.092c-2.929,2.93-2.929,7.678,0,10.607
		c1.464,1.464,3.384,2.196,5.303,2.196s3.839-0.732,5.303-2.196l32.103-32.104c3.225,23.304-4.497,46.923-21.496,63.922
		c-14.312,14.312-33.343,22.193-53.588,22.193c-3.465,0-6.911-0.242-10.323-0.707l32.092-32.092c2.929-2.93,2.929-7.678,0-10.607
		c-2.928-2.928-7.677-2.928-10.606,0l-32.103,32.104C255.463,77.812,263.185,54.192,280.185,37.192z"/>
</g>
<g>
</g>
<g>
</g>
<g>
</g>
<g>
</g>
<g>
</g>
<g>
</g>
<g>
</g>
<g>
</g>
<g>
</g>
<g>
</g>
<g>
</g>
<g>
</g>
<g>
</g>
<g>
</g>
<g>
</g>
</svg>
