<?xml version="1.0" encoding="iso-8859-1"?>
<!-- Generator: Adobe Illustrator 19.0.0, SVG Export Plug-In . SVG Version: 6.00 Build 0)  -->
<svg version="1.1" id="Capa_1" xmlns="http://www.w3.org/2000/svg" xmlns:xlink="http://www.w3.org/1999/xlink" x="0px" y="0px"
	 viewBox="0 0 470 470" style="enable-background:new 0 0 470 470;" xml:space="preserve">
<g>
	<path d="M149,440h122.01c4.142,0,7.499-3.356,7.5-7.498l0.01-28.946c0.001-4.142-3.355-7.501-7.497-7.502
		c-4.144,0-7.502,3.356-7.503,7.498L263.513,425H156.5v-21.489c0-4.142-3.358-7.5-7.5-7.5s-7.5,3.358-7.5,7.5V432.5
		C141.5,436.642,144.858,440,149,440z"/>
	<path d="M237.5,175.5c0-15.164-12.336-27.5-27.5-27.5s-27.5,12.336-27.5,27.5S194.836,203,210,203S237.5,190.664,237.5,175.5z
		 M210,188c-6.893,0-12.5-5.607-12.5-12.5S203.107,163,210,163s12.5,5.607,12.5,12.5S216.893,188,210,188z"/>
	<path d="M405.375,145.375c-8.251,0-15.736,3.336-21.182,8.728C373.605,67.388,299.529,0,210,0C113.229,0,34.5,78.729,34.5,175.5
		S113.229,351,210,351c89.529,0,163.605-67.388,174.193-154.103c5.446,5.392,12.931,8.728,21.182,8.728
		c4.801,0,9.339-1.134,13.371-3.14c-9.195,70.555-53.98,132.854-119.394,163.579L119.002,366c-1.991,0-3.898,0.79-5.305,2.196
		c-1.407,1.406-2.198,3.315-2.198,5.304v89c0,4.142,3.358,7.5,7.5,7.5h182c4.142,0,7.499-3.356,7.5-7.498l0.028-84.196
		c36.745-17.874,67.919-45.326,90.361-79.644C422.84,262.037,435.5,219.448,435.5,175.5
		C435.5,158.889,421.986,145.375,405.375,145.375z M293.503,455H126.5v-73.997l167.026,0.059L293.503,455z M210,336
		c-88.5,0-160.5-72-160.5-160.5S121.5,15,210,15s160.5,72,160.5,160.5S298.5,336,210,336z M405.375,190.625
		c-8.34,0-15.125-6.785-15.125-15.125s6.785-15.125,15.125-15.125S420.5,167.16,420.5,175.5S413.715,190.625,405.375,190.625z"/>
	<path d="M210,40c-74.715,0-135.5,60.785-135.5,135.5c0,68.718,51.428,126.568,119.626,134.565c0.297,0.035,0.591,0.052,0.883,0.052
		c3.751,0,6.992-2.81,7.439-6.627c0.483-4.114-2.461-7.84-6.575-8.323C135.23,288.056,89.5,236.61,89.5,175.5
		C89.5,109.056,143.556,55,210,55c66.444,0,120.5,54.056,120.5,120.5c0,27.337-8.967,53.129-25.931,74.589
		c-2.568,3.25-2.017,7.966,1.232,10.535c3.249,2.569,7.966,2.017,10.535-1.232c19.078-24.135,29.163-53.144,29.163-83.891
		C345.5,100.785,284.715,40,210,40z"/>
	<path d="M284.589,270.07c-17.498,13.833-38.406,22.511-60.462,25.098c-4.114,0.482-7.058,4.208-6.575,8.323
		c0.447,3.817,3.688,6.627,7.439,6.627c0.292,0,0.586-0.017,0.883-0.052c24.818-2.91,48.338-12.672,68.018-28.229
		c3.249-2.569,3.801-7.285,1.232-10.535S287.838,267.501,284.589,270.07z"/>
</g>
<g>
</g>
<g>
</g>
<g>
</g>
<g>
</g>
<g>
</g>
<g>
</g>
<g>
</g>
<g>
</g>
<g>
</g>
<g>
</g>
<g>
</g>
<g>
</g>
<g>
</g>
<g>
</g>
<g>
</g>
</svg>
