<?xml version="1.0" encoding="iso-8859-1"?>
<!-- Generator: Adobe Illustrator 19.0.0, SVG Export Plug-In . SVG Version: 6.00 Build 0)  -->
<svg version="1.1" id="Capa_1" xmlns="http://www.w3.org/2000/svg" xmlns:xlink="http://www.w3.org/1999/xlink" x="0px" y="0px"
	 viewBox="0 0 469.73 469.73" style="enable-background:new 0 0 469.73 469.73;" xml:space="preserve">
<g>
	<path d="M432.365,65.865h-395C16.762,65.865,0,82.718,0,103.432c0,18.068,12.843,33.187,29.865,36.675v49.258
		c0,4.142,3.358,7.5,7.5,7.5h12.5v69.5c0,12.406,10.093,22.5,22.5,22.5h325c12.407,0,22.5-10.094,22.5-22.5v-69.5h12.5
		c4.142,0,7.5-3.358,7.5-7.5v-49.258c17.021-3.488,29.865-18.607,29.865-36.675C469.73,82.718,452.968,65.865,432.365,65.865z
		 M404.865,266.365c0,4.135-3.364,7.5-7.5,7.5h-325c-4.136,0-7.5-3.365-7.5-7.5v-69.5h340V266.365z M432.365,125.865h-275
		c-4.142,0-7.5,3.358-7.5,7.5s3.358,7.5,7.5,7.5h267.5v41h-380v-48.5c0-4.142-3.358-7.5-7.5-7.5
		C25.033,125.865,15,115.802,15,103.432c0-12.444,10.033-22.567,22.365-22.567h395c12.332,0,22.365,10.124,22.365,22.567
		C454.73,115.802,444.697,125.865,432.365,125.865z"/>
	<path d="M127.365,125.865h-60c-4.142,0-7.5,3.358-7.5,7.5s3.358,7.5,7.5,7.5h60c4.142,0,7.5-3.358,7.5-7.5
		S131.507,125.865,127.365,125.865z"/>
	<path d="M412.365,333.865h-355c-4.142,0-7.5,3.358-7.5,7.5v55c0,4.142,3.358,7.5,7.5,7.5h355c4.142,0,7.5-3.358,7.5-7.5v-55
		C419.865,337.223,416.507,333.865,412.365,333.865z M404.865,388.865h-340v-40h340V388.865z"/>
	<circle cx="340.67" cy="245.365" r="7.5"/>
	<circle cx="370.67" cy="225.365" r="7.5"/>
</g>
<g>
</g>
<g>
</g>
<g>
</g>
<g>
</g>
<g>
</g>
<g>
</g>
<g>
</g>
<g>
</g>
<g>
</g>
<g>
</g>
<g>
</g>
<g>
</g>
<g>
</g>
<g>
</g>
<g>
</g>
</svg>
