<?xml version="1.0" encoding="iso-8859-1"?>
<!-- Generator: Adobe Illustrator 19.0.0, SVG Export Plug-In . SVG Version: 6.00 Build 0)  -->
<svg version="1.1" id="Capa_1" xmlns="http://www.w3.org/2000/svg" xmlns:xlink="http://www.w3.org/1999/xlink" x="0px" y="0px"
	 viewBox="0 0 470 470" style="enable-background:new 0 0 470 470;" xml:space="preserve">
<g>
	<path d="M443.631,134.172c-4.142,0-7.5,3.358-7.5,7.5v52.5h-15V117.5c0-26.192-21.309-47.5-47.5-47.5H237.274
		c-4.142,0-7.5,3.358-7.5,7.5s3.358,7.5,7.5,7.5h136.357c17.92,0,32.5,14.579,32.5,32.5v76.672h-25V117.5c0-4.142-3.358-7.5-7.5-7.5
		H214.774V7.5c0-4.142-3.358-7.5-7.5-7.5h-55.453c-4.142,0-7.5,3.358-7.5,7.5V110H96.369c-4.142,0-7.5,3.358-7.5,7.5v76.672h-25
		V117.5c0-17.921,14.58-32.5,32.5-32.5h25.452c4.142,0,7.5-3.358,7.5-7.5s-3.358-7.5-7.5-7.5H96.369
		c-26.191,0-47.5,21.308-47.5,47.5v76.672h-15v-52.5c0-4.142-3.358-7.5-7.5-7.5s-7.5,3.358-7.5,7.5V462.5c0,4.142,3.358,7.5,7.5,7.5
		s7.5-3.358,7.5-7.5V209.172h402.262V462.5c0,4.142,3.358,7.5,7.5,7.5s7.5-3.358,7.5-7.5V141.672
		C451.131,137.53,447.773,134.172,443.631,134.172z M366.131,194.172H325.36V125h40.771V194.172z M310.36,194.172h-40.24V125h40.24
		V194.172z M255.12,125v69.172h-40.346V125H255.12z M199.774,15v179.172h-40.453v-74.517c0.205-0.683,0.318-1.405,0.318-2.155
		s-0.113-1.472-0.318-2.155V15H199.774z M103.869,125h40.452v69.172h-40.452V125z"/>
	<path d="M333.631,264.172H136.369c-26.191,0-47.5,21.308-47.5,47.5V362.5c0,26.192,21.309,47.5,47.5,47.5h197.262
		c26.191,0,47.5-21.308,47.5-47.5v-50.828C381.131,285.48,359.822,264.172,333.631,264.172z M366.131,362.5
		c0,17.921-14.58,32.5-32.5,32.5h-8.271v-93.328c0-4.142-3.358-7.5-7.5-7.5s-7.5,3.358-7.5,7.5V395h-40.24v-93.328
		c0-4.142-3.358-7.5-7.5-7.5s-7.5,3.358-7.5,7.5V395h-40.346v-93.328c0-4.142-3.358-7.5-7.5-7.5s-7.5,3.358-7.5,7.5V395h-40.453
		v-93.328c0-4.142-3.358-7.5-7.5-7.5s-7.5,3.358-7.5,7.5V395h-7.952c-17.92,0-32.5-14.579-32.5-32.5v-50.828
		c0-17.921,14.58-32.5,32.5-32.5h197.262c17.92,0,32.5,14.579,32.5,32.5V362.5z"/>
</g>
<g>
</g>
<g>
</g>
<g>
</g>
<g>
</g>
<g>
</g>
<g>
</g>
<g>
</g>
<g>
</g>
<g>
</g>
<g>
</g>
<g>
</g>
<g>
</g>
<g>
</g>
<g>
</g>
<g>
</g>
</svg>
