<?xml version="1.0" encoding="iso-8859-1"?>
<!-- Generator: Adobe Illustrator 19.0.0, SVG Export Plug-In . SVG Version: 6.00 Build 0)  -->
<svg version="1.1" id="Capa_1" xmlns="http://www.w3.org/2000/svg" xmlns:xlink="http://www.w3.org/1999/xlink" x="0px" y="0px"
	 viewBox="0 0 470 470" style="enable-background:new 0 0 470 470;" xml:space="preserve">
<path d="M346.5,415h-6.426l-5.639-21.113c-3.14-11.754-13.733-21.361-25.627-24.101l-14.079-122.871
	c8.347-3.292,14.271-11.432,14.271-20.935c0-9.777-6.271-18.114-15-21.21v-33.39l5.697-53.197
	c0.797-7.434-1.423-14.485-6.249-19.856C288.622,92.958,281.847,90,274.37,90H257.5v-7.5c0-4.136,3.364-7.5,7.5-7.5h15
	c4.143,0,7.5-3.358,7.5-7.5v-30c0-4.142-3.357-7.5-7.5-7.5h-15c-4.136,0-7.5-3.364-7.5-7.5v-15c0-4.142-3.357-7.5-7.5-7.5h-30
	c-4.143,0-7.5,3.358-7.5,7.5v15c0,4.136-3.364,7.5-7.5,7.5h-15c-4.143,0-7.5,3.358-7.5,7.5v30c0,4.142,3.357,7.5,7.5,7.5h15
	c4.136,0,7.5,3.364,7.5,7.5V90h-16.87c-7.476,0-14.251,2.958-19.077,8.328s-7.046,12.422-6.25,19.857L176,171.382v33.39
	c-8.729,3.096-15,11.433-15,21.21c0,9.503,5.925,17.642,14.271,20.935l-14.078,122.871c-11.894,2.739-22.488,12.347-25.627,24.101
	L129.927,415H123.5c-4.143,0-7.5,3.358-7.5,7.5v40c0,4.142,3.357,7.5,7.5,7.5h223c4.143,0,7.5-3.358,7.5-7.5v-40
	C354,418.358,350.643,415,346.5,415z M279.81,248.481L293.62,369H176.381l13.809-120.519H279.81z M205,60h-7.5V45h7.5
	c12.406,0,22.5-10.093,22.5-22.5V15h15v7.5c0,12.407,10.094,22.5,22.5,22.5h7.5v15H265c-12.406,0-22.5,10.093-22.5,22.5V90h-15v-7.5
	C227.5,70.093,217.406,60,205,60z M187.71,108.354c1.943-2.163,4.756-3.354,7.92-3.354h78.74c3.164,0,5.978,1.191,7.921,3.355
	c1.944,2.163,2.829,5.086,2.492,8.232l-5.022,46.894H213.5c-4.143,0-7.5,3.358-7.5,7.5s3.357,7.5,7.5,7.5H279v25h-88v-32.5
	c0-0.267-0.015-0.533-0.043-0.799l-5.74-53.595C184.88,113.441,185.766,110.518,187.71,108.354z M183.5,218.481h103
	c4.136,0,7.5,3.364,7.5,7.5s-3.364,7.5-7.5,7.5H183.59c-0.01,0-0.09,0-0.09,0c-4.136,0-7.5-3.364-7.5-7.5
	S179.364,218.481,183.5,218.481z M339,455H131v-25h143.314c4.143,0,7.5-3.358,7.5-7.5s-3.357-7.5-7.5-7.5H145.453l4.605-17.242
	c1.958-7.329,10.329-13.758,17.915-13.758c0.02,0,134.035,0,134.035,0c7.606,0,15.977,6.429,17.935,13.758L324.548,415h-20.234
	c-4.143,0-7.5,3.358-7.5,7.5s3.357,7.5,7.5,7.5h29.972c0.053,0,4.714,0,4.714,0V455z"/>
<g>
</g>
<g>
</g>
<g>
</g>
<g>
</g>
<g>
</g>
<g>
</g>
<g>
</g>
<g>
</g>
<g>
</g>
<g>
</g>
<g>
</g>
<g>
</g>
<g>
</g>
<g>
</g>
<g>
</g>
</svg>
