<?xml version="1.0" encoding="iso-8859-1"?>
<!-- Generator: Adobe Illustrator 19.0.0, SVG Export Plug-In . SVG Version: 6.00 Build 0)  -->
<svg version="1.1" id="Capa_1" xmlns="http://www.w3.org/2000/svg" xmlns:xlink="http://www.w3.org/1999/xlink" x="0px" y="0px"
	 viewBox="0 0 470 470" style="enable-background:new 0 0 470 470;" xml:space="preserve">
<g>
	<path d="M402.5,60h-13.646l-8.956-53.733C379.295,2.65,376.167,0,372.5,0h-275c-3.667,0-6.795,2.65-7.398,6.267L81.146,60H67.5
		c-4.142,0-7.5,3.357-7.5,7.5v40c0,4.143,3.358,7.5,7.5,7.5h335c4.142,0,7.5-3.357,7.5-7.5v-40C410,63.357,406.642,60,402.5,60z
		 M395,100H75V75h42.5c4.142,0,7.5-3.357,7.5-7.5s-3.358-7.5-7.5-7.5H96.354l7.5-45h262.293l7.5,45H147.5
		c-4.142,0-7.5,3.357-7.5,7.5s3.358,7.5,7.5,7.5h234.969C382.502,75,395,75,395,75V100z"/>
	<path d="M387.993,180h-2.065l2.371-42.078c0.233-4.136-2.931-7.677-7.066-7.91c-4.132-0.235-7.677,2.931-7.91,7.066L370.904,180
		H99.096l-2.418-42.922c-0.233-4.136-3.774-7.298-7.91-7.066c-4.136,0.233-7.299,3.774-7.066,7.91L84.072,180h-2.065
		c-2.063,0-4.034,0.85-5.45,2.348c-1.417,1.499-2.154,3.515-2.038,5.574l11.549,205c0.224,3.972,3.51,7.078,7.488,7.078h2.911
		l3.545,62.922c0.224,3.972,3.51,7.078,7.488,7.078h255c3.978,0,7.264-3.106,7.488-7.078L373.533,400h2.91
		c3.978,0,7.264-3.106,7.488-7.078l11.549-205c0.116-2.06-0.621-4.075-2.038-5.574C392.027,180.85,390.056,180,387.993,180z
		 M355.411,455H114.589l-3.099-55h247.019L355.411,455z M369.354,385H100.646L89.941,195h290.117L369.354,385z"/>
	<circle cx="320.317" cy="308.573" r="7.5"/>
	<circle cx="290.317" cy="328.573" r="7.5"/>
</g>
<g>
</g>
<g>
</g>
<g>
</g>
<g>
</g>
<g>
</g>
<g>
</g>
<g>
</g>
<g>
</g>
<g>
</g>
<g>
</g>
<g>
</g>
<g>
</g>
<g>
</g>
<g>
</g>
<g>
</g>
</svg>
