<?xml version="1.0" encoding="iso-8859-1"?>
<!-- Generator: Adobe Illustrator 19.0.0, SVG Export Plug-In . SVG Version: 6.00 Build 0)  -->
<svg version="1.1" id="Capa_1" xmlns="http://www.w3.org/2000/svg" xmlns:xlink="http://www.w3.org/1999/xlink" x="0px" y="0px"
	 viewBox="0 0 470.001 470.001" style="enable-background:new 0 0 470.001 470.001;" xml:space="preserve">
<g>
	<path d="M374.285,202.703c-4.135,0-7.5,3.365-7.5,7.5s3.365,7.5,7.5,7.5s7.5-3.365,7.5-7.5S378.42,202.703,374.285,202.703z"/>
	<path d="M447.437,455h-4.574l-7.072-21.474c-5.431-16.494-21.724-29.862-39.007-32.967V246.234c11.999-7.52,20-20.855,20-36.031
		c0-23.435-19.065-42.5-42.5-42.5c-3.294,0-6.498,0.389-9.579,1.102L230.222,34.321c6.801-4.694,14.849-7.229,23.29-7.229
		c10.985,0,21.312,4.278,29.08,12.045c8.986,8.986,13.268,21.386,11.75,34.021c-0.495,4.113,2.438,7.847,6.551,8.342
		c0.304,0.037,0.605,0.054,0.904,0.054c3.742,0,6.979-2.797,7.437-6.606c2.072-17.236-3.772-34.155-16.036-46.418
		c-10.6-10.601-24.694-16.438-39.686-16.438c-12.461,0-24.294,4.045-34.024,11.495l-21.39-21.39C196.692,0.79,194.784,0,192.795,0
		s-3.897,0.79-5.303,2.197l-40.554,40.554c-33.731-14.181-71.775-11.7-103.053,5.486c-0.529,0.213-1.036,0.496-1.515,0.834
		C33.319,54.218,24.855,60.605,17.26,68.2c-2.929,2.929-2.929,7.678,0,10.606l156.897,156.897c1.464,1.464,3.384,2.197,5.303,2.197
		s3.839-0.732,5.303-2.197c7.585-7.585,13.965-16.036,19.108-25.073c0.353-0.494,0.644-1.018,0.862-1.566
		c17.179-31.276,19.657-69.312,5.478-103.038l35.25-35.25l104.561,104.561c-4.13,2.882-7.724,6.477-10.606,10.606l-88.644-88.644
		c-2.929-2.929-7.678-2.929-10.606,0c-2.929,2.929-2.929,7.677,0,10.606l92.718,92.718c-0.713,3.081-1.102,6.284-1.102,9.579
		c0,15.176,8.001,28.511,20,36.031v131.143c0,4.142,3.358,7.5,7.5,7.5s7.5-3.358,7.5-7.5v-125.35c2.437,0.436,4.94,0.676,7.5,0.676
		s5.063-0.24,7.5-0.676v147.85H277.91v-22.5c0-4.142-3.358-7.5-7.5-7.5h-30c-4.142,0-7.5,3.358-7.5,7.5v22.5h-22.5
		c-19.865,0-40.294,14.78-46.507,33.649L156.831,455h-4.574c-4.142,0-7.5,3.358-7.5,7.5s3.358,7.5,7.5,7.5h9.859
		c0.018,0,0.036,0,0.053,0l275.236,0c0.061,0,10.032,0,10.032,0c4.142,0,7.5-3.358,7.5-7.5S451.579,455,447.437,455z
		 M179.268,219.601L33.363,73.696c3.863-3.338,7.935-6.355,12.176-9.045L188.31,207.431
		C185.621,211.67,182.605,215.74,179.268,219.601z M195.957,99.07c-2.243,2.243-2.832,5.654-1.473,8.519
		c13.101,27.605,13.012,59.031,1.188,85.991L59.39,57.289c26.959-11.821,58.383-11.909,85.986,1.191
		c2.865,1.36,6.275,0.771,8.519-1.472l38.9-38.9l42.063,42.062L195.957,99.07z M346.785,210.203c0-15.164,12.336-27.5,27.5-27.5
		s27.5,12.336,27.5,27.5s-12.336,27.5-27.5,27.5S346.785,225.366,346.785,210.203z M247.91,384.877h15v15h-15V384.877z
		 M178.149,438.218c4.167-12.652,18.94-23.341,32.26-23.341h178.875c13.32,0,28.094,10.689,32.26,23.341L427.071,455l-254.449,0
		L178.149,438.218z"/>
</g>
<g>
</g>
<g>
</g>
<g>
</g>
<g>
</g>
<g>
</g>
<g>
</g>
<g>
</g>
<g>
</g>
<g>
</g>
<g>
</g>
<g>
</g>
<g>
</g>
<g>
</g>
<g>
</g>
<g>
</g>
</svg>
