<?xml version="1.0" encoding="iso-8859-1"?>
<!-- Generator: Adobe Illustrator 19.0.0, SVG Export Plug-In . SVG Version: 6.00 Build 0)  -->
<svg version="1.1" id="Capa_1" xmlns="http://www.w3.org/2000/svg" xmlns:xlink="http://www.w3.org/1999/xlink" x="0px" y="0px"
	 viewBox="0 0 470 470" style="enable-background:new 0 0 470 470;" xml:space="preserve">
<path d="M421.777,261.707c0-13.106-9.01-24.147-21.162-27.255c-2.406-28.889-12.738-153.057-16.343-197.647
	C382.631,16.511,364.761,0,344.437,0h-155.38c-20.324,0-38.194,16.511-39.835,36.805c-0.971,12.005-2.42,29.672-4.068,49.66
	c-0.34,4.128,2.73,7.75,6.858,8.091c4.124,0.341,7.75-2.73,8.091-6.858c1.649-19.997,3.099-37.673,4.07-49.684
	C165.181,25.539,176.577,15,189.057,15h155.38c12.48,0,23.875,10.539,24.884,23.014c3.525,43.591,13.473,163.177,16.17,195.563
	H148.003c0.902-10.836,2.623-31.514,4.646-55.874c0.343-4.128-2.726-7.752-6.854-8.095c-4.125-0.335-7.752,2.726-8.095,6.854
	c-2.164,26.053-3.982,47.901-4.822,57.992c-9.741,2.494-17.455,10.088-20.133,19.754H98.053c-12.407,0-22.5-10.094-22.5-22.5
	v-77.125h223.496c4.142,0,7.5-3.358,7.5-7.5v-30c0-4.142-3.358-7.5-7.5-7.5H55.723c-4.142,0-7.5,3.358-7.5,7.5v30
	c0,4.142,3.358,7.5,7.5,7.5h4.831v77.125c0,20.677,16.822,37.5,37.5,37.5h14.692c2.629,9.491,10.116,16.978,19.607,19.607v173.684
	c0,4.142,3.358,7.5,7.5,7.5s7.5-3.358,7.5-7.5v-132.66h16.644l4.942,19.767c2.836,11.346,14.219,20.233,25.914,20.233h143.795
	c11.695,0,23.078-8.887,25.914-20.233l4.942-19.767h16.644V462.5c0,4.142,3.358,7.5,7.5,7.5s7.5-3.358,7.5-7.5V288.814
	C413.027,285.523,421.777,274.621,421.777,261.707z M63.223,124.582h228.326v15H63.223V124.582z M183.49,345.966l-4.032-16.129
	h47.493v25h-32.098C190.066,354.837,184.651,350.609,183.49,345.966z M291.549,329.837v25H241.95v-25H291.549z M350.009,345.966
	c-1.161,4.643-6.577,8.871-11.362,8.871h-32.098v-25h47.493L350.009,345.966z M147.352,314.837v-25h238.795v25H147.352z
	 M393.647,274.837H139.852c-7.24,0-13.13-5.89-13.13-13.13c0-7.24,5.889-13.129,13.129-13.13c0.02,0,252.857,0,252.857,0
	c0.306,0.038,0.616,0.065,0.931,0.065c0.208,0,0.419-0.009,0.631-0.026c6.971,0.343,12.508,6.075,12.508,13.091
	C406.777,268.947,400.887,274.837,393.647,274.837z"/>
<g>
</g>
<g>
</g>
<g>
</g>
<g>
</g>
<g>
</g>
<g>
</g>
<g>
</g>
<g>
</g>
<g>
</g>
<g>
</g>
<g>
</g>
<g>
</g>
<g>
</g>
<g>
</g>
<g>
</g>
</svg>
