<?xml version="1.0" encoding="iso-8859-1"?>
<!-- Generator: Adobe Illustrator 19.0.0, SVG Export Plug-In . SVG Version: 6.00 Build 0)  -->
<svg version="1.1" id="Capa_1" xmlns="http://www.w3.org/2000/svg" xmlns:xlink="http://www.w3.org/1999/xlink" x="0px" y="0px"
	 viewBox="0 0 465 465" style="enable-background:new 0 0 465 465;" xml:space="preserve">
<g>
	<path d="M457.5,44.474H7.5c-4.142,0-7.5,3.358-7.5,7.5v361.051c0,4.142,3.358,7.5,7.5,7.5h450c4.142,0,7.5-3.358,7.5-7.5V51.974
		C465,47.832,461.642,44.474,457.5,44.474z M450,405.526H15V59.474h435V405.526z"/>
	<path d="M37.5,353.284c16.399,0,29.742,13.342,29.742,29.742c0,4.142,3.358,7.5,7.5,7.5h315.517c4.142,0,7.5-3.358,7.5-7.5
		c0-16.399,13.342-29.742,29.742-29.742c4.142,0,7.5-3.358,7.5-7.5V119.217c0-4.142-3.358-7.5-7.5-7.5
		c-16.399,0-29.742-13.342-29.742-29.742c0-4.142-3.358-7.5-7.5-7.5h-42.661c-4.142,0-7.5,3.358-7.5,7.5s3.358,7.5,7.5,7.5h35.79
		c3.165,18.673,17.94,33.449,36.613,36.614v212.825c-18.673,3.165-33.448,17.94-36.613,36.613H81.613
		c-3.165-18.673-17.94-33.448-36.613-36.613V126.088c18.673-3.165,33.448-17.94,36.613-36.614h235.984c4.142,0,7.5-3.358,7.5-7.5
		s-3.358-7.5-7.5-7.5H74.742c-4.142,0-7.5,3.358-7.5,7.5c0,16.4-13.342,29.742-29.742,29.742c-4.142,0-7.5,3.358-7.5,7.5v226.568
		C30,349.927,33.358,353.284,37.5,353.284z"/>
	<path d="M162.495,170.527c2.235,0,4.447-0.995,5.925-2.896l17.416-22.39l17.416,22.39c1.421,1.827,3.606,2.895,5.92,2.895
		c2.314,0,4.5-1.069,5.92-2.896l17.413-22.388l17.411,22.388c1.421,1.827,3.606,2.896,5.92,2.896s4.5-1.069,5.92-2.896
		l17.412-22.388l17.411,22.388c2.543,3.269,7.253,3.857,10.525,1.316c3.27-2.543,3.859-7.255,1.316-10.525l-23.332-30
		c-1.421-1.827-3.606-2.896-5.92-2.896s-4.5,1.069-5.92,2.896l-17.412,22.388l-17.411-22.388c-1.421-1.827-3.606-2.896-5.92-2.896
		s-4.5,1.069-5.92,2.896l-17.413,22.389l-17.416-22.389c-1.421-1.827-3.605-2.895-5.92-2.895s-4.499,1.068-5.92,2.895l-23.336,30
		c-2.543,3.27-1.955,7.981,1.315,10.525C159.264,170.01,160.885,170.527,162.495,170.527z"/>
	<path d="M347.597,225.526H117.403c-4.142,0-7.5,3.358-7.5,7.5s3.358,7.5,7.5,7.5h230.194c4.142,0,7.5-3.358,7.5-7.5
		S351.739,225.526,347.597,225.526z"/>
	<path d="M385.097,203.026c0-4.142-3.358-7.5-7.5-7.5H87.403c-4.142,0-7.5,3.358-7.5,7.5s3.358,7.5,7.5,7.5h290.194
		C381.739,210.526,385.097,207.168,385.097,203.026z"/>
	<path d="M195,303.026c0,20.678,16.822,37.5,37.5,37.5s37.5-16.822,37.5-37.5s-16.822-37.5-37.5-37.5S195,282.348,195,303.026z
		 M255,303.026c0,12.407-10.093,22.5-22.5,22.5s-22.5-10.093-22.5-22.5s10.093-22.5,22.5-22.5S255,290.619,255,303.026z"/>
	<path d="M117.403,295.526c-4.142,0-7.5,3.358-7.5,7.5s3.358,7.5,7.5,7.5H172.5c4.142,0,7.5-3.358,7.5-7.5s-3.358-7.5-7.5-7.5
		H117.403z"/>
	<path d="M347.597,295.526L292.5,295.53c-4.142,0-7.5,3.358-7.5,7.5s3.358,7.5,7.5,7.5l55.097-0.003c4.142,0,7.5-3.358,7.5-7.5
		S351.739,295.526,347.597,295.526z"/>
</g>
<g>
</g>
<g>
</g>
<g>
</g>
<g>
</g>
<g>
</g>
<g>
</g>
<g>
</g>
<g>
</g>
<g>
</g>
<g>
</g>
<g>
</g>
<g>
</g>
<g>
</g>
<g>
</g>
<g>
</g>
</svg>
