<?xml version="1.0" encoding="iso-8859-1"?>
<!-- Generator: Adobe Illustrator 19.0.0, SVG Export Plug-In . SVG Version: 6.00 Build 0)  -->
<svg version="1.1" id="Capa_1" xmlns="http://www.w3.org/2000/svg" xmlns:xlink="http://www.w3.org/1999/xlink" x="0px" y="0px"
	 viewBox="0 0 470 470" style="enable-background:new 0 0 470 470;" xml:space="preserve">
<g>
	<path d="M370.322,425h-3.636c-3.689-28.172-27.833-50-56.995-50h-50.96v-38.915c42.357-1.709,84.226-17.902,117.469-48.574
		l1.885,1.885c1.464,1.464,3.384,2.197,5.303,2.197s3.839-0.732,5.303-2.197c2.929-2.929,2.929-7.678,0-10.606l-24.904-24.904
		c24.458-26.978,39.379-62.753,39.379-101.95C403.167,68.158,335.009,0,251.231,0c-39.196,0-74.972,14.921-101.95,39.38
		l-17.828-17.828c-0.01-0.01-7.076-7.076-7.076-7.076c-2.929-2.929-7.678-2.929-10.606,0c-2.929,2.929-2.929,7.678,0,10.606
		l1.882,1.882c-31.533,34.143-48.82,78.226-48.82,124.971c0,49.254,19.181,95.561,54.009,130.389
		c34.044,34.044,78.199,51.958,122.889,53.76V375h-50.96c-29.162,0-53.306,21.828-56.995,50h-3.635c-12.407,0-22.5,10.093-22.5,22.5
		s10.093,22.5,22.5,22.5h238.182c12.407,0,22.5-10.093,22.5-22.5S382.729,425,370.322,425z M388.167,151.936
		c0,75.506-61.429,136.936-136.936,136.936c-75.507,0-136.936-61.429-136.936-136.936C114.295,76.429,175.725,15,251.231,15
		C326.738,15,388.167,76.429,388.167,151.936z M81.833,151.936c0-42.739,15.728-83.056,44.433-114.358l12.409,12.409
		c-24.458,26.978-39.38,62.753-39.38,101.95c0,83.777,68.158,151.936,151.936,151.936c39.196,0,74.972-14.921,101.95-39.379
		l12.406,12.406c-66.382,60.811-169.866,59.091-234.138-5.179C99.454,239.723,81.833,197.184,81.833,151.936z M370.322,455H132.14
		c-4.136,0-7.5-3.364-7.5-7.5s3.364-7.5,7.5-7.5h40.63c4.142,0,7.5-3.358,7.5-7.5s-3.358-7.5-7.5-7.5h-21.824
		c3.554-19.868,20.949-35,41.824-35h116.921c20.875,0,38.27,15.132,41.824,35H202.771c-4.142,0-7.5,3.358-7.5,7.5s3.358,7.5,7.5,7.5
		h167.552c4.135,0,7.5,3.364,7.5,7.5S374.458,455,370.322,455z"/>
	<path d="M213.287,124.598c-13.545,11.377-29.141,19.99-45.853,25.417c-7.603-12.396-13.546-24.847-17.531-36.908
		c-1.3-3.933-5.541-6.067-9.474-4.769c-3.933,1.299-6.068,5.541-4.769,9.474c3.92,11.866,9.563,24.043,16.68,36.17
		c-5.107,1.034-10.287,1.783-15.517,2.226c-4.127,0.35-7.19,3.979-6.84,8.106c0.331,3.912,3.609,6.868,7.465,6.868
		c0.212,0,0.426-0.009,0.641-0.027c7.711-0.653,15.325-1.898,22.78-3.701c9.559,14.061,21.012,27.871,33.993,40.852
		c12.383,12.383,25.527,23.382,38.926,32.671c-2.122,7.738-3.643,15.657-4.508,23.685c-0.444,4.118,2.534,7.817,6.652,8.261
		c0.273,0.03,0.544,0.044,0.813,0.044c3.781,0,7.033-2.852,7.448-6.696c0.612-5.679,1.565-11.258,2.839-16.724
		c12.706,7.645,25.491,13.684,37.936,17.833c0.787,0.262,1.586,0.387,2.373,0.387c3.14,0,6.066-1.988,7.114-5.13
		c1.31-3.929-0.814-8.177-4.744-9.487c-12.516-4.172-25.448-10.451-38.298-18.498c5.904-16.506,14.975-31.691,26.936-44.99
		l48.497,48.497c1.464,1.464,3.384,2.197,5.303,2.197s3.839-0.732,5.303-2.197c2.929-2.929,2.929-7.678,0-10.606l-48.497-48.497
		c13.298-11.96,28.483-21.032,44.989-26.936c8.046,12.85,14.326,25.782,18.498,38.298c1.048,3.143,3.974,5.13,7.114,5.13
		c0.786,0,1.586-0.125,2.373-0.387c3.93-1.31,6.053-5.557,4.744-9.487c-4.148-12.445-10.188-25.23-17.832-37.936
		c5.445-1.27,11.004-2.22,16.661-2.833c4.118-0.446,7.095-4.146,6.649-8.264c-0.446-4.118-4.143-7.094-8.264-6.649
		c-8.004,0.867-15.9,2.385-23.615,4.501c-9.289-13.399-20.288-26.543-32.671-38.926c-11.812-11.812-24.309-22.356-37.056-31.362
		c2.403-7.921,4.17-16.089,5.275-24.454c0.542-4.106-2.348-7.875-6.454-8.417c-4.103-0.542-7.875,2.348-8.417,6.454
		c-0.797,6.034-1.994,11.948-3.543,17.732c-13.526-8.321-27.166-14.829-40.418-19.194c-3.932-1.296-8.174,0.842-9.47,4.777
		c-1.296,3.934,0.843,8.174,4.777,9.47c13.159,4.334,26.781,10.998,40.292,19.611c-6.423,16.284-15.995,31.185-28.372,44.128
		l-48.598-48.598c-2.929-2.93-7.678-2.929-10.606,0c-2.929,2.929-2.929,7.678,0,10.606L213.287,124.598z M238.706,226.098
		c-11.397-8.215-22.596-17.758-33.237-28.399c-11.116-11.116-21.028-22.835-29.481-34.75c17.465-6.202,33.739-15.577,47.937-27.712
		l43.811,43.811C255.234,192.86,245.408,208.856,238.706,226.098z M265.252,78.859c10.877,7.964,21.561,17.134,31.742,27.314
		c10.642,10.642,20.185,21.84,28.399,33.238c-17.242,6.702-33.239,16.528-47.052,29.029l-43.499-43.499
		C247.887,111.361,258.117,95.808,265.252,78.859z"/>
</g>
<g>
</g>
<g>
</g>
<g>
</g>
<g>
</g>
<g>
</g>
<g>
</g>
<g>
</g>
<g>
</g>
<g>
</g>
<g>
</g>
<g>
</g>
<g>
</g>
<g>
</g>
<g>
</g>
<g>
</g>
</svg>
