<?xml version="1.0" encoding="iso-8859-1"?>
<!-- Generator: Adobe Illustrator 19.0.0, SVG Export Plug-In . SVG Version: 6.00 Build 0)  -->
<svg version="1.1" id="Capa_1" xmlns="http://www.w3.org/2000/svg" xmlns:xlink="http://www.w3.org/1999/xlink" x="0px" y="0px"
	 viewBox="0 0 470 470" style="enable-background:new 0 0 470 470;" xml:space="preserve">
<g>
	<circle cx="83.452" cy="327.024" r="7.5"/>
	<circle cx="53.452" cy="297.024" r="7.5"/>
	<path d="M432.5,90h-395C16.822,90,0,106.822,0,127.5v215C0,363.178,16.822,380,37.5,380h395c20.678,0,37.5-16.822,37.5-37.5v-215
		C470,106.822,453.178,90,432.5,90z M455,342.5c0,12.406-10.094,22.5-22.5,22.5h-40.02c4.719-6.271,7.52-14.064,7.52-22.5
		c0-4.143-3.357-7.5-7.5-7.5s-7.5,3.357-7.5,7.5c0,12.406-10.094,22.5-22.5,22.5H240v-52.5c0-4.143-3.357-7.5-7.5-7.5
		s-7.5,3.357-7.5,7.5V365H37.5C25.094,365,15,354.906,15,342.5v-215c0-12.406,10.094-22.5,22.5-22.5H225v177.5
		c0,4.143,3.357,7.5,7.5,7.5s7.5-3.357,7.5-7.5V105h122.5c12.406,0,22.5,10.094,22.5,22.5v185c0,4.143,3.357,7.5,7.5,7.5
		s7.5-3.357,7.5-7.5v-185c0-8.436-2.801-16.229-7.52-22.5h40.02c12.406,0,22.5,10.094,22.5,22.5V342.5z"/>
	<circle cx="183" cy="142.976" r="7.5"/>
</g>
<g>
</g>
<g>
</g>
<g>
</g>
<g>
</g>
<g>
</g>
<g>
</g>
<g>
</g>
<g>
</g>
<g>
</g>
<g>
</g>
<g>
</g>
<g>
</g>
<g>
</g>
<g>
</g>
<g>
</g>
</svg>
