<?xml version="1.0" encoding="iso-8859-1"?>
<!-- Generator: Adobe Illustrator 19.0.0, SVG Export Plug-In . SVG Version: 6.00 Build 0)  -->
<svg version="1.1" id="Capa_1" xmlns="http://www.w3.org/2000/svg" xmlns:xlink="http://www.w3.org/1999/xlink" x="0px" y="0px"
	 viewBox="0 0 470 470" style="enable-background:new 0 0 470 470;" xml:space="preserve">
<g>
	<circle cx="280.47" cy="295.941" r="7.5"/>
	<circle cx="250.47" cy="275.941" r="7.5"/>
	<path d="M467.5,302.025c0-17.85-4.042-27.267-7.608-35.575c-3.43-7.991-6.392-14.892-6.392-29.659
		c0-14.766,2.962-21.667,6.392-29.658c3.566-8.308,7.608-17.724,7.608-35.573c0-4.142-3.357-7.5-7.5-7.5l-102.5-0.001
		c-4.142,0-7.5,3.358-7.5,7.5s3.357,7.5,7.5,7.5l94.707,0.001c-0.828,9.878-3.309,15.657-6.099,22.157
		c-3.566,8.308-7.608,17.725-7.608,35.574c0,17.85,4.042,27.267,7.608,35.575c3.43,7.991,6.392,14.892,6.392,29.659
		c0,14.768-2.962,21.669-6.392,29.661c-3.566,8.309-7.608,17.726-7.608,35.577s4.042,27.268,7.608,35.577
		c2.79,6.501,5.271,12.281,6.099,22.161H303.985c-8.83,0-16.015-7.184-16.015-16.015s7.185-16.015,16.015-16.015
		c17.102,0,31.015-13.913,31.015-31.015V101.015C335,83.913,321.087,70,303.985,70H52.5V43.282c3.146-4.471,5-9.912,5-15.782
		C57.5,12.336,45.163,0,30,0S2.5,12.336,2.5,27.5c0,5.87,1.854,11.311,5,15.782V462.5c0,4.142,3.357,7.5,7.5,7.5s7.5-3.358,7.5-7.5
		V345.941h15V462.5c0,4.142,3.357,7.5,7.5,7.5s7.5-3.358,7.5-7.5V345.941h220.471v63.044c0,17.102,13.913,31.015,31.015,31.015H460
		c4.143,0,7.5-3.358,7.5-7.5c0-17.851-4.042-27.268-7.608-35.577c-3.43-7.991-6.392-14.893-6.392-29.661s2.962-21.669,6.392-29.661
		C463.458,329.293,467.5,319.876,467.5,302.025z M22.5,53.952C24.886,54.629,27.4,55,30,55s5.114-0.371,7.5-1.048V70h-15V53.952z
		 M30,15c6.893,0,12.5,5.607,12.5,12.5S36.893,40,30,40s-12.5-5.607-12.5-12.5S23.107,15,30,15z M22.5,330.941V85h15v245.941H22.5z
		 M52.5,85h15v52.5c0,4.142,3.357,7.5,7.5,7.5s7.5-3.358,7.5-7.5V85h221.485c8.83,0,16.015,7.184,16.015,16.015v234.391
		c-4.678-2.832-10.159-4.465-16.015-4.465H82.5V167.5c0-4.142-3.357-7.5-7.5-7.5s-7.5,3.358-7.5,7.5v163.441h-15V85z
		 M303.985,345.941c8.83,0,16.015,7.184,16.015,16.015s-7.185,16.015-16.015,16.015c-5.856,0-11.337,1.633-16.015,4.465v-36.494
		H303.985z"/>
</g>
<g>
</g>
<g>
</g>
<g>
</g>
<g>
</g>
<g>
</g>
<g>
</g>
<g>
</g>
<g>
</g>
<g>
</g>
<g>
</g>
<g>
</g>
<g>
</g>
<g>
</g>
<g>
</g>
<g>
</g>
</svg>
