<?xml version="1.0" encoding="iso-8859-1"?>
<!-- Generator: Adobe Illustrator 19.0.0, SVG Export Plug-In . SVG Version: 6.00 Build 0)  -->
<svg version="1.1" id="Capa_1" xmlns="http://www.w3.org/2000/svg" xmlns:xlink="http://www.w3.org/1999/xlink" x="0px" y="0px"
	 viewBox="0 0 470 470" style="enable-background:new 0 0 470 470;" xml:space="preserve">
<g>
	<circle cx="68" cy="332" r="7.5"/>
	<circle cx="98" cy="362" r="7.5"/>
	<path d="M467.804,262.196L455,249.393V77.5c0-4.143-3.357-7.5-7.5-7.5H275.608l-12.804-12.804c-2.93-2.928-7.678-2.928-10.607,0
		c-2.929,2.93-2.929,7.678,0,10.607L254.393,70h-38.785l2.196-2.196c2.929-2.93,2.929-7.678,0-10.607
		c-2.93-2.928-7.678-2.928-10.607,0L194.393,70H22.5c-4.143,0-7.5,3.357-7.5,7.5v171.893L2.197,262.196
		c-2.929,2.93-2.929,7.678,0,10.607C3.661,274.268,5.581,275,7.5,275s3.839-0.732,5.304-2.196L15,270.607V407.5
		c0,4.143,3.357,7.5,7.5,7.5h425c4.143,0,7.5-3.357,7.5-7.5V270.607l2.196,2.196c1.465,1.464,3.385,2.196,5.304,2.196
		s3.839-0.732,5.304-2.196C470.733,269.874,470.733,265.126,467.804,262.196z M440,85v149.393L330.608,125H417.5
		c4.143,0,7.5-3.357,7.5-7.5s-3.357-7.5-7.5-7.5H315.608l-25-25H440z M269.393,85l25,25H175.608l25-25H269.393z M30,85h149.393
		l-25,25H52.5c-4.143,0-7.5,3.357-7.5,7.5s3.357,7.5,7.5,7.5h86.893L30,234.393V85z M440,400H30V255.607L160.608,125h148.785
		L440,255.607V400z"/>
</g>
<g>
</g>
<g>
</g>
<g>
</g>
<g>
</g>
<g>
</g>
<g>
</g>
<g>
</g>
<g>
</g>
<g>
</g>
<g>
</g>
<g>
</g>
<g>
</g>
<g>
</g>
<g>
</g>
<g>
</g>
</svg>
