<?xml version="1.0" encoding="iso-8859-1"?>
<!-- Generator: Adobe Illustrator 19.0.0, SVG Export Plug-In . SVG Version: 6.00 Build 0)  -->
<svg version="1.1" id="Capa_1" xmlns="http://www.w3.org/2000/svg" xmlns:xlink="http://www.w3.org/1999/xlink" x="0px" y="0px"
	 viewBox="0 0 470.008 470.008" style="enable-background:new 0 0 470.008 470.008;" xml:space="preserve">
<path d="M458.358,68.214L401.79,11.647c-0.456-0.457-0.923-0.899-1.397-1.331c-0.054-0.049-0.111-0.095-0.165-0.145
	c-0.436-0.393-0.879-0.777-1.33-1.149c-6.481-5.357-14.361-8.511-22.562-8.963c-0.025-0.001-0.05-0.001-0.075-0.002
	c-0.154-0.008-0.308-0.008-0.462-0.014c-0.47-0.019-0.939-0.036-1.405-0.037c-0.017,0-0.035-0.001-0.052-0.001
	c-0.182,0-0.362,0.01-0.544,0.013c-5.988,0.083-11.627,1.641-16.514,4.529c-0.462,0.274-0.894,0.542-1.319,0.822
	c-0.055,0.036-0.108,0.074-0.163,0.111c-0.38,0.254-0.757,0.513-1.127,0.784c-0.115,0.084-0.226,0.172-0.339,0.258
	c-0.311,0.234-0.621,0.469-0.924,0.715c-0.196,0.159-0.386,0.328-0.579,0.492c-0.219,0.187-0.441,0.369-0.656,0.563
	c-0.41,0.37-0.813,0.75-1.205,1.142l-12.157,12.157l-1.768-1.768c-1.406-1.406-3.314-2.196-5.303-2.196s-3.897,0.79-5.303,2.196
	l-65.407,65.408l-1.768-1.768c-1.406-1.406-3.314-2.196-5.303-2.196s-3.897,0.79-5.303,2.196L72.911,259.207
	c-0.007,0.007-70.714,70.714-70.714,70.714C0.79,331.328,0,333.236,0,335.225s0.79,3.896,2.197,5.304l63.637,63.637
	c0.005,0.005,63.642,63.643,63.642,63.643c1.464,1.464,3.384,2.196,5.303,2.196s3.839-0.732,5.303-2.196l246.461-246.461
	c2.929-2.93,2.929-7.678,0-10.607l-1.767-1.768l65.407-65.407c2.929-2.93,2.929-7.678,0-10.607l-1.768-1.768l12.157-12.157
	C473.973,105.633,472.979,82.837,458.358,68.214z M78.21,275.12l21.213,21.213l-19.445,19.445c-2.929,2.93-2.929,7.678,0,10.607
	c1.464,1.464,3.384,2.196,5.303,2.196s3.839-0.732,5.303-2.196l19.445-19.445l21.213,21.213L71.14,388.258l-21.213-21.214
	l19.446-19.445c2.929-2.93,2.929-7.678,0-10.607c-2.929-2.928-7.678-2.928-10.606,0l-19.446,19.446l-21.213-21.213L78.21,275.12z
	 M163.064,359.974l-60.104,60.104l-21.213-21.213l60.104-60.104L163.064,359.974z M134.78,451.898l-21.213-21.213l60.104-60.104
	l21.213,21.213L134.78,451.898z M374.17,198.365l-22.981-22.981c-2.929-2.928-7.678-2.928-10.606,0
	c-2.929,2.93-2.929,7.678,0,10.607l30.052,30.052L205.491,381.187l-58.335-58.334c-0.005-0.005-31.814-31.814-31.814-31.814
	c-0.017-0.017-26.525-26.524-26.525-26.524L253.961,99.369l65.408,65.409c2.928,2.928,7.677,2.928,10.606,0
	c2.929-2.93,2.929-7.678,0-10.607L271.64,95.834l60.104-60.104l1.763,1.763c0.005,0.005,99.001,99.001,99.001,99.001
	c0.005,0.004,1.768,1.768,1.768,1.768L374.17,198.365z M437.81,120.583l-88.389-88.388l12.157-12.157
	c0.049-0.049,0.105-0.091,0.155-0.139c0.374-0.365,0.76-0.714,1.163-1.04c0.248-0.199,0.512-0.375,0.771-0.56
	c0.215-0.154,0.424-0.315,0.646-0.459c0.329-0.212,0.674-0.401,1.018-0.591c0.164-0.09,0.324-0.188,0.492-0.273
	c0.377-0.191,0.767-0.361,1.16-0.525c0.15-0.063,0.297-0.13,0.449-0.189c0.4-0.154,0.811-0.289,1.225-0.415
	c0.162-0.05,0.324-0.102,0.488-0.147c0.402-0.111,0.811-0.203,1.224-0.288c0.199-0.04,0.398-0.081,0.6-0.114
	c0.383-0.065,0.77-0.117,1.161-0.16c0.257-0.027,0.515-0.051,0.776-0.068c0.346-0.024,0.695-0.041,1.046-0.047
	c0.512-0.009,1.026-0.015,1.548,0.015c0.695,0.04,1.348,0.112,1.997,0.207c0.078,0.011,0.157,0.019,0.235,0.031
	c0.575,0.09,1.145,0.212,1.713,0.346c0.178,0.042,0.357,0.081,0.535,0.128c0.49,0.128,0.975,0.28,1.457,0.44
	c0.247,0.083,0.494,0.166,0.739,0.256c0.436,0.161,0.867,0.338,1.294,0.525c0.267,0.117,0.532,0.238,0.795,0.365
	c0.421,0.203,0.839,0.417,1.25,0.646c0.234,0.13,0.465,0.266,0.695,0.403c0.443,0.265,0.882,0.539,1.311,0.834
	c0.162,0.11,0.319,0.228,0.479,0.342c0.485,0.35,0.965,0.71,1.429,1.097c0.072,0.061,0.142,0.125,0.214,0.186
	c0.526,0.449,1.043,0.915,1.538,1.411l56.569,56.567c4.935,4.935,7.408,11.296,7.284,17.262c-0.097,4.64-1.765,9.04-5.068,12.344
	L437.81,120.583z"/>
<g>
</g>
<g>
</g>
<g>
</g>
<g>
</g>
<g>
</g>
<g>
</g>
<g>
</g>
<g>
</g>
<g>
</g>
<g>
</g>
<g>
</g>
<g>
</g>
<g>
</g>
<g>
</g>
<g>
</g>
</svg>
