<?xml version="1.0" encoding="iso-8859-1"?>
<!-- Generator: Adobe Illustrator 19.0.0, SVG Export Plug-In . SVG Version: 6.00 Build 0)  -->
<svg version="1.1" id="Capa_1" xmlns="http://www.w3.org/2000/svg" xmlns:xlink="http://www.w3.org/1999/xlink" x="0px" y="0px"
	 viewBox="0 0 470 470" style="enable-background:new 0 0 470 470;" xml:space="preserve">
<g>
	<path d="M107.5,15h60.021v69.559c-2.525,7.419-3.771,14.829-3.771,22.606c0,39.287,31.962,71.25,71.25,71.25
		c39.287,0,71.25-31.963,71.25-71.25c0-7.778-1.246-15.188-3.771-22.608V15H340v90.674l-7.675,18.53
		c-1.586,3.827,0.231,8.214,4.059,9.799c3.827,1.589,8.214-0.231,9.799-4.059l1.317-3.18l1.317,3.18
		c1.196,2.889,3.988,4.632,6.932,4.632c0.956,0,1.929-0.185,2.867-0.573c3.827-1.585,5.645-5.972,4.059-9.799L355,105.674V15h7.5
		c4.143,0,7.5-3.357,7.5-7.5S366.643,0,362.5,0h-255c-4.142,0-7.5,3.357-7.5,7.5S103.358,15,107.5,15z M235,163.415
		c-31.016,0-56.25-25.233-56.25-56.25c0-5.524,0.8-10.822,2.424-16.11c6.048-2.862,12.801-4.365,19.7-4.365
		c10.687,0,21.103,3.77,29.329,10.614c1.39,1.157,3.094,1.735,4.797,1.735c1.704,0,3.407-0.578,4.798-1.735
		c8.225-6.845,18.641-10.614,29.328-10.614c6.9,0,13.652,1.503,19.7,4.365c1.624,5.288,2.424,10.585,2.424,16.11
		C291.25,138.182,266.017,163.415,235,163.415z M287.479,74.469c-5.879-1.832-12.077-2.779-18.353-2.779
		c-12.18,0-24.093,3.688-34.126,10.479c-10.034-6.792-21.947-10.479-34.126-10.479c-6.275,0-12.473,0.947-18.353,2.779V15h104.958
		V74.469z"/>
	<path d="M462.5,320.915h-92.712c-2.487-45.183-27.294-84.51-63.555-107.126c-0.456-0.363-0.945-0.661-1.455-0.903
		c-20.375-12.353-44.261-19.471-69.778-19.471s-49.403,7.118-69.779,19.471c-0.509,0.242-0.998,0.539-1.453,0.902
		c-36.262,22.616-61.07,61.943-63.557,107.127H7.5c-4.142,0-7.5,3.357-7.5,7.5s3.358,7.5,7.5,7.5h23.039l9.482,127.143
		c0.293,3.941,3.582,6.942,7.471,6.942c0.187,0,0.376-0.007,0.565-0.021c4.131-0.309,7.229-3.906,6.921-8.037L45.58,335.915h378.84
		l-9.399,126.027c-0.308,4.131,2.791,7.729,6.922,8.037c0.189,0.014,0.378,0.021,0.565,0.021c3.889,0,7.178-3.001,7.472-6.942
		l9.482-127.143H462.5c4.143,0,7.5-3.357,7.5-7.5S466.643,320.915,462.5,320.915z M235,239.172c-4.142,0-7.5,3.357-7.5,7.5v21.437
		l-46.724-46.725c14.19-7.218,29.999-11.691,46.724-12.728v8.016c0,4.143,3.358,7.5,7.5,7.5c4.143,0,7.5-3.357,7.5-7.5v-8.016
		c16.725,1.037,32.533,5.509,46.724,12.728L242.5,268.108v-21.437C242.5,242.529,239.143,239.172,235,239.172z M167.459,229.28
		l62.238,62.238c0.2,0.194,0.371,0.35,0.55,0.497c0.087,0.071,0.178,0.133,0.267,0.199c0.107,0.08,0.212,0.163,0.323,0.237
		c0.105,0.071,0.215,0.131,0.323,0.196c0.102,0.061,0.202,0.125,0.307,0.182c0.11,0.059,0.223,0.108,0.336,0.162
		c0.109,0.052,0.217,0.106,0.329,0.152c0.11,0.045,0.222,0.082,0.333,0.122c0.12,0.043,0.238,0.089,0.36,0.126
		c0.111,0.033,0.223,0.058,0.335,0.086c0.125,0.032,0.249,0.067,0.377,0.092c0.129,0.025,0.26,0.041,0.39,0.06
		c0.112,0.016,0.221,0.037,0.334,0.048c0.246,0.024,0.493,0.037,0.74,0.037c0.247,0,0.494-0.013,0.74-0.037
		c0.115-0.011,0.226-0.033,0.339-0.049c0.129-0.019,0.257-0.033,0.385-0.059c0.13-0.026,0.257-0.062,0.385-0.094
		c0.109-0.027,0.219-0.051,0.326-0.084c0.125-0.038,0.247-0.084,0.369-0.129c0.108-0.039,0.217-0.074,0.324-0.118
		c0.115-0.048,0.226-0.104,0.338-0.157c0.109-0.052,0.22-0.1,0.328-0.157c0.107-0.058,0.208-0.123,0.312-0.185
		c0.107-0.064,0.215-0.124,0.319-0.193c0.111-0.074,0.214-0.156,0.321-0.236c0.09-0.067,0.182-0.13,0.27-0.202
		c0.162-0.133,0.316-0.275,0.466-0.421c0.027-0.026,0.056-0.048,0.083-0.075l62.238-62.238
		c29.708,20.304,49.859,53.598,52.217,91.634H115.241C117.599,282.878,137.751,249.585,167.459,229.28z"/>
	<path d="M159.737,360.916h-30c-4.142,0-7.5,3.357-7.5,7.5c0,22.175-16.638,40.368-38.701,42.32
		c-4.086,0.361-7.124,3.938-6.818,8.028l3.303,44.293c0.293,3.941,3.582,6.943,7.471,6.942c0.187,0,0.376-0.007,0.565-0.021
		c4.131-0.309,7.229-3.906,6.921-8.037l-2.789-37.394c11.417-2.521,21.831-8.484,29.866-17.214
		c8.082-8.778,13.166-19.729,14.694-31.419h22.987c4.142,0,7.5-3.357,7.5-7.5S163.879,360.916,159.737,360.916z"/>
	<path d="M386.465,410.736c-22.064-1.952-38.702-20.146-38.702-42.32c0-4.143-3.357-7.5-7.5-7.5H189.737c-4.142,0-7.5,3.357-7.5,7.5
		s3.358,7.5,7.5,7.5H333.25c1.528,11.69,6.612,22.641,14.693,31.42c8.035,8.729,18.449,14.691,29.866,17.213l-2.789,37.394
		c-0.308,4.131,2.791,7.729,6.922,8.037c0.189,0.014,0.378,0.021,0.565,0.021c3.889,0,7.178-3.001,7.472-6.942l3.304-44.293
		C393.588,414.675,390.551,411.098,386.465,410.736z"/>
</g>
<g>
</g>
<g>
</g>
<g>
</g>
<g>
</g>
<g>
</g>
<g>
</g>
<g>
</g>
<g>
</g>
<g>
</g>
<g>
</g>
<g>
</g>
<g>
</g>
<g>
</g>
<g>
</g>
<g>
</g>
</svg>
