<?xml version="1.0" encoding="iso-8859-1"?>
<!-- Generator: Adobe Illustrator 19.0.0, SVG Export Plug-In . SVG Version: 6.00 Build 0)  -->
<svg version="1.1" id="Capa_1" xmlns="http://www.w3.org/2000/svg" xmlns:xlink="http://www.w3.org/1999/xlink" x="0px" y="0px"
	 viewBox="0 0 429.288 429.288" style="enable-background:new 0 0 429.288 429.288;" xml:space="preserve">
<g>
	<path d="M266.798,155.196c0-2.68-1.43-5.155-3.75-6.495l-66.92-38.636c-2.32-1.34-5.18-1.34-7.5,0s-3.75,3.815-3.75,6.495v77.273
		c0,2.68,1.43,5.155,3.75,6.495c1.16,0.67,2.455,1.005,3.75,1.005s2.59-0.335,3.75-1.005l66.92-38.637
		C265.368,160.352,266.798,157.876,266.798,155.196z M199.878,180.843V129.55l44.42,25.646L199.878,180.843z"/>
	<path d="M214.644,29.696C101.439,29.696,9.34,121.795,9.34,235c0,15.867,1.819,31.67,5.409,46.988v52.989
		c0,4.142,3.358,7.5,7.5,7.5s7.5-3.358,7.5-7.5v-53.865c0-0.587-0.069-1.172-0.206-1.743C26.091,264.922,24.34,249.994,24.34,235
		c0-104.934,85.37-190.304,190.304-190.304S404.948,130.066,404.948,235c0,14.994-1.75,29.922-5.203,44.369
		c-0.137,0.571-0.206,1.156-0.206,1.743v53.865c0,4.142,3.358,7.5,7.5,7.5s7.5-3.358,7.5-7.5v-52.989
		c3.589-15.317,5.409-31.121,5.409-46.988C419.948,121.795,327.849,29.696,214.644,29.696z"/>
	<path d="M136.342,241.573h-30c-9.943,0-18.394,6.485-21.361,15.445c-22.691,3.113-40.232,22.615-40.232,46.148v63.622
		c0,23.433,17.392,42.873,39.943,46.111c2.67,9.446,11.361,16.389,21.65,16.389h30c12.407,0,22.5-10.093,22.5-22.5V264.073
		C158.842,251.666,148.749,241.573,136.342,241.573z M59.749,366.788v-63.622c0-14.836,10.282-27.31,24.093-30.686v124.994
		C70.031,394.098,59.749,381.624,59.749,366.788z M143.842,406.788c0,4.136-3.364,7.5-7.5,7.5h-30c-4.136,0-7.5-3.364-7.5-7.5
		V264.073c0-4.135,3.364-7.5,7.5-7.5h30c4.136,0,7.5,3.365,7.5,7.5V406.788z"/>
	<path d="M344.307,257.018c-2.967-8.96-11.418-15.445-21.361-15.445h-30c-12.407,0-22.5,10.093-22.5,22.5v142.715
		c0,12.407,10.093,22.5,22.5,22.5h30c10.289,0,18.98-6.944,21.65-16.389c22.552-3.238,39.943-22.677,39.943-46.111v-63.622
		C384.539,279.633,366.998,260.131,344.307,257.018z M369.539,366.788c0,14.836-10.282,27.31-24.093,30.686v-73.401
		c0-4.142-3.358-7.5-7.5-7.5s-7.5,3.358-7.5,7.5v82.715c0,4.136-3.364,7.5-7.5,7.5h-30c-4.136,0-7.5-3.364-7.5-7.5V264.073
		c0-4.135,3.364-7.5,7.5-7.5h30c4.136,0,7.5,3.365,7.5,7.5v30c0,4.142,3.358,7.5,7.5,7.5s7.5-3.358,7.5-7.5V272.48
		c13.811,3.376,24.093,15.85,24.093,30.686V366.788z"/>
	<path d="M24.078,110.41c3.385,2.388,8.065,1.579,10.452-1.806c7.329-10.392,15.589-20.205,24.551-29.167
		C100.633,37.884,155.88,15,214.644,15s114.011,22.884,155.563,64.437c8.961,8.962,17.222,18.775,24.551,29.167
		c1.461,2.071,3.78,3.178,6.135,3.178c1.494,0,3.002-0.445,4.316-1.372c3.385-2.387,4.194-7.066,1.806-10.452
		c-7.821-11.089-16.637-21.563-26.202-31.128C336.428,24.444,277.415,0,214.644,0S92.86,24.444,48.474,68.83
		c-9.565,9.565-18.381,20.039-26.202,31.128C19.884,103.343,20.693,108.022,24.078,110.41z"/>
	<path d="M300.025,155.196c0-47.145-38.355-85.5-85.5-85.5s-85.5,38.355-85.5,85.5c0,40.82,29.046,76.107,69.065,83.905
		c4.066,0.795,8.004-1.861,8.796-5.927c0.792-4.066-1.861-8.004-5.927-8.796c-32.99-6.429-56.935-35.524-56.935-69.183
		c0-38.874,31.626-70.5,70.5-70.5s70.5,31.626,70.5,70.5c0,33.659-23.944,62.754-56.935,69.183c-4.065,0.792-6.719,4.73-5.927,8.796
		c0.698,3.582,3.836,6.067,7.353,6.067c0.476,0,0.958-0.045,1.443-0.14C270.979,231.304,300.025,196.017,300.025,155.196z"/>
</g>
<g>
</g>
<g>
</g>
<g>
</g>
<g>
</g>
<g>
</g>
<g>
</g>
<g>
</g>
<g>
</g>
<g>
</g>
<g>
</g>
<g>
</g>
<g>
</g>
<g>
</g>
<g>
</g>
<g>
</g>
</svg>
