<?xml version="1.0" encoding="iso-8859-1"?>
<!-- Generator: Adobe Illustrator 19.0.0, SVG Export Plug-In . SVG Version: 6.00 Build 0)  -->
<svg version="1.1" id="Capa_1" xmlns="http://www.w3.org/2000/svg" xmlns:xlink="http://www.w3.org/1999/xlink" x="0px" y="0px"
	 viewBox="0 0 470 470" style="enable-background:new 0 0 470 470;" xml:space="preserve">
<g>
	<path d="M350,0H120C99.322,0,82.5,16.822,82.5,37.5v395c0,20.678,16.822,37.5,37.5,37.5h230c20.678,0,37.5-16.822,37.5-37.5v-395
		C387.5,16.822,370.678,0,350,0z M97.5,105h275v260h-275V105z M120,15h230c12.407,0,22.5,10.094,22.5,22.5V90h-275V37.5
		C97.5,25.094,107.593,15,120,15z M350,455H120c-12.407,0-22.5-10.094-22.5-22.5V380h275v52.5C372.5,444.906,362.407,455,350,455z"
		/>
	<path d="M209.999,59.997l50,0.006c4.143,0,7.5-3.357,7.501-7.499c0-4.143-3.357-7.5-7.499-7.501l-50-0.006
		c-4.143,0-7.5,3.357-7.501,7.499C202.5,56.639,205.857,59.996,209.999,59.997z"/>
	<path d="M235,395c-12.407,0-22.5,10.094-22.5,22.5S222.593,440,235,440s22.5-10.094,22.5-22.5S247.407,395,235,395z M235,425
		c-4.136,0-7.5-3.364-7.5-7.5s3.364-7.5,7.5-7.5s7.5,3.364,7.5,7.5S239.136,425,235,425z"/>
	<path d="M285,287.5c4.142,0,7.5-3.357,7.5-7.5v-25c0-0.02-0.003-0.039-0.003-0.058c-0.001-0.094-0.009-0.188-0.014-0.281
		c-0.04-0.874-0.223-1.736-0.56-2.546l-29.161-69.988c-0.012-0.028-0.023-0.056-0.035-0.083l-20.804-49.929
		c-1.164-2.795-3.895-4.615-6.923-4.615s-5.759,1.82-6.923,4.615l-20.804,49.929c-0.012,0.027-0.023,0.056-0.035,0.083
		l-29.161,69.988c-0.337,0.81-0.521,1.672-0.56,2.547c-0.005,0.093-0.012,0.187-0.014,0.28c0,0.019-0.003,0.038-0.003,0.058v80
		c0,4.143,3.358,7.5,7.5,7.5h100c4.142,0,7.5-3.357,7.5-7.5v-25c0-4.143-3.358-7.5-7.5-7.5s-7.5,3.357-7.5,7.5v17.5h-35v-65.849
		c6.801,3.889,14.74,6.036,23.056,6.036c4.067,0,8.082-0.522,11.944-1.53V280C277.5,284.143,280.858,287.5,285,287.5z M235,154.5
		l9.583,23h-19.167L235,154.5z M192.5,327.5v-61.342c3.862,1.008,7.878,1.53,11.944,1.53c8.316,0,16.254-2.147,23.056-6.036V327.5
		H192.5z M241.141,240.694c-1.404-2.002-3.696-3.194-6.141-3.194s-4.737,1.192-6.141,3.194c-5.265,7.51-14.392,11.993-24.415,11.993
		c-3.346,0-6.628-0.52-9.729-1.505l24.451-58.683h31.667l24.451,58.683c-3.101,0.985-6.383,1.505-9.729,1.505
		C255.533,252.688,246.406,248.204,241.141,240.694z"/>
</g>
<g>
</g>
<g>
</g>
<g>
</g>
<g>
</g>
<g>
</g>
<g>
</g>
<g>
</g>
<g>
</g>
<g>
</g>
<g>
</g>
<g>
</g>
<g>
</g>
<g>
</g>
<g>
</g>
<g>
</g>
</svg>
