<?xml version="1.0" encoding="iso-8859-1"?>
<!-- Generator: Adobe Illustrator 19.0.0, SVG Export Plug-In . SVG Version: 6.00 Build 0)  -->
<svg version="1.1" id="Capa_1" xmlns="http://www.w3.org/2000/svg" xmlns:xlink="http://www.w3.org/1999/xlink" x="0px" y="0px"
	 viewBox="0 0 470 470" style="enable-background:new 0 0 470 470;" xml:space="preserve">
<g>
	<path d="M173.134,108.735c27.378,0,50.083-20.345,53.817-46.708h16.1c3.735,26.363,26.44,46.708,53.817,46.708
		c29.979,0,54.368-24.389,54.368-54.367C351.236,24.389,326.847,0,296.868,0c-27.487,0-50.261,20.509-53.858,47.026h-16.019
		C223.394,20.509,200.621,0,173.134,0c-29.979,0-54.368,24.389-54.368,54.368C118.766,84.346,143.155,108.735,173.134,108.735z
		 M296.868,15c21.708,0,39.368,17.66,39.368,39.368c0,21.707-17.66,39.367-39.368,39.367c-21.707,0-39.367-17.66-39.367-39.367
		C257.501,32.66,275.161,15,296.868,15z M173.134,15c21.707,0,39.367,17.66,39.367,39.368c0,21.707-17.66,39.367-39.367,39.367
		c-21.708,0-39.368-17.66-39.368-39.367C133.766,32.66,151.426,15,173.134,15z"/>
	<path d="M383.587,432.5V171.235c0-4.142-3.358-7.5-7.5-7.5s-7.5,3.358-7.5,7.5V432.5c0,4.142,3.358,7.5,7.5,7.5
		S383.587,436.642,383.587,432.5z"/>
	<path d="M353.587,432.5V171.235c0-4.142-3.358-7.5-7.5-7.5s-7.5,3.358-7.5,7.5V432.5c0,4.142,3.358,7.5,7.5,7.5
		S353.587,436.642,353.587,432.5z"/>
	<path d="M406.085,133.735h-60c-4.142,0-7.5,3.358-7.5,7.5s3.358,7.5,7.5,7.5h52.5V455h-75V141.235c0-4.142-3.358-7.5-7.5-7.5
		H78.915c-12.407,0-22.5,10.093-22.5,22.5c0,9.778,6.27,18.12,15,21.215v248.835c-8.73,3.095-15,11.437-15,21.215
		c0,12.407,10.093,22.5,22.5,22.5h327.17c4.142,0,7.5-3.358,7.5-7.5V141.235C413.585,137.093,410.227,133.735,406.085,133.735z
		 M308.585,455H78.915c-4.136,0-7.5-3.364-7.5-7.5s3.364-7.5,7.5-7.5c4.142,0,7.5-3.358,7.5-7.5V171.235c0-4.142-3.358-7.5-7.5-7.5
		c-4.136,0-7.5-3.364-7.5-7.5c0-4.135,3.364-7.5,7.5-7.5h229.67V455z"/>
	<path d="M108.915,410c12.407,0,22.5,10.093,22.5,22.5c0,4.142,3.358,7.5,7.5,7.5h117.17c4.142,0,7.5-3.358,7.5-7.5
		c0-12.407,10.093-22.5,22.5-22.5c4.142,0,7.5-3.358,7.5-7.5V201.235c0-4.142-3.358-7.5-7.5-7.5c-12.407,0-22.5-10.093-22.5-22.5
		c0-4.142-3.358-7.5-7.5-7.5h-117.17c-4.142,0-7.5,3.358-7.5,7.5c0,12.407-10.093,22.5-22.5,22.5c-4.142,0-7.5,3.358-7.5,7.5v30
		c0,4.142,3.358,7.5,7.5,7.5s7.5-3.358,7.5-7.5v-23.253c14.671-2.99,26.256-14.576,29.247-29.247h103.677
		c2.99,14.671,14.576,26.256,29.247,29.247v187.772c-14.671,2.99-26.256,14.576-29.247,29.247H145.662
		c-2.99-14.671-14.576-26.256-29.247-29.247V261.235c0-4.142-3.358-7.5-7.5-7.5s-7.5,3.358-7.5,7.5V402.5
		C101.415,406.642,104.773,410,108.915,410z"/>
</g>
<g>
</g>
<g>
</g>
<g>
</g>
<g>
</g>
<g>
</g>
<g>
</g>
<g>
</g>
<g>
</g>
<g>
</g>
<g>
</g>
<g>
</g>
<g>
</g>
<g>
</g>
<g>
</g>
<g>
</g>
</svg>
