<?xml version="1.0" encoding="iso-8859-1"?>
<!-- Generator: Adobe Illustrator 19.0.0, SVG Export Plug-In . SVG Version: 6.00 Build 0)  -->
<svg version="1.1" id="Capa_1" xmlns="http://www.w3.org/2000/svg" xmlns:xlink="http://www.w3.org/1999/xlink" x="0px" y="0px"
	 viewBox="0 0 470 470" style="enable-background:new 0 0 470 470;" xml:space="preserve">
<g>
	<path d="M119.167,40H47.5c-4.142,0-7.5,3.358-7.5,7.5s3.358,7.5,7.5,7.5h71.667c4.142,0,7.5-3.358,7.5-7.5S123.309,40,119.167,40z"
		/>
	<path d="M119.167,70H47.5c-4.142,0-7.5,3.358-7.5,7.5s3.358,7.5,7.5,7.5h71.667c4.142,0,7.5-3.358,7.5-7.5S123.309,70,119.167,70z"
		/>
	<path d="M119.167,100H47.5c-4.142,0-7.5,3.358-7.5,7.5s3.358,7.5,7.5,7.5h71.667c4.142,0,7.5-3.358,7.5-7.5
		S123.309,100,119.167,100z"/>
	<path d="M119.167,325H47.5c-4.142,0-7.5,3.358-7.5,7.5s3.358,7.5,7.5,7.5h71.667c4.142,0,7.5-3.358,7.5-7.5
		S123.309,325,119.167,325z"/>
	<path d="M119.167,355H47.5c-4.142,0-7.5,3.358-7.5,7.5s3.358,7.5,7.5,7.5h71.667c4.142,0,7.5-3.358,7.5-7.5
		S123.309,355,119.167,355z"/>
	<path d="M119.167,385H47.5c-4.142,0-7.5,3.358-7.5,7.5s3.358,7.5,7.5,7.5h71.667c4.142,0,7.5-3.358,7.5-7.5
		S123.309,385,119.167,385z"/>
	<path d="M62.5,242.5c12.407,0,22.5-10.094,22.5-22.5s-10.093-22.5-22.5-22.5S40,207.594,40,220S50.094,242.5,62.5,242.5z
		 M62.5,212.5c4.136,0,7.5,3.365,7.5,7.5s-3.364,7.5-7.5,7.5S55,224.135,55,220S58.365,212.5,62.5,212.5z"/>
	<path d="M270.834,40h-71.667c-4.142,0-7.5,3.358-7.5,7.5s3.358,7.5,7.5,7.5h71.667c4.143,0,7.5-3.358,7.5-7.5
		S274.976,40,270.834,40z"/>
	<path d="M270.834,70h-71.667c-4.142,0-7.5,3.358-7.5,7.5s3.358,7.5,7.5,7.5h71.667c4.143,0,7.5-3.358,7.5-7.5
		S274.976,70,270.834,70z"/>
	<path d="M270.834,100h-71.667c-4.142,0-7.5,3.358-7.5,7.5s3.358,7.5,7.5,7.5h71.667c4.143,0,7.5-3.358,7.5-7.5
		S274.976,100,270.834,100z"/>
	<path d="M270.834,325h-71.667c-4.142,0-7.5,3.358-7.5,7.5s3.358,7.5,7.5,7.5h71.667c4.143,0,7.5-3.358,7.5-7.5
		S274.976,325,270.834,325z"/>
	<path d="M270.834,355h-71.667c-4.142,0-7.5,3.358-7.5,7.5s3.358,7.5,7.5,7.5h71.667c4.143,0,7.5-3.358,7.5-7.5
		S274.976,355,270.834,355z"/>
	<path d="M270.834,385h-71.667c-4.142,0-7.5,3.358-7.5,7.5s3.358,7.5,7.5,7.5h71.667c4.143,0,7.5-3.358,7.5-7.5
		S274.976,385,270.834,385z"/>
	<path d="M214.167,242.5c12.407,0,22.5-10.094,22.5-22.5s-10.093-22.5-22.5-22.5s-22.5,10.094-22.5,22.5S201.76,242.5,214.167,242.5
		z M214.167,212.5c4.136,0,7.5,3.365,7.5,7.5s-3.364,7.5-7.5,7.5s-7.5-3.365-7.5-7.5S210.031,212.5,214.167,212.5z"/>
	<path d="M350.834,55H422.5c4.143,0,7.5-3.358,7.5-7.5s-3.357-7.5-7.5-7.5h-71.666c-4.143,0-7.5,3.358-7.5,7.5
		S346.691,55,350.834,55z"/>
	<path d="M422.5,70h-71.666c-4.143,0-7.5,3.358-7.5,7.5s3.357,7.5,7.5,7.5H422.5c4.143,0,7.5-3.358,7.5-7.5S426.642,70,422.5,70z"/>
	<path d="M422.5,100h-71.666c-4.143,0-7.5,3.358-7.5,7.5s3.357,7.5,7.5,7.5H422.5c4.143,0,7.5-3.358,7.5-7.5S426.642,100,422.5,100z
		"/>
	<path d="M422.5,325h-71.666c-4.143,0-7.5,3.358-7.5,7.5s3.357,7.5,7.5,7.5H422.5c4.143,0,7.5-3.358,7.5-7.5S426.642,325,422.5,325z
		"/>
	<path d="M422.5,355h-71.666c-4.143,0-7.5,3.358-7.5,7.5s3.357,7.5,7.5,7.5H422.5c4.143,0,7.5-3.358,7.5-7.5S426.642,355,422.5,355z
		"/>
	<path d="M422.5,385h-71.666c-4.143,0-7.5,3.358-7.5,7.5s3.357,7.5,7.5,7.5H422.5c4.143,0,7.5-3.358,7.5-7.5S426.642,385,422.5,385z
		"/>
	<path d="M365.834,242.5c12.406,0,22.5-10.094,22.5-22.5s-10.094-22.5-22.5-22.5s-22.5,10.094-22.5,22.5
		S353.427,242.5,365.834,242.5z M365.834,212.5c4.136,0,7.5,3.365,7.5,7.5s-3.364,7.5-7.5,7.5s-7.5-3.365-7.5-7.5
		S361.698,212.5,365.834,212.5z"/>
	<path d="M462.5,0H7.5C3.358,0,0,3.358,0,7.5v455c0,4.142,3.358,7.5,7.5,7.5s7.5-3.358,7.5-7.5V440h136.667v22.5
		c0,4.142,3.358,7.5,7.5,7.5s7.5-3.358,7.5-7.5V440h136.667v22.5c0,4.142,3.357,7.5,7.5,7.5s7.5-3.358,7.5-7.5V440H455v22.5
		c0,4.142,3.357,7.5,7.5,7.5s7.5-3.358,7.5-7.5V7.5C470,3.358,466.642,0,462.5,0z M318.334,425V107.5c0-4.142-3.357-7.5-7.5-7.5
		s-7.5,3.358-7.5,7.5V425H166.667v-92.5c0-4.142-3.358-7.5-7.5-7.5s-7.5,3.358-7.5,7.5V425H15V15h136.667v287.5
		c0,4.142,3.358,7.5,7.5,7.5s7.5-3.358,7.5-7.5V15h136.667v62.5c0,4.142,3.357,7.5,7.5,7.5s7.5-3.358,7.5-7.5V15H455v410H318.334z"
		/>
</g>
<g>
</g>
<g>
</g>
<g>
</g>
<g>
</g>
<g>
</g>
<g>
</g>
<g>
</g>
<g>
</g>
<g>
</g>
<g>
</g>
<g>
</g>
<g>
</g>
<g>
</g>
<g>
</g>
<g>
</g>
</svg>
