<?xml version="1.0" encoding="iso-8859-1"?>
<!-- Generator: Adobe Illustrator 19.0.0, SVG Export Plug-In . SVG Version: 6.00 Build 0)  -->
<svg version="1.1" id="Capa_1" xmlns="http://www.w3.org/2000/svg" xmlns:xlink="http://www.w3.org/1999/xlink" x="0px" y="0px"
	 viewBox="0 0 470 470" style="enable-background:new 0 0 470 470;" xml:space="preserve">
<g>
	<path d="M303.499,151.906L75.707,207.988c-4.022,0.99-6.48,5.054-5.49,9.076c0.842,3.42,3.906,5.709,7.277,5.709
		c0.593,0,1.197-0.071,1.799-0.219l227.792-56.083c4.022-0.99,6.479-5.054,5.489-9.076S307.516,150.919,303.499,151.906z"/>
	<path d="M390.707,130.435l-58.078,14.299c-4.022,0.99-6.479,5.054-5.489,9.076c0.842,3.42,3.905,5.709,7.276,5.709
		c0.594,0,1.197-0.071,1.799-0.219L394.292,145c4.022-0.99,6.479-5.054,5.489-9.076S394.723,129.448,390.707,130.435z"/>
	<path d="M447.5,64.175c-10.297,0-18.995,6.956-21.657,16.415L43.078,174.827c-3.5-7.888-11.407-13.403-20.578-13.403
		c-12.407,0-22.5,10.093-22.5,22.5v80c0,12.407,10.093,22.5,22.5,22.5c9.171,0,17.078-5.515,20.578-13.403l93.552,23.033
		l-4.702,19.092c-3.575,14.515-1.284,29.553,6.453,42.345c7.736,12.791,19.99,21.804,34.505,25.378l86.537,21.312
		c3.937,0.97,7.969,1.516,11.984,1.624c0.494,0.013,0.987,0.02,1.48,0.02c10.145,0,20.1-2.786,28.879-8.096
		c12.791-7.735,21.805-19.99,25.379-34.505l4.706-19.106l93.992,23.141c2.662,9.459,11.359,16.415,21.657,16.415
		c12.406,0,22.5-10.093,22.5-22.5v-274.5C470,74.268,459.906,64.175,447.5,64.175z M312.581,359.637
		c-2.617,10.625-9.214,19.594-18.576,25.257c-6.744,4.079-14.449,6.128-22.196,5.916c-2.943-0.079-5.903-0.48-8.799-1.193
		l-86.537-21.312c-10.625-2.617-19.594-9.213-25.257-18.576c-5.663-9.364-7.34-20.372-4.723-30.996l4.702-19.094l136.961,33.72
		l-4.705,19.104c-0.7,2.842-2.466,5.242-4.973,6.759c-2.505,1.515-5.45,1.963-8.294,1.264l-86.537-21.312
		c-2.844-0.701-5.245-2.466-6.76-4.972c-1.219-2.016-1.753-4.304-1.546-6.616c0.37-4.125-2.674-7.77-6.8-8.141
		c-4.127-0.367-7.77,2.674-8.141,6.8c-0.495,5.516,0.768,10.951,3.651,15.719c3.588,5.934,9.273,10.115,16.008,11.774l86.538,21.313
		c2.075,0.511,4.172,0.763,6.255,0.763c4.679,0,9.284-1.274,13.39-3.758c5.935-3.59,10.116-9.275,11.773-16.007l4.705-19.104
		l14.565,3.586L312.581,359.637z M455,361.175c0,4.136-3.364,7.5-7.5,7.5s-7.5-3.364-7.5-7.5v-30c0-4.142-3.357-7.5-7.5-7.5
		s-7.5,3.358-7.5,7.5v20.429l-96.84-23.842c-0.007-0.001-29.13-7.172-29.13-7.172c-0.008-0.002-259.737-63.948-259.737-63.948
		c-2.24-0.55-4.605-0.042-6.419,1.379C31.06,259.443,30,261.62,30,263.925c0,4.136-3.364,7.5-7.5,7.5c-4.135,0-7.5-3.364-7.5-7.5
		v-80c0-4.136,3.365-7.5,7.5-7.5c4.136,0,7.5,3.364,7.5,7.5v50c0,4.142,3.358,7.5,7.5,7.5s7.5-3.358,7.5-7.5v-44.123l380-93.557
		v204.929c0,4.142,3.357,7.5,7.5,7.5s7.5-3.358,7.5-7.5v-214.5c0-4.136,3.364-7.5,7.5-7.5s7.5,3.364,7.5,7.5V361.175z"/>
</g>
<g>
</g>
<g>
</g>
<g>
</g>
<g>
</g>
<g>
</g>
<g>
</g>
<g>
</g>
<g>
</g>
<g>
</g>
<g>
</g>
<g>
</g>
<g>
</g>
<g>
</g>
<g>
</g>
<g>
</g>
</svg>
