<?xml version="1.0" encoding="iso-8859-1"?>
<!-- Generator: Adobe Illustrator 19.0.0, SVG Export Plug-In . SVG Version: 6.00 Build 0)  -->
<svg version="1.1" id="Capa_1" xmlns="http://www.w3.org/2000/svg" xmlns:xlink="http://www.w3.org/1999/xlink" x="0px" y="0px"
	 viewBox="0 0 470.003 470.003" style="enable-background:new 0 0 470.003 470.003;" xml:space="preserve">
<path d="M462.466,49.932l-16.8-45.053c-0.892-2.392-2.938-4.166-5.433-4.708c-2.499-0.543-5.093,0.221-6.898,2.024l-30.012,30.012
	l-1.759-1.759c-2.93-2.928-7.678-2.928-10.607,0c-28.583,28.585-70.624,39.857-109.731,29.412c-0.045-0.012-0.091-0.016-0.136-0.027
	c-0.227-0.056-0.456-0.101-0.686-0.136c-0.085-0.013-0.169-0.027-0.254-0.037c-0.286-0.033-0.573-0.054-0.861-0.054
	c-0.04,0-0.08,0.005-0.12,0.006c-0.252,0.004-0.503,0.022-0.754,0.051c-0.092,0.011-0.184,0.025-0.275,0.04
	c-0.214,0.033-0.427,0.076-0.638,0.128c-0.075,0.019-0.151,0.034-0.225,0.055c-0.284,0.079-0.565,0.172-0.84,0.285
	c-0.298,0.126-0.549,0.252-0.795,0.389c-0.069,0.038-0.135,0.079-0.203,0.12c-0.195,0.117-0.384,0.243-0.57,0.379
	c-0.066,0.048-0.133,0.094-0.198,0.145c-0.236,0.185-0.466,0.381-0.684,0.598l-8.839,8.839l-1.76-1.76
	c-1.432-1.431-3.405-2.234-5.404-2.195c-2.024,0.027-3.951,0.871-5.344,2.34L17.458,317.199
	c-14.135,14.915-13.813,38.871,0.717,53.402l88.289,88.288c7.397,7.398,17.236,11.113,27.083,11.113
	c9.494-0.001,18.997-3.456,26.319-10.396l248.171-235.184c1.469-1.392,2.313-3.318,2.34-5.343c0.027-2.023-0.765-3.973-2.195-5.404
	l-1.76-1.759l8.839-8.839c1.893-1.893,2.633-4.651,1.942-7.237c-10.441-39.103,0.829-81.149,29.413-109.732
	c1.406-1.407,2.196-3.314,2.196-5.304s-0.79-3.896-2.196-5.304l-1.759-1.759l15.885-15.885
	C462.819,55.78,463.492,52.683,462.466,49.932z M28.346,327.517l209.239-220.796l17.684,17.684L153.039,232.282
	c-2.85,3.007-2.722,7.754,0.284,10.604c1.451,1.374,3.306,2.056,5.158,2.056c1.986,0,3.97-0.785,5.445-2.341L265.88,135.016
	l76.169,76.169l-237.245,224.83l-63.753-63.753l102.237-107.884c2.85-3.007,2.722-7.754-0.284-10.604
	c-3.006-2.848-7.752-2.721-10.604,0.285L30.439,361.651l-1.657-1.657C19.945,351.157,19.749,336.588,28.346,327.517z
	 M149.548,448.721c-9.069,8.595-23.64,8.401-32.477-0.438l-1.657-1.657l237.245-224.83l17.684,17.684L149.548,448.721z
	 M401.657,195.47l-5.841,5.841L291.664,97.159c-2.93-2.928-7.678-2.928-10.607,0c-2.929,2.93-2.929,7.678,0,10.607l111.07,111.069
	l-10.891,10.321L247.908,95.829l10.321-10.892l1.615,1.616c0.183,0.183,0.373,0.354,0.57,0.515c1.375,1.121,3.055,1.682,4.734,1.682
	s3.359-0.561,4.734-1.682c0.197-0.16,0.387-0.332,0.57-0.515l11.145-11.146c40.592,9.372,83.481-1.632,114.507-29.205l1.916,1.916
	c0.001,0.001,30.908,30.908,30.908,30.908c0.037,0.037,1.935,1.935,1.935,1.935C403.289,111.987,392.289,154.874,401.657,195.47z
	 M434.25,63.135L413.93,42.815l21.759-21.76l11.038,29.602L434.25,63.135z"/>
<g>
</g>
<g>
</g>
<g>
</g>
<g>
</g>
<g>
</g>
<g>
</g>
<g>
</g>
<g>
</g>
<g>
</g>
<g>
</g>
<g>
</g>
<g>
</g>
<g>
</g>
<g>
</g>
<g>
</g>
</svg>
