<?xml version="1.0" encoding="iso-8859-1"?>
<!-- Generator: Adobe Illustrator 19.0.0, SVG Export Plug-In . SVG Version: 6.00 Build 0)  -->
<svg version="1.1" id="Capa_1" xmlns="http://www.w3.org/2000/svg" xmlns:xlink="http://www.w3.org/1999/xlink" x="0px" y="0px"
	 viewBox="0 0 470 470" style="enable-background:new 0 0 470 470;" xml:space="preserve">
<g>
	<circle cx="292" cy="417" r="7.5"/>
	<circle cx="322" cy="387" r="7.5"/>
	<path d="M457.5,0h-60c-4.143,0-7.5,3.357-7.5,7.5s3.357,7.5,7.5,7.5H450v440h-75V7.5c0-4.143-3.357-7.5-7.5-7.5h-315
		C48.357,0,45,3.357,45,7.5v25H27.5C15.094,32.5,5,42.594,5,55s10.094,22.5,22.5,22.5H45v75H27.5C15.094,152.5,5,162.594,5,175
		s10.094,22.5,22.5,22.5H45v75H27.5C15.094,272.5,5,282.594,5,295s10.094,22.5,22.5,22.5H45v75H27.5C15.094,392.5,5,402.594,5,415
		s10.094,22.5,22.5,22.5H45v25c0,4.143,3.357,7.5,7.5,7.5h405c4.143,0,7.5-3.357,7.5-7.5V7.5C465,3.357,461.643,0,457.5,0z M20,55
		c0-4.136,3.364-7.5,7.5-7.5h50c4.136,0,7.5,3.364,7.5,7.5s-3.364,7.5-7.5,7.5h-50C23.364,62.5,20,59.136,20,55z M20,175
		c0-4.136,3.364-7.5,7.5-7.5h50c4.136,0,7.5,3.364,7.5,7.5s-3.364,7.5-7.5,7.5h-50C23.364,182.5,20,179.136,20,175z M20,295
		c0-4.136,3.364-7.5,7.5-7.5h50c4.136,0,7.5,3.364,7.5,7.5s-3.364,7.5-7.5,7.5h-50C23.364,302.5,20,299.136,20,295z M20,415
		c0-4.136,3.364-7.5,7.5-7.5h50c4.136,0,7.5,3.364,7.5,7.5s-3.364,7.5-7.5,7.5h-50C23.364,422.5,20,419.136,20,415z M60,437.5h17.5
		c12.406,0,22.5-10.094,22.5-22.5s-10.094-22.5-22.5-22.5H60v-75h17.5c12.406,0,22.5-10.094,22.5-22.5s-10.094-22.5-22.5-22.5H60
		v-75h17.5c12.406,0,22.5-10.094,22.5-22.5s-10.094-22.5-22.5-22.5H60v-75h17.5C89.906,77.5,100,67.406,100,55
		S89.906,32.5,77.5,32.5H60V15h300v440H60V437.5z"/>
	<path d="M397.5,440c4.143,0,7.5-3.357,7.5-7.5v-395c0-4.143-3.357-7.5-7.5-7.5s-7.5,3.357-7.5,7.5v395
		C390,436.643,393.357,440,397.5,440z"/>
	<path d="M435,432.5v-395c0-4.143-3.357-7.5-7.5-7.5s-7.5,3.357-7.5,7.5v395c0,4.143,3.357,7.5,7.5,7.5S435,436.643,435,432.5z"/>
</g>
<g>
</g>
<g>
</g>
<g>
</g>
<g>
</g>
<g>
</g>
<g>
</g>
<g>
</g>
<g>
</g>
<g>
</g>
<g>
</g>
<g>
</g>
<g>
</g>
<g>
</g>
<g>
</g>
<g>
</g>
</svg>
