<?xml version="1.0" encoding="iso-8859-1"?>
<!-- Generator: Adobe Illustrator 19.0.0, SVG Export Plug-In . SVG Version: 6.00 Build 0)  -->
<svg version="1.1" id="Capa_1" xmlns="http://www.w3.org/2000/svg" xmlns:xlink="http://www.w3.org/1999/xlink" x="0px" y="0px"
	 viewBox="0 0 470 470" style="enable-background:new 0 0 470 470;" xml:space="preserve">
<g>
	<path d="M401.17,68.83C356.784,24.444,297.771,0,235,0S113.216,24.444,68.83,68.83C24.444,113.215,0,172.229,0,235
		c0,62.771,24.444,121.784,68.83,166.17S172.229,470,235,470s121.784-24.444,166.17-68.83S470,297.771,470,235
		C470,172.229,445.556,113.215,401.17,68.83z M235,455c-121.309,0-220-98.691-220-220S113.691,15,235,15s220,98.691,220,220
		S356.309,455,235,455z"/>
	<path d="M234.698,30c-48.915,0-96.313,17.587-133.465,49.523c-3.141,2.7-3.499,7.436-0.798,10.577
		c2.701,3.142,7.436,3.499,10.577,0.798C145.443,61.3,189.369,45,234.698,45c104.767,0,190,85.234,190,190s-85.233,190-190,190
		c-104.767,0-190-85.234-190-190c0-45.329,16.3-89.255,45.898-123.687c2.7-3.141,2.343-7.876-0.798-10.577
		c-3.141-2.699-7.876-2.342-10.577,0.798C47.286,138.686,29.698,186.085,29.698,235c0,113.038,91.962,205,205,205
		s205-91.962,205-205S347.735,30,234.698,30z"/>
	<path d="M342.774,117.048l-143.948,78.601c-0.042,0.023-0.122,0.066-0.122,0.066c-0.024,0.013-0.045,0.031-0.069,0.044
		c-0.248,0.139-0.489,0.295-0.723,0.464c-0.063,0.046-0.127,0.091-0.188,0.139c-0.25,0.193-0.493,0.397-0.723,0.626
		c-0.241,0.241-0.445,0.485-0.638,0.735c-0.047,0.061-0.092,0.124-0.137,0.187c-0.17,0.235-0.327,0.477-0.467,0.727
		c-0.013,0.023-0.03,0.043-0.043,0.066l-0.042,0.076c-0.008,0.016-0.017,0.031-0.026,0.047l-78.601,143.948
		c-1.595,2.921-1.074,6.544,1.279,8.897c1.443,1.443,3.363,2.197,5.306,2.197c1.226,0,2.462-0.3,3.592-0.917l143.953-78.603
		c0.031-0.017,0.118-0.064,0.118-0.064c0.026-0.014,0.049-0.033,0.074-0.048c0.246-0.138,0.484-0.292,0.717-0.461
		c0.063-0.045,0.127-0.091,0.189-0.139c0.252-0.194,0.498-0.401,0.729-0.632c0.232-0.231,0.438-0.478,0.633-0.73
		c0.047-0.061,0.091-0.123,0.136-0.185c0.17-0.234,0.326-0.476,0.465-0.724c0.014-0.024,0.032-0.046,0.045-0.07l0.045-0.082
		c0.021-0.039,78.623-143.989,78.623-143.989c1.595-2.921,1.074-6.544-1.279-8.897C349.318,115.974,345.696,115.454,342.774,117.048
		z M204.08,214.686l51.233,51.234l-112.859,61.625L204.08,214.686z M265.92,255.313l-51.234-51.234l112.859-61.625L265.92,255.313z"
		/>
	<path d="M235,60c-4.142,0-7.5,3.358-7.5,7.5v22.692C153.503,93.981,93.981,153.503,90.192,227.5H67.5c-4.142,0-7.5,3.358-7.5,7.5
		s3.358,7.5,7.5,7.5h22.712c1.13,21.668,7.12,42.938,17.524,61.936c1.364,2.49,3.933,3.899,6.585,3.899
		c1.217,0,2.453-0.297,3.596-0.923c3.633-1.99,4.965-6.548,2.976-10.181C110.496,278.248,105,256.729,105,235
		c0-71.682,58.318-130,130-130c21.729,0,43.248,5.496,62.231,15.892c3.635,1.99,8.191,0.658,10.181-2.976
		c1.989-3.633,0.657-8.191-2.976-10.181c-18.997-10.405-40.267-16.395-61.937-17.524V67.5C242.5,63.358,239.143,60,235,60z"/>
	<path d="M235,410c4.143,0,7.5-3.358,7.5-7.5v-22.692c73.997-3.789,133.519-63.311,137.308-137.308H402.5c4.143,0,7.5-3.358,7.5-7.5
		s-3.357-7.5-7.5-7.5h-22.712c-1.13-21.668-7.12-42.938-17.524-61.936c-1.988-3.632-6.544-4.965-10.181-2.976
		c-3.633,1.99-4.965,6.548-2.976,10.181C359.505,191.753,365,213.272,365,235c0,71.682-58.317,130-130,130
		c-21.729,0-43.248-5.496-62.231-15.892c-3.632-1.99-8.191-0.657-10.181,2.976c-1.99,3.633-0.657,8.191,2.976,10.181
		c18.998,10.404,40.267,16.395,61.936,17.524V402.5C227.5,406.642,230.858,410,235,410z"/>
</g>
<g>
</g>
<g>
</g>
<g>
</g>
<g>
</g>
<g>
</g>
<g>
</g>
<g>
</g>
<g>
</g>
<g>
</g>
<g>
</g>
<g>
</g>
<g>
</g>
<g>
</g>
<g>
</g>
<g>
</g>
</svg>
