<?xml version="1.0" encoding="iso-8859-1"?>
<!-- Generator: Adobe Illustrator 19.0.0, SVG Export Plug-In . SVG Version: 6.00 Build 0)  -->
<svg version="1.1" id="Capa_1" xmlns="http://www.w3.org/2000/svg" xmlns:xlink="http://www.w3.org/1999/xlink" x="0px" y="0px"
	 viewBox="0 0 470 470" style="enable-background:new 0 0 470 470;" xml:space="preserve">
<g>
	<path d="M329.495,180.97V94.496C329.495,42.391,287.104,0,235,0c-52.105,0-94.496,42.391-94.496,94.496v86.475
		C100.816,210.116,75,257.096,75,310c0,88.224,71.775,160,160,160s160-71.776,160-160C395,257.096,369.184,210.115,329.495,180.97z
		 M155.504,94.496C155.504,50.662,191.166,15,235,15s79.495,35.662,79.495,79.496v76.686C291.062,157.711,263.915,150,235,150
		c-28.915,0-56.063,7.711-79.496,21.183V94.496z M235,455c-79.953,0-145-65.047-145-145s65.047-145,145-145s145,65.047,145,145
		S314.953,455,235,455z"/>
	<path d="M312.096,205.396c-0.216-0.199-0.441-0.391-0.685-0.568c-0.236-0.172-0.481-0.324-0.73-0.464
		C289.35,189.038,263.212,180,235,180c-28.211,0-54.348,9.037-75.679,24.362c-0.25,0.141-0.496,0.293-0.733,0.466
		c-0.245,0.178-0.471,0.371-0.688,0.572C125.835,229.097,105,267.159,105,310c0,42.841,20.835,80.903,52.9,104.601
		c0.217,0.201,0.443,0.394,0.688,0.572c0.188,0.136,0.388,0.24,0.583,0.356c21.356,15.389,47.547,24.47,75.821,24.471
		c28.291-0.001,54.484-9.083,75.842-24.475c0.193-0.115,0.391-0.217,0.577-0.352c0.244-0.177,0.47-0.369,0.686-0.569
		C344.164,390.906,365,352.843,365,310C365,267.157,344.163,229.093,312.096,205.396z M308.486,398.387l-13.049-17.961
		c-2.434-3.351-7.124-4.094-10.476-1.659c-3.352,2.435-4.094,7.125-1.659,10.476l13.059,17.975
		c-15.783,9.997-34.154,16.256-53.863,17.531V402.5c0-4.142-3.357-7.5-7.5-7.5s-7.5,3.358-7.5,7.5v22.249
		c-19.708-1.275-38.079-7.534-53.862-17.531l13.059-17.975c2.435-3.351,1.692-8.041-1.659-10.476
		c-3.349-2.433-8.041-1.692-10.476,1.659l-13.049,17.961c-14.606-12.165-26.161-27.873-33.332-45.793l21.163-6.876
		c3.939-1.28,6.096-5.511,4.815-9.45c-1.279-3.94-5.514-6.095-9.45-4.815l-21.174,6.88C121.229,329.265,120,319.774,120,310
		c0-9.774,1.229-19.265,3.535-28.331l21.174,6.88c0.77,0.25,1.551,0.369,2.319,0.369c3.161,0,6.102-2.015,7.131-5.184
		c1.28-3.939-0.876-8.171-4.815-9.45l-21.163-6.876c7.171-17.92,18.725-33.628,33.332-45.793l13.05,17.961
		c1.468,2.02,3.754,3.092,6.073,3.092c1.528,0,3.071-0.466,4.402-1.433c3.352-2.435,4.094-7.125,1.659-10.476l-13.06-17.975
		c15.783-9.997,34.154-16.256,53.863-17.531V217.5c0,4.142,3.357,7.5,7.5,7.5s7.5-3.358,7.5-7.5v-22.249
		c19.708,1.275,38.079,7.534,53.862,17.531l-13.06,17.976c-2.435,3.351-1.692,8.041,1.659,10.476
		c1.331,0.967,2.873,1.433,4.402,1.433c2.318,0,4.606-1.073,6.073-3.092l13.049-17.961c14.607,12.165,26.161,27.873,33.332,45.794
		l-21.164,6.877c-3.939,1.28-6.096,5.511-4.815,9.45c1.029,3.169,3.97,5.184,7.131,5.184c0.769,0,1.55-0.119,2.319-0.369
		l21.175-6.88C348.771,290.735,350,300.226,350,310c0,9.774-1.229,19.265-3.535,28.332l-21.175-6.88
		c-3.933-1.28-8.17,0.875-9.45,4.815c-1.28,3.939,0.876,8.171,4.815,9.45l21.164,6.877
		C334.648,370.514,323.093,386.222,308.486,398.387z"/>
	<path d="M284.495,94.496v42.129c0,4.142,3.357,7.5,7.5,7.5s7.5-3.358,7.5-7.5V94.496C299.495,58.933,270.563,30,235,30
		c-35.563,0-64.496,28.933-64.496,64.496v42.129c0,4.142,3.357,7.5,7.5,7.5s7.5-3.358,7.5-7.5V94.496
		C185.504,67.204,207.708,45,235,45S284.495,67.204,284.495,94.496z"/>
	<path d="M235,240c-38.598,0-70,31.402-70,70c0,32.26,21.876,60.202,53.199,67.949c4.023,0.995,8.087-1.459,9.081-5.48
		c0.995-4.021-1.459-8.087-5.479-9.081C197.189,357.301,180,335.347,180,310c0-30.327,24.673-55,55-55s55,24.673,55,55
		c0,25.347-17.189,47.301-41.801,53.388c-4.021,0.994-6.475,5.06-5.479,9.081c0.845,3.417,3.906,5.701,7.274,5.701
		c0.596,0,1.202-0.072,1.807-0.221C283.124,370.202,305,342.26,305,310C305,271.402,273.598,240,235,240z"/>
</g>
<g>
</g>
<g>
</g>
<g>
</g>
<g>
</g>
<g>
</g>
<g>
</g>
<g>
</g>
<g>
</g>
<g>
</g>
<g>
</g>
<g>
</g>
<g>
</g>
<g>
</g>
<g>
</g>
<g>
</g>
</svg>
