<?xml version="1.0" encoding="iso-8859-1"?>
<!-- Generator: Adobe Illustrator 19.0.0, SVG Export Plug-In . SVG Version: 6.00 Build 0)  -->
<svg version="1.1" id="Capa_1" xmlns="http://www.w3.org/2000/svg" xmlns:xlink="http://www.w3.org/1999/xlink" x="0px" y="0px"
	 viewBox="0 0 470 470" style="enable-background:new 0 0 470 470;" xml:space="preserve">
<g>
	<path d="M343.604,461.029l-10-49.997c-0.701-3.506-3.779-6.029-7.354-6.029h-10.427c-3.949-8.147-12.891-29.02-16.639-57.637
		c-6.479-49.473,4.806-97.427,33.541-142.532c1.89-2.966,1.465-6.846-1.022-9.333c-37.57-37.568-60.135-87.286-63.692-140.216
		c2.943-5.452,4.488-11.55,4.488-17.785C272.5,16.822,255.678,0,235,0s-37.5,16.822-37.5,37.5c0,6.235,1.545,12.333,4.488,17.785
		c-3.557,52.93-26.122,102.647-63.692,140.216c-2.487,2.487-2.912,6.367-1.022,9.333c28.735,45.105,40.02,93.06,33.541,142.532
		c-3.749,28.623-12.693,49.497-16.638,57.637H143.75c-3.575,0-6.653,2.523-7.354,6.029l-10,49.997
		c-0.44,2.203,0.13,4.488,1.554,6.226c1.425,1.737,3.553,2.745,5.8,2.745h202.5c2.247,0,4.375-1.008,5.8-2.745
		C343.475,465.518,344.045,463.232,343.604,461.029z M235,193.305c4.136,0,7.5,3.364,7.5,7.5s-3.364,7.5-7.5,7.5s-7.5-3.364-7.5-7.5
		S230.864,193.305,235,193.305z M181.969,370.003L235,370.001c4.142,0,7.5-3.358,7.5-7.5c0-4.143-3.358-7.5-7.5-7.5l-50.138,0.002
		c0.258-1.641,0.507-3.297,0.734-4.99c4.78-35.617,2.842-89.829-32.526-148.179c38.189-40.176,60.872-92.472,64.033-147.928
		c0.089-1.56-0.311-3.107-1.145-4.429c-2.262-3.586-3.458-7.728-3.458-11.978c0-9.777,6.271-18.114,15-21.21v163.305
		c-8.729,3.096-15,11.433-15,21.21c0,12.406,10.093,22.5,22.5,22.5s22.5-10.094,22.5-22.5c0-9.777-6.271-18.114-15-21.21V16.29
		c8.729,3.096,15,11.433,15,21.21c0,4.25-1.196,8.392-3.458,11.978c-0.833,1.321-1.233,2.869-1.145,4.429
		c3.161,55.456,25.843,107.752,64.033,147.928c-35.368,58.35-37.306,112.562-32.526,148.179c0.227,1.692,0.476,3.349,0.734,4.988
		H265c-4.142,0-7.5,3.357-7.5,7.5s3.358,7.5,7.5,7.5h23.03c3.455,15.082,7.861,27.028,11.289,35.002H170.681
		C174.108,397.03,178.515,385.084,181.969,370.003z M142.898,455l7-34.997h8.829c0.03,0,161.374,0,161.374,0l7,34.997H142.898z"/>
	<path d="M260.605,339.988c4.138-0.194,7.334-3.706,7.14-7.844c-2.007-42.772,7.519-84.454,28.314-123.887
		c1.933-3.664,0.529-8.201-3.135-10.133c-3.662-1.931-8.2-0.528-10.132,3.135c-22.062,41.833-32.165,86.105-30.03,131.588
		c0.188,4.018,3.505,7.148,7.486,7.148C260.366,339.996,260.485,339.993,260.605,339.988z"/>
</g>
<g>
</g>
<g>
</g>
<g>
</g>
<g>
</g>
<g>
</g>
<g>
</g>
<g>
</g>
<g>
</g>
<g>
</g>
<g>
</g>
<g>
</g>
<g>
</g>
<g>
</g>
<g>
</g>
<g>
</g>
</svg>
