<?xml version="1.0" encoding="iso-8859-1"?>
<!-- Generator: Adobe Illustrator 19.0.0, SVG Export Plug-In . SVG Version: 6.00 Build 0)  -->
<svg version="1.1" id="Capa_1" xmlns="http://www.w3.org/2000/svg" xmlns:xlink="http://www.w3.org/1999/xlink" x="0px" y="0px"
	 viewBox="0 0 470 470" style="enable-background:new 0 0 470 470;" xml:space="preserve">
<g>
	<path d="M106,218.75h298.5c0.25,0,0.499-0.013,0.747-0.038c0.196-0.02,0.388-0.052,0.58-0.087c0.049-0.009,0.1-0.013,0.149-0.023
		c0.234-0.047,0.464-0.105,0.689-0.173c0.26-0.078,0.491-0.161,0.716-0.255c0.025-0.01,0.045-0.019,0.065-0.027l47.938-19.972
		c2.795-1.165,4.615-3.896,4.615-6.923c0-3.027-1.82-5.758-4.615-6.923l-47.931-19.973c-0.47-0.202-0.965-0.356-1.479-0.459
		c-0.044-0.009-0.089-0.012-0.134-0.021c-0.196-0.036-0.393-0.069-0.594-0.089c-0.248-0.025-0.497-0.038-0.747-0.038H106
		c-10.752,0-19.5,8.749-19.5,19.502v16C86.5,210.003,95.248,218.75,106,218.75z M397,203.75H164.5v-25H397V203.75z M149.5,203.75
		h-15v-25h15V203.75z M412,200v-17.5l21,8.751L412,200z M101.5,183.252c0-2.44,2.061-4.502,4.5-4.502h13.5v25H106
		c-2.439,0-4.5-2.06-4.5-4.498V183.252z"/>
	<path d="M92.47,138.59l47.989,10c0.498,0.104,1.013,0.16,1.541,0.16h268.5c10.752,0,19.5-8.749,19.5-19.502v-0.498h22.5
		c4.143,0,7.5-3.358,7.5-7.5s-3.357-7.5-7.5-7.5H430v-0.502c0-10.751-8.748-19.498-19.5-19.498H397v-2.5
		c0-15.164-12.337-27.5-27.5-27.5h-74.797c-4.143,0-7.5,3.358-7.5,7.5s3.357,7.5,7.5,7.5H369.5c6.893,0,12.5,5.607,12.5,12.5v2.5
		H142c-0.53,0-1.046,0.057-1.545,0.161l-47.984,9.995c-3.479,0.724-5.971,3.79-5.971,7.342v20
		C86.5,134.8,88.992,137.866,92.47,138.59z M410.5,108.75c2.439,0,4.5,2.06,4.5,4.498v16c0,2.44-2.061,4.502-4.5,4.502H397v-25
		H410.5z M382,133.75H149.5v-25H382V133.75z M101.5,117.347l33-6.874v21.553l-33-6.876V117.347z"/>
	<circle cx="380.963" cy="330" r="7.5"/>
	<circle cx="350.963" cy="350" r="7.5"/>
	<path d="M462.5,243.75H60.599l2.845-36.983c0.57-7.411-1.833-14.427-6.767-19.755S44.933,178.75,37.5,178.75
		s-14.243,2.934-19.177,8.262s-7.337,12.344-6.767,19.755l2.845,36.983H7.5c-4.143,0-7.5,3.358-7.5,7.5s3.357,7.5,7.5,7.5H10v80
		c0,37.22,30.28,67.5,67.5,67.5h315c37.22,0,67.5-30.28,67.5-67.5v-80h2.5c4.143,0,7.5-3.358,7.5-7.5S466.643,243.75,462.5,243.75z
		 M29.329,197.204c2.062-2.227,4.964-3.454,8.171-3.454s6.109,1.227,8.171,3.454c2.063,2.227,3.063,5.215,2.817,8.413l-2.933,38.134
		h-16.11l-2.933-38.134C26.266,202.418,27.267,199.431,29.329,197.204z M445,338.75c0,28.949-23.552,52.5-52.5,52.5h-315
		c-28.948,0-52.5-23.551-52.5-52.5v-80h27.495c0.023,0,392.505,0,392.505,0V338.75z"/>
	<path d="M137.5,288.75h285c4.143,0,7.5-3.358,7.5-7.5s-3.357-7.5-7.5-7.5h-285c-4.143,0-7.5,3.358-7.5,7.5
		S133.357,288.75,137.5,288.75z"/>
	<path d="M47.5,273.75c-4.143,0-7.5,3.358-7.5,7.5s3.357,7.5,7.5,7.5h60c4.143,0,7.5-3.358,7.5-7.5s-3.357-7.5-7.5-7.5H47.5z"/>
</g>
<g>
</g>
<g>
</g>
<g>
</g>
<g>
</g>
<g>
</g>
<g>
</g>
<g>
</g>
<g>
</g>
<g>
</g>
<g>
</g>
<g>
</g>
<g>
</g>
<g>
</g>
<g>
</g>
<g>
</g>
</svg>
