<?xml version="1.0" encoding="iso-8859-1"?>
<!-- Generator: Adobe Illustrator 19.0.0, SVG Export Plug-In . SVG Version: 6.00 Build 0)  -->
<svg version="1.1" id="Capa_1" xmlns="http://www.w3.org/2000/svg" xmlns:xlink="http://www.w3.org/1999/xlink" x="0px" y="0px"
	 viewBox="0 0 470.001 470.001" style="enable-background:new 0 0 470.001 470.001;" xml:space="preserve">
<g>
	<path d="M465.669,53.717C422.629,33.655,335.43,0.001,235.001,0.001c-100.427,0-187.628,33.656-230.67,53.718
		c-3.064,1.429-4.795,4.732-4.223,8.065c7.94,46.308,29.294,88.912,61.75,123.208l134.37,141.984
		c1.964,2.074,4.062,3.965,6.271,5.672v104.853c0,17.92,14.579,32.5,32.5,32.5s32.5-14.58,32.5-32.5V332.652
		c2.208-1.707,4.305-3.596,6.267-5.668l134.377-141.992c32.458-34.298,53.811-76.904,61.749-123.21
		C470.464,58.449,468.734,55.146,465.669,53.717z M252.5,437.501c0,9.649-7.851,17.5-17.5,17.5s-17.5-7.851-17.5-17.5v-96.745
		c3.151,1.091,6.41,1.89,9.753,2.372c0.088,0.011,0.176,0.026,0.265,0.034c2.457,0.341,4.954,0.528,7.484,0.528
		c2.531,0,5.028-0.187,7.486-0.528c0.084-0.008,0.166-0.021,0.249-0.032c3.347-0.481,6.609-1.28,9.763-2.371V437.501z
		 M397.249,174.682l-117.42,124.074l62.54-129.065c15.313-31.6,26.698-70.131,32.923-111.426c0.617-4.096-2.202-7.917-6.298-8.534
		c-4.092-0.617-7.916,2.202-8.534,6.298c-6.003,39.821-16.926,76.863-31.589,107.122l-77.577,160.097l24.664-163.186
		c5.128-33.925,8.91-75.39,10.938-119.91c0.188-4.138-3.013-7.645-7.151-7.833c-4.131-0.197-7.645,3.013-7.833,7.151
		c-2.004,44.008-5.733,84.933-10.785,118.351l-25.824,170.862c-0.1,0-0.2,0.007-0.3,0.007c-0.1,0-0.199-0.007-0.299-0.007
		l-21.342-141.199c-0.619-4.096-4.442-6.918-8.537-6.294c-4.096,0.619-6.914,4.441-6.295,8.537l20.182,133.523l-77.578-160.098
		c-14.662-30.257-25.586-67.299-31.589-107.12c-0.618-4.096-4.44-6.918-8.534-6.298c-4.096,0.617-6.915,4.438-6.298,8.534
		c6.225,41.295,17.609,79.826,32.923,111.425l62.542,129.067L72.753,174.681c-29.09-30.739-48.66-68.591-56.818-109.787
		C59.436,45.192,141.39,15.001,235.001,15.001c93.613,0,175.565,30.191,219.064,49.893
		C445.91,106.087,426.341,143.94,397.249,174.682z"/>
	<path d="M198.093,39.467c-0.188-4.138-3.693-7.352-7.833-7.151c-4.139,0.188-7.34,3.695-7.151,7.833
		c2.027,44.521,5.81,85.985,10.938,119.911c0.562,3.716,3.76,6.38,7.406,6.38c0.373,0,0.751-0.028,1.131-0.085
		c4.096-0.619,6.914-4.441,6.295-8.537C203.826,124.401,200.097,83.476,198.093,39.467z"/>
</g>
<g>
</g>
<g>
</g>
<g>
</g>
<g>
</g>
<g>
</g>
<g>
</g>
<g>
</g>
<g>
</g>
<g>
</g>
<g>
</g>
<g>
</g>
<g>
</g>
<g>
</g>
<g>
</g>
<g>
</g>
</svg>
