<?xml version="1.0" encoding="iso-8859-1"?>
<!-- Generator: Adobe Illustrator 19.0.0, SVG Export Plug-In . SVG Version: 6.00 Build 0)  -->
<svg version="1.1" id="Capa_1" xmlns="http://www.w3.org/2000/svg" xmlns:xlink="http://www.w3.org/1999/xlink" x="0px" y="0px"
	 viewBox="0 0 470 470" style="enable-background:new 0 0 470 470;" xml:space="preserve">
<g>
	<path d="M467.804,97.799L446.635,76.63C397.219,27.215,331.517,0,261.632,0C191.748,0,126.046,27.215,76.63,76.63
		c-0.02,0.02-0.039,0.04-0.059,0.06C27.189,126.11,0,191.782,0,261.632c0,69.885,27.215,135.587,76.63,185.003l21.169,21.169
		c1.465,1.464,3.384,2.196,5.304,2.196c1.919,0,3.839-0.732,5.304-2.196l70.264-70.264c2.929-2.93,2.929-7.678,0-10.607
		l-15.866-15.865L319.802,214.07c2.929-2.93,2.929-7.678,0-10.607c-2.929-2.927-7.677-2.929-10.607,0L146.894,365.764
		c-2.929,2.93-2.929,7.678,0,10.607l15.866,15.865l-59.657,59.657l-10.441-10.441l15.903-15.924
		c2.927-2.931,2.924-7.68-0.007-10.606c-2.93-2.928-7.679-2.925-10.606,0.007l-15.813,15.834
		c-9.323-9.88-17.742-20.399-25.213-31.458l19-11.956c3.506-2.206,4.56-6.836,2.354-10.342c-2.205-3.507-6.838-4.562-10.342-2.354
		l-19.021,11.969c-6.857-11.624-12.734-23.759-17.562-36.31l21.249-7.449c3.908-1.371,5.967-5.65,4.597-9.56
		c-1.371-3.909-5.65-5.964-9.56-4.597l-21.223,7.44c-4.031-12.776-7.025-25.917-8.929-39.323l22.278-2.522
		c4.116-0.466,7.074-4.18,6.608-8.296c-0.466-4.115-4.19-7.062-8.296-6.608l-22.247,2.519C15.29,275.204,15,268.441,15,261.632
		c0-6.722,0.281-13.398,0.811-20.025l22.25,2.495c0.284,0.032,0.565,0.048,0.845,0.048c3.768,0,7.015-2.833,7.444-6.665
		c0.462-4.116-2.501-7.827-6.617-8.289l-22.278-2.499c1.89-13.408,4.868-26.553,8.886-39.333l21.23,7.418
		c0.818,0.286,1.653,0.422,2.474,0.422c3.1,0,6-1.937,7.08-5.028c1.366-3.91-0.696-8.188-4.606-9.554l-21.253-7.426
		c4.815-12.556,10.677-24.698,17.522-36.329l19.033,11.949c1.239,0.778,2.617,1.149,3.98,1.149c2.494,0,4.935-1.244,6.358-3.514
		c2.203-3.508,1.145-8.137-2.364-10.339l-19.015-11.938c7.46-11.067,15.871-21.593,25.184-31.483l15.827,15.816
		c1.465,1.464,3.383,2.195,5.302,2.195c1.92,0,3.841-0.733,5.305-2.198c2.929-2.931,2.927-7.679-0.003-10.606L92.565,82.08
		c9.883-9.32,20.404-17.735,31.466-25.203l11.95,19.004c1.426,2.267,3.863,3.509,6.356,3.509c1.364,0,2.745-0.372,3.985-1.151
		c3.507-2.205,4.562-6.835,2.357-10.342l-11.962-19.024c11.627-6.853,23.763-12.725,36.316-17.548l7.441,21.25
		c1.081,3.09,3.98,5.023,7.078,5.023c0.822,0,1.658-0.136,2.479-0.424c3.909-1.368,5.969-5.647,4.6-9.557l-7.433-21.226
		c12.778-4.027,25.92-7.016,39.327-8.915l2.515,22.278c0.433,3.83,3.678,6.659,7.443,6.659c0.281,0,0.565-0.016,0.852-0.048
		c4.115-0.465,7.075-4.179,6.611-8.295l-2.511-22.247C248.118,15.287,254.853,15,261.632,15c6.75,0,13.457,0.284,20.112,0.818
		l-2.503,22.249c-0.463,4.116,2.498,7.829,6.614,8.292c0.285,0.032,0.568,0.048,0.849,0.048c3.766,0,7.012-2.831,7.443-6.662
		l2.507-22.278c13.408,1.895,26.551,4.878,39.33,8.9l-7.426,21.228c-1.368,3.91,0.692,8.188,4.603,9.556
		c0.819,0.287,1.655,0.423,2.477,0.423c3.099,0,5.998-1.936,7.079-5.025l7.435-21.252c12.555,4.819,24.693,10.686,36.322,17.535
		l-11.955,19.029c-2.204,3.508-1.146,8.138,2.36,10.341c1.24,0.779,2.62,1.15,3.983,1.15c2.494,0,4.933-1.243,6.357-3.511
		l11.944-19.011c11.064,7.464,21.587,15.876,31.473,25.192l-15.822,15.822c-2.929,2.93-2.929,7.678,0,10.607
		c1.465,1.464,3.385,2.196,5.304,2.196s3.839-0.732,5.304-2.196l15.91-15.91l10.563,10.562l-59.657,59.658l-15.866-15.867
		c-1.407-1.406-3.314-2.196-5.304-2.196s-3.896,0.79-5.304,2.197l-35.354,35.355c-2.929,2.929-2.929,7.677,0,10.606
		c2.93,2.928,7.678,2.928,10.607,0l30.051-30.053l15.866,15.867c1.407,1.406,3.314,2.196,5.304,2.196s3.896-0.79,5.304-2.196
		l70.264-70.265C470.732,105.477,470.732,100.729,467.804,97.799z"/>
	<path d="M161.082,249.046c2.93,2.928,7.678,2.928,10.607,0l148.067-148.067c1.852-1.852,2.603-4.535,1.983-7.079
		c-0.62-2.545-2.522-4.581-5.019-5.373c-65.014-20.634-135.335-3.516-183.523,44.672c-48.188,48.188-65.305,118.511-44.672,183.522
		c0.792,2.496,2.828,4.398,5.373,5.019c0.588,0.143,1.184,0.213,1.775,0.213c1.965,0,3.88-0.773,5.304-2.196l35.355-35.355
		c2.929-2.93,2.929-7.678,0-10.607c-2.93-2.928-7.678-2.928-10.607,0l-26.263,26.264c-13.323-56.133,3.114-115.023,44.342-156.251
		c41.227-41.229,100.118-57.663,156.251-44.342L161.082,238.439C158.153,241.368,158.153,246.116,161.082,249.046z"/>
</g>
<g>
</g>
<g>
</g>
<g>
</g>
<g>
</g>
<g>
</g>
<g>
</g>
<g>
</g>
<g>
</g>
<g>
</g>
<g>
</g>
<g>
</g>
<g>
</g>
<g>
</g>
<g>
</g>
<g>
</g>
</svg>
