<?xml version="1.0" encoding="iso-8859-1"?>
<!-- Generator: Adobe Illustrator 19.0.0, SVG Export Plug-In . SVG Version: 6.00 Build 0)  -->
<svg version="1.1" id="Capa_1" xmlns="http://www.w3.org/2000/svg" xmlns:xlink="http://www.w3.org/1999/xlink" x="0px" y="0px"
	 viewBox="0 0 470 470" style="enable-background:new 0 0 470 470;" xml:space="preserve">
<g>
	<circle cx="165.471" cy="138.337" r="7.5"/>
	<circle cx="195.471" cy="108.337" r="7.5"/>
	<path d="M166.902,259.796c8.053,15.547,23.95,25.205,41.488,25.205c6.141,0,12.151-1.2,17.865-3.566
		c3.097-1.283,6.021-2.876,8.744-4.762c2.723,1.886,5.647,3.479,8.744,4.761c5.714,2.367,11.725,3.567,17.866,3.567
		c17.539,0,33.438-9.66,41.492-25.214c4.621-8.937,45.27-87.665,49.76-100.091c14.172-39.215-4.926-82.442-43.479-98.411
		c-9.528-3.947-19.548-5.948-29.781-5.948c-13.325,0-26.43,3.47-37.996,9.912c-2.902-21.913-12.851-42.162-28.744-58.054
		c-2.93-2.928-7.678-2.929-10.607,0.001c-2.929,2.929-2.928,7.678,0,10.606c12.77,12.768,21.014,28.845,23.986,46.292
		c-11.028-5.7-23.338-8.758-35.844-8.758c-10.233,0-20.253,2.001-29.781,5.948c-38.551,15.968-57.65,59.194-43.479,98.408
		C121.626,172.12,162.279,250.854,166.902,259.796z M166.356,75.142c7.699-3.188,15.788-4.806,24.041-4.806
		c14.468,0,28.624,5.05,39.861,14.218c0.014,0.012,0.03,0.019,0.043,0.029c0.305,0.246,0.631,0.466,0.973,0.662
		c0.035,0.02,0.068,0.043,0.103,0.063c0.328,0.182,0.673,0.332,1.029,0.464c0.065,0.023,0.13,0.049,0.195,0.071
		c0.341,0.115,0.692,0.206,1.053,0.271c0.075,0.014,0.15,0.023,0.226,0.034c0.352,0.053,0.709,0.089,1.076,0.091
		c0.029,0,0.058,0,0.087,0c0.368-0.002,0.727-0.038,1.08-0.091c0.073-0.012,0.146-0.021,0.219-0.034
		c0.364-0.065,0.717-0.157,1.061-0.273c0.062-0.021,0.123-0.045,0.184-0.067c0.359-0.132,0.707-0.284,1.038-0.468
		c0.032-0.018,0.063-0.039,0.095-0.058c0.344-0.196,0.672-0.418,0.979-0.665c0.014-0.011,0.029-0.019,0.043-0.029
		c11.237-9.168,25.394-14.218,39.861-14.218c8.253,0,16.342,1.617,24.041,4.806c31.13,12.895,46.554,47.796,35.112,79.456
		c-3.517,9.73-36.547,74.258-48.975,98.295c-5.464,10.553-16.258,17.107-28.17,17.107c-4.161,0-8.241-0.815-12.126-2.426
		c-3.485-1.443-6.646-3.462-9.394-6.001c-1.437-1.327-3.263-1.991-5.089-1.991s-3.653,0.664-5.089,1.991
		c-2.748,2.539-5.909,4.558-9.395,6.002c-3.885,1.609-7.965,2.425-12.125,2.425c-11.911,0-22.704-6.554-28.167-17.099
		c-12.431-24.043-45.463-88.573-48.979-98.307C119.804,122.937,135.227,88.037,166.356,75.142z"/>
	<path d="M262.045,386.535l-26.252-20c-2.684-2.045-6.405-2.045-9.09,0l-21.707,16.537l-21.704-16.537
		c-2.685-2.045-6.406-2.045-9.091,0l-26.248,20c-3.294,2.511-3.93,7.217-1.419,10.512c2.51,3.294,7.217,3.929,10.511,1.42
		l21.701-16.537l21.703,16.537c2.685,2.044,6.405,2.046,9.09,0l21.708-16.537l21.707,16.537c1.357,1.034,2.955,1.535,4.54,1.534
		c2.26,0,4.496-1.018,5.971-2.955C265.976,393.751,265.34,389.045,262.045,386.535z"/>
	<path d="M462.5,345.001c4.142,0,7.5-3.357,7.5-7.5v-30c0-4.143-3.358-7.5-7.5-7.5H7.5c-4.142,0-7.5,3.357-7.5,7.5v150
		c0,4.143,3.358,7.5,7.5,7.5h455c4.142,0,7.5-3.357,7.5-7.5v-30c0-4.143-3.358-7.5-7.5-7.5H410v-15h52.5c4.142,0,7.5-3.357,7.5-7.5
		s-3.358-7.5-7.5-7.5H410v-15h52.5c4.142,0,7.5-3.357,7.5-7.5s-3.358-7.5-7.5-7.5H410v-15H462.5z M312.5,360.001
		c-4.142,0-7.5,3.357-7.5,7.5v82.5H105v-135h200v22.5c0,4.143,3.358,7.5,7.5,7.5s7.5-3.357,7.5-7.5v-22.5h15v135h-15v-82.5
		C320,363.358,316.642,360.001,312.5,360.001z M90,450.001H75v-135h15V450.001z M15,315.001h45v135H15V315.001z M455,435.001v15H350
		v-135h105v15h-45v-2.5c0-4.143-3.358-7.5-7.5-7.5s-7.5,3.357-7.5,7.5v110c0,4.143,3.358,7.5,7.5,7.5s7.5-3.357,7.5-7.5v-2.5H455z"
		/>
</g>
<g>
</g>
<g>
</g>
<g>
</g>
<g>
</g>
<g>
</g>
<g>
</g>
<g>
</g>
<g>
</g>
<g>
</g>
<g>
</g>
<g>
</g>
<g>
</g>
<g>
</g>
<g>
</g>
<g>
</g>
</svg>
