<?xml version="1.0" encoding="iso-8859-1"?>
<!-- Generator: Adobe Illustrator 19.0.0, SVG Export Plug-In . SVG Version: 6.00 Build 0)  -->
<svg version="1.1" id="Capa_1" xmlns="http://www.w3.org/2000/svg" xmlns:xlink="http://www.w3.org/1999/xlink" x="0px" y="0px"
	 viewBox="0 0 470 470" style="enable-background:new 0 0 470 470;" xml:space="preserve">
<g>
	<path d="M322.046,89.034l-26.247-20c-2.686-2.045-6.406-2.045-9.092,0l-21.703,16.537l-21.707-16.537
		c-2.684-2.045-6.405-2.045-9.09,0l-26.252,20c-3.295,2.51-3.931,7.216-1.421,10.511c1.476,1.938,3.71,2.955,5.971,2.955
		c1.584,0,3.182-0.5,4.54-1.534l21.707-16.537l21.707,16.537c2.686,2.045,6.405,2.045,9.091,0l21.703-16.537l21.701,16.537
		c3.297,2.511,8.002,1.875,10.512-1.42S325.34,91.545,322.046,89.034z"/>
	<path d="M462.5,2.5H7.5C3.358,2.5,0,5.857,0,10v30c0,4.143,3.358,7.5,7.5,7.5H60v15H7.5C3.358,62.5,0,65.857,0,70
		s3.358,7.5,7.5,7.5H60v15H7.5C3.358,92.5,0,95.857,0,100s3.358,7.5,7.5,7.5H60v15H7.5c-4.142,0-7.5,3.357-7.5,7.5v210
		c0,4.143,3.358,7.5,7.5,7.5H60v15H7.5c-4.142,0-7.5,3.357-7.5,7.5s3.358,7.5,7.5,7.5H60v15H7.5c-4.142,0-7.5,3.357-7.5,7.5
		s3.358,7.5,7.5,7.5H60v15H7.5c-4.142,0-7.5,3.357-7.5,7.5v30c0,4.143,3.358,7.5,7.5,7.5h455c4.143,0,7.5-3.357,7.5-7.5V280
		c0-4.143-3.357-7.5-7.5-7.5H410v-15h52.5c4.143,0,7.5-3.357,7.5-7.5s-3.357-7.5-7.5-7.5H410v-15h52.5c4.143,0,7.5-3.357,7.5-7.5
		s-3.357-7.5-7.5-7.5H410v-15h52.5c4.143,0,7.5-3.357,7.5-7.5V10C470,5.857,466.643,2.5,462.5,2.5z M455,152.5h-45v-135h45V152.5z
		 M380,152.5v-135h15v135H380z M165,152.5V130c0-4.143-3.358-7.5-7.5-7.5s-7.5,3.357-7.5,7.5v22.5h-15v-135h15V100
		c0,4.143,3.358,7.5,7.5,7.5s7.5-3.357,7.5-7.5V17.5h200v135H165z M365,317.5v135H165V370c0-4.143-3.358-7.5-7.5-7.5
		s-7.5,3.357-7.5,7.5v82.5h-15v-135h15V340c0,4.143,3.358,7.5,7.5,7.5s7.5-3.357,7.5-7.5v-22.5H365z M395,317.5v135h-15v-135H395z
		 M105,302.5v-135h200v135H105z M75,302.5v-135h15v135H75z M15,302.5v-135h45v135H15z M15,137.5h45v2.5c0,4.143,3.358,7.5,7.5,7.5
		s7.5-3.357,7.5-7.5V30c0-4.143-3.358-7.5-7.5-7.5S60,25.857,60,30v2.5H15v-15h105v135H15V137.5z M15,437.5h45v2.5
		c0,4.143,3.358,7.5,7.5,7.5s7.5-3.357,7.5-7.5V330c0-4.143-3.358-7.5-7.5-7.5S60,325.857,60,330v2.5H15v-15h105v135H15V437.5z
		 M455,452.5h-45v-135h45V452.5z M455,182.5h-45V180c0-4.143-3.357-7.5-7.5-7.5s-7.5,3.357-7.5,7.5v110c0,4.143,3.357,7.5,7.5,7.5
		s7.5-3.357,7.5-7.5v-2.5h45v15H350V220c0-4.143-3.357-7.5-7.5-7.5s-7.5,3.357-7.5,7.5v82.5h-15v-135h15V190
		c0,4.143,3.357,7.5,7.5,7.5s7.5-3.357,7.5-7.5v-22.5h105V182.5z"/>
	<path d="M286.707,369.034l-21.703,16.537l-21.707-16.537c-2.684-2.045-6.405-2.045-9.09,0l-26.252,20
		c-3.295,2.51-3.931,7.216-1.421,10.511c1.476,1.938,3.71,2.955,5.971,2.955c1.584,0,3.182-0.5,4.54-1.534l21.707-16.537
		l21.707,16.537c2.686,2.045,6.405,2.045,9.091,0l21.703-16.537l21.701,16.537c3.297,2.51,8.002,1.875,10.512-1.42
		s1.874-8.001-1.42-10.512l-26.247-20C293.113,366.989,289.393,366.989,286.707,369.034z"/>
	<path d="M262.045,239.034l-26.252-20c-2.684-2.045-6.405-2.045-9.09,0l-21.707,16.537l-21.704-16.537
		c-2.685-2.045-6.406-2.045-9.091,0l-26.248,20c-3.294,2.511-3.93,7.217-1.419,10.512s7.217,3.929,10.511,1.42l21.701-16.537
		l21.703,16.537c2.685,2.044,6.405,2.046,9.09,0l21.708-16.537l21.707,16.537c1.357,1.034,2.955,1.535,4.539,1.534
		c2.261,0,4.496-1.018,5.972-2.955C265.977,246.25,265.34,241.544,262.045,239.034z"/>
</g>
<g>
</g>
<g>
</g>
<g>
</g>
<g>
</g>
<g>
</g>
<g>
</g>
<g>
</g>
<g>
</g>
<g>
</g>
<g>
</g>
<g>
</g>
<g>
</g>
<g>
</g>
<g>
</g>
<g>
</g>
</svg>
