<?xml version="1.0" encoding="iso-8859-1"?>
<!-- Generator: Adobe Illustrator 19.0.0, SVG Export Plug-In . SVG Version: 6.00 Build 0)  -->
<svg version="1.1" id="Capa_1" xmlns="http://www.w3.org/2000/svg" xmlns:xlink="http://www.w3.org/1999/xlink" x="0px" y="0px"
	 viewBox="0 0 470 470" style="enable-background:new 0 0 470 470;" xml:space="preserve">
<g>
	<path d="M415.986,340.616c-0.061-1.829-0.787-3.572-2.043-4.902c-65.915-69.793-69.489-178.14-8.312-252.023
		c1.168-1.411,1.779-3.2,1.719-5.03l-2.354-71.407C404.863,3.209,401.546,0,397.5,0h-325c-4.046,0-7.363,3.209-7.496,7.253
		L62.65,78.66c-0.06,1.83,0.551,3.619,1.719,5.03c61.177,73.884,57.603,182.23-8.312,252.023c-1.256,1.33-1.983,3.073-2.043,4.902
		l-4.01,121.637c-0.067,2.031,0.693,4.002,2.106,5.462c1.413,1.461,3.358,2.285,5.39,2.285h355c2.032,0,3.977-0.824,5.39-2.285
		c1.413-1.46,2.173-3.431,2.106-5.462L415.986,340.616z M224.519,342.479c-4.142,0-7.5,3.357-7.5,7.5v49.588
		c-5.351-2.202-10.378-5.027-15-8.384V15h15v304.979c0,4.143,3.358,7.5,7.5,7.5s7.5-3.357,7.5-7.5V15h85v317.5
		c0,39.977-32.523,72.5-72.5,72.5c-4.264,0-8.436-0.392-12.5-1.101v-53.92C232.019,345.837,228.661,342.479,224.519,342.479z
		 M172.019,332.5V15h15v361.586C177.623,364.359,172.019,349.076,172.019,332.5z M65.251,455l3.662-111.081
		c68.581-74.65,72.342-188.669,8.821-267.576L79.757,15h77.262v317.5c0,27.383,12.647,51.864,32.403,67.921
		c0.284,0.264,0.582,0.511,0.904,0.729c9.293,7.352,20.108,12.857,31.887,15.965c0.279,0.091,0.565,0.165,0.857,0.223
		c6.866,1.736,14.051,2.663,21.448,2.663c48.248,0,87.5-39.252,87.5-87.5V15h58.224l2.022,61.343
		c-63.521,78.907-59.76,192.926,8.821,267.576L404.749,455H65.251z"/>
	<path d="M274.52,237.178c14.46,0,26.505-11.31,27.42-25.748c0.262-4.134-2.876-7.697-7.01-7.96
		c-4.139-0.248-7.698,2.877-7.959,7.011c-0.416,6.56-5.885,11.697-12.45,11.697c-6.893,0-12.5-5.607-12.5-12.5
		c0-6.565,5.138-12.035,11.697-12.45c4.134-0.263,7.272-3.826,7.01-7.96c-0.262-4.134-3.82-7.249-7.959-7.011
		c-14.438,0.915-25.748,12.96-25.749,27.421C247.019,224.841,259.356,237.178,274.52,237.178z"/>
</g>
<g>
</g>
<g>
</g>
<g>
</g>
<g>
</g>
<g>
</g>
<g>
</g>
<g>
</g>
<g>
</g>
<g>
</g>
<g>
</g>
<g>
</g>
<g>
</g>
<g>
</g>
<g>
</g>
<g>
</g>
</svg>
