<?xml version="1.0" encoding="iso-8859-1"?>
<!-- Generator: Adobe Illustrator 19.0.0, SVG Export Plug-In . SVG Version: 6.00 Build 0)  -->
<svg version="1.1" id="Capa_1" xmlns="http://www.w3.org/2000/svg" xmlns:xlink="http://www.w3.org/1999/xlink" x="0px" y="0px"
	 viewBox="0 0 470 470" style="enable-background:new 0 0 470 470;" xml:space="preserve">
<g>
	<path d="M462.5,317.5H254.245c-3.484-17.096-18.635-30-36.745-30h-45c-9.777,0-18.114-6.271-21.21-15H425V295
		c0,4.143,3.357,7.5,7.5,7.5s7.5-3.357,7.5-7.5v-67.5h22.5c4.143,0,7.5-3.357,7.5-7.5c0-70.304-57.196-127.5-127.5-127.5
		c-0.37,0-0.74,0.027-1.107,0.082L41.01,137.416C18.397,140.79,0,162.137,0,185v35c0,4.143,3.358,7.5,7.5,7.5H30v25H7.5
		c-4.142,0-7.5,3.357-7.5,7.5s3.358,7.5,7.5,7.5H30v50h-2.5c-4.142,0-7.5,3.357-7.5,7.5v15c0,20.678,16.822,37.5,37.5,37.5h375
		c20.678,0,37.5-16.822,37.5-37.5v-15C470,320.857,466.643,317.5,462.5,317.5z M15,185c0-15.469,12.925-30.466,28.224-32.748
		l299.824-44.751c59.265,0.283,107.842,46.631,111.705,104.999H342.5c-4.143,0-7.5,3.357-7.5,7.5s3.357,7.5,7.5,7.5H425v30H150v-30
		h162.5c4.143,0,7.5-3.357,7.5-7.5s-3.357-7.5-7.5-7.5H15V185z M45,227.5h90V265c0,20.678,16.822,37.5,37.5,37.5h45
		c9.777,0,18.114,6.271,21.21,15H45V227.5z M455,340c0,12.406-10.094,22.5-22.5,22.5h-375C45.093,362.5,35,352.406,35,340v-7.5h420
		V340z"/>
	<circle cx="90" cy="265" r="15"/>
</g>
<g>
</g>
<g>
</g>
<g>
</g>
<g>
</g>
<g>
</g>
<g>
</g>
<g>
</g>
<g>
</g>
<g>
</g>
<g>
</g>
<g>
</g>
<g>
</g>
<g>
</g>
<g>
</g>
<g>
</g>
</svg>
