<?xml version="1.0" encoding="iso-8859-1"?>
<!-- Generator: Adobe Illustrator 19.0.0, SVG Export Plug-In . SVG Version: 6.00 Build 0)  -->
<svg version="1.1" id="Capa_1" xmlns="http://www.w3.org/2000/svg" xmlns:xlink="http://www.w3.org/1999/xlink" x="0px" y="0px"
	 viewBox="0 0 470 470" style="enable-background:new 0 0 470 470;" xml:space="preserve">
<g>
	<path d="M37.5,100.9c10.188,0,34.121-4.191,57.184-10H442.5c15.163,0,27.5-12.337,27.5-27.5s-12.337-27.5-27.5-27.5H94.684
		c-23.063-5.809-46.995-10-57.184-10C16.822,25.9,0,42.723,0,63.4S16.822,100.9,37.5,100.9z M101.25,50.9h75v25h-75V50.9z M455,63.4
		c0,6.893-5.607,12.5-12.5,12.5H191.25v-25H442.5C449.393,50.9,455,56.508,455,63.4z M37.5,40.9c7.218,0,26.876,3.103,48.75,8.372
		v28.256C64.376,82.797,44.718,85.9,37.5,85.9C25.094,85.9,15,75.807,15,63.4S25.094,40.9,37.5,40.9z"/>
	<path d="M432.5,115.9h-395C16.822,115.9,0,132.723,0,153.4V406.6c0,20.678,16.822,37.5,37.5,37.5h395
		c20.678,0,37.5-16.822,37.5-37.5V153.4C470,132.723,453.178,115.9,432.5,115.9z M455,406.6c0,12.406-10.094,22.5-22.5,22.5h-395
		c-12.406,0-22.5-10.094-22.5-22.5V153.4c0-12.406,10.094-22.5,22.5-22.5h395c12.406,0,22.5,10.094,22.5,22.5V406.6z"/>
	<path d="M93.35,145.9c-34.903,0-63.3,28.396-63.3,63.3s28.396,63.3,63.3,63.3c34.904,0,63.301-28.396,63.301-63.3
		S128.254,145.9,93.35,145.9z M93.35,257.5c-26.633,0-48.3-21.667-48.3-48.3s21.667-48.3,48.3-48.3s48.301,21.667,48.301,48.3
		S119.982,257.5,93.35,257.5z"/>
	<path d="M235,145.9c-34.903,0-63.3,28.396-63.3,63.3s28.396,63.3,63.3,63.3s63.3-28.396,63.3-63.3S269.903,145.9,235,145.9z
		 M235,257.5c-26.633,0-48.3-21.667-48.3-48.3s21.667-48.3,48.3-48.3s48.3,21.667,48.3,48.3S261.633,257.5,235,257.5z"/>
	<path d="M376.65,145.9c-34.904,0-63.301,28.396-63.301,63.3s28.396,63.3,63.301,63.3c34.903,0,63.3-28.396,63.3-63.3
		S411.554,145.9,376.65,145.9z M376.65,257.5c-26.633,0-48.301-21.667-48.301-48.3s21.668-48.3,48.301-48.3s48.3,21.667,48.3,48.3
		S403.283,257.5,376.65,257.5z"/>
	<path d="M235,287.5c-34.903,0-63.3,28.396-63.3,63.3s28.396,63.3,63.3,63.3s63.3-28.396,63.3-63.3S269.903,287.5,235,287.5z
		 M235,399.1c-26.633,0-48.3-21.667-48.3-48.3s21.667-48.3,48.3-48.3s48.3,21.667,48.3,48.3S261.633,399.1,235,399.1z"/>
	<path d="M376.65,287.5c-34.904,0-63.301,28.396-63.301,63.3s28.396,63.3,63.301,63.3c34.903,0,63.3-28.396,63.3-63.3
		S411.554,287.5,376.65,287.5z M376.65,399.1c-26.633,0-48.301-21.667-48.301-48.3s21.668-48.3,48.301-48.3s48.3,21.667,48.3,48.3
		S403.283,399.1,376.65,399.1z"/>
	<path d="M138.269,316.875c-3.606,2.037-4.879,6.612-2.842,10.219c4.071,7.208,6.224,15.405,6.224,23.706
		c0,26.633-21.668,48.3-48.301,48.3s-48.3-21.667-48.3-48.3s21.667-48.3,48.3-48.3c8.301,0,16.498,2.151,23.706,6.223
		c3.608,2.038,8.182,0.765,10.219-2.842s0.765-8.182-2.842-10.219c-9.454-5.34-20.202-8.162-31.083-8.162
		c-34.903,0-63.3,28.396-63.3,63.3s28.396,63.3,63.3,63.3c34.904,0,63.301-28.396,63.301-63.3c0-10.88-2.822-21.629-8.163-31.083
		C146.451,316.11,141.876,314.839,138.269,316.875z"/>
</g>
<g>
</g>
<g>
</g>
<g>
</g>
<g>
</g>
<g>
</g>
<g>
</g>
<g>
</g>
<g>
</g>
<g>
</g>
<g>
</g>
<g>
</g>
<g>
</g>
<g>
</g>
<g>
</g>
<g>
</g>
</svg>
