<?xml version="1.0" encoding="iso-8859-1"?>
<!-- Generator: Adobe Illustrator 19.0.0, SVG Export Plug-In . SVG Version: 6.00 Build 0)  -->
<svg version="1.1" id="Capa_1" xmlns="http://www.w3.org/2000/svg" xmlns:xlink="http://www.w3.org/1999/xlink" x="0px" y="0px"
	 viewBox="0 0 470 470" style="enable-background:new 0 0 470 470;" xml:space="preserve">
<g>
	<path d="M137.5,102.89c4.143,0,7.5-3.358,7.5-7.5V17.5h180V95.39c0,4.142,3.357,7.5,7.5,7.5s7.5-3.358,7.5-7.5V10
		c0-4.142-3.357-7.5-7.5-7.5h-195c-4.143,0-7.5,3.358-7.5,7.5V95.39C130,99.532,133.357,102.89,137.5,102.89z"/>
	<path d="M37.5,287.5c4.143,0,7.5-3.358,7.5-7.5V260.39c0-6.956,2.963-18.39,6.342-24.47l40.571-73.03h286.174l40.572,73.03
		C422.037,242,425,253.434,425,260.39V280c0,4.142,3.357,7.5,7.5,7.5s7.5-3.358,7.5-7.5V260.39c0-9.501-3.614-23.45-8.229-31.754
		l-37.898-68.218C403.375,156.082,410,146.498,410,135.39v-20c0-15.164-12.337-27.5-27.5-27.5h-20c-4.143,0-7.5,3.358-7.5,7.5
		c0,0.805,0.13,1.578,0.365,2.305C355.13,98.421,355,99.195,355,100v25.39c0,4.142,3.357,7.5,7.5,7.5s7.5-3.358,7.5-7.5v-22.5h12.5
		c6.893,0,12.5,5.607,12.5,12.5v20c0,6.893-5.607,12.5-12.5,12.5H340v-22.5c0-4.142-3.357-7.5-7.5-7.5h-195
		c-4.143,0-7.5,3.358-7.5,7.5v22.5H87.5c-6.893,0-12.5-5.607-12.5-12.5v-20c0-6.893,5.607-12.5,12.5-12.5H100v22.5
		c0,4.142,3.357,7.5,7.5,7.5s7.5-3.358,7.5-7.5v-30c0-4.142-3.357-7.5-7.5-7.5h-20c-15.163,0-27.5,12.336-27.5,27.5v20
		c0,11.108,6.625,20.692,16.127,25.028l-37.897,68.217C33.614,236.94,30,250.888,30,260.39V280C30,284.143,33.357,287.5,37.5,287.5z
		 M145,132.89h180v15H145V132.89z"/>
	<path d="M354.848,192.89c4.143,0,7.5-3.358,7.5-7.5s-3.357-7.5-7.5-7.5H115.152c-4.143,0-7.5,3.358-7.5,7.5s3.357,7.5,7.5,7.5
		H354.848z"/>
	<path d="M379.015,215.39c0-4.142-3.357-7.5-7.5-7.5H98.485c-4.143,0-7.5,3.358-7.5,7.5s3.357,7.5,7.5,7.5h273.029
		C375.657,222.89,379.015,219.532,379.015,215.39z"/>
	<path d="M192.5,237.89c-4.143,0-7.5,3.358-7.5,7.5s3.357,7.5,7.5,7.5h85c4.143,0,7.5-3.358,7.5-7.5s-3.357-7.5-7.5-7.5H192.5z"/>
	<path d="M262.045,389.035l-26.252-20c-2.684-2.046-6.406-2.046-9.09,0l-21.707,16.537l-21.703-16.537
		c-2.686-2.046-6.406-2.045-9.092,0l-26.247,20c-3.294,2.51-3.93,7.216-1.42,10.511c2.511,3.293,7.214,3.93,10.512,1.419
		l21.701-16.536l21.703,16.537c2.686,2.046,6.407,2.046,9.091,0l21.707-16.537l21.707,16.537c1.357,1.035,2.955,1.535,4.539,1.535
		c2.261,0,4.496-1.019,5.972-2.956C265.977,396.25,265.34,391.545,262.045,389.035z"/>
	<path d="M462.5,347.5c4.143,0,7.5-3.358,7.5-7.5v-30c0-4.142-3.357-7.5-7.5-7.5H7.5c-4.143,0-7.5,3.358-7.5,7.5v150
		c0,4.142,3.357,7.5,7.5,7.5h455c4.143,0,7.5-3.358,7.5-7.5v-30c0-4.142-3.357-7.5-7.5-7.5H410v-15h52.5c4.143,0,7.5-3.358,7.5-7.5
		s-3.357-7.5-7.5-7.5H410v-15h52.5c4.143,0,7.5-3.358,7.5-7.5s-3.357-7.5-7.5-7.5H410v-15H462.5z M312.5,362.5
		c-4.143,0-7.5,3.358-7.5,7.5v82.5H105v-135h200V340c0,4.142,3.357,7.5,7.5,7.5s7.5-3.358,7.5-7.5v-22.5h15v135h-15V370
		C320,365.858,316.643,362.5,312.5,362.5z M90,452.5H75v-135h15V452.5z M15,317.5h45v135H15V317.5z M455,437.5v15H350v-135h105v15
		h-45V330c0-4.142-3.357-7.5-7.5-7.5s-7.5,3.358-7.5,7.5v110c0,4.142,3.357,7.5,7.5,7.5s7.5-3.358,7.5-7.5v-2.5H455z"/>
</g>
<g>
</g>
<g>
</g>
<g>
</g>
<g>
</g>
<g>
</g>
<g>
</g>
<g>
</g>
<g>
</g>
<g>
</g>
<g>
</g>
<g>
</g>
<g>
</g>
<g>
</g>
<g>
</g>
<g>
</g>
</svg>
