<?xml version="1.0" encoding="iso-8859-1"?>
<!-- Generator: Adobe Illustrator 19.0.0, SVG Export Plug-In . SVG Version: 6.00 Build 0)  -->
<svg version="1.1" id="Capa_1" xmlns="http://www.w3.org/2000/svg" xmlns:xlink="http://www.w3.org/1999/xlink" x="0px" y="0px"
	 viewBox="0 0 470 470" style="enable-background:new 0 0 470 470;" xml:space="preserve">
<g>
	<path d="M235,343.798c4.142,0,7.5-3.358,7.5-7.5V83.45c0-4.142-3.358-7.5-7.5-7.5s-7.5,3.358-7.5,7.5v252.848
		C227.5,340.44,230.857,343.798,235,343.798z"/>
	<path d="M462.5,90.527H440v-52.5c0-4.142-3.357-7.5-7.5-7.5H263.732c-10.816,0-21.035,4.135-28.733,11.373
		c-7.698-7.238-17.917-11.373-28.732-11.373H37.5c-4.142,0-7.5,3.358-7.5,7.5v52.5H7.5c-4.142,0-7.5,3.358-7.5,7.5v321.535
		c0,4.142,3.358,7.5,7.5,7.5h197.336l8.396,9.793c1.425,1.663,3.505,2.619,5.694,2.619l32.153-0.003c2.189,0,4.27-0.957,5.694-2.62
		l8.389-9.789H462.5c4.143,0,7.5-3.358,7.5-7.5V98.027C470,93.885,466.643,90.527,462.5,90.527z M45,45.527h161.267
		c9.056,0,17.462,4.514,22.487,12.075c1.39,2.092,3.735,3.349,6.247,3.349c2.511,0,4.856-1.257,6.247-3.349
		c5.023-7.561,13.43-12.074,22.485-12.074H425v306.535H263.732c-10.817,0-21.035,4.131-28.733,11.364
		c-7.699-7.232-17.917-11.364-28.732-11.364H45V45.527z M455,412.062H263.732c-3.839,0-7.414,1.824-9.675,4.907l-6.429,7.502
		l-25.254,0.002l-6.432-7.502c-2.264-3.084-5.84-4.909-9.675-4.909H15V105.527h15v254.035c0,4.142,3.358,7.5,7.5,7.5h168.767
		c8.344,0,16.129,3.835,21.233,10.343v10.42c-6.34-3.718-13.637-5.763-21.233-5.763H37.5c-4.142,0-7.5,3.358-7.5,7.5
		s3.358,7.5,7.5,7.5h168.767c9.057,0,17.464,4.51,22.488,12.063c0.166,0.247,0.34,0.473,0.523,0.69
		c0.051,0.061,0.107,0.117,0.16,0.176c0.137,0.151,0.278,0.297,0.427,0.437c0.068,0.064,0.136,0.126,0.206,0.187
		c0.157,0.137,0.32,0.267,0.488,0.391c0.057,0.042,0.112,0.087,0.17,0.127c0.234,0.163,0.476,0.314,0.728,0.449
		c0.25,0.134,0.506,0.249,0.767,0.353c0.063,0.025,0.127,0.047,0.191,0.07c0.203,0.075,0.411,0.141,0.622,0.198
		c0.078,0.021,0.156,0.042,0.235,0.06c0.208,0.049,0.419,0.088,0.633,0.119c0.076,0.011,0.151,0.026,0.227,0.034
		c0.285,0.033,0.574,0.054,0.867,0.054c0.295,0,0.583-0.021,0.867-0.054c0.078-0.009,0.154-0.024,0.232-0.035
		c0.212-0.031,0.422-0.07,0.628-0.118c0.08-0.019,0.159-0.04,0.239-0.061c0.21-0.057,0.415-0.123,0.617-0.197
		c0.065-0.024,0.131-0.046,0.195-0.072c0.259-0.103,0.511-0.217,0.755-0.347c0.263-0.141,0.504-0.292,0.737-0.454
		c0.06-0.042,0.116-0.087,0.175-0.131c0.167-0.123,0.328-0.251,0.484-0.387c0.07-0.061,0.139-0.124,0.207-0.188
		c0.149-0.14,0.29-0.286,0.427-0.438c0.053-0.058,0.107-0.114,0.158-0.174c0.185-0.218,0.358-0.444,0.517-0.682
		c5.029-7.561,13.435-12.071,22.494-12.071H432.5c4.143,0,7.5-3.358,7.5-7.5s-3.357-7.5-7.5-7.5H263.732
		c-7.596,0-14.893,2.044-21.232,5.762v-10.419c5.102-6.508,12.887-10.343,21.232-10.343H432.5c4.143,0,7.5-3.358,7.5-7.5V105.527h15
		V412.062z"/>
	<path d="M151.25,131.294H205c4.142,0,7.5-3.358,7.5-7.5V68.027c0-4.142-3.358-7.5-7.5-7.5h-53.75c-4.142,0-7.5,3.358-7.5,7.5
		v55.767C143.75,127.936,147.108,131.294,151.25,131.294z M158.75,75.527h38.75v40.767h-38.75V75.527z"/>
	<path d="M67.5,131.294h53.75c4.142,0,7.5-3.358,7.5-7.5V68.027c0-4.142-3.358-7.5-7.5-7.5H67.5c-4.142,0-7.5,3.358-7.5,7.5v55.767
		C60,127.936,63.358,131.294,67.5,131.294z M75,75.527h38.75v40.767H75V75.527z"/>
	<path d="M151.25,277.062H205c4.142,0,7.5-3.358,7.5-7.5v-55.768c0-4.142-3.358-7.5-7.5-7.5h-53.75c-4.142,0-7.5,3.358-7.5,7.5
		v55.768C143.75,273.704,147.108,277.062,151.25,277.062z M158.75,221.294h38.75v40.768h-38.75V221.294z"/>
	<path d="M67.5,277.062h53.75c4.142,0,7.5-3.358,7.5-7.5v-55.768c0-4.142-3.358-7.5-7.5-7.5H67.5c-4.142,0-7.5,3.358-7.5,7.5v55.768
		C60,273.704,63.358,277.062,67.5,277.062z M75,221.294h38.75v40.768H75V221.294z"/>
	<path d="M151.25,161.294H205c4.142,0,7.5-3.358,7.5-7.5s-3.358-7.5-7.5-7.5h-53.75c-4.142,0-7.5,3.358-7.5,7.5
		S147.108,161.294,151.25,161.294z"/>
	<path d="M67.5,161.294h53.75c4.142,0,7.5-3.358,7.5-7.5s-3.358-7.5-7.5-7.5H67.5c-4.142,0-7.5,3.358-7.5,7.5
		S63.358,161.294,67.5,161.294z"/>
	<path d="M151.25,307.062H205c4.142,0,7.5-3.358,7.5-7.5s-3.358-7.5-7.5-7.5h-53.75c-4.142,0-7.5,3.358-7.5,7.5
		S147.108,307.062,151.25,307.062z"/>
	<path d="M67.5,307.062h53.75c4.142,0,7.5-3.358,7.5-7.5s-3.358-7.5-7.5-7.5H67.5c-4.142,0-7.5,3.358-7.5,7.5
		S63.358,307.062,67.5,307.062z"/>
	<path d="M151.25,191.294h26.875c4.142,0,7.5-3.358,7.5-7.5s-3.358-7.5-7.5-7.5H151.25c-4.142,0-7.5,3.358-7.5,7.5
		S147.108,191.294,151.25,191.294z"/>
	<path d="M67.5,191.294h26.875c4.142,0,7.5-3.358,7.5-7.5s-3.358-7.5-7.5-7.5H67.5c-4.142,0-7.5,3.358-7.5,7.5
		S63.358,191.294,67.5,191.294z"/>
	<path d="M151.25,337.062h26.875c4.142,0,7.5-3.358,7.5-7.5s-3.358-7.5-7.5-7.5H151.25c-4.142,0-7.5,3.358-7.5,7.5
		S147.108,337.062,151.25,337.062z"/>
	<path d="M67.5,337.062h26.875c4.142,0,7.5-3.358,7.5-7.5s-3.358-7.5-7.5-7.5H67.5c-4.142,0-7.5,3.358-7.5,7.5
		S63.358,337.062,67.5,337.062z"/>
	<path d="M348.75,131.294h53.75c4.143,0,7.5-3.358,7.5-7.5V68.027c0-4.142-3.357-7.5-7.5-7.5h-53.75c-4.143,0-7.5,3.358-7.5,7.5
		v55.767C341.25,127.936,344.607,131.294,348.75,131.294z M356.25,75.527H395v40.767h-38.75V75.527z"/>
	<path d="M265,131.294h53.75c4.143,0,7.5-3.358,7.5-7.5V68.027c0-4.142-3.357-7.5-7.5-7.5H265c-4.143,0-7.5,3.358-7.5,7.5v55.767
		C257.5,127.936,260.857,131.294,265,131.294z M272.5,75.527h38.75v40.767H272.5V75.527z"/>
	<path d="M348.75,277.062h53.75c4.143,0,7.5-3.358,7.5-7.5v-55.768c0-4.142-3.357-7.5-7.5-7.5h-53.75c-4.143,0-7.5,3.358-7.5,7.5
		v55.768C341.25,273.704,344.607,277.062,348.75,277.062z M356.25,221.294H395v40.768h-38.75V221.294z"/>
	<path d="M265,277.062h53.75c4.143,0,7.5-3.358,7.5-7.5v-55.768c0-4.142-3.357-7.5-7.5-7.5H265c-4.143,0-7.5,3.358-7.5,7.5v55.768
		C257.5,273.704,260.857,277.062,265,277.062z M272.5,221.294h38.75v40.768H272.5V221.294z"/>
	<path d="M348.75,161.294h53.75c4.143,0,7.5-3.358,7.5-7.5s-3.357-7.5-7.5-7.5h-53.75c-4.143,0-7.5,3.358-7.5,7.5
		S344.607,161.294,348.75,161.294z"/>
	<path d="M265,161.294h53.75c4.143,0,7.5-3.358,7.5-7.5s-3.357-7.5-7.5-7.5H265c-4.143,0-7.5,3.358-7.5,7.5
		S260.857,161.294,265,161.294z"/>
	<path d="M348.75,307.062h53.75c4.143,0,7.5-3.358,7.5-7.5s-3.357-7.5-7.5-7.5h-53.75c-4.143,0-7.5,3.358-7.5,7.5
		S344.607,307.062,348.75,307.062z"/>
	<path d="M265,307.062h53.75c4.143,0,7.5-3.358,7.5-7.5s-3.357-7.5-7.5-7.5H265c-4.143,0-7.5,3.358-7.5,7.5
		S260.857,307.062,265,307.062z"/>
	<path d="M348.75,191.294h26.875c4.143,0,7.5-3.358,7.5-7.5s-3.357-7.5-7.5-7.5H348.75c-4.143,0-7.5,3.358-7.5,7.5
		S344.607,191.294,348.75,191.294z"/>
	<path d="M265,191.294h26.875c4.143,0,7.5-3.358,7.5-7.5s-3.357-7.5-7.5-7.5H265c-4.143,0-7.5,3.358-7.5,7.5
		S260.857,191.294,265,191.294z"/>
	<path d="M348.75,337.062h26.875c4.143,0,7.5-3.358,7.5-7.5s-3.357-7.5-7.5-7.5H348.75c-4.143,0-7.5,3.358-7.5,7.5
		S344.607,337.062,348.75,337.062z"/>
	<path d="M265,337.062h26.875c4.143,0,7.5-3.358,7.5-7.5s-3.357-7.5-7.5-7.5H265c-4.143,0-7.5,3.358-7.5,7.5
		S260.857,337.062,265,337.062z"/>
</g>
<g>
</g>
<g>
</g>
<g>
</g>
<g>
</g>
<g>
</g>
<g>
</g>
<g>
</g>
<g>
</g>
<g>
</g>
<g>
</g>
<g>
</g>
<g>
</g>
<g>
</g>
<g>
</g>
<g>
</g>
</svg>
