<?xml version="1.0" encoding="iso-8859-1"?>
<!-- Generator: Adobe Illustrator 18.0.0, SVG Export Plug-In . SVG Version: 6.00 Build 0)  -->
<!DOCTYPE svg PUBLIC "-//W3C//DTD SVG 1.1//EN" "http://www.w3.org/Graphics/SVG/1.1/DTD/svg11.dtd">
<svg version="1.1" id="Capa_1" xmlns="http://www.w3.org/2000/svg" xmlns:xlink="http://www.w3.org/1999/xlink" x="0px" y="0px"
	 viewBox="0 0 433.27 433.27" style="enable-background:new 0 0 433.27 433.27;" xml:space="preserve">
<g>
	<path d="M221.67,88.423c-29.563,29.563-29.563,77.666,0,107.229c14.783,14.783,34.196,22.172,53.615,22.172
		c19.414,0,38.835-7.393,53.615-22.172c29.563-29.563,29.563-77.666,0-107.229C299.336,58.86,251.233,58.86,221.67,88.423z
		 M321.121,187.875c-25.274,25.274-66.399,25.274-91.673,0c-25.274-25.274-25.274-66.399,0-91.673
		c12.637-12.637,29.237-18.956,45.836-18.956s33.199,6.318,45.836,18.956C346.396,121.476,346.396,162.6,321.121,187.875z"/>
	<path d="M225.993,157.793c2.976-0.609,4.895-3.515,4.286-6.491c-0.619-3.027-0.933-6.144-0.933-9.265c0-3.038-2.462-5.5-5.5-5.5
		s-5.5,2.462-5.5,5.5c0,3.859,0.389,7.718,1.157,11.469c0.533,2.604,2.824,4.399,5.382,4.399
		C225.25,157.906,225.621,157.869,225.993,157.793z"/>
	<path d="M275.285,187.978c-16.699,0-32.107-9.083-40.212-23.706c-1.473-2.657-4.82-3.616-7.477-2.144
		c-2.657,1.473-3.617,4.82-2.144,7.477c10.042,18.118,29.137,29.373,49.833,29.373c3.038,0,5.5-2.462,5.5-5.5
		S278.322,187.978,275.285,187.978z"/>
	<path d="M320.291,132.773c0.619,3.027,0.933,6.144,0.933,9.265c0,3.038,2.462,5.5,5.5,5.5s5.5-2.462,5.5-5.5
		c0-3.859-0.389-7.718-1.157-11.469c-0.609-2.976-3.512-4.895-6.491-4.286C321.601,126.892,319.682,129.798,320.291,132.773z"/>
	<path d="M269.785,90.599c0,3.038,2.462,5.5,5.5,5.5c16.169,0,30.85,8.257,39.271,22.087c1.036,1.701,2.847,2.641,4.703,2.641
		c0.975,0,1.961-0.259,2.855-0.803c2.594-1.58,3.417-4.963,1.837-7.558c-10.433-17.136-28.626-27.367-48.666-27.367
		C272.247,85.099,269.785,87.561,269.785,90.599z"/>
	<path d="M417.767,258.965l-62.686-62.686c25.536-37.538,21.698-89.219-11.56-122.477c-4.557-4.557-9.491-8.603-14.729-12.108V5.5
		c0-3.038-2.462-5.5-5.5-5.5H15.711c-3.038,0-5.5,2.462-5.5,5.5v422.27c0,3.038,2.462,5.5,5.5,5.5h307.58c3.038,0,5.5-2.462,5.5-5.5
		V222.381c0.255-0.171,0.506-0.349,0.76-0.522l62.661,62.661c3.523,3.523,8.149,5.284,12.777,5.284
		c4.627,0,9.255-1.762,12.777-5.284c3.413-3.413,5.292-7.951,5.292-12.778S421.18,262.378,417.767,258.965z M335.742,202.496
		c-16.149,16.149-37.62,25.042-60.458,25.042s-44.309-8.894-60.458-25.042c-16.149-16.149-25.042-37.62-25.042-60.458
		s8.894-44.309,25.042-60.458c16.149-16.149,37.62-25.042,60.458-25.042s44.309,8.894,60.458,25.042
		C369.079,114.917,369.079,169.159,335.742,202.496z M317.791,422.27H21.211V11h296.58v44.356
		c-13.064-6.42-27.523-9.818-42.506-9.818c-10.562,0-20.864,1.688-30.602,4.932h-17.132c-3.038,0-5.5,2.462-5.5,5.5
		c0,1.712,0.782,3.241,2.009,4.249c-6.091,3.83-11.798,8.37-17.011,13.583c-1.732,1.732-3.389,3.518-4.971,5.355
		c0.177-0.54,0.277-1.116,0.277-1.716c0-3.038-2.462-5.5-5.5-5.5h-59.127c-3.038,0-5.5,2.462-5.5,5.5s2.462,5.5,5.5,5.5h59.127
		c0.973,0,1.886-0.255,2.679-0.699c-2.822,3.56-5.371,7.291-7.64,11.168h-54.163c-3.038,0-5.5,2.462-5.5,5.5s2.462,5.5,5.5,5.5
		h48.642c-1.444,3.411-2.688,6.906-3.727,10.47h-44.915c-3.038,0-5.5,2.462-5.5,5.5s2.462,5.5,5.5,5.5h42.397
		c-0.578,3.446-0.969,6.94-1.173,10.47h-41.224c-3.038,0-5.5,2.462-5.5,5.5s2.462,5.5,5.5,5.5h41.201
		c0.19,3.53,0.571,7.023,1.135,10.47h-42.337c-3.038,0-5.5,2.462-5.5,5.5s2.462,5.5,5.5,5.5h44.806
		c1.023,3.563,2.248,7.058,3.675,10.47h-48.481c-3.038,0-5.5,2.462-5.5,5.5s2.462,5.5,5.5,5.5h53.943
		c2.195,3.789,4.652,7.442,7.373,10.932c-0.672-0.293-1.413-0.457-2.192-0.457h-59.127c-3.038,0-5.5,2.462-5.5,5.5
		s2.462,5.5,5.5,5.5h59.127c3.038,0,5.5-2.462,5.5-5.5c0-0.404-0.046-0.796-0.129-1.175c1.538,1.776,3.145,3.506,4.823,5.184
		c5.145,5.145,10.768,9.636,16.77,13.434c-1.085,1.005-1.768,2.437-1.768,4.032c0,3.038,2.462,5.5,5.5,5.5h16.067
		c10.05,3.48,20.718,5.298,31.667,5.298c14.983,0,29.442-3.398,42.506-9.818V422.27z M409.988,276.742
		c-2.757,2.757-7.241,2.757-9.998,0l-61.649-61.649c1.775-1.536,3.503-3.142,5.179-4.819c1.683-1.683,3.264-3.429,4.796-5.202
		l61.672,61.671c1.335,1.335,2.071,3.111,2.071,4.999S411.324,275.406,409.988,276.742z"/>
	<path d="M107.026,29H47.898c-3.038,0-5.5,2.462-5.5,5.5v85.882c0,3.038,2.462,5.5,5.5,5.5h59.127c3.038,0,5.5-2.462,5.5-5.5V34.5
		C112.526,31.462,110.063,29,107.026,29z M101.526,114.882H53.398V40h48.127V114.882z"/>
	<path d="M107.026,136.353H47.898c-3.038,0-5.5,2.462-5.5,5.5s2.462,5.5,5.5,5.5h59.127c3.038,0,5.5-2.462,5.5-5.5
		S110.063,136.353,107.026,136.353z"/>
	<path d="M107.026,157.824H47.898c-3.038,0-5.5,2.462-5.5,5.5s2.462,5.5,5.5,5.5h59.127c3.038,0,5.5-2.462,5.5-5.5
		S110.063,157.824,107.026,157.824z"/>
	<path d="M107.026,179.294H47.898c-3.038,0-5.5,2.462-5.5,5.5s2.462,5.5,5.5,5.5h59.127c3.038,0,5.5-2.462,5.5-5.5
		S110.063,179.294,107.026,179.294z"/>
	<path d="M107.026,200.765H47.898c-3.038,0-5.5,2.462-5.5,5.5s2.462,5.5,5.5,5.5h59.127c3.038,0,5.5-2.462,5.5-5.5
		S110.063,200.765,107.026,200.765z"/>
	<path d="M107.026,222.235H47.898c-3.038,0-5.5,2.462-5.5,5.5s2.462,5.5,5.5,5.5h59.127c3.038,0,5.5-2.462,5.5-5.5
		S110.063,222.235,107.026,222.235z"/>
	<path d="M107.026,243.706H47.898c-3.038,0-5.5,2.462-5.5,5.5s2.462,5.5,5.5,5.5h59.127c3.038,0,5.5-2.462,5.5-5.5
		S110.063,243.706,107.026,243.706z"/>
	<path d="M107.026,265.177H47.898c-3.038,0-5.5,2.462-5.5,5.5s2.462,5.5,5.5,5.5h59.127c3.038,0,5.5-2.462,5.5-5.5
		S110.063,265.177,107.026,265.177z"/>
	<path d="M107.026,286.647H47.898c-3.038,0-5.5,2.462-5.5,5.5s2.462,5.5,5.5,5.5h59.127c3.038,0,5.5-2.462,5.5-5.5
		S110.063,286.647,107.026,286.647z"/>
	<path d="M107.026,308.118H47.898c-3.038,0-5.5,2.462-5.5,5.5s2.462,5.5,5.5,5.5h59.127c3.038,0,5.5-2.462,5.5-5.5
		S110.063,308.118,107.026,308.118z"/>
	<path d="M107.026,329.588H47.898c-3.038,0-5.5,2.462-5.5,5.5s2.462,5.5,5.5,5.5h59.127c3.038,0,5.5-2.462,5.5-5.5
		S110.063,329.588,107.026,329.588z"/>
	<path d="M107.026,351.059H47.898c-3.038,0-5.5,2.462-5.5,5.5s2.462,5.5,5.5,5.5h59.127c3.038,0,5.5-2.462,5.5-5.5
		S110.063,351.059,107.026,351.059z"/>
	<path d="M107.026,372.53H47.898c-3.038,0-5.5,2.462-5.5,5.5s2.462,5.5,5.5,5.5h59.127c3.038,0,5.5-2.462,5.5-5.5
		S110.063,372.53,107.026,372.53z"/>
	<path d="M107.026,394H47.898c-3.038,0-5.5,2.462-5.5,5.5s2.462,5.5,5.5,5.5h59.127c3.038,0,5.5-2.462,5.5-5.5
		S110.063,394,107.026,394z"/>
	<path d="M137.727,40h59.127c3.038,0,5.5-2.462,5.5-5.5s-2.462-5.5-5.5-5.5h-59.127c-3.038,0-5.5,2.462-5.5,5.5
		S134.689,40,137.727,40z"/>
	<path d="M137.727,61.471h59.127c3.038,0,5.5-2.462,5.5-5.5s-2.462-5.5-5.5-5.5h-59.127c-3.038,0-5.5,2.462-5.5,5.5
		S134.689,61.471,137.727,61.471z"/>
	<path d="M137.727,233.235h59.127c3.038,0,5.5-2.462,5.5-5.5s-2.462-5.5-5.5-5.5h-59.127c-3.038,0-5.5,2.462-5.5,5.5
		S134.689,233.235,137.727,233.235z"/>
	<path d="M132.227,249.206v107.353c0,3.038,2.462,5.5,5.5,5.5h148.957c3.038,0,5.5-2.462,5.5-5.5V249.206c0-3.038-2.462-5.5-5.5-5.5
		H137.727C134.689,243.706,132.227,246.168,132.227,249.206z M143.227,254.706h137.957v96.353H143.227V254.706z"/>
	<path d="M196.854,372.53h-59.127c-3.038,0-5.5,2.462-5.5,5.5s2.462,5.5,5.5,5.5h59.127c3.038,0,5.5-2.462,5.5-5.5
		S199.892,372.53,196.854,372.53z"/>
	<path d="M196.854,394h-59.127c-3.038,0-5.5,2.462-5.5,5.5s2.462,5.5,5.5,5.5h59.127c3.038,0,5.5-2.462,5.5-5.5
		S199.892,394,196.854,394z"/>
	<path d="M227.556,40h59.128c3.038,0,5.5-2.462,5.5-5.5s-2.462-5.5-5.5-5.5h-59.128c-3.038,0-5.5,2.462-5.5,5.5
		S224.518,40,227.556,40z"/>
	<path d="M286.684,372.53h-59.128c-3.038,0-5.5,2.462-5.5,5.5s2.462,5.5,5.5,5.5h59.128c3.038,0,5.5-2.462,5.5-5.5
		S289.721,372.53,286.684,372.53z"/>
	<path d="M286.684,394h-59.128c-3.038,0-5.5,2.462-5.5,5.5s2.462,5.5,5.5,5.5h59.128c3.038,0,5.5-2.462,5.5-5.5
		S289.721,394,286.684,394z"/>
</g>
<g>
</g>
<g>
</g>
<g>
</g>
<g>
</g>
<g>
</g>
<g>
</g>
<g>
</g>
<g>
</g>
<g>
</g>
<g>
</g>
<g>
</g>
<g>
</g>
<g>
</g>
<g>
</g>
<g>
</g>
</svg>
