<?xml version="1.0" encoding="iso-8859-1"?>
<!-- Generator: Adobe Illustrator 18.0.0, SVG Export Plug-In . SVG Version: 6.00 Build 0)  -->
<!DOCTYPE svg PUBLIC "-//W3C//DTD SVG 1.1//EN" "http://www.w3.org/Graphics/SVG/1.1/DTD/svg11.dtd">
<svg version="1.1" id="Capa_1" xmlns="http://www.w3.org/2000/svg" xmlns:xlink="http://www.w3.org/1999/xlink" x="0px" y="0px"
	 viewBox="0 0 438.184 438.184" style="enable-background:new 0 0 438.184 438.184;" xml:space="preserve">
<g>
	<path d="M362.926,206.184h-3.834v-7.5c0-3.038-2.462-5.5-5.5-5.5h-32c-3.038,0-5.5,2.462-5.5,5.5v7.5h-63v-16h20.189
		c12.774,0,23.166-10.392,23.166-23.166V23.166C296.447,10.392,286.055,0,273.281,0H164.902c-12.774,0-23.166,10.392-23.166,23.166
		v143.852c0,12.774,10.392,23.166,23.166,23.166h20.189v16H75.258c-12.774,0-23.166,10.392-23.166,23.166v185.668
		c0,12.774,10.392,23.166,23.166,23.166h287.668c12.774,0,23.166-10.392,23.166-23.166V229.35
		C386.092,216.576,375.7,206.184,362.926,206.184z M327.092,204.184h21v2h-21V204.184z M164.902,11h108.379
		c6.708,0,12.166,5.458,12.166,12.166v67.018H152.736V23.166C152.736,16.458,158.194,11,164.902,11z M152.736,167.018v-65.834
		h132.711v65.834c0,6.708-5.458,12.166-12.166,12.166H164.902C158.194,179.184,152.736,173.726,152.736,167.018z M196.092,190.184
		h46v16h-46V190.184z M63.092,415.018V229.35c0-6.708,5.458-12.166,12.166-12.166h222.834v210H75.258
		C68.549,427.184,63.092,421.726,63.092,415.018z M375.092,415.018c0,6.708-5.458,12.166-12.166,12.166h-53.834v-210h53.834
		c6.708,0,12.166,5.458,12.166,12.166V415.018z"/>
	<path d="M169.236,80.598h99.711c3.038,0,5.5-2.462,5.5-5.5V27.5c0-3.038-2.462-5.5-5.5-5.5h-99.711c-3.038,0-5.5,2.462-5.5,5.5
		v47.598C163.736,78.135,166.199,80.598,169.236,80.598z M174.736,33h88.711v36.598h-88.711V33z"/>
	<path d="M191.11,234.184c-48.523,0-88,39.477-88,88s39.477,88,88,88s88-39.477,88-88S239.634,234.184,191.11,234.184z
		 M191.11,399.184c-42.458,0-77-34.542-77-77s34.542-77,77-77s77,34.542,77,77S233.568,399.184,191.11,399.184z"/>
	<path d="M191.11,255.454c-36.795,0-66.73,29.935-66.73,66.73c0,36.795,29.935,66.73,66.73,66.73c36.795,0,66.73-29.935,66.73-66.73
		C257.841,285.389,227.906,255.454,191.11,255.454z M191.11,377.914c-30.729,0-55.73-25-55.73-55.73c0-30.729,25-55.73,55.73-55.73
		c30.73,0,55.73,25,55.73,55.73C246.841,352.914,221.84,377.914,191.11,377.914z"/>
	<path d="M191.11,359.598c-2.518,0-5.031-0.25-7.472-0.745c-2.97-0.603-5.879,1.321-6.482,4.299
		c-0.603,2.977,1.322,5.879,4.299,6.482c3.157,0.64,6.406,0.964,9.655,0.964c3.038,0,5.5-2.462,5.5-5.5
		S194.148,359.598,191.11,359.598z"/>
	<path d="M171.761,354.213c-11.312-6.851-18.065-18.824-18.065-32.03c0-3.038-2.462-5.5-5.5-5.5s-5.5,2.462-5.5,5.5
		c0,17.086,8.735,32.578,23.367,41.439c0.891,0.54,1.874,0.796,2.844,0.796c1.86,0,3.676-0.944,4.71-2.652
		C175.189,359.169,174.359,355.787,171.761,354.213z"/>
	<path d="M199.811,274.55c-2.854-0.518-5.781-0.781-8.701-0.781c-3.038,0-5.5,2.462-5.5,5.5s2.462,5.5,5.5,5.5
		c2.262,0,4.528,0.203,6.736,0.604c0.332,0.06,0.663,0.089,0.989,0.089c2.607,0,4.923-1.862,5.405-4.519
		C204.783,277.955,202.8,275.092,199.811,274.55z"/>
	<path d="M216.269,280.812c-2.595-1.581-5.979-0.759-7.559,1.835c-1.581,2.594-0.759,5.978,1.835,7.559
		c11.259,6.859,17.98,18.814,17.98,31.979c0,3.038,2.462,5.5,5.5,5.5s5.5-2.462,5.5-5.5
		C239.525,305.15,230.831,289.684,216.269,280.812z"/>
	<path d="M288.591,220.184h-32c-3.038,0-5.5,2.462-5.5,5.5v20c0,3.038,2.462,5.5,5.5,5.5h32c3.038,0,5.5-2.462,5.5-5.5v-20
		C294.091,222.646,291.629,220.184,288.591,220.184z M283.091,240.184h-21v-9h21V240.184z"/>
	<path d="M103.61,374.184c-9.649,0-17.5,7.851-17.5,17.5s7.851,17.5,17.5,17.5s17.5-7.851,17.5-17.5S113.26,374.184,103.61,374.184z
		 M103.61,398.184c-3.584,0-6.5-2.916-6.5-6.5s2.916-6.5,6.5-6.5s6.5,2.916,6.5,6.5S107.194,398.184,103.61,398.184z"/>
</g>
<g>
</g>
<g>
</g>
<g>
</g>
<g>
</g>
<g>
</g>
<g>
</g>
<g>
</g>
<g>
</g>
<g>
</g>
<g>
</g>
<g>
</g>
<g>
</g>
<g>
</g>
<g>
</g>
<g>
</g>
</svg>
