<?xml version="1.0" encoding="iso-8859-1"?>
<!-- Generator: Adobe Illustrator 18.0.0, SVG Export Plug-In . SVG Version: 6.00 Build 0)  -->
<!DOCTYPE svg PUBLIC "-//W3C//DTD SVG 1.1//EN" "http://www.w3.org/Graphics/SVG/1.1/DTD/svg11.dtd">
<svg version="1.1" id="Capa_1" xmlns="http://www.w3.org/2000/svg" xmlns:xlink="http://www.w3.org/1999/xlink" x="0px" y="0px"
	 viewBox="0 0 468.191 468.191" style="enable-background:new 0 0 468.191 468.191;" xml:space="preserve">
<g>
	<path d="M462.691,66.095h-192c-3.037,0-5.5,2.462-5.5,5.5v89.74h-40.624c2.881-3.888,4.588-8.695,4.588-13.895
		c0-3.082-0.605-6.023-1.692-8.72c3.322-7.359,5.019-15.209,5.019-23.386c0-3.038-2.463-5.5-5.5-5.5h-64.899
		c-4.91-11.658-13.012-20.906-22.891-26.097V42.095h1.5c3.037,0,5.5-2.462,5.5-5.5s-2.463-5.5-5.5-5.5h-40
		c-3.037,0-5.5,2.462-5.5,5.5s2.463,5.5,5.5,5.5h1.5v8h-2.559c-21.748,0-39.441,17.693-39.441,39.441
		c0,10.535,4.103,20.439,11.552,27.889l3.943,3.944c-0.977,4.573-1.495,9.344-1.495,14.226c0,9.093,1.745,17.836,5.083,25.74H33.731
		c-2.694,0-4.992,1.952-5.428,4.612l-28.23,172.49c-0.297,1.813,0.331,3.654,1.674,4.908c1.029,0.962,2.376,1.481,3.754,1.48
		c0.419,0,0.84-0.048,1.257-0.146l39.96-9.376l-3.604,19.521c-0.361,1.953,0.359,3.949,1.885,5.221
		c1.005,0.839,2.256,1.277,3.524,1.277c0.656,0,1.316-0.117,1.949-0.357l15.748-5.974c0.745-0.283,1.493-0.551,2.241-0.821v52.578
		c0,3.038,2.463,5.5,5.5,5.5s5.5-2.462,5.5-5.5v-56.117c11.607-3.261,23.518-5.155,35.602-5.662l-1.819,9.855
		c-0.361,1.953,0.359,3.949,1.885,5.221c1.005,0.839,2.256,1.277,3.524,1.277c0.656,0,1.316-0.117,1.949-0.357l31.049-11.777
		c7.635-2.896,15.647-4.365,23.815-4.365s16.181,1.469,23.816,4.365l31.048,11.776c1.855,0.704,3.948,0.353,5.474-0.92
		c1.525-1.272,2.246-3.268,1.885-5.221l-1.818-9.846c12.043,0.51,23.968,2.418,35.59,5.676v56.094c0,3.038,2.463,5.5,5.5,5.5
		s5.5-2.462,5.5-5.5v-52.592c0.74,0.268,1.487,0.544,2.247,0.831l15.75,5.98c0.634,0.241,1.295,0.358,1.951,0.358
		c1.268,0,2.52-0.438,3.524-1.277c1.525-1.272,2.246-3.269,1.885-5.222l-3.605-19.523l9.702,2.277l-7.369,93.584
		c-0.238,3.028,2.023,5.676,5.052,5.915c0.146,0.012,0.293,0.017,0.438,0.017c2.842,0,5.25-2.187,5.478-5.069l7.237-91.905
		l19.425,4.558c0.416,0.098,0.837,0.146,1.256,0.146c1.378,0,2.725-0.519,3.754-1.48c1.343-1.254,1.971-3.095,1.674-4.907
		l-4.636-28.342h60.044l9.601,121.932c0.228,2.882,2.636,5.069,5.478,5.069c0.145,0,0.291-0.006,0.438-0.017
		c3.028-0.238,5.29-2.886,5.052-5.915l-9.533-121.068h45.389c3.037,0,5.5-2.462,5.5-5.5v-233
		C468.191,68.558,465.728,66.095,462.691,66.095z M218.154,147.44c0,6.833-5.56,12.392-12.393,12.392s-12.392-5.559-12.392-12.392
		s5.559-12.392,12.392-12.392S218.154,140.607,218.154,147.44z M219.555,128.564c-3.87-2.836-8.639-4.515-13.793-4.515
		c-12.898,0-23.392,10.494-23.392,23.392c0,4.659,1.375,9.001,3.732,12.652c-3.454,0.817-7.003,1.243-10.622,1.243
		c-6.234,0-12.273-1.222-17.949-3.633c-15.333-6.511-25.783-20.626-27.724-36.867h91.353
		C220.85,123.465,220.312,126.044,219.555,128.564z M71.191,89.536c0-15.683,12.759-28.441,28.441-28.441h2.559v22.643
		c-9.969,5.235-17.923,14.461-22.769,25.805C74.115,104.183,71.191,97.085,71.191,89.536z M85.191,135.595
		c0-19.768,9.892-37.166,24.613-43.292c2.051-0.853,3.387-2.857,3.387-5.078v-45.13h15v45.13c0,2.222,1.337,4.226,3.39,5.079
		c7.486,3.111,13.909,9.331,18.326,17.531h-25.926c-3.037,0-5.5,2.462-5.5,5.5c0,18.462,8.853,35.415,23.326,46H91.459
		C87.354,153.746,85.191,144.915,85.191,135.595z M288.606,344.701c-3.493-1.321-6.775-2.448-10.024-3.442
		c-14.536-4.481-29.571-6.949-44.757-7.364l-14.136-76.566c-0.553-2.987-3.413-4.964-6.407-4.41
		c-2.986,0.552-4.961,3.42-4.409,6.407l16.227,87.89l-21.915-8.312c-8.887-3.371-18.212-5.08-27.718-5.08s-18.831,1.709-27.717,5.08
		l-21.916,8.313l16.226-87.89c0.552-2.987-1.423-5.856-4.41-6.407c-2.988-0.553-5.856,1.424-6.406,4.41l-14.135,76.565
		c-18.773,0.508-37.183,4.135-54.788,10.813l-6.616,2.509l16.226-87.89c0.552-2.987-1.423-5.856-4.41-6.407
		c-2.985-0.553-5.855,1.424-6.406,4.41l-12.215,66.164l-36.641,8.597l26.146-159.755h226.787v132.26c0,3.038,2.463,5.5,5.5,5.5
		h17.683l6.854,37.12L288.606,344.701z M302.033,323.493l-2.474-13.398h16.521l-1.291,16.391L302.033,323.493z M338.674,332.091
		l-13.05-3.062l1.491-18.933h7.962L338.674,332.091z M457.191,299.095h-181v-222h181V299.095z"/>
	<path d="M284.512,243.095h162.571c3.037,0,5.5-2.462,5.5-5.5s-2.463-5.5-5.5-5.5h-18.702c1.789-2.994,2.836-6.479,2.836-10.213
		c0-3.038-2.463-5.5-5.5-5.5s-5.5,2.462-5.5,5.5c0,4.96-4.035,8.995-8.995,8.995s-8.995-4.035-8.995-8.995s4.035-8.995,8.995-8.995
		c3.037,0,5.5-2.462,5.5-5.5s-2.463-5.5-5.5-5.5c-11.025,0-19.995,8.97-19.995,19.995c0,3.734,1.048,7.219,2.836,10.213H284.512
		c-3.037,0-5.5,2.462-5.5,5.5S281.475,243.095,284.512,243.095z"/>
	<path d="M304.723,201.118c-0.731,3.602-1.135,7.341-1.135,11.168c0,4.162,0.451,8.291,1.34,12.274
		c0.572,2.561,2.844,4.302,5.363,4.302c0.396,0,0.8-0.043,1.203-0.134c2.965-0.662,4.832-3.602,4.17-6.566
		c-0.714-3.197-1.076-6.52-1.076-9.876c0-15.599,7.755-29.306,19.297-34.108c2.051-0.853,3.387-2.856,3.387-5.078v-35.517h10.063
		V173.1c0,2.222,1.338,4.226,3.39,5.079c3.665,1.523,7,3.984,9.912,7.315c1.999,2.288,5.475,2.519,7.761,0.521
		c2.287-1.999,2.52-5.474,0.521-7.761c-3.143-3.595-6.69-6.479-10.583-8.607v-37.564c0-3.038-2.463-5.5-5.5-5.5h-21.063
		c-3.037,0-5.5,2.462-5.5,5.5v37.568c-7.592,4.163-13.725,11.128-17.693,19.652c-3.439-3.988-5.332-9.009-5.332-14.33
		c0-9.875,6.641-18.598,16.147-21.212c2.929-0.805,4.65-3.833,3.845-6.761c-0.805-2.929-3.834-4.65-6.761-3.845
		c-14.268,3.923-24.231,17.007-24.231,31.818c0,8.814,3.433,17.101,9.664,23.332L304.723,201.118z"/>
	<path d="M339.469,195.873c0,12.333,4.726,24.001,13.305,32.855c1.079,1.113,2.514,1.673,3.951,1.673
		c1.378,0,2.758-0.515,3.826-1.55c2.182-2.114,2.236-5.596,0.123-7.777c-5.289-5.458-8.668-12.31-9.791-19.7h77.529
		c3.037,0,5.5-2.462,5.5-5.5s-2.463-5.5-5.5-5.5h-83.443C341.932,190.373,339.469,192.836,339.469,195.873z"/>
</g>
<g>
</g>
<g>
</g>
<g>
</g>
<g>
</g>
<g>
</g>
<g>
</g>
<g>
</g>
<g>
</g>
<g>
</g>
<g>
</g>
<g>
</g>
<g>
</g>
<g>
</g>
<g>
</g>
<g>
</g>
</svg>
