<?xml version="1.0" encoding="iso-8859-1"?>
<!-- Generator: Adobe Illustrator 18.0.0, SVG Export Plug-In . SVG Version: 6.00 Build 0)  -->
<!DOCTYPE svg PUBLIC "-//W3C//DTD SVG 1.1//EN" "http://www.w3.org/Graphics/SVG/1.1/DTD/svg11.dtd">
<svg version="1.1" id="Capa_1" xmlns="http://www.w3.org/2000/svg" xmlns:xlink="http://www.w3.org/1999/xlink" x="0px" y="0px"
	 viewBox="0 0 446 446" style="enable-background:new 0 0 446 446;" xml:space="preserve">
<g>
	<path d="M427.523,29.499H18.476C8.288,29.499,0,37.788,0,47.975v275.69c0,10.188,8.288,18.476,18.476,18.476h68.403l-15.462,67.632
		c-0.678,2.961,1.175,5.91,4.136,6.587c0.412,0.094,0.824,0.14,1.23,0.14c2.508,0,4.774-1.727,5.356-4.275l16.023-70.083h249.677
		l16.023,70.083c0.582,2.549,2.849,4.275,5.356,4.275c0.406,0,0.818-0.045,1.23-0.14c2.961-0.677,4.813-3.626,4.136-6.587
		l-15.462-67.632h68.402c10.188,0,18.477-8.288,18.477-18.476V47.975C446,37.788,437.712,29.499,427.523,29.499z M435,323.666
		c0,4.122-3.354,7.476-7.477,7.476H18.476c-4.122,0-7.476-3.354-7.476-7.476V47.975c0-4.122,3.354-7.476,7.476-7.476h409.048
		c4.123,0,7.477,3.354,7.477,7.476V323.666z"/>
	<path d="M423.565,46.434H22.434c-3.037,0-5.5,2.462-5.5,5.5v267.774c0,3.038,2.463,5.5,5.5,5.5h401.132c3.037,0,5.5-2.462,5.5-5.5
		V51.934C429.065,48.896,426.603,46.434,423.565,46.434z M418.065,314.207H27.934V57.434h390.132V314.207z"/>
	<path d="M101.5,177.499c26.191,0,47.5-21.308,47.5-47.5s-21.309-47.5-47.5-47.5S54,103.808,54,129.999
		S75.309,177.499,101.5,177.499z M138,129.999c0,2.906-0.351,5.729-0.996,8.44l-27.923-11.305l13.462-26.931
		C131.885,106.821,138,117.706,138,129.999z M101.5,93.499c3.911,0,7.677,0.625,11.212,1.769L96.58,127.54
		c-0.686,1.372-0.768,2.968-0.225,4.403c0.542,1.435,1.658,2.578,3.08,3.154l33.433,13.536
		c-6.373,10.688-18.046,17.866-31.369,17.866c-20.126,0-36.5-16.374-36.5-36.5S81.374,93.499,101.5,93.499z"/>
	<path d="M331.054,224.708c-16.062,16.062-16.062,42.197,0,58.26c8.03,8.031,18.58,12.046,29.129,12.046
		c10.55,0,21.1-4.015,29.13-12.046c7.781-7.781,12.066-18.126,12.066-29.13c0-11.004-4.285-21.349-12.066-29.13
		C373.251,208.645,347.113,208.647,331.054,224.708z M338.832,275.189c-11.773-11.774-11.773-30.93-0.001-42.703
		c2.049-2.049,4.325-3.733,6.744-5.069l9.391,28.16c0.399,1.196,1.197,2.219,2.261,2.897l25.028,15.959
		c-0.237,0.254-0.472,0.508-0.719,0.755C369.761,286.962,350.604,286.962,338.832,275.189z M388.184,265.169l-23.4-14.921
		l-8.771-26.302c1.383-0.191,2.776-0.29,4.17-0.29c7.732,0,15.465,2.943,21.352,8.83c5.703,5.703,8.844,13.286,8.844,21.352
		C390.379,257.786,389.622,261.616,388.184,265.169z"/>
	<path d="M173.5,112.499h219c3.037,0,5.5-2.462,5.5-5.5s-2.463-5.5-5.5-5.5h-219c-3.037,0-5.5,2.462-5.5,5.5
		S170.463,112.499,173.5,112.499z"/>
	<path d="M173.5,137.499h162c3.037,0,5.5-2.462,5.5-5.5s-2.463-5.5-5.5-5.5h-162c-3.037,0-5.5,2.462-5.5,5.5
		S170.463,137.499,173.5,137.499z"/>
	<path d="M303.5,222.499h-179c-3.037,0-5.5,2.462-5.5,5.5s2.463,5.5,5.5,5.5h179c3.037,0,5.5-2.462,5.5-5.5
		S306.537,222.499,303.5,222.499z"/>
	<path d="M303.5,245.999h-136c-3.037,0-5.5,2.462-5.5,5.5s2.463,5.5,5.5,5.5h136c3.037,0,5.5-2.462,5.5-5.5
		S306.537,245.999,303.5,245.999z"/>
	<path d="M303.5,269.499h-233c-3.037,0-5.5,2.462-5.5,5.5s2.463,5.5,5.5,5.5h233c3.037,0,5.5-2.462,5.5-5.5
		S306.537,269.499,303.5,269.499z"/>
</g>
<g>
</g>
<g>
</g>
<g>
</g>
<g>
</g>
<g>
</g>
<g>
</g>
<g>
</g>
<g>
</g>
<g>
</g>
<g>
</g>
<g>
</g>
<g>
</g>
<g>
</g>
<g>
</g>
<g>
</g>
</svg>
