<?xml version="1.0" encoding="iso-8859-1"?>
<!-- Generator: Adobe Illustrator 18.0.0, SVG Export Plug-In . SVG Version: 6.00 Build 0)  -->
<!DOCTYPE svg PUBLIC "-//W3C//DTD SVG 1.1//EN" "http://www.w3.org/Graphics/SVG/1.1/DTD/svg11.dtd">
<svg version="1.1" id="Capa_1" xmlns="http://www.w3.org/2000/svg" xmlns:xlink="http://www.w3.org/1999/xlink" x="0px" y="0px"
	 viewBox="0 0 381.201 381.201" style="enable-background:new 0 0 381.201 381.201;" xml:space="preserve">
<g>
	<path d="M367.506,153.821c-3.037,0-5.5,2.462-5.5,5.5c0,116.28-76.893,210.88-171.405,210.88S19.195,275.601,19.195,159.321
		c0-3.038-2.463-5.5-5.5-5.5s-5.5,2.462-5.5,5.5c0,59.063,18.843,114.637,53.057,156.485c34.477,42.17,80.414,65.395,129.349,65.395
		s94.872-23.225,129.349-65.395c34.214-41.849,53.057-97.423,53.057-156.485C373.006,156.283,370.543,153.821,367.506,153.821z"/>
	<path d="M145.771,102.655c0-1.458-0.579-2.858-1.611-3.889c-28.809-28.808-75.685-28.808-104.491,0
		c-1.032,1.032-1.611,2.431-1.611,3.889s0.579,2.858,1.611,3.889c14.404,14.404,33.324,21.606,52.245,21.606
		s37.843-7.202,52.246-21.606C145.191,105.513,145.771,104.114,145.771,102.655z M105.552,89.647
		c0.385,1.145,0.606,2.347,0.606,3.57c0,6.238-5.075,11.313-11.313,11.313s-11.313-5.075-11.313-11.313
		c0-1.617,0.341-3.18,0.984-4.617C91.523,87.776,98.641,88.123,105.552,89.647z M51.705,102.655
		c6.321-5.264,13.444-9.083,20.927-11.48c-0.061,0.676-0.101,1.355-0.101,2.042c0,12.303,10.01,22.313,22.313,22.313
		c12.233,0,22.195-9.897,22.308-22.104c5.302,2.316,10.351,5.383,14.969,9.229C108.906,121.988,74.921,121.987,51.705,102.655z"/>
	<path d="M343.145,102.655c0-1.458-0.579-2.858-1.611-3.889c-13.955-13.955-32.51-21.641-52.246-21.641s-38.291,7.686-52.245,21.641
		c-2.148,2.148-2.148,5.63,0,7.778c13.955,13.955,32.509,21.641,52.245,21.641s38.291-7.686,52.246-21.641
		C342.565,105.513,343.145,104.114,343.145,102.655z M296.673,88.565c0.66,1.452,1.01,3.027,1.01,4.652
		c0,6.238-5.075,11.313-11.313,11.313s-11.313-5.075-11.313-11.313c0-1.248,0.224-2.467,0.613-3.621
		c4.422-0.971,8.981-1.47,13.617-1.47C291.775,88.125,294.239,88.282,296.673,88.565z M289.287,117.186
		c-14.863,0-28.939-5.122-40.213-14.53c4.577-3.819,9.621-6.919,14.987-9.269c0.092,12.225,10.062,22.144,22.309,22.144
		c12.304,0,22.313-10.01,22.313-22.313c0-0.7-0.043-1.394-0.107-2.084c7.603,2.44,14.693,6.323,20.924,11.523
		C318.228,112.063,304.15,117.186,289.287,117.186z"/>
	<path d="M30.007,36.631C54.328,12.311,90.83,4.476,123.002,16.67c17.293,6.554,30.284,22.106,33.904,40.586
		c7.802,39.836,7.454,80.162-1.034,119.859c-0.047,0.22-0.08,0.442-0.1,0.666l-1.359,15.38c-0.694,7.856,1.962,15.699,7.287,21.516
		c5.326,5.817,12.904,9.154,20.791,9.154h22.489c3.037,0,5.5-2.462,5.5-5.5s-2.463-5.5-5.5-5.5h-22.489
		c-4.88,0-9.382-1.982-12.678-5.582c-3.295-3.6-4.873-8.259-4.443-13.12l1.33-15.046c8.731-41.052,9.068-82.75,1.001-123.942
		c-4.346-22.184-19.979-40.866-40.801-48.758C90.691-7.34,49.604,1.478,22.229,28.853c-2.148,2.148-2.148,5.63,0,7.778
		C24.376,38.779,27.86,38.779,30.007,36.631z"/>
	<path d="M227.38,36.631c34.137-34.136,89.678-34.136,123.814,0c1.073,1.074,2.481,1.611,3.889,1.611s2.815-0.537,3.889-1.611
		c2.148-2.148,2.148-5.63,0-7.778c-38.424-38.424-100.945-38.424-139.369,0c-2.148,2.148-2.148,5.63,0,7.778
		C221.749,38.779,225.233,38.779,227.38,36.631z"/>
	<path d="M240.305,285.067c1.986,0,3.905-1.079,4.885-2.963c1.401-2.695,0.353-6.016-2.343-7.417l-36.551-19.006
		c-2.021-1.051-4.485-0.747-6.191,0.769l-9.504,8.448l-9.504-8.448c-1.706-1.515-4.17-1.821-6.191-0.769l-36.551,19.006
		c-2.695,1.401-3.744,4.722-2.343,7.417c1.401,2.694,4.721,3.743,7.417,2.342l33.19-17.259l10.327,9.18
		c2.084,1.853,5.225,1.853,7.309,0l10.327-9.18l33.19,17.259C238.583,284.868,239.45,285.067,240.305,285.067z"/>
	<path d="M174.445,299.827c-3.037,0-5.5,2.462-5.5,5.5s2.463,5.5,5.5,5.5h30.804c3.037,0,5.5-2.462,5.5-5.5s-2.463-5.5-5.5-5.5
		H174.445z"/>
	<circle cx="98.153" cy="197.332" r="6"/>
	<circle cx="250.586" cy="164.49" r="6"/>
	<circle cx="84.654" cy="269.328" r="6"/>
	<path d="M320.18,223.902c0.47-2.01-0.226-4.114-1.802-5.448l-48.99-41.484c-1.809-1.531-4.397-1.733-6.42-0.497
		c-2.023,1.235-3.028,3.627-2.492,5.937l14.504,62.536c0.466,2.011,2.02,3.591,4.021,4.093c0.443,0.111,0.892,0.165,1.336,0.165
		c1.565,0,3.082-0.669,4.141-1.88l9.006-10.301l15.16,24.835c1.036,1.698,2.846,2.635,4.699,2.635c0.977,0,1.966-0.26,2.86-0.807
		c2.593-1.583,3.412-4.967,1.829-7.56l-15.16-24.834l13.279-3.302C318.155,227.49,319.711,225.912,320.18,223.902z M292.947,222.423
		c-1.092,0.271-2.073,0.871-2.813,1.717l-6.866,7.854l-8.329-35.91l28.133,23.822L292.947,222.423z"/>
</g>
<g>
</g>
<g>
</g>
<g>
</g>
<g>
</g>
<g>
</g>
<g>
</g>
<g>
</g>
<g>
</g>
<g>
</g>
<g>
</g>
<g>
</g>
<g>
</g>
<g>
</g>
<g>
</g>
<g>
</g>
</svg>
