<?xml version="1.0" encoding="iso-8859-1"?>
<!-- Generator: Adobe Illustrator 19.0.0, SVG Export Plug-In . SVG Version: 6.00 Build 0)  -->
<svg version="1.1" id="Capa_1" xmlns="http://www.w3.org/2000/svg" xmlns:xlink="http://www.w3.org/1999/xlink" x="0px" y="0px"
	 viewBox="0 0 64 64" style="enable-background:new 0 0 64 64;" xml:space="preserve">
<g>
	<g id="get-customer-feedback-listen-understand_1_">
		<rect x="61" y="44" width="3" height="2"/>
		<path d="M54,33h-2c0,1.71,2.149,3,5,3s5-1.29,5-3h-2c0,0.249-1.064,1-3,1S54,33.249,54,33z"/>
		<rect x="36" y="17" width="2" height="2"/>
		<rect x="32" y="17" width="2" height="2"/>
		<rect x="36" width="2" height="2"/>
		<rect x="40" width="2" height="2"/>
		<rect x="44" width="2" height="2"/>
		<rect x="29" y="40" width="2" height="2"/>
		<rect x="33" y="40" width="2" height="2"/>
		<rect x="37" y="40" width="2" height="2"/>
		<rect x="42" y="44" width="2" height="2"/>
		<rect x="46" y="44" width="2" height="2"/>
		<rect x="62" y="5" width="2" height="2"/>
		<rect x="58" y="16" width="2" height="2"/>
		<rect x="62" y="16" width="2" height="2"/>
		<path d="M37,13v2h14.487c-1.448,1.789-2.484,3.821-3.051,6H37v2h11.054c-0.127,0.993-0.173,2.005-0.113,3.031l0.004,0.068
			C45.139,26.599,43,29.052,43,32c0,3.309,2.691,6,6,6h0.701c1.333,4.371,3.462,8.448,6.293,12.063C55.959,52.79,53.735,55,51,55
			h-8.515c-1.869,0-3.627,0.728-4.95,2.05l-5.242,5.243C32.105,62.48,32,62.735,32,63v1h2v-0.586l4.949-4.949
			C39.895,57.52,41.15,57,42.485,57H51c1.312,0,2.536-0.369,3.586-1l5.707,5.707C60.48,61.895,60.734,62,61,62h3v-2h-2.586
			l-5.27-5.27c0.691-0.751,1.226-1.648,1.538-2.646c0.833,0.922,1.714,1.809,2.644,2.655C60.512,54.907,60.751,55,61,55h3v-2h-2.61
			c-6.729-6.248-10.725-14.719-11.265-23.899l-0.188-3.188c-0.058-0.987-0.014-1.962,0.126-2.914h5.523l-1.293,1.293l1.414,1.414
			l3-3c0.391-0.391,0.391-1.023,0-1.414l-3-3l-1.414,1.414L55.586,21h-5.06c0.621-2.055,1.699-3.959,3.225-5.577
			C56.44,12.571,60.08,11,64,11V9c-3.966,0-7.677,1.414-10.609,4H37z M49,36c-2.206,0-4-1.794-4-4c0-1.882,1.311-3.454,3.064-3.878
			l0.065,1.096c0.136,2.311,0.487,4.577,1.027,6.782H49z"/>
		<path d="M23,42c-1.371,0-2.517,0.93-2.874,2.188L9.738,46.785C9.27,45.736,8.221,45,7,45H3c-1.654,0-3,1.346-3,3v6
			c0,1.302,0.839,2.402,2,2.816V63c0,0.552,0.447,1,1,1h4c0.553,0,1-0.448,1-1v-6.184c0.775-0.276,1.405-0.854,1.738-1.601
			l10.388,2.597C20.483,59.07,21.629,60,23,60c1.654,0,3-1.346,3-3V45C26,43.346,24.654,42,23,42z M6,62H4v-5h2V62z M7,55H3
			c-0.552,0-1-0.449-1-1v-6c0-0.551,0.448-1,1-1h4c0.552,0,1,0.449,1,1v6C8,54.551,7.552,55,7,55z M10,48.781l10-2.5v9.438l-10-2.5
			V48.781z M24,57c0,0.551-0.448,1-1,1s-1-0.449-1-1V45c0-0.551,0.448-1,1-1s1,0.449,1,1V57z"/>
		<path d="M30.192,47.293l-1.531,1.287c0.517,0.614,0.763,1.392,0.693,2.189s-0.446,1.521-1.061,2.037l1.287,1.531
			c1.022-0.859,1.65-2.065,1.766-3.396S31.053,48.317,30.192,47.293z"/>
		<path d="M33.256,44.721l-1.531,1.286c2.482,2.956,2.098,7.38-0.858,9.863l1.287,1.531C35.952,54.209,36.447,48.521,33.256,44.721z
			"/>
		<path d="M23,21c-1.371,0-2.517,0.93-2.874,2.188L9.738,25.785C9.27,24.736,8.221,24,7,24H3c-1.654,0-3,1.346-3,3v6
			c0,1.302,0.839,2.402,2,2.816V42c0,0.552,0.447,1,1,1h4c0.553,0,1-0.448,1-1v-6.184c0.775-0.276,1.405-0.854,1.738-1.601
			l10.388,2.597C20.483,38.07,21.629,39,23,39c1.654,0,3-1.346,3-3V24C26,22.346,24.654,21,23,21z M6,41H4v-5h2V41z M7,34H3
			c-0.552,0-1-0.449-1-1v-6c0-0.551,0.448-1,1-1h4c0.552,0,1,0.449,1,1v6C8,33.551,7.552,34,7,34z M10,27.781l10-2.5v9.438l-10-2.5
			V27.781z M24,36c0,0.551-0.448,1-1,1s-1-0.449-1-1V24c0-0.551,0.448-1,1-1s1,0.449,1,1V36z"/>
		<path d="M31.347,29.943c0.115-1.33-0.294-2.626-1.154-3.649l-1.531,1.287c0.517,0.614,0.763,1.392,0.693,2.189
			s-0.446,1.521-1.061,2.037l1.287,1.531C30.604,32.479,31.231,31.273,31.347,29.943z"/>
		<path d="M33.256,23.721l-1.531,1.286c2.482,2.956,2.098,7.38-0.858,9.863l1.287,1.531C35.952,33.209,36.447,27.521,33.256,23.721z
			"/>
		<path d="M23,0c-1.371,0-2.517,0.93-2.874,2.188L9.738,4.785C9.27,3.736,8.221,3,7,3H3C1.346,3,0,4.346,0,6v6
			c0,1.302,0.839,2.402,2,2.816V21c0,0.552,0.447,1,1,1h4c0.553,0,1-0.448,1-1v-6.184c0.775-0.276,1.405-0.854,1.738-1.601
			l10.388,2.597C20.483,17.07,21.629,18,23,18c1.654,0,3-1.346,3-3V3C26,1.346,24.654,0,23,0z M6,20H4v-5h2V20z M7,13H3
			c-0.552,0-1-0.449-1-1V6c0-0.551,0.448-1,1-1h4c0.552,0,1,0.449,1,1v6C8,12.551,7.552,13,7,13z M10,6.781l10-2.5v9.438l-10-2.5
			V6.781z M24,15c0,0.551-0.448,1-1,1s-1-0.449-1-1V3c0-0.551,0.448-1,1-1s1,0.449,1,1V15z"/>
		<path d="M29.581,12.338c1.022-0.859,1.65-2.065,1.766-3.396s-0.294-2.626-1.154-3.649L28.662,6.58
			c0.517,0.614,0.763,1.392,0.693,2.189s-0.446,1.521-1.061,2.037L29.581,12.338z"/>
		<path d="M30.866,13.87l1.287,1.531c3.799-3.192,4.294-8.88,1.103-12.68l-1.531,1.286C34.207,6.963,33.822,11.388,30.866,13.87z"/>
	</g>
	<g id="Layer_1_12_">
	</g>
</g>
<g>
</g>
<g>
</g>
<g>
</g>
<g>
</g>
<g>
</g>
<g>
</g>
<g>
</g>
<g>
</g>
<g>
</g>
<g>
</g>
<g>
</g>
<g>
</g>
<g>
</g>
<g>
</g>
<g>
</g>
</svg>
