<?xml version="1.0" encoding="iso-8859-1"?>
<!-- Generator: Adobe Illustrator 19.0.0, SVG Export Plug-In . SVG Version: 6.00 Build 0)  -->
<svg version="1.1" id="Capa_1" xmlns="http://www.w3.org/2000/svg" xmlns:xlink="http://www.w3.org/1999/xlink" x="0px" y="0px"
	 viewBox="0 0 64 64" style="enable-background:new 0 0 64 64;" xml:space="preserve">
<g>
	<g id="money-management-divide-cut-budget_1_">
		<path d="M32,0C14.355,0,0,14.355,0,32s14.355,32,32,32s32-14.355,32-32S49.645,0,32,0z M32,62C15.458,62,2,48.542,2,32
			S15.458,2,32,2s30,13.458,30,30S48.542,62,32,62z"/>
		<path d="M44,12.184V11h-2v1.184c-1.161,0.414-2,1.514-2,2.816v2c0,1.654,1.346,3,3,3c0.552,0,1,0.448,1,1v2c0,0.552-0.448,1-1,1
			s-1-0.448-1-1v-1h-2v1c0,1.302,0.839,2.402,2,2.816V27h2v-1.184c1.161-0.414,2-1.514,2-2.816v-2c0-1.654-1.346-3-3-3
			c-0.552,0-1-0.448-1-1v-2c0-0.552,0.448-1,1-1s1,0.448,1,1v1h2v-1C46,13.698,45.161,12.598,44,12.184z"/>
		<path d="M20,25.816V27h2v-1.184c1.161-0.414,2-1.514,2-2.816v-2c0-1.654-1.346-3-3-3c-0.552,0-1-0.448-1-1v-2c0-0.552,0.448-1,1-1
			s1,0.448,1,1v1h2v-1c0-1.302-0.839-2.402-2-2.816V11h-2v1.184c-1.161,0.414-2,1.514-2,2.816v2c0,1.654,1.346,3,3,3
			c0.552,0,1,0.448,1,1v2c0,0.552-0.448,1-1,1s-1-0.448-1-1v-1h-2v1C18,24.302,18.839,25.402,20,25.816z"/>
		<path d="M44,38.184V37h-2v1.184c-1.161,0.414-2,1.514-2,2.816v2c0,1.654,1.346,3,3,3c0.552,0,1,0.448,1,1v2c0,0.552-0.448,1-1,1
			s-1-0.448-1-1v-1h-2v1c0,1.302,0.839,2.402,2,2.816V53h2v-1.184c1.161-0.414,2-1.514,2-2.816v-2c0-1.654-1.346-3-3-3
			c-0.552,0-1-0.448-1-1v-2c0-0.552,0.448-1,1-1s1,0.448,1,1v1h2v-1C46,39.698,45.161,38.598,44,38.184z"/>
		<path d="M22,38.184V37h-2v1.184c-1.161,0.414-2,1.514-2,2.816v2c0,1.654,1.346,3,3,3c0.552,0,1,0.448,1,1v2c0,0.552-0.448,1-1,1
			s-1-0.448-1-1v-1h-2v1c0,1.302,0.839,2.402,2,2.816V53h2v-1.184c1.161-0.414,2-1.514,2-2.816v-2c0-1.654-1.346-3-3-3
			c-0.552,0-1-0.448-1-1v-2c0-0.552,0.448-1,1-1s1,0.448,1,1v1h2v-1C24,39.698,23.161,38.598,22,38.184z"/>
		<rect x="31" y="3" width="2" height="2"/>
		<rect x="31" y="7" width="2" height="2"/>
		<rect x="31" y="11" width="2" height="2"/>
		<rect x="31" y="15" width="2" height="2"/>
		<rect x="31" y="19" width="2" height="2"/>
		<rect x="31" y="23" width="2" height="2"/>
		<rect x="31" y="27" width="2" height="2"/>
		<rect x="31" y="31" width="2" height="2"/>
		<rect x="31" y="35" width="2" height="2"/>
		<rect x="31" y="39" width="2" height="2"/>
		<rect x="31" y="43" width="2" height="2"/>
		<rect x="31" y="47" width="2" height="2"/>
		<rect x="31" y="51" width="2" height="2"/>
		<rect x="31" y="55" width="2" height="2"/>
		<rect x="31" y="59" width="2" height="2"/>
		<rect x="59" y="31" width="2" height="2"/>
		<rect x="55" y="31" width="2" height="2"/>
		<rect x="51" y="31" width="2" height="2"/>
		<rect x="47" y="31" width="2" height="2"/>
		<rect x="43" y="31" width="2" height="2"/>
		<rect x="39" y="31" width="2" height="2"/>
		<rect x="35" y="31" width="2" height="2"/>
		<rect x="27" y="31" width="2" height="2"/>
		<rect x="23" y="31" width="2" height="2"/>
		<rect x="19" y="31" width="2" height="2"/>
		<rect x="15" y="31" width="2" height="2"/>
		<rect x="11" y="31" width="2" height="2"/>
		<rect x="7" y="31" width="2" height="2"/>
		<rect x="3" y="31" width="2" height="2"/>
	</g>
	<g id="Layer_1_17_">
	</g>
</g>
<g>
</g>
<g>
</g>
<g>
</g>
<g>
</g>
<g>
</g>
<g>
</g>
<g>
</g>
<g>
</g>
<g>
</g>
<g>
</g>
<g>
</g>
<g>
</g>
<g>
</g>
<g>
</g>
<g>
</g>
</svg>
