<?xml version="1.0" encoding="iso-8859-1"?>
<!-- Generator: Adobe Illustrator 19.0.0, SVG Export Plug-In . SVG Version: 6.00 Build 0)  -->
<svg version="1.1" id="Capa_1" xmlns="http://www.w3.org/2000/svg" xmlns:xlink="http://www.w3.org/1999/xlink" x="0px" y="0px"
	 viewBox="0 0 63 63" style="enable-background:new 0 0 63 63;" xml:space="preserve">
<g>
	<g id="coffee-break-idea-mug-relax_1_">
		<path d="M59,37v-2h-6c-0.553,0-1,0.447-1,1h-3.62l-4.216-3.747C43.981,32.09,43.745,32,43.5,32H38
			c-0.269,0-0.511,0.109-0.69,0.281C36.426,31.494,35.274,31,34,31h-4v-1c0-0.553-0.447-1-1-1H5c-0.553,0-1,0.447-1,1v28
			c0,2.757,2.243,5,5,5h16c1.641,0,3.088-0.806,4-2.031V61h5c2.757,0,5-2.243,5-5h12c0.266,0,0.52-0.105,0.707-0.293l0.362-0.362
			C52.211,55.726,52.57,56,53,56h6v-2h-5V37H59z M15,34c-1.654,0-3,1.346-3,3v1c0,0.552-0.448,1-1,1s-1-0.448-1-1v-7h10v12
			c0,0.552-0.448,1-1,1s-1-0.448-1-1v-6C18,35.346,16.654,34,15,34z M28,58c0,1.654-1.346,3-3,3H9c-1.654,0-3-1.346-3-3V31h2v7
			c0,1.654,1.346,3,3,3c1.654,0,3-1.346,3-3v-1c0-0.552,0.448-1,1-1s1,0.448,1,1v6c0,1.654,1.346,3,3,3s3-1.346,3-3V31h6V58z M34,33
			c1.654,0,3,1.346,3,3h-2c0-0.553-0.447-1-1-1h-4v-2H34z M33.026,54H33v1h-3V37h2v14C32,52.13,32.391,53.162,33.026,54z M34,59
			h-4.101C29.965,58.677,30,58.342,30,58v-1h4c0.553,0,1-0.447,1-1v-0.424C35.614,55.846,36.288,56,37,56C37,57.654,35.654,59,34,59
			z M51.293,53.293L50.586,54H37c-1.654,0-3-1.346-3-3V38h7v-2h-2v-2h4.12l4.216,3.747C47.519,37.91,47.755,38,48,38h4v15
			C51.734,53,51.48,53.105,51.293,53.293z"/>
		<path d="M19,48c-1.654,0-3,1.346-3,3v1c0,1.654,1.346,3,3,3s3-1.346,3-3v-1C22,49.346,20.654,48,19,48z M20,52
			c0,0.552-0.448,1-1,1s-1-0.448-1-1v-1c0-0.552,0.448-1,1-1s1,0.448,1,1V52z"/>
		<path d="M13,17.06v2.125c-1.161,0.413-2,1.513-2,2.815v1c0,1.654,1.346,3,3,3h2v1h2v-1h2c1.654,0,3-1.346,3-3v-1
			c0-1.302-0.839-2.402-2-2.816V17.06c3.059-1.514,5-4.607,5-8.06c0-4.963-4.037-9-9-9S8,4.037,8,9C8,12.452,9.941,15.546,13,17.06z
			 M21,23c0,0.552-0.448,1-1,1h-6c-0.552,0-1-0.448-1-1v-1c0-0.552,0.448-1,1-1h6c0.552,0,1,0.448,1,1V23z M16,9
			c0-0.552,0.448-1,1-1s1,0.448,1,1s-0.448,1-1,1S16,9.552,16,9z M17,2c3.859,0,7,3.141,7,7c0,2.863-1.718,5.409-4.376,6.486
			C19.247,15.64,19,16.006,19,16.413V19h-1v-7.184c1.161-0.414,2-1.514,2-2.816c0-1.654-1.346-3-3-3c-1.654,0-3,1.346-3,3
			c0,1.302,0.839,2.402,2,2.816V19h-1v-2.587c0-0.407-0.247-0.773-0.624-0.927C11.718,14.409,10,11.863,10,9C10,5.141,13.141,2,17,2
			z"/>
	</g>
	<g id="Layer_1_3_">
	</g>
</g>
<g>
</g>
<g>
</g>
<g>
</g>
<g>
</g>
<g>
</g>
<g>
</g>
<g>
</g>
<g>
</g>
<g>
</g>
<g>
</g>
<g>
</g>
<g>
</g>
<g>
</g>
<g>
</g>
<g>
</g>
</svg>
