<?xml version="1.0" encoding="iso-8859-1"?>
<!-- Generator: Adobe Illustrator 19.0.0, SVG Export Plug-In . SVG Version: 6.00 Build 0)  -->
<svg version="1.1" id="Capa_1" xmlns="http://www.w3.org/2000/svg" xmlns:xlink="http://www.w3.org/1999/xlink" x="0px" y="0px"
	 viewBox="0 0 64 64" style="enable-background:new 0 0 64 64;" xml:space="preserve">
<g>
	<g id="contract-sign-business-startup-docuement_1_">
		<path d="M57.26,55c0,3.859-3.141,7-7,7s-7-3.141-7-7c0-0.553-0.447-1-1-1h-1h-32V2h48v6h2V1c0-0.553-0.447-1-1-1h-50
			c-0.553,0-1,0.447-1,1v53h-5c-0.553,0-1,0.447-1,1c0,4.963,4.037,9,9,9h40c4.963,0,9-4.037,9-9V28h-2V55z M10.26,62
			c-3.521,0-6.442-2.612-6.929-6H8.26h33h0.056c0.269,2.42,1.506,4.546,3.307,6H10.26z"/>
		<path d="M38.26,11c0-2.757-2.243-5-5-5s-5,2.243-5,5s2.243,5,5,5S38.26,13.757,38.26,11z M30.26,11c0-1.654,1.346-3,3-3
			s3,1.346,3,3s-1.346,3-3,3S30.26,12.654,30.26,11z"/>
		<rect x="12.26" y="7" width="13" height="2"/>
		<rect x="12.26" y="11" width="13" height="2"/>
		<rect x="12.26" y="15" width="13" height="2"/>
		<path d="M59.967,10.293c-0.391-0.391-1.023-0.391-1.414,0l-24,24C34.365,34.48,34.26,34.734,34.26,35v5.586L30.846,44H29.26h-16v2
			h16h2h4v-2h-1.586l2-2h5.586c0.266,0,0.52-0.105,0.707-0.293l18-18C63.665,20.009,63.665,13.991,59.967,10.293z M58.553,22.293
			L40.846,40h-3.172l20.293-20.293l-1.414-1.414L36.26,38.586v-3.172l22.953-22.953C61.451,15.394,61.232,19.614,58.553,22.293z"/>
		<rect x="17.26" y="21" width="25" height="2"/>
		<rect x="13.26" y="25" width="25" height="2"/>
		<rect x="13.26" y="29" width="9" height="2"/>
		<rect x="24.26" y="29" width="11" height="2"/>
		<rect x="13.26" y="33" width="19" height="2"/>
		<rect x="37.26" y="48" width="15" height="2"/>
	</g>
	<g id="Layer_1_4_">
	</g>
</g>
<g>
</g>
<g>
</g>
<g>
</g>
<g>
</g>
<g>
</g>
<g>
</g>
<g>
</g>
<g>
</g>
<g>
</g>
<g>
</g>
<g>
</g>
<g>
</g>
<g>
</g>
<g>
</g>
<g>
</g>
</svg>
