<?xml version="1.0" encoding="iso-8859-1"?>
<!-- Generator: Adobe Illustrator 19.0.0, SVG Export Plug-In . SVG Version: 6.00 Build 0)  -->
<svg version="1.1" id="Capa_1" xmlns="http://www.w3.org/2000/svg" xmlns:xlink="http://www.w3.org/1999/xlink" x="0px" y="0px"
	 viewBox="0 0 64 64" style="enable-background:new 0 0 64 64;" xml:space="preserve">
<g>
	<g id="vistion-future-eye-focus-monitor_1_">
		<path d="M63.388,56.078l-19-8C44.265,48.026,44.133,48,44,48h-1v2h0.798L62,57.664V58h2v-1C64,56.598,63.759,56.234,63.388,56.078
			z"/>
		<path d="M19.612,48.078l-19,8C0.241,56.234,0,56.598,0,57v1h2v-0.336L20.202,50H21v-2h-1C19.867,48,19.735,48.026,19.612,48.078z"
			/>
		<path d="M63.755,27.655c0.326-0.376,0.326-0.935,0-1.311C63.176,25.677,49.377,10,32,10S0.824,25.677,0.245,26.345
			c-0.326,0.376-0.326,0.935,0,1.311C0.719,28.202,10.075,38.825,23,42.643V51c0,0.314,0.148,0.611,0.4,0.8l8,6
			c0.178,0.134,0.389,0.2,0.6,0.2c0.211,0,0.422-0.066,0.6-0.2l8-6c0.252-0.188,0.4-0.485,0.4-0.8v-8.357
			C53.925,38.825,63.281,28.202,63.755,27.655z M2.36,27C5.18,24.031,17.503,12,32,12s26.82,12.031,29.64,15
			C58.82,29.969,46.497,42,32,42S5.18,29.969,2.36,27z M39,50.5l-7,5.25l-7-5.25v-7.332C27.248,43.69,29.588,44,32,44
			s4.752-0.31,7-0.832V50.5z"/>
		<path d="M45,27c0-7.168-5.832-13-13-13s-13,5.832-13,13s5.832,13,13,13S45,34.168,45,27z M32,16c5.169,0,9.504,3.588,10.677,8.4
			C40.418,22.535,36.523,20,32,20s-8.418,2.535-10.677,4.4C22.496,19.588,26.831,16,32,16z M42.591,27C41.012,28.499,36.81,32,32,32
			s-9.012-3.501-10.591-5c1.579-1.499,5.781-5,10.591-5S41.012,25.501,42.591,27z M21.323,29.6C23.582,31.465,27.477,34,32,34
			s8.418-2.535,10.677-4.4C41.504,34.412,37.169,38,32,38S22.496,34.412,21.323,29.6z"/>
		<path d="M29,27c0,1.654,1.346,3,3,3s3-1.346,3-3s-1.346-3-3-3S29,25.346,29,27z M33,27c0,0.551-0.449,1-1,1s-1-0.449-1-1
			s0.449-1,1-1C32.551,26,33,26.449,33,27z"/>
		<path d="M1,18h4c0.552,0,1-0.448,1-1v-5h5c0.552,0,1-0.448,1-1V7c0-0.552-0.448-1-1-1H5c-2.757,0-5,2.243-5,5v6
			C0,17.552,0.448,18,1,18z M2,11c0-1.654,1.346-3,3-3h5v2H5c-0.552,0-1,0.448-1,1v5H2V11z"/>
		<path d="M63,35h-4c-0.552,0-1,0.448-1,1v5h-5c-0.552,0-1,0.448-1,1v4c0,0.553,0.448,1,1,1h6c2.757,0,5-2.243,5-5v-6
			C64,35.448,63.552,35,63,35z M62,42c0,1.654-1.346,3-3,3h-5v-2h5c0.552,0,1-0.448,1-1v-5h2V42z"/>
	</g>
	<g id="Layer_1_33_">
	</g>
</g>
<g>
</g>
<g>
</g>
<g>
</g>
<g>
</g>
<g>
</g>
<g>
</g>
<g>
</g>
<g>
</g>
<g>
</g>
<g>
</g>
<g>
</g>
<g>
</g>
<g>
</g>
<g>
</g>
<g>
</g>
</svg>
