<?xml version="1.0" encoding="iso-8859-1"?>
<!-- Generator: Adobe Illustrator 19.0.0, SVG Export Plug-In . SVG Version: 6.00 Build 0)  -->
<svg version="1.1" id="Capa_1" xmlns="http://www.w3.org/2000/svg" xmlns:xlink="http://www.w3.org/1999/xlink" x="0px" y="0px"
	 viewBox="0 0 64 64" style="enable-background:new 0 0 64 64;" xml:space="preserve">
<g>
	<g id="design-tool-art-brush-ruler_1_">
		<path d="M45.693,40.099c-0.018-0.008-0.037-0.01-0.055-0.017l0.003-0.006l-17-7c-0.302-0.123-0.874-0.093-1.149,0.081l-11.231,7
			v0.001c0,0.002,0.226,0.002,0.223,0.004c-0.286,0.184-0.225,0.5-0.225,0.838v14c0,0.396,0.232,0.753,0.594,0.914l18,8
			C34.983,63.972,35.121,64,35.259,64c0.104,0,0.206-0.019,0.305-0.051c0.033-0.011,0.063-0.029,0.095-0.043
			c0.049-0.021,0.099-0.037,0.145-0.066c0.017-0.011,0.03-0.027,0.046-0.039c0.011-0.008,0.024-0.01,0.034-0.019l10-8
			c0.237-0.191,0.375-0.478,0.375-0.782V41C46.259,40.616,46.038,40.265,45.693,40.099z M28.358,35.122l14.952,6.157l-8.2,6.56
			l-15.741-6.996L28.358,35.122z M18.259,42.539l16,7.111v11.812l-16-7.11V42.539z M44.259,54.52l-8,6.399V49.48l8-6.4V54.52z"/>
		<path d="M11.259,0h-10c-0.553,0-1,0.448-1,1v62c0,0.553,0.447,1,1,1h6c2.757,0,5-2.243,5-5V1C12.259,0.448,11.812,0,11.259,0z
			 M10.259,59c0,1.654-1.346,3-3,3h-5v-3h4v-2h-4v-2h2v-2h-2v-2h2v-2h-2v-2h2v-2h-2v-2h4v-2h-4v-2h2v-2h-2v-2h2v-2h-2v-2h2v-2h-2v-2
			h2v-2h-2v-2h4v-2h-4v-2h2v-2h-2v-2h2v-2h-2v-2h2V9h-2V7h2V5h-2V2h8V59z"/>
		<path d="M17.066,36.981C17.13,36.994,17.195,37,17.259,37c0.342,0,0.666-0.175,0.851-0.474l11.038-17.83l11.266,17.838
			C40.599,36.828,40.92,37,41.259,37c0.065,0,0.132-0.006,0.198-0.02c0.406-0.082,0.72-0.407,0.788-0.816l1-6
			c0.039-0.231-0.006-0.469-0.124-0.671L33.196,12.62c0.032-0.203,0.063-0.407,0.063-0.62c0-1.005-0.385-1.914-1-2.618V3
			c0-1.654-1.346-3-3-3s-3,1.346-3,3v6.382c-0.615,0.703-1,1.612-1,2.618c0,0.213,0.031,0.417,0.063,0.621l-9.925,16.873
			c-0.118,0.202-0.163,0.44-0.124,0.671l1,6C16.341,36.575,16.657,36.9,17.066,36.981z M29.259,10c1.103,0,2,0.897,2,2s-0.897,2-2,2
			s-2-0.897-2-2S28.156,10,29.259,10z M41.213,30.194l-0.509,3.055L30.319,17.041L31.11,16h-0.001c0.382-1,0.732-0.689,1.029-0.997
			L41.213,30.194z M29.259,2c0.552,0,1,0.449,1,1v5.142C29.937,8.058,29.606,8,29.259,8s-0.678,0.058-1,0.142V3
			C28.259,2.449,28.707,2,29.259,2z M26.381,14.766c0.563,0.586,1.299,1.001,2.129,1.159L17.808,33.213l-0.503-3.019L26.381,14.766z
			"/>
		<path d="M61.781,6.516c-1.691-2.607-4.267-4.648-8.103-6.424c-0.418-0.194-0.917-0.075-1.204,0.287
			c-0.287,0.363-0.288,0.875-0.003,1.238c0.934,1.188,0.688,2.845,0.319,4.024c-0.308,0.981-0.781,1.909-1.282,2.89
			c-0.312,0.609-0.622,1.218-0.896,1.843c-0.362,0.829-0.779,1.938-0.783,3.17c-0.006,2.196,1.233,4.199,2.403,5.754l-0.971,12.624
			c-0.003,0.036-0.004,0.073-0.002,0.109l0.903,28.002C52.235,62.258,54.033,64,56.259,64s4.024-1.742,4.096-3.966l0.903-28.002
			c0.002-0.036,0.001-0.073-0.002-0.109l-0.944-12.272c1.046-0.517,1.935-1.419,2.5-2.579C64.351,13.911,63.956,9.867,61.781,6.516z
			 M54.699,6.239c0.357-1.14,0.487-2.203,0.395-3.165c2.259,1.316,3.878,2.786,5.01,4.53c0.585,0.902,1,1.877,1.271,2.866
			l-0.116,0.116l-2.293-2.293c-0.391-0.391-1.023-0.391-1.414,0l-2.293,2.293l-1.692-1.692C53.992,8.05,54.406,7.178,54.699,6.239z
			 M58.357,59.97C58.32,61.108,57.399,62,56.259,62s-2.061-0.892-2.098-2.03L53.26,32.023L54.185,20h4.148l0.925,12.022
			L58.357,59.97z M61.013,16.196C60.578,17.091,59.873,18,59.074,18h-5.317c-0.903-1-1.932-2.867-1.927-4.449
			c0.002-0.674,0.191-1.407,0.615-2.375c0.058-0.131,0.128-0.258,0.189-0.388l1.918,1.918c0.391,0.391,1.023,0.391,1.414,0
			l2.293-2.292l2.293,2.293C60.747,12.902,61.003,13,61.259,13c0.159,0,0.312-0.051,0.457-0.127
			C61.723,14.056,61.5,15.197,61.013,16.196z"/>
	</g>
	<g id="Layer_1_8_">
	</g>
</g>
<g>
</g>
<g>
</g>
<g>
</g>
<g>
</g>
<g>
</g>
<g>
</g>
<g>
</g>
<g>
</g>
<g>
</g>
<g>
</g>
<g>
</g>
<g>
</g>
<g>
</g>
<g>
</g>
<g>
</g>
</svg>
