<?xml version="1.0" encoding="iso-8859-1"?>
<!-- Generator: Adobe Illustrator 19.0.0, SVG Export Plug-In . SVG Version: 6.00 Build 0)  -->
<svg version="1.1" id="Capa_1" xmlns="http://www.w3.org/2000/svg" xmlns:xlink="http://www.w3.org/1999/xlink" x="0px" y="0px"
	 viewBox="0 0 64.003 64.003" style="enable-background:new 0 0 64.003 64.003;" xml:space="preserve">
<g>
	<title>grow-growth-startup-plant-business</title>
	<path d="M39.075,39.083c2.63-2.63,2.42-6.94,2.41-7.13c-0.03-0.506-0.434-0.91-0.94-0.94c-0.18,0-4.5-0.22-7.13,2.41
		c-0.15,0.15-0.29,0.31-0.42,0.47v-4.47c0.85-0.87,3-3.37,3-6.42c0-3.72-3.2-6.62-3.33-6.75c-0.379-0.338-0.951-0.338-1.33,0
		c-0.14,0.12-3.33,3-3.33,6.75c0,3.05,2.15,5.56,3,6.42v4.47c-0.13-0.16-0.27-0.32-0.42-0.47c-2.59-2.63-6.95-2.42-7.14-2.42
		c-0.506,0.03-0.91,0.434-0.94,0.94c0,0.18-0.22,4.5,2.41,7.13c1.68,1.492,3.834,2.342,6.08,2.4v5.92
		c-0.13-0.16-0.27-0.32-0.42-0.47c-2.63-2.63-6.94-2.42-7.13-2.41c-0.506,0.03-0.91,0.434-0.94,0.94c0,0.18-0.22,4.5,2.41,7.13
		c1.678,1.499,3.831,2.356,6.08,2.42v9h2v-9c2.245-0.055,4.398-0.902,6.08-2.39c2.63-2.63,2.42-6.94,2.41-7.13
		c-0.03-0.506-0.434-0.91-0.94-0.94c-0.18,0-4.5-0.22-7.13,2.41c-0.15,0.15-0.29,0.31-0.42,0.47v-5.92
		C35.244,41.439,37.397,40.582,39.075,39.083z M34.835,34.843c1.295-1.107,2.927-1.742,4.63-1.8c-0.058,1.705-0.696,3.338-1.81,4.63
		c-1.295,1.107-2.927,1.742-4.63,1.8c0.053-1.707,0.688-3.344,1.8-4.64L34.835,34.843z M26.335,37.673
		c-1.107-1.295-1.742-2.927-1.8-4.63c1.705,0.058,3.338,0.696,4.63,1.81c1.107,1.295,1.742,2.927,1.8,4.63
		c-1.706-0.061-3.34-0.703-4.63-1.82L26.335,37.673z M26.335,51.173c-1.107-1.295-1.742-2.927-1.8-4.63
		c1.705,0.058,3.338,0.696,4.63,1.81c1.122,1.296,1.768,2.937,1.83,4.65C29.278,52.947,27.632,52.3,26.335,51.173z M34.835,48.343
		c1.295-1.107,2.927-1.742,4.63-1.8c-0.058,1.705-0.696,3.338-1.81,4.63c-1.299,1.124-2.943,1.77-4.66,1.83
		c0.057-1.717,0.703-3.363,1.83-4.66H34.835z M31.995,18.453c2.513,2.31,2.678,6.219,0.368,8.732
		c-0.117,0.128-0.24,0.251-0.368,0.368c-2.513-2.31-2.678-6.219-0.368-8.732C31.744,18.693,31.867,18.571,31.995,18.453z"/>
	<path d="M18.545,44.513c-0.18,0-4.5-0.22-7.13,2.41c-0.15,0.15-0.29,0.31-0.42,0.47v-7c0.85-0.87,3-3.37,3-6.42
		c0-3.72-3.2-6.62-3.33-6.75c-0.379-0.338-0.951-0.338-1.33,0c-0.14,0.12-3.33,3-3.33,6.75c0,3.05,2.15,5.56,3,6.42v7
		c-0.13-0.16-0.27-0.32-0.42-0.47c-2.63-2.63-6.94-2.42-7.13-2.41c-0.506,0.03-0.91,0.434-0.94,0.94c0,0.18-0.22,4.5,2.41,7.13
		c1.675,1.497,3.825,2.354,6.07,2.42v9h2v-9c2.245-0.055,4.398-0.902,6.08-2.39c2.63-2.63,2.42-6.94,2.41-7.13
		C19.47,44.965,19.062,44.544,18.545,44.513z M4.335,51.173c-1.107-1.295-1.742-2.927-1.8-4.63c1.705,0.058,3.338,0.696,4.63,1.81
		c1.122,1.296,1.768,2.937,1.83,4.65C7.278,52.947,5.632,52.3,4.335,51.173z M9.995,29.453c2.513,2.31,2.678,6.219,0.368,8.732
		c-0.117,0.128-0.24,0.251-0.368,0.368c-2.513-2.31-2.678-6.219-0.368-8.732C9.744,29.693,9.867,29.571,9.995,29.453z
		 M15.655,51.173c-1.299,1.124-2.943,1.77-4.66,1.83c0.058-1.705,0.696-3.338,1.81-4.63c1.295-1.107,2.927-1.742,4.63-1.8
		C17.379,48.264,16.751,49.885,15.655,51.173z"/>
	<path d="M61.075,38.583c2.63-2.63,2.42-6.94,2.41-7.13c-0.03-0.506-0.434-0.91-0.94-0.94c-0.18,0-4.5-0.22-7.13,2.41
		c-0.15,0.15-0.29,0.31-0.42,0.47v-6.39c2.245-0.055,4.398-0.902,6.08-2.39c2.63-2.63,2.42-6.94,2.41-7.13
		c-0.03-0.506-0.434-0.91-0.94-0.94c-0.18,0-4.5-0.22-7.13,2.41c-0.15,0.15-0.29,0.31-0.42,0.47v-6c0.85-0.87,3-3.37,3-6.42
		c0-3.72-3.2-6.62-3.33-6.75c-0.379-0.338-0.951-0.338-1.33,0c-0.14,0.12-3.33,3-3.33,6.75c0,3.05,2.15,5.56,3,6.42v6
		c-0.13-0.16-0.27-0.32-0.42-0.47c-2.63-2.63-6.94-2.42-7.13-2.41c-0.506,0.03-0.91,0.434-0.94,0.94c0,0.18-0.22,4.5,2.41,7.13
		c1.679,1.486,3.828,2.332,6.07,2.39v6.42c-0.13-0.16-0.27-0.32-0.42-0.47c-2.63-2.63-6.94-2.42-7.13-2.41
		c-0.506,0.03-0.91,0.434-0.94,0.94c0,0.18-0.22,4.5,2.41,7.13c1.682,1.488,3.835,2.335,6.08,2.39v6.42
		c-0.13-0.16-0.27-0.32-0.42-0.47c-2.63-2.63-6.94-2.42-7.13-2.41c-0.506,0.03-0.91,0.434-0.94,0.94c0,0.18-0.22,4.5,2.41,7.13
		c1.682,1.488,3.835,2.335,6.08,2.39v9h2v-9c2.245-0.055,4.398-0.902,6.08-2.39c2.63-2.63,2.42-6.94,2.41-7.13
		c-0.03-0.506-0.434-0.91-0.94-0.94c-0.18,0-4.5-0.22-7.13,2.41c-0.15,0.15-0.29,0.31-0.42,0.47v-6.42
		C57.244,40.939,59.397,40.082,61.075,38.583z M56.835,34.343c1.295-1.107,2.927-1.742,4.63-1.8c0.159,3.409-2.477,6.302-5.886,6.46
		c-0.195,0.009-0.389,0.009-0.584,0c0.057-1.717,0.703-3.363,1.83-4.66H56.835z M56.835,20.343c1.295-1.107,2.927-1.742,4.63-1.8
		c0.159,3.409-2.477,6.302-5.886,6.46c-0.195,0.009-0.389,0.009-0.584,0c0.057-1.717,0.703-3.363,1.83-4.66H56.835z M48.335,23.173
		c-1.107-1.295-1.742-2.927-1.8-4.63c1.705,0.058,3.338,0.696,4.63,1.81c1.122,1.296,1.768,2.937,1.83,4.65
		C51.278,24.947,49.632,24.3,48.335,23.173z M48.335,37.173c-1.107-1.295-1.742-2.927-1.8-4.63c1.705,0.058,3.338,0.696,4.63,1.81
		c1.122,1.296,1.768,2.937,1.83,4.65C51.278,38.947,49.632,38.3,48.335,37.173z M48.335,51.173c-1.107-1.295-1.742-2.927-1.8-4.63
		c1.705,0.058,3.338,0.696,4.63,1.81c1.122,1.296,1.768,2.937,1.83,4.65C51.278,52.947,49.632,52.3,48.335,51.173z M56.835,48.343
		c1.295-1.107,2.927-1.742,4.63-1.8c0.159,3.409-2.477,6.302-5.886,6.46c-0.195,0.009-0.389,0.009-0.584,0
		c0.057-1.717,0.703-3.363,1.83-4.66H56.835z M53.995,2.453c2.513,2.31,2.678,6.219,0.368,8.732
		c-0.117,0.128-0.24,0.251-0.368,0.368c-2.513-2.31-2.678-6.219-0.368-8.732C53.744,2.693,53.867,2.571,53.995,2.453z"/>
</g>
<g>
</g>
<g>
</g>
<g>
</g>
<g>
</g>
<g>
</g>
<g>
</g>
<g>
</g>
<g>
</g>
<g>
</g>
<g>
</g>
<g>
</g>
<g>
</g>
<g>
</g>
<g>
</g>
<g>
</g>
</svg>
