<?xml version="1.0" encoding="iso-8859-1"?>
<!-- Generator: Adobe Illustrator 19.0.0, SVG Export Plug-In . SVG Version: 6.00 Build 0)  -->
<svg version="1.1" id="Capa_1" xmlns="http://www.w3.org/2000/svg" xmlns:xlink="http://www.w3.org/1999/xlink" x="0px" y="0px"
	 viewBox="0 0 64.002 64.002" style="enable-background:new 0 0 64.002 64.002;" xml:space="preserve">
<g>
	<g id="think-big-head-diea-creative-startup-business_1_">
		<path d="M53.647,48.449l-7.207-0.424l-4.383-4.383c0.27-4.743,1.93-9.239,4.773-12.779c3.03-3.773,4.49-8.525,4.112-13.381
			C50.235,8.42,43.18,1.118,34.165,0.121C28.673-0.483,23.409,1.19,19.331,4.842c-4.023,3.602-6.33,8.763-6.33,14.159
			c0,4.196,1.345,8.174,3.89,11.502c3.063,4.007,4.785,8.552,5.055,13.216l-3.447,4.309l-8.108,0.451
			c-5.827,0.323-10.39,5.147-10.39,10.982v4.541h2v-4.541c0-4.774,3.734-8.722,8.501-8.986l8.154-0.453l6.695,5.738
			c0.187,0.161,0.419,0.241,0.65,0.241c0.257,0,0.513-0.099,0.707-0.293l1.138-1.138l1.023,1.534l-2.786,6.503
			c-0.055,0.124-0.082,0.258-0.082,0.394v1.001h2v-0.796l2.919-6.812c0.134-0.311,0.101-0.667-0.087-0.948l-1.545-2.318l2.713-2.713
			l2.713,2.713l-1.545,2.318c-0.188,0.281-0.221,0.638-0.087,0.948l2.919,6.812v0.796h2v-1.001c0-0.136-0.027-0.27-0.081-0.394
			l-2.786-6.503l1.023-1.534l1.138,1.138c0.192,0.194,0.449,0.293,0.706,0.293c0.21,0,0.421-0.065,0.6-0.2l7.707-5.78l7.222,0.425
			c4.749,0.279,8.471,4.225,8.471,8.984v4.572h2V59.43C64.001,53.613,59.453,48.79,53.647,48.449z M15.001,19.001
			c0-4.828,2.064-9.445,5.664-12.669c3.648-3.267,8.367-4.767,13.279-4.223c7.933,0.877,14.382,7.553,15.003,15.529
			c0.339,4.346-0.967,8.598-3.677,11.973c-3.074,3.826-4.882,8.665-5.203,13.765l-4.066,2.259V26.536l8.555-5.703
			c0.278-0.186,0.445-0.498,0.445-0.832v-3c0-1.619-0.639-3.139-1.8-4.278c-1.131-1.111-2.623-1.722-4.2-1.722
			c-1.271,0-2.484,0.403-3.5,1.139c-1.016-0.736-2.229-1.139-3.5-1.139s-2.484,0.403-3.5,1.139c-1.016-0.736-2.229-1.139-3.5-1.139
			c-3.309,0-6,2.691-6,6v3.001c0,0.334,0.167,0.646,0.445,0.832l8.555,5.702v19.099l-4.07-2.261
			c-0.336-4.983-2.193-9.823-5.452-14.086C16.204,26.312,15.001,22.755,15.001,19.001z M32.001,47.857l-2-1.111V26.001
			c0-0.334-0.167-0.646-0.445-0.832l-8.555-5.702v-2.466c0-2.206,1.794-4,4-4c0.739,0,1.451,0.202,2.071,0.581
			c-0.006,0.009-0.01,0.018-0.016,0.027c-0.151,0.218-0.283,0.447-0.403,0.682c-0.029,0.056-0.055,0.113-0.082,0.17
			c-0.106,0.225-0.2,0.454-0.277,0.691c-0.007,0.021-0.016,0.041-0.023,0.062c-0.079,0.254-0.136,0.515-0.181,0.779
			c-0.011,0.063-0.02,0.127-0.029,0.191c-0.035,0.269-0.06,0.541-0.06,0.817c0,1.619,0.639,3.139,1.8,4.278
			c0.194,0.19,0.447,0.286,0.7,0.286s0.506-0.096,0.7-0.286c1.161-1.139,1.8-2.659,1.8-4.278c0-0.276-0.025-0.548-0.062-0.817
			c-0.009-0.064-0.018-0.128-0.029-0.191c-0.045-0.264-0.102-0.525-0.181-0.779c-0.007-0.021-0.016-0.041-0.023-0.062
			c-0.077-0.236-0.171-0.466-0.277-0.691c-0.027-0.057-0.053-0.114-0.082-0.17c-0.12-0.235-0.252-0.463-0.403-0.682
			c-0.006-0.009-0.01-0.018-0.016-0.027c1.24-0.758,2.902-0.758,4.143,0c-0.006,0.009-0.01,0.018-0.016,0.027
			c-0.151,0.218-0.283,0.447-0.403,0.682c-0.029,0.056-0.055,0.113-0.082,0.17c-0.106,0.225-0.2,0.454-0.277,0.691
			c-0.007,0.021-0.016,0.041-0.023,0.062c-0.079,0.254-0.136,0.515-0.181,0.779c-0.011,0.063-0.02,0.127-0.029,0.191
			c-0.034,0.269-0.059,0.541-0.059,0.817c0,1.619,0.639,3.139,1.8,4.278c0.194,0.19,0.447,0.286,0.7,0.286s0.506-0.096,0.7-0.286
			c1.161-1.139,1.8-2.659,1.8-4.278c0-0.276-0.025-0.548-0.062-0.817c-0.009-0.064-0.018-0.128-0.029-0.191
			c-0.045-0.264-0.102-0.525-0.181-0.779c-0.007-0.021-0.016-0.041-0.023-0.062c-0.077-0.236-0.171-0.466-0.277-0.691
			c-0.027-0.057-0.053-0.114-0.082-0.17c-0.12-0.235-0.252-0.463-0.403-0.682c-0.006-0.009-0.01-0.018-0.016-0.027
			c1.502-0.917,3.585-0.693,4.871,0.568c0.775,0.76,1.202,1.773,1.202,2.851v2.465l-8.555,5.703
			c-0.278,0.186-0.445,0.498-0.445,0.832v20.745L32.001,47.857z M28.699,15.481c0.087,0.211,0.152,0.432,0.202,0.656
			c0.011,0.052,0.021,0.105,0.03,0.157c0.041,0.232,0.07,0.467,0.07,0.707s-0.029,0.475-0.07,0.707
			c-0.009,0.053-0.019,0.105-0.03,0.157c-0.05,0.224-0.115,0.445-0.202,0.656c-0.012,0.029-0.028,0.057-0.041,0.086
			c-0.044,0.1-0.104,0.192-0.156,0.287c-0.052-0.096-0.112-0.188-0.156-0.287c-0.013-0.029-0.029-0.057-0.042-0.087
			c-0.087-0.211-0.152-0.432-0.202-0.656c-0.011-0.052-0.021-0.104-0.03-0.157c-0.042-0.231-0.071-0.466-0.071-0.706
			s0.029-0.475,0.07-0.707c0.009-0.052,0.019-0.105,0.03-0.157c0.05-0.225,0.115-0.445,0.202-0.656
			c0.012-0.03,0.028-0.057,0.041-0.087c0.044-0.099,0.104-0.191,0.156-0.287c0.052,0.096,0.112,0.188,0.157,0.288
			C28.67,15.424,28.686,15.452,28.699,15.481z M35.699,15.481c0.087,0.211,0.152,0.432,0.202,0.656
			c0.011,0.052,0.021,0.105,0.03,0.157c0.041,0.232,0.07,0.467,0.07,0.707s-0.029,0.475-0.07,0.707
			c-0.009,0.053-0.019,0.105-0.03,0.157c-0.05,0.224-0.115,0.445-0.202,0.656c-0.012,0.029-0.028,0.057-0.041,0.086
			c-0.044,0.1-0.104,0.192-0.156,0.287c-0.052-0.096-0.112-0.188-0.156-0.287c-0.013-0.029-0.029-0.057-0.042-0.087
			c-0.087-0.211-0.152-0.432-0.202-0.656c-0.011-0.052-0.021-0.104-0.03-0.157c-0.042-0.231-0.071-0.466-0.071-0.706
			s0.029-0.475,0.07-0.707c0.009-0.052,0.019-0.105,0.03-0.157c0.05-0.225,0.115-0.445,0.202-0.656
			c0.012-0.03,0.028-0.057,0.041-0.087c0.044-0.099,0.104-0.191,0.156-0.287c0.052,0.096,0.112,0.188,0.157,0.288
			C35.67,15.424,35.686,15.452,35.699,15.481z M25.948,53.639l-5.562-4.768l2.868-3.586l4.747,2.638v0.079h0.141l2.215,1.23
			L25.948,53.639z M38.095,53.681l-1.387-1.387l-3.062-3.062l2.215-1.23h0.14v-0.079l4.826-2.682l3.651,3.651L38.095,53.681z"/>
	</g>
	<g id="Layer_1_29_">
	</g>
</g>
<g>
</g>
<g>
</g>
<g>
</g>
<g>
</g>
<g>
</g>
<g>
</g>
<g>
</g>
<g>
</g>
<g>
</g>
<g>
</g>
<g>
</g>
<g>
</g>
<g>
</g>
<g>
</g>
<g>
</g>
</svg>
