<?xml version="1.0" encoding="iso-8859-1"?>
<!-- Generator: Adobe Illustrator 19.0.0, SVG Export Plug-In . SVG Version: 6.00 Build 0)  -->
<svg version="1.1" id="Capa_1" xmlns="http://www.w3.org/2000/svg" xmlns:xlink="http://www.w3.org/1999/xlink" x="0px" y="0px"
	 viewBox="0 0 64 64" style="enable-background:new 0 0 64 64;" xml:space="preserve">
<g>
	<g id="packaging-box-carton-container-design_1_">
		<path d="M53.868,32.504L46,18.735V5c0-2.757-2.243-5-5-5H23c-2.757,0-5,2.243-5,5v13.735l-7.868,13.769
			c-0.013,0.022-0.018,0.047-0.029,0.07c-0.013,0.027-0.023,0.055-0.034,0.083c-0.04,0.109-0.067,0.222-0.068,0.336
			C10.001,32.996,10,32.998,10,33v26c0,2.757,2.243,5,5,5h22h12c2.757,0,5-2.243,5-5V33C54,32.826,53.954,32.655,53.868,32.504z
			 M20,5c0-1.654,1.346-3,3-3h18c1.654,0,3,1.346,3,3v13H20V5z M19.58,20h23.696L36.42,32H12.724L19.58,20z M36,62H15
			c-1.654,0-3-1.346-3-3V34h24V62z M52,59c0,1.654-1.346,3-3,3H38V33.265l7-12.25l7,12.25V59z"/>
		<path d="M37,6H27c-2.206,0-4,1.794-4,4s1.794,4,4,4h10c2.206,0,4-1.794,4-4S39.206,6,37,6z M37,12H27c-1.103,0-2-0.897-2-2
			s0.897-2,2-2h10c1.103,0,2,0.897,2,2S38.103,12,37,12z"/>
		<path d="M24,51c3.309,0,6-2.691,6-6s-2.691-6-6-6s-6,2.691-6,6S20.691,51,24,51z M24,41c2.206,0,4,1.794,4,4s-1.794,4-4,4
			s-4-1.794-4-4S21.794,41,24,41z"/>
		<rect x="18" y="53" width="12" height="2"/>
	</g>
	<g id="Layer_1_18_">
	</g>
</g>
<g>
</g>
<g>
</g>
<g>
</g>
<g>
</g>
<g>
</g>
<g>
</g>
<g>
</g>
<g>
</g>
<g>
</g>
<g>
</g>
<g>
</g>
<g>
</g>
<g>
</g>
<g>
</g>
<g>
</g>
</svg>
