<?xml version="1.0" encoding="iso-8859-1"?>
<!-- Generator: Adobe Illustrator 19.0.0, SVG Export Plug-In . SVG Version: 6.00 Build 0)  -->
<svg version="1.1" id="Capa_1" xmlns="http://www.w3.org/2000/svg" xmlns:xlink="http://www.w3.org/1999/xlink" x="0px" y="0px"
	 viewBox="0 0 64 64" style="enable-background:new 0 0 64 64;" xml:space="preserve">
<g>
	<g id="idea-security-protection-patent-license_1_">
		<path d="M32,30c-6.065,0-11,4.935-11,11c0,4.148,2.334,7.924,6,9.795V54v5c0,0.553,0.447,1,1,1h8c0.553,0,1-0.447,1-1v-5v-3.205
			c3.666-1.871,6-5.646,6-9.795C43,34.935,38.065,30,32,30z M35,58h-6v-3h2h2h2V58z M32,44.586L27.414,40l0.293-0.293
			c0.162-0.162,0.424-0.162,0.586,0c0.941,0.941,2.473,0.941,3.414,0c0.211-0.211,0.375-0.211,0.586,0
			c0.941,0.941,2.473,0.941,3.414,0c0.162-0.162,0.424-0.162,0.586,0L36.586,40L32,44.586z M35.6,49.246
			c-0.364,0.159-0.6,0.519-0.6,0.916V53h-2v-6.586l5.707-5.707c0.391-0.391,0.391-1.023,0-1.414l-1-1
			c-0.941-0.941-2.473-0.941-3.414,0c-0.211,0.211-0.375,0.211-0.586,0c-0.941-0.941-2.473-0.941-3.414,0
			c-0.211,0.211-0.375,0.211-0.586,0c-0.941-0.941-2.473-0.941-3.414,0l-1,1c-0.391,0.391-0.391,1.023,0,1.414L31,46.414V53h-2
			v-2.838c0-0.397-0.235-0.757-0.6-0.916C25.12,47.812,23,44.575,23,41c0-4.963,4.037-9,9-9s9,4.037,9,9
			C41,44.575,38.88,47.812,35.6,49.246z"/>
		<path d="M54,26h-1v-5C53,9.421,43.579,0,32,0S11,9.421,11,21v5h-1c-0.553,0-1,0.447-1,1v32c0,2.757,2.243,5,5,5h36
			c2.757,0,5-2.243,5-5V27C55,26.447,54.553,26,54,26z M13,21c0-10.477,8.523-19,19-19s19,8.523,19,19v5h-4v-5
			c0-8.271-6.729-15-15-15s-15,6.729-15,15v5h-4V21z M19,26v-5c0-7.168,5.832-13,13-13s13,5.832,13,13v5H19z M53,59
			c0,1.654-1.346,3-3,3H14c-1.654,0-3-1.346-3-3V28h1h6h28h6h1V59z"/>
	</g>
	<g id="Layer_1_13_">
	</g>
</g>
<g>
</g>
<g>
</g>
<g>
</g>
<g>
</g>
<g>
</g>
<g>
</g>
<g>
</g>
<g>
</g>
<g>
</g>
<g>
</g>
<g>
</g>
<g>
</g>
<g>
</g>
<g>
</g>
<g>
</g>
</svg>
