<?xml version="1.0" encoding="iso-8859-1"?>
<!-- Generator: Adobe Illustrator 19.0.0, SVG Export Plug-In . SVG Version: 6.00 Build 0)  -->
<svg version="1.1" id="Capa_1" xmlns="http://www.w3.org/2000/svg" xmlns:xlink="http://www.w3.org/1999/xlink" x="0px" y="0px"
	 viewBox="0 0 64 64" style="enable-background:new 0 0 64 64;" xml:space="preserve">
<g>
	<g id="sell-share-pie-chart-categories_1_">
		<path d="M59,35.133H33c-0.552,0-1,0.447-1,1v26c0,0.553,0.448,1,1,1c14.888,0,27-12.112,27-27C60,35.58,59.552,35.133,59,35.133z
			 M34,61.113v-23.98h23.98C57.467,50.133,46.992,60.6,34,61.113z"/>
		<path d="M56.092,11.041c-0.391-0.391-1.023-0.391-1.414,0L36.293,29.426c-0.286,0.286-0.372,0.716-0.217,1.09
			s0.52,0.617,0.924,0.617h26c0.552,0,1-0.447,1-1C64,22.921,61.191,16.141,56.092,11.041z M39.414,29.133l15.957-15.957
			c4.057,4.387,6.376,9.957,6.609,15.957H39.414z"/>
		<path d="M36.693,4.933c-3.101-1.194-6.362-1.8-9.693-1.8c-14.888,0-27,12.112-27,27s12.112,27,27,27c0.552,0,1-0.447,1-1V30.318
			l9.267-24.092C37.465,5.71,37.208,5.132,36.693,4.933z M26.067,29.774C26.022,29.889,26,30.01,26,30.133v24.98
			c-13.323-0.527-24-11.53-24-24.98c0-13.785,11.215-25,25-25c2.749,0,5.447,0.445,8.034,1.326L26.067,29.774z"/>
		<path d="M33.455,26.972c0.167,0.108,0.356,0.161,0.544,0.161c0.258,0,0.515-0.1,0.708-0.293L53.092,8.455
			c0.391-0.391,0.391-1.023,0-1.414c-2.687-2.688-5.849-4.742-9.399-6.108c-0.248-0.095-0.522-0.089-0.765,0.02
			c-0.242,0.108-0.432,0.308-0.527,0.555l-9.333,24.267C32.897,26.215,33.059,26.714,33.455,26.972z M43.901,3.177
			c2.607,1.122,4.974,2.66,7.056,4.585L36.625,22.094L43.901,3.177z"/>
	</g>
	<g id="Layer_1_25_">
	</g>
</g>
<g>
</g>
<g>
</g>
<g>
</g>
<g>
</g>
<g>
</g>
<g>
</g>
<g>
</g>
<g>
</g>
<g>
</g>
<g>
</g>
<g>
</g>
<g>
</g>
<g>
</g>
<g>
</g>
<g>
</g>
</svg>
