<?xml version="1.0" encoding="iso-8859-1"?>
<!-- Generator: Adobe Illustrator 19.0.0, SVG Export Plug-In . SVG Version: 6.00 Build 0)  -->
<svg version="1.1" id="Capa_1" xmlns="http://www.w3.org/2000/svg" xmlns:xlink="http://www.w3.org/1999/xlink" x="0px" y="0px"
	 viewBox="0 0 64 64" style="enable-background:new 0 0 64 64;" xml:space="preserve">
<g>
	<g id="local-business-location-pin-direction_1_">
		<path d="M49,22c0-9.374-7.626-17-17-17s-17,7.626-17,17s7.626,17,17,17S49,31.374,49,22z M17,22c0-8.271,6.729-15,15-15
			s15,6.729,15,15s-6.729,15-15,15S17,30.271,17,22z"/>
		<path d="M31.369,59.776C31.553,59.926,31.776,60,32,60c0.224,0,0.447-0.074,0.631-0.224c0.228-0.186,5.639-4.607,11.138-11.217
			C51.222,39.604,55,31.341,55,24C55,8.748,46.617,0,32,0S9,8.748,9,24c0,7.341,3.778,15.604,11.231,24.56
			C25.73,55.169,31.142,59.591,31.369,59.776z M32,2c7.843,0,21,2.858,21,22c0,14.837-17.434,30.619-21,33.69
			C28.434,54.619,11,38.837,11,24C11,4.858,24.157,2,32,2z"/>
		<path d="M33,33v-2c2.757,0,5-2.243,5-5s-2.243-5-5-5h-2c-1.654,0-3-1.346-3-3s1.346-3,3-3h2c1.654,0,3,1.346,3,3h2
			c0-2.757-2.243-5-5-5v-2h-2v2c-2.757,0-5,2.243-5,5s2.243,5,5,5h2c1.654,0,3,1.346,3,3s-1.346,3-3,3h-2c-1.654,0-3-1.346-3-3h-2
			c0,2.757,2.243,5,5,5v2H33z"/>
		<path d="M40.166,54.63l-0.332,1.973C44.539,57.395,46,58.637,46,59c0,0.897-4.763,3-14,3s-14-2.103-14-3
			c0-0.363,1.461-1.605,6.166-2.397l-0.332-1.973C20.26,55.231,16,56.479,16,59c0,3.436,8.294,5,16,5s16-1.564,16-5
			C48,56.479,43.74,55.231,40.166,54.63z"/>
	</g>
	<g id="Layer_1_16_">
	</g>
</g>
<g>
</g>
<g>
</g>
<g>
</g>
<g>
</g>
<g>
</g>
<g>
</g>
<g>
</g>
<g>
</g>
<g>
</g>
<g>
</g>
<g>
</g>
<g>
</g>
<g>
</g>
<g>
</g>
<g>
</g>
</svg>
