<?xml version="1.0" encoding="iso-8859-1"?>
<!-- Generator: Adobe Illustrator 19.0.0, SVG Export Plug-In . SVG Version: 6.00 Build 0)  -->
<svg version="1.1" id="Capa_1" xmlns="http://www.w3.org/2000/svg" xmlns:xlink="http://www.w3.org/1999/xlink" x="0px" y="0px"
	 viewBox="0 0 64 64" style="enable-background:new 0 0 64 64;" xml:space="preserve">
<g>
	<g id="cost-ervenue-chart-money-graph_1_">
		<path d="M2,62v-2.007c31.459-0.149,52.656-7.235,57.707-12.286l-1.414-1.414c-3.694,3.694-17.646,8.774-38.438,10.81
			C29.156,54.17,37.421,49.136,44,42.602V44h2v-2h-1.385C54.168,32.223,60,19.235,60,5h-2c0,14.385-6.204,27.441-16.243,37H40v1.599
			c-9.977,8.721-23.318,14.14-38,14.377V0H0v63c0,0.553,0.448,1,1,1h63v-2H2z"/>
		<path d="M6.111,11H6c-0.552,0-1,0.447-1,1c0,2.085,0.922,3.955,2.373,5.239C7.151,17.422,7,17.689,7,18c0,3.859,3.14,7,7,7
			c2.682,0,5.206-0.995,7.174-2.793C23.007,24.514,25.831,26,29,26s5.993-1.486,7.826-3.793C38.794,24.005,41.318,25,44,25
			c3.86,0,7-3.141,7-7c0-0.311-0.151-0.578-0.373-0.761C52.078,15.955,53,14.085,53,12c0-0.553-0.448-1-1-1h-0.111
			C53.19,9.728,54,7.958,54,6c0-0.553-0.448-1-1-1h-9c-2.846,0-5.522,1.108-7.536,3.121L35.85,8.735C34.059,7.045,31.652,6,29,6
			s-5.059,1.045-6.851,2.735l-0.614-0.614C19.522,6.108,16.846,5,14,5H5C4.448,5,4,5.447,4,6C4,7.958,4.81,9.728,6.111,11z M44,7
			h7.899c-0.464,2.279-2.485,4-4.899,4h-1h-2v2h2h1h3.899c-0.464,2.279-2.485,4-4.899,4h-2h-2v2h2h2h2.899
			c-0.464,2.279-2.485,4-4.899,4c-2.295,0-4.452-0.889-6.082-2.499C38.604,19.146,39,17.62,39,16c0-2.142-0.683-4.123-1.834-5.752
			l0.712-0.713C39.514,7.9,41.688,7,44,7z M29,8c4.411,0,8,3.589,8,8s-3.589,8-8,8s-8-3.589-8-8S24.589,8,29,8z M14,7
			c2.312,0,4.486,0.9,6.122,2.535l0.712,0.713C19.683,11.877,19,13.858,19,16c0,1.62,0.396,3.146,1.082,4.5
			C18.451,22.111,16.294,23,14,23c-2.415,0-4.435-1.721-4.899-4H12h2h2v-2h-2h-2c-2.415,0-4.435-1.721-4.899-4H11h1h2v-2h-2h-1
			c-2.415,0-4.435-1.721-4.899-4H14z"/>
		<path d="M26,21h2v1h2v-1.424c1.763-0.774,3-2.531,3-4.576c0-0.553-0.448-1-1-1h-4.829c0.413-1.164,1.525-2,2.829-2h3v-1
			c0-0.553-0.448-1-1-1h-2v-1h-2v1.424c-1.763,0.774-3,2.531-3,4.576c0,0.553,0.448,1,1,1h4.829c-0.413,1.164-1.525,2-2.829,2h-3v1
			C25,20.553,25.448,21,26,21z"/>
		<path d="M58,53c0.551,0,1,0.448,1,1h2c0-1.654-1.346-3-3-3s-3,1.346-3,3v3c0,1.654,1.346,3,3,3s3-1.346,3-3h-2
			c0,0.552-0.449,1-1,1s-1-0.448-1-1v-3C57,53.448,57.449,53,58,53z"/>
		<path d="M43,32c0-1.654-1.346-3-3-3h-2c-0.552,0-1,0.447-1,1v3.988c0,0.008,0,0.016,0,0.022V38h2v-2l2.4,1.8
			c0.173,0.13,0.384,0.2,0.6,0.2h1v-2h-0.667l-1.493-1.12C42.087,34.516,43,33.362,43,32z M40,33h-1v-2h1c0.551,0,1,0.448,1,1
			C41,32.552,40.551,33,40,33z"/>
		<rect x="4" y="42" width="2" height="2"/>
		<rect x="8" y="42" width="2" height="2"/>
		<rect x="12" y="42" width="2" height="2"/>
		<rect x="16" y="42" width="2" height="2"/>
		<rect x="20" y="42" width="2" height="2"/>
		<rect x="24" y="42" width="2" height="2"/>
		<rect x="28" y="42" width="2" height="2"/>
		<rect x="32" y="42" width="2" height="2"/>
		<rect x="36" y="42" width="2" height="2"/>
		<rect x="48" y="42" width="2" height="2"/>
		<rect x="52" y="42" width="2" height="2"/>
		<rect x="56" y="42" width="2" height="2"/>
		<rect x="60" y="42" width="2" height="2"/>
	</g>
	<g id="Layer_1_5_">
	</g>
</g>
<g>
</g>
<g>
</g>
<g>
</g>
<g>
</g>
<g>
</g>
<g>
</g>
<g>
</g>
<g>
</g>
<g>
</g>
<g>
</g>
<g>
</g>
<g>
</g>
<g>
</g>
<g>
</g>
<g>
</g>
</svg>
