<?xml version="1.0" encoding="iso-8859-1"?>
<!-- Generator: Adobe Illustrator 19.0.0, SVG Export Plug-In . SVG Version: 6.00 Build 0)  -->
<svg version="1.1" id="Capa_1" xmlns="http://www.w3.org/2000/svg" xmlns:xlink="http://www.w3.org/1999/xlink" x="0px" y="0px"
	 viewBox="0 0 64 64" style="enable-background:new 0 0 64 64;" xml:space="preserve">
<g>
	<g id="startup-start-up-rocket-business_1_">
		<rect x="31" y="28" width="2" height="13"/>
		<path d="M32,12c-3.86,0-7,3.14-7,7s3.14,7,7,7s7-3.14,7-7S35.86,12,32,12z M32,14c2.596,0,4.711,1.996,4.952,4.53
			c-0.078-0.073-0.155-0.146-0.246-0.237C36.16,17.747,35.413,17,33.998,17c-1.415,0-2.163,0.747-2.708,1.293
			C30.799,18.783,30.558,19,29.996,19c-0.561,0-0.801-0.217-1.29-0.707c-0.342-0.342-0.763-0.763-1.377-1.03
			C28.038,15.364,29.856,14,32,14z M32,24c-2.595,0-4.71-1.995-4.952-4.527c0.077,0.072,0.152,0.143,0.243,0.234
			C27.836,20.252,28.583,21,29.996,21c1.415,0,2.162-0.747,2.708-1.292C33.194,19.217,33.435,19,33.998,19
			c0.562,0,0.803,0.217,1.294,0.708c0.342,0.342,0.764,0.763,1.379,1.029C35.962,22.637,34.144,24,32,24z"/>
		<path d="M46.691,50.035C45.139,48.764,43.157,48,41,48h-1v-2h3c0.552,0,1-0.448,1-1v-1.852l4.641,1.785
			C48.757,44.978,48.879,45,49,45c0.199,0,0.397-0.06,0.566-0.176C49.838,44.638,50,44.33,50,44V31.308
			c0-0.414-0.255-0.785-0.641-0.933L44,28.313V12c0-0.265-0.105-0.52-0.293-0.707l-11-11c-0.391-0.391-1.023-0.391-1.414,0l-11,11
			C20.105,11.48,20,11.735,20,12v16.313l-5.359,2.061C14.255,30.523,14,30.894,14,31.308V44c0,0.33,0.162,0.638,0.434,0.824
			C14.603,44.94,14.801,45,15,45c0.121,0,0.243-0.022,0.359-0.066L20,43.148V45c0,0.552,0.448,1,1,1h3v2h-1
			c-2.157,0-4.139,0.764-5.691,2.035C9.911,50.399,4,56.513,4,64h2c0-5.699,3.998-10.474,9.334-11.691C14.494,53.677,14,55.28,14,57
			h2c0-3.86,3.14-7,7-7h2c0.552,0,1-0.448,1-1v-3h12v3c0,0.552,0.448,1,1,1h2c3.86,0,7,3.14,7,7h2c0-1.72-0.494-3.323-1.334-4.691
			C54.002,53.526,58,58.301,58,64h2C60,56.513,54.089,50.399,46.691,50.035z M48,31.995v10.549l-4-1.539V30.456L48,31.995z
			 M16,42.544V31.995l4-1.539v10.549L16,42.544z M22,41.692V29V12.414l10-10l10,10V29v12.692V44H22V41.692z"/>
		<path d="M22,55h-2c0,1.119,0.215,2.186,0.589,3.174C17.96,58.812,16,61.178,16,64h2c0-2.052,1.559-3.729,3.552-3.955
			C23.172,62.43,25.906,64,29,64v-2C25.14,62,22,58.86,22,55z"/>
		<path d="M43,52c-3.33,0-6.346,1.365-8.522,3.564C33.542,53.467,31.441,52,29,52v2c2.024,0,3.684,1.516,3.946,3.47
			C31.72,59.351,31,61.591,31,64h2c0-5.514,4.486-10,10-10V52z"/>
		<path d="M42,58v2c2.206,0,4,1.794,4,4h2C48,60.691,45.309,58,42,58z"/>
		<rect x="33" y="48" width="2" height="2"/>
		<rect x="29" y="48" width="2" height="2"/>
	</g>
	<g id="Layer_1_26_">
	</g>
</g>
<g>
</g>
<g>
</g>
<g>
</g>
<g>
</g>
<g>
</g>
<g>
</g>
<g>
</g>
<g>
</g>
<g>
</g>
<g>
</g>
<g>
</g>
<g>
</g>
<g>
</g>
<g>
</g>
<g>
</g>
</svg>
