<?xml version="1.0" encoding="iso-8859-1"?>
<!-- Generator: Adobe Illustrator 19.0.0, SVG Export Plug-In . SVG Version: 6.00 Build 0)  -->
<svg version="1.1" id="Capa_1" xmlns="http://www.w3.org/2000/svg" xmlns:xlink="http://www.w3.org/1999/xlink" x="0px" y="0px"
	 viewBox="0 0 64 64" style="enable-background:new 0 0 64 64;" xml:space="preserve">
<g>
	<g id="launch-product-press-button-hand_1_">
		<path d="M46.5,28c-0.986,0-1.878,0.372-2.575,0.965C43.226,27.794,41.96,27,40.5,27c-1.201,0-2.266,0.542-3,1.382
			c-0.262-0.3-0.562-0.562-0.903-0.773C40.779,24.9,43.5,20.182,43.5,15c0-8.271-6.729-15-15-15s-15,6.729-15,15
			c0,6.727,4.583,12.669,11,14.447v9.198l-3.781,4.731C20.577,43.553,20.5,43.773,20.5,44v11.019c0,0.266,0.106,0.521,0.295,0.709
			l3.724,3.707C24.739,61.989,26.89,64,29.5,64h15c2.757,0,5-2.243,5-5v-1.764l0.895-1.789C50.464,55.309,50.5,55.155,50.5,55V32
			C50.5,29.794,48.706,28,46.5,28z M24.5,16v5.914c-2.435-1.411-4-4.029-4-6.914c0-4.411,3.589-8,8-8s8,3.589,8,8
			c0,2.885-1.565,5.503-4,6.914V16c0-2.206-1.794-4-4-4S24.5,13.794,24.5,16z M15.5,15c0-7.168,5.832-13,13-13s13,5.832,13,13
			c0,5.644-3.718,10.655-9,12.367v-3.202c3.616-1.579,6-5.175,6-9.165c0-5.514-4.486-10-10-10s-10,4.486-10,10
			c0,3.99,2.385,7.586,6,9.165v3.202C19.218,25.654,15.5,20.643,15.5,15z M48.5,54.764l-0.895,1.789
			C47.536,56.691,47.5,56.845,47.5,57v2c0,1.654-1.346,3-3,3h-15c-1.654,0-3-1.346-3-3c0-0.266-0.106-0.521-0.295-0.709L22.5,54.603
			V44.351l2-2.502V46h2V16c0-1.103,0.897-2,2-2s2,0.897,2,2v15v8h2v-8c0-1.103,0.897-2,2-2s2,0.897,2,2v8h2v-8c0-1.103,0.897-2,2-2
			s2,0.897,2,2v1v7v1h2v-1v-7c0-1.103,0.897-2,2-2s2,0.897,2,2V54.764z"/>
	</g>
	<g id="Layer_1_14_">
	</g>
</g>
<g>
</g>
<g>
</g>
<g>
</g>
<g>
</g>
<g>
</g>
<g>
</g>
<g>
</g>
<g>
</g>
<g>
</g>
<g>
</g>
<g>
</g>
<g>
</g>
<g>
</g>
<g>
</g>
<g>
</g>
</svg>
