<?xml version="1.0" encoding="iso-8859-1"?>
<!-- Generator: Adobe Illustrator 19.0.0, SVG Export Plug-In . SVG Version: 6.00 Build 0)  -->
<svg xmlns="http://www.w3.org/2000/svg" xmlns:xlink="http://www.w3.org/1999/xlink" version="1.1" id="Layer_1" x="0px" y="0px" viewBox="0 0 512 512" style="enable-background:new 0 0 512 512;" xml:space="preserve">
<g>
	<g>
		<path d="M373.105,359.489c4.513,0,8.17-3.657,8.17-8.17v-43.574c0-4.513-3.658-8.17-8.17-8.17H138.893    c-4.512,0-8.17,3.657-8.17,8.17v43.574c0,4.513,3.658,8.17,8.17,8.17h2.723v16.34h-2.723c-4.512,0-8.17,3.657-8.17,8.17v43.574    c0,4.513,3.658,8.17,8.17,8.17h2.723v16.34h-2.723c-4.512,0-8.17,3.657-8.17,8.17v43.574c0,4.513,3.658,8.17,8.17,8.17h234.212    c4.513,0,8.17-3.657,8.17-8.17v-43.574c0-4.513-3.657-8.17-8.17-8.17h-2.723v-16.34h2.723c4.513,0,8.17-3.657,8.17-8.17v-43.574    c0-4.513-3.657-8.17-8.17-8.17h-2.723v-16.34H373.105z M364.935,495.658H147.064v-27.234h217.871V495.658z M364.935,419.403    h-35.404c-4.513,0-8.17,3.657-8.17,8.17c0,4.513,3.657,8.17,8.17,8.17h24.51v16.34H157.957v-16.34H296.85    c4.513,0,8.17-3.657,8.17-8.17c0-4.513-3.657-8.17-8.17-8.17H147.064v-27.234h217.871V419.403z M157.957,375.829v-16.34h196.084    v16.34H157.957z M364.935,343.148H147.064v-27.234h217.871V343.148z"/>
	</g>
</g>
<g>
	<g>
		<path d="M508.326,164.753L260.497,1.349c-2.729-1.797-6.266-1.797-8.995,0L3.674,164.753c-3.767,2.484-4.807,7.551-2.324,11.318    l17.99,27.284c1.193,1.809,3.056,3.07,5.178,3.507c2.121,0.435,4.331,0.01,6.141-1.182l21.088-13.905v312.053    c0,4.513,3.658,8.17,8.17,8.17h46.298c4.512,0,8.17-3.657,8.17-8.17V250.553h283.233v253.275c0,4.513,3.657,8.17,8.17,8.17h46.298    c4.513,0,8.17-3.657,8.17-8.17V191.776l21.087,13.903c1.345,0.886,2.911,1.349,4.498,1.349c0.548,0,1.099-0.056,1.643-0.167    c2.123-0.436,3.986-1.697,5.179-3.507l17.99-27.284C513.133,172.304,512.093,167.237,508.326,164.753z M443.913,495.658h-29.957    V242.383c0-4.513-3.657-8.17-8.17-8.17H106.213c-4.512,0-8.17,3.657-8.17,8.17v253.275H68.085V181.002l187.914-123.9    l187.914,123.9V495.658z M483.515,187.54L260.497,40.494c-1.365-0.899-2.93-1.349-4.498-1.349c-1.567,0-3.133,0.45-4.497,1.349    L28.483,187.54l-8.995-13.642l236.51-155.94l236.51,155.94L483.515,187.54z"/>
	</g>
</g>
<g>
</g>
<g>
</g>
<g>
</g>
<g>
</g>
<g>
</g>
<g>
</g>
<g>
</g>
<g>
</g>
<g>
</g>
<g>
</g>
<g>
</g>
<g>
</g>
<g>
</g>
<g>
</g>
<g>
</g>
</svg>
