<?xml version="1.0" encoding="iso-8859-1"?>
<!-- Generator: Adobe Illustrator 19.0.0, SVG Export Plug-In . SVG Version: 6.00 Build 0)  -->
<svg xmlns="http://www.w3.org/2000/svg" xmlns:xlink="http://www.w3.org/1999/xlink" version="1.1" id="Layer_1" x="0px" y="0px" viewBox="0 0 512 512" style="enable-background:new 0 0 512 512;" xml:space="preserve">
<g>
	<g>
		<circle cx="108.936" cy="40.851" r="8.17"/>
	</g>
</g>
<g>
	<g>
		<circle cx="288.681" cy="40.851" r="8.17"/>
	</g>
</g>
<g>
	<g>
		<circle cx="108.936" cy="302.298" r="8.17"/>
	</g>
</g>
<g>
	<g>
		<circle cx="288.681" cy="302.298" r="8.17"/>
	</g>
</g>
<g>
	<g>
		<circle cx="108.936" cy="367.66" r="8.17"/>
	</g>
</g>
<g>
	<g>
		<circle cx="288.681" cy="367.66" r="8.17"/>
	</g>
</g>
<g>
	<g>
		<circle cx="108.936" cy="433.021" r="8.17"/>
	</g>
</g>
<g>
	<g>
		<circle cx="288.681" cy="433.021" r="8.17"/>
	</g>
</g>
<g>
	<g>
		<circle cx="108.936" cy="106.213" r="8.17"/>
	</g>
</g>
<g>
	<g>
		<circle cx="288.681" cy="106.213" r="8.17"/>
	</g>
</g>
<g>
	<g>
		<circle cx="108.936" cy="171.574" r="8.17"/>
	</g>
</g>
<g>
	<g>
		<circle cx="288.681" cy="171.574" r="8.17"/>
	</g>
</g>
<g>
	<g>
		<circle cx="108.936" cy="236.936" r="8.17"/>
	</g>
</g>
<g>
	<g>
		<circle cx="288.681" cy="236.936" r="8.17"/>
	</g>
</g>
<g>
	<g>
		<path d="M503.83,0H8.17C3.658,0,0,3.657,0,8.17v495.66c0,4.513,3.658,8.17,8.17,8.17h495.66c4.512,0,8.17-3.657,8.17-8.17V8.17    C512,3.657,508.342,0,503.83,0z M84.426,16.34H247.83v49.021H84.426V16.34z M84.426,81.702H247.83v49.021H84.426V81.702z     M84.426,147.064H247.83v49.021H84.426V147.064z M84.426,212.426H247.83v49.021H84.426V212.426z M84.426,277.787H247.83v49.021    H84.426V277.787z M84.426,343.149H247.83v49.021H84.426V343.149z M84.426,408.511H247.83v49.021H84.426V408.511z M68.085,495.66    H16.34V277.787h27.234c4.512,0,8.17-3.657,8.17-8.17c0-4.513-3.658-8.17-8.17-8.17H16.34V16.34h51.745V495.66z M427.574,495.66    H84.426v-21.787h343.149V495.66z M427.574,457.532H264.17v-49.021h163.404V457.532z M427.574,392.17H264.17v-49.021h163.404    V392.17z M427.574,326.809H264.17v-49.021h163.404V326.809z M427.574,261.447H264.17v-49.021h163.404V261.447z M427.574,196.085    H264.17v-49.021h163.404V196.085z M427.574,130.723H264.17V81.702h163.404V130.723z M427.574,65.362H264.17V16.34h163.404V65.362z     M495.66,261.447h-27.234c-4.512,0-8.17,3.657-8.17,8.17c0,4.513,3.658,8.17,8.17,8.17h27.234V495.66h-51.745V16.34h51.745    V261.447z"/>
	</g>
</g>
<g>
</g>
<g>
</g>
<g>
</g>
<g>
</g>
<g>
</g>
<g>
</g>
<g>
</g>
<g>
</g>
<g>
</g>
<g>
</g>
<g>
</g>
<g>
</g>
<g>
</g>
<g>
</g>
<g>
</g>
</svg>
