<?xml version="1.0" encoding="iso-8859-1"?>
<!-- Generator: Adobe Illustrator 19.0.0, SVG Export Plug-In . SVG Version: 6.00 Build 0)  -->
<svg xmlns="http://www.w3.org/2000/svg" xmlns:xlink="http://www.w3.org/1999/xlink" version="1.1" id="Layer_1" x="0px" y="0px" viewBox="0 0 512 512" style="enable-background:new 0 0 512 512;" xml:space="preserve">
<g>
	<g>
		<circle cx="228.766" cy="354.043" r="8.17"/>
	</g>
</g>
<g>
	<g>
		<circle cx="196.085" cy="321.362" r="8.17"/>
	</g>
</g>
<g>
	<g>
		<path d="M373.46,292.469C347.318,266.918,314.525,239.66,256,239.66c-65.368,0-98.084,33.075-129.723,65.063    c-30.63,30.965-59.56,60.213-118.106,60.213c-4.512,0-8.17,3.657-8.17,8.17s3.658,8.17,8.17,8.17    c65.368,0,98.085-33.075,129.723-65.063C168.523,285.248,197.453,256,256,256c52.384,0,81.108,23.79,106.04,48.155    c3.227,3.154,8.399,3.093,11.554-0.133C376.747,300.795,376.688,295.622,373.46,292.469z"/>
	</g>
</g>
<g>
	<g>
		<path d="M503.83,364.936c-52.384,0-81.108-23.789-106.04-48.155c-3.228-3.155-8.4-3.094-11.554,0.133    c-3.154,3.228-3.095,8.4,0.133,11.554c26.142,25.551,58.936,52.809,117.46,52.809c4.512,0,8.17-3.657,8.17-8.17    S508.342,364.936,503.83,364.936z"/>
	</g>
</g>
<g>
	<g>
		<path d="M372.289,59.915c4.512,0,8.17-3.657,8.17-8.17V8.17c0-4.513-3.658-8.17-8.17-8.17H138.077c-4.512,0-8.17,3.657-8.17,8.17    v43.574c0,4.513,3.658,8.17,8.17,8.17h2.723v16.34h-2.723c-4.512,0-8.17,3.657-8.17,8.17V128c0,4.513,3.658,8.17,8.17,8.17h2.723    v16.34h-2.723c-4.512,0-8.17,3.657-8.17,8.17v43.574c0,4.513,3.658,8.17,8.17,8.17h234.213c4.512,0,8.17-3.657,8.17-8.17v-43.574    c0-4.513-3.658-8.17-8.17-8.17h-2.723v-16.34h2.723c4.512,0,8.17-3.657,8.17-8.17V84.426c0-4.513-3.658-8.17-8.17-8.17h-2.723    v-16.34H372.289z M364.119,196.085H146.247v-27.234h217.872V196.085z M364.119,119.83h-35.404c-4.512,0-8.17,3.657-8.17,8.17    c0,4.513,3.658,8.17,8.17,8.17h24.511v16.34H157.14v-16.34h138.894c4.512,0,8.17-3.657,8.17-8.17c0-4.513-3.658-8.17-8.17-8.17    H146.247V92.596h217.872V119.83z M157.14,76.255v-16.34h196.085v16.34H157.14z M364.119,43.574H146.247V16.34h217.872V43.574z"/>
	</g>
</g>
<g>
	<g>
		<path d="M503.83,397.617H8.17c-4.512,0-8.17,3.657-8.17,8.17v98.043c0,4.513,3.658,8.17,8.17,8.17h495.66    c4.512,0,8.17-3.657,8.17-8.17v-98.043C512,401.274,508.342,397.617,503.83,397.617z M397.617,495.66H16.34v-81.702h381.277    V495.66z M495.66,495.66h-81.702v-81.702h81.702V495.66z"/>
	</g>
</g>
<g>
</g>
<g>
</g>
<g>
</g>
<g>
</g>
<g>
</g>
<g>
</g>
<g>
</g>
<g>
</g>
<g>
</g>
<g>
</g>
<g>
</g>
<g>
</g>
<g>
</g>
<g>
</g>
<g>
</g>
</svg>
