<?xml version="1.0" encoding="iso-8859-1"?>
<!-- Generator: Adobe Illustrator 19.0.0, SVG Export Plug-In . SVG Version: 6.00 Build 0)  -->
<svg xmlns="http://www.w3.org/2000/svg" xmlns:xlink="http://www.w3.org/1999/xlink" version="1.1" id="Layer_1" x="0px" y="0px" viewBox="0 0 512.001 512.001" style="enable-background:new 0 0 512.001 512.001;" xml:space="preserve">
<g>
	<g>
		<path d="M471.149,70.808h-16.34c-4.513,0-8.17,3.657-8.17,8.17c0,4.513,3.658,8.17,8.17,8.17h8.17v8.17    c0,4.513,3.657,8.17,8.17,8.17s8.17-3.657,8.17-8.17v-16.34C479.319,74.465,475.662,70.808,471.149,70.808z"/>
	</g>
</g>
<g>
	<g>
		<path d="M373.106,70.808h-16.34c-4.513,0-8.17,3.657-8.17,8.17c0,4.513,3.658,8.17,8.17,8.17h16.34c4.513,0,8.17-3.657,8.17-8.17    C381.277,74.465,377.62,70.808,373.106,70.808z"/>
	</g>
</g>
<g>
	<g>
		<path d="M275.064,70.808h-16.34c-4.513,0-8.17,3.657-8.17,8.17c0,4.513,3.658,8.17,8.17,8.17h16.34c4.513,0,8.17-3.657,8.17-8.17    C283.234,74.465,279.577,70.808,275.064,70.808z"/>
	</g>
</g>
<g>
	<g>
		<path d="M226.043,70.808h-16.34c-4.513,0-8.17,3.657-8.17,8.17c0,4.513,3.658,8.17,8.17,8.17h16.34c4.513,0,8.17-3.657,8.17-8.17    C234.213,74.465,230.556,70.808,226.043,70.808z"/>
	</g>
</g>
<g>
	<g>
		<path d="M177.021,70.808h-16.34c-4.513,0-8.17,3.657-8.17,8.17c0,4.513,3.658,8.17,8.17,8.17h16.34c4.513,0,8.17-3.657,8.17-8.17    C185.192,74.465,181.535,70.808,177.021,70.808z"/>
	</g>
</g>
<g>
	<g>
		<path d="M324.085,70.808h-16.34c-4.513,0-8.17,3.657-8.17,8.17c0,4.513,3.658,8.17,8.17,8.17h16.34c4.513,0,8.17-3.657,8.17-8.17    C332.255,74.465,328.598,70.808,324.085,70.808z"/>
	</g>
</g>
<g>
	<g>
		<path d="M471.149,168.851c-4.513,0-8.17,3.657-8.17,8.17v16.34c0,4.513,3.657,8.17,8.17,8.17s8.17-3.657,8.17-8.17v-16.34    C479.319,172.508,475.662,168.851,471.149,168.851z"/>
	</g>
</g>
<g>
	<g>
		<path d="M471.149,266.893c-4.513,0-8.17,3.657-8.17,8.17v16.34c0,4.513,3.657,8.17,8.17,8.17s8.17-3.657,8.17-8.17v-16.34    C479.319,270.55,475.662,266.893,471.149,266.893z"/>
	</g>
</g>
<g>
	<g>
		<path d="M471.149,315.915c-4.513,0-8.17,3.657-8.17,8.17v16.34c0,4.513,3.657,8.17,8.17,8.17s8.17-3.657,8.17-8.17v-16.34    C479.319,319.572,475.662,315.915,471.149,315.915z"/>
	</g>
</g>
<g>
	<g>
		<path d="M471.149,364.936c-4.513,0-8.17,3.657-8.17,8.17v16.34c0,4.513,3.657,8.17,8.17,8.17s8.17-3.657,8.17-8.17v-16.34    C479.319,368.593,475.662,364.936,471.149,364.936z"/>
	</g>
</g>
<g>
	<g>
		<path d="M471.149,217.872c-4.513,0-8.17,3.657-8.17,8.17v16.34c0,4.513,3.657,8.17,8.17,8.17s8.17-3.657,8.17-8.17v-16.34    C479.319,221.529,475.662,217.872,471.149,217.872z"/>
	</g>
</g>
<g>
	<g>
		<path d="M422.128,70.808h-16.34c-4.513,0-8.17,3.657-8.17,8.17c0,4.513,3.658,8.17,8.17,8.17h16.34c4.513,0,8.17-3.657,8.17-8.17    C430.298,74.465,426.641,70.808,422.128,70.808z"/>
	</g>
</g>
<g>
	<g>
		<path d="M471.149,119.83c-4.513,0-8.17,3.657-8.17,8.17v16.34c0,4.513,3.657,8.17,8.17,8.17s8.17-3.657,8.17-8.17V128    C479.319,123.487,475.662,119.83,471.149,119.83z"/>
	</g>
</g>
<g>
	<g>
		<path d="M373.106,168.851h-16.34c-4.513,0-8.17,3.657-8.17,8.17s3.658,8.17,8.17,8.17h8.17v8.17c0,4.513,3.657,8.17,8.17,8.17    s8.17-3.657,8.17-8.17v-16.34C381.277,172.508,377.62,168.851,373.106,168.851z"/>
	</g>
</g>
<g>
	<g>
		<path d="M275.064,168.851h-16.34c-4.513,0-8.17,3.657-8.17,8.17s3.657,8.17,8.17,8.17h16.34c4.513,0,8.17-3.657,8.17-8.17    S279.577,168.851,275.064,168.851z"/>
	</g>
</g>
<g>
	<g>
		<path d="M177.021,168.851h-16.34c-4.513,0-8.17,3.657-8.17,8.17s3.658,8.17,8.17,8.17h16.34c4.513,0,8.17-3.657,8.17-8.17    S181.535,168.851,177.021,168.851z"/>
	</g>
</g>
<g>
	<g>
		<path d="M226.043,168.851h-16.34c-4.513,0-8.17,3.657-8.17,8.17s3.658,8.17,8.17,8.17h16.34c4.513,0,8.17-3.657,8.17-8.17    S230.556,168.851,226.043,168.851z"/>
	</g>
</g>
<g>
	<g>
		<path d="M373.106,266.893c-4.513,0-8.17,3.657-8.17,8.17v16.34c0,4.513,3.657,8.17,8.17,8.17s8.17-3.657,8.17-8.17v-16.34    C381.277,270.55,377.62,266.893,373.106,266.893z"/>
	</g>
</g>
<g>
	<g>
		<path d="M373.106,364.936c-4.513,0-8.17,3.657-8.17,8.17v16.34c0,4.513,3.657,8.17,8.17,8.17s8.17-3.657,8.17-8.17v-16.34    C381.277,368.593,377.62,364.936,373.106,364.936z"/>
	</g>
</g>
<g>
	<g>
		<path d="M373.106,315.915c-4.513,0-8.17,3.657-8.17,8.17v16.34c0,4.513,3.657,8.17,8.17,8.17s8.17-3.657,8.17-8.17v-16.34    C381.277,319.572,377.62,315.915,373.106,315.915z"/>
	</g>
</g>
<g>
	<g>
		<path d="M242.383,359.489c4.513,0,8.17-3.657,8.17-8.17v-43.574c0-4.513-3.657-8.17-8.17-8.17H8.17c-4.513,0-8.17,3.657-8.17,8.17    v43.574c0,4.513,3.657,8.17,8.17,8.17h2.723v16.34H8.17C3.657,375.83,0,379.487,0,384v43.574c0,4.513,3.657,8.17,8.17,8.17h2.723    v16.34H8.17c-4.513,0-8.17,3.657-8.17,8.17v43.574c0,4.513,3.657,8.17,8.17,8.17h234.213c4.513,0,8.17-3.657,8.17-8.17v-43.574    c0-4.513-3.657-8.17-8.17-8.17h-2.723v-16.34h2.723c4.513,0,8.17-3.657,8.17-8.17V384c0-4.513-3.657-8.17-8.17-8.17h-2.723v-16.34    H242.383z M234.213,495.659H16.34v-27.234h217.872V495.659z M234.213,419.404h-35.404c-4.513,0-8.17,3.657-8.17,8.17    s3.657,8.17,8.17,8.17h24.511v16.34H27.234v-16.34h138.894c4.513,0,8.17-3.657,8.17-8.17s-3.657-8.17-8.17-8.17H16.34V392.17    h217.872V419.404z M27.234,375.83v-16.34h196.085v16.34H27.234z M234.213,343.149H16.34v-27.234h217.872V343.149z"/>
	</g>
</g>
<g>
	<g>
		<path d="M509.608,476.264l-21.787-21.787c-3.192-3.19-8.364-3.19-11.555,0c-3.191,3.192-3.191,8.364,0,11.555l7.84,7.839H275.064    c-4.513,0-8.17,3.657-8.17,8.17s3.657,8.17,8.17,8.17h209.041l-7.84,7.839c-3.191,3.192-3.191,8.364,0,11.555    c1.596,1.595,3.688,2.392,5.778,2.392s4.182-0.797,5.778-2.392l21.787-21.787C512.799,484.629,512.799,479.456,509.608,476.264z"/>
	</g>
</g>
<g>
	<g>
		<path d="M57.523,24.18L35.735,2.393c-3.192-3.19-8.364-3.19-11.555,0L2.393,24.18c-3.191,3.192-3.191,8.364,0,11.555    c3.191,3.189,8.363,3.189,11.555,0l7.839-7.84v247.169c0,4.513,3.657,8.17,8.17,8.17s8.17-3.657,8.17-8.17V27.895l7.839,7.84    c1.596,1.595,3.688,2.392,5.778,2.392c2.091,0,4.182-0.797,5.778-2.392C60.713,32.543,60.713,27.371,57.523,24.18z"/>
	</g>
</g>
<g>
	<g>
		<path d="M324.085,168.851h-16.34c-4.513,0-8.17,3.657-8.17,8.17s3.658,8.17,8.17,8.17h16.34c4.513,0,8.17-3.657,8.17-8.17    S328.598,168.851,324.085,168.851z"/>
	</g>
</g>
<g>
	<g>
		<path d="M373.106,217.872c-4.513,0-8.17,3.657-8.17,8.17v16.34c0,4.513,3.657,8.17,8.17,8.17s8.17-3.657,8.17-8.17v-16.34    C381.277,221.529,377.62,217.872,373.106,217.872z"/>
	</g>
</g>
<g>
	<g>
		<path d="M128,70.808h-16.34c-4.513,0-8.17,3.657-8.17,8.17c0,4.513,3.658,8.17,8.17,8.17H128c4.513,0,8.17-3.657,8.17-8.17    C136.17,74.465,132.513,70.808,128,70.808z"/>
	</g>
</g>
<g>
	<g>
		<path d="M128,168.851h-16.34c-4.513,0-8.17,3.657-8.17,8.17s3.658,8.17,8.17,8.17H128c4.513,0,8.17-3.657,8.17-8.17    S132.513,168.851,128,168.851z"/>
	</g>
</g>
<g>
	<g>
		<path d="M78.979,70.808h-16.34c-4.512,0-8.17,3.657-8.17,8.17c0,4.513,3.657,8.17,8.17,8.17h16.34c4.513,0,8.17-3.657,8.17-8.17    C87.149,74.465,83.492,70.808,78.979,70.808z"/>
	</g>
</g>
<g>
	<g>
		<path d="M78.979,168.851h-16.34c-4.513,0-8.17,3.657-8.17,8.17s3.657,8.17,8.17,8.17h16.34c4.513,0,8.17-3.657,8.17-8.17    S83.492,168.851,78.979,168.851z"/>
	</g>
</g>
<g>
	<g>
		<path d="M373.106,413.957c-4.513,0-8.17,3.657-8.17,8.17v16.34c0,4.513,3.657,8.17,8.17,8.17s8.17-3.657,8.17-8.17v-16.34    C381.277,417.614,377.62,413.957,373.106,413.957z"/>
	</g>
</g>
<g>
</g>
<g>
</g>
<g>
</g>
<g>
</g>
<g>
</g>
<g>
</g>
<g>
</g>
<g>
</g>
<g>
</g>
<g>
</g>
<g>
</g>
<g>
</g>
<g>
</g>
<g>
</g>
<g>
</g>
</svg>
