<?xml version="1.0" encoding="iso-8859-1"?>
<!-- Generator: Adobe Illustrator 19.0.0, SVG Export Plug-In . SVG Version: 6.00 Build 0)  -->
<svg xmlns="http://www.w3.org/2000/svg" xmlns:xlink="http://www.w3.org/1999/xlink" version="1.1" id="Layer_1" x="0px" y="0px" viewBox="0 0 512 512" style="enable-background:new 0 0 512 512;" xml:space="preserve">
<g>
	<g>
		<path d="M503.83,21.787H8.17c-4.512,0-8.17,3.657-8.17,8.17v452.085c0,4.513,3.658,8.17,8.17,8.17h495.66    c4.513,0,8.17-3.657,8.17-8.17V29.957C512,25.444,508.343,21.787,503.83,21.787z M495.66,473.872H16.34V103.489H495.66V473.872z     M495.66,87.149H16.34V38.128H495.66V87.149z"/>
	</g>
</g>
<g>
	<g>
		<path d="M471.149,392.17c4.513,0,8.17-3.657,8.17-8.17V128c0-4.513-3.657-8.17-8.17-8.17H40.851c-4.512,0-8.17,3.657-8.17,8.17    v321.362c0,4.513,3.658,8.17,8.17,8.17h430.298c4.513,0,8.17-3.657,8.17-8.17v-32.681c0-4.513-3.657-8.17-8.17-8.17    s-8.17,3.657-8.17,8.17v24.511H49.021V136.17h413.957V384C462.979,388.513,466.636,392.17,471.149,392.17z"/>
	</g>
</g>
<g>
	<g>
		<circle cx="430.298" cy="62.638" r="8.17"/>
	</g>
</g>
<g>
	<g>
		<circle cx="397.617" cy="62.638" r="8.17"/>
	</g>
</g>
<g>
	<g>
		<circle cx="462.979" cy="62.638" r="8.17"/>
	</g>
</g>
<g>
	<g>
		<path d="M338.935,194.875c-0.024-0.022-0.048-0.042-0.072-0.064c-22.1-19.531-51.118-31.405-82.862-31.405    c-31.757,0-60.787,11.884-82.891,31.431c-25.989,22.999-42.385,56.54-42.385,93.844c0,37.303,16.394,70.843,42.349,93.813    c0.014,0.013,0.029,0.025,0.044,0.039c22.103,19.542,51.129,31.424,82.883,31.424c31.717,0,60.712-11.853,82.806-31.355    c0.031-0.027,0.062-0.054,0.093-0.082c25.971-22.97,42.377-56.522,42.377-93.839C381.277,251.381,364.886,217.844,338.935,194.875    z M364.63,280.511h-61.52c-0.39-17.128-2.005-34.099-4.815-49.589c12.453-4.477,24.188-10.931,34.746-19.184    C350.935,229.653,362.637,253.752,364.63,280.511z M320.364,200.851c-7.903,5.803-16.509,10.479-25.575,13.942    c-3.181-12.354-7.253-23.232-12.197-31.758C296.416,186.515,309.197,192.646,320.364,200.851z M236.163,208.496    c7.074-21.221,15.108-28.752,19.838-28.752c4.73,0,12.764,7.53,19.838,28.752c1.156,3.469,2.219,7.144,3.203,10.968    c-7.521,1.633-15.238,2.494-23.042,2.494c-7.804,0-15.52-0.861-23.04-2.492C233.945,215.641,235.007,211.965,236.163,208.496z     M256,238.298c8.971,0,17.845-0.971,26.49-2.844c2.443,13.821,3.897,29.106,4.269,45.057h-61.516    c0.373-15.951,1.826-31.237,4.269-45.057C238.156,237.327,247.03,238.298,256,238.298z M229.41,183.033    c-4.944,8.528-9.016,19.405-12.198,31.76c-9.066-3.464-17.673-8.139-25.575-13.943    C202.805,192.645,215.586,186.515,229.41,183.033z M178.959,211.738c10.558,8.253,22.294,14.706,34.747,19.184    c-2.81,15.49-4.425,32.461-4.815,49.589h-61.52C149.365,253.752,161.067,229.654,178.959,211.738z M147.371,296.851h61.52    c0.39,17.128,2.005,34.099,4.815,49.589c-12.454,4.477-24.189,10.931-34.747,19.184    C161.067,347.708,149.365,323.61,147.371,296.851z M191.637,376.51c7.903-5.803,16.509-10.479,25.575-13.943    c3.182,12.357,7.254,23.234,12.198,31.76C215.586,390.847,202.804,384.716,191.637,376.51z M275.839,368.864    c-7.074,21.221-15.108,28.752-19.838,28.752c-4.73,0-12.764-7.53-19.838-28.752c-1.156-3.469-2.219-7.144-3.203-10.969    c7.52-1.632,15.237-2.492,23.04-2.492c7.804,0,15.521,0.861,23.042,2.492C278.058,361.72,276.995,365.396,275.839,368.864z     M256,339.064c-8.97,0-17.844,0.971-26.488,2.844c-2.443-13.82-3.897-29.106-4.269-45.057h61.517    c-0.373,15.952-1.826,31.237-4.269,45.057C273.845,340.034,264.971,339.064,256,339.064z M282.592,394.327    c4.944-8.526,9.016-19.404,12.196-31.758c9.066,3.464,17.672,8.139,25.575,13.942    C309.197,384.717,296.416,390.847,282.592,394.327z M333.042,365.624c-10.558-8.253-22.294-14.706-34.746-19.184    c2.81-15.49,4.425-32.461,4.815-49.589h61.52C362.637,323.61,350.935,347.709,333.042,365.624z"/>
	</g>
</g>
<g>
</g>
<g>
</g>
<g>
</g>
<g>
</g>
<g>
</g>
<g>
</g>
<g>
</g>
<g>
</g>
<g>
</g>
<g>
</g>
<g>
</g>
<g>
</g>
<g>
</g>
<g>
</g>
<g>
</g>
</svg>
