<?xml version="1.0" encoding="iso-8859-1"?>
<!-- Generator: Adobe Illustrator 19.0.0, SVG Export Plug-In . SVG Version: 6.00 Build 0)  -->
<svg xmlns="http://www.w3.org/2000/svg" xmlns:xlink="http://www.w3.org/1999/xlink" version="1.1" id="Layer_1" x="0px" y="0px" viewBox="0 0 512 512" style="enable-background:new 0 0 512 512;" xml:space="preserve">
<g>
	<g>
		<path d="M509.026,293.269l-18.785-15.482l18.785-15.482c1.884-1.552,2.974-3.865,2.974-6.305c0-2.44-1.09-4.753-2.974-6.305    l-18.785-15.482l18.785-15.482c1.884-1.552,2.974-3.865,2.974-6.305s-1.09-4.753-2.974-6.305L261.196,1.864    c-3.019-2.485-7.375-2.485-10.392,0L2.974,206.12C1.09,207.671,0,209.984,0,212.425c0,2.441,1.09,4.753,2.974,6.305l18.785,15.482    L2.974,249.693C1.09,251.245,0,253.558,0,255.999c0,2.441,1.09,4.753,2.974,6.305l18.785,15.482L2.974,293.267    C1.09,294.82,0,297.133,0,299.574c0,2.441,1.09,4.753,2.974,6.305l247.83,204.255c1.509,1.243,3.353,1.865,5.196,1.865    c1.843,0,3.688-0.622,5.196-1.865l247.83-204.255c1.883-1.552,2.974-3.865,2.974-6.305    C512,297.134,510.91,294.821,509.026,293.269z M21.016,212.425L256,18.756l234.984,193.669L321.362,352.223l-60.165-49.588    c-3.019-2.485-7.375-2.485-10.393,0l-60.165,49.588L21.016,212.425z M298.603,354.64h-85.204L256,319.528L298.603,354.64z     M21.016,255.999l13.589-11.2l150.837,124.315c1.463,1.206,3.3,1.866,5.196,1.866h130.723c1.897,0,3.733-0.659,5.196-1.866    l150.836-124.316l13.59,11.201L256,449.667L21.016,255.999z M256,493.242L21.016,299.574l13.589-11.2L250.804,466.56    c1.509,1.243,3.353,1.865,5.196,1.865c1.843,0,3.688-0.622,5.196-1.865l216.198-178.186l13.59,11.2L256,493.242z"/>
	</g>
</g>
<g>
	<g>
		<path d="M430.463,228.519L261.196,89.012c-3.019-2.487-7.375-2.487-10.393,0L81.537,228.519c-3.482,2.87-3.978,8.019-1.109,11.503    c2.869,3.481,8.019,3.978,11.501,1.109L256,105.905L420.071,241.13c1.522,1.254,3.362,1.865,5.192,1.865    c2.356,0,4.694-1.014,6.31-2.973C434.442,236.539,433.946,231.39,430.463,228.519z"/>
	</g>
</g>
<g>
	<g>
		<path d="M457.642,206.12L261.196,44.213c-3.019-2.487-7.375-2.487-10.393,0L54.358,206.119c-3.482,2.87-3.978,8.019-1.109,11.503    c2.868,3.48,8.019,3.978,11.501,1.109L256,61.106L447.249,218.73c1.522,1.254,3.362,1.865,5.192,1.865    c2.356,0,4.694-1.014,6.31-2.973C461.62,214.14,461.125,208.99,457.642,206.12z"/>
	</g>
</g>
<g>
</g>
<g>
</g>
<g>
</g>
<g>
</g>
<g>
</g>
<g>
</g>
<g>
</g>
<g>
</g>
<g>
</g>
<g>
</g>
<g>
</g>
<g>
</g>
<g>
</g>
<g>
</g>
<g>
</g>
</svg>
