<?xml version="1.0" encoding="iso-8859-1"?>
<!-- Generator: Adobe Illustrator 19.0.0, SVG Export Plug-In . SVG Version: 6.00 Build 0)  -->
<svg xmlns="http://www.w3.org/2000/svg" xmlns:xlink="http://www.w3.org/1999/xlink" version="1.1" id="Layer_1" x="0px" y="0px" viewBox="0 0 512 512" style="enable-background:new 0 0 512 512;" xml:space="preserve">
<g>
	<g>
		<path d="M512,62.09V8.17c0-4.513-3.657-8.17-8.17-8.17h-53.921c-2.167,0-4.244,0.861-5.778,2.392L256,190.524L67.868,2.392    C66.336,0.861,64.257,0,62.09,0H8.17C3.657,0,0,3.657,0,8.17v53.92c0,2.167,0.861,4.244,2.392,5.778L190.525,256l-59.164,59.164    c-3.191,3.192-3.191,8.364,0,11.555c1.596,1.595,3.688,2.392,5.778,2.392c2.09,0,4.182-0.797,5.778-2.392l59.164-59.164    l15.405,15.405l-59.164,59.164c-3.191,3.192-3.191,8.364,0,11.555c1.596,1.595,3.688,2.392,5.778,2.392    c2.09,0,4.182-0.797,5.778-2.392l59.164-59.164l86.124,86.124c1.596,1.595,3.688,2.392,5.778,2.392    c2.091,0,4.182-0.797,5.778-2.392c3.191-3.192,3.191-8.364,0-11.555L16.34,58.707V16.34h42.366L386.416,344.05l-78.956,78.956    c-15.928,15.928-15.928,41.845,0,57.772c7.965,7.964,18.425,11.946,28.888,11.946c10.461,0,20.921-3.982,28.887-11.946    c7.715-7.716,11.964-17.974,11.964-28.887c0-8.135-2.363-15.909-6.763-22.535l12.129-12.13l48.16,48.161    c-1.735,12.287,2.109,25.218,11.539,34.647c7.716,7.715,17.974,11.964,28.887,11.964c10.912,0,21.171-4.25,28.887-11.964    c15.928-15.928,15.928-41.845,0-57.772c-7.717-7.715-17.976-11.964-28.888-11.964c-1.951,0-3.88,0.142-5.778,0.409l-48.143-48.142    l12.13-12.129c6.625,4.4,14.399,6.763,22.535,6.763c10.912,0,21.171-4.25,28.887-11.964c15.928-15.929,15.928-41.845,0-57.773    c-15.928-15.928-41.845-15.928-57.772,0l-25.034,25.034L321.476,256L509.608,67.868C511.139,66.336,512,64.258,512,62.09z     M471.149,446.638c6.547,0,12.702,2.55,17.331,7.18c9.557,9.556,9.557,25.105,0,34.661c-4.629,4.63-10.784,7.18-17.331,7.18    s-12.702-2.55-17.331-7.18c-9.557-9.556-9.557-25.105,0-34.661C458.447,449.188,464.602,446.638,471.149,446.638z     M434.561,319.016c9.555-9.557,25.107-9.557,34.661,0c9.557,9.556,9.557,25.107,0,34.662c-4.629,4.63-10.784,7.18-17.331,7.18    c-6.547,0-12.702-2.55-17.331-7.18c-3.191-3.189-8.364-3.191-11.554,0l-23.11,23.109c-1.533,1.533-2.393,3.61-2.393,5.778    c0,2.168,0.861,4.244,2.392,5.778l48.721,48.721c-2.262,1.501-4.39,3.237-6.353,5.2c-1.977,1.978-3.709,4.11-5.195,6.357    l-48.725-48.725c-1.533-1.532-3.61-2.392-5.778-2.392c-2.168,0-4.244,0.861-5.778,2.393l-23.109,23.11    c-3.191,3.191-3.191,8.363,0,11.554c4.63,4.629,7.18,10.784,7.18,17.331s-2.55,12.702-7.18,17.331    c-9.555,9.556-25.107,9.558-34.662,0c-9.557-9.556-9.557-25.105,0-34.661L434.561,319.016z M495.66,58.707L309.921,244.444    l-15.406-15.405L482.647,40.909c3.191-3.192,3.191-8.364,0-11.555c-3.191-3.189-8.363-3.191-11.555,0L282.96,217.483    l-15.405-15.405L453.292,16.34h42.367V58.707z"/>
	</g>
</g>
<g>
	<g>
		<circle cx="60.111" cy="336.351" r="8.17"/>
	</g>
</g>
<g>
	<g>
		<circle cx="175.649" cy="451.889" r="8.17"/>
	</g>
</g>
<g>
	<g>
		<path d="M238.671,327.253c-3.194-3.191-8.366-3.191-11.558-0.001l-59.164,59.164L88.993,307.46    c-15.928-15.928-41.845-15.928-57.772,0c-15.928,15.929-15.928,41.845,0,57.773c7.716,7.715,17.974,11.964,28.887,11.964    c8.135,0,15.909-2.363,22.535-6.763l12.13,12.129l-48.143,48.142c-1.898-0.267-3.827-0.409-5.778-0.409    c-10.912,0-21.171,4.25-28.887,11.964c-15.928,15.928-15.928,41.845,0,57.772C19.68,507.75,29.939,512,40.851,512    s21.171-4.25,28.887-11.964c9.43-9.43,13.274-22.36,11.539-34.647l48.16-48.161l12.129,12.13    c-4.4,6.627-6.763,14.399-6.763,22.535c0,10.912,4.25,21.171,11.964,28.887c7.965,7.964,18.425,11.946,28.887,11.946    c10.462,0,20.922-3.982,28.888-11.946c7.715-7.716,11.964-17.974,11.964-28.887c0-10.912-4.25-21.171-11.964-28.887    l-25.034-25.034l59.164-59.164C241.862,335.616,241.862,330.444,238.671,327.253z M58.182,488.48    c-4.629,4.63-10.784,7.18-17.331,7.18s-12.702-2.55-17.331-7.18c-9.557-9.556-9.557-25.105,0-34.661    c4.629-4.63,10.784-7.18,17.331-7.18s12.702,2.55,17.331,7.18C67.74,463.374,67.74,478.924,58.182,488.48z M192.987,434.562    c4.626,4.628,7.177,10.784,7.177,17.33c0,6.547-2.55,12.702-7.18,17.331c-9.556,9.558-25.108,9.556-34.663,0    c-4.629-4.629-7.179-10.784-7.179-17.331c0-6.547,2.55-12.702,7.18-17.331c3.191-3.192,3.191-8.364,0-11.554l-23.109-23.11    c-1.533-1.533-3.61-2.393-5.778-2.393c-2.168,0-4.244,0.861-5.778,2.392l-48.724,48.725c-1.487-2.247-3.218-4.38-5.195-6.358    c-1.963-1.963-4.093-3.698-6.353-5.2l48.721-48.721c1.532-1.533,2.392-3.61,2.392-5.778c0-2.168-0.861-4.244-2.393-5.778    l-23.11-23.109c-3.19-3.19-8.363-3.19-11.554,0c-4.629,4.63-10.784,7.18-17.331,7.18s-12.702-2.55-17.331-7.18    c-9.557-9.556-9.557-25.107,0-34.662c9.555-9.557,25.107-9.557,34.661,0l84.726,84.725    C162.182,403.757,192.987,434.562,192.987,434.562z"/>
	</g>
</g>
<g>
	<g>
		<circle cx="451.889" cy="336.351" r="8.17"/>
	</g>
</g>
<g>
	<g>
		<circle cx="336.351" cy="451.889" r="8.17"/>
	</g>
</g>
<g>
	<g>
		<path d="M353.68,342.125L40.909,29.353c-3.192-3.19-8.364-3.19-11.555,0c-3.191,3.192-3.191,8.364,0,11.555L342.125,353.68    c1.596,1.595,3.688,2.392,5.778,2.392s4.182-0.797,5.778-2.392C356.871,350.488,356.871,345.316,353.68,342.125z"/>
	</g>
</g>
<g>
</g>
<g>
</g>
<g>
</g>
<g>
</g>
<g>
</g>
<g>
</g>
<g>
</g>
<g>
</g>
<g>
</g>
<g>
</g>
<g>
</g>
<g>
</g>
<g>
</g>
<g>
</g>
<g>
</g>
</svg>
