<?xml version="1.0" encoding="iso-8859-1"?>
<!-- Generator: Adobe Illustrator 19.0.0, SVG Export Plug-In . SVG Version: 6.00 Build 0)  -->
<svg xmlns="http://www.w3.org/2000/svg" xmlns:xlink="http://www.w3.org/1999/xlink" version="1.1" id="Layer_1" x="0px" y="0px" viewBox="0 0 512 512" style="enable-background:new 0 0 512 512;" xml:space="preserve">
<g>
	<g>
		<path d="M437.019,74.981C388.667,26.628,324.38,0,256,0S123.333,26.628,74.981,74.981S0,187.62,0,256    s26.628,132.667,74.981,181.019C123.333,485.372,187.62,512,256,512s132.667-26.628,181.019-74.981    C485.372,388.667,512,324.38,512,256S485.372,123.333,437.019,74.981z M495.505,247.83h-49.053    c-1.967-46.412-20.601-88.58-50.065-120.661l34.667-34.668C469.368,133.496,493.486,187.906,495.505,247.83z M256,16.34    c63.142,0,120.647,24.556,163.499,64.606l-34.667,34.667C350.878,84.429,305.626,65.362,256,65.362s-94.878,19.067-128.831,50.251    L92.501,80.946C135.353,40.897,192.858,16.34,256,16.34z M80.946,92.501l34.667,34.667    c-29.463,32.082-48.097,74.25-50.065,120.662H16.495C18.514,187.906,42.632,133.497,80.946,92.501z M144.354,389.731    c-3.461-2.896-8.614-2.436-11.508,1.025c-2.894,3.461-2.436,8.614,1.025,11.508c32.119,26.861,72.309,42.393,113.959,44.195    v49.045C122.164,491.273,20.727,389.836,16.495,264.17H65.54c1.802,41.652,17.333,81.842,44.195,113.959    c2.894,3.461,8.048,3.921,11.508,1.025c3.462-2.894,3.921-8.047,1.025-11.508C96.11,336.367,81.702,296.717,81.702,256    c0-96.109,78.189-174.298,174.298-174.298S430.298,159.891,430.298,256S352.109,430.298,256,430.298    C215.284,430.298,175.635,415.89,144.354,389.731z M264.17,495.505v-49.053c72.911-3.091,135.347-47.322,164.646-110.026    l45.329,18.776C437.419,435.646,357.47,492.362,264.17,495.505z M480.411,340.111L435.1,321.342    c6.572-17.957,10.504-37.172,11.352-57.173h49.053C494.608,290.804,489.347,316.347,480.411,340.111z"/>
	</g>
</g>
<g>
	<g>
		<path d="M379.858,251.4c-28.017-41.117-74.32-65.663-123.858-65.663c-49.54,0-95.841,24.547-123.858,65.662    c-1.89,2.776-1.89,6.426,0,9.202c28.017,41.117,74.318,65.663,123.858,65.663c49.539,0,95.841-24.547,123.858-65.662    C381.748,257.826,381.748,254.175,379.858,251.4z M199.082,297.126c-19.571-9.262-36.868-23.272-50.159-41.126    c13.29-17.854,30.587-31.864,50.159-41.126c-8.385,11.571-13.346,25.775-13.346,41.126S190.697,285.554,199.082,297.126z     M256,309.923c-29.733,0-53.923-24.19-53.923-53.923s24.19-53.923,53.923-53.923s53.923,24.19,53.923,53.923    S285.733,309.923,256,309.923z M312.918,297.126c8.385-11.571,13.346-25.776,13.346-41.126s-4.961-29.554-13.346-41.126    c19.573,9.262,36.868,23.272,50.159,41.126C349.786,273.854,332.491,287.864,312.918,297.126z"/>
	</g>
</g>
<g>
	<g>
		<path d="M256,218.417c-20.723,0-37.583,16.86-37.583,37.583s16.86,37.583,37.583,37.583s37.583-16.86,37.583-37.583    S276.723,218.417,256,218.417z M256,277.243c-11.713,0-21.243-9.53-21.243-21.243c0-11.713,9.53-21.243,21.243-21.243    c11.713,0,21.243,9.53,21.243,21.243C277.243,267.713,267.713,277.243,256,277.243z"/>
	</g>
</g>
<g>
	<g>
		<path d="M308.999,335.465c-2.088-4.002-7.026-5.551-11.023-3.466c-13.497,7.038-27.62,10.606-41.975,10.606    c-14.358,0-28.48-3.568-41.975-10.606c-4-2.085-8.935-0.535-11.022,3.467c-2.086,4.001-0.534,8.935,3.467,11.022    c15.85,8.265,32.515,12.457,49.53,12.457c17.014,0,33.679-4.192,49.531-12.458C309.532,344.401,311.085,339.466,308.999,335.465z"/>
	</g>
</g>
<g>
	<g>
		<path d="M305.53,165.513c-15.851-8.266-32.516-12.458-49.53-12.458c-17.015,0-33.68,4.192-49.531,12.458    c-4.001,2.087-5.554,7.021-3.467,11.022c2.088,4.002,7.023,5.548,11.023,3.466c13.496-7.038,27.619-10.606,41.975-10.606    c14.357,0,28.479,3.568,41.975,10.606c1.206,0.629,2.498,0.928,3.771,0.928c2.947,0,5.793-1.6,7.251-4.394    C311.084,172.534,309.531,167.599,305.53,165.513z"/>
	</g>
</g>
<g>
</g>
<g>
</g>
<g>
</g>
<g>
</g>
<g>
</g>
<g>
</g>
<g>
</g>
<g>
</g>
<g>
</g>
<g>
</g>
<g>
</g>
<g>
</g>
<g>
</g>
<g>
</g>
<g>
</g>
</svg>
