<?xml version="1.0" encoding="iso-8859-1"?>
<!-- Generator: Adobe Illustrator 19.0.0, SVG Export Plug-In . SVG Version: 6.00 Build 0)  -->
<svg xmlns="http://www.w3.org/2000/svg" xmlns:xlink="http://www.w3.org/1999/xlink" version="1.1" id="Layer_1" x="0px" y="0px" viewBox="0 0 512 512" style="enable-background:new 0 0 512 512;" xml:space="preserve">
<g>
	<g>
		<path d="M503.83,324.085h-38.128c-4.512,0-8.17,3.657-8.17,8.17s3.658,8.17,8.17,8.17h29.957v16.34h-54.468v-24.511    c0-4.513-3.658-8.17-8.17-8.17h-70.809c-4.512,0-8.17,3.657-8.17,8.17v114.383c0,13.515,10.995,24.511,24.511,24.511h108.936    c13.516,0,24.511-10.996,24.511-24.511V332.255C512,327.742,508.342,324.085,503.83,324.085z M495.66,446.638    c0,4.506-3.665,8.17-8.17,8.17H378.553c-4.506,0-8.17-3.665-8.17-8.17V340.426h54.468v24.511c0,4.513,3.658,8.17,8.17,8.17h62.638    V446.638z"/>
	</g>
</g>
<g>
	<g>
		<path d="M326.809,324.085h-38.128c-4.512,0-8.17,3.657-8.17,8.17s3.658,8.17,8.17,8.17h29.957v16.34H264.17v-24.511    c0-4.513-3.658-8.17-8.17-8.17h-70.808c-4.512,0-8.17,3.657-8.17,8.17v114.383c0,13.515,10.995,24.511,24.511,24.511h108.936    c13.516,0,24.511-10.996,24.511-24.511V332.255C334.979,327.742,331.321,324.085,326.809,324.085z M318.638,446.638    c0,4.506-3.665,8.17-8.17,8.17H201.532c-4.506,0-8.17-3.665-8.17-8.17V340.426h54.468v24.511c0,4.513,3.658,8.17,8.17,8.17h62.638    V446.638z"/>
	</g>
</g>
<g>
	<g>
		<path d="M149.787,324.085H111.66c-4.512,0-8.17,3.657-8.17,8.17s3.658,8.17,8.17,8.17h29.957v16.34H87.149v-24.511    c0-4.513-3.658-8.17-8.17-8.17H8.17c-4.512,0-8.17,3.657-8.17,8.17v114.383c0,13.515,10.995,24.511,24.511,24.511h108.936    c13.516,0,24.511-10.996,24.511-24.511V332.255C157.957,327.742,154.299,324.085,149.787,324.085z M141.617,446.638    c0,4.506-3.665,8.17-8.17,8.17H24.511c-4.506,0-8.17-3.665-8.17-8.17V340.426h54.468v24.511c0,4.513,3.658,8.17,8.17,8.17h62.638    V446.638z"/>
	</g>
</g>
<g>
	<g>
		<path d="M283.564,272.009c-3.191-3.19-8.364-3.19-11.554,0l-7.84,7.84v-34.743c0-4.513-3.658-8.17-8.17-8.17    c-4.512,0-8.17,3.657-8.17,8.17v34.743l-7.84-7.84c-3.191-3.19-8.364-3.19-11.554,0c-3.191,3.192-3.191,8.364,0,11.555    l21.787,21.787c0.218,0.211,0.404,0.381,0.599,0.541c0.095,0.077,0.194,0.145,0.291,0.217c0.117,0.087,0.231,0.178,0.352,0.258    c0.114,0.076,0.234,0.143,0.352,0.214c0.111,0.066,0.22,0.136,0.334,0.198c0.12,0.064,0.243,0.119,0.366,0.176    c0.119,0.057,0.236,0.115,0.358,0.167c0.12,0.049,0.242,0.089,0.363,0.133c0.131,0.047,0.259,0.097,0.392,0.137    c0.121,0.036,0.243,0.063,0.365,0.094c0.136,0.035,0.271,0.073,0.411,0.1c0.141,0.028,0.283,0.045,0.425,0.065    c0.122,0.017,0.241,0.04,0.364,0.052c0.268,0.026,0.537,0.04,0.806,0.04c0.269,0,0.538-0.014,0.806-0.04    c0.123-0.012,0.242-0.035,0.364-0.052c0.143-0.021,0.285-0.037,0.426-0.065c0.139-0.027,0.273-0.065,0.41-0.1    c0.122-0.031,0.244-0.058,0.365-0.094c0.133-0.04,0.261-0.09,0.392-0.137c0.121-0.044,0.243-0.084,0.363-0.133    c0.122-0.051,0.24-0.11,0.358-0.167c0.122-0.058,0.245-0.112,0.366-0.176c0.114-0.061,0.222-0.131,0.333-0.197    c0.118-0.071,0.237-0.137,0.353-0.215c0.121-0.081,0.234-0.17,0.35-0.257c0.097-0.073,0.197-0.141,0.292-0.218    c0.195-0.16,0.381-0.329,0.56-0.507c0.038-0.035,21.825-21.822,21.825-21.822C286.755,280.372,286.755,275.2,283.564,272.009z"/>
	</g>
</g>
<g>
	<g>
		<path d="M111.66,106.213H78.979c-4.512,0-8.17,3.657-8.17,8.17v32.681c0,4.513,3.658,8.17,8.17,8.17c4.512,0,8.17-3.657,8.17-8.17    v-24.511h24.511c4.512,0,8.17-3.657,8.17-8.17S116.172,106.213,111.66,106.213z"/>
	</g>
</g>
<g>
	<g>
		<path d="M367.66,106.213h-32.681V49.021c0-4.513-3.658-8.17-8.17-8.17h-38.128c-4.512,0-8.17,3.657-8.17,8.17    s3.658,8.17,8.17,8.17h29.957v16.34H264.17V49.021c0-4.513-3.658-8.17-8.17-8.17h-70.808c-4.512,0-8.17,3.657-8.17,8.17v57.191    H144.34c-4.512,0-8.17,3.657-8.17,8.17s3.658,8.17,8.17,8.17h32.681v40.851c0,13.515,10.995,24.511,24.511,24.511h46.298v24.511    c0,4.513,3.658,8.17,8.17,8.17c4.512,0,8.17-3.657,8.17-8.17v-24.511h46.298c13.516,0,24.511-10.996,24.511-24.511v-40.851h32.681    c4.512,0,8.17-3.657,8.17-8.17S372.172,106.213,367.66,106.213z M318.638,163.404c0,4.506-3.665,8.17-8.17,8.17H201.532    c-4.506,0-8.17-3.665-8.17-8.17V57.192h54.468v24.511c0,4.513,3.658,8.17,8.17,8.17h62.638V163.404z"/>
	</g>
</g>
<g>
	<g>
		<path d="M433.021,106.213H400.34c-4.512,0-8.17,3.657-8.17,8.17s3.658,8.17,8.17,8.17h24.511v24.511c0,4.513,3.658,8.17,8.17,8.17    c4.512,0,8.17-3.657,8.17-8.17v-32.681C441.191,109.87,437.533,106.213,433.021,106.213z"/>
	</g>
</g>
<g>
	<g>
		<path d="M460.585,272.009c-3.191-3.19-8.364-3.19-11.554,0l-7.84,7.84v-34.743c0-4.513-3.658-8.17-8.17-8.17    c-4.512,0-8.17,3.657-8.17,8.17v34.743l-7.84-7.84c-3.191-3.19-8.364-3.19-11.554,0c-3.191,3.192-3.191,8.364,0,11.555    l21.787,21.787c0.218,0.211,0.404,0.381,0.599,0.541c0.095,0.077,0.194,0.145,0.291,0.217c0.117,0.087,0.231,0.178,0.352,0.258    c0.114,0.076,0.234,0.143,0.352,0.214c0.111,0.066,0.22,0.136,0.334,0.198c0.12,0.064,0.243,0.119,0.366,0.176    c0.119,0.057,0.236,0.115,0.358,0.167c0.12,0.049,0.242,0.089,0.363,0.133c0.131,0.047,0.259,0.097,0.392,0.137    c0.121,0.036,0.243,0.063,0.365,0.094c0.136,0.035,0.271,0.073,0.411,0.1c0.141,0.028,0.283,0.045,0.425,0.065    c0.122,0.017,0.241,0.04,0.364,0.052c0.268,0.026,0.537,0.04,0.806,0.04s0.538-0.014,0.806-0.04    c0.123-0.012,0.242-0.035,0.364-0.052c0.143-0.021,0.285-0.037,0.426-0.065c0.139-0.027,0.273-0.065,0.41-0.1    c0.122-0.031,0.244-0.058,0.365-0.094c0.133-0.04,0.261-0.09,0.392-0.137c0.121-0.044,0.243-0.084,0.363-0.133    c0.122-0.051,0.24-0.11,0.358-0.167c0.122-0.058,0.245-0.112,0.366-0.176c0.114-0.061,0.222-0.131,0.333-0.197    c0.118-0.071,0.237-0.137,0.353-0.215c0.121-0.081,0.234-0.17,0.35-0.257c0.097-0.073,0.197-0.141,0.292-0.218    c0.195-0.16,0.381-0.329,0.56-0.507c0.038-0.035,21.825-21.822,21.825-21.822C463.776,280.372,463.776,275.2,460.585,272.009z"/>
	</g>
</g>
<g>
	<g>
		<path d="M78.979,171.574c-4.512,0-8.17,3.657-8.17,8.17v32.681c0,4.513,3.658,8.17,8.17,8.17c4.512,0,8.17-3.657,8.17-8.17    v-32.681C87.149,175.231,83.491,171.574,78.979,171.574z"/>
	</g>
</g>
<g>
	<g>
		<path d="M433.021,171.574c-4.512,0-8.17,3.657-8.17,8.17v32.681c0,4.513,3.658,8.17,8.17,8.17c4.512,0,8.17-3.657,8.17-8.17    v-32.681C441.191,175.231,437.533,171.574,433.021,171.574z"/>
	</g>
</g>
<g>
	<g>
		<path d="M106.543,272.01c-3.191-3.19-8.364-3.19-11.554,0l-7.84,7.839v-34.743c0-4.513-3.658-8.17-8.17-8.17    c-4.512,0-8.17,3.657-8.17,8.17v34.743l-7.84-7.84c-3.191-3.19-8.364-3.19-11.554,0c-3.191,3.192-3.191,8.364,0,11.555    l21.787,21.788c0.218,0.211,0.404,0.381,0.599,0.541c0.095,0.077,0.194,0.145,0.291,0.217c0.117,0.087,0.231,0.178,0.352,0.258    c0.114,0.076,0.234,0.143,0.352,0.214c0.111,0.066,0.22,0.136,0.334,0.198c0.12,0.064,0.243,0.119,0.366,0.176    c0.119,0.057,0.236,0.115,0.358,0.167c0.12,0.049,0.242,0.089,0.363,0.133c0.131,0.047,0.259,0.097,0.392,0.137    c0.121,0.036,0.243,0.063,0.365,0.094c0.136,0.035,0.271,0.073,0.411,0.1c0.141,0.028,0.283,0.045,0.425,0.065    c0.122,0.017,0.241,0.04,0.364,0.052c0.268,0.026,0.537,0.04,0.806,0.04c0.269,0,0.538-0.014,0.806-0.04    c0.123-0.012,0.242-0.035,0.364-0.052c0.143-0.021,0.285-0.037,0.426-0.065c0.139-0.027,0.273-0.065,0.41-0.1    c0.122-0.031,0.244-0.058,0.365-0.094c0.133-0.04,0.261-0.09,0.392-0.137c0.121-0.044,0.243-0.084,0.363-0.133    c0.122-0.051,0.24-0.11,0.358-0.167c0.122-0.058,0.245-0.112,0.366-0.176c0.114-0.061,0.222-0.131,0.333-0.197    c0.118-0.071,0.237-0.137,0.353-0.215c0.121-0.081,0.234-0.17,0.35-0.257c0.097-0.073,0.197-0.141,0.292-0.218    c0.195-0.16,0.381-0.329,0.56-0.507c0.038-0.035,21.825-21.822,21.825-21.822C109.734,280.373,109.734,275.201,106.543,272.01z"/>
	</g>
</g>
<g>
</g>
<g>
</g>
<g>
</g>
<g>
</g>
<g>
</g>
<g>
</g>
<g>
</g>
<g>
</g>
<g>
</g>
<g>
</g>
<g>
</g>
<g>
</g>
<g>
</g>
<g>
</g>
<g>
</g>
</svg>
