<?xml version="1.0" encoding="iso-8859-1"?>
<!-- Generator: Adobe Illustrator 19.0.0, SVG Export Plug-In . SVG Version: 6.00 Build 0)  -->
<svg xmlns="http://www.w3.org/2000/svg" xmlns:xlink="http://www.w3.org/1999/xlink" version="1.1" id="Layer_1" x="0px" y="0px" viewBox="0 0 512 512" style="enable-background:new 0 0 512 512;" xml:space="preserve">
<g>
	<g>
		<path d="M510.366,444.46l-31.047-41.396V182.468c0-22.526-18.325-40.851-40.851-40.851h-11.256C411.87,61.077,340.94,0,256,0    S100.13,61.077,84.788,141.617H73.532c-22.526,0-40.851,18.325-40.851,40.851v190.638c0,4.513,3.657,8.17,8.17,8.17    s8.17-3.657,8.17-8.17V182.468c0-13.515,10.996-24.511,24.511-24.511h8.943c-0.503,5.381-0.772,10.829-0.772,16.34    c0,32.361,8.861,63.705,25.678,91.082c-6.045,7.124-9.702,16.335-9.702,26.389c0,22.526,18.325,40.851,40.851,40.851    s40.851-18.325,40.851-40.851s-18.325-40.851-40.851-40.851c-6.532,0-12.705,1.549-18.186,4.287    c-14.6-24.417-22.301-52.214-22.301-80.906C98.043,87.2,168.902,16.34,256,16.34S413.957,87.2,413.957,174.298    S343.098,332.255,256,332.255c-20.746,0-40.925-3.969-59.978-11.796c-4.174-1.712-8.946,0.279-10.662,4.453    c-1.715,4.173,0.279,8.947,4.453,10.662c21.031,8.641,43.3,13.021,66.186,13.021c96.109,0,174.298-78.189,174.298-174.298    c0-5.511-0.269-10.959-0.772-16.34h8.943c13.515,0,24.511,10.996,24.511,24.511v215.149H40.851c-2.571,0-4.994,1.21-6.536,3.268    L1.634,444.46C0.573,445.874,0,447.594,0,449.362v21.787C0,493.675,18.325,512,40.851,512h430.298    C493.675,512,512,493.675,512,471.149v-21.787C512,447.594,511.427,445.874,510.366,444.46z M122.938,272.871    c0.038-0.032,0.078-0.061,0.117-0.093c4.223-3.448,9.611-5.521,15.477-5.521c13.514,0,24.51,10.996,24.51,24.511    s-10.996,24.511-24.511,24.511s-24.511-10.996-24.511-24.511C114.019,284.171,117.494,277.37,122.938,272.871z M44.936,413.957    h422.128l20.426,27.234H24.511L44.936,413.957z M495.66,471.149c0,13.515-10.996,24.511-24.511,24.511H40.851    c-13.515,0-24.511-10.996-24.511-24.511v-13.617H247.83v13.617c0,4.513,3.657,8.17,8.17,8.17c4.513,0,8.17-3.657,8.17-8.17    v-13.617H495.66V471.149z"/>
	</g>
</g>
<g>
	<g>
		<path d="M305.021,166.129h-3.46c-1.197-6.691-3.831-12.887-7.579-18.257l2.459-2.459c3.191-3.192,3.191-8.364,0-11.555    c-3.192-3.19-8.364-3.19-11.555,0l-2.459,2.459c-5.369-3.747-11.566-6.383-18.257-7.579v-3.462c0-4.513-3.657-8.17-8.17-8.17    c-4.513,0-8.17,3.657-8.17,8.17v3.46c-6.691,1.197-12.887,3.831-18.257,7.579l-2.459-2.459c-3.192-3.19-8.364-3.19-11.555,0    c-3.191,3.192-3.191,8.364,0,11.555l2.459,2.459c-3.747,5.369-6.383,11.566-7.579,18.257h-3.462v0.001    c-4.513,0-8.17,3.657-8.17,8.17c0,4.513,3.657,8.17,8.17,8.17h3.46c1.197,6.691,3.831,12.887,7.579,18.257l-2.459,2.459    c-3.191,3.192-3.191,8.364,0,11.555c1.596,1.595,3.688,2.392,5.778,2.392c2.091,0,4.182-0.797,5.778-2.392l2.459-2.459    c5.369,3.747,11.566,6.383,18.257,7.579v3.461c0,4.513,3.657,8.17,8.17,8.17c4.513,0,8.17-3.657,8.17-8.17v-3.46    c6.691-1.197,12.887-3.831,18.257-7.579l2.459,2.459c1.596,1.595,3.688,2.392,5.778,2.392s4.182-0.797,5.778-2.392    c3.191-3.192,3.191-8.364,0-11.555l-2.459-2.459c3.747-5.37,6.383-11.566,7.579-18.257h3.46c4.513,0,8.17-3.657,8.17-8.17    C313.191,169.786,309.534,166.129,305.021,166.129z M256,204.255c-16.518,0-29.957-13.439-29.957-29.957    c0-16.518,13.439-29.957,29.957-29.957s29.957,13.439,29.957,29.957C285.957,190.816,272.518,204.255,256,204.255z"/>
	</g>
</g>
<g>
	<g>
		<path d="M256,65.362c-24.987,0-49.397,8.674-68.737,24.424c-17.375,14.151-30.006,33.443-36.071,54.835    c-14.613,1.98-25.916,14.53-25.916,29.677c0,16.518,13.439,29.957,29.957,29.957c16.518,0,29.957-13.439,29.957-29.957    c0-12.143-7.267-22.614-17.676-27.314c11.828-38.247,47.879-65.282,88.484-65.282c51.057,0,92.596,41.538,92.596,92.596    c0,51.057-41.538,92.596-92.596,92.596c-32.54,0-62.108-16.605-79.09-44.418c-2.352-3.852-7.38-5.068-11.231-2.716    s-5.067,7.379-2.716,11.231c19.976,32.712,54.755,52.243,93.037,52.243c60.068,0,108.936-48.868,108.936-108.936    C364.936,114.229,316.068,65.362,256,65.362z M168.851,174.298c0,7.509-6.108,13.617-13.617,13.617s-13.617-6.108-13.617-13.617    c0-7.509,6.108-13.617,13.617-13.617c0.459,0,0.912,0.024,1.359,0.069c0.034,0.004,0.068,0.009,0.1,0.012    C163.519,161.494,168.851,167.283,168.851,174.298z"/>
	</g>
</g>
<g>
	<g>
		<circle cx="396.582" cy="33.719" r="8.17"/>
	</g>
</g>
<g>
	<g>
		<circle cx="115.418" cy="33.719" r="8.17"/>
	</g>
</g>
<g>
	<g>
		<circle cx="396.582" cy="314.88" r="8.17"/>
	</g>
</g>
<g>
	<g>
		<circle cx="389.447" cy="174.298" r="8.17"/>
	</g>
</g>
<g>
	<g>
		<circle cx="256" cy="40.851" r="8.17"/>
	</g>
</g>
<g>
</g>
<g>
</g>
<g>
</g>
<g>
</g>
<g>
</g>
<g>
</g>
<g>
</g>
<g>
</g>
<g>
</g>
<g>
</g>
<g>
</g>
<g>
</g>
<g>
</g>
<g>
</g>
<g>
</g>
</svg>
