<?xml version="1.0" encoding="iso-8859-1"?>
<!-- Generator: Adobe Illustrator 19.0.0, SVG Export Plug-In . SVG Version: 6.00 Build 0)  -->
<svg xmlns="http://www.w3.org/2000/svg" xmlns:xlink="http://www.w3.org/1999/xlink" version="1.1" id="Layer_1" x="0px" y="0px" viewBox="0 0 512 512" style="enable-background:new 0 0 512 512;" xml:space="preserve">
<g>
	<g>
		<circle cx="133.447" cy="503.83" r="8.17"/>
	</g>
</g>
<g>
	<g>
		<circle cx="40.851" cy="503.83" r="8.17"/>
	</g>
</g>
<g>
	<g>
		<circle cx="503.83" cy="503.83" r="8.17"/>
	</g>
</g>
<g>
	<g>
		<circle cx="226.043" cy="503.83" r="8.17"/>
	</g>
</g>
<g>
	<g>
		<circle cx="318.638" cy="503.83" r="8.17"/>
	</g>
</g>
<g>
	<g>
		<circle cx="411.234" cy="503.83" r="8.17"/>
	</g>
</g>
<g>
	<g>
		<path d="M503.83,46.298h-59.915c-4.512,0-8.17,3.657-8.17,8.17v384c0,4.513,3.658,8.17,8.17,8.17c4.512,0,8.17-3.657,8.17-8.17    V270.979h43.574v192h-76.255V193.362c0-4.513-3.658-8.17-8.17-8.17h-59.915c-4.512,0-8.17,3.657-8.17,8.17v245.106    c0,4.513,3.658,8.17,8.17,8.17s8.17-3.657,8.17-8.17v-98.043h43.574v122.553h-76.255V100.766c0-4.513-3.658-8.17-8.17-8.17    h-59.915c-4.512,0-8.17,3.657-8.17,8.17v337.702c0,4.513,3.658,8.17,8.17,8.17c4.512,0,8.17-3.657,8.17-8.17v-144.34h43.574    v168.851h-76.255V147.064c0-4.513-3.658-8.17-8.17-8.17h-59.915c-4.512,0-8.17,3.657-8.17,8.17v291.404    c0,4.513,3.658,8.17,8.17,8.17s8.17-3.657,8.17-8.17V317.277h43.574v145.702h-76.255V193.362c0-4.513-3.658-8.17-8.17-8.17H73.532    c-4.512,0-8.17,3.657-8.17,8.17v245.106c0,4.513,3.658,8.17,8.17,8.17s8.17-3.657,8.17-8.17v-98.043h43.574v122.553H49.021V8.17    c0-4.513-3.658-8.17-8.17-8.17s-8.17,3.657-8.17,8.17v462.979c0,4.513,3.658,8.17,8.17,8.17H503.83c4.512,0,8.17-3.657,8.17-8.17    V54.468C512,49.955,508.342,46.298,503.83,46.298z M125.277,324.085H81.702V201.532h43.574V324.085z M217.872,300.936h-43.574    V155.234h43.574V300.936z M310.468,277.787h-43.574V108.936h43.574V277.787z M403.064,324.085h-43.574V201.532h43.574V324.085z     M495.66,254.638h-43.574v-192h43.574V254.638z"/>
	</g>
</g>
<g>
	<g>
		<circle cx="8.17" cy="100.766" r="8.17"/>
	</g>
</g>
<g>
	<g>
		<circle cx="8.17" cy="8.17" r="8.17"/>
	</g>
</g>
<g>
	<g>
		<circle cx="8.17" cy="471.149" r="8.17"/>
	</g>
</g>
<g>
	<g>
		<circle cx="8.17" cy="193.362" r="8.17"/>
	</g>
</g>
<g>
	<g>
		<circle cx="8.17" cy="285.957" r="8.17"/>
	</g>
</g>
<g>
	<g>
		<circle cx="8.17" cy="378.553" r="8.17"/>
	</g>
</g>
<g>
</g>
<g>
</g>
<g>
</g>
<g>
</g>
<g>
</g>
<g>
</g>
<g>
</g>
<g>
</g>
<g>
</g>
<g>
</g>
<g>
</g>
<g>
</g>
<g>
</g>
<g>
</g>
<g>
</g>
</svg>
