<?xml version="1.0" encoding="iso-8859-1"?>
<!-- Generator: Adobe Illustrator 19.0.0, SVG Export Plug-In . SVG Version: 6.00 Build 0)  -->
<svg xmlns="http://www.w3.org/2000/svg" xmlns:xlink="http://www.w3.org/1999/xlink" version="1.1" id="Layer_1" x="0px" y="0px" viewBox="0 0 512 512" style="enable-background:new 0 0 512 512;" xml:space="preserve">
<g>
	<g>
		<path d="M510.366,443.048l-31.047-41.396V181.056c0-22.526-18.325-40.851-40.851-40.851h-7.486    c-5.996-25.873-17.762-50.667-35.314-72.3h12.467c4.512,0,8.17-3.657,8.17-8.17s-3.658-8.17-8.17-8.17h-30.813    c-4.512,0-8.17,3.657-8.17,8.17v30.812c0,4.513,3.658,8.17,8.17,8.17s8.17-3.657,8.17-8.17V81.38    c13.756,17.845,23.309,37.904,28.675,58.826h-39.737c-16.977-49.08-63.651-84.424-118.43-84.424    c-54.78,0-101.453,35.344-118.431,84.424H97.833c7.024-27.385,21.224-53.294,42.623-74.692    c53.252-53.253,135.48-63.276,199.965-24.372c3.865,2.333,8.886,1.089,11.216-2.776c2.331-3.864,1.088-8.885-2.776-11.216    C315.092,6.777,274.769-1.949,235.317,2.581c-40.677,4.67-77.474,22.437-106.415,51.377c-24.6,24.601-40.553,54.618-47.883,86.248    h-7.487c-22.526,0-40.851,18.325-40.851,40.851v190.638c0,4.513,3.658,8.17,8.17,8.17s8.17-3.657,8.17-8.17V181.056    c0-13.515,10.995-24.511,24.511-24.511h4.484c-6.549,47.974,6.219,98.101,38.318,137.662h-12.467c-4.512,0-8.17,3.657-8.17,8.17    c0,4.513,3.658,8.17,8.17,8.17h30.812c4.512,0,8.17-3.657,8.17-8.17v-30.811c0-4.513-3.658-8.17-8.17-8.17s-8.17,3.657-8.17,8.17    v9.167c-27.805-36.069-38.466-81.179-31.993-124.187h38.624c-1.58,7.929-2.414,16.124-2.414,24.511    c0,69.078,56.198,125.276,125.277,125.276c69.078,0,125.275-56.198,125.275-125.276c0-8.387-0.834-16.581-2.414-24.511h38.624    c7.461,49.581-7.847,101.96-45.942,140.054c-53.251,53.253-135.482,63.273-199.965,24.372c-3.862-2.33-8.886-1.088-11.216,2.776    c-2.331,3.864-1.088,8.885,2.776,11.216c27.938,16.855,60.362,25.736,93.067,25.736c6.826,0,13.665-0.387,20.477-1.169    c40.677-4.67,77.475-22.437,106.415-51.375c41.277-41.277,58.232-97.8,50.886-151.61h4.483c13.516,0,24.511,10.996,24.511,24.511    v215.149H40.851c-2.572,0-4.993,1.21-6.536,3.268L1.634,443.048C0.573,444.462,0,446.182,0,447.95v21.787    c0,22.526,18.325,40.851,40.851,40.851h430.298c22.526,0,40.851-18.325,40.851-40.851V447.95    C512,446.182,511.427,444.462,510.366,443.048z M320.364,93.227c-7.903,5.803-16.509,10.479-25.575,13.943    c-3.182-12.356-7.254-23.233-12.198-31.759C296.416,78.891,309.197,85.02,320.364,93.227z M236.163,100.873    c7.074-21.221,15.108-28.752,19.838-28.752c4.73,0,12.764,7.53,19.838,28.752c1.156,3.469,2.219,7.144,3.203,10.969    c-7.521,1.632-15.237,2.492-23.041,2.492c-7.804,0-15.521-0.861-23.041-2.492C233.944,108.017,235.007,104.341,236.163,100.873z     M256.001,130.673c8.97,0,17.845-0.971,26.489-2.844c2.443,13.82,3.897,29.104,4.269,45.057h-61.517    c0.373-15.952,1.826-31.237,4.269-45.057C238.156,129.703,247.031,130.673,256.001,130.673z M229.41,75.41    c-4.945,8.526-9.016,19.404-12.198,31.759c-9.066-3.464-17.672-8.14-25.575-13.942C202.805,85.02,215.586,78.891,229.41,75.41z     M178.959,104.114c10.558,8.253,22.294,14.706,34.746,19.184c-2.81,15.49-4.425,32.461-4.815,49.589h-61.52    C149.365,146.127,161.067,122.029,178.959,104.114z M147.371,189.227h61.52c0.39,17.128,2.005,34.099,4.815,49.588    c-12.453,4.477-24.189,10.932-34.746,19.185C161.067,240.083,149.365,215.986,147.371,189.227z M191.637,268.886    c7.903-5.803,16.509-10.479,25.575-13.943c3.182,12.356,7.254,23.233,12.198,31.76    C215.586,283.222,202.805,277.092,191.637,268.886z M275.839,261.241c-7.074,21.221-15.108,28.752-19.838,28.752    c-4.73,0-12.764-7.53-19.838-28.752c-1.157-3.47-2.219-7.145-3.203-10.969c7.521-1.632,15.238-2.492,23.041-2.492    c7.804,0,15.521,0.861,23.041,2.492C278.058,254.096,276.995,257.771,275.839,261.241z M256.001,231.438    c-8.97,0-17.845,0.971-26.489,2.844c-2.443-13.82-3.897-29.104-4.269-45.056h61.517c-0.373,15.952-1.826,31.236-4.269,45.056    C273.846,232.409,264.971,231.438,256.001,231.438z M282.592,286.704c4.945-8.526,9.016-19.404,12.198-31.759    c9.065,3.464,17.672,8.14,25.574,13.943C309.197,277.092,296.416,283.222,282.592,286.704z M333.043,257.999    c-10.558-8.253-22.294-14.706-34.746-19.185c2.81-15.49,4.425-32.461,4.815-49.589h61.52    C362.637,215.986,350.935,240.084,333.043,257.999z M303.112,172.886c-0.39-17.128-2.005-34.099-4.815-49.589    c12.453-4.477,24.188-10.931,34.746-19.184c17.893,17.916,29.595,42.013,31.588,68.772H303.112z M44.936,412.546h422.128    l20.426,27.234H24.511L44.936,412.546z M495.66,469.737c0,13.515-10.995,24.511-24.511,24.511H40.851    c-13.516,0-24.511-10.996-24.511-24.511v-14.092c0.853,0.302,1.767,0.475,2.723,0.475H247.83v13.617c0,4.513,3.658,8.17,8.17,8.17    c4.512,0,8.17-3.657,8.17-8.17V456.12h228.766c0.956,0,1.87-0.173,2.723-0.475V469.737z"/>
	</g>
</g>
<g>
</g>
<g>
</g>
<g>
</g>
<g>
</g>
<g>
</g>
<g>
</g>
<g>
</g>
<g>
</g>
<g>
</g>
<g>
</g>
<g>
</g>
<g>
</g>
<g>
</g>
<g>
</g>
<g>
</g>
</svg>
