<?xml version="1.0" encoding="iso-8859-1"?>
<!-- Generator: Adobe Illustrator 19.0.0, SVG Export Plug-In . SVG Version: 6.00 Build 0)  -->
<svg xmlns="http://www.w3.org/2000/svg" xmlns:xlink="http://www.w3.org/1999/xlink" version="1.1" id="Layer_1" x="0px" y="0px" viewBox="0 0 512 512" style="enable-background:new 0 0 512 512;" xml:space="preserve">
<g>
	<g>
		<path d="M198.807,455.404h-16.34c-4.512,0-8.17,3.657-8.17,8.17s3.658,8.17,8.17,8.17h16.34c4.512,0,8.17-3.657,8.17-8.17    S203.32,455.404,198.807,455.404z"/>
	</g>
</g>
<g>
	<g>
		<path d="M141.457,415.15h-32.681c-4.512,0-8.17,3.657-8.17,8.17c0,4.513,3.657,8.17,8.17,8.17h32.681    c4.512,0,8.17-3.657,8.17-8.17C149.627,418.807,145.969,415.15,141.457,415.15z"/>
	</g>
</g>
<g>
	<g>
		<path d="M383.999,415.15h-32.681c-4.513,0-8.17,3.657-8.17,8.17c0,4.513,3.657,8.17,8.17,8.17h32.681    c4.513,0,8.17-3.657,8.17-8.17C392.169,418.807,388.512,415.15,383.999,415.15z"/>
	</g>
</g>
<g>
	<g>
		<path d="M264.01,415.15h-16.34c-4.512,0-8.17,3.657-8.17,8.17c0,4.513,3.658,8.17,8.17,8.17h16.34c4.513,0,8.17-3.657,8.17-8.17    C272.18,418.807,268.523,415.15,264.01,415.15z"/>
	</g>
</g>
<g>
	<g>
		<path d="M106.212,374.896H40.85c-4.512,0-8.17,3.657-8.17,8.17c0,4.513,3.658,8.17,8.17,8.17h65.362c4.512,0,8.17-3.658,8.17-8.17    C114.382,378.553,110.724,374.896,106.212,374.896z"/>
	</g>
</g>
<g>
	<g>
		<path d="M280.51,374.896h-98.043c-4.512,0-8.17,3.657-8.17,8.17c0,4.513,3.658,8.17,8.17,8.17h98.043    c4.513,0,8.17-3.658,8.17-8.17C288.68,378.553,285.023,374.896,280.51,374.896z"/>
	</g>
</g>
<g>
	<g>
		<path d="M329.531,374.896h-16.34c-4.513,0-8.17,3.657-8.17,8.17c0,4.513,3.657,8.17,8.17,8.17h16.34c4.513,0,8.17-3.657,8.17-8.17    C337.701,378.553,334.044,374.896,329.531,374.896z"/>
	</g>
</g>
<g>
	<g>
		<path d="M255.84,92.596c-30.034,0-54.468,24.434-54.468,54.468s24.433,54.468,54.468,54.468c30.034,0,54.468-24.434,54.468-54.468    S285.874,92.596,255.84,92.596z M255.84,185.192c-21.024,0-38.128-17.104-38.128-38.128s17.104-38.128,38.128-38.128    c21.024,0,38.128,17.104,38.128,38.128S276.863,185.192,255.84,185.192z"/>
	</g>
</g>
<g>
	<g>
		<path d="M395.488,116.171l-23.392-2.169c-2.567-9.01-6.18-17.674-10.787-25.873l15.01-18.078c2.696-3.246,2.475-8.012-0.51-10.997    l-32.074-32.072c-2.982-2.983-7.747-3.203-10.996-0.509L314.595,41.54c-8.193-4.574-16.851-8.158-25.849-10.7l-2.171-23.423    C286.185,3.214,282.66,0,278.44,0h-45.359c-4.22,0-7.745,3.214-8.135,7.416l-2.181,23.531    c-8.963,2.564-17.584,6.161-25.744,10.745l-18.193-15.108c-3.247-2.695-8.012-2.476-10.997,0.509l-32.073,32.073    c-2.984,2.984-3.205,7.75-0.509,10.997l15.164,18.264c-4.552,8.155-8.123,16.77-10.662,25.718l-23.56,2.184    c-4.202,0.389-7.416,3.915-7.416,8.135v45.199c0.001,4.219,3.215,7.744,7.416,8.134l23.56,2.184    c2.538,8.951,6.108,17.563,10.662,25.719l-15.164,18.263c-2.696,3.246-2.475,8.011,0.509,10.997l32.073,32.073    c2.985,2.984,7.751,3.203,10.996,0.509l18.195-15.107c8.158,4.583,16.779,8.181,25.744,10.745l2.181,23.531    c0.389,4.202,3.915,7.416,8.135,7.416h45.359c4.22,0,7.745-3.214,8.135-7.416l2.171-23.423    c8.996-2.542,17.653-6.124,25.849-10.701l18.146,15.068c3.247,2.695,8.011,2.474,10.997-0.509l32.073-32.073    c2.984-2.984,3.204-7.75,0.508-10.997L361.31,206c4.607-8.201,8.22-16.865,10.787-25.875l23.392-2.168    c4.202-0.389,7.416-3.915,7.416-8.135v-45.517C402.905,120.086,399.691,116.561,395.488,116.171z M386.563,162.373l-21.694,2.012    c-3.506,0.325-6.409,2.858-7.204,6.288c-2.609,11.239-7.063,21.927-13.244,31.765c-1.879,2.989-1.623,6.849,0.633,9.565    l13.935,16.782l-21.54,21.54l-16.838-13.982c-2.709-2.248-6.559-2.509-9.546-0.645c-9.838,6.143-20.521,10.562-31.75,13.141    c-3.438,0.789-5.982,3.696-6.307,7.208l-2.015,21.741h-30.463l-2.023-21.825c-0.325-3.502-2.854-6.403-6.279-7.202    c-11.201-2.612-21.847-7.058-31.645-13.211c-2.988-1.879-6.848-1.621-9.565,0.632l-16.899,14.032l-21.54-21.54l14.078-16.954    c2.251-2.709,2.511-6.557,0.645-9.545c-6.118-9.803-10.53-20.446-13.109-31.632c-0.793-3.435-3.697-5.973-7.207-6.299    l-21.869-2.027v-30.305h0.001l21.868-2.026c3.51-0.325,6.415-2.864,7.207-6.299c2.581-11.187,6.99-21.829,13.109-31.632    c1.865-2.987,1.606-6.835-0.645-9.545l-14.078-16.955l21.54-21.54l16.898,14.033c2.717,2.255,6.575,2.513,9.566,0.632    c9.8-6.155,20.446-10.599,31.644-13.211c3.426-0.797,5.956-3.699,6.28-7.202l2.023-21.828h30.463l2.015,21.738    c0.326,3.513,2.869,6.42,6.307,7.208c11.234,2.578,21.916,7,31.751,13.141c2.989,1.866,6.836,1.606,9.547-0.644l16.838-13.982    l21.54,21.539l-13.936,16.783c-2.255,2.717-2.511,6.575-0.632,9.566c6.18,9.836,10.637,20.523,13.244,31.763    c0.795,3.429,3.699,5.964,7.204,6.288l21.692,2.012V162.373z"/>
	</g>
</g>
<g>
	<g>
		<path d="M255.841,59.915c-48.054,0-87.149,39.095-87.149,87.149c0,16.912,4.891,33.344,14.146,47.519    c2.465,3.779,7.527,4.839,11.305,2.375c3.778-2.467,4.841-7.53,2.375-11.309c-7.516-11.51-11.487-24.853-11.487-38.585    c0-39.044,31.765-70.809,70.809-70.809s70.809,31.765,70.809,70.809s-31.765,70.809-70.809,70.809    c-13.734,0-27.076-3.972-38.585-11.488c-3.776-2.47-8.841-1.406-11.308,2.374c-2.467,3.778-1.404,8.84,2.374,11.308    c14.173,9.255,30.606,14.148,47.52,14.148c48.054,0,87.149-39.095,87.149-87.149S303.895,59.915,255.841,59.915z"/>
	</g>
</g>
<g>
	<g>
		<path d="M503.829,334.64c-13.585,0-26.123-7.435-34.399-20.398c-1.5-2.351-4.097-3.775-6.886-3.775    c-2.789,0-5.386,1.424-6.887,3.775c-8.274,12.962-20.826,20.398-34.439,20.398c-13.573,0-26.112-7.436-34.401-20.403    c-1.501-2.346-4.095-3.768-6.88-3.769c-2.789,0-5.381,1.419-6.884,3.765c-8.303,12.969-20.854,20.407-34.433,20.407    c-13.581,0-26.125-7.436-34.415-20.403c-1.502-2.349-4.097-3.769-6.884-3.769c-2.792,0.001-5.386,1.424-6.886,3.775    c-8.276,12.962-20.823,20.398-34.427,20.398c-13.582,0-26.126-7.436-34.415-20.403c-1.501-2.348-4.095-3.769-6.882-3.77    c-2.789,0-5.381,1.419-6.884,3.765c-8.303,12.969-20.854,20.407-34.431,20.407c-13.582,0-26.126-7.436-34.415-20.403    c-1.501-2.349-4.097-3.77-6.884-3.77c-2.791,0.001-5.386,1.424-6.887,3.775c-8.275,12.962-20.823,20.398-34.427,20.398    c-13.582,0-26.126-7.436-34.415-20.403c-1.501-2.349-4.097-3.77-6.884-3.77c-2.791,0.001-5.386,1.424-6.887,3.775    c-8.275,12.962-20.823,20.398-34.427,20.398c-4.512,0-8.17,3.657-8.17,8.17v161.02c0,4.513,3.658,8.17,8.17,8.17h389.015    c4.513,0,8.17-3.657,8.17-8.17s-3.657-8.17-8.17-8.17H16.339v-23.915h133.447c4.512,0,8.17-3.657,8.17-8.17s-3.658-8.17-8.17-8.17    H16.339V350.335c12.461-1.976,24.097-8.421,33.146-18.315c11.01,12.029,25.83,18.96,41.297,18.96    c15.486,0,30.313-6.93,41.316-18.96c11.01,12.029,25.83,18.96,41.297,18.96c15.465,0,30.29-6.934,41.309-18.967    c11.01,12.032,25.833,18.967,41.303,18.967c15.485,0,30.311-6.932,41.316-18.96c11.01,12.029,25.831,18.96,41.295,18.96    c15.465,0,30.291-6.934,41.31-18.967c11.009,12.032,25.828,18.967,41.289,18.967c15.492,0,30.321-6.93,41.327-18.956    c9.045,9.888,20.67,16.332,33.114,18.31v64.816H416.68c-4.513,0-8.17,3.657-8.17,8.17c0,4.513,3.657,8.17,8.17,8.17h78.979v64.169    h-65.793c-4.513,0-8.17,3.657-8.17,8.17s3.657,8.17,8.17,8.17h73.963c4.513,0,8.17-3.657,8.17-8.17V342.81    C511.999,338.298,508.342,334.64,503.829,334.64z"/>
	</g>
</g>
<g>
</g>
<g>
</g>
<g>
</g>
<g>
</g>
<g>
</g>
<g>
</g>
<g>
</g>
<g>
</g>
<g>
</g>
<g>
</g>
<g>
</g>
<g>
</g>
<g>
</g>
<g>
</g>
<g>
</g>
</svg>
