<?xml version="1.0" encoding="iso-8859-1"?>
<!-- Generator: Adobe Illustrator 19.0.0, SVG Export Plug-In . SVG Version: 6.00 Build 0)  -->
<svg xmlns="http://www.w3.org/2000/svg" xmlns:xlink="http://www.w3.org/1999/xlink" version="1.1" id="Layer_1" x="0px" y="0px" viewBox="0 0 512 512" style="enable-background:new 0 0 512 512;" xml:space="preserve">
<g>
	<g>
		<path d="M424.851,0H87.149C64.623,0,46.298,18.325,46.298,40.851v430.298c0,22.526,18.325,40.851,40.851,40.851h337.702    c22.526,0,40.851-18.325,40.851-40.851V40.851C465.702,18.325,447.377,0,424.851,0z M187.915,16.34h136.17v16.34h-136.17V16.34z     M187.915,49.021h136.17v19.064c0,4.506-3.665,8.17-8.17,8.17h-119.83c-4.506,0-8.17-3.665-8.17-8.17V49.021z M449.362,471.149    c0,13.515-10.995,24.511-24.511,24.511H87.149c-13.516,0-24.511-10.996-24.511-24.511V40.851    c0-13.515,10.995-24.511,24.511-24.511h84.426v51.745c0,13.515,10.995,24.511,24.511,24.511h119.83    c13.516,0,24.511-10.996,24.511-24.511V16.34h84.426c13.516,0,24.511,10.996,24.511,24.511V471.149z"/>
	</g>
</g>
<g>
	<g>
		<path d="M424.851,32.681h-59.915c-4.512,0-8.17,3.657-8.17,8.17s3.658,8.17,8.17,8.17h51.745v413.957H95.319V49.021h51.745    c4.512,0,8.17-3.657,8.17-8.17s-3.657-8.17-8.17-8.17H87.149c-4.512,0-8.17,3.657-8.17,8.17v430.298c0,4.513,3.658,8.17,8.17,8.17    h337.702c4.512,0,8.17-3.657,8.17-8.17V40.851C433.021,36.338,429.363,32.681,424.851,32.681z"/>
	</g>
</g>
<g>
	<g>
		<path d="M185.192,359.489h-32.681c-4.512,0-8.17,3.657-8.17,8.17c0,4.513,3.658,8.17,8.17,8.17h32.681    c4.512,0,8.17-3.657,8.17-8.17C193.362,363.146,189.704,359.489,185.192,359.489z"/>
	</g>
</g>
<g>
	<g>
		<path d="M359.489,359.489H217.872c-4.512,0-8.17,3.657-8.17,8.17c0,4.513,3.658,8.17,8.17,8.17h141.617    c4.512,0,8.17-3.657,8.17-8.17C367.66,363.146,364.002,359.489,359.489,359.489z"/>
	</g>
</g>
<g>
	<g>
		<path d="M359.489,392.17H152.511c-4.512,0-8.17,3.657-8.17,8.17c0,4.513,3.658,8.17,8.17,8.17h206.979    c4.512,0,8.17-3.657,8.17-8.17C367.66,395.827,364.002,392.17,359.489,392.17z"/>
	</g>
</g>
<g>
	<g>
		<path d="M256,424.851H152.511c-4.512,0-8.17,3.657-8.17,8.17c0,4.513,3.658,8.17,8.17,8.17H256c4.512,0,8.17-3.657,8.17-8.17    C264.17,428.508,260.512,424.851,256,424.851z"/>
	</g>
</g>
<g>
	<g>
		<path d="M335.602,147.824c-0.2-0.255-0.412-0.502-0.647-0.737c-0.234-0.234-0.483-0.447-0.736-0.646    c-20.161-19.813-47.785-32.058-78.218-32.058c-61.57,0-111.66,50.09-111.66,111.66c0,61.57,50.09,111.66,111.66,111.66    c30.434,0,58.057-12.244,78.218-32.058c0.254-0.2,0.502-0.412,0.736-0.646c0.234-0.234,0.447-0.483,0.647-0.737    c19.813-20.161,32.058-47.785,32.058-78.218C367.66,195.609,355.416,167.986,335.602,147.824z M350.965,217.872h-75.241    l53.172-53.171C341.231,179.335,349.246,197.718,350.965,217.872z M264.17,131.077c20.154,1.719,38.537,9.736,53.172,22.069    l-53.172,53.171V131.077z M247.83,131.077v86.795h-86.795C164.963,171.817,201.776,135.006,247.83,131.077z M256,321.362    c-49.807,0-90.807-38.4-94.965-87.149h91.58l64.727,64.726C300.751,312.921,279.345,321.362,256,321.362z M328.897,287.383    l-53.172-53.171h75.241C349.246,254.367,341.231,272.75,328.897,287.383z"/>
	</g>
</g>
<g>
</g>
<g>
</g>
<g>
</g>
<g>
</g>
<g>
</g>
<g>
</g>
<g>
</g>
<g>
</g>
<g>
</g>
<g>
</g>
<g>
</g>
<g>
</g>
<g>
</g>
<g>
</g>
<g>
</g>
</svg>
