<?xml version="1.0" encoding="iso-8859-1"?>
<!-- Generator: Adobe Illustrator 19.0.0, SVG Export Plug-In . SVG Version: 6.00 Build 0)  -->
<svg xmlns="http://www.w3.org/2000/svg" xmlns:xlink="http://www.w3.org/1999/xlink" version="1.1" id="Layer_1" x="0px" y="0px" viewBox="0 0 512 512" style="enable-background:new 0 0 512 512;" xml:space="preserve">
<g>
	<g>
		<path d="M373.106,59.915c4.513,0,8.17-3.658,8.17-8.17V8.17c0-4.512-3.657-8.17-8.17-8.17H138.894c-4.513,0-8.17,3.658-8.17,8.17    v43.574c0,4.512,3.657,8.17,8.17,8.17h2.723v16.34h-2.723c-4.513,0-8.17,3.658-8.17,8.17V128c0,4.512,3.657,8.17,8.17,8.17h2.723    v16.34h-2.723c-4.513,0-8.17,3.658-8.17,8.17v43.574c0,4.512,3.657,8.17,8.17,8.17h234.213c4.513,0,8.17-3.658,8.17-8.17v-43.574    c0-4.512-3.657-8.17-8.17-8.17h-2.723v-16.34h2.723c4.513,0,8.17-3.658,8.17-8.17V84.426c0-4.512-3.657-8.17-8.17-8.17h-2.723    v-16.34H373.106z M364.936,196.085H147.064v-27.234h217.872V196.085z M364.936,119.83h-35.404c-4.513,0-8.17,3.658-8.17,8.17    s3.657,8.17,8.17,8.17h24.511v16.34H157.957v-16.34h138.894c4.513,0,8.17-3.658,8.17-8.17s-3.657-8.17-8.17-8.17H147.064V92.596    h217.872V119.83z M157.957,76.255v-16.34h196.085v16.34H157.957z M364.936,43.574H147.064V16.34h217.872V43.574z"/>
	</g>
</g>
<g>
	<g>
		<path d="M454.809,228.766H57.192c-13.515,0-24.511,10.995-24.511,24.511c0,13.516,10.996,24.511,24.511,24.511h72.737    l-6.255,67.244c-0.001,0.014-14.702,158.041-14.702,158.041c-0.212,2.289,0.548,4.561,2.097,6.261    c1.548,1.699,3.74,2.667,6.038,2.667h277.787c2.299,0,4.49-0.968,6.038-2.667c1.549-1.699,2.309-3.972,2.097-6.261l-14.7-158.028    c-0.002-0.013-6.257-67.257-6.257-67.257h72.737c13.515,0,24.511-10.995,24.511-24.511    C479.319,239.761,468.323,228.766,454.809,228.766z M385.927,495.66H126.072l13.174-141.617h36.129c4.513,0,8.17-3.658,8.17-8.17    c0-4.512-3.657-8.17-8.17-8.17h-34.609l5.573-59.915h219.322l5.573,59.915H208.055c-4.513,0-8.17,3.658-8.17,8.17    c0,4.512,3.657,8.17,8.17,8.17h164.698L385.927,495.66z M454.809,261.447h-81.616c-0.022,0-316.001,0-316.001,0    c-4.506,0-8.17-3.665-8.17-8.17c0-4.506,3.665-8.17,8.17-8.17h397.617c4.506,0,8.17,3.665,8.17,8.17    C462.979,257.782,459.314,261.447,454.809,261.447z"/>
	</g>
</g>
<g>
	<g>
		<circle cx="175.376" cy="423.391" r="8.17"/>
	</g>
</g>
<g>
	<g>
		<circle cx="208.057" cy="456.072" r="8.17"/>
	</g>
</g>
<g>
</g>
<g>
</g>
<g>
</g>
<g>
</g>
<g>
</g>
<g>
</g>
<g>
</g>
<g>
</g>
<g>
</g>
<g>
</g>
<g>
</g>
<g>
</g>
<g>
</g>
<g>
</g>
<g>
</g>
</svg>
