<?xml version="1.0" encoding="iso-8859-1"?>
<!-- Generator: Adobe Illustrator 19.0.0, SVG Export Plug-In . SVG Version: 6.00 Build 0)  -->
<svg xmlns="http://www.w3.org/2000/svg" xmlns:xlink="http://www.w3.org/1999/xlink" version="1.1" id="Layer_1" x="0px" y="0px" viewBox="0 0 512 512" style="enable-background:new 0 0 512 512;" xml:space="preserve">
<g>
	<g>
		<path d="M353.332,144.396c-0.024-0.021-0.048-0.041-0.072-0.063c-25.942-22.92-60.001-36.854-97.258-36.854    c-81.091,0-147.064,65.973-147.064,147.064s65.973,147.064,147.064,147.064s147.064-65.973,147.064-147.064    C403.066,210.742,383.813,171.361,353.332,144.396z M386.463,246.373h-76.078c-0.413-21.737-2.473-42.592-5.995-61.316    c15.501-5.414,30.081-13.426,43.096-23.792C369.867,183.219,384.402,213.133,386.463,246.373z M334.879,150.371    c-10.41,7.898-21.878,14.142-34.007,18.587c-1.337-5.3-2.8-10.375-4.397-15.165c-3.605-10.813-7.707-19.796-12.236-26.892    C302.926,131.032,320.123,139.17,334.879,150.371z M294.042,262.714c-0.395,20.161-2.251,39.454-5.413,56.78    c-10.629-2.423-21.566-3.673-32.626-3.673c-11.06,0-21.998,1.251-32.625,3.673c-3.162-17.325-5.018-36.619-5.413-56.78H294.042z     M217.964,246.373c0.395-20.161,2.251-39.456,5.413-56.78c10.629,2.423,21.566,3.673,32.625,3.673    c11.06,0,21.997-1.251,32.625-3.673c3.162,17.325,5.018,36.619,5.413,56.78H217.964z M256.002,123.82    c6.409,0,16.335,9.231,24.971,35.141c1.538,4.616,2.948,9.519,4.23,14.655c-9.51,2.184-19.301,3.311-29.201,3.311    c-9.9,0-19.691-1.125-29.201-3.311c1.282-5.137,2.692-10.04,4.23-14.655C239.667,133.051,249.593,123.82,256.002,123.82z     M227.764,126.9c-4.528,7.096-8.631,16.079-12.236,26.892c-1.596,4.791-3.059,9.866-4.397,15.165    c-12.129-4.445-23.597-10.689-34.007-18.587C191.88,139.17,209.077,131.031,227.764,126.9z M164.518,161.266    c13.017,10.365,27.596,18.379,43.096,23.792c-3.521,18.723-5.582,39.579-5.995,61.316h-76.078    C127.602,213.131,142.138,183.219,164.518,161.266z M125.541,262.714h76.078c0.413,21.737,2.473,42.592,5.994,61.316    c-15.501,5.414-30.081,13.426-43.096,23.792C142.138,325.867,127.602,295.955,125.541,262.714z M177.126,358.715    c10.41-7.898,21.878-14.142,34.007-18.587c1.337,5.3,2.8,10.375,4.397,15.165c3.605,10.813,7.707,19.796,12.236,26.892    C209.078,378.054,191.881,369.915,177.126,358.715z M256.002,385.267c-6.409,0-16.335-9.231-24.972-35.141    c-1.538-4.616-2.948-9.519-4.23-14.655c9.511-2.185,19.301-3.311,29.201-3.311c9.9,0,19.691,1.125,29.201,3.311    c-1.282,5.136-2.692,10.04-4.23,14.655C272.337,376.036,262.411,385.267,256.002,385.267z M284.24,382.186    c4.528-7.096,8.631-16.079,12.236-26.892c1.597-4.791,3.06-9.866,4.398-15.165c12.129,4.445,23.597,10.689,34.007,18.587    C320.124,369.917,302.928,378.055,284.24,382.186z M347.488,347.82c-13.016-10.365-27.596-18.379-43.096-23.792    c3.521-18.723,5.582-39.578,5.994-61.315h76.078C384.402,295.953,369.867,325.867,347.488,347.82z"/>
	</g>
</g>
<g>
	<g>
		<path d="M482.043,87.466c-4.512,0-8.17,3.658-8.17,8.17v10.894c0,4.512,3.658,8.17,8.17,8.17s8.17-3.658,8.17-8.17V95.636    C490.213,91.124,486.555,87.466,482.043,87.466z"/>
	</g>
</g>
<g>
	<g>
		<path d="M482.043,131.356c-4.512,0-8.17,3.658-8.17,8.17v10.894c0,4.512,3.658,8.17,8.17,8.17s8.17-3.658,8.17-8.17v-10.894    C490.213,135.014,486.555,131.356,482.043,131.356z"/>
	</g>
</g>
<g>
	<g>
		<path d="M482.043,175.248c-4.512,0-8.17,3.658-8.17,8.17v10.894c0,4.512,3.658,8.17,8.17,8.17s8.17-3.658,8.17-8.17v-10.894    C490.213,178.906,486.555,175.248,482.043,175.248z"/>
	</g>
</g>
<g>
	<g>
		<path d="M482.043,307.333c-4.512,0-8.17,3.658-8.17,8.17v10.894c0,4.512,3.658,8.17,8.17,8.17s8.17-3.658,8.17-8.17v-10.894    C490.213,310.991,486.555,307.333,482.043,307.333z"/>
	</g>
</g>
<g>
	<g>
		<path d="M482.043,351.952c-4.512,0-8.17,3.658-8.17,8.17v10.894c0,4.512,3.658,8.17,8.17,8.17s8.17-3.658,8.17-8.17v-10.894    C490.213,355.61,486.555,351.952,482.043,351.952z"/>
	</g>
</g>
<g>
	<g>
		<path d="M482.043,396.572c-4.512,0-8.17,3.658-8.17,8.17v10.894c0,4.512,3.658,8.17,8.17,8.17s8.17-3.658,8.17-8.17v-10.894    C490.213,400.23,486.555,396.572,482.043,396.572z"/>
	</g>
</g>
<g>
	<g>
		<path d="M503.83,0h-54.468c-4.512,0-8.17,3.658-8.17,8.17v54.468c0,4.512,3.658,8.17,8.17,8.17h54.468    c4.512,0,8.17-3.658,8.17-8.17V8.17C512,3.658,508.342,0,503.83,0z M495.66,54.468h-38.128V16.34h38.128V54.468z"/>
	</g>
</g>
<g>
	<g>
		<path d="M503.83,441.191h-54.468c-4.512,0-8.17,3.658-8.17,8.17v54.468c0,4.512,3.658,8.17,8.17,8.17h54.468    c4.512,0,8.17-3.658,8.17-8.17v-54.468C512,444.85,508.342,441.191,503.83,441.191z M495.66,495.66h-38.128v-38.128h38.128V495.66    z"/>
	</g>
</g>
<g>
	<g>
		<path d="M503.83,219.139h-54.468c-4.512,0-8.17,3.658-8.17,8.17v54.468c0,4.512,3.658,8.17,8.17,8.17h54.468    c4.512,0,8.17-3.658,8.17-8.17v-54.468C512,222.797,508.342,219.139,503.83,219.139z M495.66,273.607h-38.128V235.48h38.128    V273.607z"/>
	</g>
</g>
<g>
	<g>
		<path d="M40.851,87.466c-4.512,0-8.17,3.658-8.17,8.17v10.894c0,4.512,3.658,8.17,8.17,8.17s8.17-3.658,8.17-8.17V95.636    C49.021,91.124,45.363,87.466,40.851,87.466z"/>
	</g>
</g>
<g>
	<g>
		<path d="M40.851,131.356c-4.512,0-8.17,3.658-8.17,8.17v10.894c0,4.512,3.658,8.17,8.17,8.17s8.17-3.658,8.17-8.17v-10.894    C49.021,135.014,45.363,131.356,40.851,131.356z"/>
	</g>
</g>
<g>
	<g>
		<path d="M40.851,175.248c-4.512,0-8.17,3.658-8.17,8.17v10.894c0,4.512,3.658,8.17,8.17,8.17s8.17-3.658,8.17-8.17v-10.894    C49.021,178.906,45.363,175.248,40.851,175.248z"/>
	</g>
</g>
<g>
	<g>
		<path d="M40.851,307.333c-4.512,0-8.17,3.658-8.17,8.17v10.894c0,4.512,3.658,8.17,8.17,8.17s8.17-3.658,8.17-8.17v-10.894    C49.021,310.991,45.363,307.333,40.851,307.333z"/>
	</g>
</g>
<g>
	<g>
		<path d="M40.851,351.952c-4.512,0-8.17,3.658-8.17,8.17v10.894c0,4.512,3.658,8.17,8.17,8.17s8.17-3.658,8.17-8.17v-10.894    C49.021,355.61,45.363,351.952,40.851,351.952z"/>
	</g>
</g>
<g>
	<g>
		<path d="M40.851,396.572c-4.512,0-8.17,3.658-8.17,8.17v10.894c0,4.512,3.658,8.17,8.17,8.17s8.17-3.658,8.17-8.17v-10.894    C49.021,400.23,45.363,396.572,40.851,396.572z"/>
	</g>
</g>
<g>
	<g>
		<path d="M62.638,0H8.17C3.658,0,0,3.658,0,8.17v54.468c0,4.512,3.658,8.17,8.17,8.17h54.468c4.512,0,8.17-3.658,8.17-8.17V8.17    C70.809,3.658,67.15,0,62.638,0z M54.468,54.468H16.34V16.34h38.128V54.468z"/>
	</g>
</g>
<g>
	<g>
		<path d="M62.638,441.191H8.17c-4.512,0-8.17,3.658-8.17,8.17v54.468c0,4.512,3.658,8.17,8.17,8.17h54.468    c4.512,0,8.17-3.658,8.17-8.17v-54.468C70.809,444.85,67.15,441.191,62.638,441.191z M54.468,495.66H16.34v-38.128h38.128V495.66z    "/>
	</g>
</g>
<g>
	<g>
		<path d="M62.638,219.139H8.17c-4.512,0-8.17,3.658-8.17,8.17v54.468c0,4.512,3.658,8.17,8.17,8.17h54.468    c4.512,0,8.17-3.658,8.17-8.17v-54.468C70.809,222.797,67.15,219.139,62.638,219.139z M54.468,273.607H16.34V235.48h38.128    V273.607z"/>
	</g>
</g>
<g>
	<g>
		<path d="M416.364,32.681H405.47c-4.512,0-8.17,3.658-8.17,8.17s3.658,8.17,8.17,8.17h10.894c4.512,0,8.17-3.658,8.17-8.17    S420.877,32.681,416.364,32.681z"/>
	</g>
</g>
<g>
	<g>
		<path d="M372.473,32.681H361.58c-4.512,0-8.17,3.658-8.17,8.17s3.658,8.17,8.17,8.17h10.894c4.512,0,8.17-3.658,8.17-8.17    S376.986,32.681,372.473,32.681z"/>
	</g>
</g>
<g>
	<g>
		<path d="M328.582,32.681h-10.894c-4.512,0-8.17,3.658-8.17,8.17s3.658,8.17,8.17,8.17h10.894c4.512,0,8.17-3.658,8.17-8.17    S333.094,32.681,328.582,32.681z"/>
	</g>
</g>
<g>
	<g>
		<path d="M196.497,32.681h-10.894c-4.512,0-8.17,3.658-8.17,8.17s3.658,8.17,8.17,8.17h10.894c4.512,0,8.17-3.658,8.17-8.17    S201.009,32.681,196.497,32.681z"/>
	</g>
</g>
<g>
	<g>
		<path d="M151.878,32.681h-10.894c-4.512,0-8.17,3.658-8.17,8.17s3.658,8.17,8.17,8.17h10.894c4.512,0,8.17-3.658,8.17-8.17    S156.39,32.681,151.878,32.681z"/>
	</g>
</g>
<g>
	<g>
		<path d="M107.257,32.681H96.364c-4.512,0-8.17,3.658-8.17,8.17s3.658,8.17,8.17,8.17h10.894c4.512,0,8.17-3.658,8.17-8.17    S111.77,32.681,107.257,32.681z"/>
	</g>
</g>
<g>
	<g>
		<path d="M284.691,0h-54.468c-4.512,0-8.17,3.658-8.17,8.17v54.468c0,4.512,3.658,8.17,8.17,8.17h54.468    c4.512,0,8.17-3.658,8.17-8.17V8.17C292.861,3.658,289.203,0,284.691,0z M276.52,54.468h-38.128V16.34h38.128V54.468z"/>
	</g>
</g>
<g>
	<g>
		<path d="M416.364,473.872H405.47c-4.512,0-8.17,3.658-8.17,8.17s3.658,8.17,8.17,8.17h10.894c4.512,0,8.17-3.658,8.17-8.17    S420.877,473.872,416.364,473.872z"/>
	</g>
</g>
<g>
	<g>
		<path d="M372.473,473.872H361.58c-4.512,0-8.17,3.658-8.17,8.17s3.658,8.17,8.17,8.17h10.894c4.512,0,8.17-3.658,8.17-8.17    S376.986,473.872,372.473,473.872z"/>
	</g>
</g>
<g>
	<g>
		<path d="M328.582,473.872h-10.894c-4.512,0-8.17,3.658-8.17,8.17s3.658,8.17,8.17,8.17h10.894c4.512,0,8.17-3.658,8.17-8.17    S333.095,473.872,328.582,473.872z"/>
	</g>
</g>
<g>
	<g>
		<path d="M196.497,473.872h-10.894c-4.512,0-8.17,3.658-8.17,8.17s3.658,8.17,8.17,8.17h10.894c4.512,0,8.17-3.658,8.17-8.17    S201.01,473.872,196.497,473.872z"/>
	</g>
</g>
<g>
	<g>
		<path d="M151.878,473.872h-10.894c-4.512,0-8.17,3.658-8.17,8.17s3.658,8.17,8.17,8.17h10.894c4.512,0,8.17-3.658,8.17-8.17    S156.39,473.872,151.878,473.872z"/>
	</g>
</g>
<g>
	<g>
		<path d="M107.257,473.872H96.364c-4.512,0-8.17,3.658-8.17,8.17s3.658,8.17,8.17,8.17h10.894c4.512,0,8.17-3.658,8.17-8.17    S111.771,473.872,107.257,473.872z"/>
	</g>
</g>
<g>
	<g>
		<path d="M284.691,441.191h-54.468c-4.512,0-8.17,3.658-8.17,8.17v54.468c0,4.512,3.658,8.17,8.17,8.17h54.468    c4.512,0,8.17-3.658,8.17-8.17v-54.468C292.861,444.85,289.203,441.191,284.691,441.191z M276.52,495.66h-38.128v-38.128h38.128    V495.66z"/>
	</g>
</g>
<g>
</g>
<g>
</g>
<g>
</g>
<g>
</g>
<g>
</g>
<g>
</g>
<g>
</g>
<g>
</g>
<g>
</g>
<g>
</g>
<g>
</g>
<g>
</g>
<g>
</g>
<g>
</g>
<g>
</g>
</svg>
