<?xml version="1.0" encoding="iso-8859-1"?>
<!-- Generator: Adobe Illustrator 19.0.0, SVG Export Plug-In . SVG Version: 6.00 Build 0)  -->
<svg xmlns="http://www.w3.org/2000/svg" xmlns:xlink="http://www.w3.org/1999/xlink" version="1.1" id="Layer_1" x="0px" y="0px" viewBox="0 0 512 512" style="enable-background:new 0 0 512 512;" xml:space="preserve">
<g>
	<g>
		<path d="M503.83,108.936h-57.123V84.426c0-40.956-29.218-75.906-69.473-83.104c-4.433-0.793-8.687,2.162-9.481,6.605    c-0.794,4.442,2.162,8.687,6.605,9.481c32.454,5.804,56.01,33.989,56.01,67.019v24.511h-49.021V84.426    c0-33.385-19.48-62.301-47.668-75.992c-0.436-0.251-0.892-0.463-1.365-0.63C321.539,2.808,309.555,0,296.92,0    c-46.552,0-84.426,37.873-84.426,84.426v24.511h-57.157c-4.513,0-8.17,3.658-8.17,8.17v34.527c0,4.512,3.657,8.17,8.17,8.17    s8.17-3.658,8.17-8.17v-26.357h266.859V495.66H163.509v-52.282l59.227-31.479h74.115c4.513,0,8.17-3.658,8.17-8.17    s-3.657-8.17-8.17-8.17H220.7c-1.338,0-2.655,0.328-3.835,0.955l-63.563,33.784H47.616c-3.373-9.509-12.455-16.34-23.105-16.34    C10.996,413.957,0,424.952,0,438.468c0,13.516,10.996,24.511,24.511,24.511c10.651,0,19.733-6.831,23.105-16.34h99.552v57.191    c0,4.512,3.657,8.17,8.17,8.17H503.83c4.513,0,8.17-3.658,8.17-8.17V117.106C512,112.594,508.343,108.936,503.83,108.936z     M277.856,108.936h-49.021V84.426c0-37.542,30.542-68.085,68.085-68.085c4.673,0,9.237,0.475,13.648,1.376    c-20.289,15.813-32.711,40.447-32.711,66.709V108.936z M365.005,108.936h-70.808V84.426c0-24.827,13.768-47.844,35.384-59.721    c21.093,11.582,35.425,34.007,35.425,59.721V108.936z M24.511,446.638c-4.506,0-8.17-3.665-8.17-8.17    c0-4.506,3.665-8.17,8.17-8.17c4.506,0,8.17,3.665,8.17,8.17C32.681,442.974,29.016,446.638,24.511,446.638z M454.856,495.66    l16.299-21.779l16.334,21.779H454.856z M495.66,479.319l-17.974-23.966c-1.543-2.058-3.965-3.268-6.536-3.268    c-2.577,0.001-4.999,1.215-6.542,3.275l-17.9,23.918V125.277h48.953V479.319z"/>
	</g>
</g>
<g>
	<g>
		<path d="M471.149,141.617c-4.513,0-8.17,3.658-8.17,8.17v277.787c0,4.512,3.657,8.17,8.17,8.17s8.17-3.658,8.17-8.17V149.787    C479.319,145.275,475.662,141.617,471.149,141.617z"/>
	</g>
</g>
<g>
	<g>
		<path d="M296.851,210.883h-74.115l-63.478-33.739c-0.022-0.012-0.044-0.023-0.064-0.034c-0.318-0.164-0.582-0.283-0.852-0.39    c-0.072-0.028-0.145-0.053-0.217-0.08c-0.219-0.08-0.442-0.15-0.67-0.211c-0.085-0.023-0.169-0.046-0.254-0.065    c-0.227-0.052-0.456-0.094-0.688-0.127c-0.08-0.012-0.159-0.027-0.24-0.037c-0.307-0.035-0.618-0.058-0.935-0.058H47.236    c-3.638-8.985-12.45-15.341-22.725-15.341C10.996,160.801,0,171.796,0,185.311s10.996,24.512,24.511,24.512    c11.02,0,20.363-7.312,23.438-17.339h99.22v25.51c0,4.512,3.657,8.17,8.17,8.17c4.513,0,8.17-3.658,8.17-8.17v-20.085    l53.357,28.359c1.18,0.627,2.497,0.955,3.835,0.955h76.151c4.513,0,8.17-3.658,8.17-8.17S301.364,210.883,296.851,210.883z     M24.511,193.483c-4.506,0-8.17-3.665-8.17-8.17c0-4.506,3.665-8.17,8.17-8.17c4.506,0,8.17,3.665,8.17,8.17    C32.681,189.818,29.016,193.483,24.511,193.483z"/>
	</g>
</g>
<g>
	<g>
		<path d="M296.851,277.244h-74.115l-63.478-33.739c-0.022-0.012-0.044-0.023-0.064-0.034c-0.318-0.164-0.582-0.283-0.852-0.39    c-0.072-0.028-0.145-0.053-0.217-0.08c-0.219-0.079-0.442-0.15-0.67-0.211c-0.085-0.023-0.169-0.046-0.254-0.065    c-0.227-0.052-0.456-0.094-0.688-0.127c-0.08-0.012-0.159-0.027-0.24-0.037c-0.307-0.035-0.618-0.058-0.935-0.058H47.616    c-3.373-9.509-12.455-16.34-23.105-16.34C10.996,226.162,0,237.157,0,250.673c0,13.516,10.996,24.512,24.511,24.512    c10.651,0,19.733-6.831,23.105-16.34h99.552v146.943c0,4.512,3.657,8.17,8.17,8.17c4.513,0,8.17-3.658,8.17-8.17V264.269    l53.357,28.359c1.18,0.627,2.497,0.955,3.835,0.955h76.151c4.513,0,8.17-3.658,8.17-8.17S301.364,277.244,296.851,277.244z     M24.511,258.844c-4.506,0-8.17-3.665-8.17-8.17c0-4.506,3.665-8.17,8.17-8.17c4.506,0,8.17,3.665,8.17,8.17    C32.681,255.18,29.016,258.844,24.511,258.844z"/>
	</g>
</g>
<g>
	<g>
		<path d="M122.553,291.525H8.17c-4.513,0-8.17,3.658-8.17,8.17s3.657,8.17,8.17,8.17h114.383c4.513,0,8.17-3.658,8.17-8.17    S127.066,291.525,122.553,291.525z"/>
	</g>
</g>
<g>
	<g>
		<path d="M122.553,324.206H8.17c-4.513,0-8.17,3.658-8.17,8.17s3.657,8.17,8.17,8.17h114.383c4.513,0,8.17-3.658,8.17-8.17    S127.066,324.206,122.553,324.206z"/>
	</g>
</g>
<g>
	<g>
		<path d="M65.362,356.887H8.17c-4.513,0-8.17,3.658-8.17,8.17s3.657,8.17,8.17,8.17h57.191c4.513,0,8.17-3.658,8.17-8.17    S69.875,356.887,65.362,356.887z"/>
	</g>
</g>
<g>
</g>
<g>
</g>
<g>
</g>
<g>
</g>
<g>
</g>
<g>
</g>
<g>
</g>
<g>
</g>
<g>
</g>
<g>
</g>
<g>
</g>
<g>
</g>
<g>
</g>
<g>
</g>
<g>
</g>
</svg>
