<?xml version="1.0" encoding="iso-8859-1"?>
<!-- Generator: Adobe Illustrator 19.0.0, SVG Export Plug-In . SVG Version: 6.00 Build 0)  -->
<svg xmlns="http://www.w3.org/2000/svg" xmlns:xlink="http://www.w3.org/1999/xlink" version="1.1" id="Layer_1" x="0px" y="0px" viewBox="0 0 512 512" style="enable-background:new 0 0 512 512;" xml:space="preserve">
<g>
	<g>
		<path d="M321.362,228.766c-4.513,0-8.17,3.658-8.17,8.17v54.468c0,22.526-18.325,40.851-40.851,40.851    c-22.526,0-40.851-18.325-40.851-40.851v-87.149c0-13.516,10.995-24.511,24.511-24.511c13.515,0,24.511,10.995,24.511,24.511    v87.149c0,4.506-3.665,8.17-8.17,8.17c-4.506,0-8.17-3.665-8.17-8.17v-87.149c0-4.512-3.657-8.17-8.17-8.17    c-4.512,0-8.17,3.658-8.17,8.17v87.149c0,13.516,10.996,24.511,24.511,24.511c13.515,0,24.511-10.995,24.511-24.511v-87.149    c0-22.526-18.325-40.851-40.851-40.851s-40.851,18.325-40.851,40.851v87.149c0,31.536,25.656,57.192,57.192,57.192    c31.535,0,57.191-25.656,57.191-57.192v-54.468C329.532,232.424,325.875,228.766,321.362,228.766z"/>
	</g>
</g>
<g>
	<g>
		<path d="M256,98.043c-58.566,0-106.213,47.647-106.213,106.217l0.034,57.199c0.002,4.511,3.659,8.166,8.17,8.166    c4.517-0.002,8.172-3.662,8.17-8.175l-0.034-57.195c0-49.556,40.316-89.872,89.872-89.872c49.555,0,89.872,40.316,89.872,89.872    v87.149c0,40.546-32.986,73.532-73.532,73.532c-40.546,0-73.532-32.986-73.532-73.532v-87.149    c0-31.536,25.656-57.191,57.191-57.191c31.535,0,57.191,25.656,57.191,57.191c0,4.512,3.657,8.17,8.17,8.17s8.17-3.658,8.17-8.17    c0-40.546-32.986-73.532-73.532-73.532s-73.532,32.986-73.532,73.532v87.149c0,49.556,40.316,89.872,89.872,89.872    c49.555,0,89.872-40.316,89.872-89.872v-87.149C362.213,145.689,314.566,98.043,256,98.043z"/>
	</g>
</g>
<g>
	<g>
		<path d="M403.064,270.162c13.515,0,24.511-10.995,24.511-24.511v-41.396c0-94.607-76.968-171.574-171.574-171.574    S84.426,109.649,84.426,204.255c0,4.512,3.658,8.17,8.17,8.17s8.17-3.658,8.17-8.17c0-85.597,69.637-155.234,155.234-155.234    s155.234,69.637,155.234,155.234v41.396c0,4.506-3.665,8.17-8.17,8.17c-4.506,0-8.17-3.665-8.17-8.17v-41.396    c0-76.586-62.307-138.894-138.894-138.894s-138.894,62.307-138.894,138.894v87.149c0,85.597,69.637,155.234,155.234,155.234    s155.234-69.637,155.234-155.234c0-4.512-3.657-8.17-8.17-8.17c-4.513,0-8.17,3.658-8.17,8.17    c0,76.587-62.307,138.894-138.894,138.894s-138.894-62.307-138.894-138.894v-87.149c0-67.576,54.977-122.553,122.553-122.553    c67.575,0,122.553,54.977,122.553,122.553v41.396C378.553,259.167,389.549,270.162,403.064,270.162z"/>
	</g>
</g>
<g>
	<g>
		<path d="M272.34,462.979c-94.607,0-171.574-76.968-171.574-171.574v-54.468c0-4.512-3.658-8.17-8.17-8.17s-8.17,3.658-8.17,8.17    v54.468c0,103.617,84.298,187.915,187.915,187.915c4.513,0,8.17-3.658,8.17-8.17S276.854,462.979,272.34,462.979z"/>
	</g>
</g>
<g>
	<g>
		<path d="M386.723,283.234c-4.513,0-8.17,3.658-8.17,8.17c0,58.566-47.647,106.213-106.213,106.213    c-58.566,0-106.213-47.646-106.213-106.213c0-4.512-3.658-8.17-8.17-8.17s-8.17,3.658-8.17,8.17    c0,67.576,54.977,122.553,122.553,122.553s122.553-54.977,122.553-122.553C394.894,286.892,391.237,283.234,386.723,283.234z"/>
	</g>
</g>
<g>
	<g>
		<path d="M125.277,32.681h-24.511V8.17c0-4.512-3.658-8.17-8.17-8.17s-8.17,3.658-8.17,8.17v24.511H59.915    c-4.512,0-8.17,3.658-8.17,8.17s3.658,8.17,8.17,8.17h24.511v24.511c0,4.512,3.658,8.17,8.17,8.17s8.17-3.658,8.17-8.17V49.021    h24.511c4.512,0,8.17-3.658,8.17-8.17S129.789,32.681,125.277,32.681z"/>
	</g>
</g>
<g>
	<g>
		<path d="M125.277,462.979h-24.511v-24.511c0-4.512-3.658-8.17-8.17-8.17s-8.17,3.658-8.17,8.17v24.511H59.915    c-4.512,0-8.17,3.658-8.17,8.17s3.658,8.17,8.17,8.17h24.511v24.511c0,4.512,3.658,8.17,8.17,8.17s8.17-3.658,8.17-8.17v-24.511    h24.511c4.512,0,8.17-3.658,8.17-8.17S129.789,462.979,125.277,462.979z"/>
	</g>
</g>
<g>
	<g>
		<path d="M452.085,32.681h-24.511V8.17c0-4.512-3.657-8.17-8.17-8.17c-4.513,0-8.17,3.658-8.17,8.17v24.511h-24.511    c-4.513,0-8.17,3.658-8.17,8.17s3.657,8.17,8.17,8.17h24.511v24.511c0,4.512,3.657,8.17,8.17,8.17c4.513,0,8.17-3.658,8.17-8.17    V49.021h24.511c4.513,0,8.17-3.658,8.17-8.17S456.598,32.681,452.085,32.681z"/>
	</g>
</g>
<g>
	<g>
		<path d="M452.085,462.979h-24.511v-24.511c0-4.512-3.657-8.17-8.17-8.17c-4.513,0-8.17,3.658-8.17,8.17v24.511h-24.511    c-4.513,0-8.17,3.658-8.17,8.17s3.657,8.17,8.17,8.17h24.511v24.511c0,4.512,3.657,8.17,8.17,8.17c4.513,0,8.17-3.658,8.17-8.17    v-24.511h24.511c4.513,0,8.17-3.658,8.17-8.17S456.598,462.979,452.085,462.979z"/>
	</g>
</g>
<g>
</g>
<g>
</g>
<g>
</g>
<g>
</g>
<g>
</g>
<g>
</g>
<g>
</g>
<g>
</g>
<g>
</g>
<g>
</g>
<g>
</g>
<g>
</g>
<g>
</g>
<g>
</g>
<g>
</g>
</svg>
