<?xml version="1.0" encoding="iso-8859-1"?>
<!-- Generator: Adobe Illustrator 19.0.0, SVG Export Plug-In . SVG Version: 6.00 Build 0)  -->
<svg xmlns="http://www.w3.org/2000/svg" xmlns:xlink="http://www.w3.org/1999/xlink" version="1.1" id="Layer_1" x="0px" y="0px" viewBox="0 0 512 512" style="enable-background:new 0 0 512 512;" xml:space="preserve">
<g>
	<g>
		<path d="M305.021,308.288c-6.55,0-12.707,2.552-17.336,7.183l-48.026,48.027l-15.343-15.343    c-4.631-4.633-10.788-7.185-17.338-7.185c-13.516,0-24.511,10.995-24.511,24.511c0,6.55,2.552,12.707,7.183,17.336l32.678,32.678    c4.63,4.629,10.785,7.178,17.331,7.178c6.617,0,12.821-2.601,17.42-7.277l65.267-65.258c4.633-4.63,7.185-10.788,7.185-17.338    C329.532,319.283,318.537,308.288,305.021,308.288z M310.795,338.581l-65.316,65.307c-1.55,1.575-3.618,2.443-5.819,2.443    c-2.182,0-4.234-0.85-5.777-2.392l-32.68-32.68c-1.545-1.544-2.396-3.596-2.396-5.779c0.001-4.506,3.666-8.17,8.171-8.17    c2.183,0,4.235,0.851,5.781,2.398l21.123,21.122c3.191,3.191,8.364,3.191,11.554,0l53.806-53.805    c1.544-1.545,3.596-2.396,5.779-2.396c4.506,0,8.17,3.665,8.17,8.17C313.191,334.983,312.341,337.035,310.795,338.581z"/>
	</g>
</g>
<g>
	<g>
		<path d="M441.191,0H70.809c-4.512,0-8.17,3.658-8.17,8.17v108.936c0,12.309,8.999,25.413,20.489,29.832l109.956,42.29    c-3.234,4.154-5.167,9.367-5.167,15.027c0,8.15,4.001,15.377,10.138,19.836c-53.902,22.699-91.841,76.061-91.841,138.121    C106.213,444.806,173.407,512,256,512s149.787-67.194,149.787-149.787c0-62.06-37.939-115.422-91.84-138.121    c6.137-4.459,10.138-11.688,10.138-19.836c0-5.659-1.934-10.873-5.167-15.027l109.956-42.29    c11.488-4.42,20.488-17.523,20.488-29.832V8.17C449.362,3.658,445.704,0,441.191,0z M389.447,362.213    c0,73.583-59.864,133.447-133.447,133.447s-133.447-59.864-133.447-133.447S182.417,228.766,256,228.766    S389.447,288.63,389.447,362.213z M204.255,204.255c0-4.506,3.665-8.17,8.17-8.17h87.149c4.506,0,8.17,3.665,8.17,8.17    c0,4.506-3.665,8.17-8.17,8.17h-87.149C207.92,212.426,204.255,208.761,204.255,204.255z M423.008,131.687l-124.951,48.057    h-84.115l-124.95-48.057c-5.242-2.016-10.014-8.965-10.014-14.581V16.34h49.021v107.23c0,4.512,3.658,8.17,8.17,8.17    s8.17-3.658,8.17-8.17V16.34h16.34v119.8c0,4.512,3.658,8.17,8.17,8.17s8.17-3.658,8.17-8.17V16.34h157.957v119.8    c0,4.512,3.658,8.17,8.17,8.17s8.17-3.658,8.17-8.17V16.34h16.34v107.23c0,4.512,3.658,8.17,8.17,8.17    c4.512,0,8.17-3.658,8.17-8.17V16.34h49.021v100.766h0.001C433.021,122.721,428.249,129.671,423.008,131.687z"/>
	</g>
</g>
<g>
	<g>
		<path d="M256,245.106c-64.573,0-117.106,52.533-117.106,117.106c0,25.169,7.902,49.175,22.854,69.424    c2.682,3.631,7.798,4.399,11.426,1.72c3.63-2.68,4.4-7.795,1.72-11.426c-12.862-17.418-19.66-38.068-19.66-59.718    c0-55.563,45.203-100.766,100.766-100.766c55.563,0,100.766,45.203,100.766,100.766c0,55.563-45.203,100.766-100.766,100.766    c-21.65,0-42.3-6.798-59.718-19.659c-3.628-2.68-8.745-1.911-11.425,1.719s-1.911,8.745,1.719,11.425    c20.248,14.951,44.255,22.855,69.424,22.855c64.573,0,117.106-52.533,117.106-117.106S320.573,245.106,256,245.106z"/>
	</g>
</g>
<g>
</g>
<g>
</g>
<g>
</g>
<g>
</g>
<g>
</g>
<g>
</g>
<g>
</g>
<g>
</g>
<g>
</g>
<g>
</g>
<g>
</g>
<g>
</g>
<g>
</g>
<g>
</g>
<g>
</g>
</svg>
