<?xml version="1.0" encoding="iso-8859-1"?>
<!-- Generator: Adobe Illustrator 19.0.0, SVG Export Plug-In . SVG Version: 6.00 Build 0)  -->
<svg xmlns="http://www.w3.org/2000/svg" xmlns:xlink="http://www.w3.org/1999/xlink" version="1.1" id="Layer_1" x="0px" y="0px" viewBox="0 0 512 512" style="enable-background:new 0 0 512 512;" xml:space="preserve">
<g>
	<g>
		<path d="M255.998,201.532c-30.034,0-54.468,24.434-54.468,54.468s24.434,54.468,54.468,54.468s54.468-24.434,54.468-54.468    S286.031,201.532,255.998,201.532z M255.998,294.128c-21.024,0-38.128-17.104-38.128-38.128c0-21.024,17.104-38.128,38.128-38.128    c21.024,0,38.128,17.104,38.128,38.128C294.125,277.024,277.021,294.128,255.998,294.128z"/>
	</g>
</g>
<g>
	<g>
		<path d="M395.647,225.106l-23.392-2.169c-2.567-9.009-6.18-17.674-10.787-25.875l15.009-18.077    c2.696-3.246,2.475-8.012-0.509-10.996l-32.072-32.073c-2.984-2.984-7.75-3.206-10.997-0.509l-18.147,15.067    c-8.194-4.575-16.85-8.159-25.848-10.701l-2.171-23.423c-0.389-4.202-3.915-7.416-8.135-7.416H233.24    c-4.22,0-7.745,3.214-8.135,7.416l-2.182,23.531c-8.963,2.564-17.584,6.162-25.744,10.745l-18.193-15.107    c-3.247-2.697-8.012-2.475-10.997,0.509l-32.073,32.073c-2.984,2.984-3.204,7.75-0.509,10.996l15.165,18.263    c-4.552,8.155-8.122,16.77-10.661,25.719l-23.561,2.184c-4.202,0.389-7.416,3.915-7.416,8.135v45.199    c0,4.22,3.214,7.745,7.416,8.135l23.561,2.184c2.538,8.951,6.108,17.565,10.661,25.721l-15.165,18.263    c-2.696,3.246-2.475,8.012,0.509,10.996l32.073,32.073c2.984,2.983,7.749,3.206,10.997,0.509l18.193-15.107    c8.159,4.583,16.781,8.181,25.744,10.745l2.182,23.531c0.389,4.202,3.915,7.416,8.135,7.416h45.359    c4.22,0,7.745-3.214,8.135-7.416l2.171-23.423c8.998-2.542,17.653-6.125,25.848-10.701l18.147,15.067    c3.246,2.697,8.012,2.475,10.997-0.509l32.072-32.073c2.984-2.984,3.204-7.75,0.509-10.996l-15.009-18.077    c4.607-8.201,8.22-16.865,10.787-25.875l23.392-2.169c4.202-0.389,7.416-3.915,7.416-8.135v-45.517    C403.064,229.021,399.85,225.496,395.647,225.106z M386.721,271.311l-21.692,2.011c-3.506,0.325-6.409,2.86-7.204,6.288    c-2.609,11.239-7.065,21.927-13.244,31.764c-1.879,2.99-1.623,6.849,0.632,9.566l13.935,16.783l-21.539,21.54l-16.839-13.981    c-2.71-2.251-6.558-2.51-9.547-0.645c-9.835,6.142-20.517,10.563-31.749,13.14c-3.438,0.79-5.982,3.696-6.307,7.209l-2.015,21.738    h-30.463l-2.023-21.825c-0.325-3.502-2.854-6.403-6.28-7.203c-11.199-2.611-21.845-7.056-31.644-13.211    c-2.991-1.878-6.85-1.623-9.565,0.633l-16.899,14.032l-21.54-21.54l14.079-16.955c2.25-2.71,2.51-6.557,0.645-9.545    c-6.118-9.802-10.529-20.444-13.108-31.632c-0.793-3.435-3.698-5.974-7.207-6.299l-21.869-2.027v-30.304h-0.001l21.869-2.027    c3.51-0.325,6.415-2.864,7.207-6.299c2.58-11.188,6.99-21.83,13.108-31.632c1.865-2.988,1.606-6.835-0.645-9.545l-14.079-16.955    l21.54-21.54l16.899,14.032c2.717,2.256,6.573,2.511,9.565,0.633c9.799-6.155,20.445-10.599,31.644-13.211    c3.426-0.799,5.956-3.701,6.28-7.203l2.024-21.825h30.463l2.015,21.739c0.326,3.513,2.869,6.42,6.307,7.209    c11.232,2.577,21.914,6.998,31.749,13.14c2.987,1.866,6.836,1.607,9.547-0.645l16.839-13.981l21.539,21.54l-13.935,16.783    c-2.255,2.717-2.511,6.575-0.632,9.566c6.18,9.837,10.637,20.525,13.244,31.764c0.795,3.429,3.699,5.963,7.204,6.288l21.692,2.011    V271.311z"/>
	</g>
</g>
<g>
	<g>
		<path d="M437.019,74.981C388.667,26.628,324.38,0,256,0S123.333,26.628,74.981,74.981C26.628,123.332,0,187.62,0,256    s26.628,132.668,74.981,181.019C123.333,485.372,187.62,512,256,512s132.667-26.628,181.019-74.981    C485.372,388.668,512,324.38,512,256S485.372,123.332,437.019,74.981z M495.505,247.83h-49.053    c-1.967-46.412-20.601-88.581-50.065-120.662l34.667-34.667C469.368,133.496,493.487,187.906,495.505,247.83z M256,16.34    c63.142,0,120.647,24.556,163.499,64.606l-34.667,34.667C350.878,84.429,305.626,65.362,256,65.362s-94.878,19.067-128.832,50.252    L92.501,80.946C135.353,40.897,192.858,16.34,256,16.34z M80.946,92.501l34.667,34.667    c-29.463,32.081-48.097,74.25-50.065,120.662H16.495C18.514,187.906,42.632,133.497,80.946,92.501z M144.354,389.73    c-3.463-2.897-8.614-2.436-11.508,1.025c-2.894,3.461-2.436,8.614,1.025,11.508c32.118,26.863,72.307,42.394,113.959,44.195    v49.045C122.164,491.273,20.727,389.836,16.495,264.17H65.54c1.802,41.651,17.333,81.842,44.195,113.959    c2.894,3.461,8.048,3.92,11.508,1.026c3.462-2.896,3.921-8.048,1.025-11.509C96.11,336.367,81.702,296.716,81.702,256    c0-96.108,78.189-174.298,174.298-174.298S430.298,159.892,430.298,256S352.109,430.298,256,430.298    C215.283,430.298,175.633,415.89,144.354,389.73z M264.17,495.505v-49.053c72.911-3.091,135.347-47.322,164.646-110.026    l45.329,18.776C437.418,435.646,357.47,492.362,264.17,495.505z M480.411,340.111L435.1,321.342    c6.572-17.957,10.504-37.172,11.351-57.172h49.053C494.608,290.804,489.347,316.347,480.411,340.111z"/>
	</g>
</g>
<g>
	<g>
		<path d="M255.998,168.851c-48.054,0-87.149,39.095-87.149,87.149c0,16.913,4.891,33.345,14.145,47.519    c2.467,3.779,7.53,4.84,11.309,2.374c3.778-2.467,4.841-7.53,2.375-11.308c-7.516-11.51-11.488-24.853-11.488-38.585    c0-39.044,31.765-70.809,70.808-70.809s70.809,31.765,70.809,70.809s-31.765,70.809-70.809,70.809    c-13.732,0-27.075-3.973-38.586-11.488c-3.78-2.469-8.841-1.404-11.309,2.374s-1.403,8.841,2.375,11.308    c14.175,9.255,30.607,14.148,47.52,14.148c48.054,0,87.149-39.095,87.149-87.149C343.147,207.946,304.052,168.851,255.998,168.851    z"/>
	</g>
</g>
<g>
</g>
<g>
</g>
<g>
</g>
<g>
</g>
<g>
</g>
<g>
</g>
<g>
</g>
<g>
</g>
<g>
</g>
<g>
</g>
<g>
</g>
<g>
</g>
<g>
</g>
<g>
</g>
<g>
</g>
</svg>
