<?xml version="1.0" encoding="iso-8859-1"?>
<!-- Generator: Adobe Illustrator 19.0.0, SVG Export Plug-In . SVG Version: 6.00 Build 0)  -->
<svg xmlns="http://www.w3.org/2000/svg" xmlns:xlink="http://www.w3.org/1999/xlink" version="1.1" id="Layer_1" x="0px" y="0px" viewBox="0 0 512 512" style="enable-background:new 0 0 512 512;" xml:space="preserve">
<g>
	<g>
		<path d="M441.191,0H70.809C48.283,0,29.957,18.325,29.957,40.851v430.298c0,22.526,18.325,40.851,40.851,40.851h370.383    c22.526,0,40.851-18.325,40.851-40.851V40.851C482.043,18.325,463.717,0,441.191,0z M465.702,471.149    c0,13.516-10.996,24.511-24.511,24.511H70.809c-13.515,0-24.511-10.995-24.511-24.511V40.851    c0-13.516,10.996-24.511,24.511-24.511h370.383c13.515,0,24.511,10.995,24.511,24.511V471.149z"/>
	</g>
</g>
<g>
	<g>
		<circle cx="78.979" cy="49.021" r="8.17"/>
	</g>
</g>
<g>
	<g>
		<circle cx="433.021" cy="49.021" r="8.17"/>
	</g>
</g>
<g>
	<g>
		<circle cx="78.979" cy="462.979" r="8.17"/>
	</g>
</g>
<g>
	<g>
		<circle cx="433.021" cy="462.979" r="8.17"/>
	</g>
</g>
<g>
	<g>
		<path d="M256,65.362c-88.6,0-160.681,72.081-160.681,160.681S167.4,386.723,256,386.723s160.681-72.081,160.681-160.681    S344.6,65.362,256,65.362z M256,370.383c-79.59,0-144.34-64.751-144.34-144.34S176.41,81.702,256,81.702    s144.34,64.751,144.34,144.34S335.59,370.383,256,370.383z"/>
	</g>
</g>
<g>
	<g>
		<path d="M305.021,416.681h-98.043c-4.513,0-8.17,3.658-8.17,8.17s3.657,8.17,8.17,8.17h98.043c4.513,0,8.17-3.658,8.17-8.17    S309.534,416.681,305.021,416.681z"/>
	</g>
</g>
<g>
	<g>
		<path d="M446.969,100.436l-65.362-65.362c-1.534-1.533-3.611-2.393-5.778-2.393H136.17c-2.167,0-4.244,0.861-5.778,2.393    l-65.362,65.362c-1.532,1.532-2.392,3.61-2.392,5.777v234.213c0,4.512,3.657,8.17,8.17,8.17s8.17-3.658,8.17-8.17V109.596    l60.575-60.575h232.891l60.575,60.575v292.806l-60.574,60.576H139.554l-60.575-60.575v-29.297c0-4.512-3.657-8.17-8.17-8.17    c-4.513,0-8.17,3.658-8.17,8.17v32.681c0,2.167,0.861,4.245,2.392,5.777l65.362,65.362c1.534,1.533,3.611,2.393,5.778,2.393    h239.66c2.167,0,4.244-0.861,5.778-2.393l65.362-65.362c1.532-1.532,2.392-3.61,2.392-5.777V106.213    C449.362,104.046,448.501,101.968,446.969,100.436z"/>
	</g>
</g>
<g>
	<g>
		<path d="M256,168.851c-31.535,0-57.191,25.656-57.191,57.191c0,8.617,1.882,16.911,5.594,24.653    c1.95,4.069,6.831,5.786,10.899,3.836c4.069-1.951,5.787-6.83,3.836-10.899c-2.646-5.519-3.987-11.438-3.987-17.59    c0-22.526,18.325-40.851,40.851-40.851s40.851,18.325,40.851,40.851S278.526,266.894,256,266.894    c-6.153,0-12.07-1.341-17.589-3.988c-4.067-1.95-8.949-0.235-10.9,3.835c-1.951,4.069-0.234,8.949,3.835,10.9    c7.741,3.711,16.036,5.594,24.654,5.594c31.535,0,57.191-25.656,57.191-57.192C313.191,194.507,287.535,168.851,256,168.851z"/>
	</g>
</g>
<g>
</g>
<g>
</g>
<g>
</g>
<g>
</g>
<g>
</g>
<g>
</g>
<g>
</g>
<g>
</g>
<g>
</g>
<g>
</g>
<g>
</g>
<g>
</g>
<g>
</g>
<g>
</g>
<g>
</g>
</svg>
