<?xml version="1.0" encoding="iso-8859-1"?>
<!-- Generator: Adobe Illustrator 19.0.0, SVG Export Plug-In . SVG Version: 6.00 Build 0)  -->
<svg xmlns="http://www.w3.org/2000/svg" xmlns:xlink="http://www.w3.org/1999/xlink" version="1.1" id="Layer_1" x="0px" y="0px" viewBox="0 0 512 512" style="enable-background:new 0 0 512 512;" xml:space="preserve">
<g>
	<g>
		<path d="M471.149,59.915H288.681c-4.513,0-8.17,3.658-8.17,8.17c0,4.512,3.657,8.17,8.17,8.17h182.468    c13.515,0,24.511,10.995,24.511,24.511v10.915c-6.832-5.141-15.321-8.192-24.511-8.192H264.17V68.085    c0-22.526-18.325-40.851-40.851-40.851H40.851C18.325,27.234,0,45.559,0,68.085v375.83c0,22.526,18.325,40.851,40.851,40.851    h430.298c22.526,0,40.851-18.325,40.851-40.851V100.766C512,78.24,493.675,59.915,471.149,59.915z M495.66,443.915    c0,13.516-10.996,24.511-24.511,24.511H40.851c-13.516,0-24.511-10.995-24.511-24.511V68.085    c0-13.516,10.995-24.511,24.511-24.511h182.468c13.516,0,24.511,10.995,24.511,24.511v43.574c0,4.512,3.658,8.17,8.17,8.17    h215.149c13.515,0,24.511,10.995,24.511,24.511V443.915z"/>
	</g>
</g>
<g>
	<g>
		<path d="M471.149,435.745H40.851c-4.512,0-8.17,3.658-8.17,8.17c0,4.512,3.658,8.17,8.17,8.17h430.298    c4.513,0,8.17-3.658,8.17-8.17C479.319,439.403,475.662,435.745,471.149,435.745z"/>
	</g>
</g>
<g>
	<g>
		<circle cx="151.149" cy="213.482" r="8.17"/>
	</g>
</g>
<g>
	<g>
		<circle cx="183.83" cy="213.482" r="8.17"/>
	</g>
</g>
<g>
	<g>
		<circle cx="216.511" cy="213.482" r="8.17"/>
	</g>
</g>
<g>
	<g>
		<path d="M370.082,301.716c0-5.054-1.468-9.772-3.999-13.745c6.703-4.618,11.107-12.361,11.107-21.115    c0-14.116-11.451-25.6-25.526-25.6l-58.337,0.001c7.742-16.624,11.918-36.435,11.918-57.191c0-14.075-11.451-25.526-25.527-25.526    c-14.075,0-25.526,11.451-25.526,25.526c0,27.544-15.378,57.191-49.144,57.191c0.003-0.001-9.226-0.001-9.243-0.001h-44.655    c-4.512,0-8.17,3.658-8.17,8.17v139.438c0,4.512,3.658,8.17,8.17,8.17h179.19c14.076,0,25.527-11.484,25.527-25.6    c0-5.055-1.468-9.772-3.999-13.744c6.703-4.618,11.107-12.361,11.107-21.115c0-5.054-1.468-9.772-3.999-13.745    C365.678,318.213,370.082,310.47,370.082,301.716z M187.643,380.694h-28.323V257.596h28.323V380.694z M351.666,276.116h-7.108    c-4.513,0-8.17,3.658-8.17,8.17s3.657,8.17,8.17,8.17c5.064,0,9.186,4.154,9.186,9.26c0,5.106-4.12,9.26-9.186,9.26h-7.109    c-4.513,0-8.17,3.658-8.17,8.17s3.657,8.17,8.17,8.17c5.064,0,9.187,4.154,9.187,9.26s-4.121,9.26-9.187,9.26h-7.108    c-4.513,0-8.17,3.658-8.17,8.17c0,4.512,3.657,8.17,8.17,8.17c5.064,0,9.187,4.154,9.187,9.26s-4.121,9.26-9.187,9.26H203.983    V257.597h1.067c19.33,0,36.516-7.878,48.393-22.182c11.022-13.274,17.092-31.511,17.092-51.349c0-5.064,4.12-9.186,9.185-9.186    c5.066,0,9.187,4.121,9.187,9.186c0,23.188-5.77,44.817-16.248,60.902c-1.636,2.512-1.766,5.718-0.338,8.353    c1.428,2.635,4.185,4.277,7.183,4.277l72.161-0.001c5.064,0,9.185,4.154,9.185,9.26S356.731,276.116,351.666,276.116z"/>
	</g>
</g>
<g>
</g>
<g>
</g>
<g>
</g>
<g>
</g>
<g>
</g>
<g>
</g>
<g>
</g>
<g>
</g>
<g>
</g>
<g>
</g>
<g>
</g>
<g>
</g>
<g>
</g>
<g>
</g>
<g>
</g>
</svg>
