<?xml version="1.0" encoding="iso-8859-1"?>
<!-- Generator: Adobe Illustrator 19.0.0, SVG Export Plug-In . SVG Version: 6.00 Build 0)  -->
<svg xmlns="http://www.w3.org/2000/svg" xmlns:xlink="http://www.w3.org/1999/xlink" version="1.1" id="Layer_1" x="0px" y="0px" viewBox="0 0 512 512" style="enable-background:new 0 0 512 512;" xml:space="preserve">
<g>
	<g>
		<path d="M449.362,0H62.638c-4.513,0-8.17,3.658-8.17,8.17v495.66c0,4.512,3.657,8.17,8.17,8.17H384    c2.167,0,4.244-0.861,5.778-2.393l65.362-65.362c1.532-1.532,2.392-3.61,2.392-5.777V8.17C457.532,3.658,453.875,0,449.362,0z     M392.17,484.106v-37.468h37.468L392.17,484.106z M441.191,430.298H384c-4.513,0-8.17,3.658-8.17,8.17v57.191H70.809V16.34    h370.383V430.298z"/>
	</g>
</g>
<g>
	<g>
		<path d="M302.298,364.936H128c-4.513,0-8.17,3.658-8.17,8.17s3.657,8.17,8.17,8.17h174.298c4.513,0,8.17-3.658,8.17-8.17    S306.811,364.936,302.298,364.936z"/>
	</g>
</g>
<g>
	<g>
		<path d="M384,332.255H128c-4.513,0-8.17,3.658-8.17,8.17s3.657,8.17,8.17,8.17h256c4.513,0,8.17-3.658,8.17-8.17    S388.513,332.255,384,332.255z"/>
	</g>
</g>
<g>
	<g>
		<path d="M384,299.574H128c-4.513,0-8.17,3.658-8.17,8.17s3.657,8.17,8.17,8.17h256c4.513,0,8.17-3.658,8.17-8.17    S388.513,299.574,384,299.574z"/>
	</g>
</g>
<g>
	<g>
		<path d="M384,266.894H128c-4.513,0-8.17,3.658-8.17,8.17s3.657,8.17,8.17,8.17h256c4.513,0,8.17-3.658,8.17-8.17    S388.513,266.894,384,266.894z"/>
	</g>
</g>
<g>
	<g>
		<path d="M384,234.213H128c-4.513,0-8.17,3.658-8.17,8.17s3.657,8.17,8.17,8.17h256c4.513,0,8.17-3.658,8.17-8.17    S388.513,234.213,384,234.213z"/>
	</g>
</g>
<g>
	<g>
		<path d="M215.149,430.298H128c-4.513,0-8.17,3.658-8.17,8.17s3.657,8.17,8.17,8.17h87.149c4.513,0,8.17-3.658,8.17-8.17    S219.662,430.298,215.149,430.298z"/>
	</g>
</g>
<g>
	<g>
		<path d="M384,65.362H128c-4.513,0-8.17,3.658-8.17,8.17v103.489c0,4.512,3.657,8.17,8.17,8.17h32.681    c4.513,0,8.17-3.658,8.17-8.17s-3.657-8.17-8.17-8.17H136.17V81.702h239.66v87.149H193.362c-4.513,0-8.17,3.658-8.17,8.17    s3.657,8.17,8.17,8.17H384c4.513,0,8.17-3.658,8.17-8.17V73.532C392.17,69.02,388.513,65.362,384,65.362z"/>
	</g>
</g>
<g>
</g>
<g>
</g>
<g>
</g>
<g>
</g>
<g>
</g>
<g>
</g>
<g>
</g>
<g>
</g>
<g>
</g>
<g>
</g>
<g>
</g>
<g>
</g>
<g>
</g>
<g>
</g>
<g>
</g>
</svg>
