<?xml version="1.0" encoding="iso-8859-1"?>
<!-- Generator: Adobe Illustrator 19.0.0, SVG Export Plug-In . SVG Version: 6.00 Build 0)  -->
<svg xmlns="http://www.w3.org/2000/svg" xmlns:xlink="http://www.w3.org/1999/xlink" version="1.1" id="Layer_1" x="0px" y="0px" viewBox="0 0 512 512" style="enable-background:new 0 0 512 512;" xml:space="preserve">
<g>
	<g>
		<path d="M449.362,0H62.638c-4.512,0-8.17,3.658-8.17,8.17v495.66c0,4.512,3.658,8.17,8.17,8.17H384    c2.167,0,4.244-0.861,5.778-2.393l65.362-65.362c1.532-1.532,2.392-3.61,2.392-5.777V8.17C457.532,3.658,453.875,0,449.362,0z     M392.17,484.106v-37.468h37.468L392.17,484.106z M441.191,430.298H384c-4.513,0-8.17,3.658-8.17,8.17v57.191H70.809V16.34    h370.383V430.298z"/>
	</g>
</g>
<g>
	<g>
		<path d="M384,65.362H128c-4.512,0-8.17,3.658-8.17,8.17v299.574c0,4.512,3.658,8.17,8.17,8.17h256c4.513,0,8.17-3.658,8.17-8.17    V73.532C392.17,69.02,388.513,65.362,384,65.362z M206.979,364.936H136.17v-43.574h70.809V364.936z M206.979,305.021H136.17    v-43.574h70.809V305.021z M206.979,245.106H136.17v-43.574h70.809V245.106z M206.979,185.192H136.17v-43.575h70.809V185.192z     M206.979,125.277H136.17V81.702h70.809V125.277z M375.83,364.936H223.319v-43.574H375.83V364.936z M375.83,245.106h-59.915    c-4.513,0-8.17,3.658-8.17,8.17c0,4.512,3.657,8.17,8.17,8.17h59.915v43.574H223.319v-43.574h59.915c4.513,0,8.17-3.658,8.17-8.17    c0-4.512-3.657-8.17-8.17-8.17h-59.915v-43.574H375.83V245.106z M375.83,185.192H223.319v-43.575H375.83V185.192z M375.83,125.277    H223.319V81.702H375.83V125.277z"/>
	</g>
</g>
<g>
	<g>
		<path d="M302.298,397.617H128c-4.512,0-8.17,3.658-8.17,8.17s3.658,8.17,8.17,8.17h174.298c4.513,0,8.17-3.658,8.17-8.17    S306.811,397.617,302.298,397.617z"/>
	</g>
</g>
<g>
	<g>
		<path d="M215.149,430.298H128c-4.512,0-8.17,3.658-8.17,8.17s3.658,8.17,8.17,8.17h87.149c4.512,0,8.17-3.658,8.17-8.17    S219.661,430.298,215.149,430.298z"/>
	</g>
</g>
<g>
</g>
<g>
</g>
<g>
</g>
<g>
</g>
<g>
</g>
<g>
</g>
<g>
</g>
<g>
</g>
<g>
</g>
<g>
</g>
<g>
</g>
<g>
</g>
<g>
</g>
<g>
</g>
<g>
</g>
</svg>
