<?xml version="1.0" encoding="iso-8859-1"?>
<!-- Generator: Adobe Illustrator 19.0.0, SVG Export Plug-In . SVG Version: 6.00 Build 0)  -->
<svg xmlns="http://www.w3.org/2000/svg" xmlns:xlink="http://www.w3.org/1999/xlink" version="1.1" id="Layer_1" x="0px" y="0px" viewBox="0 0 512 512" style="enable-background:new 0 0 512 512;" xml:space="preserve">
<g>
	<g>
		<path d="M437.019,74.981C388.668,26.628,324.38,0,256,0S123.332,26.628,74.981,74.981C26.628,123.332,0,187.62,0,256    s26.628,132.668,74.981,181.019C123.332,485.372,187.62,512,256,512s132.668-26.628,181.019-74.981    C485.372,388.668,512,324.38,512,256S485.372,123.332,437.019,74.981z M495.505,247.83h-49.053    c-1.967-46.412-20.601-88.581-50.065-120.662l34.666-34.667C469.367,133.496,493.486,187.906,495.505,247.83z M256,16.34    c63.142,0,120.647,24.556,163.499,64.607l-34.667,34.667C350.878,84.429,305.626,65.362,256,65.362s-94.878,19.067-128.832,50.252    L92.501,80.947C135.353,40.897,192.858,16.34,256,16.34z M80.947,92.501l34.667,34.667    c-29.464,32.081-48.099,74.25-50.066,120.662H16.495C18.514,187.906,42.632,133.496,80.947,92.501z M144.354,389.73    c-3.461-2.893-8.614-2.435-11.509,1.026c-2.894,3.461-2.435,8.614,1.026,11.508c32.119,26.861,72.309,42.394,113.959,44.195    v49.045C122.164,491.273,20.727,389.836,16.495,264.17H65.54c1.802,41.651,17.334,81.84,44.195,113.959    c2.893,3.462,8.046,3.921,11.508,1.026c3.461-2.896,3.921-8.048,1.026-11.509C96.11,336.367,81.702,296.716,81.702,256    c0-96.108,78.19-174.298,174.298-174.298S430.298,159.892,430.298,256S352.108,430.298,256,430.298    C215.284,430.298,175.633,415.89,144.354,389.73z M264.17,495.505v-49.053c72.911-3.091,135.347-47.322,164.646-110.026    l45.329,18.776C437.418,435.646,357.47,492.362,264.17,495.505z M480.411,340.111L435.1,321.342    c6.572-17.957,10.504-37.172,11.351-57.172h49.053C494.608,290.804,489.347,316.347,480.411,340.111z"/>
	</g>
</g>
<g>
	<g>
		<path d="M256,108.936c-81.091,0-147.064,65.973-147.064,147.064S174.909,403.064,256,403.064S403.064,337.091,403.064,256    S337.091,108.936,256,108.936z M386.461,247.83h-76.078c-0.413-21.737-2.473-42.592-5.994-61.315    c15.501-5.414,30.081-13.426,43.096-23.792C369.864,184.675,384.4,214.589,386.461,247.83z M334.876,151.828    c-10.41,7.898-21.878,14.142-34.007,18.587c-1.337-5.299-2.8-10.374-4.397-15.165c-3.603-10.808-7.702-19.796-12.227-26.89    C302.93,132.491,320.123,140.629,334.876,151.828z M217.962,247.83c0.395-20.161,2.251-39.456,5.413-56.78    c10.628,2.423,21.565,3.673,32.625,3.673c11.06,0,21.998-1.251,32.626-3.673c3.162,17.325,5.018,36.619,5.413,56.78H217.962z     M294.038,264.17c-0.395,20.161-2.251,39.456-5.413,56.78c-10.629-2.423-21.566-3.673-32.626-3.673    c-11.06,0-21.997,1.251-32.625,3.673c-3.162-17.325-5.018-36.619-5.413-56.78H294.038z M256,125.277    c6.409,0,16.335,9.231,24.971,35.141c1.538,4.616,2.948,9.519,4.23,14.655c-9.511,2.184-19.301,3.311-29.201,3.311    c-9.9,0-19.691-1.125-29.201-3.311c1.282-5.137,2.692-10.04,4.23-14.655C239.665,134.508,249.591,125.277,256,125.277z     M227.766,128.356c-4.53,7.097-8.634,16.077-12.24,26.893c-1.596,4.791-3.059,9.866-4.397,15.165    c-12.129-4.445-23.597-10.689-34.007-18.587C191.879,140.627,209.078,132.487,227.766,128.356z M164.514,162.722    c13.016,10.365,27.596,18.378,43.096,23.792c-3.521,18.723-5.582,39.579-5.994,61.316h-76.078    C127.6,214.589,142.136,184.675,164.514,162.722z M125.539,264.17h76.078c0.413,21.737,2.473,42.592,5.994,61.316    c-15.5,5.414-30.081,13.426-43.096,23.792C142.136,327.325,127.599,297.411,125.539,264.17z M177.123,360.172    c10.41-7.898,21.878-14.142,34.007-18.587c1.338,5.299,2.801,10.374,4.398,15.165c3.605,10.814,7.709,19.796,12.238,26.893    C209.077,379.513,191.879,371.373,177.123,360.172z M256,386.723c-6.409,0-16.335-9.231-24.971-35.141    c-1.538-4.616-2.948-9.519-4.23-14.655c9.511-2.185,19.301-3.311,29.201-3.311c9.9,0,19.691,1.125,29.201,3.311    c-1.282,5.137-2.692,10.04-4.23,14.655C272.335,377.492,262.409,386.723,256,386.723z M284.234,383.644    c4.53-7.097,8.634-16.077,12.24-26.893c1.596-4.791,3.059-9.866,4.397-15.165c12.129,4.445,23.597,10.689,34.007,18.587    C320.121,371.373,302.923,379.513,284.234,383.644z M347.486,349.278c-13.016-10.365-27.596-18.378-43.096-23.792    c3.521-18.723,5.582-39.579,5.994-61.315h76.078C384.4,297.411,369.864,327.325,347.486,349.278z"/>
	</g>
</g>
<g>
</g>
<g>
</g>
<g>
</g>
<g>
</g>
<g>
</g>
<g>
</g>
<g>
</g>
<g>
</g>
<g>
</g>
<g>
</g>
<g>
</g>
<g>
</g>
<g>
</g>
<g>
</g>
<g>
</g>
</svg>
