<?xml version="1.0" encoding="iso-8859-1"?>
<!-- Generator: Adobe Illustrator 19.0.0, SVG Export Plug-In . SVG Version: 6.00 Build 0)  -->
<svg xmlns="http://www.w3.org/2000/svg" xmlns:xlink="http://www.w3.org/1999/xlink" version="1.1" id="Layer_1" x="0px" y="0px" viewBox="0 0 512 512" style="enable-background:new 0 0 512 512;" xml:space="preserve">
<g>
	<g>
		<path d="M448.401,195.608c13.851,0,25.119-11.268,25.119-25.119v-51.307c0-13.851-11.268-25.119-25.119-25.119h-26.188V25.119    C422.213,11.268,410.945,0,397.094,0H63.599C49.748,0,38.48,11.268,38.48,25.119v333.5c0,4.428,3.588,8.017,8.017,8.017    c4.428,0,8.017-3.588,8.017-8.017v-333.5c0-5.01,4.076-9.086,9.086-9.086h34.739v479.933H63.599c-5.01,0-9.086-4.076-9.086-9.086    v-85.508c0-4.428-3.588-8.017-8.017-8.017c-4.428,0-8.017,3.588-8.017,8.017v85.508C38.48,500.732,49.748,512,63.599,512h333.495    c13.851,0,25.119-11.268,25.119-25.119v-68.944h26.188c13.851,0,25.119-11.268,25.119-25.119v-51.307    c0-13.851-11.268-25.119-25.119-25.119h-26.188v-9.62h26.188c13.851,0,25.119-11.268,25.119-25.119v-51.307    c0-13.851-11.268-25.119-25.119-25.119h-26.188v-9.62H448.401z M422.213,110.096h26.188c5.01,0,9.086,4.076,9.086,9.086v51.307    c0,5.01-4.076,9.086-9.086,9.086h-26.188V110.096z M406.18,486.881c0,5.01-4.076,9.086-9.086,9.086H114.372V16.033h282.722    c5.01,0,9.086,4.076,9.086,9.086V486.881z M448.401,332.426c5.01,0,9.086,4.076,9.086,9.086v51.307    c0,5.01-4.076,9.086-9.086,9.086h-26.188v-69.478H448.401z M448.401,221.261c5.01,0,9.086,4.076,9.086,9.086v51.307    c0,5.01-4.076,9.086-9.086,9.086h-26.188v-69.478H448.401z"/>
	</g>
</g>
<g>
	<g>
		<path d="M260.276,119.716c-32.711,0-59.324,26.612-59.324,59.324s26.612,59.324,59.324,59.324s59.324-26.612,59.324-59.324    S292.987,119.716,260.276,119.716z M260.276,222.33c-23.871,0-43.29-19.42-43.29-43.29s19.42-43.29,43.29-43.29    s43.29,19.42,43.29,43.29S284.146,222.33,260.276,222.33z"/>
	</g>
</g>
<g>
	<g>
		<path d="M337.236,306.772c4.428,0,8.017-3.588,8.017-8.017v-17.102c0-23.281-18.941-42.221-42.221-42.221H217.52    c-23.281,0-42.221,18.941-42.221,42.221v94.063c0,4.428,3.588,8.017,8.017,8.017h153.921c4.428,0,8.017-3.588,8.017-8.017v-42.757    c0-4.428-3.588-8.017-8.017-8.017c-4.428,0-8.017,3.588-8.017,8.017v34.74H191.332v-86.046c0-14.441,11.747-26.188,26.188-26.188    h85.511c14.441,0,26.188,11.747,26.188,26.188v17.102C329.219,303.184,332.807,306.772,337.236,306.772z"/>
	</g>
</g>
<g>
</g>
<g>
</g>
<g>
</g>
<g>
</g>
<g>
</g>
<g>
</g>
<g>
</g>
<g>
</g>
<g>
</g>
<g>
</g>
<g>
</g>
<g>
</g>
<g>
</g>
<g>
</g>
<g>
</g>
</svg>
