<?xml version="1.0" encoding="iso-8859-1"?>
<!-- Generator: Adobe Illustrator 19.0.0, SVG Export Plug-In . SVG Version: 6.00 Build 0)  -->
<svg xmlns="http://www.w3.org/2000/svg" xmlns:xlink="http://www.w3.org/1999/xlink" version="1.1" id="Layer_1" x="0px" y="0px" viewBox="0 0 512 512" style="enable-background:new 0 0 512 512;" xml:space="preserve">
<g>
	<g>
		<path d="M503.983,198.099c4.427,0,8.017-3.588,8.017-8.017V42.221C512,18.941,493.059,0,469.779,0H230.347    c-23.281,0-42.221,18.941-42.221,42.221v43.29h-68.588c-4.427,0-8.017,3.588-8.017,8.017s3.589,8.017,8.017,8.017h187.769    c14.44,0,26.188,11.747,26.188,26.188v20.813L223.175,206.61c-2.664-7.545-6.824-14.295-12.343-19.814    c-10.171-10.172-24.498-15.773-40.344-15.773c-21.184,0-42.534,9.339-54.631,27.46l-99.824-49.705v-21.045    c0-14.441,11.748-26.188,26.188-26.188H76.07c4.427,0,8.017-3.588,8.017-8.017s-3.589-8.017-8.017-8.017H42.221    C18.941,85.511,0,104.452,0,127.733v188.125c0,23.281,18.941,42.221,42.221,42.221h145.904v111.699    c0,23.281,18.941,42.221,42.221,42.221h239.432C493.059,512,512,493.059,512,469.779V230.697c0-4.428-3.589-8.017-8.017-8.017    c-4.427,0-8.017,3.588-8.017,8.017v205.411H204.159v-78.029h6.413l66.271,49.704c5.192,3.893,12.827,0.049,12.827-6.413v-43.29    h17.637c23.281,0,42.221-18.941,42.221-42.221V127.733c0-23.281-18.941-42.221-42.221-42.221H204.159V67.875h291.808v122.208    C495.967,194.511,499.556,198.099,503.983,198.099z M495.967,452.142v17.637c0,14.441-11.748,26.188-26.188,26.188H230.347    c-14.44,0-26.188-11.747-26.188-26.188v-17.637H495.967z M333.495,315.858c0,14.441-11.748,26.188-26.188,26.188h-25.653    c-4.427,0-8.017,3.588-8.017,8.017v35.273l-55.583-41.687c-1.387-1.041-3.075-1.603-4.81-1.603H42.221    c-14.44,0-26.188-11.747-26.188-26.188V166.69l92.883,46.248c-1.99,6.207-3.096,13.078-3.096,20.616    c0,42.229,33.522,61.461,64.668,61.461c4.427,0,8.017-3.588,8.017-8.017c0-4.428-3.589-8.017-8.017-8.017    c-24.208,0-48.635-14.047-48.635-45.428c0-31.947,25.211-46.497,48.635-46.497c23.975,0,40.083,16.108,40.083,40.083    c0,14.027-2.31,21.057-8.238,25.074c-4.304,2.916-10.361,4.044-15.278,4.388v-51.909c0-4.428-3.589-8.017-8.017-8.017    s-8.017,3.588-8.017,8.017v2.532c-2.82-1.285-5.882-1.998-9.086-1.998c-13.851,0-25.119,13.187-25.119,29.395    s11.268,29.395,25.119,29.395c3.203,0,6.266-0.713,9.086-1.998v2.532c0,4.099,3.092,7.538,7.169,7.972    c2.012,0.214,20.04,1.836,33.136-7.035c13.463-9.121,15.278-24.503,15.278-38.348c0-1.395-0.059-2.772-0.145-4.141l107.035-56.335    V315.858z M171.023,234.622c0,7.242-4.161,13.361-9.086,13.361s-9.086-6.119-9.086-13.361s4.161-13.361,9.086-13.361    S171.023,227.38,171.023,234.622z M204.159,51.841v-9.62c0-14.441,11.748-26.188,26.188-26.188h239.432    c14.44,0,26.188,11.747,26.188,26.188v9.62H204.159z"/>
	</g>
</g>
<g>
	<g>
		<path d="M358.614,461.762h-17.102c-4.427,0-8.017,3.588-8.017,8.017c0,4.428,3.589,8.017,8.017,8.017h17.102    c4.427,0,8.017-3.588,8.017-8.017C366.63,465.35,363.041,461.762,358.614,461.762z"/>
	</g>
</g>
<g>
	<g>
		<path d="M475.447,344.394c-3.131-3.13-8.207-3.13-11.337,0l-51.307,51.307c-4.938,4.938-1.344,13.685,5.668,13.685    c2.051,0,4.104-0.782,5.668-2.347l51.307-51.307C478.578,352.6,478.578,347.525,475.447,344.394z"/>
	</g>
</g>
<g>
	<g>
		<path d="M462.62,288.812c-3.131-3.13-8.207-3.13-11.337,0L344.394,395.701c-3.131,3.131-3.131,8.206,0,11.338    c3.089,3.088,8.249,3.088,11.337,0L462.62,300.15C465.751,297.018,465.751,291.943,462.62,288.812z"/>
	</g>
</g>
<g>
	<g>
		<path d="M469.779,128.267h-9.086V93.528c0-4.428-3.589-8.017-8.017-8.017c-4.427,0-8.017,3.588-8.017,8.017v34.739h-9.647    c0.012-0.177,0.027-0.354,0.027-0.534v-25.653c0-4.428-3.589-8.017-8.017-8.017c-4.427,0-8.017,3.588-8.017,8.017v25.653    c0,0.181,0.015,0.357,0.027,0.534h-9.647V110.63c0-4.428-3.589-8.017-8.017-8.017c-4.427,0-8.017,3.588-8.017,8.017v17.637h-9.086    c-4.427,0-8.017,3.588-8.017,8.017s3.589,8.017,8.017,8.017h85.511c4.427,0,8.017-3.588,8.017-8.017    C477.795,131.855,474.206,128.267,469.779,128.267z"/>
	</g>
</g>
<g>
</g>
<g>
</g>
<g>
</g>
<g>
</g>
<g>
</g>
<g>
</g>
<g>
</g>
<g>
</g>
<g>
</g>
<g>
</g>
<g>
</g>
<g>
</g>
<g>
</g>
<g>
</g>
<g>
</g>
</svg>
