<?xml version="1.0" encoding="iso-8859-1"?>
<!-- Generator: Adobe Illustrator 19.0.0, SVG Export Plug-In . SVG Version: 6.00 Build 0)  -->
<svg xmlns="http://www.w3.org/2000/svg" xmlns:xlink="http://www.w3.org/1999/xlink" version="1.1" id="Layer_1" x="0px" y="0px" viewBox="0 0 512 512" style="enable-background:new 0 0 512 512;" xml:space="preserve">
<g>
	<g>
		<path d="M431.438,89.351c-3.697-2.44-8.67-1.421-11.107,2.277c-2.438,3.695-1.419,8.668,2.276,11.106    c45.937,30.307,73.36,81.21,73.36,136.164c0,41.532-15.786,81.142-43.825,111.185v-50.12c0-27.651-9.549-54.54-26.893-76.012    c-7.235-44.956-46.49-78.581-92.288-78.581c-22.646,0-44.495,8.201-61.523,23.091c-16.277,14.234-27.092,33.63-30.663,54.812    c-17.409,21.246-26.995,47.948-26.995,75.483c0,13.511-3.971,26.629-11.313,37.806c-21.026-28.083-32.511-62.387-32.511-97.664    c0-89.882,73.124-163.006,163.006-163.006c19.636,0,38.829,3.451,57.046,10.258c4.147,1.548,8.766-0.557,10.315-4.703    c1.55-4.147-0.557-8.766-4.703-10.315C375.6,63.65,354.519,59.858,332.96,59.858c-87.89,0-161.191,63.659-176.219,147.288    c-0.366,0.312-0.712,0.656-1.026,1.043c-0.261,0.321-26.326,32.271-49.894,49.948c-29.656,22.243-62.157,31.204-67.618,32.601    H25.119C11.268,290.739,0,302.007,0,315.858v111.165c0,13.851,11.268,25.119,25.119,25.119h51.307    c4.427,0,8.017-3.588,8.017-8.017c0-4.428-3.589-8.017-8.017-8.017H25.119c-5.01,0-9.086-4.076-9.086-9.086V315.858    c0-5.01,4.076-9.086,9.086-9.086h14.029c0.009,0,0.016,0.002,0.025,0.002s0.016-0.001,0.025-0.001    c11.271,0.008,21.255,7.395,24.845,18.388c11.444,35.033,43.911,58.571,80.792,58.571c24.383,0,47.627-10.513,63.772-28.843    c0.002-0.002,0.004-0.004,0.006-0.006c13.67-15.525,21.198-35.456,21.198-56.128c0-24.497,8.744-48.247,24.62-66.872    c19.663-23.068,48.271-36.277,78.537-36.277c0.119,0,0.238,0.001,0.357,0.001c30.115,0.105,58.619,13.54,78.205,36.859    c15.85,18.872,24.578,42.842,24.578,67.496v127.06c0,5.01-4.076,9.086-9.086,9.086H119.182c-4.427,0-8.017,3.588-8.017,8.017    c0,4.428,3.589,8.017,8.017,8.017h307.841c13.851,0,25.119-11.268,25.119-25.119v-54.544C490.224,338.483,512,290.018,512,238.898    C512,178.539,481.883,122.633,431.438,89.351z M144.835,367.699c-29.925,0-56.269-19.096-65.552-47.517    c-2.837-8.686-8.198-15.962-15.087-21.111c14.201-5.52,33.059-14.469,51.245-28.108c13.971-10.478,28.329-25.127,38.535-36.324    c-0.033,1.415-0.055,2.834-0.055,4.257c0,39.984,13.433,78.834,37.956,110.211C179.159,360.988,162.364,367.699,144.835,367.699z     M333.381,179.574c-0.139,0-0.274-0.001-0.413-0.001c-24.223,0-47.526,7.329-67.114,20.69    c13.538-23.329,38.864-38.86,67.105-38.86c28.508,0,53.952,15.728,67.395,39.337C380.817,187.161,357.555,179.659,333.381,179.574    z"/>
	</g>
</g>
<g>
	<g>
		<path d="M332.96,239.432c-23.28,0-42.221,18.941-42.221,42.221s18.941,42.221,42.221,42.221c23.281,0,42.221-18.941,42.221-42.221    S356.241,239.432,332.96,239.432z M332.96,307.841c-14.441,0-26.188-11.747-26.188-26.188c0-14.441,11.747-26.188,26.188-26.188    c14.441,0,26.188,11.747,26.188,26.188C359.148,296.094,347.401,307.841,332.96,307.841z"/>
	</g>
</g>
<g>
	<g>
		<path d="M378.392,110.372c-14.563-5.148-29.848-7.758-45.431-7.758c-38.716,0-75.74,16.557-101.579,45.426    c-2.681,2.995-2.696,7.669-0.019,10.673c3.139,3.525,8.817,3.539,11.966,0.02c22.802-25.475,55.47-40.086,89.632-40.086    c13.758,0,27.245,2.301,40.087,6.841c4.178,1.474,8.753-0.714,10.23-4.886C384.754,116.428,382.566,111.848,378.392,110.372z"/>
	</g>
</g>
<g>
	<g>
		<path d="M441.989,157.117c-2.659-3.54-7.683-4.256-11.224-1.594c-3.54,2.658-4.253,7.683-1.594,11.224    c15.728,20.938,24.04,45.887,24.04,72.15c0,4.428,3.588,8.017,8.017,8.017c4.428,0,8.017-3.588,8.017-8.017    C469.244,209.132,459.82,180.854,441.989,157.117z"/>
	</g>
</g>
<g>
	<g>
		<path d="M211.438,196.966c-4.268-1.178-8.683,1.327-9.861,5.595c-3.253,11.778-4.901,24.005-4.901,36.337    c0,6.072,0.404,12.181,1.2,18.158c0.584,4.387,4.779,7.536,9.154,6.865c4.261-0.653,7.309-4.705,6.738-8.983    c-0.703-5.277-1.059-10.674-1.059-16.041c0-10.89,1.454-21.681,4.322-32.072C218.21,202.559,215.705,198.143,211.438,196.966z"/>
	</g>
</g>
<g>
</g>
<g>
</g>
<g>
</g>
<g>
</g>
<g>
</g>
<g>
</g>
<g>
</g>
<g>
</g>
<g>
</g>
<g>
</g>
<g>
</g>
<g>
</g>
<g>
</g>
<g>
</g>
<g>
</g>
</svg>
