<?xml version="1.0" encoding="iso-8859-1"?>
<!-- Generator: Adobe Illustrator 19.0.0, SVG Export Plug-In . SVG Version: 6.00 Build 0)  -->
<svg xmlns="http://www.w3.org/2000/svg" xmlns:xlink="http://www.w3.org/1999/xlink" version="1.1" id="Layer_1" x="0px" y="0px" viewBox="0 0 512 512" style="enable-background:new 0 0 512 512;" xml:space="preserve">
<g>
	<g>
		<path d="M486.881,171.023h-17.637v-26.188c0-13.851-11.268-25.119-25.119-25.119h-43.317c0.012-0.177,0.027-0.354,0.027-0.534    V50.772c0-11.493-9.351-20.843-20.843-20.843c-11.493,0-20.843,9.351-20.843,20.843v68.409c0,0.181,0.015,0.357,0.027,0.534    h-17.663c-13.851,0-25.119,11.268-25.119,25.119v26.188h-60.927V75.891h43.29c4.428,0,8.017-3.588,8.017-8.017V33.67    c0-18.566-15.105-33.67-33.67-33.67H110.63C92.065,0,76.96,15.105,76.96,33.67v25.653c0,4.428,3.588,8.017,8.017,8.017    c4.428,0,8.017-3.588,8.017-8.017V33.67c0-9.725,7.912-17.637,17.637-17.637h133.8c-3.269,5.249-4.998,11.459-4.998,17.637v34.205    v103.148H92.994v-68.944c0-4.428-3.588-8.017-8.017-8.017c-4.428,0-8.017,3.588-8.017,8.017v68.944H25.119    C11.268,171.023,0,182.291,0,196.142v247.983c0,13.851,11.268,25.119,25.119,25.119h85.511c4.428,0,8.017-3.588,8.017-8.017    c0-4.428-3.588-8.017-8.017-8.017H25.119c-5.01,0-9.086-4.076-9.086-9.086V196.142c0-5.01,4.076-9.086,9.086-9.086h291.273    v266.154H153.386c-4.428,0-8.017,3.588-8.017,8.017c0,4.428,3.588,8.017,8.017,8.017h163.006v17.637    c0,13.851,11.268,25.119,25.119,25.119h102.614c13.851,0,25.119-11.268,25.119-25.119v-17.637h17.637    c13.851,0,25.119-11.268,25.119-25.119V196.142C512,182.291,500.732,171.023,486.881,171.023z M255.466,33.67    c0-9.725,7.912-17.637,17.637-17.637c9.725,0,17.637,7.912,17.637,17.637v26.188h-35.273V33.67z M375.182,119.182V50.772    c0-2.652,2.158-4.81,4.81-4.81s4.81,2.158,4.81,4.81v68.409c0,0.181,0.015,0.357,0.027,0.534h-9.673    C375.167,119.539,375.182,119.362,375.182,119.182z M495.967,444.125c0,5.01-4.076,9.086-9.086,9.086h-17.637V401.37    c0-4.428-3.588-8.017-8.017-8.017c-4.428,0-8.017,3.588-8.017,8.017v85.512c0,5.01-4.076,9.086-9.086,9.086H341.511    c-5.01,0-9.086-4.076-9.086-9.086V144.835c0-5.01,4.076-9.086,9.086-9.086h102.614c5.01,0,9.086,4.076,9.086,9.086v213.779    c0,4.428,3.588,8.017,8.017,8.017c4.428,0,8.017-3.588,8.017-8.017V187.056h17.637c5.01,0,9.086,4.076,9.086,9.086V444.125z"/>
	</g>
</g>
<g>
	<g>
		<path d="M247.449,205.228H84.977c-4.428,0-8.017,3.588-8.017,8.017v34.205c0,4.428,3.588,8.017,8.017,8.017h162.472    c4.428,0,8.017-3.588,8.017-8.017v-34.205C255.466,208.816,251.877,205.228,247.449,205.228z M239.432,239.432H92.994v-18.171    h146.438V239.432z"/>
	</g>
</g>
<g>
	<g>
		<path d="M110.63,273.637H84.977c-4.428,0-8.017,3.588-8.017,8.017v25.653c0,4.428,3.588,8.017,8.017,8.017h25.653    c4.428,0,8.017-3.588,8.017-8.017v-25.653C118.647,277.225,115.059,273.637,110.63,273.637z M102.614,299.29h-9.62v-9.62h9.62    V299.29z"/>
	</g>
</g>
<g>
	<g>
		<path d="M179.04,273.637h-25.653c-4.428,0-8.017,3.588-8.017,8.017v25.653c0,4.428,3.588,8.017,8.017,8.017h25.653    c4.428,0,8.017-3.588,8.017-8.017v-25.653C187.056,277.225,183.468,273.637,179.04,273.637z M171.023,299.29h-9.62v-9.62h9.62    V299.29z"/>
	</g>
</g>
<g>
	<g>
		<path d="M247.449,273.637h-25.653c-4.428,0-8.017,3.588-8.017,8.017v25.653c0,4.428,3.588,8.017,8.017,8.017h25.653    c4.428,0,8.017-3.588,8.017-8.017v-25.653C255.466,277.225,251.877,273.637,247.449,273.637z M239.432,299.29h-9.62v-9.62h9.62    V299.29z"/>
	</g>
</g>
<g>
	<g>
		<path d="M110.63,333.495H84.977c-4.428,0-8.017,3.588-8.017,8.017v25.653c0,4.428,3.588,8.017,8.017,8.017h25.653    c4.428,0,8.017-3.588,8.017-8.017v-25.653C118.647,337.083,115.059,333.495,110.63,333.495z M102.614,359.148h-9.62v-9.62h9.62    V359.148z"/>
	</g>
</g>
<g>
	<g>
		<path d="M179.04,333.495h-25.653c-4.428,0-8.017,3.588-8.017,8.017v25.653c0,4.428,3.588,8.017,8.017,8.017h25.653    c4.428,0,8.017-3.588,8.017-8.017v-25.653C187.056,337.083,183.468,333.495,179.04,333.495z M171.023,359.148h-9.62v-9.62h9.62    V359.148z"/>
	</g>
</g>
<g>
	<g>
		<path d="M247.449,333.495h-25.653c-4.428,0-8.017,3.588-8.017,8.017v25.653c0,4.428,3.588,8.017,8.017,8.017h25.653    c4.428,0,8.017-3.588,8.017-8.017v-25.653C255.466,337.083,251.877,333.495,247.449,333.495z M239.432,359.148h-9.62v-9.62h9.62    V359.148z"/>
	</g>
</g>
<g>
	<g>
		<path d="M110.63,393.353H84.977c-4.428,0-8.017,3.588-8.017,8.017v25.653c0,4.428,3.588,8.017,8.017,8.017h25.653    c4.428,0,8.017-3.588,8.017-8.017V401.37C118.647,396.941,115.059,393.353,110.63,393.353z M102.614,419.006h-9.62v-9.62h9.62    V419.006z"/>
	</g>
</g>
<g>
	<g>
		<path d="M179.04,393.353h-25.653c-4.428,0-8.017,3.588-8.017,8.017v25.653c0,4.428,3.588,8.017,8.017,8.017h25.653    c4.428,0,8.017-3.588,8.017-8.017V401.37C187.056,396.941,183.468,393.353,179.04,393.353z M171.023,419.006h-9.62v-9.62h9.62    V419.006z"/>
	</g>
</g>
<g>
	<g>
		<path d="M247.449,393.353h-25.653c-4.428,0-8.017,3.588-8.017,8.017v25.653c0,4.428,3.588,8.017,8.017,8.017h25.653    c4.428,0,8.017-3.588,8.017-8.017V401.37C255.466,396.941,251.877,393.353,247.449,393.353z M239.432,419.006h-9.62v-9.62h9.62    V419.006z"/>
	</g>
</g>
<g>
	<g>
		<path d="M204.693,59.858h-76.96c-4.428,0-8.017,3.588-8.017,8.017c0,4.428,3.588,8.017,8.017,8.017h76.96    c4.428,0,8.017-3.588,8.017-8.017C212.71,63.446,209.122,59.858,204.693,59.858z"/>
	</g>
</g>
<g>
	<g>
		<path d="M204.693,94.063h-76.96c-4.428,0-8.017,3.588-8.017,8.017s3.588,8.017,8.017,8.017h76.96c4.428,0,8.017-3.588,8.017-8.017    S209.122,94.063,204.693,94.063z"/>
	</g>
</g>
<g>
	<g>
		<path d="M204.693,128.267h-76.96c-4.428,0-8.017,3.588-8.017,8.017s3.588,8.017,8.017,8.017h76.96    c4.428,0,8.017-3.588,8.017-8.017C212.71,131.855,209.122,128.267,204.693,128.267z"/>
	</g>
</g>
<g>
</g>
<g>
</g>
<g>
</g>
<g>
</g>
<g>
</g>
<g>
</g>
<g>
</g>
<g>
</g>
<g>
</g>
<g>
</g>
<g>
</g>
<g>
</g>
<g>
</g>
<g>
</g>
<g>
</g>
</svg>
