<?xml version="1.0" encoding="iso-8859-1"?>
<!-- Generator: Adobe Illustrator 19.0.0, SVG Export Plug-In . SVG Version: 6.00 Build 0)  -->
<svg xmlns="http://www.w3.org/2000/svg" xmlns:xlink="http://www.w3.org/1999/xlink" version="1.1" id="Layer_1" x="0px" y="0px" viewBox="0 0 512 512" style="enable-background:new 0 0 512 512;" xml:space="preserve">
<g>
	<g>
		<path d="M461.228,222.33H264.017v-17.637c0-14.441,11.747-26.188,26.188-26.188h68.409c23.281,0,42.221-18.941,42.221-42.221    s-18.941-42.221-42.221-42.221H221.795c-14.44,0-26.188-11.747-26.188-26.188V8.017c0-4.428-3.589-8.017-8.017-8.017    s-8.017,3.588-8.017,8.017v59.858c0,23.28,18.941,42.221,42.221,42.221h136.818c14.441,0,26.188,11.747,26.188,26.188    s-11.747,26.188-26.188,26.188h-68.409c-23.281,0-42.221,18.941-42.221,42.221v17.637H50.772    c-13.851,0-25.119,11.268-25.119,25.119v171.023c0,4.428,3.589,8.017,8.017,8.017c4.427,0,8.017-3.588,8.017-8.017V289.67h342.58    c4.428,0,8.017-3.588,8.017-8.017c0-4.428-3.588-8.017-8.017-8.017H41.687v-26.188c0-5.01,4.076-9.086,9.086-9.086h410.455    c5.01,0,9.086,4.076,9.086,9.086v26.188h-43.29c-4.428,0-8.017,3.588-8.017,8.017c0,4.428,3.588,8.017,8.017,8.017h43.29v197.211    c0,5.01-4.076,9.086-9.086,9.086H50.772c-5.01,0-9.086-4.076-9.086-9.086v-25.654c0-4.428-3.589-8.017-8.017-8.017    c-4.427,0-8.017,3.588-8.017,8.017v25.654c0,13.851,11.268,25.119,25.119,25.119h410.455c13.851,0,25.119-11.268,25.119-25.119    V247.449C486.347,233.598,475.078,222.33,461.228,222.33z"/>
	</g>
</g>
<g>
	<g>
		<path d="M102.079,299.29H67.875c-4.427,0-8.017,3.588-8.017,8.017v34.205c0,4.428,3.589,8.017,8.017,8.017h34.205    c4.427,0,8.017-3.588,8.017-8.017v-34.205C110.096,302.878,106.507,299.29,102.079,299.29z M94.063,333.495H75.891v-18.171h18.171    V333.495z"/>
	</g>
</g>
<g>
	<g>
		<path d="M170.489,299.29h-34.205c-4.427,0-8.017,3.588-8.017,8.017v34.205c0,4.428,3.589,8.017,8.017,8.017h34.205    c4.427,0,8.017-3.588,8.017-8.017v-34.205C178.505,302.878,174.916,299.29,170.489,299.29z M162.472,333.495h-18.171v-18.171    h18.171V333.495z"/>
	</g>
</g>
<g>
	<g>
		<path d="M238.898,299.29h-34.205c-4.427,0-8.017,3.588-8.017,8.017v34.205c0,4.428,3.589,8.017,8.017,8.017h34.205    c4.427,0,8.017-3.588,8.017-8.017v-34.205C246.914,302.878,243.325,299.29,238.898,299.29z M230.881,333.495H212.71v-18.171    h18.171V333.495z"/>
	</g>
</g>
<g>
	<g>
		<path d="M307.307,299.29h-34.205c-4.428,0-8.017,3.588-8.017,8.017v34.205c0,4.428,3.588,8.017,8.017,8.017h34.205    c4.428,0,8.017-3.588,8.017-8.017v-34.205C315.324,302.878,311.735,299.29,307.307,299.29z M299.29,333.495h-18.171v-18.171    h18.171V333.495z"/>
	</g>
</g>
<g>
	<g>
		<path d="M375.716,299.29h-34.205c-4.428,0-8.017,3.588-8.017,8.017v34.205c0,4.428,3.588,8.017,8.017,8.017h34.205    c4.428,0,8.017-3.588,8.017-8.017v-34.205C383.733,302.878,380.145,299.29,375.716,299.29z M367.699,333.495h-18.171v-18.171    h18.171V333.495z"/>
	</g>
</g>
<g>
	<g>
		<path d="M102.079,367.699H67.875c-4.427,0-8.017,3.588-8.017,8.017v34.205c0,4.428,3.589,8.017,8.017,8.017h34.205    c4.427,0,8.017-3.588,8.017-8.017v-34.205C110.096,371.288,106.507,367.699,102.079,367.699z M94.063,401.904H75.891v-18.171    h18.171V401.904z"/>
	</g>
</g>
<g>
	<g>
		<path d="M170.489,436.109h-34.205c-4.427,0-8.017,3.588-8.017,8.017v34.205c0,4.428,3.589,8.017,8.017,8.017h34.205    c4.427,0,8.017-3.588,8.017-8.017v-34.205C178.505,439.697,174.916,436.109,170.489,436.109z M162.472,470.313h-18.171v-18.171    h18.171V470.313z"/>
	</g>
</g>
<g>
	<g>
		<path d="M375.716,436.109h-34.205c-4.428,0-8.017,3.588-8.017,8.017v34.205c0,4.428,3.588,8.017,8.017,8.017h34.205    c4.428,0,8.017-3.588,8.017-8.017v-34.205C383.733,439.697,380.145,436.109,375.716,436.109z M367.699,470.313h-18.171v-18.171    h18.171V470.313z"/>
	</g>
</g>
<g>
	<g>
		<path d="M170.489,367.699h-34.205c-4.427,0-8.017,3.588-8.017,8.017v34.205c0,4.428,3.589,8.017,8.017,8.017h34.205    c4.427,0,8.017-3.588,8.017-8.017v-34.205C178.505,371.288,174.916,367.699,170.489,367.699z M162.472,401.904h-18.171v-18.171    h18.171V401.904z"/>
	</g>
</g>
<g>
	<g>
		<path d="M238.898,367.699h-34.205c-4.427,0-8.017,3.588-8.017,8.017v34.205c0,4.428,3.589,8.017,8.017,8.017h34.205    c4.427,0,8.017-3.588,8.017-8.017v-34.205C246.914,371.288,243.325,367.699,238.898,367.699z M230.881,401.904H212.71v-18.171    h18.171V401.904z"/>
	</g>
</g>
<g>
	<g>
		<path d="M307.307,367.699h-34.205c-4.428,0-8.017,3.588-8.017,8.017v34.205c0,4.428,3.588,8.017,8.017,8.017h34.205    c4.428,0,8.017-3.588,8.017-8.017v-34.205C315.324,371.288,311.735,367.699,307.307,367.699z M299.29,401.904h-18.171v-18.171    h18.171V401.904z"/>
	</g>
</g>
<g>
	<g>
		<path d="M444.125,299.29h-34.205c-4.428,0-8.017,3.588-8.017,8.017v60.393h-60.393c-4.428,0-8.017,3.588-8.017,8.017v34.205    c0,4.428,3.588,8.017,8.017,8.017h102.614c4.428,0,8.017-3.588,8.017-8.017V307.307    C452.142,302.878,448.554,299.29,444.125,299.29z M436.109,401.904h-86.58v-18.171h60.392c4.428,0,8.017-3.588,8.017-8.017    v-60.392h18.171V401.904z"/>
	</g>
</g>
<g>
	<g>
		<path d="M307.307,436.109H204.693c-4.427,0-8.017,3.588-8.017,8.017v34.205c0,4.428,3.589,8.017,8.017,8.017h102.614    c4.428,0,8.017-3.588,8.017-8.017v-34.205C315.324,439.697,311.735,436.109,307.307,436.109z M299.29,470.313h-86.58v-18.171    h86.58V470.313z"/>
	</g>
</g>
<g>
	<g>
		<path d="M187.591,247.983h-17.102c-4.427,0-8.017,3.588-8.017,8.017c0,4.428,3.589,8.017,8.017,8.017h17.102    c4.427,0,8.017-3.588,8.017-8.017C195.608,251.572,192.018,247.983,187.591,247.983z"/>
	</g>
</g>
<g>
	<g>
		<path d="M238.898,247.983h-17.102c-4.427,0-8.017,3.588-8.017,8.017c0,4.428,3.589,8.017,8.017,8.017h17.102    c4.427,0,8.017-3.588,8.017-8.017C246.914,251.572,243.325,247.983,238.898,247.983z"/>
	</g>
</g>
<g>
	<g>
		<path d="M290.205,247.983h-17.102c-4.428,0-8.017,3.588-8.017,8.017c0,4.428,3.588,8.017,8.017,8.017h17.102    c4.428,0,8.017-3.588,8.017-8.017C298.221,251.572,294.633,247.983,290.205,247.983z"/>
	</g>
</g>
<g>
	<g>
		<path d="M341.511,247.983h-17.102c-4.428,0-8.017,3.588-8.017,8.017c0,4.428,3.588,8.017,8.017,8.017h17.102    c4.428,0,8.017-3.588,8.017-8.017C349.528,251.572,345.94,247.983,341.511,247.983z"/>
	</g>
</g>
<g>
</g>
<g>
</g>
<g>
</g>
<g>
</g>
<g>
</g>
<g>
</g>
<g>
</g>
<g>
</g>
<g>
</g>
<g>
</g>
<g>
</g>
<g>
</g>
<g>
</g>
<g>
</g>
<g>
</g>
</svg>
