<?xml version="1.0" encoding="iso-8859-1"?>
<!-- Generator: Adobe Illustrator 19.0.0, SVG Export Plug-In . SVG Version: 6.00 Build 0)  -->
<svg xmlns="http://www.w3.org/2000/svg" xmlns:xlink="http://www.w3.org/1999/xlink" version="1.1" id="Layer_1" x="0px" y="0px" viewBox="0 0 512 512" style="enable-background:new 0 0 512 512;" xml:space="preserve">
<g>
	<g>
		<path d="M298.756,153.921h-9.086v-26.188c0-14.441,11.748-26.188,26.188-26.188h34.205c23.281,0,42.221-18.941,42.221-42.221    V8.017c0-4.428-3.589-8.017-8.017-8.017c-4.427,0-8.017,3.588-8.017,8.017v51.307c0,14.441-11.748,26.188-26.188,26.188h-34.205    c-23.281,0-42.221,18.941-42.221,42.221v26.188h-9.086c-61.002,0-110.63,49.629-110.63,110.63v94.063    c0,4.428,3.589,8.017,8.017,8.017s8.017-3.588,8.017-8.017v-51.841h154.455c4.427,0,8.017-3.588,8.017-8.017    c0-4.428-3.589-8.017-8.017-8.017H289.67v-19.49c9.93-3.354,17.102-12.752,17.102-23.8v-34.205c0-11.048-7.172-20.446-17.102-23.8    v-19.49h9.086c52.161,0,94.597,42.436,94.597,94.597v26.188h-26.188c-4.427,0-8.017,3.588-8.017,8.017    c0,4.428,3.589,8.017,8.017,8.017h26.188v128.802c0,33.3-27.092,60.393-60.393,60.393H230.347    c-33.3,0-60.392-27.092-60.392-60.393V401.37c0-4.428-3.589-8.017-8.017-8.017s-8.017,3.588-8.017,8.017v34.205    c0,42.141,34.285,76.426,76.426,76.426H332.96c42.141,0,76.426-34.285,76.426-76.426V264.551    C409.386,203.549,359.758,153.921,298.756,153.921z M273.637,290.739H169.954v-26.188c0-52.161,42.436-94.597,94.597-94.597h9.086    v19.49c-9.93,3.354-17.102,12.752-17.102,23.8v34.205c0,11.048,7.172,20.446,17.102,23.8V290.739z M290.739,213.244v34.205    c0,5.01-4.076,9.086-9.086,9.086c-5.01,0-9.086-4.076-9.086-9.086v-34.205c0-5.01,4.076-9.086,9.086-9.086    C286.663,204.159,290.739,208.234,290.739,213.244z"/>
	</g>
</g>
<g>
	<g>
		<path d="M150.503,130.613l-17.102-17.101c-3.131-3.13-8.207-3.13-11.337,0c-3.131,3.132-3.131,8.207,0,11.338l17.102,17.102    c3.26,3.259,8.766,3.041,11.763-0.461C153.617,138.353,153.423,133.533,150.503,130.613z"/>
	</g>
</g>
<g>
	<g>
		<path d="M179.04,94.063c-4.427,0-8.017,3.588-8.017,8.017v25.653c0,4.428,3.589,8.017,8.017,8.017s8.017-3.588,8.017-8.017    v-25.653C187.056,97.651,183.467,94.063,179.04,94.063z"/>
	</g>
</g>
<g>
	<g>
		<path d="M136.284,162.472H110.63c-4.427,0-8.017,3.588-8.017,8.017s3.589,8.017,8.017,8.017h25.653    c4.427,0,8.017-3.588,8.017-8.017S140.711,162.472,136.284,162.472z"/>
	</g>
</g>
<g>
</g>
<g>
</g>
<g>
</g>
<g>
</g>
<g>
</g>
<g>
</g>
<g>
</g>
<g>
</g>
<g>
</g>
<g>
</g>
<g>
</g>
<g>
</g>
<g>
</g>
<g>
</g>
<g>
</g>
</svg>
