<?xml version="1.0" encoding="iso-8859-1"?>
<!-- Generator: Adobe Illustrator 19.0.0, SVG Export Plug-In . SVG Version: 6.00 Build 0)  -->
<svg xmlns="http://www.w3.org/2000/svg" xmlns:xlink="http://www.w3.org/1999/xlink" version="1.1" id="Layer_1" x="0px" y="0px" viewBox="0 0 512 512" style="enable-background:new 0 0 512 512;" xml:space="preserve">
<g>
	<g>
		<path d="M504,4.8H127.467c-4.418,0-8,3.581-8,8v68.267c0,4.419,3.582,8,8,8s8-3.581,8-8V20.8h231.467v146.133H135.467v-43.2    c0-4.419-3.582-8-8-8s-8,3.581-8,8v154.133H42.133c-4.418,0-8,3.581-8,8v68.8H8c-4.418,0-8,3.581-8,8V473.6c0,4.419,3.582,8,8,8    h111.467v17.6c0,4.419,3.582,8,8,8H504c4.418,0,8-3.581,8-8V12.8C512,8.381,508.418,4.8,504,4.8z M135.467,182.933h231.467    v146.133h-35.2v-9.6h17.6c4.418,0,8-3.581,8-8V200.533c0-4.419-3.582-8-8-8H153.067c-4.418,0-8,3.581-8,8v77.333h-9.6V182.933z     M275.378,291.022h40.355v89.245h-26.667v-51.733c0-4.419-3.582-8-8-8h-94.4v-77.867h80.711v40.355    C267.378,287.441,270.96,291.022,275.378,291.022z M283.378,275.022V253.98l21.042,21.042H283.378z M273.067,336.533v43.733h-60.8    v-17.6c0-4.419-3.582-8-8-8H92.8v-18.133H273.067z M212.267,396.267h129.067V465.6H212.267V396.267z M329.39,277.364    l-48.355-48.355c-1.483-1.483-3.561-2.342-5.657-2.342h-96.711c-4.418,0-8,3.581-8,8v43.2h-9.6v-69.333h180.267v94.933h-9.6    v-20.445c0-0.09-0.011-0.179-0.014-0.269C331.65,280.743,330.815,278.789,329.39,277.364z M50.133,293.867h120.533v26.667H84.8    c-4.418,0-8,3.581-8,8v26.133H50.133V293.867z M16,465.6v-94.933h180.267V465.6H16z M496,491.2H382.933v-68.8c0-4.419-3.582-8-8-8    s-8,3.581-8,8v68.8H135.467v-9.6h213.867c4.418,0,8-3.581,8-8v-85.333c0-4.419-3.582-8-8-8h-17.6v-35.2h35.2v34.667    c0,4.419,3.582,8,8,8s8-3.581,8-8V20.8H496V491.2z"/>
	</g>
</g>
<g>
	<g>
		<path d="M349.333,30.4H153.067c-4.418,0-8,3.581-8,8v110.933c0,4.419,3.582,8,8,8h196.267c4.418,0,8-3.581,8-8V38.4    C357.333,33.981,353.751,30.4,349.333,30.4z M341.333,141.333H161.067V46.4h180.267V141.333z"/>
	</g>
</g>
<g>
	<g>
		<path d="M136,380.267H76.267c-4.418,0-8,3.581-8,8V422.4c0,4.419,3.582,8,8,8H136c4.418,0,8-3.581,8-8v-34.133    C144,383.847,140.418,380.267,136,380.267z M128,414.4H84.267v-18.133H128V414.4z"/>
	</g>
</g>
<g>
	<g>
		<path d="M281.067,56h-59.733c-4.418,0-8,3.581-8,8v34.133c0,4.419,3.582,8,8,8h59.733c4.418,0,8-3.581,8-8V64    C289.067,59.581,285.485,56,281.067,56z M273.067,90.133h-43.733V72h43.733V90.133z"/>
	</g>
</g>
<g>
	<g>
		<path d="M238.4,260.8h-25.6c-4.418,0-8,3.581-8,8c0,4.419,3.582,8,8,8h25.6c4.418,0,8-3.581,8-8    C246.4,264.381,242.818,260.8,238.4,260.8z"/>
	</g>
</g>
<g>
	<g>
		<path d="M255.467,286.4h-25.6c-4.418,0-8,3.581-8,8s3.582,8,8,8h25.6c4.418,0,8-3.581,8-8S259.885,286.4,255.467,286.4z"/>
	</g>
</g>
<g>
	<g>
		<path d="M272.533,115.733h-42.667c-4.418,0-8,3.581-8,8s3.582,8,8,8h42.667c4.418,0,8-3.581,8-8S276.951,115.733,272.533,115.733z    "/>
	</g>
</g>
<g>
	<g>
		<path d="M136,440H76.267c-4.418,0-8,3.581-8,8c0,4.419,3.582,8,8,8H136c4.418,0,8-3.581,8-8C144,443.581,140.418,440,136,440z"/>
	</g>
</g>
<g>
</g>
<g>
</g>
<g>
</g>
<g>
</g>
<g>
</g>
<g>
</g>
<g>
</g>
<g>
</g>
<g>
</g>
<g>
</g>
<g>
</g>
<g>
</g>
<g>
</g>
<g>
</g>
<g>
</g>
</svg>
