<?xml version="1.0" encoding="iso-8859-1"?>
<!-- Generator: Adobe Illustrator 19.0.0, SVG Export Plug-In . SVG Version: 6.00 Build 0)  -->
<svg xmlns="http://www.w3.org/2000/svg" xmlns:xlink="http://www.w3.org/1999/xlink" version="1.1" id="Layer_1" x="0px" y="0px" viewBox="0 0 512 512" style="enable-background:new 0 0 512 512;" xml:space="preserve">
<g>
	<g>
		<path d="M496.611,443.938l-171.05-160.685c21.298-30.22,32.518-65.64,32.518-102.898c0-52.376-22.839-101.968-62.661-136.059    c-3.363-2.879-8.425-2.487-11.304,0.875c-2.88,3.364-2.486,8.425,0.876,11.304c36.258,31.043,57.054,76.195,57.054,123.88    c0,36.138-11.589,70.373-33.515,99.004c0,0.001-0.001,0.001-0.001,0.001c-0.004,0.005-0.009,0.01-0.012,0.015    c-10.158,13.26-22.226,24.846-35.87,34.434c-0.001,0.001-0.002,0.001-0.003,0.002c-27.507,19.331-59.875,29.55-93.605,29.55    c-89.882,0-163.006-73.124-163.006-163.006S89.157,17.349,179.04,17.349c24.94,0,48.874,5.482,71.133,16.295    c3.983,1.934,8.779,0.274,10.714-3.708c1.935-3.982,0.275-8.779-3.708-10.714C232.717,7.341,206.428,1.316,179.04,1.316    C80.317,1.316,0,81.633,0,180.355s80.317,179.04,179.04,179.04c34.709,0,68.11-9.854,97.042-28.565l42.485,45.226    c3.191,3.397,8.784,3.307,11.863-0.195c2.694-3.063,2.619-7.807-0.176-10.782l-41.011-43.657    c9.663-7.556,18.516-16.07,26.45-25.442l169.942,159.644c3.691,3.463,3.783,9.467,0.204,13.045l-23.418,23.418    c-3.582,3.582-9.578,3.488-13.047-0.202l-88.95-94.689c-3.031-3.228-8.105-3.385-11.332-0.355    c-3.227,3.032-3.385,8.105-0.354,11.332l88.95,94.689c9.58,10.2,26.173,10.46,36.07,0.563l23.418-23.418    C507.072,470.109,506.813,453.521,496.611,443.938z"/>
	</g>
</g>
<g>
	<g>
		<path d="M179.04,44.071c-75.148,0-136.284,61.136-136.284,136.284s61.136,136.284,136.284,136.284s136.284-61.136,136.284-136.284    S254.187,44.071,179.04,44.071z M179.04,300.606c-66.307,0-120.251-53.945-120.251-120.251s53.944-120.25,120.251-120.25    S299.29,114.05,299.29,180.355S245.346,300.606,179.04,300.606z"/>
	</g>
</g>
<g>
	<g>
		<path d="M179.04,86.827c-51.572,0-93.528,41.956-93.528,93.528s41.956,93.528,93.528,93.528s93.528-41.956,93.528-93.528    S230.612,86.827,179.04,86.827z M171.023,180.355v77.083c-38.977-4.025-69.478-37.06-69.478-77.083    c0-42.731,34.764-77.495,77.495-77.495c40.024,0,73.058,30.501,77.083,69.478H179.04    C174.612,172.339,171.023,175.927,171.023,180.355z M187.056,257.439v-69.067h69.067    C252.37,224.713,223.398,253.685,187.056,257.439z"/>
	</g>
</g>
<g>
	<g>
		<path d="M196.142,369.015c-4.427,0-8.017,3.588-8.017,8.017v26.188H42.221c-4.427,0-8.017,3.588-8.017,8.017    c0,4.428,3.589,8.017,8.017,8.017h153.921c4.427,0,8.017-3.588,8.017-8.017v-34.205    C204.159,372.603,200.569,369.015,196.142,369.015z"/>
	</g>
</g>
<g>
	<g>
		<path d="M196.142,437.424H179.04c-4.427,0-8.017,3.588-8.017,8.017c0,4.428,3.589,8.017,8.017,8.017h17.102    c4.427,0,8.017-3.588,8.017-8.017C204.159,441.013,200.569,437.424,196.142,437.424z"/>
	</g>
</g>
<g>
	<g>
		<path d="M144.835,437.424H42.221c-4.427,0-8.017,3.588-8.017,8.017c0,4.428,3.589,8.017,8.017,8.017h102.614    c4.427,0,8.017-3.588,8.017-8.017C152.852,441.013,149.262,437.424,144.835,437.424z"/>
	</g>
</g>
<g>
	<g>
		<path d="M144.835,471.629H42.221c-4.427,0-8.017,3.588-8.017,8.017c0,4.428,3.589,8.017,8.017,8.017h102.614    c4.427,0,8.017-3.588,8.017-8.017C152.852,475.217,149.262,471.629,144.835,471.629z"/>
	</g>
</g>
<g>
	<g>
		<path d="M503.983,103.929H375.716c-4.427,0-8.017,3.588-8.017,8.017v34.205c0,4.428,3.589,8.017,8.017,8.017    c4.427,0,8.017-3.588,8.017-8.017v-26.188h120.251c4.427,0,8.017-3.588,8.017-8.017S508.411,103.929,503.983,103.929z"/>
	</g>
</g>
<g>
	<g>
		<path d="M392.818,69.725h-17.102c-4.427,0-8.017,3.588-8.017,8.017s3.589,8.017,8.017,8.017h17.102    c4.427,0,8.017-3.588,8.017-8.017S397.246,69.725,392.818,69.725z"/>
	</g>
</g>
<g>
	<g>
		<path d="M503.983,69.725h-76.96c-4.427,0-8.017,3.588-8.017,8.017s3.589,8.017,8.017,8.017h76.96c4.427,0,8.017-3.588,8.017-8.017    S508.411,69.725,503.983,69.725z"/>
	</g>
</g>
<g>
	<g>
		<path d="M503.983,35.52h-76.96c-4.427,0-8.017,3.588-8.017,8.017s3.589,8.017,8.017,8.017h76.96c4.427,0,8.017-3.588,8.017-8.017    S508.411,35.52,503.983,35.52z"/>
	</g>
</g>
<g>
</g>
<g>
</g>
<g>
</g>
<g>
</g>
<g>
</g>
<g>
</g>
<g>
</g>
<g>
</g>
<g>
</g>
<g>
</g>
<g>
</g>
<g>
</g>
<g>
</g>
<g>
</g>
<g>
</g>
</svg>
