<?xml version="1.0" encoding="iso-8859-1"?>
<!-- Generator: Adobe Illustrator 19.0.0, SVG Export Plug-In . SVG Version: 6.00 Build 0)  -->
<svg xmlns="http://www.w3.org/2000/svg" xmlns:xlink="http://www.w3.org/1999/xlink" version="1.1" id="Layer_1" x="0px" y="0px" viewBox="0 0 512 512" style="enable-background:new 0 0 512 512;" xml:space="preserve">
<g>
	<g>
		<path d="M486.519,81.586L426.95,22.017c-29.357-29.356-77.124-29.356-106.481,0L216.732,125.754c-3.084,3.085-3.084,8.085,0,11.17    c3.084,3.083,8.085,3.083,11.169,0L331.637,33.187c23.199-23.199,60.946-23.199,84.142,0l59.569,59.569    c16.629,16.628,16.629,43.685,0,60.313L374.08,254.339c-3.49,3.489-9.169,3.491-12.659,0l-11.913-11.913    c-3.084-3.083-8.085-3.083-11.169,0l-62.735,62.734l-105.841-15.12c-4.571-0.652-7.94-4.776-7.669-9.386l4.87-82.795    l28.931-28.932c3.084-3.085,3.084-8.085,0-11.17c-3.084-3.083-8.085-3.083-11.169,0l-31.055,31.055    c-1.368,1.369-2.186,3.19-2.3,5.121l-1.313,22.32L10.704,355.609c-2.116,2.116-2.854,5.244-1.908,8.083L56.451,506.66    c1.82,5.468,9.014,7.156,13.077,3.088l190.811-190.81l16.939,2.42c2.439,0.35,4.96-0.493,6.702-2.234l59.942-59.942l6.329,6.33    c9.65,9.649,25.35,9.648,34.997,0l101.269-101.269C509.306,141.453,509.306,104.375,486.519,81.586z M67.396,489.54l-6.329-18.988    l91.014-91.013c3.084-3.085,3.084-8.085,0-11.17c-3.083-3.083-8.084-3.083-11.169,0l-85.429,85.428l-30.157-90.47l123.338-123.339    l-2.338,39.737c-0.749,12.747,8.566,24.148,21.204,25.952l31.564,4.51l-32.909,32.908c-2.876,2.876-3.067,7.625-0.42,10.717    c2.953,3.449,8.377,3.665,11.589,0.454l41.286-41.286l22.152,3.164L67.396,489.54z"/>
	</g>
</g>
<g>
	<g>
		<path d="M415.034,81.587l-23.828-23.829c-9.648-9.648-25.349-9.647-34.997,0l-37.024,37.027    c-3.378-1.681-7.121-2.575-11.003-2.575c-6.61,0-12.825,2.574-17.499,7.248l-47.656,47.656c-7.426,7.426-9.36,19.083-4.674,28.501    l-35.35,35.35c-1.368,1.368-2.186,3.19-2.3,5.121l-2.098,35.654c-0.241,4.101,2.701,7.702,6.768,8.282l54.036,7.719    c2.439,0.35,4.96-0.493,6.702-2.234l31.068-31.068c9.42,4.685,21.076,2.753,28.502-4.673l47.655-47.656    c4.673-4.673,7.248-10.889,7.248-17.499c0-3.883-0.894-7.625-2.575-11.002l37.026-37.024    C424.683,106.937,424.683,91.237,415.034,81.587z M257.733,251.547l-42.932-6.132l1.494-25.403l32.316-32.316l36.486,36.486    L257.733,251.547z M362.166,170.942l-47.656,47.657c-3.448,3.448-9.206,3.45-12.656,0.002c-0.001-0.001-0.002-0.002-0.003-0.003    l-47.656-47.656c-3.449-3.45-3.449-9.208,0.001-12.658l47.656-47.657c3.448-3.449,9.206-3.449,12.656-0.002    c0.001,0.001,0.002,0.002,0.003,0.003l47.655,47.656C365.615,161.734,365.615,167.492,362.166,170.942z M403.865,105.416    L367.75,141.53l-36.485-36.487l36.114-36.114c3.442-3.442,9.216-3.442,12.659,0l23.828,23.829    C407.354,96.246,407.354,101.926,403.865,105.416z"/>
	</g>
</g>
<g>
	<g>
		<path d="M313.765,194.77l-35.742-35.742c-3.084-3.083-8.085-3.083-11.169,0c-3.084,3.085-3.084,8.085,0,11.17l35.742,35.742    c1.542,1.542,3.564,2.313,5.584,2.313c2.021,0,4.043-0.771,5.584-2.313C316.849,202.855,316.849,197.855,313.765,194.77z"/>
	</g>
</g>
<g>
	<g>
		<path d="M331.636,176.899l-35.742-35.742c-3.084-3.083-8.085-3.083-11.169,0c-3.084,3.085-3.084,8.085,0,11.17l35.742,35.742    c1.542,1.542,3.564,2.313,5.584,2.313s4.043-0.771,5.584-2.313C334.721,184.983,334.721,179.983,331.636,176.899z"/>
	</g>
</g>
<g>
	<g>
		<path d="M349.508,159.028l-35.742-35.742c-3.084-3.083-8.085-3.083-11.169,0c-3.084,3.085-3.084,8.085,0,11.17l35.742,35.742    c1.542,1.542,3.564,2.313,5.584,2.313c2.021,0,4.043-0.771,5.584-2.313C352.592,167.113,352.592,162.113,349.508,159.028z"/>
	</g>
</g>
<g>
</g>
<g>
</g>
<g>
</g>
<g>
</g>
<g>
</g>
<g>
</g>
<g>
</g>
<g>
</g>
<g>
</g>
<g>
</g>
<g>
</g>
<g>
</g>
<g>
</g>
<g>
</g>
<g>
</g>
</svg>
