<?xml version="1.0" encoding="iso-8859-1"?>
<!-- Generator: Adobe Illustrator 19.0.0, SVG Export Plug-In . SVG Version: 6.00 Build 0)  -->
<svg xmlns="http://www.w3.org/2000/svg" xmlns:xlink="http://www.w3.org/1999/xlink" version="1.1" id="Layer_1" x="0px" y="0px" viewBox="0 0 512 512" style="enable-background:new 0 0 512 512;" xml:space="preserve">
<g>
	<g>
		<path d="M503.983,367.699h-17.637V75.891h17.637c4.428,0,8.017-3.589,8.017-8.017s-3.588-8.017-8.017-8.017h-137.38    c0.012-0.177,0.027-0.354,0.027-0.534v-8.551c0-4.427-3.588-8.017-8.017-8.017c-4.428,0-8.017,3.589-8.017,8.017v4.131    l-86.58-43.29V8.017C264.017,3.589,260.428,0,256,0c-4.428,0-8.017,3.589-8.017,8.017v3.597l-86.58,43.29v-4.131    c0-4.427-3.588-8.017-8.017-8.017c-4.428,0-8.017,3.589-8.017,8.017v8.551c0,0.181,0.015,0.357,0.027,0.534H8.017    C3.588,59.858,0,63.447,0,67.875s3.588,8.017,8.017,8.017h17.637v205.762c0,4.427,3.588,8.017,8.017,8.017    c4.428,0,8.017-3.589,8.017-8.017V75.891h428.626v291.808H41.687v-43.29c0-4.427-3.588-8.017-8.017-8.017    c-4.428,0-8.017,3.589-8.017,8.017v43.29H8.017c-4.428,0-8.017,3.589-8.017,8.017v25.653c0,4.427,3.588,8.017,8.017,8.017h239.967    v48.52l-40.408,40.409c-3.131,3.131-3.131,8.207,0,11.337c3.132,3.131,8.207,3.131,11.338,0l29.071-29.071v23.402    c0,4.427,3.588,8.017,8.017,8.017c4.428,0,8.017-3.589,8.017-8.017v-23.402l29.07,29.071c3.261,3.26,8.766,3.041,11.764-0.46    c2.686-3.137,2.493-7.959-0.425-10.877l-40.408-40.408v-48.52h120.25c4.428,0,8.017-3.589,8.017-8.017    c0-4.427-3.588-8.017-8.017-8.017H16.033v-9.62h479.933v9.62h-68.944c-4.428,0-8.017,3.589-8.017,8.017    c0,4.427,3.588,8.017,8.017,8.017h76.96c4.428,0,8.017-3.589,8.017-8.017v-25.653C512,371.289,508.412,367.699,503.983,367.699z     M247.983,59.858h-60.637l60.637-30.319V59.858z M264.017,59.858V29.539l60.637,30.319H264.017z"/>
	</g>
</g>
<g>
	<g>
		<path d="M409.921,316.393h-26.188V181.618h17.637c6.874,0,10.561-8.502,5.833-13.516l-51.307-54.419    c-3.118-3.307-8.548-3.307-11.666,0l-51.307,54.419c-4.727,5.014-1.042,13.516,5.833,13.516h17.637v134.775H289.67V213.244    c0-4.427-3.588-8.017-8.017-8.017h-51.307c-4.428,0-8.017,3.589-8.017,8.017v103.148h-26.722v-68.944    c0-4.427-3.588-8.017-8.017-8.017h-51.307c-4.428,0-8.017,3.589-8.017,8.017v68.944h-26.188c-4.428,0-8.017,3.589-8.017,8.017    s3.588,8.017,8.017,8.017h307.841c4.428,0,8.017-3.589,8.017-8.017S414.349,316.393,409.921,316.393z M179.574,316.393h-35.273    v-60.927h35.273V316.393z M273.637,316.393h-35.273v-95.132h35.273V316.393z M375.716,165.584c-4.428,0-8.017,3.589-8.017,8.017    v142.791h-35.273V173.601c0-4.427-3.588-8.017-8.017-8.017h-7.077l32.731-34.717l32.731,34.717H375.716z"/>
	</g>
</g>
<g>
</g>
<g>
</g>
<g>
</g>
<g>
</g>
<g>
</g>
<g>
</g>
<g>
</g>
<g>
</g>
<g>
</g>
<g>
</g>
<g>
</g>
<g>
</g>
<g>
</g>
<g>
</g>
<g>
</g>
</svg>
