<?xml version="1.0" encoding="iso-8859-1"?>
<!-- Generator: Adobe Illustrator 19.0.0, SVG Export Plug-In . SVG Version: 6.00 Build 0)  -->
<svg xmlns="http://www.w3.org/2000/svg" xmlns:xlink="http://www.w3.org/1999/xlink" version="1.1" id="Layer_1" x="0px" y="0px" viewBox="0 0 512 512" style="enable-background:new 0 0 512 512;" xml:space="preserve">
<g>
	<g>
		<path d="M503.983,383.733c4.428,0,8.017-3.589,8.017-8.017V256c0-4.348-3.669-8.017-8.017-8.017h-34.739v-94.597    c0-13.851-11.268-25.119-25.119-25.119H203.701c-4.869-43.111-48.582-76.96-101.622-76.96C45.792,51.307,0,89.428,0,136.284    c0,28.454,16.887,53.683,42.756,69.114v130.769c0,4.427,3.588,8.017,8.017,8.017c4.428,0,8.017-3.589,8.017-8.017V213.229    c13.151,5.148,27.822,8.032,43.29,8.032c4.671,0,9.371-0.267,14.009-0.797l49.921,33.634c3.09,2.082,7.321,1.719,10.016-0.852    c2.284-2.181,3.078-5.59,1.991-8.555l-14.782-40.325c11.378-7.07,20.685-15.901,27.536-25.888    c0.186,0.013,0.372,0.029,0.562,0.029h261.879v69.478H332.96c-4.364,0-8.017,3.661-8.017,8.017v119.716    c0,4.427,3.588,8.017,8.017,8.017h120.251v18.171H58.789v-24.05c0-4.427-3.588-8.017-8.017-8.017    c-4.428,0-8.017,3.589-8.017,8.017v24.049H8.017c-4.428,0-8.017,3.589-8.017,8.017v8.551c0,23.281,18.941,42.221,42.221,42.221    h335.098c4.428,0,8.017-3.589,8.017-8.017c0-4.427-3.588-8.017-8.017-8.017H42.221c-14.441,0-26.188-11.748-26.188-26.188v-0.534    h479.933v0.534c0,14.44-11.747,26.188-26.188,26.188h-51.841c-4.428,0-8.017,3.589-8.017,8.017c0,4.427,3.588,8.017,8.017,8.017    h51.841c23.281,0,42.221-18.941,42.221-42.221v-8.551c0-4.427-3.588-8.017-8.017-8.017h-34.739v-18.171H503.983z M149.613,193.719    c-3.528,1.882-5.13,6.078-3.754,9.832l8.585,23.423l-31.897-21.49c-3.018-2.032-6.342-1.133-9.697-0.796    c-3.578,0.359-7.174,0.541-10.771,0.541c-47.446,0-86.046-30.928-86.046-68.944s38.6-68.944,86.046-68.944    s86.046,30.928,86.046,68.944C188.125,159.383,173.727,180.854,149.613,193.719z M199.236,162.472    c2.26-5.847,3.77-11.933,4.469-18.171h240.42c5.01,0,9.086,4.076,9.086,9.086v9.086H199.236z M484.63,264.017l-66.158,66.158    l-66.158-66.158H484.63z M340.977,367.699v-92.345l71.825,71.825c3.089,3.088,8.249,3.088,11.338,0l71.826-71.825v92.345H340.977z    "/>
	</g>
</g>
<g>
	<g>
		<path d="M256,316.393c-13.851,0-25.119,11.268-25.119,25.119c0,13.851,11.268,25.119,25.119,25.119s25.119-11.268,25.119-25.119    C281.119,327.661,269.851,316.393,256,316.393z M256,350.597c-5.01,0-9.086-4.076-9.086-9.086c0-5.01,4.076-9.086,9.086-9.086    s9.086,4.076,9.086,9.086C265.086,346.521,261.01,350.597,256,350.597z"/>
	</g>
</g>
<g>
	<g>
		<path d="M285.67,290.131c-8.982-5.196-19.241-7.943-29.67-7.943c-10.427,0-20.686,2.746-29.667,7.941    c-3.833,2.217-5.144,7.121-2.926,10.954c2.216,3.832,7.124,5.143,10.953,2.926c6.545-3.786,14.028-5.787,21.64-5.787    c7.613,0,15.096,2.002,21.641,5.788c1.265,0.732,2.644,1.08,4.007,1.08c2.767-0.001,5.461-1.437,6.947-4.004    C290.812,297.253,289.502,292.349,285.67,290.131z"/>
	</g>
</g>
<g>
	<g>
		<path d="M302.766,260.499c-14.155-8.188-30.327-12.516-46.766-12.516c-16.441,0-32.614,4.328-46.771,12.517    c-3.832,2.217-5.142,7.121-2.924,10.954c1.487,2.569,4.178,4.004,6.947,4.004c1.362,0,2.743-0.348,4.007-1.078    c11.719-6.779,25.116-10.363,38.741-10.363c13.624,0,27.02,3.583,38.739,10.361c3.833,2.218,8.737,0.907,10.953-2.926    C307.909,267.62,306.599,262.716,302.766,260.499z"/>
	</g>
</g>
<g>
	<g>
		<path d="M321.828,232.027c-19.815-11.938-42.578-18.248-65.828-18.248c-22.454,0-44.541,5.911-63.873,17.094    c-3.833,2.217-5.143,7.121-2.926,10.954c2.217,3.833,7.122,5.142,10.953,2.926c16.896-9.774,36.207-14.94,55.845-14.94    c20.334,0,40.236,5.514,57.555,15.948c1.294,0.78,2.72,1.151,4.129,1.151c2.718,0,5.369-1.382,6.874-3.881    C326.843,239.238,325.62,234.311,321.828,232.027z"/>
	</g>
</g>
<g>
	<g>
		<path d="M106.355,128.267h-8.551c-4.428,0-8.017,3.589-8.017,8.017s3.588,8.017,8.017,8.017h8.551    c4.428,0,8.017-3.589,8.017-8.017S110.783,128.267,106.355,128.267z"/>
	</g>
</g>
<g>
	<g>
		<path d="M72.15,128.267h-8.551c-4.428,0-8.017,3.589-8.017,8.017s3.588,8.017,8.017,8.017h8.551c4.428,0,8.017-3.589,8.017-8.017    S76.579,128.267,72.15,128.267z"/>
	</g>
</g>
<g>
	<g>
		<path d="M140.56,128.267h-8.551c-4.428,0-8.017,3.589-8.017,8.017s3.588,8.017,8.017,8.017h8.551c4.428,0,8.017-3.589,8.017-8.017    S144.988,128.267,140.56,128.267z"/>
	</g>
</g>
<g>
</g>
<g>
</g>
<g>
</g>
<g>
</g>
<g>
</g>
<g>
</g>
<g>
</g>
<g>
</g>
<g>
</g>
<g>
</g>
<g>
</g>
<g>
</g>
<g>
</g>
<g>
</g>
<g>
</g>
</svg>
