<?xml version="1.0" encoding="iso-8859-1"?>
<!-- Generator: Adobe Illustrator 19.0.0, SVG Export Plug-In . SVG Version: 6.00 Build 0)  -->
<svg xmlns="http://www.w3.org/2000/svg" xmlns:xlink="http://www.w3.org/1999/xlink" version="1.1" id="Layer_1" x="0px" y="0px" viewBox="0 0 512 512" style="enable-background:new 0 0 512 512;" xml:space="preserve">
<g>
	<g>
		<path d="M144.835,16.848H42.221c-4.428,0-8.017,3.589-8.017,8.017v307.841c0,4.427,3.588,8.017,8.017,8.017h102.614    c4.428,0,8.017-3.589,8.017-8.017V24.864C152.852,20.437,149.263,16.848,144.835,16.848z M136.818,324.689h-86.58V32.881h86.58    V324.689z"/>
	</g>
</g>
<g>
	<g>
		<path d="M119.182,42.501H67.875c-4.428,0-8.017,3.589-8.017,8.017v145.37c0,4.427,3.588,8.017,8.017,8.017h51.307    c4.428,0,8.017-3.589,8.017-8.017V50.518C127.198,46.091,123.61,42.501,119.182,42.501z M111.165,187.871H75.891V58.535h35.273    V187.871z"/>
	</g>
</g>
<g>
	<g>
		<path d="M93.528,264.831c-13.851,0-25.119,11.268-25.119,25.119s11.268,25.119,25.119,25.119s25.119-11.268,25.119-25.119    S107.379,264.831,93.528,264.831z M93.528,299.036c-5.01,0-9.086-4.076-9.086-9.086s4.076-9.086,9.086-9.086    s9.086,4.076,9.086,9.086S98.538,299.036,93.528,299.036z"/>
	</g>
</g>
<g>
	<g>
		<path d="M110.63,213.524H76.426c-4.428,0-8.017,3.589-8.017,8.017s3.588,8.017,8.017,8.017h34.205    c4.428,0,8.017-3.589,8.017-8.017S115.059,213.524,110.63,213.524z"/>
	</g>
</g>
<g>
	<g>
		<path d="M110.63,239.178H76.426c-4.428,0-8.017,3.589-8.017,8.017s3.588,8.017,8.017,8.017h34.205    c4.428,0,8.017-3.589,8.017-8.017S115.059,239.178,110.63,239.178z"/>
	</g>
</g>
<g>
	<g>
		<path d="M273.102,16.848H170.489c-4.428,0-8.017,3.589-8.017,8.017v307.841c0,4.427,3.588,8.017,8.017,8.017h102.614    c4.428,0,8.017-3.589,8.017-8.017V24.864C281.119,20.437,277.531,16.848,273.102,16.848z M265.086,324.689h-86.58V32.881h86.58    V324.689z"/>
	</g>
</g>
<g>
	<g>
		<path d="M247.449,42.501h-51.307c-4.428,0-8.017,3.589-8.017,8.017v145.37c0,4.427,3.588,8.017,8.017,8.017h51.307    c4.428,0,8.017-3.589,8.017-8.017V50.518C255.466,46.091,251.877,42.501,247.449,42.501z M239.432,187.871h-35.273V58.535h35.273    V187.871z"/>
	</g>
</g>
<g>
	<g>
		<path d="M221.795,264.831c-13.851,0-25.119,11.268-25.119,25.119s11.268,25.119,25.119,25.119s25.119-11.268,25.119-25.119    S235.646,264.831,221.795,264.831z M221.795,299.036c-5.01,0-9.086-4.076-9.086-9.086s4.076-9.086,9.086-9.086    s9.086,4.076,9.086,9.086S226.805,299.036,221.795,299.036z"/>
	</g>
</g>
<g>
	<g>
		<path d="M238.898,213.524h-34.205c-4.428,0-8.017,3.589-8.017,8.017s3.588,8.017,8.017,8.017h34.205    c4.428,0,8.017-3.589,8.017-8.017S243.326,213.524,238.898,213.524z"/>
	</g>
</g>
<g>
	<g>
		<path d="M238.898,239.178h-34.205c-4.428,0-8.017,3.589-8.017,8.017s3.588,8.017,8.017,8.017h34.205    c4.428,0,8.017-3.589,8.017-8.017S243.326,239.178,238.898,239.178z"/>
	</g>
</g>
<g>
	<g>
		<path d="M503.881,299.726l-41.186-131.88c-1.32-4.226-5.817-6.581-10.042-5.262c-4.226,1.32-6.582,5.816-5.263,10.042    l38.797,124.228l-82.644,25.809l-86.99-278.54l82.644-25.81l37.507,120.1c1.32,4.225,5.815,6.584,10.042,5.262    c4.226-1.32,6.582-5.816,5.263-10.042L412.112,5.882c-1.32-4.226-5.816-6.578-10.042-5.262l-97.948,30.59    c-4.163,1.301-6.565,5.869-5.263,10.042l91.769,293.844c1.299,4.16,5.869,6.566,10.042,5.262l97.948-30.59    C502.844,308.448,505.2,303.953,503.881,299.726z"/>
	</g>
</g>
<g>
	<g>
		<path d="M438.608,176.777L395.273,38.016c-1.32-4.226-5.816-6.582-10.042-5.262l-48.975,15.295    c-4.163,1.301-6.565,5.869-5.263,10.042l43.336,138.759c1.303,4.169,5.868,6.565,10.042,5.262l48.974-15.295    c2.03-0.634,3.724-2.047,4.712-3.93C439.043,181.004,439.24,178.806,438.608,176.777z M387.243,184.419L348.687,60.963    l33.671-10.516l38.555,123.456L387.243,184.419z"/>
	</g>
</g>
<g>
	<g>
		<path d="M458.486,269.11c-4.129-13.221-18.248-20.616-31.465-16.489c-6.405,2.001-11.647,6.375-14.763,12.318    c-3.116,5.943-3.727,12.743-1.727,19.148c2,6.405,6.375,11.647,12.318,14.761c3.65,1.913,7.623,2.883,11.63,2.882    c2.516,0,5.047-0.383,7.519-1.154C455.217,296.447,462.614,282.332,458.486,269.11z M437.216,285.271    c-2.314,0.724-4.776,0.503-6.925-0.624c-2.151-1.127-3.732-3.023-4.455-5.339c-0.723-2.317-0.501-4.777,0.625-6.925    c1.127-2.15,3.023-3.732,5.34-4.455c0.898-0.281,1.806-0.415,2.702-0.415c3.868,0,7.464,2.495,8.677,6.378    C444.674,278.673,441.998,283.778,437.216,285.271z"/>
	</g>
</g>
<g>
	<g>
		<path d="M438.091,203.812c-1.32-4.225-5.816-6.58-10.042-5.262L395.4,208.746c-4.226,1.32-6.582,5.816-5.263,10.042    c1.073,3.43,4.237,5.629,7.651,5.629c0.791,0,1.597-0.118,2.391-0.367l32.649-10.196    C437.055,212.534,439.41,208.039,438.091,203.812z"/>
	</g>
</g>
<g>
	<g>
		<path d="M445.74,228.298c-1.32-4.226-5.816-6.582-10.042-5.262l-32.65,10.197c-4.226,1.32-6.582,5.816-5.263,10.042    c1.072,3.431,4.236,5.629,7.651,5.629c0.791,0,1.597-0.119,2.391-0.367l32.65-10.197    C444.704,237.021,447.059,232.525,445.74,228.298z"/>
	</g>
</g>
<g>
	<g>
		<path d="M486.881,350.342H25.119C11.268,350.342,0,361.611,0,375.461v17.102c0,13.851,11.268,25.119,25.119,25.119h26.188v86.046    c0,4.427,3.588,8.017,8.017,8.017h34.205c4.428,0,8.017-3.589,8.017-8.017v-86.046h43.29c4.428,0,8.017-3.589,8.017-8.017    s-3.588-8.017-8.017-8.017H25.119c-5.01,0-9.086-4.076-9.086-9.086v-17.102c0-5.01,4.076-9.086,9.086-9.086h461.762    c5.01,0,9.086,4.076,9.086,9.086v17.102c0,5.01-4.076,9.086-9.086,9.086h-299.29c-4.428,0-8.017,3.589-8.017,8.017    s3.588,8.017,8.017,8.017h222.864v86.046c0,4.427,3.588,8.017,8.017,8.017h34.205c4.428,0,8.017-3.589,8.017-8.017v-86.046h26.188    c13.851,0,25.119-11.268,25.119-25.119v-17.102C512,361.611,500.732,350.342,486.881,350.342z M67.34,417.683h18.171v78.029H67.34    V417.683z M444.66,495.712h-18.171v-78.029h18.171V495.712z"/>
	</g>
</g>
<g>
</g>
<g>
</g>
<g>
</g>
<g>
</g>
<g>
</g>
<g>
</g>
<g>
</g>
<g>
</g>
<g>
</g>
<g>
</g>
<g>
</g>
<g>
</g>
<g>
</g>
<g>
</g>
<g>
</g>
</svg>
