<?xml version="1.0" encoding="iso-8859-1"?>
<!-- Generator: Adobe Illustrator 19.0.0, SVG Export Plug-In . SVG Version: 6.00 Build 0)  -->
<svg xmlns="http://www.w3.org/2000/svg" xmlns:xlink="http://www.w3.org/1999/xlink" version="1.1" id="Layer_1" x="0px" y="0px" viewBox="0 0 512 512" style="enable-background:new 0 0 512 512;" xml:space="preserve">
<g>
	<g>
		<path d="M503.983,115.44H366.63V97.804c0-4.427-3.589-8.017-8.017-8.017h-17.637V72.15c0-23.281-18.941-42.221-42.221-42.221    h-85.511c-23.281,0-42.221,18.941-42.221,42.221v17.637h-17.637c-4.427,0-8.017,3.589-8.017,8.017v17.637H8.017    C3.589,115.44,0,119.03,0,123.457v205.228c0,4.427,3.589,8.017,8.017,8.017c4.427,0,8.017-3.589,8.017-8.017v-81.513    c13.993,18.033,35.853,29.671,60.393,29.671H222.33v22.447h-17.637c-4.427,0-8.017,3.589-8.017,8.017v89.787    c0,32.711,26.612,59.324,59.324,59.324s59.324-26.612,59.324-59.324v-89.787c0-4.427-3.589-8.017-8.017-8.017H289.67v-22.447    h43.29c4.427,0,8.017-3.589,8.017-8.017s-3.589-8.017-8.017-8.017h-43.29v-26.188c0-18.566-15.105-33.67-33.67-33.67    s-33.67,15.105-33.67,33.67v26.188H76.426c-33.3,0-60.393-27.092-60.393-60.392v-68.944h479.933v68.944    c0,33.3-27.092,60.392-60.393,60.392h-59.858c-4.427,0-8.017,3.589-8.017,8.017s3.589,8.017,8.017,8.017h59.858    c24.54,0,46.4-11.638,60.393-29.671v209.78c0,5.01-4.076,9.086-9.086,9.086H25.119c-5.01,0-9.086-4.076-9.086-9.086V371.44    c0-4.427-3.589-8.017-8.017-8.017c-4.427,0-8.017,3.589-8.017,8.017v85.511c0,13.851,11.268,25.119,25.119,25.119h461.762    c13.851,0,25.119-11.268,25.119-25.119V123.457C512,119.03,508.411,115.44,503.983,115.44z M212.71,315.324h9.62v22.447h-9.62    V315.324z M212.71,353.804h9.62v18.171h-9.62V353.804z M289.67,315.324h9.62v22.447h-9.62V315.324z M289.67,353.804h9.62v18.171    h-9.62V353.804z M238.363,268.837c0-0.003,0-0.006,0-0.011s0-0.006,0-0.011v-34.194c0-9.725,7.912-17.637,17.637-17.637    s17.637,7.912,17.637,17.637v64.668h-9.62v-9.086c0-4.427-3.589-8.017-8.017-8.017s-8.017,3.589-8.017,8.017v9.086h-9.62V268.837z     M238.363,315.324h9.62v0.534c0,4.427,3.589,8.017,8.017,8.017s8.017-3.589,8.017-8.017v-0.534h9.62v56.651h-35.273V315.324z     M238.363,388.008h35.273v5.766L256,411.411l-17.637-17.637V388.008z M224.678,402.762l25.653,25.653    c3.088,3.088,8.249,3.088,11.337,0l25.653-25.653c1.504-1.503,2.348-3.542,2.348-5.668v-9.086h9.62v9.086    c0,23.871-19.42,43.29-43.29,43.29s-43.29-19.42-43.29-43.29v-9.086h9.62v9.086C222.33,399.22,223.174,401.259,224.678,402.762z     M196.676,115.44h-35.273v-9.62h35.273V115.44z M299.29,97.804v17.637h-86.58V97.804c0-4.427-3.589-8.017-8.017-8.017h-17.637    V72.15c0-14.44,11.748-26.188,26.188-26.188h85.511c14.44,0,26.188,11.748,26.188,26.188v17.637h-17.637    C302.88,89.787,299.29,93.376,299.29,97.804z M350.597,115.44h-35.273v-9.62h35.273V115.44z"/>
	</g>
</g>
<g>
	<g>
		<path d="M256,226.605c-4.427,0-8.017,3.589-8.017,8.017v8.551c0,4.427,3.589,8.017,8.017,8.017s8.017-3.589,8.017-8.017v-8.551    C264.017,230.195,260.427,226.605,256,226.605z"/>
	</g>
</g>
<g>
	<g>
		<path d="M256,337.77c-4.427,0-8.017,3.589-8.017,8.017v8.551c0,4.427,3.589,8.017,8.017,8.017s8.017-3.589,8.017-8.017v-8.551    C264.017,341.36,260.427,337.77,256,337.77z"/>
	</g>
</g>
<g>
</g>
<g>
</g>
<g>
</g>
<g>
</g>
<g>
</g>
<g>
</g>
<g>
</g>
<g>
</g>
<g>
</g>
<g>
</g>
<g>
</g>
<g>
</g>
<g>
</g>
<g>
</g>
<g>
</g>
</svg>
