<?xml version="1.0" encoding="iso-8859-1"?>
<!-- Generator: Adobe Illustrator 19.0.0, SVG Export Plug-In . SVG Version: 6.00 Build 0)  -->
<svg xmlns="http://www.w3.org/2000/svg" xmlns:xlink="http://www.w3.org/1999/xlink" version="1.1" id="Layer_1" x="0px" y="0px" viewBox="0 0 511.999 511.999" style="enable-background:new 0 0 511.999 511.999;" xml:space="preserve">
<g>
	<g>
		<path d="M436.549,117.994l-7.98-106.559c-0.462-6.179-7.844-9.529-12.793-5.784l-85.278,64.406    c-1.066,0.803-1.929,1.884-2.476,3.101l-56.208,124.328H223.38l-42.005-143.17l25.583-7.506l34.837,118.285    c1.281,4.353,6.081,6.784,10.355,5.272c3.948-1.397,6.167-5.78,4.985-9.789L220.042,34.631c-1.246-4.234-5.688-6.655-9.922-5.414    l-33.248,9.755l-2.551-8.695c-3.167-10.795-10.348-19.709-20.219-25.101c-9.872-5.393-21.252-6.62-32.046-3.452l-16.368,4.802    c-22.281,6.538-35.091,29.984-28.553,52.264l40.694,138.698H95.941c-4.416,0-7.996,3.58-7.996,7.996v51.175    c0,4.416,3.58,7.996,7.996,7.996h17.591v94.354c0,4.416,3.58,7.996,7.996,7.996s7.996-3.58,7.996-7.996v-94.354h161.756    c4.416,0,7.996-3.58,7.996-7.996c0-4.416-3.58-7.996-7.996-7.996H103.937v-35.183h308.115v35.183h-77.295    c-4.416,0-7.996,3.58-7.996,7.996c0,4.416,3.58,7.996,7.996,7.996h51.708v60.77H223.878c-4.416,0-7.996,3.58-7.996,7.996v85.291    c0,4.416,3.58,7.996,7.996,7.996h162.587v43.179c0,14.402-11.718,26.12-26.121,26.12H155.645c-14.403,0-26.12-11.718-26.12-26.12    v-68.233c0-4.416-3.58-7.996-7.996-7.996s-7.996,3.58-7.996,7.996v68.233c0,23.221,18.892,42.113,42.113,42.113h204.699    c23.221,0,42.113-18.892,42.113-42.113V264.654h17.591c4.416,0,7.996-3.58,7.996-7.996v-51.175c0-4.416-3.58-7.996-7.996-7.996    H401.69l34.169-75.579C436.412,120.693,436.653,119.326,436.549,117.994z M92.479,54.288c-4.055-13.82,3.89-28.363,17.711-32.418    l16.368-4.802c6.694-1.965,13.754-1.205,19.877,2.141c6.123,3.344,10.576,8.875,12.541,15.569l33.767,115.089l-66.496,19.51    L92.479,54.288z M134.494,197.488v-0.001l-3.745-12.764l66.496-19.509l9.469,32.274H134.494z M386.465,410.716H231.874v-69.299    h154.591V410.716z M413.718,27.248l2.253,30.08l-26.323-11.9L413.718,27.248z M289.367,197.487l49.941-110.466l16.516,7.466    l-46.567,103H289.367z M326.807,197.487l43.588-96.412l16.515,7.466l-40.213,88.946H326.807z M384.14,197.487h-19.891    l37.234-82.357l16.516,7.466L384.14,197.487z M350.884,74.704l24.227-18.298l42.22,19.088l2.267,30.275L350.884,74.704z"/>
	</g>
</g>
<g>
</g>
<g>
</g>
<g>
</g>
<g>
</g>
<g>
</g>
<g>
</g>
<g>
</g>
<g>
</g>
<g>
</g>
<g>
</g>
<g>
</g>
<g>
</g>
<g>
</g>
<g>
</g>
<g>
</g>
</svg>
