<?xml version="1.0" encoding="iso-8859-1"?>
<!-- Generator: Adobe Illustrator 19.0.0, SVG Export Plug-In . SVG Version: 6.00 Build 0)  -->
<svg xmlns="http://www.w3.org/2000/svg" xmlns:xlink="http://www.w3.org/1999/xlink" version="1.1" id="Layer_1" x="0px" y="0px" viewBox="0 0 512 512" style="enable-background:new 0 0 512 512;" xml:space="preserve">
<g>
	<g>
		<path d="M393.987,12.936h-43.66V8.085c0-4.465-3.619-8.085-8.085-8.085h-34.497c-4.466,0-8.085,3.62-8.085,8.085v4.851H100.764    c-4.466,0-8.085,3.62-8.085,8.085v310.472c0,4.465,3.619,8.085,8.085,8.085s8.085-3.62,8.085-8.085V29.107h35.575v406.416h-35.575    v-60.908c0-4.465-3.619-8.085-8.085-8.085s-8.085,3.62-8.085,8.085v68.994c0,4.465,3.619,8.085,8.085,8.085h95.405v52.284    c0,7.048,8.813,10.706,13.803,5.717l20.155-20.156l20.155,20.156c4.993,4.991,13.803,1.318,13.803-5.717v-52.284h35.575v4.851    c0,4.465,3.619,8.085,8.085,8.085h34.497c4.466,0,8.085-3.62,8.085-8.085v-4.851h43.66c13.969,0,25.334-11.365,25.334-25.334    V38.27C419.321,24.301,407.956,12.936,393.987,12.936z M247.915,484.459l-12.07-12.071c-1.579-1.578-3.649-2.368-5.718-2.368    s-4.139,0.789-5.718,2.368l-12.07,12.071v-32.766h35.575V484.459z M299.66,435.523H160.594V29.107H299.66V435.523z     M403.15,426.359c0,5.053-4.111,9.163-9.163,9.163h-43.66V193.506c0-4.465-3.619-8.085-8.085-8.085s-8.085,3.62-8.085,8.085    v254.953H315.83V16.17h18.326v134.214c0,4.465,3.619,8.085,8.085,8.085s8.085-3.62,8.085-8.085V29.107h43.66    c5.053,0,9.163,4.111,9.163,9.163V426.359z"/>
	</g>
</g>
<g>
</g>
<g>
</g>
<g>
</g>
<g>
</g>
<g>
</g>
<g>
</g>
<g>
</g>
<g>
</g>
<g>
</g>
<g>
</g>
<g>
</g>
<g>
</g>
<g>
</g>
<g>
</g>
<g>
</g>
</svg>
