<?xml version="1.0" encoding="iso-8859-1"?>
<!-- Generator: Adobe Illustrator 19.0.0, SVG Export Plug-In . SVG Version: 6.00 Build 0)  -->
<svg xmlns="http://www.w3.org/2000/svg" xmlns:xlink="http://www.w3.org/1999/xlink" version="1.1" id="Layer_1" x="0px" y="0px" viewBox="0 0 512 512" style="enable-background:new 0 0 512 512;" xml:space="preserve">
<g>
	<g>
		<path d="M431.274,84.756c3.775,2.315,8.71,1.132,11.025-2.643l42.866-69.906C488.383,6.957,484.47,0,478.33,0H356.581    c-2.803,0-5.402,1.463-6.855,3.86l-72.583,119.683c-5.316-5.982-12.891-9.429-21.143-9.429c-8.252,0-15.826,3.446-21.142,9.428    L162.275,3.86C160.822,1.463,158.223,0,155.421,0H33.67c-6.14,0-10.054,6.956-6.835,12.207l95.171,155.207    c-2.41,1.301-4.665,2.954-6.681,4.969c-7.199,7.199-9.963,17.378-7.393,27.23l12.883,49.386    c1.388,5.323-0.957,10.984-5.701,13.765l-44.031,25.811c-8.783,5.149-14.027,14.301-14.027,24.482    c0,10.18,5.244,19.332,14.027,24.481l44.031,25.812c4.745,2.782,7.09,8.442,5.701,13.765L107.933,426.5    c-2.57,9.852,0.195,20.031,7.393,27.23c7.199,7.198,17.378,9.961,27.229,7.392l49.387-12.883    c5.322-1.388,10.983,0.956,13.765,5.702l25.812,44.03C236.667,506.756,245.819,512,256,512c10.18,0,19.333-5.244,24.482-14.027    l25.811-44.031c2.781-4.746,8.441-7.091,13.764-5.701l49.386,12.883c9.851,2.569,20.031-0.193,27.231-7.394    c7.198-7.199,9.962-17.378,7.391-27.229l-12.882-49.385c-1.388-5.323,0.957-10.984,5.703-13.765l44.031-25.812    c8.783-5.148,14.026-14.3,14.026-24.481s-5.243-19.333-14.026-24.482l-44.031-25.811c-4.745-2.782-7.091-8.442-5.703-13.765    l12.883-49.386c2.571-9.851-0.193-20.03-7.391-27.229c-2.016-2.016-4.271-3.67-6.682-4.97l32.052-52.27    c2.314-3.774,1.132-8.71-2.643-11.025c-3.775-2.315-8.71-1.131-11.025,2.643l-35.27,57.519    c-1.222,0.156-25.381,6.375-25.381,6.375S441.971,16.4,442.126,16.033h21.886l-35.38,57.698    C426.317,77.505,427.499,82.442,431.274,84.756z M361.095,16.033h21.8l-85.673,140.663l-10.535-17.971L361.095,16.033z     M150.907,16.033l74.408,122.693l-10.535,17.971L129.107,16.033H150.907z M110.334,16.033l95.233,156.359    c-2.826,4.594-8.384,6.848-13.624,5.482l-5.309-1.385L88.551,16.033H110.334z M47.99,16.033h21.768l94.519,154.624    c0,0-24.162-6.219-25.384-6.376L47.99,16.033z M373.492,180.505c8.97-2.341,17.401,6.089,15.061,15.061l-12.883,49.386    c-3.192,12.237,2.199,25.249,13.108,31.645l44.031,25.811c7.999,4.688,7.997,16.611,0,21.299l-44.031,25.812    c-10.909,6.394-16.3,19.407-13.108,31.645l12.883,49.386c2.34,8.969-6.091,17.403-15.061,15.06l-49.386-12.882    c-12.235-3.196-25.249,2.197-31.645,13.108l-25.811,44.031c-4.687,8-16.611,7.999-21.299,0l-25.812-44.031    c-5.164-8.809-14.641-14.02-24.541-14.02c-2.36,0-4.747,0.297-7.104,0.912l-49.386,12.883c-8.971,2.34-17.401-6.089-15.061-15.061    l12.883-49.386c3.192-12.238-2.199-25.25-13.108-31.645l-44.031-25.812c-7.999-4.688-7.997-16.611,0-21.299l44.031-25.811    c10.909-6.395,16.3-19.408,13.108-31.645l-12.883-49.386c-2.34-8.97,6.091-17.402,15.061-15.061l49.386,12.883    c12.235,3.191,25.248-2.198,31.645-13.108l25.812-44.031c4.688-7.997,16.611-7.999,21.299,0l25.811,44.031    c6.394,10.91,19.405,16.299,31.645,13.108L373.492,180.505z M325.367,176.489l-5.31,1.385c-5.233,1.368-10.796-0.887-13.623-5.482    l94.631-155.371c0.196-0.321,0.357-0.652,0.502-0.988h21.882L325.367,176.489z"/>
	</g>
</g>
<g>
	<g>
		<path d="M256,193.876c-59.867,0-110.692,44.72-118.226,104.023c-0.558,4.392,2.55,8.406,6.942,8.964    c4.4,0.556,8.406-2.55,8.964-6.943c6.518-51.314,50.506-90.009,102.32-90.009c56.876,0,103.148,46.272,103.148,103.148    S312.876,416.207,256,416.207c-46.317,0-87.223-31.154-99.474-75.759c-1.173-4.269-5.582-6.779-9.853-5.607    c-4.269,1.173-6.78,5.584-5.607,9.853c14.159,51.545,61.421,87.546,114.935,87.546c65.717,0,119.182-53.465,119.182-119.182    S321.717,193.876,256,193.876z"/>
	</g>
</g>
<g>
	<g>
		<path d="M281.654,225.943h-34.205c-1.453,0-2.879,0.395-4.125,1.143l-42.756,25.653c-3.591,2.155-4.919,6.713-3.045,10.459    l17.102,34.205c2.121,4.242,7.662,5.725,11.617,3.085l13.19-8.794v96.185c0,4.428,3.589,8.018,8.017,8.018h34.205    c4.428,0,8.017-3.589,8.017-8.017V233.959C289.67,229.532,286.082,225.943,281.654,225.943z M273.637,379.863h-18.171V276.715    c0-6.274-7.231-10.16-12.463-6.67l-18.097,12.065l-9.721-19.442l34.486-20.692h23.967V379.863z"/>
	</g>
</g>
<g>
</g>
<g>
</g>
<g>
</g>
<g>
</g>
<g>
</g>
<g>
</g>
<g>
</g>
<g>
</g>
<g>
</g>
<g>
</g>
<g>
</g>
<g>
</g>
<g>
</g>
<g>
</g>
<g>
</g>
</svg>
