<?xml version="1.0" encoding="iso-8859-1"?>
<!-- Generator: Adobe Illustrator 19.0.0, SVG Export Plug-In . SVG Version: 6.00 Build 0)  -->
<svg xmlns="http://www.w3.org/2000/svg" xmlns:xlink="http://www.w3.org/1999/xlink" version="1.1" id="Layer_1" x="0px" y="0px" viewBox="0 0 512 512" style="enable-background:new 0 0 512 512;" xml:space="preserve">
<g>
	<g>
		<path d="M50.239,256c0-22.541,3.619-44.695,10.758-65.845c1.416-4.194-0.837-8.744-5.032-10.159    c-4.194-1.417-8.744,0.837-10.159,5.032C38.108,207.834,34.205,231.712,34.205,256c0,24.289,3.903,48.168,11.601,70.972    c1.455,4.31,6.358,6.558,10.581,4.875c3.899-1.554,5.951-6.031,4.61-10.003C53.858,300.695,50.239,278.541,50.239,256z"/>
	</g>
</g>
<g>
	<g>
		<path d="M466.195,185.028c-1.416-4.195-5.968-6.449-10.159-5.031c-4.195,1.416-6.448,5.964-5.032,10.159    c7.139,21.15,10.758,43.304,10.758,65.845s-3.619,44.695-10.758,65.845c-1.344,3.979,0.715,8.438,4.61,10.003    c4.219,1.694,9.129-0.574,10.581-4.875c7.698-22.805,11.601-46.684,11.601-70.972S473.893,207.832,466.195,185.028z"/>
	</g>
</g>
<g>
	<g>
		<path d="M16.034,256c0-11.08,0.762-22.219,2.265-33.11c0.605-4.386-2.461-8.431-6.846-9.036c-4.392-0.608-8.432,2.46-9.038,6.846    c-1.602,11.612-2.415,23.49-2.415,35.3s0.812,23.688,2.415,35.3c0.605,4.384,4.814,7.513,9.186,6.823    c4.257-0.672,7.287-4.739,6.697-9.014C16.796,278.219,16.034,267.08,16.034,256z"/>
	</g>
</g>
<g>
	<g>
		<path d="M509.586,220.699c-0.605-4.386-4.646-7.445-9.037-6.845c-4.386,0.605-7.45,4.652-6.845,9.037    c1.502,10.89,2.264,22.029,2.264,33.109c0,8.287-0.426,16.643-1.269,24.834c-0.453,4.405,2.75,8.342,7.154,8.795    c0.279,0.029,0.556,0.043,0.829,0.043c4.059,0,7.541-3.072,7.964-7.197c0.898-8.734,1.353-17.641,1.353-26.474    C512.001,244.19,511.188,232.312,509.586,220.699z"/>
	</g>
</g>
<g>
	<g>
		<path d="M457.486,51.581c-11.204-11.205-26.101-17.376-41.948-17.376s-30.744,6.171-41.948,17.376l-12.093,12.092    c-3.087,3.086-3.087,8.251,0,11.337l72.559,72.559c3.086,3.087,8.251,3.087,11.337,0l12.092-12.093    C480.616,112.346,480.616,74.71,457.486,51.581z M446.149,124.138l-6.425,6.425l-61.221-61.221l6.424-6.424    c8.177-8.177,19.048-12.68,30.611-12.68s22.434,4.503,30.611,12.679C463.028,79.796,463.028,107.259,446.149,124.138z"/>
	</g>
</g>
<g>
	<g>
		<path d="M150.504,63.674l-12.093-12.092c-11.204-11.206-26.101-17.377-41.948-17.377c-15.846,0-30.743,6.171-41.948,17.376    c-23.13,23.13-23.13,60.766,0,83.895l12.092,12.093c3.086,3.087,8.252,3.087,11.338,0l72.559-72.559    C153.591,71.925,153.591,66.76,150.504,63.674z M72.277,130.562l-6.425-6.423c-16.879-16.879-16.879-44.342,0-61.221    c8.177-8.177,19.048-12.68,30.611-12.68s22.434,4.503,30.611,12.679l6.424,6.424L72.277,130.562z"/>
	</g>
</g>
<g>
	<g>
		<path d="M347.359,205.353c9.683-9.683,9.683-25.842,0-35.524c-9.792-9.794-25.729-9.794-35.524,0l-52.655,52.655    c-1.047-0.098-2.107-0.155-3.18-0.155c-8.59,0-16.434,3.238-22.389,8.551h-46.02c-13.851,0-25.119,11.268-25.119,25.119    c0,13.851,11.268,25.119,25.119,25.119h46.02c5.955,5.313,13.799,8.551,22.389,8.551c5.306,0,10.327-1.238,14.795-3.433    l38.65,51.535c2.828,3.771,8.472,4.255,11.909,1.028c2.937-2.759,3.335-7.427,0.918-10.648l-39.16-52.213    c2.593-3.518,4.517-7.556,5.588-11.926L347.359,205.353z M223.586,265.086h-35.995c-5.01,0-9.086-4.076-9.086-9.086    s4.076-9.086,9.086-9.086h35.995c-0.812,2.892-1.256,5.938-1.256,9.086S222.774,262.193,223.586,265.086z M256.001,273.637    c-9.725,0-17.637-7.912-17.637-17.637s7.912-17.637,17.637-17.637s17.637,7.912,17.637,17.637S265.725,273.637,256.001,273.637z     M275.653,228.685l47.52-47.52c3.246-3.246,8.598-3.525,12.16-0.622c4.116,3.355,4.445,9.715,0.689,13.471l-48.97,48.97    C284.631,237.232,280.652,232.294,275.653,228.685z"/>
	</g>
</g>
<g>
	<g>
		<path d="M385.488,391.608c35.78-34.18,58.103-82.336,58.103-135.608c0-94.921-70.869-173.59-162.472-185.904V50.238h26.188    c4.427,0,8.017-3.589,8.017-8.017V8.017c0-4.427-3.589-8.017-8.017-8.017H204.694c-4.427,0-8.017,3.589-8.017,8.017v34.205    c0,4.427,3.589,8.017,8.017,8.017h26.188v19.858C139.278,82.41,68.41,161.079,68.41,256c0,22.093,3.849,43.301,10.898,63.002    c1.76,4.92,7.73,6.817,12.049,3.874c3.023-2.061,4.245-5.897,3.015-9.342c-6.772-18.966-10.299-39.46-9.898-60.815    c1.723-91.613,76.057-166.209,167.664-168.232c95.338-2.107,173.748,74,175.394,168.483    c1.639,94.109-73.653,172.514-167.754,174.548c-59.492,1.286-112.381-27.886-144.13-72.968c-2.51-3.564-7.429-4.428-11.03-1.973    c-3.712,2.53-4.598,7.605-2.011,11.277c7.059,10.016,15.068,19.315,23.905,27.756l-23.72,110.695    c-1.054,4.915,2.817,9.696,7.838,9.696h17.102c2.852,0,5.489-1.515,6.925-3.977l46.645-79.963    c22.901,9.981,48.161,15.531,74.696,15.531s51.795-5.55,74.698-15.531l46.645,79.963c1.437,2.463,4.074,3.977,6.924,3.977h17.102    c5.023,0,8.892-4.781,7.838-9.696L385.488,391.608z M212.71,34.205V16.033h86.58v18.171H212.71z M265.086,68.633    c-3.011-0.144-6.039-0.223-9.086-0.223c-3.046,0-6.075,0.079-9.086,0.223V50.238h18.171V68.633z M123.129,495.967h-2.581    l19.794-92.371c8.303,6.52,17.167,12.355,26.507,17.422L123.129,495.967z M388.873,495.967l-43.72-74.949    c9.34-5.067,18.205-10.902,26.508-17.422l19.794,92.371H388.873z"/>
	</g>
</g>
<g>
	<g>
		<path d="M409.293,250.68c-0.17-4.818-4.472-8.424-9.236-7.692l-0.004,0.001c-4.012,0.617-6.931,4.133-6.785,8.19    c0.058,1.6,0.088,3.207,0.088,4.821c0,75.735-61.615,137.352-137.352,137.353c-75.743,0.001-137.356-61.612-137.355-137.354    c0.001-75.736,61.617-137.352,137.353-137.352c58.383,0,108.37,36.618,128.213,88.091c1.345,3.488,4.975,5.536,8.669,4.968h0.002    c5.034-0.775,8.12-6.004,6.286-10.756c-22.169-57.463-77.985-98.336-143.17-98.336c-84.976,0-154.034,69.459-153.382,154.583    c0.64,83.429,68.756,151.544,152.185,152.185c85.125,0.652,154.583-68.406,154.583-153.382    C409.387,254.219,409.355,252.446,409.293,250.68z"/>
	</g>
</g>
<g>
</g>
<g>
</g>
<g>
</g>
<g>
</g>
<g>
</g>
<g>
</g>
<g>
</g>
<g>
</g>
<g>
</g>
<g>
</g>
<g>
</g>
<g>
</g>
<g>
</g>
<g>
</g>
<g>
</g>
</svg>
