<?xml version="1.0" encoding="iso-8859-1"?>
<!-- Generator: Adobe Illustrator 19.0.0, SVG Export Plug-In . SVG Version: 6.00 Build 0)  -->
<svg xmlns="http://www.w3.org/2000/svg" xmlns:xlink="http://www.w3.org/1999/xlink" version="1.1" id="Layer_1" x="0px" y="0px" viewBox="0 0 512 512" style="enable-background:new 0 0 512 512;" xml:space="preserve">
<g>
	<g>
		<path d="M503.982,239.433H195.608v-26.722h94.597c13.851,0,25.119-11.268,25.119-25.119V25.121    c0-13.851-11.268-25.119-25.119-25.119H256c-4.428,0-8.017,3.589-8.017,8.017c0,4.427,3.588,8.017,8.017,8.017h34.204    c5.01,0,9.086,4.076,9.086,9.086v120.25H41.688V25.121c0-5.01,4.076-9.086,9.086-9.086h162.471c4.428,0,8.017-3.589,8.017-8.017    c0-4.427-3.588-8.017-8.017-8.017H50.773c-13.851,0-25.119,11.268-25.119,25.119v162.471c0,13.851,11.268,25.119,25.119,25.119    h94.597v26.722H8.018c-4.428,0-8.017,3.589-8.017,8.017v34.204c0,4.427,3.588,8.017,8.017,8.017h9.086v214.312    c0,4.427,3.588,8.017,8.017,8.017h34.204c4.428,0,8.017-3.589,8.017-8.017V289.671h26.188c4.428,0,8.017-3.589,8.017-8.017    c0-4.427-3.588-8.017-8.017-8.017H16.034v-18.171h479.931v18.171H136.284c-4.428,0-8.017,3.589-8.017,8.017    c0,4.427,3.588,8.017,8.017,8.017h137.352v154.454c0,4.427,3.588,8.017,8.017,8.017h163.006v51.841    c0,4.427,3.588,8.017,8.017,8.017h34.204c4.428,0,8.017-3.589,8.017-8.017v-59.858c0-4.427-3.588-8.017-8.017-8.017    s-8.017,3.589-8.017,8.017v51.841h-18.171V289.671h18.171V401.37c0,4.427,3.588,8.017,8.017,8.017s8.017-3.589,8.017-8.017    V289.671h9.086c4.428,0,8.017-3.589,8.017-8.017V247.45C511.999,243.023,508.411,239.433,503.982,239.433z M33.137,289.671h18.171    v206.296H33.137V289.671z M50.773,196.678c-5.009,0-9.086-4.076-9.086-9.086v-26.188H299.29v26.188    c0,5.01-4.076,9.086-9.086,9.086H50.773z M179.574,239.433h-18.171v-26.722h18.171V239.433z M444.659,436.109H289.67v-43.824    h154.989V436.109z M444.659,376.251H289.67v-86.58h154.989V376.251z"/>
	</g>
</g>
<g>
	<g>
		<path d="M495.431,128.269h-153.92c-4.428,0-8.017,3.589-8.017,8.017c0,4.427,3.589,8.017,8.017,8.017h153.92    c4.428,0,8.017-3.589,8.017-8.017C503.448,131.858,499.86,128.269,495.431,128.269z"/>
	</g>
</g>
<g>
	<g>
		<path d="M477.649,107.277L458.289,6.506c-0.835-4.347-5.034-7.199-9.385-6.36l-25.193,4.84c-2.088,0.401-3.931,1.615-5.124,3.376    c-0.3,0.445-0.554,0.915-0.758,1.402c-0.602-3.831-3.908-6.765-7.91-6.765h-51.307c-4.428,0-8.017,3.589-8.017,8.017v102.613    c0,4.427,3.589,8.017,8.017,8.017h51.307c4.428,0,8.017-3.589,8.017-8.017V17.42l18.775,97.722    c0.824,4.289,5.094,7.185,9.385,6.36l25.193-4.84C475.573,115.839,478.473,111.566,477.649,107.277z M376.25,105.613h-9.62v-86.58    h9.62V105.613z M401.903,105.613h-9.62v-86.58h9.62V105.613z M450.945,104.243l-16.336-85.025l9.448-1.815l16.336,85.025    L450.945,104.243z"/>
	</g>
</g>
<g>
	<g>
		<path d="M461.227,162.473H443.59v-0.534c0-4.427-3.588-8.017-8.017-8.017h-51.307c-4.428,0-8.017,3.589-8.017,8.017v51.307    c0,13.851,11.268,25.119,25.119,25.119h17.102c11.048,0,20.446-7.172,23.8-17.102h18.956c4.428,0,8.017-3.589,8.017-8.017V170.49    C469.243,166.063,465.655,162.473,461.227,162.473z M427.557,213.246c0,5.01-4.076,9.086-9.086,9.086h-17.102    c-5.01,0-9.086-4.076-9.086-9.086v-43.29h35.273V213.246z M453.21,205.229h-9.62v-26.722h9.62V205.229z"/>
	</g>
</g>
<g>
	<g>
		<path d="M179.04,171.024h-17.102c-4.428,0-8.017,3.589-8.017,8.017c0,4.427,3.589,8.017,8.017,8.017h17.102    c4.428,0,8.017-3.589,8.017-8.017C187.057,174.614,183.468,171.024,179.04,171.024z"/>
	</g>
</g>
<g>
	<g>
		<path d="M177.057,46.177c-2.539-3.627-7.538-4.511-11.165-1.97l-85.511,59.858c-3.628,2.539-4.51,7.538-1.971,11.165    c1.56,2.228,4.047,3.42,6.575,3.42c1.586,0,3.191-0.47,4.59-1.449l85.511-59.858C178.713,54.803,179.596,49.804,177.057,46.177z"/>
	</g>
</g>
<g>
	<g>
		<path d="M228.319,71.768c-2.573-3.602-7.578-4.439-11.183-1.864l-59.858,42.756c-3.602,2.574-4.437,7.581-1.863,11.183    c1.565,2.19,4.029,3.357,6.53,3.357c1.612,0,3.24-0.485,4.653-1.493l59.858-42.756C230.058,80.377,230.893,75.371,228.319,71.768z    "/>
	</g>
</g>
<g>
	<g>
		<path d="M367.164,307.842c-13.851,0-25.119,11.268-25.119,25.119c0,13.851,11.268,25.119,25.119,25.119    c13.851,0,25.119-11.268,25.119-25.119C392.283,319.11,381.015,307.842,367.164,307.842z M367.164,342.047    c-5.01,0-9.086-4.076-9.086-9.086c0-5.01,4.077-9.086,9.086-9.086c5.01,0,9.086,4.076,9.086,9.086    C376.25,337.971,372.174,342.047,367.164,342.047z"/>
	</g>
</g>
<g>
</g>
<g>
</g>
<g>
</g>
<g>
</g>
<g>
</g>
<g>
</g>
<g>
</g>
<g>
</g>
<g>
</g>
<g>
</g>
<g>
</g>
<g>
</g>
<g>
</g>
<g>
</g>
<g>
</g>
</svg>
