<?xml version="1.0" encoding="iso-8859-1"?>
<!-- Generator: Adobe Illustrator 19.0.0, SVG Export Plug-In . SVG Version: 6.00 Build 0)  -->
<svg xmlns="http://www.w3.org/2000/svg" xmlns:xlink="http://www.w3.org/1999/xlink" version="1.1" id="Layer_1" x="0px" y="0px" viewBox="0 0 512 512" style="enable-background:new 0 0 512 512;" xml:space="preserve">
<g>
	<g>
		<path d="M454.463,397.167c-7.976-7.973-18.578-12.365-29.855-12.365c-11.278,0-21.881,4.392-29.856,12.366    c-16.46,16.462-16.46,43.247,0.001,59.709c7.974,7.974,18.577,12.366,29.855,12.366s21.88-4.392,29.854-12.366    c7.975-7.974,12.367-18.577,12.367-29.855S462.437,405.142,454.463,397.167z M443.126,445.54    c-10.095,10.095-26.941,10.095-37.035,0c-10.211-10.211-10.211-26.825-0.001-37.035c10.096-10.095,26.941-10.095,37.036,0    c4.946,4.946,7.67,11.523,7.67,18.518C450.796,434.018,448.071,440.595,443.126,445.54z"/>
	</g>
</g>
<g>
	<g>
		<path d="M484.695,366.935c-16.049-16.049-37.389-24.889-60.087-24.889s-44.037,8.84-60.089,24.889    c-0.126,0.126-0.242,0.26-0.368,0.387l-48.441-48.441l26.527-26.527c3.131-3.131,3.131-8.207,0-11.337    c-3.132-3.131-8.207-3.131-11.338,0L171.272,440.646c0.715-4.465,1.099-9.013,1.099-13.623c0-17.072-5.004-33.374-14.311-47.235    l219.195-219.195c18.096,23.659,16.331,57.74-5.293,79.365l-19.684,19.683c-3.131,3.131-3.131,8.206,0,11.337    s8.207,3.131,11.337,0l19.684-19.683c29.798-29.799,29.798-78.284,0-108.082c-3.088-3.087-8.251-3.087-11.338,0L256,259.171    l-115.959-115.96c-3.086-3.087-8.252-3.087-11.337,0c-29.798,29.799-29.798,78.284,0,108.082l67.587,67.587l-48.441,48.441    c-0.126-0.127-0.243-0.261-0.369-0.387c-33.132-33.133-87.043-33.133-120.176,0c-3.131,3.131-3.131,8.207,0,11.337    c3.131,3.131,8.207,3.131,11.337,0c26.881-26.881,70.62-26.881,97.501,0c13.022,13.022,20.194,30.335,20.194,48.75    c0,18.415-7.171,35.729-20.194,48.75c-26.881,26.881-70.62,26.881-97.501,0c-16.096-16.096-23.204-39.085-19.012-61.496    c0.814-4.352-2.053-8.539-6.406-9.354c-4.352-0.817-8.539,2.054-9.354,6.406c-5.165,27.613,3.596,55.942,23.434,75.78    c16.568,16.568,38.324,24.852,60.088,24.85c21.758-0.002,43.523-8.285,60.088-24.85c0.36-0.36,108.52-108.519,108.52-108.519    s108.16,108.161,108.518,108.519C380.57,503.16,401.909,512,424.608,512s44.037-8.84,60.088-24.889    c16.051-16.049,24.889-37.389,24.889-60.088C509.585,404.324,500.745,382.986,484.695,366.935z M140.041,239.957    c-21.625-21.626-23.39-55.706-5.294-79.365l109.917,109.917l-37.035,37.035L140.041,239.957z M340.793,440.709l-73.455-73.455    l37.035-37.035l49.587,49.587C341.799,397.99,337.417,419.858,340.793,440.709z M473.357,475.773    c-13.021,13.022-30.334,20.194-48.749,20.194s-35.729-7.171-48.75-20.194c-26.88-26.881-26.88-70.62,0-97.501    c13.021-13.021,30.334-20.192,48.75-20.192s35.729,7.171,48.749,20.194c13.022,13.022,20.195,30.335,20.195,48.75    C493.552,445.438,486.379,462.752,473.357,475.773z"/>
	</g>
</g>
<g>
	<g>
		<path d="M117.248,397.168c-16.462-16.462-43.247-16.463-59.709,0c-16.462,16.462-16.462,43.247,0,59.709    c8.232,8.232,19.043,12.347,29.855,12.347c10.811,0,21.624-4.115,29.854-12.346c7.975-7.974,12.366-18.577,12.366-29.855    S125.223,405.143,117.248,397.168z M105.91,445.54c-10.211,10.21-26.825,10.21-37.035,0c-10.21-10.211-10.21-26.824,0-37.035    c10.211-10.211,26.825-10.209,37.035,0C116.005,418.6,116.005,435.446,105.91,445.54z"/>
	</g>
</g>
<g>
	<g>
		<path d="M256,292.877c-13.851,0-25.119,11.268-25.119,25.119c0,13.851,11.268,25.119,25.119,25.119s25.119-11.268,25.119-25.119    C281.119,304.145,269.85,292.877,256,292.877z M256,327.081c-5.01,0-9.086-4.076-9.086-9.086c0-5.01,4.076-9.086,9.086-9.086    s9.086,4.076,9.086,9.086C265.085,323.006,261.01,327.081,256,327.081z"/>
	</g>
</g>
<g>
	<g>
		<path d="M256,222.33c-4.427,0-8.017,3.589-8.017,8.017v17.102c0,4.427,3.589,8.017,8.017,8.017c4.428,0,8.017-3.589,8.017-8.017    v-17.102C264.017,225.919,260.428,222.33,256,222.33z"/>
	</g>
</g>
<g>
	<g>
		<path d="M256,166.358c-4.427,0-8.017,3.589-8.017,8.017v18.658c0,4.427,3.589,8.017,8.017,8.017c4.428,0,8.017-3.589,8.017-8.017    v-18.658C264.017,169.948,260.428,166.358,256,166.358z"/>
	</g>
</g>
<g>
	<g>
		<path d="M256,54.416c-4.427,0-8.017,3.589-8.017,8.017v18.658c0,4.427,3.589,8.017,8.017,8.017c4.428,0,8.017-3.589,8.017-8.017    V62.433C264.017,58.006,260.428,54.416,256,54.416z"/>
	</g>
</g>
<g>
	<g>
		<path d="M256,110.388c-4.427,0-8.017,3.589-8.017,8.017v18.658c0,4.427,3.589,8.017,8.017,8.017c4.428,0,8.017-3.589,8.017-8.017    v-18.658C264.017,113.977,260.428,110.388,256,110.388z"/>
	</g>
</g>
<g>
	<g>
		<path d="M256,0c-4.427,0-8.017,3.589-8.017,8.017v17.102c0,4.427,3.589,8.017,8.017,8.017c4.428,0,8.017-3.589,8.017-8.017V8.017    C264.017,3.589,260.428,0,256,0z"/>
	</g>
</g>
<g>
</g>
<g>
</g>
<g>
</g>
<g>
</g>
<g>
</g>
<g>
</g>
<g>
</g>
<g>
</g>
<g>
</g>
<g>
</g>
<g>
</g>
<g>
</g>
<g>
</g>
<g>
</g>
<g>
</g>
</svg>
