<?xml version="1.0" encoding="iso-8859-1"?>
<!-- Generator: Adobe Illustrator 19.0.0, SVG Export Plug-In . SVG Version: 6.00 Build 0)  -->
<svg xmlns="http://www.w3.org/2000/svg" xmlns:xlink="http://www.w3.org/1999/xlink" version="1.1" id="Layer_1" x="0px" y="0px" viewBox="0 0 512 512" style="enable-background:new 0 0 512 512;" xml:space="preserve">
<g>
	<g>
		<path d="M503.983,247.983c-4.427,0-8.017,3.589-8.017,8.017v64.134c0,4.362,0,17.637-26.188,17.637H42.221    c-26.188,0-26.188-13.275-26.188-17.637V140.56c0-14.44,11.748-26.188,26.188-26.188h42.756c4.427,0,8.017-3.589,8.017-8.017    s-3.589-8.017-8.017-8.017H42.221C18.941,98.338,0,117.279,0,140.56v179.574c0,21.083,15.784,33.67,42.221,33.67H52.37    l6.26,43.825h-7.858c-4.427,0-8.017,3.589-8.017,8.017c0,4.427,3.589,8.017,8.017,8.017h68.409c4.427,0,8.017-3.589,8.017-8.017    c0-4.427-3.589-8.017-8.017-8.017h-7.859l6.26-43.825h276.833l6.26,43.825h-7.859c-4.427,0-8.017,3.589-8.017,8.017    c0,4.427,3.589,8.017,8.017,8.017h68.409c4.427,0,8.017-3.589,8.017-8.017c0-4.427-3.589-8.017-8.017-8.017h-7.858l6.26-43.825    h10.149c26.437,0,42.221-12.587,42.221-33.67V256C512,251.572,508.411,247.983,503.983,247.983z M95.126,397.628H74.828    l-6.26-43.825h32.82L95.126,397.628z M437.172,397.628h-20.298l-6.26-43.825h32.82L437.172,397.628z"/>
	</g>
</g>
<g>
	<g>
		<path d="M469.779,98.338H127.733c-4.427,0-8.017,3.589-8.017,8.017s3.589,8.017,8.017,8.017h342.046    c14.44,0,26.188,11.748,26.188,26.188v72.685c0,4.427,3.589,8.017,8.017,8.017c4.427,0,8.017-3.589,8.017-8.017V140.56    C512,117.279,493.059,98.338,469.779,98.338z"/>
	</g>
</g>
<g>
	<g>
		<path d="M384.267,132.543c-51.572,0-93.528,41.956-93.528,93.528c0,14.306,3.148,28.04,9.356,40.82    c1.935,3.983,6.733,5.642,10.714,3.708c3.983-1.935,5.643-6.731,3.708-10.714c-5.138-10.579-7.744-21.956-7.744-33.814    c0-42.731,34.764-77.495,77.495-77.495s77.495,34.764,77.495,77.495s-34.764,77.495-77.495,77.495    c-18.9,0-37.104-6.88-51.258-19.373c-3.319-2.93-8.384-2.615-11.315,0.705c-2.93,3.32-2.613,8.385,0.705,11.316    c17.085,15.079,39.056,23.384,61.868,23.384c51.572,0,93.528-41.956,93.528-93.528S435.839,132.543,384.267,132.543z"/>
	</g>
</g>
<g>
	<g>
		<path d="M384.267,158.196c-37.426,0-67.875,30.448-67.875,67.875s30.448,67.875,67.875,67.875    c37.426,0,67.875-30.448,67.875-67.875S421.693,158.196,384.267,158.196z M384.267,277.912c-28.585,0-51.841-23.256-51.841-51.841    s23.256-51.841,51.841-51.841c28.585,0,51.841,23.256,51.841,51.841S412.853,277.912,384.267,277.912z"/>
	</g>
</g>
<g>
	<g>
		<path d="M247.449,149.645H59.324c-4.427,0-8.017,3.589-8.017,8.017s3.589,8.017,8.017,8.017h188.125    c4.427,0,8.017-3.589,8.017-8.017S251.876,149.645,247.449,149.645z"/>
	</g>
</g>
<g>
	<g>
		<path d="M247.449,183.85H59.324c-4.427,0-8.017,3.589-8.017,8.017s3.589,8.017,8.017,8.017h188.125    c4.427,0,8.017-3.589,8.017-8.017S251.876,183.85,247.449,183.85z"/>
	</g>
</g>
<g>
	<g>
		<path d="M247.449,218.054H59.324c-4.427,0-8.017,3.589-8.017,8.017s3.589,8.017,8.017,8.017h188.125    c4.427,0,8.017-3.589,8.017-8.017S251.876,218.054,247.449,218.054z"/>
	</g>
</g>
<g>
	<g>
		<path d="M76.426,269.361c-13.851,0-25.119,11.268-25.119,25.119c0,13.851,11.268,25.119,25.119,25.119    s25.119-11.268,25.119-25.119C101.545,280.629,90.277,269.361,76.426,269.361z M76.426,303.566c-5.01,0-9.086-4.076-9.086-9.086    c0-5.01,4.076-9.086,9.086-9.086s9.086,4.076,9.086,9.086C85.511,299.49,81.436,303.566,76.426,303.566z"/>
	</g>
</g>
<g>
	<g>
		<path d="M153.386,269.361c-13.851,0-25.119,11.268-25.119,25.119c0,13.851,11.268,25.119,25.119,25.119    s25.119-11.268,25.119-25.119C178.505,280.629,167.237,269.361,153.386,269.361z M153.386,303.566    c-5.01,0-9.086-4.076-9.086-9.086c0-5.01,4.076-9.086,9.086-9.086s9.086,4.076,9.086,9.086    C162.472,299.49,158.396,303.566,153.386,303.566z"/>
	</g>
</g>
<g>
	<g>
		<path d="M230.347,269.361c-13.851,0-25.119,11.268-25.119,25.119c0,13.851,11.268,25.119,25.119,25.119    s25.119-11.268,25.119-25.119C255.466,280.629,244.197,269.361,230.347,269.361z M230.347,303.566    c-5.01,0-9.086-4.076-9.086-9.086c0-5.01,4.076-9.086,9.086-9.086s9.086,4.076,9.086,9.086    C239.432,299.49,235.356,303.566,230.347,303.566z"/>
	</g>
</g>
<g>
</g>
<g>
</g>
<g>
</g>
<g>
</g>
<g>
</g>
<g>
</g>
<g>
</g>
<g>
</g>
<g>
</g>
<g>
</g>
<g>
</g>
<g>
</g>
<g>
</g>
<g>
</g>
<g>
</g>
</svg>
