<?xml version="1.0" encoding="iso-8859-1"?>
<!-- Generator: Adobe Illustrator 19.0.0, SVG Export Plug-In . SVG Version: 6.00 Build 0)  -->
<svg xmlns="http://www.w3.org/2000/svg" xmlns:xlink="http://www.w3.org/1999/xlink" version="1.1" id="Layer_1" x="0px" y="0px" viewBox="0 0 512 512" style="enable-background:new 0 0 512 512;" xml:space="preserve">
<g>
	<g>
		<path d="M418.472,0H93.528C70.248,0,51.307,18.941,51.307,42.221v316.392c0,4.427,3.588,8.017,8.017,8.017    c4.428,0,8.017-3.589,8.017-8.017V42.221c0-14.44,11.747-26.188,26.188-26.188h324.944c14.441,0,26.188,11.748,26.188,26.188    v427.557c0,14.44-11.747,26.188-26.188,26.188H93.528c-14.441,0-26.188-11.748-26.188-26.188V401.37    c0-4.427-3.588-8.017-8.017-8.017c-4.428,0-8.017,3.589-8.017,8.017v68.409c0,23.281,18.941,42.221,42.221,42.221h324.944    c23.281,0,42.221-18.941,42.221-42.221V42.221C460.693,18.941,441.752,0,418.472,0z"/>
	</g>
</g>
<g>
	<g>
		<path d="M392.818,34.205H196.142c-4.428,0-8.017,3.589-8.017,8.017c0,4.427,3.588,8.017,8.017,8.017h196.676    c5.01,0,9.086,4.076,9.086,9.086v76.96c0,5.01-4.076,9.086-9.086,9.086H119.182c-5.01,0-9.086-4.076-9.086-9.086v-76.96    c0-5.01,4.076-9.086,9.086-9.086h34.205c4.428,0,8.017-3.589,8.017-8.017c0-4.427-3.588-8.017-8.017-8.017h-34.205    c-13.851,0-25.119,11.268-25.119,25.119v76.96c0,13.851,11.268,25.119,25.119,25.119h273.637    c13.851,0,25.119-11.268,25.119-25.119v-76.96C417.937,45.473,406.669,34.205,392.818,34.205z"/>
	</g>
</g>
<g>
	<g>
		<path d="M367.165,59.858h-25.653c-4.428,0-8.017,3.589-8.017,8.017s3.588,8.017,8.017,8.017h25.653    c4.428,0,8.017-3.589,8.017-8.017S371.593,59.858,367.165,59.858z"/>
	</g>
</g>
<g>
	<g>
		<path d="M367.165,119.716h-25.653c-4.428,0-8.017,3.589-8.017,8.017s3.588,8.017,8.017,8.017h25.653    c4.428,0,8.017-3.589,8.017-8.017S371.593,119.716,367.165,119.716z"/>
	</g>
</g>
<g>
	<g>
		<path d="M332.96,76.96c-4.428,0-8.017,3.589-8.017,8.017v25.653c0,4.427,3.588,8.017,8.017,8.017c4.428,0,8.017-3.589,8.017-8.017    V84.977C340.977,80.55,337.389,76.96,332.96,76.96z"/>
	</g>
</g>
<g>
	<g>
		<path d="M375.716,76.96c-4.428,0-8.017,3.589-8.017,8.017v25.653c0,4.427,3.588,8.017,8.017,8.017    c4.428,0,8.017-3.589,8.017-8.017V84.977C383.733,80.55,380.145,76.96,375.716,76.96z"/>
	</g>
</g>
<g>
	<g>
		<path d="M376.785,188.125h-85.511c-13.851,0-25.119,11.268-25.119,25.119v85.511c0,13.851,11.268,25.119,25.119,25.119h85.511    c13.851,0,25.119-11.268,25.119-25.119v-85.511C401.904,199.394,390.636,188.125,376.785,188.125z M385.871,298.756    c0,5.01-4.076,9.086-9.086,9.086h-85.511c-5.01,0-9.086-4.076-9.086-9.086v-85.511c0-5.01,4.076-9.086,9.086-9.086h85.511    c5.01,0,9.086,4.076,9.086,9.086V298.756z"/>
	</g>
</g>
<g>
	<g>
		<path d="M368.234,247.983h-68.409c-4.428,0-8.017,3.589-8.017,8.017s3.588,8.017,8.017,8.017h68.409    c4.428,0,8.017-3.589,8.017-8.017S372.662,247.983,368.234,247.983z"/>
	</g>
</g>
<g>
	<g>
		<path d="M376.785,342.046h-85.511c-13.851,0-25.119,11.268-25.119,25.119v85.511c0,13.851,11.268,25.119,25.119,25.119h85.511    c13.851,0,25.119-11.268,25.119-25.119v-85.511C401.904,353.314,390.636,342.046,376.785,342.046z M385.871,452.676    c0,5.01-4.076,9.086-9.086,9.086h-85.511c-5.01,0-9.086-4.076-9.086-9.086v-85.511c0-5.01,4.076-9.086,9.086-9.086h85.511    c5.01,0,9.086,4.076,9.086,9.086V452.676z"/>
	</g>
</g>
<g>
	<g>
		<path d="M368.234,384.802h-68.409c-4.428,0-8.017,3.589-8.017,8.017c0,4.427,3.588,8.017,8.017,8.017h68.409    c4.428,0,8.017-3.589,8.017-8.017C376.251,388.391,372.662,384.802,368.234,384.802z"/>
	</g>
</g>
<g>
	<g>
		<path d="M368.234,419.006h-68.409c-4.428,0-8.017,3.589-8.017,8.017c0,4.427,3.588,8.017,8.017,8.017h68.409    c4.428,0,8.017-3.589,8.017-8.017C376.251,422.596,372.662,419.006,368.234,419.006z"/>
	</g>
</g>
<g>
	<g>
		<path d="M220.727,188.125h-85.511c-13.851,0-25.119,11.268-25.119,25.119v85.511c0,13.851,11.268,25.119,25.119,25.119h85.511    c13.851,0,25.119-11.268,25.119-25.119v-85.511C245.846,199.394,234.577,188.125,220.727,188.125z M229.812,298.756    c0,5.01-4.076,9.086-9.086,9.086h-85.511c-5.01,0-9.086-4.076-9.086-9.086v-85.511c0-5.01,4.076-9.086,9.086-9.086h85.511    c5.01,0,9.086,4.076,9.086,9.086V298.756z"/>
	</g>
</g>
<g>
	<g>
		<path d="M212.175,247.983h-26.188v-26.188c0-4.427-3.588-8.017-8.017-8.017c-4.428,0-8.017,3.589-8.017,8.017v26.188h-26.188    c-4.428,0-8.017,3.589-8.017,8.017s3.588,8.017,8.017,8.017h26.188v26.188c0,4.427,3.588,8.017,8.017,8.017    c4.428,0,8.017-3.589,8.017-8.017v-26.188h26.188c4.428,0,8.017-3.589,8.017-8.017S216.604,247.983,212.175,247.983z"/>
	</g>
</g>
<g>
	<g>
		<path d="M220.727,342.046h-85.511c-13.851,0-25.119,11.268-25.119,25.119v85.511c0,13.851,11.268,25.119,25.119,25.119h85.511    c13.851,0,25.119-11.268,25.119-25.119v-85.511C245.846,353.314,234.577,342.046,220.727,342.046z M229.812,452.676    c0,5.01-4.076,9.086-9.086,9.086h-85.511c-5.01,0-9.086-4.076-9.086-9.086v-85.511c0-5.01,4.076-9.086,9.086-9.086h85.511    c5.01,0,9.086,4.076,9.086,9.086V452.676z"/>
	</g>
</g>
<g>
	<g>
		<path d="M189.309,409.921l18.518-18.518c3.131-3.131,3.131-8.207,0-11.337c-3.132-3.131-8.207-3.131-11.338,0l-18.518,18.516    l-18.516-18.518c-3.131-3.131-8.206-3.132-11.338,0c-3.131,3.131-3.131,8.207,0,11.337l18.518,18.518l-18.518,18.518    c-3.131,3.132-3.131,8.208-0.001,11.339c1.566,1.565,3.618,2.348,5.669,2.348s4.104-0.782,5.669-2.348l18.516-18.518    l18.516,18.518c1.566,1.566,3.617,2.348,5.669,2.348c2.051,0,4.104-0.782,5.669-2.348c3.131-3.131,3.131-8.207,0-11.337    L189.309,409.921z"/>
	</g>
</g>
<g>
</g>
<g>
</g>
<g>
</g>
<g>
</g>
<g>
</g>
<g>
</g>
<g>
</g>
<g>
</g>
<g>
</g>
<g>
</g>
<g>
</g>
<g>
</g>
<g>
</g>
<g>
</g>
<g>
</g>
</svg>
