<?xml version="1.0" encoding="iso-8859-1"?>
<!-- Generator: Adobe Illustrator 19.0.0, SVG Export Plug-In . SVG Version: 6.00 Build 0)  -->
<svg xmlns="http://www.w3.org/2000/svg" xmlns:xlink="http://www.w3.org/1999/xlink" version="1.1" id="Layer_1" x="0px" y="0px" viewBox="0 0 512 512" style="enable-background:new 0 0 512 512;" xml:space="preserve">
<g>
	<g>
		<path d="M406.353,0.041H194.435c-4.389,0-7.947,3.558-7.947,7.947c0,4.389,3.558,7.947,7.947,7.947h211.918    c4.966,0,9.007,4.04,9.007,9.007v220.395c0,4.389,3.557,7.947,7.947,7.947s7.947-3.558,7.947-7.947V24.942    C431.254,11.212,420.084,0.041,406.353,0.041z"/>
	</g>
</g>
<g>
	<g>
		<path d="M313.109,84.809H169.005c-4.389,0-7.947,3.558-7.947,7.947c0,4.389,3.558,7.947,7.947,7.947h144.104    c4.39,0,7.947-3.558,7.947-7.947C321.056,88.367,317.499,84.809,313.109,84.809z"/>
	</g>
</g>
<g>
	<g>
		<path d="M313.109,135.669h-93.244c-4.389,0-7.947,3.558-7.947,7.947c0,4.389,3.558,7.947,7.947,7.947h93.244    c4.39,0,7.947-3.558,7.947-7.947C321.056,139.227,317.499,135.669,313.109,135.669z"/>
	</g>
</g>
<g>
	<g>
		<path d="M185.958,135.669h-16.953c-4.389,0-7.947,3.558-7.947,7.947c0,4.389,3.558,7.947,7.947,7.947h16.953    c4.389,0,7.947-3.558,7.947-7.947C193.905,139.227,190.347,135.669,185.958,135.669z"/>
	</g>
</g>
<g>
	<g>
		<path d="M253.772,186.53h-84.767c-4.389,0-7.947,3.558-7.947,7.947c0,4.389,3.558,7.947,7.947,7.947h84.767    c4.39,0,7.947-3.558,7.947-7.947C261.719,190.088,258.162,186.53,253.772,186.53z"/>
	</g>
</g>
<g>
	<g>
		<path d="M504.719,457.557l-73.465-73.465v-96.372c0-4.389-3.557-7.947-7.947-7.947s-7.947,3.558-7.947,7.947v80.478    l-18.013-18.013V58.849c0-13.73-11.17-24.9-24.9-24.9H84.238c-4.389,0-7.947,3.558-7.947,7.947v25.96H58.278V24.942    c0-4.966,4.04-9.007,9.007-9.007h84.767c4.389,0,7.947-3.558,7.947-7.947c0-4.389-3.558-7.947-7.947-7.947H67.284    c-13.73,0-24.9,11.17-24.9,24.9v42.914H24.9c-13.73,0-24.9,11.17-24.9,24.9c0,13.73,11.17,24.9,24.9,24.9h17.483v77.35H24.9    c-13.73,0-24.9,11.17-24.9,24.9s11.17,24.9,24.9,24.9h17.483v77.35H24.9c-13.73,0-24.9,11.17-24.9,24.9    c0,13.73,11.17,24.9,24.9,24.9h17.483v42.914c0,13.73,11.17,24.9,24.9,24.9h325.244l64.988,64.987    c9.598,9.598,25.616,9.6,35.213,0l11.989-11.988C514.427,483.063,514.427,467.265,504.719,457.557z M372.447,49.842    c4.966,0,9.007,4.04,9.007,9.007v275.443l-26.49-26.49V58.849c0-3.176-0.604-6.211-1.692-9.007H372.447z M92.185,49.843h34.966    v68.343c0,4.389,3.558,7.947,7.947,7.947c4.389,0,7.947-3.558,7.947-7.947V49.842h187.018c4.966,0,9.007,4.04,9.007,9.007v233.059    l-38.145-38.145c-0.05-0.05-0.105-0.093-0.157-0.141c-0.11-0.105-0.221-0.208-0.339-0.306c-0.103-0.087-0.209-0.168-0.315-0.249    c-0.096-0.073-0.194-0.147-0.295-0.216c-0.137-0.094-0.275-0.182-0.416-0.267c-0.053-0.032-0.102-0.069-0.157-0.101    l-83.915-47.952c-3.131-1.786-7.224-1.191-9.697,1.429c-2.375,2.517-2.867,6.394-1.145,9.413l47.952,83.915    c0.022,0.038,0.05,0.072,0.073,0.11c0.135,0.226,0.281,0.445,0.439,0.659c0.051,0.069,0.1,0.14,0.151,0.207    c0.191,0.242,0.394,0.478,0.617,0.7l0.008,0.008c0.014,0.014,0.029,0.029,0.042,0.042l88.955,88.956h-199.68V160.571    c0-4.389-3.558-7.947-7.947-7.947c-4.389,0-7.947,3.558-7.947,7.947v229.402H92.185v-18.013h0.53c13.73,0,24.9-11.17,24.9-24.9    c0-13.73-11.17-24.9-24.9-24.9h-0.53v-77.35h0.53c13.73,0,24.9-11.17,24.9-24.9s-11.17-24.9-24.9-24.9h-0.53v-77.35h0.53    c13.73,0,24.9-11.17,24.9-24.9c0-13.73-11.17-24.9-24.9-24.9h-0.53V49.843z M266.434,252.038l15.893,9.082l-21.25,21.25    l-9.082-15.893L266.434,252.038z M243.823,252.172l-11.077-19.385l19.385,11.077L243.823,252.172z M24.9,101.762    c-4.966,0-9.007-4.04-9.007-9.007s4.04-9.007,9.007-9.007h67.814c4.966,0,9.007,4.04,9.007,9.007s-4.04,9.007-9.007,9.007H24.9z     M76.291,117.656v77.35H58.278v-77.35H76.291z M24.9,228.913c-4.966,0-9.007-4.04-9.007-9.007s4.04-9.007,9.007-9.007h67.814    c4.966,0,9.007,4.04,9.007,9.007s-4.04,9.007-9.007,9.007H24.9z M76.291,244.807v77.35H58.278v-77.35H76.291z M24.9,356.064    c-4.966,0-9.007-4.04-9.007-9.007s4.04-9.007,9.007-9.007h67.814c4.966,0,9.007,4.04,9.007,9.007s-4.04,9.007-9.007,9.007H24.9z     M67.284,423.878c-4.966,0-9.007-4.04-9.007-9.007v-42.914h18.013v25.96c0,4.389,3.558,7.947,7.947,7.947h274.383l18.013,18.013    H67.284z M270.579,295.345l24.724-24.724l168.579,168.58l-24.723,24.724L270.579,295.345z M493.48,481.533l-11.989,11.988    c-3.471,3.471-9.265,3.471-12.736,0l-18.356-18.356l24.724-24.724l18.356,18.356C496.991,472.307,496.991,478.021,493.48,481.533z    "/>
	</g>
</g>
<g>
</g>
<g>
</g>
<g>
</g>
<g>
</g>
<g>
</g>
<g>
</g>
<g>
</g>
<g>
</g>
<g>
</g>
<g>
</g>
<g>
</g>
<g>
</g>
<g>
</g>
<g>
</g>
<g>
</g>
</svg>
