<?xml version="1.0" encoding="iso-8859-1"?>
<!-- Generator: Adobe Illustrator 19.0.0, SVG Export Plug-In . SVG Version: 6.00 Build 0)  -->
<svg xmlns="http://www.w3.org/2000/svg" xmlns:xlink="http://www.w3.org/1999/xlink" version="1.1" id="Layer_1" x="0px" y="0px" viewBox="0 0 512 512" style="enable-background:new 0 0 512 512;" xml:space="preserve">
<g>
	<g>
		<path d="M503.983,171.023h-42.756c-4.427,0-8.017,3.589-8.017,8.017s3.589,8.017,8.017,8.017h34.739v274.706h-35.273V238.898    c0-13.851-11.268-25.119-25.119-25.119H187.056v-26.722h231.415c4.427,0,8.017-3.589,8.017-8.017s-3.589-8.017-8.017-8.017    h-60.392V8.017c0-4.427-3.589-8.017-8.017-8.017H161.937c-4.427,0-8.017,3.589-8.017,8.017c0,4.427,3.589,8.017,8.017,8.017    h180.109v154.99h-154.99v-0.534c0-13.851-11.268-25.119-25.119-25.119H50.238V16.033h68.944c4.427,0,8.017-3.589,8.017-8.017    c0-4.427-3.589-8.017-8.017-8.017h-76.96c-4.427,0-8.017,3.589-8.017,8.017V145.37h-9.086C11.268,145.37,0,156.638,0,170.489    v51.307c0,4.427,3.589,8.017,8.017,8.017c4.427,0,8.017-3.589,8.017-8.017v-51.307c0-5.01,4.076-9.086,9.086-9.086h136.818    c5.01,0,9.086,4.076,9.086,9.086v51.307c0,4.427,3.589,8.017,8.017,8.017h256.534c5.01,0,9.086,4.076,9.086,9.086v247.983    c0,5.01-4.076,9.086-9.086,9.086H25.119c-5.01,0-9.086-4.076-9.086-9.086v-222.33c0-4.427-3.589-8.017-8.017-8.017    c-4.427,0-8.017,3.589-8.017,8.017v222.33C0,500.732,11.268,512,25.119,512h410.455c13.851,0,25.119-11.268,25.119-25.119v-9.086    h43.29c4.427,0,8.017-3.589,8.017-8.017V179.04C512,174.612,508.411,171.023,503.983,171.023z"/>
	</g>
</g>
<g>
	<g>
		<path d="M298.756,51.307h-76.96c-4.427,0-8.017,3.589-8.017,8.017s3.589,8.017,8.017,8.017h76.96c4.427,0,8.017-3.589,8.017-8.017    S303.183,51.307,298.756,51.307z"/>
	</g>
</g>
<g>
	<g>
		<path d="M298.756,85.511H93.528c-4.427,0-8.017,3.589-8.017,8.017s3.589,8.017,8.017,8.017h205.228    c4.427,0,8.017-3.589,8.017-8.017S303.183,85.511,298.756,85.511z"/>
	</g>
</g>
<g>
	<g>
		<path d="M298.756,119.716H93.528c-4.427,0-8.017,3.589-8.017,8.017s3.589,8.017,8.017,8.017h205.228    c4.427,0,8.017-3.589,8.017-8.017S303.183,119.716,298.756,119.716z"/>
	</g>
</g>
<g>
	<g>
		<path d="M384.267,359.148c-4.083,0-7.999,0.732-11.623,2.069l-36.955-44.346c3.438-5.36,5.288-11.591,5.288-18.116    c0-18.566-15.105-33.67-33.67-33.67s-33.67,15.105-33.67,33.67c0,6.739,1.967,13.16,5.622,18.633l-32.771,45.879    c-12.342-6.766-28.004-4.939-38.5,4.405l-21.288-21.288c0.232-1.592,0.357-3.218,0.357-4.873c0-18.566-15.105-33.67-33.67-33.67    s-33.67,15.104-33.67,33.67c0,6.525,1.85,12.755,5.288,18.116l-31.823,38.187c-5.046-2.905-10.783-4.462-16.755-4.462    c-9.56,0-18.705,4.09-25.089,11.221c0,0-0.001,0.001-0.001,0.002c-5.533,6.179-8.58,14.151-8.58,22.447    c0,18.566,15.105,33.67,33.67,33.67s33.67-15.105,33.67-33.67c0-6.466-1.859-12.731-5.295-18.107l31.83-38.196    c5.046,2.906,10.784,4.462,16.755,4.462c10.749,0,20.33-5.07,26.499-12.936l18.885,18.885c-1.352,3.643-2.095,7.58-2.095,11.687    c0,8.296,3.047,16.268,8.58,22.448l0.001,0.001c6.387,7.132,15.531,11.221,25.091,11.221s18.705-4.09,25.089-11.221    c0,0,0.001-0.001,0.001-0.002c5.533-6.179,8.58-14.152,8.58-22.447c0-6.739-1.967-13.16-5.622-18.633l32.771-45.879    c10.161,5.57,22.854,5.442,32.897-0.341l35.239,42.288c-5.406,5.975-8.705,13.892-8.705,22.566c0,18.566,15.105,33.67,33.67,33.67    c18.566,0,33.67-15.105,33.67-33.67S402.833,359.148,384.267,359.148z M76.426,444.66c-9.725,0-17.637-7.912-17.637-17.637    c0-4.344,1.596-8.518,4.494-11.755c3.347-3.739,8.136-5.882,13.143-5.882c4.674,0,9.079,1.812,12.403,5.103    c0.084,0.083,0.176,0.157,0.264,0.236c0.049,0.044,0.095,0.091,0.144,0.134c0.108,0.138,0.213,0.277,0.331,0.409    c2.898,3.237,4.494,7.411,4.494,11.755C94.063,436.748,86.151,444.66,76.426,444.66z M153.386,359.148    c-9.61,0-17.637-8.026-17.637-17.637c0-9.725,7.912-17.637,17.637-17.637s17.637,7.912,17.637,17.637    S163.111,359.148,153.386,359.148z M243.49,404.573c-6.914,7.723-19.373,7.723-26.286,0c-2.898-3.237-4.494-7.411-4.494-11.755    c0-9.725,7.912-17.637,17.637-17.637c4.642,0,9.027,1.793,12.346,5.048c0.001,0.001,0.001,0.001,0.002,0.002    c3.41,3.347,5.289,7.817,5.289,12.586C247.983,397.162,246.387,401.336,243.49,404.573z M319.71,311.29    c-6.763,6.693-17.955,6.718-24.75,0.055c-0.001-0.001-0.001-0.001-0.002-0.002c-3.41-3.347-5.289-7.817-5.289-12.586    c0.001-9.725,7.913-17.637,17.638-17.637s17.637,7.912,17.637,17.637C324.944,303.498,323.085,307.95,319.71,311.29z     M384.267,410.455c-9.725,0-17.637-7.912-17.637-17.637s7.912-17.637,17.637-17.637s17.637,7.912,17.637,17.637    S393.992,410.455,384.267,410.455z"/>
	</g>
</g>
<g>
</g>
<g>
</g>
<g>
</g>
<g>
</g>
<g>
</g>
<g>
</g>
<g>
</g>
<g>
</g>
<g>
</g>
<g>
</g>
<g>
</g>
<g>
</g>
<g>
</g>
<g>
</g>
<g>
</g>
</svg>
