<?xml version="1.0" encoding="iso-8859-1"?>
<!-- Generator: Adobe Illustrator 19.0.0, SVG Export Plug-In . SVG Version: 6.00 Build 0)  -->
<svg xmlns="http://www.w3.org/2000/svg" xmlns:xlink="http://www.w3.org/1999/xlink" version="1.1" id="Layer_1" x="0px" y="0px" viewBox="0 0 512.001 512.001" style="enable-background:new 0 0 512.001 512.001;" xml:space="preserve">
<g>
	<g>
		<path d="M394.483,81.274c-11.616-4.394-23.455-4.896-31.265-4.56c-4.334-29.471-29.751-52.363-60.367-52.635    c-16.503-0.139-32.137,6.189-43.891,17.839c-11.754,11.65-18.227,27.181-18.227,43.73v83.453h-79.639    c-4.519,0-8.182,3.663-8.182,8.182c0,4.519,3.662,8.183,8.181,8.183h87.821c0.041,0,0.081-0.005,0.122-0.007    c0.039,0,0.076,0.003,0.116,0.002c0.199-0.002,20.77-0.397,33.132,11.648c6.363,6.201,9.59,14.945,9.59,25.991    c0,4.519,3.662,8.182,8.182,8.182c4.52,0,8.182-3.663,8.182-8.182c0-15.682-4.925-28.404-14.636-37.81    c-11.545-11.182-27.042-14.664-36.506-15.732V85.649c0-12.151,4.752-23.555,13.384-32.109c8.632-8.554,20.09-13.228,32.226-13.098    c24.707,0.219,44.807,20.499,44.807,45.206v125.585c0,13.004-3.35,25.825-9.689,37.079c-2.217,3.937-0.824,8.927,3.114,11.144    c1.27,0.715,2.648,1.054,4.008,1.054c2.858,0,5.634-1.5,7.137-4.168c7.715-13.699,11.794-29.297,11.794-45.108V93.08    c6.199-0.266,15.776,0.081,24.817,3.5c0.953,0.361,1.932,0.531,2.893,0.531c3.303,0,6.416-2.016,7.654-5.29    C400.839,87.594,398.709,82.872,394.483,81.274z"/>
	</g>
</g>
<g>
	<g>
		<path d="M314.488,75.174c-4.1-6.239-13.967-3.775-14.912,3.539c-0.935,7.244,7.853,11.924,13.399,7.249    C316.129,83.305,316.75,78.601,314.488,75.174z"/>
	</g>
</g>
<g>
	<g>
		<path d="M503.819,418.51c-7.954,0-11.682-3.61-16.842-8.605c-6.079-5.887-13.646-13.214-28.223-13.214    c-14.578,0-22.145,7.327-28.225,13.214c-5.159,4.995-8.887,8.605-16.84,8.605c-4.52,0-8.182,3.663-8.182,8.182    s3.662,8.182,8.182,8.182c14.577,0,22.144-7.327,28.223-13.214c5.159-4.995,8.887-8.605,16.842-8.605    c7.953,0,11.681,3.61,16.84,8.605c6.08,5.887,13.647,13.214,28.225,13.214c4.52,0,8.182-3.663,8.182-8.182    S508.339,418.51,503.819,418.51z"/>
	</g>
</g>
<g>
	<g>
		<path d="M396.854,409.906c-6.078-5.887-13.642-13.215-28.221-13.215c-14.577,0-22.143,7.327-28.222,13.214    c-3.551,3.439-6.423,6.221-10.463,7.62c0.631-3.934,0.95-7.924,0.95-11.943c0-34.304-23.191-63.273-54.711-72.108v-30.303    c23.375-1.077,45.092-10.805,61.548-27.679c3.156-3.235,3.091-8.416-0.145-11.57c-3.235-3.156-8.417-3.09-11.569,0.145    c-14.369,14.733-33.613,22.848-54.187,22.848l-42.14,0.003c-57.7,0-105.132-44.807-109.331-101.452h16.185    c4.519,0,8.182-3.663,8.182-8.182s-3.663-8.182-8.182-8.182H111.88c-4.51,0-8.182,3.657-8.182,8.167    c-0.003,27.211,8.666,52.434,23.387,73.055l-38.826,38.826c-1.893,1.893-2.898,4.569-2.469,7.21    c0.663,4.09,4.144,6.922,8.089,6.922h135.816h4.973v30.533c-9.391,2.792-18.218,7.399-25.887,13.636    c-3.236,2.631-4.151,7.346-1.903,10.858c2.691,4.203,8.345,5.015,12.092,1.948c10.405-8.514,23.558-13.203,37.037-13.203    c32.273,0,58.529,26.256,58.529,58.529c0,3.439-0.308,6.847-0.897,10.2c-2.374-1.503-4.482-3.535-6.901-5.878    c-6.079-5.887-13.644-13.215-28.22-13.215c-14.576,0-22.142,7.327-28.221,13.215c-5.158,4.995-8.885,8.604-16.836,8.604    c-7.95,0-11.675-3.609-16.832-8.604c-4.58-4.436-10.007-9.686-18.639-12.007c0.807-6.213,2.59-12.204,5.351-17.883    c1.921-3.951,0.506-8.881-3.358-10.972c-4.112-2.223-9.209-0.568-11.248,3.589c-3.829,7.81-6.211,16.079-7.148,24.661    c-10.263,1.855-16.35,7.722-21.398,12.61c-5.158,4.995-8.885,8.604-16.836,8.604s-11.679-3.61-16.836-8.604    c-6.079-5.887-13.643-13.215-28.221-13.215s-22.142,7.327-28.221,13.215c-5.158,4.995-8.885,8.604-16.836,8.604    c-7.951,0-11.677-3.609-16.835-8.604c-6.079-5.888-13.643-13.215-28.219-13.215c-4.653,0-8.398,3.884-8.172,8.586    c0.205,4.349,3.972,7.756,8.323,7.781c7.845,0.047,11.556,3.642,16.681,8.604c6.079,5.888,13.643,13.215,28.219,13.215    c14.577,0,22.142-7.327,28.221-13.215c5.158-4.995,8.885-8.604,16.837-8.604c7.952,0,11.679,3.609,16.836,8.604    c6.079,5.887,13.644,13.215,28.222,13.215c14.577,0,22.142-7.327,28.221-13.215c5.158-4.995,8.885-8.604,16.835-8.604    c7.95,0,11.676,3.609,16.833,8.604c6.078,5.887,13.642,13.215,28.218,13.215c14.577,0,22.142-7.327,28.22-13.215    c5.158-4.995,8.885-8.604,16.837-8.604c7.952,0,11.678,3.609,16.836,8.604c5.26,5.095,11.644,11.257,22.71,12.827    c0.041,0.007,0.082,0.014,0.123,0.021c1.685,0.233,3.472,0.367,5.388,0.367c14.577,0,22.144-7.327,28.223-13.215    c5.159-4.995,8.886-8.604,16.838-8.604c7.85,0,11.583,3.517,16.639,8.413c2.995,2.9,7.752,3.325,10.997,0.708    C400.178,419.024,400.346,413.288,396.854,409.906z M113.629,286.917l23.86-23.86c8.754,9.404,18.922,17.473,30.167,23.86H113.629    z M259.821,330.786c-1.264-0.064-2.538-0.097-3.818-0.097c-1.664,0-3.321,0.073-4.975,0.184v-27.592h4.845    c0.081,0,0.159-0.001,0.241-0.003h3.707V330.786z"/>
	</g>
</g>
<g>
	<g>
		<path d="M503.818,471.56c-7.954,0-11.682-3.61-16.841-8.605c-6.08-5.887-13.647-13.214-28.224-13.214    c-14.578,0-22.145,7.327-28.225,13.214c-5.159,4.995-8.887,8.605-16.84,8.605c-7.952,0-11.679-3.61-16.838-8.605    c-6.079-5.887-13.644-13.214-28.221-13.214c-14.577,0-22.143,7.327-28.222,13.214c-5.159,4.995-8.886,8.605-16.839,8.605    c-7.952,0-11.679-3.609-16.837-8.604c-6.079-5.887-13.644-13.215-28.221-13.215c-14.576,0-22.142,7.327-28.22,13.215    c-5.158,4.995-8.885,8.604-16.837,8.604c-7.95,0-11.675-3.609-16.832-8.604c-6.078-5.888-13.642-13.215-28.218-13.215    c-14.576,0-22.142,7.327-28.22,13.215c-5.158,4.995-8.885,8.604-16.837,8.604c-7.952,0-11.679-3.609-16.836-8.604    c-3.247-3.144-8.428-3.061-11.569,0.185c-3.144,3.247-3.061,8.426,0.185,11.569c6.079,5.887,13.644,13.214,28.22,13.214    c14.577,0,22.142-7.327,28.221-13.215c5.158-4.995,8.885-8.604,16.835-8.604c7.95,0,11.676,3.609,16.833,8.604    c6.078,5.887,13.642,13.215,28.218,13.215c14.577,0,22.142-7.327,28.22-13.215c5.158-4.995,8.885-8.604,16.837-8.604    c7.952,0,11.678,3.609,16.836,8.604c6.079,5.887,13.644,13.215,28.221,13.215c14.577,0,22.144-7.327,28.223-13.215    c5.159-4.995,8.886-8.604,16.838-8.604c7.951,0,11.679,3.609,16.837,8.604c6.079,5.887,13.644,13.215,28.222,13.215    c14.577,0,22.144-7.327,28.224-13.214c5.159-4.997,8.887-8.605,16.841-8.605c7.953,0,11.681,3.61,16.84,8.605    c6.08,5.887,13.647,13.214,28.225,13.214c4.52,0,8.182-3.663,8.182-8.182S508.337,471.56,503.818,471.56z"/>
	</g>
</g>
<g>
	<g>
		<path d="M98.294,449.742c-14.577,0-22.142,7.327-28.22,13.215c-5.158,4.995-8.885,8.604-16.837,8.604    c-7.951,0-11.677-3.609-16.835-8.604c-6.079-5.888-13.643-13.215-28.219-13.215c-4.519,0-8.182,3.663-8.182,8.182    c0,4.519,3.663,8.182,8.182,8.182c7.951,0,11.677,3.609,16.835,8.604c6.079,5.887,13.643,13.215,28.219,13.215    c14.577,0,22.142-7.327,28.221-13.215c5.158-4.995,8.885-8.604,16.836-8.604c4.519,0,8.182-3.663,8.182-8.182    C106.476,453.405,102.813,449.742,98.294,449.742z"/>
	</g>
</g>
<g>
</g>
<g>
</g>
<g>
</g>
<g>
</g>
<g>
</g>
<g>
</g>
<g>
</g>
<g>
</g>
<g>
</g>
<g>
</g>
<g>
</g>
<g>
</g>
<g>
</g>
<g>
</g>
<g>
</g>
</svg>
