<?xml version="1.0" encoding="iso-8859-1"?>
<!-- Generator: Adobe Illustrator 19.0.0, SVG Export Plug-In . SVG Version: 6.00 Build 0)  -->
<svg xmlns="http://www.w3.org/2000/svg" xmlns:xlink="http://www.w3.org/1999/xlink" version="1.1" id="Layer_1" x="0px" y="0px" viewBox="0 0 512 512" style="enable-background:new 0 0 512 512;" xml:space="preserve">
<g>
	<g>
		<path d="M471.006,50.026c-2.469-4.066-7.766-5.359-11.831-2.891c-4.066,2.469-5.359,7.766-2.891,11.83    c25.182,41.469,38.492,89.031,38.492,137.545v95.088c-14.645-18.515-37.286-30.431-62.671-30.431H109.434    c-4.756,0-8.612,3.856-8.612,8.612s3.856,8.612,8.612,8.612h76.011c12.286,0,23.915,5.353,31.906,14.686    c7.989,9.333,11.487,21.648,9.592,33.787c-5.298,33.972-22.6,64.995-48.718,87.355c-26.118,22.361-59.437,34.674-93.82,34.674    c-37.043,0.001-67.181-30.137-67.181-67.18v-40.652c0-34.556,28.113-62.671,62.671-62.671h0.834c4.756,0,8.612-3.856,8.612-8.612    s-3.856-8.612-8.612-8.612h-0.834c-25.385,0-48.026,11.915-62.671,30.431V196.51c0-48.514,13.31-96.076,38.492-137.545    c2.469-4.066,1.174-9.363-2.891-11.83c-4.067-2.469-9.363-1.175-11.831,2.891C14.175,94.189,0,144.843,0,196.51v144.551v40.652    c0,46.541,37.864,84.404,84.406,84.404c38.488,0,75.785-13.785,105.021-38.815c27.358-23.423,46.073-55.337,53.224-90.5h26.699    c7.151,35.164,25.866,67.079,53.225,90.5c29.236,25.03,66.533,38.815,105.021,38.815c35.098,0,65.989-21.134,78.7-53.842    c1.722-4.433-0.474-9.424-4.908-11.146c-4.436-1.724-9.425,0.475-11.147,4.908c-10.117,26.035-34.708,42.857-62.645,42.857    c-34.383,0-67.701-12.315-93.82-34.674c-26.118-22.361-43.419-53.384-48.718-87.355c-1.893-12.139,1.603-24.454,9.594-33.787    c7.989-9.333,19.619-14.686,31.905-14.686h105.55c34.557,0,62.671,28.113,62.671,62.671v40.652c0,4.756,3.856,8.612,8.612,8.612    c4.756,0,8.612-3.856,8.612-8.612v-40.652V196.511C512,144.843,497.825,94.188,471.006,50.026z M281.567,281.875    c-9.085,10.612-14.043,23.958-14.225,37.703h-22.683c-0.183-13.745-5.141-27.091-14.225-37.703    c-1.04-1.216-2.139-2.367-3.264-3.485h57.661C283.706,279.509,282.608,280.659,281.567,281.875z"/>
	</g>
</g>
<g>
</g>
<g>
</g>
<g>
</g>
<g>
</g>
<g>
</g>
<g>
</g>
<g>
</g>
<g>
</g>
<g>
</g>
<g>
</g>
<g>
</g>
<g>
</g>
<g>
</g>
<g>
</g>
<g>
</g>
</svg>
