<?xml version="1.0" encoding="iso-8859-1"?>
<!-- Generator: Adobe Illustrator 19.0.0, SVG Export Plug-In . SVG Version: 6.00 Build 0)  -->
<svg xmlns="http://www.w3.org/2000/svg" xmlns:xlink="http://www.w3.org/1999/xlink" version="1.1" id="Layer_1" x="0px" y="0px" viewBox="0 0 512.001 512.001" style="enable-background:new 0 0 512.001 512.001;" xml:space="preserve">
<g>
	<g>
		<path d="M447.219,189.525c-12.407-46.938-55.252-80.316-104.413-80.316c-25.073,0-49.499,8.785-68.781,24.74    c-3.56,2.945-4.058,8.219-1.112,11.779c2.946,3.561,8.219,4.057,11.779,1.113c16.289-13.477,36.928-20.9,58.115-20.9    c43.524,0,81.187,30.953,89.557,73.599c0.802,4.083,4.484,6.961,8.638,6.743c0.935-0.048,2.034-0.097,3.103-0.097    c28.211,0,51.164,22.952,51.164,51.164c0,3.475-0.349,6.946-1.041,10.319c-0.926,4.527,1.992,8.947,6.519,9.873    c0.567,0.116,1.13,0.172,1.687,0.172c3.891,0,7.377-2.73,8.188-6.691c0.916-4.475,1.38-9.076,1.38-13.675    C512,220.956,483.215,191.158,447.219,189.525z"/>
	</g>
</g>
<g>
	<g>
		<path d="M498.245,283.506c-3.838-2.573-9.036-1.547-11.607,2.291c-9.536,14.225-25.436,22.717-42.534,22.717    c-9.456,0-18.563-2.569-26.536-7.442c-8.464-35.713-40.14-62.545-78.161-63.568c-2.134-8.456-5.106-16.695-8.866-24.571    c-1.99-4.171-6.991-5.934-11.154-3.944c-4.17,1.991-5.935,6.985-3.944,11.155c4.165,8.725,7.223,17.96,9.086,27.448    c0.805,4.107,4.553,6.991,8.7,6.741c1.456-0.085,2.737-0.127,3.922-0.127c36.352,0,65.928,29.575,65.928,65.927    s-29.576,65.927-65.928,65.927c-18.304,0-35.32-7.343-47.916-20.676c-2.875-3.044-7.557-3.494-10.961-1.051    c-19.799,14.213-43.157,21.727-67.549,21.727c-20.767,0-41.162-5.575-58.982-16.123c-2.908-1.721-6.567-1.524-9.272,0.5    c-13.668,10.221-29.943,15.623-47.063,15.623c-20.317,0-39.601-7.72-54.296-21.738c-3.343-3.189-8.639-3.065-11.828,0.279    c-3.189,3.343-3.064,8.638,0.279,11.828c17.822,17.001,41.206,26.364,65.844,26.364c18.907,0,36.967-5.436,52.567-15.773    c19.234,10.335,40.812,15.773,62.75,15.773c25.559,0,50.127-7.209,71.486-20.914c15.137,13.539,34.389,20.914,54.939,20.914    c45.372,0,82.31-36.748,82.644-82.043c7.691,2.959,15.899,4.5,24.312,4.5c22.688,0,43.785-11.264,56.432-30.132    C503.109,291.275,502.083,286.078,498.245,283.506z"/>
	</g>
</g>
<g>
	<g>
		<path d="M313.054,185.544c-25.322-30.642-62.622-48.215-102.331-48.215c-50.964,0-97.242,29.155-119.393,74.736    C40.603,214.206,0,256.142,0,307.384c0,16.474,4.269,32.717,12.346,46.972c1.54,2.717,4.372,4.243,7.286,4.243    c1.398,0,2.814-0.35,4.116-1.089c4.022-2.278,5.433-7.383,3.156-11.404c-6.655-11.744-10.172-25.134-10.172-38.723    c0-43.381,35.294-78.673,78.673-78.673c0.151,0,0.3,0.007,0.448,0.012c0.244,0.009,0.487,0.017,0.733,0.02    c3.385,0.044,6.439-1.93,7.787-5.02c18.467-42.318,60.211-69.663,106.347-69.663c34.704,0,67.301,15.36,89.434,42.143    c2.945,3.562,8.218,4.063,11.778,1.119C315.496,194.378,315.997,189.106,313.054,185.544z"/>
	</g>
</g>
<g>
	<g>
		<path d="M329.05,311.79c-3.268-3.267-8.565-3.267-11.832,0c-14.133,14.134-37.135,14.134-51.268,0    c-3.268-3.267-8.565-3.267-11.832,0c-3.268,3.266-3.268,8.563-0.001,11.831c10.33,10.329,23.898,15.494,37.467,15.494    s27.136-5.165,37.467-15.494C332.317,320.353,332.317,315.057,329.05,311.79z"/>
	</g>
</g>
<g>
	<g>
		<path d="M269.463,285.985c-1.047-3.413-4.213-5.842-7.793-5.933c-3.573-0.091-6.879,2.184-8.083,5.546    c-1.283,3.591,0.098,7.64,3.227,9.776c3.037,1.999,7.136,1.824,9.952-0.496C269.353,292.747,270.449,289.196,269.463,285.985z"/>
	</g>
</g>
<g>
	<g>
		<path d="M326.344,281.464c-6.338-4.169-14.729,1.847-12.701,9.175c0.911,3.293,3.822,5.78,7.237,6.101    c3.711,0.348,7.275-1.834,8.617-5.314C330.884,287.824,329.581,283.595,326.344,281.464z"/>
	</g>
</g>
<g>
</g>
<g>
</g>
<g>
</g>
<g>
</g>
<g>
</g>
<g>
</g>
<g>
</g>
<g>
</g>
<g>
</g>
<g>
</g>
<g>
</g>
<g>
</g>
<g>
</g>
<g>
</g>
<g>
</g>
</svg>
