<?xml version="1.0" encoding="iso-8859-1"?>
<!-- Generator: Adobe Illustrator 19.0.0, SVG Export Plug-In . SVG Version: 6.00 Build 0)  -->
<svg xmlns="http://www.w3.org/2000/svg" xmlns:xlink="http://www.w3.org/1999/xlink" version="1.1" id="Layer_1" x="0px" y="0px" viewBox="0 0 512 512" style="enable-background:new 0 0 512 512;" xml:space="preserve">
<g>
	<g>
		<path d="M364.021,166.759c-3.098-3.747-8.646-4.271-12.395-1.174c-3.746,3.099-4.271,8.647-1.173,12.394    c5.58,6.747,10.381,14.053,14.36,21.761l-4.118,3.404c-6.844-19.925-25.757-34.289-47.974-34.289    c-24.963,0-45.758,18.134-49.941,41.918h-13.567c-4.182-23.784-24.977-41.918-49.94-41.918c-22.218,0-41.131,14.366-47.974,34.291    l-4.108-3.396c20.412-39.327,61.522-66.258,108.807-66.258c27.312,0,53.148,8.789,74.721,25.419    c3.849,2.966,9.378,2.255,12.348-1.598c2.967-3.851,2.253-9.379-1.598-12.347c-24.679-19.025-54.235-29.081-85.47-29.081    c-77.258,0-140.113,62.855-140.113,140.113s62.855,140.113,140.113,140.113S396.112,333.258,396.112,256    C396.113,223.475,384.717,191.783,364.021,166.759z M345.837,219.577c0,18.26-14.854,33.114-33.114,33.114    c-2.399,0-4.736-0.263-6.992-0.75l35.703-48.831C344.229,207.965,345.837,213.585,345.837,219.577z M312.723,186.463    c5.814,0,11.28,1.511,16.034,4.154l-38.76,53.011c-6.389-6.04-10.388-14.584-10.388-24.051    C279.609,201.317,294.464,186.463,312.723,186.463z M232.39,219.577c0,18.26-14.854,33.114-33.114,33.114    c-2.399,0-4.736-0.263-6.991-0.749l35.702-48.831C230.782,207.965,232.39,213.585,232.39,219.577z M199.276,186.463    c5.814,0,11.28,1.511,16.034,4.154l-38.759,53.011c-6.39-6.04-10.388-14.586-10.388-24.051    C166.162,201.317,181.016,186.463,199.276,186.463z M256,378.506c-67.55,0-122.506-54.956-122.506-122.506    c0-13.764,2.283-27.006,6.489-39.366l8.768,7.248c2.195,25.959,24.01,46.416,50.525,46.416c24.963,0,45.758-18.134,49.94-41.918    h13.567c4.182,23.784,24.977,41.918,49.941,41.918c26.517,0,48.332-20.458,50.525-46.418l8.731-7.218    c4.269,12.591,6.526,25.879,6.526,39.338C378.506,323.55,323.55,378.506,256,378.506z"/>
	</g>
</g>
<g>
	<g>
		<path d="M256,0c-4.863,0-8.804,3.942-8.804,8.804v73.79c0,4.862,3.94,8.803,8.804,8.803s8.804-3.942,8.804-8.803V8.804    C264.804,3.942,260.863,0,256,0z"/>
	</g>
</g>
<g>
	<g>
		<path d="M256,420.603c-4.863,0-8.804,3.942-8.804,8.803v73.79c0,4.862,3.94,8.804,8.804,8.804s8.804-3.942,8.804-8.804v-73.79    C264.804,424.545,260.863,420.603,256,420.603z"/>
	</g>
</g>
<g>
	<g>
		<path d="M437.02,74.981c-3.438-3.437-9.011-3.438-12.451,0l-52.178,52.178c-3.438,3.438-3.438,9.011,0,12.449    c1.719,1.718,3.971,2.579,6.225,2.579c2.253,0,4.506-0.859,6.226-2.579l52.178-52.178    C440.458,83.992,440.458,78.419,437.02,74.981z"/>
	</g>
</g>
<g>
	<g>
		<path d="M139.608,372.392c-3.439-3.438-9.012-3.438-12.452,0l-12.526,12.526c-3.438,3.438-3.438,9.012,0,12.451    c1.72,1.718,3.973,2.579,6.226,2.579c2.253,0,4.506-0.859,6.226-2.579l12.526-12.526    C143.046,381.404,143.046,375.83,139.608,372.392z"/>
	</g>
</g>
<g>
	<g>
		<path d="M107.715,404.287c-3.438-3.439-9.011-3.44-12.452-0.001L74.98,424.569c-3.438,3.438-3.438,9.012,0,12.451    c1.72,1.72,3.972,2.579,6.226,2.579c2.253,0,4.506-0.859,6.226-2.579l20.283-20.283    C111.153,413.299,111.153,407.725,107.715,404.287z"/>
	</g>
</g>
<g>
	<g>
		<path d="M503.196,247.196h-31.801c-4.863,0-8.804,3.942-8.804,8.804s3.94,8.804,8.804,8.804h31.801    c4.863,0,8.804-3.942,8.804-8.804S508.058,247.196,503.196,247.196z"/>
	</g>
</g>
<g>
	<g>
		<path d="M443.812,247.196h-14.405c-4.863,0-8.803,3.942-8.803,8.804s3.94,8.804,8.803,8.804h14.405    c4.863,0,8.803-3.942,8.803-8.804S448.673,247.196,443.812,247.196z"/>
	</g>
</g>
<g>
	<g>
		<path d="M82.593,247.196H8.804C3.94,247.196,0,251.138,0,256s3.94,8.804,8.804,8.804h73.789c4.863,0,8.805-3.942,8.805-8.804    S87.456,247.196,82.593,247.196z"/>
	</g>
</g>
<g>
	<g>
		<path d="M443.752,178.23c-1.86-4.491-7.01-6.625-11.502-4.764l-19.412,8.041c-4.492,1.86-6.626,7.01-4.764,11.502    c1.404,3.39,4.681,5.437,8.137,5.437c1.122,0,2.264-0.216,3.365-0.673l19.412-8.041    C443.479,187.871,445.613,182.722,443.752,178.23z"/>
	</g>
</g>
<g>
	<g>
		<path d="M103.926,318.991c-1.86-4.492-7.011-6.626-11.502-4.764l-19.414,8.042c-4.492,1.86-6.626,7.01-4.764,11.502    c1.404,3.39,4.681,5.437,8.137,5.437c1.123,0,2.264-0.216,3.366-0.673l19.412-8.042    C103.654,328.632,105.788,323.483,103.926,318.991z"/>
	</g>
</g>
<g>
	<g>
		<path d="M438.988,322.268l-19.414-8.042c-4.489-1.859-9.64,0.271-11.502,4.764c-1.862,4.492,0.271,9.642,4.764,11.502    l19.412,8.042c1.101,0.457,2.242,0.673,3.365,0.673c3.454,0,6.732-2.047,8.137-5.437    C445.613,329.278,443.481,324.129,438.988,322.268z"/>
	</g>
</g>
<g>
	<g>
		<path d="M99.16,181.507l-19.412-8.041c-4.49-1.859-9.642,0.272-11.502,4.764c-1.86,4.491,0.272,9.64,4.764,11.502l19.412,8.041    c1.101,0.457,2.243,0.673,3.365,0.673c3.455,0,6.732-2.047,8.137-5.437C105.786,188.517,103.654,183.368,99.16,181.507z"/>
	</g>
</g>
<g>
	<g>
		<path d="M338.535,432.251l-8.042-19.412c-1.86-4.492-7.01-6.627-11.502-4.764c-4.492,1.86-6.626,7.01-4.764,11.502l8.042,19.412    c1.404,3.39,4.681,5.437,8.137,5.437c1.122,0,2.264-0.216,3.365-0.673C338.262,441.892,340.396,436.743,338.535,432.251z"/>
	</g>
</g>
<g>
	<g>
		<path d="M197.774,92.424l-8.042-19.412c-1.86-4.491-7.009-6.627-11.502-4.764c-4.492,1.86-6.626,7.01-4.764,11.502l8.042,19.412    c1.404,3.39,4.681,5.437,8.137,5.437c1.122,0,2.264-0.216,3.365-0.673C197.501,102.065,199.635,96.916,197.774,92.424z"/>
	</g>
</g>
<g>
	<g>
		<path d="M193.009,408.074c-4.489-1.86-9.642,0.271-11.502,4.764l-8.042,19.412c-1.862,4.492,0.271,9.642,4.764,11.502    c1.101,0.457,2.242,0.673,3.365,0.673c3.454,0,6.732-2.047,8.137-5.437l8.042-19.412    C199.634,415.084,197.501,409.935,193.009,408.074z"/>
	</g>
</g>
<g>
	<g>
		<path d="M333.77,68.247c-4.489-1.86-9.64,0.272-11.502,4.764l-8.042,19.412c-1.86,4.492,0.272,9.642,4.764,11.502    c1.101,0.457,2.242,0.673,3.365,0.673c3.454,0,6.732-2.047,8.137-5.437l8.042-19.412C340.396,75.257,338.263,70.108,333.77,68.247    z"/>
	</g>
</g>
<g>
	<g>
		<path d="M437.021,424.568l-52.179-52.177c-3.439-3.438-9.012-3.438-12.451,0s-3.438,9.012,0,12.451l52.178,52.177    c1.72,1.72,3.973,2.579,6.226,2.579s4.506-0.859,6.226-2.579C440.459,433.581,440.459,428.006,437.021,424.568z"/>
	</g>
</g>
<g>
	<g>
		<path d="M139.608,127.159L87.432,74.981c-3.438-3.437-9.011-3.438-12.451,0c-3.438,3.438-3.438,9.011,0,12.449l52.175,52.178    c1.72,1.72,3.972,2.579,6.226,2.579c2.253,0,4.506-0.859,6.226-2.579C143.046,136.17,143.046,130.597,139.608,127.159z"/>
	</g>
</g>
<g>
	<g>
		<path d="M308.862,276.857H203.138c-4.863,0-8.803,3.942-8.803,8.804c0,34.003,27.663,61.666,61.666,61.666    c34.003,0,61.666-27.663,61.666-61.666C317.666,280.799,313.725,276.857,308.862,276.857z M256,329.719    c-9.801,0-18.861-3.223-26.186-8.657c5.761-8.669,15.487-14.027,26.19-14.027c10.702,0,20.426,5.358,26.184,14.026    C274.861,326.496,265.801,329.719,256,329.719z"/>
	</g>
</g>
<g>
</g>
<g>
</g>
<g>
</g>
<g>
</g>
<g>
</g>
<g>
</g>
<g>
</g>
<g>
</g>
<g>
</g>
<g>
</g>
<g>
</g>
<g>
</g>
<g>
</g>
<g>
</g>
<g>
</g>
</svg>
