<?xml version="1.0" encoding="iso-8859-1"?>
<!-- Generator: Adobe Illustrator 19.0.0, SVG Export Plug-In . SVG Version: 6.00 Build 0)  -->
<svg xmlns="http://www.w3.org/2000/svg" xmlns:xlink="http://www.w3.org/1999/xlink" version="1.1" id="Layer_1" x="0px" y="0px" viewBox="0 0 512.001 512.001" style="enable-background:new 0 0 512.001 512.001;" xml:space="preserve">
<g>
	<g>
		<path d="M503.407,445.11c-14.725,0-22.345,7.382-28.469,13.313c-5.266,5.101-8.746,8.471-16.51,8.471    c-7.765,0-11.244-3.37-16.512-8.471c-6.123-5.931-13.744-13.313-28.47-13.313s-22.346,7.38-28.471,13.311    c-3.41,3.302-3.497,8.743-0.195,12.152c3.303,3.409,8.744,3.496,12.152,0.195c5.267-5.101,8.746-8.471,16.513-8.471    c7.765,0,11.244,3.37,16.512,8.471c6.123,5.931,13.744,13.313,28.47,13.313c14.725,0,22.345-7.382,28.469-13.313    c5.266-5.101,8.746-8.471,16.51-8.471c4.747,0,8.594-3.848,8.594-8.594S508.155,445.11,503.407,445.11z"/>
	</g>
</g>
<g>
	<g>
		<path d="M368.464,466.893c-7.765,0-11.244-3.37-16.512-8.471c-6.123-5.931-13.744-13.313-28.47-13.313    c-14.724,0-22.344,7.382-28.466,13.313c-5.266,5.101-8.745,8.471-16.509,8.471c-7.765,0-11.244-3.37-16.512-8.471    c-6.123-5.931-13.744-13.313-28.47-13.313s-22.345,7.38-28.47,13.313c-5.267,5.101-8.746,8.471-16.513,8.471    s-11.245-3.37-16.513-8.471c-6.125-5.931-13.746-13.313-28.471-13.313s-22.346,7.38-28.471,13.313    c-5.267,5.101-8.746,8.471-16.513,8.471c-7.768,0-11.248-3.37-16.515-8.471c-6.125-5.931-13.747-13.311-28.473-13.311    c-14.728,0-22.349,7.38-28.474,13.313c-5.267,5.101-8.747,8.471-16.515,8.471c-4.747,0-8.594,3.848-8.594,8.594    c0,4.746,3.847,8.594,8.594,8.594c14.726,0,22.347-7.38,28.473-13.311c5.267-5.101,8.747-8.471,16.516-8.471    c7.768,0,11.248,3.37,16.515,8.471c6.125,5.931,13.747,13.311,28.473,13.311c14.725,0,22.346-7.382,28.471-13.312    c5.267-5.101,8.746-8.471,16.513-8.471s11.245,3.37,16.513,8.471c6.125,5.931,13.746,13.312,28.471,13.312    c14.726,0,22.346-7.382,28.471-13.312c5.267-5.101,8.746-8.471,16.512-8.471c7.765,0,11.244,3.37,16.512,8.471    c6.123,5.931,13.744,13.312,28.47,13.312c14.724,0,22.344-7.382,28.467-13.312c5.266-5.1,8.745-8.47,16.508-8.47    c7.765,0,11.244,3.37,16.512,8.471c6.123,5.931,13.744,13.312,28.47,13.312c4.747,0,8.594-3.848,8.594-8.594    S373.212,466.893,368.464,466.893z"/>
	</g>
</g>
<g>
	<g>
		<path d="M503.406,339.182c-14.729,0-22.349,7.383-28.473,13.315c-5.265,5.099-8.743,8.468-16.501,8.468    c-7.767,0-11.246-3.37-16.514-8.471c-6.125-5.931-13.746-13.313-28.472-13.313s-22.347,7.38-28.472,13.313    c-5.267,5.101-8.747,8.471-16.514,8.471c-5.61,0-8.911-1.777-12.14-4.446c-3.659-3.023-9.077-2.509-12.099,1.15    c-3.024,3.659-2.508,9.075,1.15,12.099c4.357,3.599,11.488,8.384,23.089,8.384c14.726,0,22.347-7.38,28.472-13.312    c5.267-5.101,8.747-8.471,16.514-8.471s11.246,3.37,16.514,8.471c6.125,5.931,13.746,13.312,28.472,13.312    c14.72,0,22.338-7.38,28.461-13.31c5.267-5.102,8.746-8.472,16.514-8.472c4.747,0,8.594-3.848,8.594-8.594    S508.153,339.182,503.406,339.182z"/>
	</g>
</g>
<g>
	<g>
		<path d="M117.067,417.154c-1.853-4.37-6.901-6.409-11.268-4.555c-2.105,0.894-4.466,1.328-7.22,1.328    c-7.767,0-11.246-3.37-16.514-8.471c-6.125-5.931-13.746-13.311-28.472-13.311c-14.724,0-22.345,7.379-28.47,13.308    c-5.272,5.104-8.753,8.475-16.529,8.475c-4.747,0-8.594,3.848-8.594,8.594s3.848,8.593,8.595,8.593    c14.732,0,22.358-7.382,28.483-13.314c5.267-5.1,8.747-8.469,16.514-8.469c7.767,0,11.247,3.37,16.514,8.471    c6.125,5.931,13.746,13.311,28.472,13.311c5.105,0,9.663-0.881,13.934-2.693C116.881,426.567,118.921,421.522,117.067,417.154z"/>
	</g>
</g>
<g>
	<g>
		<path d="M354.776,131.384c-3.88,0-7.638,0.78-11.1,2.256V80.136c0-16.446-13.381-29.826-29.828-29.826    c-4.648,0-9.049,1.069-12.974,2.973c-2.16-14.338-14.561-25.364-29.492-25.364c-10.286,0-19.373,5.234-24.738,13.18    c-4.96-3.678-11.094-5.859-17.73-5.859c-16.447,0-29.826,13.38-29.826,29.826v6.597c-3.84-1.805-8.122-2.819-12.638-2.819    c-16.448,0-29.826,13.38-29.826,29.826v22.115c0.002,4.745,3.85,8.593,8.596,8.593c4.747,0,8.594-3.848,8.594-8.594V98.669    c0-6.969,5.67-12.639,12.639-12.639c6.969,0,12.638,5.67,12.638,12.639v85.316c0,4.746,3.847,8.594,8.594,8.594    s8.594-3.848,8.594-8.594V65.065c0-6.969,5.67-12.639,12.639-12.639s12.639,5.67,12.639,12.639v99.989    c0,4.746,3.847,8.594,8.594,8.594s8.594-3.848,8.594-8.594V57.745c0-6.97,5.67-12.64,12.64-12.64    c6.969,0,12.639,5.67,12.639,12.64v122.38c0,4.746,3.847,8.594,8.594,8.594s8.594-3.848,8.594-8.594V80.136    c0-6.969,5.67-12.639,12.639-12.639c6.97,0,12.64,5.67,12.64,12.639l-0.003,133.637c-14.308,1.856-27.528,8.336-37.886,18.706    c-12.411,12.412-19.246,28.918-19.246,46.479c0,4.746,3.847,8.594,8.594,8.594s8.594-3.848,8.594-8.594    c0-12.97,5.047-25.161,14.215-34.328c9.143-9.153,21.304-14.201,34.25-14.219c0.025,0,0.05,0.003,0.076,0.003    c4.747,0,8.594-3.848,8.594-8.594v-62.225c0.018-2.939,1.167-5.695,3.255-7.778c2.092-2.093,4.879-3.246,7.844-3.246    c6.117,0,11.093,4.975,11.093,11.092v69.003c0,12.581-2.394,24.81-7.113,36.345c-1.797,4.392,0.307,9.411,4.699,11.209    c4.392,1.799,9.412-0.306,11.209-4.699c5.569-13.61,8.393-28.029,8.393-42.854v-69.003    C383.057,144.07,370.371,131.384,354.776,131.384z"/>
	</g>
</g>
<g>
	<g>
		<path d="M503.407,392.14c-14.728,0-22.349,7.383-28.473,13.315c-5.265,5.099-8.742,8.468-16.501,8.468    c-7.766,0-11.246-3.37-16.514-8.471c-6.125-5.931-13.746-13.311-28.472-13.311c-14.726,0-22.347,7.38-28.472,13.311    c-5.268,5.101-8.747,8.471-16.514,8.471c-7.761,0-11.241-3.369-16.506-8.468c-4.284-4.149-9.384-9.067-17.17-11.602v-72.444    c10.291-7.206,19.25-16.01,26.675-26.218c2.792-3.839,1.943-9.214-1.895-12.005c-3.839-2.791-9.213-1.943-12.005,1.895    c-7.099,9.76-15.847,18.005-26.002,24.505c-2.468,1.579-3.961,4.308-3.961,7.238v75.759c-10.974,1.657-17.334,7.789-22.582,12.871    c-5.265,5.099-8.742,8.468-16.501,8.468c-7.767,0-11.246-3.37-16.514-8.471c-6.125-5.931-13.746-13.311-28.472-13.311    c-14.726,0-22.349,7.38-28.473,13.311c-4.959,4.802-8.336,8.068-15.196,8.435V284.353c0-1.621-0.458-3.21-1.322-4.581    c-9.629-15.286-14.72-32.958-14.72-51.107V149.43c0-4.746-3.847-8.594-8.594-8.594s-8.594,3.848-8.594,8.594v79.235    c0,20.55,5.539,40.587,16.042,58.116v66.32c-0.211-0.204-0.417-0.401-0.633-0.61c-6.123-5.93-13.743-13.31-28.473-13.31    c-14.726,0-22.347,7.38-28.472,13.312c-5.268,5.101-8.747,8.471-16.514,8.471s-11.247-3.37-16.514-8.471    c-6.125-5.931-13.746-13.312-28.472-13.312c-14.724,0-22.345,7.379-28.47,13.309c-5.272,5.104-8.753,8.475-16.529,8.475    c-4.747,0-8.594,3.848-8.594,8.594s3.848,8.593,8.595,8.593c14.732,0,22.358-7.382,28.483-13.314    c5.267-5.1,8.749-8.47,16.514-8.47c7.767,0,11.247,3.37,16.514,8.471c6.125,5.931,13.746,13.312,28.472,13.312    s22.347-7.38,28.472-13.312c5.267-5.101,8.747-8.471,16.514-8.471c7.77,0,11.249,3.369,16.515,8.469    c3.315,3.209,7.23,6.992,12.589,9.7v31.523c-0.211-0.204-0.417-0.401-0.633-0.61c-6.123-5.93-13.743-13.31-28.473-13.31    c-6.604,0-12.384,1.494-17.672,4.566c-4.104,2.385-5.498,7.644-3.114,11.748c2.385,4.103,7.644,5.497,11.748,3.113    c2.631-1.529,5.502-2.24,9.038-2.24c7.77,0,11.249,3.369,16.515,8.469c4.512,4.369,10.128,9.808,18.964,12.128    c2.941,0.786,6.136,1.185,9.496,1.185c14.726,0,22.347-7.38,28.472-13.311c5.267-5.101,8.747-8.471,16.515-8.471    c7.767,0,11.247,3.37,16.514,8.471c6.125,5.931,13.746,13.311,28.472,13.311c14.72,0,22.338-7.38,28.461-13.31    c5.267-5.101,8.746-8.472,16.514-8.472c0.715,0,1.358,0.025,1.981,0.084c6.426,0.542,9.826,3.834,14.532,8.391    c6.123,5.929,13.743,13.308,28.463,13.308c14.726,0,22.347-7.38,28.472-13.311c5.267-5.101,8.747-8.471,16.514-8.471    s11.246,3.37,16.514,8.471c6.125,5.931,13.746,13.311,28.472,13.311c14.72,0,22.338-7.38,28.461-13.31    c5.268-5.101,8.746-8.472,16.514-8.472c4.747,0,8.594-3.848,8.594-8.594C512.001,395.987,508.155,392.14,503.407,392.14z"/>
	</g>
</g>
<g>
</g>
<g>
</g>
<g>
</g>
<g>
</g>
<g>
</g>
<g>
</g>
<g>
</g>
<g>
</g>
<g>
</g>
<g>
</g>
<g>
</g>
<g>
</g>
<g>
</g>
<g>
</g>
<g>
</g>
</svg>
