<?xml version="1.0" encoding="iso-8859-1"?>
<!-- Generator: Adobe Illustrator 19.0.0, SVG Export Plug-In . SVG Version: 6.00 Build 0)  -->
<svg xmlns="http://www.w3.org/2000/svg" xmlns:xlink="http://www.w3.org/1999/xlink" version="1.1" id="Layer_1" x="0px" y="0px" viewBox="0 0 512.001 512.001" style="enable-background:new 0 0 512.001 512.001;" xml:space="preserve">
<g>
	<g>
		<path d="M406.769,442.986L269.652,205.483c8.82-4.842,14.812-14.217,14.812-24.968c0-12.532-8.144-23.191-19.416-26.98V9.046    c0-4.996-4.05-9.046-9.046-9.046c-4.996,0-9.046,4.05-9.046,9.046v144.489c-11.272,3.79-19.416,14.448-19.416,26.98    c0,10.753,5.995,20.13,14.818,24.97l-34.584,59.898c-2.498,4.327-1.016,9.859,3.311,12.357c4.325,2.498,9.858,1.016,12.357-3.311    l32.565-56.4L391.1,452.031c2.873,4.977,0.956,9.371,0,11.029c-0.957,1.659-3.804,5.515-9.551,5.515h-11.155    c-3.957-14.666-17.369-25.492-33.268-25.492h-20.07c-4.996,0-9.046,4.05-9.046,9.046c0,4.996,4.05,9.046,9.046,9.046h20.067    c9.023,0,16.365,7.342,16.365,16.365s-7.342,16.365-16.365,16.365H174.879c-9.023,0-16.365-7.342-16.365-16.365    s7.342-16.365,16.365-16.365h112.024c4.996,0,9.046-4.05,9.046-9.046c0-4.996-4.05-9.046-9.046-9.046H174.879    c-15.899,0-29.31,10.827-33.268,25.492h-11.158c-5.747,0-8.594-3.856-9.551-5.515c-0.957-1.659-2.873-6.053,0-11.029    l88.948-154.057c2.498-4.327,1.016-9.859-3.311-12.357c-4.327-2.499-9.859-1.017-12.357,3.311l-88.949,154.059    c-5.264,9.118-5.264,20.005,0,29.122s14.691,14.561,25.22,14.561h11.204c4.012,14.584,17.382,25.332,33.223,25.332h162.246    c15.841,0,29.211-10.748,33.223-25.332h11.201c10.528,0,19.955-5.443,25.22-14.561    C412.033,462.99,412.033,452.103,406.769,442.986z M256.002,190.885c-5.719,0-10.37-4.651-10.37-10.37    c0-5.719,4.651-10.37,10.37-10.37c5.719,0,10.37,4.651,10.37,10.37C266.371,186.234,261.72,190.885,256.002,190.885z"/>
	</g>
</g>
<g>
</g>
<g>
</g>
<g>
</g>
<g>
</g>
<g>
</g>
<g>
</g>
<g>
</g>
<g>
</g>
<g>
</g>
<g>
</g>
<g>
</g>
<g>
</g>
<g>
</g>
<g>
</g>
<g>
</g>
</svg>
