<?xml version="1.0" encoding="iso-8859-1"?>
<!-- Generator: Adobe Illustrator 19.0.0, SVG Export Plug-In . SVG Version: 6.00 Build 0)  -->
<svg xmlns="http://www.w3.org/2000/svg" xmlns:xlink="http://www.w3.org/1999/xlink" version="1.1" id="Layer_1" x="0px" y="0px" viewBox="0 0 512.001 512.001" style="enable-background:new 0 0 512.001 512.001;" xml:space="preserve">
<g>
	<g>
		<path d="M508.065,362.767c-0.344-5.061-4.72-8.886-9.791-8.54c-5.061,0.345-8.886,4.728-8.54,9.791    c1.621,23.771,2.728,47.145,3.337,69.899h-44.154c-5.074,0-9.187,4.113-9.187,9.187s4.113,9.187,9.187,9.187h44.548    c0.061,4.105,0.105,8.185,0.131,12.241H284.034l-1.748-12.241h136.008c5.074,0,9.187-4.113,9.187-9.187s-4.113-9.187-9.187-9.187    H279.661l-14.566-101.961c-0.647-4.526-4.522-7.887-9.095-7.887s-8.448,3.362-9.095,7.887L232.34,433.917H83.294    c-5.074,0-9.187,4.113-9.187,9.187c0,5.074,4.113,9.187,9.187,9.187h146.421l-1.748,12.241H18.403    c0.026-4.057,0.084-8.148,0.143-12.241H52.67c5.074,0,9.187-4.113,9.187-9.187c0-5.074-4.113-9.187-9.187-9.187H18.917    c1.341-50.784,5.212-104.135,11.567-159.573h120.79c5.074,0,9.187-4.113,9.187-9.187s-4.113-9.187-9.187-9.187H32.673    c2.822-22.857,6.046-46.044,9.697-69.549c0.779-5.014-2.654-9.709-7.668-10.488c-5.012-0.78-9.709,2.654-10.488,7.668    C8.146,287.061,0,384.671,0,473.717c0,5.074,4.113,9.187,9.187,9.187h226.747c4.571,0,8.448-3.362,9.095-7.887l10.972-76.801    l10.972,76.801c0.647,4.526,4.522,7.887,9.095,7.887h226.747c5.074,0,9.187-4.113,9.187-9.187    C512,438.388,510.676,401.059,508.065,362.767z"/>
	</g>
</g>
<g>
	<g>
		<path d="M505.301,327.2c-13.967-160.39-45.42-289.816-45.735-291.105c-1.008-4.108-4.691-6.998-8.922-6.998H61.36    c-4.231,0-7.914,2.89-8.922,6.998c-0.107,0.437-10.864,44.529-22.463,112.224c-0.859,5,2.501,9.749,7.501,10.605    c5,0.861,9.749-2.503,10.607-7.503c2.122-12.382,4.213-23.952,6.214-34.605h310.108c5.074,0,9.187-4.113,9.187-9.187    c0-5.074-4.113-9.187-9.187-9.187H57.833c4.765-24.174,8.702-41.856,10.803-50.972h374.727    c2.092,9.105,6.014,26.756,10.778,50.972h-59.11c-5.074,0-9.187,4.113-9.187,9.187c0,5.074,4.113,9.187,9.187,9.187h62.642    c6.911,36.837,14.934,84.848,21.636,139.154H181.897c-5.074,0-9.187,4.113-9.187,9.187s4.113,9.187,9.187,9.187h299.596    c2.02,17.626,3.881,35.823,5.502,54.449c0.417,4.785,4.428,8.391,9.142,8.391c0.267,0,0.536-0.012,0.808-0.036    C502,336.71,505.741,332.255,505.301,327.2z"/>
	</g>
</g>
<g>
	<g>
		<path d="M148.763,189.677c-3.987-16.746-14.733-22.987-21.707-25.306c-5.709-12.265-16.929-18.974-18.347-19.785    c-4.405-2.517-10.017-0.987-12.535,3.419c-2.517,4.406-0.987,10.017,3.419,12.535c0.042,0.024,1.994,1.207,4.335,3.294    c-15.257,1.624-23.465,5.069-23.908,5.259c-4.663,1.999-6.824,7.4-4.825,12.063c1.493,3.484,4.884,5.57,8.448,5.57    c1.208,0,2.435-0.24,3.615-0.745c0.061-0.026,3.712-1.503,10.789-2.778c-12.07,20.75-11.162,45.123-11.1,46.48    c0.224,4.925,4.286,8.759,9.169,8.759c0.134,0,0.268-0.002,0.404-0.009c5.06-0.218,8.99-4.503,8.783-9.564    c-0.012-0.327-1.036-31.083,17.053-46.749c2.705,1.191,6.722,4.208,8.533,11.813c1.175,4.935,6.127,7.985,11.065,6.809    C146.889,199.567,149.938,194.613,148.763,189.677z"/>
	</g>
</g>
<g>
	<g>
		<path d="M148.833,149.428c-0.768-3.685-3.712-6.604-7.438-7.253c-3.789-0.66-7.712,1.197-9.581,4.562    c-1.861,3.347-1.432,7.58,1.058,10.485c2.548,2.973,6.863,3.988,10.474,2.484C147.314,158.054,149.717,153.665,148.833,149.428z"/>
	</g>
</g>
<g>
	<g>
		<path d="M245.302,189.678c-3.987-16.746-14.733-22.987-21.707-25.306c-5.709-12.265-16.929-18.974-18.347-19.785    c-4.404-2.517-10.016-0.987-12.535,3.419c-2.517,4.405-0.987,10.018,3.419,12.535c0.042,0.024,1.994,1.207,4.335,3.294    c-15.257,1.624-23.465,5.069-23.908,5.259c-4.662,1.995-6.823,7.397-4.824,12.061c1.493,3.484,4.884,5.57,8.448,5.57    c1.208,0,2.435-0.24,3.615-0.745c0.061-0.026,3.712-1.503,10.789-2.778c-12.07,20.75-11.162,45.123-11.1,46.48    c0.224,4.925,4.286,8.759,9.169,8.759c0.133,0,0.268-0.002,0.404-0.009c5.06-0.218,8.99-4.503,8.783-9.564    c-0.013-0.326-1.038-31.08,17.052-46.747c2.705,1.191,6.722,4.208,8.533,11.813c1.175,4.935,6.126,7.985,11.065,6.809    C243.428,199.568,246.477,194.614,245.302,189.678z"/>
	</g>
</g>
<g>
	<g>
		<path d="M240.494,143.025c-3.615-1.82-8.119-1.012-10.871,1.961c-2.854,3.084-3.204,7.837-0.9,11.339    c2.212,3.241,6.294,4.799,10.091,3.745c3.634-1.009,6.31-4.197,6.694-7.942C245.892,148.382,243.844,144.712,240.494,143.025z"/>
	</g>
</g>
<g>
	<g>
		<path d="M341.842,189.678c-3.987-16.746-14.733-22.987-21.707-25.306c-5.709-12.265-16.929-18.974-18.347-19.785    c-4.404-2.517-10.016-0.987-12.535,3.419c-2.517,4.405-0.987,10.018,3.419,12.535c0.042,0.024,1.994,1.207,4.335,3.294    c-15.257,1.624-23.465,5.069-23.908,5.259c-4.662,1.995-6.823,7.397-4.824,12.061c1.493,3.484,4.884,5.57,8.448,5.57    c1.208,0,2.435-0.24,3.615-0.745c0.061-0.026,3.712-1.503,10.789-2.778c-12.07,20.75-11.162,45.123-11.1,46.48    c0.224,4.925,4.286,8.759,9.169,8.759c0.133,0,0.268-0.002,0.404-0.009c5.06-0.218,8.99-4.503,8.783-9.564    c-0.013-0.326-1.037-31.08,17.052-46.747c2.705,1.191,6.722,4.208,8.533,11.813c1.175,4.935,6.128,7.985,11.065,6.809    C339.968,199.568,343.017,194.614,341.842,189.678z"/>
	</g>
</g>
<g>
	<g>
		<path d="M336.42,142.74c-7.471-3.13-15.174,4.765-11.923,12.171c1.708,3.892,6.032,6.174,10.209,5.321    c3.84-0.801,6.819-3.966,7.314-7.866C342.536,148.29,340.195,144.321,336.42,142.74z"/>
	</g>
</g>
<g>
	<g>
		<path d="M438.384,189.678c-3.987-16.746-14.734-22.987-21.707-25.306c-5.709-12.265-16.929-18.974-18.347-19.785    c-4.405-2.517-10.018-0.987-12.535,3.419s-0.987,10.018,3.419,12.535c0.042,0.024,1.994,1.207,4.335,3.294    c-15.256,1.624-23.465,5.069-23.908,5.259c-4.663,1.995-6.823,7.397-4.824,12.061c1.493,3.484,4.884,5.57,8.448,5.57    c1.208,0,2.435-0.24,3.615-0.745c0.061-0.026,3.712-1.503,10.789-2.778c-12.07,20.75-11.162,45.123-11.1,46.48    c0.224,4.925,4.286,8.759,9.169,8.759c0.133,0,0.268-0.002,0.404-0.009c5.06-0.218,8.99-4.503,8.783-9.564    c-0.013-0.326-1.037-31.08,17.052-46.747c2.705,1.191,6.722,4.208,8.533,11.813c1.175,4.935,6.127,7.985,11.065,6.809    C436.51,199.568,439.559,194.614,438.384,189.678z"/>
	</g>
</g>
<g>
	<g>
		<path d="M423.277,144.417c-3.342,3.019-3.932,8.164-1.467,11.908c4.683,7.114,15.913,4.128,16.784-4.197    C439.453,143.906,429.347,138.934,423.277,144.417z"/>
	</g>
</g>
<g>
	<g>
		<path d="M242.177,72.375c-1.801-3.685-6.019-5.794-10.049-4.968c-3.709,0.695-6.634,3.791-7.258,7.486    c-0.679,4.014,1.467,8.072,5.132,9.815c3.471,1.651,7.702,0.903,10.418-1.806C243.165,80.164,243.878,75.851,242.177,72.375z"/>
	</g>
</g>
<g>
	<g>
		<path d="M285.708,71.314c-2.074-3.224-6.185-4.732-9.872-3.812c-3.735,0.932-6.514,4.186-6.901,8.007    c-0.845,8.322,9.496,13.287,15.505,7.519C287.598,79.996,288.162,74.951,285.708,71.314z"/>
	</g>
</g>
<g>
</g>
<g>
</g>
<g>
</g>
<g>
</g>
<g>
</g>
<g>
</g>
<g>
</g>
<g>
</g>
<g>
</g>
<g>
</g>
<g>
</g>
<g>
</g>
<g>
</g>
<g>
</g>
<g>
</g>
</svg>
