<?xml version="1.0" encoding="iso-8859-1"?>
<!-- Generator: Adobe Illustrator 19.0.0, SVG Export Plug-In . SVG Version: 6.00 Build 0)  -->
<svg xmlns="http://www.w3.org/2000/svg" xmlns:xlink="http://www.w3.org/1999/xlink" version="1.1" id="Layer_1" x="0px" y="0px" viewBox="0 0 512.003 512.003" style="enable-background:new 0 0 512.003 512.003;" xml:space="preserve">
<g>
	<g>
		<path d="M143.558,318.739c-14.725,0-22.345,7.38-28.47,13.313c-5.268,5.101-8.746,8.471-16.513,8.471    c-7.768,0-11.248-3.37-16.515-8.471c-6.126-5.931-13.747-13.313-28.474-13.313c-14.727,0-22.348,7.38-28.473,13.311    c-5.268,5.101-8.747,8.471-16.516,8.471c-4.747,0-8.594,3.848-8.594,8.594c0,4.746,3.847,8.596,8.594,8.596    c14.728,0,22.349-7.38,28.474-13.313c5.267-5.101,8.747-8.471,16.515-8.471c7.769,0,11.249,3.37,16.516,8.471    c6.126,5.931,13.747,13.311,28.473,13.311s22.346-7.382,28.471-13.313c5.267-5.101,8.746-8.471,16.512-8.471    c4.747,0,8.594-3.848,8.594-8.594C152.152,322.587,148.306,318.739,143.558,318.739z"/>
	</g>
</g>
<g>
	<g>
		<path d="M364.928,119.963c-12.32,0-22.344,10.024-22.344,22.344v95.398c0,4.746,3.847,8.594,8.594,8.594    c4.747,0,8.594-3.848,8.594-8.594v-95.398c0-2.843,2.313-5.156,5.156-5.156c2.837,0,5.145,2.313,5.145,5.156v11.449    c0,4.746,3.847,8.594,8.594,8.594c4.747,0,8.594-3.848,8.594-8.594v-11.449C387.261,129.987,377.243,119.963,364.928,119.963z"/>
	</g>
</g>
<g>
	<g>
		<path d="M503.407,424.665c-14.725,0-22.345,7.38-28.469,13.313c-5.266,5.1-8.746,8.47-16.511,8.47    c-7.766,0-11.244-3.37-16.512-8.471c-6.123-5.931-13.745-13.311-28.47-13.311s-22.346,7.38-28.471,13.313    c-5.268,5.1-8.746,8.47-16.512,8.47c-7.766,0-11.244-3.37-16.512-8.471c-6.123-5.931-13.745-13.311-28.47-13.311    c-5.247,0-9.92,0.932-14.289,2.846c-4.346,1.907-6.325,6.976-4.417,11.322c1.907,4.346,6.976,6.326,11.322,4.417    c2.147-0.942,4.562-1.399,7.384-1.399c7.765,0,11.244,3.37,16.512,8.471c6.123,5.931,13.745,13.311,28.47,13.311    s22.345-7.38,28.47-13.311c5.268-5.101,8.746-8.471,16.513-8.471c7.765,0,11.244,3.37,16.512,8.471    c6.123,5.931,13.745,13.311,28.47,13.311s22.345-7.38,28.469-13.313c5.266-5.1,8.746-8.47,16.511-8.47    c4.747,0,8.594-3.848,8.594-8.594C512.001,428.512,508.155,424.665,503.407,424.665z"/>
	</g>
</g>
<g>
	<g>
		<path d="M300.213,446.253c-2.585-3.981-7.904-5.112-11.887-2.53c-2.901,1.884-5.931,2.724-9.819,2.724    c-7.765,0-11.244-3.37-16.512-8.47c-6.123-5.931-13.745-13.313-28.47-13.313c-14.727,0-22.346,7.38-28.471,13.313    c-5.268,5.1-8.746,8.47-16.512,8.47c-7.767,0-11.245-3.37-16.513-8.471c-6.125-5.931-13.746-13.311-28.472-13.311    c-14.725,0-22.345,7.38-28.47,13.311c-5.268,5.101-8.746,8.471-16.513,8.471c-7.768,0-11.248-3.37-16.515-8.471    c-6.126-5.931-13.747-13.311-28.474-13.311c-14.727,0-22.348,7.38-28.472,13.311c-5.269,5.101-8.749,8.471-16.518,8.471    c-4.747,0-8.594,3.848-8.594,8.594c0,4.746,3.847,8.594,8.594,8.594c14.728,0,22.349-7.38,28.474-13.311    c5.268-5.101,8.747-8.471,16.515-8.471c7.769,0,11.249,3.37,16.518,8.471c6.125,5.93,13.746,13.311,28.472,13.311    c14.727,0,22.346-7.38,28.471-13.313c5.268-5.1,8.746-8.47,16.512-8.47c7.767,0,11.247,3.37,16.514,8.471    c6.125,5.931,13.746,13.311,28.471,13.311s22.345-7.38,28.47-13.311c5.267-5.101,8.746-8.471,16.513-8.471    c7.765,0,11.244,3.37,16.512,8.47c6.123,5.931,13.745,13.313,28.47,13.313c7.207,0,13.481-1.797,19.176-5.493    C301.665,455.557,302.797,450.235,300.213,446.253z"/>
	</g>
</g>
<g>
	<g>
		<path d="M503.407,371.703c-14.725,0-22.345,7.38-28.469,13.313c-5.266,5.1-8.746,8.47-16.511,8.47    c-7.766,0-11.244-3.37-16.512-8.47c-3.769-3.651-8.114-7.846-14.326-10.535c0.039-0.906,0.061-1.816,0.061-2.726    c0-22.154-11.896-42.898-31.046-54.139l-9.346-5.485V182.403c0-4.746-3.847-8.594-8.594-8.594s-8.594,3.848-8.594,8.594V317.05    c0,3.049,1.615,5.869,4.244,7.411l13.589,7.974c13.915,8.168,22.558,23.233,22.558,39.317c0,0.021-0.001,0.042-0.001,0.063    c-12.793,0.921-19.792,7.683-25.487,13.198c-5.268,5.1-8.746,8.47-16.512,8.47c-7.765,0-11.244-3.37-16.512-8.47    c-6.123-5.931-13.745-13.313-28.47-13.313c-1.438,0-2.79,0.089-4.098,0.222c0-0.057-0.005-0.113-0.005-0.171    c0-16.086,8.648-31.15,22.572-39.318l13.578-7.975c2.627-1.543,4.241-4.362,4.241-7.41v-50.698c0-4.746-3.847-8.594-8.594-8.594    c-4.747,0-8.594,3.848-8.594,8.594v45.779l-9.333,5.482c-19.158,11.237-31.058,31.983-31.058,54.14    c0,2.218,0.124,4.441,0.359,6.654c-2.886,2.113-5.312,4.455-7.536,6.608c-0.558,0.54-1.092,1.056-1.617,1.555    c-0.998-4.846-1.518-9.797-1.518-14.817c0-25.804,13.85-49.957,36.146-63.035c2.63-1.542,4.245-4.363,4.245-7.413V142.306    c0-18.007,14.65-32.657,32.657-32.657c8.722,0,16.921,3.395,23.081,9.555c6.168,6.177,9.566,14.382,9.566,23.102v158.999    c0,3.049,1.616,5.87,4.245,7.413c22.296,13.078,36.146,37.231,36.146,63.035c0,4.746,3.847,8.594,8.594,8.594    c4.747,0,8.594-3.848,8.594-8.594c0-4.823-0.395-9.598-1.155-14.288c1.437,0.158,2.913,0.241,4.437,0.241    c14.72,0,22.338-7.38,28.461-13.31c5.267-5.102,8.746-8.472,16.514-8.472c4.747,0,8.594-3.848,8.594-8.594    c0-4.746-3.847-8.594-8.594-8.594c-14.729,0-22.349,7.383-28.473,13.315c-5.265,5.099-8.743,8.468-16.501,8.468    c-4.661,0-7.663-1.28-10.045-2.882c-6.792-16.547-18.418-30.987-33.629-41.091V142.308c0-13.306-5.18-25.823-14.594-35.25    c-9.411-9.411-21.926-14.595-35.24-14.595c-27.484,0-49.845,22.36-49.845,49.845v154.238    c-16.063,10.671-28.131,26.177-34.725,43.897c-0.596,0.047-1.207,0.077-1.847,0.077c-7.767,0-11.247-3.37-16.514-8.471    c-6.125-5.931-13.746-13.313-28.472-13.313c-14.727,0-22.348,7.38-28.472,13.313c-5.267,5.101-8.747,8.471-16.514,8.471    c-6.238,0-9.745-2.148-14.034-6.115c-3.485-3.223-8.922-3.009-12.145,0.476c-3.222,3.486-3.009,8.923,0.476,12.145    c5.713,5.282,13.236,10.683,25.704,10.683c14.727,0,22.348-7.38,28.472-13.313c5.268-5.101,8.747-8.471,16.514-8.471    s11.247,3.37,16.514,8.471c5.74,5.559,12.795,12.39,25.781,13.227c-0.744,4.638-1.129,9.363-1.129,14.132    c0,7.375,0.903,14.635,2.649,21.699c-6.959-0.327-10.352-3.601-15.346-8.438c-6.123-5.931-13.745-13.313-28.47-13.313    c-14.727,0-22.346,7.38-28.471,13.313c-5.267,5.1-8.746,8.47-16.512,8.47c-7.767,0-11.245-3.37-16.513-8.471    c-6.125-5.931-13.746-13.311-28.472-13.311c-14.725,0-22.345,7.38-28.47,13.311c-5.267,5.101-8.746,8.471-16.513,8.471    c-7.768,0-11.248-3.37-16.515-8.471c-6.126-5.931-13.747-13.311-28.474-13.311c-14.727,0-22.348,7.38-28.472,13.311    c-5.269,5.101-8.749,8.471-16.518,8.471c-4.747,0-8.594,3.848-8.594,8.594c0,4.746,3.847,8.594,8.594,8.594    c14.728,0,22.349-7.38,28.475-13.311c5.267-5.101,8.747-8.471,16.515-8.471c7.769,0,11.249,3.37,16.517,8.471    c6.125,5.93,13.746,13.311,28.472,13.311c14.727,0,22.346-7.38,28.471-13.313c5.267-5.1,8.746-8.47,16.512-8.47    c7.767,0,11.247,3.37,16.514,8.471c6.125,5.931,13.746,13.311,28.471,13.311c14.725,0,22.345-7.38,28.47-13.311    c5.268-5.101,8.746-8.471,16.513-8.471c7.765,0,11.244,3.37,16.512,8.47c6.123,5.931,13.745,13.313,28.47,13.313    c14.724,0,22.343-7.38,28.466-13.313c5.266-5.1,8.745-8.47,16.509-8.47c7.766,0,11.244,3.37,16.512,8.47    c6.123,5.931,13.745,13.313,28.47,13.313s22.345-7.38,28.47-13.311c5.268-5.101,8.746-8.471,16.513-8.471    c7.765,0,11.244,3.37,16.512,8.47c6.123,5.931,13.745,13.313,28.47,13.313s22.345-7.38,28.469-13.313    c5.266-5.1,8.746-8.47,16.511-8.47c4.747,0,8.594-3.848,8.594-8.594C512.001,375.549,508.155,371.703,503.407,371.703z"/>
	</g>
</g>
<g>
	<g>
		<path d="M291.093,146.311H255c-4.747,0-8.594,3.848-8.594,8.594c0,4.746,3.847,8.594,8.594,8.594h36.093    c4.747,0,8.594-3.848,8.594-8.594C299.687,150.159,295.84,146.311,291.093,146.311z"/>
	</g>
</g>
<g>
	<g>
		<path d="M291.093,245.994H255c-4.747,0-8.594,3.848-8.594,8.594c0,4.746,3.847,8.594,8.594,8.594h36.093    c4.747,0,8.594-3.848,8.594-8.594C299.687,249.842,295.84,245.994,291.093,245.994z"/>
	</g>
</g>
<g>
	<g>
		<path d="M291.093,196.152H255c-4.747,0-8.594,3.848-8.594,8.594c0,4.746,3.847,8.594,8.594,8.594h36.093    c4.747,0,8.594-3.848,8.594-8.594C299.687,200,295.84,196.152,291.093,196.152z"/>
	</g>
</g>
<g>
	<g>
		<path d="M239.096,101.168h-17.638l-7.206-7.206l7.206-7.206h17.638c4.747,0,8.594-3.848,8.594-8.594s-3.847-8.594-8.594-8.594    h-12.604V56.963c0-4.746-3.847-8.594-8.594-8.594c-4.747,0-8.594,3.848-8.594,8.594v17.638l-7.206,7.206l-7.206-7.206V56.964    c0-4.746-3.847-8.594-8.594-8.594c-4.747,0-8.594,3.848-8.594,8.594v12.604h-12.604c-4.747,0-8.594,3.848-8.594,8.594    c0,4.746,3.847,8.594,8.594,8.594h17.638l7.206,7.206l-7.206,7.205h-17.638c-4.747,0-8.594,3.848-8.594,8.594    c0,4.746,3.847,8.594,8.594,8.594h12.604v12.604c0,4.746,3.847,8.594,8.594,8.594c4.747,0,8.594-3.848,8.594-8.594v-17.638    l7.206-7.206l7.206,7.206v17.638c0,4.746,3.847,8.594,8.594,8.594c4.747,0,8.594-3.848,8.594-8.594v-12.604h12.604    c4.747,0,8.594-3.848,8.594-8.594C247.69,105.015,243.844,101.168,239.096,101.168z"/>
	</g>
</g>
<g>
</g>
<g>
</g>
<g>
</g>
<g>
</g>
<g>
</g>
<g>
</g>
<g>
</g>
<g>
</g>
<g>
</g>
<g>
</g>
<g>
</g>
<g>
</g>
<g>
</g>
<g>
</g>
<g>
</g>
</svg>
