<?xml version="1.0" encoding="iso-8859-1"?>
<!-- Generator: Adobe Illustrator 19.0.0, SVG Export Plug-In . SVG Version: 6.00 Build 0)  -->
<svg xmlns="http://www.w3.org/2000/svg" xmlns:xlink="http://www.w3.org/1999/xlink" version="1.1" id="Layer_1" x="0px" y="0px" viewBox="0 0 512.001 512.001" style="enable-background:new 0 0 512.001 512.001;" xml:space="preserve">
<g>
	<g>
		<path d="M325.849,160.612c-16.146-15.688-25.406-37.596-25.406-60.109V48.818h3.801c4.672,0,8.458-3.787,8.458-8.458V28.414    C312.701,12.747,299.954,0,284.287,0h-56.571c-15.668,0-28.414,12.747-28.414,28.414v11.947c0,4.671,3.786,8.458,8.458,8.458    h12.259h63.507v51.685c0,27.056,11.129,53.387,30.534,72.242c16.146,15.688,25.406,37.597,25.406,60.109v5.452h-27.038    c-4.672,0-8.458,3.787-8.458,8.458s3.786,8.458,8.458,8.458h27.038v174.5h-166.93v-174.5h111.699c4.672,0,8.458-3.787,8.458-8.458    s-3.786-8.458-8.458-8.458H172.536v-5.452c0-22.512,9.26-44.421,25.406-60.109c19.405-18.854,30.534-45.185,30.534-72.242V67.101    c0-4.671-3.786-8.458-8.458-8.458s-8.458,3.787-8.458,8.458v33.402c0,22.512-9.26,44.421-25.406,60.109    c-19.405,18.855-30.534,45.186-30.534,72.242v224.45c0,4.671,3.786,8.458,8.458,8.458s8.458-3.787,8.458-8.458v-10.665h166.93    v38.93c0,5.246-4.267,9.515-9.515,9.515h-147.9c-5.246,0-9.516-4.269-9.516-9.515v-0.071c0-4.671-3.786-8.422-8.458-8.422    c-4.672,0-8.458,3.823-8.458,8.494c0,14.574,11.857,26.431,26.432,26.431h147.9c14.574,0,26.431-11.857,26.431-26.431V232.854    C356.382,205.798,345.254,179.467,325.849,160.612z M295.784,31.903h-79.566v-3.489c0-6.34,5.157-11.497,11.497-11.497h56.571    c6.34,0,11.497,5.158,11.497,11.497V31.903z"/>
	</g>
</g>
<g>
	<g>
		<path d="M256.001,269.108c-24.368,0-43.458,27.215-43.458,61.956c0,10.502,1.836,20.86,5.311,29.953    c1.667,4.363,6.55,6.55,10.92,4.883c4.363-1.668,6.55-6.556,4.882-10.92c-2.745-7.187-4.196-15.457-4.196-23.917    c0-24.415,12.154-45.04,26.542-45.04c14.387,0,26.541,20.627,26.541,45.04s-12.154,45.042-26.541,45.042    c-3.285,0-6.527-1.095-9.637-3.255c-3.838-2.665-9.109-1.715-11.771,2.121c-2.665,3.837-1.715,9.107,2.12,11.771    c5.913,4.107,12.582,6.278,19.289,6.278c24.368,0,43.457-27.215,43.457-61.956C299.459,296.324,280.371,269.108,256.001,269.108z"/>
	</g>
</g>
<g>
	<g>
		<path d="M296.704,402.608h-10.212c-4.672,0-8.458,3.787-8.458,8.458c0,4.671,3.786,8.458,8.458,8.458h10.212    c4.672,0,8.458-3.787,8.458-8.458C305.162,406.395,301.376,402.608,296.704,402.608z"/>
	</g>
</g>
<g>
	<g>
		<path d="M263.936,402.608h-49.559c-4.672,0-8.458,3.787-8.458,8.458c0,4.671,3.786,8.458,8.458,8.458h49.559    c4.672,0,8.458-3.787,8.458-8.458C272.394,406.395,268.608,402.608,263.936,402.608z"/>
	</g>
</g>
<g>
</g>
<g>
</g>
<g>
</g>
<g>
</g>
<g>
</g>
<g>
</g>
<g>
</g>
<g>
</g>
<g>
</g>
<g>
</g>
<g>
</g>
<g>
</g>
<g>
</g>
<g>
</g>
<g>
</g>
</svg>
