<?xml version="1.0" encoding="iso-8859-1"?>
<!-- Generator: Adobe Illustrator 19.0.0, SVG Export Plug-In . SVG Version: 6.00 Build 0)  -->
<svg xmlns="http://www.w3.org/2000/svg" xmlns:xlink="http://www.w3.org/1999/xlink" version="1.1" id="Layer_1" x="0px" y="0px" viewBox="0 0 512 512" style="enable-background:new 0 0 512 512;" xml:space="preserve">
<g>
	<g>
		<path d="M256,182.318c-50.643,0-91.845,41.201-91.845,91.845c0,50.644,41.201,91.845,91.845,91.845s91.845-41.201,91.845-91.845    S306.644,182.318,256,182.318z M256,348.056c-40.745,0-73.893-33.148-73.893-73.893c0-40.744,33.148-73.893,73.893-73.893    c40.744,0,73.893,33.148,73.893,73.893C329.893,314.907,296.745,348.056,256,348.056z"/>
	</g>
</g>
<g>
	<g>
		<path d="M447.124,103.721h-48.595c-12.966,0-23.514,10.547-23.514,23.514v23.152c0,12.965,10.547,23.514,23.514,23.514h48.595    c12.966,0,23.514-10.547,23.514-23.514v-23.152C470.637,114.27,460.09,103.721,447.124,103.721z M452.686,150.387    c0,3.067-2.495,5.562-5.562,5.562H398.53c-3.067,0-5.562-2.494-5.562-5.562v-23.152c0-3.067,2.495-5.562,5.562-5.562h48.595    c3.066,0,5.562,2.495,5.562,5.562V150.387z"/>
	</g>
</g>
<g>
	<g>
		<path d="M71.752,270.447c-20.457,0-37.099,16.642-37.099,37.099c0,20.456,16.643,37.099,37.099,37.099    c20.456,0,37.099-16.642,37.099-37.099C108.851,287.088,92.209,270.447,71.752,270.447z M71.751,326.692    c-10.558,0-19.146-8.588-19.146-19.146c0-10.558,8.589-19.146,19.146-19.146s19.146,8.588,19.146,19.146    C90.897,318.102,82.309,326.692,71.751,326.692z"/>
	</g>
</g>
<g>
	<g>
		<path d="M503.024,175.675c-4.958,0-8.976,4.019-8.976,8.976v171.136h-49.053c-4.958,0-8.976,4.019-8.976,8.976    s4.018,8.976,8.976,8.976h49.053v21.318c0,20.075-16.332,36.408-36.408,36.408H54.36c-20.075,0-36.408-16.333-36.408-36.408    v-21.317h143.271c24.688,23.509,58.076,37.959,94.777,37.959s70.09-14.45,94.777-37.959h63.702c4.958,0,8.976-4.019,8.976-8.976    s-4.018-8.976-8.976-8.976h-47.855c16.902-22.847,26.911-51.087,26.911-81.624c0-75.838-61.698-137.536-137.534-137.536    c-28.491,0-55.826,8.636-79.052,24.975c-4.055,2.852-5.029,8.452-2.177,12.507c2.853,4.055,8.453,5.029,12.507,2.177    c20.185-14.2,43.949-21.706,68.723-21.706c65.938,0,119.582,53.644,119.582,119.583s-53.644,119.583-119.582,119.583    c-65.939,0-119.583-53.644-119.583-119.583c0-27.822,9.764-54.915,27.492-76.29c3.164-3.815,2.637-9.475-1.179-12.639    c-3.815-3.164-9.474-2.638-12.639,1.179c-20.395,24.588-31.626,55.752-31.626,87.751c0,30.536,10.009,58.777,26.911,81.624H17.952    V154.063c0-20.075,16.333-36.408,36.408-36.408c0,0,65.444-0.11,66.165-0.297c21.632-1.422,42.64-8.039,61.233-19.362    c18.305-11.147,39.309-17.04,60.741-17.04h215.14c20.075,0,36.408,16.333,36.408,36.408v37.367c0,4.957,4.018,8.976,8.976,8.976    s8.976-4.019,8.976-8.976v-37.367c0-29.974-24.386-54.36-54.36-54.36H242.5c-24.726,0-48.959,6.798-70.079,19.659    c-13.841,8.429-29.227,13.847-45.173,15.992V71.559c0-4.957-4.019-8.976-8.976-8.976H56.001c-4.957,0-8.976,4.019-8.976,8.976    v28.654C20.51,103.806,0,126.578,0,154.063v240.993c0,29.974,24.386,54.36,54.36,54.36h403.28c29.974,0,54.36-24.385,54.36-54.36    V184.651h0C512,179.694,507.982,175.675,503.024,175.675z M64.977,80.535h44.319v19.169H64.977V80.535z"/>
	</g>
</g>
<g>
</g>
<g>
</g>
<g>
</g>
<g>
</g>
<g>
</g>
<g>
</g>
<g>
</g>
<g>
</g>
<g>
</g>
<g>
</g>
<g>
</g>
<g>
</g>
<g>
</g>
<g>
</g>
<g>
</g>
</svg>
