<?xml version="1.0" encoding="iso-8859-1"?>
<!-- Generator: Adobe Illustrator 19.0.0, SVG Export Plug-In . SVG Version: 6.00 Build 0)  -->
<svg xmlns="http://www.w3.org/2000/svg" xmlns:xlink="http://www.w3.org/1999/xlink" version="1.1" id="Layer_1" x="0px" y="0px" viewBox="0 0 512 512" style="enable-background:new 0 0 512 512;" xml:space="preserve">
<g>
	<g>
		<path d="M406.996,64.608c-9.902-40.51-24.322-62.184-42.859-64.419c-21.23-2.558-43.192,20.861-65.235,69.602    c-18.242,40.335-35.441,96.272-47.188,153.468c-0.939,4.567,2.004,9.03,6.572,9.969c0.573,0.117,1.144,0.174,1.708,0.174    c3.925,0,7.442-2.752,8.263-6.748c11.506-56.023,28.284-110.662,46.033-149.906c20.729-45.834,38.308-60.948,47.829-59.793    c10.223,1.232,20.867,20.546,28.472,51.661c1.107,4.531,5.675,7.303,10.208,6.198C405.328,73.708,408.102,69.137,406.996,64.608z"/>
	</g>
</g>
<g>
	<g>
		<path d="M412.169,89.836c-0.787-4.597-5.147-7.683-9.748-6.898c-4.597,0.787-7.685,5.151-6.898,9.748    c10.367,60.564,11.447,146.348,2.749,218.545c-7.196,59.718-20.016,103.658-38.14,130.786    c-31.68-13.616-65.941-20.941-100.609-21.426c5.526-25.641,7.77-52.004,6.656-78.378c-0.291-6.807-0.808-13.685-1.539-20.441    c-1.4-12.961-3.63-25.96-6.629-38.633c-6.825-28.822-17.73-56.451-32.413-82.119c-13.663-23.884-30.5-45.904-50.043-65.448    c-1.807-1.807-4.337-2.701-6.878-2.424c-2.541,0.275-4.821,1.685-6.202,3.837c-18.724,29.203-32.333,61.022-40.447,94.577    c-8.395,34.712-10.692,70.472-6.829,106.288l0.039,0.415c0.003,0.043,0.008,0.086,0.012,0.128    c3.3,30.101,10.894,59.395,22.576,87.07c1.814,4.296,6.767,6.31,11.063,4.496s6.31-6.767,4.496-11.063    c-11.035-26.146-18.215-53.828-21.339-82.278l-0.038-0.408c-0.003-0.038-0.007-0.077-0.011-0.116    c-3.661-33.894-1.493-67.729,6.447-100.562c6.833-28.259,17.791-55.22,32.619-80.292c15.339,16.497,28.727,34.676,39.875,54.168    c13.879,24.262,24.187,50.379,30.638,77.624c2.838,11.991,4.949,24.29,6.274,36.557c0.691,6.394,1.181,12.903,1.456,19.343    c1.064,25.22-1.111,50.432-6.463,74.915c-0.235,1.066-0.465,2.08-0.694,3.071c-3.785,0.197-7.571,0.475-11.355,0.838    c-60.573,5.798-117.669,32.729-160.77,75.83c-3.298,3.298-3.298,8.645,0,11.941c1.648,1.648,3.81,2.474,5.971,2.474    s4.322-0.824,5.971-2.474c40.335-40.333,93.76-65.535,150.437-70.961c55.941-5.354,112.408,8.645,159.013,39.416    c3.891,2.569,9.13,1.499,11.699-2.394c2.572-3.892,1.5-9.131-2.393-11.701c-8.12-5.362-16.524-10.238-25.155-14.635    c18.883-29.539,32.147-75.209,39.472-136.002C424.052,238.436,422.952,152.83,412.169,89.836z"/>
	</g>
</g>
<g>
	<g>
		<path d="M441.977,497.584c-6.06-6.06-12.471-11.881-19.056-17.301c-3.602-2.965-8.923-2.447-11.886,1.153    c-2.963,3.601-2.448,8.923,1.153,11.886c6.167,5.076,12.171,10.527,17.847,16.204c1.649,1.648,3.81,2.474,5.972,2.474    c2.161,0,4.322-0.824,5.971-2.473C445.273,506.228,445.273,500.881,441.977,497.584z"/>
	</g>
</g>
<g>
	<g>
		<path d="M206.891,408.389l-16.137-149.462c-0.5-4.636-4.668-7.996-9.301-7.488c-4.636,0.5-7.989,4.666-7.488,9.302l16.137,149.462    c0.467,4.329,4.129,7.538,8.385,7.538c0.303,0,0.609-0.016,0.917-0.05C204.039,417.191,207.392,413.026,206.891,408.389z"/>
	</g>
</g>
<g>
	<g>
		<path d="M187.87,232.217l-4.442-41.148c-0.501-4.638-4.671-7.993-9.302-7.488c-4.637,0.5-7.99,4.666-7.488,9.302l4.443,41.148    c0.467,4.329,4.129,7.538,8.385,7.538c0.303,0,0.609-0.016,0.917-0.05C185.018,241.019,188.371,236.853,187.87,232.217z"/>
	</g>
</g>
<g>
	<g>
		<path d="M171.622,488.16c-3.024-1.762-6.912-1.464-9.623,0.754c-2.844,2.326-3.841,6.361-2.441,9.752    c1.286,3.114,4.414,5.224,7.791,5.224c3.915,0,7.372-2.796,8.241-6.599C176.397,493.756,174.752,489.984,171.622,488.16z"/>
	</g>
</g>
<g>
	<g>
		<path d="M115.333,489.77c-5.843,4.974-2.181,14.863,5.483,14.863c4.07,0,7.613-2.994,8.313-6.996    C130.461,490.009,121.223,484.757,115.333,489.77z"/>
	</g>
</g>
<g>
	<g>
		<path d="M137.169,472.299c-2.826,2.219-3.908,6.096-2.718,9.471c1.172,3.323,4.426,5.604,7.948,5.604    c3.927,0,7.356-2.796,8.229-6.599C152.374,473.177,143.265,467.511,137.169,472.299z"/>
	</g>
</g>
<g>
	<g>
		<path d="M335.389,475.403c-2.783,2.277-3.813,6.209-2.515,9.56c1.246,3.218,4.417,5.417,7.878,5.417    c3.965,0,7.505-2.914,8.275-6.8C350.533,475.968,341.391,470.494,335.389,475.403z"/>
	</g>
</g>
<g>
	<g>
		<path d="M378.334,490.288c-2.901,2.259-3.999,6.267-2.676,9.692c1.245,3.222,4.421,5.408,7.878,5.408    c4.141,0,7.719-3.13,8.349-7.208C393.03,490.763,384.179,485.738,378.334,490.288z"/>
	</g>
</g>
<g>
	<g>
		<path d="M180.407,460.089c-2.969,2.139-4.214,6.12-3.025,9.573c1.163,3.375,4.423,5.699,7.994,5.699    c3.824,0,7.229-2.668,8.171-6.366C195.464,461.467,186.652,455.591,180.407,460.089z"/>
	</g>
</g>
<g>
</g>
<g>
</g>
<g>
</g>
<g>
</g>
<g>
</g>
<g>
</g>
<g>
</g>
<g>
</g>
<g>
</g>
<g>
</g>
<g>
</g>
<g>
</g>
<g>
</g>
<g>
</g>
<g>
</g>
</svg>
