<?xml version="1.0" encoding="iso-8859-1"?>
<!-- Generator: Adobe Illustrator 19.0.0, SVG Export Plug-In . SVG Version: 6.00 Build 0)  -->
<svg xmlns="http://www.w3.org/2000/svg" xmlns:xlink="http://www.w3.org/1999/xlink" version="1.1" id="Layer_1" x="0px" y="0px" viewBox="0 0 511.998 511.998" style="enable-background:new 0 0 511.998 511.998;" xml:space="preserve">
<g>
	<g>
		<path d="M262.287,228.573h-69.714c-4.734,0-8.571,3.838-8.571,8.571c0,4.734,3.838,8.571,8.571,8.571h69.714    c4.734,0,8.571-3.838,8.571-8.571C270.858,232.411,267.02,228.573,262.287,228.573z"/>
	</g>
</g>
<g>
	<g>
		<path d="M262.287,291.237h-9.143c-4.734,0-8.571,3.838-8.571,8.571s3.838,8.571,8.571,8.571h9.143    c4.734,0,8.571-3.838,8.571-8.571S267.02,291.237,262.287,291.237z"/>
	</g>
</g>
<g>
	<g>
		<path d="M446.175,428.08c-1.344-3.167-4.45-5.222-7.89-5.222h-89.89c1.21-12.142,2.042-24.56,2.446-37.063    c0.546-16.986,0.352-34.31-0.566-51.931h25.079c13.59,0,24.646-11.056,24.646-24.646c0-13.59-11.056-24.646-24.646-24.646h-11.354    c-4.734,0-8.571,3.838-8.571,8.571c0,4.734,3.838,8.571,8.571,8.571h11.354c4.137,0,7.503,3.366,7.503,7.503    c0,4.137-3.366,7.503-7.503,7.503h-26.192c-3.926-50.396-13.677-103.139-29.172-157.563    C301.57,94.471,279.707,44.237,268.315,20.053c-4.643-9.863-7.467-15.244-7.585-15.468c-2.202-4.191-7.385-5.8-11.574-3.599    c-4.19,2.201-5.802,7.383-3.601,11.574c0.018,0.035,1.314,2.507,3.555,7.091L144.324,69.401c-2.248,1.067-3.921,3.059-4.585,5.457    l-74.285,268.57c-1.176,4.251,1.067,8.702,5.184,10.286l8.562,3.294c28.468,10.95,58.012,19.803,87.811,26.315    c0.617,0.135,1.232,0.199,1.838,0.199c3.941,0,7.489-2.736,8.366-6.743c1.01-4.624-1.919-9.193-6.544-10.203    c-28.952-6.327-57.657-14.929-85.317-25.568l-1.306-0.502l8.887-32.127h131.636c4.734,0,8.571-3.838,8.571-8.571    c0-4.734-3.838-8.571-8.571-8.571H97.677l12.591-45.521H164c4.734,0,8.571-3.838,8.571-8.571c0-4.734-3.838-8.571-8.571-8.571    H115.01l12.591-45.521H228c4.734,0,8.571-3.838,8.571-8.571s-3.838-8.571-8.571-8.571h-95.658l12.591-45.521h48.783    c4.734,0,8.571-3.838,8.571-8.571s-3.838-8.571-8.571-8.571h-44.041l5.543-20.04l101.198-48.048    c23.156,50.876,80.58,192.966,77.453,343.691c-45.211,2.934-90.732,0.625-135.414-6.902c-4.665-0.782-9.09,2.361-9.877,7.029    c-0.786,4.667,2.36,9.09,7.029,9.877c33.137,5.582,66.715,8.382,100.307,8.382c12.449,0,24.902-0.406,37.33-1.177    c-0.471,9.046-1.182,17.996-2.089,26.799h-84.869c-4.734,0-8.571,3.838-8.571,8.571s3.838,8.571,8.571,8.571h168.119    c-16.042,10.32-34.922,16-54.191,16h-178.5c-4.41,0-8-3.589-8-8s3.589-8,8-8h36c4.734,0,8.571-3.838,8.571-8.571    s-3.838-8.571-8.571-8.571h-36c-13.863,0-25.143,11.279-25.143,25.143s11.279,25.143,25.143,25.143H208v30.286    c0,2.603,1.184,5.066,3.217,6.693c1.534,1.227,3.426,1.879,5.354,1.879c0.627,0,1.258-0.069,1.881-0.209    c1.954-0.44,44.059-10.255,51.331-38.648h90.43c31.591,0,62.293-13.034,84.236-35.761    C446.84,434.908,447.519,431.245,446.175,428.08z M225.144,491.728v-18.585h26.278    C246.393,482.228,234.126,488.319,225.144,491.728z"/>
	</g>
</g>
<g>
</g>
<g>
</g>
<g>
</g>
<g>
</g>
<g>
</g>
<g>
</g>
<g>
</g>
<g>
</g>
<g>
</g>
<g>
</g>
<g>
</g>
<g>
</g>
<g>
</g>
<g>
</g>
<g>
</g>
</svg>
