<?xml version="1.0" encoding="iso-8859-1"?>
<!-- Generator: Adobe Illustrator 19.0.0, SVG Export Plug-In . SVG Version: 6.00 Build 0)  -->
<svg xmlns="http://www.w3.org/2000/svg" xmlns:xlink="http://www.w3.org/1999/xlink" version="1.1" id="Layer_1" x="0px" y="0px" viewBox="0 0 512.005 512.005" style="enable-background:new 0 0 512.005 512.005;" xml:space="preserve">
<g>
	<g>
		<path d="M503.411,366.315c-7.768,0-11.248-3.37-16.515-8.471c-6.126-5.931-13.747-13.311-28.474-13.311    c-14.726,0-22.347,7.38-28.472,13.311c-5.269,5.101-8.749,8.471-16.517,8.471c-7.765,0-11.244-3.37-16.512-8.47    c-6.125-5.931-13.746-13.313-28.471-13.313c-4.747,0-8.594,3.848-8.594,8.594s3.847,8.594,8.594,8.594    c7.767,0,11.245,3.37,16.513,8.471c6.125,5.931,13.744,13.311,28.47,13.311c14.728,0,22.349-7.38,28.474-13.311    c5.268-5.101,8.747-8.471,16.515-8.471c7.769,0,11.249,3.37,16.517,8.471c6.125,5.93,13.746,13.311,28.472,13.311    c4.747,0,8.594-3.848,8.594-8.594S508.158,366.315,503.411,366.315z"/>
	</g>
</g>
<g>
	<g>
		<path d="M147.08,145.757c-12.313,0-22.331,10.024-22.331,22.344v11.449c0,4.746,3.847,8.594,8.594,8.594s8.594-3.848,8.594-8.594    v-11.449c0-2.843,2.308-5.156,5.144-5.156c2.843,0,5.156,2.313,5.156,5.156v141.498c0,4.746,3.848,8.594,8.594,8.594    c4.747,0,8.594-3.848,8.594-8.594V168.101C169.424,155.781,159.4,145.757,147.08,145.757z"/>
	</g>
</g>
<g>
	<g>
		<path d="M202.814,453.302c-4.369-1.916-9.043-2.846-14.288-2.846c-14.725,0-22.346,7.38-28.47,13.311    c-5.267,5.101-8.746,8.471-16.512,8.471c-7.767,0-11.245-3.37-16.513-8.471c-6.125-5.931-13.744-13.311-28.47-13.311    s-22.346,7.38-28.47,13.311c-5.267,5.101-8.746,8.471-16.512,8.471c-7.764,0-11.244-3.37-16.51-8.47    c-6.123-5.931-13.743-13.313-28.469-13.313c-4.747,0-8.594,3.848-8.594,8.594s3.847,8.594,8.594,8.594    c7.764,0,11.244,3.37,16.51,8.47c6.123,5.931,13.743,13.312,28.469,13.312s22.346-7.38,28.47-13.311    c5.267-5.101,8.746-8.471,16.512-8.471c7.765,0,11.244,3.37,16.512,8.47c6.125,5.931,13.744,13.312,28.471,13.312    c14.725,0,22.346-7.38,28.47-13.311c5.267-5.101,8.746-8.471,16.512-8.471c2.821,0,5.237,0.457,7.385,1.4    c4.349,1.907,9.417-0.072,11.322-4.42C209.139,460.277,207.16,455.208,202.814,453.302z"/>
	</g>
</g>
<g>
	<g>
		<path d="M503.41,472.239c-7.768,0-11.248-3.37-16.515-8.471c-6.126-5.931-13.747-13.311-28.474-13.311    c-14.726,0-22.347,7.38-28.472,13.311c-5.269,5.101-8.749,8.471-16.517,8.471c-7.765,0-11.244-3.37-16.512-8.47    c-6.125-5.931-13.744-13.313-28.471-13.313c-14.725,0-22.346,7.38-28.471,13.311c-5.267,5.101-8.746,8.471-16.513,8.471    c-7.767,0-11.245-3.37-16.513-8.471c-6.125-5.931-13.744-13.311-28.47-13.311c-14.725,0-22.346,7.38-28.47,13.313    c-5.268,5.1-8.746,8.47-16.512,8.47c-3.89,0-6.919-0.84-9.818-2.721c-3.981-2.585-9.303-1.453-11.888,2.529    c-2.584,3.981-1.452,9.303,2.529,11.887c5.695,3.696,11.967,5.493,19.177,5.493c14.725,0,22.346-7.38,28.47-13.312    c5.267-5.1,8.746-8.47,16.512-8.47c7.765,0,11.244,3.37,16.512,8.47c6.125,5.931,13.746,13.312,28.471,13.312    c14.725,0,22.346-7.38,28.471-13.311c5.267-5.101,8.746-8.471,16.513-8.471c7.767,0,11.245,3.37,16.513,8.471    c6.125,5.931,13.744,13.311,28.47,13.311c14.728,0,22.349-7.38,28.474-13.311c5.267-5.101,8.747-8.471,16.515-8.471    c7.769,0,11.249,3.37,16.517,8.471c6.125,5.93,13.746,13.311,28.472,13.311c4.747,0,8.594-3.848,8.594-8.594    S508.157,472.239,503.41,472.239z"/>
	</g>
</g>
<g>
	<g>
		<path d="M503.41,419.276c-7.768,0-11.248-3.37-16.515-8.471c-6.126-5.931-13.747-13.312-28.474-13.312    c-14.726,0-22.347,7.38-28.473,13.311c-5.267,5.101-8.747,8.471-16.516,8.471c-7.765,0-11.244-3.37-16.512-8.471    c-6.125-5.931-13.744-13.312-28.471-13.312c-14.725,0-22.346,7.382-28.471,13.312c-5.267,5.101-8.746,8.471-16.513,8.471    c-7.767,0-11.245-3.37-16.513-8.471c-6.125-5.931-13.744-13.312-28.47-13.312c-14.725,0-22.346,7.382-28.47,13.312    c-4.995,4.837-8.388,8.113-15.347,8.438c1.746-7.065,2.649-14.325,2.649-21.699c0-4.769-0.385-9.492-1.129-14.131    c12.992-0.834,20.049-7.669,25.79-13.23c5.265-5.099,8.742-8.468,16.501-8.468c7.767,0,11.246,3.37,16.514,8.471    c6.125,5.931,13.746,13.311,28.472,13.311c12.479,0,20.002-5.4,25.714-10.684c3.484-3.222,3.698-8.659,0.476-12.145    c-3.223-3.484-8.66-3.698-12.145-0.474c-4.289,3.966-7.797,6.114-14.046,6.114c-7.767,0-11.247-3.37-16.514-8.471    c-6.125-5.931-13.746-13.311-28.472-13.311c-14.72,0-22.338,7.38-28.461,13.31c-5.267,5.101-8.746,8.472-16.514,8.472    c-0.644,0-1.256-0.031-1.855-0.078c-6.594-17.718-18.662-33.224-34.725-43.895V168.101c0-27.484-22.36-49.844-49.844-49.844    c-13.312,0-25.826,5.183-35.242,14.598c-9.409,9.422-14.59,21.94-14.59,35.246v154.238    c-15.217,10.109-26.848,24.558-33.638,41.115c-2.387,1.59-5.389,2.858-10.027,2.858c-7.767,0-11.247-3.37-16.514-8.471    c-6.125-5.931-13.746-13.311-28.472-13.311c-4.747,0-8.594,3.848-8.594,8.594s3.847,8.594,8.594,8.594    c7.767,0,11.246,3.37,16.514,8.471c6.125,5.931,13.746,13.311,28.472,13.311c1.562,0,3.032-0.093,4.431-0.25    c-0.761,4.692-1.157,9.469-1.157,14.296c0,4.746,3.847,8.594,8.594,8.594c4.747,0,8.594-3.848,8.594-8.594    c0-25.804,13.85-49.958,36.145-63.034c2.631-1.542,4.247-4.363,4.247-7.412V168.101c0-8.72,3.397-16.924,9.561-23.097    c6.165-6.165,14.362-9.56,23.084-9.56c18.007,0,32.657,14.65,32.657,32.657v158.998c0,3.049,1.616,5.87,4.245,7.412    c22.296,13.078,36.146,37.231,36.146,63.034c0,5.019-0.52,9.97-1.518,14.816c-0.525-0.5-1.06-1.015-1.617-1.556    c-2.223-2.153-4.65-4.495-7.535-6.608c0.235-2.213,0.359-4.436,0.359-6.653c0-22.157-11.901-42.903-31.055-54.139l-9.342-5.487    c-0.172-4.595-3.951-8.268-8.588-8.268c-4.747,0-8.594,3.848-8.594,8.594v4.597c0,3.048,1.613,5.867,4.242,7.41l13.583,7.977    c13.92,8.165,22.566,23.23,22.566,39.315c0,0.057-0.005,0.113-0.005,0.171c-1.307-0.133-2.658-0.222-4.096-0.222    c-14.725,0-22.346,7.382-28.47,13.312c-5.268,5.101-8.746,8.471-16.512,8.471c-7.767,0-11.245-3.37-16.513-8.471    c-5.695-5.516-12.693-12.277-25.486-13.198c0-0.021-0.001-0.041-0.001-0.062c0-16.084,8.643-31.15,22.557-39.316l13.59-7.975    c2.63-1.542,4.244-4.363,4.244-7.411V208.196c0-4.746-3.847-8.594-8.594-8.594s-8.594,3.848-8.594,8.594v129.725l-9.347,5.485    c-19.148,11.241-31.044,31.985-31.044,54.139c0,0.91,0.022,1.818,0.061,2.726c-6.212,2.69-10.556,6.884-14.324,10.535    c-5.267,5.101-8.746,8.471-16.512,8.471c-7.764,0-11.244-3.37-16.51-8.471c-6.123-5.931-13.743-13.312-28.469-13.312    c-4.747,0-8.594,3.848-8.594,8.594s3.847,8.594,8.594,8.594c7.764,0,11.244,3.37,16.51,8.471    c6.123,5.931,13.743,13.312,28.469,13.312s22.346-7.382,28.47-13.312c5.267-5.101,8.746-8.471,16.512-8.471    c7.765,0,11.244,3.37,16.512,8.471c6.125,5.931,13.744,13.312,28.471,13.312c14.725,0,22.346-7.382,28.47-13.312    c5.267-5.101,8.746-8.471,16.512-8.471c7.763,0,11.243,3.37,16.508,8.47c6.122,5.931,13.743,13.312,28.467,13.312    c14.725,0,22.346-7.382,28.47-13.312c5.267-5.101,8.746-8.471,16.512-8.471s11.244,3.37,16.512,8.471    c6.125,5.931,13.744,13.312,28.471,13.312c14.725,0,22.346-7.382,28.471-13.312c5.267-5.101,8.746-8.471,16.513-8.471    c7.767,0,11.245,3.37,16.513,8.471c6.125,5.931,13.744,13.312,28.47,13.312c14.728,0,22.349-7.38,28.474-13.312    c5.268-5.101,8.747-8.471,16.515-8.471c7.769,0,11.249,3.37,16.516,8.471c6.126,5.931,13.747,13.311,28.473,13.311    c4.747,0,8.594-3.848,8.594-8.594S508.157,419.276,503.41,419.276z"/>
	</g>
</g>
<g>
	<g>
		<path d="M257.008,172.103h-36.092c-4.747,0-8.594,3.848-8.594,8.594s3.847,8.594,8.594,8.594h36.092    c4.747,0,8.594-3.848,8.594-8.594S261.755,172.103,257.008,172.103z"/>
	</g>
</g>
<g>
	<g>
		<path d="M257.008,271.788h-36.092c-4.747,0-8.594,3.848-8.594,8.594s3.847,8.594,8.594,8.594h36.092    c4.747,0,8.594-3.848,8.594-8.594S261.755,271.788,257.008,271.788z"/>
	</g>
</g>
<g>
	<g>
		<path d="M257.008,221.945h-36.092c-4.747,0-8.594,3.848-8.594,8.594s3.847,8.594,8.594,8.594h36.092    c4.747,0,8.594-3.848,8.594-8.594S261.755,221.945,257.008,221.945z"/>
	</g>
</g>
<g>
	<g>
		<path d="M333.777,77.577H313.83c-0.886-3.612-2.309-7.015-4.193-10.11l14.109-14.109c3.356-3.356,3.356-8.797,0-12.153    c-3.357-3.356-8.798-3.356-12.154,0l-14.109,14.107c-3.096-1.884-6.498-3.307-10.11-4.193V31.172c0-4.746-3.847-8.594-8.594-8.594    s-8.594,3.848-8.594,8.594v19.947c-3.612,0.886-7.015,2.309-10.11,4.193l-14.109-14.108c-3.357-3.356-8.798-3.356-12.154,0    c-3.356,3.356-3.356,8.797,0,12.153l14.109,14.109c-1.884,3.096-3.306,6.498-4.192,10.11h-19.947    c-4.747,0-8.594,3.848-8.594,8.594s3.845,8.594,8.593,8.594h19.947c0.886,3.612,2.309,7.015,4.192,10.11l-14.109,14.109    c-3.356,3.356-3.356,8.797,0,12.153c1.679,1.679,3.879,2.517,6.078,2.517s4.399-0.839,6.078-2.517l14.109-14.108    c3.096,1.884,6.498,3.307,10.11,4.193v19.947c0,4.746,3.847,8.594,8.594,8.594s8.594-3.848,8.594-8.594v-19.946    c3.612-0.886,7.015-2.309,10.11-4.193l14.108,14.108c1.679,1.679,3.879,2.517,6.078,2.517s4.399-0.839,6.078-2.517    c3.356-3.356,3.356-8.797,0-12.153l-14.109-14.109c1.884-3.096,3.307-6.498,4.193-10.11h19.947c4.747,0,8.594-3.848,8.594-8.594    C342.371,81.424,338.525,77.577,333.777,77.577z M278.78,105.076c-10.424,0-18.904-8.48-18.904-18.905    c0-10.425,8.48-18.905,18.904-18.905c10.425,0,18.905,8.48,18.905,18.905S289.205,105.076,278.78,105.076z"/>
	</g>
</g>
<g>
</g>
<g>
</g>
<g>
</g>
<g>
</g>
<g>
</g>
<g>
</g>
<g>
</g>
<g>
</g>
<g>
</g>
<g>
</g>
<g>
</g>
<g>
</g>
<g>
</g>
<g>
</g>
<g>
</g>
</svg>
