<?xml version="1.0" encoding="iso-8859-1"?>
<!-- Generator: Adobe Illustrator 19.0.0, SVG Export Plug-In . SVG Version: 6.00 Build 0)  -->
<svg xmlns="http://www.w3.org/2000/svg" xmlns:xlink="http://www.w3.org/1999/xlink" version="1.1" id="Layer_1" x="0px" y="0px" viewBox="0 0 512 512" style="enable-background:new 0 0 512 512;" xml:space="preserve">
<g>
	<g>
		<path d="M359.047,389.846c4.329,0,7.837-3.508,7.837-7.837v-35.684c0-7.202-5.859-13.061-13.061-13.061h-4.877v-81.235    c0-5.98-4.045-11.023-9.539-12.565v-41.69c0-6.375-4.593-11.689-10.642-12.827v-38.033c0-7.202-5.859-13.061-13.061-13.061h-5.478    V98.378c0-7.202-5.859-13.061-13.061-13.061h-15.691V64.83c0-9.821-6.161-18.293-14.99-22.107l-2.668-35.473    C263.509,3.16,260.101,0,256.001,0s-7.508,3.16-7.815,7.25l-2.668,35.473c-8.83,3.814-14.991,12.286-14.991,22.107v20.484h-15.692    c-7.203,0-13.061,5.859-13.061,13.061v35.474h-5.477c-7.203,0-13.061,5.859-13.061,13.061v38.033    c-6.049,1.139-10.642,6.453-10.642,12.827v41.69c-5.494,1.543-9.539,6.586-9.539,12.565v81.235h-4.877    c-7.203,0-13.061,5.859-13.061,13.061v91.063c0,4.329,3.508,7.837,7.837,7.837c4.329,0,7.837-3.508,7.837-7.837v-88.451h6.229    v147.392h-6.229V463.51c0-4.329-3.508-7.837-7.837-7.837c-4.329,0-7.837,3.508-7.837,7.837v35.428    c0,7.201,5.859,13.061,13.061,13.061H353.82c7.203,0,13.061-5.86,13.061-13.061v-89.763c0-4.329-3.508-7.837-7.837-7.837    c-4.329,0-7.837,3.508-7.837,7.837v87.151h-6.23v-147.39h6.23v33.072C351.21,386.337,354.719,389.846,359.047,389.846z     M323.733,200.384v15.032c-1.03-5.249-2.674-10.284-4.854-15.032H323.733z M313.092,149.524v17.695    c-1.776-6.407-4.661-12.374-8.443-17.695H313.092z M282.123,195.267c-4.329,0-7.837,3.508-7.837,7.837v5.247    c-3.406-0.809-6.89-1.415-10.449-1.767v-10.569c0-4.329-3.508-7.837-7.837-7.837s-7.837,3.508-7.837,7.837v10.569    c-3.196,0.317-6.331,0.839-9.404,1.526v-5.007c0-4.329-3.508-7.837-7.837-7.837c-4.329,0-7.837,3.508-7.837,7.837v10.292    c-7.496,3.447-14.364,8.019-20.373,13.519c0.796-28.23,24.384-50.959,53.288-50.959c28.904,0,52.492,22.729,53.288,50.959    c-5.73-5.245-12.237-9.659-19.329-13.047v-10.763C289.96,198.775,286.452,195.267,282.123,195.267z M294.553,100.987v6.674    c-1.436-2.379-3.111-4.613-4.995-6.674H294.553z M246.202,64.83c0-4.738,4.396-8.593,9.799-8.593s9.798,3.855,9.798,8.593v22.66    c-3.155-0.674-6.43-1.042-9.798-1.042s-6.643,0.369-9.799,1.043V64.83z M227.336,128.289c0-14.43,12.86-26.168,28.665-26.168    s28.665,11.738,28.665,26.168v3.549c-6.325-3.429-13.358-5.753-20.828-6.722v-6.424c0-4.329-3.508-7.837-7.837-7.837    c-4.329,0-7.837,3.508-7.837,7.837v6.424c-7.469,0.969-14.503,3.291-20.828,6.722V128.289z M217.449,100.987h4.996    c-1.885,2.062-3.56,4.294-4.996,6.676V100.987z M256.001,140.269c21.435,0,39.284,15.051,42.816,34.769    c-2.787-2.184-5.746-4.158-8.857-5.902v-5.512c0-4.329-3.508-7.837-7.837-7.837c-4.03,0-7.346,3.043-7.783,6.955    c-3.404-0.927-6.91-1.606-10.502-2.008v-4.198c0-4.329-3.508-7.837-7.837-7.837s-7.837,3.508-7.837,7.837v4.198    c-3.238,0.364-6.413,0.936-9.5,1.727c-0.562-3.776-3.809-6.675-7.741-6.675c-4.329,0-7.837,3.508-7.837,7.837v4.919    c-3.498,1.881-6.801,4.067-9.901,6.495C216.717,155.32,234.566,140.269,256.001,140.269z M198.91,149.524h8.443    c-3.781,5.322-6.666,11.288-8.443,17.695V149.524z M256.001,221.869c30.345,0,55.753,21.414,61.811,49.863    c-7.995-7.769-17.422-14.052-27.852-18.395v-7.54c0-4.329-3.508-7.837-7.837-7.837c-4.329,0-7.837,3.508-7.837,7.837v2.667    c-3.415-0.719-6.904-1.227-10.449-1.539v-8.215c0-4.329-3.508-7.837-7.837-7.837s-7.837,3.508-7.837,7.837v8.214    c-3.185,0.281-6.324,0.722-9.404,1.331v-2.458c0-4.329-3.508-7.837-7.837-7.837c-4.329,0-7.837,3.508-7.837,7.837v7.125    c-10.843,4.353-20.637,10.782-28.897,18.808C200.248,243.284,225.656,221.869,256.001,221.869z M188.269,200.384h4.854    c-2.18,4.748-3.822,9.782-4.854,15.032V200.384z M178.73,254.641h4.453c-1.926,4.6-3.43,9.416-4.453,14.405V254.641z     M204.632,496.327h-21.938v-15.196h21.938V496.327z M204.632,465.457h-21.938v-9.119h21.938V465.457z M204.632,440.665h-21.938    V430.31h21.938V440.665z M204.632,414.636h-21.938v-9.119h21.938V414.636z M204.632,389.845h-21.938V379.49h21.938V389.845z     M204.632,363.817h-21.938v-9.119h21.938V363.817z M259.46,496.327h-0.001h-6.915V335.928c0-1.936,1.551-3.51,3.459-3.51    c1.906,0,3.458,1.575,3.458,3.51V496.327z M290.567,308.235c-3.81,2.056-5.229,6.81-3.172,10.618    c2.814,5.211,4.302,11.116,4.302,17.075v8.256h-2.621c-4.329,0-7.837,3.508-7.837,7.837c0,4.328,3.508,7.837,7.837,7.837h2.621    v5.922h-2.621c-4.329,0-7.837,3.508-7.837,7.837c0,4.329,3.508,7.837,7.837,7.837h2.621v5.925h-2.621    c-4.329,0-7.837,3.508-7.837,7.837c0,4.329,3.508,7.837,7.837,7.837h2.621v5.922h-2.621c-4.329,0-7.837,3.508-7.837,7.837    c0,4.329,3.508,7.837,7.837,7.837h2.621v5.922h-2.621c-4.329,0-7.837,3.508-7.837,7.837c0,4.329,3.508,7.837,7.837,7.837h2.621    v5.924h-2.621c-4.329,0-7.837,3.509-7.837,7.837c0,4.329,3.508,7.837,7.837,7.837h2.621v5.922h-2.621    c-4.329,0-7.837,3.508-7.837,7.837c0,4.329,3.508,7.837,7.837,7.837h2.621v6.89h-16.566V335.928    c0-10.577-8.582-19.183-19.131-19.183s-19.132,8.606-19.132,19.183v160.398h-16.564v-6.89h2.62c4.329,0,7.837-3.508,7.837-7.837    c0-4.329-3.508-7.837-7.837-7.837h-2.62v-5.922h2.62c4.329,0,7.837-3.508,7.837-7.837c0-4.328-3.508-7.837-7.837-7.837h-2.62    v-5.924h2.62c4.329,0,7.837-3.508,7.837-7.837c0-4.329-3.508-7.837-7.837-7.837h-2.62v-5.922h2.62    c4.329,0,7.837-3.508,7.837-7.837c0-4.329-3.508-7.837-7.837-7.837h-2.62v-5.922h2.62c4.329,0,7.837-3.508,7.837-7.837    c0-4.329-3.508-7.837-7.837-7.837h-2.62v-5.925h2.62c4.329,0,7.837-3.508,7.837-7.837c0-4.329-3.508-7.837-7.837-7.837h-2.62    v-5.922h2.62c4.329,0,7.837-3.509,7.837-7.837c0-4.329-3.508-7.837-7.837-7.837h-2.62v-8.256    c0-19.798,16.013-35.904,35.696-35.904c4.423,0,8.74,0.807,12.83,2.398c4.033,1.572,8.575-0.429,10.145-4.464    c1.568-4.033-0.429-8.576-4.464-10.145c-5.909-2.298-12.138-3.463-18.512-3.463c-28.325,0-51.369,23.137-51.369,51.577v3.096    h-21.938v-3.096c0-40.637,32.886-73.698,73.307-73.698s73.306,33.062,73.306,73.698v3.096H307.37v-3.096    c0-8.551-2.139-17.031-6.185-24.522C299.13,307.598,294.374,306.177,290.567,308.235z M329.307,496.327H307.37v-15.196h21.937    V496.327z M329.307,465.457H307.37v-9.119h21.937V465.457z M329.307,440.665H307.37V430.31h21.937V440.665z M329.307,414.636    H307.37v-9.119h21.937V414.636z M329.307,389.845H307.37V379.49h21.937V389.845z M329.307,363.817H307.37v-9.119h21.937V363.817z     M333.272,269.046c-1.023-4.989-2.528-9.805-4.453-14.405h4.453V269.046z"/>
	</g>
</g>
<g>
	<g>
		<path d="M256.001,265.502c-4.329,0-7.837,3.508-7.837,7.837v1.045c0,4.329,3.508,7.837,7.837,7.837s7.837-3.508,7.837-7.837    v-1.045C263.838,269.01,260.33,265.502,256.001,265.502z"/>
	</g>
</g>
<g>
	<g>
		<path d="M194.874,314.612c-4.329,0-7.837,3.508-7.837,7.837v1.045c0,4.329,3.508,7.837,7.837,7.837s7.837-3.508,7.837-7.837    v-1.045C202.711,318.12,199.204,314.612,194.874,314.612z"/>
	</g>
</g>
<g>
	<g>
		<path d="M317.128,314.612c-4.329,0-7.837,3.508-7.837,7.837v1.045c0,4.328,3.508,7.837,7.837,7.837s7.837-3.508,7.837-7.837    v-1.045C324.964,318.12,321.457,314.612,317.128,314.612z"/>
	</g>
</g>
<g>
	<g>
		<path d="M299.364,284.31c-4.329,0-7.837,3.508-7.837,7.837v1.045c0,4.329,3.508,7.837,7.837,7.837    c4.329,0,7.837-3.508,7.837-7.837v-1.045C307.201,287.818,303.693,284.31,299.364,284.31z"/>
	</g>
</g>
<g>
	<g>
		<path d="M212.638,284.31c-4.329,0-7.837,3.508-7.837,7.837v1.045c0,4.329,3.508,7.837,7.837,7.837    c4.329,0,7.837-3.508,7.837-7.837v-1.045C220.474,287.818,216.967,284.31,212.638,284.31z"/>
	</g>
</g>
<g>
</g>
<g>
</g>
<g>
</g>
<g>
</g>
<g>
</g>
<g>
</g>
<g>
</g>
<g>
</g>
<g>
</g>
<g>
</g>
<g>
</g>
<g>
</g>
<g>
</g>
<g>
</g>
<g>
</g>
</svg>
