<?xml version="1.0" encoding="iso-8859-1"?>
<!-- Generator: Adobe Illustrator 19.0.0, SVG Export Plug-In . SVG Version: 6.00 Build 0)  -->
<svg xmlns="http://www.w3.org/2000/svg" xmlns:xlink="http://www.w3.org/1999/xlink" version="1.1" id="Layer_1" x="0px" y="0px" viewBox="0 0 512 512" style="enable-background:new 0 0 512 512;" xml:space="preserve">
<g>
	<g>
		<path d="M390.646,366.292c-14.15,0-25.663,11.519-25.663,25.679s11.513,25.68,25.663,25.68c14.15,0,25.662-11.52,25.662-25.68    C416.308,377.81,404.796,366.292,390.646,366.292z M390.646,401.978c-5.509,0-9.989-4.489-9.989-10.007    c0-5.517,4.481-10.006,9.989-10.006c5.508,0,9.988,4.489,9.988,10.006C400.635,397.489,396.154,401.978,390.646,401.978z"/>
	</g>
</g>
<g>
	<g>
		<path d="M478.344,199.449H197.068c-7.202,0.001-13.061,5.86-13.061,13.062v9.241c0,5.073,2.913,9.47,7.149,11.632v53.183    c0,7.202,5.859,13.061,13.061,13.061h267.142c7.203,0,13.061-5.859,13.061-13.061v-53.264c4.148-2.191,6.985-6.544,6.985-11.552    v-9.241C491.405,205.307,485.546,199.449,478.344,199.449z M292.435,283.955h-48.497v-13.234h48.497V283.955z M420.209,283.955    H309.744v-2.91h110.465V283.955z M468.745,283.955h-32.863v-8.657c0-5.473-4.453-9.927-9.927-9.927H308.108v-0.397    c0-5.473-4.453-9.927-9.927-9.927h-59.991c-5.473,0-9.927,4.453-9.927,9.927v18.981h-21.436v-49.142h261.917V283.955z     M475.732,219.14H199.68v-4.017h276.052V219.14z"/>
	</g>
</g>
<g>
	<g>
		<path d="M141.162,252.476h-20.58c-9.072,0-18.278,6.419-21.414,14.932l-14.66,39.781c-1.845,5.009-1.319,10.154,1.444,14.117    c2.764,3.962,7.409,6.235,12.747,6.235h42.464c10.082,0,18.286-8.204,18.286-18.286v-38.493    C159.447,260.679,151.244,252.476,141.162,252.476z M143.774,309.255c0,1.416-1.196,2.612-2.612,2.612H99.488l14.386-39.041    c0.854-2.317,4.239-4.676,6.708-4.676h20.579c1.416,0,2.612,1.196,2.612,2.612V309.255z"/>
	</g>
</g>
<g>
	<g>
		<path d="M493.714,144.068h-4.24v-37.28c0,0,0-0.004,0-0.006V90.33c0-10.082-8.203-18.286-18.286-18.286H204.387    c-10.082,0-18.286,8.203-18.286,18.286v53.738h-4.241c-10.082,0-18.286,8.202-18.286,18.286v15.62h-29.828    c-4.329,0-7.837,3.508-7.837,7.837c0,4.329,3.508,7.837,7.837,7.837h29.829v35.209h-84.79c-1.416,0-2.612-1.196-2.612-2.612    V196.26c0-1.416,1.196-2.612,2.612-2.612h28.839c4.329,0,7.837-3.508,7.837-7.837c0-4.329-3.508-7.837-7.837-7.837H78.785    c-10.082,0-18.286,8.203-18.286,18.286v19.25H42.519c-4.329,0-7.837,3.508-7.837,7.837v13.852    c-4.891,1.104-8.557,5.475-8.557,10.695v31.203c0,6.05,4.921,10.971,10.971,10.971H47.94c6.05,0,10.971-4.921,10.971-10.971    v-31.203c0-5.219-3.666-9.591-8.556-10.695v-6.015h10.84c2.143,7.615,9.094,13.234,17.363,13.336L73.4,258.516    c-1.497,4.062,0.583,8.566,4.644,10.062s8.566-0.584,10.062-4.643l7.15-19.404h68.319v143.81h-28.879    c-1.862-24.768-22.577-44.355-47.793-44.355c-25.214,0-45.93,19.587-47.792,44.355H18.286c-1.416,0-2.612-1.196-2.612-2.612    v-8.939h5.456c7.269,0,13.183-5.917,13.183-13.19v-21.413c0-7.273-5.914-13.19-13.183-13.19h-5.446    c0.053-1.767,1.761-3.685,3.506-3.907l43.943-5.586c2.901-0.37,5.355-2.322,6.366-5.066l9.37-25.429    c1.497-4.062-0.583-8.566-4.643-10.062c-4.064-1.5-8.566,0.583-10.062,4.643l-7.725,20.964l-39.224,4.985    C7.561,310.769,0,319.353,0,329.082v56.646c0,10.082,8.203,18.286,18.286,18.286h22.206c5.352,20.65,24.131,35.942,46.412,35.942    c22.282,0,41.061-15.293,46.413-35.942h96.557h54.338c4.329,0,7.837-3.508,7.837-7.837s-3.508-7.837-7.837-7.837h-29.483    c1.665-0.185,3.262-0.77,4.702-1.793c3.07-2.226,4.575-5.925,3.929-9.649l-0.127-0.734h82.154    c-1.349,3.859-2.215,7.941-2.534,12.175h-27.294c-4.329,0-7.837,3.508-7.837,7.837s3.508,7.837,7.837,7.837h28.673    c5.352,20.65,24.131,35.942,46.413,35.942c22.281,0,41.06-15.293,46.412-35.942h56.656c10.082,0,18.286-8.203,18.286-18.286    V162.354C512,152.27,503.797,144.068,493.714,144.068z M43.239,274.394H41.8v-21.799h1.439V274.394z M15.673,344.669h2.966v16.446    h-2.966V344.669z M86.904,424.283c-17.794,0-32.27-14.495-32.27-32.312c0-17.818,14.476-32.312,32.27-32.312    s32.271,14.495,32.271,32.312C119.175,409.789,104.698,424.283,86.904,424.283z M473.801,91.771v11.775l-40.48,40.522h-11.761    L473.801,91.771z M473.801,125.723v18.345h-18.325L473.801,125.723z M455.696,87.718l-56.29,56.35h-14.364l56.291-56.35H455.696z     M419.18,87.718l-56.292,56.35h-11.761l56.291-56.35H419.18z M204.387,87.718h180.877l-56.292,56.35H300.47l-6.363-8.51    l7.899-23.663c1.273-3.824,0.292-7.974-2.56-10.829c-2.004-2.007-4.664-3.113-7.491-3.113c-1.145,0-2.277,0.185-3.358,0.547    l-23.617,7.901l-20.122-15.077c-1.853-1.394-4.051-2.131-6.358-2.131c-1.648,0-3.299,0.395-4.744,1.126    c-3.651,1.83-5.874,5.51-5.803,9.61l0.458,24.982l-20.25,14.285c-1.767,1.237-3.05,2.936-3.783,4.869h-2.602V90.33h-0.001    C201.775,88.914,202.971,87.718,204.387,87.718z M279.097,141.661l1.8,2.406h-52.45l12.39-8.741    c2.122-1.498,3.366-3.95,3.319-6.547l-0.341-18.65l15.053,11.28c2.057,1.544,4.745,1.977,7.185,1.16l17.859-5.974l-5.974,17.89    C277.127,136.923,277.559,139.604,279.097,141.661z M214.743,388.34c1.166-0.149,2.298-0.503,3.304-1.036l15.515-8.075    l15.48,8.059c1.04,0.547,2.177,0.901,3.339,1.051H214.743z M246.544,351.501c-1.869,1.804-2.723,4.416-2.28,6.976l1.647,9.513    l-8.731-4.545c-1.134-0.59-2.375-0.886-3.619-0.886c-1.242,0-2.485,0.295-3.618,0.886l-8.732,4.545l1.646-9.513    c0.444-2.56-0.411-5.172-2.28-6.976l-6.903-6.661l9.615-1.383c2.546-0.367,4.75-1.959,5.897-4.261l4.374-8.775l4.375,8.775    c1.147,2.302,3.351,3.895,5.897,4.261l9.615,1.383L246.544,351.501z M354.507,360.491h-93.988l-0.103-0.597l4.219-4.071h94.532    C357.509,357.271,355.953,358.831,354.507,360.491z M390.646,424.283c-17.794,0-32.271-14.495-32.271-32.312    c0-17.818,14.476-32.312,32.271-32.312c17.794,0,32.27,14.495,32.27,32.312C422.915,409.789,408.44,424.283,390.646,424.283z     M496.327,385.728c0,1.416-1.196,2.612-2.612,2.612h-55.276c-0.319-4.235-1.185-8.316-2.534-12.175h60.422V385.728z     M496.327,360.491h-69.543c-1.445-1.66-3.002-3.22-4.66-4.669h74.203V360.491z M496.327,178.038h-44.932    c-4.329,0-7.837,3.508-7.837,7.837c0,4.329,3.508,7.837,7.837,7.837h44.932v126.097H399.15c-4.329,0-7.837,3.509-7.837,7.837    c0,4.329,3.508,7.837,7.837,7.837h97.177v4.669H275.88c-0.05-0.82-0.19-1.638-0.456-2.433c-0.262-0.805-0.63-1.546-1.068-2.236    h97.627c4.329,0,7.837-3.508,7.837-7.837c0-4.328-3.508-7.837-7.837-7.837h-126.2l-3.393-6.807    c-1.681-3.364-5.066-5.453-8.829-5.453c-3.77,0-7.155,2.093-8.835,5.463l-7.735,15.518l-17.314,2.491    c-3.751,0.536-6.81,3.103-7.967,6.655c-1.202,3.616-0.243,7.512,2.506,10.169l12.489,12.052l-2.939,16.982    c-0.657,3.734,0.846,7.441,3.998,9.726c1.381,0.978,2.963,1.554,4.62,1.739h-30.521c-1.416,0-2.612-1.196-2.612-2.612V193.711    h243.935c4.329,0,7.837-3.508,7.837-7.837c0-4.329-3.508-7.837-7.837-7.837H179.249v-15.684c0-1.416,1.196-2.612,2.612-2.612    h311.853c1.416,0,2.612,1.196,2.612,2.612V178.038z"/>
	</g>
</g>
<g>
	<g>
		<path d="M147.332,331.138c-4.329,0-7.837,3.508-7.837,7.837v19.271c0,4.329,3.508,7.837,7.837,7.837    c4.329,0,7.837-3.508,7.837-7.837v-19.271C155.168,334.647,151.661,331.138,147.332,331.138z"/>
	</g>
</g>
<g>
	<g>
		<path d="M86.904,366.292c-14.15,0-25.662,11.519-25.662,25.679s11.512,25.68,25.662,25.68s25.663-11.52,25.663-25.68    C112.566,377.81,101.054,366.292,86.904,366.292z M86.904,401.978c-5.508,0-9.989-4.489-9.989-10.007    c0-5.517,4.48-10.006,9.989-10.006c5.509,0,9.989,4.489,9.989,10.006C96.892,397.489,92.412,401.978,86.904,401.978z"/>
	</g>
</g>
<g>
</g>
<g>
</g>
<g>
</g>
<g>
</g>
<g>
</g>
<g>
</g>
<g>
</g>
<g>
</g>
<g>
</g>
<g>
</g>
<g>
</g>
<g>
</g>
<g>
</g>
<g>
</g>
<g>
</g>
</svg>
