<?xml version="1.0" encoding="iso-8859-1"?>
<!-- Generator: Adobe Illustrator 19.0.0, SVG Export Plug-In . SVG Version: 6.00 Build 0)  -->
<svg xmlns="http://www.w3.org/2000/svg" xmlns:xlink="http://www.w3.org/1999/xlink" version="1.1" id="Layer_1" x="0px" y="0px" viewBox="0 0 512 512" style="enable-background:new 0 0 512 512;" xml:space="preserve">
<g>
	<g>
		<path d="M231.176,346.363h-68.443c-4.328,0-7.837,3.508-7.837,7.837c0,4.328,3.509,7.837,7.837,7.837h68.443    c4.328,0,7.837-3.509,7.837-7.837S235.504,346.363,231.176,346.363z"/>
	</g>
</g>
<g>
	<g>
		<path d="M217.152,370.982h-40.393c-4.328,0-7.837,3.508-7.837,7.837c0,4.329,3.509,7.837,7.837,7.837h40.393    c4.328,0,7.837-3.508,7.837-7.837C224.988,374.489,221.48,370.982,217.152,370.982z"/>
	</g>
</g>
<g>
	<g>
		<path d="M466.131,156.015h-9.374v-15.714c0-10.105-8.222-18.325-18.328-18.325h-59V13.081C379.429,5.868,373.56,0,366.346,0    h-13.85c-7.213,0-13.082,5.868-13.082,13.081v108.893h-59.001c-9.576,0-17.448,7.384-18.248,16.756    c-0.536-0.036-1.074-0.062-1.615-0.062c-1.043,0-2.083,0.069-3.113,0.205c-2.237-4.845-5.847-8.951-10.448-11.793    c-1.715-11.769-11.816-20.554-23.791-20.554c-0.908,0-1.828,0.052-2.734,0.155c-4.014,0.456-7.786,1.893-11.028,4.158    c-3.97-1.449-8.284-1.971-12.549-1.487c-7.054,0.8-13.389,4.206-17.934,9.608c-1.369-2.581-3.139-4.953-5.277-6.999    c-5.144-4.913-11.896-7.619-19.012-7.619c-7.574,0-14.629,3.008-19.865,8.468c-2.335,2.436-4.172,5.233-5.457,8.282    c-5.744,0.53-11.029,3.069-15.068,7.281c-4.442,4.634-6.811,10.717-6.67,17.132c0.045,2.057,0.366,4.063,0.911,5.989    c-5.587,1.046-10.692,3.788-14.721,7.988c-2.334,2.435-4.171,5.233-5.456,8.282c-5.743,0.53-11.027,3.068-15.067,7.28    c-4.442,4.634-6.811,10.72-6.67,17.133c0.033,1.508,0.219,2.986,0.523,4.43c-3.898,4.391-6.038,9.939-6.06,15.793    c-7.914,4.005-13.127,12.195-13.087,21.487h-2.108c-10.105,0-18.328,8.221-18.328,18.326v2.041    c0,10.105,8.222,18.326,18.328,18.326h1.645L83.671,474.7c-2.456,2.379-3.988,5.703-3.988,9.383v14.833    c0,7.213,5.869,13.082,13.082,13.082h37.846c4.328,0,7.837-3.508,7.837-7.837c0-4.329-3.509-7.837-7.837-7.837H95.355v-9.649    h203.199v9.65H161.958c-4.328,0-7.837,3.508-7.837,7.837c0,4.329,3.509,7.837,7.837,7.837H295.32h5.826h122.377    c6.975,0,12.906-5.444,13.501-12.392l25.181-293.881h3.926c10.105,0,18.328-8.221,18.328-18.326v-13.059    C484.459,164.236,476.236,156.015,466.131,156.015z M355.089,15.673h8.667v106.301h-8.667V15.673z M256.375,155.467    c1.293-0.747,2.697-1.125,4.174-1.125c2.695,0,5.235,1.295,6.795,3.463c1.369,1.902,3.516,3.091,5.855,3.243    c2.334,0.148,4.621-0.752,6.223-2.46c0.572-0.609,1.216-1.123,1.93-1.534c1.293-0.746,2.697-1.124,4.173-1.124    c2.983,0,5.763,1.597,7.254,4.171c1.47,2.535,1.493,5.595,0.063,8.186c-1.064,1.928-1.268,4.213-0.563,6.299    c0.705,2.086,2.256,3.777,4.271,4.663c2.322,1.021,4.213,2.704,5.468,4.869c0.421,0.727,0.754,1.489,1.009,2.27    c-2.583,0.543-5.083,1.443-7.413,2.692c-2.833-1.124-5.808-1.694-8.852-1.694c-6.019,0-11.662,2.241-15.978,6.078    c-0.398-0.331-0.817-0.636-1.236-0.941c1.845-6.167,1.474-12.723-1.11-18.703c-2.91-6.736-8.271-11.939-15.103-14.651    c-0.101-0.04-0.205-0.067-0.306-0.106C253.752,157.566,254.902,156.319,256.375,155.467z M318.906,225.408    c0.958,2.169,2.848,3.789,5.14,4.402c0.509,0.137,0.885,0.26,1.196,0.395c1.743,0.75,3.141,2.042,4.027,3.682h-31.79    c1.461-6.129,0.777-12.522-2.005-18.272c-2.532-5.232-6.559-9.394-11.441-12.083c0.866-0.298,1.783-0.472,2.731-0.472    c1.135,0,2.247,0.231,3.322,0.693c0.515,0.22,1.01,0.497,1.473,0.823c2.889,2.034,6.782,1.885,9.507-0.368    c3.38-2.795,8.2-3.523,12.255-1.779c2.901,1.249,5.138,3.548,6.301,6.477c1.16,2.924,1.111,6.123-0.145,9.026    c-0.07,0.163-0.157,0.313-0.237,0.468l-0.128,0.243C318.022,220.751,317.947,223.238,318.906,225.408z M281.884,231.448    c-0.303,0.869-0.709,1.68-1.19,2.44h-33.146c-0.102-8.674-4.827-16.251-11.829-20.387c0.888,0.014,1.777,0.115,2.652,0.329    c3.86,0.952,7.82-1.146,9.211-4.87c0.756-2.027,2.24-3.659,4.18-4.593c1.149-0.555,2.371-0.837,3.629-0.837    c3.243,0,6.131,1.808,7.539,4.716c0.25,0.514,0.447,1.06,0.587,1.62c0.86,3.423,3.903,5.851,7.432,5.927    c4.487,0.097,8.477,2.645,10.416,6.651C282.736,225.277,282.921,228.475,281.884,231.448z M247.559,173.736    c2.938,1.166,5.244,3.403,6.494,6.298c1.084,2.508,1.259,5.251,0.527,7.844c-3.348,0.111-6.586,0.902-9.631,2.372    c-3.639,1.756-6.723,4.357-9.032,7.566c-4.258-0.055-8.407,0.857-12.27,2.713c-2.102-2.834-4.741-5.243-7.757-7.097    c0.577-7.163-1.646-14.103-6.061-19.507c0.273-0.144,0.539-0.302,0.795-0.479c1.931-1.331,3.163-3.458,3.359-5.794    c0.069-0.824,0.257-1.626,0.561-2.387c1.273-3.197,4.325-5.263,7.775-5.263c1.053,0,2.091,0.2,3.086,0.595    c2.734,1.085,4.656,3.475,5.142,6.397c0.36,2.167,1.614,4.084,3.457,5.283c1.842,1.2,4.101,1.568,6.231,1.021    C242.681,172.666,245.241,172.819,247.559,173.736z M215.827,223.952c1.745,1.612,4.128,2.345,6.475,1.995    c0.487-0.072,0.887-0.109,1.224-0.109c4.514,0,8.194,3.586,8.347,8.049h-55.079c-0.217-1.589-0.917-3.12-2.1-4.356    c-1.503-1.569-2.33-3.613-2.33-5.755c0-4.595,3.75-8.335,8.36-8.335c0.567,0,1.146,0.061,1.72,0.179    c3.456,0.72,6.963-0.967,8.568-4.109c2.037-3.987,6.074-6.464,10.536-6.464c6.522,0,11.828,5.292,11.828,11.798    c0,0.211-0.021,0.417-0.036,0.626l-0.013,0.183C213.163,220.023,214.083,222.34,215.827,223.952z M198.653,124.927    c2.751-0.311,5.501,0.339,7.815,1.842c3.329,2.161,7.746,1.495,10.287-1.553c1.39-1.666,3.334-2.718,5.475-2.96    c0.323-0.037,0.648-0.055,0.969-0.055c4.255,0,7.829,3.181,8.315,7.397c0.065,0.565,0.071,1.136,0.02,1.696    c-0.327,3.522,1.746,6.827,5.059,8.067c3.146,1.176,5.576,3.551,6.815,6.519c-1.607,1.643-2.972,3.504-4.05,5.54    c-2.282-2.29-5.032-4.145-8.171-5.391c-2.842-1.127-5.824-1.699-8.865-1.699c-8.065,0-15.362,3.947-19.776,10.369    c-1.393-1.716-2.999-3.195-4.753-4.444c0.32-1.659,0.467-3.365,0.429-5.094c-0.137-6.218-2.634-12.01-7.014-16.398    C193.138,126.617,195.749,125.255,198.653,124.927z M184.813,161.535c2.22,0.247,4.212,1.342,5.607,3.082    c1.392,1.737,2.023,3.91,1.775,6.125c-0.063,0.562-0.184,1.123-0.363,1.669c-1.1,3.361,0.186,7.043,3.141,8.986    c2.843,1.87,4.683,4.787,5.192,8.018c-7.992,0.394-15.286,4.197-20.161,10.364c-3.215,0.095-6.274,0.824-9.055,2.067    c-3.62-3.976-8.383-6.886-13.769-8.208c0.032-0.6,0.049-1.201,0.037-1.808c-0.141-6.414-2.774-12.386-7.417-16.824    c-0.396-0.378-0.806-0.739-1.224-1.087c-0.436-1.477-0.574-3.026-0.401-4.577c0.666-5.986,5.711-10.499,11.736-10.499    c0.44,0,0.889,0.024,1.326,0.073c2.773,0.309,5.26,1.527,7.192,3.52c2.764,2.853,7.225,3.188,10.382,0.775    C180.547,161.89,182.65,161.293,184.813,161.535z M158.927,233.888h-34.402c-0.223-0.315-0.467-0.617-0.741-0.902    c-1.498-1.56-2.323-3.601-2.323-5.745c0-4.594,3.749-8.333,8.359-8.333c0.578,0,1.154,0.06,1.713,0.176    c3.461,0.722,6.968-0.962,8.575-4.106c2.039-3.987,6.076-6.466,10.537-6.466c3.527,0,6.687,1.555,8.857,4.004    c-1.794,3.359-2.812,7.194-2.812,11.26C156.69,227.314,157.463,230.751,158.927,233.888z M125.585,139.221    c1.583-1.651,3.723-2.559,6.028-2.559c0.627,0,1.255,0.069,1.865,0.205c2.145,0.479,4.394,0.037,6.196-1.223    c1.802-1.259,2.994-3.216,3.282-5.396c0.332-2.505,1.422-4.784,3.155-6.59c2.253-2.349,5.289-3.643,8.551-3.643    c3.065,0,5.972,1.165,8.183,3.277c2.01,1.923,3.243,4.394,3.565,7.146c0.462,3.949,3.808,6.927,7.783,6.927    c2.174,0,4.229,0.818,5.786,2.306c1.61,1.539,2.523,3.609,2.573,5.833c0.002,0.12-0.007,0.239-0.009,0.359    c-2.631,0.151-5.231,0.726-7.671,1.718c-3.56-2.298-7.636-3.766-11.899-4.241c-1.015-0.112-2.043-0.169-3.058-0.169    c-11.493,0-21.451,7.063-25.523,17.282c-0.546-0.628-1.114-1.238-1.718-1.816c-0.213-0.203-0.433-0.397-0.651-0.592    c-0.02-0.113-0.031-0.227-0.056-0.34c-0.511-2.294-2.024-4.238-4.122-5.294c-0.73-0.369-1.403-0.844-1.998-1.412    c-1.61-1.539-2.524-3.611-2.573-5.835C123.224,142.938,124.045,140.827,125.585,139.221z M84.581,185.893    c1.583-1.651,3.723-2.559,6.026-2.559c0.627,0,1.255,0.069,1.866,0.206c2.147,0.481,4.395,0.037,6.197-1.223    c1.803-1.258,2.995-3.216,3.283-5.396c0.332-2.507,1.422-4.787,3.152-6.591c2.253-2.35,5.29-3.644,8.552-3.644    c3.065,0,5.971,1.165,8.182,3.279c2.01,1.923,3.243,4.393,3.565,7.144c0.461,3.95,3.808,6.928,7.783,6.928    c2.174,0,4.231,0.819,5.786,2.304c1.61,1.538,2.523,3.609,2.573,5.832c0.018,0.789-0.08,1.56-0.276,2.303    c-3.726,1.348-7.117,3.489-9.941,6.284c-5.029-5.628-12.342-9.148-20.509-9.148c-0.343,0-0.687,0.006-1.029,0.019    c-3.374,0.124-6.64,0.854-9.687,2.147c-4.427-3.553-10.05-5.467-15.897-5.25c-0.466,0.018-0.923,0.075-1.383,0.118    C83.217,187.632,83.808,186.699,84.581,185.893z M70.841,225.553c2.326-0.317,4.386-1.658,5.616-3.657    c1.231-1.998,1.5-4.443,0.736-6.662c-0.27-0.781-0.421-1.59-0.451-2.408c-0.083-2.223,0.707-4.344,2.225-5.975    c1.52-1.634,3.587-2.58,5.822-2.661c2.924-0.117,5.681,1.324,7.301,3.791c1.206,1.838,3.127,3.085,5.297,3.437    c2.17,0.351,4.388-0.224,6.113-1.586c1.986-1.569,4.362-2.447,6.872-2.539c1.748-0.073,3.412,0.234,4.917,0.844    c-5.769,4.39-9.5,11.318-9.5,19.104c0,2.278,0.33,4.508,0.948,6.647H63.64C63.597,229.685,66.651,226.123,70.841,225.553z     M45.868,256.908c-1.439,0-2.654-1.215-2.654-2.653v-2.041c0-1.438,1.215-2.653,2.654-2.653h302.175    c1.439,0,2.654,1.215,2.654,2.653v2.041c0,1.438-1.215,2.653-2.654,2.653H45.868z M348.042,233.888h-2.428    c-0.275-1.657-0.722-3.298-1.358-4.898c-1.763-4.438-4.735-8.166-8.567-10.826c0.76-4.124,0.54-8.361-0.63-12.436h104.718    l-99.123,98.962l5.744-32.108h1.645c10.105,0,18.328-8.221,18.328-18.326v-2.041C366.369,242.109,358.148,233.888,348.042,233.888    z M247.341,272.581l-3.308,48.128c-5.954-3.113-12.434-5.588-19.266-7.401l1.008-40.727H247.341z M210.098,272.581l-0.936,37.827    c-4.007-0.439-8.082-0.67-12.205-0.67s-8.199,0.231-12.206,0.67l-0.937-37.827H210.098z M169.143,313.308    c-6.833,1.814-13.313,4.288-19.267,7.402l-3.308-48.129h21.567L169.143,313.308z M127.478,471.004l-1.559-12.243    c-0.547-4.292-4.469-7.329-8.764-6.783c-4.294,0.545-7.331,4.47-6.785,8.764l1.307,10.263H98.931L63.435,272.581h22.971    l19.972,156.816c0.547,4.295,4.472,7.339,8.765,6.784c4.294-0.547,7.331-4.47,6.784-8.764l-19.719-154.836h28.651l4.008,58.308    c-12.131,10.586-18.733,23.864-18.733,38.026c0,16.18,8.617,31.209,24.259,42.382l4.103,59.706H127.478z M160.207,471.004    l-3.483-50.682c4.818,2.015,9.908,3.646,15.19,4.891l1.134,45.791H160.207z M205.183,471.004h-16.458l-1.072-43.313    c3.068,0.254,6.17,0.399,9.302,0.399s6.233-0.145,9.301-0.399L205.183,471.004z M233.703,471.004h-12.841l1.134-45.791    c5.282-1.245,10.372-2.877,15.19-4.891L233.703,471.004z M196.955,412.416c-17.896,0-34.623-4.833-47.1-13.609    c-11.639-8.187-18.049-18.802-18.049-29.891c0-11.09,6.409-21.706,18.049-29.892c12.476-8.776,29.204-13.609,47.1-13.609    c17.896,0,34.624,4.833,47.1,13.609c11.639,8.187,18.049,18.803,18.049,29.892c0,11.089-6.409,21.705-18.049,29.891    C231.579,407.583,214.852,412.416,196.955,412.416z M294.979,471.004h-12.747l17.942-140.87c0.547-4.292-2.49-8.217-6.783-8.764    c-4.301-0.552-8.217,2.49-8.765,6.783l-18.195,142.85h-17.019l4.103-59.706c15.643-11.173,24.261-26.202,24.261-42.384    c0-14.161-6.602-27.441-18.734-38.026l4.007-58.308h28.651l-3.218,25.27c-0.547,4.292,2.49,8.217,6.784,8.764    c4.295,0.541,8.216-2.491,8.764-6.783l3.47-27.249h22.971L294.979,471.004z M424.395,463.412h-95.253    c-4.328,0-7.837,3.508-7.837,7.837c0,4.329,3.509,7.837,7.837,7.837h93.909l-1.477,17.241H314.228v-12.242    c0-3.681-1.534-7.004-3.988-9.383l12.485-69.789l116.662-116.472L424.395,463.412z M441.424,264.653    c-0.588,0.336-1.145,0.748-1.648,1.25L327.548,377.949l8.283-46.298l109.195-109.017L441.424,264.653z M468.785,187.4    c0,1.438-1.215,2.653-2.654,2.653H323.299c-1.203-0.755-2.452-1.448-3.783-2.021c-0.104-0.045-0.211-0.084-0.317-0.126    c-0.308-4.056-1.52-8.024-3.621-11.648c-0.959-1.655-2.091-3.172-3.347-4.57h78.559c4.328,0,7.837-3.508,7.837-7.837    s-3.509-7.837-7.837-7.837H308.11c-0.476-1.288-1.062-2.552-1.768-3.771c-4.283-7.394-12.259-11.987-20.814-11.987    c-2.649,0-5.274,0.453-7.768,1.307v-1.263c0-1.438,1.215-2.652,2.654-2.652H438.43c1.439,0,2.654,1.214,2.654,2.652v15.714    h-18.946c-4.328,0-7.837,3.508-7.837,7.837c0,4.329,3.509,7.837,7.837,7.837h43.993c1.439,0,2.654,1.215,2.654,2.653V187.4z"/>
	</g>
</g>
<g>
</g>
<g>
</g>
<g>
</g>
<g>
</g>
<g>
</g>
<g>
</g>
<g>
</g>
<g>
</g>
<g>
</g>
<g>
</g>
<g>
</g>
<g>
</g>
<g>
</g>
<g>
</g>
<g>
</g>
</svg>
