<?xml version="1.0" encoding="iso-8859-1"?>
<!-- Generator: Adobe Illustrator 19.0.0, SVG Export Plug-In . SVG Version: 6.00 Build 0)  -->
<svg xmlns="http://www.w3.org/2000/svg" xmlns:xlink="http://www.w3.org/1999/xlink" version="1.1" id="Layer_1" x="0px" y="0px" viewBox="0 0 512.001 512.001" style="enable-background:new 0 0 512.001 512.001;" xml:space="preserve">
<g>
	<g>
		<path d="M71.884,325.229c-1.453-1.463-3.469-2.299-5.538-2.299c-2.058,0-4.087,0.836-5.539,2.299    c-1.463,1.452-2.299,3.468-2.299,5.538c0,2.069,0.836,4.087,2.299,5.539c1.452,1.463,3.481,2.299,5.539,2.299    c2.057,0.001,4.084-0.835,5.538-2.299c1.463-1.452,2.299-3.481,2.299-5.539C74.183,328.698,73.347,326.682,71.884,325.229z"/>
	</g>
</g>
<g>
	<g>
		<path d="M42.125,330.527c-1.463-1.462-3.479-2.298-5.549-2.298c-2.058,0-4.075,0.836-5.538,2.298c-1.463,1.454-2.3,3.47-2.3,5.54    c0,2.068,0.837,4.084,2.3,5.538c1.463,1.462,3.479,2.299,5.538,2.299c2.069,0,4.087-0.837,5.549-2.299    c1.452-1.453,2.288-3.479,2.288-5.538C44.413,334.007,43.577,331.981,42.125,330.527z"/>
	</g>
</g>
<g>
	<g>
		<path d="M58.739,354.29c-1.452-1.451-3.479-2.288-5.538-2.288c-2.069,0-4.086,0.837-5.548,2.288    c-1.452,1.463-2.288,3.479-2.288,5.549c0,2.058,0.836,4.074,2.288,5.538c1.463,1.463,3.479,2.3,5.548,2.3    c2.058,0,4.075-0.837,5.538-2.3c1.463-1.463,2.299-3.479,2.299-5.538C61.037,357.77,60.201,355.754,58.739,354.29z"/>
	</g>
</g>
<g>
	<g>
		<path d="M170.631,456.994l-13.124-13.201c-3.051-3.068-8.013-3.081-11.083-0.03c-3.07,3.051-3.085,8.014-0.032,11.083l13.124,13.2    c1.532,1.541,3.544,2.312,5.558,2.312c1.999,0,3.997-0.76,5.525-2.281C173.669,465.026,173.684,460.064,170.631,456.994z"/>
	</g>
</g>
<g>
	<g>
		<path d="M184.546,443.079l-13.124-13.201c-3.051-3.07-8.013-3.082-11.083-0.031c-3.07,3.051-3.085,8.013-0.032,11.083    l13.123,13.201c1.533,1.542,3.546,2.312,5.559,2.312c1.998,0,3.997-0.761,5.525-2.281    C187.584,451.111,187.599,446.149,184.546,443.079z"/>
	</g>
</g>
<g>
	<g>
		<path d="M428.717,62.37c-1.452-1.463-3.479-2.3-5.538-2.3c-2.058,0-4.086,0.837-5.538,2.3c-1.463,1.452-2.299,3.468-2.299,5.538    c0,2.058,0.836,4.086,2.299,5.538c1.452,1.463,3.478,2.3,5.538,2.3c2.058,0,4.086-0.837,5.538-2.3    c1.463-1.452,2.299-3.469,2.299-5.538C431.016,65.84,430.18,63.823,428.717,62.37z"/>
	</g>
</g>
<g>
	<g>
		<path d="M445.436,45.651c-1.452-1.464-3.469-2.299-5.538-2.299c-2.058,0-4.086,0.835-5.538,2.299    c-1.463,1.452-2.299,3.468-2.299,5.538c0,2.068,0.836,4.086,2.299,5.538c1.451,1.464,3.478,2.299,5.538,2.299    c2.069,0,4.086-0.835,5.538-2.299c1.463-1.452,2.299-3.479,2.299-5.538C447.735,49.13,446.899,47.103,445.436,45.651z"/>
	</g>
</g>
<g>
	<g>
		<path d="M509.722,40.963l-5.492-5.524l3.056-20.45c0.518-3.465-0.341-6.701-2.419-9.112c-1.943-2.256-4.82-3.549-7.894-3.549    c-1.418,0-2.859,0.267-4.282,0.793l-86.994,32.143c-5.311,1.962-9.842,7.441-10.775,13.026l-3.53,21.158    c-0.385,2.301-0.202,4.854,0.439,7.312L251.498,217.785l-2.82-2.837c-3.051-3.07-8.013-3.083-11.083-0.032    c-3.07,3.052-3.085,8.014-0.032,11.083l2.88,2.897l-16.001,16.079l-6.984-7.026c-2.07-2.08-4.828-3.227-7.767-3.227    c-2.94,0-5.7,1.147-7.769,3.229l-16.119,16.215c-4.247,4.274-4.246,11.226,0.001,15.496l7.033,7.076l-18.915,19.008l-6.958-7    c-2.07-2.083-4.83-3.23-7.77-3.23c-2.94,0-5.7,1.147-7.769,3.23l-16.119,16.214c-4.245,4.273-4.245,11.223,0.001,15.498    l7.008,7.049l-22.968,23.083l-6.932-6.973c-2.07-2.083-4.83-3.23-7.77-3.23c-2.939,0-5.699,1.147-7.769,3.229L70.848,369.8    c-4.245,4.274-4.245,11.224,0.001,15.498l24.183,24.325c-5.142,7.117-9.55,14.566-13.167,22.197l-53.681-53.999    c-16.69-16.79-16.702-44.099-0.024-60.877c6.823-6.863,15.494-11.099,25.074-12.25c0.333-0.04,2.135-0.354,3.096-0.494    c37.67-5.476,60.716-12.9,70.457-22.699c6.317-6.354,11.346-13.701,15.081-21.956c1.607,2.183,3.392,4.277,5.359,6.254    c1.532,1.542,3.545,2.312,5.558,2.312c1.998,0,3.997-0.759,5.525-2.28c3.07-3.052,3.085-8.014,0.032-11.083    c-15.198-15.287-15.457-39.901-0.579-54.867c7.07-7.113,16.543-11.029,26.674-11.029c10.445,0,20.296,4.123,27.739,11.611    l5.646,5.679c3.052,3.07,8.013,3.085,11.083,0.033c3.07-3.052,3.085-8.014,0.032-11.083l-5.646-5.679    c-10.407-10.471-24.206-16.236-38.856-16.236c-0.001,0,0,0-0.001,0c-14.334,0-27.756,5.559-37.789,15.651    c-13.254,13.333-18.002,32.062-14.316,49.437c-2.653,12.895-8.24,23.712-16.661,32.184c-4.029,4.053-17.389,11.812-61.596,18.238    c-0.967,0.14-2.777,0.424-3.032,0.482c-12.99,1.632-24.741,7.41-34,16.724c-22.736,22.87-22.723,60.093,0.026,82.977    l102.971,103.583c11.04,11.106,25.72,17.221,41.334,17.221c15.599,0,30.261-6.107,41.286-17.196    c9.252-9.308,14.99-21.113,16.608-34.161c0.056-0.254,0.107-0.518,0.149-0.792c0.08-0.516,0.189-1.276,0.328-2.245    c0.461-3.206,1.231-8.57,2.383-15.038c0.76-4.262-2.08-8.332-6.341-9.091c-4.261-0.759-8.332,2.079-9.091,6.34    c-1.198,6.728-1.993,12.256-2.466,15.56c-0.14,0.972-0.241,1.696-0.31,2.131c-0.079,0.319-0.14,0.645-0.179,0.975    c-1.147,9.659-5.365,18.399-12.197,25.271c-8.059,8.107-18.775,12.572-30.17,12.572c-11.409,0-22.14-4.473-30.217-12.599    l-37.44-37.66c3.24-7.827,7.464-15.495,12.546-22.822l17.333,17.435c2.07,2.084,4.828,3.231,7.769,3.231    c2.94,0,5.7-1.147,7.769-3.229l26.03-26.185c4.246-4.273,4.246-11.223-0.001-15.498l-7.131-7.174l20.745-20.849    c1.216-0.294,2.432-0.557,3.648-0.8l5.631,5.664c2.07,2.083,4.829,3.23,7.77,3.23c2.938,0,5.697-1.146,7.768-3.229l6.136-6.173    c8.503,1.645,15.942,5.154,21.95,10.416c-1.685,1.417-3.332,2.886-4.898,4.462c-5.238,5.269-9.694,14.174-13.619,27.227    c-1.247,4.145,1.102,8.515,5.247,9.762c0.753,0.227,1.513,0.334,2.261,0.334c3.369,0,6.482-2.191,7.502-5.583    c4.094-13.607,7.849-18.803,9.725-20.69c8.386-8.435,19.083-14.043,31.828-16.718c3.845,0.847,7.729,1.293,11.596,1.293    c13.858,0,27.433-5.389,37.718-15.736c18.939-19.049,20.756-49.767,4.209-71.476c-0.365-0.474-0.763-0.931-1.188-1.358    c-2.206-2.22-5.128-3.653-8.232-4.033c-3.729-0.461-7.542,0.631-10.471,2.985c-10.943,8.782-26.84,7.716-36.979-2.481    c-0.865-0.87-1.653-1.787-2.382-2.733l167.46-168.29c3.42-0.053,6.624-1.403,9.036-3.831l5.775-5.81    c1.503,1.402,3.419,2.113,5.34,2.113c1.998,0,3.997-0.76,5.525-2.279c3.022-3.004,3.076-7.853,0.168-10.934l6.486-6.523    c1.503,1.403,3.419,2.115,5.341,2.115c1.998,0,3.996-0.76,5.524-2.279c3.023-3.004,3.077-7.856,0.168-10.935l6.487-6.525    c1.503,1.402,3.419,2.113,5.339,2.113c1.998,0,3.996-0.76,5.525-2.279c3.021-3.004,3.076-7.853,0.168-10.934l4.403-4.428    c0.655-0.659,1.286-1.437,1.894-2.266c1.528,1.522,3.529,2.286,5.53,2.286c1.998,0,3.997-0.76,5.525-2.28    C512.758,48.995,512.773,44.033,509.722,40.963z M209.691,252.371l46.113,46.388l-9.488,9.544l-46.113-46.388L209.691,252.371z     M203.888,287.854l2.788,2.805l-18.911,19.012l-2.791-2.809L203.888,287.854z M131.365,423.935l-46.114-46.387l19.398-19.513    l46.115,46.387L131.365,423.935z M146.979,378.381l-16.577-16.676l22.968-23.083l2.798,2.815l-11.331,11.392    c-3.052,3.068-3.04,8.03,0.029,11.082c1.529,1.521,3.528,2.281,5.527,2.281c2.012,0,4.025-0.77,5.556-2.31l11.269-11.329    l2.729,2.745L146.979,378.381z M195.824,359.095l-46.115-46.388l9.488-9.543l46.113,46.388L195.824,359.095z M201.552,323.539    l-2.736-2.751l18.911-19.011l2.74,2.755L201.552,323.539z M270.06,306.653c13.635,5.521,29.442,3.93,41.727-5.143    c10.74,15.39,9.196,36.409-3.865,49.547c-11.87,11.939-29.991,14.505-45.091,6.387c-3.813-2.048-8.564-0.622-10.614,3.191    c-0.892,1.658-1.124,3.493-0.79,5.206c-2.189,0.903-4.334,1.868-6.4,2.948c-0.077-0.077-0.153-0.161-0.23-0.239    c-6.458-6.458-14.236-11.216-23.001-14.215c1.965-4.082,1.278-9.145-2.087-12.53l-7.107-7.15l18.915-19.006l7.033,7.075    c2.07,2.08,4.828,3.227,7.767,3.227c2.939,0,5.7-1.147,7.769-3.229L270.06,306.653z M252.071,272.77l-2.746-2.763l87.427-87.896    c3.053-3.07,3.04-8.032-0.029-11.083c-3.069-3.053-8.031-3.041-11.083,0.029l-87.364,87.834l-2.781-2.798l165.51-166.331    l2.764,2.779l-60.45,60.75c-3.053,3.068-3.041,8.03,0.027,11.083c1.529,1.521,3.529,2.282,5.529,2.282    c2.011,0,4.024-0.77,5.555-2.309l60.391-60.69l2.762,2.778L252.071,272.77z M489.76,26.212c-1.357,0.323-2.647,1.003-3.708,2.06    c-3.07,3.051-3.085,8.013-0.032,11.082l1.238,1.245c-0.474,1.049-1.12,2.139-1.635,2.655l-4.331,4.357l-1.676-1.686    c-3.051-3.07-8.012-3.085-11.083-0.033c-3.07,3.052-3.085,8.013-0.032,11.082l1.742,1.752l-6.47,6.509l-1.676-1.686    c-3.05-3.07-8.013-3.083-11.083-0.033c-3.071,3.051-3.086,8.013-0.033,11.082l1.743,1.753l-6.468,6.508l-1.677-1.686    c-3.051-3.068-8.013-3.081-11.083-0.032c-3.07,3.052-3.085,8.013-0.032,11.083l1.742,1.753l-3.956,3.979l-23.696-23.835    c-0.34-0.414-0.725-1.626-0.698-2.093l3.512-21.049c0.132-0.321,0.577-0.858,0.867-1.048l79.366-29.326L489.76,26.212z"/>
	</g>
</g>
<g>
</g>
<g>
</g>
<g>
</g>
<g>
</g>
<g>
</g>
<g>
</g>
<g>
</g>
<g>
</g>
<g>
</g>
<g>
</g>
<g>
</g>
<g>
</g>
<g>
</g>
<g>
</g>
<g>
</g>
</svg>
