<?xml version="1.0" encoding="iso-8859-1"?>
<!-- Generator: Adobe Illustrator 19.0.0, SVG Export Plug-In . SVG Version: 6.00 Build 0)  -->
<svg xmlns="http://www.w3.org/2000/svg" xmlns:xlink="http://www.w3.org/1999/xlink" version="1.1" id="Layer_1" x="0px" y="0px" viewBox="0 0 512 512" style="enable-background:new 0 0 512 512;" xml:space="preserve">
<g>
	<g>
		<path d="M183.072,211.122c-4.323-0.191-7.964,3.206-8.129,7.532c-0.008,0.193-0.014,0.387-0.016,0.538    c-0.195,9.484-9.803,17.201-21.418,17.201c-4.329,0-7.837,3.508-7.837,7.837c0,4.329,3.508,7.837,7.837,7.837    c20.082,0,36.72-14.604,37.089-32.592l0.006-0.222C190.769,214.925,187.397,211.286,183.072,211.122z"/>
	</g>
</g>
<g>
	<g>
		<path d="M325.265,211.064c-4.329,0-7.837,3.508-7.837,7.837c0,9.644-9.612,17.491-21.428,17.491c-4.329,0-7.837,3.508-7.837,7.837    c0,4.329,3.508,7.837,7.837,7.837c20.457,0,37.101-14.877,37.101-33.164C333.102,214.572,329.594,211.064,325.265,211.064z"/>
	</g>
</g>
<g>
	<g>
		<path d="M463.818,111.289H363.181C363.168,49.921,313.242,0,251.878,0h-54.246C136.258,0,86.328,49.935,86.328,111.313v5.834    c-8.124-5.916-17.872-9.119-28.117-9.119c-5.116,0-10.17,0.809-15.019,2.406c-3.719,1.224-6.671,4.175-7.898,7.903    c-5.134,15.62-2.002,32.414,8.115,45.004c-10.117,12.588-13.249,29.381-8.112,45.012c1.227,3.72,4.18,6.671,7.894,7.892    c4.195,1.382,8.545,2.172,12.957,2.362v26.024c0,1.833,0.262,3.604,0.741,5.286l-2.422,2.424c-5.087,5.092-5.087,13.378,0,18.47    l14.945,14.958c2.463,2.465,5.743,3.822,9.237,3.822s6.774-1.357,9.237-3.822l9.428-9.435    c6.828,17.248,16.683,33.649,29.141,48.069c9.736,11.269,20.492,20.713,31.959,28.205L44.546,385.448    c-8.823,2.547-15.477,11.395-15.477,20.58v87.915c0,9.957,8.097,18.057,18.05,18.057h355.276c9.953,0,18.049-8.1,18.049-18.057    v-20.308c0-4.329-3.508-7.837-7.837-7.837c-4.329,0-7.837,3.508-7.837,7.837v20.308c0,1.292-1.088,2.383-2.375,2.383H47.117    c-1.287,0-2.375-1.092-2.375-2.383v-87.915c0-2.142,2.095-4.929,4.148-5.521l91.63-26.428c0.069,13.663,3.486,27.214,9.9,39.216    c1.412,2.641,4.119,4.145,6.918,4.145c1.245,0,2.51-0.299,3.686-0.928c3.817-2.04,5.258-6.788,3.217-10.605    c-5.27-9.862-8.056-21.015-8.056-32.256v-4.092l9.794-2.824v6.916c0,32.432,26.366,58.817,58.774,58.817    c32.409,0,58.773-26.386,58.773-58.817v-6.917l9.795,2.825v4.092c0,37.845-30.76,68.634-68.568,68.634    c-17.042,0.001-33.39-6.326-46.033-17.813c-3.204-2.911-8.16-2.675-11.071,0.53c-2.91,3.203-2.674,8.161,0.53,11.071    c15.534,14.116,35.626,21.887,56.574,21.886c46.308,0,84-37.591,84.23-83.882l91.632,26.43c2.055,0.592,4.15,3.379,4.15,5.521    v39.056c0,4.329,3.508,7.837,7.837,7.837c4.329,0,7.837-3.508,7.837-7.837v-39.056c0-9.186-6.653-18.033-15.479-20.58    l-113.945-32.865c9.097-5.921,17.748-13.057,25.775-21.338c3.013-3.108,2.936-8.069-0.172-11.08    c-3.107-3.013-8.069-2.935-11.08,0.172c-4.403,4.542-9.008,8.694-13.778,12.445c-6.159-25.125-26.111-45.22-52.071-50.958    c-4.231-0.93-8.41,1.735-9.344,5.96c-0.934,4.227,1.735,8.409,5.96,9.343c22.059,4.877,38.515,23.171,41.342,45.299    c-16.654,9.769-34.716,14.979-52.874,15.025c-18.341-0.047-36.344-5.222-52.922-14.958c2.8-22.159,19.267-40.486,41.349-45.366    c4.226-0.935,6.894-5.118,5.96-9.343c-0.935-4.227-5.118-6.895-9.343-5.96c-25.976,5.743-45.938,25.858-52.083,51.005    c-6.838-5.399-13.343-11.637-19.424-18.673c-15.57-18.022-26.652-39.396-32.218-61.439c10.884,13.462,28.085,22.175,47.414,22.175    c20.267,0,38.349-9.762,49.127-24.543c2.52,10.458,12.502,18.294,24.406,18.294c10.184,0,19.173-5.731,23.036-14.298    c10.969,12.516,27.545,20.547,45.923,20.547c19.289,0,36.455-8.677,47.343-22.089c-4.077,16.02-11.064,31.795-20.656,46.216    c-2.397,3.603-1.418,8.469,2.186,10.865c3.604,2.397,8.468,1.419,10.865-2.186c6.625-9.959,12.133-20.523,16.435-31.389    l9.452,9.461c2.463,2.464,5.743,3.821,9.236,3.821s6.772-1.357,9.237-3.822l14.944-14.957c5.09-5.093,5.09-13.379,0.001-18.471    l-2.423-2.424c0.48-1.681,0.742-3.453,0.742-5.286v-48.918c0-10.696-8.714-19.396-19.427-19.396h-10.754v-0.276v-19.787v-4.18    h100.637c10.539,0,19.113-8.574,19.113-19.114v-2.556C482.932,119.863,474.357,111.289,463.818,111.289z M87.277,236.832    c-2.382-2.109-5.413-3.273-8.631-3.273c-2.453,0-4.794,0.681-6.826,1.934v-39.781c0-2.019,1.719-3.723,3.752-3.723h10.756v28.677    C86.328,226.034,86.654,231.434,87.277,236.832z M49.698,124.84c2.77-0.756,5.627-1.138,8.513-1.138    c8.614,0,16.71,3.356,22.798,9.449c2.121,2.122,3.896,4.486,5.32,7.011v4.074v1.462c-1.829-0.213-3.673-0.322-5.524-0.322    c-9.249,0-18.09,2.615-25.701,7.475C49.053,144.894,47.026,134.608,49.698,124.84z M56.146,195.713v7.199    c-2.183-0.139-4.341-0.494-6.448-1.069c-3.063-11.2,0.046-23.074,8.307-31.342c6.088-6.093,14.183-9.449,22.798-9.449    c1.86,0,3.705,0.176,5.524,0.491v14.498v0.276H75.572C64.861,176.315,56.146,185.016,56.146,195.713z M78.647,272.838    l-11.253-11.262l11.253-11.262L89.9,261.576L78.647,272.838z M224.775,373.126c14.641-0.037,29.172-2.946,43.081-8.487v9.013    c0,23.79-19.335,43.144-43.1,43.144c-23.766,0-43.101-19.354-43.101-43.144v-8.932    C195.505,370.215,210.02,373.088,224.775,373.126z M102.001,123.525h33.519c1.275,0,2.351,1.08,2.351,2.359l0.001,10.516h-35.871    V123.525z M197.376,219.324c-0.007,0.114-0.013,0.228-0.015,0.342c-0.447,21.808-20.118,39.551-43.852,39.551    c-24.188,0-43.867-18.086-43.867-40.316v-27.807c0-6.898,6.011-12.511,13.399-12.511h72.94c0.769,0,1.395,0.698,1.395,1.556    V219.324z M236.175,246.861c-0.951,3.539-4.792,6.107-9.133,6.107c-5.158,0-9.353-3.497-9.353-7.795v-42.921h18.773v16.997    c0,0.287,0.008,0.575,0.022,0.858c0.171,7.544,1.963,14.734,5.054,21.278C239.007,242.133,236.909,244.128,236.175,246.861z     M213.049,186.578v-2.702h23.412v2.702H213.049z M296,259.217c-23.734,0-43.405-17.742-43.851-39.551    c-0.001-0.086-0.004-0.171-0.009-0.257l-0.006-39.269c0-0.858,0.627-1.556,1.397-1.556h72.939c7.386,0,13.397,5.612,13.397,12.511    v27.807h0.001C339.867,241.131,320.189,259.217,296,259.217z M347.509,136.4h-0.001H201.665c-4.329,0-7.837,3.508-7.837,7.837    c0,4.329,3.508,7.837,7.837,7.837h143.151h2.692v16.13h-4.111c-4.771-3.326-10.615-5.292-16.927-5.292H253.53    c-4.821,0-9.174,2.036-12.282,5.292H208.26c-3.107-3.256-7.459-5.292-12.281-5.292h-72.94c-6.312,0-12.157,1.968-16.928,5.292H102    v-16.13h69.362c4.329,0,7.837-3.508,7.837-7.837c0-4.329-3.508-7.837-7.837-7.837h-17.818v-10.516    c0-9.943-8.085-18.033-18.024-18.033h-33.449c1.83-51.138,43.989-92.178,95.561-92.178h54.246c52.731,0,95.63,42.905,95.63,95.64    V136.4z M370.862,272.838l-11.253-11.262l11.253-11.262l11.253,11.262L370.862,272.838z M363.182,220.666v-28.677h10.753    c2.034,0,3.753,1.705,3.753,3.723v39.781c-2.033-1.251-4.375-1.934-6.826-1.934c-3.224,0-6.256,1.168-8.642,3.284    C362.851,231.427,363.182,226.023,363.182,220.666z M467.258,132.959c0,1.865-1.576,3.441-3.44,3.441H363.181v-9.438h100.637    c1.864,0,3.44,1.576,3.44,3.441V132.959z"/>
	</g>
</g>
<g>
	<g>
		<path d="M248.151,312.794h-46.794c-4.328,0-7.837,3.509-7.837,7.837c0,4.329,3.508,7.837,7.837,7.837h46.794    c4.329,0,7.837-3.508,7.837-7.837C255.988,316.302,252.48,312.794,248.151,312.794z"/>
	</g>
</g>
<g>
</g>
<g>
</g>
<g>
</g>
<g>
</g>
<g>
</g>
<g>
</g>
<g>
</g>
<g>
</g>
<g>
</g>
<g>
</g>
<g>
</g>
<g>
</g>
<g>
</g>
<g>
</g>
<g>
</g>
</svg>
