<?xml version="1.0" encoding="iso-8859-1"?>
<!-- Generator: Adobe Illustrator 19.0.0, SVG Export Plug-In . SVG Version: 6.00 Build 0)  -->
<svg xmlns="http://www.w3.org/2000/svg" xmlns:xlink="http://www.w3.org/1999/xlink" version="1.1" id="Layer_1" x="0px" y="0px" viewBox="0 0 511.998 511.998" style="enable-background:new 0 0 511.998 511.998;" xml:space="preserve">
<g>
	<g>
		<path d="M255.999,232.645c-42.675,0-77.395,34.41-77.395,76.706c0,42.296,34.72,76.706,77.395,76.706s77.395-34.411,77.395-76.706    S298.674,232.645,255.999,232.645z M255.999,370.384c-34.033,0-61.721-27.379-61.721-61.032s27.688-61.032,61.721-61.032    s61.721,27.379,61.721,61.032S290.033,370.384,255.999,370.384z"/>
	</g>
</g>
<g>
	<g>
		<path d="M429.55,97.054h-2.405V78.963c0-7.202-5.859-13.061-13.061-13.061h-6.839L385.525,9.875    C383.307,4.153,377.242,0,371.104,0h-230.21c-6.138,0-12.202,4.154-14.421,9.875l-21.72,56.026h-6.839    c-7.202,0-13.061,5.859-13.061,13.061v18.09h-2.404c-7.202,0-13.061,5.859-13.061,13.061v34.469    c0,7.203,5.859,13.061,13.061,13.061h16.045l4.687,47.612h-1.589c-3.578,0-6.984,1.495-9.346,4.101    c-2.363,2.606-3.516,6.143-3.165,9.702l18.173,184.593c0.677,6.879,6.624,12.267,13.536,12.267h3.132l7.74,78.611    c0.964,9.795,9.429,17.468,19.271,17.468h210.133c9.842,0,18.308-7.673,19.271-17.469l7.74-78.61h3.132    c6.912,0,12.859-5.389,13.536-12.268l3.35-34.034c0.424-4.307-2.725-8.143-7.031-8.566c-4.297-0.411-8.142,2.724-8.566,7.032    l-3.166,32.164H122.668l-17.654-179.316h301.967l-11.296,114.758c-0.424,4.307,2.723,8.142,7.031,8.566    c4.295,0.419,8.143-2.724,8.566-7.031l11.633-118.162c0.351-3.56-0.802-7.097-3.165-9.703c-2.362-2.606-5.768-4.101-9.346-4.101    h-1.59l4.687-47.612h16.047c7.202,0,13.061-5.859,13.061-13.061v-34.469C442.611,102.913,436.751,97.054,429.55,97.054z     M372.327,415.923l-3.526,35.823h-39.658c-4.329,0-7.837,3.508-7.837,7.837c0,4.329,3.508,7.837,7.837,7.837h38.115l-2.517,25.577    c-0.168,1.713-1.954,3.331-3.674,3.331H150.933c-1.719,0-3.505-1.619-3.674-3.329l-2.518-25.578h148.873    c4.329,0,7.837-3.508,7.837-7.837c0-4.329-3.508-7.837-7.837-7.837H143.199l-3.528-35.824H372.327z M100.527,81.575h76.059    c4.329,0,7.837-3.508,7.837-7.837c0-4.329-3.508-7.837-7.837-7.837h-55.021l19.423-50.1c0.054-0.046,0.124-0.094,0.187-0.129    h229.651c0.063,0.034,0.133,0.083,0.187,0.129l19.423,50.1H210.024c-4.329,0-7.837,3.508-7.837,7.837    c0,4.329,3.508,7.837,7.837,7.837h201.447v15.478H100.527V81.575z M426.937,141.972h-75.852c-4.329,0-7.837,3.508-7.837,7.837    c0,4.329,3.508,7.837,7.837,7.837h46.669l-4.687,47.612H118.932l-4.687-47.612h203.404c4.329,0,7.837-3.508,7.837-7.837    c0-4.329-3.508-7.837-7.837-7.837H85.061v-29.245h341.876V141.972z"/>
	</g>
</g>
<g>
</g>
<g>
</g>
<g>
</g>
<g>
</g>
<g>
</g>
<g>
</g>
<g>
</g>
<g>
</g>
<g>
</g>
<g>
</g>
<g>
</g>
<g>
</g>
<g>
</g>
<g>
</g>
<g>
</g>
</svg>
