<?xml version="1.0" encoding="iso-8859-1"?>
<!-- Generator: Adobe Illustrator 19.0.0, SVG Export Plug-In . SVG Version: 6.00 Build 0)  -->
<svg xmlns="http://www.w3.org/2000/svg" xmlns:xlink="http://www.w3.org/1999/xlink" version="1.1" id="Layer_1" x="0px" y="0px" viewBox="0 0 511.998 511.998" style="enable-background:new 0 0 511.998 511.998;" xml:space="preserve">
<g>
	<g>
		<path d="M416.641,232.032h-6.239c-11.254-19.719-27.466-35.655-47.062-46.444c-1.312-6.886-6.532-12.715-13.782-14.417    l-34.967-8.207c-4.243-0.995-8.611-0.444-12.463,1.528c-24.469-16.348-47.946-34.036-70.38-57.459    c-18.973-19.294-36.927-42.653-51.995-67.434l3.498-14.959c2.296-9.816-3.82-19.673-13.633-21.975l-9.281-2.178    c-4.745-1.113-9.647-0.306-13.804,2.274c-4.158,2.58-7.058,6.613-8.168,11.359L77.553,274.145    c-2.296,9.816,3.82,19.673,13.633,21.975l9.281,2.178c1.391,0.327,2.794,0.488,4.189,0.488c3.365,0,6.676-0.937,9.615-2.762    c4.158-2.58,7.058-6.613,8.168-11.359l3.497-14.952c24.49-15.499,50.95-28.445,76.576-37.316c2.602-0.938,5.259-1.859,7.897-2.735    c4.076-1.355,6.291-5.735,4.99-9.816c-0.009-0.031-0.016-0.063-0.026-0.093c-1.366-4.107-5.801-6.329-9.909-4.964    c-2.763,0.918-5.545,1.883-8.175,2.833c-16.851,5.833-34.063,13.372-50.89,22.199c-5.2,2.727-10.363,5.577-15.467,8.54    l32.985-141.036c0.985-4.214-1.632-8.429-5.846-9.415h-0.001c-4.217-0.985-8.429,1.632-9.414,5.846l-41.478,177.341    c-0.211,0.9-0.823,1.395-1.169,1.61c-0.348,0.215-1.065,0.544-1.961,0.332l-9.281-2.178c-1.38-0.325-2.275-1.765-1.952-3.147    l60.812-260.024c0.211-0.9,0.823-1.395,1.169-1.61c0.347-0.215,1.062-0.544,1.962-0.332l9.281,2.178    c1.38,0.325,2.275,1.765,1.952,3.147l-12.495,53.426c-0.985,4.214,1.631,8.429,5.846,9.416c4.219,0.985,8.43-1.632,9.416-5.846    l3.999-17.096c3.26,4.927,6.621,9.777,10.071,14.533c11.149,15.377,23.204,29.764,35.674,42.445    c22.938,23.951,47.436,42.448,72.043,58.966l-4.666,19.952c-17.263,2.261-34.789,5.147-52.514,9.403    c-4.209,1.011-6.801,5.242-5.791,9.45c0.007,0.029,0.018,0.056,0.025,0.086c1.048,4.158,5.248,6.703,9.424,5.705    c17.411-4.182,34.773-7.012,51.932-9.238c2.487,3.347,6.114,5.872,10.479,6.897h0.001l34.967,8.204    c1.392,0.327,2.796,0.488,4.192,0.488c2.124,0,4.227-0.376,6.229-1.111c4.75,3.067,9.13,6.642,13.099,10.653    c-0.19,0.191-0.362,0.399-0.544,0.599h-82.965c-5.086-5.49-12.353-8.935-20.411-8.935c-15.343,0-27.826,12.475-27.826,27.81    c0,12.616,8.451,23.289,19.99,26.681v11.734h-71.036c-7.202,0-13.061,5.859-13.061,13.061v12.655h-21.633    c-7.202,0-13.061,5.859-13.061,13.061v12.322c0,6.818,5.254,12.425,11.924,13.004v72.551h-7.771    c-6.139,0-12.188,4.339-14.194,10.14l-21.09,54.264c-0.056,0.145-0.109,0.292-0.156,0.441c-1.194,3.716-0.635,7.552,1.533,10.527    c2.168,2.975,5.651,4.68,9.553,4.68h271.749c3.902,0,7.384-1.706,9.553-4.68c2.168-2.976,2.727-6.813,1.534-10.527    c-0.048-0.148-0.1-0.295-0.157-0.441l-21.087-54.263c-2.006-5.8-8.055-10.141-14.194-10.141H348.8v-24.917    c18.879-7.392,35.73-19.393,49.077-35.218c2.79-3.308,2.371-8.251-0.938-11.042c-0.074-0.063-0.153-0.115-0.229-0.173    c-3.304-2.586-8.086-2.121-10.815,1.113c-10.275,12.182-22.942,21.75-37.096,28.268v-13.893    c20.87-11.187,37.043-29.962,44.827-53.263c4.251-12.724,5.694-25.929,4.436-38.908h12.563c1.226,14.31-0.468,28.842-5.148,42.854    c-1.547,4.634-3.421,9.189-5.569,13.536c-1.873,3.794-0.388,8.363,3.306,10.357c0.085,0.045,0.164,0.097,0.251,0.14    c3.885,1.918,8.582,0.324,10.497-3.556c2.462-4.985,4.609-10.205,6.381-15.512c5.517-16.514,7.425-33.658,5.792-50.505    c5.262-3.214,8.794-8.994,8.794-15.599V250.32C434.927,240.236,426.723,232.032,416.641,232.032z M347.929,189.579l-4.816,20.593    c-0.211,0.901-0.823,1.397-1.17,1.611c-0.346,0.215-1.06,0.545-1.961,0.332l-34.968-8.204c-1.381-0.325-2.276-1.765-1.952-3.147    l4.817-20.597c0.211-0.901,0.823-1.396,1.169-1.61c0.347-0.215,1.064-0.544,1.961-0.332l34.967,8.207    C347.358,186.755,348.253,188.195,347.929,189.579z M357.922,215.325c0.171-0.519,0.327-1.045,0.453-1.584l2.649-11.323    c12.169,7.645,22.645,17.676,30.874,29.615H376.23C370.881,225.66,364.734,220.052,357.922,215.325z M283.636,253.676h70.93v6.403    h-70.93c0.121-1.051,0.19-2.119,0.19-3.202C283.827,255.795,283.758,254.727,283.636,253.676z M243.847,256.878    c0-6.691,5.452-12.136,12.153-12.136s12.153,5.445,12.153,12.136c0,6.693-5.452,12.138-12.153,12.138    S243.847,263.57,243.847,256.878z M226.487,310.966h83.868v10.042h-83.867H179.74v-10.042H226.487z M169.888,336.683h175.161    v7.098h-40.985c-4.329,0-7.837,3.508-7.837,7.837h-12.539c0-4.329-3.508-7.837-7.837-7.837H169.889h-24.843v-7.098H169.888z     M333.125,359.454v72.493H181.813H156.97v-72.493h24.843h94.04c4.297,0,7.781-3.459,7.831-7.743h12.548    c0.051,4.285,3.535,7.743,7.831,7.743H333.125z M356.098,447.621l18.927,48.705h-235.71h-24.249l18.929-48.705h24.249H356.098z     M378.761,317.855c-3.82,11.435-10.065,21.565-18.106,29.87c0.045-0.438,0.068-0.883,0.068-1.332v-12.322    c0-7.202-5.859-13.061-13.061-13.061H326.03v-12.655c0-7.202-5.859-13.061-13.061-13.061h-49.132V283.56    c4.881-1.435,9.207-4.169,12.576-7.806h81.226c3.282,4.914,8.874,8.16,15.214,8.16h9.46    C383.631,295.217,382.468,306.758,378.761,317.855z M419.253,265.627c0,1.416-1.196,2.612-2.612,2.612h-43.789    c-1.416,0-2.612-1.196-2.612-2.612v-15.308c0-1.416,1.196-2.612,2.612-2.612h43.789c1.416,0,2.612,1.196,2.612,2.612V265.627z"/>
	</g>
</g>
<g>
</g>
<g>
</g>
<g>
</g>
<g>
</g>
<g>
</g>
<g>
</g>
<g>
</g>
<g>
</g>
<g>
</g>
<g>
</g>
<g>
</g>
<g>
</g>
<g>
</g>
<g>
</g>
<g>
</g>
</svg>
