<?xml version="1.0" encoding="iso-8859-1"?>
<!-- Generator: Adobe Illustrator 19.0.0, SVG Export Plug-In . SVG Version: 6.00 Build 0)  -->
<svg xmlns="http://www.w3.org/2000/svg" xmlns:xlink="http://www.w3.org/1999/xlink" version="1.1" id="Layer_1" x="0px" y="0px" viewBox="0 0 512 512" style="enable-background:new 0 0 512 512;" xml:space="preserve">
<g>
	<g>
		<path d="M479.128,320.542c-0.136-0.125-0.281-0.236-0.422-0.354c-0.362-25.529-13.815-47.932-33.931-60.796    c-5.52-25.607-28.315-44.86-55.525-44.86h-42.296c-18.693,0-36.213,9.311-46.76,24.577h-54.71    c-2.493-20.053-9.538-39.397-20.567-56.346c-2.362-3.629-7.217-4.656-10.843-2.294c-3.628,2.362-4.655,7.215-2.294,10.843    c9.379,14.411,15.481,30.79,17.882,47.797h-5.01c-4.328,0-7.837,3.508-7.837,7.837c0,4.328,3.509,7.837,7.837,7.837h79.851    c2.802,0,5.392-1.497,6.791-3.926c7.337-12.737,21-20.651,35.659-20.651h42.296c22.683,0,41.137,18.478,41.137,41.189v55.293    H151.369v-72.074c-0.172-21.461-5.552-42.675-15.565-61.563c0.817-3.978,1.249-8.056,1.249-12.151v-8.491    c0-4.329-3.509-7.837-7.837-7.837c-4.328,0-7.837,3.508-7.837,7.837v8.491c-0.001,3.265-0.354,6.517-1.052,9.666    c-0.065,0.292-0.33,1.368-0.399,1.629c-4.443,16.967-18.486,29.733-35.776,32.52c-0.024,0.004-0.047,0.01-0.071,0.015    c-2.311,0.369-4.676,0.56-7.035,0.56H32.71v-60.773c0-13.548,6.076-26.186,16.669-34.673c1.857-1.488,2.937-3.738,2.937-6.117    V16.891c6.504,5.03,13.992,25.327,13.992,54.831c0,14.097-1.915,28.284-5.257,38.926c-0.815,2.596-0.225,5.428,1.559,7.484    c1.784,2.055,4.505,3.039,7.191,2.596c15.219-2.502,30.337,3.032,40.341,14.27c1.443,1.621,3.492,2.57,5.661,2.624    c29.794,0.728,57.974,12.606,79.349,33.445c3.098,3.022,8.059,2.958,11.081-0.141c3.022-3.099,2.958-8.06-0.141-11.081    c-23.424-22.837-54.067-36.175-86.604-37.77c-4.466-4.472-9.581-8.161-15.119-10.999c5.105-5.964,9.764-12.303,13.67-18.353    c9.13-14.142,16.165-29.608,19.298-42.431c5.314-21.747-1.331-31.334-7.83-35.539c-0.931-0.605-1.945-1.139-3.023-1.59    c-1.385-0.578-2.846-0.87-4.345-0.87c-3.849,0-7.395,1.931-9.484,5.165L81.854,65.163C81.304,50.583,78.94,36.45,75.181,25.6    C67.85,4.441,57.064,0,49.308,0c-1.097,0-2.23,0.103-3.376,0.307c-5.383,0.967-9.29,5.64-9.29,11.112v108.7    c-12.507,11.385-19.607,27.357-19.607,44.396v92.636c0,21.025,17.091,38.131,38.099,38.131c21.008,0,38.099-17.106,38.099-38.131    V238.74c14.391-4.023,26.646-13.266,34.511-25.687c5.116,13.241,7.836,27.387,7.95,41.622v244.263    c0,7.202,5.859,13.061,13.061,13.061h31.493c7.203,0,13.061-5.859,13.061-13.061v-91.345c0-4.093,3.278-7.433,7.34-7.522v98.867    c0,7.202,5.859,13.061,13.061,13.061h31.493c7.203,0,13.061-5.859,13.061-13.061v-49.633c0-4.329-3.509-7.837-7.837-7.837    c-4.328,0-7.837,3.508-7.837,7.837v12.863h-26.269v-69.937c0-4.329-3.509-7.837-7.837-7.837h-7.67    c-11.51,0-21.087,8.438-22.88,19.457h-19.061c-4.14,0-7.508-3.375-7.508-7.524v-13.185v-16.906h88.957    c4.328,0,7.837-3.508,7.837-7.837c0-4.329-3.509-7.837-7.837-7.837h-88.957v-8.202h279.018v8.202H272.718    c-4.328,0-7.837,3.508-7.837,7.837c0,4.329,3.509,7.837,7.837,7.837h157.669v26.645c0,4.329,3.509,7.837,7.837,7.837    c4.328,0,7.837-3.508,7.837-7.837V280.384c10.441,10.405,16.926,24.776,16.986,40.642c-9.751,9.23-15.338,22.157-15.338,35.598    c0,13.671,5.772,26.824,15.844,36.091c2.131,1.955,4.895,3.032,7.787,3.032c2.89,0,5.655-1.077,7.79-3.039    c10.065-9.261,15.838-22.414,15.836-36.083C494.964,342.952,489.192,329.8,479.128,320.542z M80.184,96.643l42.667-66.08    c2.737,7.766-1.981,28.88-17.977,53.657c-5.382,8.337-11.072,15.506-16.564,21.322c-3.121-0.6-6.299-0.968-9.513-1.063    C79.323,101.943,79.785,99.325,80.184,96.643z M77.562,257.151h-0.001c0,12.384-10.06,22.458-22.426,22.458    c-12.365,0-22.426-10.075-22.426-22.458v-16.19h44.335c0.172,0,0.345-0.009,0.517-0.012V257.151z M216.325,477.842h26.269v18.484    h-26.269V477.842z M177.636,496.327h-26.269v-18.484h26.269V496.327z M158.876,419.527h18.761v42.642h-26.269v-43.898    C153.725,419.08,156.248,419.527,158.876,419.527z M471.336,378.238c-5.095-5.998-7.955-13.679-7.955-21.615    c0-7.935,2.858-15.612,7.956-21.613c5.094,5.996,7.954,13.676,7.953,21.614C479.29,364.562,476.429,372.243,471.336,378.238z"/>
	</g>
</g>
<g>
	<g>
		<path d="M403.368,280.476c-1.3-3.961-4.626-7.007-8.668-7.944l-7.709-1.802l-4.101-6.769c-2.163-3.554-6.091-5.763-10.252-5.763    c-4.164,0-8.094,2.209-10.26,5.775l-4.092,6.754l-7.7,1.8c-4.059,0.944-7.385,3.993-8.684,7.97    c-1.285,3.957-0.393,8.375,2.335,11.537l5.169,5.973l-0.666,7.869c-0.346,4.151,1.535,8.25,4.894,10.687    c2.06,1.502,4.501,2.295,7.057,2.295c1.601,0,3.161-0.315,4.642-0.935l7.302-3.067l7.303,3.067    c1.477,0.621,3.039,0.935,4.641,0.935c2.547,0,4.983-0.789,7.053-2.289c3.38-2.458,5.257-6.565,4.897-10.697l-0.662-7.865    l5.169-5.974C403.77,288.876,404.664,284.452,403.368,280.476z M382.262,289.777c-1.638,1.91-2.451,4.441-2.233,6.908l0.373,4.434    l-4.039-1.696c-1.181-0.513-2.435-0.773-3.726-0.773c-1.272,0-2.506,0.252-3.668,0.748l-4.097,1.72l0.373-4.407    c0.221-2.528-0.609-5.073-2.256-6.959l-2.9-3.35l4.276-1c2.473-0.558,4.645-2.123,5.953-4.288l2.319-3.826l2.294,3.784    c1.307,2.19,3.485,3.768,5.916,4.318l4.336,1.015L382.262,289.777z"/>
	</g>
</g>
<g>
	<g>
		<path d="M325.464,280.476c-1.3-3.961-4.626-7.007-8.668-7.944l-7.708-1.802l-4.1-6.769c-2.163-3.554-6.091-5.763-10.252-5.763    c-4.164,0-8.094,2.209-10.261,5.775l-4.091,6.754l-7.7,1.8c-4.06,0.944-7.386,3.993-8.686,7.973    c-1.283,3.957-0.391,8.374,2.336,11.536l5.169,5.972l-0.666,7.869c-0.347,4.15,1.534,8.249,4.894,10.687    c2.061,1.502,4.501,2.295,7.058,2.295c1.6,0,3.159-0.313,4.642-0.935l7.302-3.067l7.302,3.067    c1.477,0.621,3.039,0.935,4.641,0.935c2.547,0,4.982-0.789,7.052-2.288c3.381-2.458,5.258-6.565,4.898-10.698l-0.662-7.865    l5.168-5.972C325.868,288.876,326.762,284.451,325.464,280.476z M304.359,289.777c-1.638,1.91-2.451,4.441-2.233,6.908    l0.374,4.434l-4.045-1.699c-1.179-0.511-2.43-0.77-3.72-0.77c-1.273,0-2.506,0.252-3.668,0.748l-4.097,1.72l0.373-4.407    c0.221-2.524-0.607-5.068-2.255-6.96l-2.9-3.349l4.274-1c2.471-0.556,4.641-2.119,5.956-4.288l2.318-3.826l2.292,3.784    c1.306,2.189,3.483,3.767,5.916,4.318l4.336,1.015L304.359,289.777z"/>
	</g>
</g>
<g>
	<g>
		<path d="M242.482,280.473c-1.301-3.959-4.627-7.004-8.669-7.942l-7.709-1.802l-4.1-6.769c-2.163-3.554-6.091-5.763-10.252-5.763    c-4.165,0-8.095,2.209-10.261,5.775l-4.091,6.754l-7.7,1.8c-4.058,0.943-7.384,3.99-8.686,7.973    c-1.284,3.958-0.391,8.375,2.336,11.535l5.169,5.973l-0.666,7.872c-0.345,4.15,1.536,8.247,4.896,10.685    c2.061,1.5,4.5,2.294,7.056,2.294c1.601,0,3.161-0.315,4.642-0.935l7.302-3.067l7.302,3.067c1.477,0.621,3.039,0.935,4.641,0.935    c2.547,0,4.983-0.789,7.054-2.289c3.38-2.458,5.256-6.565,4.896-10.697l-0.662-7.866l5.168-5.971    C242.884,288.877,243.778,284.453,242.482,280.473z M221.376,289.777c-1.642,1.913-2.453,4.447-2.233,6.908l0.373,4.434    l-4.045-1.699c-1.179-0.511-2.43-0.77-3.72-0.77c-1.272,0-2.506,0.252-3.668,0.748l-4.098,1.72l0.372-4.398    c0.224-2.528-0.603-5.073-2.254-6.968l-2.9-3.35l4.274-1c2.474-0.557,4.647-2.123,5.956-4.288l2.318-3.826l2.298,3.791    c1.307,2.185,3.483,3.761,5.912,4.31l4.336,1.015L221.376,289.777z"/>
	</g>
</g>
<g>
	<g>
		<path d="M438.223,413.257c-4.328,0-7.837,3.508-7.837,7.837v41.075h-26.269V411.69c0-4.329-3.509-7.837-7.837-7.837H308.61    c-1.793-11.02-11.371-19.457-22.88-19.457h-35.3c-4.328,0-7.837,3.508-7.837,7.837v27.816c0,4.329,3.509,7.837,7.837,7.837    c4.328,0,7.837-3.508,7.837-7.837v-19.979h27.464c4.14,0,7.508,3.375,7.508,7.524v91.345c0,7.202,5.859,13.061,13.061,13.061    h31.493c7.202,0,13.061-5.859,13.061-13.061v-79.412h37.591v79.412c0,7.202,5.859,13.061,13.061,13.061H433    c7.203,0,13.061-5.859,13.061-13.061v-77.845C446.06,416.765,442.551,413.257,438.223,413.257z M335.181,496.327h-26.269v-18.484    h26.269V496.327z M335.181,462.169h-26.269v-42.642h26.269V462.169z M430.387,496.327L430.387,496.327h-26.269v-18.484h26.269    V496.327z"/>
	</g>
</g>
<g>
	<g>
		<path d="M53.515,156.759c-4.328,0-7.837,3.508-7.837,7.837v18.352c0,4.329,3.509,7.837,7.837,7.837s7.837-3.508,7.837-7.837    v-18.352C61.352,160.268,57.843,156.759,53.515,156.759z"/>
	</g>
</g>
<g>
	<g>
		<path d="M45.975,244.277c-4.328,0-7.837,3.508-7.837,7.837v5.225c0,4.329,3.509,7.837,7.837,7.837s7.837-3.508,7.837-7.837v-5.225    C53.812,247.786,50.303,244.277,45.975,244.277z"/>
	</g>
</g>
<g>
</g>
<g>
</g>
<g>
</g>
<g>
</g>
<g>
</g>
<g>
</g>
<g>
</g>
<g>
</g>
<g>
</g>
<g>
</g>
<g>
</g>
<g>
</g>
<g>
</g>
<g>
</g>
<g>
</g>
</svg>
