<?xml version="1.0" encoding="iso-8859-1"?>
<!-- Generator: Adobe Illustrator 19.0.0, SVG Export Plug-In . SVG Version: 6.00 Build 0)  -->
<svg xmlns="http://www.w3.org/2000/svg" xmlns:xlink="http://www.w3.org/1999/xlink" version="1.1" id="Layer_1" x="0px" y="0px" viewBox="0 0 512.001 512.001" style="enable-background:new 0 0 512.001 512.001;" xml:space="preserve">
<g>
	<g>
		<path d="M467.93,246.073c-4.328,0-7.837,3.508-7.837,7.837v14.31h-13.96v-74.648h13.96v30.036    c-0.002,4.329,3.507,7.837,7.835,7.837s7.837-3.508,7.837-7.837V191.01c0-7.23-5.883-13.111-13.113-13.111h-19.08    c-7.231,0-13.113,5.882-13.113,13.111v44.313h-8.669V91.7c0-4.329-3.509-7.837-7.837-7.837c-4.328,0-7.837,3.508-7.837,7.837    v143.623h-9.94V15.673h9.94v42.269c0,4.329,3.509,7.837,7.837,7.837c4.328,0,7.837-3.508,7.837-7.837V13.111    c0-7.23-5.882-13.111-13.112-13.111h-15.061c-7.231,0-13.113,5.882-13.113,13.111v12.993H131.498V13.111    c0-7.23-5.883-13.111-13.114-13.111h-15.061c-7.231,0-13.112,5.882-13.112,13.111v222.212h-8.67V191.01    c0-7.23-5.883-13.111-13.113-13.111h-19.08c-7.231,0-13.113,5.882-13.113,13.111v79.773c0,7.23,5.883,13.111,13.113,13.111h60.017    l117.47,118.327l-70.987,71.523h-17.821c-7.231,0-13.112,5.882-13.112,13.111v12.033c0,7.23,5.882,13.111,13.112,13.111h71.255    c7.231,0,13.113-5.882,13.113-13.111v-12.033c0-5.766-3.747-10.664-8.931-12.415l11.43-11.516h62.204l11.434,11.518    c-5.181,1.752-8.927,6.649-8.927,12.413v12.033c0,7.23,5.883,13.111,13.113,13.111h71.255c7.231,0,13.112-5.882,13.112-13.111    v-12.033c0-7.23-5.882-13.111-13.112-13.111h-17.821l-70.999-71.535l31.012-31.245c3.049-3.071,3.03-8.033-0.042-11.082    c-3.071-3.05-8.033-3.031-11.082,0.042l-30.928,31.161l-7.072-7.125l99.318-100.067h14.144l-53.475,53.878    c-3.049,3.071-3.03,8.033,0.042,11.082c3.071,3.049,8.033,3.03,11.083-0.042l64.46-64.918h60.04    c7.231,0,13.113-5.882,13.113-13.111V253.91C475.767,249.581,472.258,246.073,467.93,246.073z M65.868,268.22h-13.96v-74.648    h13.96V268.22z M131.498,41.777h249.003V157.72H131.498V41.777z M105.884,15.673h9.94v171.361c0,4.329,3.509,7.837,7.837,7.837    c4.328,0,7.837-3.508,7.837-7.837v-13.641h249.003v61.929H131.498v-19.029c0-4.329-3.509-7.837-7.837-7.837    c-4.328,0-7.837,3.508-7.837,7.837v19.03h-9.94V15.673z M206.72,496.327h-66.134v-6.908h66.134V496.327z M192.072,473.745h-14.143    l59.948-60.4l7.072,7.123L192.072,473.745z M240.45,447.251l15.542-15.659l15.545,15.659H240.45z M371.413,489.419v6.908h-66.135    v-6.908H371.413z M334.07,473.745h-14.142L131.498,283.894h14.144L334.07,473.745z M255.998,372.835l-37.583-37.866h75.166    L255.998,372.835z M309.138,319.296H202.86l-35.137-35.402h176.552L309.138,319.296z M430.459,268.22h-0.001H81.541v-17.223    h348.918V268.22z"/>
	</g>
</g>
<g>
	<g>
		<path d="M305.446,85.222c-1.224-3.766-4.417-6.456-8.328-7.021l-22.023-3.196l-9.845-19.927c-1.75-3.547-5.294-5.75-9.25-5.75    c-3.958,0-7.502,2.204-9.248,5.746l-9.848,19.931L214.886,78.2c-3.916,0.565-7.109,3.254-8.331,7.011    c-1.228,3.764-0.227,7.818,2.61,10.581l15.932,15.513l-3.76,21.9c-0.671,3.9,0.903,7.768,4.106,10.092    c1.773,1.287,3.869,1.969,6.059,1.969c1.672,0,3.337-0.414,4.797-1.185L256,133.735l19.681,10.335    c1.48,0.782,3.144,1.195,4.815,1.195c2.191,0,4.286-0.68,6.06-1.969c3.203-2.326,4.776-6.192,4.106-10.09l-3.761-21.902    l15.934-15.515C305.67,93.028,306.669,88.976,305.446,85.222z M273.014,102.952c-1.849,1.8-2.694,4.396-2.257,6.941l2.621,15.264    l-13.734-7.212c-2.282-1.197-5.005-1.197-7.287,0l-13.735,7.212l2.621-15.265c0.436-2.544-0.407-5.14-2.257-6.94L227.893,92.15    l15.338-2.227c2.552-0.37,4.758-1.972,5.901-4.284L256,71.737l6.868,13.902c1.142,2.311,3.348,3.913,5.901,4.284l15.339,2.227    L273.014,102.952z"/>
	</g>
</g>
<g>
</g>
<g>
</g>
<g>
</g>
<g>
</g>
<g>
</g>
<g>
</g>
<g>
</g>
<g>
</g>
<g>
</g>
<g>
</g>
<g>
</g>
<g>
</g>
<g>
</g>
<g>
</g>
<g>
</g>
</svg>
