<?xml version="1.0" encoding="iso-8859-1"?>
<!-- Generator: Adobe Illustrator 19.0.0, SVG Export Plug-In . SVG Version: 6.00 Build 0)  -->
<svg xmlns="http://www.w3.org/2000/svg" xmlns:xlink="http://www.w3.org/1999/xlink" version="1.1" id="Layer_1" x="0px" y="0px" viewBox="0 0 511.999 511.999" style="enable-background:new 0 0 511.999 511.999;" xml:space="preserve">
<g>
	<g>
		<path d="M171.751,222.987c-0.263,0-0.523,0.015-0.781,0.039c-0.256-0.024-0.516-0.039-0.779-0.039H149.61v-27.69h47.141    c4.329,0,7.837-3.508,7.837-7.837c0-4.329-3.508-7.837-7.837-7.837h-54.977c-4.329,0-7.837,3.508-7.837,7.837v43.363    c0,4.329,3.508,7.837,7.837,7.837h28.418c0.263,0,0.523-0.015,0.779-0.039c0.257,0.024,0.517,0.039,0.781,0.039    c13.338,0,24.188,10.779,24.188,24.029c0,13.247-10.851,24.024-24.188,24.024c-10.046,0-18.895-6.005-22.544-15.299    c-1.583-4.03-6.135-6.007-10.16-4.43c-4.028,1.583-6.012,6.13-4.43,10.16c6.022,15.335,20.598,25.244,37.134,25.244    c21.98,0,39.862-17.808,39.862-39.698C211.613,240.798,193.732,222.987,171.751,222.987z"/>
	</g>
</g>
<g>
	<g>
		<path d="M308.136,276.136l-32.954-76.462c-1.238-2.873-4.069-4.734-7.197-4.734c-3.129,0-5.958,1.861-7.197,4.734l-32.954,76.463    c-1.714,3.976,0.12,8.586,4.095,10.3c3.978,1.715,8.586-0.121,10.299-4.095l9.516-22.082h32.482l9.517,22.082    c1.278,2.963,4.166,4.737,7.201,4.737c1.034,0,2.087-0.206,3.098-0.642C308.016,284.722,309.849,280.111,308.136,276.136z     M258.5,244.584l9.486-22.009l9.486,22.009H258.5z"/>
	</g>
</g>
<g>
	<g>
		<path d="M373.329,195.579c-3.977-1.715-8.586,0.121-10.299,4.095l-25.76,59.764l-25.756-59.764    c-1.716-3.974-6.324-5.81-10.301-4.095c-3.975,1.714-5.809,6.324-4.095,10.299l32.953,76.462c1.239,2.873,4.068,4.734,7.197,4.734    c3.128,0,5.958-1.861,7.197-4.734l32.957-76.462C379.138,201.903,377.304,197.291,373.329,195.579z"/>
	</g>
</g>
<g>
	<g>
		<path d="M450.52,410.122c-4.329,0-7.837,3.508-7.837,7.837v74.458c0,2.119-1.816,3.909-3.967,3.909H73.283    c-2.151,0-3.967-1.79-3.967-3.909V94.073c0-2.119,1.816-3.909,3.967-3.909h67.664c3.094,0,5.898-1.82,7.159-4.647    c18.904-42.429,61.255-69.844,107.892-69.844c18.23,0,35.706,4.024,51.942,11.957c3.887,1.901,8.581,0.287,10.481-3.6    c1.9-3.889,0.288-8.582-3.6-10.481C296.427,4.558,276.634,0,255.998,0c-51.097,0-97.655,29.07-120.031,74.491H73.283    c-10.829,0-19.641,8.784-19.641,19.582v398.343c0,10.798,8.812,19.582,19.641,19.582h365.432c10.829,0,19.641-8.784,19.641-19.582    v-74.457C458.356,413.63,454.849,410.122,450.52,410.122z"/>
	</g>
</g>
<g>
	<g>
		<path d="M438.716,74.491h-62.691c-8.258-16.73-20.133-31.771-34.569-43.738c-3.331-2.762-8.271-2.3-11.035,1.032    c-2.762,3.331-2.3,8.272,1.032,11.035c13.914,11.534,25.131,26.298,32.437,42.697c1.259,2.828,4.064,4.648,7.159,4.648h67.668    c2.151,0,3.967,1.79,3.967,3.909v292.538c0,4.329,3.508,7.837,7.837,7.837c4.329,0,7.837-3.508,7.837-7.837V94.073    C458.356,83.275,449.545,74.491,438.716,74.491z"/>
	</g>
</g>
<g>
	<g>
		<path d="M421.01,103.854h-49.961c-8.571,0-16.351-5.03-19.82-12.816c-16.695-37.467-54.076-61.676-95.231-61.676    c-41.156,0-78.537,24.209-95.232,61.676c-3.468,7.784-11.248,12.816-19.82,12.816H90.989c-4.329,0-7.837,3.508-7.837,7.837    v363.109c0,4.329,3.508,7.837,7.837,7.837H421.01c4.329,0,7.837-3.508,7.837-7.837V111.691    C428.846,107.362,425.339,103.854,421.01,103.854z M413.173,466.963H98.826V335.935h314.347V466.963z M413.173,320.261H98.826    v-164.82h217.778c4.329,0,7.837-3.508,7.837-7.837s-3.508-7.837-7.837-7.837H98.826v-20.24h42.122    c14.752,0,28.152-8.679,34.136-22.109c14.179-31.821,45.941-52.383,80.915-52.383c34.974,0,66.734,20.56,80.914,52.382    c5.984,13.431,19.384,22.109,34.136,22.109h42.124v20.24h-66.266c-4.329,0-7.837,3.508-7.837,7.837    c0,4.329,3.508,7.837,7.837,7.837h66.267V320.261z"/>
	</g>
</g>
<g>
	<g>
		<path d="M381.661,391.828l-59.274-45.816c-3.222-2.491-7.834-2.977-11.545-1.165c-3.784,1.859-6.134,5.633-6.134,9.848v16.177    h-167.66c-6.05,0-10.971,4.921-10.971,10.971v37.329c0,6.05,4.921,10.971,10.971,10.971h119.996c4.329,0,7.837-3.508,7.837-7.837    c0-4.329-3.508-7.837-7.837-7.837H141.75v-27.925h170.794c4.329,0,7.837-3.508,7.837-7.837v-14.437l46.903,36.253l-46.903,36.584    v-14.801c0-4.329-3.508-7.837-7.837-7.837h-25.198c-4.329,0-7.837,3.508-7.837,7.837c0,4.329,3.508,7.837,7.837,7.837h17.361    v16.596c0,4.161,2.416,8.029,6.17,9.865c1.489,0.723,3.149,1.107,4.801,1.107c2.437,0,4.836-0.826,6.747-2.321l59.266-46.226    c2.656-2.068,4.238-5.312,4.231-8.68C385.915,397.076,384.364,393.922,381.661,391.828z"/>
	</g>
</g>
<g>
	<g>
		<path d="M282.122,68.441h-52.245c-4.329,0-7.837,3.508-7.837,7.837c0,4.329,3.508,7.837,7.837,7.837h52.245    c4.329,0,7.837-3.508,7.837-7.837C289.959,71.949,286.451,68.441,282.122,68.441z"/>
	</g>
</g>
<g>
	<g>
		<path d="M301.413,95.608h-90.826c-4.329,0-7.837,3.508-7.837,7.837c0,4.329,3.508,7.837,7.837,7.837h90.826    c4.329,0,7.837-3.508,7.837-7.837C309.25,99.116,305.742,95.608,301.413,95.608z"/>
	</g>
</g>
<g>
</g>
<g>
</g>
<g>
</g>
<g>
</g>
<g>
</g>
<g>
</g>
<g>
</g>
<g>
</g>
<g>
</g>
<g>
</g>
<g>
</g>
<g>
</g>
<g>
</g>
<g>
</g>
<g>
</g>
</svg>
