<?xml version="1.0" encoding="iso-8859-1"?>
<!-- Generator: Adobe Illustrator 19.0.0, SVG Export Plug-In . SVG Version: 6.00 Build 0)  -->
<svg xmlns="http://www.w3.org/2000/svg" xmlns:xlink="http://www.w3.org/1999/xlink" version="1.1" id="Layer_1" x="0px" y="0px" viewBox="0 0 512 512" style="enable-background:new 0 0 512 512;" xml:space="preserve">
<g>
	<g>
		<path d="M256.001,202.991c-44.062,0.001-79.909,35.809-79.909,79.822c0,44.013,35.846,79.821,79.909,79.821    c44.061,0,79.909-35.808,79.909-79.821S300.062,202.991,256.001,202.991z M256.001,346.961c-35.419,0-64.235-28.776-64.235-64.147    c0-35.372,28.816-64.148,64.235-64.148s64.235,28.776,64.235,64.148C320.236,318.185,291.421,346.961,256.001,346.961z"/>
	</g>
</g>
<g>
	<g>
		<path d="M255.999,225.986c-31.367,0-56.884,25.491-56.884,56.826s25.519,56.827,56.885,56.827c5.782,0,11.489-0.864,16.96-2.57    c4.133-1.287,6.438-5.682,5.15-9.814c-1.288-4.133-5.684-6.44-9.814-5.15c-3.961,1.235-8.098,1.86-12.297,1.86    c-22.724,0-41.211-18.461-41.211-41.152c0-22.691,18.487-41.152,41.211-41.152s41.211,18.461,41.211,41.152    c0,9.474-3.132,18.377-9.057,25.745c-2.713,3.373-2.177,8.306,1.196,11.018c3.373,2.714,8.306,2.175,11.018-1.196    c8.072-10.037,12.516-22.668,12.516-35.567C312.884,251.479,287.365,225.986,255.999,225.986z"/>
	</g>
</g>
<g>
	<g>
		<path d="M256.001,256.49c-14.527,0-26.347,11.808-26.347,26.323c0,14.515,11.819,26.322,26.347,26.322    c14.527,0,26.346-11.808,26.346-26.322C282.347,268.297,270.528,256.49,256.001,256.49z M256.001,293.462    c-5.885,0-10.674-4.777-10.674-10.649c0-5.872,4.789-10.65,10.674-10.65c5.885,0,10.673,4.777,10.673,10.65    C266.673,288.684,261.885,293.462,256.001,293.462z"/>
	</g>
</g>
<g>
	<g>
		<path d="M425.893,262.54h-11.648V248.9c0-7.202-5.86-13.061-13.061-13.061H390.61v-0.917c0-7.202-5.859-13.061-13.061-13.061    h-23.031v-29.451h3.239c7.203,0,13.061-5.859,13.061-13.061v-24.406c0-7.202-5.859-13.061-13.061-13.061h-3.825v-3.696    c0-35.806-20.216-66.978-49.842-82.742V41.403c0-9.537-7.341-17.381-16.668-18.204v-4.913C287.422,8.203,279.219,0,269.136,0    h-26.269c-10.082,0-18.286,8.203-18.286,18.286v4.913c-9.326,0.823-16.667,8.667-16.667,18.204v14.041    c-29.626,15.763-49.842,46.936-49.842,82.741v3.696h-3.825c-7.202,0-13.061,5.859-13.061,13.061v24.406    c0,7.202,5.859,13.061,13.061,13.061h3.239v29.451h-23.031c-7.202,0-13.061,5.859-13.061,13.061v0.917H110.82    c-7.202,0-13.061,5.859-13.061,13.061v13.64H86.109c-7.203,0-13.061,5.859-13.061,13.061v14.424    c0,7.202,5.859,13.061,13.061,13.061h11.647v13.64c0,7.203,5.859,13.061,13.061,13.061h10.574v0.917    c0,7.203,5.859,13.061,13.061,13.061h23.031v88.179h-7.245c-7.203,0-13.061,5.859-13.061,13.061v10.546h-3.182    c-7.202,0-13.061,5.859-13.061,13.061v30.324c0,7.202,5.859,13.061,13.061,13.061h50.952c4.328,0,7.837-3.508,7.837-7.837    c0-4.329-3.509-7.837-7.837-7.837h-48.339v-25.102h238.783v25.102H218.384c-4.328,0-7.837,3.508-7.837,7.837    c0,4.329,3.509,7.837,7.837,7.837h159.621c7.202,0,13.061-5.859,13.061-13.061v-30.326c0-7.202-5.859-13.061-13.061-13.061h-3.182    v-10.546c0-7.202-5.859-13.061-13.061-13.061h-7.245v-88.179h23.031c7.202,0,13.061-5.859,13.061-13.061v-0.917h10.573    c7.201,0,13.061-5.859,13.061-13.061v-13.64h11.649c7.202,0,13.061-5.859,13.061-13.061V275.6    C438.954,268.399,433.094,262.54,425.893,262.54z M97.757,287.413h-9.035v-9.199h9.035V287.413z M121.393,314.113h-7.962v-62.601    h7.962V314.113z M338.257,138.185v3.696h-41.042v-3.696c0-5.905-0.216-11.813-0.644-17.557c-0.321-4.315-4.073-7.546-8.397-7.234    c-4.316,0.322-7.556,4.08-7.234,8.397c0.399,5.359,0.601,10.875,0.601,16.393v3.696H230.46v-3.696    c0-46.897,14.449-78.01,24.007-78.01h3.07c5.456,0,13.726,11.196,18.972,32.596c1.029,4.203,5.271,6.778,9.477,5.745    c4.203-1.03,6.775-5.274,5.745-9.477c-2.499-10.196-5.723-18.802-9.509-25.669C314.572,72.906,338.257,102.826,338.257,138.185z     M242.866,15.673h26.269c1.416,0,2.612,1.196,2.612,2.612v4.832h-31.493v-4.832h0C240.254,16.87,241.45,15.673,242.866,15.673z     M223.585,41.403h0.001c0-1.416,1.196-2.612,2.612-2.612h59.604c1.417,0,2.612,1.196,2.612,2.612v7.451    c-8.925-2.824-18.423-4.353-28.272-4.353h-8.285c-9.849,0-19.347,1.529-28.273,4.353V41.403z M173.744,138.185    c0-35.325,23.64-65.223,55.944-74.791c-1.759,3.24-3.465,6.992-5.087,11.362c-6.33,17.065-9.816,39.591-9.816,63.428v3.696    h-41.042V138.185z M137.066,328.092v-90.558h20.418v90.558H137.066z M359.15,447.618v7.934H152.851v-7.934h131.361    c4.329,0,7.837-3.508,7.837-7.837c0-4.329-3.508-7.837-7.837-7.837H173.158v-40.495h165.685v40.495H315.56    c-4.329,0-7.837,3.508-7.837,7.837c0,4.329,3.508,7.837,7.837,7.837H359.15z M242.417,176.736c-4.328,0-7.837,3.508-7.837,7.837    s3.509,7.837,7.837,7.837h96.426v183.366H173.158V192.41h34.777c4.328,0,7.837-3.508,7.837-7.837s-3.509-7.837-7.837-7.837    h-51.078v-19.181h198.286v19.181H242.417z M374.935,328.092L374.935,328.092h-20.418v-90.558h20.418V328.092z M398.57,314.113    h-7.961v-62.601h7.961V314.113z M423.28,287.413h-9.036v-9.199h9.036V287.413z"/>
	</g>
</g>
<g>
</g>
<g>
</g>
<g>
</g>
<g>
</g>
<g>
</g>
<g>
</g>
<g>
</g>
<g>
</g>
<g>
</g>
<g>
</g>
<g>
</g>
<g>
</g>
<g>
</g>
<g>
</g>
<g>
</g>
</svg>
