<?xml version="1.0" encoding="iso-8859-1"?>
<!-- Generator: Adobe Illustrator 19.0.0, SVG Export Plug-In . SVG Version: 6.00 Build 0)  -->
<svg xmlns="http://www.w3.org/2000/svg" xmlns:xlink="http://www.w3.org/1999/xlink" version="1.1" id="Layer_1" x="0px" y="0px" viewBox="0 0 511.999 511.999" style="enable-background:new 0 0 511.999 511.999;" xml:space="preserve">
<g>
	<g>
		<path d="M276.659,236.651c-4.179-1.121-8.477,1.36-9.598,5.541c-0.83,3.096-4.206,5.344-8.028,5.344    c-4.531,0-8.217-3.05-8.217-6.799v-39.268c0-4.328-3.509-7.837-7.837-7.837c-4.328,0-7.837,3.508-7.837,7.837v39.268    c0,12.391,10.717,22.473,23.891,22.473c10.963,0,20.489-6.975,23.166-16.96C283.32,242.068,280.84,237.772,276.659,236.651z"/>
	</g>
</g>
<g>
	<g>
		<path d="M197.944,198.673c-4.328,0-7.837,3.508-7.837,7.837v17.737c0,4.329,3.509,7.837,7.837,7.837    c4.328,0,7.837-3.508,7.837-7.837v-17.737C205.781,202.18,202.272,198.673,197.944,198.673z"/>
	</g>
</g>
<g>
	<g>
		<path d="M315.85,198.673c-4.328,0-7.837,3.508-7.837,7.837v17.737c0,4.329,3.509,7.837,7.837,7.837    c4.328,0,7.837-3.508,7.837-7.837v-17.737C323.687,202.18,320.178,198.673,315.85,198.673z"/>
	</g>
</g>
<g>
	<g>
		<path d="M341.822,181.123c-11.821-10.278-34.259-16.611-58.587-0.636c-3.617,2.375-4.626,7.234-2.25,10.852    c1.505,2.292,4.007,3.537,6.558,3.537c1.475,0,2.969-0.417,4.294-1.287c17.004-11.164,32.015-7.322,39.702-0.636    c3.267,2.839,8.216,2.493,11.056-0.773C345.434,188.912,345.089,183.963,341.822,181.123z"/>
	</g>
</g>
<g>
	<g>
		<path d="M226.897,180.485c-24.328-15.974-46.766-9.641-58.587,0.636c-3.266,2.84-3.611,7.79-0.772,11.056    c2.839,3.266,7.79,3.612,11.056,0.772c7.687-6.683,22.697-10.526,39.702,0.636c1.325,0.871,2.817,1.288,4.294,1.288    c2.551,0,5.053-1.244,6.558-3.537C231.522,187.719,230.514,182.861,226.897,180.485z"/>
	</g>
</g>
<g>
	<g>
		<path d="M294.147,281.026h-66.759c-4.328,0-7.837,3.508-7.837,7.837c0,4.329,3.509,7.837,7.837,7.837h66.759    c4.328,0,7.837-3.508,7.837-7.837C301.983,284.534,298.475,281.026,294.147,281.026z"/>
	</g>
</g>
<g>
	<g>
		<path d="M367.353,313.924c20.301,0,37.071-15.45,39.225-35.241c10.8-4.745,19.053-14.248,22.255-25.624    c18.294-4.396,31.46-20.736,31.46-40.167c0-17.038-10.329-31.971-25.511-38.219c0.477-2.526,0.716-5.101,0.716-7.711    c0-17.038-10.329-31.971-25.511-38.219c0.476-2.526,0.716-5.101,0.716-7.712c0-19.862-14.221-36.765-33.205-40.534    C357.945,32.35,310.096,0.197,256.867,0c-22.568,0.084-44.793,5.927-64.272,16.896c-3.771,2.123-5.106,6.903-2.983,10.674    c2.124,3.772,6.903,5.107,10.674,2.983c17.154-9.66,36.741-14.806,56.581-14.879c48.254,0.179,91.5,30.169,107.61,74.629    c1.055,2.913,3.729,4.931,6.82,5.147c13.308,0.932,23.732,12.169,23.732,25.58c0,3.453-0.671,6.803-1.993,9.955    c-0.918,2.191-0.795,4.68,0.338,6.769c1.133,2.088,3.151,3.549,5.489,3.974c12.147,2.206,20.963,12.819,20.963,25.234    c0,3.453-0.671,6.802-1.993,9.954c-0.918,2.191-0.795,4.68,0.338,6.768c1.133,2.088,3.151,3.551,5.489,3.974    c12.147,2.206,20.963,12.819,20.963,25.234c0,13.318-9.941,24.296-23.125,25.536c-3.674,0.345-6.608,3.206-7.048,6.869    c-1.153,9.614-8.19,17.734-17.513,20.205c-3.544,0.939-5.963,4.212-5.823,7.876c0.013,0.325,0.026,0.651,0.026,0.98    c0,13.174-10.671,23.892-23.786,23.892c-1.584,0-3.155-0.158-4.69-0.467c1.356-2.134,2.663-4.301,3.915-6.492    c0.676-1.184,1.031-2.523,1.031-3.887V158.329c0.001-13.122-2.414-25.571-7.176-37.003c-1.665-3.996-6.254-5.888-10.248-4.219    c-3.995,1.665-5.884,6.252-4.22,10.248c3.963,9.512,5.973,19.932,5.972,30.974v96.411l-13.717,13.759    c-3.055,3.066-3.048,8.027,0.017,11.082c1.53,1.525,3.532,2.286,5.533,2.286c2.009,0,4.019-0.768,5.549-2.304l2.617-2.626v8.355    c-2.328,3.944-4.852,7.793-7.52,11.463c-0.001,0.002-0.002,0.004-0.004,0.006c-2.271,3.114-4.661,6.153-7.192,9.09    c-8.184,9.497-17.198,17.43-26.779,23.684c-1.497-0.422-3.071-0.664-4.701-0.664H204.347c-0.625,0-1.241,0.037-1.849,0.102    c-9.263-6.165-17.985-13.907-25.926-23.121c-2.927-3.397-5.662-6.934-8.241-10.565c-2.271-3.209-4.445-6.558-6.475-10.001V268.81    l5.001,5.013c1.531,1.536,3.54,2.303,5.549,2.303c2.002,0,4.005-0.762,5.534-2.287c3.065-3.056,3.071-8.019,0.015-11.082    l-16.05-16.092c-0.016-0.016-0.032-0.028-0.048-0.044v-88.29c-0.004-24.093,9.459-44.801,27.368-59.886    c17.308-14.577,41.353-22.67,67.635-22.786c29.489,0.13,55.41,9.95,72.989,27.652c3.05,3.07,8.012,3.09,11.083,0.038    c3.071-3.049,3.089-8.011,0.039-11.082c-8.42-8.478-18.41-15.404-29.593-20.64V58.514c0-4.329-3.509-7.837-7.837-7.837    c-4.328,0-7.837,3.508-7.837,7.837v7.118c-10-3.031-20.693-4.87-31.869-5.447V51.2c0-4.329-3.509-7.837-7.837-7.837    s-7.837,3.508-7.837,7.837v9.113c-11.129,0.725-21.84,2.744-31.869,5.967v-7.766c0-4.329-3.509-7.837-7.837-7.837    s-7.837,3.508-7.837,7.837v14.042c-7.82,3.824-15.044,8.469-21.49,13.899c-21.249,17.899-32.95,43.425-32.945,71.874v129.064    c0,1.363,0.355,2.702,1.031,3.886c1.183,2.072,2.414,4.12,3.685,6.136c-2.022,0.552-4.122,0.835-6.257,0.835    c-13.116,0-23.786-10.718-23.786-23.892c0-0.325,0.014-0.649,0.026-0.971c0.145-3.668-2.275-6.944-5.822-7.886    c-9.323-2.471-16.361-10.591-17.514-20.205c-0.439-3.663-3.374-6.524-7.048-6.869c-13.183-1.24-23.125-12.217-23.125-25.536    c0-12.417,8.816-23.029,20.963-25.234c2.337-0.423,4.356-1.886,5.489-3.974c1.133-2.089,1.257-4.578,0.338-6.768    c-1.323-3.152-1.993-6.501-1.993-9.954c0-12.417,8.816-23.029,20.963-25.234c2.337-0.423,4.356-1.886,5.489-3.974    c1.133-2.089,1.257-4.578,0.337-6.769c-1.323-3.152-1.993-6.502-1.993-9.955c0-13.919,11.274-25.422,25.132-25.642    c3.251-0.051,6.133-2.105,7.242-5.161c5.413-14.907,13.857-28.304,25.098-39.822c3.023-3.097,2.962-8.059-0.135-11.081    c-3.097-3.024-8.059-2.963-11.081,0.135c-11.614,11.9-20.613,25.575-26.796,40.707c-19.808,2.98-35.133,20.283-35.133,40.865    c0,2.611,0.239,5.187,0.716,7.712c-15.182,6.249-25.511,21.181-25.511,38.219c0,2.61,0.239,5.186,0.716,7.711    c-15.182,6.248-25.511,21.181-25.511,38.219c0,19.431,13.166,35.77,31.46,40.167c3.203,11.377,11.455,20.879,22.255,25.624    c2.155,19.79,18.924,35.241,39.225,35.241c5.428,0,10.712-1.127,15.612-3.25c1.44,1.833,2.918,3.639,4.444,5.411    c7.454,8.651,15.554,16.137,24.128,22.436c-1.143,2.288-1.814,4.854-1.843,7.576h-1.558c-9.581,0-17.375,7.809-17.375,17.405v6.02    l-10.362,2.996c-4.158,1.202-6.554,5.548-5.352,9.705c1.203,4.157,5.546,6.554,9.706,5.352l6.008-1.737v110.487H91.011    c-0.922,0-1.7-0.794-1.7-1.732v-82.31c0-1.787,1.802-4.199,3.505-4.691l38.928-11.256c4.158-1.202,6.554-5.548,5.351-9.705    c-1.202-4.158-5.545-6.556-9.705-5.352l-38.929,11.256c-8.45,2.444-14.823,10.934-14.823,19.747v82.31    c0,9.598,7.794,17.406,17.373,17.406h331.773c9.58,0,17.374-7.809,17.374-17.406v-18.12c0-4.329-3.509-7.837-7.837-7.837    s-7.837,3.508-7.837,7.837v18.121c0,0.938-0.778,1.732-1.7,1.732H347.76v-32.393c0-4.329-3.509-7.837-7.837-7.837    c-4.328,0-7.837,3.508-7.837,7.837v32.393h-21.521V382.638c0-0.938,0.778-1.732,1.7-1.732h16.429l3.392,0.98v50.702    c0,4.329,3.509,7.837,7.837,7.837c4.328,0,7.837-3.508,7.837-7.837v-46.169l73.218,21.173c1.703,0.493,3.506,2.905,3.506,4.692    v33.888c0,4.329,3.509,7.837,7.837,7.837s7.837-3.508,7.837-7.837v-33.888c0-8.814-6.373-17.303-14.824-19.747l-42.397-12.26    c0.003-0.207,0.018-0.411,0.018-0.619c0-13.867-7.243-26.066-18.142-33.031c0.01-0.37,0.036-0.736,0.036-1.108    c0-12.378-5.774-23.424-14.765-30.608c1.024-1.212,2.029-2.439,3.015-3.68C357.62,312.99,362.445,313.924,367.353,313.924z     M360.58,363.246c3.254,3.329,5.523,7.622,6.35,12.401l-12.482-3.61C356.867,369.408,358.943,366.458,360.58,363.246z     M205.246,496.327h-21.521v-115.42h19.821c0.922,0,1.7,0.794,1.7,1.732V496.327z M224.319,496.327h-3.4V382.638    c0-9.598-7.794-17.406-17.374-17.406h-19.821V363.5c0-0.938,0.778-1.731,1.701-1.731h37.193c0.922,0,1.7,0.793,1.7,1.731V496.327z     M275.818,496.327h-35.825v-78.102h35.825V496.327z M275.818,402.551h-35.825v-9.206h35.825V402.551z M275.818,377.672h-35.825    v-8.249h35.825V377.672z M278.809,353.75h-41.806c-3.127-4.615-8.407-7.655-14.383-7.655h-19.952    c0.094-0.856,0.821-1.55,1.681-1.55h101.393c0.861,0,1.588,0.694,1.682,1.55h-14.23    C287.216,346.095,281.936,349.135,278.809,353.75z M332.087,365.233h-0.001h-19.82c-9.58,0-17.374,7.808-17.374,17.406v113.688    h-3.4V363.5c0-0.938,0.778-1.731,1.7-1.731h37.193c0.922,0,1.701,0.793,1.701,1.731V365.233z M346.354,356.651    c-2.66-6.2-8.815-10.557-15.968-10.557h-7.28c-0.021-1.943-0.374-3.803-0.982-5.546c5.964-4.145,11.707-8.866,17.181-14.143    c5.964,4.267,9.869,11.236,9.869,19.112C349.174,349.547,348.147,353.334,346.354,356.651z"/>
	</g>
</g>
<g>
</g>
<g>
</g>
<g>
</g>
<g>
</g>
<g>
</g>
<g>
</g>
<g>
</g>
<g>
</g>
<g>
</g>
<g>
</g>
<g>
</g>
<g>
</g>
<g>
</g>
<g>
</g>
<g>
</g>
</svg>
