<?xml version="1.0" encoding="iso-8859-1"?>
<!-- Generator: Adobe Illustrator 19.0.0, SVG Export Plug-In . SVG Version: 6.00 Build 0)  -->
<svg xmlns="http://www.w3.org/2000/svg" xmlns:xlink="http://www.w3.org/1999/xlink" version="1.1" id="Layer_1" x="0px" y="0px" viewBox="0 0 512 512" style="enable-background:new 0 0 512 512;" xml:space="preserve">
<g>
	<g>
		<path d="M315.558,347.359H187.051c0.171-1.695,0.26-3.415,0.26-5.153c0-1.724-0.088-3.426-0.257-5.106h12.52    c4.329,0,7.837-3.508,7.837-7.837c0-4.329-3.508-7.837-7.837-7.837h-16.743c-0.894-1.98-1.92-3.887-3.053-5.722    c0.825-0.774,1.35-1.864,1.35-3.078v-7.625c0-0.03-0.007-0.06-0.009-0.088c0.278,0.057,0.564,0.088,0.857,0.088h7.629v7.625    c0,2.33,1.907,4.237,4.238,4.237h7.628c2.331,0,4.24-1.906,4.24-4.237v-7.625c0-0.03-0.009-0.06-0.01-0.088    c0.279,0.057,0.564,0.088,0.857,0.088h7.629v7.625c0,2.33,1.907,4.237,4.238,4.237h7.629c2.33,0,4.238-1.906,4.238-4.237v-7.625    c0-0.03-0.008-0.06-0.009-0.088c0.278,0.057,0.563,0.088,0.857,0.088h7.629v7.625c0,2.33,1.908,4.237,4.239,4.237h7.628    c2.331,0,4.238-1.906,4.238-4.237v-7.625c0-0.03-0.007-0.06-0.008-0.088c0.277,0.057,0.563,0.088,0.856,0.088h7.629v7.625    c0,2.33,1.907,4.237,4.238,4.237h7.629c2.33,0,4.239-1.906,4.239-4.237v-7.625c0-0.03-0.008-0.06-0.009-0.088    c0.278,0.057,0.563,0.088,0.857,0.088h7.628v7.625c0,2.33,1.907,4.237,4.239,4.237h7.629c2.33,0,4.237-1.906,4.237-4.237v-7.625    c0-2.329-1.906-4.235-4.237-4.235h-7.629v-7.627c0-2.328-1.908-4.235-4.239-4.235h-7.628c-2.332,0-4.239,1.906-4.239,4.235v7.627    c0,0.028,0.007,0.057,0.009,0.086c-0.277-0.057-0.564-0.086-0.857-0.086h-7.629v-7.627c0-2.328-1.907-4.235-4.238-4.235h-7.629    c-2.331,0-4.238,1.906-4.238,4.235v7.627c0,0.028,0.008,0.057,0.009,0.086c-0.277-0.057-0.563-0.086-0.857-0.086h-7.628v-7.627    c0-2.328-1.908-4.235-4.239-4.235h-7.629c-2.33,0-4.238,1.906-4.238,4.235v7.627c0,0.028,0.008,0.057,0.009,0.086    c-0.278-0.057-0.563-0.086-0.857-0.086h-7.629v-7.627c0-2.328-1.906-4.235-4.238-4.235h-7.629c-2.331,0-4.239,1.906-4.239,4.235    v7.627c0,0.028,0.008,0.057,0.009,0.086c-0.277-0.057-0.563-0.086-0.857-0.086h-7.628v-7.627c0-2.328-1.907-4.235-4.238-4.235    h-7.629c-2.33,0-4.238,1.906-4.238,4.235v7.627c0,0.028,0.008,0.057,0.008,0.086c-0.278-0.057-0.563-0.086-0.856-0.086h-7.629    v-7.627c0-2.328-1.907-4.235-4.239-4.235h-7.628c-2.331,0-4.238,1.906-4.238,4.235v1.216c-2.761-0.951-5.63-1.666-8.582-2.125    c-0.42-1.895-2.115-3.326-4.133-3.326h-7.629c-2.035,0-3.746,1.453-4.148,3.372c-16.958,2.744-31.11,13.956-37.982,29.148H30.58    l2.36-6.929h22.739c6.004,0,12.1-3.996,14.494-9.501l4.609-10.593c1.619-3.723,1.366-7.661-0.696-10.805    c-2.062-3.145-5.571-4.948-9.632-4.948H45.597c1.351-1.586,3.589-2.865,5.371-2.865h30.534c4.329,0,7.837-3.508,7.837-7.837    c0-4.328-3.508-7.837-7.837-7.837H50.967c-9.155,0-18.285,6.535-21.237,15.2l-15.709,46.115h-0.96    C5.859,321.424,0,327.283,0,334.485v15.483c0,7.203,5.859,13.061,13.061,13.061h77.645c7.949,17.528,25.594,29.758,46.051,29.758    c20.457,0,38.102-12.228,46.052-29.758h132.749c4.329,0,7.837-3.508,7.837-7.837C323.395,350.864,319.887,347.359,315.558,347.359    z M39.813,294.324h17.912l-1.836,4.218c-0.109,0.102-0.293,0.223-0.429,0.282H38.281L39.813,294.324z M15.673,347.36v-0.001V337.1    h70.788c-0.169,1.679-0.257,3.382-0.257,5.106c0,1.739,0.089,3.458,0.26,5.153H15.673z M136.757,377.115    c-19.232,0-34.88-15.66-34.88-34.91c0-19.25,15.647-34.91,34.88-34.91c19.233,0,34.881,15.66,34.881,34.91    C171.638,361.455,155.991,377.115,136.757,377.115z"/>
	</g>
</g>
<g>
	<g>
		<path d="M136.757,317.105c-13.834,0-25.091,11.26-25.091,25.101c0,13.841,11.256,25.102,25.091,25.102    c13.833,0,25.089-11.261,25.089-25.102C161.846,328.366,150.591,317.105,136.757,317.105z M136.757,351.633    c-5.193,0-9.418-4.23-9.418-9.428c0-5.198,4.224-9.427,9.418-9.427c5.192,0,9.416,4.229,9.416,9.427    C146.173,347.405,141.949,351.633,136.757,351.633z"/>
	</g>
</g>
<g>
	<g>
		<path d="M504.182,322.533v-44.135c0-10.082-8.203-18.286-18.286-18.286h-38.328l-37.015-83.24    c-4.579-10.297-14.822-16.95-26.094-16.95h-7.444l-12.784-31.03c-2.312-5.61-8.394-9.682-14.461-9.682h-13.314    c-4.329,0-7.837,3.508-7.837,7.837c0,4.329,3.508,7.837,7.837,7.837h13.068c0.102,0.049,0.227,0.133,0.31,0.208l10.232,24.831    H251.544l10.467-24.797c0.095-0.087,0.246-0.187,0.363-0.24H307.2c4.329,0,7.837-3.508,7.837-7.837    c0-4.329-3.508-7.837-7.837-7.837h-45.062c-6.039,0-12.127,4.039-14.476,9.603l-13.129,31.109h-15.826    c-8.874,0-17.09,4.017-22.539,11.02l-69.39,89.171h-17.063c-4.329,0-7.837,3.508-7.837,7.837s3.508,7.837,7.837,7.837h376.182    c1.416,0,2.612,1.196,2.612,2.612v7.849h-9.731c-5.366,0-9.983,3.255-11.99,7.892h-42.381c-4.952-1.629-10.238-2.516-15.729-2.516    c-5.491,0-10.777,0.888-15.729,2.516h-73.737c-4.329,0-7.837,3.508-7.837,7.837s3.508,7.837,7.837,7.837h50.693    c-2.928,3.504-5.395,7.404-7.299,11.614H230.922c-4.329,0-7.837,3.508-7.837,7.837c0,4.329,3.508,7.837,7.837,7.837h127.46    c-0.169,1.679-0.257,3.382-0.257,5.106c0,1.739,0.089,3.458,0.26,5.153h-13.57c-4.329,0-7.837,3.508-7.837,7.837    s3.508,7.837,7.837,7.837h17.812c7.95,17.528,25.594,29.758,46.051,29.758c20.457,0,38.102-12.228,46.052-29.758h44.209    c7.202,0,13.061-5.859,13.061-13.061v-15.483C512,329.15,508.779,324.557,504.182,322.533z M314.599,260.112v-13.517    c0-4.329-3.508-7.837-7.837-7.837c-4.329,0-7.837,3.508-7.837,7.837v13.517H172.883l48.772-62.673    c0.411-0.452,1.712-1.088,2.276-1.133h74.995v22.077c0,4.329,3.508,7.837,7.837,7.837c4.329,0,7.837-3.508,7.837-7.837v-22.078    h64.427c0.153,0.063,0.363,0.199,0.481,0.312l28.235,63.494H314.599z M424.895,260.112l-31.151-70.053    c-2.428-5.463-8.531-9.426-14.508-9.426H223.93c-5.334,0-11.344,2.94-14.617,7.147l-56.29,72.333h-6.386l61.899-79.545    c2.46-3.159,6.165-4.972,10.17-4.972H384.46c5.087,0,9.707,3.001,11.774,7.644l34.182,76.871H424.895z M408.678,377.115    c-19.232,0-34.88-15.66-34.88-34.91c0-19.25,15.647-34.91,34.88-34.91c19.233,0,34.881,15.66,34.881,34.91    C443.559,361.455,427.912,377.115,408.678,377.115z M481.39,301.919h7.119v15.388h-7.119V301.919z M447.453,309.811h18.264v10.108    c0,0.51,0.037,1.011,0.094,1.506h-11.058C452.848,317.215,450.379,313.315,447.453,309.811z M496.327,347.359h-37.355    c0.172-1.695,0.261-3.415,0.261-5.153c0-1.724-0.088-3.426-0.257-5.106h37.351V347.359z"/>
	</g>
</g>
<g>
	<g>
		<path d="M408.678,317.105c-13.834,0-25.091,11.26-25.091,25.101c0,13.841,11.256,25.102,25.091,25.102    c13.833,0,25.089-11.261,25.089-25.102C433.767,328.366,422.512,317.105,408.678,317.105z M408.678,351.633    c-5.193,0-9.418-4.23-9.418-9.428c0-5.198,4.225-9.427,9.418-9.427c5.192,0,9.416,4.229,9.416,9.427    C418.094,347.405,413.87,351.633,408.678,351.633z"/>
	</g>
</g>
<g>
</g>
<g>
</g>
<g>
</g>
<g>
</g>
<g>
</g>
<g>
</g>
<g>
</g>
<g>
</g>
<g>
</g>
<g>
</g>
<g>
</g>
<g>
</g>
<g>
</g>
<g>
</g>
<g>
</g>
</svg>
