<?xml version="1.0" encoding="iso-8859-1"?>
<!-- Generator: Adobe Illustrator 19.0.0, SVG Export Plug-In . SVG Version: 6.00 Build 0)  -->
<svg xmlns="http://www.w3.org/2000/svg" xmlns:xlink="http://www.w3.org/1999/xlink" version="1.1" id="Layer_1" x="0px" y="0px" viewBox="0 0 511.998 511.998" style="enable-background:new 0 0 511.998 511.998;" xml:space="preserve">
<g>
	<g>
		<path d="M481.049,129.983l-51.423-94.73c-0.027-0.051-0.056-0.101-0.085-0.152c-2.318-4.053-6.657-6.571-11.326-6.571    c-1.344,0-2.677,0.208-3.957,0.617l-16.051,5.111c-12.12,3.858-25.943,5.898-39.977,5.898c-8.294,0-16.708-0.694-24.976-2.058    c-21.555-3.644-40.732-11.946-53.999-23.378L265.847,3.164C263.479,1.123,260.454,0,257.329,0c-3.053,0-6.026,1.079-8.377,3.044    L235.38,14.41c-13.491,11.298-32.788,19.387-54.313,22.771c-7.689,1.184-15.469,1.784-23.12,1.784    c-13.196,0-26.388-1.841-38.151-5.325l-15.506-4.592c-1.206-0.359-2.458-0.542-3.718-0.542c-4.569,0-8.862,2.438-11.203,6.361    l-8.294,13.9c-5.46,9.147-49.388,79.339-49.83,80.045c-0.067,0.108-0.132,0.216-0.193,0.327    c-2.055,3.665-2.214,8.125-0.425,11.931l4.563,9.701C58.814,201,63.055,266.654,46.257,322.114l-0.623,2.057    c-0.26,0.858-0.433,1.745-0.511,2.634l-0.018,0.199c-6.066,24.559-1.3,52.084,13.114,75.63    c11.313,18.48,33.653,43.023,75.826,55.007c0.083,0.023,0.166,0.045,0.249,0.067c0.317,0.078,7.783,1.936,11.282,2.741    c0.591,0.137,1.183,0.202,1.765,0.202c3.568,0,6.795-2.454,7.63-6.08c0.972-4.217-1.661-8.425-5.879-9.395    c-3.124-0.719-9.883-2.397-10.888-2.646c-37.228-10.612-56.774-31.997-66.619-48.078c-12.339-20.159-16.399-43.56-11.135-64.2    c0.104-0.409,0.174-0.822,0.212-1.242l0.048-0.544l0.547-1.808c17.875-59.014,13.32-128.966-11.886-182.556l-3.95-8.397    c6.474-10.347,43.939-70.238,49.111-78.903l7.25-12.148l13.563,4.018c13.189,3.905,27.921,5.969,42.602,5.969    c8.448,0,17.029-0.661,25.53-1.97c24.319-3.825,46.327-13.145,61.967-26.243l11.862-9.934l11.722,10.1    c15.401,13.271,37.284,22.845,61.648,26.965c9.14,1.507,18.412,2.272,27.558,2.272c15.626,0,31.095-2.295,44.732-6.637    l13.98-4.451l49.651,91.468l-4.384,8.494c-12.591,24.385-20.824,50.582-24.47,77.867c-0.574,4.29,2.439,8.233,6.728,8.806    c4.284,0.569,8.232-2.439,8.806-6.728c3.408-25.496,11.1-49.972,22.862-72.753l5.022-9.727    C483.127,138.354,483.096,133.817,481.049,129.983z"/>
	</g>
</g>
<g>
	<g>
		<path d="M462.429,327.372l-0.016-0.192c-0.076-0.892-0.245-1.781-0.5-2.633l-0.618-2.068c-6.33-21.162-9.692-42.863-9.995-64.5    c-0.061-4.289-3.556-7.727-7.834-7.727c-0.037,0-0.074,0-0.112,0.001c-4.328,0.061-7.787,3.618-7.725,7.946    c0.323,23.085,3.907,46.222,10.651,68.771l0.541,1.809l0.045,0.536c0.036,0.423,0.107,0.843,0.21,1.255    c5.221,20.716,1.112,44.168-11.277,64.343c-9.896,16.114-29.532,37.524-66.869,48.008l-0.533,0.14    c-11.065,2.763-22.266,5.152-33.287,7.102c-25.271,4.461-47.988,15.883-65.695,33.033l-12.515,12.122l-12.664-11.966    c-17.987-16.994-40.846-28.2-66.105-32.408c-4.274-0.712-8.307,2.174-9.018,6.443c-0.712,4.269,2.173,8.307,6.443,9.019    c22.176,3.693,42.203,13.493,57.917,28.339l14.493,13.693c2.431,2.297,5.613,3.561,8.958,3.561c3.404,0,6.627-1.304,9.077-3.675    l14.319-13.87c15.45-14.964,35.339-24.943,57.518-28.857c11.381-2.015,22.94-4.479,34.307-7.318l0.242-0.06    c0.094-0.023,0.766-0.205,0.772-0.207c42.227-11.857,64.633-36.398,75.994-54.898    C463.614,379.564,468.437,351.997,462.429,327.372z"/>
	</g>
</g>
<g>
	<g>
		<path d="M436.502,180.204c4.029-12.982,9.127-25.668,15.301-37.938c1.898-3.769,1.852-8.248-0.121-11.979    c-1.038-1.961-25.512-48.224-34.283-63.902c-2.306-4.124-6.674-6.686-11.399-6.686c-1.223,0-2.438,0.172-3.602,0.508    c-13.685,3.927-28.956,6.002-44.165,6.002c-9.717,0-19.591-0.817-29.32-2.423c-24.948-4.217-46.965-13.501-63.671-26.849    c-2.306-1.842-5.2-2.856-8.152-2.856c-2.886,0-5.73,0.975-8.012,2.746c-16.932,13.151-39.088,22.18-64.049,26.106    c-8.985,1.384-18.096,2.087-27.082,2.087c-14.292,0-28.809-1.864-41.976-5.391c-1.101-0.296-2.241-0.446-3.385-0.446    c-4.52,0-8.792,2.397-11.146,6.253c-3.326,5.444-14.521,22.999-24.4,38.489c-8.048,12.618-14.998,23.516-16.47,25.946    c-2.238,3.697-2.504,8.25-0.713,12.177c5.417,11.891,9.864,24.546,13.34,37.681c0.048,0.199,0.099,0.397,0.161,0.589    c12.518,47.771,12.114,101.859-2.035,148.9c-0.211,0.701-0.365,1.423-0.45,2.114c-0.017,0.131-0.042,0.259-0.074,0.378    c-5.02,18.224-1.506,39.118,9.638,57.318c8.878,14.506,26.609,33.833,60.676,43.533l0.357,0.097    c12.778,3.221,25.684,5.93,38.365,8.048c25.704,4.282,49.295,15.376,68.223,32.084c2.388,2.108,5.458,3.267,8.641,3.267    c3.245,0,6.358-1.198,8.76-3.374c18.669-16.881,42.126-28.203,67.838-32.741c10.772-1.906,21.713-4.239,32.52-6.934    c0.036-0.009,0.221-0.058,0.257-0.067c0.04-0.01,0.08-0.021,0.121-0.032c34.065-9.589,51.842-28.909,60.758-43.429    c11.193-18.228,14.752-39.182,9.765-57.486c-0.032-0.119-0.057-0.242-0.072-0.37c-0.089-0.716-0.238-1.43-0.443-2.123    c-14.795-49.781-14.529-101.509,0.28-149.243C436.489,180.239,436.496,180.222,436.502,180.204z M423.308,170.059h-53.415    c-4.329,0-7.837,3.508-7.837,7.837s3.508,7.837,7.837,7.837h48.706c-12.757,47.755-12.072,98.8,2.52,148.03    c0.107,0.788,0.268,1.578,0.478,2.351c3.856,14.147,0.939,30.608-7.999,45.165c-7.452,12.136-22.461,28.327-51.577,36.523    c-0.003,0.001-0.021,0.005-0.041,0.011c-10.443,2.602-21.011,4.855-31.41,6.696c-27.827,4.91-53.322,16.998-73.892,35.009    c-20.824-17.804-46.45-29.638-74.265-34.272c-12.259-2.048-24.745-4.668-37.033-7.766c-29.18-8.309-44.153-24.508-51.575-36.635    c-8.89-14.52-11.768-30.912-7.894-44.978c0.207-0.753,0.368-1.529,0.481-2.331c13.971-46.588,15.179-99.717,4.372-147.804h250.918    c4.329,0,7.837-3.508,7.837-7.837c0-4.329-3.508-7.837-7.837-7.837H86.763c-3.306-11.517-7.325-22.655-12.065-33.235    c2.364-3.785,8.795-13.869,15.557-24.473c9.082-14.241,19.274-30.221,23.54-37.093c13.968,3.558,29.187,5.433,44.152,5.433    c9.782,0,19.697-0.763,29.493-2.274c26.817-4.218,50.841-13.876,69.628-27.974c18.559,14.324,42.448,24.268,69.262,28.799    c10.6,1.75,21.333,2.638,31.902,2.638c15.913,0,31.933-2.088,46.485-6.051c8.589,15.509,28.669,53.398,32.48,60.597    C431.768,147.358,427.145,158.596,423.308,170.059z"/>
	</g>
</g>
<g>
	<g>
		<path d="M220.984,316.423l-5.23-5.229c-2.715-2.719-6.946-4.544-10.53-4.544h-11.963c-3.582,0-7.813,1.824-10.527,4.539    l-5.234,5.234c-2.756,2.757-4.538,6.986-4.538,10.776v32.155c0,3.305,1.628,7.953,4.745,10.734l5.027,5.027    c2.759,2.758,6.988,4.539,10.777,4.539h11.714c3.585,0,7.816-1.826,10.524-4.539l5.029-5.028    c3.117-2.781,4.745-7.429,4.745-10.733v-32.155C225.523,323.413,223.743,319.183,220.984,316.423z M209.848,358.851l-5.074,5.072    c-0.029,0.019-0.066,0.039-0.104,0.057H193.84c-0.05-0.021-0.103-0.047-0.146-0.07l-5.059-5.059v-31.323    c0.021-0.05,0.047-0.103,0.07-0.146l5.001-5.001c0.03-0.019,0.068-0.039,0.108-0.058h10.856c0.038,0.019,0.074,0.039,0.104,0.056    l5.003,5.002c0.024,0.044,0.05,0.098,0.071,0.148V358.851z"/>
	</g>
</g>
<g>
	<g>
		<path d="M244.103,348.473c-4.329,0-7.837,3.508-7.837,7.837v13.46c-0.021,0.04-0.041,0.078-0.061,0.11l-20.093,20.337    c-0.126,0.068-0.277,0.136-0.403,0.186h-32.892c-0.135-0.043-0.315-0.119-0.45-0.186l-20.092-20.336    c-0.021-0.032-0.041-0.071-0.062-0.111V236.798c0.021-0.05,0.047-0.104,0.071-0.148l20.254-20.255    c0.005-0.002,0.007-0.005,0.006-0.006l33.387-0.002l20.263,20.264c0.024,0.043,0.05,0.098,0.071,0.148v20.749h-10.746v-10.111    c0-3.787-1.78-8.015-4.538-10.776l-5.233-5.232c-3.165-3.168-7.649-4.291-10.527-4.291h-11.714c-3.135,0-7.61,1.126-10.777,4.289    l-5.234,5.234c-2.756,2.758-4.538,6.987-4.538,10.776v37.638c0,5.971,4.857,10.828,10.827,10.828h31.847    c0.04,0.02,0.077,0.04,0.109,0.06l20.451,20.453c0.024,0.043,0.05,0.097,0.071,0.148v10.491c0,4.329,3.508,7.837,7.837,7.837    c4.329,0,7.837-3.508,7.837-7.837v-10.821c0-3.787-1.781-8.016-4.538-10.776l-20.69-20.692c-2.716-2.714-6.944-4.536-10.523-4.536    h-27.555v-32.463c0.021-0.05,0.047-0.103,0.07-0.146l4.8-4.8c0.007-0.004,0.012-0.007,0.008-0.009l11.454-0.001l4.81,4.809    c0.024,0.044,0.05,0.097,0.071,0.148v14.625c0,6.072,4.756,10.827,10.827,10.827h20.438c6.072,0,10.827-4.756,10.827-10.827    v-25.924c0-3.788-1.78-8.018-4.538-10.777l-20.681-20.687c-2.607-2.606-6.739-4.289-10.526-4.289h-33.648    c-3.137,0-7.615,1.127-10.776,4.29l-20.689,20.69c-2.755,2.758-4.536,6.987-4.536,10.775v133.854    c0,3.583,1.823,7.813,4.505,10.494l20.687,20.938c0.214,0.216,0.441,0.42,0.678,0.611c2.14,1.713,6.076,3.711,10.129,3.711h33.648    c3.618,0,7.568-1.863,9.878-3.709c0.239-0.192,0.466-0.396,0.68-0.613l20.655-20.904c2.715-2.716,4.538-6.945,4.538-10.527V356.31    C251.939,351.981,248.432,348.473,244.103,348.473z"/>
	</g>
</g>
<g>
	<g>
		<path d="M335.155,273.218h20.438c6.072,0,10.828-4.756,10.828-10.827v-25.924c0-3.786-1.779-8.014-4.538-10.777l-20.688-20.688    c-3.167-3.165-7.65-4.288-10.526-4.288h-33.648c-3.138,0-7.617,1.128-10.775,4.289l-20.69,20.691    c-2.755,2.758-4.536,6.987-4.536,10.775v133.854c0,3.583,1.823,7.813,4.506,10.494l20.688,20.938    c0.213,0.215,0.439,0.419,0.676,0.609c2.14,1.714,6.076,3.714,10.131,3.714h33.648c3.618,0,7.568-1.863,9.878-3.709    c0.238-0.191,0.466-0.396,0.68-0.613l20.658-20.907c2.714-2.716,4.536-6.944,4.536-10.524v-54.09    c0-3.785-1.779-8.013-4.538-10.776l-20.691-20.692c-2.716-2.714-6.944-4.536-10.523-4.536h-27.555v-32.462    c0.021-0.051,0.047-0.104,0.071-0.148l4.799-4.799c0.007-0.004,0.012-0.007,0.008-0.009l11.454-0.001l4.81,4.809    c0.024,0.043,0.05,0.097,0.071,0.148v14.625C324.328,268.462,329.084,273.218,335.155,273.218z M319.703,227.136h-11.714    c-3.135,0-7.61,1.126-10.777,4.289l-5.236,5.237c-2.755,2.758-4.536,6.986-4.536,10.773v37.638    c0,5.971,4.857,10.828,10.827,10.828h31.847c0.04,0.02,0.077,0.04,0.109,0.06l20.451,20.452c0.024,0.044,0.051,0.099,0.072,0.149    v53.205c-0.021,0.041-0.042,0.079-0.062,0.112l-20.092,20.336c-0.126,0.068-0.277,0.136-0.403,0.186h-32.892    c-0.135-0.043-0.312-0.118-0.448-0.185l-20.093-20.337c-0.021-0.032-0.041-0.071-0.062-0.111V236.798    c0.022-0.05,0.047-0.104,0.071-0.148l20.257-20.256c0.002-0.002,0.003-0.003,0.003-0.004l33.387-0.003l20.263,20.263    c0.026,0.045,0.052,0.099,0.074,0.15v20.747h-10.747v-10.111c0-3.787-1.781-8.015-4.538-10.776l-5.233-5.232    C327.066,228.259,322.582,227.136,319.703,227.136z"/>
	</g>
</g>
<g>
	<g>
		<path d="M335.463,316.423l-5.23-5.229c-2.714-2.719-6.944-4.544-10.529-4.544h-11.963c-3.582,0-7.813,1.824-10.527,4.539    l-5.236,5.237c-2.755,2.758-4.536,6.986-4.536,10.773v32.155h-0.001c0,3.304,1.628,7.951,4.745,10.733l5.027,5.028    c2.759,2.758,6.988,4.539,10.777,4.539h11.714c3.585,0,7.816-1.826,10.524-4.539l5.029-5.028    c3.117-2.783,4.745-7.429,4.745-10.733v-32.155C340.002,323.413,338.222,319.183,335.463,316.423z M324.328,358.851l-5.075,5.073    c-0.029,0.018-0.066,0.038-0.104,0.056h-10.829c-0.05-0.021-0.103-0.047-0.146-0.07l-5.059-5.059V327.53h0.001    c0.021-0.05,0.047-0.106,0.071-0.148l5-4.999c0.03-0.02,0.068-0.04,0.108-0.06h10.857c0.038,0.019,0.074,0.039,0.104,0.056    l5.003,5.002c0.024,0.044,0.05,0.098,0.071,0.148V358.851z"/>
	</g>
</g>
<g>
	<g>
		<path d="M193.14,155.268l-5.078-29.082c-0.01-0.058-0.019-0.098-0.038-0.155c-0.021-0.125,0.09-0.468,0.258-0.637l2.863-2.863    c0.696-0.695,1.181-1.841,1.181-2.786v-16.812c0-0.876-0.497-2.008-1.181-2.693l-7.662-7.661    c-0.696-0.696-1.841-1.183-2.787-1.183h-21.695c-1.316,0-2.307,0.992-2.307,2.307v61.77c0,0.059,0.002,0.114,0.011,0.169    c0.181,1.259,1.162,2.137,2.385,2.137h7.572c1.207,0,2.307-1.099,2.307-2.307v-24.097h7.478c0.053,0,0.096,0.028,0.108,0.028    c0.005,0,0.005,0,0.005-0.004l4.24,24.244c0.178,1.239,1.219,2.137,2.479,2.137h7.755c0.622,0,1.212-0.265,1.615-0.73    C193.064,156.575,193.238,155.953,193.14,155.268z M180.144,115.683c0,0.315-0.233,0.845-0.48,1.091l-1.939,1.938    c-0.208,0.209-0.723,0.389-1,0.389h-7.848l0.012-15.521h7.837c0.201,0,0.741,0.22,1,0.481l1.939,1.938    c0.019,0.018,0.077,0.07,0.096,0.087c0.155,0.135,0.383,0.681,0.383,0.911V115.683z"/>
	</g>
</g>
<g>
	<g>
		<path d="M234.528,100.339c-0.03-0.038-0.062-0.071-0.094-0.103l-7.716-7.622c-0.667-0.776-1.842-1.124-2.73-1.124h-12.463    c-0.72,0-2.019,0.301-2.73,1.123l-7.716,7.624c-0.032,0.031-0.064,0.066-0.092,0.101c-0.483,0.602-1.002,1.7-1.002,2.688v43.216    c0,0.869,0.499,2.102,1.089,2.693l7.757,7.755c0.592,0.592,1.824,1.09,2.696,1.09h12.462c0.915,0,2.075-0.469,2.693-1.09    l7.756-7.755c0.59-0.592,1.089-1.825,1.089-2.692v-43.217C235.528,102.041,235.011,100.942,234.528,100.339z M223.438,142.179    c0,0.23-0.23,0.776-0.379,0.909c-0.043,0.034-0.081,0.07-0.119,0.11l-1.874,1.962c-0.319,0.23-0.849,0.436-1.137,0.436h-4.338    c-0.235,0-0.834-0.232-1.001-0.388l-2.027-2.028c-0.157-0.168-0.391-0.768-0.391-1.001v-35.091h-0.001    c0-0.288,0.207-0.82,0.436-1.135l1.964-1.875c0.024-0.024,0.084-0.091,0.106-0.116c0.136-0.156,0.681-0.385,0.913-0.385h4.338    c0.312,0,0.844,0.234,1.09,0.481l1.939,1.938c0.246,0.246,0.481,0.776,0.481,1.091V142.179z"/>
	</g>
</g>
<g>
	<g>
		<path d="M275.501,91.395h-7.57c-1.271,0-2.307,1.034-2.307,2.307v48.477c0,0.374-0.182,0.885-0.389,1.091l-1.882,1.883    c-0.316,0.231-0.857,0.442-1.147,0.442h-4.246c-0.29,0-0.829-0.211-1.145-0.442l-1.829-1.83c-0.232-0.315-0.443-0.854-0.443-1.145    V93.702c0-1.273-1.034-2.307-2.305-2.307h-7.572c-1.313,0-2.307,0.992-2.307,2.307v52.54c0,0.986,0.52,2.085,1.002,2.688    c0.029,0.033,0.057,0.067,0.09,0.098l7.661,7.661c0.03,0.031,0.063,0.061,0.098,0.088c0.601,0.483,1.699,1.002,2.688,1.002h12.373    c0.987,0,2.086-0.519,2.687-1.002c0.036-0.028,0.068-0.056,0.098-0.088l7.664-7.661c0.03-0.031,0.061-0.066,0.088-0.1    c0.483-0.605,1-1.702,1-2.685v-52.54C277.807,92.388,276.817,91.395,275.501,91.395z"/>
	</g>
</g>
<g>
	<g>
		<path d="M316.487,91.396h-29.544c-1.293,0-2.306,0.973-2.306,2.214v7.109c0.001,1.271,1.036,2.305,2.306,2.305h8.959v52.448    c0,1.314,0.991,2.307,2.306,2.307h7.015c1.315,0,2.309-0.992,2.309-2.307v-52.448h8.955c1.209,0,2.307-1.099,2.307-2.305V93.61    C318.794,92.41,317.738,91.396,316.487,91.396z"/>
	</g>
</g>
<g>
	<g>
		<path d="M353.963,103.671c1.273,0,2.307-1.035,2.307-2.307v-7.571c0-1.271-1.034-2.305-2.307-2.305H327.93    c-1.316,0-2.307,0.991-2.307,2.305v61.679c0.001,1.317,0.992,2.308,2.307,2.308h26.034c1.273,0,2.307-1.034,2.307-2.307v-7.57    c0-1.273-1.034-2.307-2.307-2.307l-16.157-0.001v-16.81h12.189c1.273,0,2.306-1.036,2.306-2.308v-7.57    c0-1.207-1.1-2.307-2.306-2.307l-12.189-0.001l0.002-12.926H353.963z"/>
	</g>
</g>
<g>
</g>
<g>
</g>
<g>
</g>
<g>
</g>
<g>
</g>
<g>
</g>
<g>
</g>
<g>
</g>
<g>
</g>
<g>
</g>
<g>
</g>
<g>
</g>
<g>
</g>
<g>
</g>
<g>
</g>
</svg>
