<?xml version="1.0" encoding="iso-8859-1"?>
<!-- Generator: Adobe Illustrator 19.0.0, SVG Export Plug-In . SVG Version: 6.00 Build 0)  -->
<svg xmlns="http://www.w3.org/2000/svg" xmlns:xlink="http://www.w3.org/1999/xlink" version="1.1" id="Layer_1" x="0px" y="0px" viewBox="0 0 511.999 511.999" style="enable-background:new 0 0 511.999 511.999;" xml:space="preserve">
<g>
	<g>
		<path d="M115.023,323.957c-11.417,0-20.705,9.289-20.705,20.706s9.288,20.705,20.705,20.705c11.418,0,20.706-9.288,20.706-20.705    C135.729,333.245,126.44,323.957,115.023,323.957z M115.023,349.694c-2.774,0-5.031-2.257-5.031-5.031    c0-2.775,2.257-5.032,5.031-5.032c2.775,0,5.032,2.257,5.032,5.032C120.056,347.436,117.798,349.694,115.023,349.694z"/>
	</g>
</g>
<g>
	<g>
		<path d="M506.172,313.002v-58.776c0-10.079-8.201-18.279-18.281-18.279h-25.002c-4.329,0-7.837,3.508-7.837,7.837    c0,4.329,3.508,7.837,7.837,7.837h25.002c1.414,0,2.607,1.194,2.607,2.606v25.202h-17.264c-7.201,0-13.059,5.857-13.059,13.057    v18.322h-11.391c-8.406-8.02-19.775-12.959-32.282-12.959c-0.354,0-0.703,0.019-1.055,0.026V251.62h19.231    c4.329,0,7.837-3.508,7.837-7.837c0-4.329-3.508-7.837-7.837-7.837h-19.23V172.87c7.135-0.078,12.916-5.901,12.916-13.054v-13.085    h9.881v18.358c-5.876,1.274-10.295,6.509-10.295,12.76v34.161c0,7.203,5.86,13.061,13.061,13.061h7.007    c7.202,0,13.061-5.859,13.061-13.061v-34.161c0-5.077-2.919-9.477-7.162-11.637v-22.094c0-7.202-5.859-13.061-13.061-13.061    h-12.744c-1.181-5.996-6.473-10.533-12.81-10.533h-69.44c-4.329,0-7.837,3.508-7.837,7.837c0,4.329,3.508,7.837,7.837,7.837    h41.284v21.007H19.435v-21.007h297.169c4.329,0,7.837-3.508,7.837-7.837c0-4.329-3.508-7.837-7.837-7.837H16.823    c-7.203,0-13.061,5.859-13.061,13.061v26.231c0,5.083,2.926,9.488,7.176,11.645v141.225C4.744,313.706,0,319.081,0,325.559v11.432    c0,7.203,5.859,13.061,13.061,13.061h55.467c2.682,23.281,22.505,41.423,46.495,41.423c24.568,0,44.761-19.024,46.656-43.112    h36.852c4.328,0,7.837-3.508,7.837-7.837c0-4.328-3.509-7.837-7.837-7.837h-38.25c-5.305-20.031-23.58-34.841-45.258-34.841    c-13.364,0-25.428,5.637-33.966,14.649H26.611v-18.359h246.107c4.329,0,7.837-3.508,7.837-7.837c0-4.329-3.508-7.837-7.837-7.837    H26.611v-17.763h246.107c4.329,0,7.837-3.508,7.837-7.837c0-4.329-3.508-7.837-7.837-7.837H26.611v-72.151h11.877v46.49    c0,7.202,5.859,13.061,13.061,13.061h31.315c7.202,0,13.061-5.859,13.061-13.061v-46.49h9.008v46.49    c0,7.202,5.859,13.061,13.061,13.061h57.093c7.203,0,13.061-5.859,13.061-13.061v-46.49h8.984v46.49    c0,7.202,5.859,13.061,13.061,13.061h57.093c7.202,0,13.061-5.859,13.061-13.061v-46.49h9.226v159.812h-63.878    c-4.328,0-7.837,3.509-7.837,7.837c0,4.329,3.509,7.837,7.837,7.837h144.15c1.894,24.088,22.088,43.112,46.654,43.112    c24.565,0,44.757-19.021,46.654-43.106l35.783-0.006c7.203,0,13.061-5.859,13.061-13.061v-11.432    C512,319.341,509.681,315.346,506.172,313.002z M443.622,180.461h1.783v28.936h-1.783V180.461z M115.023,313.523    c17.172,0,31.142,13.969,31.142,31.141c0,17.171-13.97,31.139-31.142,31.139c-17.171,0-31.141-13.968-31.141-31.139    C83.882,327.492,97.853,313.523,115.023,313.523z M71.217,328.172c-0.758,2.006-1.377,4.081-1.856,6.208H15.673v-6.208H71.217z     M80.252,216.755h-26.09v-8.966h26.09V216.755z M80.252,192.115h-26.09v-19.238h26.09V192.115z M172.475,216.755h-51.869v-8.966    h51.869V216.755z M172.475,192.115h-51.869v-19.238h51.869V192.115z M264.675,216.755h-51.869v-8.966h51.869V216.755z     M264.675,192.115h-51.869v-19.238h51.869V192.115z M402.819,136.198h9.871v21.007h-9.871V136.198z M392.301,172.877h7.472v43.115    h-7.472V172.877z M337.806,172.877h14.18v5.792h-14.18V172.877z M322.133,332.69h-16.885V194.343h16.885V332.69z M322.133,178.669    h-16.885v-5.792h16.885V178.669z M371.248,332.69h-3.588v-52.658c0-4.329-3.508-7.837-7.837-7.837    c-4.329,0-7.837,3.508-7.837,7.837v52.658h-14.18V194.343h14.18v57.478c0,4.329,3.508,7.837,7.837,7.837    c4.329,0,7.837-3.508,7.837-7.837v-78.943h8.967v45.727c0,7.203,5.859,13.061,13.061,13.061h10.084v69.286    C385.852,306.297,375.112,318.109,371.248,332.69z M416.502,375.802c-17.172,0-31.141-13.968-31.141-31.139    c0-17.172,13.969-31.141,31.141-31.141s31.141,13.969,31.141,31.141C447.643,361.833,433.673,375.802,416.502,375.802z     M475.848,295.102h14.651v15.706h-14.651V295.102z M496.327,332.69h-34.568c-0.564-2.132-1.271-4.206-2.117-6.208h36.685V332.69z"/>
	</g>
</g>
<g>
	<g>
		<path d="M416.502,323.957c-11.417,0-20.705,9.289-20.705,20.706s9.289,20.705,20.705,20.705c11.418,0,20.706-9.288,20.706-20.705    C437.208,333.246,427.919,323.957,416.502,323.957z M416.502,349.694c-2.774,0-5.031-2.257-5.031-5.031    c0-2.775,2.257-5.032,5.031-5.032c2.775,0,5.032,2.257,5.032,5.032C421.535,347.437,419.278,349.694,416.502,349.694z"/>
	</g>
</g>
<g>
</g>
<g>
</g>
<g>
</g>
<g>
</g>
<g>
</g>
<g>
</g>
<g>
</g>
<g>
</g>
<g>
</g>
<g>
</g>
<g>
</g>
<g>
</g>
<g>
</g>
<g>
</g>
<g>
</g>
</svg>
