<?xml version="1.0" encoding="iso-8859-1"?>
<!-- Generator: Adobe Illustrator 19.0.0, SVG Export Plug-In . SVG Version: 6.00 Build 0)  -->
<svg xmlns="http://www.w3.org/2000/svg" xmlns:xlink="http://www.w3.org/1999/xlink" version="1.1" id="Layer_1" x="0px" y="0px" viewBox="0 0 512.001 512.001" style="enable-background:new 0 0 512.001 512.001;" xml:space="preserve">
<g>
	<g>
		<path d="M342.582,414.207c-11.971,0-21.712,9.734-21.712,21.7c0,11.966,9.74,21.701,21.712,21.701    c11.971,0,21.712-9.734,21.712-21.701C364.294,423.942,354.554,414.207,342.582,414.207z M342.582,441.935    c-3.329,0-6.038-2.704-6.038-6.028c0-3.324,2.709-6.027,6.038-6.027c3.33,0,6.038,2.704,6.038,6.027    C348.62,439.231,345.912,441.935,342.582,441.935z"/>
	</g>
</g>
<g>
	<g>
		<path d="M107.77,414.207c-11.972,0-21.712,9.734-21.712,21.7c0,11.966,9.74,21.701,21.712,21.701    c11.971,0,21.712-9.734,21.712-21.701C129.483,423.942,119.743,414.207,107.77,414.207z M107.77,441.935    c-3.33,0-6.038-2.704-6.038-6.028c0-3.324,2.708-6.027,6.038-6.027c3.33,0,6.039,2.704,6.039,6.027    C113.81,439.231,111.1,441.935,107.77,441.935z"/>
	</g>
</g>
<g>
	<g>
		<path d="M450.494,261.7h-1.473v-75.861c11.79-6.096,19.871-18.393,19.871-32.549c0-20.199-16.444-36.632-36.655-36.632    s-36.655,16.433-36.655,36.632c0,14.156,8.081,26.453,19.872,32.55v75.86h-6.472v-16.8c0-7.203-5.859-13.061-13.061-13.061h-7.078    V100.376c0-10.082-8.204-18.286-18.286-18.286h-30.067C323.25,33.631,276.836,0,224.109,0c-52.726,0-99.142,33.631-116.381,82.09    H77.662c-10.082,0-18.286,8.203-18.286,18.286v364.202h-3.205c-7.203,0-13.061,5.859-13.061,13.061v10.635    c0,7.201,5.859,13.061,13.061,13.061h95.847h2.58c1.13,6.06,6.448,10.665,12.831,10.665h39.716c5.071,0,9.466-2.91,11.629-7.143    c2.163,4.233,6.558,7.143,11.629,7.143h39.714c6.382,0,11.702-4.605,12.831-10.665h2.932c1.13,6.06,6.448,10.665,12.831,10.665    h39.716c6.382,0,11.702-4.605,12.831-10.665h40.792c7.203,0,13.061-5.86,13.061-13.061V477.64c0-7.202-5.859-13.061-13.061-13.061    h-3.205V349.895h7.078c7.203,0,13.061-5.86,13.061-13.061v-16.8h41.512c7.203,0,13.061-5.859,13.061-13.061v-32.211    C463.555,267.56,457.696,261.7,450.494,261.7z M224.109,15.673c44.113,0,83.171,26.95,99.599,66.417h-11.91    c-15.782-33.422-49.696-55.577-87.689-55.577c-11.101,0-21.995,1.869-32.379,5.556c-4.078,1.447-6.211,5.928-4.764,10.006    c1.447,4.078,5.928,6.213,10.007,4.764c8.696-3.087,17.826-4.652,27.136-4.652c29.248,0,55.628,15.653,69.992,39.904h-12.315    c-13.18-18.232-34.644-29.666-57.677-29.666s-44.497,11.432-57.677,29.666h-12.245c4.951-8.325,11.374-15.798,18.962-21.917    c3.37-2.717,3.898-7.65,1.182-11.019c-2.717-3.371-7.651-3.898-11.019-1.183c-11.405,9.196-20.598,20.971-26.848,34.118h-11.953    C140.938,42.623,179.996,15.673,224.109,15.673z M260.746,82.09h-73.273c9.953-8.781,22.932-13.992,36.637-13.992    C237.814,68.098,250.793,73.308,260.746,82.09z M75.049,208.409c0-1.416,1.196-2.612,2.612-2.612h211.776    c4.328,0,7.837-3.508,7.837-7.837c0-4.329-3.509-7.837-7.837-7.837H75.049v-89.747c0-1.416,1.196-2.612,2.612-2.612h292.895    c1.416,0,2.612,1.196,2.612,2.612v89.748h-52.385c-4.328,0-7.837,3.508-7.837,7.837c0,4.329,3.509,7.837,7.837,7.837h49.773    c1.416,0,2.612,1.196,2.612,2.612v155.071c0,1.416-1.196,2.612-2.612,2.612H77.662c-1.416,0-2.612-1.196-2.612-2.612V208.409z     M138.956,485.661H58.782v-5.411h80.174V485.661z M204.532,496.327h-34.491v-6.723h34.491V496.327z M231.215,473.93h-0.814    h-23.257h-10.42v-6.723h34.491V473.93z M267.504,496.327h-34.49v-6.723h34.49V496.327z M293.589,474.979    c-4.275,1.829-7.383,5.872-7.872,10.682h-2.606c-0.669-6.58-6.241-11.731-12.994-11.731h-23.227v-9.335    c0-7.203-5.859-13.061-13.061-13.061h-39.716c-7.203,0-13.061,5.859-13.061,13.061v9.335h-13.622    c-6.31,0-11.588,4.498-12.799,10.455v-39.573h138.959V474.979z M335.813,496.327h-34.491v-6.723h34.491V496.327z M309.262,464.577    V442.2c0-7.203-5.859-13.061-13.061-13.061H152.018c-7.202,0-13.061,5.859-13.061,13.061v22.378H75.049v-55.17    c0.856,0.123,1.723,0.209,2.612,0.209H262.27c4.328,0,7.837-3.508,7.837-7.837s-3.509-7.837-7.837-7.837H77.662    c-1.416,0-2.612-1.196-2.612-2.612v-9.774c0.856,0.123,1.723,0.209,2.612,0.209h292.895c0.889,0,1.756-0.086,2.612-0.209v9.774    c0,1.416-1.196,2.612-2.612,2.612h-77.985c-4.328,0-7.837,3.508-7.837,7.837s3.509,7.837,7.837,7.837h77.985    c0.889,0,1.756-0.086,2.612-0.209v55.17H309.262z M389.435,480.251v5.411h-38.017c-0.2-1.968-0.851-3.798-1.828-5.411H389.435z     M393.308,334.221h-4.466v-11.469v-75.241h4.466V334.221z M411.257,153.291c0-11.557,9.412-20.959,20.982-20.959    s20.982,9.402,20.982,20.959s-9.412,20.959-20.982,20.959C420.668,174.249,411.257,164.847,411.257,153.291z M433.348,189.893    V261.7h-2.22v-71.806c0.37,0.011,0.738,0.028,1.11,0.028C432.61,189.923,432.978,189.905,433.348,189.893z M447.881,304.36    h-38.899v-26.987h38.899V304.36z"/>
	</g>
</g>
<g>
	<g>
		<path d="M164.782,277.197c-1.292-3.935-4.601-6.961-8.621-7.896l-7.535-1.76l-4.006-6.605c-2.15-3.535-6.056-5.73-10.195-5.73    c-4.143,0-8.05,2.198-10.202,5.74l-4,6.596l-7.525,1.758c-4.035,0.937-7.344,3.966-8.64,7.924    c-1.277,3.938-0.388,8.33,2.327,11.472l5.05,5.828l-0.651,7.682c-0.345,4.127,1.527,8.202,4.875,10.631    c2.048,1.489,4.473,2.276,7.011,2.276c1.589,0,3.141-0.312,4.614-0.93l7.139-2.995l7.135,2.992    c1.471,0.619,3.025,0.933,4.621,0.933c2.532,0,4.954-0.785,7.009-2.274c3.367-2.443,5.233-6.527,4.874-10.637l-0.647-7.679    l5.051-5.831C165.184,285.552,166.074,281.152,164.782,277.197z M143.804,286.298c-1.644,1.912-2.454,4.445-2.23,6.892    l0.349,4.146l-3.805-1.595c-1.174-0.506-2.417-0.763-3.694-0.763c-1.284,0-2.533,0.259-3.625,0.732l-3.874,1.626l0.347-4.107    c0.225-2.523-0.601-5.066-2.25-6.956l-2.707-3.124l4.027-0.94c2.453-0.563,4.608-2.122,5.905-4.268l2.177-3.589l2.15,3.545    c1.298,2.171,3.458,3.743,5.902,4.306l4.055,0.947L143.804,286.298z"/>
	</g>
</g>
<g>
	<g>
		<path d="M254.44,277.198c-1.293-3.937-4.6-6.963-8.624-7.898l-7.534-1.76l-4.008-6.607c-2.15-3.534-6.056-5.728-10.194-5.728    c-4.141,0-8.049,2.197-10.202,5.74l-4,6.596l-7.525,1.758c-4.037,0.937-7.346,3.967-8.639,7.925    c-1.278,3.938-0.389,8.33,2.325,11.472l5.051,5.828l-0.651,7.684c-0.344,4.126,1.528,8.2,4.875,10.628    c2.049,1.489,4.473,2.276,7.011,2.276c1.591,0,3.144-0.312,4.614-0.93l7.14-2.995l7.134,2.992    c1.471,0.619,3.025,0.933,4.621,0.933c2.531,0,4.952-0.784,7.011-2.275c3.365-2.443,5.231-6.527,4.873-10.636l-0.647-7.679    l5.05-5.828C254.841,285.552,255.731,281.152,254.44,277.198z M233.458,286.297c-1.644,1.912-2.454,4.446-2.23,6.892l0.349,4.146    l-3.812-1.598c-1.172-0.504-2.414-0.761-3.687-0.761c-1.282,0-2.528,0.258-3.625,0.732l-3.874,1.626l0.348-4.107    c0.225-2.523-0.601-5.066-2.25-6.956l-2.707-3.124l4.025-0.939c2.451-0.562,4.605-2.119,5.908-4.269l2.175-3.589l2.155,3.552    c1.299,2.168,3.458,3.737,5.898,4.299l4.055,0.947L233.458,286.297z"/>
	</g>
</g>
<g>
	<g>
		<path d="M344.419,277.199c-1.293-3.937-4.6-6.963-8.624-7.898l-7.535-1.76l-4.006-6.605c-2.15-3.535-6.056-5.73-10.195-5.73    c-4.143,0-8.051,2.198-10.202,5.74l-4,6.596l-7.525,1.758c-4.035,0.937-7.344,3.966-8.64,7.924    c-1.277,3.938-0.389,8.33,2.327,11.472l5.05,5.827l-0.65,7.682c-0.345,4.127,1.527,8.202,4.875,10.631    c2.048,1.489,4.473,2.276,7.011,2.276c1.589,0,3.141-0.312,4.614-0.93l7.14-2.995l7.134,2.992    c1.471,0.619,3.025,0.933,4.621,0.933c2.532,0,4.954-0.785,7.01-2.275c3.366-2.443,5.232-6.527,4.873-10.636l-0.647-7.679    l5.051-5.831C344.82,285.551,345.709,281.151,344.419,277.199z M323.437,286.298c-1.644,1.912-2.454,4.445-2.23,6.892l0.349,4.146    l-3.811-1.598c-1.172-0.504-2.414-0.761-3.687-0.761c-1.285,0-2.533,0.259-3.625,0.732l-3.874,1.626l0.348-4.107    c0.225-2.523-0.601-5.066-2.25-6.956l-2.707-3.124l4.027-0.941c2.453-0.563,4.608-2.122,5.905-4.268l2.177-3.589l2.15,3.545    c1.298,2.171,3.458,3.743,5.902,4.306l4.055,0.947L323.437,286.298z"/>
	</g>
</g>
<g>
	<g>
		<path d="M361.422,118.814c-4.945-1.142-8.896-4.875-10.31-9.745c-0.973-3.348-4.04-5.651-7.526-5.651H103.84    c-3.487,0-6.554,2.303-7.526,5.652c-1.352,4.658-5.109,8.34-9.802,9.611c-3.417,0.925-5.79,4.025-5.79,7.564v33.017    c0,3.539,2.372,6.639,5.789,7.564c4.836,1.309,8.627,5.13,9.893,9.972c0.902,3.448,4.018,5.854,7.582,5.854h239.457    c3.563,0.001,6.679-2.404,7.581-5.852c1.323-5.057,5.307-8.929,10.399-10.104c3.555-0.82,6.074-3.986,6.074-7.636V126.45    C367.496,122.802,364.978,119.636,361.422,118.814z M351.823,153.534c-5.958,2.824-10.795,7.55-13.756,13.445H109.348v0.001    c-2.83-5.593-7.377-10.17-12.953-13.038v-22.38c5.373-2.771,9.815-7.143,12.665-12.47h229.294    c2.991,5.621,7.721,10.142,13.468,12.876V153.534z"/>
	</g>
</g>
<g>
	<g>
		<path d="M354.434,211.453h-74.401h-5.338H173.523h-5.293H93.783c-7.202,0-13.061,5.859-13.061,13.061v122.861    c0,7.202,5.859,13.061,13.061,13.061h74.446h5.293h180.911c7.203,0,13.061-5.859,13.061-13.061V224.514    C367.495,217.312,361.637,211.453,354.434,211.453z M261.634,344.763h-75.05v-14.575c0-4.329-3.509-7.837-7.837-7.837    s-7.837,3.508-7.837,7.837v14.575h-2.681H96.396V227.126h71.834h2.681v71.713c0,4.329,3.509,7.837,7.837,7.837    s7.837-3.508,7.837-7.837v-71.713h75.05V344.763z M351.823,344.763h-71.79h-2.726V227.126h2.726h71.79V344.763z"/>
	</g>
</g>
<g>
	<g>
		<path d="M135.607,137.498c-1.452-1.464-3.479-2.299-5.538-2.299s-4.086,0.836-5.548,2.299c-1.452,1.452-2.288,3.469-2.288,5.538    c0,2.069,0.836,4.086,2.288,5.538c1.463,1.463,3.49,2.299,5.548,2.299s4.075-0.836,5.538-2.299    c1.463-1.452,2.299-3.479,2.299-5.538C137.906,140.978,137.07,138.951,135.607,137.498z"/>
	</g>
</g>
<g>
	<g>
		<path d="M173.224,137.498c-1.452-1.464-3.48-2.299-5.538-2.299c-2.058,0-4.086,0.836-5.548,2.299    c-1.452,1.452-2.288,3.469-2.288,5.538c0,2.069,0.836,4.086,2.288,5.538c1.463,1.463,3.49,2.299,5.548,2.299    c2.058,0,4.075-0.836,5.538-2.299c1.463-1.452,2.299-3.479,2.299-5.538C175.523,140.978,174.687,138.951,173.224,137.498z"/>
	</g>
</g>
<g>
	<g>
		<path d="M210.84,137.498c-1.452-1.464-3.48-2.299-5.538-2.299c-2.058,0-4.086,0.836-5.548,2.299    c-1.452,1.452-2.288,3.48-2.288,5.538c0,2.058,0.836,4.086,2.288,5.538c1.463,1.463,3.49,2.299,5.548,2.299    c2.058,0,4.075-0.836,5.538-2.299c1.463-1.452,2.299-3.479,2.299-5.538C213.139,140.978,212.303,138.951,210.84,137.498z"/>
	</g>
</g>
<g>
	<g>
		<path d="M248.456,137.498c-1.452-1.464-3.479-2.299-5.538-2.299c-2.069,0-4.086,0.836-5.548,2.299    c-1.452,1.452-2.288,3.48-2.288,5.538c0,2.058,0.836,4.086,2.288,5.538c1.463,1.463,3.49,2.299,5.548,2.299    c2.058,0,4.075-0.836,5.538-2.299c1.463-1.452,2.299-3.479,2.299-5.538C250.755,140.978,249.919,138.951,248.456,137.498z"/>
	</g>
</g>
<g>
	<g>
		<path d="M286.073,137.498c-1.452-1.464-3.479-2.299-5.538-2.299c-2.069,0-4.086,0.836-5.548,2.299    c-1.452,1.452-2.288,3.48-2.288,5.538c0,2.058,0.836,4.086,2.288,5.538c1.463,1.463,3.49,2.299,5.548,2.299    c2.058,0,4.086-0.836,5.538-2.299c1.463-1.452,2.299-3.479,2.299-5.538C288.372,140.978,287.536,138.951,286.073,137.498z"/>
	</g>
</g>
<g>
	<g>
		<path d="M323.689,137.498c-1.463-1.464-3.479-2.299-5.538-2.299c-2.069,0-4.086,0.836-5.548,2.299    c-1.452,1.452-2.288,3.48-2.288,5.538c0,2.058,0.836,4.086,2.288,5.538c1.463,1.463,3.49,2.299,5.548,2.299    c2.058,0,4.075-0.836,5.538-2.299c1.463-1.452,2.299-3.479,2.299-5.538C325.988,140.978,325.152,138.951,323.689,137.498z"/>
	</g>
</g>
<g>
</g>
<g>
</g>
<g>
</g>
<g>
</g>
<g>
</g>
<g>
</g>
<g>
</g>
<g>
</g>
<g>
</g>
<g>
</g>
<g>
</g>
<g>
</g>
<g>
</g>
<g>
</g>
<g>
</g>
</svg>
