<?xml version="1.0" encoding="iso-8859-1"?>
<!-- Generator: Adobe Illustrator 19.0.0, SVG Export Plug-In . SVG Version: 6.00 Build 0)  -->
<svg xmlns="http://www.w3.org/2000/svg" xmlns:xlink="http://www.w3.org/1999/xlink" version="1.1" id="Layer_1" x="0px" y="0px" viewBox="0 0 512 512" style="enable-background:new 0 0 512 512;" xml:space="preserve">
<g>
	<g>
		<path d="M150.041,211.646c-14.36,0-26.042,11.545-26.042,25.735c-0.001,14.189,11.682,25.733,26.042,25.733    s26.043-11.544,26.043-25.733C176.084,223.191,164.401,211.646,150.041,211.646z M150.041,247.44    c-5.718,0-10.369-4.512-10.369-10.059c-0.001-5.548,4.651-10.061,10.369-10.061c5.718,0,10.37,4.513,10.37,10.061    C160.411,242.928,155.759,247.44,150.041,247.44z"/>
	</g>
</g>
<g>
	<g>
		<path d="M120.672,276.696l-15.201-13.819l2.767-20.362c0.473-3.506-1.057-6.91-3.997-8.886c-2.857-1.918-6.721-2.064-9.716-0.356    L76.689,243.46l-18.534-8.935c-3.085-1.47-6.981-1.032-9.633,1.043c-2.766,2.147-4.088,5.748-3.371,9.154l4.175,20.113    l-14.195,14.836c-2.447,2.553-3.218,6.206-2.004,9.548c0.671,1.833,1.879,3.379,3.55,4.509c1.253,0.833,2.704,1.351,4.104,1.488    l20.418,2.247l9.729,18.091c0.699,1.3,1.714,2.425,2.955,3.273c1.531,1.035,3.318,1.584,5.167,1.584    c0.091,0,0.23-0.003,0.322-0.006c3.488-0.121,6.664-2.258,8.084-5.426l8.444-18.726l20.244-3.666    c3.451-0.638,6.203-3.129,7.196-6.551C124.3,282.649,123.28,279.071,120.672,276.696z M89.055,281.564    c-2.54,0.46-4.69,2.14-5.749,4.491l-4.764,10.564l-5.488-10.206c-1.22-2.272-3.482-3.796-6.045-4.078l-11.521-1.267l8.011-8.375    c1.783-1.863,2.535-4.485,2.01-7.01l-2.355-11.348l10.441,5.032c2.324,1.12,5.05,1.024,7.29-0.254l10.062-5.747l-1.56,11.482    c-0.348,2.556,0.585,5.119,2.494,6.854l8.577,7.796L89.055,281.564z"/>
	</g>
</g>
<g>
	<g>
		<path d="M487.782,360.101H360.899l-20.696-109.903l135.119-20.834c4.205-0.648,8.045-2.982,10.537-6.406    c2.516-3.461,3.531-7.853,2.784-12.052c-9.608-54.022-38.091-103.788-80.201-140.128c-44.874-38.725-102.502-60.053-162.27-60.053    c-58.258,0-114.813,20.462-159.248,57.617c-3.321,2.776-3.762,7.72-0.984,11.039c2.776,3.32,7.718,3.762,11.038,0.984    c41.62-34.801,94.605-53.967,149.194-53.967c56.009,0,110.001,19.974,152.03,56.245c20.242,17.469,37.104,38.251,49.942,61.185    l-52.292,8.17c-4.277,0.669-7.201,4.677-6.533,8.953c0.604,3.866,3.939,6.628,7.733,6.628c0.402,0,0.81-0.03,1.219-0.095    l57.411-8.969c8.188,17.522,14.115,36.08,17.503,55.223c-0.05,0.069-0.144,0.12-0.251,0.137l-209.304,32.273    c-10.285-19.293-23.713-36.653-39.653-51.431l141.901-22.171c4.276-0.669,7.201-4.677,6.533-8.953    c-0.669-4.277-4.679-7.205-8.953-6.533l-155.533,24.3c-4.098-3.056-8.309-5.978-12.656-8.716    c-31.04-19.554-66.928-29.889-103.783-29.889c-17.1,0-33.932,2.204-50.249,6.552c8.802-16.772,19.776-32.53,32.768-46.867    c2.906-3.207,2.662-8.164-0.544-11.07c-3.207-2.906-8.163-2.663-11.07,0.544C44.32,111.855,29.908,134.377,19.5,158.51    c-0.227,0.421-0.416,0.862-0.563,1.319C6.538,189.059,0,220.618,0,252.838c0,63.567,25.467,124.374,70.411,169.477    c12.929,39.505,50.132,68.122,93.901,68.122c45.282,0,83.54-30.63,95.156-72.257h96.419l12.512,66.441    c1.76,9.34,10.581,16.655,20.084,16.655h105.232c10.082,0,18.286-8.204,18.286-18.286V384.04    C512,370.839,501.136,360.101,487.782,360.101z M65.558,393.435c-32.036-39.723-49.885-89.195-49.885-140.597    c0-29.188,5.742-57.801,16.654-84.412c18.977-6.633,38.861-9.998,59.159-9.998c33.895,0,66.894,9.502,95.43,27.478    c24.965,15.728,45.61,37.312,60.212,62.786l-9.819,1.514c-8.547,1.319-16.004,5.859-20.997,12.782    c-5.021,6.965-6.913,15.454-5.33,23.903l3.721,19.845c-14.762-8.793-31.996-13.853-50.391-13.853    c-54.465,0-98.776,44.311-98.776,98.777C65.535,392.254,65.547,392.845,65.558,393.435z M164.311,474.764    c-45.823,0-83.103-37.281-83.103-83.104s37.28-83.104,83.103-83.104c34.655,0,64.41,21.331,76.862,51.545h-16.524    c-11.401-21.71-34.162-36.561-60.338-36.561c-37.56,0-68.118,30.559-68.118,68.12c0,37.56,30.558,68.118,68.118,68.118    c8.882,0,17.522-1.685,25.682-5.01c4.008-1.633,5.934-6.206,4.301-10.214c-1.633-4.007-6.208-5.935-10.214-4.3    c-6.274,2.555-12.924,3.852-19.768,3.852c-28.918,0-52.444-23.527-52.444-52.445c0-28.92,23.527-52.447,52.444-52.447    s52.444,23.528,52.444,52.447c0,12.105-4.005,23.474-11.583,32.877c-2.716,3.371-2.185,8.304,1.185,11.02    c3.372,2.717,8.304,2.186,11.019-1.185c3.977-4.935,7.208-10.399,9.653-16.191h16.019    C231.954,451.034,200.862,474.764,164.311,474.764z M246.684,402.507h-15.14c0.579-3.574,0.886-7.2,0.886-10.847    c0-5.47-0.666-10.785-1.889-15.886h15.334c1.001,5.145,1.541,10.453,1.541,15.886C247.415,395.339,247.15,398.954,246.684,402.507    z M257.912,360.101c-5.044-14.913-13.553-28.242-24.572-39.021l-6.953-37.078c-0.785-4.19,0.153-8.398,2.638-11.848    c2.517-3.492,6.308-5.786,10.673-6.46l85.007-13.107l20.246,107.514H257.912z M262.49,402.507    c0.391-3.563,0.599-7.182,0.599-10.847c0-5.407-0.443-10.712-1.283-15.886h86.096l5.033,26.733H262.49z M426.461,402.507    L426.461,402.507h-7.456c-4.328,0-7.837,3.508-7.837,7.837c0,4.329,3.509,7.837,7.837,7.837h7.456v67.422h-37.978    c-1.994,0-4.312-1.923-4.681-3.882l-11.965-63.541h14.776c4.328,0,7.837-3.508,7.837-7.837c0-4.329-3.509-7.837-7.837-7.837    h-17.727l-5.034-26.733h62.609V402.507z M496.327,482.99c0,1.416-1.196,2.612-2.612,2.612h-51.58v-67.422h45.648    c3.006,0,5.885-0.549,8.544-1.543V482.99z M496.327,394.244c0,4.556-3.833,8.263-8.544,8.263h-45.648v-26.733h45.648    c4.711,0,8.544,3.708,8.544,8.265V394.244z"/>
	</g>
</g>
<g>
	<g>
		<path d="M164.311,347.772c-24.199,0-43.886,19.687-43.886,43.886c0,24.201,19.687,43.89,43.886,43.89s43.886-19.689,43.886-43.89    C208.197,367.459,188.51,347.772,164.311,347.772z M164.311,419.874c-15.556,0-28.212-12.658-28.212-28.216    c0-15.556,12.656-28.212,28.212-28.212c15.556,0,28.212,12.656,28.212,28.212C192.523,407.217,179.868,419.874,164.311,419.874z"/>
	</g>
</g>
<g>
</g>
<g>
</g>
<g>
</g>
<g>
</g>
<g>
</g>
<g>
</g>
<g>
</g>
<g>
</g>
<g>
</g>
<g>
</g>
<g>
</g>
<g>
</g>
<g>
</g>
<g>
</g>
<g>
</g>
</svg>
