<?xml version="1.0" encoding="iso-8859-1"?>
<!-- Generator: Adobe Illustrator 19.0.0, SVG Export Plug-In . SVG Version: 6.00 Build 0)  -->
<svg xmlns="http://www.w3.org/2000/svg" xmlns:xlink="http://www.w3.org/1999/xlink" version="1.1" id="Layer_1" x="0px" y="0px" viewBox="0 0 512 512" style="enable-background:new 0 0 512 512;" xml:space="preserve">
<g>
	<g>
		<path d="M482.21,119.641c4.329,0,7.837-3.508,7.837-7.837V31.869c0-6.05-4.921-10.971-10.971-10.971H32.925    c-6.05,0-10.971,4.922-10.971,10.971v448.261c0,6.05,4.922,10.971,10.971,10.971h446.151c6.05,0,10.971-4.921,10.971-10.971    V141.061c0-4.329-3.508-7.837-7.837-7.837c-4.329,0-7.837,3.508-7.837,7.837v51.14c-2.499-1.647-5.372-2.769-8.476-3.221    l-132.165-19.207L274.628,50.002c-3.523-7.145-10.661-11.584-18.628-11.584c-7.969,0-15.107,4.44-18.624,11.581l-59.109,119.776    L46.101,188.98c-3.104,0.452-5.976,1.575-8.474,3.221V36.571h436.746v75.233C474.373,116.133,477.881,119.641,482.21,119.641z     M44.242,207.96c0.613-1.887,2.152-3.184,4.115-3.469l136.241-19.799c2.553-0.371,4.759-1.974,5.902-4.287l60.935-123.476    c0.876-1.777,2.582-2.839,4.566-2.839s3.694,1.063,4.572,2.845L321.5,180.405c1.142,2.312,3.348,3.916,5.902,4.287l136.241,19.799    c1.965,0.285,3.505,1.584,4.118,3.477c0.613,1.885,0.131,3.839-1.288,5.224l-98.589,96.109c-1.847,1.8-2.69,4.394-2.253,6.936    l23.272,135.705c0.335,1.961-0.422,3.827-2.027,4.992c-0.891,0.647-1.9,0.975-2.999,0.975c-0.819,0-1.643-0.204-2.368-0.584    l-121.862-64.078c-1.141-0.6-2.394-0.9-3.647-0.9c-1.253,0-2.506,0.3-3.647,0.9l-121.852,64.075    c-0.731,0.383-1.554,0.586-2.376,0.586c-1.099,0-2.107-0.328-2.997-0.975c-1.606-1.166-2.365-3.032-2.029-4.989l23.272-135.708    c0.437-2.542-0.406-5.136-2.253-6.936l-98.585-96.105C44.109,211.807,43.626,209.851,44.242,207.96z M130.227,317.648    l-22.576,131.649c-1.345,7.853,1.822,15.639,8.264,20.317c3.571,2.596,7.794,3.969,12.211,3.969c3.35,0,6.69-0.823,9.665-2.384    L256,409.038l118.227,62.167c2.971,1.555,6.307,2.377,9.648,2.377c4.415,0,8.637-1.372,12.21-3.966    c6.443-4.679,9.61-12.465,8.265-20.32l-22.576-131.648l92.6-90.27v248.05H37.627V227.377L130.227,317.648z"/>
	</g>
</g>
<g>
	<g>
		<path d="M492.659,0H19.341C9.258,0,1.055,8.203,1.055,18.286v475.429C1.055,503.797,9.259,512,19.341,512h473.318    c10.082,0,18.286-8.203,18.286-18.286V18.286C510.945,8.203,502.742,0,492.659,0z M495.271,493.714    c0,1.416-1.196,2.612-2.612,2.612H19.341c-1.416,0-2.612-1.196-2.612-2.612V18.286c0-1.416,1.196-2.612,2.612-2.612h473.318    c1.416,0,2.612,1.196,2.612,2.612V493.714z"/>
	</g>
</g>
<g>
	<g>
		<path d="M362.661,195.096l-36.013-5.234c-4.255-0.619-7.932-3.289-9.835-7.145L263.029,73.72c-1.321-2.676-4.044-4.37-7.028-4.37    c-2.983,0-5.707,1.694-7.028,4.369l-53.791,108.997c-1.903,3.856-5.579,6.528-9.834,7.146l-120.281,17.48    c-2.951,0.428-5.404,2.496-6.326,5.333c-0.922,2.837-0.153,5.951,1.982,8.033l87.041,84.851c3.078,3.002,4.483,7.324,3.755,11.561    l-20.546,119.81c-0.504,2.939,0.705,5.911,3.118,7.664c1.366,0.993,2.982,1.497,4.607,1.497c1.247,0,2.5-0.298,3.646-0.9    l34.755-18.275c3.832-2.016,5.304-6.753,3.288-10.584c-2.012-3.83-6.75-5.305-10.583-3.288l-20.7,10.884l17.861-104.158    c1.6-9.323-1.489-18.831-8.262-25.434l-75.671-73.769l104.568-15.196c9.361-1.359,17.449-7.237,21.636-15.719L256,94.896    l46.758,94.758c4.187,8.482,12.274,14.36,21.636,15.719l36.012,5.234c4.282,0.627,8.26-2.345,8.883-6.628    C369.912,199.695,366.944,195.719,362.661,195.096z"/>
	</g>
</g>
<g>
	<g>
		<path d="M451.277,220.708c2.136-2.081,2.904-5.196,1.982-8.033c-0.922-2.838-3.374-4.905-6.327-5.333l-55.012-7.995    c-4.291-0.63-8.261,2.345-8.883,6.628c-0.623,4.284,2.345,8.26,6.628,8.883l39.301,5.711l-75.672,73.769    c-6.773,6.603-9.862,16.111-8.262,25.433l17.863,104.158l-93.524-49.177c-4.109-2.159-8.732-3.3-13.372-3.3    c-4.641,0-9.266,1.142-13.374,3.302l-45.654,24.008c-3.831,2.015-5.303,6.752-3.287,10.584c2.014,3.828,6.75,5.306,10.584,3.288    l45.652-24.007c3.733-1.962,8.424-1.963,12.159,0l107.576,56.568c1.146,0.602,2.399,0.9,3.646,0.9    c1.626,0,3.242-0.505,4.607-1.497c2.414-1.753,3.623-4.724,3.118-7.664l-20.548-119.812c-0.726-4.237,0.677-8.558,3.756-11.561    L451.277,220.708z"/>
	</g>
</g>
<g>
	<g>
		<path d="M256,189.368c-48.498,0-87.953,39.461-87.953,87.965c0,10.907,1.974,21.552,5.864,31.645    c1.557,4.036,6.093,6.049,10.131,4.493c4.039-1.557,6.05-6.093,4.493-10.131c-3.195-8.287-4.815-17.036-4.815-26.006    c0-39.861,32.424-72.291,72.28-72.291c39.857,0,72.281,32.429,72.281,72.291c0,32.665-21.779,60.324-51.572,69.251l-5.935-9.34    c4.529-2.052,7.692-6.606,7.692-11.893v-6.968h8.783c6.391,0,11.714-4.617,12.834-10.688l3.873,2.237    c1.912,1.104,3.906,1.664,5.929,1.664c5.901,0,10.351-4.756,10.351-11.062v-27.338c0-6.306-4.45-11.062-10.351-11.062    c-2.023,0-4.017,0.559-5.93,1.663l-3.909,2.258c-0.707-3.47-2.798-6.438-5.664-8.315c3.26-4.422,5.192-9.881,5.192-15.783    c0-14.702-11.958-26.663-26.657-26.663c-8.162,0-15.476,3.692-20.37,9.49c-4.893-5.798-12.206-9.49-20.369-9.49    c-14.699,0-26.657,11.96-26.657,26.663c0,6.122,2.079,11.764,5.562,16.269c-3.179,2.384-5.247,6.171-5.247,10.442v36.656    c0,7.203,5.859,13.061,13.061,13.061h7.721v6.968c0,6.044,4.133,11.127,9.716,12.611l-4.224,7.589    c-11.999-4.202-22.815-11.534-31.253-21.48c-2.799-3.299-7.744-3.705-11.046-0.907c-3.301,2.8-3.706,7.746-0.907,11.046    c16.757,19.756,41.214,31.087,67.097,31.087c48.498,0,87.954-39.461,87.954-87.964C343.954,228.828,304.498,189.368,256,189.368z     M300.31,284l4.253-2.457v10.638l-4.253-2.456V284z M272.917,230.965c6.056,0,10.984,4.93,10.984,10.989    c0,6.056-4.928,10.984-10.984,10.984c-6.056,0-10.984-4.928-10.984-10.984C261.934,235.895,266.862,230.965,272.917,230.965z     M232.177,230.965c6.056,0,10.984,4.93,10.984,10.989c0,6.056-4.928,10.984-10.984,10.984s-10.984-4.928-10.984-10.984    C221.193,235.895,226.121,230.965,232.177,230.965z M221.508,302.709v-31.432h63.129v31.432H221.508z M256,349.623    c-2.68,0-5.341-0.149-7.975-0.441l5.493-9.867l6.477,10.193C258.673,349.58,257.341,349.623,256,349.623z M262.792,322.739H242.29    v-4.356h20.502V322.739z"/>
	</g>
</g>
<g>
</g>
<g>
</g>
<g>
</g>
<g>
</g>
<g>
</g>
<g>
</g>
<g>
</g>
<g>
</g>
<g>
</g>
<g>
</g>
<g>
</g>
<g>
</g>
<g>
</g>
<g>
</g>
<g>
</g>
</svg>
