<?xml version="1.0" encoding="iso-8859-1"?>
<!-- Generator: Adobe Illustrator 19.0.0, SVG Export Plug-In . SVG Version: 6.00 Build 0)  -->
<svg xmlns="http://www.w3.org/2000/svg" xmlns:xlink="http://www.w3.org/1999/xlink" version="1.1" id="Layer_1" x="0px" y="0px" viewBox="0 0 512 512" style="enable-background:new 0 0 512 512;" xml:space="preserve">
<g>
	<g>
		<path d="M183.441,416.625c-5.68-2.063-10.747-5.842-14.649-10.93c-1.484-1.934-3.781-3.068-6.218-3.068s-4.734,1.134-6.217,3.067    c-6.193,8.072-15.207,12.701-24.73,12.701c-9.523,0-18.538-4.63-24.731-12.701c-1.483-1.933-3.78-3.067-6.217-3.067    s-4.734,1.134-6.217,3.067c-6.193,8.072-15.207,12.701-24.73,12.701c-9.523,0-18.538-4.63-24.731-12.701    c-2.634-3.434-7.554-4.083-10.988-1.447c-3.434,2.635-4.081,7.554-1.447,10.988c9.184,11.969,22.73,18.833,37.165,18.833    c11.454,0,22.348-4.323,30.947-12.086c8.598,7.765,19.494,12.086,30.948,12.086s22.349-4.323,30.949-12.087    c4.569,4.123,9.825,7.31,15.52,9.377c4.068,1.475,8.563-0.625,10.039-4.693C189.61,422.597,187.509,418.102,183.441,416.625z"/>
	</g>
</g>
<g>
	<g>
		<path d="M476.813,404.246c-3.435-2.635-8.354-1.985-10.988,1.449c-6.191,8.072-15.204,12.7-24.73,12.7    c-9.523,0-18.536-4.63-24.73-12.701c-1.483-1.933-3.78-3.067-6.217-3.067s-4.734,1.134-6.218,3.068    c-6.191,8.072-15.204,12.7-24.729,12.7c-9.523,0-18.536-4.629-24.728-12.7c-1.484-1.934-3.781-3.068-6.217-3.068    c-0.001,0-0.001,0-0.001,0c-2.437,0-4.734,1.134-6.217,3.067c-6.193,8.072-15.207,12.701-24.732,12.701    c-9.523,0-18.535-4.63-24.729-12.701c-1.483-1.933-3.78-3.067-6.217-3.067s-4.734,1.134-6.217,3.067    c-6.193,8.072-15.207,12.701-24.732,12.701c-9.521,0-18.535-4.63-24.73-12.701c-1.484-1.934-3.781-3.067-6.218-3.067    s-4.734,1.134-6.217,3.068c-2.372,3.093-5.173,5.704-8.327,7.763c-3.625,2.366-4.645,7.221-2.279,10.846    c2.366,3.625,7.221,4.646,10.846,2.279c2.107-1.374,4.101-2.912,5.976-4.602c8.599,7.767,19.495,12.088,30.949,12.088    c11.455,0,22.349-4.323,30.949-12.086c8.598,7.766,19.492,12.086,30.946,12.086c11.455,0,22.349-4.322,30.948-12.085    c8.598,7.765,19.492,12.085,30.947,12.085c11.456,0,22.349-4.322,30.947-12.085c8.599,7.765,19.492,12.085,30.947,12.085    c14.438,0,27.984-6.865,37.166-18.834C480.895,411.8,480.248,406.881,476.813,404.246z"/>
	</g>
</g>
<g>
	<g>
		<path d="M512,287.881v-11.494c0-7.203-5.859-13.061-13.061-13.061h-1.506v-15.174c0.139,0.007,0.279,0.019,0.417,0.019    c3.103,0,6.041-1.856,7.271-4.911c1.616-4.016-0.328-8.581-4.342-10.197c-26.883-10.826-48.614-40.903-61.004-83.7V90.991    c0-7.202-5.859-13.061-13.061-13.061h-11.494c-7.203,0-13.061,5.859-13.061,13.061v7.585h-26.332v-7.585    c0-7.202-5.859-13.061-13.061-13.061h-11.494c-7.203,0-13.061,5.859-13.061,13.061v59.626    c-7.47,25.272-18.279,46.222-31.726,61.267c-14.829,16.592-32.114,25.361-49.985,25.361c-17.87,0-35.156-8.77-49.985-25.361    c-13.751-15.384-24.741-36.944-32.225-62.986V90.991c0-7.202-5.859-13.061-13.061-13.061h-11.494    c-7.203,0-13.061,5.859-13.061,13.061v7.585h-26.332v-7.585c0-7.202-5.859-13.061-13.061-13.061H85.786    c-7.202,0-13.061,5.859-13.061,13.061v66.792c-12.71,38.314-33.306,65.178-58.39,75.28c-4.014,1.616-5.958,6.182-4.342,10.197    c1.231,3.055,4.168,4.911,7.271,4.911c0.139,0,0.279-0.013,0.417-0.019v15.174h-3.446c-7.203,0-13.061,5.859-13.061,13.061v11.494    c0,7.203,5.859,13.061,13.061,13.061h58.489v34.937c-5.731,1.379-10.008,6.537-10.008,12.686v21.626    c-6.841-1.68-13.072-5.798-17.716-11.851c-1.484-1.933-3.781-3.066-6.217-3.066c-2.437,0-4.734,1.134-6.217,3.067    c-6.194,8.071-15.207,12.701-24.73,12.701c-4.329,0-7.837,3.508-7.837,7.837s3.508,7.837,7.837,7.837    c11.453,0,22.348-4.323,30.947-12.086c8.599,7.766,19.494,12.086,30.947,12.086s22.347-4.323,30.947-12.087    c8.599,7.766,19.495,12.087,30.948,12.087s22.347-4.322,30.947-12.086c8.6,7.766,19.492,12.086,30.945,12.086    c11.454,0,22.35-4.323,30.949-12.086c8.6,7.765,19.494,12.086,30.946,12.086c11.454,0,22.348-4.322,30.949-12.086    c8.598,7.766,19.493,12.086,30.946,12.086c11.454,0,22.348-4.322,30.948-12.086c8.6,7.765,19.493,12.086,30.947,12.086    c11.454,0,22.348-4.323,30.947-12.086c8.6,7.765,19.494,12.086,30.947,12.086c11.454,0,22.349-4.323,30.948-12.086    c8.599,7.765,19.493,12.086,30.945,12.086c4.329,0,7.837-3.508,7.837-7.837s-3.508-7.837-7.837-7.837    c-9.521,0-18.533-4.63-24.727-12.701c-1.484-1.933-3.781-3.067-6.217-3.067c-2.437,0-4.734,1.134-6.217,3.067    c-4.262,5.555-9.862,9.479-16.041,11.386v-21.163c0-6.15-4.278-11.306-10.009-12.687v-34.936h59.165v0.001    C506.141,300.943,512,295.084,512,287.881z M466.497,228.819c4.837,4.631,9.934,8.646,15.263,12.007v22.5h-15.263V228.819z     M417.833,93.604h6.269v124.865c0,4.329,3.508,7.837,7.837,7.837c4.329,0,7.837-3.508,7.837-7.837V192.03    c3.432,6.643,7.151,12.822,11.135,18.49c-0.052,0.364-0.088,0.731-0.088,1.109v51.696h-11.048v-13.51    c0-4.329-3.508-7.837-7.837-7.837c-4.329,0-7.837,3.508-7.837,7.837v13.51h-6.269V93.604z M375.827,114.25h26.332v6.269h-26.332    V114.25z M375.827,136.193h26.332v11.746h-26.332V136.193z M375.827,163.612h26.332v6.269h-26.332V163.612z M375.827,185.555    h26.332v20.898h-26.332V185.555z M375.827,222.126h26.332v6.269h-26.332V222.126z M375.827,244.069h26.332v19.257h-26.332V244.069    z M353.884,93.604h6.269v169.723h-6.269V93.604z M324.888,214.108c4.828-6.425,9.272-13.576,13.322-21.348v70.565h-13.322V214.108    z M293.95,242.478c5.266-3.07,10.369-6.799,15.264-11.174v32.022H293.95V242.478z M263.014,252.617    c5.171-0.475,10.267-1.523,15.262-3.119v13.828h-15.262V252.617z M232.077,248.603c4.988,1.802,10.086,3.043,15.263,3.717v11.007    h-15.263V248.603z M174.289,191.805h0.001c3.439,6.695,7.165,12.943,11.178,18.664v17.403c0,4.329,3.508,7.837,7.837,7.837    c4.015,0,7.317-3.019,7.776-6.908c4.903,4.693,10.023,8.729,15.322,12.078v22.447h-15.263v-6.196c0-4.329-3.508-7.837-7.837-7.837    c-4.329,0-7.837,3.508-7.837,7.837v6.196h-11.178V191.805z M152.347,93.604h6.269v169.723h-6.269V93.604z M110.341,114.25h26.332    v6.269h-26.332V114.25z M110.341,136.193h26.332v11.746h-26.332V136.193z M110.341,163.612h26.332v6.269h-26.332V163.612z     M110.341,185.555h26.332v20.898h-26.332V185.555z M110.341,222.126h26.332v6.269h-26.332V222.126z M110.341,244.069h26.332    v19.257h-26.332V244.069z M88.398,93.604h6.269v169.723h-6.269V93.604z M72.725,196.875v66.451h-8.432V211.63    c0-0.385-0.037-0.76-0.091-1.13C67.195,206.239,70.038,201.692,72.725,196.875z M33.355,240.83    c5.329-3.362,10.426-7.379,15.263-12.011v34.507H33.355V240.83z M168.625,358.15L168.625,358.15    c-1.485-1.811-3.7-2.875-6.052-2.875c-2.436,0-4.733,1.133-6.217,3.066c-6.195,8.073-15.208,12.702-24.73,12.702    c-9.522,0-18.535-4.63-24.731-12.702c-1.484-1.933-3.781-3.066-6.217-3.066s-4.733,1.133-6.217,3.066    c-4.271,5.564-9.878,9.491-16.07,11.395v-18.558h90.234V358.15z M88.398,335.504v-34.561h6.269v34.561H88.398z M110.341,335.504    v-34.561h26.332v34.561H110.341z M152.347,335.504v-34.561h6.269v34.561H152.347z M338.211,335.879L338.211,335.879    c-5.731,1.38-10.008,6.537-10.008,12.686v20.374c-3.46,1.37-7.136,2.103-10.896,2.103c-9.521,0-18.534-4.63-24.729-12.701    c-1.483-1.933-3.78-3.067-6.217-3.067c-2.436,0-4.733,1.133-6.217,3.066c-6.195,8.073-15.21,12.702-24.732,12.702    c-9.52,0-18.534-4.63-24.731-12.702c-1.483-1.933-3.78-3.066-6.217-3.066c-2.436,0-4.733,1.134-6.216,3.067    c-6.193,8.072-15.207,12.701-24.731,12.701c-3.158,0-6.257-0.52-9.219-1.496v-20.982c0-6.149-4.277-11.306-10.008-12.686v-34.937    h163.92V335.879z M434.111,370.198c-6.852-1.676-13.094-5.796-17.744-11.857c-1.484-1.933-3.781-3.067-6.217-3.067    c-2.437,0-4.734,1.134-6.217,3.067c-6.193,8.072-15.206,12.701-24.73,12.701c-9.522,0-18.535-4.63-24.729-12.701    c-1.483-1.933-3.78-3.067-6.216-3.067c-0.001,0-0.001,0-0.001,0c-1.581,0-3.1,0.484-4.379,1.347v-5.445h30.195    c4.329,0,7.837-3.508,7.837-7.837c0-3.724-2.6-6.836-6.083-7.633v-34.766h26.332v34.884c-3.248,0.957-5.621,3.956-5.621,7.514    c0,4.329,3.508,7.837,7.837,7.837h29.736V370.198z M353.884,335.504v-34.561h6.269v34.561H353.884z M417.833,335.504v-34.561    h6.269v34.561H417.833z M496.327,285.269H16.848V279h479.479V285.269z"/>
	</g>
</g>
<g>
</g>
<g>
</g>
<g>
</g>
<g>
</g>
<g>
</g>
<g>
</g>
<g>
</g>
<g>
</g>
<g>
</g>
<g>
</g>
<g>
</g>
<g>
</g>
<g>
</g>
<g>
</g>
<g>
</g>
</svg>
