<?xml version="1.0" encoding="iso-8859-1"?>
<!-- Generator: Adobe Illustrator 19.0.0, SVG Export Plug-In . SVG Version: 6.00 Build 0)  -->
<svg xmlns="http://www.w3.org/2000/svg" xmlns:xlink="http://www.w3.org/1999/xlink" version="1.1" id="Layer_1" x="0px" y="0px" viewBox="0 0 512 512" style="enable-background:new 0 0 512 512;" xml:space="preserve">
<g>
	<g>
		<path d="M145.447,352.872h-4.949c-1.724,0-3.135,1.411-3.135,3.135v11.56c0,1.724,1.411,3.135,3.135,3.135h4.949    c1.724,0,3.135-1.411,3.135-3.135v-11.56C148.581,354.283,147.171,352.872,145.447,352.872z"/>
	</g>
</g>
<g>
	<g>
		<path d="M161.254,352.872h-4.949c-1.724,0-3.135,1.411-3.135,3.135v11.56c0,1.724,1.411,3.135,3.135,3.135h4.949    c1.724,0,3.135-1.411,3.135-3.135v-11.56C164.389,354.283,162.978,352.872,161.254,352.872z"/>
	</g>
</g>
<g>
	<g>
		<path d="M177.06,352.872h-4.948c-1.724,0-3.135,1.411-3.135,3.135v11.56c0,1.724,1.411,3.135,3.135,3.135h4.948    c1.724,0,3.135-1.411,3.135-3.135v-11.56C180.195,354.283,178.784,352.872,177.06,352.872z"/>
	</g>
</g>
<g>
	<g>
		<path d="M145.447,375.945h-4.949c-1.724,0-3.135,1.411-3.135,3.135v11.56c0,1.724,1.411,3.135,3.135,3.135h4.949    c1.724,0,3.135-1.411,3.135-3.135v-11.56C148.581,377.355,147.171,375.945,145.447,375.945z"/>
	</g>
</g>
<g>
	<g>
		<path d="M161.254,375.945h-4.949c-1.724,0-3.135,1.411-3.135,3.135v11.56c0,1.724,1.411,3.135,3.135,3.135h4.949    c1.724,0,3.135-1.411,3.135-3.135v-11.56C164.389,377.355,162.978,375.945,161.254,375.945z"/>
	</g>
</g>
<g>
	<g>
		<path d="M177.06,375.945h-4.948c-1.724,0-3.135,1.411-3.135,3.135v11.56c0,1.724,1.411,3.135,3.135,3.135h4.948    c1.724,0,3.135-1.411,3.135-3.135v-11.56C180.195,377.355,178.784,375.945,177.06,375.945z"/>
	</g>
</g>
<g>
	<g>
		<path d="M145.447,399.016h-4.949c-1.724,0-3.135,1.411-3.135,3.135v11.56c0,1.724,1.411,3.135,3.135,3.135h4.949    c1.724,0,3.135-1.411,3.135-3.135v-11.56C148.581,400.427,147.171,399.016,145.447,399.016z"/>
	</g>
</g>
<g>
	<g>
		<path d="M161.254,399.016h-4.949c-1.724,0-3.135,1.411-3.135,3.135v11.56c0,1.724,1.411,3.135,3.135,3.135h4.949    c1.724,0,3.135-1.411,3.135-3.135v-11.56C164.389,400.427,162.978,399.016,161.254,399.016z"/>
	</g>
</g>
<g>
	<g>
		<path d="M177.06,399.016h-4.948c-1.724,0-3.135,1.411-3.135,3.135v11.56c0,1.724,1.411,3.135,3.135,3.135h4.948    c1.724,0,3.135-1.411,3.135-3.135v-11.56C180.195,400.427,178.784,399.016,177.06,399.016z"/>
	</g>
</g>
<g>
	<g>
		<path d="M136.942,446.735h-4.949c-1.724,0-3.135,1.411-3.135,3.135v11.56c0,1.724,1.411,3.135,3.135,3.135h4.949    c1.724,0,3.135-1.411,3.135-3.135v-11.56C140.077,448.145,138.666,446.735,136.942,446.735z"/>
	</g>
</g>
<g>
	<g>
		<path d="M152.751,446.735h-4.949c-1.724,0-3.135,1.411-3.135,3.135v11.56c0,1.724,1.411,3.135,3.135,3.135h4.949    c1.724,0,3.135-1.411,3.135-3.135v-11.56C155.885,448.145,154.475,446.735,152.751,446.735z"/>
	</g>
</g>
<g>
	<g>
		<path d="M168.557,446.735h-4.948c-1.724,0-3.135,1.411-3.135,3.135v11.56c0,1.724,1.411,3.135,3.135,3.135h4.948    c1.724,0,3.135-1.411,3.135-3.135v-11.56C171.691,448.145,170.281,446.735,168.557,446.735z"/>
	</g>
</g>
<g>
	<g>
		<path d="M136.942,469.807h-4.949c-1.724,0-3.135,1.411-3.135,3.135v11.56c0,1.724,1.411,3.135,3.135,3.135h4.949    c1.724,0,3.135-1.411,3.135-3.135v-11.56C140.077,471.218,138.666,469.807,136.942,469.807z"/>
	</g>
</g>
<g>
	<g>
		<path d="M152.751,469.807h-4.949c-1.724,0-3.135,1.411-3.135,3.135v11.56c0,1.724,1.411,3.135,3.135,3.135h4.949    c1.724,0,3.135-1.411,3.135-3.135v-11.56C155.885,471.218,154.475,469.807,152.751,469.807z"/>
	</g>
</g>
<g>
	<g>
		<path d="M168.557,469.807h-4.948c-1.724,0-3.135,1.411-3.135,3.135v11.56c0,1.724,1.411,3.135,3.135,3.135h4.948    c1.724,0,3.135-1.411,3.135-3.135v-11.56C171.691,471.218,170.281,469.807,168.557,469.807z"/>
	</g>
</g>
<g>
	<g>
		<path d="M185.563,446.735h-4.949c-1.724,0-3.135,1.411-3.135,3.135v11.56c0,1.724,1.412,3.135,3.135,3.135h4.949    c1.724,0,3.135-1.411,3.135-3.135v-11.56C188.698,448.145,187.288,446.735,185.563,446.735z"/>
	</g>
</g>
<g>
	<g>
		<path d="M185.563,469.807h-4.949c-1.724,0-3.135,1.411-3.135,3.135v11.56c0,1.724,1.412,3.135,3.135,3.135h4.949    c1.724,0,3.135-1.411,3.135-3.135v-11.56C188.698,471.218,187.288,469.807,185.563,469.807z"/>
	</g>
</g>
<g>
	<g>
		<path d="M339.891,352.872h-4.947c-1.724,0-3.135,1.411-3.135,3.135v11.56c0,1.724,1.41,3.134,3.135,3.134h4.947    c1.724,0,3.135-1.411,3.135-3.135v-11.559C343.025,354.283,341.615,352.872,339.891,352.872z"/>
	</g>
</g>
<g>
	<g>
		<path d="M355.699,352.872h-4.949c-1.724,0-3.135,1.411-3.135,3.135v11.56c0,1.724,1.41,3.134,3.135,3.134h4.949    c1.724,0,3.135-1.411,3.135-3.135v-11.559C358.834,354.283,357.423,352.872,355.699,352.872z"/>
	</g>
</g>
<g>
	<g>
		<path d="M371.506,352.872h-4.95c-1.724,0-3.135,1.411-3.135,3.135v11.56c0,1.724,1.41,3.134,3.135,3.134h4.95    c1.724,0,3.135-1.411,3.135-3.135v-11.559C374.641,354.283,373.23,352.872,371.506,352.872z"/>
	</g>
</g>
<g>
	<g>
		<path d="M339.891,375.944h-4.947c-1.724,0-3.135,1.411-3.135,3.135v11.56c0,1.725,1.41,3.135,3.135,3.135h4.947    c1.724,0,3.135-1.411,3.135-3.135v-11.56C343.025,377.354,341.615,375.944,339.891,375.944z"/>
	</g>
</g>
<g>
	<g>
		<path d="M355.699,375.944h-4.949c-1.724,0-3.135,1.411-3.135,3.135v11.56c0,1.725,1.41,3.135,3.135,3.135h4.949    c1.724,0,3.135-1.411,3.135-3.135v-11.56C358.834,377.354,357.423,375.944,355.699,375.944z"/>
	</g>
</g>
<g>
	<g>
		<path d="M371.506,375.944h-4.95c-1.724,0-3.135,1.411-3.135,3.135v11.56c0,1.725,1.41,3.135,3.135,3.135h4.95    c1.724,0,3.135-1.411,3.135-3.135v-11.56C374.641,377.354,373.23,375.944,371.506,375.944z"/>
	</g>
</g>
<g>
	<g>
		<path d="M339.891,399.016h-4.947c-1.724,0-3.135,1.411-3.135,3.135v11.56c0,1.724,1.41,3.135,3.135,3.135h4.947    c1.724,0,3.135-1.411,3.135-3.135v-11.56C343.025,400.427,341.615,399.016,339.891,399.016z"/>
	</g>
</g>
<g>
	<g>
		<path d="M355.699,399.016h-4.949c-1.724,0-3.135,1.411-3.135,3.135v11.56c0,1.724,1.41,3.135,3.135,3.135h4.949    c1.724,0,3.135-1.411,3.135-3.135v-11.56C358.834,400.427,357.423,399.016,355.699,399.016z"/>
	</g>
</g>
<g>
	<g>
		<path d="M371.506,399.016h-4.95c-1.724,0-3.135,1.411-3.135,3.135v11.56c0,1.724,1.41,3.135,3.135,3.135h4.95    c1.724,0,3.135-1.411,3.135-3.135v-11.56C374.641,400.427,373.23,399.016,371.506,399.016z"/>
	</g>
</g>
<g>
	<g>
		<path d="M331.387,446.735h-4.948c-1.724,0-3.135,1.411-3.135,3.135v11.56c0,1.724,1.411,3.135,3.135,3.135h4.948    c1.724,0,3.135-1.411,3.135-3.135v-11.56C334.522,448.145,333.111,446.735,331.387,446.735z"/>
	</g>
</g>
<g>
	<g>
		<path d="M347.197,446.735h-4.95c-1.724,0-3.135,1.411-3.135,3.135v11.56c0,1.724,1.411,3.135,3.135,3.135h4.95    c1.724,0,3.135-1.411,3.135-3.135v-11.56C350.331,448.145,348.921,446.735,347.197,446.735z"/>
	</g>
</g>
<g>
	<g>
		<path d="M363.003,446.735h-4.948c-1.724,0-3.135,1.411-3.135,3.135v11.56c0,1.724,1.411,3.135,3.135,3.135h4.948    c1.724,0,3.135-1.411,3.135-3.135v-11.56C366.137,448.145,364.727,446.735,363.003,446.735z"/>
	</g>
</g>
<g>
	<g>
		<path d="M331.387,469.807h-4.948c-1.724,0-3.135,1.411-3.135,3.135v11.56c0,1.724,1.411,3.135,3.135,3.135h4.948    c1.724,0,3.135-1.411,3.135-3.135v-11.56C334.522,471.218,333.111,469.807,331.387,469.807z"/>
	</g>
</g>
<g>
	<g>
		<path d="M347.197,469.807h-4.95c-1.724,0-3.135,1.411-3.135,3.135v11.56c0,1.724,1.411,3.135,3.135,3.135h4.95    c1.724,0,3.135-1.411,3.135-3.135v-11.56C350.331,471.218,348.921,469.807,347.197,469.807z"/>
	</g>
</g>
<g>
	<g>
		<path d="M363.003,469.807h-4.948c-1.724,0-3.135,1.411-3.135,3.135v11.56c0,1.724,1.411,3.135,3.135,3.135h4.948    c1.724,0,3.135-1.411,3.135-3.135v-11.56C366.137,471.218,364.727,469.807,363.003,469.807z"/>
	</g>
</g>
<g>
	<g>
		<path d="M380.01,446.735h-4.949c-1.724,0-3.135,1.411-3.135,3.135v11.56c0,1.724,1.411,3.135,3.135,3.135h4.949    c1.724,0,3.135-1.411,3.135-3.135v-11.56C383.144,448.145,381.734,446.735,380.01,446.735z"/>
	</g>
</g>
<g>
	<g>
		<path d="M380.01,469.807h-4.949c-1.724,0-3.135,1.411-3.135,3.135v11.56c0,1.724,1.411,3.135,3.135,3.135h4.949    c1.724,0,3.135-1.411,3.135-3.135v-11.56C383.144,471.218,381.734,469.807,380.01,469.807z"/>
	</g>
</g>
<g>
	<g>
		<path d="M230.534,289.452c-4.328,0-7.837,3.508-7.837,7.837v184.579c0,4.329,3.509,7.837,7.837,7.837    c4.328,0,7.837-3.508,7.837-7.837V297.289C238.37,292.961,234.862,289.452,230.534,289.452z"/>
	</g>
</g>
<g>
	<g>
		<path d="M256.002,289.452c-4.328,0-7.837,3.508-7.837,7.837v184.579c0,4.329,3.509,7.837,7.837,7.837    c4.329,0,7.837-3.508,7.837-7.837V297.289C263.839,292.961,260.331,289.452,256.002,289.452z"/>
	</g>
</g>
<g>
	<g>
		<path d="M281.469,289.452c-4.329,0-7.837,3.508-7.837,7.837v184.579c0,4.329,3.508,7.837,7.837,7.837s7.837-3.508,7.837-7.837    V297.289C289.306,292.961,285.798,289.452,281.469,289.452z"/>
	</g>
</g>
<g>
	<g>
		<path d="M398.967,421.215V342.5c0-7.202-5.859-13.061-13.061-13.061H369.33v-4.475c0-4.329-3.508-7.837-7.837-7.837    s-7.837,3.508-7.837,7.837v4.475h-8.591v-32.15c0-4.328-3.508-7.837-7.837-7.837c-4.328,0-7.837,3.509-7.837,7.837v32.15h-6.237    v-32.15c0-4.328-3.508-7.837-7.837-7.837c-4.329,0-7.837,3.509-7.837,7.837v123.927c-6.724,0.526-12.037,6.153-12.037,13.009    v22.396c0,4.329,3.508,7.837,7.837,7.837c4.329,0,7.837-3.508,7.837-7.837v-19.784h84.214v59.49h-84.214v-9.404    c0-4.329-3.508-7.837-7.837-7.837c-4.329,0-7.837,3.508-7.837,7.837v9.404h-78.886v-62.102c0-6.856-5.313-12.483-12.037-13.009    V405.42c0-4.329-3.509-7.837-7.837-7.837c-4.328,0-7.837,3.508-7.837,7.837v15.742h-60.14v-76.051h60.14v32.096    c0,4.329,3.509,7.837,7.837,7.837c4.328,0,7.837-3.508,7.837-7.837v-79.919c0-4.328-3.509-7.837-7.837-7.837    c-4.328,0-7.837,3.509-7.837,7.837v32.15h-6.237v-32.15c0-4.328-3.509-7.837-7.837-7.837c-4.328,0-7.837,3.509-7.837,7.837v32.15    h-8.59v-44.694h195.307v10.961c0,4.329,3.508,7.837,7.837,7.837s7.837-3.508,7.837-7.837v-13.574    c0-7.202-5.859-13.061-13.061-13.061h-7.071v-16.134c0-7.203-5.859-13.061-13.061-13.061h-6.348v-13.75    c0-7.203-5.859-13.061-13.061-13.061h-9.191v-13.551c0-3.944-1.959-8.381-4.875-11.038l-7.501-6.835    c-0.009-0.019-0.018-0.038-0.025-0.057v-19.242c0-3.514-1.472-7.723-3.663-10.471l-4.645-5.827    c-0.124-0.229-0.282-0.679-0.328-0.936V122.36c0-5.455-4.005-9.979-9.225-10.819l-12.31-43.607    c-0.306-1.086-0.693-2.004-1.124-2.81V7.837C263.837,3.508,260.329,0,256,0c-4.328,0-7.837,3.508-7.837,7.837v57.288    c-0.432,0.805-0.818,1.723-1.124,2.809l-12.31,43.607c-5.221,0.84-9.227,5.365-9.227,10.819v22.746    c-0.045,0.257-0.203,0.707-0.328,0.936l-4.647,5.827c-2.191,2.748-3.662,6.956-3.662,10.471v19.242    c-0.008,0.02-0.017,0.039-0.025,0.059l-7.498,6.834c-2.916,2.657-4.875,7.093-4.875,11.038v13.551h-9.191    c-7.203,0-13.061,5.859-13.061,13.061v13.75h-6.347c-7.203,0-13.061,5.859-13.061,13.061v16.134h-7.071    c-7.202,0-13.061,5.859-13.061,13.061v47.307h-16.578c-7.203,0-13.061,5.859-13.061,13.061v78.715    c-6.724,0.526-12.037,6.153-12.037,13.009v64.716c0,7.202,5.859,13.061,13.061,13.061h283.884c7.202,0,13.061-5.859,13.061-13.061    v-64.715C411.005,427.368,405.692,421.741,398.967,421.215z M383.294,421.163h-60.139v-76.051h60.139V421.163z M256.002,93.881    l4.861,17.219h-9.722L256.002,93.881z M220.141,199.873c0.008-0.02,0.017-0.039,0.025-0.058l7.498-6.834    c2.916-2.657,4.875-7.093,4.875-11.038v-19.471c0.046-0.257,0.203-0.707,0.328-0.936l4.647-5.827    c2.191-2.748,3.662-6.956,3.662-10.47v-18.177h6.988v35.942c0,4.329,3.509,7.837,7.837,7.837c4.329,0,7.837-3.508,7.837-7.837    v-35.942h6.986v18.177c0,3.514,1.472,7.723,3.663,10.47l4.645,5.827c0.124,0.229,0.282,0.679,0.327,0.936v19.471    c0,3.944,1.959,8.381,4.875,11.038l7.501,6.835c0.009,0.019,0.018,0.038,0.025,0.057v13.19h-28.023v-19.917    c0-4.329-3.508-7.837-7.837-7.837c-4.328,0-7.837,3.508-7.837,7.837v19.917h-28.024V199.873z M197.888,228.736h0.001h116.226    v11.138h-13.953v-0.206c0-4.329-3.508-7.837-7.837-7.837s-7.837,3.508-7.837,7.837v0.206h-8.543v-0.206    c0-4.329-3.508-7.837-7.837-7.837s-7.837,3.508-7.837,7.837v0.206h-8.543v-0.206c0-4.329-3.509-7.837-7.837-7.837    c-4.328,0-7.837,3.508-7.837,7.837v0.206h-8.543v-0.206c0-4.329-3.509-7.837-7.837-7.837c-4.328,0-7.837,3.508-7.837,7.837v0.206    h-13.951V228.736z M178.48,255.548L178.48,255.548h155.045v13.522h-9.145v-1.55c0-4.329-3.509-7.837-7.837-7.837    c-4.329,0-7.837,3.508-7.837,7.837v1.55h-8.543v-1.55c0-4.329-3.508-7.837-7.837-7.837c-4.329,0-7.837,3.508-7.837,7.837v1.55    h-8.543v-1.55c0-4.329-3.508-7.837-7.837-7.837c-4.329,0-7.837,3.508-7.837,7.837v1.55h-8.543v-1.55    c0-4.329-3.509-7.837-7.837-7.837c-4.328,0-7.837,3.508-7.837,7.837v1.55h-8.543v-1.55c0-4.329-3.509-7.837-7.837-7.837    c-4.328,0-7.837,3.508-7.837,7.837v1.55h-8.543v-1.55c0-4.329-3.509-7.837-7.837-7.837c-4.328,0-7.837,3.508-7.837,7.837v1.55    h-9.144V255.548z M200.886,496.327h-84.214v-59.49h84.214V496.327z"/>
	</g>
</g>
<g>
</g>
<g>
</g>
<g>
</g>
<g>
</g>
<g>
</g>
<g>
</g>
<g>
</g>
<g>
</g>
<g>
</g>
<g>
</g>
<g>
</g>
<g>
</g>
<g>
</g>
<g>
</g>
<g>
</g>
</svg>
