<?xml version="1.0" encoding="iso-8859-1"?>
<!-- Generator: Adobe Illustrator 19.0.0, SVG Export Plug-In . SVG Version: 6.00 Build 0)  -->
<svg xmlns="http://www.w3.org/2000/svg" xmlns:xlink="http://www.w3.org/1999/xlink" version="1.1" id="Layer_1" x="0px" y="0px" viewBox="0 0 512 512" style="enable-background:new 0 0 512 512;" xml:space="preserve">
<g>
	<g>
		<path d="M423.806,455.825c7.539-25.456,0.098-50.388-8.72-74.715c7.948-18.315,12.342-39.811,12.342-62.251    c0-15.654-2.097-30.856-6.233-45.188c-4.123-16.848-11.283-33.533-18.208-49.669c-10.982-25.59-21.499-50.133-20.138-74.195    c5.02-1.823,8.621-6.627,8.621-12.267v-26.703c1.716-2.21,2.748-4.977,2.748-7.985V92.335c0-7.203-5.859-13.061-13.061-13.061    h-15.553V10.971c0-6.05-4.923-10.971-10.971-10.971h-14.491c-6.049,0-10.971,4.922-10.971,10.971v68.302h-15.555    c-7.202,0-13.061,5.859-13.061,13.061v10.517c0,3.008,1.032,5.774,2.748,7.985v26.703c0,5.378,3.268,10.004,7.922,12.004    c1.72,24.71-8.922,49.876-20.033,76.126c-6.64,15.69-13.506,31.911-17.711,48.318c-4.073,14.236-6.139,29.331-6.139,44.87    c0,22.597,4.403,44.133,12.392,62.453c-8.853,24.269-16.296,49.137-8.792,74.53c-3.385,2.363-5.609,6.281-5.609,10.712v32.164    c0,7.202,5.859,13.061,13.061,13.061h137.983c7.203,0,13.061-5.859,13.061-13.061v-32.164    C429.438,462.112,427.205,458.186,423.806,455.825z M406.007,277.544c0.027,0.11,0.056,0.219,0.087,0.327    c1.268,4.374,2.306,8.849,3.149,13.397h-64.491c5.066-2.658,10.098-5.371,15.073-8.058c13.717-7.414,27.831-15.033,41.666-20.821    C403.243,267.47,404.787,272.532,406.007,277.544z M344.843,15.673h5.087v63.6h-5.087V15.673z M316.226,94.947h62.318v5.292    h-62.318V94.947z M327.003,150.601h11.188c4.328,0,7.837-3.508,7.837-7.837c0-4.329-3.509-7.837-7.837-7.837h-19.218v-19.014    h56.822v19.014h-5.87c-4.328,0-7.837,3.508-7.837,7.837c0,3.332,2.083,6.171,5.014,7.305    c-0.862,19.988,5.058,39.671,12.684,59.023h-64.863C322.291,189.908,327.902,170.402,327.003,150.601z M305.625,231.779    c0.987-2.332,1.977-4.671,2.959-7.013h67.705c-8.055,4.041-16.062,8.36-23.906,12.599c-19.718,10.656-39.988,21.597-59.719,27.22    C296.39,253.609,301.06,242.565,305.625,231.779z M287.572,281.958c24.534-5.036,48.774-18.11,72.261-30.804    c10.155-5.488,20.589-11.115,30.882-15.993c1.777,4.161,3.545,8.352,5.243,12.554c-14.703,6.106-29.351,14.014-43.584,21.706    c-14.555,7.865-29.588,15.97-44.193,21.847h-22.656C286.107,288.125,286.787,285.02,287.572,281.958z M413.766,496.106h-0.002    H281.006v-26.94h75.336c4.328,0,7.837-3.508,7.837-7.837c0-4.329-3.509-7.837-7.837-7.837H286.68    c-5.79-17.464-2.653-35.225,3.192-53.529c4.195,6.265,8.91,11.897,14.105,16.742c1.511,1.41,3.429,2.107,5.345,2.107    c2.097,0,4.189-0.837,5.732-2.491c2.952-3.165,2.781-8.124-0.385-11.077c-19.525-18.214-31.654-51.315-31.654-86.387    c0-4.012,0.168-7.985,0.469-11.917h127.803c0.302,3.933,0.469,7.905,0.469,11.917c0,34.797-11.431,66.708-30.579,85.362    c-3.1,3.021-3.165,7.982-0.144,11.081c3.022,3.1,7.983,3.164,11.082,0.145c4.696-4.576,8.985-9.814,12.837-15.589    c5.816,18.34,8.931,36.134,3.112,53.634h-18.283c-4.328,0-7.837,3.508-7.837,7.837c0,4.329,3.509,7.837,7.837,7.837h23.986    V496.106z"/>
	</g>
</g>
<g>
	<g>
		<path d="M221.827,462.703c-7.043-30.655,2.893-62.554,12.554-93.502c12.755-40.848,24.801-79.43,6.65-120.404    c-2.172-4.907-7.054-8.077-12.437-8.077H104.238c-5.382,0-10.264,3.17-12.435,8.076c-18.154,40.978-6.106,79.56,6.649,120.407    c9.661,30.945,19.595,62.842,12.553,93.499c-7.143,0.07-12.933,5.897-12.933,13.055v23.182c0,7.202,5.859,13.061,13.061,13.061    H221.7c7.203,0,13.061-5.859,13.061-13.061v-23.181C234.761,468.598,228.97,462.773,221.827,462.703z M99.682,310.857h72.758    c4.328,0,7.837-3.508,7.837-7.837c0-4.329-3.509-7.837-7.837-7.837H98.39c-0.25-13.025,1.73-25.927,7.201-38.79h121.651    c5.47,12.864,7.45,25.764,7.2,38.79h-29.61c-4.328,0-7.837,3.508-7.837,7.837c0,4.329,3.509,7.837,7.837,7.837h28.32    c-1.026,7.314-2.594,14.68-4.485,22.107H104.164C102.274,325.537,100.706,318.171,99.682,310.857z M205.775,462.695h-17.662    c-4.328,0-7.837,3.508-7.837,7.837c0,4.328,3.509,7.837,7.837,7.837h30.975v17.958H113.746V478.37h43.021    c4.328,0,7.837-3.509,7.837-7.837c0-4.329-3.509-7.837-7.837-7.837h-29.708c6.559-33.378-3.679-66.247-13.644-98.164    c-1.667-5.337-3.318-10.634-4.884-15.894h115.775c-1.566,5.258-3.217,10.553-4.884,15.891    C209.454,396.451,199.214,429.318,205.775,462.695z"/>
	</g>
</g>
<g>
	<g>
		<path d="M153.632,373.551h-1.045c-4.328,0-7.837,3.508-7.837,7.837s3.509,7.837,7.837,7.837h1.045    c4.328,0,7.837-3.508,7.837-7.837S157.96,373.551,153.632,373.551z"/>
	</g>
</g>
<g>
	<g>
		<path d="M179.754,396.539h-1.045c-4.328,0-7.837,3.508-7.837,7.837c0,4.329,3.509,7.837,7.837,7.837h1.045    c4.328,0,7.837-3.508,7.837-7.837C187.591,400.047,184.082,396.539,179.754,396.539z"/>
	</g>
</g>
<g>
	<g>
		<path d="M160.946,426.841h-1.045c-4.328,0-7.837,3.508-7.837,7.837s3.509,7.837,7.837,7.837h1.045    c4.328,0,7.837-3.508,7.837-7.837S165.274,426.841,160.946,426.841z"/>
	</g>
</g>
<g>
	<g>
		<path d="M353.207,324.441h-1.045c-4.328,0-7.837,3.508-7.837,7.837c0,4.329,3.509,7.837,7.837,7.837h1.045    c4.328,0,7.837-3.508,7.837-7.837C361.044,327.949,357.535,324.441,353.207,324.441z"/>
	</g>
</g>
<g>
	<g>
		<path d="M363.656,368.327h-1.045c-4.328,0-7.837,3.508-7.837,7.837s3.509,7.837,7.837,7.837h1.045    c4.328,0,7.837-3.508,7.837-7.837S367.984,368.327,363.656,368.327z"/>
	</g>
</g>
<g>
	<g>
		<path d="M378.285,342.204h-1.045c-4.328,0-7.837,3.508-7.837,7.837c0,4.329,3.509,7.837,7.837,7.837h1.045    c4.328,0,7.837-3.508,7.837-7.837C386.122,345.712,382.613,342.204,378.285,342.204z"/>
	</g>
</g>
<g>
	<g>
		<path d="M319.771,348.473h-1.045c-4.328,0-7.837,3.508-7.837,7.837c0,4.329,3.509,7.837,7.837,7.837h1.045    c4.328,0,7.837-3.508,7.837-7.837C327.607,351.981,324.099,348.473,319.771,348.473z"/>
	</g>
</g>
<g>
</g>
<g>
</g>
<g>
</g>
<g>
</g>
<g>
</g>
<g>
</g>
<g>
</g>
<g>
</g>
<g>
</g>
<g>
</g>
<g>
</g>
<g>
</g>
<g>
</g>
<g>
</g>
<g>
</g>
</svg>
