<?xml version="1.0" encoding="iso-8859-1"?>
<!-- Generator: Adobe Illustrator 19.0.0, SVG Export Plug-In . SVG Version: 6.00 Build 0)  -->
<svg xmlns="http://www.w3.org/2000/svg" xmlns:xlink="http://www.w3.org/1999/xlink" version="1.1" id="Layer_1" x="0px" y="0px" viewBox="0 0 512 512" style="enable-background:new 0 0 512 512;" xml:space="preserve">
<g>
	<g>
		<path d="M494.656,386.063h-0.5c-0.161-4.151-0.643-8.219-1.447-12.173C504.418,364.99,512,350.887,512,335.035    c0-26.854-21.745-48.701-48.476-48.701h-30.216c-6.553-13.309-20.208-22.487-35.963-22.487c-1.578,0-3.126,0.116-4.657,0.295    v-22.437c0-4.329-3.509-7.837-7.837-7.837c-4.328,0-7.837,3.508-7.837,7.837v27.743c-6.701,3.982-12.168,9.847-15.633,16.887    h-8.841c-6.553-13.309-20.208-22.487-35.963-22.487c-15.755,0-29.411,9.178-35.963,22.487h-1.984V112.348h44.244    c4.328,0,7.837-3.508,7.837-7.837c0-4.329-3.509-7.837-7.837-7.837h-32.08V85.647h74.057v11.029h-10.63    c-4.328,0-7.837,3.508-7.837,7.837c0,4.329,3.509,7.837,7.837,7.837h22.793v99.053c0,4.329,3.509,7.837,7.837,7.837    c4.328,0,7.837-3.508,7.837-7.837V110.009c0-6.96-5.359-12.683-12.164-13.273V83.307c0-7.352-5.977-13.333-13.323-13.333h-20.994    V48.107c0-7.352-5.977-13.333-13.322-13.333H322.76c-7.346,0-13.322,5.981-13.322,13.333v21.867h-20.995    c-7.347,0-13.324,5.981-13.324,13.333v13.429c-6.804,0.59-12.164,6.313-12.164,13.273v164.535    c-3.981-3.691-8.702-6.585-13.911-8.428v-67.251c0-4.329-3.509-7.837-7.837-7.837c-4.328,0-7.837,3.508-7.837,7.837v65.071    c-14.716,0.892-27.315,9.781-33.527,22.398h-8.841c-6.553-13.309-20.208-22.487-35.964-22.487c-7.307,0-14.149,1.994-20.054,5.438    V112.348h54.14c4.328,0,7.837-3.508,7.837-7.837c0-4.329-3.509-7.837-7.837-7.837h-41.978V85.647h74.058v11.044    c-4.183,0.165-7.525,3.598-7.525,7.821c0,4.329,3.509,7.837,7.837,7.837h11.851v55.167c0,4.329,3.509,7.837,7.837,7.837    c4.328,0,7.837-3.508,7.837-7.837v-57.508c0-6.96-5.358-12.683-12.163-13.273V83.307c0-7.352-5.977-13.333-13.323-13.333h-20.995    V48.107c0-7.352-5.977-13.333-13.322-13.333h-10.124c-7.347,0-13.323,5.981-13.323,13.333v21.867h-20.996    c-7.347,0-13.323,5.981-13.323,13.333v13.429c-6.804,0.59-12.163,6.313-12.163,13.273v175.885    c-0.075,0.149-0.162,0.291-0.236,0.441h-15.604c-2.707-1.385-5.763-2.184-9.005-2.184s-6.297,0.798-9.005,2.184H48.474    C21.745,286.333,0,308.18,0,335.035C0,355,12.022,372.189,29.173,379.697c-0.257,2.099-0.446,4.217-0.528,6.366H17.344    c-3.835,0-7.282,1.673-9.456,4.589c-2.177,2.918-2.796,6.704-1.7,10.385l19.548,65.684c1.783,5.988,7.834,10.504,14.076,10.504    H472.19c6.243,0,12.294-4.515,14.076-10.503l19.548-65.685c1.096-3.681,0.477-7.468-1.7-10.385    C501.939,387.734,498.492,386.063,494.656,386.063z M325.111,50.448h5.422v19.015h-5.422V50.448z M181.467,50.448h5.422v19.015    h-5.422V50.448z M463.524,302.007c18.087,0,32.802,14.817,32.802,33.027c0,18.212-14.714,33.026-32.802,33.026h-4.373    c-3.915-13.628-11.537-25.69-21.708-34.994v-28.943c0-0.711-0.02-1.416-0.056-2.117H463.524z M478.479,386.063h-16.433    c-0.029-0.781-0.095-1.553-0.148-2.328h1.627c5.073,0,9.964-0.791,14.564-2.249C478.277,382.994,478.403,384.521,478.479,386.063z     M372.917,304.125h0.001c0-13.567,10.958-24.605,24.426-24.605c13.469,0,24.426,11.037,24.426,24.605v17.881    c-2.727-1.441-5.558-2.705-8.468-3.807v-14.076c0-8.824-7.159-16.004-15.958-16.004s-15.959,7.179-15.959,16.004v9.243h-8.468    V304.125z M316.576,279.52c13.469,0,24.426,11.037,24.426,24.605v9.243h-8.468v-9.243c0-8.824-7.159-16.004-15.957-16.004    c-8.799,0-15.958,7.18-15.958,16.004v9.243h-8.468v-9.243h-0.001C292.15,290.558,303.108,279.52,316.576,279.52z M211.381,304.125    h0.001c0-13.567,10.958-24.605,24.425-24.605c13.469,0,24.427,11.037,24.427,24.605v9.243h-8.469v-9.243    c0-8.824-7.159-16.004-15.958-16.004c-8.799,0-15.958,7.18-15.958,16.004v9.243h-8.469V304.125z M130.614,304.125    c0-13.567,10.958-24.605,24.426-24.605c13.469,0,24.427,11.037,24.427,24.605v9.243h-8.468v-9.243    c0-8.824-7.16-16.004-15.959-16.004s-15.958,7.18-15.958,16.004v9.243h-8.468V304.125z M90.23,304.125    c0-2.372,1.899-4.301,4.234-4.301c2.335,0,4.234,1.93,4.234,4.301v9.436c-2.869,0.195-5.695,0.55-8.468,1.061V304.125z     M15.673,335.035c0-18.211,14.714-33.027,32.8-33.027h26.198c-0.073,0.696-0.115,1.402-0.115,2.117v15.207    c-19.445,8.284-34.728,24.554-41.753,44.702C22.608,358.426,15.673,347.534,15.673,335.035z M471.451,461.552H40.548l-2.768-9.301    h436.438L471.451,461.552z M478.883,436.577H33.116l-2.799-9.404h451.365L478.883,436.577z M486.346,411.5H25.653l-2.906-9.765    h326.248c4.328,0,7.837-3.508,7.837-7.837s-3.509-7.837-7.837-7.837H44.318c1.517-31.701,27.618-57.021,59.489-57.021h283.076    c31.87,0,57.971,25.32,59.489,57.021h-61.851c-4.328,0-7.837,3.508-7.837,7.837c0,4.329,3.509,7.837,7.837,7.837h104.729    L486.346,411.5z"/>
	</g>
</g>
<g>
</g>
<g>
</g>
<g>
</g>
<g>
</g>
<g>
</g>
<g>
</g>
<g>
</g>
<g>
</g>
<g>
</g>
<g>
</g>
<g>
</g>
<g>
</g>
<g>
</g>
<g>
</g>
<g>
</g>
</svg>
