<?xml version="1.0" encoding="iso-8859-1"?>
<!-- Generator: Adobe Illustrator 19.0.0, SVG Export Plug-In . SVG Version: 6.00 Build 0)  -->
<svg xmlns="http://www.w3.org/2000/svg" xmlns:xlink="http://www.w3.org/1999/xlink" version="1.1" id="Layer_1" x="0px" y="0px" viewBox="0 0 512 512" style="enable-background:new 0 0 512 512;" xml:space="preserve">
<g>
	<g>
		<path d="M148.068,180.05c-1.042-15.048-13.584-26.972-28.851-26.972c-5.742,0-11.283,1.713-15.973,4.838    c-4.692-3.125-10.233-4.838-15.972-4.838c-15.369,0-27.976,12.08-28.871,27.269c-10.9,1.887-19.218,11.433-19.218,22.888    c0,12.807,10.394,23.226,23.17,23.226h84.335c12.777,0,23.172-10.42,23.172-23.226C169.86,190.892,160.205,180.767,148.068,180.05    z M146.687,210.787H62.353c-4.134,0-7.496-3.389-7.496-7.552s3.362-7.553,7.496-7.553h4.648c2.454,0,4.768-1.149,6.248-3.107    c1.481-1.957,1.96-4.495,1.293-6.858c-0.345-1.225-0.52-2.45-0.52-3.643c0-7.347,5.943-13.323,13.248-13.323    c3.841,0,7.495,1.692,10.025,4.639c1.489,1.736,3.662,2.733,5.949,2.733c2.286,0,4.459-0.999,5.947-2.735    c2.529-2.948,6.183-4.638,10.026-4.638c7.304,0,13.247,5.977,13.247,13.323c0,1.194-0.174,2.42-0.519,3.643    c-0.668,2.362-0.188,4.901,1.293,6.858c1.482,1.957,3.795,3.107,6.248,3.107h7.203c4.135,0,7.498,3.389,7.498,7.553    S150.822,210.787,146.687,210.787z"/>
	</g>
</g>
<g>
	<g>
		<path d="M162.814,73.198c-1.458-12.561-12.134-22.341-25.048-22.341c-4.699,0-9.244,1.315-13.168,3.73    c-3.924-2.415-8.468-3.73-13.168-3.73c-13.04,0-23.801,9.972-25.089,22.711c-9.11,2.078-15.929,10.262-15.929,20.013    c0.002,11.317,9.188,20.525,20.479,20.525h69.523c11.292,0,20.479-9.208,20.479-20.525    C180.893,83.078,172.98,74.393,162.814,73.198z M160.414,98.433H90.89c-2.649,0-4.804-2.177-4.804-4.851    c0.001-2.675,2.156-4.85,4.804-4.85h3.832c2.457,0,4.77-1.151,6.252-3.111c1.482-1.958,1.958-4.499,1.288-6.862    c-0.249-0.88-0.375-1.762-0.375-2.621c0-5.297,4.282-9.607,9.545-9.607c2.765,0,5.396,1.219,7.219,3.345    c1.489,1.736,3.661,2.733,5.948,2.733s4.46-0.999,5.948-2.733c1.823-2.125,4.455-3.345,7.219-3.345    c5.262,0,9.544,4.31,9.544,9.607c0,0.862-0.126,1.745-0.374,2.626c-0.669,2.362-0.19,4.902,1.29,6.859    c1.482,1.958,3.795,3.109,6.25,3.109h5.938c2.65,0,4.805,2.175,4.805,4.85S163.064,98.433,160.414,98.433z"/>
	</g>
</g>
<g>
	<g>
		<path d="M265.886,36.799c-31.911,0-57.873,26.043-57.873,58.055c0,32.013,25.961,58.056,57.873,58.056    c14.039,0,27.58-5.106,38.128-14.379c3.251-2.858,3.57-7.81,0.713-11.06s-7.811-3.57-11.059-0.713    c-7.686,6.756-17.553,10.477-27.782,10.477c-23.269,0-42.199-19.012-42.199-42.381s18.93-42.381,42.199-42.381    c23.27,0,42.2,19.012,42.2,42.381c0,3.658-0.463,7.289-1.377,10.792c-1.093,4.188,1.415,8.469,5.603,9.562    c4.192,1.094,8.469-1.416,9.562-5.604c1.251-4.794,1.886-9.756,1.886-14.75C323.76,62.842,297.797,36.799,265.886,36.799z"/>
	</g>
</g>
<g>
	<g>
		<path d="M435.194,115.111c-1.444-12.647-12.188-22.505-25.184-22.505c-4.738,0-9.318,1.329-13.268,3.768    c-3.95-2.439-8.531-3.768-13.266-3.768c-13.123,0-23.949,10.048-25.225,22.872c-9.174,2.072-16.047,10.305-16.047,20.116    c0,11.369,9.23,20.619,20.574,20.619h70.051c11.343,0,20.573-9.25,20.573-20.619C453.402,125.026,445.429,116.29,435.194,115.111z     M432.829,140.54h-70.051c-2.702,0-4.901-2.219-4.901-4.945c0-2.727,2.197-4.945,4.901-4.945h3.861    c2.454,0,4.768-1.15,6.248-3.108c1.481-1.957,1.96-4.495,1.294-6.858c-0.254-0.899-0.382-1.796-0.382-2.666    c0-5.371,4.34-9.74,9.677-9.74c2.803,0,5.47,1.236,7.32,3.391c1.49,1.736,3.662,2.734,5.949,2.733c2.287,0,4.46-0.999,5.948-2.736    c1.847-2.154,4.514-3.389,7.318-3.389c5.334,0,9.676,4.369,9.676,9.739c0,0.869-0.129,1.768-0.382,2.671    c-0.665,2.361-0.185,4.898,1.297,6.855c1.482,1.956,3.793,3.105,6.247,3.105h5.982c2.702,0,4.899,2.218,4.899,4.945    C437.729,138.322,435.531,140.54,432.829,140.54z"/>
	</g>
</g>
<g>
	<g>
		<path d="M214.204,176.066h-15.673c-4.329,0-7.837,3.509-7.837,7.837c0,4.328,3.508,7.837,7.837,7.837h15.673    c4.329,0,7.837-3.509,7.837-7.837C222.041,179.575,218.533,176.066,214.204,176.066z"/>
	</g>
</g>
<g>
	<g>
		<path d="M301.976,176.066h-15.673c-4.329,0-7.837,3.509-7.837,7.837c0,4.328,3.508,7.837,7.837,7.837h15.673    c4.329,0,7.837-3.509,7.837-7.837C309.812,179.575,306.305,176.066,301.976,176.066z"/>
	</g>
</g>
<g>
	<g>
		<path d="M237.192,216.817h-10.449c-4.329,0-7.837,3.509-7.837,7.837c0,4.328,3.508,7.837,7.837,7.837h10.449    c4.329,0,7.837-3.509,7.837-7.837C245.029,220.326,241.521,216.817,237.192,216.817z"/>
	</g>
</g>
<g>
	<g>
		<path d="M286.302,216.817h-10.449c-4.329,0-7.837,3.509-7.837,7.837c0,4.328,3.508,7.837,7.837,7.837h10.449    c4.329,0,7.837-3.509,7.837-7.837C294.139,220.326,290.631,216.817,286.302,216.817z"/>
	</g>
</g>
<g>
	<g>
		<path d="M258.09,250.254h-8.359c-4.329,0-7.837,3.509-7.837,7.837c0,4.328,3.508,7.837,7.837,7.837h8.359    c4.329,0,7.837-3.509,7.837-7.837C265.927,253.763,262.419,250.254,258.09,250.254z"/>
	</g>
</g>
<g>
	<g>
		<path d="M289.437,284.736h-8.359c-4.329,0-7.837,3.509-7.837,7.837c0,4.328,3.508,7.837,7.837,7.837h8.359    c4.329,0,7.837-3.509,7.837-7.837C297.273,288.245,293.766,284.736,289.437,284.736z"/>
	</g>
</g>
<g>
	<g>
		<path d="M251.82,311.903h-8.359c-4.329,0-7.837,3.509-7.837,7.837c0,4.328,3.508,7.837,7.837,7.837h8.359    c4.329,0,7.837-3.509,7.837-7.837C259.657,315.412,256.149,311.903,251.82,311.903z"/>
	</g>
</g>
<g>
	<g>
		<path d="M498.939,437.508h-2.225v-8.735c0-7.202-5.859-13.061-13.061-13.061h-15.638l-19.95-101.661    c-0.833-4.246-4.948-7.011-9.199-6.181c-4.246,0.834-7.014,4.953-6.181,9.199l19.357,98.644h-15.247L424.503,354.1    c-1.302-6.513-7.29-11.424-13.932-11.424h-12.782v-35.371c0-5.218-3.082-9.718-7.516-11.808v-42.936h29.75l7.329,37.341    c0.834,4.246,4.952,7.015,9.199,6.181c4.246-0.833,7.014-4.952,6.181-9.199l-7.564-38.541c-1.281-6.531-7.265-11.454-13.92-11.454    h-6.941v-40.23c0-6.456-4.721-12.519-10.982-14.103l-48.583-12.283c-1.032-0.261-2.083-0.394-3.12-0.394    c-6.562,0-11.703,5.243-11.703,11.935v112.431h-3.488c-6.144,0-12.207,4.162-14.415,9.899l-42.924,111.568h-35.723l-20.029-56.152    c-2.093-5.867-8.132-10.125-14.361-10.125h-13.609l-7.505-30.516c-1.033-4.203-5.277-6.77-9.481-5.739    c-4.203,1.033-6.772,5.279-5.739,9.481l6.585,26.773h-15.181c-6.689,0-12.739,5.179-13.774,11.791l-8.502,54.486h-34.029    l2.313-31.711h11.151c4.329,0,7.837-3.509,7.837-7.837s-3.508-7.837-7.837-7.837H111.2l2.287-31.348h13.99    c4.329,0,7.837-3.509,7.837-7.837c0-4.328-3.508-7.837-7.837-7.837h-12.847l0.686-9.404h12.161c4.329,0,7.837-3.509,7.837-7.837    c0-4.328-3.508-7.837-7.837-7.837h-11.016l2.487-34.091h38.812l8.716,35.44c1.034,4.204,5.279,6.77,9.481,5.739    c4.203-1.033,6.772-5.279,5.739-9.481l-8.937-36.333c-1.547-6.292-7.602-11.037-14.082-11.037h-41.792    c-7.018,0-12.912,5.482-13.421,12.477l-6.602,90.493h-7.524v-34.892c0-7.203-5.859-13.061-13.061-13.061h-5.894    c-6.651,0-12.719,5.139-13.815,11.7L39.451,415.712H28.347c-7.202,0-13.061,5.859-13.061,13.061v8.735h-2.225    C5.859,437.508,0,443.367,0,450.569v11.57c0,7.201,5.859,13.061,13.061,13.061h374.596c4.329,0,7.837-3.509,7.837-7.837    c0-4.328-3.508-7.837-7.837-7.837H15.673v-6.346h480.653v6.346h-80.458c-4.329,0-7.837,3.509-7.837,7.837    c0,4.328,3.508,7.837,7.837,7.837h83.07c7.202,0,13.061-5.86,13.061-13.061v-11.57C512,443.367,506.141,437.508,498.939,437.508z     M409.37,358.349l11.443,57.363h-91.977l18.394-57.363H409.37z M355.593,186.653l43.04,10.882v39.352h-10.971    c-7.202,0-13.061,5.859-13.061,13.061v44.296h-19.008V186.653z M336.542,310.037c0.052-0.043,0.116-0.087,0.174-0.12h45.401    v32.759h-35.38c-6.239,0-12.38,4.48-14.282,10.419l-20.079,62.618h-16.491L336.542,310.037z M165.533,365.108h43.118    c0.014,0.008,0.025,0.019,0.039,0.027l18.04,50.575h-69.092L165.533,365.108z M89.339,365.108h6.381l-3.692,50.603h-2.69V365.108z     M71.796,317.155h1.869v98.557H55.343L71.796,317.155z M481.041,437.508H30.959v-6.123h450.081V437.508z"/>
	</g>
</g>
<g>
</g>
<g>
</g>
<g>
</g>
<g>
</g>
<g>
</g>
<g>
</g>
<g>
</g>
<g>
</g>
<g>
</g>
<g>
</g>
<g>
</g>
<g>
</g>
<g>
</g>
<g>
</g>
<g>
</g>
</svg>
