<?xml version="1.0" encoding="iso-8859-1"?>
<!-- Generator: Adobe Illustrator 19.0.0, SVG Export Plug-In . SVG Version: 6.00 Build 0)  -->
<svg xmlns="http://www.w3.org/2000/svg" xmlns:xlink="http://www.w3.org/1999/xlink" version="1.1" id="Layer_1" x="0px" y="0px" viewBox="0 0 512 512" style="enable-background:new 0 0 512 512;" xml:space="preserve">
<g>
	<g>
		<path d="M256,311.538c-4.329,0-7.837,3.509-7.837,7.837v44.173c0,4.328,3.508,7.837,7.837,7.837c4.329,0,7.837-3.509,7.837-7.837    v-44.173C263.837,315.047,260.33,311.538,256,311.538z"/>
	</g>
</g>
<g>
	<g>
		<path d="M211.95,311.537c-4.329,0-7.837,3.509-7.837,7.837v15.054c0,4.328,3.508,7.837,7.837,7.837    c4.329,0,7.837-3.509,7.837-7.837v-15.054C219.786,315.046,216.279,311.537,211.95,311.537z"/>
	</g>
</g>
<g>
	<g>
		<path d="M300.051,311.537c-4.329,0-7.837,3.509-7.837,7.837v15.054c0,4.328,3.508,7.837,7.837,7.837    c4.329,0,7.837-3.509,7.837-7.837v-15.054C307.888,315.046,304.38,311.537,300.051,311.537z"/>
	</g>
</g>
<g>
	<g>
		<path d="M276.209,397.741h-40.417c-4.328,0-7.837,3.509-7.837,7.837s3.508,7.837,7.837,7.837h40.417    c4.329,0,7.837-3.509,7.837-7.837S280.538,397.741,276.209,397.741z"/>
	</g>
</g>
<g>
	<g>
		<path d="M333.88,352.881h-19.861c-2.873,0-5.224,2.351-5.224,5.224v5.224c0,2.873,2.351,5.224,5.224,5.224h19.861    c2.873,0,5.224-2.351,5.224-5.224v-5.224C339.104,355.232,336.753,352.881,333.88,352.881z"/>
	</g>
</g>
<g>
	<g>
		<path d="M333.88,377.344h-19.861c-2.873,0-5.224,2.351-5.224,5.224v5.224c0,2.873,2.351,5.224,5.224,5.224h19.861    c2.873,0,5.224-2.351,5.224-5.224v-5.224C339.104,379.695,336.753,377.344,333.88,377.344z"/>
	</g>
</g>
<g>
	<g>
		<path d="M200.646,352.881H178.12c-2.873,0-5.224,2.351-5.224,5.224v5.224c0,2.873,2.351,5.224,5.224,5.224h22.526    c2.873,0,5.224-2.351,5.224-5.224v-5.224C205.87,355.232,203.519,352.881,200.646,352.881z"/>
	</g>
</g>
<g>
	<g>
		<path d="M200.646,377.344H178.12c-2.873,0-5.224,2.351-5.224,5.224v5.224c0,2.873,2.351,5.224,5.224,5.224h22.526    c2.873,0,5.224-2.351,5.224-5.224v-5.224C205.87,379.695,203.519,377.344,200.646,377.344z"/>
	</g>
</g>
<g>
	<g>
		<path d="M410.11,342.12c0-19.125-13.69-35.119-31.818-38.776v-14.482c0-0.234-0.013-0.466-0.014-0.7    c5.463-1.563,9.478-6.591,9.478-12.549v-25.88c0-7.202-5.859-13.061-13.061-13.061h-8.24    c-5.927-12.316-13.988-23.665-24.014-33.579c-5.927-5.86-12.358-11.038-19.195-15.507c8.217-10.425,16.007-21.83,23.146-34.019    c0.874-1.491,1.732-2.983,2.575-4.478c2.124-3.771,0.79-8.55-2.981-10.675c-3.771-2.123-8.551-0.79-10.675,2.981    c-0.799,1.417-1.613,2.833-2.443,4.249c-0.473,0.808-0.96,1.599-1.44,2.399l-2.368-14.613l7.519-12.837    c2.188-3.734,0.934-8.535-2.801-10.723c-3.733-2.187-8.536-0.934-10.724,2.801l-7.527,12.851l-13.938,5.146    c0.446-0.778,0.876-1.559,1.33-2.335c8.193-13.987,17.244-26.855,26.794-38.247l3.659,10.442c1.116,3.185,4.115,5.246,7.391,5.246    c0.461,0,0.93-0.042,1.397-0.125l10.913-1.97c-1.67,4.409-3.488,8.849-5.468,13.307c-1.758,3.955,0.025,8.586,3.981,10.343    c3.957,1.759,8.587-0.024,10.343-3.98c10.975-24.703,17.585-49.18,19.116-70.787c0.351-4.972-2.212-9.802-6.527-12.306    c-4.373-2.539-9.704-2.385-13.909,0.396c-25.755,16.999-51.046,45.326-71.216,79.76c-0.191,0.326-0.373,0.653-0.562,0.978    c0.096-3.122,0.161-6.258,0.161-9.42c0-39.867-7.518-77.027-21.169-104.631C265.593,2.811,261.06,0,256,0    c-4.987,0-9.632,2.883-11.828,7.336c-8.861,17.92-15.282,40.314-18.568,64.764c-0.576,4.289,2.434,8.234,6.723,8.811    c4.289,0.585,8.235-2.434,8.812-6.724c0.393-2.923,0.837-5.806,1.323-8.656l8.461,7.199c1.464,1.245,3.272,1.868,5.078,1.868    c1.807,0,3.614-0.623,5.078-1.868l8.46-7.197c2.481,14.618,3.787,30.258,3.787,46.436c0,0.923-0.022,1.836-0.029,2.755    l-9.458-11.461V88.405c0-4.328-3.508-7.837-7.837-7.837c-4.329,0-7.837,3.509-7.837,7.837v14.861l-9.458,11.459    c-0.008-0.92-0.029-1.834-0.029-2.756c0-3.458,0.061-6.936,0.179-10.338c0.152-4.326-3.233-7.955-7.558-8.105    c-4.333-0.125-7.955,3.233-8.105,7.559c-0.125,3.584-0.189,7.246-0.189,10.886c0,20.616,2.025,40.493,5.858,58.71    c-22.298,4.966-42.76,16.055-59.303,32.414c-10.026,9.914-18.087,21.263-24.014,33.579h-8.24c-7.202,0-13.061,5.859-13.061,13.061    v25.88c0,5.954,4.008,10.98,9.466,12.546v15.187c-18.129,3.657-31.818,19.651-31.818,38.776c0,14.916,8.332,27.919,20.598,34.657    c-0.335,1.664-0.516,3.383-0.516,5.145c0,5.771,1.892,11.109,5.086,15.436c-3.191,4.325-5.086,9.655-5.086,15.423    c0,5.772,1.892,11.109,5.086,15.436c-3.191,4.325-5.086,9.655-5.086,15.423c0,6.526,2.42,12.496,6.406,17.078    c-5.661,6.662-9.161,16.218-9.161,27.013C119.217,512,138.048,512,148.165,512c10.117,0,28.946,0,28.946-24.269    c0-10.794-3.5-20.349-9.161-27.012c3.985-4.582,6.406-10.552,6.406-17.079c0-3.055-0.539-5.985-1.511-8.712    c21.835,20.153,51.071,32.493,83.156,32.493c10.195,0,20.33-1.25,30.124-3.716c4.197-1.056,6.743-5.315,5.686-9.512    c-1.056-4.197-5.311-6.742-9.513-5.686c-8.544,2.15-17.392,3.241-26.298,3.241c-58.79,0-106.619-47.472-106.619-105.821v-57.066    c0-0.063,0.004-0.125,0.004-0.188h213.228c0,0.064,0.004,0.125,0.004,0.188v57.066c0,38.007-20.708,73.292-54.043,92.084    c-3.769,2.125-5.103,6.905-2.978,10.675c2.124,3.77,6.901,5.103,10.676,2.978c8.34-4.701,15.986-10.31,22.853-16.649    c-0.953,2.702-1.482,5.602-1.482,8.626c0,6.526,2.42,12.496,6.406,17.078c-5.661,6.662-9.162,16.218-9.162,27.013    C334.89,512,353.721,512,363.838,512s28.946,0,28.946-24.269c0-10.794-3.5-20.349-9.161-27.012    c3.986-4.582,6.406-10.552,6.406-17.079c0-5.768-1.895-11.099-5.086-15.423c3.194-4.328,5.086-9.665,5.086-15.436    s-1.892-11.109-5.086-15.436c3.191-4.325,5.086-9.655,5.086-15.423c0-1.761-0.181-3.481-0.516-5.145    C401.779,370.039,410.11,357.035,410.11,342.12z M364.943,56.693c-1.045,9.513-3.128,19.609-6.169,30.028l-12.816,2.313    l-4.268-12.179C349.282,69.111,357.082,62.317,364.943,56.693z M256,56.471l-9.882-8.408c2.654-10.545,5.976-20.331,9.883-29.061    c3.941,8.794,7.242,18.569,9.881,29.061L256,56.471z M374.331,381.477c0.006,0.149,0.025,0.296,0.025,0.446    c0,2.305-0.766,4.431-2.047,6.16c-0.488-0.167-0.987-0.304-1.488-0.442c0.736-1.994,1.425-4.005,2.056-6.038    C373.365,381.571,373.848,381.524,374.331,381.477z M290.783,151.365l12.262-4.527l-5.675,9.687    c-2.188,3.734-0.934,8.536,2.801,10.723c1.245,0.729,2.608,1.075,3.954,1.075c2.691,0,5.311-1.388,6.77-3.877l5.73-9.783    l2.085,12.87c-3.025,4.242-6.126,8.323-9.285,12.258c-8.369-4.023-17.184-7.086-26.31-9.117    C283.332,169.654,288.221,156.802,290.783,151.365z M248.164,127.888v11.282c0,4.328,3.508,7.837,7.837,7.837    c4.329,0,7.837-3.509,7.837-7.837v-11.284l8.34,10.106c-0.941,10.518-2.47,20.649-4.528,30.258    c-3.849-0.357-7.735-0.542-11.651-0.542c-3.915,0-7.801,0.185-11.648,0.542c-2.057-9.608-3.586-19.739-4.528-30.257    L248.164,127.888z M137.671,381.476c0.472,0.046,0.943,0.093,1.419,0.123c0.94,3.039,2.002,6.025,3.172,8.957    c-2.785-1.88-4.617-5.048-4.617-8.633C137.645,381.771,137.665,381.625,137.671,381.476z M117.564,342.12    c0-10.426,6.757-19.308,16.145-22.561v26.368c0,6.543,0.531,12.965,1.538,19.231C125.067,362.381,117.564,353.108,117.564,342.12z     M148.165,496.327c-12.282,0-13.274-0.643-13.274-8.595c0-7.888,3.072-15.079,7.352-18.663c1.904,0.441,3.885,0.681,5.922,0.681    c2.037,0,4.018-0.24,5.921-0.681c4.28,3.583,7.351,10.774,7.351,18.662C161.437,495.684,160.446,496.327,148.165,496.327z     M148.165,454.077c-5.8,0-10.519-4.681-10.519-10.435c0-2.305,0.766-4.431,2.048-6.161c2.659,0.909,5.508,1.41,8.471,1.41    c2.964,0,5.807-0.509,8.465-1.418c1.284,1.73,2.054,3.859,2.054,6.168C158.683,449.395,153.965,454.077,148.165,454.077z     M150.847,407.893c2.032,3.392,4.228,6.675,6.572,9.843c-1.781,3.262-5.261,5.483-9.255,5.483c-5.8,0-10.519-4.681-10.519-10.435    c0-2.305,0.766-4.43,2.047-6.16c2.66,0.909,5.508,1.41,8.472,1.41C149.071,408.032,149.964,407.984,150.847,407.893z M159.344,273    h-19.428v-20.656h19.428c-1.393,3.168-2.17,6.659-2.17,10.328C157.174,266.34,157.951,269.832,159.344,273z M183.49,273    c-5.868,0-10.643-4.633-10.643-10.328c0-5.688,4.764-10.317,10.622-10.328h0.041c5.86,0.012,10.625,4.639,10.625,10.328    C194.135,268.366,189.36,273,183.49,273z M232.631,273h-24.993c1.393-3.168,2.17-6.659,2.17-10.328s-0.777-7.161-2.17-10.328    h24.993c-1.393,3.168-2.17,6.659-2.17,10.328C230.461,266.34,231.239,269.832,232.631,273z M183.532,236.67    c-0.015,0-0.027-0.001-0.041-0.001c-0.014,0-0.026,0.001-0.041,0.001H163.4c18.382-31.8,52.995-53.289,92.601-53.289    c5.193,0,10.297,0.378,15.294,1.093c-3.994,20.107-13.701,38.03-27.276,52.196H183.532z M256.779,273    c-5.869,0-10.645-4.633-10.645-10.328c0-5.688,4.765-10.317,10.625-10.328h0.041c5.859,0.012,10.622,4.639,10.622,10.328    C267.422,268.366,262.647,273,256.779,273z M305.919,273h-24.995c1.393-3.168,2.17-6.659,2.17-10.328s-0.776-7.161-2.17-10.328    h24.995c-1.393,3.168-2.17,6.659-2.17,10.328C303.749,266.34,304.527,269.832,305.919,273z M330.067,273    c-5.869,0-10.643-4.633-10.643-10.328c0-5.688,4.764-10.317,10.623-10.328h0.041c5.859,0.012,10.622,4.639,10.622,10.328    C340.709,268.366,335.935,273,330.067,273z M330.108,236.671v-0.001c-0.014,0-0.027-0.001-0.041-0.001    c-0.014,0-0.027,0.001-0.041,0.001h-58.54c-1.317-1.378-2.594-2.799-3.844-4.255c9.097-13.177,15.671-28.25,18.959-44.589    c26.418,7.851,48.556,25.582,62.003,48.845H330.108z M354.213,273c1.393-3.168,2.17-6.659,2.17-10.328s-0.776-7.161-2.17-10.328    h17.872V273H354.213z M364.249,402.367c5.609,0.216,10.108,4.798,10.108,10.415c0,5.754-4.719,10.435-10.518,10.435    c-3.988,0-7.468-2.215-9.25-5.47C358.188,412.863,361.419,407.721,364.249,402.367z M355.373,437.473    c2.658,0.909,5.501,1.418,8.466,1.418s5.813-0.5,8.471-1.41c1.281,1.728,2.047,3.855,2.047,6.16    c0,5.754-4.719,10.435-10.518,10.435s-10.519-4.681-10.519-10.435C353.319,441.333,354.088,439.203,355.373,437.473z     M363.838,496.327c-12.282,0-13.274-0.643-13.274-8.595c0-7.888,3.072-15.079,7.352-18.663c1.904,0.441,3.885,0.681,5.922,0.681    c2.036,0,4.018-0.24,5.921-0.681c4.28,3.583,7.351,10.774,7.351,18.662C377.11,495.684,376.119,496.327,363.838,496.327z     M376.73,365.166c1.024-6.31,1.562-12.737,1.562-19.239v-26.368c9.387,3.253,16.145,12.134,16.145,22.561    C394.437,353.117,386.922,362.397,376.73,365.166z"/>
	</g>
</g>
<g>
</g>
<g>
</g>
<g>
</g>
<g>
</g>
<g>
</g>
<g>
</g>
<g>
</g>
<g>
</g>
<g>
</g>
<g>
</g>
<g>
</g>
<g>
</g>
<g>
</g>
<g>
</g>
<g>
</g>
</svg>
