<?xml version="1.0" encoding="iso-8859-1"?>
<!-- Generator: Adobe Illustrator 19.0.0, SVG Export Plug-In . SVG Version: 6.00 Build 0)  -->
<svg xmlns="http://www.w3.org/2000/svg" xmlns:xlink="http://www.w3.org/1999/xlink" version="1.1" id="Layer_1" x="0px" y="0px" viewBox="0 0 512 512" style="enable-background:new 0 0 512 512;" xml:space="preserve">
<g>
	<g>
		<path d="M491.414,13.081H20.586C9.235,13.081,0,22.357,0,33.76v354.795c0,11.403,9.235,20.681,20.586,20.681h163.753    l-5.774,45.755h-38.624c-10.082,0-18.286,8.203-18.286,18.286v7.357c0,10.082,8.203,18.286,18.286,18.286H372.06    c10.082,0,18.286-8.203,18.286-18.286v-7.357c0-10.082-8.203-18.286-18.286-18.286h-38.624l-5.774-45.755h54.77    c4.329,0,7.837-3.509,7.837-7.837c0-4.328-3.508-7.837-7.837-7.837H20.586c-2.662,0-4.912-2.292-4.912-5.007V334.54h65.829    c4.328,0,7.837-3.509,7.837-7.837c0-4.328-3.509-7.837-7.837-7.837H15.673V33.76c0-2.714,2.25-5.006,4.912-5.006h470.829    c2.662,0,4.912,2.292,4.912,5.006v285.106H113.894c-4.328,0-7.837,3.509-7.837,7.837c0,4.328,3.509,7.837,7.837,7.837h382.433    v54.015c0,2.715-2.25,5.007-4.912,5.007H411.69c-4.329,0-7.837,3.509-7.837,7.837c0,4.328,3.508,7.837,7.837,7.837h79.725    c11.351,0,20.586-9.278,20.586-20.681V33.76C512,22.357,502.765,13.081,491.414,13.081z M200.137,409.235h111.727l5.775,45.755    h-44.92c-4.329,0-7.837,3.509-7.837,7.837c0,4.328,3.508,7.837,7.837,7.837h99.341c1.416,0,2.612,1.196,2.612,2.612v7.357    c0,1.416-1.196,2.612-2.612,2.612H139.94c-1.416,0-2.612-1.196-2.612-2.612v-7.357c0-1.416,1.196-2.612,2.612-2.612h100.385    c4.328,0,7.837-3.509,7.837-7.837c0-4.328-3.509-7.837-7.837-7.837h-45.964L200.137,409.235z"/>
	</g>
</g>
<g>
	<g>
		<path d="M478.666,119.64c-4.329,0-7.837,3.509-7.837,7.837V293.18H421.36v-10.923c0-7.203-5.859-13.061-13.061-13.061H103.701    c-7.203,0-13.061,5.859-13.061,13.061v10.923H41.171V76.589h429.658v18.496c0,4.328,3.508,7.837,7.837,7.837    s7.837-3.509,7.837-7.837V51.829c0-7.202-5.859-13.061-13.061-13.061H38.559c-7.202,0-13.061,5.859-13.061,13.061v243.964    c0,7.203,5.859,13.061,13.061,13.061h434.882c7.202,0,13.061-5.859,13.061-13.061V127.477    C486.502,123.149,482.995,119.64,478.666,119.64z M41.171,54.441h429.658v6.475H41.171V54.441z M405.687,293.18H106.313v-8.311    h299.374V293.18z"/>
	</g>
</g>
<g>
	<g>
		<path d="M256,340.627c-12.79,0-23.195,10.456-23.195,23.309S243.21,387.244,256,387.244c12.79,0,23.195-10.456,23.195-23.309    C279.195,351.083,268.79,340.627,256,340.627z M256,371.57c-4.147,0-7.521-3.425-7.521-7.635c0-4.21,3.374-7.635,7.521-7.635    c4.147,0,7.521,3.425,7.521,7.635C263.521,368.145,260.147,371.57,256,371.57z"/>
	</g>
</g>
<g>
	<g>
		<path d="M322.267,157.234c-1.988-6.054-7.072-10.71-13.262-12.15l-24.367-5.694l-12.956-21.374    c-3.304-5.443-9.313-8.824-15.683-8.824c-6.375,0-12.386,3.381-15.69,8.827l-12.951,21.37l-24.364,5.694    c-6.204,1.443-11.288,6.101-13.274,12.176c-1.961,6.05-0.595,12.8,3.571,17.621l16.358,18.898l-2.104,24.896    c-0.53,6.338,2.345,12.6,7.497,16.338c3.149,2.288,6.878,3.497,10.779,3.497c2.449,0,4.839-0.483,7.096-1.433l23.078-9.689    l23.069,9.685c2.261,0.954,4.653,1.437,7.108,1.437c3.898,0,7.626-1.21,10.775-3.496c5.174-3.752,8.046-10.025,7.494-16.343    l-2.095-24.896l16.353-18.894C322.88,170.052,324.247,163.295,322.267,157.234z M306.85,164.622l-17.457,20.169    c-2.068,2.408-3.087,5.589-2.801,8.659l2.235,26.558c0.076,0.877-0.347,1.786-1.083,2.319c-0.758,0.55-1.703,0.675-2.6,0.298    l-24.559-10.31c-1.461-0.621-3.003-0.936-4.586-0.936c-1.591,0-3.139,0.317-4.557,0.922l-24.597,10.327    c-0.884,0.371-1.84,0.248-2.594-0.299c-0.735-0.533-1.16-1.455-1.086-2.342l2.239-26.498c0.281-3.156-0.751-6.338-2.823-8.721    l-17.434-20.14c-0.591-0.684-0.794-1.679-0.522-2.516c0.282-0.865,1.037-1.556,1.929-1.764l25.966-6.069    c3.07-0.713,5.765-2.669,7.39-5.357l13.802-22.776c0.472-0.778,1.37-1.281,2.288-1.281c0.914,0,1.811,0.504,2.282,1.28    l13.783,22.738c1.622,2.711,4.322,4.678,7.398,5.394l25.984,6.071c0.885,0.206,1.642,0.903,1.926,1.765    C307.647,162.953,307.441,163.939,306.85,164.622z"/>
	</g>
</g>
<g>
</g>
<g>
</g>
<g>
</g>
<g>
</g>
<g>
</g>
<g>
</g>
<g>
</g>
<g>
</g>
<g>
</g>
<g>
</g>
<g>
</g>
<g>
</g>
<g>
</g>
<g>
</g>
<g>
</g>
</svg>
