<?xml version="1.0" encoding="iso-8859-1"?>
<!-- Generator: Adobe Illustrator 19.0.0, SVG Export Plug-In . SVG Version: 6.00 Build 0)  -->
<svg xmlns="http://www.w3.org/2000/svg" xmlns:xlink="http://www.w3.org/1999/xlink" version="1.1" id="Layer_1" x="0px" y="0px" viewBox="0 0 511.999 511.999" style="enable-background:new 0 0 511.999 511.999;" xml:space="preserve">
<g>
	<g>
		<path d="M268.037,233.525h-24.072c-5.796,0-10.513,4.717-10.513,10.515v3.57c0,4.328,3.509,7.837,7.837,7.837    c3.784,0,6.941-2.681,7.676-6.247h14.072c0.735,3.566,3.892,6.247,7.676,6.247c4.329,0,7.838-3.509,7.838-7.837v-3.57    C278.549,238.242,273.834,233.525,268.037,233.525z"/>
	</g>
</g>
<g>
	<g>
		<path d="M428.183,402.133l-18.847-15.316v-85.889c0-4.328-3.509-7.837-7.837-7.837c-4.328,0-7.837,3.509-7.837,7.837v12.016    h-29.596v-50.156h29.596v9.927c0,4.329,3.509,7.837,7.837,7.837c4.328,0,7.837-3.509,7.837-7.837V170.829    c0-4.478-1.962-10.323-4.669-13.897l-16.476-21.745c-2.302-3.04-5.701-4.783-9.326-4.783h-0.001c-3.625,0-7.024,1.742-9.326,4.78    l-16.476,21.747c-2.706,3.571-4.67,9.417-4.67,13.897V337.29l-8.098-6.581l-7.242-11.061v-131.57c0-4.328-3.509-7.837-7.837-7.837    c-4.328,0-7.837,3.509-7.837,7.837v107.632l-16.118-24.616v-29.492c0-0.045,0.001-0.093,0.001-0.128    c0-21.092-4.189-41.045-11.797-56.183c-8.468-16.851-20.354-26.132-33.467-26.132c-13.113,0-24.999,9.281-33.467,26.132    c-7.607,15.137-11.796,35.091-11.796,56.252v29.552l-16.117,24.614V126.73h67.65c4.328,0,7.837-3.509,7.837-7.837    c0-4.328-3.509-7.837-7.837-7.837h-67.65V96.411c0-32.622,22.931-62.722,61.379-80.614c38.447,17.89,61.38,47.991,61.38,80.614    v14.646h-23.763c-4.328,0-7.837,3.509-7.837,7.837c0,4.328,3.509,7.837,7.837,7.837h23.763v34.18c0,4.329,3.509,7.838,7.837,7.838    c4.328,0,7.837-3.509,7.837-7.838V96.411c0-39.058-26.553-74.608-71.023-95.094c-3.805-1.756-8.264-1.753-12.058-0.003    c-44.475,20.488-71.027,56.039-71.027,95.097v223.235l-7.243,11.062l-8.097,6.58v-40.539c0-4.328-3.509-7.837-7.837-7.837    s-7.837,3.509-7.837,7.837v16.196h-29.596v-50.156h29.596v7.837c0,4.329,3.509,7.837,7.837,7.837s7.837-3.509,7.837-7.837v-99.797    c0-4.479-1.963-10.324-4.67-13.897l-16.476-21.745c-2.302-3.04-5.7-4.783-9.325-4.783h-0.001c-3.625,0-7.024,1.742-9.326,4.78    l-16.476,21.747c-2.705,3.571-4.67,9.417-4.67,13.897v215.988l-18.849,15.318c-4.032,3.278-6.848,9.197-6.848,14.395v29.226    c0,7.134,5.801,12.937,12.932,12.937h12.766v19.391c0,7.134,5.801,12.937,12.932,12.937h35.079c7.13,0,12.932-5.803,12.932-12.937    v-19.391h13.048h23.733v6.543c0,7.134,5.801,12.937,12.931,12.937h2.201v9.092c0,7.133,5.801,12.937,12.932,12.937h19.715v3.962    c0,4.328,3.509,7.837,7.837,7.837c4.328,0,7.837-3.509,7.837-7.837V500.2h19.712c7.13,0,12.932-5.803,12.932-12.937v-9.092h2.2    c7.13,0,12.932-5.803,12.932-12.937v-6.543h23.733h13.049v19.391c0,7.134,5.801,12.937,12.932,12.937h35.079    c7.13,0,12.932-5.803,12.932-12.937v-19.391h12.766c7.13,0,12.932-5.804,12.932-12.937v-29.226    C435.033,411.331,432.216,405.412,428.183,402.133z M364.067,170.828c0-1.107,0.821-3.551,1.489-4.431l13.309-17.567    l13.308,17.564c0.669,0.883,1.49,3.328,1.49,4.435v6.148h-29.596V170.828z M364.067,192.65h29.596v18.938h-29.596V192.65z     M364.067,227.261h29.596v19.854h-29.596V227.261z M118.338,170.828c0-1.107,0.821-3.551,1.489-4.431l13.309-17.567l13.308,17.565    c0.669,0.883,1.49,3.328,1.49,4.434v6.148h-29.596V170.828z M118.338,192.65h29.596v18.938h-29.596V192.65z M118.338,227.261    h29.596v19.854h-29.596V227.261z M118.338,328.618h29.596v21.408l-29.596,24.051V328.618z M147.934,475.346h-29.596v-16.655    h29.596V475.346z M173.913,443.018H92.641l-0.001-26.442c0.045-0.601,0.661-1.896,1.062-2.28l80.212-65.188V443.018z     M210.737,389.921c-6.232,4.149-10.349,11.239-10.349,19.274v33.822h-10.801v-111.01l21.15-32.301V389.921z M256,174.832    c9.474,0,19.675,12.553,25.281,32.812h-15.008c0.492-0.796,0.791-1.724,0.791-2.724v-2.06c0-2.875-2.351-5.226-5.224-5.226h-11.68    c-2.873,0-5.224,2.351-5.224,5.226v2.06c0,1,0.299,1.928,0.791,2.724h-15.001C236.334,187.373,246.531,174.832,256,174.832z     M248.164,484.526h-16.97v-6.355h16.97V484.526z M248.164,462.498h-32.102v-23.944h32.102V462.498z M280.807,484.526h-16.97    v-6.355h16.97V484.526z M295.939,462.498h-32.101v-23.944h32.101V462.498z M295.939,422.882h-79.876v-13.685    c0-4.116,3.341-7.465,7.447-7.465h25.177c4.328,0,7.837-3.509,7.837-7.837c0-4.328-3.509-7.837-7.837-7.837h-22.275V241.473    c0-6.393,0.419-12.461,1.171-18.156h56.846c0.747,5.668,1.164,11.706,1.164,18.062c0,0.056-0.001,0.119,0,0.183v144.497h-6.604    c-4.329,0-7.838,3.509-7.838,7.837c0,4.328,3.509,7.837,7.838,7.837h9.502c4.106,0,7.448,3.349,7.448,7.465V422.882z     M322.413,443.018h-10.801v-33.822c0-8.035-4.117-15.125-10.348-19.274v-90.215l21.149,32.301V443.018z M364.067,328.618h29.596    v45.46l-29.596-24.053V328.618z M393.663,475.346h-29.596v-16.655h29.596V475.346z M419.359,443.018h-81.273v-93.91l80.175,65.157    c0.438,0.414,1.054,1.709,1.098,2.264V443.018z"/>
	</g>
</g>
<g>
</g>
<g>
</g>
<g>
</g>
<g>
</g>
<g>
</g>
<g>
</g>
<g>
</g>
<g>
</g>
<g>
</g>
<g>
</g>
<g>
</g>
<g>
</g>
<g>
</g>
<g>
</g>
<g>
</g>
</svg>
