<?xml version="1.0" encoding="iso-8859-1"?>
<!-- Generator: Adobe Illustrator 19.0.0, SVG Export Plug-In . SVG Version: 6.00 Build 0)  -->
<svg xmlns="http://www.w3.org/2000/svg" xmlns:xlink="http://www.w3.org/1999/xlink" version="1.1" id="Layer_1" x="0px" y="0px" viewBox="0 0 512.002 512.002" style="enable-background:new 0 0 512.002 512.002;" xml:space="preserve">
<g>
	<g>
		<path d="M506.048,62.109c-6.02-5.994-14.903-7.413-22.279-4.262c0.122-2.794,0.183-5.584,0.183-8.363    c0-11.151-9.081-20.223-20.245-20.223c-11.164,0-20.245,9.072-20.245,20.223c0,45.991-20.701,87.735-54.203,118.201    c6.615-16.503,10.265-34.494,10.265-53.321c0-11.15-9.081-20.223-20.245-20.223s-20.245,9.072-20.245,20.223    c0,27.797-11.038,53.07-28.972,71.727c1.267-7.075,1.931-14.371,1.931-21.786c0-11.151-9.081-20.223-20.245-20.223    c-11.164,0-20.245,9.072-20.245,20.223c0,16.309-4.53,31.412-12.753,42.527c-3.611,4.881-7.69,8.595-12.004,11.032    c-3.994,0.227-8.015,0.354-12.072,0.354c-4.044,0-8.069-0.124-12.074-0.356c-4.312-2.437-8.391-6.15-12.001-11.03    c-8.223-11.116-12.752-26.219-12.752-42.528c0-11.151-9.081-20.223-20.245-20.223c-11.164,0-20.245,9.072-20.245,20.223    c0,7.415,0.663,14.712,1.931,21.787c-17.935-18.657-28.972-43.931-28.972-71.728c0-11.15-9.082-20.223-20.246-20.223    c-11.164,0-20.245,9.072-20.245,20.223c0,18.803,3.641,36.77,10.239,53.255c-11.373-10.33-21.361-22.035-29.585-34.945    c-2.326-3.651-7.17-4.725-10.82-2.399c-3.651,2.326-4.724,7.169-2.399,10.82c28.076,44.076,74.846,75.273,128.186,87.302h-32.411    c-25.574-9.573-49.07-23.697-69.243-41.932c-21.66-19.579-38.086-42.465-48.823-68.021c-0.393-0.936-0.965-1.787-1.683-2.506    c-0.04-0.04-0.083-0.081-0.128-0.124L17.004,79.638c-0.86-0.86-1.332-2.001-1.33-3.214c0.001-1.213,0.477-2.353,1.337-3.211    c1.788-1.779,4.692-1.776,6.474,0.007l5.762,5.764c2.372,2.373,5.989,2.973,9.001,1.492c3.01-1.481,4.745-4.712,4.313-8.039    c-0.986-7.613-1.486-15.337-1.486-22.955c0-2.509,2.05-4.549,4.571-4.549c2.521,0,4.571,2.041,4.571,4.549    c0,22.496,4.461,44.488,13.261,65.368c1.68,3.987,6.276,5.859,10.265,4.177c3.988-1.68,5.859-6.277,4.177-10.265    c-7.983-18.941-12.03-38.886-12.03-59.279c0-11.151-9.081-20.223-20.245-20.223c-11.164,0-20.245,9.072-20.245,20.223    c0,2.47,0.048,4.951,0.144,7.435c-6.758-1.82-14.291-0.091-19.595,5.191C2.12,65.925,0.006,71.002,0,76.407    c-0.006,5.404,2.095,10.487,5.918,14.312l35.213,35.229c11.64,27.112,29.18,51.375,52.154,72.143    c12.968,11.723,27.212,21.855,42.438,30.305H74.725c-6.166,0-11.182,5.018-11.182,11.185c0,12.054,6.478,23.077,18.243,31.037    c10.424,7.055,24.074,10.941,38.44,10.941c6.094,0,12.053-0.716,17.697-2.06v55.712c0,35.374,10.486,66.472,31.164,92.428    c9.931,12.467,22.343,23.786,37.029,33.817l1.927,5.933c2.842,8.754,11.925,15.355,21.13,15.355h21.603    c4.328,0,7.837-3.509,7.837-7.837c0-4.328-3.509-7.837-7.837-7.837h-21.602c-2.355,0-5.496-2.282-6.223-4.522l-15.768-48.546    c-0.728-2.241,0.472-5.936,2.378-7.321l17.279-12.56l2.498,7.693c2.474,7.624,9.684,13.61,17.585,15.03v18.518h-9.037    c-4.328,0-7.837,3.509-7.837,7.837s3.509,7.837,7.837,7.837h33.75c4.328,0,7.837-3.509,7.837-7.837s-3.509-7.837-7.837-7.837    h-9.038v-18.553c7.834-1.473,14.962-7.424,17.42-14.994l2.498-7.693l17.278,12.56c1.906,1.385,3.106,5.081,2.378,7.323    l-15.765,48.544c-0.727,2.24-3.868,4.522-6.223,4.522c-4.328,0-7.837,3.509-7.837,7.837c0,4.328,3.509,7.837,7.837,7.837    c9.203,0,18.287-6.601,21.13-15.355l1.928-5.935c14.685-10.03,27.097-21.348,37.029-33.814    c20.677-25.959,31.162-57.057,31.162-92.428v-12.337c0-4.328-3.509-7.837-7.837-7.837s-7.837,3.509-7.837,7.837v12.335    c0,31.736-9.336,59.548-27.747,82.663c-4.741,5.95-10.131,11.621-16.138,17l5.207-16.031c2.841-8.752-0.629-19.431-8.071-24.84    c0,0-42.37-30.744-42.666-30.923c-6.92-4.179-16.406-4.18-23.326-0.003c-0.482,0.289-42.669,30.925-42.669,30.925    c-7.444,5.409-10.914,16.089-8.071,24.841l5.207,16.032c-6.007-5.38-11.398-11.053-16.137-17.003    c-18.413-23.113-27.75-50.924-27.75-82.663v-84.205c0-3.824,3.177-6.935,7.083-6.935h187.996c3.907,0,7.084,3.112,7.084,6.935    v40.524c0,4.328,3.509,7.837,7.837,7.837s7.837-3.509,7.837-7.837v-12.031c5.646,1.345,11.603,2.061,17.697,2.061    c14.365,0,28.017-3.886,38.441-10.94c11.763-7.961,18.242-18.984,18.242-31.037c0-6.167-5.017-11.185-11.182-11.185h-60.999    c15.226-8.45,29.47-18.582,42.438-30.305c8.577-7.752,16.521-16.145,23.614-24.943c2.717-3.37,2.187-8.303-1.182-11.019    c-3.371-2.717-8.303-2.186-11.019,1.183c-6.579,8.16-13.955,15.949-21.922,23.153c-20.173,18.234-43.668,32.358-69.242,41.932    h-32.051c88.856-20.041,154.871-92.649,154.871-178.912c0-2.509,2.05-4.549,4.571-4.549c2.521,0,4.571,2.041,4.571,4.549    c0,8.596-0.638,17.311-1.898,25.902c-0.49,3.344,1.217,6.624,4.237,8.14c3.021,1.516,6.671,0.927,9.059-1.463l8.837-8.841    c1.783-1.784,4.687-1.787,6.474-0.006c0.861,0.858,1.335,1.998,1.337,3.21c0.001,1.213-0.471,2.355-1.33,3.214l-39.688,39.706    c-0.097,0.097-0.248,0.225-0.444,0.378c-1.007,0.784-1.807,1.801-2.331,2.964c-2.843,6.308-6.095,12.547-9.667,18.543    c-2.215,3.719-0.997,8.528,2.721,10.744c3.717,2.216,8.528,0.998,10.744-2.721c3.576-6.003,6.859-12.232,9.769-18.54    c0.099-0.095,0.198-0.191,0.294-0.286l39.69-39.708c3.822-3.825,5.924-8.908,5.918-14.312    C511.993,71.002,509.88,65.925,506.048,62.109z M150.162,189.84c-15.5-21.211-24.661-47.296-24.661-75.478    c0-2.508,2.05-4.549,4.571-4.549c2.521,0,4.573,2.041,4.573,4.549c0,34.145,14.458,64.984,37.592,86.784    C164.608,197.822,157.231,194.048,150.162,189.84z M244.02,381.631l6.813-4.952c0.893-0.649,2.33-1.037,3.844-1.037    c1.514,0,2.951,0.388,3.844,1.037l6.813,4.952c1.906,1.385,3.106,5.081,2.379,7.322l-2.604,8.017    c-0.727,2.24-3.868,4.522-6.223,4.522h-8.419c-2.355,0-5.496-2.282-6.223-4.522l-2.604-8.019    C240.913,386.71,242.114,383.015,244.02,381.631z M137.922,251.003v12.252c-5.458,1.707-11.457,2.628-17.697,2.628    c-11.265,0-21.797-2.929-29.655-8.247c-5.662-3.832-9.358-8.537-10.742-13.567h59.199    C138.314,246.255,137.922,248.583,137.922,251.003z M204.649,212.127c-7.538-13.823-11.615-30.418-11.615-47.824    c0-2.509,2.05-4.549,4.571-4.549c2.521,0,4.571,2.041,4.571,4.549c0,19.012,5.279,36.86,14.871,50.496    C212.873,214.034,208.74,213.139,204.649,212.127z M429.526,244.068c-1.383,5.03-5.078,9.735-10.742,13.568    c-7.858,5.317-18.39,8.247-29.655,8.247c-6.239,0-12.239-0.919-17.697-2.628v-12.252c0-2.42-0.392-4.749-1.106-6.935H429.526z     M304.667,212.201c-4.081,1.002-8.213,1.892-12.399,2.652c9.617-13.642,14.911-31.513,14.911-50.549    c0-2.509,2.05-4.549,4.571-4.549c2.521,0,4.571,2.041,4.571,4.549C316.321,181.739,312.231,198.364,304.667,212.201z     M359.073,189.998c-7.071,4.211-14.472,8.01-22.166,11.352c23.258-21.811,37.802-52.738,37.802-86.988    c0-2.508,2.05-4.549,4.571-4.549c2.521,0,4.571,2.041,4.571,4.549C383.852,142.615,374.644,168.757,359.073,189.998z"/>
	</g>
</g>
<g>
	<g>
		<path d="M205.221,316.875c-4.328,0-7.837,3.508-7.837,7.837v13.298c0,4.328,3.509,7.837,7.837,7.837    c4.328,0,7.837-3.509,7.837-7.837v-13.298C213.057,320.383,209.549,316.875,205.221,316.875z"/>
	</g>
</g>
<g>
	<g>
		<path d="M295.458,316.875c-4.328,0-7.837,3.508-7.837,7.837v13.298c0,4.328,3.509,7.837,7.837,7.837s7.837-3.509,7.837-7.837    v-13.298C303.295,320.383,299.786,316.875,295.458,316.875z"/>
	</g>
</g>
<g>
</g>
<g>
</g>
<g>
</g>
<g>
</g>
<g>
</g>
<g>
</g>
<g>
</g>
<g>
</g>
<g>
</g>
<g>
</g>
<g>
</g>
<g>
</g>
<g>
</g>
<g>
</g>
<g>
</g>
</svg>
