<?xml version="1.0" encoding="iso-8859-1"?>
<!-- Generator: Adobe Illustrator 19.0.0, SVG Export Plug-In . SVG Version: 6.00 Build 0)  -->
<svg xmlns="http://www.w3.org/2000/svg" xmlns:xlink="http://www.w3.org/1999/xlink" version="1.1" id="Layer_1" x="0px" y="0px" viewBox="0 0 512.001 512.001" style="enable-background:new 0 0 512.001 512.001;" xml:space="preserve">
<g>
	<g>
		<path d="M229.035,392.743c-0.237-2.687-2.031-4.995-4.593-5.907c-5.064-1.798-9.168-5.867-10.983-10.886    c-0.919-2.541-3.245-4.32-5.959-4.554c-0.202-0.018-0.406-0.026-0.607-0.026c-2.488,0-4.81,1.32-6.057,3.488    c-1.554,2.705-2.377,5.774-2.377,8.875c0,9.911,8.133,17.973,18.131,17.973c3.126,0,6.221-0.815,8.951-2.357    C227.906,398.013,229.27,395.432,229.035,392.743z"/>
	</g>
</g>
<g>
	<g>
		<path d="M303.39,374.859c-1.248-2.169-3.569-3.489-6.057-3.489c-0.201,0-0.405,0.008-0.608,0.026    c-2.713,0.234-5.039,2.012-5.958,4.554c-1.815,5.019-5.919,9.087-10.983,10.886c-2.562,0.911-4.356,3.218-4.593,5.908    c-0.236,2.69,1.128,5.269,3.495,6.607c2.729,1.542,5.824,2.357,8.951,2.357c9.997,0,18.131-8.062,18.131-17.973    C305.768,380.633,304.944,377.564,303.39,374.859z"/>
	</g>
</g>
<g>
	<g>
		<path d="M444.696,237.781c16.83-16.685,22.321-41.767,13.987-63.903c-0.927-2.456-2.342-4.635-4.204-6.483    c-1.859-1.842-4.048-3.238-6.513-4.152c-3.772-1.396-7.65-2.394-11.594-3.017c1.736-3.599,3.242-7.323,4.486-11.165    c9.882-30.543,2.291-64.084-19.812-87.537c-1.504-1.592-3.403-2.787-5.503-3.457c-3.286-1.042-6.964-0.714-10.013,0.899    c-5.19,2.748-7.876,8.649-6.535,14.351c2.134,9.057,2.173,18.51,0.162,27.67c-1.652-1.772-3.338-3.511-5.068-5.209    c1.917-1.589,3.417-3.589,4.331-5.861c2.225-5.563,0.397-11.8-4.535-15.511c-13.652-10.307-31.674-15.984-50.745-15.984    c-1.636,0-3.283,0.061-4.933,0.147c2.552-5.688,5.534-11.408,8.955-17.18c2.762-4.546,3.268-9.935,1.347-14.447    c-2.362-5.506-8.079-8.622-14.174-7.758c-6.206,0.866-12.488,2.625-18.677,5.227c-3.989,1.677-5.865,6.271-4.188,10.262    c1.676,3.99,6.274,5.862,10.261,4.187c3.588-1.508,7.192-2.658,10.762-3.436c-10.393,18.011-16.961,35.948-19.75,54.026    c-3.327-0.72-6.774-1.11-10.313-1.11c-4.321,0-8.558,0.562-12.638,1.655c-0.553-7.32-1.414-14.509-2.569-21.524    c0.576-0.872,1.154-1.742,1.76-2.59c3.287-4.68,7.002-8.978,11.045-12.774c3.155-2.962,3.31-7.922,0.347-11.077    c-2.96-3.154-7.919-3.312-11.078-0.348c-2.208,2.074-4.325,4.28-6.347,6.584c-3.923-15.001-9.303-28.846-16.033-40.948    C264.402,2.806,259.621,0,254.439,0c-5.185,0-9.966,2.807-12.48,7.325c-6.73,12.103-12.112,25.954-16.035,40.962    c-14.007-15.825-32.592-26.479-51.368-29.1c-0.683-0.096-1.374-0.145-2.052-0.145c-5.393,0-10.042,3.028-12.144,7.923    c-1.912,4.492-1.405,9.881,1.357,14.428c3.42,5.769,6.398,11.484,8.948,17.17c-3.799-0.195-7.583-0.176-11.326,0.078    c-4.319,0.293-7.582,4.031-7.289,8.349c0.292,4.319,4.035,7.581,8.348,7.289c5.377-0.366,10.878-0.165,16.423,0.585    c2.053,6.721,3.504,13.426,4.35,20.153c-3.707,2.174-7.096,4.831-10.096,7.872c-12.71-7.859-27.096-13.951-43.296-18.297    c2.242-1.44,4.646-2.757,7.183-3.937c3.926-1.824,5.628-6.485,3.803-10.41c-1.824-3.925-6.487-5.628-10.409-3.803    c-4.85,2.255-9.346,4.935-13.352,7.96c-4.941,3.72-6.77,9.956-4.54,15.533c0.848,2.11,2.221,3.971,3.952,5.5    c-2.217,2.183-4.376,4.422-6.472,6.721c-2.278-9.521-2.328-19.394-0.106-28.836c1.342-5.702-1.345-11.603-6.536-14.351    c-3.047-1.613-6.711-1.947-10.023-0.894c-2.09,0.667-3.988,1.86-5.498,3.459c-22.099,23.448-29.689,56.988-19.807,87.531    c1.351,4.174,3.012,8.211,4.942,12.098c-2.326,0.558-4.625,1.249-6.884,2.085c-2.459,0.911-4.648,2.307-6.513,4.153    c-1.864,1.849-3.279,4.031-4.203,6.487c-8.333,22.13-2.842,47.212,13.989,63.897c0.125,0.124,0.259,0.24,0.386,0.364    c1.044,6.244,2.439,12.422,4.215,18.503c-13.91,23.942-9.986,54.684,9.951,74.448c3.055,3.027,7.98,3.028,11.035-0.001    l8.671-8.595c0.173,27.022,22.371,48.953,49.632,48.953c3.812,0,6.986-2.723,7.688-6.33c4.394,5.234,9.155,10.283,14.298,15.131    c-0.025,0.613-0.047,1.228-0.047,1.847c0,21.132,14.858,38.876,34.755,43.526c0.023,17.272-0.008,28.61-0.008,28.61    c0,13.632,4.066,25.645,12.082,35.702c6.843,8.587,16.567,15.646,28.892,20.976c1.656,0.718,3.414,1.083,5.222,1.083    c1.807,0,3.561-0.364,5.213-1.079c4.453-1.926,8.62-4.105,12.384-6.479c3.661-2.309,4.757-7.148,2.448-10.809    c-2.309-3.661-7.15-4.755-10.809-2.448c-2.801,1.767-5.903,3.415-9.237,4.907c-9.462-4.235-16.811-9.587-21.857-15.919    c-5.613-7.043-8.525-15.525-8.66-25.224c0.091-0.551,0.122-1.114,0.094-1.679c-0.038-1.535-0.069-14.453-0.088-25.722h8.529    v27.542c0,4.328,3.508,7.837,7.837,7.837c4.329,0,7.837-3.509,7.837-7.837v-27.542h11.334v27.542c0,4.328,3.508,7.837,7.837,7.837    c4.329,0,7.837-3.509,7.837-7.837v-27.542h9.811c-0.019,12.763-0.051,24.323-0.084,25.733c-0.028,0.564,0.004,1.125,0.095,1.674    c-0.098,6.967-1.63,13.335-4.557,18.934c-2.005,3.836-0.521,8.57,3.313,10.576c3.836,2.004,8.57,0.522,10.576-3.313    c4.211-8.053,6.346-17.108,6.346-26.91c0,0-0.033-11.744-0.011-30.138c16.388-5.964,28.347-21.104,29.509-39.116    c6.462-5.664,12.407-11.604,17.791-17.829c1.293,2.547,3.932,4.297,6.985,4.297c27.26,0,49.458-21.931,49.632-48.952l8.671,8.595    c3.055,3.028,7.98,3.028,11.035,0c19.138-18.973,23.639-47.94,11.5-71.603c1.782-5.703,3.231-11.493,4.366-17.345    C441.475,240.783,443.131,239.333,444.696,237.781z M415.943,79.944c7.889,11.056,12.449,23.996,13.339,37.297    c-4.482-4.565-9.522-8.572-15.049-11.932C416.174,96.959,416.764,88.393,415.943,79.944z M409.008,120.582    c7.385,5.075,13.551,11.667,18.162,19.432c-0.365,1.415-0.771,2.823-1.225,4.225c-2.772,8.572-7.086,16.469-12.717,23.387    c-2.295-11.24-7.043-21.837-13.997-31.078C403.075,131.68,406.362,126.328,409.008,120.582z M399.092,180.927    c-3.629,2.612-7.466,4.867-11.458,6.765V158.89c0-3.202-0.62-6.261-1.733-9.075c0.763-0.599,1.518-1.209,2.259-1.835    C394.859,157.668,398.644,169.049,399.092,180.927z M392.972,117.64c-4.277,7.912-10.14,14.754-17.139,20.154    c-3.849-2.393-8.393-3.781-13.259-3.781h-11.524c-0.408-6.443-2.069-12.549-4.745-18.08c9.351-5.724,19.8-10.361,31.431-14.024    C383.196,106.772,388.287,112.033,392.972,117.64z M332.065,74.859c3.708-0.5,7.421-0.762,11.076-0.762    c13.916,0,27.505,3.788,37.957,10.493c-16.386,4.396-30.926,10.564-43.74,18.554c-2.884-2.971-6.139-5.578-9.694-7.741    C328.502,88.546,329.971,81.71,332.065,74.859z M254.439,17.182c11.044,20.803,17.895,47.104,19.848,75.565    c-6.295-2.885-13.138-4.406-20.208-4.406c-6.792,0-13.373,1.402-19.461,4.069C236.602,64.077,243.438,37.901,254.439,17.182z     M176.381,35.42c16.421,3.552,32.449,14.707,43.548,30.509c0.592,0.832,1.16,1.685,1.725,2.54    c-1.167,7.083-2.032,14.345-2.585,21.739c-4.297-1.221-8.771-1.867-13.343-1.867c-3.29,0-6.506,0.332-9.615,0.958    C193.309,71.271,186.746,53.383,176.381,35.42z M130.598,101.74c11.62,3.617,22.066,8.201,31.422,13.861    c-2.772,5.616-4.496,11.838-4.912,18.411h-11.525c-5.172,0-9.984,1.565-13.98,4.241c-6.978-5.254-12.866-11.921-17.216-19.655    C119.339,112.566,124.763,106.93,130.598,101.74z M118.665,147.992c1.071,0.905,2.174,1.769,3.292,2.615    c-0.926,2.593-1.434,5.38-1.434,8.284v29.422c-4.471-2.018-8.754-4.481-12.783-7.381    C108.187,169.055,111.971,157.677,118.665,147.992z M97.82,120.586c2.646,5.746,5.936,11.096,9.78,15.963    c-6.953,9.24-11.701,19.836-13.996,31.076c-5.631-6.918-9.945-14.816-12.717-23.388c-0.453-1.401-0.86-2.809-1.225-4.223    C84.273,132.252,90.437,125.66,97.82,120.586z M90.891,79.943c-0.822,8.45-0.233,17.016,1.709,25.366    c-5.526,3.36-10.567,7.368-15.049,11.933C78.441,103.94,83.001,90.998,90.891,79.943z M67.985,179.409    c0.125-0.333,0.319-0.631,0.569-0.88c0.262-0.26,0.574-0.458,0.922-0.586c3.36-1.243,6.833-2.07,10.372-2.492    c4.354,5.687,9.405,10.874,15.104,15.43c0.004,0.003,0.008,0.007,0.013,0.01l0.254,0.207c0.165,0.135,0.331,0.269,0.5,0.401    c0.038,0.03,0.074,0.062,0.112,0.091c7.53,5.867,15.859,10.428,24.694,13.613v33.404c-3.315,0.758-6.708,1.143-10.144,1.143    c0,0-0.001,0-0.002,0c-11.961-0.001-23.638-4.776-32.037-13.102C65.891,214.309,61.827,195.765,67.985,179.409z M143.359,345.343    v9.534c-14.96-3.509-26.122-16.835-26.122-32.694c0-2.83,0.356-5.64,1.057-8.354c0.644-2.488,0.026-5.135-1.652-7.08    c-1.437-1.666-2.81-3.328-4.083-4.94c-1.382-1.751-3.448-2.831-5.676-2.966c-2.225-0.137-4.407,0.685-5.992,2.257l-13.044,12.931    c-10.874-15.24-11.521-35.976-0.887-51.913c1.321-1.979,1.671-4.45,0.952-6.718c-0.509-1.606-0.977-3.221-1.425-4.843    c7.509,3.165,15.649,4.869,23.892,4.87c0.002,0,0.002,0,0.002,0c3.42,0,6.806-0.296,10.145-0.86v1.47    c0,32.523,7.744,61.884,23.043,87.577C143.44,344.177,143.359,344.754,143.359,345.343z M156.231,319.475    c-1.59,1.996-3.12,4.045-4.62,6.116c-10.242-20.821-15.414-44.103-15.414-69.554v-97.146c0-5.076,4.21-9.206,9.384-9.206h11.598    c1.242,26.515,9.849,49.984,25.666,69.831c6.04,7.579,13.161,14.611,21.287,21.088v20.315c0,5.429,0.115,10.748,0.345,15.952    C185.107,289.276,168.95,303.519,156.231,319.475z M163.448,345.439c-1.111-1.565-2.186-3.147-3.229-4.746    c2.564-3.931,5.334-7.768,8.268-11.449c10.058-12.619,22.536-24.11,37.292-34.402c0.502,4.94,1.116,9.761,1.845,14.46    C190.413,319.966,175.635,332.038,163.448,345.439z M177.655,362.6c-1.482-1.552-2.924-3.123-4.329-4.711    c10.332-11.744,22.859-22.439,37.453-32.029c0.917,4.016,1.922,7.933,3.025,11.733C197.88,339.139,184.36,348.933,177.655,362.6z     M284.779,411.156h-66.545c-16.225,0-29.425-13.034-29.425-29.054s13.2-29.053,29.425-29.053c8.941,0,17.298,3.956,22.927,10.853    c2.547,3.12,6.317,4.91,10.344,4.91s7.798-1.79,10.346-4.911c5.629-6.896,13.985-10.852,22.926-10.852    c16.225,0,29.425,13.033,29.425,29.053S301.005,411.156,284.779,411.156z M219.806,260.918v-9.303    c8.029,4.981,16.782,9.54,26.265,13.641c2.54,1.099,5.235,1.657,8.009,1.657c2.771,0,5.464-0.557,8.003-1.656    c9.485-4.101,18.239-8.662,26.271-13.644v9.305c0,29.494-3.532,55.374-10.479,76.982c-10.113,1.541-19.386,6.441-26.366,14.018    c-5.686-6.172-12.897-10.557-20.837-12.808C223.463,317.268,219.806,290.965,219.806,260.918z M326.938,366.239    c-5.391-14.043-17.713-24.72-32.805-27.89c1.192-4.038,2.274-8.203,3.251-12.487c14.593,9.589,27.117,20.285,37.446,32.026    C332.323,360.73,329.701,363.519,326.938,366.239z M344.709,345.439c-12.185-13.402-26.963-25.475-44.176-36.139    c0.728-4.697,1.33-9.531,1.833-14.468c14.763,10.295,27.244,21.789,37.303,34.412c2.936,3.682,5.703,7.515,8.265,11.441    C346.89,342.287,345.817,343.874,344.709,345.439z M417.905,314.034l-11.707-11.606c-1.574-1.561-3.723-2.378-5.951-2.259    c-2.214,0.122-4.273,1.178-5.665,2.903c-1.558,1.932-3.203,3.865-4.886,5.747c-1.647,1.84-2.33,4.348-1.844,6.769    c0.437,2.173,0.658,4.393,0.658,6.595c0,15.857-11.163,29.185-26.122,32.694V347.2c6.807-10.794,12.28-22.297,16.333-34.37    c1.378-4.103-0.831-8.546-4.934-9.924c-4.102-1.379-8.545,0.832-9.923,4.934c-2.042,6.079-4.505,11.99-7.333,17.73    c-1.494-2.063-3.02-4.104-4.605-6.094c-12.72-15.962-28.882-30.208-48.261-42.617c0.231-5.205,0.362-10.511,0.362-15.941V240.6    c8.126-6.477,15.247-13.509,21.288-21.088c2.417-3.033,4.696-6.197,6.775-9.402c2.356-3.631,1.324-8.484-2.307-10.84    c-3.632-2.356-8.486-1.323-10.84,2.308c-1.805,2.782-3.787,5.53-5.887,8.166c-9.499,11.918-22.115,22.404-37.618,31.331    c3.501-7.396,6.499-15.519,8.959-24.343c5.791-20.777,8.727-45.605,8.727-73.797v-5.831c0-4.328-3.508-7.837-7.837-7.837    c-4.329,0-7.837,3.509-7.837,7.837v5.831c0,26.769-2.743,50.182-8.151,69.588c-3.784,13.571-8.89,25.189-15.22,34.65    c-6.33-9.457-11.435-21.077-15.218-34.649c-5.409-19.409-8.152-42.821-8.152-69.589v-5.831c0-4.328-3.508-7.837-7.837-7.837    c-4.329,0-7.837,3.509-7.837,7.837v5.831c0,28.189,2.937,53.018,8.728,73.796c2.46,8.824,5.458,16.948,8.957,24.344    c-15.502-8.928-28.117-19.414-37.616-31.331c-14.879-18.67-22.425-41.148-22.425-66.809v-5.831    c0-18.247,14.826-33.092,33.049-33.092c7.081,0,13.836,2.214,19.532,6.403c2.762,2.031,6.524,2.031,9.286,0    c5.697-4.189,12.451-6.403,19.533-6.403c7.08,0,13.835,2.214,19.533,6.404c2.762,2.03,6.522,2.03,9.284,0    c5.698-4.19,12.453-6.404,19.534-6.404c18.223,0,33.049,14.845,33.049,33.092v5.831c0,11.437-1.514,22.364-4.503,32.475    c-1.227,4.15,1.144,8.51,5.294,9.736c4.151,1.226,8.51-1.146,9.735-5.296c2.816-9.529,4.467-19.654,4.966-30.169h11.598    c5.175,0,9.386,4.129,9.386,9.206v97.146c0,8.18-0.542,16.245-1.61,23.968c-0.592,4.287,2.402,8.243,6.689,8.837    c4.286,0.597,8.243-2.401,8.837-6.689c1.166-8.432,1.758-17.219,1.758-26.115v-2.237c4.57,1.074,9.25,1.626,13.992,1.626    c6.688,0,13.31-1.131,19.582-3.242c-0.548,1.881-1.121,3.755-1.747,5.615c-0.725,2.156-0.479,4.518,0.676,6.477    C429.419,280.025,428.296,299.51,417.905,314.034z M433.662,226.651c-8.399,8.327-20.077,13.102-32.037,13.102    c-4.778,0-9.475-0.742-13.992-2.203v-32.834c8.341-3.156,16.215-7.55,23.368-13.123c0.002-0.002,0.005-0.004,0.007-0.006    c0,0,0.001,0,0.002-0.001c0.204-0.159,0.404-0.323,0.604-0.486l0.254-0.207c0.007-0.006,0.015-0.013,0.021-0.019    c5.805-4.641,10.947-9.93,15.357-15.74c5.24,0.057,10.379,0.997,15.276,2.809c0.351,0.131,0.661,0.327,0.922,0.586    c0.255,0.253,0.449,0.551,0.574,0.88C450.176,195.765,446.112,214.309,433.662,226.651z"/>
	</g>
</g>
<g>
	<g>
		<path d="M173.058,238.491c-4.329,0-7.837,3.509-7.837,7.837v14.024c0,4.328,3.508,7.837,7.837,7.837    c4.329,0,7.837-3.509,7.837-7.837v-14.024C180.895,241.999,177.387,238.491,173.058,238.491z"/>
	</g>
</g>
<g>
	<g>
		<path d="M332.527,238.491c-4.329,0-7.837,3.509-7.837,7.837v14.024c0,4.328,3.508,7.837,7.837,7.837s7.837-3.509,7.837-7.837    v-14.024C340.364,241.999,336.855,238.491,332.527,238.491z"/>
	</g>
</g>
<g>
</g>
<g>
</g>
<g>
</g>
<g>
</g>
<g>
</g>
<g>
</g>
<g>
</g>
<g>
</g>
<g>
</g>
<g>
</g>
<g>
</g>
<g>
</g>
<g>
</g>
<g>
</g>
<g>
</g>
</svg>
