<?xml version="1.0" encoding="iso-8859-1"?>
<!-- Generator: Adobe Illustrator 19.0.0, SVG Export Plug-In . SVG Version: 6.00 Build 0)  -->
<svg xmlns="http://www.w3.org/2000/svg" xmlns:xlink="http://www.w3.org/1999/xlink" version="1.1" id="Layer_1" x="0px" y="0px" viewBox="0 0 512.005 512.005" style="enable-background:new 0 0 512.005 512.005;" xml:space="preserve">
<g>
	<g>
		<path d="M258.333,334.862c-4.329,0-7.837,3.509-7.837,7.837v40.732c0,4.328,3.508,7.837,7.837,7.837    c4.328,0.001,7.837-3.508,7.837-7.836v-40.733C266.169,338.37,262.662,334.862,258.333,334.862z"/>
	</g>
</g>
<g>
	<g>
		<path d="M217.898,334.862c-4.329,0-7.837,3.509-7.837,7.837v13.881c0,4.328,3.508,7.837,7.837,7.837    c4.329,0,7.837-3.509,7.837-7.837v-13.881C225.735,338.37,222.227,334.862,217.898,334.862z"/>
	</g>
</g>
<g>
	<g>
		<path d="M298.769,334.862c-4.328,0-7.837,3.509-7.837,7.837v13.881c0,4.328,3.508,7.837,7.837,7.837    c4.328,0,7.837-3.509,7.837-7.837v-13.881C306.606,338.37,303.097,334.862,298.769,334.862z"/>
	</g>
</g>
<g>
	<g>
		<path d="M281.921,414.351h-47.177c-4.329,0-7.837,3.509-7.837,7.837s3.508,7.837,7.837,7.837h47.177    c4.329,0,7.837-3.509,7.837-7.837S286.25,414.351,281.921,414.351z"/>
	</g>
</g>
<g>
	<g>
		<path d="M234.026,309.948h-32.432c-4.329,0-7.837,3.509-7.837,7.837c0,4.328,3.508,7.837,7.837,7.837h32.432    c4.329,0,7.837-3.509,7.837-7.837C241.863,313.457,238.355,309.948,234.026,309.948z"/>
	</g>
</g>
<g>
	<g>
		<path d="M315.601,309.948h-32.434c-4.329,0-7.837,3.509-7.837,7.837c0,4.328,3.508,7.837,7.837,7.837h32.434    c4.329,0,7.837-3.509,7.837-7.837C323.438,313.457,319.93,309.948,315.601,309.948z"/>
	</g>
</g>
<g>
	<g>
		<path d="M505.637,284.462c-14.066-8.14-31.135-14.635-50.031-19.185c18.207-7.096,34.329-15.883,47.218-25.915    c3.86-3.01,5.639-7.859,4.641-12.647c-0.981-4.721-4.632-8.548-9.305-9.752c-13.341-3.429-28.386-5.168-44.716-5.168    c-2.848,0-5.728,0.074-8.621,0.183c15.61-11.741,28.743-24.556,38.445-37.687c2.902-3.939,3.306-9.083,1.053-13.432    c-2.202-4.243-6.539-6.879-11.318-6.879c-0.055,0-0.214,0.001-0.27,0.002c-16.249,0.345-34.205,3.651-52.713,9.567    c11.859-15.511,21.047-31.389,26.843-46.65c1.728-4.577,0.726-9.64-2.612-13.212c-2.404-2.57-5.801-4.046-9.322-4.046    c-1.25,0-2.492,0.184-3.693,0.546c-15.559,4.711-31.961,12.737-48.189,23.426c7.232-18.135,11.798-35.906,13.258-52.165    c0.429-4.873-1.9-9.478-6.081-12.018c-4.077-2.473-9.454-2.419-13.473,0.141c-13.715,8.733-27.351,20.883-40.096,35.558    c2.072-19.419,1.679-37.767-1.306-53.817c-0.899-4.811-4.386-8.618-9.097-9.935c-1.12-0.313-2.279-0.473-3.441-0.473    c-3.622,0-7.082,1.545-9.498,4.241c-10.848,12.106-20.686,27.494-28.991,45.063c-3.253-19.268-8.596-36.837-15.81-51.494    c-2.163-4.388-6.546-7.114-11.438-7.114c-4.824,0-9.316,2.795-11.443,7.118c-7.195,14.618-12.529,32.134-15.783,51.345    c-8.354-17.732-18.266-33.254-29.198-45.44c-2.414-2.692-5.872-4.236-9.491-4.236c-1.161,0-2.319,0.159-3.438,0.471    c-4.652,1.3-8.225,5.204-9.103,9.944c-2.964,15.966-3.36,34.211-1.313,53.526C164.5,79.56,150.793,67.34,137.009,58.573    c-4.018-2.559-9.388-2.616-13.466-0.142c-4.13,2.507-6.518,7.231-6.083,12.034c1.459,16.167,5.99,33.836,13.168,51.877    c-16.312-10.76-32.803-18.831-48.435-23.555c-1.198-0.363-2.442-0.547-3.693-0.547c-3.516,0-6.91,1.473-9.311,4.04    c-3.301,3.525-4.327,8.72-2.61,13.233c5.77,15.175,14.908,30.967,26.69,46.402c-18.612-5.964-36.67-9.295-52.999-9.633    c-0.055-0.001-0.213-0.002-0.267-0.002c-4.776,0-9.112,2.635-11.311,6.873c-2.229,4.286-1.813,9.565,1.059,13.448    c9.654,13.056,22.709,25.801,38.222,37.488c-2.953-0.113-5.892-0.189-8.799-0.189c-16.374,0-31.455,1.747-44.824,5.193    c-4.737,1.221-8.299,4.955-9.295,9.74c-0.987,4.726,0.837,9.696,4.649,12.662c12.825,9.972,28.857,18.715,46.959,25.785    c-19.008,4.563-36.176,11.089-50.309,19.278c-4.231,2.453-6.653,7.009-6.322,11.89c0.327,4.816,3.423,9.108,7.892,10.934    c15.045,6.147,32.759,10.266,52.134,12.201c-17.05,9.509-31.795,20.411-43.179,32.092c-3.416,3.505-4.519,8.548-2.881,13.16    c1.615,4.545,5.753,7.841,10.547,8.398c5.631,0.65,11.596,0.98,17.733,0.98c11.376,0,23.407-1.134,35.787-3.303    c-13.858,13.758-25.118,28.239-32.932,42.567c-2.336,4.294-2.038,9.446,0.784,13.445c2.387,3.38,6.281,5.398,10.418,5.398    c0.668,0,1.34-0.053,2.002-0.158c23.177-3.691,49.034-13.996,74.276-29.39c1.963,12.698,5.386,24.29,10.109,33.883    c1.799,3.664,5.601,6.032,9.686,6.032c3.768,0,7.162-1.924,9.123-5.065c19.759,32.789,55.75,54.783,96.811,54.783    c18.719-0.001,37.263-4.668,53.628-13.498c3.81-2.055,5.231-6.81,3.175-10.618c-2.055-3.809-6.806-5.231-10.618-3.175    c-14.085,7.6-30.056,11.617-46.185,11.618c-39.667,0-73.835-23.829-88.938-57.876c0.628,0.268,1.317,0.418,2.039,0.418h26.04    c2.873,0,5.224-2.351,5.224-5.224v-5.224c0-2.873-2.351-5.224-5.224-5.224h-25.409c0.363-2.257,0.664-4.56,0.932-6.884h24.478    c2.873,0,5.224-2.351,5.224-5.224v-5.224c0-2.873-2.351-5.224-5.224-5.224H174.07c0.029-1.305,0.061-2.609,0.061-3.926    c0-12.678-1.343-24.84-3.896-35.916c4.789-4.648,7.773-11.14,7.773-18.319c0-4.371-1.107-8.487-3.05-12.088    c17.267-28.581,48.738-47.058,83.383-47.058c12.276,0,24.237,2.247,35.55,6.677c4.029,1.58,8.576-0.409,10.155-4.439    c1.579-4.03-0.41-8.576-4.439-10.154c-13.143-5.147-27.026-7.756-41.267-7.756c-39.021,0-74.587,20.195-94.987,51.718    c-0.031-0.016-0.064-0.028-0.097-0.044c3.616-16.913,11.736-32.627,23.74-45.535c16.607-17.857,39.112-28.771,63.37-30.73    c4.314-0.348,7.53-4.128,7.181-8.442c-0.348-4.314-4.148-7.524-8.442-7.181c-28.174,2.275-54.306,14.946-73.587,35.679    c-1.806,1.94-3.534,3.937-5.186,5.984c15.552-32.898,49.148-55.731,88.008-55.731c38.978,0,72.656,22.972,88.145,56.029    c-16.153-20.178-39.183-34.842-65.968-40.162c-4.245-0.842-8.371,1.915-9.213,6.161c-0.843,4.245,1.915,8.37,6.161,9.213    c38.128,7.571,67.434,37.121,75.725,73.774c-0.147,0.052-0.293,0.106-0.438,0.16c-7.045-10.698-15.892-20.24-26.188-28.034    c-3.451-2.611-8.366-1.933-10.978,1.518c-2.612,3.451-1.933,8.367,1.518,10.979c9.253,7.004,17.147,15.638,23.329,25.335    c-2.7,4.05-4.278,8.906-4.278,14.126c0,7.178,2.983,13.67,7.772,18.318c-2.555,11.076-3.897,23.24-3.897,35.917    c0,1.317,0.037,2.62,0.066,3.926h-18.276c-2.873,0-5.224,2.351-5.224,5.224v5.224c0,2.873,2.351,5.224,5.224,5.224h19.342    c0.27,2.328,0.586,4.623,0.95,6.884h-20.292c-2.873,0-5.224,2.351-5.224,5.224v5.224c0,2.873,2.351,5.224,5.224,5.224h23.091    c0.212,0,0.415-0.039,0.621-0.063c0.212,0.749,0.409,1.515,0.632,2.252c-4.768,9.976-11.275,19.166-19.388,27.182    c-3.077,3.043-3.108,8.004-0.064,11.082c1.533,1.551,3.552,2.328,5.573,2.328c1.99,0,3.981-0.753,5.508-2.263    c6.285-6.211,11.74-13.029,16.323-20.317c1.999,2.003,4.741,3.212,7.639,3.212c4.144,0,7.854-2.309,9.683-6.025    c4.326-8.789,7.565-19.248,9.589-30.698c24.412,14.505,49.297,24.209,71.688,27.765c0.654,0.102,1.322,0.155,1.983,0.155    c4.141,0,8.036-2.02,10.412-5.386c2.792-3.941,3.101-9.226,0.787-13.469c-7.782-14.249-18.975-28.651-32.746-42.341    c12.451,2.191,24.552,3.336,35.989,3.336c6.165,0,12.159-0.332,17.823-0.99c4.862-0.57,8.899-3.787,10.532-8.383    c1.622-4.542,0.495-9.712-2.878-13.179c-11.338-11.618-26.002-22.462-42.95-31.929c19.486-1.931,37.301-6.068,52.429-12.256    c4.528-1.859,7.548-6.045,7.881-10.921C512.299,291.554,509.815,286.881,505.637,284.462z M488.142,230.73    c-6.873,4.831-14.631,9.31-23.069,13.385c-0.101-2.795-0.434-5.594-1.016-8.387c-0.582-2.79-1.392-5.488-2.413-8.089    C471.082,228.017,479.955,229.045,488.142,230.73z M48.457,233.844c-0.579,2.792-0.909,5.589-1.009,8.382    c-8.44-4.072-16.199-8.546-23.073-13.373c8.188-1.691,17.058-2.724,26.494-3.107C49.848,228.351,49.037,231.051,48.457,233.844z     M19.719,293.106c7.467-3.854,15.76-7.237,24.674-10.129c-0.28,2.785-0.33,5.603-0.135,8.448c0.196,2.849,0.634,5.637,1.294,8.358    C36.31,298.134,27.644,295.904,19.719,293.106z M42.272,356.54c-3.3,0-6.538-0.106-9.681-0.312    c6.148-5.722,13.22-11.215,21.023-16.402c0.482,2.759,1.194,5.488,2.151,8.177c0.957,2.685,2.13,5.247,3.497,7.686    C53.454,356.25,47.774,356.54,42.272,356.54z M193.039,49.843c5.298,6.516,10.305,13.939,14.956,22.07    c-2.786,0.293-5.559,0.817-8.31,1.588c-2.749,0.772-5.388,1.767-7.919,2.965C191.501,67.105,191.911,58.163,193.039,49.843z     M154.144,92.506c-2.601,1.031-5.128,2.283-7.567,3.765c-2.439,1.485-4.714,3.156-6.826,4.992    c-2.783-8.943-4.805-17.662-5.965-25.977C140.646,80.133,147.47,85.931,154.144,92.506z M122.789,135.946    c7.484,4.984,14.941,10.589,22.263,16.745c1.949,3.525,3.976,7.043,6.106,10.541c2.487,4.079,5.051,8.06,7.683,11.937    l-16.856-15.714c-3.166-2.952-8.124-2.777-11.076,0.389c-2.951,3.166-2.776,8.125,0.389,11.076l16.685,15.554    c-4.151-2.418-8.405-4.761-12.758-7.011c-3.55-1.836-7.114-3.569-10.679-5.232c-6.579-6.807-12.628-13.784-18.068-20.828    c1.551-3.755,3.748-7.175,6.565-10.196C115.865,140.185,119.136,137.757,122.789,135.946z M83.6,115.752    c7.915,2.818,16.052,6.562,24.254,11.095c-2.226,1.695-4.322,3.579-6.268,5.662c-1.948,2.088-3.686,4.309-5.226,6.646    C91.266,131.295,86.963,123.445,83.6,115.752z M64.814,187.334c-7.029-6.195-13.291-12.594-18.608-19.095    c8.382,0.582,17.228,1.994,26.349,4.148c-1.684,2.232-3.194,4.611-4.507,7.142C66.738,182.063,65.663,184.669,64.814,187.334z     M63.802,237.029c0.84-4.042,2.367-7.807,4.54-11.244c9.036,0.372,18.292,1.278,27.701,2.73c3.511,2.008,7.093,3.963,10.745,5.852    c4.242,2.193,8.499,4.258,12.759,6.203l-22.556-4.674c-4.226-0.876-8.385,1.845-9.263,6.083c-0.879,4.238,1.845,8.385,6.083,9.264    l22.315,4.624c-4.804,0.09-9.662,0.3-14.502,0.631c-3.989,0.274-7.936,0.643-11.848,1.072c-9.166-2.403-17.965-5.227-26.28-8.423    C62.867,245.134,62.964,241.072,63.802,237.029z M59.895,290.346c-0.284-4.118,0.17-8.159,1.336-12.056    c13-3.059,26.959-5.159,41.467-6.154c6.255-0.429,12.54-0.647,18.679-0.647c8.685,0,17.103,0.434,25.186,1.268    c-0.18,1.266-0.341,2.538-0.479,3.817l-54.532,3.743c-4.319,0.297-7.578,4.037-7.282,8.355c0.283,4.136,3.726,7.301,7.811,7.301    c0.181,0,0.363-0.006,0.544-0.019l52.81-3.625v3.963c-0.77,0.217-1.52,0.48-2.259,0.766c-12.116,2.687-25.005,4.559-38.379,5.478    c-6.251,0.428-12.531,0.646-18.666,0.646c-7.989,0-15.76-0.362-23.251-1.066C61.186,298.419,60.181,294.474,59.895,290.346z     M76.582,353.272c-2.631-3.106-4.663-6.632-6.052-10.528c-1.385-3.889-2.039-7.901-1.969-11.967    c7.869-4.342,16.279-8.373,25.116-12.032c4.049-0.109,8.123-0.292,12.19-0.57c4.768-0.328,9.48-0.773,14.134-1.323l-21.693,7.708    c-4.078,1.449-6.21,5.93-4.762,10.008c1.141,3.211,4.161,5.215,7.384,5.215c0.87,0,1.758-0.146,2.624-0.455l21.525-7.649    c-4.057,2.567-8.095,5.256-12.097,8.079c-3.281,2.314-6.484,4.681-9.616,7.09C94.314,349.544,85.348,351.688,76.582,353.272z     M62.029,413.545c4.376-7.168,9.702-14.364,15.816-21.462c1.21,2.528,2.634,4.965,4.284,7.298    c1.645,2.325,3.463,4.474,5.437,6.451C78.824,409.214,70.253,411.823,62.029,413.545z M131.901,354.663l-15.134,10.677    c-3.537,2.495-4.381,7.384-1.886,10.921c1.527,2.164,3.949,3.32,6.41,3.32c1.561,0,3.138-0.465,4.51-1.434l4.881-3.443    c0,0.139-0.005,0.276-0.005,0.415c0,2.774,0.066,5.526,0.194,8.249c-9.054,5.879-18.202,11.067-27.277,15.47    c-3.372-2.284-6.281-5.132-8.669-8.508c-2.384-3.372-4.098-7.057-5.127-10.992c9.516-9.359,20.348-18.394,32.224-26.772    c3.765-2.656,7.558-5.176,11.365-7.586C132.796,348.137,132.3,351.368,131.901,354.663z M152.4,416.872    c-3.936-12.025-6.05-26.437-6.05-41.755c0-10.18,0.95-19.926,2.75-28.893c1.08,0.14,2.181,0.219,3.3,0.219    s2.219-0.079,3.301-0.219c1.8,8.967,2.749,18.714,2.749,28.893C158.45,390.434,156.335,404.848,152.4,416.872z M152.4,330.77    c-5.471,0-9.923-4.436-9.923-9.887s4.452-9.887,9.923-9.887c5.473,0,9.927,4.436,9.927,9.887S157.873,330.77,152.4,330.77z     M167.368,222.067l-53.138-27.48c-3.845-1.987-8.573-0.483-10.561,3.361c-1.987,3.845-0.483,8.573,3.361,10.561l51.891,26.834    c-0.512,0.945-1.008,1.9-1.493,2.861c-14.21-4.272-28.889-10.235-43.438-17.759c-12.911-6.679-24.881-14.15-35.59-22.121    c0.478-4.032,1.669-7.918,3.567-11.586c1.903-3.67,4.395-6.889,7.423-9.615c12.701,4.133,25.719,9.584,38.635,16.262    c15.175,7.848,29.057,16.789,41.104,26.361C168.532,220.511,167.946,221.286,167.368,222.067z M210.787,186.591l-32.588-53.483    c-2.252-3.698-7.075-4.868-10.77-2.615c-3.696,2.252-4.866,7.074-2.614,10.77l32.239,52.909c-0.707,0.458-1.411,0.922-2.108,1.395    c-10.844-11.638-21.164-25.327-30.405-40.489c-7.556-12.406-13.896-24.998-18.898-37.364c2.508-3.199,5.547-5.902,9.078-8.051    c3.538-2.151,7.344-3.609,11.351-4.367c8.701,10.121,16.989,21.533,24.55,33.94c9.404,15.434,16.934,31.162,22.322,46.38    C212.22,185.934,211.501,186.259,210.787,186.591z M220.19,117.498c-1.169-4.167-5.498-6.596-9.664-5.425    c-4.167,1.17-6.596,5.497-5.425,9.664l6.185,22.015c-2.298-4.24-4.72-8.469-7.28-12.67c-2.083-3.419-4.224-6.766-6.411-10.042    c-2.075-9.219-3.612-18.307-4.595-27.138c3.282-2.405,6.94-4.189,10.921-5.308c3.984-1.118,8.042-1.496,12.107-1.147    c3.827,8.199,7.305,16.922,10.376,26.052c-0.163,3.954-0.261,7.939-0.261,11.961c0,4.899,0.132,9.752,0.373,14.549L220.19,117.498    z M257.075,41.315c3.337,7.706,6.15,16.204,8.428,25.289c-2.762-0.47-5.572-0.714-8.428-0.714c-2.857,0-5.669,0.243-8.429,0.714    C250.923,57.519,253.735,49.02,257.075,41.315z M267.296,176.465c-0.792-0.063-1.589-0.113-2.385-0.159v-62.522    c0-4.328-3.508-7.837-7.837-7.837c-4.329,0-7.837,3.509-7.837,7.837v62.693c-0.782,0.063-1.563,0.13-2.34,0.208    c-3.323-15.804-5.083-33.149-5.083-51.226c0-14.522,1.138-28.572,3.301-41.734c3.811-1.432,7.817-2.161,11.959-2.161    c4.141,0,8.147,0.729,11.958,2.161c2.163,13.163,3.301,27.213,3.301,41.734C272.332,143.452,270.587,160.721,267.296,176.465z     M455.71,349.817c0.956-2.69,1.668-5.419,2.148-8.175c7.807,5.184,14.883,10.674,21.034,16.391    c-3.168,0.211-6.432,0.318-9.761,0.318c-5.477,0-11.13-0.288-16.914-0.842C453.584,355.068,454.755,352.505,455.71,349.817z     M448.713,238.922c0.842,4.044,0.943,8.105,0.317,12.122c-8.395,3.231-17.289,6.077-26.544,8.502    c-4.006-0.443-8.049-0.818-12.136-1.097c-4.73-0.323-9.477-0.527-14.175-0.618l22.542-4.681c4.238-0.88,6.96-5.029,6.08-9.266    c-0.881-4.238-5.034-6.962-9.266-6.079l-22.364,4.643c4.37-1.99,8.735-4.103,13.085-6.354c3.556-1.841,7.044-3.744,10.467-5.698    c9.32-1.428,18.498-2.339,27.455-2.713C446.344,231.116,447.87,234.88,448.713,238.922z M466.804,169.937    c-5.314,6.505-11.574,12.91-18.601,19.108c-0.853-2.667-1.931-5.275-3.247-7.81c-1.313-2.53-2.822-4.907-4.508-7.137    C449.577,171.937,458.425,170.52,466.804,169.937z M429.836,117.15c-3.36,7.696-7.659,15.549-12.751,23.412    c-1.541-2.339-3.284-4.56-5.236-6.648c-1.947-2.081-4.042-3.963-6.265-5.656C413.784,123.722,421.92,119.974,429.836,117.15z     M390.653,137.366c3.65,1.805,6.92,4.231,9.748,7.254c2.823,3.02,5.023,6.439,6.576,10.193    c-5.492,7.116-11.609,14.161-18.255,21.035c-3.651,1.7-7.3,3.477-10.937,5.359c-4.247,2.2-8.403,4.485-12.459,6.843l16.837-15.709    c3.164-2.953,3.336-7.912,0.385-11.076c-2.953-3.165-7.911-3.338-11.077-0.385l-16.709,15.589    c2.701-3.972,5.333-8.052,7.88-12.237c2.076-3.411,4.051-6.84,5.955-10.278C375.852,147.867,383.239,142.308,390.653,137.366z     M379.98,76.28c-1.157,8.316-3.174,17.038-5.953,25.982c-2.117-1.837-4.396-3.507-6.84-4.991c-2.438-1.48-4.962-2.728-7.561-3.758    C366.297,86.934,373.121,81.132,379.98,76.28z M320.933,50.36c1.133,8.319,1.545,17.262,1.284,26.623    c-2.533-1.197-5.176-2.191-7.929-2.96c-2.748-0.769-5.519-1.292-8.303-1.583C310.635,64.306,315.638,56.881,320.933,50.36z     M293.812,118.025l-6.182,22.038c0.243-4.816,0.376-9.686,0.376-14.607c0-3.987-0.096-7.941-0.257-11.865    c3.03-8.966,6.451-17.548,10.214-25.618c4.055-0.352,8.113,0.025,12.102,1.142c3.985,1.115,7.646,2.895,10.927,5.3    c-0.991,8.92-2.549,18.105-4.649,27.416c-2.24,3.352-4.43,6.778-6.562,10.279c-2.496,4.1-4.863,8.225-7.109,12.362l6.231-22.214    c1.168-4.167-1.262-8.493-5.429-9.662C299.307,111.427,294.981,113.857,293.812,118.025z M320.532,194.775    c-0.835-0.551-1.677-1.091-2.527-1.621l30.974-50.882c2.251-3.697,1.078-8.518-2.619-10.769c-3.698-2.251-8.518-1.078-10.77,2.619    l-31.457,51.674c-0.849-0.377-1.704-0.744-2.564-1.101c5.326-14.61,12.605-29.655,21.6-44.433    c7.555-12.41,15.839-23.827,24.536-33.953c4.002,0.754,7.806,2.21,11.347,4.359c3.536,2.148,6.578,4.848,9.087,8.046    c-4.998,12.369-11.334,24.965-18.886,37.371C340.495,170.472,330.762,183.531,320.532,194.775z M349.231,221.974    c-0.722-0.976-1.456-1.942-2.209-2.894c11.301-8.66,24.085-16.766,37.967-23.953c12.914-6.684,25.933-12.143,38.629-16.282    c3.026,2.721,5.52,5.938,7.426,9.61c1.902,3.668,3.096,7.552,3.578,11.586c-10.705,7.977-22.671,15.452-35.58,22.134    c-13.22,6.843-26.549,12.395-39.535,16.566c-0.587-1.177-1.189-2.346-1.815-3.498l48.303-25.004    c3.843-1.99,5.346-6.719,3.356-10.562c-1.989-3.845-6.719-5.347-10.562-3.357L349.231,221.974z M361.746,416.872    c-3.936-12.025-6.051-26.438-6.051-41.754c0-10.179,0.949-19.925,2.75-28.894c1.081,0.14,2.182,0.219,3.301,0.219    c1.118,0,2.218-0.079,3.3-0.219c1.8,8.967,2.749,18.714,2.749,28.893C367.795,390.434,365.68,404.847,361.746,416.872z     M361.746,330.77c-5.472,0-9.924-4.436-9.924-9.887s4.452-9.887,9.924-9.887c5.473,0,9.927,4.436,9.927,9.887    S367.219,330.77,361.746,330.77z M416.082,391.912c-2.387,3.378-5.292,6.228-8.664,8.514c-8.096-3.924-16.253-8.467-24.347-13.571    c0.186-2.756,0.305-5.545,0.358-8.361l1.771,1.249c1.372,0.968,2.948,1.433,4.508,1.433c2.463,0,4.887-1.157,6.412-3.322    c2.494-3.538,1.648-8.427-1.89-10.92l-11.541-8.135c-0.315-3.306-0.721-6.555-1.225-9.735c2.509,1.648,5.011,3.343,7.5,5.096    c11.878,8.374,22.717,17.405,32.238,26.761C420.175,384.852,418.464,388.538,416.082,391.912z M433.16,393.658    c6.117,7.096,11.449,14.29,15.828,21.455c-8.226-1.719-16.798-4.324-25.54-7.701c1.974-1.98,3.791-4.13,5.436-6.459    C430.531,398.621,431.953,396.183,433.16,393.658z M440.944,344.568c-1.385,3.894-3.416,7.421-6.045,10.532    c-8.859-1.596-17.925-3.778-27.075-6.506c-3.198-2.462-6.473-4.882-9.827-7.246c-3.905-2.752-7.844-5.38-11.803-7.889    l21.724,7.709c0.866,0.307,1.75,0.453,2.621,0.453c3.225,0,6.246-2.005,7.385-5.218c1.447-4.079-0.685-8.559-4.766-10.007    l-21.514-7.635c4.771,0.567,9.603,1.028,14.493,1.362c3.967,0.271,7.944,0.45,11.896,0.559c8.743,3.63,17.076,7.621,24.874,11.918    C442.98,336.663,442.327,340.673,440.944,344.568z M452.096,292.278c-0.282,4.127-1.285,8.071-2.977,11.773    c-7.522,0.709-15.326,1.075-23.352,1.075c-6.102,0-12.347-0.215-18.565-0.638c-10.21-0.697-20.14-1.948-29.667-3.685    c-1.905-1.495-4.023-2.732-6.305-3.646v-2.539l48.137,3.284c0.182,0.013,0.363,0.019,0.542,0.019c4.085,0,7.529-3.167,7.811-7.304    c0.295-4.319-2.967-8.057-7.285-8.352l-49.634-3.387c-0.134-1.541-0.289-3.075-0.486-4.599c6.61-0.542,13.419-0.831,20.406-0.831    c6.1,0,12.344,0.215,18.557,0.638c14.509,0.991,28.468,3.082,41.472,6.137C451.921,284.115,452.378,288.155,452.096,292.278z     M466.443,301.707c0.659-2.722,1.095-5.512,1.289-8.362c0.194-2.845,0.142-5.662-0.14-8.444    c8.917,2.888,17.214,6.268,24.682,10.118C484.352,297.821,475.687,300.054,466.443,301.707z"/>
	</g>
</g>
<g>
</g>
<g>
</g>
<g>
</g>
<g>
</g>
<g>
</g>
<g>
</g>
<g>
</g>
<g>
</g>
<g>
</g>
<g>
</g>
<g>
</g>
<g>
</g>
<g>
</g>
<g>
</g>
<g>
</g>
</svg>
