<?xml version="1.0" encoding="iso-8859-1"?>
<!-- Generator: Adobe Illustrator 19.0.0, SVG Export Plug-In . SVG Version: 6.00 Build 0)  -->
<svg xmlns="http://www.w3.org/2000/svg" xmlns:xlink="http://www.w3.org/1999/xlink" version="1.1" id="Layer_1" x="0px" y="0px" viewBox="0 0 512 512" style="enable-background:new 0 0 512 512;" xml:space="preserve">
<g>
	<g>
		<path d="M494.532,442.441h-83.539V288.392c0-4.328-3.508-7.837-7.837-7.837c-4.329,0-7.837,3.509-7.837,7.837v30.837h-28.227    V29.919h25.615c1.416,0,2.612,1.196,2.612,2.612V256c0,4.328,3.508,7.837,7.837,7.837s7.837-3.509,7.837-7.837V32.531    c0-10.082-8.203-18.286-18.286-18.286H119.291c-10.082,0-18.286,8.203-18.286,18.286v409.91H17.468    c-9.632,0-17.468,7.81-17.468,17.41v20.491c0,9.602,7.836,17.412,17.468,17.412H413.78c4.329,0,7.837-3.509,7.837-7.837    c0-4.328-3.508-7.837-7.837-7.837H17.468c-0.973,0-1.794-0.796-1.794-1.739v-20.491c0-0.941,0.822-1.737,1.794-1.737h155.985    c4.328,0,7.837-3.509,7.837-7.837s-3.509-7.837-7.837-7.837h-56.775V334.902H395.32v107.539H207.934    c-4.328,0-7.837,3.509-7.837,7.837c0,4.328,3.509,7.837,7.837,7.837h286.599c0.973,0,1.794,0.795,1.794,1.737v20.492    c0,0.943-0.821,1.739-1.794,1.739h-47.316c-4.329,0-7.837,3.509-7.837,7.837c0,4.328,3.508,7.837,7.837,7.837h47.316    c9.632,0,17.468-7.811,17.468-17.412v-20.492C512,450.251,504.164,442.441,494.532,442.441z M144.905,319.228h-28.227V32.531    c0-1.416,1.196-2.612,2.612-2.612h25.615V319.228z M228.287,319.228h-27.954V194.351c0-4.328-3.509-7.837-7.837-7.837    s-7.837,3.509-7.837,7.837v124.878h-24.08V29.919h24.08v135.175c0,4.328,3.509,7.837,7.837,7.837c4.328,0,7.837-3.509,7.837-7.837    V29.919h27.954V319.228z M268.039,319.228h-24.08V29.919h24.08V319.228z M311.667,319.228h-27.954V29.919h27.954V319.228z     M351.42,319.229h-24.08V29.919h24.08V319.229z"/>
	</g>
</g>
<g>
	<g>
		<path d="M211.549,375.319c-1.44-4.396-5.131-7.778-9.629-8.825l-11.186-2.613l-5.945-9.811c-2.4-3.951-6.764-6.405-11.386-6.405    c-4.628,0-8.992,2.456-11.394,6.413l-5.94,9.804l-11.177,2.612c-4.509,1.049-8.201,4.435-9.64,8.843    c-1.428,4.397-0.437,9.303,2.592,12.808l7.503,8.667l-0.964,11.419c-0.388,4.606,1.699,9.156,5.445,11.875    c2.288,1.661,4.994,2.539,7.825,2.539c1.779,0,3.515-0.351,5.153-1.04l10.595-4.447l10.579,4.441    c1.644,0.694,3.382,1.046,5.167,1.046c2.832,0,5.538-0.878,7.828-2.539c3.758-2.727,5.842-7.288,5.442-11.875l-0.96-11.42    l7.499-8.665C211.991,384.643,212.987,379.733,211.549,375.319z M187.981,388.427c-1.734,2.023-2.588,4.697-2.349,7.269    l0.837,9.948l-9.218-3.869c-2.463-1.045-5.32-1.02-7.679-0.01l-9.245,3.881l0.836-9.897c0.242-2.66-0.626-5.344-2.37-7.35    l-6.524-7.537l9.732-2.274c2.579-0.601,4.843-2.244,6.209-4.504l5.19-8.567l5.181,8.549c1.369,2.273,3.636,3.922,6.213,4.519    l9.736,2.275L187.981,388.427z"/>
	</g>
</g>
<g>
	<g>
		<path d="M294.145,375.318c-1.44-4.397-5.132-7.779-9.629-8.825l-11.184-2.613l-5.945-9.808c-2.399-3.953-6.763-6.408-11.386-6.408    c-4.628,0-8.992,2.456-11.393,6.413l-5.942,9.804l-11.176,2.612c-4.507,1.048-8.2,4.432-9.643,8.848    c-1.425,4.396-0.434,9.301,2.594,12.804l7.503,8.668l-0.966,11.422c-0.386,4.607,1.703,9.158,5.444,11.87    c2.287,1.662,4.995,2.541,7.828,2.541c1.779,0,3.515-0.351,5.154-1.04l10.593-4.447l10.584,4.442    c1.643,0.694,3.38,1.045,5.165,1.045c2.83,0,5.536-0.878,7.824-2.538c3.761-2.727,5.845-7.288,5.444-11.876l-0.96-11.421    l7.501-8.666C294.592,384.635,295.585,379.723,294.145,375.318z M270.581,388.428c-1.733,2.022-2.587,4.696-2.348,7.268    l0.837,9.95l-9.209-3.865c-2.464-1.049-5.327-1.026-7.689-0.016l-9.244,3.881l0.837-9.912c0.237-2.656-0.632-5.334-2.372-7.336    l-6.524-7.537l9.727-2.274c2.58-0.6,4.846-2.243,6.212-4.503l5.191-8.566l5.17,8.527c1.365,2.282,3.636,3.938,6.224,4.54    l9.736,2.275L270.581,388.428z"/>
	</g>
</g>
<g>
	<g>
		<path d="M376.743,375.318c-1.44-4.397-5.131-7.778-9.629-8.825l-11.185-2.613l-5.945-9.808c-2.399-3.953-6.763-6.408-11.386-6.408    c-4.628,0-8.991,2.456-11.392,6.413l-5.941,9.804l-11.176,2.612c-4.51,1.048-8.205,4.435-9.642,8.844    c-1.427,4.396-0.437,9.301,2.593,12.808l7.504,8.668l-0.964,11.418c-0.388,4.607,1.699,9.159,5.444,11.876    c2.288,1.661,4.995,2.539,7.825,2.539c1.781,0,3.516-0.351,5.156-1.04l10.593-4.447l10.58,4.441    c1.644,0.694,3.382,1.046,5.168,1.046c2.83,0,5.536-0.878,7.824-2.538c3.761-2.727,5.845-7.288,5.444-11.876l-0.96-11.42    l7.502-8.667C377.188,384.637,378.182,379.727,376.743,375.318z M353.186,388.42c-1.739,2.023-2.596,4.7-2.356,7.277l0.837,9.95    l-9.209-3.865c-2.467-1.049-5.345-1.02-7.688-0.016l-9.243,3.881l0.838-9.925c0.231-2.647-0.635-5.316-2.374-7.322l-6.524-7.537    l9.727-2.274c2.577-0.599,4.841-2.239,6.214-4.503l5.19-8.565l5.175,8.537c1.367,2.277,3.635,3.928,6.219,4.53l9.736,2.275    L353.186,388.42z"/>
	</g>
</g>
<g>
</g>
<g>
</g>
<g>
</g>
<g>
</g>
<g>
</g>
<g>
</g>
<g>
</g>
<g>
</g>
<g>
</g>
<g>
</g>
<g>
</g>
<g>
</g>
<g>
</g>
<g>
</g>
<g>
</g>
</svg>
