<?xml version="1.0" encoding="iso-8859-1"?>
<!-- Generator: Adobe Illustrator 19.0.0, SVG Export Plug-In . SVG Version: 6.00 Build 0)  -->
<svg xmlns="http://www.w3.org/2000/svg" xmlns:xlink="http://www.w3.org/1999/xlink" version="1.1" id="Layer_1" x="0px" y="0px" viewBox="0 0 512 512" style="enable-background:new 0 0 512 512;" xml:space="preserve">
<g>
	<g>
		<path d="M486.942,240.849c4.328,0,7.837-3.509,7.837-7.837V77.5c0-42.733-34.848-77.5-77.682-77.5    c-42.832,0-77.68,34.767-77.68,77.5v196.826c0,32.824,20.571,60.929,49.519,72.207v10.36c0,7.414,4.39,13.805,10.699,16.762    v119.823c0,10.213,7.834,18.522,17.463,18.522c9.629,0,17.463-8.309,17.463-18.522V373.656    c6.309-2.957,10.699-9.349,10.699-16.762v-10.361c28.948-11.278,49.519-39.381,49.519-72.206v-12.057    c0-4.328-3.509-7.837-7.837-7.837c-4.328,0-7.837,3.509-7.837,7.837v12.057c0,34.091-27.817,61.827-62.008,61.827    c-34.19,0-62.006-27.735-62.006-61.827V77.5c0-34.091,27.816-61.827,62.006-61.827c34.191,0,62.008,27.736,62.008,61.827v155.512    C479.106,237.34,482.613,240.849,486.942,240.849z M418.888,493.478c0,1.713-1.077,2.848-1.79,2.848    c-0.713,0-1.79-1.136-1.79-2.848V375.415h3.58V493.478z M404.61,350.811c4.068,0.658,8.236,1.015,12.488,1.015    s8.421-0.355,12.49-1.015v6.082c0,1.544-1.308,2.848-2.857,2.848h-19.264c-1.549,0-2.857-1.305-2.857-2.848V350.811z"/>
	</g>
</g>
<g>
	<g>
		<path d="M401.593,139.621h31.01c0.271,0,0.539-0.014,0.802-0.041c11.613-0.426,20.937-9.977,20.937-21.687    c0-11.709-9.323-21.261-20.937-21.687c-0.263-0.027-0.532-0.041-0.802-0.041h-31.01c-3.345,0-6.066-2.716-6.066-6.054    c0-3.337,2.721-6.053,6.066-6.053h31.01c0.271,0,0.539-0.014,0.802-0.041c11.613-0.426,20.937-9.977,20.937-21.687    c0-11.981-9.752-21.728-21.739-21.728h-19.62c-4.328,0-7.837,3.509-7.837,7.837c0,4.328,3.509,7.837,7.837,7.837h19.62    c3.345,0,6.066,2.716,6.066,6.054s-2.721,6.054-6.066,6.054h-31.01c-0.271,0-0.539,0.014-0.802,0.041    c-11.613,0.426-20.937,9.977-20.937,21.687c0,11.709,9.323,21.26,20.937,21.686c0.264,0.027,0.532,0.041,0.802,0.041h31.01    c3.345,0,6.066,2.716,6.066,6.054s-2.721,6.054-6.066,6.054h-31.01c-0.271,0-0.539,0.014-0.802,0.041    c-11.613,0.426-20.937,9.977-20.937,21.687c0,11.71,9.323,21.261,20.937,21.687c0.264,0.027,0.532,0.041,0.802,0.041h31.01    c3.345,0,6.066,2.716,6.066,6.054s-2.721,6.054-6.066,6.054h-31.01c-0.271,0-0.539,0.014-0.802,0.041    c-11.613,0.426-20.937,9.977-20.937,21.686c0,11.685,9.277,21.246,20.857,21.71c0.174,0.011,0.352,0.018,0.53,0.018h0.352    c4.328,0,7.837-3.509,7.837-7.837c0-4.328-3.509-7.837-7.837-7.837c-3.345,0-6.066-2.716-6.066-6.054    c0-3.337,2.721-6.053,6.066-6.053h31.01c0.271,0,0.539-0.014,0.802-0.041c11.613-0.426,20.937-9.977,20.937-21.687    c0-11.71-9.323-21.261-20.937-21.687c-0.263-0.027-0.532-0.041-0.802-0.041h-31.01c-3.345,0-6.066-2.716-6.066-6.054    S398.248,139.621,401.593,139.621z"/>
	</g>
</g>
<g>
	<g>
		<path d="M433.405,262.895c-0.263-0.027-0.532-0.041-0.802-0.041h-31.01c-3.345,0-6.066-2.716-6.066-6.054    c0-3.339,2.722-6.053,6.067-6.053h31.01c0.271,0,0.539-0.014,0.802-0.041c11.613-0.426,20.937-9.977,20.937-21.687    c0-11.981-9.752-21.728-21.739-21.728h-3.15c-4.328,0-7.837,3.509-7.837,7.837c0,4.328,3.509,7.837,7.837,7.837h3.149    c3.345,0,6.066,2.716,6.066,6.054c0,3.338-2.721,6.054-6.066,6.054h-31.01c-0.271,0-0.539,0.014-0.802,0.041    c-11.613,0.426-20.937,9.977-20.937,21.687c0,11.709,9.323,21.261,20.937,21.687c0.264,0.027,0.532,0.041,0.802,0.041h31.01    c3.345,0,6.066,2.716,6.066,6.053c0,3.338-2.721,6.054-6.066,6.054h-2.51h-6.417h-2.674c-8.302,0-15.227,6.195-16.657,14.338    c-0.176,0.653-0.27,1.339-0.27,2.047v6.719c0,4.328,3.509,7.837,7.837,7.837c4.328,0,7.837-3.509,7.837-7.837v-5.651    c0-1.003,0.674-1.781,1.253-1.781h2.674h6.417h2.51c11.987,0,21.739-9.747,21.739-21.728    C454.341,272.872,445.019,263.322,433.405,262.895z"/>
	</g>
</g>
<g>
	<g>
		<path d="M110.408,40.604h-19.62c-4.328,0-7.837,3.509-7.837,7.837c0,4.328,3.509,7.837,7.837,7.837h19.62    c3.344,0,6.065,2.716,6.065,6.054s-2.721,6.054-6.065,6.054H79.397c-0.271,0-0.539,0.014-0.802,0.041    c-11.613,0.426-20.936,9.977-20.936,21.687c0,11.114,8.391,20.304,19.173,21.576c0.497,0.099,1.01,0.15,1.536,0.15h1.029    c4.328,0,7.837-3.509,7.837-7.837c0-4.328-3.509-7.837-7.837-7.837c-3.344,0-6.065-2.716-6.065-6.054s2.721-6.054,6.065-6.054    h31.012c0.271,0,0.539-0.014,0.802-0.041c11.613-0.426,20.936-9.977,20.936-21.687C132.146,50.351,122.394,40.604,110.408,40.604z    "/>
	</g>
</g>
<g>
	<g>
		<path d="M164.746,166.661c4.328,0,7.837-3.509,7.837-7.837V77.5c0-42.733-34.847-77.5-77.681-77.5    C52.069,0,17.221,34.767,17.221,77.5v196.826c0,32.826,20.572,60.929,49.52,72.207v10.36c0,7.414,4.39,13.804,10.698,16.762    v119.823c0,10.213,7.835,18.522,17.463,18.522c9.629,0,17.463-8.309,17.463-18.522V373.657    c6.309-2.957,10.699-9.349,10.699-16.763v-10.361c28.948-11.278,49.519-39.381,49.519-72.206v-87.29    c0-4.328-3.509-7.837-7.837-7.837c-4.328,0-7.837,3.509-7.837,7.837v87.29c0,34.091-27.816,61.827-62.007,61.827    c-34.191,0-62.007-27.735-62.007-61.827V77.5c0-34.091,27.817-61.827,62.007-61.827c34.19,0,62.007,27.736,62.007,61.827v81.324    C156.909,163.152,160.418,166.661,164.746,166.661z M96.692,493.478c0,1.713-1.077,2.848-1.79,2.848    c-0.713,0-1.79-1.136-1.79-2.848V375.415h3.58C96.692,375.415,96.692,493.478,96.692,493.478z M82.414,350.811    c4.068,0.658,8.236,1.015,12.488,1.015c4.252,0,8.421-0.356,12.489-1.016v6.082c0,1.544-1.308,2.848-2.856,2.848H85.27    c-1.547,0-2.856-1.305-2.856-2.848V350.811z"/>
	</g>
</g>
<g>
	<g>
		<path d="M111.212,262.895c-0.263-0.027-31.814-0.041-31.814-0.041c-3.344,0-6.065-2.716-6.065-6.054    c0-3.339,2.721-6.054,6.065-6.054h31.012c0.271,0,0.539-0.014,0.802-0.041c11.613-0.426,20.936-9.977,20.936-21.687    c0-11.71-9.323-21.26-20.936-21.687c-0.263-0.027-0.532-0.041-0.802-0.041H79.397c-3.344,0-6.065-2.716-6.065-6.054    c0-3.337,2.721-6.053,6.065-6.053h31.011c0.271,0,0.539-0.014,0.802-0.041c11.613-0.426,20.936-9.977,20.936-21.687    c0-11.71-9.323-21.261-20.936-21.687c-0.263-0.027-0.532-0.041-0.802-0.041H79.397c-3.344,0-6.065-2.716-6.065-6.054    c0.001-3.337,2.721-6.053,6.065-6.053h31.011c0.271,0,0.539-0.014,0.802-0.041c11.613-0.426,20.936-9.977,20.936-21.687    c0-11.686-9.278-21.247-20.858-21.71c-0.174-0.011-0.351-0.018-0.529-0.018h-0.351c-4.328,0-7.837,3.509-7.837,7.837    c0,4.328,3.509,7.837,7.837,7.837c3.344,0,6.065,2.716,6.065,6.054s-2.721,6.054-6.065,6.054H79.397    c-0.271,0-0.539,0.014-0.802,0.041c-11.613,0.426-20.936,9.977-20.936,21.687c0,11.71,9.323,21.261,20.936,21.687    c0.263,0.027,0.532,0.041,0.802,0.041h31.011c3.344,0,6.065,2.716,6.065,6.054s-2.721,6.054-6.065,6.054H79.397    c-0.271,0-0.539,0.014-0.802,0.041c-11.613,0.426-20.936,9.977-20.936,21.686c0,11.71,9.323,21.261,20.936,21.687    c0.263,0.027,0.532,0.041,0.802,0.041h31.011c3.344,0,6.065,2.716,6.065,6.054s-2.721,6.054-6.065,6.054H79.397    c-0.271,0-0.539,0.014-0.802,0.041c-11.613,0.426-20.936,9.977-20.936,21.687c0,11.709,9.323,21.26,20.936,21.687    c0.263,0.027,31.814,0.041,31.814,0.041c3.344,0,6.065,2.716,6.065,6.053c0,3.339-2.721,6.054-6.065,6.054h-11.6    c-8.302,0-15.226,6.196-16.656,14.338c-0.177,0.653-0.27,1.339-0.27,2.047v6.719c0,4.328,3.509,7.837,7.837,7.837    s7.837-3.509,7.837-7.837v-5.651c0-1.003,0.673-1.781,1.252-1.781h11.602c11.986,0,21.738-9.747,21.738-21.728    C132.147,272.872,122.825,263.322,111.212,262.895z"/>
	</g>
</g>
<g>
	<g>
		<path d="M315.195,27.31c-2.808-3.294-7.754-3.686-11.048-0.88c-3.294,2.808-3.687,7.754-0.88,11.048    c9.505,11.151,14.74,25.364,14.74,40.022v34.192c-1.281-0.913-2.845-1.456-4.538-1.456h-1.045c-4.328,0-7.837,3.509-7.837,7.837    s3.509,7.837,7.837,7.837h1.045c1.693,0,3.257-0.542,4.538-1.456v149.871c0,34.091-27.816,61.827-62.007,61.827    s-62.007-27.735-62.007-61.827V77.5c0-34.091,27.816-61.827,62.007-61.827c9.076,0,17.818,1.908,25.982,5.671    c3.93,1.81,8.586,0.092,10.398-3.837c1.811-3.931,0.093-8.586-3.837-10.398C278.306,2.393,267.358,0,256,0    c-42.833,0-77.681,34.767-77.681,77.5v196.826c0,32.824,20.571,60.928,49.519,72.206v10.361c0,7.414,4.39,13.805,10.699,16.762    v119.823c0,10.213,7.835,18.522,17.463,18.522s17.463-8.309,17.463-18.522v-43.127c0-4.328-3.509-7.837-7.837-7.837    c-4.328,0-7.837,3.509-7.837,7.837v43.127c0,1.713-1.077,2.848-1.79,2.848c-0.713,0-1.79-1.136-1.79-2.848V375.415h3.58v48.813    c0,4.328,3.509,7.837,7.837,7.837c4.328,0,7.837-3.509,7.837-7.837v-50.573c6.309-2.957,10.699-9.349,10.699-16.762v-10.361    c28.948-11.278,49.519-39.381,49.519-72.206V77.5C333.681,59.119,327.116,41.295,315.195,27.31z M268.489,356.893    c0,1.544-1.308,2.848-2.857,2.848h-19.264c-1.549,0-2.857-1.305-2.857-2.848v-6.082c4.069,0.659,8.237,1.016,12.489,1.016    s8.421-0.356,12.489-1.016V356.893z"/>
	</g>
</g>
<g>
	<g>
		<path d="M270.629,39.184h-1.045c-4.328,0-7.837,3.509-7.837,7.837c0,4.328,3.509,7.837,7.837,7.837h1.045    c4.328,0,7.837-3.509,7.837-7.837C278.465,42.692,274.957,39.184,270.629,39.184z"/>
	</g>
</g>
<g>
	<g>
		<path d="M295.706,56.947h-1.045c-4.328,0-7.837,3.509-7.837,7.837s3.509,7.837,7.837,7.837h1.045c4.328,0,7.837-3.509,7.837-7.837    S300.034,56.947,295.706,56.947z"/>
	</g>
</g>
<g>
	<g>
		<path d="M264.359,71.575h-1.045c-4.328,0-7.837,3.509-7.837,7.837c0,4.328,3.509,7.837,7.837,7.837h1.045    c4.328,0,7.837-3.509,7.837-7.837C272.196,75.084,268.687,71.575,264.359,71.575z"/>
	</g>
</g>
<g>
	<g>
		<path d="M283.167,94.563h-1.045c-4.328,0-7.837,3.509-7.837,7.837c0,4.328,3.509,7.837,7.837,7.837h1.045    c4.328,0,7.837-3.509,7.837-7.837C291.004,98.072,287.495,94.563,283.167,94.563z"/>
	</g>
</g>
<g>
	<g>
		<path d="M250.776,122.775h-1.045c-4.328,0-7.837,3.509-7.837,7.837c0,4.328,3.509,7.837,7.837,7.837h1.045    c4.328,0,7.837-3.509,7.837-7.837C258.612,126.284,255.103,122.775,250.776,122.775z"/>
	</g>
</g>
<g>
	<g>
		<path d="M291.527,131.135h-1.045c-4.328,0-7.837,3.509-7.837,7.837s3.509,7.837,7.837,7.837h1.045    c4.328,0,7.837-3.509,7.837-7.837S295.854,131.135,291.527,131.135z"/>
	</g>
</g>
<g>
	<g>
		<path d="M300.931,162.482h-1.045c-4.328,0-7.837,3.509-7.837,7.837c0,4.328,3.509,7.837,7.837,7.837h1.045    c4.328,0,7.837-3.509,7.837-7.837C308.767,165.99,305.259,162.482,300.931,162.482z"/>
	</g>
</g>
<g>
	<g>
		<path d="M241.371,30.825h-1.045c-4.328,0-7.837,3.509-7.837,7.837c0,4.328,3.509,7.837,7.837,7.837h1.045    c4.328,0,7.837-3.509,7.837-7.837C249.208,34.333,245.699,30.825,241.371,30.825z"/>
	</g>
</g>
<g>
</g>
<g>
</g>
<g>
</g>
<g>
</g>
<g>
</g>
<g>
</g>
<g>
</g>
<g>
</g>
<g>
</g>
<g>
</g>
<g>
</g>
<g>
</g>
<g>
</g>
<g>
</g>
<g>
</g>
</svg>
