<?xml version="1.0" encoding="iso-8859-1"?>
<!-- Generator: Adobe Illustrator 19.0.0, SVG Export Plug-In . SVG Version: 6.00 Build 0)  -->
<svg xmlns="http://www.w3.org/2000/svg" xmlns:xlink="http://www.w3.org/1999/xlink" version="1.1" id="Layer_1" x="0px" y="0px" viewBox="0 0 512 512" style="enable-background:new 0 0 512 512;" xml:space="preserve">
<g>
	<g>
		<path d="M369.387,3.734h-2.171C366.565,1.586,364.587,0,362.234,0h-44.502c-2.353,0-4.332,1.586-4.981,3.734h-88.099    c-4.329,0-7.837,3.509-7.837,7.837c0,4.328,3.508,7.837,7.837,7.837h144.734c7.202,0,13.061,5.859,13.061,13.061v450.796    c0,7.202-5.859,13.061-13.061,13.061h-22.481c-4.329,0-7.837,3.509-7.837,7.837c0,4.328,3.508,7.837,7.837,7.837h22.481    c15.844,0,28.735-12.89,28.735-28.735V32.469C398.121,16.625,385.23,3.734,369.387,3.734z"/>
	</g>
</g>
<g>
	<g>
		<path d="M316.602,496.327H149.875c-7.202,0-13.061-5.859-13.061-13.061V32.469c0-7.203,5.859-13.061,13.061-13.061h40.295    c4.329,0,7.837-3.509,7.837-7.837c0-4.328-3.508-7.837-7.837-7.837h-40.295c-15.844,0-28.735,12.89-28.735,28.735v46.531h-2.038    c-2.873,0-5.224,2.351-5.224,5.224v28.958c0,2.873,2.351,5.224,5.224,5.224h2.038v12.422h-2.038c-2.873,0-5.224,2.351-5.224,5.224    v28.958c0,2.873,2.351,5.224,5.224,5.224h2.038v12.422h-2.038c-2.873,0-5.224,2.351-5.224,5.224v28.958    c0,2.873,2.351,5.224,5.224,5.224h2.038v261.199c0,15.845,12.891,28.735,28.735,28.735h166.727c4.329,0,7.837-3.509,7.837-7.837    C324.439,499.835,320.932,496.327,316.602,496.327z"/>
	</g>
</g>
<g>
	<g>
		<path d="M259.629,421.917c-17.852,0-32.375,14.526-32.375,32.381s14.523,32.381,32.375,32.381    c17.852,0,32.376-14.526,32.376-32.381C292.006,436.443,277.482,421.917,259.629,421.917z M259.63,471.007    c-9.209,0-16.702-7.495-16.702-16.708c0-9.213,7.493-16.708,16.702-16.708c9.21,0.001,16.703,7.495,16.703,16.708    S268.84,471.007,259.63,471.007z"/>
	</g>
</g>
<g>
	<g>
		<path d="M218.791,47.512c-1.452-1.463-3.479-2.299-5.538-2.299c-2.069,0-4.086,0.836-5.547,2.299    c-1.453,1.463-2.289,3.479-2.289,5.538c0,2.069,0.836,4.086,2.289,5.548c1.462,1.452,3.477,2.288,5.547,2.288    c2.058,0,4.086-0.836,5.538-2.288c1.463-1.463,2.299-3.479,2.299-5.548C221.089,50.991,220.253,48.974,218.791,47.512z"/>
	</g>
</g>
<g>
	<g>
		<path d="M306.009,45.216h-67.871c-4.329,0-7.837,3.509-7.837,7.837c0,4.328,3.508,7.837,7.837,7.837h67.871    c4.329,0,7.837-3.509,7.837-7.837S310.338,45.216,306.009,45.216z"/>
	</g>
</g>
<g>
	<g>
		<path d="M367.657,78.942H151.604c-6.05,0-10.971,4.921-10.971,10.971v316.301c0,6.049,4.922,10.971,10.971,10.971h216.054    c6.05,0,10.971-4.923,10.971-10.971V89.914C378.629,83.864,373.707,78.942,367.657,78.942z M362.955,350.623h-35.903    c-4.329,0-7.837,3.509-7.837,7.837c0,4.328,3.508,7.837,7.837,7.837h35.903v35.217H156.306v-35.218h139.4    c4.329,0,7.837-3.509,7.837-7.837c0-4.328-3.508-7.837-7.837-7.837h-139.4V116.154h206.649V350.623z M362.955,100.481H156.306    v-5.865h206.649V100.481z"/>
	</g>
</g>
<g>
	<g>
		<path d="M325.898,215.389c-1.988-6.054-7.072-10.71-13.262-12.15l-24.367-5.694l-12.956-21.374    c-3.304-5.444-9.313-8.824-15.683-8.824c-6.374,0-12.384,3.38-15.691,8.827l-12.949,21.37l-24.364,5.694    c-6.204,1.443-11.288,6.101-13.272,12.175c-1.962,6.05-0.596,12.801,3.57,17.622l16.358,18.898l-2.104,24.898    c-0.529,6.338,2.346,12.599,7.497,16.336c3.15,2.288,6.878,3.497,10.779,3.497c2.448,0,4.838-0.483,7.096-1.434l23.078-9.688    l23.069,9.684c2.261,0.954,4.653,1.438,7.108,1.438c3.9,0,7.626-1.21,10.776-3.496c5.174-3.752,8.046-10.025,7.494-16.343    l-2.096-24.896l16.353-18.894C326.51,228.208,327.878,221.45,325.898,215.389z M310.482,222.776l-17.458,20.17    c-2.067,2.408-3.087,5.589-2.801,8.659l2.235,26.557c0.076,0.877-0.347,1.786-1.083,2.319c-0.758,0.55-1.702,0.676-2.6,0.298    l-24.559-10.31c-1.46-0.621-3.003-0.936-4.586-0.936c-1.589,0-3.137,0.316-4.557,0.922l-24.597,10.326    c-0.885,0.373-1.841,0.249-2.594-0.299c-0.734-0.533-1.16-1.456-1.086-2.341l2.24-26.499c0.281-3.157-0.753-6.34-2.823-8.721    l-17.434-20.14c-0.591-0.684-0.794-1.679-0.522-2.516c0.282-0.865,1.035-1.556,1.929-1.764l25.966-6.069    c3.071-0.713,5.768-2.67,7.39-5.358l13.801-22.773c0.472-0.78,1.372-1.282,2.289-1.282c0.914,0,1.811,0.504,2.282,1.28    l13.783,22.738c1.622,2.712,4.322,4.678,7.398,5.394l25.985,6.072c0.885,0.206,1.642,0.903,1.926,1.765    C311.28,221.108,311.074,222.093,310.482,222.776z"/>
	</g>
</g>
<g>
</g>
<g>
</g>
<g>
</g>
<g>
</g>
<g>
</g>
<g>
</g>
<g>
</g>
<g>
</g>
<g>
</g>
<g>
</g>
<g>
</g>
<g>
</g>
<g>
</g>
<g>
</g>
<g>
</g>
</svg>
