<?xml version="1.0" encoding="iso-8859-1"?>
<!-- Generator: Adobe Illustrator 19.0.0, SVG Export Plug-In . SVG Version: 6.00 Build 0)  -->
<svg xmlns="http://www.w3.org/2000/svg" xmlns:xlink="http://www.w3.org/1999/xlink" version="1.1" id="Layer_1" x="0px" y="0px" viewBox="0 0 512.002 512.002" style="enable-background:new 0 0 512.002 512.002;" xml:space="preserve">
<g>
	<g>
		<path d="M437.054,238.21h-61.518V118.073c0-4.328-3.508-7.837-7.837-7.837s-7.837,3.509-7.837,7.837v86.065H319.74    c-4.329,0-7.837,3.509-7.837,7.837c0,4.328,3.508,7.837,7.837,7.837h40.122v18.396H152.142v-18.396h134.161    c4.329,0,7.837-3.509,7.837-7.837c0-4.328-3.508-7.837-7.837-7.837H152.142V15.673h207.72v74.188c0,4.328,3.508,7.837,7.837,7.837    c4.329,0,7.837-3.509,7.837-7.837v-74.83C375.535,6.743,368.742,0,360.39,0H151.614c-8.351,0-15.145,6.743-15.145,15.031V238.21    H74.948c-8.352,0-15.147,6.743-15.147,15.031v15.398c0,8.288,6.795,15.032,15.147,15.032h35.227    c-5.855,3.974-9.706,10.653-9.706,18.212v60.119c0,12.156,9.956,22.046,22.194,22.046h13.806v62.733    c0,12.082,9.893,21.911,22.053,21.911h7.231v21.398c0,12.082,9.892,21.913,22.052,21.913h136.398    c12.159,0,22.05-9.829,22.05-21.913v-21.398h7.231c12.161,0,22.053-9.829,22.053-21.911v-62.733h13.806    c12.238,0,22.194-9.89,22.194-22.046v-9.87c0-4.328-3.508-7.837-7.837-7.837s-7.837,3.509-7.837,7.837V362    c0,3.514-2.926,6.373-6.52,6.373h-13.806v-72.865h13.806c3.594,0,6.52,2.859,6.52,6.374v22.037c0,4.328,3.508,7.837,7.837,7.837    s7.837-3.509,7.837-7.837V301.88c0-7.559-3.853-14.238-9.706-18.212h35.225c8.352,0,15.147-6.744,15.147-15.032v-15.398    C452.202,244.952,445.407,238.21,437.054,238.21z M136.469,368.372h-13.806c-3.594,0-6.52-2.859-6.52-6.373V301.88    c0-3.514,2.926-6.374,6.52-6.374h13.806V368.372z M359.862,446.779c0,3.44-2.862,6.238-6.379,6.238h-15.067    c-4.328,0-7.837,3.509-7.837,7.837v29.235c0,3.44-2.861,6.239-6.377,6.239H187.803c-3.516,0-6.378-2.798-6.378-6.239v-29.235    c0-4.328-3.508-7.837-7.837-7.837H158.52c-3.517,0-6.379-2.798-6.379-6.238V283.67h8.496v64.627c0,4.063,3.104,7.451,7.15,7.806    c7.731,0.679,13.562,6.962,13.562,14.613v66.241c0,4.328,3.508,7.837,7.837,7.837h14.213c3.517,0,6.379,2.798,6.379,6.238v9.822    c0,4.328,3.508,7.837,7.837,7.837h76.772c4.329,0,7.837-3.509,7.837-7.837v-9.822c0-3.44,2.862-6.238,6.379-6.238h14.215    c4.329,0,7.837-3.509,7.837-7.837v-66.241c0-7.651,5.831-13.933,13.562-14.613c4.046-0.355,7.15-3.745,7.15-7.806V283.67h8.496    V446.779z M436.528,267.996H239.283c-4.329,0-7.837,3.509-7.837,7.837c0,4.328,3.508,7.837,7.837,7.837h96.411v58.298    c-12.195,4.062-20.712,15.395-20.712,28.748v58.405h-6.378c-12.161,0-22.053,9.829-22.053,21.912v1.985h-61.098v-1.985    c0-12.082-9.893-21.912-22.053-21.912h-6.376v-58.405c0-13.353-8.517-24.686-20.712-28.748V283.67h33.714    c4.329,0,7.837-3.509,7.837-7.837c0-4.328-3.508-7.837-7.837-7.837H75.474v-14.113h361.054V267.996z"/>
	</g>
</g>
<g>
	<g>
		<path d="M256.001,315.51c-4.329,0-7.837,3.509-7.837,7.837v43.396c0,4.329,3.508,7.837,7.837,7.837s7.837-3.509,7.837-7.837    v-43.396C263.838,319.019,260.33,315.51,256.001,315.51z"/>
	</g>
</g>
<g>
	<g>
		<path d="M213.013,315.51c-4.329,0-7.837,3.509-7.837,7.837v14.788c0,4.328,3.508,7.837,7.837,7.837    c4.329,0,7.837-3.509,7.837-7.837v-14.788C220.85,319.019,217.342,315.51,213.013,315.51z"/>
	</g>
</g>
<g>
	<g>
		<path d="M298.991,315.51c-4.329,0-7.837,3.509-7.837,7.837v14.788c0,4.328,3.508,7.837,7.837,7.837    c4.329,0,7.837-3.509,7.837-7.837v-14.788C306.828,319.019,303.319,315.51,298.991,315.51z"/>
	</g>
</g>
<g>
	<g>
		<path d="M281.079,399.757h-50.155c-4.329,0-7.837,3.509-7.837,7.837c0,4.328,3.508,7.837,7.837,7.837h50.155    c4.329,0,7.837-3.509,7.837-7.837C288.915,403.266,285.408,399.757,281.079,399.757z"/>
	</g>
</g>
<g>
	<g>
		<path d="M229.879,293.094h-34.482c-4.329,0-7.837,3.509-7.837,7.837c0,4.328,3.508,7.837,7.837,7.837h34.482    c4.329,0,7.837-3.509,7.837-7.837C237.715,296.603,234.208,293.094,229.879,293.094z"/>
	</g>
</g>
<g>
	<g>
		<path d="M316.605,293.094h-34.482c-4.329,0-7.837,3.509-7.837,7.837c0,4.328,3.508,7.837,7.837,7.837h34.482    c4.329,0,7.837-3.509,7.837-7.837C324.442,296.603,320.934,293.094,316.605,293.094z"/>
	</g>
</g>
<g>
</g>
<g>
</g>
<g>
</g>
<g>
</g>
<g>
</g>
<g>
</g>
<g>
</g>
<g>
</g>
<g>
</g>
<g>
</g>
<g>
</g>
<g>
</g>
<g>
</g>
<g>
</g>
<g>
</g>
</svg>
