<?xml version="1.0" encoding="iso-8859-1"?>
<!-- Generator: Adobe Illustrator 19.0.0, SVG Export Plug-In . SVG Version: 6.00 Build 0)  -->
<svg xmlns="http://www.w3.org/2000/svg" xmlns:xlink="http://www.w3.org/1999/xlink" version="1.1" id="Layer_1" x="0px" y="0px" viewBox="0 0 511.999 511.999" style="enable-background:new 0 0 511.999 511.999;" xml:space="preserve">
<g>
	<g>
		<path d="M400.317,416.982H255.899c-0.006,0-0.014,0.001-0.021,0.001h-7.904c-5.031,0-9.125-4.091-9.125-9.12    c0-5.028,4.093-9.119,9.124-9.119h35.193c4.329,0,7.837-3.509,7.837-7.837c0-4.328-3.508-7.837-7.837-7.837h-35.193    c-13.674,0-24.797,11.122-24.797,24.792c0,13.67,11.124,24.793,24.799,24.793h134.34c0.007,0,0.014-0.001,0.021-0.001h17.981    c5.032,0.001,9.126,4.092,9.126,9.119c0.001,5.028-4.093,9.119-9.125,9.119l-94.987,0.001c-4.328,0-7.837,3.509-7.837,7.837    c0,4.328,3.509,7.837,7.837,7.837l94.987-0.001c13.675,0,24.799-11.123,24.799-24.792    C425.116,428.105,413.991,416.983,400.317,416.982z"/>
	</g>
</g>
<g>
	<g>
		<path d="M344.786,168.184c-0.455-21.241-4.738-41.893-12.761-61.444c-1.644-4.005-6.222-5.919-10.225-4.275    c-4.004,1.643-5.917,6.221-4.275,10.225c7.719,18.81,11.633,38.751,11.633,59.269c0,7.294-0.514,14.471-1.487,21.502    c-12.943-6.521-21.434-19.85-21.434-34.825c0-4.037,0.619-8.027,1.838-11.856c2.45-7.697,1.513-16.107-2.569-23.074    c-4.083-6.966-10.962-11.894-18.875-13.521c-26.262-5.396-45.685-27.873-47.231-54.658c-0.87-15.055-13.366-26.861-28.447-26.88    c-13.467-0.017-26.436-4.707-36.828-12.953c52.118,0.433,100.329,26.571,129.168,70.133c2.39,3.609,7.254,4.595,10.861,2.209    c3.609-2.39,4.598-7.252,2.209-10.861C284.368,28.85,230.705,0,172.813,0C77.962,0,0.795,77.141,0.795,171.958    c0,92.945,74.15,168.893,166.42,171.859c2.017,93.08,78.382,168.182,171.97,168.183c42.198,0,82.785-15.425,114.283-43.433    c3.235-2.876,3.526-7.829,0.649-11.063c-2.875-3.235-7.829-3.526-11.063-0.65c-28.627,25.456-65.515,39.474-103.869,39.474    c-85.014-0.001-154.392-68.181-156.3-152.712c6.801-0.395,13.5-1.178,20.07-2.344c0.644,13.102,11.505,23.562,24.767,23.562    l111.462-0.001l111.462,0.001c5.03,0,9.123,4.091,9.123,9.12c0.001,2.436-0.948,4.724-2.671,6.446    c-1.724,1.722-4.016,2.672-6.454,2.672H315.558c-4.329,0-7.837,3.509-7.837,7.837c0,4.328,3.508,7.837,7.837,7.837h135.088    c6.625,0,12.852-2.579,17.536-7.26c4.684-4.683,7.263-10.91,7.262-17.532c0-13.67-11.123-24.792-24.796-24.792h-30.039    c-0.003,0-0.005-0.001-0.008-0.001h-81.415h-81.416c-0.003,0-0.006,0.001-0.008,0.001h-30.038c-5.031,0-9.125-4.091-9.125-9.119    c0-0.835,0.122-1.64,0.333-2.409c6.656-1.854,13.149-4.1,19.456-6.71h139.866c4.329,0,7.837-3.509,7.837-7.837    c0-4.328-3.508-7.837-7.837-7.837H267.8c8.167-5.428,15.846-11.532,22.955-18.237h159.892c5.031,0,9.125,4.091,9.125,9.119    c0,5.027-4.094,9.119-9.125,9.119h-43.139c-4.329,0-7.837,3.509-7.837,7.837c0,4.328,3.508,7.837,7.837,7.837h43.139    c13.674-0.001,24.798-11.124,24.798-24.792c0-13.67-11.124-24.792-24.799-24.792H305.449c4.772-5.774,9.167-11.869,13.166-18.239    h82.604c13.674-0.002,24.796-11.124,24.796-24.793s-11.124-24.792-24.797-24.793l-61.478,0.001    c2.392-9.597,3.975-19.509,4.672-29.663c83.798,2.768,151.118,71.763,151.118,156.189c0,33.831-10.635,66.023-30.753,93.096    c-2.582,3.474-1.858,8.383,1.615,10.964c3.472,2.583,8.382,1.858,10.964-1.615c22.142-29.796,33.847-65.22,33.847-102.445    C511.203,247.098,437.054,171.151,344.786,168.184z M172.813,328.244c-86.208,0-156.344-70.109-156.344-156.285    c0-79.495,59.684-145.316,136.609-155.044c14.2,17.211,35.495,27.376,57.855,27.406c6.796,0.008,12.427,5.328,12.82,12.11    c1.955,33.864,26.514,62.281,59.722,69.105c3.567,0.734,6.669,2.955,8.509,6.094c1.839,3.139,2.261,6.927,1.157,10.395    c-1.709,5.369-2.577,10.958-2.577,16.611c0,22.512,13.687,42.367,34.076,50.645C307.855,277.494,246.157,328.244,172.813,328.244z     M401.218,229.188c5.03,0.001,9.124,4.092,9.124,9.12c0,5.028-4.094,9.119-9.124,9.12h-73.865    c2.894-5.898,5.457-11.986,7.672-18.239L401.218,229.188z"/>
	</g>
</g>
<g>
	<g>
		<path d="M146.187,42.878h-19.72c-4.328,0-7.837,3.509-7.837,7.837c0,4.328,3.509,7.837,7.837,7.837h19.72    c4.328,0,7.837-3.509,7.837-7.837C154.024,46.387,150.515,42.878,146.187,42.878z"/>
	</g>
</g>
<g>
	<g>
		<path d="M272.406,241.994h-19.721c-4.328,0-7.837,3.509-7.837,7.837c0,4.328,3.509,7.837,7.837,7.837h19.721    c4.329,0,7.837-3.509,7.837-7.837C280.243,245.503,276.735,241.994,272.406,241.994z"/>
	</g>
</g>
<g>
	<g>
		<path d="M191.215,250.253h-19.721c-4.328,0-7.837,3.509-7.837,7.837c0,4.328,3.509,7.837,7.837,7.837h19.721    c4.328,0,7.837-3.509,7.837-7.837C199.052,253.762,195.543,250.253,191.215,250.253z"/>
	</g>
</g>
<g>
	<g>
		<path d="M220.798,289.11c-3.059-3.06-8.022-3.06-11.082,0l-12.198,12.198c-3.061,3.06-3.061,8.023,0,11.083    c1.53,1.53,3.536,2.296,5.541,2.296c2.005,0,4.011-0.766,5.541-2.296l12.198-12.198    C223.859,297.132,223.859,292.17,220.798,289.11z"/>
	</g>
</g>
<g>
	<g>
		<path d="M86.358,212.843c-3.06-3.06-8.022-3.06-11.082,0L61.33,226.788c-3.061,3.061-3.061,8.023,0,11.082    c1.53,1.53,3.536,2.296,5.541,2.296s4.011-0.765,5.541-2.296l13.945-13.945C89.418,220.864,89.418,215.902,86.358,212.843z"/>
	</g>
</g>
<g>
	<g>
		<path d="M110.031,86.055c-3.059-3.062-8.022-3.063-11.082-0.002l-13.946,13.94c-3.062,3.059-3.063,8.022-0.002,11.082    c1.53,1.531,3.536,2.297,5.542,2.297c2.005,0,4.01-0.765,5.54-2.295l13.946-13.94C113.09,94.077,113.091,89.115,110.031,86.055z"/>
	</g>
</g>
<g>
	<g>
		<path d="M75.94,172.472l-13.945-13.94c-3.061-3.059-8.023-3.059-11.082,0.002c-3.06,3.061-3.059,8.023,0.002,11.082l13.945,13.94    c1.531,1.53,3.535,2.295,5.54,2.295c2.005,0,4.012-0.766,5.542-2.297C79.002,180.494,79.002,175.531,75.94,172.472z"/>
	</g>
</g>
<g>
	<g>
		<path d="M121.3,269.078l-13.94-13.947c-3.061-3.062-8.023-3.062-11.083-0.002c-3.062,3.061-3.063,8.022-0.002,11.083l13.94,13.946    c1.531,1.531,3.537,2.297,5.543,2.297c2.005,0,4.01-0.765,5.54-2.294C124.36,277.101,124.361,272.139,121.3,269.078z"/>
	</g>
</g>
<g>
	<g>
		<path d="M210.342,86.411l-13.94-13.946c-3.06-3.062-8.022-3.062-11.083-0.003c-3.061,3.059-3.063,8.022-0.002,11.083    l13.939,13.946c1.531,1.532,3.537,2.297,5.543,2.297c2.005,0,4.01-0.765,5.54-2.294C213.4,94.435,213.402,89.473,210.342,86.411z"/>
	</g>
</g>
<g>
	<g>
		<path d="M280.908,184.162c-3.062-3.062-8.024-3.063-11.084-0.003l-13.947,13.94c-3.06,3.059-3.063,8.022-0.002,11.083    c1.531,1.531,3.537,2.297,5.543,2.297c2.005,0,4.01-0.765,5.54-2.294l13.947-13.94    C283.967,192.186,283.968,187.224,280.908,184.162z"/>
	</g>
</g>
<g>
	<g>
		<path d="M172.813,109.338c-35.016,0-63.502,28.091-63.502,62.621c0,16.298,6.315,31.735,17.785,43.463    c3.026,3.094,7.987,3.15,11.082,0.124c3.094-3.026,3.15-7.987,0.124-11.082c-8.588-8.782-13.317-20.326-13.317-32.505    c0-25.886,21.456-46.947,47.828-46.947c26.373,0,47.829,21.06,47.829,46.947s-21.456,46.948-47.828,46.948    c-4.088-0.001-8.145-0.506-12.059-1.504c-4.195-1.07-8.461,1.466-9.528,5.66c-1.069,4.194,1.466,8.461,5.66,9.528    c5.176,1.319,10.534,1.987,15.926,1.987c35.016,0,63.503-28.092,63.503-62.622C236.315,137.429,207.827,109.338,172.813,109.338z"/>
	</g>
</g>
<g>
</g>
<g>
</g>
<g>
</g>
<g>
</g>
<g>
</g>
<g>
</g>
<g>
</g>
<g>
</g>
<g>
</g>
<g>
</g>
<g>
</g>
<g>
</g>
<g>
</g>
<g>
</g>
<g>
</g>
</svg>
