<?xml version="1.0" encoding="iso-8859-1"?>
<!-- Generator: Adobe Illustrator 19.0.0, SVG Export Plug-In . SVG Version: 6.00 Build 0)  -->
<svg xmlns="http://www.w3.org/2000/svg" xmlns:xlink="http://www.w3.org/1999/xlink" version="1.1" id="Layer_1" x="0px" y="0px" viewBox="0 0 512.004 512.004" style="enable-background:new 0 0 512.004 512.004;" xml:space="preserve">
<g>
	<g>
		<path d="M453.67,339.594c-3.509,0-6.95,0.572-10.211,1.679l-42.562-73.069c0.334-4.041,0.512-8.108,0.512-12.203    c0-4.108-0.181-8.173-0.516-12.196l42.566-73.075c3.261,1.109,6.702,1.679,10.211,1.679c17.401,0,31.557-14.062,31.557-31.347    c0-17.285-14.156-31.347-31.557-31.347c-15.821,0-28.959,11.625-31.215,26.726h-83.798c-6.857-4.755-14.139-8.936-21.779-12.473    l-40.191-68.996c6.778-5.878,10.872-14.491,10.872-23.626C287.559,14.062,273.403,0,256.002,0s-31.557,14.062-31.557,31.347    c0,9.135,4.094,17.749,10.871,23.626l-40.191,68.996c-7.64,3.537-14.922,7.718-21.779,12.473h-33.328    c-4.328,0-7.837,3.509-7.837,7.837s3.509,7.837,7.837,7.837h14.357c-18.67,18.267-32.459,41.503-39.184,67.553l-36.757-63.102    c-1.091-1.874-2.91-3.211-5.023-3.695c-2.113-0.483-4.332-0.07-6.13,1.142c-2.642,1.783-5.734,2.724-8.946,2.724    c-8.758,0-15.883-7.031-15.883-15.673s7.125-15.673,15.883-15.673c8.758,0,15.884,7.031,15.884,15.673    c0,0.689-0.051,1.411-0.153,2.143c-0.31,2.244,0.366,4.513,1.854,6.221c1.488,1.708,3.643,2.688,5.909,2.688h22.663    c4.328,0,7.837-3.509,7.837-7.837c0-4.328-3.509-7.837-7.837-7.837H89.55c-2.257-15.101-15.396-26.726-31.215-26.726    c-17.401,0-31.557,14.062-31.557,31.347c0,17.285,14.156,31.347,31.557,31.347c3.509,0,6.951-0.57,10.212-1.679l42.566,73.074    c-0.335,4.023-0.516,8.09-0.516,12.197c0,4.109,0.181,8.175,0.516,12.198l-42.566,73.074c-3.261-1.109-6.703-1.679-10.212-1.679    c-17.401,0-31.557,14.062-31.557,31.347c0,17.285,14.156,31.347,31.557,31.347c15.821,0,28.959-11.624,31.215-26.726h83.798    c6.858,4.755,14.138,8.936,21.779,12.473l40.179,68.976c-6.77,5.879-10.86,14.5-10.86,23.646    c0,17.285,14.156,31.347,31.557,31.347s31.557-14.062,31.557-31.347c0-9.146-4.09-17.766-10.86-23.646l7.666-13.161    c2.179-3.74,0.912-8.538-2.828-10.716c-3.739-2.177-8.537-0.912-10.716,2.827l-11.376,19.529    c-1.104,1.896-1.364,4.168-0.714,6.264c0.65,2.095,2.147,3.823,4.13,4.763c5.482,2.597,9.023,8.147,9.023,14.14    c0,8.642-7.125,15.673-15.883,15.673c-8.758,0-15.883-7.031-15.883-15.673c0-5.992,3.542-11.543,9.023-14.14    c1.983-0.939,3.482-2.668,4.13-4.763c0.65-2.096,0.391-4.368-0.715-6.264l-34.421-59.091c12.079,3.261,24.77,5.011,37.865,5.011    c12.915,0,25.653-1.745,37.903-5.075l-7.865,13.502c-2.179,3.74-0.913,8.538,2.827,10.715c1.241,0.723,2.598,1.067,3.937,1.067    c2.698,0,5.323-1.395,6.779-3.894l17.354-29.791c7.561-3.496,14.82-7.637,21.69-12.373h83.827    c2.256,15.102,15.395,26.726,31.215,26.726c17.401,0,31.557-14.062,31.557-31.347C485.227,353.656,471.07,339.594,453.67,339.594z     M430.175,152.115v0.001c2.264,0,4.419-0.98,5.907-2.688c1.488-1.707,2.165-3.975,1.856-6.219    c-0.101-0.739-0.153-1.461-0.153-2.147c0-8.642,7.125-15.673,15.883-15.673s15.883,7.031,15.883,15.673    s-7.125,15.673-15.883,15.673c-3.212,0-6.305-0.941-8.945-2.722c-1.798-1.213-4.018-1.625-6.13-1.142    c-2.113,0.484-3.932,1.821-5.023,3.695l-36.757,63.102c-6.726-26.05-20.514-49.286-39.184-67.554H430.175z M252.571,56.493    c1.104-1.896,1.364-4.168,0.715-6.264c-0.65-2.096-2.147-3.823-4.13-4.763c-5.573-2.641-9.036-8.05-9.036-14.118    c0-8.642,7.125-15.674,15.883-15.674c8.758,0,15.884,7.031,15.884,15.674c0,6.068-3.463,11.476-9.037,14.118    c-1.982,0.939-3.481,2.667-4.13,4.763c-0.65,2.096-0.391,4.368,0.715,6.264l34.435,59.114c-12.079-3.261-24.77-5.011-37.865-5.011    c-13.095,0-25.787,1.75-37.865,5.011L252.571,56.493z M81.807,359.888L81.807,359.888c-2.266,0-4.422,0.981-5.91,2.691    c-1.488,1.709-2.164,3.979-1.852,6.224c0.118,0.852,0.173,1.531,0.173,2.138c0,8.642-7.125,15.673-15.883,15.673    c-8.758,0-15.884-7.031-15.884-15.673s7.125-15.673,15.884-15.673c3.211,0,6.304,0.941,8.944,2.723    c1.797,1.212,4.017,1.625,6.13,1.143c2.114-0.484,3.933-1.821,5.024-3.695l36.757-63.103    c6.725,26.049,20.514,49.286,39.184,67.553H81.807z M453.67,386.614c-8.758,0-15.883-7.031-15.883-15.673    c0-0.605,0.055-1.283,0.174-2.134c0.312-2.245-0.362-4.517-1.851-6.228c-1.488-1.711-3.645-2.692-5.912-2.692h-72.512    c5.589-5.451,10.775-11.367,15.466-17.736c2.567-3.485,1.822-8.391-1.662-10.957c-3.486-2.568-8.391-1.824-10.957,1.662    c-24.388,33.111-63.464,52.879-104.529,52.879c-71.535,0-129.733-58.198-129.733-129.733s58.198-129.735,129.732-129.735    s129.732,58.198,129.732,129.733c0,17.058-3.257,33.634-9.68,49.267c-1.645,4.003,0.266,8.582,4.269,10.227    c4.005,1.645,8.582-0.266,10.227-4.269c2.535-6.169,4.62-12.47,6.27-18.875l36.749,63.088c1.091,1.874,2.91,3.212,5.025,3.695    c2.113,0.485,4.333,0.069,6.132-1.143c2.639-1.781,5.731-2.723,8.942-2.723c8.758,0,15.883,7.031,15.883,15.673    S462.428,386.614,453.67,386.614z"/>
	</g>
</g>
<g>
	<g>
		<path d="M342.106,190.647c-2.624-3.443-7.542-4.105-10.983-1.481c-3.442,2.624-4.104,7.542-1.481,10.983    c12.321,16.158,18.833,35.472,18.833,55.853c0,50.847-41.366,92.214-92.214,92.214c-50.848,0-92.213-41.368-92.213-92.214    s41.366-92.213,92.213-92.213c18.569,0,36.468,5.493,51.76,15.885c3.579,2.435,8.453,1.504,10.886-2.077    c2.432-3.58,1.504-8.453-2.077-10.887c-17.901-12.165-38.846-18.595-60.57-18.595c-59.489,0-107.887,48.398-107.887,107.887    c0,59.489,48.398,107.888,107.887,107.888s107.889-48.398,107.889-107.887C364.149,232.159,356.526,209.558,342.106,190.647z"/>
	</g>
</g>
<g>
	<g>
		<path d="M284.538,308.32h-57.073c-4.328,0-7.837,3.509-7.837,7.837s3.509,7.837,7.837,7.837h57.073    c4.328,0,7.837-3.509,7.837-7.837S288.866,308.32,284.538,308.32z"/>
	</g>
</g>
<g>
	<g>
		<path d="M297.661,281.899h-83.318c-4.328,0-7.837,3.509-7.837,7.837c0,4.328,3.509,7.837,7.837,7.837h83.318    c4.328,0,7.837-3.509,7.837-7.837C305.498,285.408,301.989,281.899,297.661,281.899z"/>
	</g>
</g>
<g>
	<g>
		<path d="M302.297,214.05c-1.584-4.89-5.679-8.652-10.682-9.817l-15.005-3.506l-7.974-13.154    c-2.658-4.391-7.499-7.119-12.636-7.119c-5.135,0-9.975,2.727-12.631,7.114l-7.977,13.161l-14.995,3.505    c-5.006,1.163-9.102,4.922-10.686,9.799c-1.593,4.88-0.495,10.327,2.869,14.216l10.07,11.636l-1.295,15.331    c-0.428,5.111,1.887,10.156,6.044,13.169c2.54,1.841,5.54,2.814,8.676,2.814c1.987,0,3.919-0.391,5.722-1.154l14.204-5.967    l14.191,5.961c1.819,0.77,3.75,1.161,5.739,1.161c3.147,0,6.152-0.977,8.672-2.811c4.158-3.008,6.475-8.055,6.048-13.178    l-1.294-15.328l10.069-11.633C302.789,224.362,303.888,218.913,302.297,214.05z M276.052,231.304    c-1.84,2.13-2.749,4.953-2.5,7.695l1.352,16.017l-14.849-6.237c-1.287-0.543-2.652-0.819-4.053-0.819    c-1.401,0-2.765,0.276-4.039,0.814l-14.862,6.243l1.352-16.001c0.241-2.786-0.672-5.598-2.505-7.717l-10.513-12.147l15.688-3.667    c2.716-0.64,5.098-2.374,6.529-4.745l8.35-13.776l8.34,13.76c1.438,2.382,3.819,4.118,6.553,4.763l15.674,3.662L276.052,231.304z"/>
	</g>
</g>
<g>
	<g>
		<path d="M196.234,250.464c-1.452-1.463-3.48-2.299-5.538-2.299c-2.058,0-4.086,0.836-5.538,2.299    c-1.463,1.452-2.299,3.479-2.299,5.538c0,2.069,0.836,4.086,2.299,5.538c1.452,1.463,3.479,2.299,5.538,2.299    c2.058,0,4.086-0.836,5.538-2.299c1.463-1.452,2.299-3.469,2.299-5.538C198.533,253.933,197.697,251.917,196.234,250.464z"/>
	</g>
</g>
<g>
	<g>
		<path d="M326.846,250.464c-1.452-1.463-3.479-2.299-5.538-2.299c-2.069,0-4.086,0.836-5.538,2.299    c-1.463,1.452-2.299,3.469-2.299,5.538c0,2.069,0.836,4.086,2.299,5.538c1.452,1.463,3.479,2.299,5.538,2.299    c2.058,0,4.086-0.836,5.538-2.299c1.463-1.452,2.299-3.479,2.299-5.538C329.145,253.944,328.309,251.917,326.846,250.464z"/>
	</g>
</g>
<g>
</g>
<g>
</g>
<g>
</g>
<g>
</g>
<g>
</g>
<g>
</g>
<g>
</g>
<g>
</g>
<g>
</g>
<g>
</g>
<g>
</g>
<g>
</g>
<g>
</g>
<g>
</g>
<g>
</g>
</svg>
