<?xml version="1.0" encoding="iso-8859-1"?>
<!-- Generator: Adobe Illustrator 19.0.0, SVG Export Plug-In . SVG Version: 6.00 Build 0)  -->
<svg xmlns="http://www.w3.org/2000/svg" xmlns:xlink="http://www.w3.org/1999/xlink" version="1.1" id="Layer_1" x="0px" y="0px" viewBox="0 0 512 512" style="enable-background:new 0 0 512 512;" xml:space="preserve">
<g>
	<g>
		<path d="M238.778,119.97c-4.328,0-7.837,3.509-7.837,7.837v5.747c0,4.328,3.509,7.837,7.837,7.837    c4.328,0,7.837-3.509,7.837-7.837v-5.747C246.615,123.478,243.106,119.97,238.778,119.97z"/>
	</g>
</g>
<g>
	<g>
		<path d="M276.889,119.97c-4.328,0-7.837,3.509-7.837,7.837v5.747c0,4.328,3.509,7.837,7.837,7.837    c4.328,0,7.837-3.509,7.837-7.837v-5.747C284.725,123.478,281.217,119.97,276.889,119.97z"/>
	</g>
</g>
<g>
	<g>
		<path d="M211.527,431.101c-4.328,0-7.837,3.509-7.837,7.837v18.995c0,4.328,3.509,7.837,7.837,7.837    c4.328,0,7.837-3.509,7.837-7.837v-18.995C219.364,434.61,215.855,431.101,211.527,431.101z"/>
	</g>
</g>
<g>
	<g>
		<path d="M234.345,431.101c-4.328,0-7.837,3.509-7.837,7.837v18.995c0,4.328,3.509,7.837,7.837,7.837    c4.328,0,7.837-3.509,7.837-7.837v-18.995C242.182,434.61,238.673,431.101,234.345,431.101z"/>
	</g>
</g>
<g>
	<g>
		<path d="M257.167,431.101c-4.328,0-7.837,3.509-7.837,7.837v18.995c0,4.328,3.509,7.837,7.837,7.837    c4.328,0,7.837-3.509,7.837-7.837v-18.995C265.004,434.61,261.495,431.101,257.167,431.101z"/>
	</g>
</g>
<g>
	<g>
		<path d="M279.988,431.101c-4.328,0-7.837,3.509-7.837,7.837v18.995c0,4.328,3.509,7.837,7.837,7.837    c4.328,0,7.837-3.509,7.837-7.837v-18.995C287.824,434.61,284.316,431.101,279.988,431.101z"/>
	</g>
</g>
<g>
	<g>
		<path d="M302.807,431.101c-4.328,0-7.837,3.509-7.837,7.837v18.995c0,4.328,3.509,7.837,7.837,7.837s7.837-3.509,7.837-7.837    v-18.995C310.644,434.61,307.135,431.101,302.807,431.101z"/>
	</g>
</g>
<g>
	<g>
		<path d="M393.079,199.244l-36.873-36.893c-2.463-2.464-5.743-3.821-9.236-3.821c-3.493,0-6.773,1.357-9.236,3.821l-26.13,26.143    l-1.808-28.946c1.42-3.673,2.207-7.658,2.207-11.826V93.668h14.004c4.328,0,7.837-3.509,7.837-7.837    c0-4.328-3.509-7.837-7.837-7.837h-7.525l4.253-8.353c1.69-3.317,1.926-7.223,0.65-10.711c-1.276-3.495-3.973-6.33-7.4-7.776    c-3.588-1.515-7.25-2.884-10.963-4.115l13.691-13.698c3.059-3.062,3.058-8.023-0.003-11.082c-3.062-3.06-8.024-3.058-11.082,0.003    l-20.104,20.114c-7.219-1.467-14.54-2.404-21.852-2.798V7.837c0-4.328-3.509-7.837-7.837-7.837s-7.837,3.509-7.837,7.837v31.741    c-7.313,0.394-14.634,1.332-21.854,2.799L208.04,22.262c-3.059-3.062-8.022-3.063-11.082-0.003    c-3.062,3.059-3.063,8.022-0.003,11.082l13.69,13.699c-3.713,1.231-7.374,2.6-10.962,4.114c-3.425,1.445-6.121,4.278-7.398,7.77    c-1.278,3.492-1.042,7.398,0.647,10.716l4.254,8.355h-6.036c-0.713-10.383-4.078-21.868-10.038-34.212    c-5.011-10.379-10.104-17.646-10.665-18.436c-2.044-2.882-5.399-4.602-8.976-4.602c-0.349,0-0.698,0.017-1.089,0.053    c-4.008,0.393-7.461,2.906-9.011,6.559l-2.979,7.027c-1.017-0.421-2.1-0.693-3.213-0.791c-3.462-0.329-6.834,0.992-9.131,3.483    c-2.144,2.324-20.944,23.332-20.944,45.034c0,8.498,3.105,16.313,8.286,22.495c-1.151,1.945-1.824,4.205-1.824,6.625v8.879    c0,7.202,5.859,13.061,13.061,13.061h1.942v18.342c0,5.088,2.931,9.494,7.187,11.65c0.022,0.097,0.04,0.191,0.062,0.288    c7.857,34.884,25.084,62.911,50.097,81.798v138.543h-8.746c-7.202,0-13.061,5.86-13.061,13.061v16.63    c0,6.311,4.5,11.59,10.459,12.8v43.187h-10.159c-7.202,0-13.061,5.86-13.061,13.061v16.411c0,7.202,5.859,13.061,13.061,13.061    h169.519c7.201,0,13.061-5.859,13.061-13.061v-16.411c0-7.201-5.859-13.061-13.061-13.061h-10.155V426.28    c5.959-1.21,10.459-6.489,10.459-12.8v-16.63c0-7.201-5.859-13.061-13.061-13.061h-4.729V358.4c0-4.328-3.509-7.837-7.837-7.837    c-4.328,0-7.837,3.509-7.837,7.837v25.389h-24.555v-69.275c0-4.328-3.509-7.837-7.837-7.837c-4.328,0-7.837,3.509-7.837,7.837    v21.193c-17.975,16.149-38.399,28.224-58.953,34.849v-56.782c19.259-5.914,38.365-17.718,54.289-33.65    c1.605-1.606,3.149-3.251,4.664-4.914v10.047c0,4.328,3.509,7.837,7.837,7.837c4.328,0,7.837-3.509,7.837-7.837V210.05    l24.555,7.012v113.126c0,4.328,3.509,7.837,7.837,7.837c4.328,0,7.837-3.509,7.837-7.837v-21.24    c23.165-12.855,38.418-32.755,47.934-49.683c0.538-0.429,1.061-0.883,1.554-1.376l11.105-11.123    c6.287-6.298,7.011-16.08,2.192-23.193l5.855-5.859C398.17,212.622,398.17,204.337,393.079,199.244z M265.558,55.273    c3.486,0.207,6.973,0.551,10.447,1.032v15.108c-3.465-0.585-6.954-1.007-10.447-1.259V55.273z M238.391,56.485    c3.819-0.566,7.656-0.963,11.492-1.197V70.17c-3.845,0.284-7.684,0.774-11.492,1.462V56.485z M257.833,85.545    c13.085,0,26.346,2.823,38.35,8.165c0.048,0.022,0.098,0.036,0.147,0.056v9.632c-1.14,0.102-2.287,0.155-3.435,0.155    c-11.235,0-21.823-4.955-29.05-13.595c-1.489-1.779-3.69-2.809-6.01-2.809c-2.321,0-4.521,1.028-6.011,2.809    c-7.229,8.64-17.818,13.595-29.051,13.595c-1.148,0-2.294-0.051-3.434-0.155v-9.632c0.048-0.021,0.099-0.036,0.147-0.056    C231.488,88.367,244.747,85.545,257.833,85.545z M130.774,82.11c0-11.019,7.866-23.074,12.83-29.584l0.4,0.65    c1.538,2.496,4.334,3.925,7.264,3.703c2.924-0.221,5.479-2.056,6.624-4.755l4.39-10.354c5.322,9.173,13.34,25.464,13.34,40.339    c0,6.501-3.328,12.294-8.496,16.058H139.27C134.103,94.404,130.774,88.61,130.774,82.11z M137.236,117.495v-3.653h31.925v3.653    H137.236z M154.157,148.898h-1.917v-15.73h1.917V148.898z M193.912,224.791c-16.17-15.323-27.5-35.637-33.802-60.669    c5.586-1.482,9.722-6.566,9.722-12.612v-18.342h1.74c4.172,19.86,11.642,36.064,22.341,48.426V224.791z M184.833,117.589v-6.36    c0-2.419-0.673-4.679-1.824-6.624c2.728-3.254,4.873-6.965,6.301-10.987c0.283,0.031,0.569,0.049,0.861,0.049h13.494v54.056    c0,3.877,0.678,7.596,1.915,11.054l-0.719,11.508C194.374,157.634,187.666,139.978,184.833,117.589z M268.538,356.136v27.653    h-49.209C236.339,377.642,253.101,368.209,268.538,356.136z M326.557,399.462v11.405h-19.358c-4.328,0-7.837,3.509-7.837,7.837    c0,4.328,3.509,7.837,7.837,7.837h8.899v42.925h-71.593c-4.328,0-7.837,3.509-7.837,7.837c0,4.328,3.509,7.837,7.837,7.837h94.809    v11.187H175.019V485.14h39.184c4.328,0,7.837-3.509,7.837-7.837c0-4.328-3.509-7.837-7.837-7.837h-15.966v-42.925h77.615    c4.328,0,7.837-3.509,7.837-7.837c0-4.328-3.509-7.837-7.837-7.837h-88.074v-11.405H326.557z M207.994,64.681    c4.793-1.919,9.718-3.56,14.724-4.918v15.888c-2.592,0.871-5.15,1.837-7.663,2.896L207.994,64.681z M264.905,204.537    c-4.36,6.318-9.353,12.323-14.948,17.921c-11.996,12.003-26.063,21.409-40.372,27.121v-60.84L264.905,204.537z M268.538,249.967    c-4.5,6.669-9.77,13.095-15.75,19.079c-12.854,12.861-27.926,22.649-43.203,28.204v-30.974    c18.451-6.189,36.152-17.427,51.457-32.739c2.621-2.622,5.111-5.333,7.496-8.109V249.967z M242.862,181.942l0.095-1.323h28.831    l0.7,9.783L242.862,181.942z M279.12,164.944h-42.575c-9.489,0-17.207-7.725-17.207-17.222v-28.609    c1.142,0.073,2.287,0.112,3.434,0.112c13.003,0,25.392-4.691,35.062-13.087c9.669,8.397,22.058,13.087,35.062,13.087    c1.147,0,2.292-0.04,3.435-0.113v28.61C296.33,157.22,288.61,164.944,279.12,164.944z M288.53,194.983l-1.104-15.429    c2.728-0.714,5.315-1.772,7.721-3.121l1.3,20.811L288.53,194.983z M300.611,78.547c-2.923-1.232-5.907-2.33-8.934-3.306V59.428    c5.444,1.421,10.797,3.171,15.994,5.254L300.611,78.547z M324.44,290.452v-15.577c1.585,0.667,3.302,1.02,5.075,1.02    c3.493,0,6.774-1.357,9.236-3.821l11.98-11.987c0.611,0.417,1.247,0.79,1.901,1.127    C345.674,271.506,336.435,282.102,324.44,290.452z M373.942,235.692l-11.105,11.122c-0.652,0.652-1.432,0.75-1.837,0.75    c-0.406,0-1.186-0.097-1.837-0.749l-7.048-7.059c-1.005-1.006-1.005-2.706,0.001-3.714l11.103-11.121    c0.653-0.653,1.432-0.75,1.838-0.75c0.406,0,1.185,0.097,1.838,0.75l7.047,7.057C374.946,232.984,374.946,234.685,373.942,235.692    z M376.277,212.356c-3.191-2.493-7.095-3.859-11.221-3.859c-4.892,0-9.483,1.9-12.93,5.35l-11.103,11.122    c-6.579,6.587-7.066,16.983-1.491,24.152l-10.018,10.025l-5.075-5.078v-42.915c0-3.499-2.32-6.574-5.684-7.536l-0.08-0.023    l28.295-28.309l33.181,33.199L376.277,212.356z"/>
	</g>
</g>
<g>
</g>
<g>
</g>
<g>
</g>
<g>
</g>
<g>
</g>
<g>
</g>
<g>
</g>
<g>
</g>
<g>
</g>
<g>
</g>
<g>
</g>
<g>
</g>
<g>
</g>
<g>
</g>
<g>
</g>
</svg>
