<?xml version="1.0" encoding="iso-8859-1"?>
<!-- Generator: Adobe Illustrator 19.0.0, SVG Export Plug-In . SVG Version: 6.00 Build 0)  -->
<svg xmlns="http://www.w3.org/2000/svg" xmlns:xlink="http://www.w3.org/1999/xlink" version="1.1" id="Layer_1" x="0px" y="0px" viewBox="0 0 512 512" style="enable-background:new 0 0 512 512;" xml:space="preserve">
<g>
	<g>
		<path d="M498.939,88.771h-86.204c-4.329,0-7.837,3.509-7.837,7.837c0,4.328,3.508,7.837,7.837,7.837h83.592v191.233h-33.39    v-56.373c1.457-0.548,2.953-1.018,4.491-1.393c6.533-1.592,11.095-7.408,11.095-14.142v-47.416c0-6.735-4.563-12.55-11.093-14.142    c-14.201-3.466-25.171-14.475-28.625-28.727c-1.585-6.549-7.393-11.124-14.124-11.124H136.38c-6.728,0-12.535,4.573-14.122,11.12    c-3.456,14.257-14.425,25.266-28.623,28.731c-6.533,1.591-11.095,7.407-11.095,14.142v24.296H64.736v-96.204h318.74    c4.329,0,7.837-3.509,7.837-7.837c0-4.328-3.508-7.837-7.837-7.837H62.124c-7.203,0-13.061,5.86-13.061,13.061v98.817H13.061    C5.859,200.649,0,206.508,0,213.71v196.458c0,7.202,5.859,13.061,13.061,13.061h56.947c4.329,0,7.837-3.509,7.837-7.837    c0-4.328-3.508-7.837-7.837-7.837H15.673V216.323h431.59v191.233H100.31c-4.329,0-7.837,3.509-7.837,7.837    c0,4.328,3.508,7.837,7.837,7.837h349.565c7.202,0,13.061-5.859,13.061-13.061v-98.817h36.002c7.202,0,13.061-5.859,13.061-13.061    V101.832C512,94.631,506.141,88.771,498.939,88.771z M178.604,200.649h-21.326c-0.011-0.196-0.034-0.39-0.034-0.589    c0-5.932,4.798-10.757,10.696-10.757c5.898,0,10.699,4.826,10.699,10.757C178.638,200.259,178.614,200.453,178.604,200.649z     M194.287,200.649c0.004-0.198,0.024-0.391,0.024-0.589c0-14.574-11.83-26.431-26.372-26.431    c-14.54,0-26.369,11.857-26.369,26.431c0,0.198,0.021,0.392,0.024,0.589H98.215v-23.43c19.214-5.018,34.065-19.916,39.06-39.186    h132.01c-29.319,5.334-51.629,31.108-51.629,62.026c0,0.198,0.009,0.393,0.01,0.589H194.287z M327.721,200.649h-24.966    c-3.328-5.025-9.017-8.346-15.478-8.346h-2.149h-1.372h-9.971c-1.61,0-2.92-1.325-2.92-2.955c0-1.629,1.31-2.955,2.92-2.955    h19.359c4.329,0,7.837-3.509,7.837-7.837s-3.508-7.837-7.837-7.837h-4.776v-1.975c0-4.328-3.508-7.837-7.837-7.837    c-4.329,0-7.837,3.509-7.837,7.837v2.03c-9.745,0.571-17.503,8.67-17.503,18.572c0,4.252,1.445,8.163,3.847,11.301h-25.696    c-0.002-0.196-0.014-0.392-0.014-0.589c0-26.127,21.175-47.383,47.202-47.383s47.202,21.255,47.202,47.383    C327.733,200.257,327.723,200.453,327.721,200.649z M403.788,200.649h-21.326c-0.011-0.196-0.034-0.39-0.034-0.589    c0-5.932,4.798-10.757,10.696-10.757c5.899,0,10.699,4.826,10.699,10.757C403.822,200.259,403.798,200.453,403.788,200.649z     M449.876,200.649H419.47c0.005-0.197,0.024-0.391,0.024-0.589c0-14.574-11.83-26.431-26.372-26.431    c-14.54,0-26.369,11.858-26.369,26.431c0,0.199,0.021,0.392,0.024,0.589h-23.382c0.002-0.196,0.011-0.392,0.011-0.589    c0-30.919-22.312-56.692-51.629-62.026h132.01c4.995,19.268,19.847,34.166,39.061,39.186v35.026    C462.117,205.731,456.582,200.649,449.876,200.649z"/>
	</g>
</g>
<g>
	<g>
		<path d="M418.367,274.089c-14.201-3.466-25.171-14.475-28.625-28.732c-1.587-6.547-7.394-11.121-14.123-11.121H87.317    c-6.729,0-12.537,4.573-14.122,11.121c-3.456,14.257-14.425,25.266-28.624,28.73c-6.533,1.592-11.095,7.408-11.095,14.142v47.416    c0,6.735,4.563,12.55,11.094,14.142c14.201,3.465,25.169,14.474,28.624,28.728c1.585,6.548,7.392,11.123,14.122,11.123h210.48    c4.329,0,7.837-3.509,7.837-7.837c0-4.328-3.508-7.837-7.837-7.837h-55.083c29.32-5.333,51.631-31.108,51.631-62.028    c0-4.634-0.505-9.26-1.5-13.75c-0.936-4.224-5.126-6.893-9.347-5.955c-4.226,0.936-6.892,5.122-5.955,9.348    c0.749,3.377,1.128,6.862,1.128,10.357c0,26.128-21.175,47.385-47.202,47.385s-47.202-21.257-47.202-47.385    c0-26.127,21.175-47.383,47.202-47.383c12.996,0,25.107,5.191,34.1,14.618c2.988,3.133,7.949,3.249,11.08,0.261    c3.132-2.987,3.249-7.948,0.261-11.08c-9.317-9.768-21.155-16.102-34.107-18.443h131.921    c4.995,19.269,19.847,34.168,39.061,39.186v45.683c-19.214,5.016-34.067,19.916-39.061,39.186h-47.671    c-4.329,0-7.837,3.509-7.837,7.837c0,4.331,3.508,7.839,7.837,7.839h48.565c6.728,0,12.535-4.573,14.123-11.121    c3.456-14.258,14.424-25.266,28.624-28.73c6.533-1.591,11.095-7.407,11.095-14.142V288.23    C429.459,281.497,424.897,275.682,418.367,274.089z M168.593,311.938c0,30.921,22.312,56.695,51.63,62.028H88.212    c-4.995-19.269-19.848-34.168-39.061-39.186v-45.683c19.213-5.018,34.065-19.917,39.061-39.186h132.013    C190.905,255.244,168.593,281.019,168.593,311.938z"/>
	</g>
</g>
<g>
	<g>
		<path d="M118.875,285.508c-14.54,0-26.369,11.856-26.369,26.431c-0.001,14.573,11.829,26.432,26.369,26.432    c14.543,0,26.373-11.857,26.373-26.432C145.248,297.365,133.418,285.508,118.875,285.508z M118.875,322.696    c-5.898,0-10.696-4.826-10.696-10.758c-0.001-5.932,4.797-10.757,10.696-10.757c5.899,0,10.7,4.825,10.7,10.757    S124.774,322.696,118.875,322.696z"/>
	</g>
</g>
<g>
	<g>
		<path d="M344.059,285.508c-14.54,0-26.369,11.856-26.369,26.431c0,14.573,11.829,26.432,26.369,26.432    c14.541,0,26.371-11.857,26.371-26.432C370.43,297.365,358.6,285.508,344.059,285.508z M344.059,322.696    c-5.898,0-10.696-4.826-10.696-10.758c0-5.932,4.798-10.757,10.696-10.757c5.899,0,10.698,4.825,10.698,10.757    S349.957,322.696,344.059,322.696z"/>
	</g>
</g>
<g>
	<g>
		<path d="M238.215,304.182h-13.492c-1.61,0-2.921-1.326-2.921-2.955c0-1.629,1.31-2.955,2.921-2.955h19.359    c4.329,0,7.837-3.509,7.837-7.837s-3.508-7.837-7.837-7.837h-4.776v-1.975c0-4.328-3.509-7.837-7.837-7.837    c-4.329,0-7.837,3.509-7.837,7.837v2.029c-9.745,0.57-17.503,8.671-17.503,18.573c0,10.272,8.34,18.628,18.594,18.628h13.492    c1.61,0,2.921,1.326,2.921,2.955c0,1.629-1.31,2.954-2.921,2.954h-23.076c-4.329,0-7.837,3.509-7.837,7.837    c0,4.328,3.508,7.837,7.837,7.837h8.493v1.816c0,4.329,3.508,7.838,7.837,7.838c4.328,0,7.837-3.509,7.837-7.837v-1.871    c9.745-0.57,17.503-8.67,17.503-18.572C256.809,312.539,248.468,304.182,238.215,304.182z"/>
	</g>
</g>
<g>
</g>
<g>
</g>
<g>
</g>
<g>
</g>
<g>
</g>
<g>
</g>
<g>
</g>
<g>
</g>
<g>
</g>
<g>
</g>
<g>
</g>
<g>
</g>
<g>
</g>
<g>
</g>
<g>
</g>
</svg>
