<?xml version="1.0" encoding="iso-8859-1"?>
<!-- Generator: Adobe Illustrator 19.0.0, SVG Export Plug-In . SVG Version: 6.00 Build 0)  -->
<svg xmlns="http://www.w3.org/2000/svg" xmlns:xlink="http://www.w3.org/1999/xlink" version="1.1" id="Layer_1" x="0px" y="0px" viewBox="0 0 512.001 512.001" style="enable-background:new 0 0 512.001 512.001;" xml:space="preserve">
<g>
	<g>
		<path d="M414.494,414.332c-1.484-4.486-5.275-7.934-9.888-8.998l-12.097-2.798l-6.42-10.486    c-2.465-4.017-6.934-6.512-11.661-6.512c-4.732,0-9.203,2.496-11.67,6.519l-6.414,10.479l-12.089,2.797    c-4.623,1.065-8.414,4.514-9.899,9.019c-1.479,4.511-0.455,9.54,2.679,13.13l8.079,9.24l-1.038,12.162    c-0.399,4.723,1.753,9.381,5.613,12.153c2.341,1.683,5.107,2.574,8,2.574c1.82,0,3.594-0.355,5.261-1.051l11.476-4.769    l11.458,4.763c1.677,0.702,3.453,1.058,5.277,1.058c2.891,0,5.657-0.889,7.999-2.57c3.879-2.785,6.027-7.453,5.612-12.158    l-1.032-12.161l8.075-9.237C414.957,423.895,415.985,418.859,414.494,414.332z M390.326,428.253    c-1.776,2.05-2.652,4.766-2.406,7.385l0.949,11.18l-10.57-4.394c-2.477-1.038-5.334-1.016-7.721-0.008l-10.593,4.402l0.949-11.128    c0.248-2.709-0.643-5.438-2.427-7.465l-7.347-8.403l11.027-2.551c2.604-0.601,4.897-2.252,6.287-4.526l5.954-9.729l5.941,9.705    c1.39,2.289,3.687,3.949,6.297,4.549l11.03,2.551L390.326,428.253z"/>
	</g>
</g>
<g>
	<g>
		<path d="M269.973,298.151h-27.947c-4.329,0-7.837,3.509-7.837,7.837s3.508,7.837,7.837,7.837h27.947    c4.329,0,7.837-3.509,7.837-7.837S274.302,298.151,269.973,298.151z"/>
	</g>
</g>
<g>
	<g>
		<path d="M212.27,203.338c-4.329,0-7.837,3.509-7.837,7.837v15.195c0,4.328,3.508,7.837,7.837,7.837    c4.329,0,7.837-3.509,7.837-7.837v-15.195C220.107,206.846,216.598,203.338,212.27,203.338z"/>
	</g>
</g>
<g>
	<g>
		<path d="M299.733,203.338c-4.329,0-7.837,3.509-7.837,7.837v15.195c0,4.328,3.508,7.837,7.837,7.837s7.837-3.509,7.837-7.837    v-15.195C307.57,206.847,304.062,203.338,299.733,203.338z"/>
	</g>
</g>
<g>
	<g>
		<path d="M462.747,144.989l-3.734-11.471c-2.56-7.77-9.893-12.991-18.246-12.991c-1.93,0-3.846,0.285-5.698,0.848    c-23.383,7.114-47.119,12.791-71.091,17.065l-14.81-63.932c-0.977-4.217-5.188-6.843-9.403-5.866    c-4.216,0.977-6.843,5.187-5.866,9.403l4.238,18.295h-0.978c-4.329,0-7.837,3.509-7.837,7.837c0,4.328,3.508,7.837,7.837,7.837    h4.61l2.096,9.049H168.141l2.096-9.049h4.604c4.329,0,7.837-3.509,7.837-7.837c0-4.328-3.508-7.837-7.837-7.837h-0.974    l12.363-53.37c0.673-0.919,1.153-1.997,1.373-3.178c2.625-13.975,14.999-24.119,29.421-24.119    c14.423,0,26.794,10.144,29.416,24.119c0.695,3.706,3.932,6.392,7.702,6.392h3.715c3.77,0,7.006-2.685,7.702-6.391    c2.624-13.977,14.996-24.12,29.419-24.12s26.795,10.144,29.418,24.119c0.221,1.183,0.703,2.261,1.376,3.182l1.832,7.904    c0.978,4.217,5.191,6.842,9.404,5.866c4.216-0.977,6.842-5.187,5.865-9.404l-2.494-10.762c-0.242-1.046-0.688-2.003-1.288-2.831    C333.898,14.01,315.841,0,294.978,0c-16.308,0-30.902,8.561-38.977,21.726C247.927,8.56,233.333,0,217.024,0    c-20.866,0-38.926,14.012-44.117,33.752c-0.599,0.828-1.044,1.783-1.285,2.827l-23.597,101.863    c-23.974-4.275-47.712-9.952-71.096-17.066c-1.851-0.562-3.768-0.848-5.697-0.848c-8.352,0-15.685,5.221-18.254,13.019    l-3.718,11.416c-1.542,4.676-1.112,9.714,1.209,14.188c2.43,4.685,6.78,8.271,11.931,9.837    c22.333,6.795,44.965,12.375,67.808,16.775c-0.012,0.27-0.025,0.539-0.025,0.812v44.63c0,10.138,8.25,18.386,18.39,18.386h11.162    v20.743c-12.428,8.606-20.579,22.878-20.579,39.013c0,8.415,2.211,16.542,6.416,23.748H94.653    c-12.661,0-22.962,10.296-22.962,22.951v143.08c0,7.099,5.777,12.875,12.879,12.875h49.176c4.329,0,7.837-3.509,7.837-7.837    s-3.508-7.837-7.837-7.837H87.365V356.046c0-4.012,3.269-7.278,7.288-7.278h62.309l28.766,38.243v109.315h-23.77    c-4.329,0-7.837,3.509-7.837,7.837c0,4.328,3.508,7.837,7.837,7.837h265.471c7.101,0,12.877-5.775,12.877-12.875v-72.806    c0-4.328-3.508-7.837-7.837-7.837c-4.329,0-7.837,3.509-7.837,7.837v70.008h-98.362V387.01l28.766-38.243h62.307    c4.019,0,7.288,3.264,7.288,7.278v42.061c0,4.328,3.508,7.837,7.837,7.837c4.329,0,7.837-3.509,7.837-7.837v-42.06    c0-12.655-10.3-22.951-22.962-22.951H366.43c4.205-7.208,6.418-15.335,6.418-23.748c0-16.136-8.152-30.41-20.581-39.015v-20.742    h9.835c10.14,0,18.39-8.247,18.39-18.386v-44.63c0-0.186-0.011-0.369-0.017-0.553c23.288-4.438,46.359-10.107,69.119-17.032    c5.154-1.564,9.505-5.149,11.937-9.836C463.851,154.68,464.28,149.64,462.747,144.989z M164.51,136.737h182.985l0.99,4.274    c-30.553,4.645-61.455,6.999-92.484,6.999c-31.028,0-61.929-2.353-92.481-6.999L164.51,136.737z M148.574,233.916    c-1.472,0-2.717-1.241-2.717-2.713v-42.597c4.617,0.775,9.245,1.491,13.877,2.168v43.142H148.574z M210.294,496.327h-8.892    v-88.479l8.892,11.821V496.327z M286.032,496.327h-60.065v-55.822l14.181,18.854c3.723,4.936,9.648,7.883,15.851,7.883    c6.199,0,12.125-2.946,15.857-7.891l14.175-18.846V496.327z M310.598,496.327h-8.892v-76.658l8.892-11.821V496.327z     M352.267,305.902v-13.414c3.1,4.895,4.906,10.669,4.906,16.858c0,6.54-1.996,12.826-5.774,18.186l-63.552,84.487l-25.799-34.297    c-2.601-3.46-7.514-4.155-10.974-1.552c-3.458,2.602-4.154,7.515-1.551,10.974l28.842,37.478l-19.028,25.295    c-0.779,1.032-2.027,1.65-3.338,1.65c-1.312,0-2.559-0.615-3.331-1.638l-92.067-122.396c-3.776-5.358-5.772-11.644-5.772-18.186    c0-6.187,1.806-11.96,4.906-16.855v13.411c0,13.046,10.617,23.66,23.667,23.66h5.372v8.184c0,8.253,6.747,14.967,15.041,14.967    h19.808l10.18,13.534c1.54,2.048,3.889,3.126,6.268,3.126c1.639,0,3.294-0.513,4.705-1.575c3.459-2.602,4.153-7.515,1.551-10.974    l-3.094-4.113h64.954c8.294,0,15.041-6.714,15.041-14.967v-8.184h5.372C341.651,329.562,352.267,318.948,352.267,305.902z     M301.888,298.282c3.761,7.225,5.668,15.033,5.668,23.205v15.552H204.447v-15.552c0-28.09,23.127-50.943,51.553-50.943    c10.813,0,21.17,3.286,29.949,9.502c3.536,2.503,8.423,1.664,10.924-1.868c2.5-3.532,1.664-8.423-1.867-10.924    c-9.3-6.584-19.951-10.645-31.169-11.936v-35.89c0-4.328-3.508-7.837-7.837-7.837s-7.837,3.509-7.837,7.837v35.911    c-30.869,3.57-55.414,27.935-58.94,58.55h-5.821c-4.408,0-7.993-3.583-7.993-7.986V192.861    c26.692,3.256,53.595,4.921,80.591,4.921c26.996,0,53.9-1.666,80.593-4.921v113.042c0,4.403-3.585,7.986-7.991,7.986h-5.817    c-0.928-7.961-3.297-15.742-6.992-22.845c-1.998-3.84-6.729-5.331-10.569-3.333C301.382,289.711,299.889,294.442,301.888,298.282z     M364.817,231.204c0,1.47-1.243,2.713-2.717,2.713h-9.835v-43.142c4.19-0.613,8.374-1.263,12.551-1.955V231.204z M447.619,151.933    c-0.5,0.961-1.44,1.712-2.583,2.059c-61.323,18.657-124.924,28.116-189.037,28.116S128.284,172.65,66.96,153.992    c-1.139-0.347-2.078-1.097-2.578-2.06c-0.256-0.492-0.504-1.249-0.228-2.088l3.719-11.42c0.432-1.308,1.812-2.222,3.359-2.222    c0.383,0,0.767,0.057,1.138,0.17c59.568,18.123,121.35,27.312,183.629,27.312s124.062-9.189,183.628-27.312    c1.867-0.572,3.961,0.425,4.49,2.028l3.734,11.471C448.121,150.685,447.873,151.441,447.619,151.933z"/>
	</g>
</g>
<g>
	<g>
		<path d="M209.809,96.342h-13.032c-4.329,0-7.837,3.509-7.837,7.837c0,4.328,3.508,7.837,7.837,7.837h13.032    c4.329,0,7.837-3.509,7.837-7.837C217.646,99.85,214.138,96.342,209.809,96.342z"/>
	</g>
</g>
<g>
	<g>
		<path d="M244.559,96.342h-13.032c-4.329,0-7.837,3.509-7.837,7.837c0,4.328,3.508,7.837,7.837,7.837h13.032    c4.329,0,7.837-3.509,7.837-7.837C252.396,99.85,248.888,96.342,244.559,96.342z"/>
	</g>
</g>
<g>
	<g>
		<path d="M314.061,96.342h-13.032c-4.329,0-7.837,3.509-7.837,7.837c0,4.328,3.508,7.837,7.837,7.837h13.032    c4.329,0,7.837-3.509,7.837-7.837C321.897,99.85,318.39,96.342,314.061,96.342z"/>
	</g>
</g>
<g>
	<g>
		<path d="M279.31,96.342h-13.031c-4.329,0-7.837,3.509-7.837,7.837c0,4.328,3.508,7.837,7.837,7.837h13.031    c4.329,0,7.837-3.509,7.837-7.837C287.146,99.85,283.639,96.342,279.31,96.342z"/>
	</g>
</g>
<g>
</g>
<g>
</g>
<g>
</g>
<g>
</g>
<g>
</g>
<g>
</g>
<g>
</g>
<g>
</g>
<g>
</g>
<g>
</g>
<g>
</g>
<g>
</g>
<g>
</g>
<g>
</g>
<g>
</g>
</svg>
