<?xml version="1.0" encoding="iso-8859-1"?>
<!-- Generator: Adobe Illustrator 19.0.0, SVG Export Plug-In . SVG Version: 6.00 Build 0)  -->
<svg xmlns="http://www.w3.org/2000/svg" xmlns:xlink="http://www.w3.org/1999/xlink" version="1.1" id="Layer_1" x="0px" y="0px" viewBox="0 0 512 512" style="enable-background:new 0 0 512 512;" xml:space="preserve">
<g>
	<g>
		<path d="M56.215,122.985c-1.452-1.463-3.469-2.299-5.538-2.299s-4.086,0.836-5.538,2.299c-1.463,1.452-2.299,3.479-2.299,5.538    s0.836,4.086,2.299,5.538c1.452,1.463,3.48,2.299,5.538,2.299c2.058,0,4.086-0.836,5.538-2.299    c1.463-1.452,2.299-3.469,2.299-5.538C58.514,126.464,57.678,124.437,56.215,122.985z"/>
	</g>
</g>
<g>
	<g>
		<path d="M88.607,122.985c-1.452-1.463-3.479-2.299-5.538-2.299s-4.086,0.836-5.538,2.299c-1.463,1.452-2.299,3.479-2.299,5.538    s0.836,4.086,2.299,5.538c1.452,1.463,3.479,2.299,5.538,2.299s4.086-0.836,5.538-2.299c1.463-1.452,2.299-3.479,2.299-5.538    S90.07,124.437,88.607,122.985z"/>
	</g>
</g>
<g>
	<g>
		<path d="M120.999,122.985c-1.452-1.463-3.479-2.299-5.538-2.299s-4.086,0.836-5.538,2.299c-1.463,1.452-2.299,3.479-2.299,5.538    s0.836,4.086,2.299,5.538c1.452,1.463,3.479,2.299,5.538,2.299s4.086-0.836,5.538-2.299c1.463-1.452,2.299-3.469,2.299-5.538    C123.298,126.464,122.462,124.437,120.999,122.985z"/>
	</g>
</g>
<g>
	<g>
		<path d="M153.391,122.985c-1.452-1.463-3.48-2.299-5.538-2.299c-2.058,0-4.086,0.836-5.538,2.299    c-1.463,1.452-2.299,3.479-2.299,5.538s0.836,4.086,2.299,5.538c1.452,1.463,3.479,2.299,5.538,2.299    c2.069,0,4.086-0.836,5.538-2.299c1.463-1.452,2.299-3.469,2.299-5.538C155.69,126.464,154.854,124.437,153.391,122.985z"/>
	</g>
</g>
<g>
	<g>
		<path d="M185.783,122.985c-1.452-1.463-3.469-2.299-5.538-2.299c-2.058,0-4.086,0.836-5.538,2.299    c-1.463,1.452-2.299,3.479-2.299,5.538s0.836,4.086,2.299,5.538c1.452,1.463,3.479,2.299,5.538,2.299    c2.058,0,4.086-0.836,5.538-2.299c1.463-1.452,2.299-3.479,2.299-5.538S187.246,124.437,185.783,122.985z"/>
	</g>
</g>
<g>
	<g>
		<path d="M40.02,109.401c-1.452-1.463-3.479-2.299-5.538-2.299c-2.058,0-4.086,0.836-5.538,2.299    c-1.463,1.452-2.299,3.479-2.299,5.538s0.836,4.086,2.299,5.538c1.452,1.463,3.48,2.299,5.538,2.299    c2.058,0,4.086-0.836,5.538-2.299c1.463-1.452,2.299-3.479,2.299-5.538S41.482,110.853,40.02,109.401z"/>
	</g>
</g>
<g>
	<g>
		<path d="M72.411,109.401c-1.452-1.463-3.479-2.299-5.538-2.299c-2.069,0-4.086,0.836-5.538,2.299    c-1.463,1.452-2.299,3.479-2.299,5.538c0,2.069,0.836,4.086,2.299,5.538c1.452,1.463,3.479,2.299,5.538,2.299    s4.086-0.836,5.538-2.299c1.463-1.452,2.299-3.469,2.299-5.538C74.71,112.88,73.874,110.853,72.411,109.401z"/>
	</g>
</g>
<g>
	<g>
		<path d="M104.803,109.401c-1.452-1.463-3.479-2.299-5.538-2.299c-2.069,0-4.086,0.836-5.538,2.299    c-1.463,1.452-2.299,3.479-2.299,5.538s0.836,4.086,2.299,5.538c1.452,1.463,3.469,2.299,5.538,2.299    c2.058,0,4.086-0.836,5.538-2.299c1.463-1.452,2.299-3.479,2.299-5.538S106.266,110.853,104.803,109.401z"/>
	</g>
</g>
<g>
	<g>
		<path d="M137.195,109.401c-1.452-1.463-3.469-2.299-5.538-2.299s-4.086,0.836-5.538,2.299c-1.463,1.452-2.299,3.479-2.299,5.538    s0.836,4.086,2.299,5.538c1.452,1.463,3.479,2.299,5.538,2.299c2.058,0,4.086-0.836,5.538-2.299    c1.463-1.452,2.299-3.479,2.299-5.538S138.658,110.853,137.195,109.401z"/>
	</g>
</g>
<g>
	<g>
		<path d="M169.587,109.401c-1.452-1.463-3.48-2.299-5.538-2.299c-2.058,0-4.086,0.836-5.538,2.299    c-1.463,1.452-2.299,3.479-2.299,5.538c0,2.069,0.836,4.086,2.299,5.538c1.463,1.463,3.479,2.299,5.538,2.299    c2.058,0,4.086-0.836,5.538-2.299c1.463-1.452,2.299-3.479,2.299-5.538S171.05,110.853,169.587,109.401z"/>
	</g>
</g>
<g>
	<g>
		<path d="M201.979,109.401c-1.452-1.463-3.469-2.299-5.538-2.299c-2.069,0-4.086,0.836-5.538,2.299    c-1.463,1.452-2.299,3.479-2.299,5.538s0.836,4.086,2.299,5.538c1.452,1.463,3.469,2.299,5.538,2.299    c2.069,0,4.086-0.836,5.538-2.299c1.463-1.452,2.299-3.479,2.299-5.538S203.442,110.853,201.979,109.401z"/>
	</g>
</g>
<g>
	<g>
		<path d="M56.215,149.107c-1.452-1.463-3.479-2.299-5.538-2.299c-2.058,0-4.086,0.836-5.538,2.299    c-1.463,1.452-2.299,3.48-2.299,5.538c0,2.058,0.836,4.086,2.299,5.538c1.452,1.463,3.48,2.299,5.538,2.299    c2.058,0,4.086-0.836,5.538-2.299c1.463-1.452,2.299-3.469,2.299-5.538C58.514,152.587,57.678,150.559,56.215,149.107z"/>
	</g>
</g>
<g>
	<g>
		<path d="M88.607,149.107c-1.452-1.463-3.479-2.299-5.538-2.299s-4.086,0.836-5.538,2.299c-1.463,1.452-2.299,3.469-2.299,5.538    c0,2.058,0.836,4.086,2.299,5.538c1.452,1.463,3.469,2.299,5.538,2.299c2.058,0,4.086-0.836,5.538-2.299    c1.463-1.463,2.299-3.479,2.299-5.538C90.906,152.587,90.07,150.559,88.607,149.107z"/>
	</g>
</g>
<g>
	<g>
		<path d="M120.999,149.107c-1.452-1.463-3.469-2.299-5.538-2.299c-2.058,0-4.086,0.836-5.538,2.299    c-1.463,1.452-2.299,3.48-2.299,5.538c0,2.058,0.836,4.086,2.299,5.538c1.452,1.463,3.479,2.299,5.538,2.299    s4.086-0.836,5.538-2.299c1.463-1.452,2.299-3.479,2.299-5.538C123.298,152.587,122.462,150.559,120.999,149.107z"/>
	</g>
</g>
<g>
	<g>
		<path d="M153.391,149.107c-1.452-1.463-3.469-2.299-5.538-2.299c-2.058,0-4.086,0.836-5.538,2.299    c-1.463,1.452-2.299,3.48-2.299,5.538c0,2.058,0.836,4.086,2.299,5.538c1.452,1.463,3.479,2.299,5.538,2.299    c2.069,0,4.086-0.836,5.538-2.299c1.463-1.452,2.299-3.479,2.299-5.538C155.69,152.587,154.854,150.559,153.391,149.107z"/>
	</g>
</g>
<g>
	<g>
		<path d="M185.783,149.107c-1.452-1.463-3.48-2.299-5.538-2.299c-2.058,0-4.086,0.836-5.538,2.299    c-1.463,1.452-2.299,3.48-2.299,5.538c0,2.058,0.836,4.086,2.299,5.538c1.452,1.463,3.479,2.299,5.538,2.299    c2.058,0,4.086-0.836,5.538-2.299c1.463-1.452,2.299-3.479,2.299-5.538C188.082,152.587,187.246,150.559,185.783,149.107z"/>
	</g>
</g>
<g>
	<g>
		<path d="M40.02,135.523c-1.452-1.463-3.479-2.299-5.538-2.299c-2.058,0-4.086,0.836-5.538,2.299    c-1.463,1.452-2.299,3.48-2.299,5.538c0,2.069,0.836,4.086,2.299,5.538c1.452,1.463,3.48,2.299,5.538,2.299    c2.058,0,4.086-0.836,5.538-2.299c1.463-1.452,2.299-3.469,2.299-5.538C42.318,139.003,41.482,136.976,40.02,135.523z"/>
	</g>
</g>
<g>
	<g>
		<path d="M72.411,135.523c-1.452-1.463-3.479-2.299-5.538-2.299c-2.069,0-4.086,0.836-5.538,2.299    c-1.463,1.452-2.299,3.48-2.299,5.538c0,2.069,0.836,4.086,2.299,5.538c1.452,1.463,3.469,2.299,5.538,2.299    c2.058,0,4.086-0.836,5.538-2.299c1.463-1.452,2.299-3.479,2.299-5.538C74.71,139.003,73.874,136.976,72.411,135.523z"/>
	</g>
</g>
<g>
	<g>
		<path d="M104.803,135.523c-1.452-1.463-3.469-2.299-5.538-2.299s-4.086,0.836-5.538,2.299c-1.463,1.452-2.299,3.48-2.299,5.538    c0,2.058,0.836,4.086,2.299,5.538c1.452,1.463,3.479,2.299,5.538,2.299s4.086-0.836,5.538-2.299    c1.463-1.452,2.299-3.469,2.299-5.538C107.102,138.992,106.266,136.976,104.803,135.523z"/>
	</g>
</g>
<g>
	<g>
		<path d="M137.195,135.523c-1.452-1.463-3.48-2.299-5.538-2.299c-2.058,0-4.086,0.836-5.538,2.299    c-1.463,1.452-2.299,3.48-2.299,5.538c0,2.058,0.836,4.086,2.299,5.538c1.452,1.463,3.479,2.299,5.538,2.299    c2.058,0,4.086-0.836,5.538-2.299c1.463-1.452,2.299-3.479,2.299-5.538C139.494,139.003,138.658,136.976,137.195,135.523z"/>
	</g>
</g>
<g>
	<g>
		<path d="M169.587,135.523c-1.452-1.463-3.48-2.299-5.538-2.299c-2.058,0-4.086,0.836-5.538,2.299    c-1.463,1.452-2.299,3.48-2.299,5.538c0,2.058,0.836,4.086,2.299,5.538c1.452,1.463,3.479,2.299,5.538,2.299    c2.058,0,4.086-0.836,5.538-2.299c1.463-1.452,2.299-3.479,2.299-5.538C171.886,139.003,171.05,136.976,169.587,135.523z"/>
	</g>
</g>
<g>
	<g>
		<path d="M201.979,135.523c-1.452-1.463-3.469-2.299-5.538-2.299c-2.069,0-4.086,0.836-5.538,2.299    c-1.463,1.452-2.299,3.469-2.299,5.538c0,2.069,0.836,4.086,2.299,5.538c1.452,1.463,3.48,2.299,5.538,2.299    c2.058,0,4.086-0.836,5.538-2.299c1.463-1.452,2.299-3.469,2.299-5.538C204.278,138.992,203.442,136.976,201.979,135.523z"/>
	</g>
</g>
<g>
	<g>
		<path d="M56.215,175.229c-1.452-1.463-3.479-2.299-5.538-2.299c-2.058,0-4.086,0.836-5.538,2.299    c-1.463,1.452-2.299,3.48-2.299,5.538c0,2.058,0.836,4.086,2.299,5.538c1.452,1.463,3.469,2.299,5.538,2.299    s4.086-0.836,5.538-2.299c1.463-1.452,2.299-3.479,2.299-5.538C58.514,178.709,57.678,176.682,56.215,175.229z"/>
	</g>
</g>
<g>
	<g>
		<path d="M88.607,175.229c-1.452-1.463-3.479-2.299-5.538-2.299s-4.086,0.836-5.538,2.299c-1.463,1.452-2.299,3.469-2.299,5.538    c0,2.069,0.836,4.086,2.299,5.538c1.452,1.463,3.469,2.299,5.538,2.299c2.058,0,4.086-0.836,5.538-2.299    c1.463-1.452,2.299-3.479,2.299-5.538C90.906,178.709,90.07,176.682,88.607,175.229z"/>
	</g>
</g>
<g>
	<g>
		<path d="M120.999,175.229c-1.452-1.463-3.479-2.299-5.538-2.299s-4.086,0.836-5.538,2.299c-1.463,1.452-2.299,3.48-2.299,5.538    c0,2.058,0.836,4.086,2.299,5.538c1.452,1.463,3.479,2.299,5.538,2.299c2.069,0,4.086-0.836,5.538-2.299    c1.463-1.452,2.299-3.469,2.299-5.538C123.298,178.699,122.462,176.682,120.999,175.229z"/>
	</g>
</g>
<g>
	<g>
		<path d="M153.391,175.229c-1.452-1.463-3.48-2.299-5.538-2.299c-2.058,0-4.086,0.836-5.538,2.299    c-1.463,1.452-2.299,3.48-2.299,5.538c0,2.058,0.836,4.086,2.299,5.538c1.452,1.463,3.479,2.299,5.538,2.299    c2.058,0,4.086-0.836,5.538-2.299c1.463-1.452,2.299-3.479,2.299-5.538C155.69,178.709,154.854,176.682,153.391,175.229z"/>
	</g>
</g>
<g>
	<g>
		<path d="M185.783,175.229c-1.452-1.463-3.48-2.299-5.538-2.299c-2.058,0-4.086,0.836-5.538,2.299    c-1.463,1.452-2.299,3.48-2.299,5.538c0,2.058,0.836,4.086,2.299,5.538c1.452,1.463,3.479,2.299,5.538,2.299    c2.058,0,4.086-0.836,5.538-2.299c1.463-1.452,2.299-3.479,2.299-5.538C188.082,178.709,187.246,176.682,185.783,175.229z"/>
	</g>
</g>
<g>
	<g>
		<path d="M40.02,161.646c-1.452-1.463-3.469-2.299-5.538-2.299c-2.058,0-4.086,0.836-5.538,2.299    c-1.463,1.452-2.299,3.48-2.299,5.538c0,2.058,0.836,4.086,2.299,5.538c1.452,1.463,3.48,2.299,5.538,2.299    c2.058,0,4.086-0.836,5.538-2.299c1.463-1.452,2.299-3.479,2.299-5.538C42.318,165.125,41.482,163.098,40.02,161.646z"/>
	</g>
</g>
<g>
	<g>
		<path d="M72.411,161.646c-1.452-1.463-3.479-2.299-5.538-2.299s-4.086,0.836-5.538,2.299c-1.463,1.452-2.299,3.48-2.299,5.538    c0,2.069,0.836,4.086,2.299,5.538c1.452,1.463,3.469,2.299,5.538,2.299c2.058,0,4.086-0.836,5.538-2.299    c1.463-1.452,2.299-3.479,2.299-5.538C74.71,165.125,73.874,163.098,72.411,161.646z"/>
	</g>
</g>
<g>
	<g>
		<path d="M104.803,161.646c-1.452-1.463-3.479-2.299-5.538-2.299s-4.086,0.836-5.538,2.299c-1.463,1.452-2.299,3.48-2.299,5.538    c0,2.058,0.836,4.086,2.299,5.538c1.452,1.463,3.479,2.299,5.538,2.299s4.086-0.836,5.538-2.299    c1.463-1.452,2.299-3.469,2.299-5.538C107.102,165.115,106.266,163.098,104.803,161.646z"/>
	</g>
</g>
<g>
	<g>
		<path d="M137.195,161.646c-1.452-1.463-3.469-2.299-5.538-2.299s-4.086,0.836-5.538,2.299c-1.463,1.452-2.299,3.48-2.299,5.538    c0,2.058,0.836,4.086,2.299,5.538c1.452,1.463,3.469,2.299,5.538,2.299c2.058,0,4.086-0.836,5.538-2.299    c1.463-1.452,2.299-3.479,2.299-5.538C139.494,165.125,138.658,163.098,137.195,161.646z"/>
	</g>
</g>
<g>
	<g>
		<path d="M169.587,161.646c-1.452-1.463-3.48-2.299-5.538-2.299c-2.058,0-4.086,0.836-5.538,2.299    c-1.463,1.452-2.299,3.48-2.299,5.538c0,2.058,0.836,4.086,2.299,5.538c1.452,1.463,3.479,2.299,5.538,2.299    c2.058,0,4.086-0.836,5.538-2.299c1.463-1.452,2.299-3.479,2.299-5.538C171.886,165.125,171.05,163.098,169.587,161.646z"/>
	</g>
</g>
<g>
	<g>
		<path d="M201.979,161.646c-1.452-1.463-3.479-2.299-5.538-2.299c-2.058,0-4.086,0.836-5.538,2.299    c-1.463,1.452-2.299,3.48-2.299,5.538c0,2.069,0.836,4.086,2.299,5.538c1.452,1.463,3.48,2.299,5.538,2.299    c2.058,0,4.086-0.836,5.538-2.299c1.463-1.452,2.299-3.469,2.299-5.538C204.278,165.125,203.442,163.098,201.979,161.646z"/>
	</g>
</g>
<g>
	<g>
		<path d="M56.215,201.352c-1.452-1.463-3.469-2.299-5.538-2.299c-2.058,0-4.086,0.836-5.538,2.299    c-1.463,1.452-2.299,3.479-2.299,5.538c0,2.058,0.836,4.086,2.299,5.538c1.452,1.463,3.469,2.299,5.538,2.299    s4.086-0.836,5.538-2.299c1.463-1.452,2.299-3.479,2.299-5.538C58.514,204.831,57.678,202.804,56.215,201.352z"/>
	</g>
</g>
<g>
	<g>
		<path d="M88.607,201.352c-1.452-1.463-3.479-2.299-5.538-2.299s-4.086,0.836-5.538,2.299c-1.463,1.452-2.299,3.469-2.299,5.538    c0,2.069,0.836,4.086,2.299,5.538c1.452,1.463,3.479,2.299,5.538,2.299s4.086-0.836,5.538-2.299    c1.463-1.452,2.299-3.479,2.299-5.538C90.906,204.831,90.07,202.804,88.607,201.352z"/>
	</g>
</g>
<g>
	<g>
		<path d="M120.999,201.352c-1.452-1.463-3.479-2.299-5.538-2.299s-4.086,0.836-5.538,2.299c-1.463,1.463-2.299,3.479-2.299,5.538    c0,2.058,0.836,4.086,2.299,5.538c1.452,1.463,3.479,2.299,5.538,2.299c2.069,0,4.086-0.836,5.538-2.299    c1.463-1.452,2.299-3.469,2.299-5.538C123.298,204.831,122.462,202.804,120.999,201.352z"/>
	</g>
</g>
<g>
	<g>
		<path d="M153.391,201.352c-1.452-1.463-3.469-2.299-5.538-2.299c-2.058,0-4.086,0.836-5.538,2.299    c-1.463,1.452-2.299,3.479-2.299,5.538c0,2.058,0.836,4.086,2.299,5.538c1.452,1.463,3.479,2.299,5.538,2.299    c2.058,0,4.086-0.836,5.538-2.299c1.463-1.452,2.299-3.479,2.299-5.538C155.69,204.821,154.854,202.804,153.391,201.352z"/>
	</g>
</g>
<g>
	<g>
		<path d="M185.783,201.352c-1.452-1.463-3.48-2.299-5.538-2.299c-2.058,0-4.086,0.836-5.538,2.299    c-1.463,1.452-2.299,3.479-2.299,5.538c0,2.058,0.836,4.086,2.299,5.538c1.452,1.463,3.479,2.299,5.538,2.299    c2.058,0,4.086-0.836,5.538-2.299c1.463-1.452,2.299-3.479,2.299-5.538C188.082,204.831,187.246,202.804,185.783,201.352z"/>
	</g>
</g>
<g>
	<g>
		<path d="M40.02,187.768c-1.452-1.463-3.479-2.299-5.538-2.299c-2.058,0-4.086,0.836-5.538,2.299    c-1.463,1.452-2.299,3.479-2.299,5.538c0,2.058,0.836,4.086,2.299,5.538c1.452,1.463,3.48,2.299,5.538,2.299    c2.058,0,4.086-0.836,5.538-2.299c1.463-1.452,2.299-3.48,2.299-5.538C42.318,191.248,41.482,189.221,40.02,187.768z"/>
	</g>
</g>
<g>
	<g>
		<path d="M72.411,187.768c-1.452-1.463-3.479-2.299-5.538-2.299s-4.086,0.836-5.538,2.299c-1.463,1.452-2.299,3.479-2.299,5.538    c0,2.069,0.836,4.086,2.299,5.538c1.452,1.463,3.469,2.299,5.538,2.299c2.058,0,4.086-0.836,5.538-2.299    c1.463-1.452,2.299-3.48,2.299-5.538C74.71,191.248,73.874,189.221,72.411,187.768z"/>
	</g>
</g>
<g>
	<g>
		<path d="M104.803,187.768c-1.452-1.463-3.479-2.299-5.538-2.299s-4.086,0.836-5.538,2.299c-1.463,1.452-2.299,3.479-2.299,5.538    c0,2.058,0.836,4.086,2.299,5.538c1.452,1.463,3.469,2.299,5.538,2.299c2.058,0,4.086-0.836,5.538-2.299    c1.463-1.452,2.299-3.469,2.299-5.538C107.102,191.237,106.266,189.221,104.803,187.768z"/>
	</g>
</g>
<g>
	<g>
		<path d="M137.195,187.768c-1.452-1.463-3.48-2.299-5.538-2.299c-2.069,0-4.086,0.836-5.538,2.299    c-1.463,1.452-2.299,3.479-2.299,5.538c0,2.058,0.836,4.086,2.299,5.538c1.452,1.463,3.479,2.299,5.538,2.299    c2.058,0,4.075-0.836,5.538-2.299c1.463-1.452,2.299-3.48,2.299-5.538C139.494,191.248,138.658,189.221,137.195,187.768z"/>
	</g>
</g>
<g>
	<g>
		<path d="M169.587,187.768c-1.452-1.463-3.48-2.299-5.538-2.299c-2.058,0-4.086,0.836-5.538,2.299    c-1.463,1.452-2.299,3.479-2.299,5.538c0,2.058,0.836,4.086,2.299,5.538c1.452,1.463,3.479,2.299,5.538,2.299    c2.058,0,4.086-0.836,5.538-2.299c1.463-1.452,2.299-3.48,2.299-5.538C171.886,191.248,171.05,189.221,169.587,187.768z"/>
	</g>
</g>
<g>
	<g>
		<path d="M201.979,187.768c-1.452-1.463-3.479-2.299-5.538-2.299c-2.058,0-4.086,0.836-5.538,2.299    c-1.463,1.452-2.299,3.469-2.299,5.538c0,2.069,0.836,4.086,2.299,5.538c1.452,1.463,3.48,2.299,5.538,2.299    c2.058,0,4.086-0.836,5.538-2.299c1.463-1.452,2.299-3.469,2.299-5.538C204.278,191.237,203.442,189.221,201.979,187.768z"/>
	</g>
</g>
<g>
	<g>
		<path d="M40.02,213.891c-1.452-1.463-3.479-2.299-5.538-2.299c-2.058,0-4.086,0.836-5.538,2.299    c-1.463,1.452-2.299,3.479-2.299,5.538c0,2.058,0.836,4.086,2.299,5.538c1.463,1.463,3.48,2.299,5.538,2.299    c2.058,0,4.086-0.836,5.538-2.299c1.463-1.452,2.299-3.48,2.299-5.538C42.318,217.37,41.482,215.343,40.02,213.891z"/>
	</g>
</g>
<g>
	<g>
		<path d="M72.411,213.891c-1.452-1.463-3.479-2.299-5.538-2.299c-2.069,0-4.086,0.836-5.538,2.299    c-1.463,1.452-2.299,3.469-2.299,5.538c0,2.058,0.836,4.086,2.299,5.538c1.452,1.463,3.479,2.299,5.538,2.299    s4.086-0.836,5.538-2.299c1.463-1.452,2.299-3.48,2.299-5.538C74.71,217.37,73.874,215.343,72.411,213.891z"/>
	</g>
</g>
<g>
	<g>
		<path d="M104.803,213.891c-1.452-1.463-3.479-2.299-5.538-2.299c-2.069,0-4.086,0.836-5.538,2.299    c-1.463,1.452-2.299,3.479-2.299,5.538c0,2.058,0.836,4.086,2.299,5.538c1.452,1.463,3.469,2.299,5.538,2.299    c2.058,0,4.086-0.836,5.538-2.299c1.463-1.452,2.299-3.48,2.299-5.538C107.102,217.37,106.266,215.343,104.803,213.891z"/>
	</g>
</g>
<g>
	<g>
		<path d="M137.195,213.891c-1.452-1.463-3.48-2.299-5.538-2.299c-2.058,0-4.086,0.836-5.538,2.299    c-1.463,1.452-2.299,3.479-2.299,5.538c0,2.058,0.836,4.086,2.299,5.538c1.452,1.463,3.479,2.299,5.538,2.299    c2.058,0,4.086-0.836,5.538-2.299c1.463-1.452,2.299-3.469,2.299-5.538C139.494,217.37,138.658,215.343,137.195,213.891z"/>
	</g>
</g>
<g>
	<g>
		<path d="M169.587,213.891c-1.452-1.463-3.48-2.299-5.538-2.299c-2.058,0-4.086,0.836-5.538,2.299    c-1.463,1.452-2.299,3.479-2.299,5.538c0,2.058,0.836,4.086,2.299,5.538c1.452,1.463,3.479,2.299,5.538,2.299    c2.069,0,4.086-0.836,5.538-2.299c1.463-1.452,2.299-3.48,2.299-5.538C171.886,217.37,171.05,215.343,169.587,213.891z"/>
	</g>
</g>
<g>
	<g>
		<path d="M201.979,213.891c-1.452-1.463-3.469-2.299-5.538-2.299c-2.069,0-4.086,0.836-5.538,2.299    c-1.463,1.452-2.299,3.469-2.299,5.538s0.836,4.086,2.299,5.538c1.452,1.463,3.48,2.299,5.538,2.299    c2.058,0,4.086-0.836,5.538-2.299c1.463-1.452,2.299-3.469,2.299-5.538S203.442,215.343,201.979,213.891z"/>
	</g>
</g>
<g>
	<g>
		<path d="M493.714,84.342H18.286C8.203,84.342,0,92.546,0,102.628v306.744c0,10.082,8.203,18.286,18.286,18.286h475.429    c10.082,0,18.286-8.203,18.286-18.286V102.628C512,92.545,503.797,84.342,493.714,84.342z M496.327,380.472H376.163    c-4.329,0-7.837,3.509-7.837,7.837c0,4.328,3.508,7.837,7.837,7.837h120.163v13.226c0,1.416-1.196,2.612-2.612,2.612H18.286    c-1.416,0-2.612-1.196-2.612-2.612v-13.226h326.008c4.329,0,7.837-3.509,7.837-7.837c0-4.328-3.508-7.837-7.837-7.837H15.673    v-12.04h480.653V380.472z M496.327,352.759H15.673V336.92h480.653V352.759z M496.327,321.245H15.673v-12.039h480.653V321.245z     M496.327,262.022h-51.2c-4.329,0-7.837,3.509-7.837,7.837c0,4.328,3.508,7.837,7.837,7.837h51.2v15.838H15.673v-15.838H411.69    c4.329,0,7.837-3.509,7.837-7.837c0-4.328-3.508-7.837-7.837-7.837H15.673V249.98h50.155c4.328,0,7.837-3.509,7.837-7.837    s-3.509-7.837-7.837-7.837H15.673V102.628c0-1.416,1.196-2.612,2.612-2.612h195.819v130.277c0,2.177-1.806,4.015-3.941,4.015    H100.31c-4.328,0-7.837,3.509-7.837,7.837s3.509,7.837,7.837,7.837h396.016V262.022z M496.327,234.306H229.366    c0.269-1.297,0.413-2.638,0.413-4.015v-11.824h266.548V234.306z M496.327,202.794H229.778v-12.04h266.548V202.794z     M496.327,175.08H229.778v-15.839h266.548V175.08z M496.327,143.567H229.778v-12.039h266.548V143.567z M496.327,115.854H229.778    v-15.839h263.936c1.416,0,2.612,1.196,2.612,2.612V115.854z"/>
	</g>
</g>
<g>
</g>
<g>
</g>
<g>
</g>
<g>
</g>
<g>
</g>
<g>
</g>
<g>
</g>
<g>
</g>
<g>
</g>
<g>
</g>
<g>
</g>
<g>
</g>
<g>
</g>
<g>
</g>
<g>
</g>
</svg>
