<?xml version="1.0" encoding="iso-8859-1"?>
<!-- Generator: Adobe Illustrator 19.0.0, SVG Export Plug-In . SVG Version: 6.00 Build 0)  -->
<svg xmlns="http://www.w3.org/2000/svg" xmlns:xlink="http://www.w3.org/1999/xlink" version="1.1" id="Layer_1" x="0px" y="0px" viewBox="0 0 512 512" style="enable-background:new 0 0 512 512;" xml:space="preserve">
<g>
	<g>
		<path d="M188.238,35.024h-70.754c-4.328,0-7.837,3.509-7.837,7.837v6.805c0,14.902,4.112,27.347,12.568,38.045    c6.452,8.162,15.566,15.276,27.088,21.147c1.117,0.569,2.337,0.854,3.558,0.854s2.441-0.284,3.559-0.855    c11.522-5.872,20.635-12.987,27.086-21.146c8.458-10.698,12.569-23.143,12.569-38.046v-6.804    C196.075,38.532,192.566,35.024,188.238,35.024z M171.211,77.991c-4.393,5.555-10.556,10.588-18.35,14.993    c-7.795-4.403-13.957-9.436-18.35-14.993c-5.994-7.581-9.002-16.518-9.182-27.293h55.064    C180.214,61.472,177.205,70.409,171.211,77.991z"/>
	</g>
</g>
<g>
	<g>
		<path d="M141.46,278.108c-0.368-0.052-0.739-0.079-1.11-0.079H98.322v-30.031l3.46-3.302h17.879c3.703,0,7.199-1.74,9.237-3.367    c0.239-0.191,0.466-0.396,0.681-0.613l16.958-17.151c2.772-2.489,4.401-6.529,4.136-10.235v-39.539    c0-3.704-1.743-7.203-3.375-9.24c-0.191-0.238-0.395-0.464-0.611-0.678l-17.168-16.952c-2.355-2.611-6.234-4.332-9.858-4.332    H91.727c-2.94,0-7.183,1.36-9.862,4.334l-17.164,16.949c-0.218,0.215-0.423,0.443-0.614,0.681    c-1.63,2.039-3.372,5.535-3.372,9.237v21.299c0,5.787,4.533,10.318,10.319,10.318h16.967c5.787,0,10.319-4.532,10.319-10.318    v-11.606l3.461-3.302h8.012l3.476,3.474v20.181l-3.269,3.268H91.933c-3.475,0-7.353,1.628-9.852,4.12L64.7,228.389    c-0.218,0.215-0.423,0.444-0.615,0.683c-1.629,2.039-3.37,5.535-3.37,9.235v67.205c0,5.786,4.533,10.318,10.319,10.318h69.316    c5.69,0,10.32-4.629,10.32-10.318v-16.958C150.671,283.35,146.711,278.859,141.46,278.108z M134.997,300.156H76.388v-61.283    l16.299-16.096h17.868c2.871,0,6.978-1.039,9.885-3.949l4.345-4.342c2.527-2.523,4.159-6.404,4.159-9.886v-21.712    c0.001-0.367-0.025-0.737-0.077-1.102c-0.235-1.649-1.102-5.804-4.08-8.781l-4.345-4.342c-2.526-2.524-6.405-4.156-9.885-4.156    h-9.725c-2.916,0-7.119,1.341-9.801,4.268l-4.299,4.102c-0.253,0.241-0.49,0.501-0.708,0.773    c-1.557,1.946-3.374,5.478-3.374,9.032v7.052H76.39v-15.377l16.3-16.097h26.008l16.302,16.098v38.582l-15.899,16.081h-18.271    c-3.264,0-7.105,1.633-9.596,4.072l-4.505,4.299c-0.254,0.242-0.49,0.5-0.709,0.774c-1.631,2.039-3.374,5.537-3.374,9.238v35.98    c0,5.785,4.533,10.316,10.32,10.316h42.03V300.156z"/>
	</g>
</g>
<g>
	<g>
		<path d="M245.008,212.049v-6.204c0-4.328-3.509-7.837-7.837-7.837s-7.837,3.509-7.837,7.837v5.437l-5.586,5.582    c-1.924,1.743-3.097,4.204-3.244,6.841c-0.164,2.942,0.949,5.838,3.051,7.943c0.032,0.031,0.065,0.064,0.096,0.094l5.682,5.495    v46.628l-16.111,16.292h-26.607l-16.1-16.09v-15.382h6.26v7.051c0,2.95,1.37,7.207,4.366,9.885l3.935,3.933    c2.677,2.99,6.933,4.358,9.881,4.358h9.726c3.478,0,7.357-1.629,9.888-4.155l4.35-4.348c2.522-2.526,4.151-6.323,4.151-9.673    v-29.982c0-3.478-1.631-7.358-4.157-9.886l-4.35-4.348c-2.488-2.482-6.376-4.149-9.674-4.149h-8.923v-6.247h8.923    c3.555,0,7.088-1.814,9.032-3.369c0.274-0.218,0.533-0.456,0.775-0.709l4.106-4.301c2.574-2.362,4.267-6.205,4.267-9.797v-20.057    c0-3.476-1.63-7.354-4.157-9.885l-4.35-4.348c-2.914-2.907-7.015-3.942-9.882-3.942h-9.726c-3.111,0-7.277,1.283-9.863,4.136    l-4.155,4.151c-2.53,2.524-4.164,6.406-4.164,9.889v7.051h-6.26v-15.583l16.09-15.89h26.625l16.101,16.089v5.162    c0,4.328,3.509,7.837,7.837,7.837c4.328,0,7.837-3.509,7.837-7.837v-5.93c0-3.481-1.633-7.361-4.161-9.886l-17.172-17.159    c-2.912-2.913-7.016-3.951-9.887-3.951h-27.934c-3.475,0-7.273,1.547-9.646,3.915l-17.38,17.162    c-0.217,0.214-0.422,0.442-0.612,0.68c-1.63,2.039-3.373,5.535-3.373,9.238v21.505c0,5.787,4.533,10.318,10.319,10.318h16.967    c5.788,0,10.32-4.532,10.32-10.318v-11.639l3.272-3.269h8.408l3.268,3.266v18.339l-3.3,3.456h-13.486    c-5.69,0-10.319,4.629-10.319,10.318v16.957c0,5.787,4.533,10.319,10.319,10.319h13.311l3.474,3.473v28.248l-3.474,3.473h-7.997    l-3.478-3.476v-11.432c0.002-5.787-4.532-10.318-10.318-10.318h-16.967c-5.787,0-10.319,4.532-10.319,10.318v21.504    c0,3.557,1.818,7.09,3.375,9.034c0.181,0.226,0.373,0.441,0.578,0.646l17.38,17.369c0.206,0.206,0.423,0.4,0.651,0.582    c1.946,1.553,5.478,3.367,9.028,3.367h27.934c3.706,0,7.205-1.743,9.242-3.374c0.237-0.189,0.462-0.392,0.675-0.607l17.139-17.334    c2.49-2.486,4.163-6.377,4.163-9.682v-48.179c0-3.704-1.743-7.201-3.375-9.24c-0.208-0.259-0.432-0.505-0.67-0.736l-2.472-2.391    l2.565-2.563C243.345,219.436,245.008,215.367,245.008,212.049z"/>
	</g>
</g>
<g>
	<g>
		<path d="M370.753,217.699c-23.437,0-45.555,5.742-65.031,15.879v-73.504c0-5.528-2.644-10.807-7.074-14.124    c-15.651-11.714-25.372-35.364-25.372-61.72c0-13.26,2.514-26.123,7.27-37.205c2.348-5.473,1.789-11.707-1.495-16.677    c-3.28-4.963-8.793-7.927-14.746-7.927h-51.654c-5.367-6.38-13.409-10.446-22.386-10.446h-74.81    c-8.978,0-17.02,4.066-22.387,10.446H41.417c-5.954,0-11.466,2.962-14.746,7.926c-3.285,4.971-3.843,11.206-1.494,16.679    c4.755,11.079,7.269,23.944,7.269,37.203c0,26.355-9.723,50.005-25.375,61.721C2.644,149.267,0,154.547,0,160.074v208.73    c0,9.732,7.926,17.65,17.669,17.65h54.429c4.328,0,7.837-3.509,7.837-7.837c0-4.328-3.509-7.837-7.837-7.837H41.906V171.796    c18.785-16.698,31.286-49.274,31.286-87.566c0-16.275-2.319-32-6.742-46.134h19.935c-0.107,1.01-0.163,2.035-0.163,3.073v7.195    c0,20.35,5.986,38.24,17.791,53.175c8.707,11.013,20.671,20.443,35.563,28.03c4.096,2.086,8.689,3.188,13.285,3.188    c4.598,0,9.193-1.103,13.288-3.19c14.885-7.585,26.849-17.014,35.561-28.028C213.514,86.605,219.5,68.714,219.5,48.365v-7.195    c0-1.039-0.056-2.063-0.163-3.073h19.935c-4.422,14.132-6.742,29.858-6.742,46.134c0,38.291,12.501,70.868,31.286,87.567v94.94    c-18.585,21.517-30.787,48.681-33.654,78.529h-40.909c-7.245,0-13.14,5.895-13.14,13.143v12.372h-74.758    c-4.328,0-7.837,3.509-7.837,7.837c0,4.328,3.509,7.837,7.837,7.837h87.898h42.968c12.875,64.672,70.093,113.569,138.532,113.569    c10.896,0,21.753-1.246,32.271-3.702c4.215-0.984,6.833-5.199,5.848-9.414c-0.984-4.214-5.197-6.835-9.414-5.848    c-6.826,1.594-13.818,2.608-20.869,3.043v-69.477c28.656,2.145,52.595,22.332,59.492,50.175    c-5.077,3.229-10.418,6.125-16.011,8.632c-3.95,1.77-5.717,6.406-3.947,10.356c1.769,3.949,6.406,5.717,10.356,3.947    C479.215,464.998,512,414.412,512,358.86C512,281.024,448.636,217.699,370.753,217.699z M26.232,370.78h-8.563    c-1.1,0-1.996-0.887-1.996-1.977V183.665c3.623-0.271,7.146-1.07,10.559-2.305V370.78z M15.673,167.897v-7.823    c0-0.615,0.297-1.205,0.792-1.576C35.99,143.882,48.12,115.424,48.12,84.23c0-15.366-2.953-30.369-8.54-43.385    c-0.261-0.608-0.199-1.302,0.167-1.856c0.37-0.559,0.994-0.893,1.669-0.893h8.501c4.978,13.752,7.601,29.58,7.601,46.134    C57.518,127.857,38.639,164.966,15.673,167.897z M203.827,48.365h-0.001c0,16.735-4.849,31.355-14.41,43.453    c-7.301,9.23-17.523,17.232-30.383,23.785c-3.802,1.937-8.538,1.937-12.343,0.001c-12.864-6.554-23.085-14.555-30.381-23.784    c-9.564-12.099-14.413-26.719-14.413-43.454v-7.195c0-7.454,6.083-13.519,13.562-13.519h74.809    c7.477,0,13.561,6.065,13.561,13.519V48.365z M191.787,370.78v-9.84h37.744c0.048,3.308,0.209,6.59,0.482,9.84H191.787z     M248.203,84.23c0-16.556,2.623-32.383,7.601-46.134h8.501c0.675,0,1.3,0.334,1.669,0.893c0.367,0.554,0.428,1.248,0.168,1.855    c-5.588,13.015-8.541,28.018-8.541,43.385c0,31.195,12.129,59.653,31.653,74.267c0.497,0.372,0.793,0.961,0.793,1.577v7.823    C267.081,164.967,248.203,127.857,248.203,84.23z M290.048,183.666v59.413c-3.649,2.547-7.171,5.263-10.558,8.136v-69.854    C282.902,182.595,286.425,183.396,290.048,183.666z M362.916,484.098c-21.785-1.348-42.081-8.272-59.479-19.357    c6.916-27.814,30.842-47.974,59.479-50.119V484.098z M362.916,351.023h-46.312c-4.328,0-7.837,3.509-7.837,7.837    c0,4.328,3.509,7.837,7.837,7.837h46.312v32.219c-33.781,2.044-62.447,24.369-72.922,55.952    c-25.507-21.459-42.376-52.859-44.564-88.172h46.097c4.328,0,7.837-3.509,7.837-7.837c0-4.328-3.509-7.837-7.837-7.837H245.43    c2.188-35.311,19.057-66.713,44.564-88.172c10.475,31.582,39.142,53.907,72.922,55.951V351.023z M362.916,303.098    c-28.638-2.144-52.563-22.303-59.479-50.117c17.398-11.083,37.694-18.009,59.479-19.357V303.098z M378.589,318.804    c9.232-0.558,18.202-2.626,26.729-6.204c3.99-1.674,5.869-6.267,4.194-10.259c-1.675-3.992-6.269-5.867-10.259-4.194    c-6.596,2.768-13.529,4.412-20.664,4.944v-69.469c21.785,1.348,42.081,8.272,59.478,19.357    c-3.108,12.34-9.801,23.727-19.182,32.469c-3.166,2.951-3.341,7.91-0.39,11.076c1.543,1.656,3.636,2.493,5.734,2.493    c1.913,0,3.832-0.697,5.342-2.104c10.037-9.356,17.579-21.171,21.918-34.081c25.518,21.46,42.396,52.869,44.585,88.19H378.589    V318.804z M451.532,454.932c-10.457-31.615-39.14-53.969-72.943-56.015v-32.219h117.475    C493.896,401.261,477.498,433.072,451.532,454.932z"/>
	</g>
</g>
<g>
</g>
<g>
</g>
<g>
</g>
<g>
</g>
<g>
</g>
<g>
</g>
<g>
</g>
<g>
</g>
<g>
</g>
<g>
</g>
<g>
</g>
<g>
</g>
<g>
</g>
<g>
</g>
<g>
</g>
</svg>
