<?xml version="1.0" encoding="iso-8859-1"?>
<!-- Generator: Adobe Illustrator 19.0.0, SVG Export Plug-In . SVG Version: 6.00 Build 0)  -->
<svg xmlns="http://www.w3.org/2000/svg" xmlns:xlink="http://www.w3.org/1999/xlink" version="1.1" id="Layer_1" x="0px" y="0px" viewBox="0 0 512 512" style="enable-background:new 0 0 512 512;" xml:space="preserve">
<g>
	<g>
		<path d="M84.589,5.991C37.947,5.991,0,43.938,0,90.58s37.947,84.589,84.589,84.589s84.589-37.947,84.589-84.589    S131.231,5.991,84.589,5.991z M15.673,90.58c0-12.903,3.573-24.985,9.769-35.322C40.69,56.952,52.59,69.913,52.59,85.605v9.948    c0,15.692-11.899,28.652-27.149,30.346C19.246,115.565,15.673,103.483,15.673,90.58z M143.742,125.887    c-5.695-0.62-11.029-2.784-15.577-6.393c-3.391-2.691-8.319-2.122-11.01,1.268c-2.69,3.391-2.122,8.32,1.268,11.01    c4.366,3.463,9.332,6.081,14.602,7.77c-12.457,12.325-29.572,19.951-48.438,19.951c-18.86,0-35.971-7.621-48.427-19.94    c18.6-5.979,32.101-23.439,32.101-44.001v-9.948c0-20.561-13.501-38.022-32.101-44.002c12.457-12.317,29.568-19.939,48.428-19.939    s35.971,7.622,48.427,19.94c-18.599,5.98-32.1,23.44-32.1,44.002v9.948c0,2.331,0.176,4.677,0.523,6.972    c0.588,3.882,3.929,6.664,7.739,6.664c0.39,0,0.786-0.029,1.183-0.09c4.279-0.648,7.223-4.641,6.576-8.921    c-0.23-1.52-0.347-3.077-0.347-4.626v-9.948c0-15.693,11.898-28.653,27.146-30.347c6.196,10.336,9.769,22.418,9.769,35.321    C153.504,103.477,149.934,115.553,143.742,125.887z"/>
	</g>
</g>
<g>
	<g>
		<path d="M506.969,419.654c-1.372-4.104-5.811-6.322-9.916-4.949c-4.105,1.372-6.321,5.811-4.949,9.916    c2.802,8.385,4.223,17.166,4.223,26.095v8.482h-45.965c-7.203,0-13.061,5.86-13.061,13.061v18.072H289.098v-39.616    c0-45.103,36.326-81.796,80.975-81.796h45.276c25.78,0,50.268,12.623,65.507,33.766c2.531,3.511,7.429,4.306,10.94,1.775    c3.511-2.531,4.306-7.428,1.775-10.94c-18.176-25.219-47.419-40.275-78.222-40.275h-45.276c-53.292,0-96.649,43.725-96.649,97.469    v8.061H260.18c-4.328,0-7.837,3.509-7.837,7.837c0,4.328,3.509,7.837,7.837,7.837h13.245v15.88h-92.133    c-1.416,0-2.612-1.196-2.612-2.612v-10.656c0-1.416,1.196-2.612,2.612-2.612h51.72c4.328,0,7.837-3.509,7.837-7.837    c0-4.328-3.509-7.837-7.837-7.837h-51.72c-10.083,0-18.286,8.203-18.286,18.286v10.656c0,10.082,8.202,18.286,18.286,18.286    h105.193h8.707h203.747c7.202,0,13.061-5.86,13.061-13.061v-42.227C512,440.094,510.307,429.643,506.969,419.654z     M496.327,490.331h-43.353v-15.459h43.353V490.331z"/>
	</g>
</g>
<g>
	<g>
		<path d="M480.003,22.621c-11.498-11.605-23.576-17.494-35.898-17.505c-0.014,0-0.025,0-0.039,0    c-11.588,0-22.598,5.161-32.739,15.355c-0.13,0.132-0.13,0.132-206.238,222.275l-18.016,19.417    c-2.943,3.173-2.759,8.131,0.415,11.075c1.509,1.4,3.42,2.092,5.328,2.092c2.104,0,4.204-0.842,5.747-2.507l18.016-19.417    c1.629-1.755,3.287-3.544,4.961-5.347l-0.001,68.382l-29.108,27.508l-30.913-31.2l16.685-17.983    c2.943-3.173,2.759-8.131-0.415-11.075c-3.172-2.943-8.131-2.759-11.075,0.415l-16.97,18.291    c-4.437,4.779-5.233,11.619-2.469,17.148L43.436,424.341l-1.801-1.818c-3.44-3.471-8.028-5.382-12.921-5.382    s-9.482,1.912-12.922,5.382L5.304,433.11c-7.069,7.133-7.069,18.741,0,25.877l42.124,42.515c3.44,3.471,8.028,5.382,12.922,5.382    c4.893,0,9.482-1.912,12.921-5.382l10.489-10.586c7.069-7.135,7.069-18.742,0-25.877l-1.903-1.922l103.869-104.826    c2.107,1.054,4.396,1.597,6.692,1.597c3.714,0,7.432-1.382,10.371-4.161L396.174,172.97c3.145-2.973,3.286-7.933,0.313-11.079    c-2.973-3.145-7.933-3.285-11.079-0.313l-26.034,24.602l0.001-86.681c35.238-37.98,61.459-66.239,63.171-68.084    c7.047-7.052,14.287-10.627,21.521-10.627c0.006,0,0.015,0,0.021,0c7.992,0.007,16.33,4.335,24.78,12.864    c16.336,16.487,17.062,31.847,2.217,46.956c-1.836,1.736-29.051,27.455-65.825,62.209c-3.146,2.973-3.286,7.933-0.312,11.078    c2.973,3.146,7.933,3.286,11.078,0.313c65.949-62.325,65.95-62.326,66.014-62.389c0.038-0.037,0.074-0.073,0.112-0.11    C503.179,70.402,502.395,45.22,480.003,22.621z M72.627,479.883l-10.489,10.586c-0.638,0.645-1.394,0.741-1.788,0.741    s-1.149-0.096-1.788-0.741l-42.124-42.515c-1.024-1.033-1.024-2.779,0.001-3.813l10.489-10.587    c0.638-0.645,1.394-0.741,1.788-0.741c0.393,0,1.149,0.096,1.788,0.741l42.124,42.516    C73.651,477.104,73.651,478.85,72.627,479.883z M70.824,451.982l-16.357-16.507l103.297-104.248l16.357,16.507L70.824,451.982z     M269.987,270.657l-32.772,30.971l0.001-70.463c10.476-11.292,21.512-23.186,32.771-35.322V270.657z M319.853,223.532    l-34.192,32.312V178.95c11.455-12.346,22.967-24.754,34.193-36.852L319.853,223.532z M343.702,200.992l-8.177,7.728l0.001-83.516    c2.758-2.972,5.484-5.911,8.177-8.813L343.702,200.992z"/>
	</g>
</g>
<g>
</g>
<g>
</g>
<g>
</g>
<g>
</g>
<g>
</g>
<g>
</g>
<g>
</g>
<g>
</g>
<g>
</g>
<g>
</g>
<g>
</g>
<g>
</g>
<g>
</g>
<g>
</g>
<g>
</g>
</svg>
