<?xml version="1.0" encoding="iso-8859-1"?>
<!-- Generator: Adobe Illustrator 19.0.0, SVG Export Plug-In . SVG Version: 6.00 Build 0)  -->
<svg xmlns="http://www.w3.org/2000/svg" xmlns:xlink="http://www.w3.org/1999/xlink" version="1.1" id="Layer_1" x="0px" y="0px" viewBox="0 0 512.001 512.001" style="enable-background:new 0 0 512.001 512.001;" xml:space="preserve">
<g>
	<g>
		<path d="M249.971,118.063c-0.654-1.136-2.102-1.525-3.237-0.869l-19.841,11.455c-1.135,0.655-1.522,2.104-0.868,3.239    c3.812,6.602,12.284,8.871,18.887,5.06C251.513,133.137,253.783,124.665,249.971,118.063z"/>
	</g>
</g>
<g>
	<g>
		<path d="M493.714,140.188H354.843c-6.571,0-12.071,4.923-12.793,11.451c-0.907,8.218-4.481,15.759-10.075,21.602    c-2.398-1.123-5.064-1.77-7.882-1.77h-14.308v-41.139c0-2.413-0.162-4.838-0.482-7.211c-0.579-4.289-4.526-7.3-8.812-6.722    c-4.289,0.578-7.299,4.522-6.722,8.813c0.227,1.682,0.341,3.405,0.341,5.12v21.501c-0.653,0.239-1.347,0.371-2.064,0.371    c-2.144,0-4.144-1.164-5.219-3.04c-1.397-2.435-3.989-3.936-6.797-3.936c-2.808,0-5.4,1.502-6.797,3.936    c-1.075,1.875-3.075,3.04-5.219,3.04c-2.144,0-4.144-1.164-5.219-3.04c-1.397-2.435-3.989-3.936-6.797-3.936    c-2.808,0-5.4,1.502-6.797,3.936c-1.075,1.875-3.075,3.04-5.219,3.04c-2.144,0-4.144-1.164-5.219-3.04    c-1.397-2.435-3.989-3.936-6.797-3.936c-2.808,0-5.4,1.502-6.797,3.936c-1.075,1.875-3.075,3.04-5.219,3.04    c-0.717,0-1.411-0.132-2.064-0.371v-21.501c0-20.972,17.097-38.034,38.113-38.034c11.862,0,22.843,5.372,30.128,14.736    c2.658,3.418,7.582,4.031,10.998,1.374c3.416-2.658,4.03-7.582,1.374-10.996C288.223,84.201,272.733,76.626,256,76.626    c-25.524,0-46.937,17.851-52.414,41.703c-16.296,3.442-28.565,17.914-28.565,35.197c0,2.126,0.198,4.288,0.584,6.424    c0.677,3.728,3.923,6.439,7.711,6.439h18.899v5.084h-14.309c-2.818,0-5.483,0.647-7.881,1.769    c-5.594-5.843-9.167-13.384-10.076-21.603c-0.721-6.527-6.22-11.45-12.792-11.45h-26.546c-4.329,0-7.837,3.509-7.837,7.837    c0,4.328,3.508,7.837,7.837,7.837h24.095c1.789,11.289,7.146,21.55,15.204,29.434c-0.412,1.535-0.651,3.14-0.651,4.803v61.505    c0,1.57,0.031,3.128,0.087,4.676c-3.824,0.402-7.662,0.62-11.487,0.62c-25.409,0-49.695-8.725-69.26-24.72h36.787    c4.329,0,7.837-3.509,7.837-7.837c0-4.328-3.508-7.837-7.837-7.837H51.4c-1.416,0-2.612-1.196-2.612-2.612v-4.542    c0-1.416,1.196-2.612,2.612-2.612h53.09c4.329,0,7.837-3.509,7.837-7.837c0-4.328-3.508-7.837-7.837-7.837H29.619    c-1.416,0-2.612-1.196-2.612-2.612v-4.54c0-1.416,1.196-2.612,2.612-2.612h58.153c4.329,0,7.837-3.509,7.837-7.837    c0-4.328-3.508-7.837-7.837-7.837H29.619H18.286c-1.416,0-2.612-1.196-2.612-2.612v-4.542c0-1.415,1.196-2.612,2.612-2.612h85.159    c4.329,0,7.837-3.509,7.837-7.837c0-4.328-3.508-7.837-7.837-7.837H18.286C8.203,140.188,0,148.391,0,158.473v4.542    c0,7.776,4.888,14.417,11.747,17.056c-0.268,1.24-0.414,2.523-0.414,3.842v4.54c0,10.082,8.203,18.286,18.286,18.286h3.704    c-0.122,0.856-0.208,1.723-0.208,2.612v4.542c0,10.082,8.203,18.286,18.286,18.286h14.383c1.811,1.958,3.704,3.888,5.641,5.734    c23.454,22.35,54.151,34.659,86.436,34.659c4.346,0,8.704-0.259,13.048-0.717c0.588,3.539,1.343,7.006,2.249,10.405    c-11.023,12.155-18.787,24.458-21.658,34.504c-1.141,3.986-0.031,8.284,2.893,11.224l-4.544,4.545    c-2.549-1.081-5.309-1.656-8.161-1.656c-5.583,0-10.83,2.174-14.778,6.122c-3.06,3.06-3.06,8.023,0.001,11.083    c3.043,3.042,7.959,3.055,11.025,0.052c0.1,1.862,0.852,3.696,2.276,5.119c1.422,1.423,3.256,2.175,5.118,2.275    c-3.005,3.066-2.989,7.984,0.053,11.026c1.531,1.531,3.536,2.295,5.541,2.295c2.006,0,4.011-0.765,5.542-2.296    c6.187-6.188,7.663-15.319,4.453-22.924l4.556-4.557c2.161,2.149,5.029,3.334,8.077,3.334c1.063,0,2.119-0.148,3.143-0.44    c6.942-1.982,15.047-6.36,23.492-12.612c1.399,1.43,2.853,2.833,4.344,4.212l-12.603,63.63    c-1.066,5.044,0.129,10.336,3.364,14.901c4.331,6.112,11.688,10.252,20.173,11.357c1.463,0.192,2.942,0.291,4.398,0.291h0.001    c3.882,0,7.527-0.676,10.775-1.897c0.844,1.669,1.94,3.259,3.294,4.722c5.174,5.594,13.212,8.803,22.061,8.803    c0.004,0,0.023,0,0.023,0c8.836,0,16.87-3.207,22.045-8.799c1.362-1.471,2.464-3.072,3.312-4.747    c3.302,1.249,6.933,1.921,10.718,1.921c1.459,0,2.939-0.096,4.428-0.293c8.494-1.106,15.85-5.245,20.181-11.355    c3.236-4.565,4.431-9.858,3.385-14.806l-3.279-16.559c-0.84-4.245-4.963-7.004-9.209-6.166c-4.246,0.841-7.006,4.964-6.166,9.21    l3.3,16.656c0.204,0.97-0.425,2.046-0.818,2.602c-1.378,1.943-4.576,4.245-9.428,4.878c-4.824,0.635-8.492-0.758-10.315-2.274    c-0.639-0.532-1.415-1.368-1.469-2.417l-3.237-49.654c5.028-2.795,9.773-5.759,14.222-8.895l2.778,14.028    c0.842,4.245,4.964,7.009,9.21,6.165c4.246-0.841,7.006-4.964,6.165-9.21l-4.377-22.09c1.494-1.381,2.947-2.783,4.347-4.214    c8.447,6.252,16.552,10.631,23.494,12.612c1.022,0.292,2.078,0.44,3.141,0.44c3.049,0,5.915-1.185,8.076-3.334l4.557,4.557    c-3.21,7.606-1.733,16.736,4.453,22.924c1.531,1.531,3.536,2.296,5.542,2.296c2.005,0,4.011-0.765,5.541-2.295    c3.043-3.042,3.058-7.96,0.053-11.026c1.862-0.1,3.696-0.853,5.119-2.275c1.422-1.422,2.174-3.257,2.275-5.119    c3.066,3.004,7.984,2.989,11.025-0.052c3.062-3.06,3.062-8.022,0.001-11.083c-3.947-3.948-9.195-6.122-14.778-6.122    c-2.852,0-5.612,0.575-8.161,1.655l-4.544-4.544c2.925-2.94,4.033-7.238,2.894-11.22c-2.871-10.056-10.645-22.368-21.658-34.51    c0.905-3.399,1.659-6.865,2.248-10.403c4.344,0.458,8.702,0.717,13.048,0.717c7.503,0,15.031-0.674,22.373-2.001    c4.259-0.77,7.086-4.847,6.316-9.106c-0.769-4.259-4.857-7.084-9.106-6.316c-10.164,1.838-20.672,2.223-31.07,1.134    c0.055-1.549,0.087-3.107,0.087-4.678V190.1c0-1.663-0.239-3.268-0.652-4.803c8.059-7.884,13.416-18.146,15.205-29.434h136.425    c1.416,0,2.612,1.197,2.612,2.612v4.542c0,1.416-1.196,2.612-2.612,2.612h-69.486c-4.329,0-7.837,3.509-7.837,7.837    c0,4.328,3.508,7.837,7.837,7.837h58.153c1.416,0,2.612,1.196,2.612,2.612v4.54c0,1.416-1.196,2.612-2.612,2.612h-69.647h-5.224    c-4.329,0-7.837,3.509-7.837,7.837s3.508,7.837,7.837,7.837h53.09c1.416,0,2.612,1.196,2.612,2.612v4.542    c0,1.416-1.196,2.612-2.612,2.612h-73.988c-4.329,0-7.837,3.509-7.837,7.837s3.508,7.837,7.837,7.837h36.761    c-8.272,6.767-17.393,12.269-27.232,16.363c-3.996,1.662-5.888,6.25-4.226,10.246c1.253,3.011,4.168,4.828,7.239,4.828    c1.003,0,2.024-0.194,3.007-0.604c14.222-5.917,27.146-14.362,38.415-25.098c1.932-1.84,3.802-3.772,5.618-5.734H460.6    c10.082,0,18.286-8.203,18.286-18.286v-4.542c0-0.889-0.086-1.756-0.208-2.612h3.704c10.082,0,18.286-8.203,18.286-18.286v-4.54    c0-1.319-0.147-2.602-0.414-3.842c6.859-2.639,11.747-9.28,11.747-17.056v-4.542C512,148.391,503.797,140.188,493.714,140.188z     M202.214,150.714h-11.326c0.952-6.823,5.328-12.547,11.326-15.439V150.714z M219.951,167.88c4.337,0,8.509-1.312,12.016-3.651    c3.508,2.339,7.679,3.651,12.016,3.651c4.337,0,8.509-1.312,12.016-3.651c3.508,2.339,7.679,3.651,12.016,3.651    c4.337,0,8.509-1.312,12.016-3.651c3.508,2.339,7.679,3.651,12.016,3.651c0.694,0,1.381-0.032,2.064-0.096v3.688h-76.224v-3.688    C218.569,167.847,219.258,167.88,219.951,167.88z M174.697,326.13l-7.362-7.362c2.109-5.619,6.328-12.466,11.947-19.52    c2.933,6.356,6.5,12.412,10.713,18.145C184.436,321.428,179.173,324.455,174.697,326.13z M190.763,285.977    c-3.865-10.57-5.829-22.053-5.829-34.374v-7.269h5.829V285.977z M229.291,403.337c-0.123,1.982-3.755,4.734-9.427,4.734    c-0.772,0-1.564-0.052-2.363-0.158c-4.844-0.631-8.042-2.934-9.42-4.878c-0.393-0.555-1.023-1.63-0.797-2.697l11.025-55.664    c4.449,3.137,9.197,6.101,14.224,8.896L229.291,403.337z M236.198,337.61c-2.003-1.193-3.939-2.42-5.828-3.675v-42.584    c0-4.328-3.508-7.837-7.837-7.837s-7.837,3.509-7.837,7.837v30.28c-2.979-2.787-5.732-5.683-8.259-8.685v-68.612h8.259v21.94    c0,4.328,3.508,7.837,7.837,7.837s7.837-3.509,7.837-7.837v-21.94h5.828V337.61z M266.559,415.929    c-1.686,1.823-5.342,3.77-10.541,3.77h-0.036c-5.2,0-8.857-1.949-10.544-3.772c-0.445-0.482-1.181-1.423-1.103-2.428l3.416-52.38    c0.263,0.116,0.52,0.237,0.786,0.352c2.367,1.032,4.878,1.556,7.464,1.556c2.584,0,5.093-0.523,7.462-1.556    c0.265-0.116,0.525-0.237,0.789-0.353l3.421,52.479C267.742,414.504,267.005,415.447,266.559,415.929z M251.872,345.784V244.335    h8.258v101.448c-0.973,0.444-1.943,0.889-2.935,1.322c-0.759,0.331-1.636,0.33-2.39,0.001    C253.813,346.672,252.843,346.228,251.872,345.784z M281.632,333.934c-1.889,1.254-3.826,2.482-5.829,3.675v-93.274h5.829V333.934    z M305.565,312.946c-2.527,3.002-5.281,5.897-8.258,8.684v-77.295h8.258V312.946z M184.933,228.66v-38.562    c0-1.629,1.332-2.953,2.972-2.953h136.189c1.638,0,2.973,1.325,2.973,2.953v38.562H184.933z M321.238,244.334h5.828v7.269    c0,12.32-1.964,23.802-5.828,34.371V244.334z M344.664,318.768l-7.362,7.362c-4.474-1.676-9.736-4.702-15.297-8.737    c4.213-5.733,7.78-11.79,10.713-18.145C338.332,306.295,342.553,313.144,344.664,318.768z"/>
	</g>
</g>
<g>
	<g>
		<path d="M314.151,206.356c0.635-0.734,0.844-1.763,0.544-2.683c-0.302-0.924-1.076-1.635-2.023-1.856l-6.92-1.617    c-0.274-0.064-0.51-0.235-0.656-0.477l-3.678-6.069c-0.503-0.831-1.42-1.347-2.393-1.347c-0.973,0-1.89,0.516-2.393,1.347    l-3.678,6.07c-0.146,0.24-0.382,0.413-0.656,0.477l-6.92,1.617c-0.946,0.22-1.721,0.931-2.022,1.855    c-0.3,0.922-0.092,1.951,0.543,2.684l4.646,5.369c0.185,0.213,0.276,0.491,0.251,0.771l-0.597,7.071    c-0.081,0.965,0.356,1.919,1.143,2.49c0.481,0.349,1.049,0.533,1.644,0.533c0.375,0,0.739-0.073,1.084-0.219l6.55-2.751    c0.13-0.054,0.268-0.082,0.405-0.082c0.138,0,0.276,0.027,0.405,0.082l6.552,2.751c0.344,0.145,0.708,0.219,1.081,0.219    c0.596,0,1.164-0.184,1.646-0.534c0.787-0.571,1.225-1.523,1.142-2.49l-0.596-7.071c-0.024-0.281,0.067-0.559,0.251-0.771    L314.151,206.356z"/>
	</g>
</g>
<g>
	<g>
		<path d="M271.125,206.357c0.635-0.734,0.844-1.763,0.543-2.684c-0.301-0.925-1.075-1.635-2.022-1.856l-6.919-1.617    c-0.274-0.064-0.51-0.235-0.656-0.475l-3.679-6.07c-0.503-0.831-1.419-1.347-2.392-1.347c-0.973,0-1.89,0.516-2.393,1.347    l-3.678,6.07c-0.146,0.24-0.382,0.413-0.656,0.477l-6.921,1.617c-0.946,0.22-1.72,0.931-2.021,1.855    c-0.3,0.923-0.093,1.951,0.542,2.684l4.646,5.369c0.185,0.213,0.276,0.491,0.251,0.771l-0.596,7.071    c-0.082,0.965,0.356,1.919,1.143,2.49c0.481,0.349,1.049,0.533,1.644,0.533c0.374,0,0.739-0.073,1.084-0.219l6.55-2.751    c0.13-0.054,0.268-0.081,0.405-0.081c0.138,0,0.276,0.027,0.405,0.081l6.55,2.751c0.344,0.145,0.708,0.219,1.083,0.219    c0.588,0,1.171-0.189,1.645-0.534c0.787-0.569,1.225-1.523,1.143-2.489l-0.597-7.071c-0.024-0.281,0.066-0.559,0.251-0.771    L271.125,206.357z"/>
	</g>
</g>
<g>
	<g>
		<path d="M228.101,206.356c0.634-0.735,0.843-1.763,0.542-2.684c-0.302-0.924-1.076-1.634-2.023-1.855l-6.919-1.617    c-0.274-0.064-0.51-0.235-0.656-0.475l-3.678-6.07c-0.503-0.831-1.419-1.347-2.393-1.347c-0.973,0-1.889,0.516-2.392,1.347    l-3.679,6.07c-0.146,0.24-0.382,0.412-0.656,0.475l-6.92,1.617c-0.946,0.22-1.72,0.931-2.021,1.855    c-0.301,0.922-0.093,1.95,0.543,2.684l4.645,5.369c0.185,0.213,0.276,0.491,0.251,0.771l-0.597,7.071    c-0.082,0.964,0.356,1.918,1.143,2.489c0.482,0.349,1.051,0.534,1.645,0.534c0.374,0,0.739-0.073,1.084-0.219l6.549-2.751    c0.13-0.054,0.267-0.082,0.405-0.082s0.276,0.027,0.405,0.082l6.552,2.751c0.344,0.145,0.708,0.219,1.082,0.219    c0.596,0,1.164-0.184,1.645-0.534c0.786-0.568,1.224-1.522,1.143-2.489l-0.597-7.071c-0.024-0.281,0.066-0.559,0.251-0.771    L228.101,206.356z"/>
	</g>
</g>
<g>
</g>
<g>
</g>
<g>
</g>
<g>
</g>
<g>
</g>
<g>
</g>
<g>
</g>
<g>
</g>
<g>
</g>
<g>
</g>
<g>
</g>
<g>
</g>
<g>
</g>
<g>
</g>
<g>
</g>
</svg>
