<?xml version="1.0" encoding="iso-8859-1"?>
<!-- Generator: Adobe Illustrator 19.0.0, SVG Export Plug-In . SVG Version: 6.00 Build 0)  -->
<svg xmlns="http://www.w3.org/2000/svg" xmlns:xlink="http://www.w3.org/1999/xlink" version="1.1" id="Layer_1" x="0px" y="0px" viewBox="0 0 512 512" style="enable-background:new 0 0 512 512;" xml:space="preserve">
<g>
	<g>
		<path d="M55.51,287.813H44.827c-1.644,0-2.988,1.343-2.988,2.983v26.179c0,1.639,1.345,2.982,2.988,2.982H55.51    c1.644,0,2.988-1.342,2.988-2.982v-26.179C58.499,289.156,57.154,287.813,55.51,287.813z"/>
	</g>
</g>
<g>
	<g>
		<path d="M82.163,287.813H71.481c-1.644,0-2.988,1.343-2.988,2.983v26.179c0,1.639,1.345,2.982,2.988,2.982h10.682    c1.644,0,2.988-1.342,2.988-2.982v-26.179C85.152,289.156,83.807,287.813,82.163,287.813z"/>
	</g>
</g>
<g>
	<g>
		<path d="M108.818,287.813H98.136c-1.644,0-2.988,1.343-2.988,2.983v26.179c0,1.639,1.345,2.982,2.988,2.982h10.682    c1.644,0,2.988-1.342,2.988-2.982v-26.179C111.806,289.156,110.461,287.813,108.818,287.813z"/>
	</g>
</g>
<g>
	<g>
		<path d="M135.472,287.813h-10.683c-1.643,0-2.987,1.343-2.987,2.983v26.179c0,1.639,1.344,2.982,2.987,2.982h10.683    c1.644,0,2.988-1.342,2.988-2.982v-26.179C138.46,289.156,137.116,287.813,135.472,287.813z"/>
	</g>
</g>
<g>
	<g>
		<path d="M55.51,338.622H44.827c-1.644,0-2.988,1.342-2.988,2.982v26.18c0,1.639,1.345,2.982,2.988,2.982H55.51    c1.644,0,2.988-1.342,2.988-2.982v-26.18C58.499,339.965,57.154,338.622,55.51,338.622z"/>
	</g>
</g>
<g>
	<g>
		<path d="M82.163,338.622H71.481c-1.644,0-2.988,1.342-2.988,2.982v26.18c0,1.639,1.345,2.982,2.988,2.982h10.682    c1.644,0,2.988-1.342,2.988-2.982v-26.18C85.152,339.965,83.807,338.622,82.163,338.622z"/>
	</g>
</g>
<g>
	<g>
		<path d="M108.818,338.622H98.136c-1.644,0-2.988,1.342-2.988,2.982v26.18c0,1.639,1.345,2.982,2.988,2.982h10.682    c1.644,0,2.988-1.342,2.988-2.982v-26.18C111.806,339.965,110.461,338.622,108.818,338.622z"/>
	</g>
</g>
<g>
	<g>
		<path d="M135.472,338.622h-10.683c-1.643,0-2.987,1.342-2.987,2.982v26.18c0,1.639,1.344,2.982,2.987,2.982h10.683    c1.644,0,2.988-1.342,2.988-2.982v-26.18C138.46,339.965,137.116,338.622,135.472,338.622z"/>
	</g>
</g>
<g>
	<g>
		<path d="M389.203,287.813h-10.682c-1.645,0-2.988,1.343-2.988,2.983v26.179c0,1.639,1.344,2.982,2.988,2.982h10.682    c1.645,0,2.988-1.342,2.988-2.982v-26.179C392.191,289.156,390.847,287.813,389.203,287.813z"/>
	</g>
</g>
<g>
	<g>
		<path d="M415.857,287.813h-10.682c-1.643,0-2.988,1.343-2.988,2.983v26.179c0,1.639,1.346,2.982,2.988,2.982h10.682    c1.644,0,2.988-1.342,2.988-2.982v-26.179C418.845,289.156,417.5,287.813,415.857,287.813z"/>
	</g>
</g>
<g>
	<g>
		<path d="M442.51,287.813h-10.682c-1.644,0-2.987,1.343-2.987,2.983v26.179c0,1.639,1.344,2.982,2.987,2.982h10.682    c1.643,0,2.988-1.342,2.988-2.982v-26.179C445.498,289.156,444.153,287.813,442.51,287.813z"/>
	</g>
</g>
<g>
	<g>
		<path d="M469.165,287.813h-10.684c-1.643,0-2.987,1.343-2.987,2.983v26.179c0,1.639,1.345,2.982,2.987,2.982h10.684    c1.643,0,2.987-1.342,2.987-2.982v-26.179C472.153,289.156,470.808,287.813,469.165,287.813z"/>
	</g>
</g>
<g>
	<g>
		<path d="M389.203,338.622h-10.682c-1.645,0-2.988,1.342-2.988,2.982v26.18c0,1.639,1.344,2.982,2.988,2.982h10.682    c1.645,0,2.988-1.342,2.988-2.982v-26.18C392.191,339.965,390.847,338.622,389.203,338.622z"/>
	</g>
</g>
<g>
	<g>
		<path d="M415.857,338.622h-10.682c-1.643,0-2.988,1.342-2.988,2.982v26.18c0,1.639,1.346,2.982,2.988,2.982h10.682    c1.644,0,2.988-1.342,2.988-2.982v-26.18C418.845,339.965,417.5,338.622,415.857,338.622z"/>
	</g>
</g>
<g>
	<g>
		<path d="M442.51,338.622h-10.682c-1.644,0-2.987,1.342-2.987,2.982v26.18c0,1.639,1.344,2.982,2.987,2.982h10.682    c1.643,0,2.988-1.342,2.988-2.982v-26.18C445.498,339.965,444.153,338.622,442.51,338.622z"/>
	</g>
</g>
<g>
	<g>
		<path d="M469.165,338.622h-10.684c-1.643,0-2.987,1.342-2.987,2.982v26.18c0,1.639,1.345,2.982,2.987,2.982h10.684    c1.643,0,2.987-1.342,2.987-2.982v-26.18C472.153,339.965,470.808,338.622,469.165,338.622z"/>
	</g>
</g>
<g>
	<g>
		<path d="M297.203,191.836l-32.871-17.855c-3.011-1.636-6.193-1.979-8.332-1.979c-2.138,0-5.32,0.344-8.331,1.979l-32.871,17.854    c-6.727,3.654-5.959,9.02-5.563,10.578s2.281,6.639,9.937,6.639h73.658c7.654,0,9.541-5.082,9.937-6.639    C303.161,200.857,303.929,195.49,297.203,191.836z M244.788,193.378l10.27-5.58c0.082-0.031,0.431-0.123,0.941-0.123    c0.514,0,0.859,0.092,0.851,0.078l10.355,5.626L244.788,193.378z"/>
	</g>
</g>
<g>
	<g>
		<path d="M505.947,413.885v-9.818c0-5.562-3.5-10.31-8.409-12.19V252.85v-12.471v-7.273c0-7.202-5.859-13.061-13.061-13.061    H376.663c0.185-2.287-0.395-6.304-5.778-9.23l-8.102-4.401v-22.076c0-7.203-5.859-13.061-13.061-13.061h-51.624l-33.765-18.34    c-0.161-0.088-0.33-0.164-0.496-0.246v-29.649h51.909c6.05,0,10.971-4.921,10.971-10.971V77.214    c0-6.049-4.921-10.971-10.971-10.971h-52.037c-0.649-3.673-3.849-6.466-7.709-6.466c-4.328,0-7.837,3.509-7.837,7.837v85.078    c-0.165,0.081-0.334,0.158-0.495,0.246l-33.765,18.341h-51.625c-7.203,0-13.061,5.859-13.061,13.061v22.076l-8.102,4.401    c-5.384,2.925-5.963,6.942-5.778,9.23h-31.89c-4.328,0-7.837,3.509-7.837,7.837c0,4.328,3.509,7.837,7.837,7.837h37.412v14.52    H30.134v-14.52h41.964c4.328,0,7.837-3.509,7.837-7.837c0-4.328-3.509-7.837-7.837-7.837H27.522    c-7.203,0-13.061,5.859-13.061,13.061v7.273v12.472v139.028c-4.908,1.881-8.407,6.628-8.407,12.19v9.818    C2.42,416.207,0,420.266,0,424.889v14.273c0,7.203,5.859,13.061,13.061,13.061h354.743c4.329,0,7.837-3.509,7.837-7.837    c0-4.328-3.508-7.837-7.837-7.837H15.673v-9.049h480.653v9.049h-97.176c-4.329,0-7.837,3.509-7.837,7.837    c0,4.328,3.508,7.837,7.837,7.837h99.788c7.202,0,13.061-5.859,13.061-13.061v-14.273C512,420.266,509.58,416.207,505.947,413.885    z M285.257,85.159h25.787v3.657h-25.787V85.159z M263.837,94.041h17.241h4.18h25.787v4.18h-47.207V94.041z M263.837,103.445    h47.207v3.925h-47.207V103.445z M371.145,235.719h110.719v14.52H371.145V235.719z M364.777,273.823    c2.892-1.742,5.061-4.564,5.933-7.912h111.154v125.095H364.777V273.823z M347.109,186.951v10.951l-20.158-10.951H347.109z     M164.89,186.951h20.158l-20.158,10.951V186.951z M156.53,228.032h126.637c4.329,0,7.837-3.509,7.837-7.837    c0-4.328-3.508-7.837-7.837-7.837l-112.056-0.001l83.948-45.604c0.422-0.165,1.46-0.165,1.791-0.044l84.037,45.649h-26.373    c-4.329,0-7.837,3.509-7.837,7.837c0,4.328,3.508,7.837,7.837,7.837h40.957v14.223H156.53V228.032z M335.483,260.017v-2.087    h19.988v2.087H335.483z M349.104,275.69v115.317h-7.253V275.69H349.104z M296.754,349.518c-4.328,0-7.837,3.509-7.837,7.837    v33.652h-7.251V275.69h7.251v52.408c0,4.328,3.509,7.837,7.837,7.837c4.329,0,7.837-3.509,7.837-7.837v-54.274    c3.808-2.285,6.369-6.442,6.369-11.195v-4.699h8.851v4.699c0,4.753,2.561,8.91,6.368,11.195v117.183h-21.587v-33.652    C304.591,353.026,301.083,349.518,296.754,349.518z M275.299,260.017v-2.087h19.987v2.087H275.299z M265.992,273.824v117.183    h-19.985V273.824c3.807-2.285,6.368-6.441,6.368-11.195v-4.699h7.25v4.699C259.626,267.382,262.187,271.539,265.992,273.824z     M216.715,260.017v-2.087h19.988v2.087H216.715z M230.334,275.69v115.317h-7.252V275.69H230.334z M207.409,273.824v117.183    h-21.588V273.824c3.807-2.284,6.368-6.441,6.368-11.195v-4.699h8.851v4.699C201.041,267.383,203.603,271.539,207.409,273.824z     M156.53,257.929h19.987v2.087H156.53V257.929z M170.148,275.69v115.317h-7.251V275.69H170.148z M30.134,265.911H141.29    c0.871,3.348,3.043,6.171,5.934,7.912v117.183H30.134V265.911z M490.273,411.828H21.727v-3.259    c0.189,0.014,0.378,0.029,0.571,0.029h467.404c0.193,0,0.382-0.015,0.573-0.029V411.828z"/>
	</g>
</g>
<g>
</g>
<g>
</g>
<g>
</g>
<g>
</g>
<g>
</g>
<g>
</g>
<g>
</g>
<g>
</g>
<g>
</g>
<g>
</g>
<g>
</g>
<g>
</g>
<g>
</g>
<g>
</g>
<g>
</g>
</svg>
