<?xml version="1.0" encoding="iso-8859-1"?>
<!-- Generator: Adobe Illustrator 19.0.0, SVG Export Plug-In . SVG Version: 6.00 Build 0)  -->
<svg xmlns="http://www.w3.org/2000/svg" xmlns:xlink="http://www.w3.org/1999/xlink" version="1.1" id="Layer_1" x="0px" y="0px" viewBox="0 0 512 512" style="enable-background:new 0 0 512 512;" xml:space="preserve">
<g>
	<g>
		<path d="M396.11,271.896c-18.847,0-34.18,15.333-34.18,34.18s15.333,34.18,34.18,34.18s34.181-15.333,34.181-34.18    S414.958,271.896,396.11,271.896z M396.109,324.581c-10.204,0-18.506-8.302-18.506-18.506s8.302-18.506,18.506-18.506    c10.206,0,18.507,8.302,18.507,18.506S406.315,324.581,396.109,324.581z"/>
	</g>
</g>
<g>
	<g>
		<path d="M167.196,193.395h-5.579c-4.328,0-7.837,3.509-7.837,7.837s3.509,7.837,7.837,7.837h5.579    c4.328,0,7.837-3.509,7.837-7.837S171.524,193.395,167.196,193.395z"/>
	</g>
</g>
<g>
	<g>
		<path d="M226.328,193.395h-5.579c-4.328,0-7.837,3.509-7.837,7.837s3.509,7.837,7.837,7.837h5.579    c4.328,0,7.837-3.509,7.837-7.837S230.656,193.395,226.328,193.395z"/>
	</g>
</g>
<g>
	<g>
		<path d="M108.064,193.395h-5.579c-4.328,0-7.837,3.509-7.837,7.837s3.509,7.837,7.837,7.837h5.579    c4.328,0,7.837-3.509,7.837-7.837S112.392,193.395,108.064,193.395z"/>
	</g>
</g>
<g>
	<g>
		<path d="M197.32,176.604h-5.579c-4.328,0-7.837,3.509-7.837,7.837s3.509,7.837,7.837,7.837h5.579c4.328,0,7.837-3.509,7.837-7.837    S201.648,176.604,197.32,176.604z"/>
	</g>
</g>
<g>
	<g>
		<path d="M137.073,176.604h-5.579c-4.328,0-7.837,3.509-7.837,7.837s3.509,7.837,7.837,7.837h5.579    c4.328,0,7.837-3.509,7.837-7.837S141.401,176.604,137.073,176.604z"/>
	</g>
</g>
<g>
	<g>
		<path d="M197.32,213.825h-5.579c-4.328,0-7.837,3.509-7.837,7.837c0,4.328,3.509,7.837,7.837,7.837h5.579    c4.328,0,7.837-3.509,7.837-7.837C205.156,217.334,201.648,213.825,197.32,213.825z"/>
	</g>
</g>
<g>
	<g>
		<path d="M137.073,213.825h-5.579c-4.328,0-7.837,3.509-7.837,7.837c0,4.328,3.509,7.837,7.837,7.837h5.579    c4.328,0,7.837-3.509,7.837-7.837C144.91,217.334,141.401,213.825,137.073,213.825z"/>
	</g>
</g>
<g>
	<g>
		<path d="M498.939,387.324h-44.437l9.444-66.484c0.608-4.285-2.372-8.252-6.657-8.861c-4.288-0.611-8.252,2.372-8.861,6.657    l-3.86,27.172h-96.914l-11.162-78.572h119.237l-3.442,24.233c-0.609,4.285,2.372,8.252,6.657,8.861    c4.283,0.611,8.253-2.372,8.861-6.657l8.691-61.19h2.067c7.203,0,13.061-5.859,13.061-13.061v-21.634    c0-7.203-5.859-13.061-13.061-13.061h-12.469v-8.882c0-7.203-5.859-13.061-13.061-13.061h-38.115V119.09l31.779-0.003    c6.05,0,10.971-4.922,10.971-10.971V92.446c0-6.05-4.923-10.971-10.971-10.971h-45.362c-13.251,0-24.033,10.781-24.033,24.033    v57.276h-38.115c-7.202,0-13.061,5.859-13.061,13.061v8.882h-12.469c-7.203,0-13.061,5.859-13.061,13.061v21.634    c0,7.202,5.859,13.061,13.061,13.061h2.067l21.995,154.842h-43.134c0.772-2.377,1.21-4.904,1.21-7.535V356.02    c0-1.415-0.38-2.74-1.038-3.886c0.667-1.892,1.038-3.923,1.038-6.042v-8.729c0-0.837-0.066-1.658-0.176-2.465    c12.676-0.333,22.885-10.74,22.885-23.495v-11.751c0-12.932-10.495-23.457-23.416-23.508c0.444-1.711,0.705-3.494,0.705-5.343    v-2.683c0-4.446-1.375-8.574-3.714-11.99c2.184-2.801,3.556-6.274,3.743-10.083c0.072-1.493,0.109-2.966,0.109-4.379    c0-20.055-6.935-39.717-19.527-55.363c-2.713-3.371-7.645-3.906-11.018-1.192c-3.372,2.714-3.906,7.647-1.192,11.018    c10.509,13.059,16.063,28.805,16.063,45.537c0,1.161-0.03,2.378-0.09,3.614c-0.046,0.944-0.693,1.714-1.561,1.981    c-1.304-0.252-2.647-0.395-4.023-0.395H53.951c-1.312,0-2.592,0.137-3.84,0.367c-0.82-0.293-1.42-1.042-1.465-1.95    c-0.062-1.251-0.092-2.467-0.092-3.616c0-40.196,32.799-72.898,73.115-72.898h85.477c14.415,0,28.368,4.196,40.35,12.134    c3.609,2.391,8.472,1.404,10.862-2.204c2.391-3.608,1.403-8.471-2.205-10.862c-14.556-9.644-31.503-14.742-49.007-14.742h-85.477    c-48.958,0-88.788,39.733-88.788,88.572c0,1.403,0.038,2.878,0.111,4.382c0.182,3.726,1.495,7.133,3.595,9.905    c-2.415,3.45-3.845,7.641-3.845,12.167v2.683c0,2.034,0.304,3.997,0.839,5.86c-10.612,2.265-18.596,11.711-18.596,22.99v11.751    c0,11.077,7.702,20.383,18.031,22.858c-0.174,1.008-0.273,2.043-0.273,3.101v8.729c0,2.118,0.37,4.149,1.038,6.042    c-0.656,1.146-1.038,2.471-1.038,3.886v23.769c0,2.632,0.438,5.158,1.21,7.535H13.061C5.859,387.325,0,393.185,0,400.387v17.078    c0,7.203,5.859,13.061,13.061,13.061h485.878c7.202,0,13.061-5.859,13.061-13.061v-17.078    C512,393.184,506.141,387.324,498.939,387.324z M392.976,105.507c0-4.609,3.75-8.359,8.359-8.359h40.659v6.265l-34.913,0.003    c-4.328,0.001-7.836,3.509-7.836,7.837v51.53h-6.269V105.507z M316.27,200.399h83.926c4.328,0,7.837-3.509,7.837-7.837    c0-4.328-3.509-7.837-7.837-7.837H341.8v-6.269h108.622v6.269h-20.969c-4.328,0-7.837,3.509-7.837,7.837    c0,4.328,3.509,7.837,7.837,7.837h46.498v16.409H316.27V200.399z M331.556,232.482h129.111l-2.71,19.08H334.265L331.556,232.482z     M442.341,361.481l-3.671,25.844h-85.119l-3.671-25.844H442.341z M294.995,291.818c4.322,0,7.837,3.515,7.837,7.837v11.751    c0,4.322-3.515,7.837-7.837,7.837H226.56c0.967-0.689,1.893-1.445,2.747-2.303l24.798-24.882h20.48    c1.025,0,2.025-0.098,3.011-0.239H294.995z M114.928,348.184H49.497c-0.648-0.481-1.08-1.243-1.08-2.09v-8.729    c0-1.115,0.746-2.084,1.752-2.449h64.158c0.215,0.08,0.421,0.184,0.608,0.315c-0.083,0.701-0.138,1.412-0.138,2.135v8.729    C114.796,346.801,114.849,347.496,114.928,348.184z M280.121,363.857v15.933c0,3.185-1.703,5.974-4.244,7.535H52.66    c-2.541-1.561-4.244-4.351-4.244-7.535v-15.933H280.121z M196.929,348.184h-65.379c-0.648-0.481-1.08-1.243-1.08-2.09v-8.729    c0-1.115,0.746-2.084,1.752-2.449h64.157c0.198,0.073,0.387,0.164,0.56,0.28c-0.086,0.713-0.142,1.434-0.142,2.169v8.729    C196.797,346.801,196.85,347.496,196.929,348.184z M279.041,348.184h-65.49c-0.648-0.481-1.08-1.243-1.08-2.09v-8.729    c0-1.115,0.746-2.084,1.752-2.449h64.147c1.006,0.366,1.752,1.334,1.752,2.449v8.729    C280.121,346.94,279.689,347.703,279.041,348.184z M30.658,311.405v-11.751c0-4.322,3.515-7.837,7.837-7.837H50.94    c0.986,0.141,1.986,0.239,3.011,0.239h40.09c4.328,0,7.837-3.509,7.837-7.837c0-4.328-3.509-7.837-7.837-7.837h-0.198    c-0.607-0.151-1.238-0.239-1.892-0.239H52.435c-2.312-0.67-4.019-2.797-4.019-5.339v-2.683c0-3.076,2.483-5.58,5.535-5.58h220.635    c3.052,0,5.535,2.504,5.535,5.58v2.683c0,2.543-1.706,4.67-4.019,5.339l-25.251,0.239c-2.083,0-4.08,0.829-5.552,2.305    l-27.095,27.187c-1.033,1.038-2.42,1.609-3.905,1.609s-2.87-0.572-3.904-1.609l-27.095-27.186c-1.47-1.475-3.467-2.305-5.55-2.305    h-51.318c-4.328,0-7.837,3.509-7.837,7.837c0,4.328,3.509,7.837,7.837,7.837h48.065l24.797,24.882    c0.855,0.858,1.781,1.614,2.747,2.303H38.495C34.173,319.242,30.658,315.727,30.658,311.405z M496.327,414.851H15.673v-11.853    h480.653V414.851z"/>
	</g>
</g>
<g>
</g>
<g>
</g>
<g>
</g>
<g>
</g>
<g>
</g>
<g>
</g>
<g>
</g>
<g>
</g>
<g>
</g>
<g>
</g>
<g>
</g>
<g>
</g>
<g>
</g>
<g>
</g>
<g>
</g>
</svg>
