<?xml version="1.0" encoding="iso-8859-1"?>
<!-- Generator: Adobe Illustrator 19.0.0, SVG Export Plug-In . SVG Version: 6.00 Build 0)  -->
<svg xmlns="http://www.w3.org/2000/svg" xmlns:xlink="http://www.w3.org/1999/xlink" version="1.1" id="Layer_1" x="0px" y="0px" viewBox="0 0 512 512" style="enable-background:new 0 0 512 512;" xml:space="preserve">
<g>
	<g>
		<path d="M356.552,232.032c-4.328,0-7.837,3.509-7.837,7.837v8.295h-9.396v-8.295c0-4.328-3.509-7.837-7.837-7.837    c-4.328,0-7.837,3.509-7.837,7.837v8.295h-9.883v-8.295c0-4.328-3.509-7.837-7.837-7.837c-4.328,0-7.837,3.509-7.837,7.837v8.295    h-10.156v-8.295c0-4.328-3.509-7.837-7.837-7.837c-4.328,0-7.837,3.509-7.837,7.837v8.295h-8.423v-8.295    c0-4.328-3.509-7.837-7.837-7.837c-4.328,0-7.837,3.509-7.837,7.837v8.295h-8.423v-8.295c0-4.328-3.509-7.837-7.837-7.837    c-4.328,0-7.837,3.509-7.837,7.837v8.295h-10.155v-8.295c0-4.328-3.509-7.837-7.837-7.837c-4.328,0-7.837,3.509-7.837,7.837v8.295    h-9.883v-8.295c0-4.328-3.509-7.837-7.837-7.837c-4.328,0-7.837,3.509-7.837,7.837v8.295h-9.397v-8.295    c0-4.328-3.509-7.837-7.837-7.837s-7.837,3.509-7.837,7.837v32.263c0,4.328,3.509,7.837,7.837,7.837s7.837-3.509,7.837-7.837    v-8.295h9.397v8.295c0,4.328,3.509,7.837,7.837,7.837c4.328,0,7.837-3.509,7.837-7.837v-8.295h9.883v8.295    c0,4.328,3.509,7.837,7.837,7.837c4.328,0,7.837-3.509,7.837-7.837v-8.295h10.155v8.295c0,4.328,3.509,7.837,7.837,7.837    c4.328,0,7.837-3.509,7.837-7.837v-8.295h8.423v8.295c0,4.328,3.509,7.837,7.837,7.837c4.328,0,7.837-3.509,7.837-7.837v-8.295    h8.423v8.295c0,4.328,3.509,7.837,7.837,7.837c4.328,0,7.837-3.509,7.837-7.837v-8.295h10.156v8.295    c0,4.328,3.509,7.837,7.837,7.837c4.328,0,7.837-3.509,7.837-7.837v-8.295h9.883v8.295c0,4.328,3.509,7.837,7.837,7.837    c4.328,0,7.837-3.509,7.837-7.837v-8.295h9.396v8.295c0,4.328,3.509,7.837,7.837,7.837c4.328,0,7.837-3.509,7.837-7.837v-32.263    C364.388,235.541,360.88,232.032,356.552,232.032z"/>
	</g>
</g>
<g>
	<g>
		<path d="M486.268,181.68c-15.876-22.546-38.783-43.541-66.244-60.718c-3.67-2.297-8.505-1.181-10.8,2.488    c-2.296,3.67-1.181,8.504,2.488,10.8c2.113,1.322,4.179,2.67,6.223,4.029v109.885h-15.404    c-3.776-28.273-27.655-50.137-56.479-50.137H165.947c-28.823,0-52.703,21.866-56.478,50.137H94.065V138.271    c12.557-8.356,26.011-15.737,40.087-22.063c38.656,16.35,80.701,25.003,121.848,25.003c41.139,0,83.174-8.649,121.822-24.993    c1.473,0.664,2.953,1.313,4.415,2c3.917,1.838,8.585,0.157,10.425-3.762c1.84-3.917,0.156-8.585-3.762-10.425    C347.268,84.477,301.312,74.141,256,74.141c-62.549,0-126.977,20.152-176.764,55.288C28.88,164.964,0,211.098,0,256    s28.88,91.036,79.236,126.572c49.787,35.136,114.216,55.288,176.764,55.288s126.977-20.152,176.764-55.288    C483.12,347.036,512,300.902,512,256C512,231.285,503.102,205.586,486.268,181.68z M256,89.814    c33.95,0,68.283,6.141,100.696,17.85c-32.462,11.713-66.905,17.873-100.696,17.873s-68.234-6.16-100.696-17.873    C187.486,96.077,222.026,89.814,256,89.814z M45.629,330.661c-17.375-21.321-27.663-44.236-29.609-66.824h29.609V330.661z     M45.629,248.163H16.019c1.947-22.589,12.235-45.503,29.609-66.824V248.163z M256,422.186c-33.974,0-68.514-6.263-100.696-17.85    c32.462-11.713,66.905-17.872,100.696-17.872s68.234,6.159,100.696,17.872C324.514,415.923,289.974,422.186,256,422.186z     M417.935,373.729c-12.557,8.356-26.011,15.737-40.087,22.063c-38.655-16.35-80.7-25.002-121.848-25.002    s-83.193,8.653-121.848,25.002c-14.077-6.326-27.531-13.707-40.087-22.063v-38.316c0-4.328-3.509-7.837-7.837-7.837    c-4.328,0-7.837,3.509-7.837,7.837v26.996c-6.106-4.78-11.809-9.722-17.089-14.797V164.389    c5.28-5.075,10.983-10.016,17.089-14.797v150.294c0,4.328,3.509,7.837,7.837,7.837c4.328,0,7.837-3.509,7.837-7.837v-36.049    h15.404c3.776,28.273,27.655,50.137,56.478,50.137h93.187c4.328,0,7.837-3.509,7.837-7.837c0-4.328-3.509-7.837-7.837-7.837    h-93.187c-22.794,0-41.34-18.976-41.34-42.301s18.545-42.301,41.34-42.301h180.106c22.794,0,41.34,18.976,41.34,42.301    s-18.546,42.301-41.34,42.301h-52.436c-4.328,0-7.837,3.509-7.837,7.837c0,4.328,3.509,7.837,7.837,7.837h52.436    c28.822,0,52.703-21.866,56.479-50.137h15.404V373.729z M450.698,347.621c-5.279,5.072-10.986,10.009-17.089,14.787V149.596    c6.095,4.778,11.803,9.727,17.089,14.823V347.621z M466.371,181.438c17.279,21.27,27.633,44.202,29.604,66.725h-29.604V181.438z     M466.371,330.667v-66.831h29.609C494.031,286.426,483.751,309.345,466.371,330.667z"/>
	</g>
</g>
<g>
</g>
<g>
</g>
<g>
</g>
<g>
</g>
<g>
</g>
<g>
</g>
<g>
</g>
<g>
</g>
<g>
</g>
<g>
</g>
<g>
</g>
<g>
</g>
<g>
</g>
<g>
</g>
<g>
</g>
</svg>
