<?xml version="1.0" encoding="iso-8859-1"?>
<!-- Generator: Adobe Illustrator 19.0.0, SVG Export Plug-In . SVG Version: 6.00 Build 0)  -->
<svg xmlns="http://www.w3.org/2000/svg" xmlns:xlink="http://www.w3.org/1999/xlink" version="1.1" id="Layer_1" x="0px" y="0px" viewBox="0 0 512 512" style="enable-background:new 0 0 512 512;" xml:space="preserve">
<g>
	<g>
		<g>
			<path d="M426.178,55.453v-3.317c0-11.897-9.679-21.577-21.579-21.577h-38.78V16.156h4.464c4.462,0,8.078-3.616,8.078-8.078     S374.745,0,370.283,0h-12.542h-50.308H294.89c-4.462,0-8.078,3.616-8.078,8.078s3.616,8.078,8.078,8.078h4.465v14.403H107.399     c-11.897,0-21.577,9.679-21.577,21.576v3.317c0,9.04,5.595,16.787,13.499,19.993v65.438     c-7.903,3.205-13.499,10.953-13.499,19.993v3.317c0,9.04,5.595,16.787,13.499,19.993v65.438     c-7.903,3.205-13.499,10.953-13.499,19.993v3.317c0,9.04,5.595,16.787,13.499,19.993v65.439     c-7.903,3.205-13.499,10.953-13.499,19.993v3.317c0,9.04,5.595,16.787,13.499,19.993v65.439     c-7.903,3.205-13.499,10.953-13.499,19.993v3.317c0,11.897,9.679,21.577,21.577,21.577h297.2     c11.899,0,21.579-9.679,21.579-21.577v-3.317c0-9.04-5.594-16.787-13.499-19.992v-65.44c7.904-3.206,13.499-10.953,13.499-19.992     v-3.317c0-9.04-5.594-16.787-13.499-19.992v-65.44c7.904-3.206,13.499-10.953,13.499-19.992v-3.317     c0-9.04-5.594-16.787-13.499-19.992V184.19c7.904-3.206,13.499-10.953,13.499-19.992v-3.317c0-9.04-5.594-16.787-13.499-19.993     V75.446C420.583,72.24,426.178,64.493,426.178,55.453z M315.511,16.156h34.152v14.403h-34.152V16.156z M101.978,269.62     c0-2.989,2.432-5.421,5.421-5.421h68.375c-0.03,0.306-0.041,0.613-0.067,0.919c-0.08,0.949-0.162,1.897-0.208,2.853     c-0.066,1.315-0.1,2.63-0.1,3.943c0,1.248,0.038,2.496,0.095,3.742c0.019,0.414,0.048,0.825,0.074,1.238     c0.03,0.489,0.048,0.978,0.087,1.466h-68.257c-2.99-0.001-5.421-2.432-5.421-5.422V269.62z M396.52,356.786H115.477v-62.272     h63.141c0.101,0.346,0.218,0.685,0.323,1.029c0.071,0.23,0.143,0.46,0.216,0.689c0.33,1.04,0.679,2.071,1.049,3.092     c0.054,0.148,0.106,0.297,0.16,0.445c1.781,4.828,4.008,9.425,6.628,13.75c0.073,0.121,0.148,0.24,0.221,0.361     c0.575,0.938,1.168,1.862,1.779,2.773c0.109,0.163,0.216,0.325,0.326,0.487c0.615,0.903,1.248,1.792,1.899,2.668     c0.096,0.129,0.187,0.262,0.284,0.39c0.737,0.979,1.492,1.944,2.27,2.888c0.181,0.22,0.372,0.43,0.555,0.647     c0.556,0.659,1.117,1.314,1.693,1.954c0.425,0.474,0.863,0.935,1.299,1.398c0.332,0.352,0.662,0.704,1.001,1.049     c0.539,0.553,1.086,1.095,1.64,1.632c0.211,0.204,0.423,0.406,0.637,0.607c11.251,10.668,25.561,18.126,41.467,20.911     c0.3,0.053,0.599,0.112,0.9,0.162c0.704,0.115,1.413,0.214,2.122,0.31c0.565,0.078,1.131,0.151,1.698,0.216     c0.596,0.068,1.191,0.132,1.791,0.187c0.749,0.07,1.5,0.123,2.253,0.172c0.469,0.03,0.935,0.066,1.406,0.088     c1.249,0.058,2.502,0.096,3.763,0.096c1.303,0,2.6-0.04,3.892-0.101c0.389-0.018,0.774-0.046,1.162-0.07     c0.945-0.058,1.885-0.131,2.823-0.221c0.389-0.038,0.777-0.073,1.163-0.116c1.163-0.129,2.321-0.279,3.472-0.458     c0.108-0.017,0.216-0.029,0.324-0.045c1.337-0.212,2.664-0.463,3.983-0.742c0.143-0.03,0.285-0.065,0.428-0.096     c1.206-0.262,2.404-0.554,3.594-0.87c0.139-0.038,0.278-0.074,0.417-0.112c9.786-2.662,19.007-7.168,27.285-13.424     c3.56-2.689,4.264-7.755,1.575-11.314c-2.689-3.559-7.753-4.265-11.314-1.575c-3.9,2.947-8.066,5.399-12.428,7.363     c-3.031,1.361-6.137,2.474-9.306,3.343c-0.163,0.044-0.326,0.088-0.489,0.131c-0.889,0.236-1.782,0.451-2.681,0.648     c-0.165,0.037-0.33,0.076-0.494,0.111c-1.033,0.219-2.07,0.412-3.115,0.579c-0.13,0.021-0.262,0.036-0.391,0.055     c-0.879,0.135-1.762,0.25-2.648,0.349c-0.324,0.036-0.648,0.067-0.973,0.098c-0.738,0.071-1.479,0.128-2.221,0.173     c-0.316,0.019-0.631,0.042-0.948,0.057c-1.032,0.049-2.068,0.081-3.108,0.081c-1.031,0-2.054-0.03-3.073-0.078     c-0.411-0.019-0.82-0.054-1.23-0.082c-0.588-0.039-1.176-0.08-1.76-0.135c-0.532-0.051-1.061-0.113-1.59-0.177     c-0.433-0.052-0.866-0.106-1.297-0.165c-0.623-0.087-1.242-0.183-1.859-0.289c-0.295-0.051-0.589-0.104-0.884-0.158     c-0.724-0.135-1.444-0.275-2.161-0.433c-0.107-0.024-0.211-0.049-0.317-0.073c-10.655-2.416-20.409-7.496-28.434-14.562     c-0.086-0.076-0.174-0.149-0.261-0.225c-0.476-0.424-0.94-0.862-1.403-1.3c-0.271-0.257-0.545-0.513-0.812-0.774     c-0.358-0.35-0.709-0.708-1.059-1.065c-0.374-0.383-0.744-0.77-1.108-1.162c-0.261-0.28-0.519-0.562-0.774-0.848     c-0.464-0.519-0.921-1.046-1.369-1.579c-0.157-0.186-0.316-0.372-0.471-0.56c-0.597-0.729-1.183-1.468-1.747-2.222     c-0.008-0.01-0.015-0.019-0.023-0.029c-3.09-4.13-5.696-8.642-7.735-13.45c-0.005-0.012-0.01-0.023-0.015-0.034     c-0.393-0.928-0.763-1.869-1.114-2.819c-0.019-0.052-0.039-0.103-0.057-0.155c-0.337-0.921-0.652-1.853-0.947-2.792     c-0.02-0.066-0.043-0.13-0.064-0.196c-0.298-0.962-0.575-1.932-0.829-2.912c-0.009-0.034-0.019-0.068-0.028-0.102     c-0.509-1.979-0.923-3.996-1.244-6.042c-0.012-0.076-0.029-0.152-0.041-0.229c-0.109-0.71-0.188-1.428-0.274-2.144     c-0.044-0.369-0.101-0.736-0.139-1.106c-0.061-0.603-0.095-1.214-0.139-1.822c-0.034-0.481-0.084-0.961-0.109-1.442     c-0.055-1.086-0.083-2.179-0.083-3.279c0-1.158,0.033-2.317,0.097-3.478c0.005-0.11,0.018-0.218,0.025-0.326     c0.064-1.066,0.149-2.134,0.266-3.199c0.006-0.06,0.016-0.12,0.023-0.181c0.125-1.108,0.277-2.215,0.459-3.318     c0.01-0.058,0.022-0.116,0.031-0.176c0.182-1.079,0.391-2.155,0.627-3.227c0.039-0.176,0.082-0.35,0.122-0.526     c0.173-0.757,0.354-1.51,0.554-2.256c0.036-0.134,0.076-0.265,0.113-0.398c6.834-24.854,28.273-43.32,53.555-46.772     c0.218-0.029,0.435-0.056,0.653-0.083c0.67-0.084,1.343-0.159,2.018-0.223c0.476-0.043,0.955-0.076,1.435-0.11     c0.48-0.033,0.96-0.072,1.442-0.096c1.003-0.046,2.01-0.076,3.024-0.076c1.015,0,2.022,0.03,3.024,0.076     c0.482,0.023,0.962,0.061,1.442,0.096c0.479,0.033,0.959,0.066,1.435,0.11c0.675,0.064,1.347,0.138,2.018,0.223     c0.218,0.027,0.435,0.054,0.653,0.083c25.284,3.451,46.722,21.917,53.555,46.772c0.037,0.134,0.078,0.265,0.113,0.398     c0.2,0.745,0.381,1.499,0.554,2.256c0.042,0.181,0.085,0.36,0.125,0.541c0.237,1.079,0.448,2.162,0.629,3.247     c0.008,0.043,0.016,0.086,0.023,0.129c0.187,1.131,0.342,2.264,0.47,3.399c0.003,0.033,0.009,0.067,0.013,0.1     c0.121,1.088,0.207,2.178,0.271,3.266c0.005,0.089,0.015,0.178,0.021,0.267c0.064,1.162,0.097,2.322,0.097,3.48     c0,4.333-0.436,8.677-1.295,12.911c0,0.001,0,0.002-0.001,0.002c-1.457,7.17-4.114,13.99-7.897,20.272     c-2.302,3.822-1.068,8.785,2.753,11.087c3.821,2.302,8.786,1.068,11.087-2.753c3.586-5.953,6.362-12.294,8.293-18.919h63.139     V356.786z M332.99,248.043c-0.209-0.672-0.447-1.33-0.672-1.995c-0.114-0.335-0.223-0.672-0.341-1.006     c-0.246-0.691-0.504-1.375-0.767-2.057c-0.142-0.368-0.288-0.735-0.434-1.101c-0.275-0.682-0.553-1.362-0.845-2.035     c-0.126-0.291-0.263-0.577-0.392-0.867c-0.553-1.229-1.135-2.441-1.746-3.636c-0.199-0.39-0.393-0.781-0.599-1.168     c-0.296-0.557-0.603-1.107-0.912-1.656c-0.277-0.492-0.559-0.981-0.846-1.468c-0.279-0.472-0.557-0.945-0.845-1.411     c-0.477-0.773-0.969-1.538-1.472-2.295c-0.117-0.176-0.227-0.357-0.345-0.531c-0.672-0.995-1.373-1.971-2.089-2.936     c-0.111-0.149-0.224-0.294-0.335-0.442c-0.68-0.904-1.379-1.791-2.097-2.667c-0.045-0.055-0.089-0.11-0.135-0.165     c-3.391-4.111-7.184-7.907-11.353-11.293c-3.786-3.075-7.84-5.773-12.088-8.094c-0.31-0.17-0.626-0.333-0.939-0.5     c-0.705-0.374-1.414-0.74-2.13-1.092c-0.531-0.263-1.067-0.517-1.605-0.768c-0.484-0.224-0.968-0.444-1.455-0.659     c-0.703-0.311-1.41-0.616-2.124-0.908c-0.281-0.114-0.564-0.223-0.847-0.334c-4.892-1.937-10.013-3.406-15.317-4.357     c-0.292-0.053-0.584-0.108-0.877-0.157c-0.805-0.135-1.612-0.256-2.424-0.367c-0.48-0.067-0.962-0.126-1.443-0.184     c-0.689-0.082-1.38-0.16-2.074-0.224c-0.686-0.065-1.374-0.111-2.063-0.157c-0.532-0.036-1.061-0.079-1.595-0.103     c-1.258-0.059-2.518-0.096-3.782-0.096c-1.263,0-2.524,0.037-3.782,0.096c-0.535,0.025-1.065,0.068-1.597,0.103     c-0.687,0.046-1.374,0.093-2.06,0.157c-0.696,0.064-1.387,0.143-2.079,0.224c-0.479,0.057-0.959,0.117-1.437,0.183     c-0.814,0.111-1.625,0.233-2.432,0.368c-0.289,0.048-0.576,0.103-0.865,0.155c-5.314,0.952-10.447,2.424-15.348,4.367     c-0.27,0.107-0.541,0.21-0.81,0.32c-0.724,0.296-1.441,0.605-2.154,0.921c-0.475,0.21-0.948,0.423-1.418,0.643     c-0.549,0.256-1.097,0.516-1.639,0.785c-0.7,0.345-1.394,0.703-2.084,1.068c-0.327,0.174-0.658,0.345-0.983,0.523     c-4.244,2.32-8.292,5.015-12.074,8.086c-4.167,3.385-7.958,7.177-11.347,11.285c-0.051,0.061-0.1,0.123-0.151,0.184     c-0.711,0.867-1.404,1.748-2.079,2.643c-0.116,0.153-0.234,0.305-0.348,0.459c-0.714,0.962-1.413,1.934-2.083,2.926     c-0.124,0.183-0.239,0.372-0.362,0.556c-0.498,0.75-0.984,1.505-1.456,2.27c-0.29,0.469-0.57,0.943-0.851,1.419     c-0.284,0.484-0.564,0.969-0.839,1.458c-0.31,0.551-0.618,1.104-0.917,1.663c-0.204,0.383-0.396,0.771-0.593,1.158     c-0.615,1.201-1.2,2.419-1.755,3.654c-0.128,0.285-0.262,0.568-0.387,0.854c-0.294,0.674-0.572,1.356-0.848,2.04     c-0.146,0.364-0.291,0.729-0.433,1.094c-0.264,0.683-0.522,1.368-0.768,2.059c-0.118,0.334-0.227,0.671-0.341,1.006     c-0.226,0.665-0.464,1.323-0.672,1.995h-63.533v-62.271h281.046v62.272h-0.001H332.99z M410.022,490.424     c0,2.989-2.433,5.421-5.423,5.421h-297.2c-2.989,0-5.421-2.432-5.421-5.421v-3.317c0-2.989,2.432-5.421,5.421-5.421h297.2     c2.99,0,5.423,2.432,5.423,5.421V490.424z M115.477,465.53v-62.272h281.046v62.272H115.477z M410.022,381.68     c0,2.989-2.433,5.421-5.423,5.421h-297.2c-2.989,0-5.421-2.432-5.421-5.421v-3.317c0-2.989,2.432-5.421,5.421-5.421h297.2     c2.991,0,5.423,2.431,5.423,5.421V381.68z M410.022,272.937c0,2.989-2.433,5.421-5.423,5.421h-68.256     c0.04-0.506,0.06-1.014,0.09-1.52c0.025-0.411,0.055-0.823,0.073-1.235c0.056-1.23,0.093-2.46,0.093-3.69     c0-1.312-0.034-2.626-0.1-3.941c-0.046-0.965-0.129-1.921-0.209-2.878c-0.026-0.299-0.037-0.598-0.066-0.897h68.373     c2.992,0.002,5.424,2.434,5.424,5.423V272.937z M410.022,164.195c0,2.989-2.433,5.421-5.423,5.421h-297.2     c-2.989,0-5.421-2.432-5.421-5.421v-3.317c0-2.989,2.432-5.421,5.421-5.421h297.2c2.991,0,5.423,2.432,5.423,5.421V164.195z      M410.022,55.453c0,2.989-2.433,5.421-5.423,5.421h-44.636c-4.462,0-8.078,3.616-8.078,8.078s3.616,8.078,8.078,8.078h36.56     V139.3H115.477V77.029h215.406c4.462,0,8.078-3.616,8.078-8.078s-3.616-8.078-8.078-8.078H107.399     c-2.989,0-5.421-2.432-5.421-5.421v-3.317c0-2.989,2.432-5.421,5.421-5.421h200.034h50.308h46.858     c2.99,0,5.423,2.432,5.423,5.421V55.453z"/>
			<path d="M263.372,231.047c-1.301-2.906-4.189-4.777-7.372-4.777c-3.184,0-6.071,1.87-7.372,4.777l-19.166,42.799     c-3.186,7.113-3.41,15.041-0.633,22.324c2.778,7.282,8.224,13.046,15.335,16.23c3.561,1.596,7.336,2.451,11.293,2.546     l0.543,0.003l0.612-0.004c3.884-0.094,7.66-0.949,11.222-2.544c7.113-3.185,12.559-8.949,15.337-16.231     c2.777-7.283,2.553-15.21-0.633-22.324L263.372,231.047z M268.075,290.413c-1.239,3.251-3.669,5.823-6.845,7.245     c-1.593,0.713-3.277,1.096-4.936,1.136l-0.521,0.001c-1.728-0.041-3.411-0.423-5.004-1.137c-3.175-1.422-5.606-3.995-6.845-7.245     c-1.24-3.251-1.14-6.789,0.282-9.963l11.794-26.336l11.794,26.336C269.215,283.625,269.316,287.163,268.075,290.413z"/>
		</g>
	</g>
</g>
<g>
</g>
<g>
</g>
<g>
</g>
<g>
</g>
<g>
</g>
<g>
</g>
<g>
</g>
<g>
</g>
<g>
</g>
<g>
</g>
<g>
</g>
<g>
</g>
<g>
</g>
<g>
</g>
<g>
</g>
</svg>
