<?xml version="1.0" encoding="iso-8859-1"?>
<!-- Generator: Adobe Illustrator 19.0.0, SVG Export Plug-In . SVG Version: 6.00 Build 0)  -->
<svg xmlns="http://www.w3.org/2000/svg" xmlns:xlink="http://www.w3.org/1999/xlink" version="1.1" id="Layer_1" x="0px" y="0px" viewBox="0 0 512 512" style="enable-background:new 0 0 512 512;" xml:space="preserve">
<g>
	<g>
		<path d="M490.407,465.493h-104.32l-14.921-26.25c-1.437-2.529-4.121-4.09-7.029-4.09h-10.618l-3.775-26.51c0,0,0,0,0-0.001    l-9.178-64.466l-7.864-55.234l-6.694-47.015l-1.03-7.234l-10.834-76.093c-0.003-0.026-0.008-0.051-0.011-0.076l-3.192-22.418    c9.862-1.992,17.312-10.724,17.312-21.164v-3.32c0-11.906-9.687-21.593-21.593-21.593h-5.207v-9.363    c0-22.303-16.151-40.891-37.367-44.719V8.084C264.084,3.619,260.466,0,256,0c-4.466,0-8.084,3.619-8.084,8.084v27.865    c-21.217,3.827-37.368,22.415-37.368,44.719v9.363h-5.206c-11.906,0-21.593,9.687-21.593,21.593v3.32    c0,10.44,7.45,19.171,17.312,21.164l-3.192,22.417c-0.004,0.026-0.008,0.052-0.011,0.079l-16.545,116.204l-7.187,50.48    l-11.869,83.357v0.001l-3.775,26.51h-10.619c-2.907,0-5.592,1.561-7.029,4.09l-14.921,26.25H21.594    C9.687,465.493,0,475.18,0,487.087v3.32C0,502.313,9.687,512,21.594,512h468.813c11.906,0,21.593-9.687,21.593-21.593v-3.32    C512,475.18,502.313,465.493,490.407,465.493z M324.055,342.919l7.461,52.403l-58.052-30.317l50.016-26.121L324.055,342.919z     M256,186.905l-25.708-19.11h51.416L256,186.905z M300.048,174.31l7.22,50.704l-37.716-28.035L300.048,174.31z M242.449,196.979    l-37.717,28.035l7.22-50.704L242.449,196.979z M256.001,207.052l37.576,27.933h-75.154L256.001,207.052z M289.367,251.153    L256,271.623l-33.368-20.47H289.367z M301.235,318.342h-90.471l45.235-27.752L301.235,318.342z M296.93,334.511l-40.929,21.375    l-40.93-21.375H296.93z M308.797,401.699H203.204L256,374.126L308.797,401.699z M311.736,256.398l7.709,54.148l-47.986-29.438    L311.736,256.398z M226.716,80.667c0-16.147,13.137-29.284,29.284-29.284c16.146,0,29.283,13.137,29.283,29.284v9.363h-58.567    V80.667z M199.916,114.943v-3.32c0-2.991,2.434-5.425,5.425-5.425h13.29h74.736h13.292c2.991,0,5.425,2.434,5.425,5.425v3.32    c0,2.991-2.434,5.425-5.425,5.425h-20.99c-4.466,0-8.084,3.618-8.084,8.084c0,4.466,3.618,8.084,8.084,8.084h9.001l2.148,15.091    H215.18l2.148-15.091h40.315c4.466,0,8.084-3.618,8.084-8.084c0-4.466-3.618-8.084-8.084-8.084h-52.303    C202.35,120.369,199.916,117.935,199.916,114.943z M200.263,256.398l40.278,24.71l-47.987,29.438L200.263,256.398z     M187.945,342.919l0.575-4.035l50.016,26.121l-58.052,30.317L187.945,342.919z M177.274,417.867h157.452l2.461,17.286H174.813    L177.274,417.867z M495.832,490.407c0,2.991-2.434,5.425-5.425,5.425H21.594c-2.991,0-5.425-2.434-5.425-5.425v-3.32    c0-2.991,2.434-5.425,5.425-5.425h108.848c0.013,0,0.026,0,0.039,0h177.825c4.466,0,8.084-3.62,8.084-8.084    c0-4.466-3.618-8.084-8.084-8.084H144.51l8.055-14.171h12.93h181.009h12.929l8.055,14.171h-31.877    c-4.466,0-8.084,3.619-8.084,8.084c0,4.465,3.618,8.084,8.084,8.084h45.765c0.004,0,0.01,0.001,0.014,0.001    c0.005,0,0.01-0.001,0.014-0.001h109.001c2.991,0,5.425,2.434,5.425,5.425V490.407z"/>
	</g>
</g>
<g>
</g>
<g>
</g>
<g>
</g>
<g>
</g>
<g>
</g>
<g>
</g>
<g>
</g>
<g>
</g>
<g>
</g>
<g>
</g>
<g>
</g>
<g>
</g>
<g>
</g>
<g>
</g>
<g>
</g>
</svg>
