<?xml version="1.0" encoding="iso-8859-1"?>
<!-- Generator: Adobe Illustrator 19.0.0, SVG Export Plug-In . SVG Version: 6.00 Build 0)  -->
<svg xmlns="http://www.w3.org/2000/svg" xmlns:xlink="http://www.w3.org/1999/xlink" version="1.1" id="Layer_1" x="0px" y="0px" viewBox="0 0 512 512" style="enable-background:new 0 0 512 512;" xml:space="preserve">
<g>
	<g>
		<g>
			<path d="M490.407,30.338H376.602c-4.466,0-8.084,3.618-8.084,8.084c0,4.466,3.618,8.084,8.084,8.084h113.804     c11.906,0,21.593-9.687,21.593-21.593v-3.32C512,9.687,502.313,0,490.407,0H21.593C9.687,0,0,9.687,0,21.594v3.32     C0,36.82,9.687,46.507,21.593,46.507h226.322v47.921c-9.409,3.337-16.167,12.324-16.167,22.862c0,1.254,0.096,2.486,0.28,3.689     l-156.954,84.22c-3.943-4.213-9.535-6.866-15.747-6.866h-3.32c-11.906,0-21.594,9.687-21.594,21.593v7.848H21.019     C0,227.774,0,255.764,0,264.962v205.539v20.48C0,502.571,9.429,512,21.019,512h469.962c11.59,0,21.019-9.429,21.019-21.019     v-20.48V264.963c0-9.198,0-37.187-21.019-37.187h-13.394v-7.848c0-11.906-9.687-21.594-21.594-21.594h-3.32     c-6.212,0-11.803,2.653-15.747,6.865L279.972,120.98c0.184-1.203,0.28-2.435,0.28-3.689c0-10.539-6.759-19.525-16.168-22.862     V46.507h82.337c4.466,0,8.084-3.618,8.084-8.084c0-4.466-3.618-8.084-8.084-8.084H21.593c-2.991,0-5.425-2.434-5.425-5.425v-3.32     c0-2.991,2.434-5.425,5.425-5.425h468.813c2.991,0,5.425,2.434,5.425,5.425v3.32C495.832,27.906,493.398,30.338,490.407,30.338z      M50.582,219.926c0-2.991,2.434-5.425,5.425-5.425h3.32c2.991,0,5.425,2.434,5.425,5.425v7.848h-14.17V219.926z M447.248,219.926     c0.001-2.991,2.434-5.425,5.426-5.425h3.32c2.991,0,5.425,2.434,5.425,5.425v7.848h-14.171V219.926z M439.163,243.944h30.34     h21.478c0.793,0,1.191,0,2.023,1.548c1.055,1.967,2.827,7.114,2.827,19.47v197.455h-39.343c-4.466,0-8.084,3.619-8.084,8.084     c0,4.466,3.618,8.084,8.084,8.084h39.343v12.396c0,2.675-2.176,4.851-4.851,4.851H21.019c-2.674,0-4.851-2.175-4.851-4.851     v-12.396h411.937c4.465,0,8.084-3.618,8.084-8.084c0-4.466-3.62-8.084-8.084-8.084H16.168V264.963     c0-12.357,1.772-17.503,2.827-19.47c0.831-1.549,1.23-1.549,2.023-1.549h21.479h30.338H439.163z M272.315,135.219l158.764,85.189     v7.367H80.921v-7.365l158.764-85.191c4.31,3.927,10.038,6.324,16.315,6.324C262.277,141.543,268.005,139.145,272.315,135.219z      M256,109.207c4.458,0,8.084,3.626,8.084,8.084s-3.626,8.084-8.084,8.084c-4.457,0-8.083-3.626-8.083-8.084     S251.543,109.207,256,109.207z"/>
			<path d="M57.667,256.539c-4.465,0-8.084,3.618-8.084,8.084V440.32c0,4.466,3.62,8.084,8.084,8.084     c4.465,0,8.084-3.618,8.084-8.084V264.623C65.752,260.157,62.132,256.539,57.667,256.539z"/>
			<path d="M107.251,448.404c4.465,0,8.084-3.618,8.084-8.084V264.623c0-4.466-3.62-8.084-8.084-8.084     c-4.465,0-8.084,3.618-8.084,8.084V440.32C99.166,444.786,102.786,448.404,107.251,448.404z"/>
			<path d="M156.834,448.404c4.465,0,8.084-3.618,8.084-8.084V264.623c0-4.466-3.62-8.084-8.084-8.084     c-4.465,0-8.084,3.618-8.084,8.084V440.32C148.749,444.786,152.369,448.404,156.834,448.404z"/>
			<path d="M206.417,448.404c4.465,0,8.084-3.618,8.084-8.084V264.623c0-4.466-3.62-8.084-8.084-8.084     c-4.465,0-8.084,3.618-8.084,8.084V440.32C198.333,444.786,201.952,448.404,206.417,448.404z"/>
			<path d="M256,448.404c4.466,0,8.084-3.618,8.084-8.084V264.623c0-4.466-3.619-8.084-8.084-8.084     c-4.465,0-8.084,3.618-8.084,8.084V440.32C247.916,444.786,251.535,448.404,256,448.404z"/>
			<path d="M305.583,448.404c4.466,0,8.084-3.618,8.084-8.084V264.623c0-4.466-3.618-8.084-8.084-8.084     c-4.466,0-8.084,3.618-8.084,8.084V440.32C297.499,444.786,301.117,448.404,305.583,448.404z"/>
			<path d="M355.166,448.404c4.466,0,8.084-3.618,8.084-8.084V264.623c0-4.466-3.619-8.084-8.084-8.084     c-4.466,0-8.084,3.618-8.084,8.084V440.32C347.082,444.786,350.701,448.404,355.166,448.404z"/>
			<path d="M404.749,448.404c4.466,0,8.084-3.618,8.084-8.084V264.623c0-4.466-3.618-8.084-8.084-8.084     c-4.466,0-8.084,3.618-8.084,8.084V440.32C396.665,444.786,400.284,448.404,404.749,448.404z"/>
			<path d="M454.333,448.404c4.466,0,8.084-3.618,8.084-8.084V264.623c0-4.466-3.618-8.084-8.084-8.084     c-4.466,0-8.084,3.618-8.084,8.084V440.32C446.248,444.786,449.867,448.404,454.333,448.404z"/>
		</g>
	</g>
</g>
<g>
</g>
<g>
</g>
<g>
</g>
<g>
</g>
<g>
</g>
<g>
</g>
<g>
</g>
<g>
</g>
<g>
</g>
<g>
</g>
<g>
</g>
<g>
</g>
<g>
</g>
<g>
</g>
<g>
</g>
</svg>
