<?xml version="1.0" encoding="iso-8859-1"?>
<!-- Generator: Adobe Illustrator 19.0.0, SVG Export Plug-In . SVG Version: 6.00 Build 0)  -->
<svg xmlns="http://www.w3.org/2000/svg" xmlns:xlink="http://www.w3.org/1999/xlink" version="1.1" id="Layer_1" x="0px" y="0px" viewBox="0 0 512 512" style="enable-background:new 0 0 512 512;" xml:space="preserve">
<g>
	<g>
		<g>
			<path d="M490.406,465.492h-5.968v-115.07c0-11.59-9.429-21.019-21.019-21.019h-82.566V157.48c0-4.466-3.618-8.084-8.084-8.084     s-8.084,3.618-8.084,8.084v171.924H320.98V127.16v-22.085h31.516c0.938,0,1.886,0.121,2.901,0.371     c0.031,0.008,0.063,0.01,0.093,0.017c5.274,1.34,9.193,6.115,9.193,11.8v12.727c0,4.466,3.618,8.084,8.084,8.084     s8.084-3.618,8.084-8.084v-12.727c0-10.985-6.283-20.525-15.441-25.231V78.359c0-13.84-11.26-25.099-25.1-25.099h-32.093V22.092     C308.218,9.91,298.309,0,286.128,0H132.77c-12.181,0-22.091,9.91-22.091,22.092v31.168H78.584     c-13.841,0-25.101,11.259-25.101,25.099v13.672c-9.157,4.707-15.44,14.245-15.44,25.231v212.141h-3.064     c-11.589,0-21.019,9.429-21.019,21.019v116.491c-8.145,3.094-13.959,10.958-13.959,20.174v3.32     C0.002,502.313,9.689,512,21.595,512h371.024c4.466,0,8.084-3.618,8.084-8.084s-3.618-8.084-8.084-8.084H21.595     c-2.991,0-5.425-2.434-5.425-5.425v-3.32c0-2.991,2.434-5.425,5.425-5.425h0.45h454.308h14.052c2.991,0,5.425,2.434,5.425,5.425     v3.32c0,2.991-2.434,5.425-5.425,5.425h-70.48c-4.466,0-8.084,3.618-8.084,8.084s3.618,8.084,8.084,8.084h70.48     c11.906,0,21.593-9.687,21.593-21.593v-3.32C511.999,475.18,502.312,465.492,490.406,465.492z M340.312,69.429     c4.925,0,8.931,4.006,8.931,8.93v10.547H320.98v-1.451c0-4.466-3.619-8.084-8.084-8.084s-8.084,3.618-8.084,8.084v1.451H280.96     v-1.451c0-4.466-3.618-8.084-8.084-8.084c-4.466,0-8.084,3.618-8.084,8.084v1.451h-13.768V78.359c0-4.924,4.008-8.93,8.932-8.93     H340.312z M304.812,105.68v21.48v202.243H280.96V127.16v-21.48H304.812z M264.793,105.075v22.084v202.245h-29.209V117.263     c0-5.693,3.929-10.474,9.214-11.806c0.02-0.004,0.041-0.006,0.061-0.011c1.022-0.249,1.974-0.371,2.91-0.371H264.793z      M126.847,22.092c0-3.266,2.657-5.924,5.923-5.924h153.358c3.265,0,5.922,2.658,5.922,5.924v31.168h-32.093     c-13.841,0-25.101,11.259-25.101,25.099v13.672c-9.157,4.706-15.44,14.245-15.44,25.231v212.141h-19.935V117.263     c0-10.986-6.283-20.525-15.441-25.231V78.359c0-13.84-11.26-25.099-25.1-25.099h-32.094V22.092z M183.312,117.263v212.141     h-43.703V127.16v-22.085h31.519c0.936,0,1.887,0.121,2.909,0.371c0.022,0.005,0.043,0.006,0.065,0.012     C179.384,106.791,183.312,111.57,183.312,117.263z M69.652,78.359c0-4.924,4.008-8.93,8.932-8.93h80.356     c4.925,0,8.931,4.007,8.931,8.93v10.547h-28.262v-1.451c0-4.466-3.618-8.084-8.084-8.084s-8.084,3.618-8.084,8.084v1.451H99.589     v-1.451c0-4.466-3.618-8.084-8.084-8.084c-4.465,0-8.084,3.618-8.084,8.084v1.451H69.652V78.359z M123.441,105.68v21.48v202.243     H99.589V127.16v-21.48H123.441z M54.212,117.263c0-5.686,3.919-10.462,9.194-11.801c0.03-0.006,0.059-0.009,0.089-0.016     c1.015-0.249,1.965-0.371,2.902-0.371H83.42v22.084v202.245H54.212V117.263z M468.271,465.493H30.129v-0.001v-115.07     c0-2.674,2.176-4.851,4.851-4.851h10.154c0.327,0.04,0.658,0.068,0.995,0.068h45.377h40.02h59.872     c0.337,0,0.668-0.027,0.995-0.068h34.113c0.327,0.04,0.658,0.068,0.995,0.068h45.377h40.02h59.872     c0.337,0,0.668-0.027,0.995-0.068h89.656c2.674,0,4.851,2.176,4.851,4.851V465.493z"/>
			<path d="M359.191,364.974H55.882c-4.466,0-8.084,3.618-8.084,8.084s3.618,8.084,8.084,8.084h303.311     c4.466,0,8.084-3.618,8.084-8.084S363.657,364.974,359.191,364.974z"/>
			<path d="M359.191,397.31H55.882c-4.466,0-8.084,3.618-8.084,8.084c0,4.466,3.618,8.084,8.084,8.084h303.311     c4.466,0,8.084-3.618,8.084-8.084C367.277,400.929,363.657,397.31,359.191,397.31z"/>
			<path d="M359.191,429.647H55.882c-4.466,0-8.084,3.618-8.084,8.084s3.618,8.084,8.084,8.084h303.311     c4.466,0,8.084-3.618,8.084-8.084S363.657,429.647,359.191,429.647z"/>
			<path d="M442.485,364.974h-51.739c-4.466,0-8.084,3.618-8.084,8.084s3.618,8.084,8.084,8.084h51.739     c4.466,0,8.084-3.618,8.084-8.084S446.95,364.974,442.485,364.974z"/>
			<path d="M442.485,397.31h-51.739c-4.466,0-8.084,3.618-8.084,8.084c0,4.466,3.618,8.084,8.084,8.084h51.739     c4.466,0,8.084-3.618,8.084-8.084C450.569,400.929,446.95,397.31,442.485,397.31z"/>
			<path d="M442.485,429.647h-51.739c-4.466,0-8.084,3.618-8.084,8.084s3.618,8.084,8.084,8.084h51.739     c4.466,0,8.084-3.618,8.084-8.084S446.95,429.647,442.485,429.647z"/>
		</g>
	</g>
</g>
<g>
</g>
<g>
</g>
<g>
</g>
<g>
</g>
<g>
</g>
<g>
</g>
<g>
</g>
<g>
</g>
<g>
</g>
<g>
</g>
<g>
</g>
<g>
</g>
<g>
</g>
<g>
</g>
<g>
</g>
</svg>
