<?xml version="1.0" encoding="iso-8859-1"?>
<!-- Generator: Adobe Illustrator 19.0.0, SVG Export Plug-In . SVG Version: 6.00 Build 0)  -->
<svg xmlns="http://www.w3.org/2000/svg" xmlns:xlink="http://www.w3.org/1999/xlink" version="1.1" id="Layer_1" x="0px" y="0px" viewBox="0 0 512 512" style="enable-background:new 0 0 512 512;" xml:space="preserve">
<g>
	<g>
		<g>
			<path d="M512,152.013c0-25.342-9.379-49.624-26.407-68.371c-3.003-3.303-8.115-3.547-11.42-0.549     c-3.305,3.002-3.551,8.114-0.549,11.42c14.322,15.766,22.208,36.186,22.208,57.499c0,47.171-38.376,85.547-85.545,85.547H219.754     V66.468h95.498h51.736h43.299c15.805,0,31.241,4.342,44.64,12.556c3.804,2.335,8.783,1.141,11.116-2.667     c2.334-3.806,1.14-8.783-2.667-11.116C447.434,55.466,429.075,50.3,410.286,50.3h-35.215v-9.899     c0-11.589-9.429-21.019-21.019-21.019h-25.865c-11.59,0-21.019,9.429-21.019,21.019V50.3h-87.414v-9.899     c0-11.589-9.429-21.019-21.019-21.019h-75.001c-11.59,0-21.019,9.429-21.019,21.019V50.3h-1.001C45.628,50.3,0,95.928,0,152.013     c0,46.155,30.903,85.222,73.102,97.613v19.221c-10.741,0.925-19.204,9.95-19.204,20.927v4.469     c0,10.728,8.084,19.589,18.478,20.85v155.931c0,11.906,9.687,21.593,21.593,21.593h3.32c11.906,0,21.593-9.687,21.593-21.593     v-93.244c0-4.466-3.618-8.084-8.084-8.084c-4.466,0-8.084,3.618-8.084,8.084v93.243c0,2.991-2.434,5.425-5.425,5.425h-3.32     c-2.991,0-5.425-2.434-5.425-5.425V315.262h14.17v35.573c0,4.466,3.618,8.084,8.084,8.084c4.466,0,8.084-3.618,8.084-8.084     v-35.573h212.075c4.466,0,8.084-3.619,8.084-8.084s-3.618-8.084-8.084-8.084H110.799H80.461h-5.544     c-2.674,0-4.851-2.176-4.851-4.851v-4.469c0-2.674,2.176-4.851,4.851-4.851h6.269h29.613h100.87h219.145h6.268     c2.674,0,4.852,2.176,4.852,4.851v4.469c0,2.674-2.177,4.851-4.852,4.851h-6.994h-30.34h-41.726     c-4.466,0-8.084,3.619-8.084,8.084s3.618,8.084,8.084,8.084h33.642v155.762c0,11.906,9.687,21.593,21.593,21.593h3.32     c11.906,0,21.593-9.687,21.593-21.593V315.207c11.083-0.572,19.93-9.742,19.93-20.964v-4.469     c0-10.976-8.463-20.001-19.204-20.927v-19.221C481.097,237.236,512,198.169,512,152.013z M323.336,40.401     c0-2.674,2.176-4.851,4.851-4.851h25.866c2.674,0,4.851,2.176,4.851,4.851V50.3h-35.567V40.401z M102.715,268.755H89.27V253.73     h12.443h1.001V268.755z M102.715,237.562h-1.001c-47.169,0-85.545-38.377-85.545-85.548c0-47.17,38.376-85.545,85.545-85.545     h1.001V237.562z M203.585,268.755h-84.702V253.73h84.702V268.755z M203.585,237.56h-84.702v-23.08h84.702V237.56z      M203.585,198.312h-84.702V178.91h84.702V198.312z M203.585,162.742h-84.702v-18.324h84.702V162.742z M203.585,128.249h-84.702     v-22.636h84.702V128.249z M203.585,89.445h-84.702V66.468h84.702V89.445z M203.585,50.3h-84.702v-9.899     c0-2.674,2.176-4.851,4.851-4.851h75.001c2.674,0,4.851,2.176,4.851,4.851V50.3z M422.73,268.755H219.754V253.73h190.533h12.443     V268.755z M422.003,471.024L422.003,471.024c0,2.991-2.434,5.425-5.425,5.425h-3.32c-2.991,0-5.425-2.434-5.425-5.425V315.262     h14.17V471.024z"/>
			<path d="M256,105.613h59.252c4.466,0,8.084-3.618,8.084-8.084c0-4.466-3.618-8.084-8.084-8.084H256     c-4.466,0-8.084,3.618-8.084,8.084C247.916,101.995,251.534,105.613,256,105.613z"/>
			<path d="M366.988,116.756H256c-4.466,0-8.084,3.619-8.084,8.084c0,4.466,3.619,8.084,8.084,8.084h110.988     c4.466,0,8.084-3.619,8.084-8.084C375.072,120.375,371.452,116.756,366.988,116.756z"/>
			<path d="M366.988,144.068H256c-4.466,0-8.084,3.618-8.084,8.084c0,4.466,3.619,8.084,8.084,8.084h110.988     c4.466,0,8.084-3.619,8.084-8.084C375.072,147.687,371.452,144.068,366.988,144.068z"/>
		</g>
	</g>
</g>
<g>
</g>
<g>
</g>
<g>
</g>
<g>
</g>
<g>
</g>
<g>
</g>
<g>
</g>
<g>
</g>
<g>
</g>
<g>
</g>
<g>
</g>
<g>
</g>
<g>
</g>
<g>
</g>
<g>
</g>
</svg>
