<?xml version="1.0" encoding="iso-8859-1"?>
<!-- Generator: Adobe Illustrator 19.0.0, SVG Export Plug-In . SVG Version: 6.00 Build 0)  -->
<svg xmlns="http://www.w3.org/2000/svg" xmlns:xlink="http://www.w3.org/1999/xlink" version="1.1" id="Layer_1" x="0px" y="0px" viewBox="0 0 512 512" style="enable-background:new 0 0 512 512;" xml:space="preserve">
<g>
	<g>
		<g>
			<path d="M490.407,465.492H350.169l-14.921-26.249c-1.437-2.529-4.121-4.09-7.029-4.09h-45.811v-67.591h159.625     c20.653,0,37.455-16.802,37.455-37.456V138.24c0-4.466-3.618-8.084-8.084-8.084c-4.466,0-8.084,3.618-8.084,8.084v191.866     c0,11.738-9.549,21.287-21.286,21.287h-167.71h-36.647H60.265c-11.737,0-21.286-9.549-21.286-21.287V37.456     c0-11.738,9.549-21.287,21.286-21.287h381.769c11.737,0,21.286,9.549,21.286,21.287v72.759c0,4.466,3.619,8.084,8.084,8.084     c4.466,0,8.084-3.618,8.084-8.084V37.456C479.489,16.802,462.686,0,442.034,0H60.265C39.613,0,22.81,16.802,22.81,37.456v292.651     c0,20.654,16.802,37.456,37.455,37.456h169.328v67.591h-45.81c-2.907,0-5.592,1.561-7.029,4.089l-14.923,26.25H21.594     C9.687,465.492,0,475.18,0,487.087v3.32C0,502.313,9.687,512,21.594,512h387.613c4.466,0,8.084-3.618,8.084-8.084     c0-4.466-3.619-8.084-8.084-8.084H21.594c-2.991,0-5.425-2.434-5.425-5.425v-3.32c0-2.991,2.434-5.425,5.425-5.425h144.941     h178.931h144.941c2.991,0,5.425,2.434,5.425,5.425v3.32c0,2.991-2.434,5.425-5.425,5.425h-53.831     c-4.466,0-8.084,3.619-8.084,8.084c0,4.466,3.618,8.084,8.084,8.084h53.831c11.906,0,21.593-9.687,21.593-21.593v-3.32     C512,475.18,502.313,465.492,490.407,465.492z M245.761,367.562h20.479v67.591h-20.479V367.562z M180.43,465.492l8.056-14.17     h49.192h36.646h49.192l8.055,14.17H180.43z"/>
			<path d="M363.901,32.337h-75.167h-75.167h-75.166H63.231c-4.466,0-8.084,3.618-8.084,8.084v71.68v71.68v71.68v71.68     c0,4.466,3.618,8.084,8.084,8.084h75.167h75.166h75.167h75.167h75.167c4.466,0,8.084-3.619,8.084-8.084v-71.68v-71.68v-71.68     v-71.68c0-4.466-3.618-8.084-8.084-8.084H363.901z M130.314,319.057H71.316v-55.512h58.999V319.057z M130.314,247.377H71.316     v-55.512h58.999V247.377z M130.314,175.697H71.316v-55.512h58.999V175.697z M130.314,104.017H71.316V48.505h58.999V104.017z      M205.48,319.057h-58.997v-55.512h58.997V319.057z M205.48,247.377h-58.997v-55.512h58.997V247.377z M205.481,175.697h-58.997     v-55.512h58.997V175.697z M205.481,104.017h-58.997V48.505h58.997V104.017z M280.648,319.057H221.65v-55.512h58.999V319.057z      M280.648,247.377H221.65v-55.512h58.999V247.377z M280.648,175.697H221.65v-55.512h58.999V175.697z M280.648,104.017H221.65     V48.505h58.999V104.017z M296.818,48.505h58.999v55.512h-58.999V48.505z M355.815,319.057h-58.999v-55.512h58.999V319.057z      M355.815,247.377h-58.999v-55.512h58.999V247.377z M296.818,175.697v-55.512h58.999v55.512H296.818z M430.983,319.057h-58.999     v-55.512h58.999V319.057z M430.983,247.377h-58.999v-55.512h58.999V247.377z M430.983,175.697h-58.999v-55.512h58.999V175.697z      M430.983,104.017h-58.999V48.505h58.999V104.017z"/>
		</g>
	</g>
</g>
<g>
</g>
<g>
</g>
<g>
</g>
<g>
</g>
<g>
</g>
<g>
</g>
<g>
</g>
<g>
</g>
<g>
</g>
<g>
</g>
<g>
</g>
<g>
</g>
<g>
</g>
<g>
</g>
<g>
</g>
</svg>
