<?xml version="1.0" encoding="iso-8859-1"?>
<!-- Generator: Adobe Illustrator 19.0.0, SVG Export Plug-In . SVG Version: 6.00 Build 0)  -->
<svg xmlns="http://www.w3.org/2000/svg" xmlns:xlink="http://www.w3.org/1999/xlink" version="1.1" id="Layer_1" x="0px" y="0px" viewBox="0 0 512 512" style="enable-background:new 0 0 512 512;" xml:space="preserve">
<g>
	<g>
		<g>
			<path d="M493.238,254.259V21.021c0-11.589-9.429-21.019-21.019-21.019h-12.409c-11.59,0-21.019,9.429-21.019,21.019v233.238     c-10.532,1.13-18.762,10.066-18.762,20.893v91.152c0,10.826,8.231,19.763,18.762,20.893v103.784     c0,11.59,9.429,21.019,21.019,21.019h12.409c11.589,0,21.019-9.429,21.019-21.019V387.196C503.77,386.066,512,377.13,512,366.303     v-20.287v-51.299v-19.566C512,264.325,503.769,255.389,493.238,254.259z M454.96,21.021c0-2.674,2.176-4.851,4.851-4.851h12.409     c2.674,0,4.851,2.176,4.851,4.851v233.113h-22.11V21.021z M477.07,490.981c0,2.674-2.176,4.851-4.851,4.851h-12.409     c-2.674,0-4.851-2.176-4.851-4.851V387.323h22.11V490.981z M495.832,337.933H471.04v-35.131h24.792V337.933z M495.832,286.634     h-32.876c-4.466,0-8.084,3.618-8.084,8.084v51.299c0,4.466,3.618,8.084,8.084,8.084h32.876v12.203c0,2.674-2.176,4.85-4.851,4.85     h-5.827h-38.278h-5.827c-2.674,0-4.851-2.176-4.851-4.851v-91.152c0-2.674,2.176-4.851,4.851-4.851h5.827h38.278h5.827     c2.674,0,4.851,2.176,4.851,4.851V286.634z"/>
			<path d="M73.208,195.748V21.021c0-11.589-9.429-21.019-21.019-21.019H39.781c-11.589,0-21.019,9.429-21.019,21.019v174.727     C8.231,196.877,0,205.814,0,216.64v91.152c0,10.826,8.231,19.763,18.762,20.893v162.295c0,11.59,9.429,21.019,21.019,21.019     h12.409c11.589,0,21.019-9.429,21.019-21.019V328.686c10.532-1.131,18.762-10.066,18.762-20.893v-19.927v-51.299v-19.926     C91.97,205.814,83.739,196.877,73.208,195.748z M34.93,21.021c0-2.674,2.176-4.851,4.851-4.851h12.409     c2.674,0,4.851,2.176,4.851,4.851v174.601H34.93V21.021z M57.04,490.981c0,2.674-2.176,4.851-4.851,4.851H39.781     c-2.674,0-4.851-2.176-4.851-4.851V328.812h22.11V490.981z M75.802,279.781H51.01V244.65h24.792V279.781z M75.802,228.483H42.926     c-4.466,0-8.084,3.618-8.084,8.084v51.299c0,4.466,3.618,8.084,8.084,8.084h32.876v11.843c0,2.674-2.175,4.851-4.851,4.851     h-5.827H26.846h-5.827c-2.674,0-4.851-2.176-4.851-4.851v-91.152c0-2.674,2.176-4.85,4.851-4.85h5.827h38.278h5.827     c2.674,0,4.851,2.176,4.851,4.85V228.483z"/>
			<path d="M353.228,110.236V21.021c0-11.589-9.429-21.019-21.019-21.019H319.8c-11.589,0-21.019,9.429-21.019,21.019v89.216     c-10.532,1.131-18.762,10.066-18.762,20.893v91.152c0,10.826,8.231,19.763,18.762,20.893v247.806     c0,11.59,9.429,21.019,21.019,21.019h12.409c11.589,0,21.019-9.429,21.019-21.019V370.053c0-4.466-3.618-8.084-8.084-8.084     s-8.084,3.618-8.084,8.084v120.927c0,2.674-2.176,4.851-4.851,4.851H319.8c-2.674,0-4.85-2.176-4.85-4.851v-247.68h22.11v98.727     c0,4.466,3.618,8.084,8.084,8.084s8.084-3.618,8.084-8.084v-98.852c10.531-1.131,18.762-10.066,18.762-20.893v-19.927v-51.3     V131.13C371.99,120.303,363.76,111.367,353.228,110.236z M314.95,21.021c0-2.674,2.176-4.851,4.85-4.851h12.409     c2.674,0,4.851,2.176,4.851,4.851v89.09h-22.11V21.021z M355.821,194.27H331.03v-35.13h24.791V194.27z M355.821,142.972h-32.876     c-4.466,0-8.084,3.618-8.084,8.084v51.299c0,4.466,3.618,8.084,8.084,8.084h32.876v11.843c0,2.674-2.175,4.851-4.85,4.851h-5.827     h-38.278h-5.827c-2.674,0-4.851-2.176-4.851-4.851V131.13c0-2.674,2.176-4.851,4.851-4.851h5.827h38.278h5.827     c2.674,0,4.85,2.176,4.85,4.851V142.972z"/>
			<path d="M213.219,254.259V136.57c0-4.466-3.618-8.084-8.084-8.084s-8.084,3.618-8.084,8.084v117.562h-22.11V21.021     c0-2.674,2.176-4.851,4.851-4.851H192.2c2.674,0,4.85,2.176,4.85,4.851v86.459c0,4.466,3.618,8.084,8.084,8.084     s8.084-3.618,8.084-8.084V21.021c0-11.589-9.429-21.019-21.019-21.019h-12.409c-11.589,0-21.019,9.429-21.019,21.019v233.238     c-10.532,1.13-18.762,10.066-18.762,20.893v91.152c0,10.826,8.231,19.763,18.762,20.893v103.784     c0,11.59,9.429,21.019,21.019,21.019H192.2c11.589,0,21.019-9.429,21.019-21.019V387.196     c10.532-1.13,18.762-10.066,18.762-20.893v-20.287v-51.299v-19.566C231.98,264.325,223.75,255.389,213.219,254.259z      M197.05,490.981c0,2.674-2.176,4.851-4.85,4.851h-12.409c-2.674,0-4.851-2.176-4.851-4.851V387.323h22.11V490.981z      M215.812,366.304c0,2.674-2.176,4.85-4.85,4.85h-5.827h-38.278h-5.827c-2.674,0-4.851-2.176-4.851-4.851v-91.152     c0-2.674,2.176-4.851,4.851-4.851h5.827h38.278h5.827c2.674,0,4.85,2.176,4.85,4.851v11.482h-32.876     c-4.466,0-8.084,3.618-8.084,8.084v51.299c0,4.466,3.618,8.084,8.084,8.084h32.876V366.304z M215.812,337.933H191.02v-35.131     h24.792V337.933z"/>
		</g>
	</g>
</g>
<g>
</g>
<g>
</g>
<g>
</g>
<g>
</g>
<g>
</g>
<g>
</g>
<g>
</g>
<g>
</g>
<g>
</g>
<g>
</g>
<g>
</g>
<g>
</g>
<g>
</g>
<g>
</g>
<g>
</g>
</svg>
