<?xml version="1.0" encoding="iso-8859-1"?>
<!-- Generator: Adobe Illustrator 19.0.0, SVG Export Plug-In . SVG Version: 6.00 Build 0)  -->
<svg xmlns="http://www.w3.org/2000/svg" xmlns:xlink="http://www.w3.org/1999/xlink" version="1.1" id="Layer_1" x="0px" y="0px" viewBox="0 0 511.999 511.999" style="enable-background:new 0 0 511.999 511.999;" xml:space="preserve">
<g>
	<g>
		<path d="M490.407,465.492h-78.098l-4.418-55.523h22.587v8.738c0,4.466,3.618,8.084,8.084,8.084c4.466,0,8.084-3.618,8.084-8.084    v-16.823v-30.338v-15.169c0-4.466-3.618-8.084-8.084-8.084c-4.466,0-8.084,3.619-8.084,8.084v7.085h-26.289l-5.56-69.865h21.07    v8.738c0,4.466,3.619,8.084,8.084,8.084s8.084-3.618,8.084-8.084v-16.824v-30.338v-15.169c0-4.466-3.618-8.084-8.084-8.084    s-8.084,3.618-8.084,8.084v7.085h-24.771l-5.561-69.865h19.554v8.738c0,4.466,3.618,8.084,8.084,8.084    c4.466,0,8.084-3.618,8.084-8.084v-16.823v-30.338v-15.169c0-4.466-3.618-8.084-8.084-8.084c-4.466,0-8.084,3.618-8.084,8.084    v7.085h-23.256l-5.494-69.04h17.971v8.738c0,4.466,3.618,8.084,8.084,8.084c4.466,0,8.084-3.618,8.084-8.084V53.593V23.254V8.084    c0-4.466-3.618-8.084-8.084-8.084c-4.466,0-8.084,3.618-8.084,8.084v7.085h-56.842c-4.465,0-8.084,3.618-8.084,8.084    s3.62,8.084,8.084,8.084h56.842v14.171h-26.724h-30.435H170.337h-30.434h-26.724v-14.17h198.574c4.466,0,8.084-3.618,8.084-8.084    s-3.618-8.084-8.084-8.084H113.179V8.084c0-4.466-3.62-8.084-8.084-8.084c-4.465,0-8.084,3.62-8.084,8.084v15.158    c0,0.003,0,0.006,0,0.011v30.339c0,0.003,0,0.006,0,0.011v16.813c0,4.466,3.62,8.084,8.084,8.084c4.465,0,8.084-3.618,8.084-8.084    v-8.74h17.971l-5.495,69.04H102.4v-7.085c0-4.466-3.62-8.084-8.084-8.084c-4.465,0-8.084,3.618-8.084,8.084v15.158    c0,0.003,0,0.006,0,0.011v30.338c0,0.003,0,0.006,0,0.011v16.813c0,4.466,3.62,8.084,8.084,8.084c4.465,0,8.084-3.618,8.084-8.084    v-8.738h19.553l-5.561,69.865H91.621v-7.085c0-4.466-3.62-8.084-8.084-8.084c-4.465,0-8.084,3.618-8.084,8.084v15.158    c0,0.003,0,0.006,0,0.011v30.338c0,0.003,0,0.006,0,0.011v16.813c0,4.466,3.62,8.084,8.084,8.084c4.465,0,8.084-3.618,8.084-8.084    v-8.738h21.071l-5.561,69.865H80.842v-7.085c0-4.466-3.62-8.084-8.084-8.084c-4.465,0-8.084,3.619-8.084,8.084v15.158    c0,0.003,0,0.006,0,0.011v30.338c0,0.003,0,0.006,0,0.011v16.813c0,4.466,3.62,8.084,8.084,8.084c4.465,0,8.084-3.618,8.084-8.084    v-8.738h22.587l-4.419,55.523H21.593C9.687,465.492,0,475.179,0,487.086v3.32c0,11.906,9.687,21.593,21.593,21.593h355.008    c4.466,0,8.084-3.618,8.084-8.084c0-4.466-3.618-8.084-8.084-8.084H21.593c-2.991,0-5.425-2.434-5.425-5.425v-3.32    c0-2.991,2.434-5.425,5.425-5.425h84.883h30.434h237.497h30.433h85.564c2.991,0,5.425,2.434,5.425,5.425v3.32    c0,2.991-2.434,5.425-5.425,5.425h-81.2c-4.465,0-8.084,3.618-8.084,8.084c0,4.466,3.62,8.084,8.084,8.084h81.2    c11.906,0,21.593-9.687,21.593-21.593v-3.32C512,475.179,502.313,465.492,490.407,465.492z M363.949,61.677l5.497,69.04H355.23    l-5.496-69.04H363.949z M338.59,125.427l-60.864-29.23l56.382-27.077L338.59,125.427z M312.257,130.717H205.845l53.206-25.551    L312.257,130.717z M312.257,61.677L259.051,87.23l-53.206-25.553H312.257z M177.461,65.982l62.916,30.215l-67.916,32.616    L177.461,65.982z M147.369,61.677h14.215l-5.495,69.04h-14.216L147.369,61.677z M102.4,161.055v-14.17h30.721h30.435h6.757    c0.01,0,0.02,0.002,0.03,0.002c0.013,0,0.026-0.002,0.038-0.002h177.339c0.013,0,0.026,0.002,0.038,0.002    c0.01,0,0.021-0.002,0.03-0.002h30.408h30.722v14.17h-28.308H356.73c-0.026,0-0.053,0-0.079,0h-6.473H161.142h-0.013    c-0.019,0-0.038,0-0.057,0h-30.365H102.4z M378.708,247.09h-14.216l-5.56-69.865h14.215L378.708,247.09z M237.845,209.797    l-74.288,30.897l4.761-59.814L237.845,209.797z M201.629,177.225h114.533l-57.266,23.817L201.629,177.225z M258.896,218.552    l68.614,28.537H190.281L258.896,218.552z M279.947,209.798l63.264-26.312l4.331,54.425L279.947,209.798z M152.388,177.224    l-5.561,69.865h-14.215l5.561-69.865H152.388z M91.621,277.428v-14.17h32.238h30.435h202.732h30.435h32.238v14.17h-29.823h-23.427    c-0.014,0-0.029,0-0.043,0h-6.965H151.879h-0.117c-0.014,0-0.029,0-0.043,0h-30.274H91.621z M387.97,363.462h-14.215    l-5.561-69.865h14.215L387.97,363.462z M237.375,328.53l-83.475,33.494l5.166-64.917L237.375,328.53z M193.736,293.596h130.697    l-65.348,26.222L193.736,293.596z M259.084,337.24l65.348,26.222H193.736L259.084,337.24z M280.794,328.53l71.671-28.759    l4.73,59.416L280.794,328.53z M143.126,293.596l-5.561,69.865H123.35l5.561-69.865H143.126z M129.445,465.492H115.23l4.419-55.523    h14.215L129.445,465.492z M145.664,465.492l4.419-55.523h211.154v0l4.418,55.523H145.664z M381.875,465.492l-4.419-55.523h14.215    l4.419,55.523H381.875z M399.137,393.8h-30.433H142.617h-30.434H80.842v-14.17h33.755h30.434h6.821    c0.01,0,0.019,0.002,0.029,0.002c0.015,0,0.031-0.002,0.046-0.002h214.313c0.015,0,0.031,0.002,0.046,0.002    c0.01,0,0.019-0.002,0.029-0.002h30.406h33.755v14.17H399.137z"/>
	</g>
</g>
<g>
</g>
<g>
</g>
<g>
</g>
<g>
</g>
<g>
</g>
<g>
</g>
<g>
</g>
<g>
</g>
<g>
</g>
<g>
</g>
<g>
</g>
<g>
</g>
<g>
</g>
<g>
</g>
<g>
</g>
</svg>
