<?xml version="1.0" encoding="iso-8859-1"?>
<!-- Generator: Adobe Illustrator 19.0.0, SVG Export Plug-In . SVG Version: 6.00 Build 0)  -->
<svg xmlns="http://www.w3.org/2000/svg" xmlns:xlink="http://www.w3.org/1999/xlink" version="1.1" id="Layer_1" x="0px" y="0px" viewBox="0 0 512 512" style="enable-background:new 0 0 512 512;" xml:space="preserve">
<g>
	<g>
		<g>
			<path d="M256.001,176.409c-12.929,0-23.448,10.518-23.448,23.448c0,12.929,10.518,23.446,23.448,23.446     c12.928,0,23.446-10.517,23.446-23.446C279.447,186.929,268.93,176.409,256.001,176.409z M256.001,207.118     c-4.004,0-7.261-3.257-7.261-7.259c0-4.005,3.258-7.261,7.261-7.261c4.003,0,7.259,3.258,7.259,7.261     C263.26,203.861,260.003,207.118,256.001,207.118z"/>
			<path d="M430.783,282.98c-1.492-5.568-5.062-10.223-10.055-13.106L384.4,248.899c-3.87-2.233-8.822-0.91-11.056,2.962     c-2.235,3.871-0.909,8.821,2.962,11.056l36.328,20.975c1.247,0.721,2.14,1.884,2.513,3.276c0.373,1.392,0.181,2.846-0.541,4.095     c-0.72,1.247-1.883,2.14-3.274,2.513c-1.395,0.372-2.846,0.181-4.094-0.538l-111.066-64.125c0.136-0.187,0.259-0.382,0.392-0.57     c0.329-0.464,0.653-0.93,0.966-1.406c0.136-0.206,0.268-0.414,0.399-0.623c0.357-0.56,0.704-1.126,1.038-1.7     c0.09-0.154,0.179-0.309,0.267-0.463c0.368-0.646,0.721-1.302,1.061-1.967c0.052-0.101,0.104-0.201,0.154-0.302     c0.372-0.741,0.727-1.492,1.063-2.255c0.011-0.025,0.024-0.047,0.035-0.072l51.304,29.62c3.873,2.233,8.822,0.91,11.056-2.962     c2.235-3.871,0.909-8.821-2.962-11.056l-55.369-31.967c0.083-1.169,0.139-2.345,0.139-3.534     c0-19.683-11.499-36.731-28.131-44.781V21.583C277.583,9.682,267.901,0,256.001,0c-11.901,0-21.583,9.682-21.583,21.583v133.495     c-16.634,8.049-28.133,25.097-28.133,44.782c0,1.189,0.057,2.365,0.139,3.534L91.273,269.876     c-4.992,2.881-8.564,7.536-10.055,13.104c-1.492,5.568-0.727,11.385,2.155,16.379c3.845,6.657,11.011,10.792,18.705,10.793h0.001     c3.772,0,7.498-1.001,10.777-2.894l115.041-66.42c5.884,4.048,12.68,6.859,20.01,8.065v62.684     c-7.899,3.209-13.489,10.955-13.489,19.994v103.484h-31.295c-2.91,0-5.599,1.563-7.037,4.094l-14.938,26.28h-3.209     c-11.92,0-21.618,9.698-21.618,21.618v3.324c0,11.92,9.698,21.618,21.618,21.618h156.124c11.92,0,21.618-9.698,21.618-21.618     v-3.324c0-11.92-9.698-21.618-21.618-21.618h-3.21l-14.941-26.281c-1.438-2.531-4.124-4.093-7.036-4.093h-31.293V331.582     c0-9.038-5.59-16.785-13.489-19.994v-62.684c7.331-1.205,14.125-4.018,20.009-8.065l115.042,66.42     c3.326,1.92,7.016,2.901,10.756,2.901c1.874,0,3.762-0.247,5.621-0.744c5.569-1.492,10.224-5.064,13.104-10.055     C431.509,294.366,432.275,288.549,430.783,282.98z M104.762,293.239c-0.832,0.48-1.736,0.725-2.684,0.725     c-1.93,0-3.725-1.036-4.688-2.701c-0.72-1.247-0.912-2.701-0.539-4.093c0.373-1.392,1.266-2.555,2.514-3.276l111.088-64.138     c0.353,0.803,0.726,1.594,1.12,2.374c0.03,0.059,0.062,0.119,0.092,0.179c0.36,0.709,0.737,1.407,1.13,2.097     c0.067,0.118,0.135,0.235,0.203,0.353c0.357,0.614,0.726,1.219,1.109,1.816c0.111,0.175,0.222,0.35,0.336,0.523     c0.337,0.513,0.685,1.016,1.04,1.515c0.118,0.165,0.224,0.338,0.344,0.501L104.762,293.239z M250.605,21.583     c0-2.975,2.42-5.396,5.396-5.396c2.975,0,5.396,2.42,5.396,5.396v128.852c-0.036-0.004-0.072-0.005-0.109-0.009     c-0.686-0.073-1.378-0.124-2.072-0.168c-0.189-0.012-0.376-0.033-0.564-0.043c-0.877-0.046-1.761-0.072-2.65-0.072     c-0.889,0-1.773,0.026-2.65,0.072c-0.188,0.01-0.374,0.031-0.562,0.043c-0.695,0.044-1.388,0.096-2.074,0.168     c-0.037,0.004-0.073,0.005-0.109,0.009V21.583z M269.49,451.254h34.678l8.065,14.186h-15.601c-4.471,0-8.093,3.623-8.093,8.093     c0,4.471,3.623,8.094,8.093,8.094h29.502c0.005,0,0.011,0.001,0.016,0.001c0.005,0,0.011-0.001,0.016-0.001h7.895     c2.995,0,5.431,2.437,5.431,5.431v3.324c0,2.995-2.437,5.431-5.431,5.431H177.939c-2.995,0-5.431-2.437-5.431-5.431v-3.324     c0-2.995,2.437-5.431,5.431-5.431h7.744c0.014,0,0.028,0,0.042,0h81.771c4.471,0,8.094-3.623,8.094-8.094     c0-4.471-3.623-8.093-8.094-8.093h-67.728l8.064-14.186h34.68H269.49z M250.605,435.066V331.582c0-2.975,2.42-5.396,5.396-5.396     c2.975,0,5.396,2.421,5.396,5.396v103.484H250.605z M288.914,206.22c-0.166,0.865-0.37,1.722-0.604,2.569     c-0.019,0.069-0.039,0.137-0.058,0.206c-0.735,2.589-1.785,5.083-3.117,7.42c-0.031,0.055-0.063,0.109-0.094,0.163     c-0.435,0.754-0.899,1.494-1.391,2.213c-0.03,0.044-0.064,0.087-0.094,0.132c-0.466,0.674-0.96,1.331-1.476,1.971     c-0.056,0.069-0.108,0.14-0.164,0.208c-0.491,0.599-1.011,1.176-1.543,1.742c-0.151,0.16-0.302,0.32-0.456,0.478     c-0.51,0.521-1.038,1.025-1.583,1.514c-5.934,5.311-13.761,8.549-22.333,8.549c-8.566,0-16.388-3.233-22.321-8.537     c-0.556-0.496-1.093-1.011-1.613-1.542c-0.141-0.145-0.279-0.291-0.418-0.438c-0.546-0.578-1.078-1.169-1.581-1.784     c-0.038-0.046-0.073-0.094-0.11-0.14c-0.543-0.67-1.061-1.36-1.55-2.069c-0.014-0.021-0.03-0.041-0.044-0.062     c-0.505-0.736-0.979-1.492-1.424-2.265c-0.021-0.035-0.04-0.07-0.06-0.105c-1.339-2.345-2.393-4.849-3.132-7.447     c-0.021-0.07-0.041-0.14-0.06-0.211c-0.233-0.842-0.435-1.692-0.6-2.55c-0.399-2.067-0.616-4.197-0.616-6.378     c0-14.735,9.56-27.272,22.8-31.758c2.587-0.873,5.262-1.426,7.962-1.648c0.009,0,0.017-0.001,0.026-0.002     c1.818-0.148,3.647-0.148,5.467-0.001c0.018,0.001,0.036,0.002,0.054,0.004c2.691,0.222,5.358,0.773,7.937,1.642     c13.245,4.483,22.811,17.022,22.811,31.762C289.527,202.033,289.311,204.158,288.914,206.22z"/>
		</g>
	</g>
</g>
<g>
</g>
<g>
</g>
<g>
</g>
<g>
</g>
<g>
</g>
<g>
</g>
<g>
</g>
<g>
</g>
<g>
</g>
<g>
</g>
<g>
</g>
<g>
</g>
<g>
</g>
<g>
</g>
<g>
</g>
</svg>
