<?xml version="1.0" encoding="iso-8859-1"?>
<!-- Generator: Adobe Illustrator 19.0.0, SVG Export Plug-In . SVG Version: 6.00 Build 0)  -->
<svg xmlns="http://www.w3.org/2000/svg" xmlns:xlink="http://www.w3.org/1999/xlink" version="1.1" id="Layer_1" x="0px" y="0px" viewBox="0 0 512 512" style="enable-background:new 0 0 512 512;" xml:space="preserve">
<g>
	<g>
		<path d="M512,395.579v-3.32c0-9.763-6.516-18.022-15.424-20.684v-37.457c0-11.262-8.642-20.534-19.641-21.557l-201.914-94.658    c7.861-6.175,12.926-15.759,12.926-26.509c0-15.798-10.928-29.092-25.622-32.723v-4.286c9.943-3.181,17.162-12.507,17.162-23.49    c0-10.766-6.937-19.936-16.575-23.291V90.942c8.848-2.699,15.307-10.934,15.307-20.655V21.595    c0-11.906-9.687-21.595-21.594-21.595h-3.32c-11.906,0-21.594,9.687-21.594,21.594v48.693c0,9.618,6.325,17.782,15.031,20.567    v16.75c-9.636,3.355-16.574,12.525-16.574,23.291c0,10.546,6.656,19.563,15.986,23.08v11.8c0,4.466,3.62,8.084,8.084,8.084    c9.67,0,17.537,7.866,17.537,17.535c0,9.67-7.868,17.537-17.537,17.537c-4.022,0-7.804-1.325-10.937-3.83    c-3.486-2.787-8.575-2.223-11.362,1.265c-2.789,3.486-2.223,8.574,1.264,11.362c0.521,0.416,1.056,0.81,1.599,1.192L35.065,312.56    c-11,1.023-19.641,10.295-19.641,21.557v37.457C6.516,374.237,0,382.497,0,392.259v3.32c0,9.047,5.6,16.801,13.509,20.009v51.49    C5.6,470.286,0,478.039,0,487.086v3.32c0,11.906,9.687,21.594,21.594,21.594H408.13c4.466,0,8.084-3.619,8.084-8.084    c0-4.466-3.618-8.084-8.084-8.084H21.594c-2.991,0-5.425-2.434-5.425-5.425v-3.32c0-2.991,2.434-5.425,5.425-5.425h27.494    c0.509,0.1,1.035,0.156,1.574,0.156H461.34c0.539,0,1.065-0.055,1.574-0.156h27.495c2.99,0,5.423,2.434,5.423,5.425v3.32    c0,2.991-2.433,5.425-5.423,5.425H436.01c-4.466,0-8.084,3.618-8.084,8.084c0,4.466,3.618,8.084,8.084,8.084h54.398    c11.905,0,21.591-9.687,21.591-21.594v-3.32c0-9.047-5.599-16.8-13.507-20.009v-51.491C506.401,412.379,512,404.626,512,395.579z     M247.881,21.595h0.001c0-2.991,2.434-5.425,5.425-5.425h3.32c2.991,0,5.425,2.434,5.425,5.425v48.693    c0,1.302-0.48,2.482-1.248,3.419c-1.479-1.625-3.604-2.653-5.976-2.653c-2.294,0-4.359,0.959-5.83,2.493    c-0.691-0.911-1.117-2.032-1.117-3.26V21.595z M254.829,139.387c-4.681,0-8.49-3.808-8.49-8.491s3.808-8.491,8.49-8.491    c4.682,0,8.491,3.808,8.491,8.491S259.511,139.387,254.829,139.387z M469.424,337.568v-3.45c0-3.028,2.463-5.491,5.492-5.491    c3.029,0,5.493,2.463,5.493,5.491v36.547h-10.985V337.568z M255.998,226.843l201.493,94.46c-1.77,2.402-3.065,5.17-3.724,8.18    H58.233c-0.66-3.011-1.954-5.779-3.726-8.18L255.998,226.843z M453.256,345.652v25.013H58.745v-25.013H453.256z M31.593,334.117    c0-3.023,2.459-5.484,5.483-5.49c0.005,0,0.01,0.001,0.015,0.001c0.003,0,0.006,0,0.01,0c3.021,0.009,5.477,2.467,5.477,5.489    v3.45v33.097H31.593V334.117z M42.577,432.552v32.942H29.678v-48.321h12.899V432.552z M453.256,465.493H58.745v-24.857h394.51    V465.493z M453.256,424.468H58.745v-7.295h394.51V424.468z M482.324,465.491h-12.9v-32.941v-15.379h12.9V465.491z     M495.831,395.579c0,2.991-2.433,5.425-5.423,5.425H461.34H50.661H21.594c-2.991,0-5.425-2.434-5.425-5.425v-3.32    c0-2.991,2.434-5.425,5.425-5.425h1.914h27.153H461.34h27.152h1.915c2.99,0,5.423,2.434,5.423,5.425V395.579z"/>
	</g>
</g>
<g>
</g>
<g>
</g>
<g>
</g>
<g>
</g>
<g>
</g>
<g>
</g>
<g>
</g>
<g>
</g>
<g>
</g>
<g>
</g>
<g>
</g>
<g>
</g>
<g>
</g>
<g>
</g>
<g>
</g>
</svg>
