<?xml version="1.0" encoding="iso-8859-1"?>
<!-- Generator: Adobe Illustrator 19.0.0, SVG Export Plug-In . SVG Version: 6.00 Build 0)  -->
<svg xmlns="http://www.w3.org/2000/svg" xmlns:xlink="http://www.w3.org/1999/xlink" version="1.1" id="Layer_1" x="0px" y="0px" viewBox="0 0 512 512" style="enable-background:new 0 0 512 512;" xml:space="preserve">
<g>
	<g>
		<g>
			<path d="M119.987,300.805c-15.585,0-28.265,12.68-28.265,28.265c0,15.585,12.68,28.265,28.265,28.265     c15.585,0,28.265-12.68,28.265-28.265C148.252,313.485,135.572,300.805,119.987,300.805z M119.987,341.098     c-6.632,0-12.028-5.396-12.028-12.028s5.396-12.028,12.028-12.028c6.632,0,12.028,5.396,12.028,12.028     S126.619,341.098,119.987,341.098z"/>
			<path d="M239.694,116.581H222.91c-3.497-11.64-14.307-20.147-27.071-20.147c-15.585,0-28.265,12.68-28.265,28.265     s12.68,28.265,28.265,28.265c12.764,0,23.574-8.507,27.071-20.147h16.784c4.485,0,8.118-3.634,8.118-8.118     S244.178,116.581,239.694,116.581z M195.838,136.728c-6.632,0-12.028-5.396-12.028-12.028c0-6.632,5.396-12.028,12.028-12.028     s12.028,5.396,12.028,12.028C207.866,131.332,202.47,136.728,195.838,136.728z"/>
			<path d="M181.906,321.309H286.38c4.485,0,8.118-3.634,8.118-8.118s-3.634-8.118-8.118-8.118H181.906     c-4.485,0-8.118,3.634-8.118,8.118S177.421,321.309,181.906,321.309z"/>
			<path d="M294.498,344.948c0-4.485-3.634-8.118-8.118-8.118H181.906c-4.485,0-8.118,3.634-8.118,8.118s3.634,8.118,8.118,8.118     H286.38C290.864,353.067,294.498,349.433,294.498,344.948z"/>
			<path d="M290.135,124.575c-0.034-25.474-10.224-48.611-26.726-65.578c-0.264-0.375-0.555-0.735-0.891-1.071     c-0.338-0.338-0.7-0.631-1.078-0.896c-16.702-16.197-39.359-26.281-64.33-26.613c-0.416-0.065-0.838-0.108-1.272-0.108     s-0.856,0.043-1.272,0.109c-24.974,0.332-47.633,10.419-64.337,26.62c-0.375,0.264-0.736,0.556-1.072,0.892     c-0.333,0.332-0.622,0.692-0.885,1.063c-16.506,16.967-26.698,40.106-26.731,65.584c0,0.011-0.001,0.021-0.001,0.031     c0,0.006,0.001,0.012,0.001,0.018c0,0.025-0.001,0.05-0.001,0.075c0,51.996,42.302,94.298,94.298,94.298     s94.298-42.302,94.298-94.298c0-0.025-0.001-0.05-0.001-0.075c0-0.006,0.001-0.012,0.001-0.018     C290.136,124.596,290.135,124.586,290.135,124.575z M195.838,202.761c-40.334,0-73.62-30.748-77.651-70.036h9.981     c4.485,0,8.118-3.634,8.118-8.118s-3.634-8.118-8.118-8.118h-9.957c1.621-15.431,7.759-29.533,17.06-40.966l6.976,6.975     c1.585,1.585,3.663,2.377,5.74,2.377s4.156-0.792,5.741-2.378c3.17-3.17,3.17-8.311-0.001-11.48l-6.965-6.963     c11.438-9.273,25.534-15.39,40.956-16.991v9.876c0,4.485,3.634,8.118,8.118,8.118s8.118-3.634,8.118-8.118v-9.875     c15.422,1.601,29.516,7.717,40.955,16.99l-6.964,6.965c-3.171,3.172-3.171,8.311,0,11.482c1.586,1.585,3.664,2.377,5.741,2.377     s4.156-0.792,5.741-2.377l6.975-6.975c9.302,11.434,15.44,25.535,17.06,40.965h-9.956c-4.485,0-8.118,3.634-8.118,8.118     s3.634,8.118,8.118,8.118h9.98C269.458,172.013,236.172,202.761,195.838,202.761z"/>
			<path d="M215.863,163.158h-40.051c-4.485,0-8.118,3.634-8.118,8.118s3.634,8.118,8.118,8.118h40.051     c4.485,0,8.118-3.634,8.118-8.118S220.348,163.158,215.863,163.158z"/>
			<path d="M467.739,180.095h-19.665v-49.069c0-4.485-3.634-8.118-8.118-8.118s-8.118,3.634-8.118,8.118v49.069h-19.664     c-4.485,0-8.118,3.634-8.118,8.118v26.87c0,4.485,3.634,8.118,8.118,8.118h2.577v47.814c0,10.263,7.366,18.829,17.086,20.713     v199.164c0,2.686-2.185,4.871-4.871,4.871H185.582c-2.686,0-4.871-2.185-4.871-4.871v-63.549     c10.125-1.547,17.915-10.29,17.915-20.839V394.6h8.497v11.904c0,10.566,7.812,19.317,17.959,20.847v14.332     c0,11.638,9.469,21.108,21.108,21.108h128.306c11.639,0,21.108-9.469,21.108-21.108V168.82     c9.719-1.885,17.085-10.451,17.085-20.713v-47.814h2.58c4.485,0,8.118-3.634,8.118-8.118v-26.87c0-4.485-3.634-8.118-8.118-8.118     h-19.665V8.118c0-4.485-3.634-8.118-8.118-8.118s-8.118,3.634-8.118,8.118v49.069h-19.664c-4.485,0-8.118,3.634-8.118,8.118     v26.87c0,4.485,3.634,8.118,8.118,8.118h2.577v47.814c0,10.263,7.366,18.829,17.087,20.713v272.861     c0,2.686-2.185,4.871-4.871,4.871H246.189c-2.686,0-4.871-2.185-4.871-4.871v-14.388c9.964-1.684,17.586-10.354,17.586-20.79     V394.6h61.253c11.639,0,21.108-9.469,21.108-21.108v-94.001c8.408-3.843,14.269-12.327,14.269-22.159     c0-9.832-5.86-18.316-14.269-22.159V86.823c0-4.485-3.634-8.118-8.118-8.118s-8.118,3.634-8.118,8.118v146.153H66.648V21.108     c0-2.686,2.185-4.871,4.871-4.871h248.636c2.686,0,4.871,2.185,4.871,4.871v40.093c0,4.485,3.634,8.118,8.118,8.118     s8.118-3.634,8.118-8.118V21.108C341.263,9.469,331.794,0,320.155,0H71.519C59.881,0,50.411,9.469,50.411,21.108v214.065     c-8.409,3.843-14.269,12.327-14.269,22.159s5.86,18.316,14.269,22.159v94.001c0,11.639,9.469,21.108,21.108,21.108h75.325v11.904     c0,10.451,7.644,19.13,17.63,20.796v63.593c0,11.639,9.469,21.108,21.108,21.108h241.385c11.639,0,21.108-9.469,21.108-21.108     V291.729c9.719-1.885,17.085-10.451,17.085-20.713v-47.814h2.58c4.485,0,8.118-3.634,8.118-8.118v-26.87     C475.857,183.729,472.224,180.095,467.739,180.095z M367.821,84.057V73.424h39.329v10.633h-2.579h-34.172H367.821z      M378.517,148.108v-47.814h17.935v47.814c0,2.686-2.185,4.871-4.871,4.871h-8.193     C380.702,152.979,378.517,150.793,378.517,148.108z M242.667,406.504c0,2.686-2.185,4.871-4.871,4.871h-9.566     c-2.686,0-4.871-2.185-4.871-4.871V394.6h19.308V406.504z M71.519,378.364c-2.686,0-4.871-2.186-4.871-4.871v-91.806h198.673     c4.485,0,8.118-3.634,8.118-8.118c0-4.485-3.634-8.118-8.118-8.118H60.499c-4.477,0-8.118-3.641-8.118-8.118     s3.641-8.118,8.118-8.118h270.678c4.477,0,8.118,3.641,8.118,8.118s-3.641,8.118-8.118,8.118h-38.794     c-4.485,0-8.118,3.634-8.118,8.118c0,4.485,3.634,8.118,8.118,8.118h32.644v91.806c0,2.686-2.185,4.871-4.871,4.871h-69.371     H215.24h-24.734h-35.544H71.519z M167.952,411.375c-2.686,0-4.871-2.185-4.871-4.871V394.6h19.308v11.904     c0,2.686-2.185,4.871-4.871,4.871H167.952z M448.924,271.016c0,2.686-2.185,4.871-4.871,4.871h-8.193     c-2.686,0-4.871-2.185-4.871-4.871v-47.814h17.935V271.016z M459.621,206.965h-2.579h-34.172h-2.577v-10.633h39.329V206.965z"/>
		</g>
	</g>
</g>
<g>
</g>
<g>
</g>
<g>
</g>
<g>
</g>
<g>
</g>
<g>
</g>
<g>
</g>
<g>
</g>
<g>
</g>
<g>
</g>
<g>
</g>
<g>
</g>
<g>
</g>
<g>
</g>
<g>
</g>
</svg>
