<?xml version="1.0" encoding="iso-8859-1"?>
<!-- Generator: Adobe Illustrator 19.0.0, SVG Export Plug-In . SVG Version: 6.00 Build 0)  -->
<svg xmlns="http://www.w3.org/2000/svg" xmlns:xlink="http://www.w3.org/1999/xlink" version="1.1" id="Layer_1" x="0px" y="0px" viewBox="0 0 512 512" style="enable-background:new 0 0 512 512;" xml:space="preserve">
<g>
	<g>
		<g>
			<path d="M490.407,465.493h-65.599l-14.921-26.25c-1.437-2.529-4.121-4.09-7.029-4.09h-7.539l-97.566-82.097     c0.111-1.241,0.178-2.493,0.178-3.762c0-1.061-0.053-2.109-0.13-3.151l103.1-86.753c4.33-3.642,7.195-8.621,8.217-14.082     c0.004-0.021,0.009-0.042,0.012-0.063c0.138-0.751,0.241-1.51,0.308-2.278c0.002-0.029,0.009-0.057,0.012-0.086     c0.003-0.034,0.001-0.068,0.003-0.101c0.052-0.646,0.087-1.295,0.087-1.949c0-0.073-0.005-0.146-0.005-0.219     c-0.001-0.138-0.009-0.274-0.012-0.412c-0.015-0.606-0.05-1.209-0.11-1.808c-0.025-0.257-0.059-0.51-0.093-0.764     c-0.058-0.439-0.128-0.874-0.21-1.307c-0.073-0.393-0.157-0.784-0.25-1.173c-0.089-0.371-0.185-0.74-0.292-1.106     c-0.096-0.332-0.195-0.662-0.306-0.99c-0.151-0.447-0.316-0.889-0.494-1.326c-0.133-0.329-0.275-0.652-0.423-0.974     c-0.158-0.347-0.327-0.688-0.502-1.027c-0.196-0.382-0.403-0.757-0.62-1.129c-0.18-0.307-0.368-0.609-0.56-0.908     c-0.245-0.378-0.5-0.751-0.766-1.118c-0.207-0.285-0.42-0.565-0.64-0.841c-0.142-0.179-0.267-0.369-0.415-0.545     c-0.193-0.229-0.406-0.432-0.607-0.653c-0.172-0.19-0.345-0.379-0.524-0.564c-0.801-0.831-1.644-1.608-2.541-2.309     l-102.367-86.137c0.076-1.023,0.126-2.053,0.126-3.096c0-1.288-0.068-2.561-0.182-3.821l97.571-82.101h11.276     c11.906,0,21.593-9.687,21.593-21.593v-3.32C428.188,9.687,418.501,0,406.595,0h-41.646c-4.466,0-8.084,3.619-8.084,8.084     s3.619,8.084,8.084,8.084h41.646c2.991,0,5.425,2.434,5.425,5.425v3.32c0,2.991-2.434,5.425-5.425,5.425h-14.224h-50.226H169.854     h-50.224h-14.225c-2.991,0-5.425-2.434-5.425-5.425v-3.32c0-2.991,2.434-5.425,5.425-5.425h232.601     c4.466,0,8.084-3.619,8.084-8.084S342.471,0,338.005,0H105.404C93.498,0,83.811,9.687,83.811,21.593v3.32     c0,11.906,9.687,21.593,21.594,21.593h11.277l97.57,82.103c-0.114,1.259-0.181,2.531-0.181,3.819     c0,1.042,0.052,2.072,0.126,3.095l-102.391,86.157c-0.203,0.158-0.396,0.334-0.595,0.5l-0.112,0.095     c-0.097,0.082-0.189,0.17-0.285,0.253c-0.497,0.432-0.98,0.884-1.447,1.362c-0.246,0.251-0.483,0.508-0.717,0.768     c-0.161,0.18-0.335,0.342-0.492,0.527c-0.135,0.16-0.244,0.331-0.373,0.493c-0.272,0.338-0.534,0.683-0.786,1.035     c-0.212,0.297-0.418,0.596-0.615,0.9c-0.255,0.393-0.5,0.793-0.732,1.201c-0.128,0.225-0.26,0.448-0.379,0.676     c-0.269,0.509-0.514,1.028-0.746,1.554c-0.087,0.198-0.177,0.397-0.259,0.597c-0.235,0.575-0.445,1.159-0.635,1.751     c-0.051,0.159-0.1,0.318-0.148,0.479c-0.192,0.641-0.359,1.29-0.497,1.947c-0.017,0.082-0.031,0.163-0.047,0.245     c-0.312,1.556-0.48,3.152-0.48,4.77c0,7.174,3.148,13.939,8.637,18.557L214.2,346.145c-0.078,1.041-0.13,2.089-0.13,3.15     c0,1.269,0.067,2.521,0.178,3.762l-97.566,82.097h-7.54c-2.907,0-5.592,1.561-7.029,4.09l-14.922,26.25H21.594     C9.687,465.493,0,475.18,0,487.087v3.32C0,502.313,9.687,512,21.594,512h468.813c11.906,0,21.593-9.687,21.593-21.593v-3.32     C512,475.18,502.313,465.493,490.407,465.493z M370.207,435.154h-25.114l-63.003-53.013c4.271-3.381,7.831-7.557,10.489-12.306     L370.207,435.154z M245.099,172.913c3.478,0.938,7.13,1.445,10.901,1.445c3.771,0,7.422-0.508,10.9-1.445l80.7,67.905     l-29.971,25.218c-0.124,0.105-0.235,0.217-0.35,0.327l-50.428,42.433c-3.462-0.928-7.098-1.431-10.849-1.431     c-3.751,0-7.387,0.502-10.849,1.431l-50.424-42.428c-0.117-0.112-0.231-0.226-0.357-0.332l-29.972-25.218L245.099,172.913z      M230.236,132.429c0-1.904,0.213-3.758,0.607-5.545c0.095-0.431,0.202-0.859,0.318-1.283c0.03-0.108,0.06-0.214,0.092-0.321     c0.124-0.427,0.257-0.849,0.403-1.268c0.015-0.045,0.03-0.091,0.045-0.136c2.137-6.023,6.526-11.131,12.166-14.167     c0.063-0.033,0.127-0.065,0.19-0.098c0.362-0.191,0.729-0.372,1.101-0.545c0.142-0.067,0.287-0.132,0.43-0.195     c0.326-0.144,0.655-0.281,0.987-0.413c2.92-1.152,6.097-1.793,9.422-1.793s6.502,0.64,9.422,1.793     c0.333,0.132,0.662,0.268,0.987,0.413c0.144,0.064,0.288,0.128,0.431,0.195c0.371,0.172,0.736,0.354,1.096,0.543     c0.065,0.033,0.13,0.066,0.195,0.1c5.644,3.037,10.033,8.15,12.168,14.178c0.011,0.031,0.022,0.063,0.032,0.094     c0.152,0.435,0.29,0.875,0.418,1.319c0.027,0.093,0.054,0.185,0.079,0.278c0.124,0.447,0.236,0.898,0.335,1.353     c0.387,1.772,0.596,3.61,0.596,5.496c0,1.687-0.168,3.334-0.479,4.931c-0.102,0.53-0.221,1.055-0.355,1.574     c-0.001,0.003-0.001,0.005-0.002,0.009c-0.116,0.45-0.25,0.891-0.389,1.33c-0.071,0.222-0.147,0.442-0.224,0.661     c-0.068,0.194-0.138,0.387-0.21,0.579c-0.114,0.303-0.231,0.605-0.357,0.901c-0.014,0.032-0.028,0.065-0.042,0.097     c-2.114,4.951-5.735,9.108-10.284,11.896c-0.064,0.045-0.133,0.086-0.201,0.127c-0.295,0.178-0.594,0.35-0.898,0.516     c-0.244,0.131-0.492,0.258-0.739,0.383c-0.248,0.125-0.497,0.247-0.749,0.364c-0.342,0.159-0.686,0.312-1.035,0.456     c-3.021,1.246-6.327,1.939-9.794,1.939c-3.47,0-6.779-0.693-9.802-1.942c-0.337-0.139-0.668-0.288-0.998-0.439     c-0.292-0.136-0.581-0.277-0.867-0.423c-0.217-0.11-0.433-0.219-0.646-0.334c-0.309-0.169-0.613-0.346-0.915-0.527     c-0.063-0.037-0.124-0.074-0.187-0.112c-4.545-2.783-8.165-6.935-10.282-11.879c-0.018-0.042-0.038-0.084-0.055-0.127     c-0.123-0.291-0.236-0.586-0.348-0.883c-0.076-0.201-0.148-0.401-0.219-0.604c-0.074-0.212-0.149-0.426-0.218-0.641     c-0.303-0.953-0.556-1.926-0.749-2.923C230.404,135.761,230.236,134.114,230.236,132.429z M230.721,344.323     c0.102-0.523,0.22-1.039,0.352-1.55c0.014-0.053,0.031-0.105,0.045-0.157c0.107-0.399,0.224-0.793,0.348-1.184     c0.072-0.224,0.149-0.446,0.226-0.667c0.067-0.192,0.137-0.383,0.208-0.572c0.114-0.301,0.23-0.602,0.354-0.897     c0.011-0.025,0.022-0.049,0.031-0.072c2.11-4.95,5.727-9.107,10.27-11.898c0.097-0.059,0.195-0.117,0.293-0.175     c0.271-0.162,0.542-0.32,0.819-0.471c0.392-0.213,0.788-0.42,1.192-0.613c0.075-0.037,0.153-0.068,0.229-0.104     c0.391-0.182,0.787-0.357,1.19-0.522c3.001-1.228,6.281-1.909,9.718-1.909c3.437,0,6.717,0.682,9.718,1.909     c0.403,0.164,0.799,0.338,1.19,0.522c0.076,0.036,0.153,0.067,0.229,0.104c0.404,0.194,0.801,0.401,1.192,0.613     c0.277,0.151,0.549,0.31,0.819,0.471c0.098,0.058,0.196,0.115,0.293,0.175c4.548,2.793,8.166,6.956,10.276,11.911     c0.008,0.018,0.016,0.036,0.024,0.054c0.126,0.3,0.244,0.604,0.359,0.909c0.069,0.184,0.137,0.369,0.203,0.555     c0.08,0.226,0.157,0.453,0.231,0.682c0.121,0.38,0.235,0.763,0.339,1.151c0.017,0.064,0.037,0.125,0.054,0.189     c0.131,0.508,0.248,1.022,0.35,1.541c0.317,1.61,0.487,3.274,0.487,4.976c0,1.921-0.218,3.791-0.619,5.592     c-0.084,0.378-0.176,0.753-0.276,1.125c-0.054,0.197-0.11,0.394-0.168,0.591c-0.07,0.238-0.146,0.474-0.222,0.709     c-0.086,0.264-0.172,0.528-0.267,0.789c-0.024,0.067-0.052,0.132-0.077,0.198c-2.28,6.091-6.804,11.092-12.56,14     c-0.199,0.102-0.401,0.205-0.607,0.302c-0.191,0.091-0.385,0.176-0.579,0.262c-0.301,0.133-0.605,0.26-0.912,0.382     c-2.935,1.165-6.13,1.813-9.476,1.813c-3.339,0-6.529-0.646-9.46-1.807c-0.329-0.13-0.655-0.266-0.978-0.411     c-0.142-0.064-0.286-0.127-0.427-0.193c-0.388-0.181-0.771-0.371-1.148-0.57c-0.046-0.025-0.094-0.047-0.141-0.072     c-5.631-3.036-10.007-8.139-12.144-14.151c-0.029-0.084-0.057-0.169-0.086-0.254c-0.129-0.376-0.248-0.756-0.359-1.138     c-0.039-0.135-0.079-0.269-0.115-0.405c-0.107-0.392-0.204-0.788-0.292-1.186c-0.398-1.797-0.614-3.661-0.614-5.575     C230.235,347.593,230.405,345.932,230.721,344.323z M245.741,389.95c3.284,0.829,6.721,1.274,10.259,1.274     s6.974-0.445,10.259-1.274l53.722,45.204H192.018L245.741,389.95z M385.978,232.749c1.51,0.13,2.916,0.675,4.104,1.554     l0.409,0.344c1.814,1.526,2.857,3.754,2.877,6.121c0,0.135-0.009,0.27-0.015,0.404c-0.005,0.131-0.01,0.263-0.022,0.393     c-0.018,0.193-0.046,0.384-0.078,0.573c-0.012,0.072-0.023,0.146-0.036,0.218c-0.041,0.209-0.091,0.416-0.147,0.621     c-0.014,0.05-0.027,0.099-0.042,0.149c-0.066,0.22-0.139,0.435-0.223,0.648c-0.01,0.026-0.021,0.052-0.031,0.077     c-0.488,1.203-1.263,2.278-2.285,3.138l-52.042,43.79c-0.124,0.103-0.235,0.217-0.35,0.327L292.824,329.2     c-2.6-4.779-6.108-8.999-10.338-12.431l82.892-69.751c0.109-0.092,0.205-0.193,0.307-0.289l14.394-12.112     C381.732,233.226,383.827,232.558,385.978,232.749z M372.99,219.921c-1.156,0.683-2.272,1.444-3.32,2.326l-9.515,8.005     l-77.634-65.326c4.226-3.437,7.731-7.661,10.325-12.443L372.99,219.921z M345.093,46.507h25.114l-77.652,65.341     c-2.664-4.746-6.228-8.92-10.501-12.294L345.093,46.507z M319.982,46.507L266.203,91.76c-3.267-0.82-6.684-1.261-10.203-1.261     s-6.936,0.441-10.206,1.262l-53.778-45.254H319.982z M141.793,46.507h25.113l63.039,53.046     c-4.273,3.376-7.837,7.549-10.501,12.296L141.793,46.507z M219.153,152.483c2.596,4.781,6.1,9.005,10.325,12.443l-77.634,65.326     l-9.515-8.005c-1.055-0.888-2.175-1.644-3.325-2.322L219.153,152.483z M173.899,291.102c-0.114-0.109-0.224-0.22-0.347-0.323     l-52.042-43.79c-1.02-0.858-1.794-1.931-2.281-3.13c-0.012-0.03-0.025-0.06-0.037-0.091c-0.082-0.208-0.154-0.421-0.219-0.637     c-0.016-0.053-0.03-0.106-0.045-0.16c-0.056-0.202-0.105-0.405-0.144-0.612c-0.014-0.074-0.025-0.15-0.038-0.225     c-0.031-0.188-0.058-0.376-0.077-0.567c-0.012-0.132-0.016-0.264-0.022-0.397c-0.006-0.135-0.015-0.268-0.015-0.402     c0.018-2.367,1.063-4.596,2.876-6.122l0.389-0.327c2.939-2.184,7.102-2.159,10.022,0.297l14.385,12.104     c0.106,0.099,0.205,0.204,0.317,0.297l82.893,69.751c-4.23,3.433-7.738,7.653-10.338,12.432L173.899,291.102z M219.419,369.834     c2.659,4.749,6.218,8.925,10.488,12.306l-63.002,53.013h-25.113L219.419,369.834z M495.832,490.407     c0,2.991-2.434,5.425-5.425,5.425H21.594c-2.991,0-5.425-2.434-5.425-5.425v-3.32c0-2.991,2.434-5.425,5.425-5.425h70.128     c0.013,0,0.026,0,0.039,0h237.81c4.466,0,8.084-3.62,8.084-8.084c0-4.466-3.618-8.084-8.084-8.084H105.789l8.055-14.171h5.785     h50.226h172.291h50.226h5.784l8.055,14.171h-48.617c-4.466,0-8.084,3.619-8.084,8.084c0,4.465,3.618,8.084,8.084,8.084h62.505     c0.004,0,0.01,0.001,0.014,0.001c0.005,0,0.01-0.001,0.015-0.001h70.28c2.991,0,5.425,2.434,5.425,5.425V490.407z"/>
			<circle cx="256" cy="349.292" r="10.057"/>
			<circle cx="256" cy="132.43" r="10.056"/>
		</g>
	</g>
</g>
<g>
</g>
<g>
</g>
<g>
</g>
<g>
</g>
<g>
</g>
<g>
</g>
<g>
</g>
<g>
</g>
<g>
</g>
<g>
</g>
<g>
</g>
<g>
</g>
<g>
</g>
<g>
</g>
<g>
</g>
</svg>
