<?xml version="1.0" encoding="iso-8859-1"?>
<!-- Generator: Adobe Illustrator 19.0.0, SVG Export Plug-In . SVG Version: 6.00 Build 0)  -->
<svg xmlns="http://www.w3.org/2000/svg" xmlns:xlink="http://www.w3.org/1999/xlink" version="1.1" id="Layer_1" x="0px" y="0px" viewBox="0 0 512.002 512.002" style="enable-background:new 0 0 512.002 512.002;" xml:space="preserve">
<g>
	<g>
		<path d="M299.294,361.057v-30.774c0-4.578-3.709-8.287-8.287-8.287s-8.287,3.709-8.287,8.287v23.136    c-0.459-0.154-0.923-0.286-1.383-0.432c-0.128-0.041-0.256-0.081-0.385-0.12c-3.945-1.222-7.966-2.152-12.057-2.777    c-0.03-0.004-0.06-0.008-0.089-0.012c-1.253-0.19-2.514-0.348-3.78-0.482c-0.28-0.03-0.56-0.056-0.841-0.084    c-0.035-0.003-0.072-0.008-0.107-0.011v-50.026c6.986-3.089,11.88-10.076,11.88-18.192v-48.355c0-8.117-4.894-15.103-11.88-18.192    v-52.238c0.035-0.003,0.071-0.008,0.106-0.011c0.282-0.027,0.564-0.054,0.844-0.084c1.265-0.134,2.526-0.292,3.779-0.482    c0.03-0.004,0.06-0.008,0.089-0.012c4.09-0.624,8.112-1.555,12.057-2.777c0.128-0.04,0.256-0.08,0.385-0.12    c0.461-0.145,0.925-0.278,1.383-0.432v143.122c0,4.578,3.709,8.287,8.287,8.287s8.287-3.709,8.287-8.287V150.944    c24.745-14.791,41.357-41.841,41.357-72.706c0-6.265-0.689-12.516-2.049-18.58c-1.001-4.465-5.437-7.279-9.899-6.274    c-4.466,1.001-7.275,5.433-6.274,9.899c1.093,4.876,1.647,9.909,1.647,14.955c0,26.594-15.336,49.659-37.621,60.858    c-0.699,0.351-1.403,0.688-2.11,1.013c-0.45,0.208-0.898,0.415-1.354,0.613c-0.691,0.301-1.388,0.578-2.085,0.854    c-0.482,0.19-0.959,0.392-1.446,0.571c-0.717,0.265-1.442,0.499-2.166,0.739c-1.052,0.347-2.116,0.67-3.19,0.967    c-0.452,0.125-0.902,0.257-1.356,0.372c-0.713,0.181-1.433,0.34-2.153,0.498c-0.485,0.106-0.971,0.212-1.458,0.308    c-0.689,0.136-1.383,0.259-2.081,0.372c-0.561,0.092-1.124,0.173-1.688,0.252c-0.635,0.088-1.271,0.174-1.911,0.243    c-0.712,0.077-1.428,0.135-2.145,0.19c-0.512,0.04-1.021,0.088-1.535,0.117c-1.254,0.067-2.513,0.11-3.779,0.11    c-1.266,0-2.526-0.043-3.779-0.11c-0.515-0.029-1.024-0.077-1.536-0.117c-0.716-0.055-1.432-0.113-2.143-0.19    c-0.641-0.07-1.276-0.156-1.911-0.243c-0.563-0.077-1.127-0.16-1.688-0.252c-0.697-0.115-1.391-0.238-2.081-0.372    c-0.488-0.096-0.973-0.202-1.46-0.308c-0.72-0.158-1.441-0.317-2.152-0.498c-0.454-0.115-0.905-0.249-1.357-0.373    c-1.075-0.297-2.139-0.62-3.193-0.968c-0.723-0.24-1.446-0.473-2.161-0.737c-0.488-0.18-0.966-0.381-1.449-0.572    c-0.697-0.276-1.393-0.552-2.083-0.853c-0.455-0.198-0.905-0.407-1.356-0.613c-0.707-0.325-1.41-0.662-2.109-1.013    c-22.285-11.198-37.621-34.264-37.621-60.858c0-22.517,11.112-43.268,29.149-55.848v66.77c0,2.961,1.58,5.696,4.143,7.176    l30.643,17.692c2.563,1.481,5.723,1.481,8.287,0l30.643-17.692c2.563-1.481,4.143-4.215,4.143-7.176V22.39    c6.969,4.859,12.996,11.003,17.771,18.168c2.539,3.81,7.684,4.84,11.491,2.3c3.809-2.539,4.838-7.684,2.3-11.491    c-9.025-13.541-21.653-24.146-36.521-30.669c-2.566-1.125-5.521-0.878-7.861,0.651c-2.342,1.531-3.754,4.14-3.754,6.938v76.087    l-22.357,12.908l-22.357-12.908V8.288c0-2.798-1.412-5.407-3.754-6.938c-2.341-1.529-5.297-1.775-7.861-0.651    c-30.786,13.508-50.679,43.943-50.679,77.539c0,30.866,16.611,57.915,41.357,72.706v210.114    c-24.746,14.791-41.357,41.841-41.357,72.706c0,33.596,19.893,64.032,50.679,77.539c2.564,1.125,5.52,0.877,7.861-0.651    c2.342-1.531,3.754-4.14,3.754-6.938v-76.087l22.357-12.908l22.357,12.908v76.087c0,2.798,1.412,5.407,3.754,6.938    c1.368,0.894,2.946,1.349,4.533,1.349c1.128,0,2.263-0.231,3.329-0.698c30.786-13.508,50.679-43.943,50.679-77.539    C340.651,402.898,324.039,375.85,299.294,361.057z M252.612,232.928c0-1.83,1.489-3.318,3.319-3.318h0.134    c1.83,0,3.319,1.488,3.319,3.318v48.355c0,1.83-1.489,3.318-3.319,3.318h-0.134c-1.83,0-3.319-1.488-3.319-3.318V232.928z     M229.275,158.581c0.459,0.154,0.923,0.286,1.383,0.432c0.128,0.041,0.256,0.081,0.385,0.12c3.945,1.222,7.966,2.152,12.057,2.777    c0.03,0.004,0.061,0.008,0.091,0.012c1.253,0.19,2.513,0.348,3.779,0.482c0.179,0.019,0.356,0.043,0.535,0.061v52.472    c-6.762,3.18-11.466,10.039-11.466,17.992v48.355c0,7.953,4.704,14.812,11.466,17.992v50.262    c-0.179,0.018-0.356,0.042-0.535,0.061c-1.266,0.134-2.526,0.292-3.779,0.482c-0.03,0.004-0.061,0.008-0.091,0.012    c-4.09,0.624-8.112,1.554-12.057,2.777c-0.128,0.04-0.256,0.08-0.385,0.12c-0.461,0.144-0.925,0.276-1.383,0.43V158.581z     M294.929,489.611v-66.77c0-2.961-1.58-5.696-4.143-7.176l-30.643-17.692c-1.282-0.74-2.713-1.11-4.143-1.11    c-1.431,0-2.862,0.37-4.143,1.11l-30.644,17.692c-2.563,1.481-4.143,4.215-4.143,7.176v66.77    c-18.036-12.579-29.149-33.331-29.149-55.848c0-26.593,15.336-49.659,37.62-60.858c0.701-0.351,1.404-0.689,2.113-1.015    c0.449-0.207,0.897-0.414,1.351-0.612c0.692-0.301,1.39-0.579,2.089-0.855c0.481-0.19,0.957-0.391,1.443-0.57    c0.727-0.268,1.462-0.506,2.197-0.749c1.041-0.344,2.093-0.662,3.156-0.956c0.453-0.126,0.905-0.259,1.36-0.375    c0.712-0.181,1.432-0.34,2.152-0.498c0.486-0.106,0.971-0.212,1.46-0.308c0.69-0.136,1.383-0.259,2.081-0.372    c0.561-0.092,1.124-0.173,1.688-0.252c0.635-0.087,1.271-0.173,1.911-0.243c0.712-0.077,1.428-0.135,2.143-0.19    c0.512-0.04,1.021-0.088,1.536-0.117c1.254-0.067,2.513-0.11,3.779-0.11c1.266,0,2.526,0.042,3.779,0.11    c0.515,0.029,1.023,0.077,1.535,0.117c0.716,0.055,1.432,0.113,2.145,0.19c0.641,0.07,1.276,0.156,1.911,0.243    c0.565,0.077,1.127,0.16,1.688,0.252c0.697,0.115,1.391,0.238,2.081,0.372c0.488,0.095,0.973,0.202,1.458,0.308    c0.72,0.158,1.441,0.317,2.154,0.498c0.455,0.116,0.906,0.249,1.359,0.373c1.062,0.294,2.113,0.611,3.153,0.955    c0.736,0.243,1.472,0.482,2.2,0.75c0.485,0.179,0.96,0.38,1.441,0.569c0.699,0.276,1.399,0.555,2.092,0.856    c0.453,0.197,0.9,0.404,1.349,0.611c0.708,0.326,1.414,0.664,2.115,1.015c22.284,11.199,37.619,34.264,37.619,60.857    C324.077,456.281,312.965,477.032,294.929,489.611z"/>
	</g>
</g>
<g>
</g>
<g>
</g>
<g>
</g>
<g>
</g>
<g>
</g>
<g>
</g>
<g>
</g>
<g>
</g>
<g>
</g>
<g>
</g>
<g>
</g>
<g>
</g>
<g>
</g>
<g>
</g>
<g>
</g>
</svg>
