<?xml version="1.0" encoding="iso-8859-1"?>
<!-- Generator: Adobe Illustrator 19.0.0, SVG Export Plug-In . SVG Version: 6.00 Build 0)  -->
<svg xmlns="http://www.w3.org/2000/svg" xmlns:xlink="http://www.w3.org/1999/xlink" version="1.1" id="Layer_1" x="0px" y="0px" viewBox="0 0 512 512" style="enable-background:new 0 0 512 512;" xml:space="preserve">
<g>
	<g>
		<g>
			<path d="M490.407,0H21.593C9.687,0,0,9.688,0,21.594v3.32c0,11.906,9.687,21.593,21.593,21.593h104.318l14.922,26.25     c1.437,2.529,4.121,4.09,7.028,4.09h84.884v81.441c-11.428,7.568-18.984,20.534-18.984,35.237v144.927     c-34.343,16.354-56.25,50.714-56.25,89.026c0,31.525,15.266,61.399,40.838,79.912c4.165,3.015,9.078,4.608,14.209,4.609     c0.001,0,0,0,0.002,0c7.761,0,15.11-3.751,19.655-10.033c3.8-5.247,5.327-11.66,4.303-18.057     c-1.024-6.396-4.478-12.011-9.726-15.811c-13.01-9.418-20.776-24.603-20.776-40.621c0-19.761,11.749-37.681,29.598-45.726     c6.048,3.347,12.996,5.259,20.384,5.259c7.442,0,14.436-1.942,20.514-5.335c17.956,8.006,29.776,25.958,29.776,45.802     c0,16.019-7.764,31.206-20.77,40.624c-10.831,7.845-13.26,23.038-5.414,33.871c4.55,6.277,11.898,10.026,19.655,10.026     c5.133,0,10.047-1.594,14.212-4.611c25.561-18.513,40.822-48.385,40.822-79.908c0-38.461-22.028-72.876-56.558-89.168v-48.29     c0-4.466-3.618-8.084-8.084-8.084s-8.084,3.619-8.084,8.084v22.256c-7.164-5.704-16.221-9.125-26.07-9.125     c-9.848,0-18.905,3.421-26.069,9.125V246.08h52.139v16.633c0,4.466,3.618,8.084,8.084,8.084s8.084-3.618,8.084-8.084v-24.717     v-30.338v-14.131c0-14.702-7.556-27.669-18.983-35.236V76.846h84.884c2.907,0,5.592-1.561,7.029-4.09l14.921-26.25h25.696     c4.466,0,8.084-3.619,8.084-8.084s-3.618-8.084-8.084-8.084h-30.235c-0.002,0-0.004,0-0.006,0H130.457c-0.002,0-0.004,0-0.006,0     H21.593c-2.991,0-5.425-2.434-5.425-5.425v-3.32c0-2.991,2.434-5.425,5.425-5.425h468.813c2.991,0,5.425,2.434,5.425,5.425v3.32     c0,2.991-2.434,5.425-5.425,5.425h-51.317c-4.466,0-8.084,3.618-8.084,8.084s3.618,8.084,8.084,8.084h51.317     c11.906,0,21.593-9.687,21.593-21.593v-3.32C512,9.688,502.313,0,490.407,0z M189.848,427.478     c0,21.187,10.267,41.268,27.464,53.718c3.611,2.614,4.422,7.678,1.807,11.29c-1.538,2.127-3.929,3.346-6.559,3.346     c-0.001,0-0.001,0-0.001,0c-1.704,0-3.339-0.531-4.729-1.538c-21.383-15.481-34.151-40.459-34.151-66.814     c0-29.948,16.013-57.023,41.574-71.597c0.722,2.646,1.693,5.189,2.892,7.602c0.005,0.01,0.011,0.019,0.015,0.029     c0.289,0.581,0.59,1.154,0.903,1.72c0.054,0.097,0.111,0.191,0.165,0.287c0.268,0.474,0.542,0.945,0.829,1.409     c0.122,0.197,0.251,0.39,0.376,0.586c0.227,0.355,0.455,0.709,0.692,1.056c0.202,0.295,0.413,0.583,0.622,0.874     c0.175,0.241,0.345,0.485,0.525,0.722c0.058,0.077,0.111,0.157,0.169,0.233C202.554,382.193,189.848,403.841,189.848,427.478z      M289.751,370.131c0.226-0.3,0.441-0.609,0.659-0.915c0.16-0.225,0.326-0.447,0.481-0.676c0.341-0.499,0.668-1.008,0.988-1.521     c0.025-0.041,0.053-0.08,0.078-0.121c2.117-3.429,3.755-7.182,4.827-11.166c25.725,14.532,41.842,41.666,41.842,71.746     c0,26.354-12.762,51.331-34.139,66.814c-1.387,1.006-3.022,1.537-4.727,1.537c-2.63,0-5.023-1.219-6.562-3.344     c-2.615-3.611-1.805-8.675,1.805-11.29c17.19-12.45,27.454-32.532,27.454-53.719c0-23.746-12.791-45.445-32.81-57.201     C289.684,370.229,289.716,370.178,289.751,370.131z M255.998,319.321c14.206,0,25.762,11.557,25.762,25.762     c0,13.76-10.846,25.035-24.437,25.726c-0.439,0.023-0.881,0.033-1.325,0.033c-0.444,0-0.886-0.012-1.325-0.033     c-13.591-0.692-24.437-11.967-24.437-25.726C230.237,330.877,241.794,319.321,255.998,319.321z M282.067,229.911h-51.83v-14.17     h51.83V229.911z M282.069,193.524v6.049h-0.001H229.93v-6.047c0-10.291,5.994-19.206,14.673-23.443     c0.231-0.112,0.464-0.216,0.695-0.321c0.377-0.17,0.759-0.332,1.145-0.485c0.205-0.081,0.407-0.166,0.613-0.241     c0.272-0.099,0.549-0.189,0.825-0.279c0.155-0.051,0.308-0.105,0.465-0.153c0.281-0.086,0.566-0.165,0.852-0.243     c0.155-0.042,0.309-0.084,0.465-0.124c0.282-0.071,0.568-0.136,0.854-0.197c0.167-0.036,0.335-0.07,0.502-0.102     c0.275-0.054,0.551-0.103,0.829-0.149c0.196-0.031,0.393-0.058,0.591-0.085c0.253-0.034,0.507-0.07,0.763-0.097     c0.257-0.027,0.514-0.046,0.772-0.066c0.203-0.015,0.405-0.036,0.61-0.046c0.47-0.025,0.942-0.04,1.417-0.04     c0.475,0,0.947,0.015,1.417,0.04c0.206,0.011,0.411,0.031,0.615,0.046c0.255,0.019,0.511,0.039,0.764,0.066     c0.259,0.028,0.515,0.064,0.772,0.098c0.193,0.026,0.386,0.053,0.579,0.083c0.282,0.045,0.563,0.096,0.842,0.151     c0.163,0.031,0.324,0.065,0.486,0.099c0.292,0.063,0.583,0.129,0.871,0.202c0.148,0.037,0.293,0.078,0.44,0.116     c0.293,0.079,0.586,0.16,0.876,0.249c0.139,0.043,0.278,0.092,0.417,0.137c0.292,0.096,0.585,0.191,0.873,0.296     c0.046,0.017,0.092,0.037,0.138,0.054c0.569,0.212,1.125,0.448,1.675,0.697c0.207,0.094,0.415,0.186,0.62,0.287     C276.071,174.309,282.069,183.228,282.069,193.524z M248.915,151.875V76.846h14.171v75.029h-0.002     c-0.184-0.031-0.37-0.053-0.554-0.082c-0.095-0.015-0.19-0.028-0.285-0.042c-0.557-0.083-1.117-0.154-1.678-0.215     c-0.156-0.017-0.314-0.033-0.47-0.049c-0.518-0.05-1.04-0.088-1.562-0.119c-0.169-0.011-0.337-0.024-0.508-0.031     c-0.674-0.031-1.35-0.052-2.029-0.052c-0.679,0-1.355,0.02-2.029,0.052c-0.17,0.008-0.34,0.022-0.51,0.031     c-0.521,0.03-1.04,0.069-1.557,0.119c-0.159,0.015-0.319,0.032-0.479,0.05c-0.557,0.059-1.111,0.13-1.663,0.212     c-0.1,0.015-0.2,0.029-0.301,0.044C249.28,151.822,249.097,151.844,248.915,151.875z M367.489,46.508l-8.055,14.17h-88.265     h-30.339h-88.264l-8.055-14.17H367.489z"/>
			<circle cx="255.999" cy="345.076" r="10.056"/>
		</g>
	</g>
</g>
<g>
</g>
<g>
</g>
<g>
</g>
<g>
</g>
<g>
</g>
<g>
</g>
<g>
</g>
<g>
</g>
<g>
</g>
<g>
</g>
<g>
</g>
<g>
</g>
<g>
</g>
<g>
</g>
<g>
</g>
</svg>
