<?xml version="1.0" encoding="iso-8859-1"?>
<!-- Generator: Adobe Illustrator 19.0.0, SVG Export Plug-In . SVG Version: 6.00 Build 0)  -->
<svg xmlns="http://www.w3.org/2000/svg" xmlns:xlink="http://www.w3.org/1999/xlink" version="1.1" id="Layer_1" x="0px" y="0px" viewBox="0 0 512 512" style="enable-background:new 0 0 512 512;" xml:space="preserve">
<g>
	<g>
		<g>
			<path d="M258.914,91.715c-12.914,0-23.421,10.506-23.421,23.42c0.001,12.915,10.507,23.422,23.421,23.422     c12.913,0,23.42-10.506,23.42-23.422C282.334,102.222,271.828,91.715,258.914,91.715z M258.914,122.39     c-3.999,0-7.252-3.254-7.252-7.253c0-3.999,3.253-7.252,7.252-7.252c3.999,0,7.252,3.253,7.252,7.252     C266.166,119.135,262.913,122.39,258.914,122.39z"/>
			<path d="M235.493,339.259c0,12.914,10.506,23.422,23.421,23.422c12.914,0,23.42-10.506,23.42-23.422     c0-12.914-10.506-23.42-23.42-23.42C246,315.838,235.493,326.344,235.493,339.259z M258.914,332.006     c3.999,0,7.252,3.253,7.252,7.252c0,3.999-3.253,7.253-7.252,7.253c-3.999,0-7.252-3.254-7.252-7.253     C251.661,335.259,254.915,332.006,258.914,332.006z"/>
			<path d="M503.916,107.05h-41.235V94.272c0-11.59-9.429-21.019-21.019-21.019h-26.947h-54.159     c-10.159,0-18.655,7.246-20.599,16.84h-38.19c-8.63-14.71-24.602-24.615-42.854-24.615c-27.381,0-49.658,22.277-49.658,49.658     c0,18.251,9.905,34.224,24.615,42.854v138.416c-7.351,4.313-13.497,10.459-17.81,17.81h-97.837V125.373     c0-4.466-3.619-8.084-8.084-8.084s-8.084,3.618-8.084,8.084v196.926v33.917v109.276H78.32c0.123-0.56,0.192-1.141,0.192-1.739     V48.247c0-0.597-0.069-1.178-0.192-1.739h23.735v51.924c0,4.466,3.618,8.084,8.084,8.084s8.084-3.618,8.084-8.084V46.288     c10.534-1.427,18.689-10.456,18.689-21.375v-3.32C136.912,9.687,127.224,0,115.317,0H21.593C9.687,0,0,9.687,0,21.593v3.32     C0,36.82,9.687,46.507,21.593,46.507h1.041v418.985h-1.041C9.687,465.493,0,475.18,0,487.087v3.32     C0,502.313,9.687,512,21.593,512h93.724c11.906,0,21.593-9.687,21.593-21.593v-3.32c0-10.919-8.154-19.948-18.689-21.375v-101.41     h97.836c8.63,14.71,24.603,24.615,42.854,24.615c27.381,0,49.658-22.276,49.658-49.656c0-18.251-9.905-34.224-24.615-42.854     v-81.338c0-4.466-3.618-8.084-8.084-8.084c-4.466,0-8.084,3.618-8.084,8.084v75.325c-0.282-0.051-0.569-0.088-0.853-0.135     c-0.269-0.044-0.539-0.088-0.81-0.127c-0.507-0.073-1.014-0.136-1.523-0.194c-0.301-0.035-0.602-0.071-0.903-0.1     c-0.485-0.046-0.972-0.079-1.459-0.111c-0.32-0.022-0.639-0.049-0.961-0.064c-0.576-0.027-1.152-0.037-1.728-0.044     c-0.213-0.003-0.424-0.016-0.637-0.016s-0.424,0.013-0.637,0.016c-0.577,0.008-1.153,0.017-1.729,0.044     c-0.322,0.015-0.64,0.042-0.96,0.064c-0.487,0.032-0.974,0.065-1.461,0.111c-0.303,0.029-0.603,0.066-0.903,0.1     c-0.51,0.058-1.018,0.121-1.524,0.194c-0.271,0.04-0.539,0.083-0.808,0.127c-0.285,0.046-0.57,0.083-0.854,0.135V164.002     c0.281,0.051,0.567,0.087,0.85,0.134c0.271,0.044,0.541,0.088,0.814,0.128c0.504,0.073,1.011,0.136,1.52,0.194     c0.302,0.034,0.603,0.072,0.905,0.101c0.485,0.046,0.972,0.08,1.459,0.111c0.32,0.022,0.639,0.048,0.96,0.064     c0.576,0.027,1.152,0.037,1.729,0.044c0.213,0.002,0.424,0.016,0.637,0.016c0.213,0,0.424-0.013,0.637-0.016     c0.577-0.008,1.152-0.017,1.728-0.044c0.322-0.015,0.64-0.042,0.961-0.064c0.487-0.032,0.974-0.065,1.459-0.111     c0.303-0.029,0.605-0.067,0.906-0.101c0.508-0.058,1.014-0.121,1.519-0.194c0.273-0.04,0.544-0.084,0.815-0.128     c0.282-0.046,0.568-0.083,0.849-0.134v23.791c0,4.466,3.618,8.084,8.084,8.084c4.466,0,8.084-3.618,8.084-8.084v-29.804     c7.351-4.313,13.497-10.459,17.81-17.81h38.189c1.943,9.594,10.44,16.841,20.6,16.841h54.159h26.947     c11.59,0,21.019-9.429,21.019-21.019V123.22h41.237c4.466,0,8.084-3.618,8.084-8.084C512,110.67,508.382,107.05,503.916,107.05z      M21.593,30.338c-2.991,0-5.425-2.433-5.425-5.425v-3.32c0-2.991,2.434-5.425,5.425-5.425h93.724     c2.991,0,5.425,2.434,5.425,5.425v3.32c0,2.991-2.434,5.425-5.425,5.425h-5.179H30.719H21.593z M62.536,465.491H38.803V46.507     h23.733c-0.123,0.561-0.192,1.142-0.192,1.739v415.507C62.344,464.349,62.413,464.93,62.536,465.491z M120.744,487.087v3.32     c0,2.991-2.434,5.425-5.425,5.425H21.593c-2.991,0-5.425-2.434-5.425-5.425v-3.32c0-2.991,2.434-5.425,5.425-5.425h9.125h79.42     h5.179C118.31,481.662,120.744,484.094,120.744,487.087z M209.317,341.679c0.011,0.236,0.032,0.47,0.047,0.706     c0.036,0.57,0.075,1.139,0.13,1.706c0.026,0.263,0.058,0.525,0.088,0.787c0.06,0.538,0.127,1.075,0.205,1.608     c0.039,0.264,0.082,0.527,0.125,0.79c0.045,0.285,0.083,0.572,0.134,0.857h-91.824v-17.749h91.825     c-0.05,0.276-0.086,0.554-0.131,0.831c-0.045,0.276-0.091,0.552-0.132,0.829c-0.077,0.527-0.142,1.055-0.202,1.584     c-0.03,0.266-0.064,0.532-0.089,0.801c-0.055,0.566-0.095,1.134-0.129,1.703c-0.015,0.236-0.036,0.47-0.047,0.706     c-0.039,0.804-0.061,1.61-0.061,2.42S209.279,340.875,209.317,341.679z M250.415,306.867c0.249-0.066,0.5-0.122,0.75-0.181     c0.305-0.072,0.609-0.149,0.918-0.212c0.229-0.047,0.459-0.085,0.688-0.128c0.331-0.061,0.66-0.126,0.994-0.178     c0.225-0.035,0.453-0.059,0.678-0.089c0.337-0.045,0.675-0.095,1.015-0.129c0.275-0.028,0.551-0.043,0.827-0.065     c0.295-0.023,0.59-0.053,0.887-0.068c0.577-0.029,1.157-0.045,1.738-0.045s1.161,0.015,1.738,0.045     c0.297,0.015,0.592,0.044,0.887,0.068c0.276,0.022,0.552,0.037,0.827,0.065c0.341,0.034,0.678,0.084,1.015,0.129     c0.226,0.03,0.453,0.054,0.678,0.089c0.334,0.052,0.663,0.116,0.994,0.178c0.23,0.043,0.46,0.08,0.688,0.128     c0.308,0.065,0.613,0.14,0.918,0.212c0.25,0.059,0.501,0.115,0.749,0.181c0.279,0.073,0.554,0.156,0.83,0.236     c0.275,0.08,0.55,0.157,0.822,0.245c0.253,0.081,0.503,0.169,0.753,0.255c0.29,0.1,0.58,0.201,0.868,0.309     c0.243,0.092,0.482,0.189,0.722,0.286c0.282,0.114,0.565,0.23,0.845,0.351c11.847,5.165,20.153,16.984,20.153,30.711     c0.004,18.463-15.018,33.487-33.485,33.487c-13.696,0-25.49-8.267-30.675-20.069c-0.152-0.347-0.296-0.696-0.437-1.047     c-0.073-0.182-0.147-0.364-0.217-0.549c-0.129-0.341-0.248-0.683-0.365-1.026c-0.07-0.205-0.143-0.41-0.209-0.617     c-0.1-0.313-0.191-0.628-0.281-0.944c-0.069-0.24-0.142-0.48-0.206-0.722c-0.073-0.279-0.137-0.56-0.203-0.842     c-0.066-0.278-0.135-0.555-0.193-0.835c-0.053-0.251-0.094-0.506-0.141-0.758c-0.057-0.309-0.117-0.618-0.166-0.929     c-0.038-0.244-0.065-0.489-0.096-0.733c-0.043-0.321-0.089-0.64-0.123-0.964c-0.03-0.292-0.046-0.585-0.069-0.878     c-0.022-0.279-0.05-0.556-0.064-0.836c-0.029-0.578-0.045-1.157-0.045-1.739c0-0.582,0.015-1.162,0.045-1.74     c0.015-0.285,0.043-0.565,0.065-0.847c0.023-0.289,0.038-0.579,0.068-0.867c0.033-0.329,0.082-0.654,0.125-0.981     c0.031-0.238,0.057-0.479,0.094-0.716c0.05-0.318,0.111-0.632,0.169-0.946c0.045-0.247,0.086-0.494,0.137-0.739     c0.059-0.287,0.13-0.569,0.197-0.853c0.065-0.275,0.127-0.551,0.199-0.823c0.066-0.248,0.139-0.493,0.21-0.738     c0.089-0.309,0.178-0.62,0.276-0.927c0.068-0.212,0.142-0.421,0.213-0.632c0.116-0.337,0.234-0.675,0.36-1.01     c0.071-0.189,0.148-0.375,0.222-0.562c0.138-0.346,0.28-0.691,0.43-1.033c3.39-7.722,9.608-13.926,17.34-17.297     c0.28-0.122,0.563-0.238,0.846-0.352c0.239-0.097,0.479-0.193,0.72-0.285c0.289-0.109,0.579-0.209,0.87-0.309     c0.25-0.086,0.499-0.175,0.752-0.254c0.273-0.087,0.549-0.165,0.823-0.246C249.864,307.023,250.137,306.94,250.415,306.867z      M292.356,116.874c-0.014,0.278-0.042,0.553-0.064,0.83c-0.023,0.295-0.039,0.592-0.069,0.885     c-0.032,0.319-0.079,0.633-0.121,0.949c-0.033,0.25-0.06,0.501-0.099,0.75c-0.047,0.306-0.108,0.608-0.164,0.912     c-0.047,0.259-0.091,0.518-0.144,0.775c-0.057,0.276-0.126,0.549-0.19,0.821c-0.068,0.286-0.131,0.572-0.207,0.856     c-0.063,0.239-0.135,0.474-0.203,0.711c-0.092,0.319-0.183,0.638-0.285,0.955c-0.066,0.205-0.137,0.406-0.207,0.609     c-0.119,0.345-0.238,0.69-0.368,1.032c-0.069,0.183-0.143,0.364-0.216,0.547c-0.14,0.35-0.285,0.701-0.437,1.048     c-3.382,7.703-9.581,13.895-17.288,17.27c-0.319,0.139-0.64,0.272-0.963,0.401c-0.208,0.083-0.415,0.167-0.625,0.247     c-0.315,0.119-0.631,0.229-0.947,0.337c-0.229,0.079-0.457,0.159-0.688,0.233c-0.289,0.093-0.581,0.176-0.872,0.26     c-0.262,0.075-0.523,0.155-0.788,0.224c-0.258,0.068-0.517,0.126-0.776,0.188c-0.299,0.071-0.595,0.144-0.896,0.207     c-0.233,0.049-0.469,0.087-0.703,0.13c-0.326,0.06-0.651,0.124-0.98,0.176c-0.23,0.036-0.461,0.06-0.691,0.091     c-0.334,0.044-0.667,0.093-1.004,0.128c-0.275,0.028-0.552,0.043-0.828,0.065c-0.295,0.023-0.59,0.053-0.887,0.068     c-0.577,0.029-1.157,0.045-1.738,0.045s-1.161-0.015-1.738-0.045c-0.296-0.015-0.59-0.044-0.884-0.068     c-0.277-0.022-0.555-0.037-0.831-0.065c-0.336-0.034-0.668-0.083-1.001-0.127c-0.231-0.031-0.464-0.056-0.694-0.092     c-0.329-0.051-0.652-0.114-0.978-0.175c-0.235-0.044-0.471-0.082-0.705-0.132c-0.301-0.063-0.596-0.136-0.895-0.207     c-0.26-0.061-0.521-0.12-0.778-0.188c-0.264-0.069-0.525-0.148-0.786-0.224c-0.292-0.084-0.584-0.168-0.874-0.261     c-0.231-0.073-0.458-0.154-0.686-0.233c-0.317-0.109-0.635-0.22-0.95-0.338c-0.209-0.079-0.416-0.163-0.623-0.246     c-0.322-0.129-0.645-0.262-0.965-0.402c-11.82-5.176-20.103-16.981-20.103-30.689c0.001-18.462,15.024-33.486,33.49-33.486     c13.696,0,25.491,8.267,30.675,20.071c0.152,0.346,0.295,0.695,0.435,1.044c0.073,0.182,0.147,0.364,0.217,0.549     c0.129,0.342,0.249,0.686,0.368,1.029c0.069,0.204,0.141,0.406,0.207,0.611c0.101,0.316,0.192,0.635,0.284,0.953     c0.068,0.237,0.14,0.473,0.203,0.713c0.074,0.284,0.139,0.57,0.206,0.855c0.065,0.274,0.133,0.547,0.19,0.822     c0.054,0.258,0.097,0.516,0.144,0.775c0.056,0.304,0.115,0.606,0.164,0.912c0.039,0.249,0.066,0.499,0.098,0.749     c0.042,0.316,0.088,0.631,0.121,0.95c0.03,0.293,0.046,0.589,0.069,0.884c0.022,0.277,0.049,0.552,0.064,0.831     c0.029,0.578,0.045,1.157,0.045,1.74S292.386,116.296,292.356,116.874z M339.537,124.011h-31.758     c0.05-0.274,0.085-0.551,0.13-0.826c0.045-0.279,0.092-0.557,0.133-0.838c0.077-0.524,0.141-1.05,0.202-1.578     c0.03-0.268,0.065-0.536,0.091-0.806c0.055-0.564,0.095-1.131,0.129-1.698c0.015-0.237,0.036-0.472,0.047-0.71     c0.039-0.804,0.061-1.61,0.061-2.42c0-0.809-0.023-1.616-0.061-2.42c-0.011-0.237-0.032-0.472-0.047-0.709     c-0.036-0.568-0.076-1.135-0.129-1.699c-0.026-0.269-0.059-0.537-0.089-0.805c-0.059-0.528-0.125-1.054-0.202-1.578     c-0.041-0.28-0.087-0.559-0.133-0.838c-0.045-0.275-0.081-0.552-0.13-0.826h31.757V124.011z M406.63,140.852h-46.075     c-2.674,0-4.851-2.176-4.851-4.851v-3.906V98.177v-3.905c0-2.674,2.176-4.851,4.851-4.851h46.075V140.852z M446.513,136.001     c0,2.674-2.176,4.851-4.851,4.851h-18.863V89.421h18.863c2.674,0,4.851,2.176,4.851,4.851V136.001z"/>
		</g>
	</g>
</g>
<g>
</g>
<g>
</g>
<g>
</g>
<g>
</g>
<g>
</g>
<g>
</g>
<g>
</g>
<g>
</g>
<g>
</g>
<g>
</g>
<g>
</g>
<g>
</g>
<g>
</g>
<g>
</g>
<g>
</g>
</svg>
