<?xml version="1.0" encoding="iso-8859-1"?>
<!-- Generator: Adobe Illustrator 19.0.0, SVG Export Plug-In . SVG Version: 6.00 Build 0)  -->
<svg xmlns="http://www.w3.org/2000/svg" xmlns:xlink="http://www.w3.org/1999/xlink" version="1.1" id="Layer_1" x="0px" y="0px" viewBox="0 0 512 512" style="enable-background:new 0 0 512 512;" xml:space="preserve">
<g>
	<g>
		<g>
			<path d="M57.995,390.866c-14.652,0-26.572,11.921-26.572,26.573s11.921,26.573,26.572,26.573     c14.652,0,26.573-11.921,26.573-26.573S72.647,390.866,57.995,390.866z M57.995,427.772c-5.698,0-10.333-4.636-10.333-10.334     s4.636-10.334,10.333-10.334c5.698,0,10.334,4.636,10.334,10.334S63.693,427.772,57.995,427.772z"/>
			<path d="M327.121,390.866c-14.652,0-26.573,11.921-26.573,26.573s11.921,26.573,26.573,26.573     c14.652,0,26.573-11.921,26.573-26.573S341.774,390.866,327.121,390.866z M327.121,427.772c-5.698,0-10.334-4.636-10.334-10.334     s4.636-10.334,10.334-10.334s10.334,4.636,10.334,10.334S332.819,427.772,327.121,427.772z"/>
			<path d="M503.88,409.319h-56.159v-13.275V295.412c0-4.485-3.634-8.12-8.12-8.12h-35.498v-12.446V157.449v-39.483     c0-4.485-3.635-8.12-8.12-8.12c-4.485,0-8.12,3.634-8.12,8.12v31.363H366.13V61.775c0-4.945,4.023-8.969,8.967-8.969h3.798     c4.945,0,8.969,4.024,8.969,8.969v30.208c0,4.485,3.634,8.12,8.12,8.12c4.484,0,8.12-3.634,8.12-8.12V61.775     c0-13.901-11.308-25.209-25.209-25.209h-3.798c-13.9,0-25.207,11.308-25.207,25.209v95.674v117.397v12.446h-29.389     c-1.654-12.309-12.221-21.835-24.977-21.835h-4.122L236.593,136.44h18.618c12.279,0,22.267-9.989,22.267-22.267v-3.476     c0-12.279-9.989-22.267-22.267-22.267H72.142c-12.278,0-22.267,9.989-22.267,22.267v3.476c0,9.643,6.172,17.849,14.764,20.939     L45.317,266.5c-10.419,3.095-18.043,12.754-18.043,24.164v77.617C10.911,378.546,0,396.738,0,417.439     c0,31.978,26.016,57.995,57.995,57.995c22.014,0,41.2-12.33,51.022-30.445H179.7h60.76h35.641     c9.82,18.115,29.007,30.445,51.021,30.445c31.978,0,57.994-26.016,57.994-57.995c0-4.569-0.548-9.008-1.55-13.275h12.42h35.498     v13.275c0,4.485,3.634,8.12,8.12,8.12h64.278c4.485,0,8.12-3.634,8.12-8.12S508.365,409.319,503.88,409.319z M320.733,303.531     h29.157v60.542h0c-7.118-3.052-14.808-4.629-22.768-4.629c-1.043,0-2.078,0.03-3.106,0.086c-0.281,0.015-0.562,0.045-0.843,0.064     c-0.752,0.051-1.504,0.106-2.249,0.185c-0.063,0.006-0.127,0.009-0.19,0.016V303.531z M80.857,136.44h25.217v129.017h-0.001     H61.886L80.857,136.44z M57.995,459.194c-23.024,0-41.755-18.73-41.755-41.755c0-16.351,9.451-30.528,23.172-37.377     c0.476-0.237,0.957-0.462,1.439-0.681c0.221-0.1,0.44-0.204,0.663-0.3c0.534-0.231,1.073-0.444,1.614-0.652     c0.258-0.099,0.513-0.198,0.773-0.291c0.588-0.212,1.179-0.412,1.774-0.598c0.386-0.119,0.778-0.224,1.169-0.332     c0.322-0.09,0.642-0.181,0.966-0.262c0.412-0.104,0.829-0.197,1.247-0.289c0.316-0.069,0.632-0.136,0.951-0.198     c0.409-0.08,0.822-0.154,1.235-0.221c0.351-0.057,0.703-0.107,1.055-0.155c0.383-0.052,0.765-0.105,1.152-0.147     c0.435-0.047,0.874-0.081,1.312-0.115c0.311-0.024,0.62-0.054,0.933-0.071c0.763-0.041,1.53-0.066,2.302-0.066     c23.024,0,41.755,18.731,41.755,41.755C99.751,440.463,81.019,459.194,57.995,459.194z M171.582,428.749h-56.691     c0.154-0.777,0.281-1.56,0.404-2.344c0.009-0.056,0.021-0.112,0.029-0.169c0.13-0.853,0.236-1.712,0.328-2.572     c0.012-0.114,0.03-0.226,0.041-0.341c0.081-0.81,0.139-1.624,0.186-2.44c0.01-0.168,0.028-0.332,0.037-0.5     c0.049-0.978,0.075-1.958,0.075-2.945c0-31.978-26.016-57.995-57.995-57.995c-1.124,0-2.239,0.04-3.346,0.104     c-0.414,0.023-0.824,0.062-1.235,0.094c-0.683,0.054-1.363,0.114-2.04,0.192c-0.5,0.056-0.999,0.121-1.497,0.191     c-0.583,0.082-1.163,0.176-1.741,0.276c-0.524,0.09-1.049,0.176-1.57,0.281c-0.616,0.123-1.224,0.268-1.834,0.411     c-0.405,0.095-0.815,0.169-1.218,0.273v-70.601c0-4.945,4.023-8.967,8.968-8.968c0.004,0,0.008,0.001,0.012,0.001     c0.006,0,0.013-0.001,0.021-0.001h53.558v29.855c0,1.802,0.599,3.551,1.703,4.976l20.403,26.315     c0.001,0.002,0.002,0.003,0.003,0.005l43.399,55.976V428.749z M165.885,305.987v23.767h-15.533V203.877     c0-3.324,2.704-6.028,6.028-6.028h3.476c3.324,0,6.028,2.704,6.028,6.028v102.109H165.885z M232.34,428.749H187.82v-24.585     h44.521V428.749z M232.34,387.924h-48.66l-32.511-41.932h22.836h58.336V387.924z M182.124,329.639v-15.533h50.215v15.533H182.124     z M232.34,273.576v24.291h-50.216v-93.989c0-12.279-9.989-22.267-22.267-22.267h-3.476c-12.278,0-22.267,9.989-22.267,22.267     v120.115l-11.801-15.219V273.6c0-0.008,0.001-0.015,0.001-0.023V136.44h50.717c4.484,0,8.12-3.634,8.12-8.12     c0-4.485-3.635-8.12-8.12-8.12h-58.837H73.845c-0.284,0-0.563,0.018-0.84,0.047c-0.284-0.03-0.57-0.047-0.863-0.047     c-3.324,0-6.028-2.704-6.028-6.028v-3.476c0-3.324,2.704-6.028,6.028-6.028H255.21c3.324,0,6.028,2.704,6.028,6.028v3.476     c0,3.324-2.704,6.028-6.028,6.028H224.32h-24.226c-4.484,0-8.12,3.634-8.12,8.12c0,4.485,3.635,8.12,8.12,8.12h18.854     l54.81,129.017H240.46C235.976,265.457,232.34,269.091,232.34,273.576z M269.201,420.384c0.009,0.168,0.026,0.332,0.037,0.5     c0.048,0.816,0.105,1.63,0.186,2.44c0.012,0.115,0.029,0.226,0.041,0.341c0.092,0.861,0.198,1.719,0.328,2.572     c0.009,0.056,0.021,0.113,0.029,0.169c0.122,0.784,0.251,1.567,0.404,2.343H248.58v-32.705v-58.171v-56.177h37.426     c0.01,0,0.018,0.002,0.028,0.002c0.014,0,0.028-0.002,0.041-0.002h9.449c4.945,0,8.969,4.023,8.969,8.968v4.747v68.612     c-19.551,8.22-32.908,26.285-35.055,47.404c-0.01,0.094-0.017,0.189-0.026,0.284c-0.076,0.785-0.136,1.575-0.181,2.368     c-0.012,0.214-0.026,0.428-0.036,0.643c-0.041,0.902-0.069,1.806-0.069,2.717C269.127,418.424,269.153,419.406,269.201,420.384z      M327.121,459.194c-20.848,0-38.175-15.359-41.264-35.357c-0.003-0.02-0.006-0.039-0.01-0.058     c-0.096-0.627-0.174-1.259-0.241-1.895c-0.008-0.07-0.018-0.141-0.025-0.211c-0.06-0.589-0.101-1.183-0.135-1.779     c-0.007-0.114-0.018-0.227-0.025-0.341c-0.035-0.7-0.054-1.405-0.054-2.114c0-0.668,0.019-1.332,0.051-1.993     c0.008-0.162,0.019-0.324,0.029-0.486c0.031-0.535,0.07-1.067,0.122-1.597c0.012-0.12,0.024-0.239,0.036-0.359     c1.698-16.005,12.473-29.34,27.067-34.74c0.064-0.024,0.128-0.048,0.192-0.071c0.516-0.188,1.038-0.362,1.563-0.531     c0.13-0.041,0.258-0.087,0.389-0.127c0.115-0.036,0.232-0.064,0.348-0.099c0.822-0.246,1.651-0.462,2.485-0.657     c0.178-0.041,0.354-0.084,0.532-0.123c0.909-0.199,1.824-0.374,2.746-0.512c0.078-0.012,0.158-0.018,0.236-0.03     c0.831-0.12,1.668-0.209,2.507-0.278c0.229-0.018,0.459-0.038,0.689-0.052c0.919-0.061,1.84-0.102,2.765-0.102     c0.672,0,1.341,0.019,2.006,0.051c0.165,0.008,0.328,0.021,0.492,0.03c0.526,0.031,1.051,0.069,1.572,0.12     c0.14,0.013,0.278,0.028,0.417,0.043c0.595,0.064,1.189,0.138,1.777,0.226c0.045,0.007,0.091,0.013,0.136,0.02     c6.185,0.955,11.927,3.273,16.907,6.635c0.031,0.021,0.062,0.043,0.093,0.064c0.485,0.329,0.961,0.67,1.431,1.019     c0.118,0.088,0.235,0.178,0.352,0.266c0.345,0.262,0.684,0.53,1.021,0.802c0.323,0.261,0.639,0.528,0.954,0.799     c0.251,0.215,0.505,0.429,0.751,0.651c0.348,0.313,0.684,0.635,1.02,0.959c0.228,0.22,0.461,0.437,0.684,0.663     c0.461,0.464,0.912,0.939,1.35,1.424c0.222,0.245,0.433,0.499,0.65,0.749c0.262,0.304,0.524,0.607,0.777,0.919     c0.236,0.29,0.464,0.586,0.693,0.881c0.212,0.276,0.422,0.553,0.628,0.834c0.241,0.329,0.478,0.661,0.71,0.997     c0.167,0.243,0.329,0.489,0.49,0.735c0.248,0.378,0.497,0.756,0.733,1.141c0.101,0.163,0.194,0.331,0.291,0.496     c3.692,6.225,5.819,13.482,5.819,21.229C368.877,440.464,350.145,459.194,327.121,459.194z M387.865,295.41v92.513h-10.822     c-0.581-0.979-1.201-1.936-1.839-2.88c-0.003-0.004-0.008-0.01-0.011-0.015c-1.55-2.291-3.265-4.472-5.127-6.526     c-0.025-0.027-0.049-0.054-0.074-0.081c-1.228-1.349-2.513-2.648-3.862-3.877V295.41v-12.446h21.735V295.41z M387.865,266.727     H366.13V165.569h21.735V266.727z M431.482,387.924h-27.378v-84.393h27.378V387.924z"/>
		</g>
	</g>
</g>
<g>
</g>
<g>
</g>
<g>
</g>
<g>
</g>
<g>
</g>
<g>
</g>
<g>
</g>
<g>
</g>
<g>
</g>
<g>
</g>
<g>
</g>
<g>
</g>
<g>
</g>
<g>
</g>
<g>
</g>
</svg>
