<?xml version="1.0" encoding="iso-8859-1"?>
<!-- Generator: Adobe Illustrator 19.0.0, SVG Export Plug-In . SVG Version: 6.00 Build 0)  -->
<svg xmlns="http://www.w3.org/2000/svg" xmlns:xlink="http://www.w3.org/1999/xlink" version="1.1" id="Layer_1" x="0px" y="0px" viewBox="0 0 512 512" style="enable-background:new 0 0 512 512;" xml:space="preserve">
<g>
	<g>
		<g>
			<path d="M489.723,352.172h-11.793v-56.35v-28.553c0-8.011-6.517-14.53-14.528-14.53H323.27v-18.24     c0-4.236-1.376-8.149-3.684-11.348c2.307-3.199,3.684-7.112,3.684-11.348v-63.107c0-4.482-3.632-8.113-8.113-8.113     s-8.113,3.632-8.113,8.113v63.107c0,1.783-1.452,3.235-3.236,3.235h-51.347v-18.572c0-4.482-3.632-8.113-8.113-8.113h-49.179     c-4.482,0-8.113,3.632-8.113,8.113v18.572h-51.345c-1.783,0-3.235-1.452-3.235-3.235V97.366c0-1.783,1.452-3.235,3.235-3.235     h51.345v53.358c0,3.11,1.778,5.947,4.577,7.302c2.797,1.354,6.127,0.992,8.567-0.937l19.561-15.459l19.557,15.459     c1.46,1.154,3.239,1.748,5.031,1.748c1.202,0,2.411-0.267,3.535-0.811c2.8-1.356,4.577-4.192,4.577-7.302V94.132h51.347     c1.784,0,3.236,1.452,3.236,3.235v23.207c0,4.482,3.632,8.113,8.113,8.113s8.113-3.632,8.113-8.113V97.366     c0-10.731-8.731-19.461-19.462-19.461h-59.461h-49.179h-59.458c-10.731,0-19.461,8.73-19.461,19.461v114.437     c0,4.236,1.376,8.149,3.684,11.348c-2.307,3.199-3.684,7.112-3.684,11.348v114.437c0,1.104,0.114,2.18,0.292,3.234H77.983V86.018     c0-2.592-1.239-5.027-3.332-6.556L12.895,34.42c-3.623-2.641-8.695-1.847-11.336,1.774c-2.64,3.621-1.847,8.695,1.774,11.336     l58.424,42.613v270.144v31.805c0,4.482,3.632,8.113,8.113,8.113h58.213c-7.359,8.38-11.836,19.351-11.836,31.354     c0,26.236,21.344,47.579,47.579,47.579c26.237,0,47.58-21.344,47.58-47.579c0-12.004-4.476-22.974-11.837-31.354h88.167     c4.482,0,8.113-3.632,8.113-8.113s-3.632-8.113-8.113-8.113H77.983V368.4h57.725h59.458h49.179h59.461h17.764h141.83h26.321     c3.335,0,6.049,2.714,6.049,6.049v3.481c0,3.335-2.714,6.048-6.049,6.048H317.591c-4.482,0-8.113,3.632-8.113,8.113     s3.632,8.113,8.113,8.113h60.696c-7.359,8.38-11.836,19.351-11.836,31.354c0,26.236,21.344,47.579,47.579,47.579     c26.237,0,47.58-21.344,47.58-47.579c0-12.004-4.476-22.974-11.836-31.354h39.948c12.283,0,22.276-9.993,22.276-22.275v-3.481     C512,362.165,502.006,352.172,489.723,352.172z M203.281,94.132h32.952v36.604l-11.443-9.045c-2.948-2.33-7.112-2.33-10.062,0     l-11.448,9.046V94.132z M163.827,400.205c17.288,0,31.354,14.065,31.354,31.354c0,17.288-14.065,31.352-31.354,31.352     s-31.352-14.064-31.352-31.352C132.475,414.27,146.539,400.205,163.827,400.205z M203.281,204.58h32.952v10.459h-32.952V204.58z      M203.281,231.266h32.952v36.603l-11.442-9.045c-2.948-2.328-7.113-2.33-10.063,0l-11.448,9.047V231.266z M236.234,352.172     h-32.952v-10.459h32.952V352.172z M307.042,267.27v28.553v53.116c0,1.783-1.452,3.235-3.236,3.235h-51.346v-0.001V333.6     c0-4.482-3.632-8.113-8.113-8.113h-49.179c-4.482,0-8.113,3.632-8.113,8.113v18.572h-51.345c-1.783,0-3.235-1.452-3.235-3.235     V234.5c0-1.783,1.452-3.235,3.235-3.235h51.345v53.359c0,3.11,1.778,5.947,4.577,7.302c1.123,0.544,2.332,0.811,3.535,0.811     c1.792,0,3.572-0.594,5.031-1.748l19.561-15.46l19.556,15.46c2.44,1.929,5.767,2.292,8.568,0.937     c2.8-1.355,4.577-4.192,4.577-7.302v-53.359h51.347c1.784,0,3.236,1.452,3.236,3.235V267.27z M323.27,268.967h138.432v18.741     H323.27V268.967z M461.704,352.172H323.27v-3.235v-45.003h138.434V352.172z M414.032,462.911     c-17.288,0-31.352-14.064-31.352-31.352c0-17.288,14.064-31.354,31.352-31.354s31.354,14.065,31.354,31.354     C445.385,448.847,431.32,462.911,414.032,462.911z"/>
			<path d="M365.441,335.003h48.589c4.482,0,8.113-3.632,8.113-8.113s-3.632-8.113-8.113-8.113h-48.589     c-4.482,0-8.113,3.632-8.113,8.113S360.959,335.003,365.441,335.003z"/>
			<path d="M414.03,408.838c-12.528,0-22.721,10.193-22.721,22.721s10.193,22.721,22.721,22.721     c12.528,0,22.721-10.193,22.721-22.721S426.559,408.838,414.03,408.838z M414.03,438.052c-3.581,0-6.494-2.913-6.494-6.494     c0-3.581,2.914-6.494,6.494-6.494c3.581,0,6.494,2.913,6.494,6.494C420.525,435.139,417.611,438.052,414.03,438.052z"/>
			<path d="M163.827,454.279c12.528,0,22.721-10.193,22.721-22.721s-10.193-22.721-22.721-22.721     c-12.527,0-22.72,10.193-22.72,22.721S151.3,454.279,163.827,454.279z M163.827,425.064c3.581,0,6.494,2.913,6.494,6.494     c0,3.581-2.913,6.494-6.494,6.494s-6.493-2.913-6.493-6.494C157.334,427.978,160.247,425.064,163.827,425.064z"/>
		</g>
	</g>
</g>
<g>
</g>
<g>
</g>
<g>
</g>
<g>
</g>
<g>
</g>
<g>
</g>
<g>
</g>
<g>
</g>
<g>
</g>
<g>
</g>
<g>
</g>
<g>
</g>
<g>
</g>
<g>
</g>
<g>
</g>
</svg>
