<?xml version="1.0" encoding="iso-8859-1"?>
<!-- Generator: Adobe Illustrator 19.0.0, SVG Export Plug-In . SVG Version: 6.00 Build 0)  -->
<svg xmlns="http://www.w3.org/2000/svg" xmlns:xlink="http://www.w3.org/1999/xlink" version="1.1" id="Layer_1" x="0px" y="0px" viewBox="0 0 511.999 511.999" style="enable-background:new 0 0 511.999 511.999;" xml:space="preserve">
<g>
	<g>
		<g>
			<path d="M478.076,166.995v-56.88V81.587c0-8.003-6.512-14.515-14.515-14.515H353.819V48.848c0-10.722-8.723-19.444-19.445-19.444     h-59.405h-49.134h-59.404c-10.722,0-19.444,8.722-19.444,19.444V85.13c-1.564-0.372-3.187-0.589-4.864-0.589H63.681     c-11.621,0-21.076,9.455-21.076,21.076v55.934c0,1.676,0.217,3.3,0.589,4.864h-2.449C18.279,166.413,0,184.69,0,207.156v0.5     c0,22.466,18.279,40.743,40.745,40.743h5.249l14.962,26.321c1.441,2.536,4.132,4.101,7.048,4.101h10.422v182.122     c0,11.939,9.713,21.652,21.652,21.652h3.329c11.939,0,21.652-9.713,21.652-21.652v-65.023H325.1c4.478,0,8.106-3.628,8.106-8.106     c0-4.478-3.628-8.106-8.106-8.106H125.059v-14.208h273.517v14.208h-45.373c-4.478,0-8.106,3.628-8.106,8.106     c0,4.478,3.628,8.106,8.106,8.106h45.373v65.023c0,11.939,9.713,21.652,21.652,21.652h3.329c11.939,0,21.652-9.713,21.652-21.652     V278.821h10.422c2.915,0,5.607-1.565,7.048-4.101l15.28-26.882c19.287-3.207,34.041-20,34.041-40.182v-0.5     C512,187.015,497.305,170.251,478.076,166.995z M353.819,83.284h108.045v18.724H353.819V83.284z M353.819,163.181V118.22h108.045     v48.193H353.819V163.181z M233.941,45.617h32.922v36.57l-11.433-9.038c-2.946-2.327-7.107-2.328-10.054,0l-11.436,9.038V45.617z      M166.431,45.617h51.298v53.31c0,3.107,1.777,5.941,4.574,7.295c2.795,1.354,6.122,0.991,8.559-0.936l19.542-15.446     l19.539,15.446c1.46,1.153,3.237,1.747,5.028,1.747c1.201,0,2.409-0.267,3.532-0.811c2.797-1.354,4.574-4.188,4.574-7.295v-53.31     h51.299c1.782,0,3.233,1.45,3.233,3.232v32.739v28.528v53.067c0,1.781-1.45,3.232-3.233,3.232h-51.299v-18.555     c0-4.478-3.628-8.106-8.106-8.106h-49.134c-4.478,0-8.106,3.628-8.106,8.106v18.555h-51.298c-1.781,0-3.232-1.45-3.232-3.232     v-1.632v-55.935V48.848h-0.001C163.199,47.067,164.649,45.617,166.431,45.617z M266.863,155.964v10.449h-32.922v-10.449H266.863z      M86.442,100.79h32.921v10.449H86.442V100.79z M58.817,105.615c0-2.681,2.182-4.864,4.864-4.864h6.549v18.593     c0,4.478,3.628,8.106,8.106,8.106h49.134c4.478,0,8.106-3.628,8.106-8.106v-18.593h6.549c2.681,0,4.864,2.182,4.864,4.864v55.934     c0,2.681-2.182,4.864-4.864,4.864H63.681c-2.681,0-4.864-2.181-4.864-4.864V105.615z M108.848,321.439v35.954v30.42v73.129     h-0.001c0,2.999-2.44,5.44-5.44,5.44h-3.329c-2.999,0-5.44-2.44-5.44-5.44V278.821h14.209V321.439z M398.575,349.286H125.059     v-24.49l45.973-45.975h181.571l45.973,45.975V349.286z M125.059,301.868V280.07h21.797L125.059,301.868z M398.575,301.868     l-21.797-21.798h21.797V301.868z M428.998,460.942h-0.001c0,2.999-2.44,5.44-5.44,5.44h-3.329c-2.999,0-5.44-2.44-5.44-5.44     v-73.129v-30.42v-35.954v-42.618h14.209V460.942z M471.256,232.187h-42.398c-4.478,0-8.106,3.628-8.106,8.106     c0,4.478,3.628,8.106,8.106,8.106h30.134l-8.077,14.208h-13.812h-30.421h-289.73h-30.42H72.72L64.643,248.4h337.195     c4.478,0,8.106-3.628,8.106-8.106s-3.628-8.106-8.106-8.106H40.745c-13.527,0-24.533-11.005-24.533-24.532v-0.5     c0-13.527,11.006-24.531,24.533-24.531h22.936h78.443h24.307h59.404h49.134h59.405h17.748h111.438h7.694     c13.527,0,24.532,11.005,24.532,24.531v0.5h0.001C495.788,221.184,484.782,232.187,471.256,232.187z"/>
			<path d="M56.924,199.299h-13.51c-4.478,0-8.106,3.628-8.106,8.106c0,4.478,3.628,8.106,8.106,8.106h13.51     c4.478,0,8.106-3.628,8.106-8.106C65.03,202.928,61.4,199.299,56.924,199.299z"/>
			<path d="M376.553,199.299h-26.636c-4.478,0-8.106,3.628-8.106,8.106c0,4.478,3.628,8.106,8.106,8.106h26.636     c4.478,0,8.106-3.628,8.106-8.106C384.659,202.928,381.031,199.299,376.553,199.299z"/>
			<path d="M429.823,199.299h-26.635c-4.478,0-8.106,3.628-8.106,8.106c0,4.478,3.628,8.106,8.106,8.106h26.635     c4.478,0,8.106-3.628,8.106-8.106C437.929,202.928,434.301,199.299,429.823,199.299z"/>
			<path d="M163.467,199.299h-26.636c-4.477,0-8.106,3.628-8.106,8.106c0,4.478,3.629,8.106,8.106,8.106h26.636     c4.478,0,8.106-3.628,8.106-8.106C171.573,202.928,167.945,199.299,163.467,199.299z"/>
			<path d="M110.195,199.299H83.56c-4.478,0-8.106,3.628-8.106,8.106c0,4.478,3.628,8.106,8.106,8.106h26.636     c4.478,0,8.106-3.628,8.106-8.106C118.302,202.928,114.673,199.299,110.195,199.299z"/>
			<path d="M216.738,199.299h-26.635c-4.478,0-8.106,3.628-8.106,8.106c0,4.478,3.628,8.106,8.106,8.106h26.636     c4.478,0,8.106-3.628,8.106-8.106C224.845,202.928,221.215,199.299,216.738,199.299z"/>
			<path d="M323.281,199.299h-26.636c-4.478,0-8.106,3.628-8.106,8.106c0,4.478,3.628,8.106,8.106,8.106h26.636     c4.478,0,8.106-3.628,8.106-8.106C331.387,202.928,327.759,199.299,323.281,199.299z"/>
			<path d="M270.009,199.299h-26.635c-4.478,0-8.106,3.628-8.106,8.106c0,4.478,3.628,8.106,8.106,8.106h26.635     c4.478,0,8.106-3.628,8.106-8.106C278.115,202.928,274.487,199.299,270.009,199.299z"/>
			<path d="M469.97,199.299h-13.51c-4.478,0-8.106,3.628-8.106,8.106c0,4.478,3.628,8.106,8.106,8.106h13.51     c4.477,0,8.106-3.628,8.106-8.106C478.076,202.928,474.448,199.299,469.97,199.299z"/>
			<path d="M427.46,133.047h-39.235c-4.478,0-8.106,3.628-8.106,8.106c0,4.478,3.628,8.106,8.106,8.106h39.235     c4.478,0,8.106-3.628,8.106-8.106C435.566,136.676,431.936,133.047,427.46,133.047z"/>
		</g>
	</g>
</g>
<g>
</g>
<g>
</g>
<g>
</g>
<g>
</g>
<g>
</g>
<g>
</g>
<g>
</g>
<g>
</g>
<g>
</g>
<g>
</g>
<g>
</g>
<g>
</g>
<g>
</g>
<g>
</g>
<g>
</g>
</svg>
