<?xml version="1.0" encoding="iso-8859-1"?>
<!-- Generator: Adobe Illustrator 19.0.0, SVG Export Plug-In . SVG Version: 6.00 Build 0)  -->
<svg xmlns="http://www.w3.org/2000/svg" xmlns:xlink="http://www.w3.org/1999/xlink" version="1.1" id="Layer_1" x="0px" y="0px" viewBox="0 0 512 512" style="enable-background:new 0 0 512 512;" xml:space="preserve">
<g>
	<g>
		<g>
			<path d="M490.407,465.493h-29.334V322.291c0-4.466-3.619-8.084-8.084-8.084c-4.466,0-8.084,3.619-8.084,8.084v143.203h-62.53     v-26.725v-34.811v-34.81v-34.811v-26.725h6.924c4.466,0,8.084-3.618,8.084-8.084c0-4.466-3.619-8.084-8.084-8.084H374.29H138.244     h-14.107c-4.466,0-8.084,3.618-8.084,8.084c0,4.466,3.619,8.084,8.084,8.084h6.023v26.725v34.811v34.81v34.811v26.725H67.097     V242.496l86.127-68.566L256,145.746l102.806,28.191l86.098,68.216v51.034c0,4.466,3.618,8.084,8.084,8.084     c4.466,0,8.084-3.619,8.084-8.084v-38.225l5.414,4.29c4.268,3.381,9.614,5.244,15.051,5.243c7.459-0.001,14.392-3.35,19.018-9.19     c4.024-5.078,5.829-11.418,5.083-17.853c-0.746-6.435-3.954-12.194-9.032-16.218l-111.555-88.386     c-2.571-2.038-5.48-3.512-8.648-4.381L262.418,97.209c-4.179-1.147-8.653-1.146-12.83-0.001l-96.17,26.372l-2.053-37.901     c0-0.004,0-0.009,0-0.012l-2.511-46.349c0,0,0,0,0-0.001l-1.256-23.148h5.479c4.466,0,8.084-3.619,8.084-8.084     S157.542,0,153.076,0h-14.013H80.705H66.693c-4.466,0-8.084,3.619-8.084,8.084s3.618,8.084,8.084,8.084h5.479l-1.254,23.143     c0,0.002,0,0.004,0,0.005l-0.61,11.264l-7.21,133.098l-47.216,37.589c-10.461,8.329-12.196,23.616-3.869,34.079     c4.628,5.814,11.549,9.148,18.985,9.148c5.458,0,10.82-1.874,15.095-5.28l4.835-3.85v210.126H21.593     C9.687,465.493,0,475.18,0,487.087v3.32C0,502.313,9.687,512,21.593,512h324.828c4.466,0,8.084-3.618,8.084-8.084     c0-4.466-3.618-8.084-8.084-8.084H21.593c-2.991,0-5.425-2.434-5.425-5.425v-3.32c0-2.991,2.434-5.425,5.425-5.425h37.419h79.232     H374.29h78.698h37.418c2.991,0,5.425,2.434,5.425,5.425v3.32c0,2.991-2.434,5.425-5.425,5.425H376.603     c-4.466,0-8.084,3.619-8.084,8.084c0,4.466,3.618,8.084,8.084,8.084h113.803c11.906,0,21.593-9.687,21.593-21.593v-3.32     C512,475.18,502.313,465.493,490.407,465.493z M88.364,16.168h43.041l0.84,15.502H87.523L88.364,16.168z M85.957,60.599     l0.691-12.76h46.473l1.635,30.181H85.014L85.957,60.599z M84.137,94.189h51.494l1.829,33.766l-1.864,0.511     c-3.184,0.874-6.108,2.358-8.691,4.416L80.02,170.207L84.137,94.189z M36.022,246.568c-1.827,1.455-3.741,1.76-5.024,1.76     c-2.483,0-4.792-1.111-6.335-3.049c-2.777-3.488-2.198-8.584,1.288-11.361l111.023-88.386c0.861-0.686,1.836-1.181,2.897-1.471     l8.152-2.234c0.005-0.001,0.01-0.003,0.014-0.004l105.826-29.02c0.696-0.191,1.415-0.289,2.136-0.289     c0.721,0,1.439,0.097,2.136,0.29l113.99,31.258c1.056,0.291,2.026,0.781,2.884,1.461l111.556,88.387     c1.692,1.341,2.763,3.261,3.011,5.406s-0.352,4.258-1.694,5.951c-1.542,1.947-3.856,3.063-6.347,3.063     c-1.279,0-3.185-0.303-5.009-1.748l-18.517-14.671l-0.001-0.001l-90.454-71.666c-0.853-0.676-1.832-1.172-2.882-1.459     l-106.535-29.215c-1.05-0.288-2.143-0.36-3.214-0.216c-0.357,0.047-0.711,0.12-1.062,0.216l-106.513,29.208     c-1.055,0.29-2.042,0.79-2.897,1.472L36.022,246.568z M366.206,465.493H146.329v-18.641h219.878V465.493z M366.206,430.684     H146.329v-18.642h219.878V430.684z M366.206,395.873H146.329v-18.641h219.878V395.873z M366.206,361.063H146.329v-18.642h219.878     V361.063z M366.206,326.253H146.329v-18.641h219.878V326.253z"/>
			<path d="M130.16,244.016c0,16.048,13.055,29.103,29.103,29.103c16.048,0,29.103-13.055,29.103-29.103     c0-16.048-13.055-29.103-29.103-29.103C143.216,214.913,130.16,227.968,130.16,244.016z M172.198,244.016     c0,7.132-5.802,12.935-12.935,12.935c-7.132,0-12.935-5.802-12.935-12.935s5.802-12.935,12.935-12.935     C166.396,231.081,172.198,236.884,172.198,244.016z"/>
			<path d="M324.168,244.016c0,16.048,13.055,29.103,29.103,29.103c16.048,0,29.103-13.055,29.103-29.103     c0-16.048-13.055-29.103-29.103-29.103C337.224,214.913,324.168,227.968,324.168,244.016z M366.206,244.016     c0,7.132-5.802,12.935-12.935,12.935c-7.132,0-12.935-5.802-12.935-12.935s5.802-12.935,12.935-12.935     C360.404,231.081,366.206,236.884,366.206,244.016z"/>
			<path d="M227.164,244.016c0,16.048,13.055,29.103,29.103,29.103c16.048,0,29.103-13.055,29.103-29.103     c0-16.048-13.055-29.103-29.103-29.103C240.22,214.913,227.164,227.968,227.164,244.016z M269.202,244.016     c0,7.132-5.802,12.935-12.935,12.935c-7.132,0-12.935-5.802-12.935-12.935s5.802-12.935,12.935-12.935     C263.4,231.081,269.202,236.884,269.202,244.016z"/>
		</g>
	</g>
</g>
<g>
</g>
<g>
</g>
<g>
</g>
<g>
</g>
<g>
</g>
<g>
</g>
<g>
</g>
<g>
</g>
<g>
</g>
<g>
</g>
<g>
</g>
<g>
</g>
<g>
</g>
<g>
</g>
<g>
</g>
</svg>
