<?xml version="1.0" encoding="iso-8859-1"?>
<!-- Generator: Adobe Illustrator 19.0.0, SVG Export Plug-In . SVG Version: 6.00 Build 0)  -->
<svg xmlns="http://www.w3.org/2000/svg" xmlns:xlink="http://www.w3.org/1999/xlink" version="1.1" id="Layer_1" x="0px" y="0px" viewBox="0 0 512 512" style="enable-background:new 0 0 512 512;" xml:space="preserve">
<g>
	<g>
		<g>
			<path d="M497.413,466.682V89.624c0-4.466-3.618-8.084-8.084-8.084h-2.674h-5.354V45.79c0-4.466-3.618-8.084-8.084-8.084H439.19     V8.084c0-4.466-3.619-8.084-8.084-8.084c-4.466,0-8.084,3.619-8.084,8.084v29.622h-34.029c-4.466,0-8.084,3.618-8.084,8.084     v35.749h-8.027c-4.466,0-8.084,3.619-8.084,8.084v79.507l-100.281,56.168V173.87c0-2.869-1.521-5.524-3.997-6.975     c-2.475-1.451-5.536-1.48-8.038-0.079l-104.413,58.482V173.87c0-2.869-1.521-5.524-3.997-6.975     c-2.476-1.451-5.536-1.48-8.038-0.079L19.585,232.039c-2.552,1.43-4.134,4.127-4.134,7.054v227.302     c-8.922,2.654-15.451,10.919-15.451,20.691v3.32C0.001,502.313,9.688,512,21.594,512h353.541c4.466,0,8.084-3.618,8.084-8.084     c0-4.466-3.618-8.084-8.084-8.084H21.594c-2.991,0-5.425-2.434-5.425-5.425v-3.32c0-2.991,2.434-5.425,5.425-5.425h1.941h116.448     h116.448H372.88h55.399h58.374h2.674h1.078c2.991,0,5.425,2.434,5.425,5.425v3.32c0,2.991-2.434,5.425-5.425,5.425h-87.667     c-4.466,0-8.084,3.619-8.084,8.084c0,4.466,3.618,8.084,8.084,8.084h87.667c11.906,0,21.594-9.687,21.594-21.593v-3.32     C512.001,477.635,505.887,469.601,497.413,466.682z M131.899,239.093v226.4H31.62V243.831l100.28-56.167V239.093z      M248.347,239.093v226.4h-100.28V243.831l100.28-56.167V239.093z M364.796,465.493h-100.28V243.831l100.28-56.167V465.493z      M397.076,53.874h68.057v27.665H428.28h-31.204V53.874z M481.245,158.33H428.28c-4.466,0-8.084,3.618-8.084,8.084     c0,4.466,3.618,8.084,8.084,8.084h52.964v22.226H428.28c-4.466,0-8.084,3.618-8.084,8.084c0,4.466,3.618,8.084,8.084,8.084     h52.964v22.227H428.28c-4.466,0-8.084,3.618-8.084,8.084c0,4.466,3.618,8.084,8.084,8.084h52.964v22.227H428.28     c-4.466,0-8.084,3.618-8.084,8.084c0,4.466,3.618,8.084,8.084,8.084h52.964v22.226H428.28c-4.466,0-8.084,3.618-8.084,8.084     c0,4.466,3.618,8.084,8.084,8.084h52.964v22.226H428.28c-4.466,0-8.084,3.618-8.084,8.084c0,4.466,3.618,8.084,8.084,8.084     h52.964v22.227H428.28c-4.466,0-8.084,3.618-8.084,8.084c0,4.466,3.618,8.084,8.084,8.084h52.964v22.227H428.28     c-4.466,0-8.084,3.618-8.084,8.084c0,4.466,3.618,8.084,8.084,8.084h52.964v22.226H428.28v0.001h-47.315V173.87V97.708h8.027     h39.288h44.936h8.027v22.227H428.28c-4.466,0-8.084,3.619-8.084,8.084s3.618,8.084,8.084,8.084h52.964V158.33z"/>
			<path d="M287.171,365.806h54.973c4.466,0,8.084-3.618,8.084-8.084V307.88c0-4.466-3.619-8.084-8.084-8.084h-54.973     c-4.466,0-8.084,3.618-8.084,8.084v49.842C279.087,362.188,282.705,365.806,287.171,365.806z M295.255,315.964h38.804v33.673     h-38.804V315.964z"/>
			<path d="M287.171,289.016h54.973c4.466,0,8.084-3.618,8.084-8.084c0-4.466-3.619-8.084-8.084-8.084h-54.973     c-4.466,0-8.084,3.619-8.084,8.084C279.087,285.397,282.705,289.016,287.171,289.016z"/>
			<path d="M170.723,365.806h54.973c4.466,0,8.084-3.618,8.084-8.084V307.88c0-4.466-3.62-8.084-8.084-8.084h-54.973     c-4.466,0-8.084,3.618-8.084,8.084v49.842C162.639,362.188,166.257,365.806,170.723,365.806z M178.807,315.964h38.804v33.673     h-38.804V315.964z"/>
			<path d="M170.723,289.016h54.973c4.466,0,8.084-3.618,8.084-8.084c0-4.466-3.62-8.084-8.084-8.084h-54.973     c-4.466,0-8.084,3.619-8.084,8.084C162.639,285.397,166.257,289.016,170.723,289.016z"/>
			<path d="M54.275,365.806h54.973c4.466,0,8.084-3.618,8.084-8.084V307.88c0-4.466-3.62-8.084-8.084-8.084H54.275     c-4.466,0-8.084,3.618-8.084,8.084v49.842C46.19,362.188,49.809,365.806,54.275,365.806z M62.359,315.964h38.804v33.673H62.359     V315.964z"/>
			<path d="M54.275,289.016h54.973c4.466,0,8.084-3.618,8.084-8.084c0-4.466-3.62-8.084-8.084-8.084H54.275     c-4.466,0-8.084,3.619-8.084,8.084C46.19,285.397,49.809,289.016,54.275,289.016z"/>
		</g>
	</g>
</g>
<g>
</g>
<g>
</g>
<g>
</g>
<g>
</g>
<g>
</g>
<g>
</g>
<g>
</g>
<g>
</g>
<g>
</g>
<g>
</g>
<g>
</g>
<g>
</g>
<g>
</g>
<g>
</g>
<g>
</g>
</svg>
