<?xml version="1.0" encoding="iso-8859-1"?>
<!-- Generator: Adobe Illustrator 19.0.0, SVG Export Plug-In . SVG Version: 6.00 Build 0)  -->
<svg xmlns="http://www.w3.org/2000/svg" xmlns:xlink="http://www.w3.org/1999/xlink" version="1.1" id="Layer_1" x="0px" y="0px" viewBox="0 0 512 512" style="enable-background:new 0 0 512 512;" xml:space="preserve">
<path d="M504.22,180.132h-57.298H301.697c-4.297,0-7.78,3.482-7.78,7.78v18.604c0,32.164-13.731,62.061-37.883,82.961  c-23.234-20.146-37.951-49.867-37.951-82.961v-18.604c0-4.298-3.483-7.78-7.78-7.78H74.246c-4.297,0-7.78,3.482-7.78,7.78  c0,4.298,3.483,7.78,7.78,7.78h128.277v10.824c0,39.962,18.801,75.612,48.019,98.583c0.219,0.216,0.451,0.421,0.698,0.612  c5.144,3.979,10.534,7.503,16.116,10.598H15.56V195.692h27.567c4.297,0,7.78-3.482,7.78-7.78c0-4.298-3.483-7.78-7.78-7.78H7.78  c-4.297,0-7.78,3.482-7.78,7.78v136.176c0,4.298,3.483,7.78,7.78,7.78h496.44c4.297,0,7.78-3.482,7.78-7.78V187.912  C512,183.615,508.517,180.132,504.22,180.132z M496.44,316.308H389.827c12.843-7.077,24.491-16.425,34.319-27.773  c2.812-3.248,2.46-8.161-0.796-10.98c-3.248-2.814-8.163-2.46-10.974,0.788c-6.615,7.642-14.296,14.353-22.745,19.9  c-8.422,5.529-17.602,9.897-27.206,12.942c-9.612,3.048-19.637,4.76-29.717,5.069c-1.119,0.034-2.24,0.055-3.359,0.055  c-11.768,0-23.405-1.553-34.638-5.119c-9.14-2.901-17.889-7.017-25.96-12.196c26.004-23.729,40.726-56.889,40.726-92.478v-10.824  h129.665v10.824c0,16.425-3.542,32.226-10.529,46.964c-1.495,3.156-0.683,6.809,1.757,9.056c0.563,0.52,1.215,0.964,1.944,1.31  c3.884,1.839,8.523,0.186,10.363-3.697c7.979-16.834,12.025-34.878,12.025-53.633v-10.824h41.739L496.44,316.308L496.44,316.308z"/>
<g>
</g>
<g>
</g>
<g>
</g>
<g>
</g>
<g>
</g>
<g>
</g>
<g>
</g>
<g>
</g>
<g>
</g>
<g>
</g>
<g>
</g>
<g>
</g>
<g>
</g>
<g>
</g>
<g>
</g>
</svg>
