<?xml version="1.0" encoding="iso-8859-1"?>
<!-- Generator: Adobe Illustrator 19.0.0, SVG Export Plug-In . SVG Version: 6.00 Build 0)  -->
<svg xmlns="http://www.w3.org/2000/svg" xmlns:xlink="http://www.w3.org/1999/xlink" version="1.1" id="Layer_1" x="0px" y="0px" viewBox="0 0 512.001 512.001" style="enable-background:new 0 0 512.001 512.001;" xml:space="preserve">
<circle cx="200.479" cy="278.142" r="17.194"/>
<path d="M455.911,306.005c-5.771-5.772-13.443-8.951-21.606-8.951c-8.162,0-15.836,3.179-21.606,8.95l-0.023,0.023  c-4.02,4.001-10.005,5.198-15.254,3.051l-52.247-21.374h-0.001l-27.299-11.167c-0.291-0.12-0.573-0.258-0.854-0.397l0.599-0.28  c3.795-1.773,5.656-6.11,4.328-10.082l-24.501-73.255c-0.745-2.228-2.406-4.033-4.565-4.96c-2.158-0.929-4.61-0.889-6.74,0.107  l-1.51,0.706v-56.5c11.991-0.663,21.548-10.598,21.548-22.751V77.828c0-12.152-9.559-22.088-21.548-22.75V30.556  C284.63,13.707,270.922,0,254.074,0H103.421C86.572,0,72.865,13.707,72.865,30.556v26.409c0,4.553,3.69,8.242,8.242,8.242  c4.552,0,8.242-3.689,8.242-8.242V30.556c0-7.76,6.312-14.072,14.072-14.072h150.653c7.76,0,14.072,6.312,14.072,14.072v24.458  h-49.604c-10.276,0-19.935,4.001-27.199,11.265l-65.212,65.212H89.349V89.933c0-4.553-3.69-8.242-8.242-8.242  c-4.552,0-8.242,3.689-8.242,8.242v41.573c-12.447,0.156-22.528,10.318-22.528,22.801v31.297c0,12.483,10.081,22.644,22.528,22.801  v88.652H59.128c-4.552,0-8.242,3.689-8.242,8.242v76.447c0,10.695,5.527,20.117,13.87,25.578  c-14.208,10.6-23.425,27.536-23.425,46.586c0,32.032,26.06,58.092,58.093,58.092c20.684,0,39.464-10.861,49.851-28.252  c10.387,17.39,29.167,28.252,49.851,28.252s39.464-10.861,49.851-28.252c10.387,17.39,29.166,28.252,49.851,28.252  c20.684,0,39.464-10.861,49.851-28.252c10.386,17.39,29.166,28.252,49.851,28.252c32.032,0,58.093-26.06,58.093-58.092  c0-25.326-16.297-46.906-38.951-54.838l44.046-44.047c5.771-5.771,8.95-13.443,8.95-21.606c0-8.162-3.178-15.835-8.95-21.606  L455.911,306.005z M326.431,297.846l-30.271,25.89l-46.689-16.037l29.436-13.753l21.543-10.064c3.062,3.433,6.876,6.15,11.183,7.911  L326.431,297.846z M284.743,206.516l19.238,57.521c0,0-4.196,1.961-4.208,1.965l-84.222,39.35c-4.296,2.007-8.96,2.943-13.603,2.812  c-0.19-0.005-0.38-0.013-0.57-0.023c-9.711-0.467-18.903-5.817-24.077-14.052c-2.279-3.629-3.776-7.718-4.359-11.964  c-1.151-8.392,1.321-16.773,6.552-23.162c0.011-0.013,0.023-0.024,0.034-0.037c2.797-3.408,6.332-6.166,10.31-8.061  c0.069-0.033,0.136-0.069,0.207-0.102c0,0,91.98-42.974,91.985-42.977L284.743,206.516z M268.658,195.837l-85.59,39.988  c-0.563,0.263-1.12,0.536-1.668,0.819v-51.633l53.071-53.071h33.674v58.316C268.146,192.136,268.317,194,268.658,195.837z   M66.821,185.602v-31.297c0-3.491,2.84-6.331,6.331-6.331h7.954h48.437c0.274,0,0.545-0.013,0.814-0.041  c1.887-0.187,3.662-1.021,5.013-2.374l67.628-67.627c4.151-4.151,9.67-6.437,15.542-6.437h57.846h6.976  c3.49,0,6.331,2.84,6.331,6.331v31.296c0,3.491-2.84,6.332-6.331,6.332h-6.976h-45.33c-2.186,0-4.283,0.868-5.828,2.413  c0,0-57.9,57.9-57.901,57.9l-9.726,9.726c-4.152,4.152-9.671,6.438-15.542,6.438h-7.402c-4.552,0-8.242,3.689-8.242,8.242  s3.69,8.242,8.242,8.242h7.402c8.341,0,16.276-2.637,22.854-7.517v49.993c-5.616,7.84-8.723,17.311-8.74,27.079  c-0.008,4.939,0.774,9.952,2.418,14.869c5.218,15.597,18.652,27.548,34.762,30.876c3.113,0.643,6.291,0.965,9.472,0.965  c6.829,0,13.459-1.479,19.703-4.397l5.442-2.542l67.287,23.112c0.875,0.3,1.779,0.447,2.677,0.447c1.936,0,3.843-0.682,5.357-1.978  l40.294-34.461l47.592,19.47c0.774,0.316,1.554,0.6,2.34,0.848l-26.732,26.733H158.213c-9.636,0-17.474-7.84-17.474-17.474v-29.143  c0-4.553-3.69-8.242-8.242-8.242H89.349v-88.637h12.341c4.552,0,8.242-3.689,8.242-8.242c0-4.553-3.69-8.242-8.242-8.242H73.153  C69.662,191.932,66.821,189.093,66.821,185.602z M99.423,495.516c-22.943,0-41.609-18.665-41.609-41.608  c0-22.929,18.644-41.585,41.566-41.608h0.082c12.205,0.011,23.484,5.3,31.233,14.135H99.423c-15.149,0-27.474,12.325-27.474,27.474  c0,15.149,12.325,27.474,27.474,27.474h31.273C122.939,490.224,111.645,495.516,99.423,495.516z M199.126,495.516  c-12.22,0-23.515-5.291-31.274-14.135h62.546C222.641,490.224,211.346,495.516,199.126,495.516z M298.827,495.516  c-12.22,0-23.515-5.291-31.273-14.135h62.546C322.342,490.224,311.048,495.516,298.827,495.516z M352.528,464.897h-7.698h-92.003  h-7.698h-92.003h-7.698H99.426c-6.06,0-10.989-4.93-10.989-10.989s4.93-10.989,10.989-10.989h46.002c0.008,0,0.014,0,0.022,0h7.677  h92.003h7.698h92.003h7.699h46.002c6.06,0,10.989,4.93,10.989,10.989s-4.93,10.989-10.989,10.989H352.528z M139.99,412.3h18.562  c-3.553,3.468-6.679,7.416-9.281,11.772C146.67,419.714,143.544,415.768,139.99,412.3z M167.852,426.434  c7.749-8.836,19.028-14.124,31.233-14.135h0.079c12.205,0.011,23.484,5.3,31.233,14.135H167.852z M239.699,412.3h18.556  c-3.552,3.467-6.677,7.412-9.277,11.767C246.376,419.712,243.251,415.767,239.699,412.3z M267.555,426.434  c7.749-8.834,19.028-14.124,31.233-14.135h0.079c12.206,0.011,23.484,5.299,31.233,14.135H267.555z M339.4,412.3h18.556  c-3.552,3.467-6.677,7.413-9.278,11.767C346.077,419.712,342.952,415.767,339.4,412.3z M440.138,453.908  c0,22.943-18.666,41.608-41.609,41.608c-12.22,0-23.515-5.291-31.273-14.135h31.274c15.149,0,27.474-12.325,27.474-27.474  c0-15.149-12.325-27.474-27.474-27.474h-31.274c7.757-8.844,19.052-14.136,31.273-14.136  C421.473,412.299,440.138,430.964,440.138,453.908z M450.061,343.366l-48.326,48.327c-2.658,2.658-6.191,4.122-9.95,4.122h-92.901  c-0.02,0-0.038-0.001-0.057-0.001s-0.038,0.001-0.057,0.001h-99.586c-0.02,0-0.038-0.001-0.057-0.001s-0.038,0.001-0.057,0.001  H99.484c-0.02,0-0.038-0.001-0.058-0.001c-0.014,0-0.029,0.001-0.043,0.001h-17.94c-7.76,0-14.072-6.312-14.072-14.072v-68.205  h13.737h43.148v20.903c0,2.341,0.238,4.627,0.691,6.835c3.172,15.46,16.883,27.124,33.267,27.124H370.2l0,0  c2.186,0,4.283-0.868,5.828-2.413l48.326-48.327c2.657-2.658,6.191-4.122,9.951-4.122c3.758,0,7.293,1.464,9.95,4.122l5.807,5.806  c2.657,2.658,4.121,6.193,4.121,9.951C454.184,337.176,452.72,340.709,450.061,343.366z"/>
<g>
</g>
<g>
</g>
<g>
</g>
<g>
</g>
<g>
</g>
<g>
</g>
<g>
</g>
<g>
</g>
<g>
</g>
<g>
</g>
<g>
</g>
<g>
</g>
<g>
</g>
<g>
</g>
<g>
</g>
</svg>
