<?xml version="1.0" encoding="iso-8859-1"?>
<!-- Generator: Adobe Illustrator 19.0.0, SVG Export Plug-In . SVG Version: 6.00 Build 0)  -->
<svg xmlns="http://www.w3.org/2000/svg" xmlns:xlink="http://www.w3.org/1999/xlink" version="1.1" id="Layer_1" x="0px" y="0px" viewBox="0 0 512 512" style="enable-background:new 0 0 512 512;" xml:space="preserve">
<path d="M438.028,201.599c2.442-18.494-10.078-39.529-11.512-41.867c-0.768-1.25-1.819-2.302-3.068-3.068  c-1.972-1.212-19.758-11.831-36.895-11.831c-1.705,0-3.377,0.107-4.97,0.317c-2.027,0.267-3.91,1.194-5.36,2.636  c-1.326,1.32-32.349,32.789-21.399,73.952c0.86,3.235,3.385,5.759,6.619,6.619c5.774,1.535,11.71,2.314,17.646,2.314  c32.336,0,55.341-22.745,56.306-23.714C436.834,205.51,437.76,203.626,438.028,201.599z M379.086,212.009  c-2.46,0-4.92-0.184-7.361-0.55c-3.341-22.614,10.033-41.401,15.463-47.955c8.681,0.231,19.291,5.075,24.547,7.947  c2.959,5.395,7.738,15.937,7.947,24.537C413.83,200.845,398.295,212.009,379.086,212.009z"/>
<path d="M432.464,288.378l51.07-51.07c37.954-37.955,37.954-99.711,0-137.665l-1.677-1.677l-32.634-32.634l-36.868-36.868  c-37.955-37.953-99.71-37.953-137.664,0l-24.698,24.698c-3.644,3.645-3.644,9.553,0,13.197c3.643,3.642,9.552,3.644,13.196,0  l24.698-24.698c29.37-29.373,76.364-30.603,107.237-3.733c-4.834-0.729-9.754-1.107-14.734-1.107  c-26.001,0-50.445,10.125-68.832,28.51L107.393,269.5c-3.644,3.645-3.644,9.553,0,13.197c3.644,3.643,9.553,3.643,13.196,0  L324.757,78.53c28.394-28.393,73.261-30.507,104.108-6.345c-5.05-0.737-10.182-1.099-15.389-1.031  c-16.548,0.202-32.442,4.545-46.505,12.477c-0.25,0.141-0.499,0.285-0.748,0.428c-7.412,4.26-14.307,9.539-20.351,15.585  L99.69,345.824c-6.666,6.666-12.361,14.275-16.852,22.565c-0.006,0.011-0.012,0.022-0.019,0.034  c-9.866,18.251-13.586,39.824-10.623,60.35c-24.123-30.846-21.998-75.684,6.379-104.062l15.621-15.621  c3.644-3.645,3.644-9.553,0-13.196c-3.643-3.645-9.552-3.644-13.196-0.001l-15.621,15.621  c-18.385,18.385-28.512,42.831-28.512,68.832c0,4.982,0.378,9.904,1.109,14.739c-12.48-14.314-19.313-32.431-19.313-51.606  c0-21.017,8.184-40.774,23.045-55.635L236.797,92.753c3.644-3.645,3.644-9.553,0-13.197c-3.644-3.643-9.553-3.643-13.196,0  L28.512,274.644C10.126,293.03,0,317.475,0,343.477c0,26.002,10.126,50.448,28.512,68.833l36.868,36.868l32.634,32.634  c0,0,1.677,1.677,1.688,1.687c18.384,18.379,42.824,28.501,68.821,28.501c26.001,0,50.447-10.126,68.832-28.512l168.717-168.716  c3.644-3.645,3.644-9.553,0-13.197c-3.644-3.643-9.553-3.643-13.196,0L224.158,470.292c-14.861,14.861-34.619,23.045-55.635,23.045  s-40.774-8.184-55.636-23.046c-0.49-0.49-0.951-0.999-1.426-1.499c-0.012-0.014-0.024-0.029-0.036-0.042  c-7.582-7.995-13.497-17.618-17.132-28.024c-0.004-0.012-0.009-0.024-0.012-0.036c-7.945-22.772-5.129-48.495,8.442-69.178  c0.044-0.066,0.083-0.133,0.127-0.199c2.921-4.412,6.297-8.549,10.038-12.291l246.18-246.18c3.74-3.74,7.882-7.127,12.296-10.043  c0.057-0.037,0.114-0.072,0.172-0.109c21.756-14.283,49.088-16.663,72.701-7.138c0.121,0.049,0.24,0.102,0.36,0.151  c8.938,3.674,17.188,9.028,24.199,15.677c0.014,0.012,0.029,0.024,0.042,0.036c0.5,0.475,1.009,0.936,1.513,1.437  c30.664,30.68,30.66,80.587-0.012,111.26l-51.07,51.07c-3.644,3.645-3.644,9.553,0,13.197  C422.912,292.02,428.82,292.023,432.464,288.378z"/>
<g>
</g>
<g>
</g>
<g>
</g>
<g>
</g>
<g>
</g>
<g>
</g>
<g>
</g>
<g>
</g>
<g>
</g>
<g>
</g>
<g>
</g>
<g>
</g>
<g>
</g>
<g>
</g>
<g>
</g>
</svg>
