<?xml version="1.0" encoding="iso-8859-1"?>
<!-- Generator: Adobe Illustrator 19.0.0, SVG Export Plug-In . SVG Version: 6.00 Build 0)  -->
<svg xmlns="http://www.w3.org/2000/svg" xmlns:xlink="http://www.w3.org/1999/xlink" version="1.1" id="Layer_1" x="0px" y="0px" viewBox="0 0 512.001 512.001" style="enable-background:new 0 0 512.001 512.001;" xml:space="preserve">
<path d="M185.703,473.266c0,4.491,3.64,8.13,8.13,8.13h42.787c4.49,0,8.13-3.639,8.13-8.13s-3.64-8.13-8.13-8.13h-34.657v-18.52  c27.761-3.937,48.936-28.501,48.936-56.487c0-23.882-15.55-45.917-38.086-53.842l9.765-9.765c2.571,0.899,5.303,1.267,8.056,1.267  c7.268,0,14.687-2.572,19.698-4.771c12.82-5.626,26.942-15.786,39.762-28.607c18.143-18.144,32.33-40.549,33.364-57.489  c6.592-0.413,13.111-2.693,17.653-4.685c12.82-5.626,26.942-15.786,39.762-28.607c18.143-18.144,32.33-40.549,33.364-57.489  c6.592-0.413,13.111-2.693,17.653-4.685c12.82-5.626,26.942-15.786,39.762-28.607c4.964-4.964,9.624-10.247,13.808-15.65v311.741  v47.573c0,6.055-4.927,10.982-10.982,10.982c-6.055,0-10.981-4.927-10.981-10.982v-22.67c0-3.288-1.98-6.254-5.019-7.511  c-3.036-1.259-6.534-0.563-8.859,1.762l-18.441,18.441c-3.175,3.176-3.175,8.323,0,11.498c3.174,3.173,8.322,3.175,11.497,0  l4.563-4.563v3.043c0,15.021,12.22,27.242,27.241,27.242s27.242-12.22,27.242-27.242v-47.573V69.481  c3.609-9.525,4.53-18.312,1.654-25.173c1.725-3.248,2.643-6.888,2.643-10.67c0-6.09-2.372-11.814-6.677-16.122L488.489,6.666  c-8.889-8.888-23.353-8.888-32.242,0l-105.3,105.3c-3.175,3.176-3.175,8.323,0,11.498c3.175,3.174,8.323,3.174,11.497,0l105.3-105.3  c2.548-2.55,6.698-2.55,9.248,0l10.851,10.85c2.522,2.522,2.519,6.731,0,9.248c0,0-90.778,90.778-90.781,90.781  c0,0-90.774,90.775-90.781,90.781c0,0-90.772,90.772-90.78,90.781l-22.468,22.468c-0.206,0.003-0.41,0.018-0.616,0.024  c-15.87,0.387-31.321,7.695-41.714,19.691c-0.258,0.297-0.522,0.587-0.774,0.89l-8.849-8.848l198.371-198.371  c3.175-3.176,3.175-8.323,0-11.498c-3.175-3.174-8.323-3.174-11.497,0L123.833,339.08L17.368,445.545  c-15.178,15.179-15.178,39.875,0,55.054c7.353,7.352,17.128,11.403,27.527,11.403s20.174-4.05,27.527-11.403l22.908-22.908  c3.175-3.176,3.175-8.323,0-11.498c-3.175-3.174-8.323-3.174-11.497,0l-22.908,22.909c-4.282,4.281-9.974,6.639-16.029,6.639  c-6.054,0-11.747-2.359-16.029-6.641c-8.838-8.838-8.838-23.219,0-32.057l100.716-100.716l11.65,11.65  c-0.083,0.197-0.154,0.398-0.234,0.596c-0.033,0.08-0.063,0.161-0.095,0.242c-4.995,12.425-5.428,26.565-1.221,39.277  c0.132,0.4,0.269,0.799,0.409,1.197c0.057,0.16,0.105,0.322,0.164,0.482l-33.427,33.427c-3.175,3.176-3.175,8.323,0,11.498  c3.175,3.174,8.323,3.174,11.497,0l30.067-30.067c1.547,2.035,3.234,3.996,5.089,5.851c8.837,8.837,20.064,14.412,32.222,16.135  L185.703,473.266L185.703,473.266z M485.461,63.639v2.722c-4.005,9.272-11.875,21.564-25.305,34.995  c-11.426,11.427-23.785,20.382-34.798,25.215c-1.662,0.73-3.192,1.312-4.612,1.785L485.461,63.639z M396.39,152.709  c-3.208,9.58-11.317,23.728-27.014,39.425c-11.426,11.427-23.785,20.382-34.798,25.215c-1.662,0.73-3.192,1.312-4.612,1.786  L396.39,152.709z M305.611,243.488c-3.208,9.58-11.317,23.728-27.014,39.425c-11.426,11.427-23.785,20.382-34.798,25.215  c-1.662,0.73-3.192,1.312-4.612,1.785L305.611,243.488z M193.833,381.997c-4.49,0-8.13,3.639-8.13,8.13v11.774  c-0.704-0.488-1.373-1.034-1.991-1.652c-8.8-8.8-2.336-24.435,10.121-24.435c7.796,0,14.314,6.532,14.314,14.314  c0,4.671-2.353,9.116-6.184,11.773v-11.774C201.963,385.637,198.323,381.997,193.833,381.997z M164.979,418.982  c-14.988-14.988-15.5-39.476-1.718-55.516c8.07-9.392,20.284-14.702,32.666-14.087c0.015,0.001,0.031-0.001,0.047,0  c21.408,1.083,38.665,19.358,38.665,40.75c0,10.9-4.245,21.147-11.952,28.853c-5.754,5.754-12.924,9.576-20.725,11.145v-10.521  c5.051-1.384,9.684-4.054,13.488-7.859c5.774-5.776,8.955-13.452,8.955-21.618c0-16.665-13.922-30.574-30.573-30.574  c-18.7,0-33.284,18.035-29.983,36.339c2.038,11.301,10.811,20.686,21.852,23.712v10.521  C177.902,428.558,170.733,424.735,164.979,418.982z"/>
<g>
</g>
<g>
</g>
<g>
</g>
<g>
</g>
<g>
</g>
<g>
</g>
<g>
</g>
<g>
</g>
<g>
</g>
<g>
</g>
<g>
</g>
<g>
</g>
<g>
</g>
<g>
</g>
<g>
</g>
</svg>
