<?xml version="1.0" encoding="iso-8859-1"?>
<!-- Generator: Adobe Illustrator 19.0.0, SVG Export Plug-In . SVG Version: 6.00 Build 0)  -->
<svg xmlns="http://www.w3.org/2000/svg" xmlns:xlink="http://www.w3.org/1999/xlink" version="1.1" id="Layer_1" x="0px" y="0px" viewBox="0 0 511.997 511.997" style="enable-background:new 0 0 511.997 511.997;" xml:space="preserve">
<circle cx="382.112" cy="196.315" r="13.295"/>
<path d="M457.527,145.849c-10.425,0-20.631,3.029-29.355,8.618c-32.341-25.255-91.09-41.808-159.568-41.808  c-30.344,0-60.429,3.419-87.003,9.886c-4.293,1.044-6.926,5.372-5.882,9.665c1.044,4.293,5.371,6.929,9.665,5.882  c25.353-6.17,54.13-9.432,83.219-9.432c46.513,0,90.119,8.039,122.782,22.637c27.425,12.256,44.218,28.137,47.048,44.185  c-0.116,0.037-0.229,0.077-0.346,0.114c-4.78,1.53-9.63,2.767-14.496,3.983c0.199-0.048,0.126-3.081,0.126-3.261  c0-22.943-18.665-41.608-41.607-41.608c-18.989,0-36.239,13.789-40.545,32.263c-0.243,1.044-2.371,17.549-0.221,17.689  c-7.776-0.503-15.535-1.198-23.283-2.024c0.559-0.574,1.166-1.075,1.815-1.488c3.729-2.37,4.831-7.313,2.462-11.044  c-2.369-3.73-7.313-4.833-11.044-2.462c-4.72,3-8.401,7.572-10.68,12.97c-5.711-0.705-11.419-1.438-17.132-2.13  c0.529-0.527,1.097-0.995,1.705-1.381c3.729-2.37,4.831-7.313,2.462-11.044c-2.369-3.73-7.313-4.832-11.044-2.462  c-4.755,3.022-8.455,7.642-10.729,13.091c-5.151-0.309-10.258-0.317-15.352-0.093c2.211-2.602,2.58-6.438,0.653-9.47  c-2.37-3.729-7.313-4.83-11.044-2.462c-5.021,3.19-8.867,8.16-11.1,14.01c-6.932,0.961-13.92,2.132-21.041,3.33  c-17.035,2.866-34.17,5.672-51.485,5.879c-7.666,0.092-15.342-0.3-22.947-1.289c-3.158-0.411-6.306-0.911-9.43-1.536  c-0.186-0.036-0.37-0.068-0.579-0.111v-10.927v-27.643v-2.805c8.512-5.858,18.868-11.182,30.844-15.851  c4.116-1.604,6.153-6.243,4.548-10.36c-1.605-4.115-6.244-6.155-10.36-4.547c-14.868,5.796-27.591,12.605-37.818,20.241  c-1.257,0.938-2.191,2.211-2.719,3.645c-1.273-0.112-2.552-0.174-3.835-0.174c-21.414,0-39.276,15.454-43.048,35.793H26.807  c-5.959,0-10.807-4.848-10.807-10.807s4.848-10.807,10.807-10.807h11.95c3.236,0,6.153-1.949,7.391-4.939  c1.238-2.99,0.554-6.43-1.734-8.719l-16.589-16.589c-3.123-3.124-8.189-3.125-11.313-0.001c-3.124,3.125-3.124,8.19,0,11.314  l3.743,3.743C8.63,158.45,0,168.993,0,181.515c0,7.322,2.953,13.964,7.727,18.807C2.953,205.165,0,211.807,0,219.128  c0,12.521,8.63,23.065,20.253,25.996l-3.743,3.743c-3.124,3.125-3.124,8.19,0,11.314c1.562,1.562,3.61,2.342,5.657,2.342  s4.095-0.781,5.657-2.344l16.589-16.589c2.288-2.289,2.973-5.729,1.734-8.719c-1.238-2.99-4.156-4.939-7.391-4.939H26.807  c-5.959,0-10.807-4.848-10.807-10.807s4.848-10.807,10.807-10.807h34.36c3.772,20.339,21.634,35.793,43.048,35.793  c1.283,0,2.561-0.062,3.835-0.174c0.528,1.435,1.462,2.707,2.719,3.646c26.43,19.732,68.145,33.26,116.042,38.256  c-0.683,3.089-1.051,6.248-1.051,9.415c0,21.414,15.454,39.276,35.793,43.048v34.227c0,5.96-4.847,10.808-10.807,10.808  c-5.96,0-10.807-4.848-10.807-10.808v-11.95c0-3.235-1.949-6.154-4.939-7.391c-2.989-1.238-6.43-0.555-8.718,1.734l-16.589,16.59  c-3.124,3.124-3.124,8.189,0,11.313c3.124,3.123,8.19,3.124,11.313-0.001l3.743-3.742c2.931,11.624,13.476,20.253,25.998,20.253  c7.322,0,13.964-2.954,18.807-7.727c4.843,4.775,11.485,7.727,18.807,7.727c12.522,0,23.065-8.63,25.996-20.254l3.743,3.744  c3.124,3.123,8.19,3.123,11.313,0c3.124-3.125,3.124-8.19,0-11.314l-16.59-16.59c-2.288-2.288-5.729-2.972-8.718-1.733  c-2.99,1.237-4.939,4.156-4.939,7.391v11.95c0,5.96-4.848,10.808-10.807,10.808c-5.959,0-10.807-4.848-10.807-10.808v-34.227  c20.339-3.772,35.793-21.633,35.793-43.048c0-3.242-0.383-6.474-1.098-9.63c8.558-0.944,16.973-2.17,25.207-3.674  c4.347-0.795,7.226-4.961,6.432-9.309s-4.963-7.22-9.308-6.431c-21.066,3.824-42.498,5.639-63.903,5.748  c-0.409,0.002-0.815,0.012-1.225,0.013c-47.592,0.091-101.615-6.554-142.607-32.726c-1.109-0.708-2.207-1.434-3.292-2.18v-2.806  v-13.029c0.124,0.022,0.247,0.042,0.371,0.063c0.208,0.036,0.414,0.069,0.621,0.106c22.432,3.882,45.197,2.639,67.615-0.644  c11.695-1.713,23.315-3.901,35.005-5.642c1.227,9.192,6.131,17.25,13.425,21.666c1.295,0.785,2.724,1.158,4.136,1.158  c2.706,0,5.347-1.373,6.851-3.857c2.289-3.779,1.081-8.698-2.7-10.987c-3.065-1.856-5.214-5.603-5.834-9.935  c6.878-0.624,13.676-0.88,20.435-0.564c0.881,9.791,5.907,18.472,13.582,23.12c1.296,0.785,2.725,1.158,4.137,1.158  c2.706,0,5.347-1.373,6.85-3.857c2.289-3.779,1.081-8.698-2.699-10.987c-2.56-1.551-4.483-4.424-5.409-7.853  c0.096,0.354,5.634,0.688,6.25,0.765c3.792,0.471,7.583,0.954,11.376,1.423c0.194,0.025,0.389,0.048,0.585,0.073  c0.828,9.875,5.872,18.645,13.6,23.324c1.296,0.785,2.725,1.158,4.137,1.158c2.706,0,5.347-1.373,6.85-3.857  c2.289-3.779,1.081-8.698-2.699-10.987c-2.524-1.529-4.431-4.34-5.372-7.705c0.166,0.018,0.335,0.035,0.501,0.053  c7.962,0.861,15.939,1.582,23.927,2.136c2.886,0.199,5.78,0.301,8.666,0.507c0.286,0.014,0.569,0.031,0.854,0.044  c0.03,0.001,0.061,0.003,0.091,0.004c0.428,0.02,2.031,2.486,2.345,2.838c1.328,1.491,2.755,2.892,4.282,4.179  c0.012,0.01,0.023,0.02,0.035,0.031c7.45,6.236,17.017,9.761,26.738,9.761c8.454,0,16.909-2.686,23.832-7.528  c4.808-3.361,8.925-7.803,11.927-12.843c0.097-0.163,0.205-0.318,0.3-0.482c0.131-0.025,0.26-0.053,0.391-0.078  c4.348-0.828,8.674-1.805,12.967-2.883c1.484-0.373,2.965-0.768,4.44-1.18c-8.256,18.038-33.73,34.917-70.53,45.942  c-4.233,1.267-6.636,5.727-5.368,9.96c1.267,4.232,5.726,6.635,9.96,5.368c23.733-7.11,43.776-16.762,58.201-27.987  c8.712,5.565,18.897,8.582,29.298,8.582c30.036,0,54.472-24.436,54.472-54.472S487.564,145.849,457.527,145.849z M107.555,227.912  c-1.106,0.134-2.221,0.202-3.34,0.202c-12.544,0-23.169-8.355-26.613-19.793h7.228c3.152,7.61,10.651,12.98,19.386,12.98  c1.129,0,2.245-0.092,3.34-0.269v6.88H107.555z M107.555,203.987c-0.906,0.827-2.088,1.314-3.34,1.314  c-2.746,0-4.978-2.234-4.978-4.979s2.234-4.979,4.978-4.979c1.252,0,2.434,0.487,3.34,1.314V203.987z M107.555,179.611  c-1.094-0.177-2.211-0.269-3.34-0.269c-8.735,0-16.234,5.37-19.386,12.98h-7.228c3.444-11.436,14.07-19.793,26.613-19.793  c1.119,0,2.234,0.067,3.34,0.202v6.88H107.555z M277.554,314.644c7.61-3.152,12.98-10.651,12.98-19.386  c0-2.749-0.532-5.377-1.498-7.786c0.986-0.049,1.965-0.117,2.948-0.174c1.312-0.076,2.626-0.144,3.933-0.231  c0.065-0.004,0.13-0.007,0.195-0.012c0.821,2.637,1.235,5.38,1.235,8.202c0,12.544-8.355,23.169-19.793,26.613v-7.226H277.554z   M269.553,290.279c2.746,0,4.979,2.234,4.979,4.979c0,2.746-2.234,4.979-4.979,4.979c-2.746,0-4.978-2.234-4.978-4.979  C264.575,292.513,266.808,290.279,269.553,290.279z M242.959,287.18c2.348,0.147,4.705,0.279,7.076,0.386  c-0.943,2.383-1.46,4.977-1.46,7.692c0,8.735,5.37,16.234,12.979,19.386v7.227c-11.436-3.444-19.793-14.07-19.793-26.613  C241.761,292.481,242.163,289.78,242.959,287.18z M407.684,197.639c-0.547,10.807-8.25,20.384-18.647,23.301  c-4.404,1.236-9.139,1.299-13.551,0.064c-10.626-2.976-18.619-12.765-18.969-23.859c-0.317-10.047,5.786-19.898,14.916-24.102  c4.396-2.024,9.377-2.753,14.171-2.096c9.75,1.336,18.258,8.673,21.061,18.099C407.49,191.824,407.832,194.746,407.684,197.639z   M457.527,238.794c-5.929,0-11.759-1.387-17.024-3.991c0.893-1.013,1.746-2.067,2.59-3.121c0.01-0.013,0.019-0.025,0.029-0.037  c2.092-2.665,3.922-5.383,5.463-8.153c2.829,1.099,5.86,1.682,8.943,1.682c13.704,0,24.852-11.148,24.852-24.852  s-11.148-24.852-24.852-24.852c-3.084,0-6.114,0.582-8.944,1.682c-2.153-3.873-4.85-7.649-8.081-11.312  c5.264-2.603,11.096-3.989,17.025-3.989c21.213,0,38.472,17.259,38.472,38.472S478.741,238.794,457.527,238.794z M454.859,200.271  c-0.003-2.734-0.272-5.432-0.771-8.095c1.073-0.46,2.234-0.706,3.439-0.706c4.88,0,8.851,3.971,8.851,8.851  c0,4.88-3.971,8.851-8.851,8.851c-1.206,0-2.369-0.246-3.443-0.707c0.441-2.353,0.685-4.722,0.741-7.104  c0.001-0.044,0.012-0.085,0.013-0.129l0.005-0.162c0.01-0.249,0.017-0.498,0.017-0.748c0-0.009,0-0.018,0-0.026  S454.859,200.279,454.859,200.271z"/>
<g>
</g>
<g>
</g>
<g>
</g>
<g>
</g>
<g>
</g>
<g>
</g>
<g>
</g>
<g>
</g>
<g>
</g>
<g>
</g>
<g>
</g>
<g>
</g>
<g>
</g>
<g>
</g>
<g>
</g>
</svg>
