<?xml version="1.0" encoding="iso-8859-1"?>
<!-- Generator: Adobe Illustrator 19.0.0, SVG Export Plug-In . SVG Version: 6.00 Build 0)  -->
<svg xmlns="http://www.w3.org/2000/svg" xmlns:xlink="http://www.w3.org/1999/xlink" version="1.1" id="Layer_1" x="0px" y="0px" viewBox="0 0 512 512" style="enable-background:new 0 0 512 512;" xml:space="preserve">
<circle cx="302.534" cy="276.222" r="10.577"/>
<circle cx="390.127" cy="276.222" r="10.577"/>
<path d="M321.981,391.948c5.659,0,10.246-4.587,10.246-10.246v-17.478c0-5.659-4.587-10.246-10.246-10.246  c-5.659,0-10.246,4.587-10.246,10.246v17.478C311.735,387.361,316.323,391.948,321.981,391.948z"/>
<path d="M370.674,353.979c-5.659,0-10.245,4.587-10.245,10.246v17.478c0,5.659,4.587,10.246,10.245,10.246  c5.659,0,10.246-4.587,10.246-10.246v-17.478C380.92,358.566,376.333,353.979,370.674,353.979z"/>
<path d="M233.912,181.205c-3.604-3.103-9.039-2.697-12.142,0.908c-1.056,1.226-4.575,3.051-9.939,3.051  c-5.366,0-8.884-1.825-9.941-3.053c-3.103-3.605-8.539-4.011-12.142-0.909c-3.605,3.102-4.011,8.539-0.909,12.142  c4.871,5.66,13.466,9.039,22.991,9.039c9.524,0,18.118-3.379,22.989-9.037C237.922,189.744,237.517,184.307,233.912,181.205z"/>
<path d="M429.655,202.573c4.755,0,8.61-3.855,8.61-8.61c0,0,0-50.667,0-50.73c0-4.692-3.928-8.61-8.61-8.61  c-19.167,0-35.934,11.255-43.776,27.645c-5.388-3.754-11.928-5.963-18.977-5.963h-41.15c-7.05,0-13.589,2.209-18.977,5.963  c-2.479-5.18-5.855-9.838-9.91-13.799c1.335-3.722,2.034-7.661,2.034-11.665v-18.558c6.254-3.014,11.19-8.479,13.424-15.433  c4.375-13.62-3.147-28.262-16.767-32.638c-1.169-0.375-2.395-0.74-3.671-1.095C286.092,29.871,252.096,0,211.834,0  c-10.303,0-20.355,1.919-29.88,5.706c-4.419,1.756-6.577,6.763-4.82,11.182c1.756,4.419,6.762,6.576,11.182,4.82  c7.492-2.978,15.404-4.488,23.52-4.488c29.475,0,54.699,20.325,61.756,47.994c-2.683-0.428-5.486-0.824-8.375-1.192  c-34.077-4.345-68.777-4.516-102.89-0.478c-0.99,0.117-12.047,0.899-12.243,1.668c2.733-10.716,8.243-20.629,16.046-28.663  c3.313-3.411,3.233-8.863-0.178-12.175c-3.411-3.312-8.861-3.233-12.175,0.178c-11.853,12.206-19.524,27.83-21.998,44.531  c-1.279,0.356-2.508,0.722-3.678,1.099c-13.62,4.377-21.138,19.02-16.761,32.641c2.236,6.956,7.174,12.423,13.431,15.434v18.548  c0,7.269,2.258,14.017,6.102,19.591v2.023c0,14.977,4.103,29.007,11.221,41.053c-7.98,7.687-13.241,17.755-14.994,28.689  c-30.064,3.91-53.364,29.665-53.364,60.776v7.933c0,4.755,3.855,8.61,8.61,8.61c4.756,0,8.61-3.855,8.61-8.61v-7.933  c0-21.364,15.275-39.229,35.478-43.243v85.62c0,4.755,3.855,8.61,8.61,8.61h44.993L150.492,375.4h-43.761  c-8.7,0-15.777-7.077-15.777-15.777v-33.037c0-4.755-3.854-8.61-8.61-8.61c-4.755,0-8.61,3.855-8.61,8.61v33.034  c0,18.195,14.804,32.997,32.997,32.997h19.701v44.097l-50.717,61.181c-2.13,2.569-2.583,6.137-1.164,9.158  c1.419,3.02,4.455,4.948,7.793,4.948h300.722c30.438,0,55.201-24.763,55.201-55.201V285.458V223.68c0-4.755-3.855-8.61-8.61-8.61  c-4.755,0-8.61,3.855-8.61,8.61v61.778c0,3.022-0.761,6.238-2.26,9.559c-16.397,36.306-24.711,73.484-24.712,110.508v3.755  c0,11.122-9.049,20.172-20.172,20.172h-55.147c-10.362,0-18.917-7.857-20.038-17.925c-0.007-0.063-0.023-0.123-0.029-0.186  c-0.823-8.036-0.202-16.293-0.817-24.378c-0.65-8.539-1.714-17.059-3.217-25.49c-0.031-0.173-0.063-0.346-0.094-0.518  c-3.973-22.144-10.869-44.197-20.688-65.937c-1.5-3.322-2.26-6.538-2.26-9.559v-15.2c0,0,0-60.684,0-60.717v-46.748v-9.742  c11.636,3.344,20.568,13.509,22.331,25.49c0.551,3.661-1.472,7.352-1.472,11.046v17.542c0,12.913,9.908,23.494,22.556,24.09  c0.762,0.036,1.52,0.034,2.272,0c0.098-0.005,0.193-0.021,0.292-0.026c5.034-0.293,9.772-2.144,13.665-5.375  c-0.078,0.064,5.691,3.472,6.277,3.714c2.646,1.092,5.585,1.655,8.444,1.698c0.118,0.001,0.234,0.016,0.354,0.016  c5.415,0,10.848-1.942,15.074-5.428c3.958,3.286,8.791,5.15,13.943,5.398c0.757,0.036,1.518,0.038,2.285,0.002  c12.649-0.596,22.556-11.177,22.556-24.09v-17.542c0-3.435-0.576-6.824-1.573-10.104c-0.006-0.018-0.009-0.037-0.016-0.056  c1.492-12.673,10.573-22.961,22.448-26.375v40.912C421.045,198.718,424.9,202.573,429.655,202.573z M263.006,134.705  c-2.607,0.202-5.101,1.053-6.802,3.248c-3.156,4.072-1.814,11.36-1.814,16.232h-17.264c-0.164,0-0.297-0.133-0.297-0.297v-0.431  c0-13.527-11-24.737-24.52-24.99l-0.464-0.005c-13.788,0-25.005,11.405-25.005,25.424c0,0.164-0.133,0.297-0.297,0.297h-27.172  c-9.404,0-17.381-7.997-17.381-17.381c0,0,0-16.667,0.021-16.673c0.455-0.108,0.903-0.243,1.352-0.377  c0.205-0.06,0.413-0.107,0.619-0.172c21.597-6.922,45.39-6.763,67.855-6.763c11.779,0,23.565,0.336,35.3,1.38  c10.934,0.972,22.051,2.008,32.553,5.381c0.657,0.211,1.32,0.394,1.992,0.552v16.67c0,0.509-0.023,1.015-0.067,1.518  c-5.129-2.138-10.601-3.369-16.234-3.641C264.59,134.643,263.793,134.644,263.006,134.705z M260.33,314.325  c-2.029,2.435-5.735,2.768-8.165,0.745c-3.655-3.042-9.083-2.547-12.125,1.107c-3.009,3.613-2.5,9.123,1.107,12.126  c2.364,1.968,2.805,5.692,0.746,8.165c-1.103,1.325-2.728,2.085-4.455,2.088c-5.898,0.009-10.575-6.552-15.836-0.236  c-6.166,7.405,7.567,13.428,1.852,20.291c-1.104,1.326-2.73,2.087-4.461,2.088c-2.893,0.001-4.829-2.667-7.623-3.19  c-3.042-0.571-6.227,0.576-8.207,2.954c-1.34,1.61-1.993,3.562-1.993,5.505c0,4.575,4.78,6.353,5.164,10.549  c0.141,1.541-0.326,3.043-1.316,4.234c-2.024,2.435-5.743,2.768-8.167,0.75c-3.655-3.043-9.084-2.547-12.126,1.107  c-2.942,3.534-2.535,9.095,1.107,12.126c2.457,2.046,2.791,5.708,0.746,8.163c-3.09,3.713-6.492,1.207-9.835-0.346  c-3.591-1.668-7.88-0.898-10.457,2.198c-2.934,3.524-2.529,9.098,1.107,12.126c2.43,2.024,2.766,5.734,0.748,8.161  c-2.024,2.434-5.748,2.763-8.168,0.749c-1.936-1.612-3.573-3.523-4.865-5.683c-4.862-8.12-4.059-18.462,1.998-25.735l19.673-23.625  c0,0,28.246-33.92,28.247-33.923l41.58-49.933c2.14-2.569,4.812-4.578,7.785-5.95v4.523c0,5.482,1.273,11.083,3.787,16.647  C259.869,305.852,263.649,310.341,260.33,314.325z M241.828,214.682c-9.153,4.907-19.613,7.478-29.994,7.478  c-13.633,0-27.187-4.524-38.104-12.689c-0.07-0.053-0.141-0.103-0.211-0.156c-4.382-3.295-8.322-7.16-11.719-11.462  c-0.217-0.274-0.434-0.549-0.646-0.828c-5.985-7.837-10.202-17.093-12.036-27.171c0.038,0.011,0.077,0.02,0.116,0.031  c3.267,0.985,6.72,1.518,10.136,1.518h27.172c9.659,0,17.517-7.858,17.517-17.517c0-4.447,3.565-8.204,7.785-8.204l0.142,0.001  c4.203,0.079,7.623,3.566,7.623,7.773v0.43c0,9.659,7.858,17.517,17.517,17.517h17.264v34.437  C250.534,209.313,246.326,212.272,241.828,214.682z M133.369,86.575c2.433-0.782,5.156-1.515,8.124-2.201  c0.033-0.007,0.067-0.009,0.1-0.017c22.97-5.256,46.758-6.207,70.242-6.207c23.408,0,47.33,1.083,70.242,6.207  c0.032,0.007,0.065,0.009,0.098,0.016c2.965,0.684,5.685,1.417,8.115,2.198c4.581,1.472,7.11,6.396,5.639,10.976  c-1.006,3.131-3.636,5.366-6.784,5.919c-0.063,0.008-0.126,0.009-0.189,0.02c-1.318,0.207-2.73,0.108-4.003-0.3  c-3.095-0.991-6.264-1.743-9.445-2.399c-13.537-2.795-35.158-5.187-63.674-5.187c-23.91,0-50.104,0.189-73.126,7.588  c-1.296,0.417-2.679,0.507-4.024,0.316c-0.02-0.002-0.039-0.002-0.057-0.006c-3.197-0.518-5.877-2.777-6.895-5.947  C126.26,92.971,128.789,88.048,133.369,86.575z M143.652,322.699v-86.463c0-8.515,3.206-16.613,8.825-22.785  c3.686,3.964,7.796,7.552,12.192,10.709c0.208,0.149,0.417,0.298,0.626,0.445c13.177,9.293,29.226,14.775,46.54,14.775  c14.82,0,29.763-4.183,42.384-11.966c0.056-0.034,0.115-0.067,0.171-0.102v35.45c-8.162,1.988-15.556,6.543-21.018,13.102  l-38.999,46.833h-50.721V322.699z M383.064,494.78h-282.4l47.089-56.805c0.393,0.355,0.793,0.701,1.201,1.041  c4.128,3.437,9.356,5.33,14.722,5.33c6.859,0,13.309-3.022,17.695-8.289c3.395-4.075,5.243-9.083,5.329-14.311  c5.095-1.029,9.719-3.759,13.11-7.832c3.484-4.184,5.229-9.247,5.316-14.309c5.098-1.027,9.728-3.757,13.122-7.834  c3.395-4.077,5.244-9.083,5.329-14.311c5.094-1.029,9.718-3.759,13.109-7.832c3.395-4.077,5.244-9.083,5.329-14.311  c5.094-1.029,9.718-3.759,13.109-7.832c3.395-4.075,5.244-9.082,5.329-14.311c3.026-0.611,5.886-1.822,8.419-3.559  c3.607,10.97,6.436,21.982,8.485,32.998c0.036,0.193,0.07,0.386,0.106,0.579c4.595,25.046,3.9,50.465,3.9,75.805  c0,20.617,16.774,37.392,37.392,37.392h55.147c20.617,0,37.392-16.774,37.392-37.392v-29.718c0-23.939,3.072-47.843,9.753-70.85  v118.369C421.045,477.742,404.008,494.78,383.064,494.78z M373.901,446.672c6.958,0,13.948-2.003,19.835-5.717  c0.084-0.053,0.172-0.098,0.256-0.152c-0.915,10.28-9.577,18.367-20.091,18.367h-55.147c-10.515,0-19.176-8.087-20.091-18.367  c0.08,0.052,0.166,0.095,0.248,0.147c5.894,3.699,12.882,5.723,19.844,5.723h55.146V446.672z M382.966,207.128  c0,3.639-2.756,6.728-6.148,6.888c-3.363,0.162-6.374-2.386-6.75-5.732c-0.001-0.018-0.006-0.036-0.008-0.053  c-0.023-0.223-0.036-0.449-0.036-0.677c0-4.755-3.861-8.61-8.617-8.61c-4.755,0-8.61,3.855-8.61,8.61  c0,0.223-0.012,0.443-0.033,0.66c-0.332,3.259-3.093,5.81-6.437,5.81s-6.105-2.551-6.437-5.81c-0.023-0.217-0.033-0.437-0.033-0.66  c0-4.699-3.926-8.61-8.617-8.61c-4.755,0-8.61,3.855-8.61,8.61c0,0.23-0.012,0.456-0.034,0.678  c-0.001,0.011-0.005,0.024-0.006,0.036c-0.365,3.336-3.262,5.906-6.754,5.748c-3.389-0.16-6.146-3.25-6.146-6.888v-17.542  c0-8.734,7.344-16.063,16.063-16.063c0.001,0,41.129,0,41.15,0c8.585,0,16.063,7.433,16.063,16.063V207.128z"/>
<g>
</g>
<g>
</g>
<g>
</g>
<g>
</g>
<g>
</g>
<g>
</g>
<g>
</g>
<g>
</g>
<g>
</g>
<g>
</g>
<g>
</g>
<g>
</g>
<g>
</g>
<g>
</g>
<g>
</g>
</svg>
