<?xml version="1.0" encoding="iso-8859-1"?>
<!-- Generator: Adobe Illustrator 19.0.0, SVG Export Plug-In . SVG Version: 6.00 Build 0)  -->
<svg xmlns="http://www.w3.org/2000/svg" xmlns:xlink="http://www.w3.org/1999/xlink" version="1.1" id="Layer_1" x="0px" y="0px" viewBox="0 0 511.997 511.997" style="enable-background:new 0 0 511.997 511.997;" xml:space="preserve">
<path d="M355.874,14.487c-1.443-4.387-6.168-6.772-10.553-5.332c-34.401,11.308-67.629,32.33-96.091,60.793  c-34.526,34.526-58.17,76.361-66.578,117.801c-0.891,4.389-1.602,8.812-2.158,13.255c-0.356,2.84-0.829,5.638-1.299,8.462  c-2.635,15.836-10.656,64.027-46.581,99.952c-7.803,7.803-10.279,18.941-7.44,28.866C96.371,360.658,36.82,410.749,1.276,467.465  c-2.069,3.302-1.583,7.596,1.173,10.352l31.715,31.715c2.756,2.756,7.05,3.243,10.352,1.173  c56.716-35.544,106.807-95.096,129.182-123.895c9.925,2.839,21.063,0.362,28.865-7.441c12.458-12.458,27.605-22.788,45.017-30.702  c4.204-1.911,6.062-6.867,4.152-11.071c-1.911-4.203-6.867-6.063-11.071-4.152c-19.245,8.747-36.041,20.22-49.923,34.101  c-4.15,4.15-10.489,4.787-15.327,1.939c-0.031-0.019-0.058-0.041-0.089-0.06c-0.943-0.569-1.74-1.183-2.437-1.879l-28.45-28.45  c-0.697-0.697-1.311-1.493-1.878-2.436c-0.019-0.031-0.041-0.059-0.061-0.09c-2.848-4.838-2.212-11.176,1.939-15.326  c39.715-39.715,48.399-91.887,51.252-109.03c0.09-0.542,0.182-1.091,0.27-1.61l25.465,4.269  c-1.114,22.365,4.721,41.165,17.066,54.721c0.05,0.058,0.119,0.134,0.158,0.177c1.129,1.231,2.318,2.419,3.546,3.546  c0.062,0.057,0.125,0.115,0.19,0.172c13.002,11.845,30.929,17.713,52.19,17.163l1.081,6.45l3.241,19.334  c-5.206,0.867-13.386,2.277-23.142,4.77c-4.474,1.143-7.173,5.696-6.031,10.17c1.143,4.477,5.696,7.175,10.17,6.031  c9.674-2.473,17.503-3.772,22.685-4.632c7.214-1.199,14.483-1.986,21.654-3.441c41.44-8.409,83.275-32.054,117.799-66.578  s58.169-76.359,66.578-117.799c9.295-45.812-0.672-86.127-28.064-113.518C455.698,6.591,419.495-4.066,378.599,1.427  c-4.098,0.55-7.18,4.126-7.248,8.26l-0.003,0.389c0.036,4.618,3.808,8.339,8.426,8.303c1.128-0.009,2.201-0.24,3.179-0.651  c35.189-4.232,64.81,4.576,85.765,25.531c23.298,23.298,31.643,58.233,23.501,98.369c-7.763,38.256-29.787,77.073-62.015,109.301  s-71.045,54.252-109.301,62.015c-1.819,0.369-3.647,0.707-5.472,1.011l-4.184-24.96c4.366-0.739,8.781-1.719,13.221-2.922  c0.137-0.036,0.273-0.072,0.409-0.115c15.934-4.368,32.19-11.648,47.776-21.328c0.506-0.25,0.991-0.552,1.448-0.91  c13.495-8.533,26.464-18.856,38.25-30.642c25.866-25.866,44.491-56.742,52.86-87.414c0.109-0.336,0.202-0.674,0.268-1.019  c0.303-1.142,0.624-2.283,0.898-3.423c8.075-33.58,2.566-62.029-15.513-80.108c-18.079-18.079-46.529-23.588-80.108-15.512  c-1.133,0.272-2.267,0.592-3.401,0.893c-0.363,0.068-0.722,0.166-1.077,0.282c-30.661,8.374-61.523,26.996-87.379,52.851  c-29.293,29.293-49.172,64.779-55.487,98.625l-24.956-4.184c0.183-1.005,0.376-2.003,0.576-2.993  c7.762-38.256,29.786-77.073,62.015-109.301c26.62-26.62,57.566-46.238,89.49-56.732C354.928,23.598,357.315,18.873,355.874,14.487z   M134.165,352.472l25.342,25.342c-21.43,27.451-66.859,81.156-118.288,115.127l-22.179-22.18  C53.011,419.332,106.715,373.902,134.165,352.472z M443.195,140.825l4.651,4.651c-3.149,10.184-7.599,20.501-13.19,30.621  l-13.366-13.366L443.195,140.825z M409.466,174.554l16.205,16.205c-5.733,8.499-12.233,16.715-19.363,24.446l-18.747-18.747  L409.466,174.554z M375.738,208.282l18.761,18.761c-7.766,7.171-15.978,13.662-24.432,19.377l-16.233-16.233L375.738,208.282z   M342.009,242.011l13.402,13.402c-10.135,5.601-20.449,10.045-30.627,13.183l-4.68-4.68L342.009,242.011z M444.348,79.457  c5.011,7.571,7.934,17.07,8.666,27.902l-9.818,9.818l-18.284-18.284L444.348,79.457z M413.088,110.717l18.284,18.284l-21.906,21.906  l-18.284-18.284L413.088,110.717z M379.358,144.445l18.284,18.284l-21.905,21.905l-18.284-18.284L379.358,144.445z M345.63,178.173  l18.284,18.284l-21.905,21.905l-18.284-18.284L345.63,178.173z M311.902,211.902l18.284,18.284l-21.905,21.905l-18.284-18.284  L311.902,211.902z M278.173,245.63l18.284,18.284l-9.877,9.877c-10.886-0.71-20.291-3.659-27.852-8.716L278.173,245.63z   M404.622,58.965c10.832,0.734,20.332,3.655,27.902,8.667l-19.436,19.436l-18.285-18.285L404.622,58.965z M382.979,80.608  l18.285,18.285l-21.906,21.906l-18.285-18.285L382.979,80.608z M349.25,114.337l18.285,18.285l-21.905,21.905l-18.285-18.285  L349.25,114.337z M315.522,148.065l18.285,18.285l-21.905,21.905l-18.285-18.285L315.522,148.065z M281.793,181.794l18.285,18.285  l-21.905,21.905l-18.285-18.285L281.793,181.794z M248.065,215.522l18.285,18.285l-19.45,19.45  c-5.072-7.57-7.999-16.982-8.703-27.867L248.065,215.522z M366.505,64.133l4.651,4.651L349.25,90.69l-13.366-13.366  C346.004,71.733,356.321,67.283,366.505,64.133z M321.22,86.308l16.206,16.206l-21.905,21.905l-18.747-18.747  C304.506,98.541,312.722,92.04,321.22,86.308z M284.939,117.483l18.759,18.759l-21.905,21.905l-16.215-16.215  C271.296,133.456,277.785,125.238,284.939,117.483z M256.594,156.594l13.376,13.376l-21.905,21.905l-4.672-4.672  C246.537,177.035,251,166.723,256.594,156.594z"/>
<path d="M238.119,301.77c-11.334-7.018-20.893-16.575-27.908-27.909c-1.552-2.507-4.306-4.009-7.25-3.958  c-2.945,0.05-5.647,1.646-7.113,4.203c-8.367,14.601-18.065,28.387-28.822,40.975c-2.836,3.319-2.642,8.258,0.444,11.344  l18.086,18.086c3.086,3.086,8.026,3.28,11.344,0.444c12.589-10.758,26.375-20.456,40.974-28.822  c2.556-1.465,4.152-4.167,4.203-7.112C242.127,306.074,240.623,303.321,238.119,301.77z M191.99,327.296l-7.306-7.306  c6.797-8.416,13.154-17.288,19.004-26.515c4.421,5.438,9.378,10.395,14.816,14.816C209.277,314.142,200.407,320.499,191.99,327.296z  "/>
<g>
</g>
<g>
</g>
<g>
</g>
<g>
</g>
<g>
</g>
<g>
</g>
<g>
</g>
<g>
</g>
<g>
</g>
<g>
</g>
<g>
</g>
<g>
</g>
<g>
</g>
<g>
</g>
<g>
</g>
</svg>
