<?xml version="1.0" encoding="iso-8859-1"?>
<!-- Generator: Adobe Illustrator 19.0.0, SVG Export Plug-In . SVG Version: 6.00 Build 0)  -->
<svg xmlns="http://www.w3.org/2000/svg" xmlns:xlink="http://www.w3.org/1999/xlink" version="1.1" id="Layer_1" x="0px" y="0px" viewBox="0 0 512 512" style="enable-background:new 0 0 512 512;" xml:space="preserve">
<path d="M467.164,142.407c29.019-30.465,43.225-54.474,44.708-75.561c1.53-21.763-10.873-36.859-20.334-46.321  C480.885,9.874,463.8-3.731,438.567,1.066c-20.854,3.965-44.688,19.776-75.009,49.758c-3.566,3.527-3.599,9.278-0.073,12.844  c3.526,3.565,9.276,3.6,12.844,0.073c61.633-60.943,83.588-49.144,102.36-30.37c43.137,43.14-26.6,100.153-56.75,127.323  c-34.371,30.974-70.992,59.454-107.943,87.258c-0.918,0.689-1.831,1.379-2.742,2.066c-0.716,0.303-45.07-54.706-43.88-56.28  c32.854-43.5,60.455-77.557,84.295-104.018c3.357-3.728,3.058-9.47-0.668-12.828c-3.726-3.357-9.469-3.058-12.827,0.668  c-23.43,26.007-50.368,59.148-82.179,101.112c-46.82-61.752-84.055-105.575-113.657-133.773  c-30.465-29.02-54.474-43.225-75.56-44.708C45.016-1.33,29.918,11.064,20.457,20.526c-9.633,9.633-22.21,25.01-20.253,47.264  c1.64,18.645,12.924,39.205,35.513,64.704c3.325,3.754,9.066,4.103,12.821,0.776c3.755-3.327,4.103-9.067,0.776-12.822  C4.592,69.965,16.22,50.453,33.301,33.371c11.194-11.192,21.118-15.85,32.202-15.059c34.407,2.417,90.653,57.854,182.377,179.753  c17.677,23.493,35.725,46.708,54.24,69.547c0.182,0.225,0.366,0.455,0.549,0.679c0.011,0.013,0.023,0.024,0.034,0.038  c65.021,80.134,111.382,125.335,138.235,148.774l-23.906,23.906c1.561-1.691-46.682-48.64-50.179-51.992  c-28.876-27.676-59.126-53.909-90.045-79.27c-13.663-11.207-27.472-22.237-41.398-33.117c-0.034-0.027-0.068-0.053-0.102-0.08  c-54.451-42.611-111.16-82.633-161.205-130.572c-3.623-3.47-9.372-3.344-12.842,0.28c-3.468,3.623-3.342,9.373,0.281,12.842  c29.271,28.02,70.332,61.83,125.529,103.365c0.741,0.557,1.468,1.108,2.204,1.663C126.47,340.821,82.142,383.39,58.17,404.224  c0.645-0.562-10.37-7.064-11.43-7.484c-12.552-4.971-27.213-1.907-36.744,7.623c-13.32,13.321-13.32,34.995,0,48.318  c0,0,49.353,49.352,49.378,49.377c13.165,13.165,35.166,13.152,48.318,0c13.115-13.115,13.168-34.995,0.139-48.172  c21.682-24.947,66.489-71.474,148.167-137.677c80.623,65.339,125.379,111.433,148.161,137.675  c-0.625-0.721-7.328,10.979-7.746,12.103c-4.614,12.417-1.474,26.718,7.88,36.072c13.177,13.176,35.151,13.165,48.319,0  l49.378-49.378c13.321-13.321,13.321-34.996,0-48.316c-13.118-13.117-35.001-13.163-48.176-0.137  c-25.354-22.012-69.239-64.536-131.107-140.099c0.736-0.556,1.467-1.108,2.208-1.665  C391.163,212.619,437.692,173.347,467.164,142.407z M94.851,489.217c-6.171,6.17-16.469,6.161-22.629,0l-49.378-49.376  c-6.238-6.239-6.238-16.39,0-22.628c6.167-6.167,16.471-6.159,22.629,0c0,0,49.334,49.334,49.378,49.378  C101.012,472.752,101.001,483.069,94.851,489.217z M94.955,441.005l-11.949-11.949l-11.949-11.949  c28.091-24.479,72.053-67.85,132.7-141.982c12.933,9.89,25.531,19.718,37.628,29.349c0.042,0.034,0.085,0.068,0.127,0.102  C201.772,336.941,138.414,391.132,94.955,441.005z M466.521,417.212c6.171-6.171,16.46-6.169,22.628-0.001  c6.239,6.239,6.239,16.39,0,22.629c0,0-49.328,49.326-49.378,49.377c-6.17,6.17-16.469,6.162-22.628,0  c-9.993-9.995-1.98-20.644,5.783-28.41C437.454,446.274,451.988,431.744,466.521,417.212z"/>
<g>
</g>
<g>
</g>
<g>
</g>
<g>
</g>
<g>
</g>
<g>
</g>
<g>
</g>
<g>
</g>
<g>
</g>
<g>
</g>
<g>
</g>
<g>
</g>
<g>
</g>
<g>
</g>
<g>
</g>
</svg>
