<?xml version="1.0" encoding="iso-8859-1"?>
<!-- Generator: Adobe Illustrator 19.0.0, SVG Export Plug-In . SVG Version: 6.00 Build 0)  -->
<svg xmlns="http://www.w3.org/2000/svg" xmlns:xlink="http://www.w3.org/1999/xlink" version="1.1" id="Layer_1" x="0px" y="0px" viewBox="0 0 512.002 512.002" style="enable-background:new 0 0 512.002 512.002;" xml:space="preserve">
<path d="M440.88,191.177V35.6c0-4.577-3.71-8.286-8.286-8.286h-90.383c-4.576,0-8.286,3.709-8.286,8.286v22.222  c-21.091-11.344-48.604-17.679-77.924-17.679c-8.831,0-17.643,0.587-26.189,1.743c-4.534,0.615-7.712,4.788-7.099,9.322  c0.614,4.535,4.787,7.713,9.322,7.1c7.812-1.058,15.875-1.594,23.965-1.594c30.153,0,58.893,7.587,77.924,20.436  c0,22.425-0.027,44.852-0.027,67.277c0,0.177,0.015,0.35,0.027,0.524c0,10.049,0.963,19.86-5.372,28.386  c-5.112,6.879-13.328,11.036-21.902,11.036h-67.222c0,0-34.064,0-34.078,0c-14.659,0-27.275-12.382-27.275-27.275  c0,0,0-12.66,0-12.671c0-22.426,0-44.853,0-67.279c6.425-4.342,13.99-8.114,22.548-11.24c4.299-1.57,6.51-6.328,4.94-10.625  c-1.57-4.299-6.329-6.507-10.625-4.94c-6.035,2.204-11.663,4.717-16.864,7.505V35.6c0-4.577-3.71-8.286-8.286-8.286H79.407  c-4.576,0-8.286,3.709-8.286,8.286v56.904v51.923v46.75c0,15.04-12.235,27.275-27.275,27.275c-23.666,0-43,18.85-43.808,42.322  C0.017,261.024,0,261.275,0,261.53c0,0,0,0.747,0,0.768v110.812v39.771v33.147c0,12.914,14.884,22.582,45.503,29.557  c25.773,5.87,59.914,9.103,96.135,9.103c36.22,0,70.361-3.234,96.134-9.103c6.875-1.567,12.95-3.269,18.248-5.113  c21.694,7.543,55.791,12.576,94.373,13.879c4.58,0.164,8.406-3.429,8.561-8.002c0.155-4.573-3.428-8.406-8.002-8.561  c-28.172-0.949-54.336-4.039-73.958-8.583c1.154,0.265,4.133-5.138,4.501-5.857c1.149-2.248,1.782-4.792,1.782-7.32v-14.044H309.3  c4.576,0,8.286-3.709,8.286-8.286v-2.532h177.845v24.647c-0.43,0.762-4.806,7.175-31.852,13.439  c-21.277,4.928-49.67,8.024-79.952,8.714c-4.575,0.105-8.198,3.898-8.094,8.472c0.103,4.511,3.791,8.097,8.28,8.097  c0.064,0,0.128-0.001,0.192-0.002c33.311-0.76,64.217-4.322,87.022-10.03c27.572-6.9,40.975-16.215,40.975-28.475v-33.147v-39.771  v-71.808V262.3v-0.768c0-0.263-0.015-0.521-0.04-0.778c-0.819-23.463-20.148-42.3-43.806-42.3  C453.115,218.452,440.88,206.217,440.88,191.177z M350.496,72.887V43.886h73.811v40.333h-73.811L350.496,72.887L350.496,72.887z   M350.496,100.789h73.786v35.352h-73.786V100.789z M87.693,43.886h73.811v29.001v11.332H87.693V43.886z M87.693,100.789h73.811  v35.352H87.693V100.789z M16.571,269.815H88.97c4.576,0,8.286-3.709,8.286-8.286s-3.71-8.286-8.286-8.286H18.122  c3.743-10.601,13.857-18.221,25.724-18.221c24.177,0,43.846-19.67,43.846-43.846v-38.464h73.811v4.386  c0,2.267,0.172,4.494,0.506,6.668c3.221,21.023,21.43,37.178,43.34,37.178l0,0h34.078c11.75,0,21.788,7.468,25.617,17.906  c1.072,2.923,1.657,6.078,1.657,9.368v14.207h-57.999c-4.576,0-8.286,3.709-8.286,8.286v2.532h-78.307  c-4.576,0-8.286,3.709-8.286,8.286s3.71,8.286,8.286,8.286h78.307v23.2H16.571V269.815z M274.99,258.998h26.023v2.532v39.771v2.532  H274.99h-57.999v-2.532V261.53v-2.532L274.99,258.998L274.99,258.998z M16.571,309.586H200.42v2.532c0,4.577,3.71,8.286,8.286,8.286  h57.999v33.602h-57.999c-4.576,0-8.286,3.709-8.286,8.286v2.532H16.571V309.586z M16.571,381.395H200.42v23.2H16.571V381.395z   M266.704,445.812c-0.202,0.367-1.299,2.013-5.394,4.335c-5.188,2.903-14.651,6.66-30.827,10.07  c-24.163,5.094-55.715,7.899-88.845,7.899s-64.683-2.805-88.846-7.899c-26.981-5.687-35.302-12.346-36.221-14.385v-24.666H200.42  v2.532c0,4.577,3.71,8.286,8.286,8.286h57.999V445.812z M301.012,373.109v39.771v2.532h-26.023H216.99v-2.532v-39.771v-2.532h57.999  h26.023V373.109z M495.429,364.824h-36.737c-4.576,0-8.286,3.709-8.286,8.286s3.71,8.286,8.286,8.286h36.737v23.2H317.583v-23.2  h107.966c4.576,0,8.286-3.709,8.286-8.286s-3.71-8.286-8.286-8.286H317.583v-2.532c0-4.577-3.71-8.286-8.286-8.286h-26.023v-33.602  h26.023c4.576,0,8.286-3.709,8.286-8.286v-2.532h177.845V364.824z M495.429,293.015H317.583v-23.2h177.845V293.015z   M493.878,253.244H317.583v-2.532c0-4.577-3.71-8.286-8.286-8.286h-26.023v-14.207c0-9.781-3.437-19.621-9.538-27.274h32.914  c24.176,0,43.845-19.67,43.845-43.846v-4.386h73.811v38.464c0,24.177,19.669,43.846,43.845,43.846  C480.021,235.024,490.135,242.643,493.878,253.244z"/>
<g>
</g>
<g>
</g>
<g>
</g>
<g>
</g>
<g>
</g>
<g>
</g>
<g>
</g>
<g>
</g>
<g>
</g>
<g>
</g>
<g>
</g>
<g>
</g>
<g>
</g>
<g>
</g>
<g>
</g>
</svg>
