<?xml version="1.0" encoding="iso-8859-1"?>
<!-- Generator: Adobe Illustrator 19.0.0, SVG Export Plug-In . SVG Version: 6.00 Build 0)  -->
<svg xmlns="http://www.w3.org/2000/svg" xmlns:xlink="http://www.w3.org/1999/xlink" version="1.1" id="Layer_1" x="0px" y="0px" viewBox="0 0 512.001 512.001" style="enable-background:new 0 0 512.001 512.001;" xml:space="preserve">
<circle cx="263.854" cy="126.254" r="7.615"/>
<circle cx="313.238" cy="126.254" r="7.615"/>
<path d="M266.952,155.826c4.569,5.31,12.643,8.48,21.596,8.48c8.951,0,17.022-3.169,21.593-8.477  c2.858-3.319,2.484-8.328-0.835-11.185c-3.319-2.858-8.328-2.484-11.185,0.835c-1.026,1.192-4.421,2.964-9.572,2.964  s-8.547-1.772-9.572-2.964c-2.857-3.319-7.865-3.695-11.185-0.838C264.47,147.498,264.095,152.505,266.952,155.826z"/>
<path d="M177.62,425.849c18.013,10.382,39.522,10.382,57.535,0c13.054-7.523,28.639-7.524,41.693,0  c18.013,10.382,39.522,10.382,57.535,0c3.795-2.188,5.098-7.038,2.91-10.832c-2.188-3.795-7.038-5.097-10.832-2.911  c-13.054,7.525-28.639,7.524-41.693,0c-18.014-10.385-39.523-10.383-57.535,0c-13.053,7.525-28.639,7.524-41.691,0  c-18.014-10.385-39.523-10.383-57.536,0c-13.054,7.525-28.639,7.524-41.691,0c-18.014-10.385-39.523-10.383-57.535,0L3.971,426.404  c-3.794,2.188-5.098,7.038-2.91,10.833c1.468,2.547,4.136,3.972,6.879,3.972c1.344,0,2.705-0.343,3.953-1.061L36.7,425.849  c13.054-7.523,28.639-7.524,41.693,0c18.013,10.382,39.522,10.382,57.535,0C148.98,418.325,164.566,418.325,177.62,425.849z"/>
<path d="M508.029,426.404l-24.807-14.298c-18.013-10.383-39.522-10.383-57.535,0c-13.054,7.524-28.639,7.524-41.693,0  c-3.795-2.188-8.645-0.884-10.832,2.911c-2.188,3.794-0.884,8.644,2.91,10.832c18.013,10.382,39.522,10.381,57.535,0  c13.054-7.524,28.639-7.524,41.693,0l24.807,14.298c1.248,0.719,2.61,1.061,3.953,1.061c2.743,0,5.411-1.426,6.879-3.972  C513.127,433.442,511.823,428.592,508.029,426.404z"/>
<path d="M86.313,454.49c-18.014-10.383-39.523-10.383-57.535,0L3.971,468.789c-3.794,2.188-5.098,7.038-2.91,10.833  c1.468,2.547,4.136,3.972,6.879,3.972c1.344,0,2.705-0.343,3.953-1.061L36.7,468.233c13.054-7.523,28.639-7.523,41.693,0  c3.795,2.19,8.645,0.883,10.832-2.91C91.411,461.527,90.108,456.677,86.313,454.49z"/>
<path d="M508.029,468.789l-24.807-14.298c-18.013-10.383-39.522-10.383-57.535,0c-13.054,7.525-28.639,7.524-41.693,0  c-18.013-10.382-39.522-10.382-57.535,0c-13.054,7.525-28.639,7.524-41.693,0c-18.014-10.382-39.523-10.383-57.535,0  c-13.053,7.525-28.639,7.524-41.693,0c-18.012-10.382-39.522-10.382-57.535,0c-3.794,2.188-5.098,7.038-2.91,10.833  c2.187,3.794,7.037,5.096,10.832,2.91c13.054-7.524,28.639-7.524,41.693,0c18.013,10.382,39.522,10.382,57.535,0  c13.053-7.524,28.639-7.524,41.691,0c18.013,10.382,39.522,10.382,57.535,0c13.053-7.523,28.639-7.524,41.691,0  c18.013,10.382,39.521,10.381,57.535,0c13.053-7.524,28.639-7.524,41.691,0l24.807,14.298c1.248,0.719,2.61,1.061,3.953,1.061  c2.743,0,5.411-1.426,6.879-3.972C513.127,475.826,511.823,470.976,508.029,468.789z"/>
<path d="M11.893,397.764c0,0,24.802-14.296,24.807-14.298c12.846-7.406,28.86-7.397,41.693,0c18.013,10.382,39.522,10.382,57.535,0  c12.749-7.348,28.81-7.426,41.693,0c7.099,4.092,15.055,6.708,23.215,7.513c11.873,1.173,23.997-1.563,34.32-7.513  c6.294-3.628,13.572-5.643,20.846-5.643c9.878,0,17.165,4.249,25.814,8.197c8.81,4.022,18.614,5.732,28.266,4.979  c16.113-1.255,28.915-13.142,45.177-13.144c7.261,0.005,14.458,1.945,20.817,5.611c10.021,5.777,21.664,8.523,33.209,7.612  c5.917-0.467,11.748-1.875,17.236-4.129c8.89-3.652,16.197-8.597,26.127-9.032c0.195-0.008,0.386-0.031,0.578-0.054  c7.568-0.228,15.176,1.625,22.076,5.603l24.807,14.298c1.248,0.719,2.61,1.061,3.953,1.061c2.743,0,5.411-1.426,6.879-3.972  c2.188-3.795,0.884-8.645-2.91-10.833l-24.807-14.298c-4.959-2.858-10.184-4.925-15.526-6.21c11.57-16.74,17.83-36.593,17.83-57.257  c0-4.38-3.551-7.931-7.931-7.931h-75.564l14.246-26.986c5.446-0.98,10.872-2.119,16.275-3.419  c19.843-4.772,32.102-24.799,27.33-44.642c-1.56-6.485-4.766-12.292-9.272-16.974l2.473-4.687  c6.125-11.602,1.67-26.024-9.931-32.149c-3.414-1.803-7.249-2.756-11.094-2.756c-8.856,0-16.926,4.862-21.058,12.689l-10.299,19.507  c-22.448,3.774-45.209,3.889-67.857,0.313c-6.298-0.994-12.512-2.277-18.642-3.815c20.602-12.446,34.056-35.079,34.056-60.219  v-21.591h16.726c11.84,0,21.471-9.632,21.471-21.471s-9.632-21.471-21.471-21.471h-22.579  c-10.851-24.837-35.643-42.246-64.434-42.246c-38.756,0-70.287,31.53-70.287,70.287c0,0,0,6.965,0,6.97v29.522  c0,5.686,0.694,11.375,2.062,16.909c0.003,0.013,0.008,0.025,0.012,0.038c0.004,0.018,0.007,0.035,0.012,0.053l0.111,0.425  c0.11,0.434,0.245,0.865,0.365,1.299c-10.094,1.779-19.411,7.696-25.17,17.104c-4.196,6.854-5.878,14.547-5.326,22.007  l-73.54,104.38c-0.208,0.295-0.387,0.605-0.551,0.921H48.222c-4.38,0-7.931,3.551-7.931,7.931c0,19.901,5.965,39.294,16.798,55.687  c-9.729,0.079-19.443,2.668-28.311,7.779l-24.807,14.3c-3.794,2.188-5.098,7.038-2.91,10.833  C3.248,398.647,8.097,399.951,11.893,397.764z M393.656,314.187h75.641c-1.65,17.792-8.83,34.535-20.673,48.054  c-6.909,0.717-13.73,2.716-20.167,5.987c-0.085,0.042-0.168,0.087-0.253,0.13c-11.642,5.981-23.694,9.111-36.504,4.814  c-4.041-1.356-7.683-3.602-11.5-5.451c-3.98-1.929-8.176-3.409-12.491-4.384l8.737-16.55L393.656,314.187z M396.857,274.147  l-23.712,44.916l-22.747,43.087c-7.197,0.618-14.318,2.619-21.023,6.005c-0.037,0.018-0.075,0.034-0.111,0.053l48.9-92.629  c6.163-0.267,12.318-0.739,18.456-1.409C396.698,274.163,396.778,274.156,396.857,274.147z M432.059,182.576  c1.29,0,2.53,0.309,3.686,0.92c3.867,2.042,5.353,6.849,3.311,10.717l-1.708,3.235c-1.859-0.729-15.381-4.837-16.674-2.392  l4.355-8.248C426.406,184.197,429.1,182.576,432.059,182.576z M332.397,135.188c0,25.124-17.342,47.019-41.544,52.886  c-0.431-0.164-0.863-0.328-1.294-0.495c-18.215-6.83-34.508-17.122-51.02-27.23c-3.593-2.201-7.166-4.246-11.236-5.451  c-0.02-0.005-0.039-0.014-0.058-0.019c-0.112-0.287-0.22-0.573-0.328-0.861c0.098-0.06,0.191-0.127,0.289-0.188  c11.098-6.934,20.102-17.038,25.77-28.83c1.709-3.555,3.104-7.26,4.175-11.057c0.033-0.115,0.072-0.228,0.104-0.344h75.144v21.59  H332.397z M240.41,114.072c-3.341,8.789-9.075,16.676-16.393,22.579c-0.144,0.116-0.292,0.227-0.438,0.342  c-0.02-0.602-0.031-1.203-0.031-1.806v-21.591H240.6C240.541,113.758,240.47,113.912,240.41,114.072z M347.197,86.517h17.789  c3.093,0,5.609,2.516,5.609,5.609c0,3.093-2.516,5.609-5.609,5.609h-16.733c-0.027-2.049-0.137-4.11-0.358-6.148  C347.711,89.895,347.491,88.194,347.197,86.517z M277.973,44.271c23.935,0,44.302,15.535,51.571,37.048  c1.722,5.111,2.682,10.492,2.824,15.885c0.004,0.177,0.007,0.353,0.011,0.531H223.557C224.071,68.165,248.284,44.271,277.973,44.271  z M198.604,179.298c4.788-7.822,13.877-11.408,22.381-9.633c9.439,1.972,18.041,9.615,26.154,14.548  c25.488,15.495,53.754,26.023,83.233,30.677c28.596,4.515,57.801,3.41,86.03-2.922c12.065-2.706,24.936,2.04,28.058,15.02  c2.727,11.339-4.279,22.783-15.617,25.51c-27.525,6.621-56.121,8.9-84.344,6.63c-4.367-0.351-8.189,2.906-8.539,7.272  c-0.35,4.366,2.906,8.189,7.272,8.539c5.628,0.452,11.258,0.733,16.887,0.848l-11.898,22.537h-83.469l24.203-33.057  c7.132,1.989,14.349,3.72,21.656,5.157c4.299,0.845,8.467-1.953,9.312-6.252c0.845-4.298-1.954-8.467-6.252-9.312  c-32.397-6.371-61.966-19.396-90.517-35.697c-7.985-4.559-17.493-8.406-23.237-15.915  C194.653,196.368,194.069,186.706,198.604,179.298z M123.56,314.187h47.57c4.381,0,7.931-3.551,7.931-7.931  c0-4.38-3.55-7.931-7.931-7.931h-46.063l-0.079-0.031l61.22-86.895c0.042,0.06,0.088,0.118,0.131,0.179  c5.786,8.237,14.828,12.688,23.191,17.807c19.941,12.208,40.418,22.922,62.554,30.61c0.283,0.098,0.564,0.207,0.848,0.305  l-27.84,38.025h-42.234c-4.38,0-7.931,3.551-7.931,7.931c0,4.38,3.551,7.931,7.931,7.931h46.258h90.731l-32.248,61.086  c-2.985,0.15-5.951-0.023-8.882-0.514c-6.126-1.027-11.386-3.876-16.948-6.646c-5.696-2.838-11.867-4.698-18.176-5.522  c-12.487-1.631-25.435,0.836-36.357,7.133c-13.054,7.523-28.639,7.524-41.693,0c-18.013-10.382-39.522-10.382-57.535,0  c-13.054,7.523-28.639,7.523-41.694-0.001c-0.019-0.011-0.039-0.021-0.058-0.032c-1.282-0.737-2.582-1.416-3.897-2.047  c-14.751-14.147-23.916-33.239-25.829-53.456L123.56,314.187L123.56,314.187z"/>
<g>
</g>
<g>
</g>
<g>
</g>
<g>
</g>
<g>
</g>
<g>
</g>
<g>
</g>
<g>
</g>
<g>
</g>
<g>
</g>
<g>
</g>
<g>
</g>
<g>
</g>
<g>
</g>
<g>
</g>
</svg>
