<?xml version="1.0" encoding="iso-8859-1"?>
<!-- Generator: Adobe Illustrator 19.0.0, SVG Export Plug-In . SVG Version: 6.00 Build 0)  -->
<svg xmlns="http://www.w3.org/2000/svg" xmlns:xlink="http://www.w3.org/1999/xlink" version="1.1" id="Layer_1" x="0px" y="0px" viewBox="0 0 511.996 511.996" style="enable-background:new 0 0 511.996 511.996;" xml:space="preserve">
<path d="M245.675,156.81c31.28,0,61.263,3.132,89.12,9.308c4.663,1.033,9.282-1.91,10.316-6.571  c1.033-4.663-1.909-9.283-6.572-10.316c-29.084-6.449-60.328-9.719-92.864-9.719c-41.338,0-81.373,5.4-115.78,15.615  c-24.362,7.233-45.399,16.798-60.836,27.662c-2.43,1.71-3.811,4.547-3.66,7.514c0.34,6.683,1.004,13.32,1.971,19.728  c3.649,24.176,11.299,43.018,22.123,54.486c9.115,9.657,20.952,14.351,36.186,14.351c18.185,0,31.224-2.979,39.86-9.105  c7.109-5.043,11.563-12.486,16.72-21.104c9.833-16.433,24.694-41.265,63.129-42.545l0.864-0.029l0.864,0.029  c38.435,1.279,53.295,26.112,63.128,42.544c5.156,8.619,9.609,16.061,16.72,21.105c8.637,6.127,21.676,9.105,39.862,9.105  c15.179,0,26.982-4.659,36.083-14.243c7.907-8.327,21.561-28.944,24.159-73.464c0.172-2.951-1.175-5.785-3.572-7.516  c-12.731-9.191-29.812-17.645-49.392-24.448c-4.511-1.561-9.441,0.819-11.008,5.332c-1.567,4.511,0.819,9.441,5.331,11.008  c16.031,5.569,30.103,12.243,41.033,19.438c-2.15,25.925-9.173,47.291-19.094,57.738c-5.815,6.126-13.076,8.856-23.54,8.856  c-17.781,0-26.049-3.217-29.853-5.917c-3.943-2.798-7.085-7.857-11.886-15.879c-10.322-17.249-29.535-49.356-77.396-50.95  l-1.151-0.038c-0.191-0.007-0.384-0.007-0.575,0l-1.151,0.038c-47.86,1.595-67.074,33.701-77.396,50.951  c-4.801,8.023-7.943,13.082-11.886,15.878c-3.804,2.7-12.071,5.917-29.852,5.917c-10.5,0-17.78-2.754-23.608-8.927  c-8.393-8.893-14.478-24.521-17.598-45.194c-0.649-4.3-1.149-8.718-1.491-13.186c13.524-8.712,31.323-16.466,51.836-22.557  C167.648,161.963,205.982,156.81,245.675,156.81z"/>
<path d="M494.211,62.748l2.717,0.339c0.357,0.044,0.716,0.067,1.072,0.067c4.311,0,8.048-3.304,8.582-7.576  c0,0,4.518-36.182,4.522-36.205c0.585-4.68-2.839-9.07-7.511-9.654l-77.288-9.652c-4.737-0.586-9.062,2.771-9.654,7.511  l-4.522,36.204c-0.592,4.74,2.771,9.062,7.511,9.654l2.717,0.339c0,0-7.823,62.639-7.823,62.645l-2.589,20.725  c-43.532-20.398-102.626-32.224-166.27-32.224c-36.909,0-72.267,3.907-105.088,11.609c-4.65,1.091-7.535,5.746-6.444,10.397  c1.092,4.65,5.745,7.53,10.397,6.444c31.528-7.4,65.554-11.152,101.135-11.152c65.585,0,127.405,13.486,169.098,35.746  c0.048,0.028,0.091,0.063,0.141,0.09c10.519,5.642,20.632,12.221,29.469,20.284c0.082,0.074,0.169,0.148,0.25,0.221  c1.272,1.165-0.18,10.531-0.265,12.243c-0.303,6.094-0.848,12.179-1.65,18.228c-1.996,15.044-5.527,30.068-11.84,43.921  c-0.053,0.116-0.105,0.234-0.159,0.351c-5.483,11.948-13.403,23.19-24.085,31.028c-11.486,8.427-25.723,11.84-39.81,11.84  c-48.31,0-59.537-18.762-71.424-38.625c-9.305-15.548-19.852-33.173-48.861-34.138c-0.193-0.007-0.383-0.007-0.575,0  c-29.009,0.965-39.556,18.589-48.861,34.138c-11.887,19.864-23.114,38.625-71.424,38.625c-20.236,0-36.177-6.458-48.733-19.741  c-3.194-3.379-6.023-7.092-8.559-11.017c-3.298-5.111-6.069-10.593-8.401-16.24c-0.108-0.264-0.214-0.528-0.322-0.793  c-8.953-22.188-12.151-47.04-11.782-70.872c14.95-13.319,36.618-25.162,62.943-34.378c4.509-1.579,6.883-6.512,5.306-11.021  c-1.578-4.507-6.511-6.884-11.021-5.307c-30.175,10.563-54.978,24.584-71.73,40.548c-1.587,1.514-2.542,3.574-2.667,5.762  c-0.052,0.89-0.401,7.651,0.05,17.762c-8.41,1.652-16.037,6.224-21.579,13.114c-7.21,8.965-9.933,20.536-7.471,31.743  c2.317,10.548,5.321,20.596,8.931,29.864c5.105,13.109,17.443,21.58,31.433,21.58c6.043,0,11.951-1.678,17.151-4.831  c1.612,2.041,3.312,4.019,5.107,5.922c15.785,16.722,36.423,25.201,61.345,25.201c58.116,0,73.725-26.082,86.266-47.04  c8.994-15.029,14.949-24.983,34.307-25.723c19.357,0.739,25.312,10.692,34.307,25.723c12.541,20.958,28.15,47.04,86.266,47.04  c8.305,0,16.122-0.963,23.454-2.838l-10.689,85.581c-1.635,13.1-8.294,24.793-18.747,32.925  c-10.452,8.133-23.424,11.717-36.525,10.073c-13.1-1.635-24.793-8.292-32.924-18.747c-8.132-10.452-11.709-23.424-10.073-36.525  l1.736-13.899c10.41-4.065,19.358-10.501,25.726-18.815c9.366-12.23,7.035-29.801-5.195-39.167  c-4.918-3.767-10.787-5.758-16.971-5.758c-8.682,0-16.693,3.907-22.025,10.731c-0.678,0.528-3.547,2.068-8.42,2.068  c-1.017,0-2.073-0.068-3.139-0.201c-6.696-0.836-10.071-3.772-10.754-4.668c-4.513-10.003-14.484-16.451-25.475-16.451  c-3.886,0-7.669,0.798-11.246,2.373c-14.1,6.206-20.523,22.725-14.318,36.826c4.173,9.481,11.127,17.688,19.971,24.03l-1.744,13.958  c-4.03,32.269,4.775,64.213,24.793,89.945c20.018,25.732,48.815,42.123,81.083,46.153c5.023,0.627,10.064,0.939,15.093,0.939  c16.732-0.001,33.34-3.449,48.735-10.191c4.375-1.915,6.369-7.016,4.454-11.391c-1.915-4.376-7.016-6.37-11.391-4.454  c-17.172,7.52-36.102,10.26-54.747,7.931c-27.684-3.457-52.393-17.525-69.574-39.611s-24.74-49.495-21.282-77.179l0.92-7.371  c-0.167,1.342,15.373,4.159,17.095,4.402c6.744,0.952,13.653,1.098,20.425,0.329l-0.914,7.326  c-2.209,17.685,2.615,35.191,13.584,49.291c10.969,14.1,26.749,23.082,44.434,25.29c17.69,2.208,35.19-2.617,49.29-13.584  c14.1-10.97,23.082-26.749,25.29-44.434l11.85-94.888c7.17-3.924,13.704-8.991,19.565-15.201c1.285-1.361,2.491-3.391,3.968-4.505  c1.972-1.486,1.764-0.916,4.133,0.224c3.927,1.89,8.176,2.848,12.507,3.154c-1.963,11.821-3.019,23.965-4.508,35.884  c-2.514,20.128-5.028,40.256-7.542,60.384c-0.818,6.544-1.635,13.09-2.452,19.634c-3.149,25.222-15.389,48.409-34.462,65.291  c-3.577,3.165-3.91,8.631-0.745,12.209c3.167,3.577,8.633,3.909,12.209,0.745c22.227-19.674,36.491-46.7,40.162-76.1l15.264-122.194  c6.762-3.733,12.187-9.77,15.156-17.393c3.608-9.267,6.613-19.314,8.931-29.864c2.461-11.208-0.263-22.777-7.473-31.742  c-1.797-2.235-3.815-4.223-6.005-5.95l9.073-72.651L494.211,62.748z M42.075,269.876c-6.7,0-12.854-4.244-15.314-10.56  c-3.287-8.435-6.03-17.62-8.154-27.297c-1.332-6.066,0.146-12.332,4.057-17.194c2.523-3.138,5.841-5.375,9.525-6.508  c2.156,18.037,6.988,40.203,17.543,59.559C47.374,269.187,44.746,269.876,42.075,269.876z M271.248,355.742  c-15.35,4.091-32.704,1.745-46.352-6.427c-0.046-0.028-0.095-0.046-0.141-0.073c-8.016-4.817-14.249-11.435-17.681-19.237  c-2.364-5.369,0.083-11.662,5.453-14.026c1.367-0.601,2.806-0.906,4.277-0.906c4.222,0,8.048,2.497,9.748,6.357  c2.685,6.104,11.251,12.994,24.338,14.629c1.774,0.22,3.551,0.333,5.283,0.333c9.34,0,17.967-3.387,21.982-8.626  c2.031-2.652,5.117-4.172,8.464-4.172c2.349,0,4.58,0.758,6.454,2.192c4.659,3.568,5.547,10.26,1.979,14.919  C289.545,347.891,281.121,353.111,271.248,355.742z M428.316,145.643l2.311-18.505l18.762,2.343l18.762,2.343l-6.183,49.511  c0.009-4.512-0.133-7.413-0.173-8.137c-0.001-0.015-0.001-0.024-0.002-0.037c-0.001-0.016-0.002-0.04-0.002-0.054  c-0.292-4.553-4.383-7.128-7.709-9.551c-4.284-3.12-8.307-6.566-12.658-9.607C440.107,153.033,428.226,146.399,428.316,145.643z   M473.896,232.019c-2.125,9.679-4.87,18.861-8.154,27.298c-1.799,4.618-5.576,8.121-10.094,9.673  c-1.078,0.367-2.174,0.622-3.275,0.755c-0.058,0.007-0.115,0.014-0.174,0.021c-3.079,0.341-6.312-0.281-9.059-1.712  c-0.12-0.062-0.238-0.133-0.357-0.198c10.547-19.351,15.376-41.507,17.532-59.537c0.906,0.279,1.792,0.624,2.648,1.034  c0.016,0.008,0.033,0.017,0.05,0.025c2.602,1.256,4.937,3.101,6.827,5.45C473.749,219.689,475.228,225.955,473.896,232.019z   M470.296,114.66l-16.416-2.05l-21.108-2.636l6.751-54.056l37.525,4.685L470.296,114.66z M430.366,37.341l2.378-19.039l60.124,7.508  l-2.378,19.04L430.366,37.341z"/>
<g>
</g>
<g>
</g>
<g>
</g>
<g>
</g>
<g>
</g>
<g>
</g>
<g>
</g>
<g>
</g>
<g>
</g>
<g>
</g>
<g>
</g>
<g>
</g>
<g>
</g>
<g>
</g>
<g>
</g>
</svg>
