<?xml version="1.0" encoding="iso-8859-1"?>
<!-- Generator: Adobe Illustrator 19.0.0, SVG Export Plug-In . SVG Version: 6.00 Build 0)  -->
<svg xmlns="http://www.w3.org/2000/svg" xmlns:xlink="http://www.w3.org/1999/xlink" version="1.1" id="Layer_1" x="0px" y="0px" viewBox="0 0 512.001 512.001" style="enable-background:new 0 0 512.001 512.001;" xml:space="preserve">
<path d="M152.996,145.054c4.292,0.783,8.421-2.048,9.214-6.346c1.15-6.236,1.733-12.674,1.733-19.135  c0-39.817-20.982-71.006-47.767-71.006S68.41,79.757,68.41,119.574s20.982,71.007,47.766,71.007  c11.534,0,22.612-6.023,31.193-16.959c2.697-3.438,2.097-8.411-1.341-11.107c-3.438-2.699-8.41-2.098-11.107,1.341  c-3.904,4.974-10.324,10.904-18.746,10.904c-17.315,0-31.944-25.271-31.944-55.185c0-29.913,14.629-55.184,31.944-55.184  c17.316,0,31.945,25.271,31.945,55.184c0,5.501-0.495,10.973-1.47,16.265C145.859,140.136,148.7,144.262,152.996,145.054z"/>
<path d="M207.037,473.651c0,9.047-10.35,16.69-22.6,16.69c-12.25,0-22.6-7.643-22.6-16.69c0-4.37-3.542-7.911-7.911-7.911  c-4.369,0-7.911,3.541-7.911,7.911c0,12.421-13.385,22.527-29.839,22.527s-29.839-10.106-29.839-22.527  c0-4.37-3.542-7.911-7.911-7.911c-4.369,0-7.911,3.541-7.911,7.911c0,9.047-10.35,16.69-22.6,16.69s-22.6-7.643-22.6-16.69  c0-0.23-0.011-0.461-0.031-0.689c-0.017-0.199-1.75-20.243-2.617-49.537c-0.129-4.368-3.748-7.807-8.142-7.674  c-4.367,0.13-7.802,3.775-7.672,8.142c0.821,27.731,2.413,47.379,2.643,50.121c0.231,17.76,17.378,32.149,38.419,32.149  c11.973,0,22.684-4.658,29.735-11.945c8.113,10.684,22.35,17.783,38.524,17.783s30.41-7.099,38.524-17.783  c7.052,7.286,17.764,11.945,29.736,11.945c21.04,0,38.184-14.384,38.419-32.141c1.007-11.709,15.993-195.938-28.353-276.666  c5.171-18.096,7.901-37.986,7.901-58.537c0-36.376-8.545-70.692-24.061-96.627c-16.277-27.207-38.356-42.191-62.168-42.191  C90.932,0,67.122,17.415,50.85,47.782c-2.063,3.85-0.615,8.645,3.236,10.708c3.85,2.065,8.645,0.615,10.709-3.236  c13.429-25.059,32.156-39.432,51.382-39.432c18.026,0,35.283,12.249,48.59,34.492c14.069,23.515,21.817,54.948,21.817,88.505  c0,20.217-2.831,39.646-8.143,57.053c-0.014,0.044-0.036,0.083-0.05,0.128c-6.594,21.565-17.952,44.245-37.037,57.359  c-7.388,5.077-16.132,8.455-25.177,8.455c-20.188,0-36.394-15.592-46.677-31.514c-6.822-10.565-11.902-22.28-15.537-34.301  c-0.014-0.044-0.036-0.084-0.05-0.128c-5.312-17.407-8.143-36.837-8.143-57.053c0-18.522,2.347-36.352,6.975-52.995  c1.171-4.21-1.293-8.571-5.502-9.741c-4.209-1.175-8.57,1.293-9.741,5.502c-5.012,18.025-7.554,37.282-7.554,57.236  c0,20.561,2.734,40.46,7.91,58.564C11.733,244.983,6.268,329.127,6.354,392.027c0.006,4.366,3.546,7.899,7.921,7.899  c4.369-0.006,7.907-3.552,7.9-7.922c-0.128-92.447,11.222-144.45,23.161-173.557c0.182,0.424,0.373,0.836,0.558,1.256  c0.088,0.197,0.174,0.393,0.263,0.59c5.957,13.371,13.272,24.748,21.58,33.755c2.463,2.682,5.079,5.225,7.852,7.586  C70.962,297.34,64.53,365.428,68.42,448.106c0.199,4.238,3.697,7.539,7.896,7.539c0.126,0,0.251-0.003,0.378-0.008  c4.365-0.206,7.736-3.91,7.53-8.275c-3.567-75.835,1.671-139.16,6.086-175.915c8.014,3.968,16.912,6.189,25.867,6.189  c4.497,0,9.005-0.555,13.374-1.616c1.276-0.31,12.638-3.376,12.495-4.574c4.415,36.753,9.653,100.078,6.085,175.915  c-0.206,4.365,3.165,8.068,7.53,8.274c0.127,0.006,0.252,0.009,0.378,0.009c4.198,0,7.697-3.301,7.896-7.539  c3.89-82.682-2.543-150.768-7.169-186.471c-0.198-1.559,6.688-6.322,7.87-7.604c8.297-9.003,15.604-20.369,21.558-33.727  c0.092-0.206,0.184-0.411,0.274-0.617c0.187-0.424,0.38-0.841,0.563-1.269c34.465,83.68,20.197,252.729,20.038,254.545  C207.048,473.19,207.037,473.421,207.037,473.651z"/>
<path d="M395.825,48.568c-9.982,0-19.5,4.403-27.521,12.731c-3.031,3.146-2.936,8.155,0.21,11.186  c3.147,3.03,8.156,2.935,11.185-0.21c3.465-3.598,9.075-7.887,16.127-7.887c17.316,0,31.945,25.271,31.945,55.184  c0,29.914-14.629,55.185-31.945,55.185c-17.316,0-31.944-25.271-31.944-55.185c0-7.305,0.854-14.439,2.538-21.205  c1.055-4.24-1.526-8.532-5.765-9.588c-4.238-1.053-8.532,1.526-9.587,5.766c-1.996,8.015-3.007,16.436-3.007,25.028  c0,39.817,20.982,71.007,47.766,71.007c26.785,0,47.767-31.19,47.767-71.007S422.61,48.568,395.825,48.568z"/>
<path d="M502.504,474.017c0.173-2.031,1.077-13.092,1.881-30.187c0.205-4.364-3.166-8.067-7.531-8.274  c-4.376-0.192-8.068,3.166-8.274,7.532c-0.857,18.228-1.855,29.759-1.866,29.872c-0.02,0.229-0.03,0.46-0.03,0.689  c0,9.047-10.35,16.69-22.6,16.69c-12.25,0-22.6-7.643-22.6-16.69c0-4.37-3.542-7.911-7.911-7.911s-7.911,3.541-7.911,7.911  c0,12.421-13.385,22.527-29.839,22.527s-29.839-10.106-29.839-22.527c0-4.37-3.542-7.911-7.911-7.911s-7.911,3.541-7.911,7.911  c0,9.047-10.35,16.69-22.6,16.69c-12.25,0-22.6-7.643-22.6-16.69c0-0.23-0.011-0.461-0.03-0.689  c-0.089-1.013-8.71-102.196,3.29-186.742c0.614-4.326-2.395-8.33-6.721-8.943c-4.329-0.613-8.33,2.395-8.944,6.721  c-11.912,83.933-3.955,183.51-3.413,190.014c0.229,17.761,17.375,32.15,38.419,32.15c11.973,0,22.684-4.658,29.735-11.945  c8.113,10.684,22.35,17.783,38.524,17.783c16.174,0,30.41-7.099,38.524-17.783c7.052,7.286,17.764,11.945,29.736,11.945  C485.126,506.163,502.271,491.777,502.504,474.017z"/>
<path d="M395.825,0c-23.812,0-45.89,14.984-62.167,42.191c-15.516,25.935-24.062,60.251-24.062,96.627  c0,20.551,2.731,40.442,7.901,58.538c-7.049,12.84-12.995,29.035-17.69,48.222c-1.038,4.243,1.56,8.526,5.803,9.564  c4.243,1.035,8.526-1.56,9.565-5.804c2.831-11.569,6.11-21.9,9.805-30.9c0.184,0.427,0.377,0.843,0.563,1.267  c0.086,0.195,0.172,0.389,0.259,0.583c5.965,13.389,13.291,24.777,21.61,33.79c0.475,0.517,0.951,1.031,1.432,1.532  c0.094,0.098,0.19,0.192,0.284,0.289c1.988,2.052,4.025,3.963,6.107,5.735c-4.627,35.705-11.059,103.794-7.169,186.471  c0.199,4.238,3.697,7.539,7.896,7.539c0.125,0,0.251-0.003,0.378-0.008c4.365-0.206,7.736-3.91,7.53-8.275  c-3.567-75.835,1.671-139.16,6.086-175.915c8.013,3.967,16.912,6.189,25.867,6.189c4.324,0,8.662-0.518,12.873-1.497  c1.329-0.309,13.147-3.429,12.995-4.693c4.415,36.755,9.653,100.083,6.085,175.915c-0.206,4.365,3.165,8.068,7.53,8.274  c0.127,0.006,0.252,0.009,0.378,0.009c4.198,0,7.697-3.301,7.896-7.539c3.89-82.676-2.543-150.765-7.169-186.471  c2.095-1.783,4.144-3.707,6.144-5.772c0.078-0.08,0.156-0.158,0.234-0.238c0.52-0.541,1.036-1.096,1.549-1.656  c8.272-8.99,15.558-20.333,21.495-33.656c0.094-0.21,0.188-0.421,0.281-0.631c0.182-0.416,0.371-0.823,0.552-1.241  c12.344,30.044,23.959,84.208,23.118,181.416c-0.038,4.369,3.472,7.94,7.842,7.978c0.023,0,0.046,0,0.07,0  c4.336,0,7.871-3.497,7.909-7.842c0.57-65.712-4.492-153.532-31.456-202.634c5.172-18.097,7.902-37.989,7.902-58.54  c0-36.376-8.545-70.692-24.062-96.627C441.714,14.984,419.636,0,395.825,0z M466.231,138.819c0,20.214-2.83,39.642-8.141,57.048  c-0.015,0.046-0.038,0.088-0.052,0.134c-11.815,38.638-35.019,64.058-59.643,65.722c-0.115,0.007-0.231,0.016-0.347,0.022  c-0.74,0.043-1.482,0.07-2.225,0.07c-30.363,0-50.117-32.276-59.327-57.238c-1.044-2.831-2.005-5.693-2.887-8.577  c-0.014-0.044-0.036-0.084-0.05-0.128c-5.312-17.407-8.143-36.837-8.143-57.053c0-33.557,7.748-64.988,21.817-88.505  c13.306-22.243,30.562-34.492,48.59-34.492s35.283,12.249,48.591,34.492C458.483,73.83,466.231,105.262,466.231,138.819z"/>
<g>
</g>
<g>
</g>
<g>
</g>
<g>
</g>
<g>
</g>
<g>
</g>
<g>
</g>
<g>
</g>
<g>
</g>
<g>
</g>
<g>
</g>
<g>
</g>
<g>
</g>
<g>
</g>
<g>
</g>
</svg>
