<?xml version="1.0" encoding="iso-8859-1"?>
<!-- Generator: Adobe Illustrator 19.0.0, SVG Export Plug-In . SVG Version: 6.00 Build 0)  -->
<svg xmlns="http://www.w3.org/2000/svg" xmlns:xlink="http://www.w3.org/1999/xlink" version="1.1" id="Layer_1" x="0px" y="0px" viewBox="0 0 511.999 511.999" style="enable-background:new 0 0 511.999 511.999;" xml:space="preserve">
<circle cx="340.424" cy="378.17" r="11.608"/>
<path d="M340.528,50.624l-86.966-40.463C239.072,3.418,223.636,0,207.688,0c-33.349,0-64.385,14.957-85.152,41.036  c-19.818,24.887-27.74,57.079-21.736,88.32l56.229,292.606c1.825,9.499,4.909,18.719,9.163,27.404  c1.342,2.737,4.085,4.326,6.941,4.326c1.141,0,2.299-0.254,3.391-0.79c3.83-1.876,5.414-6.502,3.538-10.332  c-3.652-7.454-6.299-15.369-7.866-23.523L115.967,126.44c-5.152-26.807,1.646-54.43,18.651-75.784  c17.82-22.378,44.453-35.212,73.07-35.212c13.682,0,26.925,2.933,39.36,8.72l86.966,40.463  c33.642,15.655,54.633,49.722,53.956,86.371l-5.687-0.461l-40.659-3.295c-0.745-17.346-11.058-33.118-27.154-40.607l-26.92-12.525  c-3.865-1.799-8.459-0.123-10.259,3.744c-1.8,3.867-0.124,8.46,3.744,10.259l26.92,12.525c10.208,4.75,16.934,14.464,18.075,25.34  l-1.987-0.161c-4.17-0.339-7.851,2.706-8.302,6.866c0,0-12.642,116.83-12.644,116.855c-0.458,4.23,2.715,8.115,6.946,8.518  l2.403,0.229c0,0-10.559,97.574-10.562,97.597l-3.32,30.685c-1.1,10.168-7.089,19.213-16.022,24.193  c-4.716,2.631-10.061,4.02-15.459,4.02c-15.67,0-31.313-11.798-34.221-27.392l-56.229-292.606  c-1.743-9.072,0.557-18.418,6.311-25.644c6.029-7.574,15.049-11.917,24.743-11.917c4.612,0,9.087,0.994,13.3,2.954l30.447,14.167  c3.867,1.801,8.46,0.124,10.259-3.744c1.8-3.867,0.124-8.46-3.744-10.259l-30.447-14.167c-6.269-2.916-12.937-4.395-19.816-4.395  c-14.426,0-27.847,6.467-36.826,17.742c-8.567,10.758-11.993,24.674-9.396,38.179c0,0,56.216,292.536,56.229,292.606  c3.924,20.42,22.637,36.708,43.032,39.489c2.105,0.287,4.231,0.432,6.356,0.432c8.025,0,15.972-2.066,22.982-5.976  c13.299-7.416,22.217-20.882,23.856-36.04c0.013,0.012,0.028,0.024,0.041,0.037c0.076,0.071,0.156,0.139,0.234,0.21  c0.342,0.315,0.689,0.624,1.043,0.927c5.495,4.696,12.33,7.776,19.477,8.832c2.251,0.333,4.513,0.439,6.785,0.382  c6.491-0.196,12.893-2.043,18.479-5.356c-3.259,30.037-20.956,56.756-47.347,71.473c-13.892,7.747-29.643,11.842-45.548,11.842  c-25.914,0-52.424-11.69-70.389-30.285c-2.963-3.066-7.852-3.151-10.919-0.187c-3.067,2.963-3.152,7.852-0.187,10.919  c20.829,21.56,51.469,34.996,81.496,34.996c18.532,0,36.883-4.771,53.07-13.798c30.765-17.158,51.394-48.31,55.182-83.328  l3.318-30.661c0.001-0.015,0.003-0.03,0.005-0.049l10.666-98.563l2.603,0.248c0.249,0.024,0.495,0.035,0.74,0.035  c3.898,0,7.241-2.938,7.668-6.891l5.228-48.316c0.459-4.24-2.607-8.049-6.846-8.509c-4.244-0.467-8.049,2.607-8.509,6.846  l-4.409,40.737l-66.51-6.329l10.994-101.605c0,0,2.71,0.219,2.714,0.22c0,0,61.581,4.99,61.584,4.99l2.312,0.187l-3.345,30.912  c-0.458,4.24,2.607,8.048,6.847,8.508c4.235,0.457,8.048-2.607,8.508-6.847c0,0,4.189-38.718,4.198-38.797  c0.666-6.152-4.665-8.334-9.729-8.744C404.555,109.17,380.031,69.006,340.528,50.624z M327.821,279.748l46.127,4.39l-10.644,98.366  c-1.003,9.271-7.689,17.075-16.589,19.717c-2.498,0.741-5.122,1.068-7.725,0.92c-5.602-0.317-10.959-2.688-14.955-6.629  c-4.982-4.912-7.546-12.038-6.795-18.996L327.821,279.748z"/>
<g>
</g>
<g>
</g>
<g>
</g>
<g>
</g>
<g>
</g>
<g>
</g>
<g>
</g>
<g>
</g>
<g>
</g>
<g>
</g>
<g>
</g>
<g>
</g>
<g>
</g>
<g>
</g>
<g>
</g>
</svg>
