<?xml version="1.0" encoding="iso-8859-1"?>
<!-- Generator: Adobe Illustrator 19.0.0, SVG Export Plug-In . SVG Version: 6.00 Build 0)  -->
<svg xmlns="http://www.w3.org/2000/svg" xmlns:xlink="http://www.w3.org/1999/xlink" version="1.1" id="Layer_1" x="0px" y="0px" viewBox="0 0 512 512" style="enable-background:new 0 0 512 512;" xml:space="preserve">
<circle cx="204.439" cy="209.245" r="13.189"/>
<circle cx="307.56" cy="209.245" r="13.189"/>
<path d="M217.641,258.747c8.237,8.796,22.577,14.047,38.359,14.047s30.123-5.251,38.358-14.047  c3.004-3.209,2.838-8.244-0.369-11.248c-3.209-3.004-8.244-2.839-11.248,0.369c-5.126,5.474-15.621,9.01-26.741,9.01  c-11.12,0-21.616-3.536-26.742-9.01c-3.005-3.209-8.04-3.373-11.248-0.369C214.803,250.503,214.638,255.538,217.641,258.747z"/>
<path d="M52.766,473.427c-4.395,0-7.958,3.562-7.958,7.958v22.657c0,4.396,3.563,7.958,7.958,7.958h95.492h215.484h95.492  c4.395,0,7.958-3.562,7.958-7.958v-83.275c0-26.264-9.284-51.802-26.142-71.911c-2.824-3.369-7.843-3.81-11.211-0.986  c-3.368,2.823-3.809,7.843-0.986,11.211c14.46,17.248,22.423,39.156,22.423,61.687v75.317H371.7v-75.317  c0-18.062-4.453-36.008-12.818-52.013c-2.266-4.335-4.851-8.566-7.67-12.564c0.038-0.033,0.075-0.068,0.114-0.101  c9.824-8.433,18.561-18.191,25.854-28.89c10.462,2.445,20.371,6.62,29.522,12.444c3.708,2.36,8.626,1.267,10.986-2.44  c2.36-3.707,1.267-8.626-2.44-10.986c-9.226-5.872-19.116-10.305-29.513-13.241c10.544-20.005,16.595-42.725,16.805-66.818  c7.513-5.825,12.363-14.93,12.363-25.152c0,0,0-62.104,0-62.105c0-39.77-15.266-78.609-42.267-107.797  c-29.78-32.197-72.544-51.029-116.406-51.104c-0.075,0-0.152-0.003-0.227-0.003c-45.294-0.001-89.287,19.966-119.245,53.889  c-3.628,4.107-7.042,8.403-10.222,12.866c-2.551,3.579-1.719,8.548,1.86,11.099s8.549,1.719,11.099-1.86  c6.647-9.324,14.326-17.714,22.813-25.065v34.128c0,14.289,11.625,25.913,25.913,25.913c14.289,0,25.913-11.625,25.913-25.913  V22.216c5.224-1.605,10.551-2.914,15.955-3.914v55.085c0,14.289,11.625,25.913,25.913,25.913c14.289,0,25.913-11.625,25.913-25.913  V18.275c5.43,0.998,10.755,2.305,15.955,3.899v62.884c0,14.289,11.625,25.913,25.913,25.913c14.289,0,25.913-11.625,25.913-25.913  V50.979c30.18,26.235,49.291,64.888,49.291,107.922v62.105c0,6.554-3.987,12.192-9.662,14.624c-0.032,0.014-0.064,0.029-0.095,0.041  c-4.093,1.734-8.857,1.237-13.2,1.237v-86.566c0-4.395-3.563-7.958-7.958-7.958H143.93c-4.395,0-7.958,3.563-7.958,7.958v86.566  c-4.441,0-8.992,0.524-13.198-1.237c-0.033-0.014-0.067-0.029-0.1-0.044c-5.673-2.432-9.66-8.069-9.66-14.623V158.9  c0-19.266,3.766-37.956,11.192-55.553c1.709-4.049-0.188-8.716-4.238-10.426c-4.049-1.709-8.717,0.189-10.426,4.238  c-8.258,19.565-12.445,40.339-12.445,61.741v62.105c0,10.222,4.85,19.327,12.364,25.152c0.21,24.097,6.262,46.821,16.81,66.828  c-47.807,13.451-81.464,57.128-81.464,107.782v28.787c0,4.395,3.563,7.958,7.958,7.958s7.958-3.563,7.958-7.958v-28.787  c0-44.939,30.859-83.49,74.097-93.569c7.3,10.71,16.003,20.446,25.843,28.881c0.042,0.036,0.083,0.074,0.125,0.11  c-0.104-0.089-7.453,12.009-8.017,13.097c-2.527,4.871-4.676,9.939-6.444,15.133c-3.975,11.681-6.028,24.007-6.028,36.347v75.317  H60.723v-14.699C60.724,476.989,57.161,473.427,52.766,473.427z M198.217,85.058c0,5.513-4.485,9.998-9.998,9.998  c-5.513,0-9.998-4.485-9.998-9.998V38.987c6.374-4.131,13.057-7.758,19.996-10.829L198.217,85.058L198.217,85.058z M265.999,73.387  c0,5.513-4.485,9.998-9.998,9.998c-5.513,0-9.998-4.485-9.998-9.998V16.282c0.222-0.016,0.444-0.036,0.665-0.051  c1.042-0.068,2.083-0.119,3.122-0.163c0.507-0.022,1.013-0.052,1.522-0.069c3.088-0.102,6.168-0.101,9.255-0.002  c0.345,0.011,0.689,0.027,1.033,0.039c1.338,0.053,2.678,0.121,4.02,0.211c0.126,0.008,0.253,0.015,0.378,0.024v57.115H265.999z   M333.78,85.058c0,5.513-4.485,9.998-9.998,9.998c-5.513,0-9.998-4.485-9.998-9.998V28.126c6.975,3.094,13.659,6.729,19.996,10.853  V85.058z M151.887,158.302h208.226v86.566c0,57.408-46.705,104.113-104.113,104.113c-57.408,0-104.113-46.705-104.113-104.113  V158.302z M159.377,332.766c-5.254-5.806-9.982-12.094-14.115-18.676c-0.028-0.043-0.063-0.08-0.09-0.122  c-11.256-17.99-18.258-38.902-19.581-61.318c0.057,0.615,10.629-0.169,10.652,0.174c4.11,62.488,56.248,112.071,119.758,112.071  c63.509,0,115.648-49.583,119.758-112.071c3.545,0,7.118,0.194,10.652-0.174c-1.323,22.415-8.325,43.327-19.581,61.317  c-0.028,0.042-0.063,0.079-0.09,0.122c-17.628,28.161-46.32,49.17-78.516,57.396c-10.514,2.687-21.372,4.02-32.222,4.02  C219.83,375.506,183.668,359.606,159.377,332.766z M283.926,388.768l-27.925,38.43l-27.926-38.429  c9.188,1.769,18.568,2.653,27.926,2.653C265.338,391.422,274.756,390.534,283.926,388.768z M156.216,420.768  c0-19.309,5.998-38.641,16.979-54.531c0.081-0.117,0.167-0.229,0.247-0.346c1.411,0.966,2.839,1.908,4.285,2.824  c0.311,0.197,0.624,0.389,0.936,0.585c1.021,0.637,2.05,1.262,3.087,1.874c6.848,4.055,14.028,7.558,21.449,10.437l46.364,63.804  c1.497,2.061,3.891,3.28,6.437,3.28s4.94-1.219,6.437-3.28l46.364-63.804c4.583-1.778,9.073-3.804,13.471-6.05  c0.199-0.102,0.4-0.203,0.599-0.305c5.413-2.789,10.66-5.925,15.686-9.364c0.081,0.116,0.167,0.229,0.247,0.346  c8.21,11.917,13.687,25.743,15.861,40.048c0.728,4.788,1.118,9.638,1.118,14.483v75.317H156.215v-75.319H156.216z"/>
<g>
</g>
<g>
</g>
<g>
</g>
<g>
</g>
<g>
</g>
<g>
</g>
<g>
</g>
<g>
</g>
<g>
</g>
<g>
</g>
<g>
</g>
<g>
</g>
<g>
</g>
<g>
</g>
<g>
</g>
</svg>
