<?xml version="1.0" encoding="iso-8859-1"?>
<!-- Generator: Adobe Illustrator 19.0.0, SVG Export Plug-In . SVG Version: 6.00 Build 0)  -->
<svg xmlns="http://www.w3.org/2000/svg" xmlns:xlink="http://www.w3.org/1999/xlink" version="1.1" id="Layer_1" x="0px" y="0px" viewBox="0 0 511.999 511.999" style="enable-background:new 0 0 511.999 511.999;" xml:space="preserve">
<path d="M277.036,1.514C270.086,0.51,263.001,0,255.98,0c-42.195,0-82.238,18.294-109.861,50.19s-40.008,74.142-33.979,115.903  l14.136,97.937c0.017,0.139,0.035,0.278,0.06,0.416L148.65,419.05c1.047,7.26,2.841,14.324,5.278,21.124  c0.123,0.449,0.28,0.884,0.477,1.301c6.592,17.665,17.709,33.422,32.501,45.651c1.495,1.235,3.305,1.838,5.102,1.837  c2.307,0,4.598-0.991,6.183-2.908c2.82-3.412,2.341-8.464-1.071-11.286c-9.012-7.45-16.424-16.435-21.976-26.449  c25.809,3.707,52.925,5.59,80.834,5.59s55.025-1.883,80.834-5.59c-5.215,9.419-12.069,17.934-20.337,25.094  c-16.795,14.544-38.28,22.555-60.497,22.555c-11.085,0-21.955-1.96-32.307-5.827c-4.147-1.55-8.765,0.557-10.313,4.705  c-1.549,4.147,0.557,8.765,4.705,10.313c12.153,4.539,24.91,6.84,37.917,6.84c26.072,0,51.283-9.4,70.992-26.467  c13.824-11.972,24.283-27.171,30.593-44.079c0.204-0.436,0.366-0.891,0.49-1.362c2.428-6.782,4.214-13.821,5.256-21.041  l22.33-154.704c0.005-0.029,0.007-0.058,0.013-0.086l14.169-98.167c4.667-32.329-1.374-64.341-17.47-92.576  c-15.438-27.082-39.579-48.864-67.974-61.333c-4.055-1.781-8.783,0.063-10.562,4.117c-1.779,4.054,0.063,8.782,4.117,10.562  c25.265,11.093,46.749,30.483,60.493,54.593c14.313,25.107,19.683,53.582,15.53,82.347l-13.375,92.663  c-34.614,7.893-74.093,12.062-114.6,12.062c-40.504,0-79.983-4.169-114.6-12.062l-13.375-92.663  c-5.363-37.156,5.656-74.741,30.232-103.119s60.201-44.654,97.741-44.654c6.256,0,12.569,0.454,18.763,1.35  c4.379,0.631,8.446-2.405,9.08-6.786S281.418,2.148,277.036,1.514z M347.443,416.761c-0.699,4.842-1.799,9.585-3.235,14.207  c-27.908,4.585-57.561,6.912-88.229,6.912c-30.668,0-60.322-2.327-88.231-6.912c-1.433-4.617-2.533-9.359-3.232-14.207  l-8.109-56.175c30.978,5.665,65.14,8.649,99.571,8.649c34.433,0,68.594-2.984,99.571-8.649L347.443,416.761z M255.98,284.559  c39.369,0,77.861-3.846,112.153-11.144l-10.162,70.4c-31.403,6.145-66.526,9.388-101.992,9.388  c-35.465,0-70.588-3.241-101.992-9.388l-10.162-70.4C178.121,280.712,216.613,284.559,255.98,284.559z"/>
<path d="M181.661,86.32c-3.685-2.451-8.661-1.449-11.113,2.237c-13.992,21.043-19.709,46.412-16.098,71.429l6.191,42.894  c0.404,2.804,2.259,5.187,4.879,6.266c23.882,9.841,56.008,15.259,90.46,15.259c34.453,0,66.579-5.42,90.46-15.259  c2.619-1.079,4.475-3.462,4.879-6.266l6.191-42.894c4.255-29.478-4.488-59.296-23.985-81.809  c-19.497-22.514-47.762-35.428-77.545-35.428c-22.057,0-43.914,7.285-61.546,20.512c-3.541,2.657-4.258,7.681-1.602,11.222  c2.656,3.541,7.68,4.258,11.222,1.602c14.876-11.16,33.317-17.305,51.927-17.305c25.129,0,48.977,10.895,65.427,29.89  c16.45,18.995,23.825,44.154,20.237,69.024l-5.524,38.274c-21.346,7.91-50.22,12.405-80.139,12.405  c-29.918,0-58.792-4.495-80.139-12.405l-5.524-38.274c-3.047-21.108,1.776-42.509,13.582-60.264  C186.348,93.746,185.347,88.771,181.661,86.32z"/>
<path d="M237.044,119.092c-3.508-2.7-8.54-2.047-11.241,1.462c-0.628,0.818-2.87,2.114-6.203,2.114  c-3.265,0-5.476-1.235-6.166-2.066c-2.829-3.406-7.882-3.874-11.288-1.046c-3.406,2.828-3.874,7.882-1.046,11.288  c4.085,4.919,10.999,7.855,18.499,7.855c7.805,0,14.873-3.127,18.905-8.365C241.205,126.825,240.551,121.791,237.044,119.092z"/>
<path d="M292.36,138.698c7.498,0,14.413-2.937,18.498-7.855c2.828-3.406,2.361-8.459-1.045-11.288  c-3.406-2.829-8.459-2.361-11.288,1.045c-0.69,0.83-2.901,2.067-6.166,2.067c-3.333,0-5.573-1.296-6.203-2.114  c-2.701-3.508-7.734-4.162-11.241-1.462c-3.508,2.701-4.163,7.733-1.462,11.241C277.488,135.57,284.554,138.698,292.36,138.698z"/>
<path d="M262.071,152.615c-0.628,0.818-2.87,2.114-6.203,2.114c-3.264,0-5.475-1.235-6.166-2.067  c-2.829-3.406-7.883-3.874-11.288-1.046c-3.406,2.828-3.874,7.882-1.046,11.288c4.085,4.919,10.999,7.856,18.499,7.856  c7.805,0,14.873-3.127,18.905-8.365c2.701-3.508,2.047-8.54-1.462-11.241C269.805,148.453,264.772,149.106,262.071,152.615z"/>
<g>
</g>
<g>
</g>
<g>
</g>
<g>
</g>
<g>
</g>
<g>
</g>
<g>
</g>
<g>
</g>
<g>
</g>
<g>
</g>
<g>
</g>
<g>
</g>
<g>
</g>
<g>
</g>
<g>
</g>
</svg>
