<?xml version="1.0" encoding="iso-8859-1"?>
<!-- Generator: Adobe Illustrator 19.0.0, SVG Export Plug-In . SVG Version: 6.00 Build 0)  -->
<svg xmlns="http://www.w3.org/2000/svg" xmlns:xlink="http://www.w3.org/1999/xlink" version="1.1" id="Layer_1" x="0px" y="0px" viewBox="0 0 511.999 511.999" style="enable-background:new 0 0 511.999 511.999;" xml:space="preserve">
<path d="M352.842,167.008c-2.653-2.654-6.833-3.009-9.895-0.839l-88.691,62.818c-8.669,0.424-16.758,4.001-22.939,10.181  c-6.18,6.18-9.758,14.271-10.181,22.94l-62.817,88.691c-2.169,3.063-1.815,7.242,0.839,9.895c1.491,1.491,3.462,2.256,5.447,2.256  c1.548,0,3.106-0.466,4.449-1.417l88.691-62.817c8.669-0.424,16.759-4.001,22.94-10.181c6.355-6.355,9.74-14.57,10.161-22.91  l62.838-88.721C355.85,173.841,355.496,169.662,352.842,167.008z M196.946,322.905c0,0,29.106-41.093,29.107-41.095  c-0.649,0.925,4.407,5.853,5.151,6.603c0.039,0.04,0.075,0.082,0.114,0.121c0.582,0.582,6.046,5.773,6.725,5.264L196.946,322.905z   M269.793,277.645c-7.468,7.469-20.134,7.454-27.586,0c-7.507-7.508-7.506-20.08,0-27.586c7.95-7.95,21.75-7.258,28.88,1.431  c0.145,0.177,0.271,0.364,0.409,0.545C277.304,259.64,276.604,270.833,269.793,277.645z M285.943,245.897  c-0.103-0.17-0.218-0.334-0.323-0.503c-1.401-2.244-3.067-4.354-4.937-6.226c-0.52-0.521-5.894-5.818-6.724-5.265l41.094-29.107  L285.943,245.897z"/>
<path d="M357.166,395.668c41.353-31.809,65.071-79.855,65.071-131.817c0-91.663-74.573-166.237-166.237-166.237  S89.763,172.188,89.763,263.851c0,91.662,74.573,166.236,166.236,166.236c25.577,0,50.139-5.69,73.004-16.912  c3.817-1.874,5.393-6.487,3.519-10.306c-1.874-3.817-6.487-5.393-10.306-3.519c-20.734,10.177-43.014,15.337-66.218,15.337  c-83.172,0-150.836-67.665-150.836-150.836c0-83.172,67.665-150.837,150.836-150.837s150.837,67.665,150.837,150.837  c0,47.143-21.526,90.739-59.06,119.61c-3.371,2.592-4.001,7.427-1.409,10.798C348.961,397.63,353.794,398.26,357.166,395.668z"/>
<path d="M416.62,126.88c-30.16-35.311-71.068-59.732-116.007-69.453c0.248-1.389,0.389-2.805,0.389-4.249  c0-0.471-0.038-0.939-0.066-1.409c14.232-7.278,16.492-16.336,16.492-21.329c0-5.423-2.655-15.644-20.436-23.17  C285.917,2.582,271.359,0,256,0s-29.917,2.581-40.992,7.269c-17.781,7.525-20.436,17.747-20.436,23.17  c0,4.993,2.261,14.051,16.492,21.329c-0.028,0.469-0.066,0.938-0.066,1.41c0,1.447,0.142,2.864,0.39,4.254  c-25.449,5.478-49.415,15.545-71.356,30.012c-3.55,2.341-4.531,7.117-2.189,10.667c2.341,3.549,7.116,4.53,10.667,2.189  c21.577-14.228,45.259-23.876,70.453-28.709c6.556,6.745,16.689,11.527,28.61,13.075c0.103,0.013,0.206,0.026,0.309,0.038  c2.692,0.34,5.404,0.508,8.118,0.508c13.264,0,27.561-3.876,37.035-13.621c43.35,8.344,82.94,31.413,111.875,65.289  c30.23,35.393,46.878,80.485,46.878,126.993c-0.012,107.945-87.843,195.765-195.788,195.765c-44.079,0-87.689-15.434-122.09-42.965  c-33.185-26.556-57.376-63.736-67.734-104.987c-3.923-15.623-5.964-31.727-5.964-47.837c0-55.164,23.555-108.095,64.625-145.22  c3.155-2.852,3.4-7.722,0.549-10.875c-2.852-3.154-7.72-3.4-10.875-0.549c-44.293,40.04-69.697,97.128-69.701,156.648v36.961  c0,78.184,43.008,149.657,112.24,186.525c3.753,1.999,8.418,0.577,10.415-3.176c1.999-3.753,0.577-8.417-3.176-10.415  c-43.916-23.387-76.454-61.79-92.629-106.92c0.271,0.484,0.55,0.962,0.824,1.442c26.555,46.461,71.078,82.191,122.312,97.731  c2.862,0.869,5.744,1.673,8.642,2.415c54.672,13.982,113.889,5.356,162.09-24.066c30.137-18.395,55.656-44.425,73.357-74.984  c0.243-0.421,0.484-0.844,0.724-1.266c0.241-0.422,0.486-0.842,0.724-1.266c-27.148,75.574-99.531,129.768-184.335,129.768  c-21.424,0-42.497-3.456-62.629-10.271c-4.027-1.363-8.399,0.796-9.762,4.824c-1.363,4.028,0.797,8.399,4.824,9.763  c21.727,7.355,44.46,11.084,67.568,11.084c116.45,0,211.189-94.738,211.189-211.188v-36.922c0-0.013,0-0.027,0-0.039  C467.188,213.702,449.229,165.058,416.62,126.88z M284.056,58.325c-0.135,0.163-0.277,0.319-0.4,0.495  c-5.746,8.259-18.231,10.993-27.656,10.993c-9.942,0-23.058-2.644-28.331-12.116c0.034,0.008,0.069,0.014,0.103,0.023  c9.166,2.198,18.661,3.145,28.078,3.155c0.05,0,0.1,0.002,0.15,0.002c0.049,0,0.098-0.002,0.147-0.002  c9.475-0.01,18.998-0.966,28.218-3.188c0.031-0.007,0.064-0.013,0.095-0.022C284.342,57.89,284.19,58.105,284.056,58.325z   M289.262,40.355c-10.379,4.185-22.591,5.121-33.263,5.121c-13.535,0-29.088-1.587-40.794-9.008c-1.94-1.23-5.235-3.368-5.235-6.031  c0-5.302,17.475-15.039,46.028-15.039c28.552,0,46.028,9.737,46.028,15.04C302.027,35.338,292.853,38.907,289.262,40.355z"/>
<g>
</g>
<g>
</g>
<g>
</g>
<g>
</g>
<g>
</g>
<g>
</g>
<g>
</g>
<g>
</g>
<g>
</g>
<g>
</g>
<g>
</g>
<g>
</g>
<g>
</g>
<g>
</g>
<g>
</g>
</svg>
