<?xml version="1.0" encoding="iso-8859-1"?>
<!-- Generator: Adobe Illustrator 19.0.0, SVG Export Plug-In . SVG Version: 6.00 Build 0)  -->
<svg xmlns="http://www.w3.org/2000/svg" xmlns:xlink="http://www.w3.org/1999/xlink" version="1.1" id="Layer_1" x="0px" y="0px" viewBox="0 0 512 512" style="enable-background:new 0 0 512 512;" xml:space="preserve">
<path d="M445.995,92.856c0-6.627-0.995-13.169-2.959-19.449c-1.296-4.149-5.713-6.461-9.863-5.164  c-4.15,1.297-6.463,5.713-5.164,9.863c1.487,4.757,2.241,9.72,2.241,14.751c0,27.22-22.146,49.364-49.366,49.364  s-49.364-22.145-49.364-49.364c0-27.221,22.145-49.366,49.364-49.366c11.603,0,22.88,4.114,31.756,11.582  c3.327,2.8,8.293,2.372,11.092-0.954c2.799-3.326,2.372-8.292-0.954-11.092c-11.709-9.854-26.588-15.281-41.894-15.281  c-35.902,0-65.109,29.209-65.109,65.11s29.208,65.109,65.109,65.109C416.786,157.966,445.995,128.759,445.995,92.856z"/>
<path d="M380.885,59.413c-18.44,0-33.443,15.003-33.443,33.443s15.003,33.443,33.443,33.443s33.443-15.002,33.443-33.443  S399.325,59.413,380.885,59.413z M380.885,110.554c-9.759,0-17.698-7.94-17.698-17.698s7.94-17.698,17.698-17.698  s17.698,7.94,17.698,17.698C398.583,102.615,390.644,110.554,380.885,110.554z"/>
<path d="M245.291,69.408h-94.708c-10.954,0-19.866,8.913-19.866,19.867v84.501c0,10.954,8.912,19.866,19.866,19.866h94.708  c10.954,0,19.866-8.912,19.866-19.866V89.274C265.158,78.319,256.245,69.408,245.291,69.408z M249.413,173.774  c0,2.273-1.848,4.121-4.121,4.121h-94.708c-2.273,0-4.121-1.848-4.121-4.121V89.274c0-2.273,1.848-4.122,4.121-4.122h94.708  c2.273,0,4.121,1.85,4.121,4.122V173.774z"/>
<path d="M197.938,308.866c28.447,0,51.589-23.143,51.589-51.589s-23.143-51.589-51.589-51.589s-51.589,23.143-51.589,51.589  S169.491,308.866,197.938,308.866z M197.938,221.434c19.765,0,35.844,16.08,35.844,35.844s-16.08,35.844-35.844,35.844  s-35.844-16.08-35.844-35.844S178.172,221.434,197.938,221.434z"/>
<path d="M257.938,282.205c0,14.701,11.96,26.66,26.66,26.66s26.66-11.96,26.66-26.66c0-14.7-11.96-26.66-26.66-26.66  C269.898,255.546,257.938,267.506,257.938,282.205z M295.514,282.205c0,6.019-4.897,10.915-10.915,10.915  c-6.019,0-10.915-4.897-10.915-10.915c0-6.019,4.897-10.915,10.915-10.915C290.617,271.291,295.514,276.188,295.514,282.205z"/>
<path d="M400.883,230.395c4.348,0,7.872-3.525,7.872-7.872s-3.525-7.872-7.872-7.872H295.901c-4.348,0-7.872,3.525-7.872,7.872  s3.525,7.872,7.872,7.872H400.883z"/>
<path d="M46.132,470.649c25.393,0,47.393-14.791,57.85-36.207h104.418v2.151c0,2.92,0.528,5.72,1.491,8.309  c-30.979,1.952-55.588,27.764-55.588,59.226c0,4.348,3.525,7.872,7.872,7.872h202.958c4.348,0,7.872-3.525,7.872-7.872  c0-30.95-23.815-56.43-54.081-59.111c0.99-2.622,1.536-5.46,1.536-8.425v-2.151h8.132c18.881,0,34.242-15.361,34.242-34.241  c0-18.881-15.361-34.242-34.242-34.242h-8.132v-15.275h89.345c13.415,0,24.329-10.913,24.329-24.329V185.712h18.161  c11.825,0,21.446-9.62,21.446-21.446V21.446C473.741,9.62,464.121,0,452.295,0H309.473c-11.825,0-21.446,9.62-21.446,21.446v13.203  H119.053c-13.415,0-24.328,10.913-24.328,24.329v267.379c0,13.415,10.913,24.329,24.328,24.329h29.323  c4.348,0,7.872-3.525,7.872-7.872s-3.525-7.872-7.872-7.872h-29.323c-4.733,0-8.583-3.85-8.583-8.584V58.976  c0-4.733,3.85-8.584,8.583-8.584h168.974v113.874c0,11.825,9.62,21.446,21.446,21.446h108.916v140.643  c0,4.733-3.85,8.584-8.584,8.584h-97.217h-96.316h-36.405c-4.348,0-7.872,3.525-7.872,7.872s3.525,7.872,7.872,7.872h28.533v15.275  H103.981c-10.457-21.416-32.457-36.207-57.85-36.207c-4.348,0-7.872,3.525-7.872,7.872v125.151  C38.259,467.124,41.784,470.649,46.132,470.649z M309.473,169.967c-3.144,0-5.701-2.557-5.701-5.701V42.52V21.446  c0-3.144,2.557-5.701,5.701-5.701h142.822c3.144,0,5.701,2.557,5.701,5.701v142.822c0,3.144-2.557,5.701-5.701,5.701h-26.034  H309.473V169.967z M320.46,381.704h8.132c10.2,0,18.497,8.298,18.497,18.497c0,10.198-8.298,18.496-18.497,18.496h-8.132V381.704z   M224.144,426.569v-52.738v-23.147h80.571v23.147v52.738v10.023c0,4.508-3.667,8.177-8.177,8.177c-7.249,0-8.178-7.104-8.178-12.732  c0-4.812,0-9.623,0-14.435c0-4.137,0-8.272,0-12.409c0-13.389-11.732-24.533-25.078-23.904  c-12.776,0.603-22.785,11.302-22.785,24.358v30.945c0,4.508-3.669,8.177-8.177,8.177c-4.509,0-8.178-3.669-8.178-8.177v-10.023  H224.144z M232.321,460.514c13.19,0,23.922-10.732,23.922-23.922v-30.945c0-4.557,3.49-8.429,7.781-8.63  c4.679-0.22,8.593,3.528,8.593,8.177c0,0,0,31.395,0,31.4c0,10.36,7.004,19.777,16.87,22.855c1.695,0.529,3.711,1.066,5.499,1.066  h18.662c21.361,0,39.185,15.437,42.902,35.741H170.76c3.717-20.304,21.54-35.741,42.902-35.741h18.66V460.514z M110.461,393.703  c-0.024-4.037-0.489-8.055-1.193-12.027c8.746,0.483,17.739,0.026,26.526,0.026c16.103,0,32.206,0,48.308,0  c1.354,0,24.298,0,24.298,0v36.993c0,0-99.126,0-99.127,0c0.979-0.008,1.199-11.034,1.199-12.387V394.09  C110.47,393.962,110.462,393.833,110.461,393.703z M54.004,346.134c0-0.371,11.991,3.595,13.051,4.103  c4.154,1.99,8.018,4.575,11.45,7.647c10.226,9.155,16.22,22.477,16.22,36.207c0,0,0,12.217,0,12.218  c0,23.48-17.556,44.167-40.722,47.957C54.004,454.267,54.004,346.143,54.004,346.134z"/>
<g>
</g>
<g>
</g>
<g>
</g>
<g>
</g>
<g>
</g>
<g>
</g>
<g>
</g>
<g>
</g>
<g>
</g>
<g>
</g>
<g>
</g>
<g>
</g>
<g>
</g>
<g>
</g>
<g>
</g>
</svg>
