<?xml version="1.0" encoding="iso-8859-1"?>
<!-- Generator: Adobe Illustrator 19.0.0, SVG Export Plug-In . SVG Version: 6.00 Build 0)  -->
<svg xmlns="http://www.w3.org/2000/svg" xmlns:xlink="http://www.w3.org/1999/xlink" version="1.1" id="Layer_1" x="0px" y="0px" viewBox="0 0 512 512" style="enable-background:new 0 0 512 512;" xml:space="preserve">
<path d="M372.75,154.937c-10.719-11.898-25.44-18.45-41.454-18.45H180.702c-16.013,0-30.735,6.552-41.455,18.45  c-10.719,11.897-15.704,27.22-14.038,43.147l15.95,152.541c0.419,4.011,3.801,7.058,7.834,7.058h25.023  c4.35,0,7.877-3.527,7.877-7.877s-3.527-7.877-7.877-7.877h-17.926l-15.212-145.484c-1.196-11.43,2.382-22.427,10.074-30.964  c7.693-8.538,18.258-13.241,29.75-13.241h150.595c11.492,0,22.057,4.703,29.75,13.241c7.692,8.536,11.269,19.533,10.075,30.964  l-15.213,145.484H205.523c-4.35,0-7.877,3.527-7.877,7.877s3.527,7.877,7.877,7.877h157.482c4.033,0,7.415-3.047,7.834-7.058  l15.951-152.541C388.454,182.156,383.469,166.833,372.75,154.937z"/>
<path d="M175.173,424.355h14.111c3.824,0,7.094-2.746,7.758-6.511c1.451-8.249,4.572-15.969,9.272-22.945  c1.627-2.414,1.79-5.531,0.421-8.1c-1.368-2.57-4.042-4.178-6.954-4.178h-58.74c-2.46,0-4.777,1.149-6.268,3.106  c-1.489,1.957-1.98,4.498-1.325,6.868C138.615,411.295,155.772,424.355,175.173,424.355z M186.528,398.373  c-1.431,3.316-2.619,6.728-3.558,10.228h-7.796c-8.476,0-16.279-3.918-21.398-10.228H186.528z"/>
<path d="M193.267,472.745h5.765c2.884,0,5.537-1.575,6.916-4.107c1.38-2.532,1.267-5.616-0.297-8.038  c-4.513-6.997-7.463-14.697-8.768-22.887c-0.609-3.824-3.907-6.637-7.779-6.637h-37.81c-2.732,0-5.267,1.415-6.702,3.739  c-1.435,2.324-1.564,5.225-0.34,7.667C153.605,461.148,172.386,472.745,193.267,472.745z M182.688,446.828  c0.814,3.222,1.838,6.374,3.069,9.448c-7.083-1.367-13.57-4.649-18.818-9.448H182.688z"/>
<path d="M377.223,385.725c-1.489-1.957-3.808-3.106-6.268-3.106h-58.739c-2.911,0-5.586,1.607-6.954,4.177  c-1.367,2.571-1.206,5.686,0.421,8.1c4.702,6.979,7.822,14.699,9.272,22.946c0.663,3.765,3.934,6.511,7.758,6.511h14.112  c19.401,0,36.557-13.061,41.723-31.762C379.203,390.223,378.713,387.682,377.223,385.725z M336.826,408.602h-7.796  c-0.939-3.499-2.127-6.914-3.558-10.228h32.753C353.104,404.682,345.301,408.602,336.826,408.602z"/>
<path d="M312.967,472.745h5.765c20.88,0,39.662-11.597,49.015-30.264c1.224-2.442,1.094-5.343-0.339-7.667  c-1.435-2.323-3.971-3.739-6.703-3.739h-37.81c-3.872,0-7.17,2.814-7.779,6.637c-1.304,8.189-4.254,15.888-8.768,22.887  c-1.563,2.423-1.677,5.506-0.297,8.038C307.43,471.169,310.083,472.745,312.967,472.745z M329.309,446.828h15.749  c-5.247,4.797-11.735,8.079-18.817,9.448C327.471,453.202,328.495,450.049,329.309,446.828z"/>
<path d="M255.999,477.611c27.218,0,49.36-22.143,49.36-49.361s-22.143-49.36-49.36-49.36s-49.36,22.142-49.36,49.36  S228.781,477.611,255.999,477.611z M255.999,394.644c18.531,0,33.606,15.075,33.606,33.606s-15.076,33.607-33.606,33.607  s-33.606-15.076-33.606-33.607S237.468,394.644,255.999,394.644z"/>
<path d="M285.856,94.477h-80.499l-6.818-62.896C196.587,13.577,181.459,0,163.349,0h-26.386c-18.109,0-33.238,13.577-35.19,31.581  L88.467,154.334c-0.223,2.058-0.31,4.161-0.273,6.268c-4.557,13.308-6.257,27.585-4.765,41.85l21.048,201.297  C110.93,465.462,162.587,512,224.635,512h62.729c62.05,0,113.706-46.538,120.159-108.251l21.048-201.297  c2.877-27.513-6.092-55.08-24.609-75.633c-18.517-20.553-45.001-32.341-72.664-32.341h-13.934c-4.35,0-7.877,3.527-7.877,7.877  s3.527,7.877,7.877,7.877h13.934c23.208,0,45.427,9.889,60.961,27.132c15.534,17.242,23.059,40.369,20.644,63.452l-21.048,201.297  c-5.611,53.666-50.533,94.135-104.49,94.135h-62.729c-53.958,0-98.879-40.469-104.49-94.135c0,0-21.047-201.29-21.048-201.297  c-4.118-39.379,21.67-77.028,59.775-87.604c7.084-1.966,14.477-2.979,21.83-2.979c0,0,17.586,0,17.607,0h87.547  c4.35,0,7.877-3.527,7.877-7.877S290.206,94.477,285.856,94.477z M180.702,94.477c-27.478,0.004-54.277,11.928-72.665,32.341  c-0.287,0.318-0.564,0.643-0.845,0.964l10.245-94.504c1.083-9.991,9.477-17.525,19.527-17.525h26.386  c10.05,0,18.445,7.534,19.528,17.525l6.634,61.199C186.579,94.477,183.647,94.477,180.702,94.477z"/>
<g>
</g>
<g>
</g>
<g>
</g>
<g>
</g>
<g>
</g>
<g>
</g>
<g>
</g>
<g>
</g>
<g>
</g>
<g>
</g>
<g>
</g>
<g>
</g>
<g>
</g>
<g>
</g>
<g>
</g>
</svg>
