<?xml version="1.0" encoding="iso-8859-1"?>
<!-- Generator: Adobe Illustrator 19.0.0, SVG Export Plug-In . SVG Version: 6.00 Build 0)  -->
<svg xmlns="http://www.w3.org/2000/svg" xmlns:xlink="http://www.w3.org/1999/xlink" version="1.1" id="Layer_1" x="0px" y="0px" viewBox="0 0 512 512" style="enable-background:new 0 0 512 512;" xml:space="preserve">
<path d="M46.573,506.921h75.736h17.754h231.873h17.755h75.736c25.68,0,46.573-20.892,46.573-46.572v-77.073  c0-40.679-28.714-75.727-67.843-84.264v-39.651c0-14.64-3.096-28.779-9.199-42.024c-1.841-3.997-6.574-5.743-10.572-3.901  c-3.997,1.842-5.743,6.575-3.901,10.572c5.133,11.138,7.736,23.033,7.736,35.354v46.317v146.778c0,21.245-17.285,38.53-38.53,38.53  h-9.788V377.705c0-44.504-36.207-80.712-80.712-80.712h-86.384c-13.029,0-25.994,3.196-37.496,9.24  c-3.896,2.047-5.394,6.864-3.345,10.76c2.046,3.896,6.864,5.394,10.76,3.345c9.356-4.917,19.477-7.411,30.082-7.411h86.384  c35.718,0,64.776,29.059,64.776,64.776v1.3H148.031v-1.3c0-14.157,4.486-27.605,12.975-38.891c2.645-3.517,1.939-8.512-1.578-11.157  c-3.517-2.646-8.513-1.939-11.157,1.578c-10.582,14.069-16.176,30.83-16.176,48.47v113.281h-9.786  c-21.245,0-38.53-17.285-38.53-38.53V305.678v-46.317c0-18.432,5.822-35.948,16.836-50.656c9.008-12.028,21.24-21.545,35.007-27.358  c5.384,14.698,17.001,26.841,31.313,33.101c4.434,1.94,9.146,3.299,13.926,4.05c0.304,0.048,0.611,0.084,0.916,0.126  c0.03,0.004,0.059,0.008,0.089,0.013v33.12c0,16.355,13.305,29.66,29.66,29.66s29.66-13.305,29.66-29.66v-32.558h29.627v32.558  c0,16.355,13.305,29.66,29.66,29.66c16.355,0,29.66-13.305,29.66-29.66v-33.12c0.032-0.004,0.064-0.008,0.096-0.013  c0.303-0.042,0.607-0.079,0.908-0.125c9.198-1.445,18.021-5.186,25.49-10.74c0.029-0.021,0.058-0.042,0.087-0.064  c8.098-6.052,14.592-14.201,18.625-23.737c0.01-0.022,0.019-0.044,0.029-0.066c0.354-0.839,0.696-1.686,1.01-2.546  c10.097,4.257,19.377,10.504,27.177,18.335c3.105,3.118,8.149,3.128,11.267,0.023c3.118-3.105,3.129-8.149,0.023-11.267  c-9.979-10.02-22.012-17.852-35.103-22.907c0.095-1.346,0.159-2.699,0.159-4.069v-66.62c0-18.267-12.93-33.566-30.117-37.24V29.257  c0-13.332-10.846-24.178-24.178-24.178h-30.618c-13.332,0-24.177,10.846-24.177,24.178v27.499h-29.627V29.257  c0-13.332-10.846-24.178-24.178-24.178H186.39c-13.332,0-24.177,10.846-24.177,24.178v28.344  c-17.187,3.674-30.117,18.973-30.117,37.24v66.619c0,1.373,0.066,2.73,0.16,4.079c-17.501,6.769-33.092,18.52-44.395,33.613  c-13.096,17.485-20.017,38.306-20.017,60.208v39.651C28.714,307.549,0,342.597,0,383.276v77.073  C0,486.029,20.892,506.921,46.573,506.921z M444.156,315.394c28.801,7.813,49.926,33.459,51.764,63.611h-51.764V315.394z   M428.167,490.968c4.849-4.849,8.812-10.75,11.567-17.02c2.934-6.677,4.423-14.204,4.423-21.493v-57.516h51.908v65.409  c0,16.893-13.744,30.636-30.637,30.636C465.427,490.985,428.151,490.985,428.167,490.968z M148.031,394.94h215.938v96.045H148.031  V394.94z M225.252,251.757c0,7.568-6.156,13.725-13.725,13.725c-7.568,0-13.725-6.156-13.725-13.725v-32.558h27.449L225.252,251.757  L225.252,251.757z M314.198,251.757c0,7.568-6.156,13.725-13.725,13.725c-7.568,0-13.725-6.156-13.725-13.725v-32.558h27.449  V251.757z M286.75,29.257c0-4.545,3.697-8.243,8.242-8.243h30.618c4.545,0,8.243,3.697,8.243,8.243v27.499h-47.103L286.75,29.257  L286.75,29.257z M178.149,29.257c0-4.545,3.697-8.243,8.242-8.243h30.618c4.545,0,8.243,3.697,8.243,8.243v27.499h-47.103V29.257z   M148.032,94.841c0-12.214,9.936-22.15,22.149-22.15h63.038h45.563h63.038c12.213,0,22.149,9.936,22.149,22.15  c0,0,0,66.614,0,66.619c0,17.232-11.091,33.114-27.201,39.16c-4.624,1.735-9.662,2.644-14.602,2.644h-43.385h-45.563h-43.385  c-19.955,0-37.411-14.704-41.093-34.251c-0.468-2.489-0.71-5.021-0.71-7.553V94.841z M67.843,315.394v63.611H16.081  C17.919,348.853,39.044,323.207,67.843,315.394z M15.935,394.94h51.908v57.516c0,10.849,3.269,21.764,9.486,30.679  c1.937,2.778,4.106,5.438,6.52,7.85H46.573c-16.894,0-30.637-13.743-30.637-30.636V394.94z"/>
<g>
</g>
<g>
</g>
<g>
</g>
<g>
</g>
<g>
</g>
<g>
</g>
<g>
</g>
<g>
</g>
<g>
</g>
<g>
</g>
<g>
</g>
<g>
</g>
<g>
</g>
<g>
</g>
<g>
</g>
</svg>
