<?xml version="1.0" encoding="iso-8859-1"?>
<!-- Generator: Adobe Illustrator 19.0.0, SVG Export Plug-In . SVG Version: 6.00 Build 0)  -->
<svg xmlns="http://www.w3.org/2000/svg" xmlns:xlink="http://www.w3.org/1999/xlink" version="1.1" id="Layer_1" x="0px" y="0px" viewBox="0 0 512.001 512.001" style="enable-background:new 0 0 512.001 512.001;" xml:space="preserve">
<circle cx="228.931" cy="87.565" r="8.348"/>
<circle cx="283.069" cy="87.565" r="8.348"/>
<path d="M233.072,119.34c4.825,5.607,13.396,8.954,22.929,8.954c9.53,0,18.1-3.347,22.926-8.952  c2.778-3.227,2.414-8.094-0.812-10.872c-3.228-2.777-8.095-2.414-10.872,0.813c-1.489,1.73-5.643,3.592-11.242,3.592  c-5.6,0-9.753-1.864-11.243-3.593c-2.777-3.228-7.644-3.592-10.872-0.814C230.66,111.246,230.295,116.113,233.072,119.34z"/>
<path d="M375.486,329.192c4.105,1.123,8.346-1.296,9.469-5.403c13.8-50.469,33.104-92.885,47.191-120.09  c8.785-6.298,14.526-16.587,14.526-28.197c0-19.123-15.558-34.681-34.681-34.681h-23.126h-73.409  c4.383-7.765,7.29-16.463,8.336-25.722h13.296c4.257,0,7.709-3.451,7.709-7.709V88.797C344.798,39.835,304.963,0,256.001,0  c-8.421,0-16.809,1.207-24.927,3.585c-4.086,1.197-6.427,5.481-5.23,9.567c1.196,4.086,5.478,6.426,9.567,5.23  c39.038-11.428,81.066,12.287,91.516,51.563c1.634,6.144,2.455,12.497,2.455,18.853v10.885h-5.139V88.798  c0-7.461-1.187-14.735-3.537-21.708c-0.783-2.324-1.696-4.615-2.736-6.868c-1.261-2.729-3.992-4.476-6.999-4.476H201.033  c-3.007,0-5.739,1.747-6.999,4.476c-3.598,7.787-5.654,16.026-6.149,24.54c-0.078,1.339-0.124,14.922-0.124,14.922h-5.139V88.798  c0-22.049,9.829-42.745,26.964-56.781c3.294-2.698,3.776-7.555,1.079-10.848s-7.555-3.777-10.849-1.079  c-20.726,16.977-32.613,42.02-32.613,68.709v18.594c0,4.259,3.452,7.709,7.709,7.709h13.296c1.046,9.259,3.953,17.957,8.336,25.722  h-73.408h-23.126c-19.123,0-34.681,15.558-34.681,34.681c0,11.608,5.739,21.894,14.52,28.193  c5.71,11.028,11.26,22.609,16.509,34.466c1.724,3.894,6.276,5.652,10.17,3.93c3.894-1.723,5.652-6.276,3.93-10.17  c-3.26-7.367-6.636-14.635-10.094-21.738h22.774h53.204v84.555v3.094l-16.086,125.498l-1.273,9.925  c-0.659-52.838-12.616-109.942-35.671-170.174c-1.522-3.977-5.979-5.967-9.956-4.444c-3.976,1.521-5.966,5.979-4.444,9.956  c31.232,81.594,36.139,144.969,34.298,185.288c-16.082,5.043-27.783,20.083-27.783,37.807v12.602c0,4.258,3.452,7.709,7.709,7.709  h79.762c4.257,0,7.709-3.452,7.709-7.709v-29.079c18.133-2.484,31.659-3.747,40.235-3.747h10.319c8.577,0,22.102,1.262,40.235,3.747  v29.079c0,4.258,3.452,7.709,7.709,7.709h79.762c4.258,0,7.709-3.452,7.709-7.709V491.69c0-17.726-11.703-32.768-27.79-37.809  c-1.395-30.066,1.3-62.268,8.031-95.82c0.837-4.175-1.868-8.237-6.042-9.075c-4.176-0.837-8.237,1.869-9.075,6.043  c-5.428,27.061-8.324,53.319-8.658,78.396l-17.38-135.59v-3.094v-84.555h53.204h22.768c-13.423,27.535-29.522,65.547-41.55,109.537  C368.96,323.83,371.379,328.069,375.486,329.192z M339.821,452.079h-25.494l-41.146-103.086c-1.17-2.929-4.006-4.852-7.16-4.852  H245.98c-3.155,0-5.991,1.922-7.16,4.852l-41.147,103.086h-25.492v-0.532l14.931-116.483h137.779l14.931,116.483v0.532H339.821z   M203.179,107.391c0-8.398-0.639-17.001,0.428-25.354c0.347-2.722,0.918-5.398,1.687-8.027c0.28-0.956,0.577-1.907,0.912-2.848  h99.593c1.131,3.177,1.934,6.44,2.432,9.766c1.293,8.641,0.593,17.739,0.593,26.463c0,28.48-24.134,52.822-52.822,52.822  C227.304,160.214,203.179,136.065,203.179,107.391z M320.708,302.449l2.205,17.197H189.088l2.205-17.197h16.162h30.432h36.228  h30.431H320.708z M249.776,175.335c2.072,0.185,4.144,0.297,6.226,0.297c2.08,0,4.158-0.103,6.229-0.297  c0.139-0.013,0.28-0.018,0.418-0.032c1.262-0.122,2.516-0.273,3.757-0.464v112.19h-20.809V174.84  c1.241,0.191,2.495,0.341,3.757,0.464C249.494,175.318,249.635,175.323,249.776,175.335z M215.164,162.054  c4.627,3.462,9.674,6.328,15.013,8.515V287.03h-15.013V162.054z M281.824,287.03V170.569c5.34-2.187,10.387-5.053,15.013-8.515  V287.03L281.824,287.03L281.824,287.03z M199.746,287.03h-7.988v-84.555l0,0c0-4.257-3.452-7.709-7.709-7.709h-53.204v-38.525  h68.901V287.03z M431.255,175.504c0,7.251-4.03,13.573-9.964,16.858c-0.058,0.032-0.114,0.067-0.172,0.099  c-2.763,1.504-5.966,2.305-9.127,2.305h-15.417V156.24h15.417C422.614,156.24,431.255,164.882,431.255,175.504z M381.157,194.765  h-53.204c-4.258,0-7.709,3.452-7.709,7.709l0,0v84.555h-7.988V156.24h68.901L381.157,194.765L381.157,194.765z M100.009,156.24  h15.417v38.525c0,0-15.417,0-15.433,0c-3.153-0.003-6.341-0.8-9.113-2.306c-0.056-0.03-0.109-0.064-0.164-0.095  c-5.937-3.285-9.969-9.61-9.969-16.862C80.747,164.882,89.387,156.24,100.009,156.24z M195.188,496.582h-64.343v-4.893  c0-12.196,9.073-22.307,20.823-23.953c4.182-0.581,8.587-0.24,12.804-0.24h30.716v1.013V496.582z M250.842,456.047  c-8.796,0-22.074,1.18-39.552,3.512l39.915-100.001h9.593l39.915,100.001c-17.478-2.332-30.757-3.512-39.553-3.512H250.842z   M381.157,491.69v4.893h-64.343v-29.085h30.716c4.25,0,8.578-0.353,12.804,0.24C372.084,469.382,381.157,479.493,381.157,491.69z"/>
<g>
</g>
<g>
</g>
<g>
</g>
<g>
</g>
<g>
</g>
<g>
</g>
<g>
</g>
<g>
</g>
<g>
</g>
<g>
</g>
<g>
</g>
<g>
</g>
<g>
</g>
<g>
</g>
<g>
</g>
</svg>
