<?xml version="1.0" encoding="iso-8859-1"?>
<!-- Generator: Adobe Illustrator 19.0.0, SVG Export Plug-In . SVG Version: 6.00 Build 0)  -->
<svg version="1.1" id="Capa_1" xmlns="http://www.w3.org/2000/svg" xmlns:xlink="http://www.w3.org/1999/xlink" x="0px" y="0px"
	 viewBox="0 0 56 56" style="enable-background:new 0 0 56 56;" xml:space="preserve">
<g>
	<g>
	</g>
	<g>
		<path d="M55,5h-7.101C47.434,2.721,45.414,1,43,1H19c-2.757,0-5,2.243-5,5v11h-2c-0.552,0-1,0.447-1,1v4
			c0,0.368,0.202,0.706,0.526,0.881L24,29.598V38c0,0.404,0.244,0.77,0.617,0.924C24.741,38.976,24.871,39,25,39
			c0.26,0,0.516-0.102,0.707-0.293l4-4C29.895,34.52,30,34.266,30,34v-4.402l12.474-6.717C42.798,22.706,43,22.368,43,22v-4
			c0-0.553-0.448-1-1-1h-2v-4h11c2.757,0,5-2.243,5-5V6C56,5.447,55.552,5,55,5z M41,21.402l-12.474,6.717
			C28.202,28.294,28,28.632,28,29v4.586l-2,2V29c0-0.368-0.202-0.706-0.526-0.881L13,21.402V19h2h24h2V21.402z M16,17V6
			c0-1.654,1.346-3,3-3h20.002c-0.029,0.038-0.05,0.083-0.078,0.122c-0.059,0.083-0.11,0.17-0.163,0.257
			c-0.105,0.168-0.2,0.341-0.284,0.522c-0.045,0.098-0.089,0.195-0.128,0.296c-0.075,0.193-0.134,0.392-0.185,0.595
			c-0.023,0.094-0.053,0.185-0.071,0.281C38.037,5.374,38,5.682,38,6v6v5H16z M40,11V6c0-1.654,1.346-3,3-3s3,1.346,3,3v2
			c0,0.318,0.037,0.626,0.094,0.927c0.018,0.096,0.047,0.187,0.071,0.281c0.051,0.203,0.11,0.402,0.185,0.595
			c0.039,0.101,0.082,0.198,0.128,0.296c0.084,0.181,0.179,0.354,0.284,0.522c0.054,0.087,0.105,0.174,0.163,0.257
			c0.028,0.039,0.049,0.084,0.078,0.122C47.003,11,40,11,40,11z M54,8c0,1.654-1.346,3-3,3s-3-1.346-3-3V7h6V8z"/>
		<path d="M52,43c-1.365,0-2.57,0.689-3.292,1.736l-4.745-2.372C43.974,42.242,44,42.124,44,42c0-2.206-1.794-4-4-4s-4,1.794-4,4
			c0,0.468,0.096,0.91,0.244,1.328l-5.09,4.241C30.422,46.622,29.287,46,28,46c-1.031,0-1.963,0.403-2.673,1.045l-5.364-2.682
			C19.974,44.242,20,44.124,20,44c0-2.206-1.794-4-4-4s-4,1.794-4,4c0,0.149,0.028,0.291,0.044,0.435l-5.391,3.594
			C5.946,47.397,5.022,47,4,47c-2.206,0-4,1.794-4,4s1.794,4,4,4s4-1.794,4-4c0-0.46-0.094-0.895-0.237-1.307l5.016-3.344
			C13.507,47.345,14.675,48,16,48c1.365,0,2.57-0.689,3.292-1.736l4.934,2.467C24.09,49.132,24,49.554,24,50c0,2.206,1.794,4,4,4
			s4-1.794,4-4c0-0.168-0.029-0.328-0.05-0.49l5.422-4.518C38.077,45.611,38.99,46,40,46c1.365,0,2.57-0.689,3.292-1.736
			l4.745,2.372C48.026,46.758,48,46.876,48,47c0,2.206,1.794,4,4,4s4-1.794,4-4S54.206,43,52,43z M4,53c-1.103,0-2-0.897-2-2
			s0.897-2,2-2s2,0.897,2,2S5.103,53,4,53z M16,46c-1.103,0-2-0.897-2-2s0.897-2,2-2s2,0.897,2,2S17.103,46,16,46z M28,52
			c-1.103,0-2-0.897-2-2s0.897-2,2-2s2,0.897,2,2S29.103,52,28,52z M40,44c-1.103,0-2-0.897-2-2s0.897-2,2-2s2,0.897,2,2
			S41.103,44,40,44z M52,49c-1.103,0-2-0.897-2-2s0.897-2,2-2s2,0.897,2,2S53.103,49,52,49z"/>
		<rect x="19" y="13" width="4" height="2"/>
		<rect x="25" y="13" width="4" height="2"/>
		<rect x="31" y="13" width="4" height="2"/>
		<rect x="19" y="9" width="4" height="2"/>
		<rect x="25" y="9" width="4" height="2"/>
		<rect x="31" y="9" width="4" height="2"/>
		<rect x="19" y="5" width="4" height="2"/>
		<rect x="25" y="5" width="4" height="2"/>
		<rect x="31" y="5" width="4" height="2"/>
		<rect x="34" y="31" width="2" height="2"/>
		<rect x="38" y="31" width="2" height="2"/>
		<rect x="42" y="31" width="2" height="2"/>
		<rect x="10" y="31" width="2" height="2"/>
		<rect x="14" y="31" width="2" height="2"/>
		<rect x="18" y="31" width="2" height="2"/>
	</g>
</g>
<g>
</g>
<g>
</g>
<g>
</g>
<g>
</g>
<g>
</g>
<g>
</g>
<g>
</g>
<g>
</g>
<g>
</g>
<g>
</g>
<g>
</g>
<g>
</g>
<g>
</g>
<g>
</g>
<g>
</g>
</svg>
