<?xml version="1.0" encoding="iso-8859-1"?>
<!-- Generator: Adobe Illustrator 19.0.0, SVG Export Plug-In . SVG Version: 6.00 Build 0)  -->
<svg version="1.1" id="Capa_1" xmlns="http://www.w3.org/2000/svg" xmlns:xlink="http://www.w3.org/1999/xlink" x="0px" y="0px"
	 viewBox="0 0 55.473 55.473" style="enable-background:new 0 0 55.473 55.473;" xml:space="preserve">
<g>
	<g>
	</g>
	<g>
		<path d="M10.473,38.736c-1.654,0-3,1.346-3,3s1.346,3,3,3s3-1.346,3-3S12.127,38.736,10.473,38.736z M10.473,42.736
			c-0.552,0-1-0.448-1-1s0.448-1,1-1s1,0.448,1,1S11.025,42.736,10.473,42.736z"/>
		<path d="M14.473,27.236c-2.206,0-4,1.794-4,4s1.794,4,4,4s4-1.794,4-4S16.679,27.236,14.473,27.236z M14.473,33.236
			c-1.103,0-2-0.897-2-2s0.897-2,2-2s2,0.897,2,2S15.576,33.236,14.473,33.236z"/>
		<path d="M22.473,35.736c-1.654,0-3,1.346-3,3s1.346,3,3,3s3-1.346,3-3S24.127,35.736,22.473,35.736z M22.473,39.736
			c-0.552,0-1-0.448-1-1s0.448-1,1-1s1,0.448,1,1S23.025,39.736,22.473,39.736z"/>
		<path d="M10.473,23.236c0-1.654-1.346-3-3-3s-3,1.346-3,3s1.346,3,3,3S10.473,24.89,10.473,23.236z M6.473,23.236
			c0-0.552,0.448-1,1-1s1,0.448,1,1s-0.448,1-1,1S6.473,23.788,6.473,23.236z"/>
		<path d="M54.473,43.236v-35c0-0.553-0.447-1-1-1c-3.309,0-6,2.691-6,6v3h-1h-1h-2c0-3.859-3.141-7-7-7h-4V7.399
			c0-2.552-1.825-4.748-4.245-5.107c-1.604-0.235-3.158,0.293-4.258,1.393c-0.921-0.916-2.172-1.449-3.497-1.449
			c-1.327,0-2.578,0.534-3.5,1.45c-0.922-0.916-2.173-1.45-3.5-1.45c-1.339,0-2.601,0.544-3.524,1.476
			C8.974,2.806,7.593,2.236,6.223,2.236c-1.687,0-3.211,0.832-4.529,2.475C1.551,4.888,1.473,5.109,1.473,5.337v38.622l-1.04,1.733
			c-0.563,0.939-0.578,2.069-0.038,3.022c0.539,0.953,1.516,1.522,2.61,1.522h27.936c1.095,0,2.071-0.569,2.61-1.521
			c0.54-0.953,0.525-2.083-0.038-3.022l-1.04-1.734v-0.723h4c1.074,0,2.089-0.251,3-0.685v0.685c-0.553,0-1,0.447-1,1v4v5h2v-4h13v4
			h2v-5v-4C55.473,43.683,55.026,43.236,54.473,43.236z M47.473,31.236c0,0.552-0.448,1-1,1h-8c-0.552,0-1-0.448-1-1s0.448-1,1-1h8
			C47.025,30.236,47.473,30.684,47.473,31.236z M32.473,15.236h4c0.552,0,1,0.448,1,1v0.184c-1.161,0.414-2,1.514-2,2.816
			c0,0.771,0.301,1.468,0.78,2c-0.48,0.532-0.78,1.229-0.78,2s0.301,1.468,0.78,2c-0.48,0.532-0.78,1.229-0.78,2s0.301,1.468,0.78,2
			c-0.48,0.532-0.78,1.229-0.78,2c0,1.302,0.839,2.402,2,2.816v2.184c0,0.552-0.448,1-1,1h-4V15.236z M47.473,23.236
			c0,0.552-0.448,1-1,1h-8c-0.552,0-1-0.448-1-1s0.448-1,1-1h8C47.025,22.236,47.473,22.684,47.473,23.236z M47.473,27.236
			c0,0.552-0.448,1-1,1h-8c-0.552,0-1-0.448-1-1s0.448-1,1-1h8C47.025,26.236,47.473,26.684,47.473,27.236z M45.473,18.236h1
			c0.552,0,1,0.448,1,1s-0.448,1-1,1h-8c-0.552,0-1-0.448-1-1s0.448-1,1-1H45.473z M36.473,11.236c2.757,0,5,2.243,5,5h-2
			c0-1.654-1.346-3-3-3h-4v-2H36.473z M3.473,5.701c0.866-0.986,1.768-1.465,2.75-1.465c1.166,0,2.374,0.664,2.872,1.579
			c0.35,0.643,1.406,0.643,1.756,0c0.53-0.975,1.535-1.579,2.622-1.579s2.092,0.604,2.622,1.579c0.35,0.643,1.406,0.643,1.756,0
			c0.53-0.975,1.535-1.579,2.622-1.579s2.092,0.604,2.622,1.579c0.35,0.643,1.405,0.644,1.757-0.001
			c0.611-1.125,1.825-1.728,3.082-1.544c1.447,0.215,2.539,1.561,2.539,3.129v2.837v3h-5c-0.553,0-1,0.447-1,1v13
			c0,0.827-0.673,1.5-1.5,1.5s-1.5-0.673-1.5-1.5v-13c0-0.553-0.447-1-1-1h-4c-0.553,0-1,0.447-1,1v3.5c0,0.827-0.673,1.5-1.5,1.5
			s-1.5-0.673-1.5-1.5v-3.5c0-0.553-0.447-1-1-1h-8V5.701z M31.811,47.729c-0.087,0.153-0.344,0.507-0.87,0.507H3.005
			c-0.526,0-0.783-0.354-0.87-0.507c-0.086-0.153-0.258-0.557,0.013-1.008l1.183-1.971c0.093-0.155,0.142-0.332,0.142-0.514v-29h7
			v2.5c0,1.93,1.57,3.5,3.5,3.5s3.5-1.57,3.5-3.5v-2.5h2v12c0,1.93,1.57,3.5,3.5,3.5s3.5-1.57,3.5-3.5v-12h4v23v4v2
			c0,0.182,0.049,0.359,0.143,0.515l1.183,1.971C32.069,47.173,31.897,47.576,31.811,47.729z M32.473,41.236v-2h4
			c1.654,0,3-1.346,3-3v-2h2v2c0,2.757-2.243,5-5,5H32.473z M41.473,41.125c1.235-1.263,2-2.988,2-4.889v-2h3c1.654,0,3-1.346,3-3
			c0-0.771-0.301-1.468-0.78-2c0.48-0.532,0.78-1.229,0.78-2s-0.301-1.468-0.78-2c0.48-0.532,0.78-1.229,0.78-2s-0.301-1.468-0.78-2
			c0.48-0.532,0.78-1.229,0.78-2c0-0.462-0.114-0.895-0.301-1.287c0.185-0.181,0.301-0.433,0.301-0.713v-4
			c0-1.86,1.276-3.429,3-3.873v33.873h-11V41.125z M40.473,47.236v-2h13v2H40.473z"/>
		<rect x="26.473" y="44.236" width="2" height="2"/>
		<rect x="22.473" y="44.236" width="2" height="2"/>
		<rect x="18.473" y="44.236" width="2" height="2"/>
	</g>
</g>
<g>
</g>
<g>
</g>
<g>
</g>
<g>
</g>
<g>
</g>
<g>
</g>
<g>
</g>
<g>
</g>
<g>
</g>
<g>
</g>
<g>
</g>
<g>
</g>
<g>
</g>
<g>
</g>
<g>
</g>
</svg>
