<?xml version="1.0" encoding="iso-8859-1"?>
<!-- Generator: Adobe Illustrator 19.0.0, SVG Export Plug-In . SVG Version: 6.00 Build 0)  -->
<svg version="1.1" id="Capa_1" xmlns="http://www.w3.org/2000/svg" xmlns:xlink="http://www.w3.org/1999/xlink" x="0px" y="0px"
	 viewBox="0 0 56.707 56.707" style="enable-background:new 0 0 56.707 56.707;" xml:space="preserve">
<g>
	<g>
	</g>
	<g>
		<path d="M37.354,50c0.553,0,1-0.447,1-1v-6h3c0.553,0,1-0.447,1-1v-7.726c1.467,1.667,3.61,2.726,6,2.726c4.411,0,8-3.589,8-8
			s-3.589-8-8-8c-1.07,0-2.089,0.215-3.023,0.597C44.854,9.608,34.958,0,22.854,0c-12.406,0-22.5,10.094-22.5,22.5V56h2V22.5
			c0-11.304,9.196-20.5,20.5-20.5s20.5,9.196,20.5,20.5v0.265c-0.811,0.651-1.493,1.455-2,2.371c-1.365-2.463-3.99-4.136-7-4.136
			c-1.042,0-2.034,0.206-2.948,0.57l-17.249,3.45c-0.466,0.093-0.803,0.503-0.803,0.98v2h-5v-3.586L13.767,19h13.586
			c2.206,0,4-1.794,4-4c0-1.861-1.277-3.43-3.002-3.874c0.001-0.042,0.002-0.084,0.002-0.126c0-2.206-1.794-4-4-4
			c-0.486,0-0.964,0.09-1.412,0.262C22.292,5.92,20.917,5,19.354,5s-2.938,0.92-3.588,2.262C15.318,7.09,14.84,7,14.354,7
			c-2.206,0-4,1.794-4,4c0,0.042,0.001,0.084,0.002,0.126C8.631,11.57,7.354,13.139,7.354,15c0,2.077,1.596,3.769,3.624,3.962
			l-4.331,4.331C6.458,23.48,6.354,23.734,6.354,24v5c0,0.553,0.447,1,1,1h6v2c0,0.477,0.337,0.887,0.804,0.98l17.249,3.45
			c0.913,0.364,1.905,0.57,2.947,0.57c2.39,0,4.533-1.059,6-2.726V41h-3c-0.553,0-1,0.447-1,1v6h-15v2h3v6h2v-6H37.354z M9.354,15
			c0-1.103,0.896-1.999,1.974-1.999h0.001c0.021,0.003,0.117,0.014,0.138,0.016c0.348,0.025,0.668-0.122,0.873-0.392
			c0.206-0.271,0.26-0.627,0.145-0.946c-0.089-0.241-0.131-0.462-0.131-0.679c0-1.103,0.897-2,2-2c0.492,0,0.97,0.189,1.345,0.532
			c0.282,0.261,0.69,0.334,1.047,0.192c0.356-0.143,0.601-0.477,0.627-0.86C17.444,7.819,18.315,7,19.354,7s1.91,0.819,1.981,1.864
			c0.026,0.384,0.271,0.718,0.627,0.86c0.357,0.142,0.764,0.068,1.047-0.192C23.384,9.189,23.861,9,24.354,9c1.103,0,2,0.897,2,2
			c0,0.217-0.042,0.438-0.13,0.679c-0.115,0.319-0.062,0.676,0.145,0.946c0.205,0.27,0.522,0.417,0.873,0.392
			c0.01-0.001,0.099-0.012,0.14-0.017c1.089,0.015,1.972,0.906,1.972,2c0,1.103-0.897,2-2,2h-16C10.251,17,9.354,16.103,9.354,15z
			 M48.354,35c-2.489,0-4.627-1.523-5.535-3.686C44.209,32.15,46.159,33,48.354,33s4.144-0.85,5.535-1.686
			C52.98,33.477,50.842,35,48.354,35z M48.354,28c0.552,0,1,0.448,1,1s-0.448,1-1,1s-1-0.448-1-1S47.802,28,48.354,28z
			 M50.927,27.481c1.176,0.422,2.174,1.038,2.84,1.521c-0.665,0.483-1.663,1.101-2.843,1.521c0.267-0.448,0.43-0.965,0.43-1.523
			C51.354,28.444,51.192,27.929,50.927,27.481z M45.78,30.519c-1.176-0.422-2.174-1.038-2.84-1.521
			c0.665-0.483,1.663-1.101,2.843-1.521c-0.267,0.448-0.43,0.965-0.43,1.523C45.354,29.556,45.515,30.071,45.78,30.519z
			 M53.889,26.686C52.498,25.85,50.549,25,48.354,25s-4.144,0.85-5.535,1.686C43.727,24.523,45.865,23,48.354,23
			S52.98,24.523,53.889,26.686z M39.889,26.686C38.498,25.85,36.549,25,34.354,25s-4.144,0.85-5.535,1.686
			c0.599-1.427,1.734-2.573,3.151-3.189l2.462-0.492C36.887,23.036,38.991,24.546,39.889,26.686z M34.354,30c-0.552,0-1-0.448-1-1
			s0.448-1,1-1s1,0.448,1,1S34.905,30,34.354,30z M31.78,30.519c-1.176-0.422-2.174-1.038-2.84-1.521
			c0.665-0.483,1.663-1.101,2.843-1.521c-0.267,0.448-0.43,0.965-0.43,1.523C31.354,29.556,31.515,30.071,31.78,30.519z
			 M36.927,27.481c1.176,0.422,2.174,1.038,2.84,1.521c-0.665,0.483-1.663,1.101-2.843,1.521c0.267-0.448,0.43-0.965,0.43-1.523
			C37.354,28.444,37.192,27.929,36.927,27.481z M15.354,26.819l12.53-2.506c-0.958,1.319-1.53,2.936-1.53,4.687
			s0.572,3.368,1.53,4.686l-12.53-2.505V26.819z M34.432,34.996l-2.462-0.492c-1.418-0.616-2.553-1.763-3.151-3.189
			C30.209,32.15,32.159,33,34.354,33s4.144-0.85,5.535-1.686C38.991,33.454,36.887,34.964,34.432,34.996z"/>
		<path d="M22.354,42v1c0,1.654,1.346,3,3,3h9v-2h-9c-0.552,0-1-0.448-1-1v-1H22.354z"/>
		<rect x="14.354" y="13" width="2" height="2"/>
		<rect x="18.354" y="13" width="2" height="2"/>
		<rect x="22.354" y="13" width="2" height="2"/>
		<path d="M55.354,42h-5v2h2.586l-6.586,6.586l-2.293-2.293c-0.391-0.391-1.023-0.391-1.414,0l-7,7l1.414,1.414l6.293-6.293
			l2.293,2.293c0.391,0.391,1.023,0.391,1.414,0l7.293-7.293V48h2v-5C56.354,42.447,55.907,42,55.354,42z"/>
	</g>
</g>
<g>
</g>
<g>
</g>
<g>
</g>
<g>
</g>
<g>
</g>
<g>
</g>
<g>
</g>
<g>
</g>
<g>
</g>
<g>
</g>
<g>
</g>
<g>
</g>
<g>
</g>
<g>
</g>
<g>
</g>
</svg>
