<?xml version="1.0" encoding="iso-8859-1"?>
<!-- Generator: Adobe Illustrator 19.0.0, SVG Export Plug-In . SVG Version: 6.00 Build 0)  -->
<svg version="1.1" id="Capa_1" xmlns="http://www.w3.org/2000/svg" xmlns:xlink="http://www.w3.org/1999/xlink" x="0px" y="0px"
	 viewBox="0 0 56 56" style="enable-background:new 0 0 56 56;" xml:space="preserve">
<g>
	<g>
	</g>
	<g>
		<path d="M55,0H1C0.448,0,0,0.448,0,1v55h2V10h52v46h2V1C56,0.448,55.552,0,55,0z M2,8V2h52v6H2z"/>
		<path d="M31.161,35.747C32.939,33.281,34,30.265,34,27c0-8.271-6.729-15-15-15S4,18.729,4,27s6.729,15,15,15
			c2.748,0,5.318-0.755,7.535-2.051l13.137,13.137C40.261,53.675,41.045,54,41.879,54C43.6,54,45,52.6,45,50.879
			c0-0.834-0.325-1.618-0.914-2.207L31.161,35.747z M6,27c0-7.168,5.832-13,13-13s13,5.832,13,13s-5.832,13-13,13S6,34.168,6,27z
			 M41.879,52c-0.3,0-0.581-0.117-0.793-0.328L28.221,38.806c0.591-0.463,1.145-0.967,1.66-1.512l12.791,12.791
			C42.883,50.298,43,50.579,43,50.879C43,51.497,42.497,52,41.879,52z"/>
		<path d="M27,20h-4v-1c0-1.654-1.346-3-3-3h-2c-1.654,0-3,1.346-3,3v1h-4c-0.552,0-1,0.448-1,1v4v8c0,0.552,0.448,1,1,1h16
			c0.552,0,1-0.448,1-1v-8v-4C28,20.448,27.552,20,27,20z M26,25c0,0.551-0.449,1-1,1H13c-0.551,0-1-0.449-1-1v-3h14V25z M17,19
			c0-0.551,0.449-1,1-1h2c0.551,0,1,0.449,1,1v1h-4V19z M12,32v-4.184C12.314,27.928,12.648,28,13,28h5v1h2v-1h5
			c0.352,0,0.686-0.072,1-0.184V32H12z"/>
		<path d="M22,46h-3v-1c0-1.103-0.897-2-2-2h-4c-1.103,0-2,0.897-2,2v1H8c-0.552,0-1,0.448-1,1v8c0,0.552,0.448,1,1,1h14
			c0.552,0,1-0.448,1-1v-8C23,46.448,22.552,46,22,46z M13,45h4v1h-4V45z M21,54H9v-6h12V54z"/>
		<rect x="36" y="14" width="14" height="2"/>
		<rect x="36" y="18" width="14" height="2"/>
		<rect x="36" y="22" width="14" height="2"/>
		<rect x="36" y="30" width="14" height="2"/>
		<rect x="36" y="34" width="14" height="2"/>
		<rect x="38" y="38" width="12" height="2"/>
		<rect x="47" y="46" width="3" height="2"/>
		<rect x="47" y="50" width="3" height="2"/>
		<rect x="47" y="54" width="3" height="2"/>
		<circle cx="5" cy="5" r="1"/>
		<circle cx="9" cy="5" r="1"/>
		<circle cx="13" cy="5" r="1"/>
		<rect x="14" y="50" width="2" height="2"/>
	</g>
</g>
<g>
</g>
<g>
</g>
<g>
</g>
<g>
</g>
<g>
</g>
<g>
</g>
<g>
</g>
<g>
</g>
<g>
</g>
<g>
</g>
<g>
</g>
<g>
</g>
<g>
</g>
<g>
</g>
<g>
</g>
</svg>
