<?xml version="1.0" encoding="iso-8859-1"?>
<!-- Generator: Adobe Illustrator 19.0.0, SVG Export Plug-In . SVG Version: 6.00 Build 0)  -->
<svg version="1.1" id="Capa_1" xmlns="http://www.w3.org/2000/svg" xmlns:xlink="http://www.w3.org/1999/xlink" x="0px" y="0px"
	 viewBox="0 0 57.949 57.949" style="enable-background:new 0 0 57.949 57.949;" xml:space="preserve">
<g>
	<g>
	</g>
	<g>
		<path d="M36.148,30h3.826c2.757,0,5-2.243,5-5V6c0-0.552-0.448-1-1-1h-8V3c0-1.654-1.346-3-3-3h-8c-1.654,0-3,1.346-3,3v2h-8
			c-0.552,0-1,0.448-1,1v19c0,2.757,2.243,5,5,5h3.826c-4.081,2.449-6.826,6.904-6.826,12c0,7.72,6.28,14,14,14s14-6.28,14-14
			C42.975,36.904,40.229,32.449,36.148,30z M23.975,3c0-0.551,0.449-1,1-1h8c0.551,0,1,0.449,1,1v2h-10V3z M14.975,7h28v3
			c0,1.654-1.346,3-3,3h-22c-1.654,0-3-1.346-3-3V7z M26.975,15h4v2h-4V15z M17.975,28c-1.654,0-3-1.346-3-3V13.974
			c0.838,0.635,1.87,1.026,3,1.026h7v3c0,0.552,0.448,1,1,1h6c0.552,0,1-0.448,1-1v-3h7c1.13,0,2.162-0.391,3-1.026V25
			c0,1.654-1.346,3-3,3H17.975z M28.975,54c-6.617,0-12-5.383-12-12s5.383-12,12-12s12,5.383,12,12S35.591,54,28.975,54z"/>
		<path d="M11.975,42c0-2.639,0.612-5.205,1.767-7.536l0.284,0.852l1.897-0.633l-1-3c-0.174-0.523-0.74-0.809-1.265-0.632l-3,1
			l0.633,1.897l0.565-0.188c-1.233,2.557-1.881,5.361-1.881,8.24c0,5.761,2.57,11.146,7.052,14.774l1.259-1.555
			C14.274,51.973,11.975,47.154,11.975,42z"/>
		<path d="M47.975,42c0-3.756-1.095-7.389-3.166-10.505l-1.666,1.107c1.853,2.787,2.832,6.037,2.832,9.398
			c0,4.58-1.804,8.857-5,12.032V53h-2v3c0,0.431,0.275,0.812,0.684,0.949l3,1l0.633-1.897l-1.127-0.376
			C45.879,52.106,47.975,47.227,47.975,42z"/>
		<path d="M28.778,40.783l-3.355-1.678l-0.895,1.789l4,2C28.67,42.965,28.823,43,28.975,43c0.26,0,0.516-0.101,0.708-0.293l4-4
			l-1.414-1.414L28.778,40.783z"/>
		<path d="M28.975,32c-5.514,0-10,4.486-10,10s4.486,10,10,10s10-4.486,10-10S34.489,32,28.975,32z M28.975,50c-4.411,0-8-3.589-8-8
			s3.589-8,8-8s8,3.589,8,8S33.385,50,28.975,50z"/>
		<rect x="37.975" y="24" width="2" height="2"/>
		<rect x="33.975" y="24" width="2" height="2"/>
		<rect x="29.975" y="24" width="2" height="2"/>
	</g>
</g>
<g>
</g>
<g>
</g>
<g>
</g>
<g>
</g>
<g>
</g>
<g>
</g>
<g>
</g>
<g>
</g>
<g>
</g>
<g>
</g>
<g>
</g>
<g>
</g>
<g>
</g>
<g>
</g>
<g>
</g>
</svg>
