<?xml version="1.0" encoding="iso-8859-1"?>
<!-- Generator: Adobe Illustrator 19.0.0, SVG Export Plug-In . SVG Version: 6.00 Build 0)  -->
<svg version="1.1" id="Capa_1" xmlns="http://www.w3.org/2000/svg" xmlns:xlink="http://www.w3.org/1999/xlink" x="0px" y="0px"
	 viewBox="0 0 56 56" style="enable-background:new 0 0 56 56;" xml:space="preserve">
<g>
	<g>
	</g>
	<g>
		<path d="M55,16.5h-5.54c0.954-1.063,1.54-2.462,1.54-4c0-3.309-2.691-6-6-6s-6,2.691-6,6c0,1.538,0.586,2.937,1.54,4H38
			c-0.553,0-1,0.448-1,1v1.101c-2.279,0.465-4,2.484-4,4.899v7c0,2.414,1.721,4.434,4,4.899v5.781l-4.813,6.739
			c-0.316,0.442-0.221,1.055,0.214,1.381l4,3c0.174,0.131,0.385,0.2,0.6,0.2c0.057,0,0.112-0.005,0.169-0.014
			c0.271-0.046,0.511-0.203,0.663-0.431l6-9C43.941,42.891,44,42.697,44,42.5v-3.764l3,6V51.5c0,0.552,0.447,1,1,1h5
			c0.553,0,1-0.448,1-1v-7c0-0.155-0.036-0.309-0.105-0.447l-4.575-9.15c1.302-0.689,2.277-1.918,2.579-3.403H55
			c0.553,0,1-0.448,1-1v-13C56,16.948,55.553,16.5,55,16.5z M41,12.5c0-2.206,1.794-4,4-4s4,1.794,4,4s-1.794,4-4,4
			S41,14.706,41,12.5z M36.754,50.066l-2.372-1.78l4.432-6.205C38.935,41.912,39,41.708,39,41.5v-6h3v6.697L36.754,50.066z
			 M52,44.736V50.5h-3v-6c0-0.155-0.036-0.309-0.105-0.447L44.618,35.5H47c0.124,0,0.241-0.028,0.363-0.037L52,44.736z M47,33.5h-9
			c-1.654,0-3-1.346-3-3v-7c0-1.302,0.839-2.402,2-2.816V23.5v7c0,0.552,0.447,1,1,1h11.829C49.416,32.664,48.304,33.5,47,33.5z
			 M54,29.5h-3h-4v-3h-2v3h-6v-6v-5h15V29.5z"/>
		<path d="M27,16c0-0.539-0.133-1.044-0.351-1.5H33.5c1.93,0,3.5-1.57,3.5-3.5s-1.57-3.5-3.5-3.5H12h-2H7H3H0v2h2v18H0v2h3h4h16.5
			c1.93,0,3.5-1.57,3.5-3.5c0-0.98-0.407-1.864-1.058-2.5C26.593,22.864,27,21.98,27,21s-0.407-1.864-1.058-2.5
			C26.593,17.864,27,16.98,27,16z M6,27.5H4v-18h2V27.5z M35,11c0,0.827-0.673,1.5-1.5,1.5h-10H17c0-1.13-0.391-2.162-1.026-3H33.5
			C34.327,9.5,35,10.173,35,11z M25,21c0,0.827-0.673,1.5-1.5,1.5H16v2h7.5c0.827,0,1.5,0.673,1.5,1.5s-0.673,1.5-1.5,1.5H8v-18h2h2
			c1.654,0,3,1.346,3,3v6c0,0.827-0.673,1.5-1.5,1.5S12,19.327,12,18.5v-5h-2v5c0,1.93,1.57,3.5,3.5,3.5
			c1.58,0,2.903-1.059,3.337-2.5H23.5C24.327,19.5,25,20.173,25,21z M17,17.5v-3h6.5c0.827,0,1.5,0.673,1.5,1.5s-0.673,1.5-1.5,1.5
			H17z"/>
		<rect x="28" y="50.5" width="2" height="2"/>
		<rect x="24" y="50.5" width="2" height="2"/>
		<rect x="20" y="50.5" width="2" height="2"/>
		<rect x="38" y="3.5" width="2" height="3"/>
	</g>
</g>
<g>
</g>
<g>
</g>
<g>
</g>
<g>
</g>
<g>
</g>
<g>
</g>
<g>
</g>
<g>
</g>
<g>
</g>
<g>
</g>
<g>
</g>
<g>
</g>
<g>
</g>
<g>
</g>
<g>
</g>
</svg>
