<?xml version="1.0" encoding="iso-8859-1"?>
<!-- Generator: Adobe Illustrator 19.0.0, SVG Export Plug-In . SVG Version: 6.00 Build 0)  -->
<svg version="1.1" id="Capa_1" xmlns="http://www.w3.org/2000/svg" xmlns:xlink="http://www.w3.org/1999/xlink" x="0px" y="0px"
	 viewBox="0 0 56 56" style="enable-background:new 0 0 56 56;" xml:space="preserve">
<g>
	<g>
	</g>
	<g>
		<path d="M55.757,27.347c-0.173-0.201-1.701-1.946-4.244-4.154c-0.026-0.13-0.049-0.262-0.078-0.391l-0.302,0.067
			c-0.599-0.511-1.245-1.041-1.943-1.581l1.695-0.537c-0.211-0.666-0.452-1.327-0.719-1.966l-1.847,0.768
			c0.202,0.484,0.376,0.985,0.544,1.487C43.804,17.187,36.382,13,28,13c-8.381,0-15.802,4.186-20.862,8.039
			c0.163-0.49,0.333-0.982,0.532-1.463l-1.848-0.764c-0.268,0.646-0.508,1.307-0.717,1.967l1.678,0.529
			c-0.689,0.534-1.326,1.057-1.918,1.562l-0.301-0.066c-0.028,0.129-0.051,0.26-0.077,0.389c-2.543,2.208-4.071,3.953-4.244,4.154
			c-0.324,0.375-0.324,0.932,0,1.307c0.173,0.201,1.701,1.946,4.244,4.154c0.026,0.13,0.049,0.261,0.077,0.389l0.301-0.066
			c0.6,0.511,1.246,1.041,1.945,1.582L5.115,35.25c0.211,0.666,0.452,1.327,0.719,1.966l1.847-0.768
			c-0.202-0.484-0.376-0.985-0.544-1.487C12.196,38.813,19.618,43,28,43c8.381,0,15.802-4.186,20.862-8.039
			c-0.163,0.49-0.333,0.982-0.532,1.463l1.848,0.764c0.268-0.646,0.508-1.307,0.717-1.967l-1.678-0.529
			c0.688-0.533,1.325-1.056,1.917-1.56l0.302,0.067c0.029-0.13,0.051-0.261,0.078-0.391c2.543-2.208,4.071-3.953,4.244-4.154
			C56.081,28.278,56.081,27.722,55.757,27.347z M40,28c0,7.168-5.383,13-12,13s-12-5.832-12-13s5.383-13,12-13S40,20.832,40,28z
			 M2.359,28c1.912-2.01,8.199-8.136,16.365-11.205C15.834,19.544,14,23.542,14,28s1.834,8.456,4.725,11.205
			C10.558,36.136,4.272,30.01,2.359,28z M37.275,39.205C40.166,36.456,42,32.458,42,28s-1.834-8.456-4.725-11.205
			C45.442,19.864,51.728,25.99,53.641,28C51.728,30.01,45.442,36.136,37.275,39.205z"/>
		<path d="M21.373,7.017l-0.602-1.908c-0.659,0.208-1.32,0.449-1.966,0.717l0.766,1.848C20.163,7.428,20.77,7.207,21.373,7.017z"/>
		<path d="M28.946,6.02l0.084-1.998c-0.696-0.029-1.4-0.028-2.091,0.002l0.086,1.998C27.662,5.994,28.31,5.994,28.946,6.02z"/>
		<path d="M25.116,6.187l-0.262-1.982c-0.691,0.091-1.385,0.213-2.061,0.362l0.432,1.953C23.846,6.382,24.481,6.271,25.116,6.187z"
			/>
		<path d="M17.836,8.483l-0.928-1.771c-0.62,0.324-1.229,0.677-1.81,1.048l1.076,1.686C16.708,9.104,17.267,8.781,17.836,8.483z"/>
		<path d="M14.604,10.546L13.385,8.96c-0.554,0.426-1.093,0.879-1.604,1.348l1.354,1.473C13.603,11.352,14.097,10.936,14.604,10.546
			z"/>
		<path d="M11.78,13.138l-1.475-1.352c-0.47,0.513-0.923,1.052-1.347,1.604l1.586,1.219C10.934,14.103,11.349,13.607,11.78,13.138z"
			/>
		<path d="M9.442,16.179l-1.686-1.076c-0.372,0.583-0.726,1.192-1.049,1.812l1.773,0.926C8.777,17.271,9.102,16.713,9.442,16.179z"
			/>
		<path d="M44.197,10.29c-0.513-0.47-1.053-0.923-1.604-1.346l-1.217,1.588c0.506,0.388,1.001,0.803,1.472,1.232L44.197,10.29z"/>
		<path d="M33.177,4.561c-0.677-0.148-1.37-0.27-2.062-0.359l-0.258,1.982c0.634,0.083,1.27,0.194,1.89,0.33L33.177,4.561z"/>
		<path d="M47.025,13.369c-0.425-0.552-0.878-1.09-1.348-1.602l-1.473,1.354c0.431,0.469,0.847,0.963,1.236,1.469L47.025,13.369z"/>
		<path d="M47.508,17.818l1.771-0.93c-0.325-0.618-0.679-1.228-1.051-1.809l-1.684,1.078C46.886,16.691,47.21,17.25,47.508,17.818z"
			/>
		<path d="M40.879,7.746c-0.589-0.375-1.198-0.728-1.813-1.048l-0.924,1.773c0.563,0.294,1.122,0.616,1.661,0.96L40.879,7.746z"/>
		<path d="M37.169,5.814c-0.64-0.266-1.303-0.506-1.97-0.716l-0.6,1.908c0.611,0.191,1.217,0.412,1.802,0.655L37.169,5.814z"/>
		<path d="M15.121,48.254c0.589,0.375,1.198,0.728,1.813,1.048l0.924-1.773c-0.563-0.294-1.122-0.616-1.661-0.96L15.121,48.254z"/>
		<path d="M30.884,49.813l0.262,1.982c0.691-0.091,1.385-0.213,2.061-0.362l-0.432-1.953C32.154,49.618,31.519,49.729,30.884,49.813
			z"/>
		<path d="M34.627,48.983l0.602,1.908c0.659-0.208,1.32-0.449,1.966-0.717l-0.766-1.848C35.837,48.572,35.23,48.793,34.627,48.983z"
			/>
		<path d="M38.164,47.517l0.928,1.771c0.62-0.324,1.229-0.677,1.81-1.048l-1.076-1.686C39.292,46.896,38.733,47.219,38.164,47.517z"
			/>
		<path d="M44.22,42.862l1.475,1.352c0.47-0.513,0.923-1.052,1.347-1.604l-1.586-1.219C45.066,41.897,44.651,42.393,44.22,42.862z"
			/>
		<path d="M46.558,39.821l1.686,1.076c0.372-0.583,0.726-1.192,1.049-1.812l-1.773-0.926C47.223,38.729,46.898,39.287,46.558,39.821
			z"/>
		<path d="M41.396,45.454l1.219,1.586c0.554-0.426,1.093-0.879,1.604-1.348l-1.354-1.473C42.397,44.648,41.903,45.064,41.396,45.454
			z"/>
		<path d="M8.492,38.182l-1.771,0.93C7.046,39.73,7.4,40.34,7.772,40.921l1.684-1.078C9.114,39.309,8.79,38.75,8.492,38.182z"/>
		<path d="M8.975,42.632c0.425,0.552,0.878,1.09,1.348,1.602l1.473-1.354c-0.431-0.469-0.847-0.963-1.236-1.469L8.975,42.632z"/>
		<path d="M11.803,45.71c0.513,0.47,1.053,0.923,1.604,1.346l1.217-1.588c-0.506-0.388-1.001-0.803-1.472-1.232L11.803,45.71z"/>
		<path d="M22.823,51.439c0.677,0.148,1.37,0.27,2.062,0.359l0.258-1.982c-0.634-0.083-1.27-0.194-1.89-0.33L22.823,51.439z"/>
		<path d="M18.831,50.186c0.64,0.266,1.303,0.506,1.97,0.716l0.6-1.908c-0.611-0.191-1.217-0.412-1.802-0.655L18.831,50.186z"/>
		<path d="M27.054,49.98l-0.084,1.998C27.312,51.993,27.655,52,28,52c0.356,0,0.71-0.008,1.061-0.023l-0.086-1.998
			C28.338,50.005,27.69,50.007,27.054,49.98z"/>
		<path d="M19.707,32.707L24,28.414l3.293,3.293c0.391,0.391,1.023,0.391,1.414,0L35,25.414V28h2v-5c0-0.553-0.447-1-1-1h-5v2h2.586
			L28,29.586l-3.293-3.293c-0.391-0.391-1.023-0.391-1.414,0l-5,5L19.707,32.707z"/>
		<rect x="27" y="34" width="2" height="2"/>
		<rect x="31" y="34" width="2" height="2"/>
		<rect x="23" y="34" width="2" height="2"/>
	</g>
</g>
<g>
</g>
<g>
</g>
<g>
</g>
<g>
</g>
<g>
</g>
<g>
</g>
<g>
</g>
<g>
</g>
<g>
</g>
<g>
</g>
<g>
</g>
<g>
</g>
<g>
</g>
<g>
</g>
<g>
</g>
</svg>
