<?xml version="1.0" encoding="iso-8859-1"?>
<!-- Generator: Adobe Illustrator 19.0.0, SVG Export Plug-In . SVG Version: 6.00 Build 0)  -->
<svg version="1.1" id="Capa_1" xmlns="http://www.w3.org/2000/svg" xmlns:xlink="http://www.w3.org/1999/xlink" x="0px" y="0px"
	 viewBox="0 0 56.001 56.001" style="enable-background:new 0 0 56.001 56.001;" xml:space="preserve">
<g>
	<path d="M8,26.001c-4.486,0-8,2.196-8,5v20c0,2.804,3.514,5,8,5s8-2.196,8-5v-20C16,28.197,12.486,26.001,8,26.001z M8,54.001
		c-3.536,0-6-1.581-6-3v-1.667c1.455,1.026,3.583,1.667,6,1.667s4.545-0.641,6-1.667v1.667C14,52.42,11.536,54.001,8,54.001z
		 M8,49.001c-3.536,0-6-1.581-6-3v-1.667c1.455,1.026,3.583,1.667,6,1.667s4.545-0.641,6-1.667v1.667
		C14,47.42,11.536,49.001,8,49.001z M8,44.001c-3.536,0-6-1.581-6-3v-1.667c1.455,1.026,3.583,1.667,6,1.667s4.545-0.641,6-1.667
		v1.667C14,42.42,11.536,44.001,8,44.001z M8,39.001c-3.536,0-6-1.581-6-3v-1.667c1.455,1.026,3.583,1.667,6,1.667
		s4.545-0.641,6-1.667v1.667C14,37.42,11.536,39.001,8,39.001z M8,34.001c-3.536,0-6-1.581-6-3c0-1.419,2.464-3,6-3s6,1.581,6,3
		C14,32.42,11.536,34.001,8,34.001z"/>
	<path d="M48,1.001c-4.486,0-8,2.196-8,5v45c0,2.804,3.514,5,8,5s8-2.196,8-5v-45C56,3.197,52.486,1.001,48,1.001z M48,3.001
		c3.536,0,6,1.581,6,3s-2.464,3-6,3s-6-1.581-6-3S44.464,3.001,48,3.001z M48,54.001c-3.536,0-6-1.581-6-3v-1.667
		c1.455,1.026,3.583,1.667,6,1.667s4.545-0.641,6-1.667v1.667C54,52.42,51.536,54.001,48,54.001z M48,49.001c-3.536,0-6-1.581-6-3
		v-1.667c1.455,1.026,3.583,1.667,6,1.667s4.545-0.641,6-1.667v1.667C54,47.42,51.536,49.001,48,49.001z M48,44.001
		c-3.536,0-6-1.581-6-3v-1.667c1.455,1.026,3.583,1.667,6,1.667s4.545-0.641,6-1.667v1.667C54,42.42,51.536,44.001,48,44.001z
		 M48,39.001c-3.536,0-6-1.581-6-3v-1.667c1.455,1.026,3.583,1.667,6,1.667s4.545-0.641,6-1.667v1.667
		C54,37.42,51.536,39.001,48,39.001z M48,34.001c-3.536,0-6-1.581-6-3v-1.667c1.455,1.026,3.583,1.667,6,1.667s4.545-0.641,6-1.667
		v1.667C54,32.42,51.536,34.001,48,34.001z M48,29.001c-3.536,0-6-1.581-6-3v-1.667c1.455,1.026,3.583,1.667,6,1.667
		s4.545-0.641,6-1.667v1.667C54,27.42,51.536,29.001,48,29.001z M48,24.001c-3.536,0-6-1.581-6-3v-1.667
		c1.455,1.026,3.583,1.667,6,1.667s4.545-0.641,6-1.667v1.667C54,22.42,51.536,24.001,48,24.001z M48,19.001c-3.536,0-6-1.581-6-3
		v-1.667c1.455,1.026,3.583,1.667,6,1.667s4.545-0.641,6-1.667v1.667C54,17.42,51.536,19.001,48,19.001z M48,14.001
		c-3.536,0-6-1.581-6-3V9.333c1.455,1.026,3.583,1.667,6,1.667s4.545-0.641,6-1.667v1.667C54,12.42,51.536,14.001,48,14.001z"/>
	<path d="M37.077,4.078c-0.168-0.027-4.121-0.57-6.345,1.655c-1.779,1.78-1.786,4.658-1.706,5.828l-1.733,1.733
		C27.105,13.481,27,13.735,27,14.001v0.586l-3-3V8.001h-0.007c0.043-1.511-0.152-4.281-1.932-6.061
		c-2.492-2.494-6.943-1.882-7.13-1.853c-0.439,0.064-0.783,0.408-0.846,0.846c-0.027,0.188-0.641,4.637,1.853,7.13
		c1.647,1.647,4.148,1.938,5.71,1.938c0.128,0,0.238-0.004,0.352-0.008v2.008c0,0.266,0.105,0.52,0.293,0.707l3.485,3.485
		C22.408,16.782,20,18.681,20,21.001v30c0,2.804,3.514,5,8,5s8-2.196,8-5v-30c0-2.591-3.004-4.66-7-4.959v-1.627l1.441-1.441
		C30.645,12.988,30.887,13,31.18,13c1.387,0,3.616-0.26,5.088-1.731c2.225-2.226,1.679-6.178,1.655-6.345
		C37.859,4.485,37.515,4.141,37.077,4.078z M17.353,6.649c-1.27-1.269-1.386-3.469-1.347-4.642c1.182-0.029,3.374,0.077,4.642,1.347
		c1.27,1.269,1.386,3.469,1.347,4.642C20.817,8.03,18.622,7.919,17.353,6.649z M28,54.001c-3.536,0-6-1.581-6-3v-1.667
		c1.455,1.026,3.583,1.667,6,1.667s4.545-0.641,6-1.667v1.667C34,52.42,31.536,54.001,28,54.001z M28,49.001c-3.536,0-6-1.581-6-3
		v-1.667c1.455,1.026,3.583,1.667,6,1.667s4.545-0.641,6-1.667v1.667C34,47.42,31.536,49.001,28,49.001z M28,44.001
		c-3.536,0-6-1.581-6-3v-1.667c1.455,1.026,3.583,1.667,6,1.667s4.545-0.641,6-1.667v1.667C34,42.42,31.536,44.001,28,44.001z
		 M28,39.001c-3.536,0-6-1.581-6-3v-1.667c1.455,1.026,3.583,1.667,6,1.667s4.545-0.641,6-1.667v1.667
		C34,37.42,31.536,39.001,28,39.001z M28,34.001c-3.536,0-6-1.581-6-3v-1.667c1.455,1.026,3.583,1.667,6,1.667s4.545-0.641,6-1.667
		v1.667C34,32.42,31.536,34.001,28,34.001z M28,29.001c-3.536,0-6-1.581-6-3v-1.667c1.455,1.026,3.583,1.667,6,1.667
		s4.545-0.641,6-1.667v1.667C34,27.42,31.536,29.001,28,29.001z M34,21.001c0,1.419-2.464,3-6,3s-6-1.581-6-3
		c0-1.281,2.01-2.689,5-2.952v2.952h2v-2.952C31.99,18.312,34,19.72,34,21.001z M34.854,9.854c-1.04,1.04-2.82,1.164-3.852,1.145
		c-0.023-1.029,0.107-2.814,1.145-3.852c1.038-1.038,2.813-1.156,3.852-1.145C36.021,7.032,35.891,8.817,34.854,9.854z"/>
</g>
<g>
</g>
<g>
</g>
<g>
</g>
<g>
</g>
<g>
</g>
<g>
</g>
<g>
</g>
<g>
</g>
<g>
</g>
<g>
</g>
<g>
</g>
<g>
</g>
<g>
</g>
<g>
</g>
<g>
</g>
</svg>
