<?xml version="1.0" encoding="iso-8859-1"?>
<!-- Generator: Adobe Illustrator 19.0.0, SVG Export Plug-In . SVG Version: 6.00 Build 0)  -->
<svg version="1.1" id="Capa_1" xmlns="http://www.w3.org/2000/svg" xmlns:xlink="http://www.w3.org/1999/xlink" x="0px" y="0px"
	 viewBox="0 0 56 56" style="enable-background:new 0 0 56 56;" xml:space="preserve">
<g>
	<g>
	</g>
	<g>
		<path d="M51.5,7h-12C37.019,7,35,9.019,35,11.5s2.019,4.5,4.5,4.5h1.086L33.5,23.086l-7.367-7.366
			C26.695,15.015,27,14.146,27,13.232c0-1.069-0.416-2.073-1.172-2.828c-1.27-1.271-3.358-1.509-4.863-0.617
			c-0.028-0.03-0.058-0.061-0.087-0.09c-1.511-1.512-4.146-1.512-5.657,0c-0.755,0.755-1.171,1.76-1.171,2.828
			s0.416,2.072,1.172,2.829c0.029,0.029,0.059,0.058,0.089,0.086c-0.361,0.609-0.554,1.308-0.554,2.034
			c0,1.069,0.417,2.073,1.172,2.828c1.511,1.512,4.146,1.511,5.656,0.001c0.051-0.051,0.1-0.103,0.148-0.156l7.353,7.353L24,32.586
			l-6.293-6.293c-0.391-0.391-1.023-0.391-1.414,0l-16,16c-0.391,0.391-0.391,1.023,0,1.414l5,5C5.488,48.902,5.744,49,6,49
			s0.512-0.098,0.707-0.293L17,38.414l6.293,6.293c0.391,0.391,1.023,0.391,1.414,0L47,22.414V23.5c0,2.481,2.019,4.5,4.5,4.5
			s4.5-2.019,4.5-4.5v-12C56,9.019,53.981,7,51.5,7z M21.553,17.553c-0.069,0-0.139,0.007-0.208,0.021
			c-0.332,0.07-0.604,0.304-0.726,0.62c-0.103,0.267-0.253,0.5-0.447,0.694c-0.756,0.756-2.073,0.756-2.829,0
			c-0.378-0.378-0.586-0.88-0.586-1.414s0.208-1.036,0.567-1.395c0.019-0.014,0.098-0.076,0.115-0.092
			c0.255-0.222,0.381-0.558,0.334-0.893c-0.046-0.335-0.259-0.624-0.565-0.768c-0.232-0.109-0.42-0.236-0.573-0.389
			c-0.377-0.378-0.585-0.88-0.585-1.414s0.208-1.036,0.585-1.414c0.756-0.756,2.072-0.757,2.829,0.001
			c0.153,0.152,0.28,0.339,0.387,0.569c0.144,0.308,0.434,0.521,0.77,0.567c0.334,0.053,0.673-0.08,0.895-0.338
			c0.013-0.016,0.057-0.077,0.069-0.093c0.756-0.756,2.072-0.756,2.828,0C24.792,12.196,25,12.698,25,13.232
			s-0.208,1.036-0.587,1.415c-0.088,0.089-0.185,0.161-0.284,0.229c-0.244,0.169-0.399,0.438-0.426,0.732
			c-0.026,0.296,0.08,0.587,0.289,0.797L34.586,27L33,28.586l-10.74-10.74C22.07,17.656,21.815,17.553,21.553,17.553z M54,23.5
			c0,1.379-1.122,2.5-2.5,2.5S49,24.879,49,23.5V20c0-0.404-0.244-0.77-0.617-0.924c-0.375-0.156-0.804-0.069-1.09,0.217L24,42.586
			l-6.293-6.293c-0.391-0.391-1.023-0.391-1.414,0L6,46.586L2.414,43L17,28.414l6.293,6.293c0.391,0.391,1.023,0.391,1.414,0
			l5.793-5.793L31.586,30l-1.293,1.293l1.414,1.414l2-2l3-3l2-2l-1.414-1.414L36,25.586L34.914,24.5l8.793-8.793
			c0.286-0.286,0.372-0.716,0.217-1.09S43.404,14,43,14h-3.5c-1.378,0-2.5-1.121-2.5-2.5S38.122,9,39.5,9h12
			c1.378,0,2.5,1.121,2.5,2.5V23.5z"/>
		<rect x="4" y="22" width="2" height="2"/>
		<rect x="8" y="22" width="2" height="2"/>
		<rect x="12" y="22" width="2" height="2"/>
		<rect x="41" y="32" width="2" height="2"/>
		<rect x="45" y="32" width="2" height="2"/>
		<rect x="49" y="32" width="2" height="2"/>
	</g>
</g>
<g>
</g>
<g>
</g>
<g>
</g>
<g>
</g>
<g>
</g>
<g>
</g>
<g>
</g>
<g>
</g>
<g>
</g>
<g>
</g>
<g>
</g>
<g>
</g>
<g>
</g>
<g>
</g>
<g>
</g>
</svg>
