<?xml version="1.0" encoding="iso-8859-1"?>
<!-- Generator: Adobe Illustrator 19.0.0, SVG Export Plug-In . SVG Version: 6.00 Build 0)  -->
<svg version="1.1" id="Capa_1" xmlns="http://www.w3.org/2000/svg" xmlns:xlink="http://www.w3.org/1999/xlink" x="0px" y="0px"
	 viewBox="0 0 51 51" style="enable-background:new 0 0 51 51;" xml:space="preserve">
<g>
	<g>
	</g>
	<g>
		<path d="M15,21c2.206,0,4-1.794,4-4c0-2.206-1.794-4-4-4s-4,1.794-4,4C11,19.206,12.794,21,15,21z M15,15c1.103,0,2,0.897,2,2
			s-0.897,2-2,2s-2-0.897-2-2S13.897,15,15,15z"/>
		<path d="M31,21c2.206,0,4-1.794,4-4c0-2.206-1.794-4-4-4s-4,1.794-4,4C27,19.206,28.794,21,31,21z M31,15c1.103,0,2,0.897,2,2
			s-0.897,2-2,2s-2-0.897-2-2S29.897,15,31,15z"/>
		<path d="M50.707,46.293l-9.402-9.402C44.327,32.909,46,28.021,46,23C46,10.317,35.682,0,23,0S0,10.317,0,23s10.318,23,23,23
			c5.019,0,9.91-1.672,13.891-4.694l9.401,9.401C46.488,50.902,46.744,51,47,51s0.512-0.098,0.707-0.293l3-3
			C51.098,47.316,51.098,46.684,50.707,46.293z M23,44C11.42,44,2,34.579,2,23S11.42,2,23,2s21,9.421,21,21
			c0,4.493-1.466,8.869-4.121,12.465l-4.172-4.172C35.52,31.105,35.265,31,35,31h-3c-0.098,0-0.187,0.029-0.276,0.056l-0.319-0.431
			c-6.48,4.805-14.746,3.467-20.102-3.248L9.74,28.623c3.618,4.539,8.424,6.897,13.282,6.897c2.71,0,5.433-0.747,7.979-2.245V35
			c0,0.266,0.105,0.52,0.293,0.707l4.171,4.171C31.869,42.533,27.491,44,23,44z M47,48.586l-14-14V33h1.586l14,14L47,48.586z"/>
		<rect x="32" y="49" width="2" height="2"/>
		<rect x="36" y="49" width="2" height="2"/>
		<rect x="40" y="49" width="2" height="2"/>
	</g>
</g>
<g>
</g>
<g>
</g>
<g>
</g>
<g>
</g>
<g>
</g>
<g>
</g>
<g>
</g>
<g>
</g>
<g>
</g>
<g>
</g>
<g>
</g>
<g>
</g>
<g>
</g>
<g>
</g>
<g>
</g>
</svg>
