<?xml version="1.0" encoding="iso-8859-1"?>
<!-- Generator: Adobe Illustrator 19.0.0, SVG Export Plug-In . SVG Version: 6.00 Build 0)  -->
<svg version="1.1" id="Capa_1" xmlns="http://www.w3.org/2000/svg" xmlns:xlink="http://www.w3.org/1999/xlink" x="0px" y="0px"
	 viewBox="0 0 60 60" style="enable-background:new 0 0 60 60;" xml:space="preserve">
<g>
	<g>
	</g>
	<g>
		<path d="M60,30c0-0.267-0.106-0.522-0.296-0.709l-3.874-3.847l2.332-4.938c0.114-0.242,0.127-0.519,0.035-0.77
			c-0.091-0.25-0.279-0.455-0.521-0.566l-4.96-2.283l0.496-5.438c0.024-0.266-0.059-0.53-0.23-0.734
			c-0.171-0.204-0.417-0.332-0.683-0.354l-5.441-0.452l-1.387-5.281c-0.067-0.258-0.235-0.478-0.466-0.612
			c-0.232-0.134-0.506-0.169-0.764-0.099l-5.27,1.433l-3.115-4.485c-0.152-0.219-0.386-0.369-0.648-0.415
			c-0.264-0.048-0.532,0.015-0.751,0.168L30,3.775L25.543,0.62c-0.219-0.154-0.487-0.216-0.751-0.168
			c-0.263,0.046-0.496,0.195-0.648,0.415l-3.115,4.485L15.76,3.917c-0.258-0.069-0.531-0.034-0.764,0.099
			c-0.23,0.133-0.398,0.354-0.466,0.612L13.142,9.91l-5.44,0.452c-0.266,0.022-0.512,0.149-0.683,0.354
			c-0.172,0.204-0.255,0.468-0.23,0.734l0.496,5.438L2.324,19.17c-0.242,0.111-0.431,0.315-0.521,0.566
			c-0.092,0.25-0.079,0.527,0.035,0.769l2.332,4.938L0.296,29.29C0.106,29.478,0,29.733,0,30c0,0.267,0.106,0.522,0.296,0.709
			l3.874,3.847l-2.332,4.938c-0.114,0.242-0.127,0.519-0.035,0.77c0.091,0.25,0.279,0.455,0.521,0.566l4.96,2.283l-0.496,5.438
			c-0.024,0.266,0.059,0.53,0.23,0.734c0.171,0.204,0.417,0.332,0.683,0.354l5.441,0.452l1.387,5.281
			c0.067,0.258,0.235,0.478,0.466,0.612c0.232,0.134,0.505,0.168,0.764,0.099l5.27-1.433l3.115,4.485
			c0.152,0.219,0.386,0.369,0.648,0.415c0.264,0.048,0.532-0.015,0.751-0.168L30,56.225l4.457,3.155
			c0.171,0.12,0.373,0.184,0.578,0.184c0.058,0,0.115-0.005,0.173-0.015c0.263-0.046,0.496-0.195,0.648-0.415l3.115-4.485
			l5.269,1.434c0.26,0.071,0.532,0.035,0.764-0.099c0.23-0.133,0.398-0.354,0.466-0.612l1.388-5.282l5.44-0.452
			c0.266-0.022,0.512-0.149,0.683-0.354c0.172-0.204,0.255-0.468,0.23-0.734l-0.496-5.438l4.961-2.284
			c0.242-0.111,0.431-0.315,0.521-0.566c0.092-0.25,0.079-0.527-0.035-0.769l-2.332-4.938l3.874-3.847
			C59.894,30.522,60,30.267,60,30z M53.92,33.635c-0.301,0.298-0.381,0.753-0.2,1.137l2.202,4.664l-4.685,2.157
			c-0.385,0.177-0.616,0.577-0.578,0.999l0.469,5.138l-5.142,0.427c-0.422,0.035-0.776,0.333-0.884,0.743l-1.311,4.99l-4.977-1.354
			c-0.41-0.114-0.844,0.047-1.084,0.395l-2.942,4.236l-4.211-2.981C30.404,54.061,30.202,54,30,54s-0.404,0.061-0.578,0.184
			l-4.211,2.981l-2.942-4.236c-0.24-0.347-0.673-0.507-1.084-0.395l-4.978,1.354l-1.31-4.989c-0.107-0.41-0.462-0.708-0.884-0.743
			l-5.142-0.427l0.469-5.138c0.038-0.422-0.193-0.822-0.578-0.999l-4.685-2.157l2.202-4.663c0.181-0.383,0.101-0.838-0.2-1.137
			L2.419,30l3.661-3.635c0.301-0.298,0.381-0.753,0.2-1.137l-2.202-4.664l4.685-2.157c0.385-0.177,0.616-0.577,0.578-0.999
			L8.872,12.27l5.142-0.427c0.422-0.035,0.776-0.333,0.884-0.743l1.311-4.99l4.977,1.354c0.41,0.112,0.844-0.048,1.084-0.395
			l2.942-4.236l4.211,2.981c0.348,0.245,0.809,0.245,1.156,0l4.211-2.981l2.942,4.236c0.24,0.347,0.675,0.508,1.084,0.395
			l4.978-1.354l1.31,4.989c0.107,0.41,0.462,0.708,0.884,0.743l5.142,0.427l-0.469,5.138c-0.038,0.422,0.193,0.822,0.578,0.999
			l4.685,2.157l-2.202,4.663c-0.181,0.383-0.101,0.838,0.2,1.137L57.581,30L53.92,33.635z"/>
		<path d="M39.745,15.033L20.869,20H14c-2.757,0-5,2.243-5,5v6c0,0.552,0.447,1,1,1h1v6c0,2.757,2.243,5,5,5h3c0.553,0,1-0.448,1-1
			V32h0.869l18.876,4.967C39.829,36.989,39.915,37,40,37c0.219,0,0.434-0.072,0.61-0.208C40.856,36.603,41,36.31,41,36V16
			c0-0.31-0.144-0.603-0.39-0.792C40.365,15.02,40.047,14.956,39.745,15.033z M11,25c0-1.654,1.346-3,3-3h6v8h-1h-7h-1V25z M18,41
			h-2c-1.654,0-3-1.346-3-3v-6h5V41z M39,34.703l-17-4.474v-8.458l17-4.474V34.703z"/>
		<path d="M44.879,21.464l-1.414,1.414c1.17,1.17,1.17,3.073,0,4.243l1.414,1.414C46.828,26.586,46.828,23.414,44.879,21.464z"/>
		<path d="M46.293,20.05c1.323,1.323,2.053,3.081,2.053,4.95s-0.729,3.626-2.053,4.95l1.414,1.414
			c1.701-1.701,2.639-3.961,2.639-6.364s-0.938-4.663-2.639-6.364L46.293,20.05z"/>
		<rect x="22" y="41" width="2" height="2"/>
		<rect x="26" y="41" width="2" height="2"/>
		<rect x="30" y="41" width="2" height="2"/>
	</g>
</g>
<g>
</g>
<g>
</g>
<g>
</g>
<g>
</g>
<g>
</g>
<g>
</g>
<g>
</g>
<g>
</g>
<g>
</g>
<g>
</g>
<g>
</g>
<g>
</g>
<g>
</g>
<g>
</g>
<g>
</g>
</svg>
