<?xml version="1.0" encoding="iso-8859-1"?>
<!-- Generator: Adobe Illustrator 19.0.0, SVG Export Plug-In . SVG Version: 6.00 Build 0)  -->
<svg version="1.1" id="Capa_1" xmlns="http://www.w3.org/2000/svg" xmlns:xlink="http://www.w3.org/1999/xlink" x="0px" y="0px"
	 viewBox="0 0 56 56" style="enable-background:new 0 0 56 56;" xml:space="preserve">
<g>
	<g>
	</g>
	<g>
		<path d="M43,29H13c-0.553,0-1,0.447-1,1v26h2V31h28v25h2V30C44,29.447,43.553,29,43,29z"/>
		<path d="M46,37c0,2.757,2.243,5,5,5s5-2.243,5-5s-2.243-5-5-5S46,34.243,46,37z M54,37c0,1.654-1.346,3-3,3s-3-1.346-3-3
			s1.346-3,3-3S54,35.346,54,37z"/>
		<path d="M5,32c-2.757,0-5,2.243-5,5s2.243,5,5,5s5-2.243,5-5S7.757,32,5,32z M5,40c-1.654,0-3-1.346-3-3s1.346-3,3-3s3,1.346,3,3
			S6.654,40,5,40z"/>
		<path d="M25,13c2.757,0,5-2.243,5-5s-2.243-5-5-5s-5,2.243-5,5S22.243,13,25,13z M25,5c1.654,0,3,1.346,3,3s-1.346,3-3,3
			s-3-1.346-3-3S23.346,5,25,5z"/>
		<path d="M51,45c-2.757,0-5,2.243-5,5s2.243,5,5,5s5-2.243,5-5S53.757,45,51,45z M51,53c-1.654,0-3-1.346-3-3s1.346-3,3-3
			s3,1.346,3,3S52.654,53,51,53z"/>
		<path d="M5,45c-2.757,0-5,2.243-5,5s2.243,5,5,5s5-2.243,5-5S7.757,45,5,45z M5,53c-1.654,0-3-1.346-3-3s1.346-3,3-3s3,1.346,3,3
			S6.654,53,5,53z"/>
		<path d="M21.99,35.858c-0.058-0.402-0.354-0.729-0.748-0.828l-4-1l-0.484,1.939l3.348,0.837L20.847,42H20v2h4v-2h-1.132
			L21.99,35.858z"/>
		<path d="M21.99,47.858c-0.058-0.402-0.354-0.729-0.748-0.828l-4-1l-0.484,1.939l3.348,0.837L20.847,54H20v2h4v-2h-1.132
			L21.99,47.858z"/>
		<path d="M34.758,35.03c-0.395,0.099-0.69,0.426-0.748,0.828L33.132,42H32v2h4v-2h-0.847l0.741-5.193l3.348-0.837l-0.484-1.939
			L34.758,35.03z"/>
		<path d="M39.242,47.97l-0.484-1.939l-4,1c-0.395,0.099-0.69,0.426-0.748,0.828L33.132,54H32v2h4v-2h-0.847l0.741-5.193
			L39.242,47.97z"/>
		<path d="M13,26h30c2.757,0,5-2.243,5-5V5c0-2.757-2.243-5-5-5H13c-2.757,0-5,2.243-5,5v16C8,23.757,10.243,26,13,26z M43,24H13
			c-1.654,0-3-1.346-3-3h36C46,22.654,44.654,24,43,24z M18,19c0-1.654,1.346-3,3-3h8c1.654,0,3,1.346,3,3H18z M13,2h30
			c1.654,0,3,1.346,3,3v14H34c0-2.757-2.243-5-5-5h-8c-2.757,0-5,2.243-5,5h-6V5C10,3.346,11.346,2,13,2z"/>
		<path d="M35,12v3c0,0.404,0.243,0.77,0.617,0.924C35.741,15.976,35.871,16,36,16c0.26,0,0.516-0.102,0.707-0.293L40.414,12H41
			c1.654,0,3-1.346,3-3V7c0-1.654-1.346-3-3-3h-6c-1.654,0-3,1.346-3,3v2C32,10.654,33.346,12,35,12z M34,7c0-0.552,0.448-1,1-1h6
			c0.552,0,1,0.448,1,1v2c0,0.552-0.448,1-1,1h-1c-0.266,0-0.52,0.105-0.707,0.293L37,12.586V11c0-0.553-0.447-1-1-1h-1
			c-0.552,0-1-0.448-1-1V7z"/>
		<rect x="4" y="16" width="2" height="2"/>
		<rect x="4" y="12" width="2" height="2"/>
		<rect x="4" y="8" width="2" height="2"/>
		<rect x="50" y="16" width="2" height="2"/>
		<rect x="50" y="12" width="2" height="2"/>
		<rect x="50" y="8" width="2" height="2"/>
	</g>
</g>
<g>
</g>
<g>
</g>
<g>
</g>
<g>
</g>
<g>
</g>
<g>
</g>
<g>
</g>
<g>
</g>
<g>
</g>
<g>
</g>
<g>
</g>
<g>
</g>
<g>
</g>
<g>
</g>
<g>
</g>
</svg>
