<?xml version="1.0" encoding="iso-8859-1"?>
<!-- Generator: Adobe Illustrator 19.0.0, SVG Export Plug-In . SVG Version: 6.00 Build 0)  -->
<svg version="1.1" id="Capa_1" xmlns="http://www.w3.org/2000/svg" xmlns:xlink="http://www.w3.org/1999/xlink" x="0px" y="0px"
	 viewBox="0 0 56 56" style="enable-background:new 0 0 56 56;" xml:space="preserve">
<g>
	<g>
	</g>
	<g>
		<path d="M16.5,28c-6.065,0-11,4.935-11,11s4.935,11,11,11s11-4.935,11-11S22.565,28,16.5,28z M25.384,37.63l-2.32,1.943
			l-0.883-3.532c-0.117-0.471-0.552-0.773-1.039-0.756l-3.637,0.25l1.36-3.38c0.164-0.407,0.043-0.874-0.299-1.15l-1.187-0.96
			C21.476,30.444,24.765,33.602,25.384,37.63z M16.5,48c-4.962,0-9-4.037-9-9c0-4.256,2.973-7.823,6.949-8.755l2.286,1.85
			l-1.679,4.175c-0.128,0.319-0.083,0.683,0.119,0.961c0.203,0.278,0.532,0.424,0.877,0.41l4.393-0.303l1.068,4.271
			c0.083,0.335,0.333,0.603,0.661,0.709c0.101,0.033,0.206,0.049,0.309,0.049c0.231,0,0.459-0.08,0.642-0.233l2.283-1.913
			C24.809,44.606,21.048,48,16.5,48z"/>
		<path d="M50.5,23c0-6.065-4.935-11-11-11s-11,4.935-11,11s4.935,11,11,11S50.5,29.065,50.5,23z M30.5,23
			c0-0.571,0.059-1.128,0.161-1.67l0.157,0.629c0.118,0.471,0.563,0.775,1.039,0.756l3.637-0.25l-1.36,3.38
			c-0.181,0.449-0.014,0.963,0.396,1.221L37.617,29l-2.732,1.712C32.264,29.138,30.5,26.275,30.5,23z M39.5,32
			c-0.824,0-1.619-0.121-2.377-0.329l2.909-1.823C40.323,29.664,40.5,29.345,40.5,29s-0.177-0.664-0.469-0.848l-3.729-2.338
			l1.643-4.084c0.128-0.319,0.083-0.683-0.119-0.961s-0.529-0.426-0.877-0.41l-4.393,0.303l-0.627-2.509
			C33.531,15.659,36.323,14,39.5,14c4.962,0,9,4.037,9,9S44.462,32,39.5,32z"/>
		<path d="M54.5,23c0-4.14-1.649-7.993-4.645-10.853c-2.994-2.856-6.929-4.312-11.073-4.131c-6.016,0.281-11.269,4.328-13.339,9.793
			l-2.319-1.943c-0.264-0.221-0.624-0.292-0.951-0.185c-0.328,0.106-0.578,0.374-0.661,0.709l-1.068,4.271L19.5,20.597v-9.183
			l2.672,2.672C22.761,14.676,23.545,15,24.379,15c1.721,0,3.121-1.4,3.121-3.121c0-0.822-0.333-1.626-0.914-2.207l-9.379-9.379
			c-0.391-0.391-1.023-0.391-1.414,0L6.414,9.672C5.833,10.253,5.5,11.057,5.5,11.879C5.5,13.6,6.9,15,8.621,15
			c0.834,0,1.618-0.324,2.207-0.914l2.672-2.672v12.904C6.601,25.725,1.5,31.889,1.5,39c0,8.271,6.729,15,15,15
			c7.987,0,14.518-6.28,14.957-14.16l1.488,0.992C33.113,40.943,33.306,41,33.5,41c0.162,0,0.324-0.039,0.472-0.118
			C34.297,40.708,34.5,40.369,34.5,40v-2.888c0.648,0.23,1.311,0.431,2,0.571V45h-2c-1.654,0-3,1.346-3,3s1.346,3,3,3h2v2
			c0,1.654,1.346,3,3,3s3-1.346,3-3v-2h2c1.654,0,3-1.346,3-3s-1.346-3-3-3h-2v-7.318C49.399,36.275,54.5,30.111,54.5,23z
			 M21.142,22.715c0.023,0.001,0.046,0.002,0.069,0.002c0.456,0,0.858-0.31,0.97-0.758l0.883-3.532l1.773,1.485
			c-0.133,0.621-0.241,1.25-0.291,1.894c-0.13,1.679,0.038,3.314,0.436,4.868c-1.623-1.123-3.473-1.946-5.482-2.355v-1.716
			L21.142,22.715z M16.5,52c-7.168,0-13-5.832-13-13c0-6.415,4.79-11.94,11.142-12.851c0.492-0.071,0.858-0.493,0.858-0.99V9
			c0-0.404-0.244-0.77-0.617-0.924C14.759,8.024,14.629,8,14.5,8c-0.26,0-0.516,0.102-0.707,0.293l-4.379,4.379
			C9.202,12.884,8.921,13,8.621,13C8.003,13,7.5,12.497,7.5,11.879c0-0.295,0.12-0.584,0.328-0.793L16.5,2.414l8.672,8.672
			c0.208,0.209,0.328,0.498,0.328,0.793c0,0.618-0.503,1.121-1.121,1.121c-0.3,0-0.581-0.116-0.793-0.328l-4.379-4.379
			c-0.287-0.287-0.716-0.374-1.09-0.217C17.744,8.23,17.5,8.596,17.5,9v16.159c0,0.497,0.366,0.919,0.858,0.99
			C24.71,27.06,29.5,32.585,29.5,39C29.5,46.168,23.668,52,16.5,52z M32.5,38.132l-1.096-0.731c-0.076-0.7-0.2-1.387-0.371-2.058
			c0.471,0.325,0.957,0.63,1.467,0.901V38.132z M41.5,47h3c0.551,0,1,0.448,1,1s-0.449,1-1,1h-3c-0.552,0-1,0.447-1,1v3
			c0,0.552-0.449,1-1,1s-1-0.448-1-1v-3c0-0.553-0.448-1-1-1h-3c-0.551,0-1-0.448-1-1s0.449-1,1-1h3c0.552,0,1-0.447,1-1v-9.159
			c0-0.497-0.366-0.919-0.858-0.99c-6.755-0.968-11.631-7.069-11.102-13.891c0.497-6.398,5.915-11.646,12.334-11.945
			c3.601-0.169,7.005,1.104,9.599,3.58C51.07,16.072,52.5,19.412,52.5,23c0,6.415-4.79,11.94-11.142,12.851
			c-0.492,0.071-0.858,0.493-0.858,0.99V46C40.5,46.553,40.948,47,41.5,47z"/>
	</g>
</g>
<g>
</g>
<g>
</g>
<g>
</g>
<g>
</g>
<g>
</g>
<g>
</g>
<g>
</g>
<g>
</g>
<g>
</g>
<g>
</g>
<g>
</g>
<g>
</g>
<g>
</g>
<g>
</g>
<g>
</g>
</svg>
