<?xml version="1.0" encoding="iso-8859-1"?>
<!-- Generator: Adobe Illustrator 19.0.0, SVG Export Plug-In . SVG Version: 6.00 Build 0)  -->
<svg version="1.1" id="Capa_1" xmlns="http://www.w3.org/2000/svg" xmlns:xlink="http://www.w3.org/1999/xlink" x="0px" y="0px"
	 viewBox="0 0 56 56" style="enable-background:new 0 0 56 56;" xml:space="preserve">
<g>
	<g>
	</g>
	<g>
		<path d="M28,0C12.561,0,0,12.561,0,28s12.561,28,28,28s28-12.561,28-28S43.439,0,28,0z M53.975,27H46.95
			c-0.235-4.484-2.024-8.553-4.847-11.688l4.964-4.964C51.154,14.759,53.73,20.585,53.975,27z M15.312,42.102
			c3.135,2.824,7.204,4.612,11.688,4.847v7.025c-6.415-0.244-12.241-2.821-16.652-6.908L15.312,42.102z M29,46.949
			c4.484-0.235,8.553-2.024,11.688-4.847l4.964,4.964C41.241,51.154,35.415,53.73,29,53.975V46.949z M28,45c-9.374,0-17-7.626-17-17
			s7.626-17,17-17s17,7.626,17,17S37.374,45,28,45z M40.688,13.898C37.553,11.074,33.484,9.286,29,9.051V2.025
			c6.415,0.244,12.241,2.821,16.652,6.908L40.688,13.898z M27,9.051c-4.484,0.235-8.553,2.024-11.688,4.847l-4.964-4.964
			C14.759,4.846,20.585,2.27,27,2.025V9.051z M8.933,10.348l4.964,4.964C11.073,18.447,9.285,22.516,9.05,27H2.025
			C2.27,20.585,4.846,14.759,8.933,10.348z M2.025,29H9.05c0.235,4.484,2.024,8.553,4.847,11.688l-4.964,4.964
			C4.846,41.241,2.27,35.415,2.025,29z M47.067,45.652l-4.964-4.964c2.824-3.135,4.612-7.204,4.847-11.688h7.025
			C53.73,35.415,51.154,41.241,47.067,45.652z"/>
		<path d="M39,25h-1.78c-0.33-0.366-0.746-0.647-1.22-0.816V24c0-4.411-3.589-8-8-8s-8,3.589-8,8v0.184
			c-0.474,0.169-0.889,0.45-1.22,0.816H17c-1.654,0-3,1.346-3,3v4c0,1.654,1.346,3,3,3h1.78c0.35,0.388,0.797,0.678,1.305,0.842
			C20.488,38.198,22.532,40,25,40h5v-2h-5c-1.383,0-2.539-0.945-2.884-2.22C23.218,35.336,24,34.259,24,33v-6
			c0-1.302-0.839-2.402-2-2.816V24c0-3.309,2.691-6,6-6s6,2.691,6,6v0.184c-1.161,0.414-2,1.514-2,2.816v6c0,1.654,1.346,3,3,3
			c0.883,0,1.67-0.391,2.22-1H39c1.654,0,3-1.346,3-3v-4C42,26.346,40.654,25,39,25z M21,34c-0.552,0-1-0.448-1-1v-6
			c0-0.552,0.448-1,1-1s1,0.448,1,1v6C22,33.552,21.552,34,21,34z M17,33c-0.552,0-1-0.448-1-1v-4c0-0.552,0.448-1,1-1h1v6H17z
			 M35,34c-0.552,0-1-0.448-1-1v-6c0-0.552,0.448-1,1-1s1,0.448,1,1v6C36,33.552,35.552,34,35,34z M40,32c0,0.552-0.448,1-1,1h-1v-6
			h1c0.552,0,1,0.448,1,1V32z"/>
		<rect x="27" y="21" width="2" height="2"/>
		<rect x="27" y="25" width="2" height="2"/>
		<rect x="27" y="29" width="2" height="2"/>
	</g>
</g>
<g>
</g>
<g>
</g>
<g>
</g>
<g>
</g>
<g>
</g>
<g>
</g>
<g>
</g>
<g>
</g>
<g>
</g>
<g>
</g>
<g>
</g>
<g>
</g>
<g>
</g>
<g>
</g>
<g>
</g>
</svg>
