<?xml version="1.0" encoding="iso-8859-1"?>
<!-- Generator: Adobe Illustrator 19.0.0, SVG Export Plug-In . SVG Version: 6.00 Build 0)  -->
<svg version="1.1" id="Capa_1" xmlns="http://www.w3.org/2000/svg" xmlns:xlink="http://www.w3.org/1999/xlink" x="0px" y="0px"
	 viewBox="0 0 64 64" style="enable-background:new 0 0 64 64;" xml:space="preserve">
<g>
	<g>
	</g>
	<g>
		<path d="M43,24.5c2.757,0,5,2.243,5,5c0,0.552,0.447,1,1,1h4h4h4h3v-2h-2v-10c0-1.654-1.346-3-3-3c-0.771,0-1.468,0.301-2,0.78
			c-0.532-0.48-1.229-0.78-2-0.78s-1.468,0.301-2,0.78c-0.532-0.48-1.229-0.78-2-0.78c-1.654,0-3,1.346-3,3v6.109
			c-1.272-1.299-3.042-2.109-5-2.109c-3.164,0-5.842,2.112-6.705,5H33h-5.295c-0.863-2.888-3.541-5-6.705-5
			c-1.915,0-3.708,0.863-5,2.206V18.5c0-1.654-1.346-3-3-3c-0.771,0-1.468,0.301-2,0.78c-0.532-0.479-1.229-0.78-2-0.78
			s-1.468,0.301-2,0.78c-0.532-0.479-1.229-0.78-2-0.78c-1.654,0-3,1.346-3,3v10H0v2h3h4h4h4c0.553,0,1-0.448,1-1
			c0-2.36,2.139-5,5-5c2.757,0,5,2.243,5,5v2c0,0.551-0.448,1-1,1s-1-0.449-1-1v-2c0-1.654-1.346-3-3-3s-3,1.346-3,3v12
			c0,1.654,1.346,3,3,3c0.883,0,1.67-0.391,2.22-1h2.356c-0.774,1.763-2.531,3-4.576,3c-2.508,0-4.532-1.709-4.923-4.158
			C16,41.857,15.581,41.5,15.09,41.5H0v2h14.288c0.844,2.983,3.494,5,6.712,5c3.164,0,5.842-2.112,6.705-5H33h3.295
			c0.863,2.888,3.541,5,6.705,5c3.137,0,5.833-2.058,6.703-5H64v-2H48.91c-0.488,0-0.904,0.352-0.986,0.833
			C47.517,44.748,45.445,46.5,43,46.5c-2.045,0-3.802-1.237-4.576-3h2.356c0.549,0.609,1.337,1,2.22,1c1.654,0,3-1.346,3-3v-12
			c0-1.654-1.346-3-3-3s-3,1.346-3,3v2c0,0.551-0.448,1-1,1s-1-0.449-1-1v-2C38,26.743,40.243,24.5,43,24.5z M59,17.5
			c0.552,0,1,0.449,1,1v10h-2v-10C58,17.949,58.448,17.5,59,17.5z M55,17.5c0.552,0,1,0.449,1,1v10h-2v-10
			C54,17.949,54.448,17.5,55,17.5z M50,18.5c0-0.551,0.448-1,1-1s1,0.449,1,1v10h-2V18.5z M4,18.5c0-0.551,0.448-1,1-1s1,0.449,1,1
			v10H4V18.5z M8,18.5c0-0.551,0.448-1,1-1s1,0.449,1,1v10H8V18.5z M12,28.5v-10c0-0.551,0.448-1,1-1s1,0.449,1,1v10H12z M21,42.5
			c-0.552,0-1-0.449-1-1v-12c0-0.551,0.448-1,1-1s1,0.449,1,1v2v8v2C22,42.051,21.552,42.5,21,42.5z M26,41.5h-2v-2v-5.184
			c0.314,0.112,0.648,0.184,1,0.184c1.654,0,3-1.346,3-3v-2h4v2.126c-1.724,0.445-3,2.013-3,3.874s1.276,3.428,3,3.874V41.5h-4H26z
			 M42,29.5c0-0.551,0.448-1,1-1s1,0.449,1,1v12c0,0.551-0.448,1-1,1s-1-0.449-1-1v-2v-8V29.5z M39,34.5
			c0.352,0,0.686-0.072,1-0.184V39.5v2h-2h-2h-2v-3c0-0.552-0.447-1-1-1c-1.103,0-2-0.897-2-2s0.897-2,2-2c0.553,0,1-0.448,1-1v-3h2
			v2C36,33.154,37.346,34.5,39,34.5z"/>
		<path d="M34.293,15.207l1.414-1.414L34.414,12.5H44v-2h-9.586l1.293-1.293l-1.414-1.414l-3,3c-0.391,0.391-0.391,1.023,0,1.414
			L34.293,15.207z"/>
		<rect x="46" y="10.5" width="2" height="2"/>
		<rect x="50" y="10.5" width="2" height="2"/>
		<rect x="54" y="10.5" width="2" height="2"/>
		<path d="M29.707,48.793l-1.414,1.414l1.293,1.293H20v2h9.586l-1.293,1.293l1.414,1.414l3-3c0.391-0.391,0.391-1.023,0-1.414
			L29.707,48.793z"/>
		<rect x="16" y="51.5" width="2" height="2"/>
		<rect x="12" y="51.5" width="2" height="2"/>
		<rect x="8" y="51.5" width="2" height="2"/>
	</g>
</g>
<g>
</g>
<g>
</g>
<g>
</g>
<g>
</g>
<g>
</g>
<g>
</g>
<g>
</g>
<g>
</g>
<g>
</g>
<g>
</g>
<g>
</g>
<g>
</g>
<g>
</g>
<g>
</g>
<g>
</g>
</svg>
