<?xml version="1.0" encoding="iso-8859-1"?>
<!-- Generator: Adobe Illustrator 19.0.0, SVG Export Plug-In . SVG Version: 6.00 Build 0)  -->
<svg version="1.1" id="Capa_1" xmlns="http://www.w3.org/2000/svg" xmlns:xlink="http://www.w3.org/1999/xlink" x="0px" y="0px"
	 viewBox="0 0 56 56" style="enable-background:new 0 0 56 56;" xml:space="preserve">
<g>
	<g>
	</g>
	<g>
		<rect x="42" y="31" width="2" height="2"/>
		<rect x="38" y="31" width="2" height="2"/>
		<rect x="34" y="31" width="2" height="2"/>
		<rect x="30" y="31" width="2" height="2"/>
		<rect x="26" y="31" width="2" height="2"/>
		<rect x="22" y="31" width="2" height="2"/>
		<rect x="18" y="31" width="2" height="2"/>
		<rect x="14" y="31" width="2" height="2"/>
		<path d="M50.5,31h-1.149l-4.726-3.781C44.447,27.077,44.228,27,44,27h-1.026C43.609,26.162,44,25.13,44,24V6c0-0.552-0.447-1-1-1
			h-8V3c0-1.654-1.346-3-3-3h-8c-1.654,0-3,1.346-3,3v2h-8c-0.553,0-1,0.448-1,1v18c0,1.13,0.391,2.162,1.026,3h-2.907l-3.224-6.447
			C6.725,20.214,6.379,20,6,20H1c-0.316,0-0.613,0.149-0.803,0.403c-0.188,0.254-0.246,0.582-0.155,0.884L1.756,27H1
			c-0.553,0-1,0.448-1,1v4c0,2.757,2.243,5,5,5h5.741l8.081,4.489l-2.801,13.305c-0.062,0.295,0.012,0.602,0.202,0.836
			C16.413,55.864,16.698,56,17,56h7c0.387,0,0.738-0.223,0.903-0.572L31.264,42H50.5c3.032,0,5.5-2.467,5.5-5.5S53.532,31,50.5,31z
			 M23,3c0-0.551,0.448-1,1-1h8c0.552,0,1,0.449,1,1v2H23V3z M14,7h28v3c0,1.654-1.346,3-3,3H17c-1.654,0-3-1.346-3-3V7z M26,15h4v2
			h-4V15z M14,24V13.974C14.838,14.609,15.87,15,17,15h7v3c0,0.552,0.447,1,1,1h6c0.553,0,1-0.448,1-1v-3h7
			c1.13,0,2.162-0.391,3-1.026V24c0,1.654-1.346,3-3,3H17C15.346,27,14,25.654,14,24z M5.382,22l4,8H4.744l-2.4-8H5.382z M23.367,54
			h-5.135l3.579-17h9.608L23.367,54z M50.5,40H32.211l1.692-3.572c0.147-0.31,0.125-0.673-0.059-0.963
			C33.662,35.176,33.343,35,33,35H21c-0.473,0-0.881,0.331-0.979,0.794l-0.768,3.648l-7.768-4.316C11.337,35.043,11.17,35,11,35H5
			c-1.654,0-3-1.346-3-3v-3h0.356l0.686,2.287C3.169,31.71,3.559,32,4,32h7c0.347,0,0.668-0.18,0.851-0.474
			c0.183-0.295,0.199-0.663,0.044-0.973L11.118,29H17h22h4.649l4.726,3.781C48.553,32.923,48.772,33,49,33h1.5
			c1.93,0,3.5,1.57,3.5,3.5S52.43,40,50.5,40z"/>
		<rect x="38" y="23" width="2" height="2"/>
		<rect x="34" y="23" width="2" height="2"/>
		<rect x="30" y="23" width="2" height="2"/>
	</g>
</g>
<g>
</g>
<g>
</g>
<g>
</g>
<g>
</g>
<g>
</g>
<g>
</g>
<g>
</g>
<g>
</g>
<g>
</g>
<g>
</g>
<g>
</g>
<g>
</g>
<g>
</g>
<g>
</g>
<g>
</g>
</svg>
