<?xml version='1.0' encoding='iso-8859-1'?>
<svg version="1.1" xmlns="http://www.w3.org/2000/svg" viewBox="0 0 470 470" xmlns:xlink="http://www.w3.org/1999/xlink" enable-background="new 0 0 470 470">
  <g>
    <path d="m385.368,213.467h-149.126c-4.142,0-7.5,3.358-7.5,7.5v25c0,37.22 30.28,67.5 67.5,67.5 27.431,0 51.093-16.448 61.641-39.999h1.5c20.678,0 37.5-16.822 37.5-37.5 0-6.592-1.737-13.079-5.023-18.758-1.341-2.316-3.815-3.743-6.492-3.743zm-36.626,32.5c0,28.949-23.551,52.5-52.5,52.5s-52.5-23.551-52.5-52.5v-17.5h105v17.5zm13.883,12.269c0.734-3.98 1.117-8.08 1.117-12.269v-17.5h16.858c0.845,2.395 1.282,4.934 1.282,7.501 0.001,11.306-8.382,20.691-19.257,22.268z"/>
    <path d="M470,77.5c0-0.265-0.015-0.527-0.041-0.784c-0.003-0.029-0.01-0.058-0.013-0.087c-0.027-0.232-0.062-0.461-0.11-0.686   c-0.002-0.013-15.002-70.013-15.002-70.013C454.093,2.471,451.037,0,447.5,0h-425c-3.537,0-6.593,2.471-7.333,5.929l-15,70   c-0.05,0.238-0.085,0.468-0.112,0.699c-0.003,0.029-0.01,0.058-0.013,0.087C0.015,76.973,0,77.235,0,77.5   c0,15.698,5.644,30.098,15,41.288V462.5c0,4.142,3.358,7.5,7.5,7.5h425c4.142,0,7.5-3.358,7.5-7.5V118.788   C464.356,107.598,470,93.198,470,77.5z M440,385H185.625V141.491c21.419-2.499,39.664-15.555,49.375-33.827   c10.827,20.371,32.259,34.27,56.875,34.27s46.048-13.898,56.875-34.27c10.827,20.371,32.259,34.27,56.875,34.27   c12.635,0,24.421-3.677,34.375-9.996V385z M178.125,126.934c-24.68,0-45.187-18.222-48.807-41.934h97.615   C223.312,108.712,202.805,126.934,178.125,126.934z M15.58,85h97.603c-3.62,23.712-24.128,41.934-48.807,41.934   C39.697,126.934,19.201,108.71,15.58,85z M30,131.938c9.954,6.32,21.74,9.996,34.375,9.996c24.616,0,46.048-13.898,56.875-34.27   c9.711,18.271,27.956,31.328,49.375,33.827v55.443H30V131.938z M405.625,126.934c-24.68,0-45.187-18.222-48.807-41.934h97.603   C450.799,108.71,430.303,126.934,405.625,126.934z M28.563,15h412.874l11.786,55H348.75c-4.142,0-7.5,3.358-7.5,7.5   c0,27.258-22.149,49.434-49.375,49.434c-24.68,0-45.187-18.222-48.807-41.934h75.682c4.142,0,7.5-3.358,7.5-7.5s-3.358-7.5-7.5-7.5   H16.777L28.563,15z M30,211.934h140.625V455H30V211.934z M185.625,455v-55H440v55H185.625z"/>
  </g>
</svg>
