<?xml version='1.0' encoding='iso-8859-1'?>
<svg version="1.1" xmlns="http://www.w3.org/2000/svg" viewBox="0 0 461.432 461.432" xmlns:xlink="http://www.w3.org/1999/xlink" enable-background="new 0 0 461.432 461.432">
  <g>
    <path d="m232.752,84.165c0,4.142 3.357,7.5 7.5,7.5s7.5-3.358 7.5-7.5c0-7.744 1.831-11.253 4.149-15.696 2.742-5.255 5.851-11.213 5.851-22.634 0-11.422-3.108-17.38-5.851-22.637-2.318-4.443-4.149-7.953-4.149-15.698 0-4.142-3.357-7.5-7.5-7.5s-7.5,3.358-7.5,7.5c0,11.422 3.108,17.38 5.851,22.637 2.318,4.443 4.149,7.953 4.149,15.698 0,7.744-1.831,11.253-4.149,15.696-2.742,5.256-5.851,11.213-5.851,22.634z"/>
    <path d="m292.752,84.165c0,4.142 3.357,7.5 7.5,7.5s7.5-3.358 7.5-7.5c0-7.744 1.831-11.253 4.149-15.696 2.742-5.255 5.851-11.213 5.851-22.634 0-11.422-3.108-17.38-5.851-22.637-2.318-4.443-4.149-7.953-4.149-15.698 0-4.142-3.357-7.5-7.5-7.5s-7.5,3.358-7.5,7.5c0,11.422 3.108,17.38 5.851,22.637 2.318,4.443 4.149,7.953 4.149,15.698 0,7.744-1.831,11.253-4.149,15.696-2.742,5.256-5.851,11.213-5.851,22.634z"/>
    <path d="m417.723,114.825c0.008-0.092 0.005-0.183 0.01-0.275 0.007-0.128 0.02-0.255 0.02-0.384 0-0.022-0.003-0.043-0.003-0.064-0.001-0.116-0.011-0.232-0.018-0.347-0.008-0.144-0.014-0.289-0.03-0.431-0.011-0.097-0.029-0.192-0.044-0.288-0.024-0.16-0.049-0.32-0.083-0.476-0.018-0.081-0.042-0.16-0.062-0.24-0.043-0.168-0.087-0.335-0.141-0.498-0.025-0.075-0.054-0.148-0.082-0.223-0.06-0.163-0.121-0.324-0.191-0.482-0.034-0.077-0.073-0.152-0.11-0.228-0.072-0.148-0.147-0.295-0.229-0.438-0.047-0.082-0.097-0.162-0.147-0.242-0.082-0.131-0.166-0.26-0.256-0.386-0.059-0.083-0.121-0.164-0.183-0.245-0.091-0.118-0.186-0.233-0.284-0.345-0.037-0.043-0.07-0.089-0.108-0.131-0.033-0.037-0.071-0.068-0.105-0.104-0.101-0.106-0.206-0.208-0.313-0.308-0.077-0.072-0.155-0.145-0.235-0.214-0.114-0.097-0.231-0.189-0.351-0.28-0.079-0.06-0.157-0.121-0.238-0.178-0.134-0.094-0.273-0.18-0.414-0.265-0.072-0.043-0.142-0.09-0.215-0.13-0.163-0.091-0.331-0.173-0.501-0.252-0.056-0.026-0.11-0.056-0.166-0.08-0.196-0.086-0.398-0.16-0.602-0.229-0.035-0.012-0.068-0.027-0.103-0.038-0.225-0.072-0.455-0.132-0.688-0.183-0.017-0.004-0.034-0.01-0.051-0.013-0.238-0.05-0.481-0.088-0.727-0.115-0.297-0.033-0.557-0.047-0.821-0.047h-270c-0.264,0-0.525,0.014-0.781,0.041-0.286,0.033-0.528,0.071-0.766,0.121-0.017,0.004-0.034,0.009-0.052,0.013-0.234,0.051-0.463,0.111-0.688,0.183-0.035,0.011-0.069,0.026-0.104,0.038-0.204,0.069-0.406,0.143-0.602,0.229-0.057,0.025-0.111,0.055-0.167,0.081-0.17,0.079-0.338,0.161-0.501,0.252-0.073,0.041-0.143,0.087-0.215,0.13-0.14,0.085-0.28,0.171-0.414,0.265-0.081,0.057-0.159,0.118-0.238,0.178-0.119,0.091-0.237,0.182-0.351,0.28-0.08,0.069-0.157,0.141-0.235,0.214-0.107,0.1-0.212,0.202-0.313,0.308-0.034,0.036-0.072,0.067-0.105,0.104-0.039,0.042-0.071,0.089-0.108,0.131-0.098,0.112-0.193,0.227-0.284,0.345-0.063,0.081-0.124,0.162-0.183,0.245-0.09,0.126-0.174,0.255-0.255,0.386-0.05,0.08-0.1,0.16-0.147,0.242-0.081,0.143-0.156,0.289-0.228,0.437-0.037,0.076-0.076,0.152-0.11,0.229-0.07,0.157-0.131,0.318-0.191,0.48-0.027,0.075-0.057,0.148-0.082,0.224-0.054,0.163-0.098,0.33-0.141,0.498-0.02,0.08-0.044,0.159-0.062,0.24-0.034,0.157-0.058,0.316-0.083,0.476-0.015,0.096-0.033,0.191-0.044,0.288-0.016,0.142-0.022,0.287-0.03,0.431-0.006,0.116-0.017,0.231-0.018,0.347 0,0.022-0.003,0.043-0.003,0.064 0,0.13 0.013,0.256 0.019,0.384 0.005,0.092 0.002,0.183 0.01,0.275l.009,.105c0,0.003 2.815,31.876 2.815,31.876-25.599,1.561-48.981,16.007-66.257,41.078-16.553,24.022-25.669,55.551-25.669,88.781 0,33.229 9.115,64.758 25.667,88.781 18.315,26.581 43.497,41.219 70.905,41.219h18.679c6.154,30.762 34.541,54.767 66.321,54.767h100c34.113,0 64.308-27.646 67.309-61.627l25.153-284.872c0.002-0.003 0.011-0.108 0.011-0.108zm-40.104,283.661c-2.335,26.438-25.827,47.946-52.367,47.946h-100c-26.53,0-50.021-21.501-52.364-47.93-0.343-3.87-3.585-6.837-7.471-6.837h-25.165c-22.326,0-43.121-12.334-58.554-34.73-14.844-21.544-23.019-50.051-23.019-80.27 0-30.219 8.176-58.727 23.021-80.27 15.433-22.396 36.228-34.73 58.554-34.73h3.53c2.104,0 4.111-0.884 5.531-2.436 1.421-1.551 2.125-3.628 1.939-5.724l-2.812-31.84h253.617l-24.44,276.821z"/>
    <path d="m140.254,176.665c-17.245,0-33.653,10.03-46.202,28.242-13.137,19.064-20.372,44.549-20.372,71.758 0,27.211 7.234,52.695 20.371,71.759 12.548,18.211 28.956,28.241 46.201,28.241h22.516c2.104,0 4.111-0.884 5.531-2.436 1.421-1.551 2.125-3.628 1.939-5.724l-16.335-185c-0.342-3.872-3.584-6.84-7.471-6.84h-6.178zm14.322,185h-14.324c-12.163,0-24.185-7.725-33.85-21.752-11.429-16.585-17.723-39.047-17.723-63.248 0-24.199 6.294-46.661 17.724-63.248 9.483-13.763 21.235-21.459 33.163-21.744l15.01,169.992z"/>
    <path d="m187.827,397.167c1.64,18.574 18.778,34.266 37.425,34.266h100c18.646,0 35.785-15.692 37.425-34.266l6.73-76.229c0.364-4.126-2.685-7.766-6.812-8.131-4.099-0.358-7.766,2.685-8.13,6.812l-6.73,76.229c-0.951,10.774-11.668,20.585-22.483,20.585h-100c-10.815,0-21.532-9.812-22.483-20.585l-15.333-173.659c5.347,0.757 8.933,2.25 12.895,3.9 6.276,2.614 13.392,5.576 26.898,5.576s20.621-2.962 26.897-5.576c5.7-2.374 10.624-4.424 21.132-4.424 10.507,0 15.429,2.05 21.128,4.423 6.276,2.614 13.391,5.577 26.896,5.577s20.619-2.962 26.896-5.576c3.961-1.65 7.546-3.143 12.892-3.9l-5.964,67.545c-0.364,4.126 2.685,7.766 6.812,8.13 4.091,0.363 7.766-2.685 8.13-6.811l6.73-76.229c0.186-2.096-0.519-4.173-1.939-5.725-1.42-1.551-3.428-2.435-5.531-2.435-13.506,0-20.62,2.962-26.896,5.577-5.699,2.374-10.621,4.423-21.128,4.423s-15.429-2.05-21.128-4.423c-6.276-2.614-13.391-5.577-26.896-5.577-13.507,0-20.621,2.962-26.897,5.576-5.7,2.374-10.624,4.424-21.132,4.424-10.509,0-15.432-2.05-21.133-4.424-6.276-2.614-13.392-5.576-26.897-5.576-2.104,0-4.111,0.884-5.531,2.435-1.421,1.552-2.125,3.629-1.939,5.725l16.096,182.343z"/>
  </g>
</svg>
