<?xml version='1.0' encoding='iso-8859-1'?>
<svg version="1.1" xmlns="http://www.w3.org/2000/svg" viewBox="0 0 391.869 391.869" xmlns:xlink="http://www.w3.org/1999/xlink" enable-background="new 0 0 391.869 391.869">
  <g>
    <path d="m384.369,48.434h-41.622c-4.142,0-7.5,3.357-7.5,7.5s3.358,7.5 7.5,7.5h34c-1.288,39.662-12.583,73.965-24.501,110.154-11.782,35.775-23.936,72.704-25.253,114.846h-155.248c-1.317-42.142-13.471-79.07-25.253-114.846-11.918-36.189-23.214-70.492-24.501-110.154h190.756c4.142,0 7.5-3.357 7.5-7.5s-3.358-7.5-7.5-7.5h-198.378c-4.142,0-7.5,3.357-7.5,7.5 0,45.29 12.9,84.463 25.376,122.346 12.663,38.452 24.624,74.771 24.624,117.654v2.955l-129.728-118.873c-15.245-13.97-16.282-37.738-2.313-52.982 13.97-15.247 37.739-16.282 52.982-2.315l6.433,5.896c3.054,2.799 7.798,2.593 10.597-0.462 2.798-3.054 2.592-7.798-0.462-10.597l-6.433-5.895c-21.342-19.556-54.617-18.104-74.176,3.238-19.557,21.343-18.104,54.618 3.239,74.176l139.862,128.159v16.7c0,4.143 3.358,7.5 7.5,7.5h170c4.142,0 7.5-3.357 7.5-7.5v-40c0-42.884 11.96-79.202 24.624-117.654 12.476-37.883 25.376-77.056 25.376-122.346-0.001-4.142-3.359-7.5-7.501-7.5zm-212.5,280v-25h155v25h-155z"/>
    <path d="m276.799,125.634c-6.362-3.772-13.574-8.049-27.438-8.049-13.858,0-21.069,4.275-27.431,8.048-5.607,3.325-10.036,5.951-19.782,5.951-13.225,0-17.624-2.15-24.912-5.713-4.547-2.222-10.206-4.988-18.978-7.771-2.623-0.833-5.492-0.161-7.473,1.748-1.981,1.91-2.758,4.752-2.023,7.404 0.869,3.133 1.718,6.255 2.566,9.372 2.848,10.465 5.792,21.287 9.412,32.278 10.119,30.728 20.583,62.502 24.499,97.857 0.421,3.8 3.632,6.675 7.455,6.675h113.349c3.823,0 7.034-2.875 7.455-6.675 3.916-35.355 14.379-67.13 24.5-97.863 3.619-10.988 6.564-21.813 9.414-32.281 0.847-3.114 1.696-6.232 2.564-9.363 0.735-2.652-0.042-5.494-2.023-7.404-1.981-1.908-4.849-2.579-7.473-1.748-8.773,2.783-14.433,5.55-18.98,7.772-7.289,3.562-11.688,5.713-24.915,5.713-9.75,0-14.179-2.626-19.786-5.951zm51.286,13.715c1.113-0.544 2.264-1.106 3.492-1.684-2.384,8.714-4.894,17.633-7.829,26.545-9.73,29.548-19.772,60.044-24.344,94.225h-100.072c-4.571-34.181-14.613-64.677-24.346-94.229-2.933-8.907-5.442-17.826-7.826-26.54 1.227,0.577 2.377,1.14 3.489,1.683 8.271,4.043 14.805,7.236 31.499,7.236 13.86,0 21.071-4.276 27.433-8.049 5.606-3.324 10.035-5.95 19.782-5.95 9.749,0 14.178,2.626 19.785,5.951 6.363,3.772 13.574,8.049 27.436,8.049 16.696-0.001 23.229-3.195 31.501-7.237z"/>
  </g>
</svg>
