<?xml version='1.0' encoding='iso-8859-1'?>
<svg version="1.1" xmlns="http://www.w3.org/2000/svg" viewBox="0 0 470 470" xmlns:xlink="http://www.w3.org/1999/xlink" enable-background="new 0 0 470 470">
  <g>
    <path d="m180.306,132.026c-0.384-3.834-3.61-6.754-7.463-6.754h-3.002c-15.358,0-29.797,5.981-40.658,16.842-10.859,10.86-16.84,25.3-16.84,40.658 0,15.359 5.981,29.799 16.842,40.658 10.859,10.86 25.299,16.842 40.658,16.842h13.002c2.119,0 4.139-0.896 5.561-2.468s2.113-3.67 1.902-5.778l-10.002-100zm-10.463,93.246c-11.353,0-22.025-4.421-30.052-12.448-8.027-8.026-12.448-18.699-12.448-30.052 0-11.352 4.421-22.024 12.447-30.052 7.132-7.133 16.353-11.418 26.282-12.284l8.485,84.836h-4.714z"/>
    <path d="m364.415,263.558l23.203-225.289c0.217-2.112-0.471-4.217-1.893-5.793s-3.445-2.476-5.568-2.476h-23.477c-3.485-17.096-18.637-30-36.746-30-8.856,0-17.405,3.188-24.1,8.787-6.693-5.599-15.241-8.787-24.098-8.787-8.857,0-17.405,3.188-24.1,8.787-6.694-5.599-15.242-8.787-24.099-8.787-18.11,0-33.261,12.904-36.745,30h-23.477c-2.119,0-4.139,0.896-5.561,2.468s-2.113,3.67-1.902,5.778l5.742,57.407c-20.259,1.882-39.058,10.681-53.624,25.248-16.526,16.526-25.627,38.5-25.626,61.871 0,23.372 9.102,45.346 25.628,61.873 16.528,16.526 38.501,25.628 61.872,25.627h9.58c5.775,27.682 29.273,49.798 57.314,53.996v17.017c-8.73,3.096-15,11.437-15,21.215s6.27,18.119 15,21.215v13.785c0,11.894-29.816,25.481-49.964,30.92-11.235,3.022-20.036,14.504-20.036,26.139v7.941c0,4.143 3.358,7.5 7.5,7.5h195c4.143,0 7.5-3.357 7.5-7.5v-7.941c0-11.635-8.801-23.116-20.034-26.138-20.15-5.439-49.966-19.027-49.966-30.921v-13.785c8.73-3.096 15-11.437 15-21.215s-6.27-18.119-15-21.215v-17.142c29.857-4.902 54.555-30.279 57.677-60.585zm-140.878-248.558c7.192,0 13.782,3.319 18.079,9.105 1.415,1.906 3.648,3.029 6.021,3.029s4.606-1.123 6.021-3.029c4.297-5.786 10.887-9.105 18.078-9.105s13.78,3.318 18.077,9.105c1.415,1.905 3.648,3.028 6.021,3.028s4.606-1.123 6.021-3.028c4.298-5.787 10.888-9.105 18.079-9.105 9.776,0 18.111,6.271 21.208,15h-138.813c3.096-8.729 11.431-15 21.208-15zm75.308,294.932c-3.984,0.209-7.108,3.5-7.108,7.49v22.578h-17.5c-4.143,0-7.5,3.357-7.5,7.5s3.357,7.5 7.5,7.5h25c4.136,0 7.5,3.364 7.5,7.5s-3.364,7.5-7.5,7.5c-4.143,0-7.5,3.357-7.5,7.5v20c0,12.77 10.773,24.396 32.021,34.558 14.336,6.855 28.451,10.688 29.045,10.847 4.676,1.258 8.934,6.813 8.934,11.654v0.441h-180v-0.441c0-4.842 4.258-10.396 8.933-11.654 0.594-0.159 14.709-3.991 29.045-10.847 21.249-10.161 32.022-21.788 32.022-34.558v-12.5h17.5c4.143,0 7.5-3.357 7.5-7.5s-3.357-7.5-7.5-7.5h-25c-4.136,0-7.5-3.364-7.5-7.5s3.364-7.5 7.5-7.5c4.143,0 7.5-3.357 7.5-7.5v-22.5h17.5c4.143,0 7.5-3.357 7.5-7.5s-3.357-7.5-7.5-7.5h-24.17c-0.182-0.02-0.364-0.041-0.55-0.048-25.689-0.959-48.661-22.459-51.208-47.926-0.383-3.834-3.61-6.754-7.463-6.754h-16.003c-19.364,0.001-37.57-7.54-51.265-21.234-13.693-13.693-21.235-31.899-21.235-51.266 0-19.365 7.541-37.571 21.233-51.266 13.693-13.693 31.9-21.234 51.267-21.234 2.119,0 4.139-0.896 5.561-2.468s2.113-3.67 1.902-5.778l-5.704-57.026h15.145l21.486,215.533c1.869,18.684 19.31,34.467 38.086,34.467h50c18.809,0 36.326-15.807 38.254-34.517l10.064-97.723c0.424-4.12-2.572-7.805-6.692-8.229-4.132-0.411-7.805,2.573-8.229,6.692l-10.064,97.723c-1.136,11.019-12.257,21.054-23.333,21.054h-50c-11.024,0-22.063-9.99-23.16-20.957l-21.338-214.043h139.807l-8.84,86.387c-0.422,4.121 2.577,7.803 6.697,8.225 4.132,0.42 7.804-2.577 8.225-6.697l8.997-87.915h15.138l-22.352,217.021c-2.584,25.094-25.305,46.587-50.648,47.911z"/>
  </g>
</svg>
