<?xml version='1.0' encoding='iso-8859-1'?>
<svg version="1.1" xmlns="http://www.w3.org/2000/svg" viewBox="0 0 470 470" xmlns:xlink="http://www.w3.org/1999/xlink" enable-background="new 0 0 470 470">
  <g>
    <path d="m105.667,369.985c-3.9-1.396-8.193,0.633-9.59,4.531l-4.152,11.584c-1.398,3.899 0.628,8.193 4.527,9.592 0.837,0.3 1.691,0.442 2.532,0.442 3.076,0 5.961-1.908 7.06-4.969l4.154-11.59c1.397-3.9-0.632-8.193-4.531-9.59z"/>
    <path d="m116.887,328.386c-4.016-1.004-8.09,1.438-9.095,5.457l-2.989,11.937c-1.007,4.018 1.433,8.091 5.451,9.099 0.612,0.153 1.226,0.227 1.83,0.227 3.358,0 6.415-2.272 7.269-5.678l2.991-11.945c1.004-4.02-1.439-8.092-5.457-9.097z"/>
    <path d="m123.967,285.884c-4.098-0.602-7.911,2.225-8.517,6.322l-1.804,12.174c-0.608,4.097 2.221,7.912 6.318,8.52 0.373,0.055 0.744,0.082 1.11,0.082 3.655,0 6.856-2.676 7.41-6.4l1.805-12.181c0.606-4.098-2.225-7.911-6.322-8.517z"/>
    <path d="m126.852,242.893c-4.142-0.192-7.655,2.988-7.858,7.125l-.604,12.293c-0.204,4.137 2.984,7.656 7.121,7.86 0.126,0.006 0.251,0.009 0.376,0.009 3.972,0 7.287-3.12 7.484-7.13l.605-12.298c0.203-4.138-2.987-7.656-7.124-7.859z"/>
    <path d="m125.417,199.831c-4.134,0.26-7.274,3.823-7.014,7.957 0.251,3.987 0.45,8.054 0.591,12.087 0.142,4.05 3.47,7.237 7.491,7.237 0.089,0 0.178-0.001 0.268-0.004 4.14-0.146 7.378-3.619 7.233-7.758-0.146-4.172-0.353-8.379-0.612-12.504-0.262-4.135-3.832-7.259-7.957-7.015z"/>
    <path d="m119.972,157.095c-4.097,0.608-6.925,4.423-6.316,8.521l1.804,12.173c0.551,3.726 3.753,6.404 7.41,6.404 0.365,0 0.734-0.027 1.106-0.082 4.098-0.605 6.928-4.418 6.323-8.516l-1.806-12.184c-0.608-4.097-4.42-6.93-8.521-6.316z"/>
    <path d="m104.805,124.215l2.992,11.938c0.853,3.407 3.91,5.68 7.27,5.68 0.603,0 1.216-0.073 1.828-0.227 4.018-1.006 6.46-5.079 5.454-9.097l-2.994-11.945c-1.008-4.018-5.083-6.458-9.1-5.449-4.019,1.009-6.459,5.083-5.45,9.1z"/>
    <path d="m96.042,95.377c1.067,3.113 3.978,5.07 7.094,5.07 0.806,0 1.627-0.131 2.433-0.407 3.918-1.343 6.006-5.608 4.663-9.527-1.344-3.92-2.766-7.886-4.228-11.788-1.453-3.879-5.776-5.846-9.654-4.393-3.879,1.453-5.846,5.775-4.393,9.654 1.412,3.772 2.787,7.604 4.085,11.391z"/>
    <path d="m373.923,374.517c-1.396-3.9-5.694-5.926-9.589-4.532-3.9,1.397-5.929,5.69-4.532,9.59l4.154,11.591c1.099,3.062 3.983,4.969 7.06,4.969 0.841,0 1.696-0.142 2.532-0.442 3.899-1.399 5.926-5.693 4.527-9.592l-4.152-11.584z"/>
    <path d="m365.197,345.779l-2.989-11.938c-1.005-4.018-5.075-6.459-9.096-5.456-4.019,1.005-6.461,5.078-5.455,9.096l2.991,11.944c0.854,3.406 3.91,5.678 7.269,5.678 0.604,0 1.218-0.074 1.83-0.227 4.018-1.005 6.458-5.079 5.45-9.097z"/>
    <path d="m350.036,312.899c4.098-0.608 6.926-4.423 6.318-8.52l-1.805-12.174c-0.605-4.098-4.421-6.924-8.517-6.322-4.098,0.606-6.928,4.419-6.321,8.517l1.805,12.181c0.553,3.724 3.754,6.4 7.409,6.4 0.367,0 0.738-0.026 1.111-0.082z"/>
    <path d="m344.488,270.17c4.138-0.204 7.326-3.723 7.122-7.86l-.604-12.294c-0.203-4.137-3.719-7.315-7.858-7.124-4.138,0.203-7.327,3.722-7.124,7.859l.604,12.297c0.198,4.011 3.513,7.13 7.485,7.13 0.124,0.002 0.249-0.001 0.375-0.008z"/>
    <path d="m343.248,227.108c0.09,0.003 0.179,0.004 0.268,0.004 4.021,0 7.349-3.188 7.49-7.237 0.142-4.033 0.341-8.1 0.592-12.087 0.26-4.134-2.88-7.696-7.015-7.957-4.137-0.255-7.696,2.88-7.956,7.014-0.26,4.125-0.465,8.333-0.611,12.504-0.146,4.14 3.092,7.613 7.232,7.759z"/>
    <path d="m346.023,184.111c0.372,0.055 0.742,0.082 1.107,0.082 3.656,0 6.858-2.678 7.409-6.403l1.805-12.175c0.607-4.097-2.221-7.912-6.318-8.52-4.089-0.603-7.912,2.22-8.52,6.318l-1.805,12.182c-0.605,4.097 2.225,7.91 6.322,8.516z"/>
    <path d="m353.106,141.607c0.611,0.153 1.224,0.227 1.827,0.227 3.359,0 6.417-2.274 7.27-5.68l2.992-11.939c1.008-4.018-1.432-8.092-5.449-9.1-4.012-1.007-8.091,1.431-9.1,5.449l-2.994,11.946c-1.006,4.018 1.436,8.091 5.454,9.097z"/>
    <path d="m373.65,74.333c-3.882-1.454-8.202,0.513-9.654,4.393-1.462,3.904-2.885,7.87-4.228,11.789s0.745,8.184 4.663,9.526c0.806,0.276 1.626,0.407 2.433,0.407 3.115,0 6.027-1.958 7.094-5.07 1.298-3.786 2.672-7.618 4.085-11.39 1.453-3.88-0.514-8.202-4.393-9.655z"/>
    <path d="m392.865,45.818v-38.318c0-4.142-3.357-7.5-7.5-7.5h-300.731c-4.142,0-7.5,3.358-7.5,7.5v38.318c-27.56,58.666-42.122,124.044-42.122,189.182s14.563,130.515 42.123,189.182v38.318c0,4.142 3.358,7.5 7.5,7.5h300.73c4.143,0 7.5-3.358 7.5-7.5v-38.318c27.561-58.667 42.122-124.044 42.123-189.182 0-65.138-14.562-130.516-42.123-189.182zm-9.818,363.753c-1.133-0.034-2.29,0.182-3.387,0.694-3.754,1.751-5.377,6.214-3.626,9.968l1.832,3.93v30.837h-285.731v-25h263.23c4.143,0 7.5-3.358 7.5-7.5s-3.357-7.5-7.5-7.5h-265.952c-52.08-112.865-52.899-241.223-2.458-354.575 0.074,0.002 0.146,0.016 0.22,0.016 1.061,0 2.139-0.227 3.164-0.705 3.754-1.75 5.379-6.212 3.628-9.966l-1.833-3.933v-30.837h285.731v25h-263.231c-4.142,0-7.5,3.358-7.5,7.5s3.358,7.5 7.5,7.5h265.953c52.079,112.863 52.898,241.219 2.46,354.571z"/>
    <path d="m303.107,244.822c-3.259-17.702-13.119-35.517-27.766-50.163-18.106-18.106-41.428-28.916-62.385-28.916-13.741,0-25.535,4.531-34.108,13.105-11.156,11.156-15.401,27.609-11.956,46.33 3.259,17.702 13.12,35.517 27.766,50.163 18.107,18.106 41.428,28.916 62.385,28.916 13.729,0 25.517-4.526 34.088-13.086 11.183-11.207 15.42-27.647 11.976-46.349zm-46.063,44.434c-17.066,0-36.423-9.167-51.779-24.522-12.518-12.518-20.906-27.53-23.62-42.272-1.928-10.472-0.76-19.772 3.258-26.954l19.543,19.542c1.464,1.464 3.384,2.197 5.303,2.197s3.839-0.732 5.303-2.197c2.929-2.929 2.929-7.678 0-10.606l-19.547-19.547c4.898-2.734 10.81-4.154 17.452-4.154 17.067,0 36.423,9.167 51.778,24.522 12.519,12.518 20.907,27.531 23.621,42.272 1.928,10.472 0.76,19.771-3.257,26.953l-48.832-48.833c-2.929-2.929-7.678-2.929-10.607,0-2.929,2.929-2.929,7.678 0,10.606l48.837,48.838c-4.899,2.735-10.811,4.155-17.453,4.155z"/>
  </g>
</svg>
