<?xml version='1.0' encoding='iso-8859-1'?>
<svg version="1.1" xmlns="http://www.w3.org/2000/svg" viewBox="0 0 470 470" xmlns:xlink="http://www.w3.org/1999/xlink" enable-background="new 0 0 470 470">
  <g>
    <path d="m432.5,222.5h-68.682c-4.013-29.802-18.22-57.24-40.474-77.867-22.256-20.628-50.722-32.687-80.844-34.41v-15.223h129.973c0.042,0 60.003,0 60.003,0 0.28,0.002 0.535-0.012 0.79-0.039 0.26-0.029 0.493-0.063 0.725-0.111 0.228-0.046 0.45-0.104 0.67-0.17 0.531-0.161 1.001-0.36 1.443-0.603 0.052-0.029 0.1-0.062 0.152-0.092 0.157-0.091 0.314-0.183 0.464-0.286 0.118-0.08 0.229-0.169 0.342-0.255 0.077-0.059 0.157-0.115 0.231-0.177 0.126-0.104 0.243-0.216 0.361-0.328 0.057-0.054 0.117-0.105 0.172-0.161 0.11-0.111 0.211-0.228 0.313-0.344 0.058-0.067 0.12-0.131 0.176-0.199 0.086-0.105 0.163-0.216 0.243-0.325 0.065-0.089 0.132-0.176 0.193-0.267 0.061-0.092 0.115-0.188 0.172-0.283 0.07-0.116 0.141-0.231 0.205-0.351 0.041-0.077 0.075-0.157 0.114-0.235 0.068-0.141 0.137-0.281 0.197-0.426 0.03-0.072 0.053-0.147 0.08-0.22 0.057-0.152 0.115-0.304 0.162-0.461 0.028-0.091 0.047-0.184 0.071-0.276 0.036-0.14 0.075-0.278 0.104-0.421 0.034-0.171 0.057-0.345 0.079-0.519 0.008-0.065 0.022-0.129 0.029-0.195 0.075-0.74 0.042-1.496-0.111-2.247-0.047-0.235-0.107-0.466-0.176-0.692-0.084-0.275-0.177-0.527-0.282-0.773l-8.233-19.458c4.116-5.854 6.34-12.828 6.34-20.085 0-16.724-11.794-30.739-27.5-34.182v-3.319c0-4.142-3.357-7.5-7.5-7.5s-7.502,3.358-7.502,7.5v3.318c-15.706,3.443-27.5,17.458-27.5,34.182 0,7.257 2.224,14.23 6.34,20.085l-6.311,14.915h-132.529c-4.143,0-7.5,3.358-7.5,7.5v22.723c-30.121,1.723-58.588,13.782-80.844,34.41-22.254,20.627-36.461,48.065-40.474,77.867h-68.682c-4.143,0-7.5,3.358-7.5,7.5v30c0,4.142 3.357,7.5 7.5,7.5h22.5v157.5h-22.5c-4.143,0-7.5,3.358-7.5,7.5v30c0,4.142 3.357,7.5 7.5,7.5h395c4.143,0 7.5-3.358 7.5-7.5v-30c0-4.142-3.357-7.5-7.5-7.5h-22.5v-157.5h22.5c4.143,0 7.5-3.358 7.5-7.5v-30c0-4.142-3.358-7.5-7.5-7.5zm-44.545-163.783c-3.518-3.729-5.455-8.6-5.455-13.717 0-11.028 8.972-20 20-20s20,8.972 20,20c0,5.117-1.938,9.988-5.455,13.717-2.042,2.164-2.611,5.33-1.452,8.069l5.59,13.214h-37.367l5.591-13.214c1.159-2.74 0.59-5.906-1.452-8.069zm-152.955,66.283c56.743,0 105.168,42.209 113.666,97.5h-227.332c8.497-55.291 56.923-97.5 113.666-97.5zm190,127.5h-327.5c-4.143,0-7.5,3.358-7.5,7.5s3.357,7.5 7.5,7.5h297.5v157.5h-297.5c-4.143,0-7.5,3.358-7.5,7.5s3.357,7.5 7.5,7.5h327.5v15h-380v-15h22.5c4.143,0 7.5-3.358 7.5-7.5v-172.5c0-4.142-3.357-7.5-7.5-7.5h-22.5v-15h312.074c0.022,0 67.926,0 67.926,0v15z"/>
    <path d="m235,318.75c-15.163,0-27.5,12.336-27.5,27.5s12.337,27.5 27.5,27.5 27.5-12.336 27.5-27.5-12.337-27.5-27.5-27.5zm0,40c-6.893,0-12.5-5.607-12.5-12.5s5.607-12.5 12.5-12.5 12.5,5.607 12.5,12.5-5.608,12.5-12.5,12.5z"/>
    <path d="m107.5,400h255c4.143,0 7.5-3.358 7.5-7.5v-92.5c0-4.142-3.357-7.5-7.5-7.5h-255c-4.143,0-7.5,3.358-7.5,7.5v92.5c0,4.142 3.357,7.5 7.5,7.5zm7.5-92.5h240v77.5h-240v-77.5z"/>
  </g>
</svg>
