<?xml version='1.0' encoding='iso-8859-1'?>
<svg version="1.1" xmlns="http://www.w3.org/2000/svg" viewBox="0 0 470 470" xmlns:xlink="http://www.w3.org/1999/xlink" enable-background="new 0 0 470 470">
  <g>
    <path d="m235,195.543c-57.164,0-103.67,46.507-103.67,103.671s46.506,103.67 103.67,103.67 103.67-46.506 103.67-103.67-46.506-103.671-103.67-103.671zm0,192.341c-48.893,0-88.67-39.777-88.67-88.67 0-48.894 39.777-88.671 88.67-88.671s88.67,39.777 88.67,88.671c0,48.892-39.777,88.67-88.67,88.67z"/>
    <circle cx="235" cy="360.384" r="7.5"/>
    <circle cx="278.254" cy="342.467" r="7.5"/>
    <circle cx="296.17" cy="299.213" r="7.5"/>
    <circle cx="278.254" cy="255.959" r="7.5"/>
    <circle cx="235" cy="238.043" r="7.5"/>
    <circle cx="191.746" cy="255.959" r="7.5"/>
    <circle cx="173.83" cy="299.213" r="7.5"/>
    <circle cx="191.746" cy="342.467" r="7.5"/>
    <path d="m369.863,129.502v-19.638h3.868c4.142,0 7.5-3.357 7.5-7.5s-3.358-7.5-7.5-7.5h-3.868v-18.36c0-20.117-16.366-36.483-36.483-36.483h-48.802c0.836-2.353 1.295-4.882 1.295-7.518v-9.985c-0.001-12.416-10.102-22.518-22.519-22.518h-53.834c-12.416,0-22.518,10.102-22.518,22.518v9.985c0,2.636 0.459,5.165 1.295,7.518h-51.677c-20.117,0-36.483,16.366-36.483,36.483v18.36h-3.868c-4.142,0-7.5,3.357-7.5,7.5s3.358,7.5 7.5,7.5h3.868v19.638c-13.653,3.369-23.808,15.721-23.808,30.399v278.791c0,17.263 14.044,31.308 31.308,31.308h254.726c17.263,0 31.308-14.045 31.308-31.308v-278.791c-0.001-14.678-10.155-27.03-23.808-30.399zm-167.86-96.999v-9.985c0-4.146 3.373-7.518 7.518-7.518h53.834c4.145,0 7.518,3.372 7.518,7.518v9.985c0,4.146-3.373,7.518-7.518,7.518h-53.834c-4.146,0-7.518-3.373-7.518-7.518zm-65.382,22.518h196.759c11.846,0 21.483,9.638 21.483,21.483v18.36h-239.726v-18.36c0-11.846 9.637-21.483 21.484-21.483zm242.049,383.671c0,8.992-7.315,16.308-16.308,16.308h-254.725c-8.992,0-16.308-7.315-16.308-16.308v-278.791c0-8.992 7.315-16.308 16.308-16.308 4.142,0 7.5-3.357 7.5-7.5v-26.229h239.726v26.229c0,4.143 3.358,7.5 7.5,7.5 8.992,0 16.308,7.315 16.308,16.308v278.791z"/>
    <path d="m356.17,425h-30c-4.142,0-7.5,3.357-7.5,7.5s3.358,7.5 7.5,7.5h30c4.142,0 7.5-3.357 7.5-7.5s-3.357-7.5-7.5-7.5z"/>
    <path d="m296.17,425h-182.34c-4.142,0-7.5,3.357-7.5,7.5s3.358,7.5 7.5,7.5h182.34c4.142,0 7.5-3.357 7.5-7.5s-3.357-7.5-7.5-7.5z"/>
    <path d="m137.637,143.594h194.726c4.142,0 7.5-3.357 7.5-7.5s-3.358-7.5-7.5-7.5h-194.726c-4.142,0-7.5,3.357-7.5,7.5s3.358,7.5 7.5,7.5z"/>
  </g>
</svg>
