<?xml version='1.0' encoding='iso-8859-1'?>
<svg version="1.1" xmlns="http://www.w3.org/2000/svg" viewBox="0 0 470 470" xmlns:xlink="http://www.w3.org/1999/xlink" enable-background="new 0 0 470 470">
  <g>
    <path d="m469.924,240.99c0.049-1.993 0.076-3.99 0.076-5.99 0-62.771-24.444-121.784-68.83-166.17s-103.399-68.83-166.17-68.83-121.784,24.444-166.17,68.83-68.83,103.399-68.83,166.17c0,2.001 0.026,3.998 0.076,5.99-0.045,0.331-0.076,0.667-0.076,1.01 0,0.543 0.061,1.072 0.171,1.582 2.124,59.551 26.303,115.231 68.66,157.588 44.385,44.386 103.398,68.83 166.169,68.83s121.784-24.444 166.17-68.83c42.356-42.356 66.535-98.037 68.66-157.588 0.11-0.51 0.17-1.039 0.17-1.582 5.68434e-14-0.343-0.031-0.679-0.076-1.01zm-234.924-225.99c120.831,0 219.208,97.918 219.982,218.57-3.624-1.018-6.271-2.777-9.321-4.811-5.52-3.68-12.389-8.26-25.159-8.26-12.77,0-19.639,4.58-25.158,8.26-4.811,3.207-8.61,5.74-16.839,5.74-8.229,0-12.03-2.533-16.841-5.74-5.521-3.68-12.39-8.26-25.161-8.26s-19.642,4.58-25.162,8.26c-3.066,2.043-5.725,3.81-9.377,4.825-0.758-36.291-30.494-65.584-66.964-65.584s-66.205,29.293-66.964,65.584c-3.651-1.015-6.31-2.781-9.375-4.825-5.52-3.68-12.389-8.26-25.159-8.26-12.77,0-19.639,4.58-25.158,8.26-4.811,3.207-8.61,5.74-16.839,5.74-8.229,0-12.03-2.533-16.841-5.74-5.521-3.68-12.39-8.26-25.161-8.26s-19.642,4.58-25.162,8.26c-3.051,2.033-5.698,3.793-9.323,4.811 0.774-120.652 99.151-218.57 219.982-218.57zm0,272c-28.673,0-52-23.327-52-52s23.327-52 52-52 52,23.327 52,52-23.327,52-52,52zm0,168c-116.664,0-212.392-91.283-219.553-206.174 7.913-1.402 12.968-4.756 17.214-7.586 4.812-3.207 8.611-5.74 16.842-5.74 8.229,0 12.03,2.533 16.841,5.74 5.521,3.68 12.39,8.26 25.161,8.26 12.771,0 19.64-4.58 25.159-8.26 4.811-3.207 8.61-5.74 16.838-5.74 8.229,0 12.028,2.533 16.839,5.74 4.585,3.057 10.114,6.726 19.17,7.884 6.504,30.182 33.39,52.876 65.489,52.876s58.985-22.693 65.489-52.876c9.058-1.158 14.586-4.827 19.172-7.884 4.812-3.207 8.611-5.74 16.842-5.74 8.229,0 12.03,2.533 16.841,5.74 5.521,3.68 12.39,8.26 25.161,8.26 12.771,0 19.64-4.58 25.159-8.26 4.811-3.207 8.61-5.74 16.838-5.74 8.229,0 12.028,2.533 16.839,5.74 4.245,2.83 9.3,6.184 17.212,7.586-7.161,114.891-102.889,206.174-219.553,206.174z"/>
    <path d="m80.494,111.898c1.416,1.222 3.159,1.819 4.894,1.819 2.106,0 4.2-0.883 5.684-2.604 36.217-42.015 88.677-66.113 143.928-66.113 4.143,0 7.5-3.357 7.5-7.5s-3.357-7.5-7.5-7.5c-59.619,0-116.221,25.995-155.29,71.321-2.704,3.137-2.354,7.873 0.784,10.577z"/>
    <path d="m39.497,205.883c0.467,0.088 0.932,0.13 1.391,0.13 3.538,0 6.687-2.515 7.362-6.118 4.368-23.292 12.997-45.333 25.646-65.513 2.2-3.51 1.139-8.138-2.371-10.338-3.509-2.199-8.137-1.139-10.338,2.371-13.652,21.777-22.965,45.569-27.68,70.714-0.763,4.071 1.919,7.991 5.99,8.754z"/>
    <path d="m421.75,199.895c0.676,3.604 3.824,6.118 7.362,6.118 0.459,0 0.924-0.042 1.391-0.13 4.071-0.763 6.753-4.683 5.989-8.754-4.715-25.145-14.028-48.937-27.68-70.713-2.2-3.51-6.828-4.569-10.338-2.371-3.51,2.2-4.571,6.829-2.371,10.338 12.65,20.179 21.279,42.22 25.647,65.512z"/>
    <circle cx="353.118" cy="355.474" r="7.5"/>
    <circle cx="323.118" cy="325.474" r="7.5"/>
    <circle cx="122.542" cy="332.974" r="7.5"/>
  </g>
</svg>
