<?xml version='1.0' encoding='iso-8859-1'?>
<svg version="1.1" xmlns="http://www.w3.org/2000/svg" viewBox="0 0 470 470" xmlns:xlink="http://www.w3.org/1999/xlink" enable-background="new 0 0 470 470">
  <path d="m383.176,66.026c-1.425-1.648-3.496-2.597-5.676-2.597h-23.231c-3.618-24.024-24.333-42.498-49.269-42.498-8.947-3.55271e-15-17.616,2.375-25.206,6.814-8.291-16.744-25.468-27.745-44.794-27.745s-36.503,11.001-44.794,27.745c-7.59-4.439-16.259-6.814-25.206-6.814-24.936,0-45.651,18.475-49.269,42.499h-23.231c-2.18,0-4.251,0.948-5.676,2.597-1.425,1.649-2.062,3.837-1.744,5.993l53.142,361.889c2.922,19.901 21.664,36.091 41.778,36.091h110c20.114,0 38.856-16.19 41.778-36.092l53.142-361.888c0.317-2.157-0.319-4.344-1.744-5.994zm-51.247,57.701c-10.785,1.007-17.229,4.479-23.004,7.609-6.034,3.27-11.246,6.094-22.262,6.094s-16.228-2.824-22.262-6.094c-6.838-3.706-14.589-7.906-29.408-7.906-14.817,0-22.567,4.2-29.405,7.906-6.032,3.27-11.243,6.094-22.257,6.094-11.015,0-16.225-2.824-22.259-6.094-5.778-3.132-12.227-6.607-23.025-7.611l-6.689-45.295h207.281l-6.71,45.297zm-166.929-87.796c8.802,0 17.217,3.284 23.694,9.246 1.945,1.793 4.69,2.426 7.23,1.667 2.535-0.759 4.482-2.798 5.125-5.365 3.898-15.59 17.859-26.479 33.951-26.479s30.053,10.889 33.95,26.479c0.643,2.567 2.59,4.606 5.125,5.365 2.536,0.758 5.283,0.126 7.23-1.667 6.478-5.962 14.893-9.246 23.694-9.246 16.645,0 30.599,11.792 34.025,27.499h-208.05c3.428-15.707 17.382-27.499 34.026-27.499zm151.938,395.798c-1.852,12.614-14.189,23.271-26.938,23.271h-110c-12.749,0-25.086-10.657-26.938-23.271l-51.88-353.299h15.013l45.801,310.129c0.103,0.69 0.301,1.364 0.589,2 8.5,18.757 57.582,20.215 72.423,20.215 14.837,0 63.908-1.457 72.406-20.211 0.289-0.638 0.487-1.312 0.589-2.004l16.691-113.429c0.604-4.098-2.23-7.909-6.328-8.512-4.093-0.602-7.908,2.23-8.512,6.328l-16.482,112.01c-3.31,3.981-22.78,10.817-58.364,10.817-35.598,0-55.075-6.84-58.381-10.822l-36.301-245.795c5.613,1.044 9.41,3.097 13.599,5.367 6.837,3.706 14.588,7.906 29.405,7.906s22.567-4.2 29.405-7.906c6.032-3.27 11.243-6.094 22.257-6.094 11.016,0 16.228,2.824 22.262,6.094 6.838,3.706 14.589,7.906 29.408,7.906s22.569-4.2 29.408-7.906c4.182-2.266 7.973-4.316 13.571-5.362l-15.42,104.099c-0.607,4.097 2.223,7.911 6.32,8.518 4.083,0.609 7.91-2.222 8.518-6.32l24.743-167.028h15.016l-51.88,353.299z"/>
</svg>
