<?xml version='1.0' encoding='iso-8859-1'?>
<svg version="1.1" xmlns="http://www.w3.org/2000/svg" viewBox="0 0 470 470" xmlns:xlink="http://www.w3.org/1999/xlink" enable-background="new 0 0 470 470">
  <g>
    <path d="m174.917,236.594c-0.458-3.764-3.653-6.594-7.445-6.594h-3.652c-15.359,0-29.798,5.981-40.658,16.841-10.86,10.86-16.841,25.3-16.841,40.659s5.981,29.798 16.842,40.659c10.86,10.86 25.3,16.841 40.658,16.841h15.818c2.147,0 4.191-0.92 5.614-2.527 1.424-1.607 2.09-3.747 1.831-5.878l-12.167-100.001zm-11.095,93.406c-11.352,0-22.024-4.421-30.052-12.448-8.027-8.027-12.448-18.7-12.448-30.052s4.42-22.025 12.447-30.052c7.321-7.321 16.842-11.642 27.073-12.346l10.33,84.898h-7.35z"/>
    <path d="m373.641,428.419c-19.939-5.363-49.342-18.712-49.954-30.545l43.738-359.469c0.26-2.131-0.407-4.271-1.831-5.878-1.422-1.607-3.466-2.527-5.613-2.527h-23.477c-3.485-17.096-18.636-30-36.746-30-8.857,0-17.405,3.188-24.1,8.787-6.694-5.599-15.241-8.787-24.099-8.787-8.857,0-17.405,3.188-24.099,8.787-6.695-5.599-15.242-8.787-24.1-8.787-18.11,0-33.261,12.904-36.745,30h-23.477c-2.147,0-4.191,0.92-5.614,2.527-1.424,1.607-2.09,3.747-1.831,5.878l19.71,161.991c-20.194,1.915-38.928,10.705-53.454,25.231-16.526,16.527-25.627,38.5-25.627,61.872 0,23.372 9.102,45.346 25.628,61.872 16.527,16.527 38.5,25.628 61.872,25.628h12.826l2.783,22.874c-0.615,11.803-30.017,25.165-49.953,30.545-11.236,3.022-20.037,14.504-20.037,26.139v7.941c0,4.142 3.358,7.5 7.5,7.5h269.237c4.142,0 7.5-3.358 7.5-7.5v-7.941c0-11.634-8.802-23.115-20.037-26.138zm-170.281-413.419c7.192,0 13.781,3.319 18.078,9.105 1.415,1.905 3.648,3.029 6.021,3.029s4.606-1.124 6.021-3.029c4.298-5.786 10.887-9.105 18.079-9.105s13.781,3.319 18.078,9.105c1.415,1.905 3.648,3.029 6.021,3.029s4.606-1.124 6.021-3.029c4.298-5.786 10.887-9.105 18.079-9.105 9.776,0 18.111,6.271 21.208,15h-138.813c3.096-8.729 11.43-15 21.207-15zm175.318,440h-254.238v-0.441c0-4.842 4.258-10.396 8.934-11.654 0.594-0.16 14.709-3.991 29.045-10.847 17.011-8.134 27.301-17.209 30.731-27.058h93.028c4.142,0 7.5-3.358 7.5-7.5s-3.358-7.5-7.5-7.5h-92.594l-2.848-23.406c-0.458-3.764-3.653-6.594-7.445-6.594h-19.468c-19.365,0-37.571-7.541-51.265-21.234-13.693-13.694-21.235-31.9-21.235-51.266 0-19.365 7.541-37.572 21.233-51.265 13.693-13.693 31.9-21.235 51.267-21.235 2.147,0 4.191-0.92 5.614-2.527 1.424-1.607 2.09-3.747 1.831-5.878l-19.663-161.595h15.112l35.459,291.405c0.671,16.184 31.139,18.619 49.381,18.619 18.244,0 48.713-2.436 49.384-18.62l16.297-133.93c0.5-4.112-2.427-7.851-6.539-8.351-4.112-0.505-7.851,2.427-8.351,6.539l-16.287,133.845c-2.85,2.108-14.777,5.516-34.502,5.516s-31.653-3.407-34.503-5.516c-1.43-11.751-29.486-242.32-35.228-289.507h139.463l-15.319,125.883c-0.5,4.112 2.428,7.851 6.54,8.351 4.114,0.496 7.85-2.428 8.351-6.54l15.539-127.694h15.112l-42.781,351.594c-0.036,0.3-0.055,0.603-0.055,0.906 0,12.77 10.774,24.397 32.022,34.558 14.336,6.855 28.451,10.687 29.045,10.847 4.675,1.257 8.933,6.812 8.933,11.654v0.441z"/>
  </g>
</svg>
