<?xml version='1.0' encoding='iso-8859-1'?>
<svg version="1.1" xmlns="http://www.w3.org/2000/svg" viewBox="0 0 470 470" xmlns:xlink="http://www.w3.org/1999/xlink" enable-background="new 0 0 470 470">
  <path d="M389.332,221.219C371.016,194.638,345.834,180,318.426,180H295v-22.5c0-0.029-0.004-0.057-0.004-0.086  c-0.178-46.118-45.439-83.948-102.496-87.02V53.952c11.528-3.274,20-13.889,20-26.452C212.5,12.336,200.164,0,185,0  s-27.5,12.336-27.5,27.5c0,12.563,8.472,23.178,20,26.452v16.442C123.533,73.299,80.124,107.301,75.429,150H62.5  c-2.766,0-5.308,1.522-6.613,3.961c-1.305,2.439-1.162,5.398,0.373,7.699L75,189.771V217.5c0,4.142,3.358,7.5,7.5,7.5  s7.5-3.358,7.5-7.5v-30c0-1.48-0.438-2.928-1.26-4.16L76.514,165h4.342c0.53,0.119,1.079,0.187,1.644,0.187s1.114-0.068,1.644-0.187  H177.5v137.5h-65c-4.142,0-7.5,3.358-7.5,7.5v122.5c0,4.142,3.358,7.5,7.5,7.5h145c4.142,0,7.5-3.358,7.5-7.5V340  c0-4.142-3.358-7.5-7.5-7.5c-4.142,0-7.5,3.358-7.5,7.5v85H120V317.5h57.5V395H150c-4.142,0-7.5,3.358-7.5,7.5s3.358,7.5,7.5,7.5h70  c4.142,0,7.5-3.358,7.5-7.5s-3.358-7.5-7.5-7.5h-27.5v-77.5h65c4.142,0,7.5-3.358,7.5-7.5s-3.358-7.5-7.5-7.5h-65V165H280v290H90  V247.5c0-4.142-3.358-7.5-7.5-7.5s-7.5,3.358-7.5,7.5v215c0,4.142,3.358,7.5,7.5,7.5h205c4.142,0,7.5-3.358,7.5-7.5V440h23.428  c27.408,0,52.589-14.639,70.905-41.219C405.885,374.758,415,343.229,415,310C415,276.772,405.885,245.242,389.332,221.219z   M318.428,395H295V225h23.426c12.163,0,24.185,7.725,33.851,21.752C363.706,263.338,370,285.8,370,310  c0,24.201-6.294,46.663-17.722,63.248C342.613,387.275,330.591,395,318.428,395z M310.926,195v15H295v-15H310.926z M172.5,27.5  c0-6.893,5.607-12.5,12.5-12.5s12.5,5.607,12.5,12.5S191.893,40,185,40S172.5,34.393,172.5,27.5z M185,85.187  c48.981,0,89.42,28.437,94.466,64.813H185.01c-0.019,0-94.476,0-94.476,0C95.58,113.624,136.019,85.187,185,85.187z M295,410h15.928  v15H295V410z M376.981,390.27c-13.69,19.866-31.599,31.807-51.054,34.253v-15.166c14.46-2.47,27.988-12.049,38.702-27.598  C377.766,362.695,385,337.211,385,310c0-27.209-7.235-52.694-20.372-71.758c-10.714-15.549-24.243-25.128-38.702-27.598v-15.167  c19.454,2.446,37.364,14.386,51.054,34.253C391.825,251.274,400,279.782,400,310C400,340.219,391.826,368.726,376.981,390.27z"/>
</svg>
