<?xml version='1.0' encoding='iso-8859-1'?>
<svg version="1.1" xmlns="http://www.w3.org/2000/svg" viewBox="0 0 470 470" xmlns:xlink="http://www.w3.org/1999/xlink" enable-background="new 0 0 470 470">
  <path d="m418.543,2.448c-1.42-1.559-3.433-2.448-5.543-2.448h-35.667c-4.142,0-7.5,3.357-7.5,7.5s3.358,7.5 7.5,7.5h27.436l-15.83,170.128-14.731,24.872h-17.394l16.69-28.18c0.565-0.955 0.912-2.022 1.015-3.127l10.282-110.498c0.195-2.102-0.503-4.188-1.924-5.747-1.421-1.56-3.434-2.448-5.543-2.448-19.214,0-28.933,3.823-38.331,7.521-8.469,3.332-16.468,6.479-32.838,6.479s-24.37-3.147-32.839-6.479c-9.398-3.698-19.116-7.521-38.33-7.521-19.214,0-28.931,3.823-38.329,7.521-8.469,3.332-16.468,6.479-32.837,6.479-16.368,0-24.367-3.147-32.835-6.479-9.398-3.698-19.116-7.521-38.329-7.521-2.11,0-4.123,0.889-5.543,2.448-1.421,1.56-2.12,3.646-1.924,5.747l10.281,110.498c0.103,1.104 0.449,2.172 1.015,3.127l16.69,28.18h-17.393l-14.731-24.872-15.831-170.128h282.103c4.142,0 7.5-3.357 7.5-7.5s-3.358-7.5-7.5-7.5h-290.333c-2.11,0-4.123,0.889-5.543,2.448-1.421,1.56-2.12,3.646-1.924,5.747l16.749,180c0.103,1.104 0.449,2.172 1.015,3.127l16.854,28.455 13.87,213.273c1.325,20.375 18.993,36.95 39.385,36.95h194.697c20.384,0 38.078-16.567 39.444-36.931l14.299-213.285 16.857-28.462c0.565-0.955 0.912-2.022 1.015-3.127l16.749-180c0.196-2.101-0.502-4.187-1.924-5.747zm-290.359,204.855c-0.103-1.104-0.449-2.172-1.015-3.127l-16.91-28.55-9.335-100.323c11.077,0.864 17.671,3.459 24.578,6.177 9.397,3.697 19.115,7.52 38.328,7.52 19.214,0 28.932-3.823 38.329-7.521 8.468-3.332 16.467-6.479 32.837-6.479 16.37,0 24.37,3.147 32.838,6.479 9.398,3.698 19.116,7.521 38.331,7.521s28.933-3.823 38.33-7.521c6.907-2.718 13.503-5.313 24.581-6.177l-9.335,100.323-16.91,28.55c-0.565,0.955-0.912,2.022-1.015,3.127l-.251,2.698h-18.737c-4.142,0-7.5,3.357-7.5,7.5s3.358,7.5 7.5,7.5h17.342l-10.337,111.097c-1.164,12.503-12.733,23.065-25.265,23.065h-18.629l4.16-134.162h2.729c4.142,0 7.5-3.357 7.5-7.5s-3.358-7.5-7.5-7.5h-164.393l-.251-2.697zm70.886,151.859l-4.161-134.162h80.182l-4.161,134.162h-71.86zm-19.169-134.162l4.161,134.162h-18.629c-12.532,0-24.102-10.563-25.265-23.065l-10.337-111.097h50.07zm176.68,207.065c-0.834,12.432-12.043,22.935-24.477,22.935h-194.698c-12.427,0-23.608-10.497-24.416-22.923l-13.469-207.077h15.245l10.466,112.487c1.882,20.223 19.916,36.675 40.201,36.675h139.134c20.285,0 38.319-16.452 40.201-36.675l10.466-112.487h15.229l-13.882,207.065z"/>
</svg>
