<?xml version='1.0' encoding='iso-8859-1'?>
<svg version="1.1" xmlns="http://www.w3.org/2000/svg" viewBox="0 0 470 470" xmlns:xlink="http://www.w3.org/1999/xlink" enable-background="new 0 0 470 470">
  <g>
    <path d="m273.971,197.494c-2.072-3.587-6.659-4.817-10.245-2.745l-21.226,12.255v-24.51c0-4.142-3.357-7.5-7.5-7.5-4.142,0-7.5,3.358-7.5,7.5v24.51l-21.226-12.255c-3.588-2.073-8.175-0.842-10.245,2.745-2.071,3.587-0.842,8.174 2.745,10.245l21.226,12.255-21.226,12.255c-3.587,2.071-4.816,6.658-2.745,10.245 1.389,2.406 3.91,3.751 6.502,3.751 1.272,0 2.562-0.324 3.743-1.006l21.226-12.255v24.51c0,4.142 3.358,7.5 7.5,7.5 4.143,0 7.5-3.358 7.5-7.5v-24.51l21.226,12.255c1.182,0.682 2.471,1.006 3.743,1.006 2.592,0 5.113-1.346 6.502-3.751 2.071-3.587 0.842-8.174-2.745-10.245l-21.226-12.255 21.226-12.255c3.587-2.071 4.816-6.657 2.745-10.245z"/>
    <path d="M378.112,2.525C376.69,0.919,374.646,0,372.5,0h-275c-2.146,0-4.189,0.919-5.612,2.525   C90.464,4.131,89.797,6.27,90.054,8.4l51.4,425.217C143.879,453.679,162.292,470,182.5,470h105   c20.208,0,38.621-16.322,41.045-36.383L379.945,8.4C380.203,6.27,379.536,4.131,378.112,2.525z M313.653,431.817   C312.135,444.383,300.158,455,287.5,455h-105c-12.658,0-24.635-10.617-26.154-23.183L105.961,15h258.078L313.653,431.817z"/>
    <path d="m123.899,38.4l42.351,350.368c0.092,0.759 0.299,1.5 0.614,2.196 7.781,17.17 50.24,19.024 68.134,19.024 17.898,0 60.358-1.854 68.138-19.024 0.315-0.696 0.523-1.437 0.614-2.196l29.964-247.884c0.497-4.112-2.434-7.849-6.546-8.346-4.105-0.497-7.849,2.433-8.346,6.546l-29.768,246.261c-3.328,3.576-21.48,9.643-54.049,9.644-32.582,0.001-50.739-6.069-54.061-9.64l-41.082-339.885c6.178,0.746 10.218,2.305 14.695,4.033 6.684,2.58 14.26,5.503 28.613,5.503s21.929-2.924 28.612-5.503c6.253-2.413 11.653-4.497 23.212-4.497 11.561,0 16.961,2.084 23.215,4.497 6.685,2.58 14.261,5.503 28.615,5.503s21.932-2.923 28.616-5.503c4.479-1.728 8.519-3.287 14.697-4.033l-7.716,63.837c-0.497,4.112 2.433,7.849 6.545,8.346 4.112,0.5 7.85-2.433 8.347-6.546l8.787-72.701c0.258-2.13-0.409-4.269-1.833-5.875-1.423-1.605-3.467-2.525-5.612-2.525-14.354,0-21.931,2.923-28.615,5.503-6.254,2.413-11.654,4.497-23.216,4.497-11.561,0-16.961-2.084-23.215-4.497-6.684-2.58-14.26-5.503-28.615-5.503-14.353,0-21.928,2.923-28.612,5.503-6.253,2.413-11.653,4.497-23.212,4.497s-16.959-2.084-23.212-4.497c-6.684-2.58-14.26-5.503-28.613-5.503-2.146,0-4.189,0.919-5.612,2.525-1.424,1.606-2.091,3.745-1.834,5.875z"/>
  </g>
</svg>
