<?xml version='1.0' encoding='iso-8859-1'?>
<svg version="1.1" xmlns="http://www.w3.org/2000/svg" viewBox="0 0 469.922 469.922" xmlns:xlink="http://www.w3.org/1999/xlink" enable-background="new 0 0 469.922 469.922">
  <path d="m368.573,32.449c-1.423-1.607-3.467-2.527-5.614-2.527h-30.079c-0.009,0-24.726,0-24.726,0-0.381-0.248-0.787-0.469-1.223-0.649l-69.291-28.702c-1.838-0.761-3.902-0.761-5.74-1.55431e-15-1.838,0.761-3.298,2.221-4.059,4.059l-10.476,25.292h-110.402c-2.147,0-4.191,0.92-5.614,2.527-1.424,1.607-2.09,3.747-1.831,5.878l48.088,395.22c2.44,20.057 20.864,36.375 41.068,36.375h92.572c20.205,0 38.628-16.317 41.068-36.375l48.088-395.22c0.261-2.131-0.406-4.271-1.829-5.878zm-61.576,154.429c-0.023-0.01-0.043-0.022-0.066-0.031l-54.396-22.531 4.056-1.68c3.827-1.585 5.644-5.973 4.059-9.799l-22.66-54.706 34.499,14.29c0.939,0.389 1.911,0.573 2.867,0.573 2.943,0 5.736-1.744 6.932-4.632l26.278-63.44h15.703l-17.272,141.956zm-79.61-141.956h64.944l-21.031,50.771-55.433-22.961 11.52-27.81zm-38.899,129.686l-22.961-55.433 55.433-22.961 22.961,55.433-55.433,22.961zm105.773,23.227l-22.961,55.432-55.433-22.961 22.961-55.433 55.433,22.962zm-55.433-180.536l30.473,12.623h-35.701l5.228-12.623zm-39.689,62.362c0.761,1.838 2.221,3.298 4.059,4.059l4.364,1.808-54.236,22.465-7.674-63.071h65.498l-12.012,28.999c-0.76,1.838-0.76,3.902 0.001,5.74zm108.286,352.075c-1.529,12.568-13.518,23.186-26.178,23.186h-92.572c-12.661,0-24.649-10.618-26.178-23.186l-47.066-386.814h15.11l29.501,242.464c0.463,3.805 3.698,6.595 7.436,6.595 0.302,0 0.608-0.019 0.915-0.056 4.112-0.5 7.04-4.239 6.54-8.351l-18.002-147.954 20.568,49.657c1.196,2.888 3.989,4.632 6.932,4.632 0.957,0 1.929-0.184 2.867-0.573l34.371-14.237-22.532,54.396c-0.761,1.838-0.761,3.902 0,5.74s2.221,3.298 4.059,4.059l69.291,28.701c0.939,0.389 1.911,0.573 2.867,0.573 2.943,0 5.736-1.744 6.932-4.632l21.365-51.58-20.969,172.342c-3.286,3.129-19.246,8.218-47.719,8.218-28.562,0-44.535-5.12-47.723-8.182l-8.685-71.381c-0.5-4.112-4.238-7.032-8.351-6.54-4.112,0.5-7.04,4.239-6.54,8.351l8.894,73.093c0.092,0.757 0.299,1.496 0.614,2.19 7.145,15.767 45.592,17.469 61.79,17.469 16.197,0 54.64-1.702 61.784-17.468 0.314-0.695 0.521-1.433 0.614-2.19l42.02-345.336h15.111l-47.066,386.814z"/>
</svg>
