<?xml version='1.0' encoding='iso-8859-1'?>
<svg version="1.1" xmlns="http://www.w3.org/2000/svg" viewBox="0 0 470 470" xmlns:xlink="http://www.w3.org/1999/xlink" enable-background="new 0 0 470 470">
  <g>
    <path d="m462.5,360.675h-430c-4.142,0-7.5,3.357-7.5,7.5s3.358,7.5 7.5,7.5h4.343l4.325,15.138c3.182,11.138 14.748,19.862 26.332,19.862h360c11.584,0 23.15-8.725 26.333-19.862l4.325-15.138h4.342c4.143,0 7.5-3.357 7.5-7.5s-3.357-7.5-7.5-7.5zm-23.09,26.016c-1.344,4.701-7.021,8.983-11.91,8.983h-360c-4.89,0-10.566-4.281-11.909-8.983l-3.148-11.017h390.114l-3.147,11.017z"/>
    <path d="m87.5,269.325h21.409c2.681,0 5.157-1.431 6.497-3.753s1.338-5.183-0.004-7.503c-13.348-23.073-20.403-49.438-20.403-76.244v-20c0-4.143-3.358-7.5-7.5-7.5-15.359,0-29.799,5.981-40.658,16.841-10.86,10.86-16.841,25.3-16.841,40.659 0,15.358 5.981,29.798 16.842,40.659 10.861,10.861 25.3,16.841 40.658,16.841zm-30.052-87.553c6.229-6.229 14.053-10.287 22.551-11.792v11.845c0,25.167 5.667,49.987 16.473,72.5h-8.972c-11.352,0-22.024-4.421-30.052-12.447-8.027-8.028-12.448-18.701-12.448-30.053 0-11.352 4.42-22.025 12.448-30.053z"/>
    <path d="m87.5,299.325h40.632c31.729,32.271 73.988,50 119.367,50 92.359,0 167.5-75.141 167.5-167.5v-80c0-4.143-3.357-7.5-7.5-7.5h-23.177c-3.554-19.868-20.949-35-41.824-35-8.539,0-16.772,2.543-23.75,7.256-6.978-4.713-15.211-7.256-23.75-7.256-8.538,0-16.772,2.543-23.75,7.256-6.977-4.713-15.211-7.256-23.75-7.256s-16.772,2.543-23.75,7.256c-6.977-4.713-15.211-7.256-23.75-7.256s-16.773,2.543-23.75,7.256c-6.977-4.713-15.211-7.256-23.75-7.256-20.875,0-38.27,15.132-41.824,35h-23.175c-4.142,0-7.5,3.357-7.5,7.5v22.814c-20.544,1.732-39.627,10.567-54.372,25.313-16.526,16.527-25.627,38.501-25.627,61.873 0,23.372 9.102,45.345 25.628,61.872 16.528,16.527 38.501,25.628 61.872,25.628zm282.498-174.729c-13.09,0.95-20.937,4.312-27.968,7.341-7.958,3.428-14.83,6.388-29.534,6.388s-21.576-2.96-29.534-6.388c-8.282-3.568-17.671-7.612-35.468-7.612-17.796,0-27.184,4.044-35.466,7.612-7.957,3.428-14.829,6.388-29.532,6.388-14.703,0-21.574-2.96-29.531-6.388-7.03-3.029-14.877-6.391-27.966-7.341v-15.271h245v15.271zm-217.5-50.271c6.937,0 13.563,2.595 18.659,7.306 2.874,2.658 7.308,2.658 10.183,0 5.095-4.711 11.722-7.306 18.658-7.306s13.563,2.595 18.659,7.306c2.874,2.658 7.308,2.658 10.183,0 5.095-4.711 11.721-7.306 18.658-7.306 6.938,0 13.563,2.595 18.658,7.306 2.875,2.658 7.309,2.658 10.184,0 5.096-4.711 11.722-7.306 18.658-7.306s13.563,2.595 18.658,7.306c2.875,2.658 7.309,2.658 10.184,0 5.096-4.711 11.722-7.306 18.658-7.306 12.563,0 23.178,8.472 26.452,20h-242.904c3.273-11.528 13.888-20 26.452-20zm-116.265,86.235c13.692-13.693 31.898-21.234 51.265-21.234 4.142,0 7.5-3.357 7.5-7.5v-22.5h15v72.5c0,75.817 61.682,137.5 137.5,137.5 31.291,0 60.795-10.287 85.324-29.75 3.244-2.574 3.788-7.292 1.213-10.537-2.574-3.244-7.292-3.787-10.537-1.213-21.849,17.336-48.13,26.5-76,26.5-67.546,0-122.5-54.953-122.5-122.5v-42.204c9.816,0.83 15.565,3.307 22.031,6.092 8.282,3.568 17.67,7.612 35.466,7.612 17.796,0 27.184-4.044 35.467-7.612 7.957-3.428 14.829-6.388 29.532-6.388 14.704,0 21.576,2.96 29.534,6.388 8.282,3.568 17.671,7.612 35.468,7.612s27.186-4.044 35.468-7.611c6.467-2.786 12.217-5.263 22.034-6.093v42.204c0,27.871-9.164,54.151-26.5,76-2.575,3.245-2.031,7.963 1.213,10.537 3.243,2.575 7.961,2.031 10.537-1.213 19.463-24.528 29.75-54.033 29.75-85.324v-49.981c0-0.039 0-22.519 0-22.519h15.001v72.5c0,84.089-68.411,152.5-152.5,152.5-42.304,0-81.631-16.925-110.737-47.657-1.417-1.496-3.385-2.343-5.445-2.343h-43.818c-19.364,0-37.571-7.541-51.265-21.235-13.693-13.695-21.235-31.901-21.235-51.266 0-19.366 7.541-37.572 21.234-51.265z"/>
  </g>
</svg>
