<?xml version='1.0' encoding='iso-8859-1'?>
<svg version="1.1" xmlns="http://www.w3.org/2000/svg" viewBox="0 0 470 470" xmlns:xlink="http://www.w3.org/1999/xlink" enable-background="new 0 0 470 470">
  <g>
    <circle cx="227.5" cy="391.25" r="7.5"/>
    <circle cx="197.5" cy="361.25" r="7.5"/>
    <path d="m147.5,125h175c4.142,0 7.5-3.358 7.5-7.5s-3.358-7.5-7.5-7.5h-8.365c-4.293-18.529-24.314-33.454-51.635-39.514v-42.986c0-2.841-1.605-5.438-4.146-6.708l-40-20c-2.326-1.163-5.087-1.039-7.297,0.328-2.211,1.367-3.557,3.781-3.557,6.38v62.986c-27.321,6.059-47.341,20.984-51.635,39.514h-8.365c-4.142,0-7.5,3.358-7.5,7.5s3.358,7.5 7.5,7.5zm75-105.365l25,12.5v36.008c-4.065-0.382-8.238-0.583-12.5-0.583s-8.435,0.2-12.5,0.583v-48.508zm12.5,62.926c30.46,0 56.817,11.961 63.404,27.439h-126.808c6.587-15.477 32.944-27.439 63.404-27.439z"/>
    <path d="m337.5,230c-4.142,0-7.5,3.358-7.5,7.5v195c0,12.407-10.093,22.5-22.5,22.5h-145c-12.407,0-22.5-10.093-22.5-22.5v-225c0-12.407 10.093-22.5 22.5-22.5h45v127.5h-45c-4.142,0-7.5,3.358-7.5,7.5v112.5c0,4.142 3.358,7.5 7.5,7.5h145c4.142,0 7.5-3.358 7.5-7.5v-112.5c0-4.142-3.358-7.5-7.5-7.5h-45v-127.5h45c12.407,0 22.5,10.093 22.5,22.5 0,4.142 3.358,7.5 7.5,7.5s7.5-3.358 7.5-7.5c0-20.678-16.822-37.5-37.5-37.5h-145c-20.678,0-37.5,16.822-37.5,37.5v225c0,20.678 16.822,37.5 37.5,37.5h145c20.678,0 37.5-16.822 37.5-37.5v-195c0-4.142-3.358-7.5-7.5-7.5zm-37.5,195h-130v-97.5h130v97.5zm-52.5-112.5h-25v-127.5h25v127.5z"/>
    <path d="m147.5,155h175c4.142,0 7.5-3.358 7.5-7.5s-3.358-7.5-7.5-7.5h-175c-4.142,0-7.5,3.358-7.5,7.5s3.358,7.5 7.5,7.5z"/>
  </g>
</svg>
