<?xml version='1.0' encoding='iso-8859-1'?>
<svg version="1.1" xmlns="http://www.w3.org/2000/svg" viewBox="0 0 415 415" xmlns:xlink="http://www.w3.org/1999/xlink" enable-background="new 0 0 415 415">
  <g>
    <circle cx="83" cy="312.171" r="7.5"/>
    <circle cx="53" cy="282.171" r="7.5"/>
    <circle cx="251.995" cy="362" r="7.5"/>
    <circle cx="332" cy="189.868" r="7.5"/>
    <circle cx="362" cy="219.868" r="7.5"/>
    <circle cx="332" cy="93.741" r="7.5"/>
    <path d="M37.5,400H15V15h75.5c4.142,0,7.5-3.358,7.5-7.5S94.642,0,90.5,0h-83C3.358,0,0,3.358,0,7.5v400c0,4.142,3.358,7.5,7.5,7.5   h30c4.142,0,7.5-3.358,7.5-7.5S41.642,400,37.5,400z"/>
    <path d="m407.5,317c-4.143,0-7.5,3.358-7.5,7.5v75.5h-332.5c-4.142,0-7.5,3.358-7.5,7.5s3.358,7.5 7.5,7.5h340c4.143,0 7.5-3.358 7.5-7.5v-83c0-4.142-3.357-7.5-7.5-7.5z"/>
    <path d="m407.5,0h-287c-4.142,0-7.5,3.358-7.5,7.5s3.358,7.5 7.5,7.5h279.5v279.5c0,4.142 3.357,7.5 7.5,7.5s7.5-3.358 7.5-7.5v-287c0-4.142-3.357-7.5-7.5-7.5z"/>
  </g>
</svg>
