<?xml version='1.0' encoding='iso-8859-1'?>
<svg version="1.1" xmlns="http://www.w3.org/2000/svg" viewBox="0 0 470 470" xmlns:xlink="http://www.w3.org/1999/xlink" enable-background="new 0 0 470 470">
  <g>
    <path d="m344.061,238.577c-0.256-0.461-0.499-0.898-0.72-1.296l-62.629-112.641v-36.182h2.5c4.142,0 7.5-3.357 7.5-7.5s-3.358-7.5-7.5-7.5h-2.5v-65.958c0-4.143-3.358-7.5-7.5-7.5h-76.424c-4.142,0-7.5,3.357-7.5,7.5v65.958h-2.5c-4.142,0-7.5,3.357-7.5,7.5s3.358,7.5 7.5,7.5h2.5v36.182l-63.359,113.94c-10.237,18.425-15.647,39.354-15.647,60.527 0,4.438 0.239,8.933 0.71,13.357l13.949,130.943c1.563,14.664 14.831,26.593 29.577,26.593h160.964c14.746,0 28.014-11.929 29.577-26.592l13.95-130.944c0.471-4.426 0.71-8.92 0.71-13.356 5.68434e-14-21.18-5.415-42.111-15.658-60.531zm-78.349-223.577v15h-61.424v-15h61.424zm-61.424,30h23.212v2.5c0,4.143 3.358,7.5 7.5,7.5s7.5-3.357 7.5-7.5v-2.5h23.212v28.458h-61.424v-28.458zm139.805,265.875l-13.95,130.943c-0.761,7.146-7.475,13.182-14.661,13.182h-160.964c-7.186,0-13.9-6.036-14.661-13.182l-13.95-130.943c-0.416-3.898-0.626-7.858-0.626-11.768 0-18.63 4.758-37.04 13.758-53.24l64.303-115.638c0.62-1.114 0.945-2.369 0.945-3.645v-38.126h61.424v30.627h-38.924c-4.142,0-7.5,3.357-7.5,7.5s3.358,7.5 7.5,7.5h42.013c11.054,19.879 61.154,109.976 62.119,111.726 0.01,0.02 0.021,0.038 0.031,0.058 9.007,16.194 13.768,34.604 13.768,53.239 0.001,3.908-0.21,7.867-0.625,11.767z"/>
    <path d="m235,204.389c-52.229,0-94.719,42.49-94.719,94.719 0,3.381 0.182,6.806 0.542,10.18l9.056,85.008c0.406,3.813 3.624,6.705 7.458,6.705h30c4.142,0 7.5-3.357 7.5-7.5s-3.358-7.5-7.5-7.5h-23.257l-8.173-76.717c0.781,0.576 1.586,1.25 2.507,2.026 3.933,3.311 9.319,7.845 19.281,7.845 9.962,0 15.348-4.534 19.281-7.845 3.309-2.786 5.132-4.32 9.621-4.32 4.49,0 6.313,1.534 9.623,4.32 3.933,3.311 9.319,7.845 19.282,7.845 9.962,0 15.348-4.534 19.281-7.845 3.309-2.786 5.132-4.32 9.622-4.32 4.49,0 6.313,1.534 9.624,4.32 3.933,3.311 9.32,7.845 19.283,7.845s15.35-4.534 19.283-7.845c0.498-0.419 0.96-0.807 1.405-1.168l-8.08,75.858h-88.583c-4.142,0-7.5,3.357-7.5,7.5s3.358,7.5 7.5,7.5h95.327c3.834,0 7.052-2.893 7.458-6.705l9.055-85.01c0.341-3.199 0.517-6.445 0.535-9.658 0.001-0.046 0.007-0.091 0.007-0.138 0-0.027-0.004-0.053-0.004-0.08 0-0.1 0.004-0.201 0.004-0.302-5.68434e-14-52.228-42.491-94.718-94.719-94.718zm67.936,95.445c-3.31,2.786-5.133,4.32-9.624,4.32s-6.314-1.534-9.624-4.32c-3.933-3.311-9.32-7.845-19.283-7.845-9.962,0-15.349,4.534-19.282,7.845-3.309,2.786-5.132,4.32-9.621,4.32-4.49,0-6.313-1.534-9.623-4.32-3.933-3.311-9.319-7.845-19.282-7.845-9.962,0-15.348,4.534-19.281,7.845-3.309,2.786-5.132,4.32-9.621,4.32s-6.312-1.534-9.621-4.32c-2.932-2.469-6.676-5.615-12.52-7.057 3.24-41.006 37.62-73.388 79.445-73.388 41.916,0 76.356,32.525 79.465,73.66-5.278,1.537-8.765,4.46-11.528,6.785z"/>
  </g>
</svg>
