<?xml version='1.0' encoding='iso-8859-1'?>
<svg version="1.1" xmlns="http://www.w3.org/2000/svg" viewBox="0 0 470 470" xmlns:xlink="http://www.w3.org/1999/xlink" enable-background="new 0 0 470 470">
  <g>
    <path d="m105.666,369.985c-3.895-1.397-8.193,0.631-9.589,4.532l-4.152,11.583c-1.398,3.898 0.628,8.193 4.527,9.592 0.837,0.3 1.691,0.442 2.532,0.442 3.076,0 5.961-1.907 7.06-4.97l4.154-11.591c1.397-3.898-0.632-8.191-4.532-9.588z"/>
    <path d="m116.888,328.387c-4.021-1.01-8.092,1.437-9.096,5.455l-2.99,11.938c-1.007,4.018 1.434,8.091 5.452,9.099 0.612,0.153 1.225,0.227 1.829,0.227 3.358,0 6.415-2.272 7.269-5.679l2.991-11.944c1.006-4.019-1.437-8.091-5.455-9.096z"/>
    <path d="m123.967,285.884c-4.1-0.609-7.91,2.225-8.517,6.321l-1.805,12.175c-0.607,4.097 2.221,7.911 6.318,8.52 0.373,0.056 0.743,0.082 1.11,0.082 3.654,0 6.856-2.676 7.409-6.4l1.805-12.181c0.608-4.098-2.223-7.912-6.32-8.517z"/>
    <path d="m126.853,242.893c-4.11-0.2-7.655,2.986-7.858,7.124l-.604,12.294c-0.204,4.137 2.984,7.656 7.122,7.86 0.126,0.006 0.25,0.009 0.375,0.009 3.973,0 7.287-3.119 7.485-7.131l.604-12.298c0.203-4.137-2.987-7.655-7.124-7.858z"/>
    <path d="m125.416,199.831c-4.134,0.261-7.273,3.822-7.014,7.957 0.251,3.985 0.45,8.052 0.592,12.087 0.142,4.051 3.47,7.237 7.49,7.237 0.089,0 0.179-0.001 0.268-0.005 4.14-0.145 7.378-3.618 7.232-7.758-0.146-4.174-0.352-8.381-0.611-12.505-0.261-4.133-3.799-7.261-7.957-7.013z"/>
    <path d="m119.974,157.095c-4.098,0.608-6.926,4.423-6.318,8.52l1.804,12.173c0.551,3.727 3.753,6.405 7.41,6.405 0.365,0 0.734-0.026 1.105-0.081 4.098-0.605 6.929-4.418 6.324-8.516l-1.806-12.183c-0.608-4.098-4.421-6.919-8.519-6.318z"/>
    <path d="m104.805,124.215l2.992,11.938c0.853,3.407 3.91,5.681 7.27,5.681 0.604,0 1.216-0.073 1.827-0.227 4.019-1.006 6.46-5.079 5.454-9.097l-2.994-11.946c-1.009-4.019-5.086-6.454-9.1-5.449-4.018,1.008-6.457,5.082-5.449,9.1z"/>
    <path d="m96.042,95.377c1.067,3.113 3.978,5.07 7.094,5.07 0.807,0 1.628-0.131 2.433-0.407 3.919-1.343 6.006-5.608 4.663-9.526-1.342-3.914-2.764-7.88-4.228-11.788-1.452-3.878-5.771-5.843-9.654-4.393-3.879,1.453-5.846,5.775-4.393,9.654 1.414,3.777 2.789,7.609 4.085,11.39z"/>
    <path d="m373.923,374.518c-1.396-3.901-5.695-5.932-9.589-4.532-3.9,1.396-5.929,5.689-4.532,9.589l4.154,11.591c1.099,3.063 3.983,4.97 7.06,4.97 0.841,0 1.696-0.143 2.532-0.442 3.899-1.398 5.926-5.693 4.527-9.592l-4.152-11.584z"/>
    <path d="m365.197,345.778l-2.989-11.937c-1.005-4.018-5.074-6.461-9.096-5.455-4.019,1.005-6.461,5.077-5.455,9.096l2.991,11.944c0.854,3.405 3.91,5.678 7.269,5.678 0.604,0 1.218-0.073 1.83-0.228 4.018-1.006 6.458-5.08 5.45-9.098z"/>
    <path d="m350.036,312.899c4.098-0.608 6.926-4.423 6.318-8.52l-1.805-12.175c-0.606-4.098-4.416-6.933-8.517-6.321-4.098,0.605-6.928,4.419-6.321,8.517l1.805,12.181c0.553,3.725 3.754,6.4 7.409,6.4 0.367,5.68434e-14 0.738-0.027 1.111-0.082z"/>
    <path d="m344.488,270.171c4.138-0.204 7.326-3.724 7.122-7.86l-.604-12.294c-0.203-4.138-3.688-7.334-7.858-7.124-4.138,0.203-7.327,3.722-7.124,7.858l.604,12.298c0.198,4.012 3.513,7.131 7.485,7.131 0.124,5.68434e-14 0.249-0.003 0.375-0.009z"/>
    <path d="m343.248,227.107c0.09,0.004 0.179,0.005 0.268,0.005 4.021,0 7.349-3.188 7.49-7.237 0.142-4.035 0.341-8.102 0.592-12.087 0.26-4.135-2.88-7.696-7.014-7.957-4.154-0.247-7.696,2.881-7.957,7.014-0.26,4.124-0.465,8.331-0.611,12.505-0.146,4.139 3.092,7.613 7.232,7.757z"/>
    <path d="m346.023,184.11c0.372,0.056 0.742,0.082 1.107,0.082 3.656,0 6.858-2.678 7.409-6.403l1.805-12.175c0.607-4.097-2.221-7.911-6.318-8.52-4.086-0.61-7.911,2.219-8.52,6.318l-1.805,12.181c-0.605,4.098 2.225,7.912 6.322,8.517z"/>
    <path d="m353.106,141.607c0.611,0.153 1.224,0.227 1.827,0.227 3.359,0 6.417-2.274 7.27-5.681l2.992-11.938c1.008-4.018-1.432-8.092-5.449-9.1-4.014-1.011-8.092,1.431-9.1,5.449l-2.994,11.946c-1.006,4.018 1.436,8.092 5.454,9.097z"/>
    <path d="m373.65,74.333c-3.881-1.455-8.202,0.514-9.654,4.393-1.464,3.908-2.886,7.874-4.228,11.788-1.343,3.918 0.744,8.184 4.663,9.526 0.806,0.276 1.626,0.407 2.433,0.407 3.115,0 6.026-1.957 7.094-5.07 1.296-3.781 2.671-7.613 4.085-11.39 1.453-3.879-0.514-8.201-4.393-9.654z"/>
    <path d="m392.865,45.818v-38.318c0-4.143-3.357-7.5-7.5-7.5h-300.73c-4.143,0-7.5,3.357-7.5,7.5v38.318c-27.561,58.666-42.123,124.044-42.123,189.182 0.001,65.137 14.563,130.515 42.123,189.182v38.318c0,4.143 3.357,7.5 7.5,7.5h300.73c4.143,0 7.5-3.357 7.5-7.5v-38.318c27.561-58.667 42.122-124.045 42.123-189.182 0-65.138-14.562-130.516-42.123-189.182zm-9.818,363.753c-1.133-0.034-2.29,0.182-3.387,0.693-3.754,1.752-5.377,6.215-3.626,9.968l1.832,3.93v30.838h-285.731v-25h263.23c4.143,0 7.5-3.357 7.5-7.5s-3.357-7.5-7.5-7.5h-265.952c-52.079-112.866-52.898-241.223-2.458-354.575 0.074,0.002 0.146,0.016 0.22,0.016 1.061,0 2.138-0.227 3.162-0.703 3.755-1.749 5.381-6.211 3.632-9.966l-1.834-3.933v-30.839h285.73v25h-263.23c-4.143,0-7.5,3.357-7.5,7.5s3.357,7.5 7.5,7.5h265.952c52.079,112.863 52.898,241.218 2.46,354.571z"/>
    <path d="m304.243,256.389c0.019-4.142-3.324-7.515-7.467-7.533-4.16,0-7.515,3.336-7.533,7.467-0.03,6.635-0.738,13.403-2.083,20.229l-44.659-44.659v-46.447c9.865,3.487 18.664,8.891 25.913,16.14 7.588,7.587 13.21,16.82 16.71,27.441 1.296,3.933 5.533,6.073 9.471,4.775 3.934-1.296 6.072-5.536 4.775-9.471-4.24-12.869-11.087-24.091-20.349-33.354-11.344-11.343-25.684-18.97-41.767-22.657-0.385-0.121-0.785-0.204-1.194-0.262-18.2-3.932-38.571-2.865-59.339,3.55-0.029,0.008-0.057,0.017-0.086,0.025-0.075,0.022-0.101,0.036-0.13,0.046-0.234,0.076-0.465,0.163-0.692,0.262-0.067,0.029-0.132,0.061-0.198,0.092-0.193,0.091-0.383,0.191-0.57,0.3-0.066,0.039-0.133,0.076-0.198,0.117-0.186,0.116-0.367,0.243-0.544,0.377-0.052,0.039-0.105,0.075-0.156,0.115-0.22,0.175-0.435,0.362-0.639,0.565-0.204,0.204-0.39,0.418-0.565,0.639-0.042,0.053-0.08,0.11-0.121,0.165-0.131,0.174-0.255,0.351-0.369,0.533-0.043,0.069-0.083,0.139-0.123,0.209-0.105,0.182-0.203,0.366-0.292,0.554-0.034,0.071-0.068,0.142-0.099,0.214-0.094,0.217-0.177,0.437-0.25,0.661-0.012,0.037-0.03,0.072-0.042,0.11-0.006,0.019-0.011,0.039-0.017,0.058-0.005,0.018-0.011,0.036-0.016,0.054-6.424,20.784-7.49,41.169-3.55,59.382 0.057,0.395 0.137,0.783 0.254,1.156 3.687,16.089 11.316,30.433 22.662,41.78 16.573,16.572 39.537,25.227 65,25.227 12.012,0 24.582-1.929 37.299-5.857 0.027-0.008 0.054-0.016 0.081-0.024 0.016-0.005 0.033-0.009 0.05-0.014 0.035-0.011 0.067-0.027 0.101-0.038 0.227-0.074 0.45-0.158 0.67-0.254 0.072-0.031 0.143-0.065 0.213-0.099 0.187-0.089 0.371-0.185 0.552-0.29 0.072-0.041 0.143-0.082 0.213-0.126 0.179-0.112 0.354-0.234 0.525-0.363 0.057-0.043 0.117-0.083 0.173-0.127 0.219-0.175 0.433-0.36 0.636-0.563 0.204-0.204 0.39-0.418 0.565-0.638 0.042-0.053 0.08-0.11 0.121-0.164 0.132-0.175 0.256-0.353 0.371-0.536 0.041-0.066 0.08-0.134 0.119-0.202 0.108-0.185 0.207-0.374 0.298-0.566 0.032-0.067 0.064-0.133 0.093-0.201 0.099-0.226 0.185-0.455 0.26-0.688 0.01-0.03 0.024-0.058 0.033-0.088 0.022-0.075 0.031-0.106 0.04-0.138 3.826-12.393 5.796-24.801 5.85-36.884zm-76.742-74.637v35.14l-34.059-34.06c11.871-2.342 23.375-2.672 34.059-1.08zm-44.668,11.686l34.061,34.061h-35.141c-1.594-10.684-1.263-22.19 1.08-34.061zm18.754,74.975c-7.249-7.249-12.654-16.048-16.141-25.914h46.447l44.667,44.668c-29.65,5.853-57.044-0.822-74.973-18.754z"/>
  </g>
</svg>
