<?xml version='1.0' encoding='iso-8859-1'?>
<svg version="1.1" xmlns="http://www.w3.org/2000/svg" viewBox="0 0 470 470" xmlns:xlink="http://www.w3.org/1999/xlink" enable-background="new 0 0 470 470">
  <path d="M397.5,60h-24.144l-13.58-54.319C358.941,2.342,355.941,0,352.5,0h-235c-3.441,0-6.441,2.342-7.276,5.681L96.644,60H72.5  c-4.142,0-7.5,3.357-7.5,7.5v40c0,4.143,3.358,7.5,7.5,7.5h8.107l13.156,155.686c0.331,3.912,3.608,6.868,7.465,6.868  c0.211,0,0.425-0.009,0.64-0.026c4.127-0.349,7.191-3.978,6.842-8.105L101.153,180h164.867v27.422l-32.786,13.114  c-2.847,1.14-4.714,3.897-4.714,6.964v75c0,4.143,3.358,7.5,7.5,7.5h75c4.142,0,7.5-3.357,7.5-7.5v-75  c0-3.066-1.867-5.824-4.714-6.964l-32.786-13.114V180h87.826L351.1,390H118.9l-7.664-90.686c-0.349-4.127-3.982-7.186-8.104-6.842  c-4.127,0.349-7.191,3.978-6.842,8.105l13.737,162.554c0.328,3.883,3.576,6.868,7.473,6.868h235c3.897,0,7.145-2.985,7.473-6.868  L389.393,115h8.107c4.142,0,7.5-3.357,7.5-7.5v-40C405,63.357,401.642,60,397.5,60z M303.521,295h-60v-62.422l30-12l30,12V295z   M99.886,165l-4.225-50h170.36v50H99.886z M124.393,455l-4.225-50h229.665l-4.225,50H124.393z M370.114,165h-89.094v-50h93.319  L370.114,165z M390,100H80V75h22.343c0.108,0.002,0.216,0.002,0.325,0H337.5c4.142,0,7.5-3.357,7.5-7.5s-3.358-7.5-7.5-7.5H112.106  l11.25-45h223.288l13.58,54.319C361.059,72.658,364.059,75,367.5,75H390V100z"/>
</svg>
