<?xml version='1.0' encoding='iso-8859-1'?>
<svg version="1.1" xmlns="http://www.w3.org/2000/svg" viewBox="0 0 470 470" xmlns:xlink="http://www.w3.org/1999/xlink" enable-background="new 0 0 470 470">
  <g>
    <path d="m366.413,0h-262.825c-48.682,0-88.287,39.605-88.287,88.287-1.77636e-15,24.646 10.177,47.986 28.039,64.584v240.11c0,42.468 34.551,77.019 77.02,77.019h229.282c42.468,0 77.019-34.551 77.019-77.019v-240.11c17.862-16.598 28.039-39.938 28.039-64.584-0.001-48.682-39.606-88.287-88.287-88.287zm47.865,143.82c-1.662,1.425-2.618,3.505-2.618,5.694v243.467c0,34.197-27.821,62.019-62.019,62.019h-229.282c-34.197,0-62.02-27.821-62.02-62.019v-243.466c0-2.189-0.956-4.27-2.618-5.694-16.155-13.85-25.421-34.091-25.421-55.533 0.001-40.412 32.877-73.288 73.288-73.288h262.825c40.41,0 73.286,32.876 73.286,73.287 0,21.442-9.265,41.684-25.421,55.533z"/>
    <path d="m73.34,193.691c0,4.143 3.357,7.5 7.5,7.5s7.5-3.357 7.5-7.5v-60c0-2.837-1.601-5.431-4.135-6.703-14.745-7.401-23.904-22.23-23.904-38.701 0-23.868 19.419-43.287 43.287-43.287h202.825c4.143,0 7.5-3.357 7.5-7.5s-3.357-7.5-7.5-7.5h-202.825c-32.14,0-58.287,26.147-58.287,58.287 0,20.595 10.63,39.281 28.039,49.822v55.582z"/>
    <path d="m366.413,30h-30c-4.143,0-7.5,3.357-7.5,7.5s3.357,7.5 7.5,7.5h30c23.868,0 43.286,19.419 43.286,43.287 0,16.471-9.159,31.3-23.903,38.701-2.535,1.272-4.136,3.866-4.136,6.703v259.29c0,17.655-14.363,32.019-32.019,32.019h-229.282c-17.655,0-32.02-14.363-32.02-32.019v-169.29c0-4.143-3.357-7.5-7.5-7.5s-7.5,3.357-7.5,7.5v169.29c0,25.926 21.093,47.019 47.02,47.019h229.282c25.926,0 47.019-21.093 47.019-47.019v-254.872c17.409-10.54 28.039-29.228 28.039-49.822 0-32.14-26.147-58.287-58.286-58.287z"/>
    <circle cx="310.785" cy="374.31" r="7.5"/>
    <circle cx="340.785" cy="344.31" r="7.5"/>
    <circle cx="157.777" cy="89.945" r="7.5"/>
    <path d="m211.938,270.5h46.123c27.853,0 50.512-22.66 50.512-50.513v-49.976c0-27.853-22.659-50.512-50.512-50.512h-46.123c-27.853,0-50.512,22.659-50.512,50.512v49.976c0.001,27.853 22.66,50.513 50.512,50.513zm-35.511-100.488c0-19.581 15.931-35.512 35.512-35.512h46.123c19.581,0 35.512,15.931 35.512,35.512v49.976c0,19.582-15.931,35.513-35.512,35.513h-46.123c-19.581,0-35.512-15.931-35.512-35.513v-49.976z"/>
    <path d="m211.938,240.5h46.123c11.311,0 20.512-9.202 20.512-20.513 0-4.143-3.357-7.5-7.5-7.5s-7.5,3.357-7.5,7.5c0,3.04-2.473,5.513-5.512,5.513h-46.123c-3.039,0-5.512-2.473-5.512-5.513v-49.976c0-3.039 2.473-5.512 5.512-5.512 4.143,0 7.5-3.357 7.5-7.5s-3.357-7.5-7.5-7.5c-11.311,0-20.512,9.201-20.512,20.512v49.976c0.001,11.311 9.202,20.513 20.512,20.513z"/>
    <path d="m258.062,164.5c3.039,0 5.512,2.473 5.512,5.512 0,4.143 3.357,7.5 7.5,7.5s7.5-3.357 7.5-7.5c0-11.311-9.201-20.512-20.512-20.512-4.143,0-7.5,3.357-7.5,7.5s3.357,7.5 7.5,7.5z"/>
  </g>
</svg>
