<?xml version="1.0" encoding="iso-8859-1"?>
<!-- Generator: Adobe Illustrator 19.0.0, SVG Export Plug-In . SVG Version: 6.00 Build 0)  -->
<svg version="1.1" id="Layer_1" xmlns="http://www.w3.org/2000/svg" xmlns:xlink="http://www.w3.org/1999/xlink" x="0px" y="0px"
	 viewBox="0 0 463 463" style="enable-background:new 0 0 463 463;" xml:space="preserve">
<g>
	<g>
		<g>
			<path d="M295.5,272h-128c-4.142,0-7.5,3.358-7.5,7.5v88c0,17.369,14.131,31.5,31.5,31.5h80c17.369,0,31.5-14.131,31.5-31.5v-88
				C303,275.358,299.642,272,295.5,272z M288,367.5c0,9.098-7.402,16.5-16.5,16.5h-80c-9.098,0-16.5-7.402-16.5-16.5V287h113V367.5z
				"/>
			<path d="M199.5,143h64c4.142,0,7.5-3.358,7.5-7.5c0-4.142-3.358-7.5-7.5-7.5h-64c-4.142,0-7.5,3.358-7.5,7.5
				C192,139.642,195.358,143,199.5,143z"/>
			<path d="M415.5,152c-4.142,0-7.5,3.358-7.5,7.5v104c0,4.687-3.813,8.5-8.5,8.5s-8.5-3.813-8.5-8.5v-8
				c0-12.958-10.542-23.5-23.5-23.5h-16c-26.743,0-48.5-21.757-48.5-48.5v-112C303,32.075,270.925,0,231.5,0S160,32.075,160,71.5
				v112c0,26.743-21.757,48.5-48.5,48.5h-16C82.542,232,72,242.542,72,255.5v8c0,4.687-3.813,8.5-8.5,8.5s-8.5-3.813-8.5-8.5v-104
				c0-4.142-3.358-7.5-7.5-7.5c-4.142,0-7.5,3.358-7.5,7.5v104c0,12.958,10.542,23.5,23.5,23.5S87,276.458,87,263.5v-8
				c0-4.687,3.813-8.5,8.5-8.5h8.5v161.454c0,22.679,15.991,42.262,38.022,46.566c26.727,5.22,57.668,7.98,89.478,7.98
				c31.809,0,62.75-2.76,89.479-7.98C343.01,450.716,359,431.132,359,408.454V247h8.5c4.687,0,8.5,3.813,8.5,8.5v8
				c0,12.958,10.542,23.5,23.5,23.5s23.5-10.542,23.5-23.5v-104C423,155.358,419.642,152,415.5,152z M175,71.5
				c0-31.154,25.346-56.5,56.5-56.5S288,40.346,288,71.5V96H175V71.5z M344,408.454c0,15.52-10.891,28.912-25.897,31.844
				C292.307,445.337,262.36,448,231.5,448s-60.807-2.663-86.603-7.702C129.891,437.366,119,423.974,119,408.454V246.56
				c31.493-3.722,56-30.582,56-63.06V111h113v72.5c0,32.478,24.507,59.338,56,63.06V408.454z"/>
		</g>
	</g>
</g>
<g>
</g>
<g>
</g>
<g>
</g>
<g>
</g>
<g>
</g>
<g>
</g>
<g>
</g>
<g>
</g>
<g>
</g>
<g>
</g>
<g>
</g>
<g>
</g>
<g>
</g>
<g>
</g>
<g>
</g>
</svg>
