<?xml version="1.0" encoding="iso-8859-1"?>
<!-- Generator: Adobe Illustrator 19.0.0, SVG Export Plug-In . SVG Version: 6.00 Build 0)  -->
<svg version="1.1" id="Layer_1" xmlns="http://www.w3.org/2000/svg" xmlns:xlink="http://www.w3.org/1999/xlink" x="0px" y="0px"
	 viewBox="0 0 463.002 463.002" style="enable-background:new 0 0 463.002 463.002;" xml:space="preserve">
<g>
	<g>
		<g>
			<path d="M183.501,167c4.142,0,7.5-3.358,7.5-7.5v-8c0-4.142-3.358-7.5-7.5-7.5c-4.142,0-7.5,3.358-7.5,7.5v8
				C176.001,163.642,179.359,167,183.501,167z"/>
			<path d="M279.501,167c4.142,0,7.5-3.358,7.5-7.5v-8c0-4.142-3.358-7.5-7.5-7.5c-4.142,0-7.5,3.358-7.5,7.5v8
				C272.001,163.642,275.359,167,279.501,167z"/>
			<path d="M203.415,215.902c6.942,4.511,17.179,7.098,28.086,7.098c10.907,0,21.145-2.587,28.086-7.098
				c3.473-2.257,4.459-6.902,2.203-10.375c-2.257-3.474-6.902-4.459-10.375-2.203c-4.505,2.928-11.95,4.676-19.914,4.676
				c-7.964,0-15.408-1.748-19.914-4.676c-3.474-2.257-8.118-1.271-10.375,2.203C198.955,209,199.941,213.645,203.415,215.902z"/>
			<path d="M390.521,295.267L303,266.094v-27.405l1.376-0.813C323.266,226.714,335,205.402,335,182.257v-36.9
				c0.417-0.205,0.83-0.425,1.231-0.673c4.238-2.619,6.769-7.157,6.769-12.14V97.47c21.202-38.689,8.326-89.672,7.759-91.856
				c-0.503-1.936-1.758-3.59-3.486-4.596c-1.729-1.007-3.788-1.28-5.718-0.762c-21.249,5.706-48.183,3.734-74.23,1.829
				C228.721-0.74,188.803-3.66,162.746,17.698c-5.827,4.776-9.845,10.37-12.614,15.759l-5.879,0.979
				c-22.818,3.804-38.289,25.462-34.486,48.281l8.829,52.971c0.752,4.514,3.523,8.294,7.601,10.371
				c0.589,0.3,1.193,0.545,1.804,0.759v35.438c0,23.145,11.734,44.457,30.624,55.619l1.376,0.813v27.405L72.48,295.267
				c-19.427,6.476-32.479,24.585-32.479,45.063v91.17c0,17.369,14.131,31.5,31.5,31.5h143.974c0.008,0,0.016,0.002,0.025,0.002
				c0.008,0,0.016-0.002,0.024-0.002h32.204c0.008,0,0.016,0.002,0.024,0.002s0.017-0.002,0.025-0.002h143.724
				c17.369,0,31.5-14.131,31.5-31.5v-91.17C423.001,319.852,409.949,301.743,390.521,295.267z M344,295.572V416h-4.594
				l-25.761-36.801c-1.403-2.005-3.697-3.199-6.144-3.199s-4.741,1.194-6.144,3.199L275.596,416h-7.431
				c5.772-19.092,12.255-41.897,16.899-62.154c0.817,0.133,1.638,0.224,2.461,0.224c2.822,0,5.634-0.781,8.139-2.329
				c4.603-2.845,7.351-7.774,7.351-13.186v-38.111c0-5.411-2.748-10.34-7.351-13.186c-0.396-0.244-0.801-0.462-1.211-0.668
				l4.109-6.164L344,295.572z M321.096,416h-27.19l13.595-19.422L321.096,416z M239.501,295.999h-16
				c-4.638,0-8.795,2.058-11.638,5.296l-23.227-11.613l-13.635-20.453v-21.677l24.955,14.746c9.633,5.693,20.539,8.702,31.551,8.702
				c11,0,21.905-3.009,31.539-8.701l24.955-14.747v21.677l-13.643,20.464L251.143,301.3
				C248.3,298.058,244.141,295.999,239.501,295.999z M240.001,311.5v16c0,0.275-0.224,0.5-0.5,0.5h-16c-0.276,0-0.5-0.225-0.5-0.5
				v-15.499c0.012-0.183,0.011-0.366,0.01-0.548c0.025-0.253,0.231-0.453,0.49-0.453h16C239.777,311,240.001,311.225,240.001,311.5z
				 M208.001,316.136v6.729l-32.276,16.138c-0.093,0.047-0.25,0.125-0.486-0.021c-0.237-0.147-0.237-0.321-0.237-0.426v-38.111
				c0-0.104,0-0.279,0.237-0.426c0.237-0.146,0.394-0.068,0.486-0.021L208.001,316.136z M255.001,316.141l32.291-16.144
				c0.093-0.046,0.25-0.125,0.486,0.021c0.237,0.147,0.237,0.321,0.237,0.426v38.111c0,0.104,0,0.279-0.237,0.426
				c-0.237,0.146-0.393,0.068-0.486,0.021l-32.291-16.146V316.141z M124.563,80.253c-2.328-13.972,6.589-27.266,20.121-30.6
				c-0.576,3.201-0.668,5.304-0.678,5.578c-0.142,3.952,2.81,7.335,6.744,7.73c3.938,0.394,7.5-2.33,8.149-6.23l1.287-7.729
				c1.484-5.662,4.785-13.731,12.069-19.701c21.426-17.563,56.666-14.984,93.976-12.255c24.378,1.783,49.498,3.622,71.474-0.542
				c2.59,14.729,6.382,49.324-8.687,75.225C328.351,92.874,328,94.175,328,95.5v35.865l-13.25-6.625
				c-2.313-1.156-3.75-3.481-3.75-6.067v-8.889c0-12.011-9.772-21.783-21.783-21.783H173.784c-12.011,0-21.783,9.772-21.783,21.783
				v8.889c0,2.586-1.437,4.911-3.75,6.067l-15.022,7.511L124.563,80.253z M143.001,182.257v-38.122l11.958-5.979
				c7.428-3.714,12.042-11.18,12.042-19.484v-8.889c0-3.74,3.043-6.783,6.783-6.783h115.434c3.74,0,6.783,3.043,6.783,6.783v8.889
				c0,8.304,4.614,15.77,12.042,19.484l11.958,5.979v38.122c0,17.865-8.911,34.229-23.255,42.705l-41.331,24.423
				c-7.324,4.328-15.591,6.615-23.92,6.615c-8.317,0-16.584-2.288-23.908-6.615l-41.331-24.423
				C151.912,216.486,143.001,200.122,143.001,182.257z M104.001,448h-32.5c-9.098,0-16.5-7.402-16.5-16.5v-91.17
				c0-14.011,8.931-26.401,22.223-30.832l26.777-8.926V448z M119.001,448.001V295.572l45.437-15.145l4.113,6.169
				c-0.406,0.205-0.807,0.421-1.199,0.663c-4.603,2.845-7.351,7.774-7.351,13.186v38.111c0,5.411,2.748,10.34,7.351,13.186
				c2.505,1.548,5.317,2.329,8.139,2.329c0.899,0,1.796-0.105,2.687-0.264c7.827,34.151,20.891,75.572,26.95,94.194H119.001z
				 M224.001,448h-3.09v0c-5.099-15.475-20.463-63.16-28.766-100.437l19.718-9.859c2.843,3.238,7,5.296,11.638,5.296h0.5V448z
				 M242.341,448h-3.34V343h0.5c4.64,0,8.799-2.06,11.642-5.301l19.94,9.97C262.777,384.919,247.435,432.538,242.341,448z
				 M344.001,448h-85.877c1.459-4.484,3.324-10.291,5.425-17h71.946c0.004,0,0.008,0.001,0.012,0.001
				c0.003,0,0.007-0.001,0.01-0.001h8.484V448z M408.001,431.5c0,9.098-7.402,16.5-16.5,16.5h-32.5V300.572l26.777,8.926
				c13.292,4.431,22.223,16.821,22.223,30.832V431.5z"/>
		</g>
	</g>
</g>
<g>
</g>
<g>
</g>
<g>
</g>
<g>
</g>
<g>
</g>
<g>
</g>
<g>
</g>
<g>
</g>
<g>
</g>
<g>
</g>
<g>
</g>
<g>
</g>
<g>
</g>
<g>
</g>
<g>
</g>
</svg>
