<?xml version="1.0" encoding="iso-8859-1"?>
<!-- Generator: Adobe Illustrator 19.0.0, SVG Export Plug-In . SVG Version: 6.00 Build 0)  -->
<svg version="1.1" id="Layer_1" xmlns="http://www.w3.org/2000/svg" xmlns:xlink="http://www.w3.org/1999/xlink" x="0px" y="0px"
	 viewBox="0 0 463 463" style="enable-background:new 0 0 463 463;" xml:space="preserve">
<g>
	<g>
		<g>
			<path d="M343.5,112h-61.453c-4.603,0-8.874-1.848-12.026-5.202c-3.151-3.355-4.729-7.733-4.442-12.327l3.41-54.565
				c0.644-10.307-3.042-20.535-10.113-28.062C251.806,4.316,241.827,0,231.5,0c-10.327,0-20.306,4.316-27.376,11.844
				c-7.071,7.526-10.757,17.755-10.113,28.062l3.41,54.565c0.287,4.594-1.291,8.972-4.442,12.327
				c-3.152,3.354-7.423,5.202-12.026,5.202H119.5c-17.369,0-31.5,14.131-31.5,31.5v288c0,17.369,14.131,31.5,31.5,31.5h224
				c17.369,0,31.5-14.131,31.5-31.5v-288C375,126.131,360.869,112,343.5,112z M271.5,448c-4.687,0-8.5-3.813-8.5-8.5v-15.961
				c0-0.013,0.002-0.026,0.002-0.039S263,423.474,263,423.461V367h9v58.719c0,2.67,1.42,5.139,3.728,6.482
				c2.675,1.557,4.272,4.285,4.272,7.299C280,444.187,276.187,448,271.5,448z M263,352v-95.677l10.403-46.812
				c11.979,41.471,14.129,100.583,14.514,119.743C278.668,332.416,272,341.194,272,351.5v0.5H263z M287,359.5v-8
				c0-4.687,3.813-8.5,8.5-8.5c4.142,0,7.5-3.357,7.5-7.5c0-1.086-0.035-26.969-3.033-59.072
				c-4.07-43.584-11.4-75.997-21.788-96.339c-1.438-2.816-4.49-4.438-7.627-4.028c-3.138,0.399-5.688,2.725-6.374,5.813l-16,72
				c-0.119,0.534-0.179,1.08-0.179,1.627V352h-0.5c-4.142,0-7.5,3.357-7.5,7.5s3.358,7.5,7.5,7.5h0.5v49H135V159h193v257h-41V359.5z
				 M360,431.5c0,9.099-7.402,16.5-16.5,16.5h-50.097c1.027-2.638,1.597-5.503,1.597-8.5c0-2.945-0.568-5.823-1.624-8.5H335.5
				c4.142,0,7.5-3.357,7.5-7.5v-272c0-4.143-3.358-7.5-7.5-7.5h-208c-4.142,0-7.5,3.357-7.5,7.5v272c0,4.143,3.358,7.5,7.5,7.5H248
				v8.5c0,2.997,0.57,5.862,1.597,8.5H119.5c-9.098,0-16.5-7.401-16.5-16.5v-288c0-9.099,7.402-16.5,16.5-16.5h61.453
				c8.661,0,17.028-3.62,22.958-9.933c5.93-6.312,9.021-14.889,8.48-23.532l-3.41-54.565c-0.393-6.282,1.765-12.269,6.075-16.855
				C219.366,17.526,225.206,15,231.5,15s12.134,2.526,16.444,7.114c4.31,4.587,6.467,10.573,6.075,16.855l-3.41,54.565
				c-0.541,8.644,2.55,17.221,8.48,23.532c5.93,6.313,14.297,9.933,22.958,9.933H343.5c9.098,0,16.5,7.401,16.5,16.5V431.5z"/>
			<path d="M231.5,32c-4.142,0-7.5,3.357-7.5,7.5v8c0,4.143,3.358,7.5,7.5,7.5c4.142,0,7.5-3.357,7.5-7.5v-8
				C239,35.357,235.642,32,231.5,32z"/>
		</g>
	</g>
</g>
<g>
</g>
<g>
</g>
<g>
</g>
<g>
</g>
<g>
</g>
<g>
</g>
<g>
</g>
<g>
</g>
<g>
</g>
<g>
</g>
<g>
</g>
<g>
</g>
<g>
</g>
<g>
</g>
<g>
</g>
</svg>
