<?xml version="1.0" encoding="iso-8859-1"?>
<!-- Generator: Adobe Illustrator 19.0.0, SVG Export Plug-In . SVG Version: 6.00 Build 0)  -->
<svg version="1.1" id="Layer_1" xmlns="http://www.w3.org/2000/svg" xmlns:xlink="http://www.w3.org/1999/xlink" x="0px" y="0px"
	 viewBox="0 0 447 447" style="enable-background:new 0 0 447 447;" xml:space="preserve">
<g>
	<g>
		<g>
			<path d="M400.994,359.362C430.829,320.55,447,273.271,447,223.5c0-59.699-23.248-115.825-65.461-158.038
				C339.325,23.248,283.199,0,223.5,0C163.801,0,107.675,23.248,65.461,65.462C59.53,71.393,53.988,77.608,48.817,84.06
				c-5.873-3.873-12.912-5.699-20.066-5.078c-9.298,0.81-17.744,5.712-23.17,13.449c-7.405,10.558-7.405,25.305,0,35.862
				c3.005,4.285,6.865,7.63,11.199,9.933C5.772,164.913,0,193.763,0,223.5c0,59.699,23.248,115.825,65.461,158.038
				C107.675,423.752,163.801,447,223.5,447c59.699,0,115.825-23.248,158.039-65.462c3.422-3.422,6.705-6.944,9.875-10.543
				l3.918,3.918c1.464,1.464,3.384,2.196,5.303,2.196s3.839-0.732,5.303-2.196c2.929-2.93,2.929-7.678,0-10.607L400.994,359.362z
				 M17.861,101.045c2.918-4.16,7.248-6.688,12.191-7.119c3.445-0.294,6.826,0.501,9.739,2.198
				c-6.316,9.069-11.919,18.551-16.782,28.376c-1.975-1.19-3.738-2.81-5.148-4.819C14.074,114.282,14.074,106.445,17.861,101.045z
				 M390.211,348.578l-12.91-12.91l6.01-6.01c2.929-2.93,2.929-7.678,0-10.607c-2.929-2.928-7.678-2.928-10.606,0l-6.011,6.011
				l-7.229-7.229c1.595-3.208,2.445-6.762,2.445-10.449c0-6.277-2.445-12.179-6.883-16.617c-7.307-7.305-18.26-8.766-27.047-4.42
				l-7.247-7.247l11.667-11.667c2.929-2.93,2.929-7.678,0-10.607c-2.929-2.928-7.678-2.928-10.606,0l-11.667,11.667l-6.364-6.364
				l6.01-6.01c6.043-6.044,6.043-15.877,0-21.921l-16.971-16.971c-6.043-6.042-15.876-6.042-21.92,0l-6.01,6.01l-6.364-6.364
				l6.01-6.01c2.929-2.93,2.929-7.678,0-10.607c-2.929-2.928-7.678-2.928-10.606,0l-6.01,6.01l-6.998-6.998
				c2.968-4.875,4.557-10.482,4.557-16.336c0-8.413-3.276-16.324-9.226-22.272c-5.949-5.95-13.86-9.228-22.273-9.228
				c-5.854,0-11.461,1.59-16.336,4.558l-9.023-9.024c-6.733-6.732-16.497-8.837-24.874-5.359
				c-7.213,2.991-15.425,0.558-19.971-5.925c-3.787-5.399-3.787-13.237,0-18.636c2.918-4.16,7.248-6.688,12.191-7.119
				c4.875-0.428,9.655,1.313,13.112,4.77c2.93,2.928,7.678,2.929,10.607-0.001c2.929-2.929,2.928-7.678,0-10.606
				c-6.599-6.598-15.719-9.927-25.02-9.105c-9.298,0.81-17.743,5.712-23.17,13.449c-7.404,10.557-7.405,25.304,0,35.862
				c8.617,12.284,24.243,16.875,38.001,11.165c2.707-1.12,6.131-0.274,8.518,2.112l9.023,9.023
				c-2.968,4.875-4.558,10.483-4.558,16.336c0,8.415,3.276,16.325,9.226,22.273c5.949,5.95,13.86,9.227,22.274,9.227
				c5.853,0,11.46-1.589,16.335-4.557l6.998,6.999l-6.01,6.01c-2.929,2.93-2.929,7.678,0,10.607
				c1.464,1.464,3.384,2.196,5.303,2.196s3.839-0.732,5.303-2.196l6.01-6.01l6.364,6.364l-6.011,6.011
				c-6.041,6.044-6.041,15.876,0.001,21.921l16.97,16.969c2.928,2.929,6.82,4.541,10.961,4.541s8.033-1.612,10.96-4.54l6.01-6.01
				l6.364,6.364l-11.667,11.667c-2.929,2.93-2.929,7.678,0,10.607c1.464,1.464,3.384,2.196,5.303,2.196s3.839-0.732,5.303-2.196
				l11.667-11.667l7.229,7.229c-1.595,3.207-2.445,6.761-2.445,10.448c0,6.277,2.445,12.179,6.883,16.616
				c4.439,4.439,10.34,6.884,16.617,6.884c3.687,0,7.241-0.849,10.448-2.444l7.229,7.229l-6.01,6.01
				c-2.929,2.93-2.929,7.678,0,10.607c1.464,1.464,3.384,2.196,5.303,2.196s3.839-0.732,5.303-2.196l6.01-6.011l14.023,14.023
				C342.464,404.204,286.169,432,223.5,432C108.533,432,15,338.468,15,223.5c0-28.947,5.935-56.531,16.643-81.609
				c3.995-0.024,8.042-0.813,11.939-2.432c2.708-1.119,6.13-0.273,8.518,2.114l9.022,9.022c-2.968,4.875-4.557,10.483-4.557,16.336
				c0,8.414,3.276,16.324,9.226,22.274c6.141,6.141,14.208,9.211,22.274,9.21c5.666,0,11.329-1.521,16.327-4.551l7.007,7.007
				l-6.01,6.01c-2.929,2.93-2.929,7.678,0,10.607c1.464,1.464,3.384,2.196,5.303,2.196s3.839-0.732,5.303-2.196l6.011-6.011
				l6.364,6.364l-6.01,6.01c-6.043,6.044-6.043,15.877,0,21.921l16.971,16.971c3.021,3.021,6.991,4.532,10.96,4.532
				s7.938-1.511,10.96-4.532l6.011-6.011l6.364,6.363l-11.667,11.667c-2.929,2.93-2.929,7.678,0,10.607
				c1.464,1.464,3.384,2.196,5.303,2.196s3.839-0.732,5.303-2.196l11.667-11.667l7.229,7.229c-1.595,3.207-2.445,6.761-2.445,10.448
				c0,6.277,2.444,12.179,6.883,16.618c4.582,4.581,10.599,6.871,16.617,6.871c3.58,0,7.153-0.831,10.43-2.452l7.247,7.247
				l-6.01,6.01c-2.929,2.93-2.929,7.678,0,10.607c1.464,1.464,3.384,2.196,5.303,2.196c1.919,0,3.839-0.732,5.303-2.196l6.01-6.011
				l28.638,28.638c1.464,1.464,3.384,2.196,5.303,2.196s3.839-0.732,5.303-2.196c2.929-2.93,2.929-7.678,0-10.607l-28.637-28.637
				l6.01-6.01c2.929-2.93,2.929-7.678,0-10.607c-2.929-2.928-7.678-2.928-10.606,0l-6.011,6.011l-7.229-7.229
				c1.595-3.208,2.445-6.762,2.445-10.449c0-6.277-2.445-12.179-6.883-16.617c-7.307-7.306-18.26-8.766-27.047-4.42l-7.247-7.247
				l11.667-11.667c2.929-2.93,2.929-7.678,0-10.607c-2.929-2.928-7.678-2.928-10.606,0l-11.667,11.667l-6.364-6.364l6.01-6.01
				c6.043-6.044,6.043-15.877,0-21.921l-16.971-16.971c-2.927-2.927-6.82-4.539-10.96-4.539c-4.14,0-8.033,1.612-10.96,4.539
				l-6.01,6.011l-6.364-6.364l6.01-6.01c2.929-2.93,2.929-7.678,0-10.607c-2.929-2.928-7.678-2.928-10.606,0l-6.011,6.011
				l-6.998-6.999c2.968-4.875,4.557-10.482,4.557-16.335c0-8.414-3.276-16.325-9.226-22.273c-5.949-5.95-13.86-9.228-22.274-9.228
				c-5.853,0-11.46,1.59-16.336,4.558l-9.022-9.022c-6.205-6.207-14.982-8.466-22.877-6.065C75.064,59.53,144.177,15,223.5,15
				C338.467,15,432,108.532,432,223.5C432,270.39,416.437,313.711,390.211,348.578z M346.91,307.384c0,2.271-0.884,4.404-2.49,6.011
				c-1.605,1.605-3.74,2.489-6.01,2.489c-2.27,0-4.404-0.884-6.01-2.49c-1.605-1.605-2.49-3.739-2.49-6.01s0.884-4.405,2.489-6.01
				c1.657-1.657,3.834-2.485,6.011-2.485c2.176,0,4.353,0.828,6.01,2.485C346.025,302.979,346.91,305.113,346.91,307.384z
				 M299.312,245.16c0,0.207-0.11,0.317-0.146,0.354l-11.297,11.296c-0.006,0.006-0.012,0.01-0.018,0.016
				c-0.006,0.006-0.01,0.012-0.016,0.018l-11.298,11.298c-0.036,0.036-0.146,0.146-0.353,0.146c-0.207,0-0.316-0.11-0.354-0.147
				l-16.97-16.969c-0.194-0.197-0.194-0.516,0-0.71l11.273-11.272c0.014-0.014,0.029-0.025,0.043-0.039
				c0.014-0.014,0.025-0.029,0.039-0.043l11.272-11.272c0.036-0.036,0.146-0.146,0.354-0.146s0.317,0.11,0.354,0.146l16.971,16.971
				C299.202,244.843,299.312,244.953,299.312,245.16z M230.459,182.933c0,4.408-1.716,8.551-4.833,11.668
				c-3.117,3.116-7.26,4.832-11.667,4.832c-4.407,0-8.551-1.716-11.667-4.833c-3.116-3.116-4.833-7.259-4.833-11.667
				c0-4.408,1.717-8.55,4.833-11.667c3.117-3.116,7.26-4.833,11.667-4.833c4.407,0,8.55,1.717,11.667,4.833v0.001
				C228.742,174.383,230.459,178.526,230.459,182.933z M104.565,166.932c0,4.407-1.716,8.551-4.833,11.667
				c-6.433,6.433-16.901,6.434-23.335,0.001c-3.116-3.117-4.833-7.261-4.833-11.668s1.716-8.551,4.833-11.667
				c3.117-3.117,7.26-4.834,11.667-4.834c4.407,0,8.551,1.717,11.667,4.833v0.001C102.849,158.381,104.565,162.524,104.565,166.932z
				 M132.818,234.814c0-0.208,0.11-0.317,0.146-0.354l11.282-11.283c0.011-0.011,0.022-0.019,0.033-0.03s0.019-0.022,0.03-0.033
				l11.282-11.282c0.036-0.036,0.146-0.146,0.354-0.146s0.317,0.11,0.354,0.146l16.971,16.971c0.196,0.195,0.196,0.512,0.001,0.707
				l-11.292,11.292c-0.007,0.007-0.015,0.013-0.023,0.021s-0.013,0.016-0.021,0.023l-11.292,11.292
				c-0.036,0.036-0.146,0.146-0.354,0.146s-0.317-0.11-0.354-0.146l-16.971-16.971C132.928,235.131,132.818,235.021,132.818,234.814
				z M204.015,291.382c0-2.271,0.884-4.404,2.49-6.01c1.657-1.657,3.834-2.485,6.01-2.485c2.177,0,4.354,0.828,6.011,2.485
				c1.605,1.605,2.49,3.739,2.49,6.01s-0.884,4.405-2.49,6.011c-3.313,3.313-8.706,3.314-12.021,0.001
				C204.899,295.788,204.015,293.653,204.015,291.382z"/>
			<path d="M343.5,152c-9.644,0-18.487,3.479-25.353,9.241C315.399,151.313,306.291,144,295.5,144c-12.958,0-23.5,10.542-23.5,23.5
				s10.542,23.5,23.5,23.5c3.019,0,5.904-0.579,8.559-1.621c-0.038,0.703-0.059,1.409-0.059,2.121c0,21.78,17.72,39.5,39.5,39.5
				c21.78,0,39.5-17.72,39.5-39.5C383,169.72,365.28,152,343.5,152z M295.5,176c-4.687,0-8.5-3.813-8.5-8.5s3.813-8.5,8.5-8.5
				s8.5,3.813,8.5,8.5S300.187,176,295.5,176z M343.5,216c-13.509,0-24.5-10.99-24.5-24.5s10.991-24.5,24.5-24.5
				c13.509,0,24.5,10.99,24.5,24.5S357.009,216,343.5,216z"/>
			<path d="M119,271.5c0-12.958-10.542-23.5-23.5-23.5S72,258.542,72,271.5S82.542,295,95.5,295S119,284.458,119,271.5z M95.5,280
				c-4.687,0-8.5-3.813-8.5-8.5s3.813-8.5,8.5-8.5s8.5,3.813,8.5,8.5S100.187,280,95.5,280z"/>
			<path d="M287.724,96.83c-3.524,3.74-5.84,8.362-6.686,13.438c-0.681,4.086,2.08,7.949,6.165,8.631
				c0.417,0.069,0.832,0.103,1.242,0.103c3.6,0,6.778-2.6,7.389-6.269c0.372-2.231,1.418-4.261,3.027-5.869
				c4.228-4.229,11.107-4.229,15.334,0c2.93,2.928,7.677,2.929,10.607-0.001c2.929-2.929,2.928-7.678,0-10.606
				c-6.121-6.121-14.572-8.515-22.523-7.2c-8.716-8.58-21.222-11.046-32.122-7.404c-0.124-0.144-0.248-0.288-0.384-0.425
				c-12.282-12.281-32.267-12.282-44.548,0.001c-12.281,12.281-12.281,32.266,0,44.547c1.465,1.462,3.385,2.195,5.304,2.195
				s3.839-0.732,5.303-2.196c2.929-2.929,2.929-7.678,0-10.606c-6.433-6.434-6.433-16.902,0-23.335
				c5.782-5.782,14.813-6.35,21.256-1.739c-11.443,12.337-11.173,31.682,0.824,43.679c1.464,1.465,3.384,2.197,5.303,2.197
				s3.839-0.732,5.303-2.196c2.929-2.929,2.929-7.678,0-10.606c-6.433-6.434-6.433-16.902,0-23.335
				C273.707,94.646,281.519,93.647,287.724,96.83z"/>
			<path d="M322.197,140.804c1.464,1.464,3.384,2.196,5.303,2.196s3.839-0.732,5.303-2.196l8-8c2.929-2.93,2.929-7.678,0-10.607
				c-2.929-2.928-7.678-2.928-10.606,0l-8,8C319.268,133.126,319.268,137.874,322.197,140.804z"/>
			<path d="M84.803,228.804c2.929-2.93,2.929-7.678,0-10.607c-2.929-2.928-7.678-2.928-10.606,0l-8,8
				c-2.929,2.93-2.929,7.678,0,10.607C67.661,238.268,69.581,239,71.5,239s3.839-0.732,5.303-2.196L84.803,228.804z"/>
			<path d="M356.803,250.196c-2.929-2.928-7.678-2.928-10.606,0c-2.929,2.93-2.929,7.678,0,10.607l8,8
				c1.464,1.464,3.384,2.196,5.303,2.196s3.839-0.732,5.303-2.196c2.929-2.93,2.929-7.678,0-10.607L356.803,250.196z"/>
			<path d="M220.803,354.196c-2.929-2.928-7.678-2.928-10.606,0c-2.929,2.93-2.929,7.678,0,10.607l8,8
				c1.464,1.464,3.384,2.196,5.303,2.196s3.839-0.732,5.303-2.196c2.929-2.93,2.929-7.678,0-10.607L220.803,354.196z"/>
			<path d="M396.803,234.197c-2.929-2.928-7.678-2.928-10.606,0l-8,8c-2.929,2.929-2.929,7.677,0,10.607
				c1.464,1.464,3.384,2.196,5.303,2.196s3.839-0.732,5.303-2.196l8-8C399.732,241.874,399.732,237.126,396.803,234.197z"/>
			<path d="M194.854,86.207c3.705-1.853,5.207-6.357,3.354-10.063l-8-16c-1.852-3.705-6.357-5.205-10.062-3.354
				c-3.705,1.853-5.207,6.357-3.354,10.063l8,16.001c1.314,2.628,3.962,4.147,6.714,4.147
				C192.633,87.001,193.777,86.745,194.854,86.207z"/>
			<path d="M254.03,376.149c-0.47,0.09-0.95,0.24-1.4,0.42c-0.45,0.19-0.89,0.42-1.29,0.69c-0.41,0.28-0.8,0.59-1.14,0.939
				c-0.35,0.341-0.66,0.721-0.94,1.141c-0.27,0.399-0.5,0.84-0.69,1.29c-0.18,0.45-0.33,0.93-0.42,1.41
				c-0.1,0.479-0.15,0.97-0.15,1.46c0,0.489,0.05,0.979,0.15,1.47c0.09,0.479,0.24,0.95,0.42,1.4c0.19,0.449,0.42,0.89,0.69,1.29
				c0.28,0.409,0.59,0.8,0.94,1.14c0.34,0.35,0.73,0.66,1.14,0.939c0.4,0.271,0.84,0.5,1.29,0.681c0.45,0.189,0.93,0.34,1.4,0.43
				c0.49,0.1,0.98,0.15,1.47,0.15c1.98,0,3.91-0.801,5.3-2.2c0.35-0.34,0.66-0.73,0.94-1.14c0.27-0.4,0.5-0.841,0.69-1.29
				c0.18-0.45,0.33-0.931,0.42-1.4c0.1-0.49,0.15-0.98,0.15-1.47c0-1.971-0.8-3.91-2.2-5.301
				C259.06,376.449,256.47,375.649,254.03,376.149z"/>
			<path d="M184.587,314.813c1.493-2.639,1.295-6.032-0.762-8.498c-7.407-8.877-17.828-14.338-29.343-15.377
				c-11.515-1.041-22.745,2.468-31.622,9.875c-18.325,15.292-20.792,42.641-5.501,60.965c1.274,1.527,3.103,2.486,5.084,2.665
				c0.226,0.021,0.45,0.03,0.675,0.03c1.749,0,3.451-0.612,4.805-1.741l9.533-7.955c1.689,10.306,6.967,19.551,15.088,26.274
				c7.836,6.488,17.481,9.949,27.527,9.949c1.371,0,2.75-0.064,4.132-0.194c4.124-0.388,7.152-4.045,6.765-8.169L184.587,314.813z
				 M139.175,333.806l-14.33,11.958c-5.137-11.3-2.355-25.104,7.625-33.433c5.801-4.841,13.137-7.13,20.663-6.453
				c3.221,0.291,6.308,1.115,9.169,2.413C151.388,313.243,143.014,322.552,139.175,333.806z M162.11,369.499
				c-5.819-4.818-9.413-11.614-10.121-19.136c-1.217-12.942,6.532-24.7,18.138-29.102l5.109,54.318
				C170.455,374.745,165.95,372.679,162.11,369.499z"/>
			<circle cx="55.5" cy="255.5" r="8"/>
			<circle cx="224.5" cy="252.5" r="8"/>
			<circle cx="199.5" cy="127.5" r="8"/>
			<circle cx="255.5" cy="151.5" r="8"/>
			<circle cx="367.5" cy="127.5" r="8"/>
			<circle cx="383.5" cy="279.5" r="8"/>
		</g>
	</g>
</g>
<g>
</g>
<g>
</g>
<g>
</g>
<g>
</g>
<g>
</g>
<g>
</g>
<g>
</g>
<g>
</g>
<g>
</g>
<g>
</g>
<g>
</g>
<g>
</g>
<g>
</g>
<g>
</g>
<g>
</g>
</svg>
