<?xml version="1.0" encoding="iso-8859-1"?>
<!-- Generator: Adobe Illustrator 19.0.0, SVG Export Plug-In . SVG Version: 6.00 Build 0)  -->
<svg version="1.1" id="Layer_1" xmlns="http://www.w3.org/2000/svg" xmlns:xlink="http://www.w3.org/1999/xlink" x="0px" y="0px"
	 viewBox="0 0 463 463" style="enable-background:new 0 0 463 463;" xml:space="preserve">
<g>
	<g>
		<g>
			<path d="M423.5,48h-384C17.72,48,0,65.72,0,87.5v288C0,397.28,17.72,415,39.5,415h384c21.78,0,39.5-17.72,39.5-39.5v-288
				C463,65.72,445.28,48,423.5,48z M448,375.5c0,13.51-10.991,24.5-24.5,24.5h-384C25.991,400,15,389.01,15,375.5V127h433V375.5z
				 M448,112H15V87.5C15,73.99,25.991,63,39.5,63h384c13.509,0,24.5,10.99,24.5,24.5V112z"/>
			<path d="M55.5,80h-8c-4.142,0-7.5,3.357-7.5,7.5s3.358,7.5,7.5,7.5h8c4.142,0,7.5-3.357,7.5-7.5S59.642,80,55.5,80z"/>
			<path d="M87.5,80h-8c-4.142,0-7.5,3.357-7.5,7.5s3.358,7.5,7.5,7.5h8c4.142,0,7.5-3.357,7.5-7.5S91.642,80,87.5,80z"/>
			<path d="M119.5,80h-8c-4.142,0-7.5,3.357-7.5,7.5s3.358,7.5,7.5,7.5h8c4.142,0,7.5-3.357,7.5-7.5S123.642,80,119.5,80z"/>
			<path d="M303.5,255h0.5v104.5c0,4.143,3.358,7.5,7.5,7.5c4.142,0,7.5-3.357,7.5-7.5V255h0.5c12.958,0,23.5-10.542,23.5-23.5v-56
				c0-4.143-3.358-7.5-7.5-7.5c-4.142,0-7.5,3.357-7.5,7.5V216h-9v-40.5c0-4.143-3.358-7.5-7.5-7.5c-4.142,0-7.5,3.357-7.5,7.5V216
				h-9v-40.5c0-4.143-3.358-7.5-7.5-7.5c-4.142,0-7.5,3.357-7.5,7.5v56C280,244.458,290.542,255,303.5,255z M295,231h33v0.5
				c0,4.687-3.813,8.5-8.5,8.5h-16c-4.687,0-8.5-3.813-8.5-8.5V231z"/>
			<path d="M367.5,367c4.142,0,7.5-3.357,7.5-7.5V311h15.438c4.444,0,8.679-1.911,11.62-5.242c2.941-3.331,4.312-7.771,3.76-12.181
				l-13.947-111.58C390.873,174.018,384.056,168,375.98,168c-8.812,0-15.98,7.169-15.98,15.98V359.5
				C360,363.643,363.358,367,367.5,367z M375,183.98c0-0.541,0.439-0.98,1.014-0.98c0.493,0,0.911,0.369,0.973,0.858l13.947,111.579
				c0.007,0.062,0.028,0.224-0.121,0.394c-0.15,0.169-0.314,0.169-0.375,0.169H375V183.98z"/>
			<path d="M67.5,207h136c15.164,0,27.5-12.337,27.5-27.5c0-15.163-12.336-27.5-27.5-27.5h-136C52.336,152,40,164.337,40,179.5
				C40,194.663,52.336,207,67.5,207z M67.5,167h136c6.893,0,12.5,5.607,12.5,12.5s-5.607,12.5-12.5,12.5h-136
				c-6.893,0-12.5-5.607-12.5-12.5S60.607,167,67.5,167z"/>
			<path d="M207.5,224h-144c-4.142,0-7.5,3.357-7.5,7.5s3.358,7.5,7.5,7.5h144c4.142,0,7.5-3.357,7.5-7.5S211.642,224,207.5,224z"/>
			<path d="M159.5,288h-96c-4.142,0-7.5,3.357-7.5,7.5s3.358,7.5,7.5,7.5h96c4.142,0,7.5-3.357,7.5-7.5S163.642,288,159.5,288z"/>
			<path d="M159.5,352h-96c-4.142,0-7.5,3.357-7.5,7.5s3.358,7.5,7.5,7.5h96c4.142,0,7.5-3.357,7.5-7.5S163.642,352,159.5,352z"/>
			<path d="M159.5,320h-96c-4.142,0-7.5,3.357-7.5,7.5s3.358,7.5,7.5,7.5h96c4.142,0,7.5-3.357,7.5-7.5S163.642,320,159.5,320z"/>
			<path d="M207.5,288h-16c-4.142,0-7.5,3.357-7.5,7.5s3.358,7.5,7.5,7.5h16c4.142,0,7.5-3.357,7.5-7.5S211.642,288,207.5,288z"/>
			<path d="M207.5,352h-16c-4.142,0-7.5,3.357-7.5,7.5s3.358,7.5,7.5,7.5h16c4.142,0,7.5-3.357,7.5-7.5S211.642,352,207.5,352z"/>
			<path d="M207.5,320h-16c-4.142,0-7.5,3.357-7.5,7.5s3.358,7.5,7.5,7.5h16c4.142,0,7.5-3.357,7.5-7.5S211.642,320,207.5,320z"/>
		</g>
	</g>
</g>
<g>
</g>
<g>
</g>
<g>
</g>
<g>
</g>
<g>
</g>
<g>
</g>
<g>
</g>
<g>
</g>
<g>
</g>
<g>
</g>
<g>
</g>
<g>
</g>
<g>
</g>
<g>
</g>
<g>
</g>
</svg>
