<?xml version="1.0" encoding="iso-8859-1"?>
<!-- Generator: Adobe Illustrator 19.0.0, SVG Export Plug-In . SVG Version: 6.00 Build 0)  -->
<svg version="1.1" id="Layer_1" xmlns="http://www.w3.org/2000/svg" xmlns:xlink="http://www.w3.org/1999/xlink" x="0px" y="0px"
	 viewBox="0 0 463 463" style="enable-background:new 0 0 463 463;" xml:space="preserve">
<g>
	<g>
		<path d="M367.5,400H359v-82.234c9.29-3.138,16-11.93,16-22.266v-64c0-8.547-6.953-15.5-15.5-15.5H327v-17.909
			c13.759-3.374,24-15.806,24-30.591c0-4.422-1.349-12.627-13.013-32.734c-6.078-10.479-12.064-19.164-12.316-19.529
			c-1.4-2.027-3.707-3.237-6.171-3.237s-4.771,1.21-6.171,3.237c-0.252,0.365-6.238,9.05-12.316,19.529
			C289.349,154.873,288,163.078,288,167.5c0,14.785,10.241,27.216,24,30.591V216h-32.5c-8.547,0-15.5,6.953-15.5,15.5v40
			c0,10.336,6.71,19.128,16,22.266V400h-33V205.766c9.29-3.138,16-11.93,16-22.266v-40c0-8.547-6.953-15.5-15.5-15.5H183v-17.723
			c18.205-3.515,32-19.561,32-38.777c0-19.047-27.764-60.205-33.329-68.263C180.271,1.21,177.964,0,175.5,0s-4.771,1.21-6.171,3.237
			C163.764,11.295,136,52.453,136,71.5c0,19.216,13.795,35.262,32,38.777V128h-64.5c-8.547,0-15.5,6.953-15.5,15.5v40
			c0,10.336,6.71,19.128,16,22.266V400h-8.5c-8.547,0-15.5,6.953-15.5,15.5v32c0,8.547,6.953,15.5,15.5,15.5h272
			c8.547,0,15.5-6.953,15.5-15.5v-32C383,406.953,376.047,400,367.5,400z M303,167.5c0-5.464,7.752-20.466,16.501-34.368
			C328.25,147.028,336,162.028,336,167.5c0,9.098-7.402,16.5-16.5,16.5C310.402,184,303,176.598,303,167.5z M279,271.5v-40
			c0-0.276,0.224-0.5,0.5-0.5h80c0.276,0,0.5,0.224,0.5,0.5v64c0,4.687-3.813,8.5-8.5,8.5s-8.5-3.813-8.5-8.5v-24
			c0-12.958-10.542-23.5-23.5-23.5S296,258.542,296,271.5c0,4.687-3.813,8.5-8.5,8.5S279,276.187,279,271.5z M344,317.766V400h-49
			V293.766c9.29-3.138,16-11.93,16-22.266c0-4.687,3.813-8.5,8.5-8.5s8.5,3.813,8.5,8.5v24C328,305.836,334.71,314.628,344,317.766z
			 M151,71.5c0-2.709,1.456-11.523,14.941-34.784c3.388-5.845,6.802-11.322,9.579-15.646C187.179,39.213,200,62.558,200,71.5
			c0,13.509-10.991,24.5-24.5,24.5C161.991,96,151,85.009,151,71.5z M103,183.5v-40c0-0.276,0.224-0.5,0.5-0.5h144
			c0.276,0,0.5,0.224,0.5,0.5v40c0,4.674-3.792,8.477-8.461,8.498c-0.013,0-0.025-0.002-0.039-0.002
			c-0.014,0-0.026,0.002-0.039,0.002c-4.669-0.021-8.461-3.824-8.461-8.498c0-12.958-10.542-23.5-23.5-23.5S184,170.542,184,183.5
			v24c0,4.687-3.813,8.5-8.5,8.5s-8.5-3.813-8.5-8.5v-24c0-12.958-10.542-23.5-23.5-23.5S120,170.542,120,183.5
			c0,4.687-3.813,8.5-8.5,8.5S103,188.187,103,183.5z M175.5,231c12.958,0,23.5-10.542,23.5-23.5v-24c0-4.687,3.813-8.5,8.5-8.5
			s8.5,3.813,8.5,8.5c0,10.336,6.71,19.128,16,22.266V400H119V205.766c9.29-3.138,16-11.93,16-22.266c0-4.687,3.813-8.5,8.5-8.5
			s8.5,3.813,8.5,8.5v24C152,220.458,162.542,231,175.5,231z M368,447.5c0,0.276-0.224,0.5-0.5,0.5h-272c-0.276,0-0.5-0.224-0.5-0.5
			v-32c0-0.276,0.224-0.5,0.5-0.5h16h256c0.276,0,0.5,0.224,0.5,0.5V447.5z"/>
	</g>
</g>
<g>
</g>
<g>
</g>
<g>
</g>
<g>
</g>
<g>
</g>
<g>
</g>
<g>
</g>
<g>
</g>
<g>
</g>
<g>
</g>
<g>
</g>
<g>
</g>
<g>
</g>
<g>
</g>
<g>
</g>
</svg>
