<?xml version="1.0" encoding="iso-8859-1"?>
<!-- Generator: Adobe Illustrator 19.0.0, SVG Export Plug-In . SVG Version: 6.00 Build 0)  -->
<svg version="1.1" id="Layer_1" xmlns="http://www.w3.org/2000/svg" xmlns:xlink="http://www.w3.org/1999/xlink" x="0px" y="0px"
	 viewBox="0 0 463.001 463.001" style="enable-background:new 0 0 463.001 463.001;" xml:space="preserve">
<g>
	<g>
		<g>
			<path d="M462.955,422.665c-0.417-3.803-3.63-6.682-7.455-6.682h-57.483c0.638-1.71,0.983-3.546,0.983-5.444v-22.111
				c0-5.411-2.748-10.34-7.351-13.185c-4.604-2.845-10.241-3.098-15.081-0.678l-12.214,6.107
				c-3.92-7.53-11.794-12.688-20.854-12.688h-0.552l16.055-160.55c0.025-0.256,0.239-0.45,0.497-0.45c4.142,0,7.5-3.358,7.5-7.5
				c0-4.142-3.358-7.5-7.5-7.5h-19.621c-29.186-48.887-103.764-63.271-107.008-63.874c-2.191-0.409-4.451,0.181-6.165,1.606
				S224,133.255,224,135.484c0,10.186-13.893,14.726-36.772,20.992c-22.549,6.175-50.292,13.782-64.062,35.508H104.26
				c-4.142,0-7.5,3.358-7.5,7.5c0,4.142,3.358,7.5,7.5,7.5c0.258,0,0.472,0.194,0.498,0.45l3.436,34.364
				c-3.924-1.195-8.042-1.814-12.275-1.814c-12.294,0-23.902,5.38-31.848,14.76c-7.947,9.38-11.345,21.715-9.324,33.842
				l4.746,28.478c3.276,19.655,20.116,33.92,40.041,33.92c6.739,0,13.284-1.683,19.1-4.785l5.081,50.808
				c0.669,6.687,2.504,13.083,5.406,18.977H7.5c-3.825,0-7.038,2.879-7.455,6.682c-0.417,3.803,2.094,7.31,5.828,8.14l144,32
				c0.534,0.119,1.08,0.179,1.627,0.179h160c0.547,0,1.093-0.06,1.627-0.179l144-32
				C460.862,429.975,463.373,426.468,462.955,422.665z M99.535,335.983c-12.563,0-23.18-8.994-25.245-21.386l-4.746-28.478
				c-1.295-7.769,0.882-15.671,5.973-21.68c5.09-6.01,12.527-9.456,20.479-9.456c4.975,0,9.729,1.355,13.91,3.914l7.026,70.262
				C112.221,333.523,106.017,335.983,99.535,335.983z M367,396.118l16.277-8.137c0.094-0.046,0.249-0.125,0.487,0.022
				c0.236,0.146,0.236,0.32,0.236,0.425v22.111c0,0.104,0,0.279-0.237,0.425c-0.238,0.147-0.393,0.068-0.487,0.022L367,402.848
				V396.118z M343.5,382.983c4.687,0,8.5,3.813,8.5,8.5v15.412c-0.023,0.3-0.029,0.599-0.016,0.897
				c-0.164,4.543-3.902,8.191-8.484,8.191h-64c-4.687,0-8.5-3.813-8.5-8.5v-15.406c0.023-0.304,0.029-0.607,0.016-0.908
				c0.167-4.541,3.903-8.186,8.484-8.186h55.162c0.011,0,0.023,0,0.034,0H343.5z M247.824,147.436
				c20.711,6.323,54.604,19.86,73.88,44.547h-85.461c6.069-6.585,11.827-15.256,13.488-25.505
				C250.778,160.018,250.126,153.655,247.824,147.436z M191.19,170.942c16.593-4.544,33.576-9.202,42.134-19.414
				c1.749,4.167,2.278,8.311,1.607,12.504c-2.215,13.843-16.732,24.659-21.629,27.952h-70.65
				C154.829,180.902,173.908,175.675,191.19,170.942z M119.788,206.984h224.186l-16.1,161H279.5c-9.06,0-16.934,5.157-20.854,12.687
				l-12.214-6.106c-4.84-2.42-10.478-2.167-15.081,0.678c-4.604,2.845-7.352,7.774-7.352,13.185v22.111
				c0,1.898,0.345,3.734,0.983,5.444h-78.298c-4.526-5.938-7.291-12.953-8.043-20.469L119.788,206.984z M256,396.119v6.729
				l-16.277,8.138c-0.093,0.046-0.249,0.125-0.486-0.022c-0.237-0.146-0.237-0.32-0.237-0.425v-22.111c0-0.104,0-0.279,0.237-0.425
				c0.237-0.147,0.392-0.068,0.486-0.021L256,396.119z M310.677,447.983H152.324l-76.5-17h311.354L310.677,447.983z"/>
			<path d="M208,87.55c0,12.625,5.348,19.305,9.646,24.672l3.907-3.12l7.802-6.255C225.666,98.24,223,94.911,223,87.55
				c0-7.37,2.667-10.704,6.357-15.317C233.653,66.862,239,60.178,239,47.546c0-12.637-5.346-19.325-9.642-24.699
				C225.667,18.23,223,14.894,223,7.515c0-4.142-3.358-7.5-7.5-7.5c-4.142,0-7.5,3.358-7.5,7.5c0,12.637,5.346,19.325,9.642,24.699
				c3.691,4.618,6.358,7.954,6.358,15.333c0,7.37-2.667,10.704-6.357,15.317C213.348,68.234,208,74.919,208,87.55z"/>
			<polygon points="217.652,112.23 223.506,107.543 221.553,109.103 			"/>
			<path d="M248.485,95.042c2.381,0,4.504-1.111,5.879-2.842C259.776,85.434,271,71.377,271,47.546
				c0-9.68-1.861-18.805-5.532-27.123c-1.672-3.789-6.099-5.505-9.89-3.833c-3.79,1.672-5.505,6.1-3.833,9.89
				C254.569,32.877,256,39.965,256,47.546c0,18.514-8.295,28.964-13.303,35.226c-1.07,1.296-1.713,2.958-1.713,4.771
				C240.985,91.684,244.343,95.042,248.485,95.042z"/>
			<path d="M183.5,95.05c4.142,0,7.5-3.358,7.5-7.5c0-18.59,8.368-29.051,13.369-35.304c0.135-0.169,0.263-0.344,0.383-0.524
				c1.68-2.519,1.672-5.852-0.008-8.371c-2.298-3.446-6.955-4.378-10.4-2.08c-0.888,0.592-1.608,1.34-2.15,2.184
				C186.637,50.42,176,64.357,176,87.55C176,91.692,179.358,95.05,183.5,95.05z"/>
		</g>
	</g>
</g>
<g>
</g>
<g>
</g>
<g>
</g>
<g>
</g>
<g>
</g>
<g>
</g>
<g>
</g>
<g>
</g>
<g>
</g>
<g>
</g>
<g>
</g>
<g>
</g>
<g>
</g>
<g>
</g>
<g>
</g>
</svg>
