<?xml version="1.0" encoding="iso-8859-1"?>
<!-- Generator: Adobe Illustrator 19.0.0, SVG Export Plug-In . SVG Version: 6.00 Build 0)  -->
<svg version="1.1" id="Layer_1" xmlns="http://www.w3.org/2000/svg" xmlns:xlink="http://www.w3.org/1999/xlink" x="0px" y="0px"
	 viewBox="0 0 463 463" style="enable-background:new 0 0 463 463;" xml:space="preserve">
<g>
	<g>
		<path d="M327.323,250.4l5.951-31.241l72.154-115.445c2.985-4.776,3.143-10.804,0.412-15.729C403.11,83.06,397.915,80,392.283,80
			h-39.919l-88.242-40.727c3.785-4.173,6.095-9.708,6.095-15.773c0-12.958-10.542-23.5-23.5-23.5s-23.5,10.542-23.5,23.5
			c0,6.065,2.31,11.6,6.095,15.773L141.07,80H78.717c-12.958,0-23.5,10.542-23.5,23.5v153.2c0,16.707,13.592,30.3,30.306,30.3
			c8.544,0,16.733-3.634,22.466-9.969c5.733-6.335,8.534-14.845,7.684-23.346l-11.96-119.602c-0.075-0.748,0.308-1.197,0.642-1.442
			c0.334-0.243,0.875-0.475,1.569-0.179L147,150.067L166.111,250.4c0.986,5.177,4.499,9.336,9.106,11.325v19.554
			c-4.603,1.99-8.111,6.146-9.097,11.32l-30.761,161.497c-0.418,2.195,0.165,4.463,1.589,6.185s3.543,2.719,5.778,2.719h208
			c2.235,0,4.354-0.997,5.778-2.719s2.007-3.989,1.589-6.185L327.333,292.6c-0.987-5.181-4.504-9.342-9.116-11.328v-19.547
			C322.825,259.737,326.337,255.578,327.323,250.4z M111.834,118.676c-5.453-2.338-11.564-1.639-16.349,1.87
			c-4.784,3.509-7.288,9.127-6.697,15.03l11.96,119.602c0.436,4.356-0.942,8.543-3.879,11.788C93.931,270.212,89.902,272,85.517,272
			c-8.437,0-15.3-6.863-15.3-15.3V103.5c0-4.687,3.813-8.5,8.5-8.5h57.793l7.104,37.296L111.834,118.676z M356.924,95h35.36
			c0.124,0,0.294,0,0.437,0.258s0.052,0.402-0.013,0.508l-51.68,82.688L356.924,95z M246.717,15c4.687,0,8.5,3.813,8.5,8.5
			s-3.813,8.5-8.5,8.5c-4.687,0-8.5-3.813-8.5-8.5S242.03,15,246.717,15z M246.718,47.76L316.57,80H176.865L246.718,47.76z
			 M267.436,248h-41.443L214.784,95h63.861L267.436,248z M303.217,263v17h-113v-17H303.217z M151.781,95h47.963l11.209,153h-29.615
			c-0.24,0-0.446-0.171-0.491-0.406L151.781,95z M199.752,448H151.79l29.066-152.594c0.045-0.235,0.251-0.406,0.491-0.406h29.614
			L199.752,448z M214.793,448l11.209-153h41.443l11.209,153H214.793z M341.663,448h-47.969l-11.209-153h29.621
			c0.24,0,0.446,0.171,0.491,0.406L341.663,448z M312.589,247.594c-0.045,0.235-0.251,0.406-0.491,0.406h-29.621l11.209-153h47.969
			L312.589,247.594z"/>
	</g>
</g>
<g>
</g>
<g>
</g>
<g>
</g>
<g>
</g>
<g>
</g>
<g>
</g>
<g>
</g>
<g>
</g>
<g>
</g>
<g>
</g>
<g>
</g>
<g>
</g>
<g>
</g>
<g>
</g>
<g>
</g>
</svg>
