<?xml version="1.0" encoding="iso-8859-1"?>
<!-- Generator: Adobe Illustrator 19.0.0, SVG Export Plug-In . SVG Version: 6.00 Build 0)  -->
<svg version="1.1" id="Layer_1" xmlns="http://www.w3.org/2000/svg" xmlns:xlink="http://www.w3.org/1999/xlink" x="0px" y="0px"
	 viewBox="0 0 463 463" style="enable-background:new 0 0 463 463;" xml:space="preserve">
<g>
	<g>
		<g>
			<path d="M423.5,88h-384C17.72,88,0,105.72,0,127.5v208C0,357.28,17.72,375,39.5,375h384c21.78,0,39.5-17.72,39.5-39.5v-208
				C463,105.72,445.28,88,423.5,88z M448,335.5c0,13.51-10.991,24.5-24.5,24.5h-384C25.991,360,15,349.01,15,335.5v-208
				c0-13.51,10.991-24.5,24.5-24.5h384c13.509,0,24.5,10.99,24.5,24.5V335.5z"/>
			<path d="M119.5,152h-48C58.542,152,48,162.542,48,175.5v32c0,12.958,10.542,23.5,23.5,23.5h48c12.958,0,23.5-10.542,23.5-23.5
				v-32C143,162.542,132.458,152,119.5,152z M80,216h-8.5c-4.687,0-8.5-3.813-8.5-8.5v-32c0-4.687,3.813-8.5,8.5-8.5H80V216z
				 M128,207.5c0,4.687-3.813,8.5-8.5,8.5H95v-17h33V207.5z M128,184H95v-17h24.5c4.687,0,8.5,3.813,8.5,8.5V184z"/>
			<path d="M111.5,280h-48c-8.547,0-15.5,6.953-15.5,15.5v16c0,8.547,6.953,15.5,15.5,15.5h48c8.547,0,15.5-6.953,15.5-15.5v-16
				C127,286.953,120.047,280,111.5,280z M112,311.5c0,0.275-0.224,0.5-0.5,0.5h-48c-0.276,0-0.5-0.225-0.5-0.5v-16
				c0-0.275,0.224-0.5,0.5-0.5h48c0.276,0,0.5,0.225,0.5,0.5V311.5z"/>
			<path d="M207.5,280h-48c-8.547,0-15.5,6.953-15.5,15.5v16c0,8.547,6.953,15.5,15.5,15.5h48c8.547,0,15.5-6.953,15.5-15.5v-16
				C223,286.953,216.047,280,207.5,280z M208,311.5c0,0.275-0.224,0.5-0.5,0.5h-48c-0.276,0-0.5-0.225-0.5-0.5v-16
				c0-0.275,0.224-0.5,0.5-0.5h48c0.276,0,0.5,0.225,0.5,0.5V311.5z"/>
			<path d="M303.5,280h-48c-8.547,0-15.5,6.953-15.5,15.5v16c0,8.547,6.953,15.5,15.5,15.5h48c8.547,0,15.5-6.953,15.5-15.5v-16
				C319,286.953,312.047,280,303.5,280z M304,311.5c0,0.275-0.224,0.5-0.5,0.5h-48c-0.276,0-0.5-0.225-0.5-0.5v-16
				c0-0.275,0.224-0.5,0.5-0.5h48c0.276,0,0.5,0.225,0.5,0.5V311.5z"/>
			<path d="M399.5,280h-48c-8.547,0-15.5,6.953-15.5,15.5v16c0,8.547,6.953,15.5,15.5,15.5h48c8.547,0,15.5-6.953,15.5-15.5v-16
				C415,286.953,408.047,280,399.5,280z M400,311.5c0,0.275-0.224,0.5-0.5,0.5h-48c-0.276,0-0.5-0.225-0.5-0.5v-16
				c0-0.275,0.224-0.5,0.5-0.5h48c0.276,0,0.5,0.225,0.5,0.5V311.5z"/>
			<path d="M375.5,152c-8.71,0-17.135,2.953-24,8.274c-6.865-5.321-15.29-8.274-24-8.274c-21.78,0-39.5,17.72-39.5,39.5
				c0,21.78,17.72,39.5,39.5,39.5c8.71,0,17.135-2.953,24-8.274c6.865,5.321,15.29,8.274,24,8.274c21.78,0,39.5-17.72,39.5-39.5
				C415,169.72,397.28,152,375.5,152z M375.5,216c-7.06,0-13.577-3.009-18.354-8.473c-1.424-1.629-3.482-2.563-5.646-2.563
				s-4.222,0.935-5.646,2.563C341.077,212.991,334.56,216,327.5,216c-13.509,0-24.5-10.99-24.5-24.5s10.991-24.5,24.5-24.5
				c7.06,0,13.577,3.009,18.354,8.473c1.424,1.629,3.482,2.563,5.646,2.563s4.222-0.935,5.646-2.563
				C361.923,170.009,368.44,167,375.5,167c13.509,0,24.5,10.99,24.5,24.5S389.009,216,375.5,216z"/>
		</g>
	</g>
</g>
<g>
</g>
<g>
</g>
<g>
</g>
<g>
</g>
<g>
</g>
<g>
</g>
<g>
</g>
<g>
</g>
<g>
</g>
<g>
</g>
<g>
</g>
<g>
</g>
<g>
</g>
<g>
</g>
<g>
</g>
</svg>
