<?xml version="1.0" encoding="iso-8859-1"?>
<!-- Generator: Adobe Illustrator 19.0.0, SVG Export Plug-In . SVG Version: 6.00 Build 0)  -->
<svg version="1.1" id="Layer_1" xmlns="http://www.w3.org/2000/svg" xmlns:xlink="http://www.w3.org/1999/xlink" x="0px" y="0px"
	 viewBox="0 0 463.001 463.001" style="enable-background:new 0 0 463.001 463.001;" xml:space="preserve">
<g>
	<g>
		<path d="M351,391.497V167.502c0-0.246-0.012-0.491-0.036-0.736c-0.005-0.053-0.016-0.105-0.023-0.158
			c-0.023-0.19-0.048-0.38-0.085-0.569c-0.009-0.047-0.024-0.094-0.034-0.14c-0.042-0.192-0.087-0.384-0.144-0.573
			c-0.01-0.032-0.023-0.063-0.033-0.095c-0.064-0.201-0.133-0.401-0.214-0.598c-0.008-0.019-0.017-0.036-0.025-0.054
			c-0.087-0.205-0.181-0.408-0.287-0.607c-0.012-0.022-0.026-0.043-0.038-0.065c-0.104-0.191-0.214-0.379-0.337-0.563
			c-0.036-0.054-0.078-0.103-0.115-0.156c-0.104-0.147-0.207-0.294-0.322-0.435c-0.158-0.193-0.325-0.379-0.503-0.557
			l-39.323-39.324L296.799,21.426C295.273,9.211,284.839,0,272.461,0c-13.487,0-24.46,10.973-24.46,24.46v36.934l-11.197-11.197
			c-2.929-2.929-7.678-2.929-10.606,0l-1.102,1.103l-2.103-44.156c-0.197-4.138-3.699-7.338-7.849-7.135
			c-4.137,0.197-7.332,3.711-7.135,7.848l2.751,57.777l-19.759,19.759V7.5c0-4.142-3.358-7.5-7.5-7.5c-4.142,0-7.5,3.358-7.5,7.5
			v92.894l-22.486,22.486l5.477-115.022c0.197-4.137-2.998-7.651-7.135-7.848c-4.153-0.203-7.651,2.997-7.849,7.135l-6.262,131.504
			l-23.549,23.549c-0.178,0.178-0.345,0.364-0.503,0.557c-0.115,0.141-0.219,0.288-0.322,0.435
			c-0.037,0.053-0.079,0.102-0.115,0.156c-0.122,0.183-0.232,0.372-0.337,0.563c-0.012,0.022-0.027,0.043-0.038,0.065
			c-0.105,0.197-0.198,0.398-0.284,0.601c-0.009,0.021-0.02,0.041-0.028,0.061c-0.081,0.196-0.15,0.395-0.213,0.595
			c-0.01,0.032-0.024,0.064-0.034,0.096c-0.057,0.189-0.102,0.381-0.144,0.573c-0.01,0.047-0.025,0.093-0.034,0.14
			c-0.037,0.188-0.062,0.378-0.085,0.569c-0.006,0.053-0.018,0.105-0.023,0.158c-0.024,0.245-0.036,0.49-0.036,0.736v271.998
			c0,12.958,10.542,23.5,23.5,23.5h192c12.958,0,23.5-10.542,23.5-23.5v-47.998C351,391.501,351,391.499,351,391.497z
			 M332.895,167.5l-15.854,15.854l-4.53-36.237L332.895,167.5z M263,24.46c0-5.217,4.244-9.46,9.528-9.46
			c4.761,0,8.796,3.563,9.387,8.287l21.688,173.504L263,237.393V24.46z M229.795,150.001l-3.736-78.454l5.442-5.441l16.5,16.5
			v169.787l-16.5,16.5l-22.3-22.3l-1.696-61.05c-0.063-2.273,1.368-4.343,3.734-5.403
			C223.13,174.813,230.412,162.983,229.795,150.001z M191.001,106.606l20.724-20.724l2.386,50.117h-23.11V106.606z M176.001,121.606
			V136h-14.393L176.001,121.606z M214.816,151c0.204,6.661-3.577,12.705-9.708,15.451c-7.882,3.531-12.827,11.188-12.596,19.508
			l1.256,45.199l-19.976-19.976l0.701-25.224c0.23-8.319-4.715-15.976-12.597-19.507c-6.131-2.746-9.912-8.79-9.708-15.451H214.816z
			 M138.172,159.435c2.345,9.055,8.672,16.709,17.591,20.705c2.367,1.06,3.797,3.13,3.734,5.403l-0.307,11.04L130.107,167.5
			L138.172,159.435z M336,439.5c0,4.687-3.813,8.5-8.5,8.5h-192c-4.687,0-8.5-3.813-8.5-8.5V185.606l209,209V439.5z M336,373.393
			l-93.894-93.894L336,185.606V373.393z"/>
	</g>
</g>
<g>
</g>
<g>
</g>
<g>
</g>
<g>
</g>
<g>
</g>
<g>
</g>
<g>
</g>
<g>
</g>
<g>
</g>
<g>
</g>
<g>
</g>
<g>
</g>
<g>
</g>
<g>
</g>
<g>
</g>
</svg>
