<?xml version="1.0" encoding="iso-8859-1"?>
<!-- Generator: Adobe Illustrator 19.0.0, SVG Export Plug-In . SVG Version: 6.00 Build 0)  -->
<svg version="1.1" id="Layer_1" xmlns="http://www.w3.org/2000/svg" xmlns:xlink="http://www.w3.org/1999/xlink" x="0px" y="0px"
	 viewBox="0 0 463 463" style="enable-background:new 0 0 463 463;" xml:space="preserve">
<g>
	<g>
		<g>
			<path d="M351.5,0h-240C98.542,0,88,10.542,88,23.5v432c0,4.142,3.358,7.5,7.5,7.5h32c4.142,0,7.5-3.358,7.5-7.5V399h193v56.5
				c0,4.142,3.358,7.5,7.5,7.5h32c4.142,0,7.5-3.358,7.5-7.5v-432C375,10.542,364.458,0,351.5,0z M120,448h-17v-50.597
				c2.638,1.027,5.503,1.597,8.5,1.597h8.5V448z M360,448h-17v-49h8.5c2.997,0,5.862-0.57,8.5-1.597V448z M360,375.5
				c0,4.687-3.813,8.5-8.5,8.5h-240c-4.687,0-8.5-3.813-8.5-8.5v-352c0-4.687,3.813-8.5,8.5-8.5h240c4.687,0,8.5,3.813,8.5,8.5
				V375.5z"/>
			<path d="M175.5,103h112c12.958,0,23.5-10.542,23.5-23.5S300.458,56,287.5,56h-112C162.542,56,152,66.542,152,79.5
				S162.542,103,175.5,103z M175.5,71h112c4.687,0,8.5,3.813,8.5,8.5s-3.813,8.5-8.5,8.5h-112c-4.687,0-8.5-3.813-8.5-8.5
				S170.813,71,175.5,71z"/>
			<path d="M183.5,120c-4.142,0-7.5,3.358-7.5,7.5c0,4.142,3.358,7.5,7.5,7.5h96c4.142,0,7.5-3.358,7.5-7.5
				c0-4.142-3.358-7.5-7.5-7.5H183.5z"/>
			<path d="M135.5,183h176c4.142,0,7.5-3.358,7.5-7.5c0-4.142-3.358-7.5-7.5-7.5h-176c-4.142,0-7.5,3.358-7.5,7.5
				C128,179.642,131.358,183,135.5,183z"/>
			<path d="M135.5,215h112c4.142,0,7.5-3.358,7.5-7.5c0-4.142-3.358-7.5-7.5-7.5h-112c-4.142,0-7.5,3.358-7.5,7.5
				C128,211.642,131.358,215,135.5,215z"/>
			<path d="M327.5,200h-16c-4.142,0-7.5,3.358-7.5,7.5c0,4.142,3.358,7.5,7.5,7.5h16c4.142,0,7.5-3.358,7.5-7.5
				C335,203.358,331.642,200,327.5,200z"/>
			<path d="M135.5,247h176c4.142,0,7.5-3.358,7.5-7.5c0-4.142-3.358-7.5-7.5-7.5h-176c-4.142,0-7.5,3.358-7.5,7.5
				C128,243.642,131.358,247,135.5,247z"/>
			<path d="M135.5,279h112c4.142,0,7.5-3.358,7.5-7.5c0-4.142-3.358-7.5-7.5-7.5h-112c-4.142,0-7.5,3.358-7.5,7.5
				C128,275.642,131.358,279,135.5,279z"/>
			<path d="M327.5,264h-16c-4.142,0-7.5,3.358-7.5,7.5c0,4.142,3.358,7.5,7.5,7.5h16c4.142,0,7.5-3.358,7.5-7.5
				C335,267.358,331.642,264,327.5,264z"/>
			<path d="M135.5,311h176c4.142,0,7.5-3.358,7.5-7.5c0-4.142-3.358-7.5-7.5-7.5h-176c-4.142,0-7.5,3.358-7.5,7.5
				C128,307.642,131.358,311,135.5,311z"/>
			<path d="M247.5,328h-112c-4.142,0-7.5,3.358-7.5,7.5c0,4.142,3.358,7.5,7.5,7.5h112c4.142,0,7.5-3.358,7.5-7.5
				C255,331.358,251.642,328,247.5,328z"/>
			<path d="M327.5,328h-16c-4.142,0-7.5,3.358-7.5,7.5c0,4.142,3.358,7.5,7.5,7.5h16c4.142,0,7.5-3.358,7.5-7.5
				C335,331.358,331.642,328,327.5,328z"/>
		</g>
	</g>
</g>
<g>
</g>
<g>
</g>
<g>
</g>
<g>
</g>
<g>
</g>
<g>
</g>
<g>
</g>
<g>
</g>
<g>
</g>
<g>
</g>
<g>
</g>
<g>
</g>
<g>
</g>
<g>
</g>
<g>
</g>
</svg>
