<?xml version="1.0" encoding="iso-8859-1"?>
<!-- Generator: Adobe Illustrator 19.0.0, SVG Export Plug-In . SVG Version: 6.00 Build 0)  -->
<svg version="1.1" id="Layer_1" xmlns="http://www.w3.org/2000/svg" xmlns:xlink="http://www.w3.org/1999/xlink" x="0px" y="0px"
	 viewBox="0 0 463 463" style="enable-background:new 0 0 463 463;" xml:space="preserve">
<g>
	<g>
		<g>
			<path d="M431.5,104h-400C14.131,104,0,118.131,0,135.5v192C0,344.869,14.131,359,31.5,359h400c17.369,0,31.5-14.131,31.5-31.5
				v-192C463,118.131,448.869,104,431.5,104z M448,327.5c0,9.099-7.402,16.5-16.5,16.5H239v-0.5c0-4.143-3.358-7.5-7.5-7.5
				c-4.142,0-7.5,3.357-7.5,7.5v0.5H31.5c-9.098,0-16.5-7.401-16.5-16.5v-192c0-9.099,7.402-16.5,16.5-16.5H224v0.5
				c0,4.143,3.358,7.5,7.5,7.5c4.142,0,7.5-3.357,7.5-7.5V119h192.5c9.098,0,16.5,7.401,16.5,16.5V327.5z"/>
			<path d="M111.5,144c-4.142,0-7.5,3.357-7.5,7.5V184h-9v-32.5c0-4.143-3.358-7.5-7.5-7.5c-4.142,0-7.5,3.357-7.5,7.5V184h-9v-32.5
				c0-4.143-3.358-7.5-7.5-7.5c-4.142,0-7.5,3.357-7.5,7.5v48c0,12.958,10.542,23.5,23.5,23.5H80v88.5c0,4.143,3.358,7.5,7.5,7.5
				c4.142,0,7.5-3.357,7.5-7.5V223h0.5c12.958,0,23.5-10.542,23.5-23.5v-48C119,147.357,115.642,144,111.5,144z M104,199.5
				c0,4.687-3.813,8.5-8.5,8.5h-16c-4.687,0-8.5-3.813-8.5-8.5V199h33V199.5z"/>
			<path d="M167.975,157.789C166.851,149.928,160.017,144,152.06,144c-8.855,0-16.06,7.204-16.06,16.06V311.5
				c0,4.143,3.358,7.5,7.5,7.5c4.142,0,7.5-3.357,7.5-7.5V271h15.276c4.496,0,8.764-1.948,11.709-5.344
				c2.945-3.396,4.271-7.897,3.635-12.349L167.975,157.789z M166.653,255.828C166.504,256,166.338,256,166.276,256H151v-95.94
				c0-0.584,0.476-1.06,1.076-1.06c0.524,0,0.975,0.392,1.049,0.91l13.646,95.519C166.779,255.49,166.803,255.655,166.653,255.828z"
				/>
			<path d="M231.5,144c-4.142,0-7.5,3.357-7.5,7.5v16c0,4.143,3.358,7.5,7.5,7.5c4.142,0,7.5-3.357,7.5-7.5v-16
				C239,147.357,235.642,144,231.5,144z"/>
			<path d="M231.5,240c-4.142,0-7.5,3.357-7.5,7.5v16c0,4.143,3.358,7.5,7.5,7.5c4.142,0,7.5-3.357,7.5-7.5v-16
				C239,243.357,235.642,240,231.5,240z"/>
			<path d="M231.5,288c-4.142,0-7.5,3.357-7.5,7.5v16c0,4.143,3.358,7.5,7.5,7.5c4.142,0,7.5-3.357,7.5-7.5v-16
				C239,291.357,235.642,288,231.5,288z"/>
			<path d="M231.5,192c-4.142,0-7.5,3.357-7.5,7.5v16c0,4.143,3.358,7.5,7.5,7.5c4.142,0,7.5-3.357,7.5-7.5v-16
				C239,195.357,235.642,192,231.5,192z"/>
			<path d="M395.66,153.26c-3.446-2.298-8.103-1.367-10.4,2.08l-96,144c-2.298,3.446-1.367,8.103,2.08,10.4
				c1.279,0.853,2.724,1.261,4.153,1.261c2.423,0,4.802-1.173,6.247-3.341l96-144C400.038,160.214,399.107,155.558,395.66,153.26z"
				/>
			<path d="M335,183.5c0-17.369-14.131-31.5-31.5-31.5c-17.369,0-31.5,14.131-31.5,31.5s14.131,31.5,31.5,31.5
				C320.869,215,335,200.869,335,183.5z M287,183.5c0-9.098,7.402-16.5,16.5-16.5c9.098,0,16.5,7.402,16.5,16.5
				s-7.402,16.5-16.5,16.5C294.402,200,287,192.598,287,183.5z"/>
			<path d="M383.5,248c-17.369,0-31.5,14.131-31.5,31.5c0,17.369,14.131,31.5,31.5,31.5c17.369,0,31.5-14.131,31.5-31.5
				C415,262.131,400.869,248,383.5,248z M383.5,296c-9.098,0-16.5-7.402-16.5-16.5c0-9.098,7.402-16.5,16.5-16.5
				c9.098,0,16.5,7.402,16.5,16.5C400,288.598,392.598,296,383.5,296z"/>
		</g>
	</g>
</g>
<g>
</g>
<g>
</g>
<g>
</g>
<g>
</g>
<g>
</g>
<g>
</g>
<g>
</g>
<g>
</g>
<g>
</g>
<g>
</g>
<g>
</g>
<g>
</g>
<g>
</g>
<g>
</g>
<g>
</g>
</svg>
