<?xml version="1.0" encoding="iso-8859-1"?>
<!-- Generator: Adobe Illustrator 19.0.0, SVG Export Plug-In . SVG Version: 6.00 Build 0)  -->
<svg version="1.1" id="Layer_1" xmlns="http://www.w3.org/2000/svg" xmlns:xlink="http://www.w3.org/1999/xlink" x="0px" y="0px"
	 viewBox="0 0 463.001 463.001" style="enable-background:new 0 0 463.001 463.001;" xml:space="preserve">
<g>
	<g>
		<g>
			<path d="M295.5,0h-128c-4.142,0-7.5,3.358-7.5,7.5v8c0,27.227,15.301,50.942,37.752,63.014l-5.138,107.906
				c-0.517,10.843,6.322,20.792,16.631,24.194c3.873,1.278,6.486,5.018,6.354,9.094l-7.081,219.559
				c-0.203,6.278,2.092,12.222,6.462,16.735c4.37,4.513,10.236,6.999,16.519,6.999s12.148-2.485,16.519-6.999
				c4.37-4.513,6.665-10.457,6.462-16.735l-7.08-219.559c-0.131-4.077,2.482-7.816,6.355-9.094
				c10.309-3.402,17.147-13.351,16.631-24.194l-5.138-107.906C287.7,66.442,303,42.727,303,15.5v-8C303,3.358,299.643,0,295.5,0z
				 M249.055,196.37c-10.145,3.347-16.99,13.143-16.646,23.821l7.081,219.559c0.07,2.183-0.727,4.249-2.246,5.817
				c-1.519,1.568-3.559,2.433-5.743,2.433s-4.223-0.864-5.742-2.433c-1.519-1.569-2.316-3.635-2.246-5.817l7.081-219.56
				c0.344-10.678-6.501-20.474-16.646-23.821c-3.936-1.299-6.546-5.097-6.349-9.236l0.197-4.134h47.411l0.197,4.134
				C255.601,191.273,252.99,195.071,249.055,196.37z M208.508,168l3.98-83.586c3.728,1.03,7.57,1.778,11.513,2.191L224.016,168
				H208.508z M239.001,86.605c3.942-0.413,7.783-1.161,11.51-2.19l3.98,83.585h-15.476L239.001,86.605z M288,15.5
				c0,31.154-25.346,56.5-56.5,56.5s-56.5-25.346-56.5-56.5V15h113V15.5z"/>
			<path d="M231.501,55c10.79,0,21.112-4.01,29.065-11.291c3.055-2.797,3.265-7.541,0.467-10.596
				c-2.796-3.055-7.541-3.265-10.596-0.467C245.256,37.388,238.532,40,231.501,40c-7.04,0-13.772-2.618-18.956-7.372
				c-3.052-2.799-7.796-2.595-10.597,0.458c-2.8,3.053-2.595,7.797,0.458,10.597C210.364,50.981,220.696,55,231.501,55z"/>
		</g>
	</g>
</g>
<g>
</g>
<g>
</g>
<g>
</g>
<g>
</g>
<g>
</g>
<g>
</g>
<g>
</g>
<g>
</g>
<g>
</g>
<g>
</g>
<g>
</g>
<g>
</g>
<g>
</g>
<g>
</g>
<g>
</g>
</svg>
