<?xml version="1.0" encoding="iso-8859-1"?>
<!-- Generator: Adobe Illustrator 19.0.0, SVG Export Plug-In . SVG Version: 6.00 Build 0)  -->
<svg version="1.1" id="Layer_1" xmlns="http://www.w3.org/2000/svg" xmlns:xlink="http://www.w3.org/1999/xlink" x="0px" y="0px"
	 viewBox="0 0 463 463" style="enable-background:new 0 0 463 463;" xml:space="preserve">
<g>
	<g>
		<g>
			<path d="M458.044,301.872c-5.642-2.979-10.615,0.417-19.643,6.585c-7.431,5.075-18.661,12.746-34.094,20.009
				C380.629,339.61,297.333,372,219.616,320.983c-34.659-22.752-55.217-50.392-70.227-70.573
				c-11.992-16.123-20.656-27.772-31.822-32.142c-5.425-2.123-12.807-2.18-21.193-0.713c-4.226-6.634-10.735-11.619-18.683-14.212
				c-7.346-2.398-15.485-2.695-23.86-0.996c-7.609-30.119-4.167-57.636-1.302-71.779c0.928-4.58-0.231-9.276-3.18-12.883
				c-2.952-3.609-7.328-5.68-12.007-5.68H15.767c-4.309,0-8.307,1.729-11.259,4.867c-2.948,3.135-4.486,7.41-4.221,11.729
				c2.366,38.523,18.6,77.845,23.536,89.024c-4.741,4.523-8.473,9.79-10.901,15.509c-4.275,10.07-4.21,20.886,0.11,30.741
				C5.671,272.287,0,282.153,0,292.585c0,11.67,21.396,49.826,64.03,84.318c30.393,24.589,65.071,42.172,103.073,52.262
				c24.683,6.553,50.521,9.83,77.322,9.83c24.779,0,50.383-2.803,76.641-8.408c28.445-6.073,63.402-24.799,93.508-50.093
				C425.935,370.95,463,337.752,463,311.252C463,305.367,459.895,302.849,458.044,301.872z M73.038,217.602
				c2.855,0.931,5.32,2.333,7.355,4.127c-14.921,5.008-30.975,13.143-44.176,22.153c-3.32,2.266-7.192,5.099-11.146,8.389
				c-2.119-12.418,6.545-24.071,17.954-30.148C53.617,216.483,64.556,214.833,73.038,217.602z M15.258,127.682
				c-0.016-0.268,0.087-0.438,0.177-0.533c0.119-0.127,0.23-0.145,0.333-0.145H37.34c0.075,0,0.252,0,0.395,0.176
				c0.123,0.149,0.115,0.29,0.091,0.408c-3.159,15.589-6.951,46.101,1.741,79.52c-1.082,0.503-2.163,1.031-3.241,1.599
				C30.712,195.419,17.282,160.635,15.258,127.682z M404.926,369.009c-28.315,23.788-60.835,41.323-86.992,46.907
				C203.667,440.312,125.8,404.852,80.599,370.811c-46.87-35.298-65.17-72.803-65.599-78.276
				c0.037-10.051,11.124-23.602,29.673-36.263c26.444-18.049,57.96-27.742,67.427-24.036c7.162,2.803,15.145,13.536,25.252,27.125
				c15.679,21.081,37.153,49.952,74.032,74.16c84.231,55.294,173.849,20.497,199.309,8.517c15.4-7.247,26.723-14.76,34.526-20.074
				C439.351,335.031,424.604,352.477,404.926,369.009z"/>
			<path d="M100.494,198.376c3.797,1.658,8.218-0.069,9.877-3.865c8.501-19.432,21.946-32.569,36.181-46.479
				c14.179-13.855,28.791-28.133,39.969-49.537c9.097,6.542,25.652,20.239,38.619,40.985c1.098,1.758,2.875,2.982,4.908,3.384
				c2.033,0.399,4.142-0.057,5.826-1.266c2.066-1.483,47.426-34.644,63.795-94.562c6.151,7.436,14.701,19.164,23.391,35.55
				c27.518,51.889,35.281,109.795,36.947,149.235c0.131,3.097,2.153,5.795,5.089,6.788c2.937,0.993,6.181,0.079,8.166-2.303
				l33.73-40.477c8.951,13.881,25.939,45.4,25.01,83.492c-0.101,4.141,3.174,7.579,7.314,7.681c0.063,0.001,0.125,0.002,0.187,0.002
				c4.057,0,7.395-3.238,7.494-7.317c1.385-56.764-32.228-99.115-33.66-100.891c-1.41-1.749-3.531-2.773-5.778-2.792
				c-2.235,0.007-4.383,0.973-5.822,2.698l-27.933,33.521c-5.395-64.602-23.234-110.01-37.942-137.506
				c-17.688-33.069-34.697-48.218-35.413-48.847c-2.032-1.785-4.869-2.337-7.422-1.447c-2.554,0.892-4.431,3.09-4.91,5.752
				c-8.9,49.446-41.373,82.389-54.957,94.289c-20.134-28.514-44.819-42.831-45.94-43.472c-1.841-1.052-4.041-1.276-6.057-0.615
				c-2.015,0.66-3.656,2.144-4.518,4.081c-10.365,23.321-25.725,38.33-40.578,52.845c-14.635,14.301-29.768,29.088-39.439,51.195
				C94.969,192.294,96.699,196.715,100.494,198.376z"/>
			<path d="M380.714,264.541l-31.113,12.445c-10.34-65.734-39.35-97.249-40.636-98.618c-1.564-1.664-3.802-2.536-6.076-2.338
				c-2.276,0.186-4.343,1.398-5.616,3.293c-18.111,26.971-41.441,46.722-69.34,58.703c-20.903,8.978-36.691,9.98-36.849,9.99
				c-4.127,0.229-7.293,3.755-7.074,7.886c0.219,4.137,3.765,7.347,7.886,7.092c2.73-0.145,64.841-4.161,111.859-66.893
				c9.074,13.107,26.321,43.566,32.3,92.316c0.283,2.31,1.623,4.357,3.626,5.542c2.003,1.186,4.442,1.372,6.604,0.509l32.867-13.147
				c2.01,6.377,4.571,17.003,4.849,30.34c0.085,4.088,3.426,7.344,7.496,7.344c0.053,0,0.106-0.001,0.159-0.002
				c4.141-0.086,7.428-3.513,7.342-7.654c-0.527-25.298-8.374-42.315-8.708-43.027C388.604,264.722,384.404,263.064,380.714,264.541
				z"/>
			<path d="M243.057,368.461c-14.227-5.233-28.021-12.207-41.001-20.728c-20.424-13.407-38.57-29.473-55.475-49.116
				c-2.702-3.14-7.438-3.495-10.577-0.792c-3.139,2.702-3.494,7.438-0.792,10.577c17.831,20.718,37.003,37.685,58.613,51.87
				c13.935,9.147,28.756,16.639,44.054,22.267c0.854,0.314,1.729,0.463,2.588,0.463c3.054,0,5.924-1.88,7.04-4.913
				C248.936,374.202,246.944,369.89,243.057,368.461z"/>
			<path d="M109.144,251.075c-2.849-3.008-7.595-3.137-10.603-0.288c-3.007,2.848-3.137,7.595-0.289,10.603
				c3.393,3.583,9.19,11.377,13.423,17.068c1.472,1.979,3.733,3.024,6.024,3.024c1.556,0,3.125-0.482,4.47-1.482
				c3.323-2.472,4.014-7.17,1.542-10.493C119.006,263.179,113.15,255.305,109.144,251.075z"/>
		</g>
	</g>
</g>
<g>
</g>
<g>
</g>
<g>
</g>
<g>
</g>
<g>
</g>
<g>
</g>
<g>
</g>
<g>
</g>
<g>
</g>
<g>
</g>
<g>
</g>
<g>
</g>
<g>
</g>
<g>
</g>
<g>
</g>
</svg>
