<?xml version="1.0" encoding="iso-8859-1"?>
<!-- Generator: Adobe Illustrator 19.0.0, SVG Export Plug-In . SVG Version: 6.00 Build 0)  -->
<svg version="1.1" id="Layer_1" xmlns="http://www.w3.org/2000/svg" xmlns:xlink="http://www.w3.org/1999/xlink" x="0px" y="0px"
	 viewBox="0 0 463 463" style="enable-background:new 0 0 463 463;" xml:space="preserve">
<g>
	<g>
		<g>
			<path d="M223.5,111h112c4.142,0,7.5-3.357,7.5-7.5s-3.358-7.5-7.5-7.5h-112c-4.142,0-7.5,3.357-7.5,7.5S219.358,111,223.5,111z"
				/>
			<path d="M328,135.5c0,4.143,3.358,7.5,7.5,7.5h16c4.142,0,7.5-3.357,7.5-7.5s-3.358-7.5-7.5-7.5h-16
				C331.358,128,328,131.357,328,135.5z"/>
			<path d="M223.5,143h80c4.142,0,7.5-3.357,7.5-7.5s-3.358-7.5-7.5-7.5h-80c-4.142,0-7.5,3.357-7.5,7.5S219.358,143,223.5,143z"/>
			<path d="M223.5,175h112c4.142,0,7.5-3.357,7.5-7.5s-3.358-7.5-7.5-7.5h-112c-4.142,0-7.5,3.357-7.5,7.5S219.358,175,223.5,175z"
				/>
			<path d="M351.5,192h-16c-4.142,0-7.5,3.357-7.5,7.5s3.358,7.5,7.5,7.5h16c4.142,0,7.5-3.357,7.5-7.5S355.642,192,351.5,192z"/>
			<path d="M223.5,207h80c4.142,0,7.5-3.357,7.5-7.5s-3.358-7.5-7.5-7.5h-80c-4.142,0-7.5,3.357-7.5,7.5S219.358,207,223.5,207z"/>
			<path d="M223.5,239h112c4.142,0,7.5-3.357,7.5-7.5s-3.358-7.5-7.5-7.5h-112c-4.142,0-7.5,3.357-7.5,7.5S219.358,239,223.5,239z"
				/>
			<path d="M351.5,256h-16c-4.142,0-7.5,3.357-7.5,7.5s3.358,7.5,7.5,7.5h16c4.142,0,7.5-3.357,7.5-7.5S355.642,256,351.5,256z"/>
			<path d="M351.5,304h-48c-4.142,0-7.5,3.357-7.5,7.5s3.358,7.5,7.5,7.5h48c4.142,0,7.5-3.357,7.5-7.5S355.642,304,351.5,304z"/>
			<path d="M351.5,336h-32c-4.142,0-7.5,3.357-7.5,7.5s3.358,7.5,7.5,7.5h32c4.142,0,7.5-3.357,7.5-7.5S355.642,336,351.5,336z"/>
			<path d="M223.5,271h80c4.142,0,7.5-3.357,7.5-7.5s-3.358-7.5-7.5-7.5h-80c-4.142,0-7.5,3.357-7.5,7.5S219.358,271,223.5,271z"/>
			<path d="M383.5,64H311V23.5C311,10.542,300.458,0,287.5,0h-192C82.542,0,72,10.542,72,23.5v416c0,12.958,10.542,23.5,23.5,23.5
				h192c12.958,0,23.5-10.542,23.5-23.5V399h16.5c4.142,0,7.5-3.357,7.5-7.5c0-4.687,3.813-8.5,8.5-8.5s8.5,3.813,8.5,8.5
				c0,4.143,3.358,7.5,7.5,7.5h24c4.142,0,7.5-3.357,7.5-7.5v-320C391,67.357,387.642,64,383.5,64z M296,439.5
				c0,4.687-3.813,8.5-8.5,8.5h-192c-4.687,0-8.5-3.813-8.5-8.5v-416c0-4.687,3.813-8.5,8.5-8.5h192c4.687,0,8.5,3.813,8.5,8.5V64
				h-24.5C257.991,64,247,53.01,247,39.5c0-4.143-3.358-7.5-7.5-7.5h-96c-4.142,0-7.5,3.357-7.5,7.5c0,13.51-10.991,24.5-24.5,24.5
				c-4.142,0-7.5,3.357-7.5,7.5v320c0,4.143,3.358,7.5,7.5,7.5c13.509,0,24.5,10.99,24.5,24.5c0,4.143,3.358,7.5,7.5,7.5h96
				c4.142,0,7.5-3.357,7.5-7.5c0-13.51,10.991-24.5,24.5-24.5c4.142,0,7.5-3.357,7.5-7.5c0-4.687,3.813-8.5,8.5-8.5
				s8.5,3.813,8.5,8.5V439.5z M144,231.5c0,23.639,17.36,43.295,40,46.902V391.5c0,4.143,3.358,7.5,7.5,7.5h24
				c4.142,0,7.5-3.357,7.5-7.5c0-4.687,3.813-8.5,8.5-8.5s8.5,3.813,8.5,8.5c0,2.129,0.891,4.046,2.315,5.411
				c-4.799,5.263-8.19,11.826-9.592,19.089h-82.438c-3.044-15.779-15.507-28.241-31.286-31.286V78.286
				c15.779-3.045,28.242-15.507,31.286-31.286h82.429c1.222,6.333,3.964,12.13,7.827,17H191.5c-4.142,0-7.5,3.357-7.5,7.5v113.098
				C161.36,188.205,144,207.861,144,231.5z M184,199.883v63.234c-14.315-3.396-25-16.278-25-31.617S169.685,203.279,184,199.883z
				 M376,384h-10.227c-3.137-9.292-11.936-16-22.273-16c-10.337,0-19.136,6.708-22.273,16h-11.454c-3.137-9.292-11.936-16-22.273-16
				c-10.337,0-19.136,6.708-22.273,16h-11.454c-3.137-9.292-11.936-16-22.273-16c-10.337,0-19.136,6.708-22.273,16H199V79h177V384z"
				/>
		</g>
	</g>
</g>
<g>
</g>
<g>
</g>
<g>
</g>
<g>
</g>
<g>
</g>
<g>
</g>
<g>
</g>
<g>
</g>
<g>
</g>
<g>
</g>
<g>
</g>
<g>
</g>
<g>
</g>
<g>
</g>
<g>
</g>
</svg>
