<?xml version="1.0" encoding="iso-8859-1"?>
<!-- Generator: Adobe Illustrator 19.0.0, SVG Export Plug-In . SVG Version: 6.00 Build 0)  -->
<svg version="1.1" id="Layer_1" xmlns="http://www.w3.org/2000/svg" xmlns:xlink="http://www.w3.org/1999/xlink" x="0px" y="0px"
	 viewBox="0 0 463 463" style="enable-background:new 0 0 463 463;" xml:space="preserve">
<g>
	<g>
		<g>
			<path d="M300.534,210.484C290.33,178.071,279.795,144.581,279.046,79h0.454c4.142,0,7.5-3.358,7.5-7.5c0-4.142-3.358-7.5-7.5-7.5
				H271V45.766c9.29-3.138,16-11.93,16-22.266C287,10.542,276.458,0,263.5,0h-64C186.542,0,176,10.542,176,23.5
				c0,10.336,6.71,19.128,16,22.266V64h-8.5c-4.142,0-7.5,3.358-7.5,7.5c0,4.142,3.358,7.5,7.5,7.5h0.454
				c-0.748,65.581-11.283,99.071-21.487,131.484C152.97,240.649,144,269.142,144,319.5v120c0,12.958,10.542,23.5,23.5,23.5h128
				c12.958,0,23.5-10.542,23.5-23.5v-120C319,269.142,310.03,240.649,300.534,210.484z M191,23.5c0-4.687,3.813-8.5,8.5-8.5h64
				c4.687,0,8.5,3.813,8.5,8.5s-3.813,8.5-8.5,8.5h-64C194.813,32,191,28.187,191,23.5z M264.046,79
				c0.102,8.855,0.383,17.167,0.816,25H255.5c-4.142,0-7.5,3.358-7.5,7.5c0,9.098-7.402,16.5-16.5,16.5s-16.5-7.402-16.5-16.5
				c0-4.142-3.358-7.5-7.5-7.5h-9.363c0.434-7.833,0.715-16.145,0.816-25H264.046z M207,64V47h49v17H207z M304,439.5
				c0,4.687-3.813,8.5-8.5,8.5h-128c-4.687,0-8.5-3.813-8.5-8.5v-120c0-48.053,8.633-75.477,17.774-104.512
				c7.874-25.012,16.539-52.56,20.302-95.988h3.826c3.373,13.76,15.812,24,30.598,24s27.225-10.24,30.598-24h3.826
				c3.764,43.428,12.428,70.976,20.302,95.988C295.367,244.023,304,271.447,304,319.5V439.5z"/>
			<path d="M231.5,304c-30.603,0-55.5,24.897-55.5,55.5c0,30.603,24.897,55.5,55.5,55.5c30.603,0,55.5-24.897,55.5-55.5
				C287,328.897,262.103,304,231.5,304z M231.5,400c-22.332,0-40.5-18.168-40.5-40.5c0-22.332,18.168-40.5,40.5-40.5
				c22.332,0,40.5,18.168,40.5,40.5C272,381.832,253.832,400,231.5,400z"/>
		</g>
	</g>
</g>
<g>
</g>
<g>
</g>
<g>
</g>
<g>
</g>
<g>
</g>
<g>
</g>
<g>
</g>
<g>
</g>
<g>
</g>
<g>
</g>
<g>
</g>
<g>
</g>
<g>
</g>
<g>
</g>
<g>
</g>
</svg>
