<?xml version="1.0" encoding="iso-8859-1"?>
<!-- Generator: Adobe Illustrator 19.0.0, SVG Export Plug-In . SVG Version: 6.00 Build 0)  -->
<svg version="1.1" id="Layer_1" xmlns="http://www.w3.org/2000/svg" xmlns:xlink="http://www.w3.org/1999/xlink" x="0px" y="0px"
	 viewBox="0 0 463 463" style="enable-background:new 0 0 463 463;" xml:space="preserve">
<g>
	<g>
		<g>
			<path d="M309.106,2.518c-1.968-2.215-5.054-3.063-7.879-2.165c-2.823,0.898-4.854,3.375-5.181,6.319l-16,144
				c-0.031,0.274-0.046,0.552-0.046,0.828V280h-0.5c-4.142,0-7.5,3.357-7.5,7.5s3.358,7.5,7.5,7.5h0.5v136.5
				c0,17.369,14.131,31.5,31.5,31.5c17.369,0,31.5-14.131,31.5-31.5c0-11.398-6.251-21.799-16-27.319V287.5
				c0-9.099,7.402-16.5,16.5-16.5h8c4.142,0,7.5-3.357,7.5-7.5C359,60.978,311.143,4.81,309.106,2.518z M295,295h17v17h-17V295z
				 M328,431.5c0,9.099-7.402,16.5-16.5,16.5c-9.098,0-16.5-7.401-16.5-16.5V327h17v81.97c0,3.174,1.998,6.004,4.987,7.066
				C323.574,418.378,328,424.593,328,431.5z M343.5,256c-14.785,0-27.216,10.241-30.591,24H295V151.916l13.466-121.193
				c3.739,7.944,8.096,18.782,12.434,33.087c18.26,60.218,22.722,136.372,23.076,192.19H343.5z"/>
			<path d="M247.5,0h-112C119.354,0,112,12.182,112,23.5V280h-0.5c-4.142,0-7.5,3.357-7.5,7.5s3.358,7.5,7.5,7.5h0.5v128.5
				c0,27.286,15.821,39.5,31.5,39.5c17.369,0,31.5-14.131,31.5-31.5c0-11.398-6.251-21.799-16-27.319V295h72.5
				c3.976,0,7.261-3.103,7.488-7.072l16-280c0.118-2.06-0.619-4.077-2.035-5.577C251.536,0.85,249.564,0,247.5,0z M127,295h17v17
				h-17V295z M160,431.5c0,9.099-7.402,16.5-16.5,16.5c-10.332,0-16.5-9.159-16.5-24.5V327h17v81.97
				c0,3.174,1.998,6.004,4.987,7.066C155.574,418.378,160,424.593,160,431.5z M224.417,280H127V23.5c0-3.175,1.104-8.5,8.5-8.5
				h104.059L224.417,280z"/>
			<path d="M200.901,262.988c0.146,0.008,0.29,0.012,0.435,0.012c3.946,0,7.253-3.083,7.481-7.072L221.16,39.929
				c0.236-4.135-2.924-7.68-7.06-7.915c-4.126-0.257-7.679,2.924-7.916,7.06l-12.343,215.999
				C193.605,259.207,196.765,262.751,200.901,262.988z"/>
		</g>
	</g>
</g>
<g>
</g>
<g>
</g>
<g>
</g>
<g>
</g>
<g>
</g>
<g>
</g>
<g>
</g>
<g>
</g>
<g>
</g>
<g>
</g>
<g>
</g>
<g>
</g>
<g>
</g>
<g>
</g>
<g>
</g>
</svg>
