<?xml version="1.0" encoding="iso-8859-1"?>
<!-- Generator: Adobe Illustrator 19.0.0, SVG Export Plug-In . SVG Version: 6.00 Build 0)  -->
<svg version="1.1" id="Layer_1" xmlns="http://www.w3.org/2000/svg" xmlns:xlink="http://www.w3.org/1999/xlink" x="0px" y="0px"
	 viewBox="0 0 463 463" style="enable-background:new 0 0 463 463;" xml:space="preserve">
<g>
	<g>
		<g>
			<path d="M351.5,352H167V31.5C167,14.131,152.869,0,135.5,0S104,14.131,104,31.5v48c0,4.143,3.358,7.5,7.5,7.5
				c4.142,0,7.5-3.357,7.5-7.5v-48c0-9.098,7.402-16.5,16.5-16.5S152,22.402,152,31.5v328c0,57.07,46.43,103.5,103.5,103.5
				S359,416.57,359,359.5C359,355.357,355.642,352,351.5,352z M255.5,448c-46.273,0-84.366-35.697-88.185-81h176.37
				C339.866,412.303,301.773,448,255.5,448z"/>
			<path d="M255.5,431c25.976,0,49.947-14.123,62.56-36.857c2.01-3.622,0.703-8.188-2.919-10.197
				c-3.622-2.009-8.188-0.701-10.197,2.92C294.974,404.836,276.028,416,255.5,416c-4.142,0-7.5,3.357-7.5,7.5S251.358,431,255.5,431
				z"/>
		</g>
	</g>
</g>
<g>
</g>
<g>
</g>
<g>
</g>
<g>
</g>
<g>
</g>
<g>
</g>
<g>
</g>
<g>
</g>
<g>
</g>
<g>
</g>
<g>
</g>
<g>
</g>
<g>
</g>
<g>
</g>
<g>
</g>
</svg>
