<?xml version="1.0" encoding="iso-8859-1"?>
<!-- Generator: Adobe Illustrator 19.0.0, SVG Export Plug-In . SVG Version: 6.00 Build 0)  -->
<svg version="1.1" id="Layer_1" xmlns="http://www.w3.org/2000/svg" xmlns:xlink="http://www.w3.org/1999/xlink" x="0px" y="0px"
	 viewBox="0 0 463 463" style="enable-background:new 0 0 463 463;" xml:space="preserve">
<g>
	<g>
		<path d="M351.5,0C338.542,0,328,10.542,328,23.5v32c0,4.142,3.358,7.5,7.5,7.5h8.5v1.409c0,3.247-1.724,6.072-4.61,7.558
			c-2.888,1.485-6.188,1.246-8.83-0.641l-30.7-21.929C298.587,48.488,297.063,48,295.5,48h-33.734c-3.138-9.29-11.93-16-22.266-16
			h-26.097c1.027-2.638,1.597-5.503,1.597-8.5C215,10.542,204.458,0,191.5,0S168,10.542,168,23.5c0,2.997,0.57,5.862,1.597,8.5
			H143.5C130.542,32,120,42.542,120,55.5c0,2.995,0.569,5.858,1.595,8.494h-5.169C100.752,63.994,88,76.746,88,92.42
			c0,7.625,1.2,15.122,3.565,22.282c6.171,18.679,20.515,70.567,20.435,148.793c0.081,78.221-14.264,130.114-20.435,148.793
			C89.2,419.45,88,426.947,88,434.573C88,450.248,100.752,463,116.426,463h150.148C282.248,463,295,450.248,295,434.573
			c0-7.626-1.2-15.124-3.565-22.283c-6.171-18.679-20.515-70.568-20.435-148.81c-0.08-78.215,14.264-130.101,20.435-148.777
			C293.8,107.542,295,100.046,295,92.42c0-15.674-12.752-28.426-28.426-28.426h-5.169c0.128-0.328,0.248-0.659,0.361-0.994h31.331
			l28.744,20.532c4.078,2.913,8.847,4.393,13.646,4.392c3.67,0,7.359-0.866,10.767-2.62C354.116,81.258,359,73.251,359,64.409V63
			h8.5c4.142,0,7.5-3.358,7.5-7.5v-32C375,10.542,364.458,0,351.5,0z M191.5,15c4.687,0,8.5,3.813,8.5,8.5s-3.813,8.5-8.5,8.5
			s-8.5-3.813-8.5-8.5S186.813,15,191.5,15z M143.5,47h96c4.687,0,8.5,3.813,8.5,8.5c0,4.648-3.751,8.431-8.384,8.494h-96.232
			C138.751,63.931,135,60.148,135,55.5C135,50.813,138.813,47,143.5,47z M105.809,109.997C103.945,104.356,103,98.443,103,92.42
			c0-7.403,6.023-13.426,13.426-13.426L184,79v97h-63.212C115.959,143.631,109.486,121.129,105.809,109.997z M124.593,208
			c-0.529-5.895-1.129-11.56-1.784-17h137.38c-0.654,5.44-1.255,11.105-1.783,17H124.593z M232,223v193h-81V223H232z
			 M113.145,447.578c-5.819-1.47-10.145-6.735-10.145-13.005c0-6.024,0.945-11.938,2.809-17.578
			c6.399-19.371,21.274-73.108,21.191-153.499c0.015-14.371-0.455-27.873-1.262-40.496H136v196.021
			C123.627,426.351,115.9,437.528,113.145,447.578z M128.864,448c2.591-5.826,7.968-12.509,16.466-17h92.341
			c8.498,4.491,13.874,11.174,16.466,17H128.864z M277.192,416.995c1.863,5.639,2.808,11.553,2.808,17.578
			c0,6.27-4.326,11.535-10.145,13.005c-2.755-10.05-10.482-21.227-22.855-28.557V223h10.262c-0.807,12.618-1.276,26.115-1.262,40.48
			C255.918,343.892,270.793,397.625,277.192,416.995z M266.574,78.994c7.403,0,13.426,6.023,13.426,13.426
			c0,6.024-0.945,11.938-2.808,17.577c-3.678,11.132-10.152,33.634-14.98,66.003H199V79L266.574,78.994z M360,48h-17V23.5
			c0-4.687,3.813-8.5,8.5-8.5s8.5,3.813,8.5,8.5V48z"/>
	</g>
</g>
<g>
</g>
<g>
</g>
<g>
</g>
<g>
</g>
<g>
</g>
<g>
</g>
<g>
</g>
<g>
</g>
<g>
</g>
<g>
</g>
<g>
</g>
<g>
</g>
<g>
</g>
<g>
</g>
<g>
</g>
</svg>
