<?xml version="1.0" encoding="iso-8859-1"?>
<!-- Generator: Adobe Illustrator 19.0.0, SVG Export Plug-In . SVG Version: 6.00 Build 0)  -->
<svg version="1.1" id="Layer_1" xmlns="http://www.w3.org/2000/svg" xmlns:xlink="http://www.w3.org/1999/xlink" x="0px" y="0px"
	 viewBox="0 0 447 447" style="enable-background:new 0 0 447 447;" xml:space="preserve">
<g>
	<g>
		<g>
			<path d="M381.539,65.462C339.325,23.248,283.199,0,223.5,0C163.801,0,107.675,23.248,65.461,65.462
				C23.248,107.675,0,163.801,0,223.5c0,59.699,23.248,115.825,65.461,158.038C107.675,423.752,163.801,447,223.5,447
				c59.699,0,115.825-23.248,158.039-65.462C423.752,339.325,447,283.199,447,223.5C447,163.801,423.752,107.675,381.539,65.462z
				 M223.5,432C108.533,432,15,338.468,15,223.5S108.533,15,223.5,15S432,108.532,432,223.5S338.467,432,223.5,432z"/>
			<path d="M311.972,183.003c0.307,0,0.618-0.02,0.93-0.058c4.111-0.509,7.031-4.254,6.522-8.364
				c-0.282-2.275-0.424-4.646-0.424-7.046c0-18.59,8.368-29.052,13.369-35.304c0.135-0.169,0.263-0.344,0.383-0.524
				c1.68-2.52,1.672-5.852-0.008-8.371c-2.297-3.446-6.954-4.377-10.4-2.08c-0.888,0.592-1.608,1.34-2.15,2.184
				C314.636,130.404,304,144.342,304,167.535c0,3.014,0.181,6.004,0.538,8.888C305.008,180.221,308.24,183.003,311.972,183.003z"/>
			<path d="M223.5,32C117.907,32,32,117.906,32,223.5S117.907,415,223.5,415S415,329.094,415,223.5S329.093,32,223.5,32z M223.5,47
				c42.718,0,81.938,15.258,112.503,40.606c0.031,12.566,5.356,19.235,9.639,24.592c3.691,4.618,6.358,7.955,6.358,15.334
				c0,7.37-2.667,10.703-6.357,15.317c-4.296,5.37-9.643,12.055-9.643,24.687c0,12.625,5.348,19.305,9.646,24.672
				c2.146,2.68,3.94,4.932,5.07,7.792H210.607L104.176,93.569C135.617,64.671,177.531,47,223.5,47z M352,215v17H242.607l-17-17H352z
				 M221.393,232H159v-17h45.393L221.393,232z M223.5,400C126.178,400,47,320.822,47,223.5c0-45.969,17.671-87.883,46.569-119.324
				L189.393,200H87.5c-4.142,0-7.5,3.357-7.5,7.5v32c0,4.143,3.358,7.5,7.5,7.5h148.893l106.431,106.431
				C311.383,382.329,269.469,400,223.5,400z M144,215v17H95v-17H144z M353.431,342.824L257.607,247H359.5c4.142,0,7.5-3.357,7.5-7.5
				v-32c0,0,0-0.003,0-0.005c-0.003-12.618-5.349-19.296-9.645-24.662c-3.689-4.607-6.354-7.938-6.354-15.297
				c0-7.37,2.667-10.703,6.357-15.317c4.296-5.37,9.643-12.055,9.643-24.687c0-2.865-0.286-5.411-0.761-7.719
				C387.459,148.944,400,184.783,400,223.5C400,269.469,382.329,311.383,353.431,342.824z"/>
		</g>
	</g>
</g>
<g>
</g>
<g>
</g>
<g>
</g>
<g>
</g>
<g>
</g>
<g>
</g>
<g>
</g>
<g>
</g>
<g>
</g>
<g>
</g>
<g>
</g>
<g>
</g>
<g>
</g>
<g>
</g>
<g>
</g>
</svg>
