<?xml version="1.0" encoding="iso-8859-1"?>
<!-- Generator: Adobe Illustrator 19.0.0, SVG Export Plug-In . SVG Version: 6.00 Build 0)  -->
<svg version="1.1" id="Layer_1" xmlns="http://www.w3.org/2000/svg" xmlns:xlink="http://www.w3.org/1999/xlink" x="0px" y="0px"
	 viewBox="0 0 463 463" style="enable-background:new 0 0 463 463;" xml:space="preserve">
<g>
	<g>
		<g>
			<path d="M327.5,0h-192C113.72,0,96,17.72,96,39.5v142.67c0,27.592,0.963,55.544,2.861,83.078l12.129,175.868
				C111.836,453.388,122.135,463,134.435,463h194.131c12.3,0,22.598-9.612,23.445-21.884l12.129-175.868
				c1.898-27.529,2.861-55.481,2.861-83.078V39.5C367,17.72,349.28,0,327.5,0z M312,448H151v-16.5c0-0.275,0.224-0.5,0.5-0.5h160
				c0.276,0,0.5,0.225,0.5,0.5V448z M352,182.17c0,27.254-0.951,54.858-2.826,82.047l-12.129,175.868
				c-0.306,4.438-4.031,7.915-8.48,7.915H327v-16.5c0-8.547-6.953-15.5-15.5-15.5h-160c-8.547,0-15.5,6.953-15.5,15.5V448h-1.565
				c-4.449,0-8.173-3.477-8.479-7.915l-12.129-175.868C111.951,237.023,111,209.419,111,182.17V39.5c0-13.51,10.991-24.5,24.5-24.5
				h192c13.509,0,24.5,10.99,24.5,24.5V182.17z"/>
			<path d="M167.5,240c-12.958,0-23.5,10.542-23.5,23.5s10.542,23.5,23.5,23.5s23.5-10.542,23.5-23.5S180.458,240,167.5,240z
				 M167.5,272c-4.687,0-8.5-3.813-8.5-8.5s3.813-8.5,8.5-8.5s8.5,3.813,8.5,8.5S172.187,272,167.5,272z"/>
			<path d="M231.5,240c-12.958,0-23.5,10.542-23.5,23.5s10.542,23.5,23.5,23.5s23.5-10.542,23.5-23.5S244.458,240,231.5,240z
				 M231.5,272c-4.687,0-8.5-3.813-8.5-8.5s3.813-8.5,8.5-8.5s8.5,3.813,8.5,8.5S236.187,272,231.5,272z"/>
			<path d="M295.5,240c-12.958,0-23.5,10.542-23.5,23.5s10.542,23.5,23.5,23.5s23.5-10.542,23.5-23.5S308.458,240,295.5,240z
				 M295.5,272c-4.687,0-8.5-3.813-8.5-8.5s3.813-8.5,8.5-8.5s8.5,3.813,8.5,8.5S300.187,272,295.5,272z"/>
			<path d="M167.5,296c-12.958,0-23.5,10.542-23.5,23.5s10.542,23.5,23.5,23.5s23.5-10.542,23.5-23.5S180.458,296,167.5,296z
				 M167.5,328c-4.687,0-8.5-3.813-8.5-8.5s3.813-8.5,8.5-8.5s8.5,3.813,8.5,8.5S172.187,328,167.5,328z"/>
			<path d="M231.5,296c-12.958,0-23.5,10.542-23.5,23.5s10.542,23.5,23.5,23.5s23.5-10.542,23.5-23.5S244.458,296,231.5,296z
				 M231.5,328c-4.687,0-8.5-3.813-8.5-8.5s3.813-8.5,8.5-8.5s8.5,3.813,8.5,8.5S236.187,328,231.5,328z"/>
			<path d="M295.5,296c-12.958,0-23.5,10.542-23.5,23.5s10.542,23.5,23.5,23.5s23.5-10.542,23.5-23.5S308.458,296,295.5,296z
				 M295.5,328c-4.687,0-8.5-3.813-8.5-8.5s3.813-8.5,8.5-8.5s8.5,3.813,8.5,8.5S300.187,328,295.5,328z"/>
			<path d="M167.5,352c-12.958,0-23.5,10.542-23.5,23.5s10.542,23.5,23.5,23.5s23.5-10.542,23.5-23.5S180.458,352,167.5,352z
				 M167.5,384c-4.687,0-8.5-3.813-8.5-8.5s3.813-8.5,8.5-8.5s8.5,3.813,8.5,8.5S172.187,384,167.5,384z"/>
			<path d="M231.5,352c-12.958,0-23.5,10.542-23.5,23.5s10.542,23.5,23.5,23.5s23.5-10.542,23.5-23.5S244.458,352,231.5,352z
				 M231.5,384c-4.687,0-8.5-3.813-8.5-8.5s3.813-8.5,8.5-8.5s8.5,3.813,8.5,8.5S236.187,384,231.5,384z"/>
			<path d="M295.5,352c-12.958,0-23.5,10.542-23.5,23.5s10.542,23.5,23.5,23.5s23.5-10.542,23.5-23.5S308.458,352,295.5,352z
				 M295.5,384c-4.687,0-8.5-3.813-8.5-8.5s3.813-8.5,8.5-8.5s8.5,3.813,8.5,8.5S300.187,384,295.5,384z"/>
			<path d="M311.5,56h-160C138.542,56,128,66.542,128,79.5v112c0,12.958,10.542,23.5,23.5,23.5h160c12.958,0,23.5-10.542,23.5-23.5
				v-112C335,66.542,324.458,56,311.5,56z M176,200h-24.5c-4.687,0-8.5-3.813-8.5-8.5v-8.525c0.166,0.011,0.331,0.025,0.5,0.025H176
				V200z M224,200h-33v-17h33V200z M272,200h-33v-17h33V200z M320,191.5c0,4.687-3.813,8.5-8.5,8.5H287v-17h32.5
				c0.169,0,0.334-0.014,0.5-0.025V191.5z M320,168.025c-0.166-0.011-0.331-0.025-0.5-0.025h-176c-0.169,0-0.334,0.014-0.5,0.025
				V79.5c0-4.687,3.813-8.5,8.5-8.5h160c4.687,0,8.5,3.813,8.5,8.5V168.025z"/>
		</g>
	</g>
</g>
<g>
</g>
<g>
</g>
<g>
</g>
<g>
</g>
<g>
</g>
<g>
</g>
<g>
</g>
<g>
</g>
<g>
</g>
<g>
</g>
<g>
</g>
<g>
</g>
<g>
</g>
<g>
</g>
<g>
</g>
</svg>
