<?xml version="1.0" encoding="iso-8859-1"?>
<!-- Generator: Adobe Illustrator 19.0.0, SVG Export Plug-In . SVG Version: 6.00 Build 0)  -->
<svg version="1.1" id="Layer_1" xmlns="http://www.w3.org/2000/svg" xmlns:xlink="http://www.w3.org/1999/xlink" x="0px" y="0px"
	 viewBox="0 0 463 463" style="enable-background:new 0 0 463 463;" xml:space="preserve">
<g>
	<g>
		<g>
			<path d="M439.5,96h-416C10.542,96,0,106.542,0,119.5v224C0,356.458,10.542,367,23.5,367h416c12.958,0,23.5-10.542,23.5-23.5v-224
				C463,106.542,452.458,96,439.5,96z M448,343.5c0,4.687-3.813,8.5-8.5,8.5h-416c-4.687,0-8.5-3.813-8.5-8.5v-224
				c0-4.687,3.813-8.5,8.5-8.5h416c4.687,0,8.5,3.813,8.5,8.5V343.5z"/>
			<path d="M111.5,144c-4.142,0-7.5,3.357-7.5,7.5V184h-9v-32.5c0-4.143-3.358-7.5-7.5-7.5c-4.142,0-7.5,3.357-7.5,7.5V184h-9v-32.5
				c0-4.143-3.358-7.5-7.5-7.5c-4.142,0-7.5,3.357-7.5,7.5v48c0,12.958,10.542,23.5,23.5,23.5H80v88.5c0,4.143,3.358,7.5,7.5,7.5
				c4.142,0,7.5-3.357,7.5-7.5V223h0.5c12.958,0,23.5-10.542,23.5-23.5v-48C119,147.357,115.642,144,111.5,144z M104,199.5
				c0,4.687-3.813,8.5-8.5,8.5h-16c-4.687,0-8.5-3.813-8.5-8.5V199h33V199.5z"/>
			<path d="M167.975,157.789C166.851,149.928,160.017,144,152.06,144c-8.855,0-16.06,7.204-16.06,16.06V311.5
				c0,4.143,3.358,7.5,7.5,7.5c4.142,0,7.5-3.357,7.5-7.5V271h15.276c4.496,0,8.764-1.948,11.709-5.344
				c2.945-3.396,4.271-7.897,3.635-12.349L167.975,157.789z M166.653,255.828C166.504,256,166.338,256,166.276,256H151v-95.94
				c0-0.584,0.476-1.06,1.076-1.06c0.524,0,0.975,0.392,1.049,0.91l13.646,95.519C166.779,255.49,166.803,255.655,166.653,255.828z"
				/>
			<path d="M383.5,143.999h-136c-12.958,0-23.5,10.542-23.5,23.5s10.542,23.5,23.5,23.5h136c12.958,0,23.5-10.542,23.5-23.5
				S396.458,143.999,383.5,143.999z M383.5,175.999h-136c-4.687,0-8.5-3.813-8.5-8.5c0-4.687,3.813-8.5,8.5-8.5h136
				c4.687,0,8.5,3.813,8.5,8.5C392,172.186,388.187,175.999,383.5,175.999z"/>
			<path d="M399.5,208h-168c-4.142,0-7.5,3.357-7.5,7.5s3.358,7.5,7.5,7.5h168c4.142,0,7.5-3.357,7.5-7.5S403.642,208,399.5,208z"/>
			<path d="M359.5,240h-80c-4.142,0-7.5,3.357-7.5,7.5s3.358,7.5,7.5,7.5h80c4.142,0,7.5-3.357,7.5-7.5S363.642,240,359.5,240z"/>
			<path d="M359.5,304h-80c-4.142,0-7.5,3.357-7.5,7.5s3.358,7.5,7.5,7.5h80c4.142,0,7.5-3.357,7.5-7.5S363.642,304,359.5,304z"/>
			<path d="M359.5,272h-80c-4.142,0-7.5,3.357-7.5,7.5s3.358,7.5,7.5,7.5h80c4.142,0,7.5-3.357,7.5-7.5S363.642,272,359.5,272z"/>
			<path d="M247.5,240h-16c-4.142,0-7.5,3.357-7.5,7.5s3.358,7.5,7.5,7.5h16c4.142,0,7.5-3.357,7.5-7.5S251.642,240,247.5,240z"/>
			<path d="M247.5,272h-16c-4.142,0-7.5,3.357-7.5,7.5s3.358,7.5,7.5,7.5h16c4.142,0,7.5-3.357,7.5-7.5S251.642,272,247.5,272z"/>
			<path d="M247.5,304h-16c-4.142,0-7.5,3.357-7.5,7.5s3.358,7.5,7.5,7.5h16c4.142,0,7.5-3.357,7.5-7.5S251.642,304,247.5,304z"/>
		</g>
	</g>
</g>
<g>
</g>
<g>
</g>
<g>
</g>
<g>
</g>
<g>
</g>
<g>
</g>
<g>
</g>
<g>
</g>
<g>
</g>
<g>
</g>
<g>
</g>
<g>
</g>
<g>
</g>
<g>
</g>
<g>
</g>
</svg>
