<?xml version="1.0" encoding="iso-8859-1"?>
<!-- Generator: Adobe Illustrator 19.0.0, SVG Export Plug-In . SVG Version: 6.00 Build 0)  -->
<svg version="1.1" id="Layer_1" xmlns="http://www.w3.org/2000/svg" xmlns:xlink="http://www.w3.org/1999/xlink" x="0px" y="0px"
	 viewBox="0 0 463 463" style="enable-background:new 0 0 463 463;" xml:space="preserve">
<g>
	<g>
		<g>
			<path d="M453.4,209.82c-6.101-5.521-14.296-8.221-22.483-7.399L383,207.213V191.5c0-8.547-6.953-15.5-15.5-15.5h-272
				c-8.547,0-15.5,6.953-15.5,15.5v15.713l-47.916-4.792c-8.187-0.819-16.383,1.879-22.484,7.399C3.499,215.342,0,223.228,0,231.544
				c0,8.229,3.499,16.114,9.6,21.636c5.382,4.871,12.394,7.544,19.593,7.543c0.961,0,1.926-0.047,2.891-0.144L80,255.787V271.5
				c0,8.547,6.953,15.5,15.5,15.5h272c8.547,0,15.5-6.953,15.5-15.5v-15.713l47.916,4.792c0.965,0.097,1.929,0.145,2.891,0.144
				c7.198,0,14.211-2.673,19.593-7.543c6.101-5.521,9.6-13.407,9.6-21.724C463,223.228,459.501,215.342,453.4,209.82z M80,240.712
				l-49.409,4.941c-4.036,0.405-7.917-0.873-10.926-3.596C16.656,239.334,15,235.602,15,231.456c0-4.058,1.657-7.791,4.665-10.514
				c3.008-2.722,6.885-3.996,10.926-3.596L80,222.287V240.712z M368,215.466c0,0.009,0,0.018,0,0.027v32.014
				c0,0.009,0,0.018,0,0.027V271.5c0,0.275-0.224,0.5-0.5,0.5h-272c-0.276,0-0.5-0.225-0.5-0.5v-23.966c0-0.009,0-0.018,0-0.027
				v-32.014c0-0.009,0-0.018,0-0.027V191.5c0-0.275,0.224-0.5,0.5-0.5h272c0.276,0,0.5,0.225,0.5,0.5V215.466z M443.335,242.058
				c-3.008,2.723-6.885,4-10.926,3.596L383,240.713v-18.425l49.409-4.941c4.037-0.399,7.918,0.874,10.926,3.596
				c3.008,2.723,4.665,6.456,4.665,10.602C448,235.602,446.343,239.335,443.335,242.058z"/>
			<path d="M343.5,208h-16c-4.142,0-7.5,3.357-7.5,7.5s3.358,7.5,7.5,7.5h16c4.142,0,7.5-3.357,7.5-7.5S347.642,208,343.5,208z"/>
			<path d="M295.5,208h-72c-4.142,0-7.5,3.357-7.5,7.5s3.358,7.5,7.5,7.5h72c4.142,0,7.5-3.357,7.5-7.5S299.642,208,295.5,208z"/>
		</g>
	</g>
</g>
<g>
</g>
<g>
</g>
<g>
</g>
<g>
</g>
<g>
</g>
<g>
</g>
<g>
</g>
<g>
</g>
<g>
</g>
<g>
</g>
<g>
</g>
<g>
</g>
<g>
</g>
<g>
</g>
<g>
</g>
</svg>
