<?xml version="1.0" encoding="iso-8859-1"?>
<!-- Generator: Adobe Illustrator 19.0.0, SVG Export Plug-In . SVG Version: 6.00 Build 0)  -->
<svg version="1.1" id="Layer_1" xmlns="http://www.w3.org/2000/svg" xmlns:xlink="http://www.w3.org/1999/xlink" x="0px" y="0px"
	 viewBox="0 0 463 463" style="enable-background:new 0 0 463 463;" xml:space="preserve">
<g>
	<g>
		<g>
			<path d="M448.82,35h6.68c4.142,0,7.5-3.358,7.5-7.5s-3.358-7.5-7.5-7.5H15v-8.5C15,7.358,11.642,4,7.5,4S0,7.358,0,11.5v208
				c0,4.142,3.358,7.5,7.5,7.5s7.5-3.358,7.5-7.5v-60.669C31.983,185.371,61.721,203,95.5,203c33.786,0,66.062-9.696,98.671-29.643
				c4.696-2.872,9.297-5.906,13.829-9.049V212h-8.5c-12.958,0-23.5,10.542-23.5,23.5v144c0,12.958,10.542,23.5,23.5,23.5h30.35
				c12.949,33.717,45.094,56,81.65,56c36.556,0,68.701-22.283,81.65-56h30.35c12.958,0,23.5-10.542,23.5-23.5v-144
				c0-12.958-10.542-23.5-23.5-23.5H415v-97.792c2.718,0.521,5.56,0.792,8.5,0.792c25.103,0,39.5-17.313,39.5-47.5
				C463,54.966,457.984,43.559,448.82,35z M15,35h21.551C28.05,40.773,20.773,48.05,15,56.551V35z M95.5,188
				C51.112,188,15,151.888,15,107.5c0-20.104,6.985-38.408,19.669-51.54C47.914,42.248,66.183,35,87.5,35
				c21.985,0,38.836,5.952,50.085,17.689c9.271,9.674,14.388,23.41,14.415,38.689C150.673,130.281,121.795,148,95.5,148
				C73.168,148,55,129.832,55,107.5C55,88.899,72.159,75,87.5,75c16.924,0,24.5,8.29,24.5,16.505c0,4.04-0.893,9.622-5.144,13.273
				c-3.937,3.381-10.238,4.526-18.225,3.307c-4.093-0.623-7.92,2.188-8.545,6.283c-0.625,4.095,2.188,7.92,6.283,8.545
				c15.719,2.398,25.132-2.351,30.261-6.757c6.688-5.745,10.37-14.499,10.37-24.652C127,76.332,114.639,60,87.5,60
				C62.196,60,40,82.196,40,107.5c0,30.603,24.897,55.5,55.5,55.5c45.412,0,70.341-35.846,71.496-71.256
				C166.999,91.663,167,91.582,167,91.5c0-19.214-6.6-36.684-18.585-49.189c-2.56-2.671-5.361-5.105-8.381-7.311h207.207
				c-30.062,15.039-57.12,39.549-85.137,64.933C214.316,143.229,164.901,188,95.5,188z M423.5,227c4.687,0,8.5,3.813,8.5,8.5v144
				c0,4.687-3.813,8.5-8.5,8.5h-35.674c-3.276,0-6.173,2.126-7.155,5.252C371.135,423.606,343.337,444,311.5,444
				c-31.837,0-59.635-20.394-69.171-50.748c-0.982-3.125-3.879-5.252-7.155-5.252H199.5c-4.687,0-8.5-3.813-8.5-8.5v-144
				c0-4.687,3.813-8.5,8.5-8.5H423.5z M423.5,100c-13.766,0-19.045-7.939-20.676-11.353c-2.692-5.635-2.105-11.932,1.531-16.435
				c3.792-4.694,8.381-3.671,10.279-2.474c1.789,1.128,1.387,1.969,1.121,2.525c-1.787,3.737-0.207,8.214,3.53,10.002
				c3.736,1.787,8.214,0.207,10.002-3.53c3.783-7.911,1.049-16.828-6.65-21.684c-8.336-5.258-21.3-4.976-29.951,5.735
				c-7.302,9.041-8.604,21.428-3.397,32.327c2.479,5.188,6.158,9.489,10.711,12.76V212H223v-56.5c0-0.689-0.101-1.354-0.275-1.988
				c17.275-13.327,33.542-28.05,49.45-42.463C315.341,71.94,356.113,35,407.5,35c23.467,0,40.5,13.668,40.5,32.5
				C448,100,429.56,100,423.5,100z"/>
			<path d="M271.5,331h0.5v72.5c0,4.142,3.358,7.5,7.5,7.5c4.142,0,7.5-3.358,7.5-7.5V331h0.5c12.958,0,23.5-10.542,23.5-23.5v-56
				c0-4.142-3.358-7.5-7.5-7.5c-4.142,0-7.5,3.358-7.5,7.5V292h-9v-40.5c0-4.142-3.358-7.5-7.5-7.5c-4.142,0-7.5,3.358-7.5,7.5V292
				h-9v-40.5c0-4.142-3.358-7.5-7.5-7.5c-4.142,0-7.5,3.358-7.5,7.5v56C248,320.458,258.542,331,271.5,331z M263,307h33v0.5
				c0,4.687-3.813,8.5-8.5,8.5h-16c-4.687,0-8.5-3.813-8.5-8.5V307z"/>
			<path d="M335.5,411c4.142,0,7.5-3.358,7.5-7.5V363h14.462c4.707,0,9.164-2.049,12.229-5.621c3.065-3.572,4.412-8.289,3.696-12.94
				l-13.351-86.777c-1.218-7.916-7.915-13.662-15.924-13.662c-8.884,0-16.112,7.228-16.112,16.112V403.5
				C328,407.642,331.358,411,335.5,411z M343,260.112c0-0.613,0.499-1.112,1.112-1.112c0.553,0,1.015,0.396,1.099,0.942
				l13.35,86.777c0.051,0.336-0.034,0.635-0.255,0.893c-0.221,0.257-0.505,0.388-0.844,0.388H343V260.112z"/>
		</g>
	</g>
</g>
<g>
</g>
<g>
</g>
<g>
</g>
<g>
</g>
<g>
</g>
<g>
</g>
<g>
</g>
<g>
</g>
<g>
</g>
<g>
</g>
<g>
</g>
<g>
</g>
<g>
</g>
<g>
</g>
<g>
</g>
</svg>
