<?xml version="1.0" encoding="iso-8859-1"?>
<!-- Generator: Adobe Illustrator 19.0.0, SVG Export Plug-In . SVG Version: 6.00 Build 0)  -->
<svg version="1.1" id="Layer_1" xmlns="http://www.w3.org/2000/svg" xmlns:xlink="http://www.w3.org/1999/xlink" x="0px" y="0px"
	 viewBox="0 0 463 463" style="enable-background:new 0 0 463 463;" xml:space="preserve">
<g>
	<g>
		<g>
			<path d="M311.5,0h-160C129.72,0,112,17.72,112,39.5v384c0,21.78,17.72,39.5,39.5,39.5h160c21.78,0,39.5-17.72,39.5-39.5v-384
				C351,17.72,333.28,0,311.5,0z M336,423.5c0,13.51-10.991,24.5-24.5,24.5h-160c-13.509,0-24.5-10.99-24.5-24.5V399h209V423.5z
				 M336,384H127V79h209V384z M336,64H127V39.5c0-13.51,10.991-24.5,24.5-24.5h160c13.509,0,24.5,10.99,24.5,24.5V64z"/>
			<path d="M255.5,32h-48c-4.142,0-7.5,3.357-7.5,7.5s3.358,7.5,7.5,7.5h48c4.142,0,7.5-3.357,7.5-7.5S259.642,32,255.5,32z"/>
			<path d="M231.5,438c7.995,0,14.5-6.505,14.5-14.5s-6.505-14.5-14.5-14.5s-14.5,6.505-14.5,14.5S223.505,438,231.5,438z"/>
			<path d="M199.5,223h0.5v104.5c0,4.143,3.358,7.5,7.5,7.5c4.142,0,7.5-3.357,7.5-7.5V223h0.5c12.958,0,23.5-10.542,23.5-23.5v-56
				c0-4.143-3.358-7.5-7.5-7.5c-4.142,0-7.5,3.357-7.5,7.5V184h-9v-40.5c0-4.143-3.358-7.5-7.5-7.5c-4.142,0-7.5,3.357-7.5,7.5V184
				h-9v-40.5c0-4.143-3.358-7.5-7.5-7.5c-4.142,0-7.5,3.357-7.5,7.5v56C176,212.458,186.542,223,199.5,223z M191,199h33v0.5
				c0,4.687-3.813,8.5-8.5,8.5h-16c-4.687,0-8.5-3.813-8.5-8.5V199z"/>
			<path d="M263.5,335c4.142,0,7.5-3.357,7.5-7.5V279h15.438c4.444,0,8.679-1.911,11.62-5.242c2.941-3.332,4.312-7.772,3.76-12.181
				l-13.947-111.579c-0.997-7.98-7.814-13.998-15.891-13.998c-8.812,0-15.98,7.169-15.98,15.98V327.5
				C256,331.643,259.358,335,263.5,335z M271,151.98c0-0.541,0.439-0.98,1.014-0.98c0.493,0,0.911,0.369,0.973,0.858l13.947,111.58
				c0.007,0.062,0.028,0.224-0.121,0.393C286.664,264,286.5,264,286.438,264H271V151.98z"/>
		</g>
	</g>
</g>
<g>
</g>
<g>
</g>
<g>
</g>
<g>
</g>
<g>
</g>
<g>
</g>
<g>
</g>
<g>
</g>
<g>
</g>
<g>
</g>
<g>
</g>
<g>
</g>
<g>
</g>
<g>
</g>
<g>
</g>
</svg>
