<?xml version="1.0" encoding="iso-8859-1"?>
<!-- Generator: Adobe Illustrator 19.0.0, SVG Export Plug-In . SVG Version: 6.00 Build 0)  -->
<svg version="1.1" id="Layer_1" xmlns="http://www.w3.org/2000/svg" xmlns:xlink="http://www.w3.org/1999/xlink" x="0px" y="0px"
	 viewBox="0 0 463.002 463.002" style="enable-background:new 0 0 463.002 463.002;" xml:space="preserve">
<g>
	<g>
		<g>
			<path d="M353.984,167.668L302.667,20.131C298.479,8.09,287.099,0,274.314,0c-12.749,0-24.128,8.09-28.316,20.131l-51.317,147.537
				c-5.487,15.776-0.41,33.387,12.633,43.821l59.519,47.615V304h-0.5c-8.547,0-15.5,6.953-15.5,15.5v120
				c0,12.958,10.542,23.5,23.5,23.5s23.5-10.542,23.5-23.5v-120c0-8.547-6.953-15.5-15.5-15.5h-0.5v-44.896l59.52-47.615
				C354.395,201.055,359.471,183.444,353.984,167.668z M282.833,439.5c0,4.687-3.813,8.5-8.5,8.5s-8.5-3.813-8.5-8.5V351h17V439.5z
				 M282.333,319c0.275,0,0.5,0.225,0.5,0.5V336h-17v-16.5c0-0.275,0.224-0.5,0.5-0.5H282.333z M331.981,199.776l-57.649,46.119
				l-57.648-46.119c-8.09-6.473-11.239-17.396-7.836-27.181l51.317-147.537C262.258,19.042,267.944,15,274.351,15
				c6.37,0,12.056,4.042,14.149,10.059l51.317,147.537C343.22,182.381,340.071,193.304,331.981,199.776z"/>
			<path d="M314.333,176h-80c-4.142,0-7.5,3.357-7.5,7.5s3.358,7.5,7.5,7.5h80c4.142,0,7.5-3.357,7.5-7.5S318.475,176,314.333,176z"
				/>
			<path d="M133.172,271.002V271c6.167,0,11.736-3.632,14.189-9.254c7.148-16.384,30.472-75.063,30.472-142.246
				c0-79.467-24.337-114.857-25.373-116.325c-1.603-2.271-4.329-3.465-7.084-3.113c-2.756,0.354-5.09,2.203-6.065,4.805
				l-22.472,59.925c-1.331,3.55-2.006,7.271-2.006,11.061v230.094c-4.765,2.647-8,7.728-8,13.555v120
				c0,12.958,10.542,23.5,23.5,23.5s23.5-10.542,23.5-23.5v-120c0-8.547-6.953-15.5-15.5-15.5h-8.5v-33H133.172z M130.884,70.059
				l16.453-43.874c6.637,16.262,15.497,46.701,15.497,93.315c0,64.279-22.365,120.537-29.22,136.247
				c-0.091,0.209-0.29,0.253-0.441,0.253h-3.339V75.852h-0.001C129.833,73.868,130.187,71.918,130.884,70.059z M138.833,439.5
				c0,4.687-3.813,8.5-8.5,8.5c-4.687,0-8.5-3.813-8.5-8.5V351h17V439.5z M138.333,319c0.275,0,0.5,0.225,0.5,0.5V336h-17v-16.5
				c0-0.275,0.224-0.5,0.5-0.5H138.333z"/>
		</g>
	</g>
</g>
<g>
</g>
<g>
</g>
<g>
</g>
<g>
</g>
<g>
</g>
<g>
</g>
<g>
</g>
<g>
</g>
<g>
</g>
<g>
</g>
<g>
</g>
<g>
</g>
<g>
</g>
<g>
</g>
<g>
</g>
</svg>
