<?xml version="1.0" encoding="iso-8859-1"?>
<!-- Generator: Adobe Illustrator 19.0.0, SVG Export Plug-In . SVG Version: 6.00 Build 0)  -->
<svg version="1.1" id="Layer_1" xmlns="http://www.w3.org/2000/svg" xmlns:xlink="http://www.w3.org/1999/xlink" x="0px" y="0px"
	 viewBox="0 0 463 463" style="enable-background:new 0 0 463 463;" xml:space="preserve">
<g>
	<g>
		<g>
			<path d="M447.5,340.001h-34.097c1.027-2.638,1.597-5.503,1.597-8.5v-80c0-12.958-10.542-23.5-23.5-23.5h-80
				c-9.693,0-18.033,5.9-21.621,14.296c-12.961-18.309-34.29-30.296-58.379-30.296s-45.418,11.987-58.379,30.296
				c-3.588-8.397-11.928-14.296-21.621-14.296h-5.023l28.427-175.299c0.663-4.089-2.114-7.941-6.203-8.604
				c-4.09-0.663-7.941,2.114-8.604,6.203l-28.816,177.701H107.72L78.903,50.3c-0.664-4.089-4.517-6.866-8.604-6.203
				c-4.088,0.663-6.866,4.515-6.203,8.604L92.523,228H71.5C58.542,228,48,238.542,48,251.5v80c0,2.997,0.57,5.862,1.597,8.5H15.5
				C6.953,340,0,346.953,0,355.5v16c0,8.547,6.953,15.5,15.5,15.5H24v24.5c0,4.142,3.358,7.5,7.5,7.5h32c4.142,0,7.5-3.358,7.5-7.5
				V387h171.951l3.908,19.54c1.444,7.22,7.836,12.46,15.199,12.46h98.883c7.363,0,13.755-5.241,15.199-12.46l3.908-19.54H392v24.5
				c0,4.142,3.358,7.5,7.5,7.5h32c4.142,0,7.5-3.358,7.5-7.5V387h8.5c8.547,0,15.5-6.953,15.5-15.5v-16
				C463,346.954,456.047,340.001,447.5,340.001z M303,251.501c0-4.687,3.813-8.5,8.5-8.5h80c4.687,0,8.5,3.813,8.5,8.5v80
				c0,4.687-3.813,8.5-8.5,8.5h-80c-4.687,0-8.5-3.813-8.5-8.5V251.501z M289.597,340.001H275.24
				c4.77-3.701,9.058-7.989,12.759-12.759v4.259C288,334.498,288.57,337.363,289.597,340.001z M231.5,227.001
				c31.154,0,56.5,25.346,56.5,56.5s-25.346,56.5-56.5,56.5s-56.5-25.346-56.5-56.5S200.346,227.001,231.5,227.001z M174.999,331.5
				v-4.259H175c3.701,4.77,7.989,9.058,12.759,12.759h-14.357C174.429,337.362,174.999,334.497,174.999,331.5z M151.5,243.001
				c4.687,0,8.5,3.813,8.5,8.5v80c0,4.687-3.813,8.5-8.5,8.5h-25.618l-2.757-17h4.375c8.547,0,15.5-6.953,15.5-15.5v-32
				c0-8.547-6.953-15.5-15.5-15.5h-14.591l-2.757-17H151.5z M120.693,308.001l-5.352-33H127.5c0.276,0,0.5,0.224,0.5,0.5v32
				c0,0.276-0.224,0.5-0.5,0.5H120.693z M105.497,308.001H95.5c-0.276,0-0.5-0.224-0.5-0.5v-32c0-0.276,0.224-0.5,0.5-0.5h4.645
				L105.497,308.001z M63,251.501c0-4.687,3.813-8.5,8.5-8.5h23.456l2.757,17H95.5c-8.547,0-15.5,6.953-15.5,15.5v32
				c0,8.547,6.953,15.5,15.5,15.5h12.429l2.757,17H71.5c-4.687,0-8.5-3.813-8.5-8.5V251.501z M56,404.001H39v-17h17V404.001z
				 M361.432,403.599c-0.046,0.232-0.252,0.401-0.49,0.401h-98.883c-0.237,0-0.444-0.169-0.49-0.402L256.649,379h109.703
				L361.432,403.599z M424,404.001h-17v-17h17V404.001z M448,371.501c0,0.276-0.224,0.5-0.5,0.5h-64.523
				c0.126-1.89-0.461-3.771-1.677-5.255c-1.425-1.738-3.553-2.745-5.8-2.745h-128c-2.247,0-4.375,1.007-5.8,2.745
				c-1.216,1.483-1.803,3.365-1.677,5.255H15.5c-0.276,0-0.5-0.224-0.5-0.5v-16c0-0.276,0.224-0.5,0.5-0.5h432
				c0.276,0,0.5,0.224,0.5,0.5V371.501z"/>
			<path d="M335.5,323.001h32c8.547,0,15.5-6.953,15.5-15.5v-32c0-8.547-6.953-15.5-15.5-15.5h-32c-8.547,0-15.5,6.953-15.5,15.5v32
				C320,316.047,326.953,323.001,335.5,323.001z M335,285.607l3.197,3.197c1.464,1.464,3.384,2.197,5.303,2.197
				s3.839-0.732,5.303-2.197c2.929-2.929,2.929-7.678,0-10.606l-3.197-3.197H367.5c0.276,0,0.5,0.224,0.5,0.5v21.894l-3.197-3.197
				c-2.929-2.929-7.678-2.929-10.606,0c-2.929,2.929-2.929,7.678,0,10.606l3.197,3.197H335.5c-0.276,0-0.5-0.224-0.5-0.5V285.607z"
				/>
			<path d="M231.5,323.001c21.78,0,39.5-17.72,39.5-39.5c0-21.78-17.72-39.5-39.5-39.5c-21.78,0-39.5,17.72-39.5,39.5
				C192,305.281,209.72,323.001,231.5,323.001z M209.711,272.319l0.485,0.485c1.464,1.464,3.384,2.197,5.303,2.197
				c1.919,0,3.839-0.732,5.303-2.197c2.929-2.929,2.929-7.678,0-10.606l-0.485-0.485c3.355-1.729,7.155-2.712,11.182-2.712
				c13.51,0,24.501,10.99,24.501,24.5c0,4.027-0.983,7.826-2.712,11.181l-0.485-0.485c-2.93-2.929-7.678-2.928-10.607,0
				c-2.929,2.929-2.928,7.678,0,10.607l0.485,0.485c-3.355,1.729-7.155,2.712-11.182,2.712c-13.509,0-24.5-10.991-24.5-24.5
				C206.999,279.474,207.982,275.674,209.711,272.319z"/>
		</g>
	</g>
</g>
<g>
</g>
<g>
</g>
<g>
</g>
<g>
</g>
<g>
</g>
<g>
</g>
<g>
</g>
<g>
</g>
<g>
</g>
<g>
</g>
<g>
</g>
<g>
</g>
<g>
</g>
<g>
</g>
<g>
</g>
</svg>
