<?xml version="1.0" encoding="iso-8859-1"?>
<!-- Generator: Adobe Illustrator 19.0.0, SVG Export Plug-In . SVG Version: 6.00 Build 0)  -->
<svg version="1.1" id="Layer_1" xmlns="http://www.w3.org/2000/svg" xmlns:xlink="http://www.w3.org/1999/xlink" x="0px" y="0px"
	 viewBox="0 0 447 447" style="enable-background:new 0 0 447 447;" xml:space="preserve">
<g>
	<g>
		<g>
			<path d="M381.539,65.462C339.325,23.248,283.199,0,223.5,0C163.801,0,107.675,23.248,65.461,65.462
				C23.248,107.675,0,163.801,0,223.5c0,59.699,23.248,115.825,65.461,158.038C107.675,423.752,163.801,447,223.5,447
				c59.699,0,115.825-23.248,158.039-65.462C423.752,339.325,447,283.199,447,223.5C447,163.801,423.752,107.675,381.539,65.462z
				 M223.5,432C108.533,432,15,338.468,15,223.5S108.533,15,223.5,15S432,108.532,432,223.5S338.467,432,223.5,432z"/>
			<path d="M354.263,327.655l-4.446-55.019c-0.75-9.287-6.596-17.19-15.257-20.624l-27.685-10.978
				C299.916,226.257,284.886,216,267.5,216c-3.073,0-6.106,0.326-9.063,0.953l-0.221-26.255c5.61,5.152,13.085,8.303,21.284,8.303
				c6.486,0,12.519-1.972,17.535-5.345c4.956,4.241,10.76,7.654,17.031,9.944c6.293,2.299,12.757,3.43,19.083,3.43
				c10.423,0,20.469-3.072,28.732-9.051c2.481-1.794,3.622-4.917,2.882-7.889c-3.471-13.938-13.358-25.743-26.965-32.545
				c3.87-2.28,7.416-5.042,10.521-8.253c2.128-2.201,2.705-5.475,1.456-8.271c-7.179-16.079-22.683-27.654-41.473-30.962
				c-1.56-0.274-3.115-0.465-4.668-0.618c2.947-3.3,5.444-6.978,7.362-10.993c1.32-2.763,0.828-6.051-1.244-8.306
				c-11.086-12.071-28.179-17.715-45.722-15.08c-17.543,2.627-32.234,13.023-39.298,27.813c-1.32,2.763-0.827,6.051,1.244,8.306
				c8.067,8.784,19.315,14.154,31.604,15.418c-1.114,2.025-1.262,4.488-0.29,6.667c1.266,2.835,2.813,5.546,4.614,8.12
				c-5.837,3.946-10.285,9.796-12.449,16.651c-1.724-1.146-3.651-2.026-5.731-2.574l-16.854-4.436l-13.462-22.549
				c-4.532-7.591-12.823-11.896-21.637-11.227l-43.335,3.271c-0.387,0.029-0.761,0.096-1.127,0.181L122.46,95.854
				c-4.449-4.449-11.08-5.771-16.892-3.361C99.756,94.901,96,100.522,96,106.813V335.5c0,12.958,10.542,23.5,23.5,23.5h228.687
				c6.291,0,11.912-3.756,14.32-9.568c2.408-5.812,1.089-12.443-3.36-16.893L354.263,327.655z M279.5,184
				c-9.098,0-16.5-7.402-16.5-16.5s7.402-16.5,16.5-16.5c9.098,0,16.5,7.402,16.5,16.5S288.598,184,279.5,184z M348.428,188.593
				c-8.575,4.12-19.311,4.533-29.216,0.916c-4.44-1.622-8.545-3.996-12.062-6.933c2.453-4.48,3.85-9.618,3.85-15.076
				c0-0.295-0.014-0.587-0.022-0.88c5.217-0.258,10.558,0.561,15.704,2.442C336.586,172.679,344.528,179.916,348.428,188.593z
				 M305.7,124.832c11.704,2.06,21.92,8.622,27.797,17.591c-7.527,5.654-17.501,8.397-27.821,7.577
				c-5.658-8.435-15.279-14-26.177-14c-0.9,0-1.789,0.047-2.67,0.121c-1.205-1.355-2.296-2.774-3.262-4.251
				C282.154,125.448,293.996,122.773,305.7,124.832z M241.036,104.679c5.558-7.721,14.788-13.222,25.216-14.783
				c10.429-1.563,20.864,0.993,28.44,6.747c-5.558,7.721-14.789,13.221-25.216,14.783
				C259.048,112.986,248.611,110.432,241.036,104.679z M311,259.5c0-0.235-0.014-0.467-0.018-0.701l18.048,7.157
				c3.313,1.313,5.548,4.336,5.835,7.889l3.026,37.439l-31.771-31.771C309.316,273.352,311,266.501,311,259.5z M267.5,231
				c15.715,0,28.5,12.785,28.5,28.5c0,2.929-0.462,5.811-1.328,8.565l-35.746-35.746C261.677,231.453,264.56,231,267.5,231z
				 M239.907,169.968c1.85,0.487,3.152,2.163,3.169,4.076l0.359,42.785l-15.849-15.849c2.236-4.637,3.414-9.751,3.414-14.934
				c0-7.521-2.435-14.48-6.548-20.146L239.907,169.968z M216,186.046c0,1.04-0.093,2.072-0.257,3.09l-22.207-22.207
				c1.017-0.163,2.05-0.252,3.095-0.252C207.311,166.677,216,175.366,216,186.046z M192.9,132.208
				c3.101-0.229,6.03,1.282,7.628,3.959l11.417,19.124c-4.615-2.308-9.813-3.614-15.314-3.614c-5.222,0-10.303,1.173-14.936,3.413
				l-20.49-20.489L192.9,132.208z M348.648,343.691C348.521,344,348.366,344,348.187,344H119.5c-4.687,0-8.5-3.813-8.5-8.5V106.813
				c0-0.179,0-0.334,0.309-0.462c0.097-0.04,0.175-0.057,0.239-0.057c0.14,0,0.219,0.079,0.306,0.166L348.54,343.146
				C348.667,343.272,348.776,343.383,348.648,343.691z"/>
			<path d="M220.803,234.196c-2.929-2.928-7.678-2.928-10.606,0l-80,80c-2.929,2.93-2.929,7.678,0,10.607
				c1.464,1.464,3.384,2.196,5.303,2.196s3.839-0.732,5.303-2.196l80-80C223.732,241.874,223.732,237.126,220.803,234.196z"/>
			<path d="M135.5,279c1.919,0,3.839-0.732,5.303-2.196l56-56c2.929-2.93,2.929-7.678,0-10.607c-2.929-2.928-7.678-2.928-10.606,0
				l-56,56c-2.929,2.93-2.929,7.678,0,10.607C131.661,278.268,133.581,279,135.5,279z"/>
			<path d="M135.5,231c1.919,0,3.839-0.732,5.303-2.196l32-32c2.929-2.93,2.929-7.678,0-10.607c-2.929-2.928-7.678-2.928-10.606,0
				l-32,32c-2.929,2.93-2.929,7.678,0,10.607C131.661,230.268,133.581,231,135.5,231z"/>
			<path d="M135.5,183c1.919,0,3.839-0.732,5.303-2.196l8-8c2.929-2.93,2.929-7.678,0-10.607c-2.929-2.928-7.678-2.928-10.606,0
				l-8,8c-2.929,2.93-2.929,7.678,0,10.607C131.661,182.268,133.581,183,135.5,183z"/>
			<path d="M244.803,258.196c-2.929-2.928-7.678-2.928-10.606,0l-56,56c-2.929,2.93-2.929,7.678,0,10.607
				c1.464,1.464,3.384,2.196,5.303,2.196s3.839-0.732,5.303-2.196l56-56C247.732,265.874,247.732,261.126,244.803,258.196z"/>
			<path d="M258.197,282.196l-32,32c-2.929,2.93-2.929,7.678,0,10.607c1.464,1.464,3.384,2.196,5.303,2.196s3.839-0.732,5.303-2.196
				l32-32c2.929-2.93,2.929-7.678,0-10.607C265.875,279.269,261.125,279.269,258.197,282.196z"/>
			<path d="M282.197,306.196l-8,8c-2.929,2.93-2.929,7.678,0,10.607c1.464,1.464,3.384,2.196,5.303,2.196s3.839-0.732,5.303-2.196
				l8-8c2.929-2.93,2.929-7.678,0-10.607C289.875,303.269,285.125,303.269,282.197,306.196z"/>
			<path d="M188.146,102.208c1.077,0.539,2.221,0.794,3.348,0.794c2.751,0,5.4-1.52,6.714-4.147l8-16
				c1.853-3.705,0.351-8.21-3.354-10.063c-3.703-1.854-8.209-0.351-10.062,3.354l-8,16
				C182.939,95.851,184.441,100.355,188.146,102.208z"/>
			<path d="M154.197,92.804C155.661,94.268,157.581,95,159.5,95s3.839-0.732,5.303-2.196c2.929-2.93,2.929-7.678,0-10.607l-8-8
				c-2.929-2.928-7.678-2.928-10.606,0c-2.929,2.93-2.929,7.678,0,10.607L154.197,92.804z"/>
			<path d="M322.197,218.196c-2.929,2.93-2.929,7.678,0,10.607l8,8c1.464,1.464,3.384,2.196,5.303,2.196s3.839-0.732,5.303-2.196
				c2.929-2.93,2.929-7.678,0-10.607l-8-8C329.875,215.269,325.125,215.269,322.197,218.196z"/>
			<path d="M367.5,240c-4.142,0-7.5,3.357-7.5,7.5v8c0,4.143,3.358,7.5,7.5,7.5c4.142,0,7.5-3.357,7.5-7.5v-8
				C375,243.357,371.642,240,367.5,240z"/>
			<circle cx="367.5" cy="215.5" r="8"/>
		</g>
	</g>
</g>
<g>
</g>
<g>
</g>
<g>
</g>
<g>
</g>
<g>
</g>
<g>
</g>
<g>
</g>
<g>
</g>
<g>
</g>
<g>
</g>
<g>
</g>
<g>
</g>
<g>
</g>
<g>
</g>
<g>
</g>
</svg>
