<?xml version="1.0" encoding="iso-8859-1"?>
<!-- Generator: Adobe Illustrator 19.0.0, SVG Export Plug-In . SVG Version: 6.00 Build 0)  -->
<svg version="1.1" id="Layer_1" xmlns="http://www.w3.org/2000/svg" xmlns:xlink="http://www.w3.org/1999/xlink" x="0px" y="0px"
	 viewBox="0 0 463 463" style="enable-background:new 0 0 463 463;" xml:space="preserve">
<g>
	<g>
		<path d="M343,215.5c0-55.245-11.093-108.142-31.235-148.945C290.578,23.637,262.073,0,231.5,0
			c-30.572,0-59.078,23.637-80.264,66.555C131.093,107.358,120,160.255,120,215.5c0,58.96,46.003,107.371,104,111.242V368h-32.448
			c-0.021,0-0.042,0-0.063,0H183.5c-4.142,0-7.5,3.357-7.5,7.5s3.358,7.5,7.5,7.5h1.213l6.604,66.042
			c0.795,7.957,7.426,13.958,15.423,13.958h49.52c7.997,0,14.627-6,15.423-13.958L278.288,383h1.212c4.142,0,7.5-3.357,7.5-7.5
			s-3.358-7.5-7.5-7.5h-7.993c-0.019,0-0.039,0-0.058,0H239v-41.258C296.997,322.87,343,274.46,343,215.5z M263.213,383
			l-6.455,64.549c-0.025,0.258-0.24,0.451-0.498,0.451h-49.52c-0.258,0-0.472-0.193-0.498-0.45L199.788,383H263.213z M224,159.5
			v9.051c-6.739-5.346-15.25-8.551-24.5-8.551c-4.142,0-7.5,3.357-7.5,7.5s3.358,7.5,7.5,7.5c13.509,0,24.5,10.99,24.5,24.5v41.051
			c-6.739-5.346-15.25-8.551-24.5-8.551c-9.632,0-18.911,3.507-26.127,9.875c-3.106,2.74-3.402,7.479-0.661,10.586
			c2.741,3.105,7.48,3.401,10.586,0.66c4.474-3.947,10.228-6.121,16.202-6.121c13.509,0,24.5,10.99,24.5,24.5v40.21
			c-49.719-3.84-89-45.523-89-96.21c0-52.22,10.82-104.088,29.686-142.305C182.943,36.211,207.296,15,231.5,15
			c24.205,0,48.557,21.211,66.814,58.195C317.18,111.412,328,163.28,328,215.5c0,50.687-39.281,92.37-89,96.21V239.5
			c0-13.51,10.991-24.5,24.5-24.5c5.975,0,11.729,2.174,16.203,6.122c3.106,2.739,7.846,2.442,10.586-0.662
			c2.741-3.105,2.444-7.845-0.661-10.586C282.411,203.507,273.132,200,263.5,200c-9.25,0-17.761,3.205-24.5,8.551V159.5
			c0-13.51,10.991-24.5,24.5-24.5c4.142,0,7.5-3.357,7.5-7.5s-3.358-7.5-7.5-7.5C241.72,120,224,137.72,224,159.5z"/>
	</g>
</g>
<g>
</g>
<g>
</g>
<g>
</g>
<g>
</g>
<g>
</g>
<g>
</g>
<g>
</g>
<g>
</g>
<g>
</g>
<g>
</g>
<g>
</g>
<g>
</g>
<g>
</g>
<g>
</g>
<g>
</g>
</svg>
