<?xml version="1.0" encoding="iso-8859-1"?>
<!-- Generator: Adobe Illustrator 19.0.0, SVG Export Plug-In . SVG Version: 6.00 Build 0)  -->
<svg version="1.1" id="Layer_1" xmlns="http://www.w3.org/2000/svg" xmlns:xlink="http://www.w3.org/1999/xlink" x="0px" y="0px"
	 viewBox="0 0 463 463" style="enable-background:new 0 0 463 463;" xml:space="preserve">
<g>
	<g>
		<g>
			<path d="M231.5,264c-21.78,0-39.5,17.72-39.5,39.5c0,21.78,17.72,39.5,39.5,39.5c21.78,0,39.5-17.72,39.5-39.5
				C271,281.72,253.28,264,231.5,264z M231.5,328c-13.509,0-24.5-10.99-24.5-24.5s10.991-24.5,24.5-24.5
				c13.509,0,24.5,10.99,24.5,24.5S245.009,328,231.5,328z"/>
			<path d="M231.5,136c-44.741,0-86.804,17.423-118.44,49.06c-2.929,2.93-2.929,7.678,0,10.607c2.929,2.928,7.678,2.928,10.606,0
				C152.47,166.863,190.766,151,231.5,151s79.03,15.863,107.833,44.667c1.464,1.464,3.384,2.196,5.303,2.196
				s3.839-0.732,5.303-2.196c2.929-2.93,2.929-7.678,0-10.607C318.304,153.423,276.241,136,231.5,136z"/>
			<path d="M231.5,200c-27.646,0-53.637,10.766-73.186,30.314c-2.929,2.93-2.929,7.678,0,10.607c2.929,2.928,7.678,2.928,10.606,0
				C185.637,224.206,207.861,215,231.5,215c23.639,0,45.864,9.206,62.579,25.922c1.464,1.464,3.384,2.196,5.303,2.196
				s3.839-0.732,5.303-2.196c2.929-2.93,2.929-7.678,0-10.607C285.137,210.766,259.146,200,231.5,200z"/>
			<path d="M231.5,72c-61.836,0-119.971,24.08-163.695,67.805c-2.929,2.93-2.929,7.678,0,10.607
				c1.464,1.464,3.384,2.196,5.303,2.196c1.919,0,3.839-0.732,5.303-2.196C119.303,109.521,173.671,87,231.5,87
				s112.197,22.521,153.089,63.412c2.929,2.928,7.678,2.928,10.606,0c2.929-2.93,2.929-7.678,0-10.607
				C351.471,96.08,293.336,72,231.5,72z"/>
			<path d="M407.5,0h-352C24.897,0,0,24.897,0,55.5v288C0,374.103,24.897,399,55.5,399h108.894l61.803,61.804
				c1.464,1.464,3.384,2.196,5.303,2.196s3.839-0.732,5.303-2.196L298.606,399H407.5c30.603,0,55.5-24.897,55.5-55.5v-288
				C463,24.897,438.103,0,407.5,0z M448,343.5c0,22.332-18.168,40.5-40.5,40.5h-112c-1.989,0-3.897,0.79-5.303,2.196L231.5,444.894
				l-58.697-58.697c-1.406-1.406-3.314-2.196-5.303-2.196h-112C33.168,384,15,365.832,15,343.5v-288C15,33.168,33.168,15,55.5,15
				h352c22.332,0,40.5,18.168,40.5,40.5V343.5z"/>
		</g>
	</g>
</g>
<g>
</g>
<g>
</g>
<g>
</g>
<g>
</g>
<g>
</g>
<g>
</g>
<g>
</g>
<g>
</g>
<g>
</g>
<g>
</g>
<g>
</g>
<g>
</g>
<g>
</g>
<g>
</g>
<g>
</g>
</svg>
