<?xml version="1.0" encoding="iso-8859-1"?>
<!-- Generator: Adobe Illustrator 19.0.0, SVG Export Plug-In . SVG Version: 6.00 Build 0)  -->
<svg version="1.1" id="Layer_1" xmlns="http://www.w3.org/2000/svg" xmlns:xlink="http://www.w3.org/1999/xlink" x="0px" y="0px"
	 viewBox="0 0 512 512" style="enable-background:new 0 0 512 512;" xml:space="preserve">
<g>
	<g>
		<path d="M510.423,73.772L463.821,6.353c-1.66-2.403-4.396-3.836-7.317-3.836H268.14c-2.921,0-5.657,1.434-7.317,3.836
			l-46.6,67.419c-2.192,3.17-2.092,7.391,0.247,10.454l123.595,161.912c-0.14-0.007-0.278-0.021-0.42-0.021h-43.569
			c-3.686,0-6.992,2.275-8.307,5.717l-25.747,67.335c-0.388,1.014-0.587,2.091-0.587,3.177v74.28h-32.69
			c-3.017,0-5.829,1.53-7.468,4.063l-19.156,29.607H39.594c-10.575,0-20.518,4.119-27.996,11.597C4.119,449.374,0,459.316,0,469.89
			c0,21.832,17.762,39.594,39.594,39.594h416.882c4.913,0,8.895-3.982,8.895-8.895v-95.067v-83.17c0-1.086-0.199-2.162-0.587-3.177
			l-25.747-67.339c-1.316-3.443-4.622-5.717-8.309-5.717h-43.573c-0.197,0-0.388,0.017-0.581,0.03L510.176,84.226
			C512.513,81.163,512.613,76.942,510.423,73.772z M259.434,491.693h-10.542v-17.788c0-4.912-3.981-8.895-8.895-8.895
			c-4.913,0-8.894,3.982-8.894,8.895v17.788h-14.23v-17.788c0-4.912-3.981-8.895-8.895-8.895c-4.913,0-8.895,3.982-8.895,8.895
			v17.788h-14.229v-17.788c0-4.912-3.981-8.895-8.895-8.895c-4.913,0-8.894,3.982-8.894,8.895v17.788H39.594
			c-12.023,0.001-21.805-9.779-21.805-21.803c0-5.823,2.269-11.298,6.386-15.417c4.12-4.119,9.595-6.387,15.418-6.387h165.365
			c3.017,0,5.829-1.53,7.468-4.063l19.156-29.607h27.852V491.693z M328.75,491.694h-51.527V323.99l22.974-60.083h28.553V491.694z
			 M440.022,20.306l-28.279,43.059l-32.299-43.059H440.022z M394.438,69.937h-65.563l32.782-43.701L394.438,69.937z M400.612,87.726
			l-25.655,94.79c-8.536-1.32-17.29-1.29-25.812,0.085l-26.357-94.875H400.612z M343.867,20.304L311.68,63.213l-27.329-42.908
			H343.867z M267.838,27.492l27.033,42.445h-56.372L267.838,27.492z M239.52,87.726h64.802l27.679,99.629
			c-4.125,1.646-8.099,3.625-11.903,5.93L239.52,87.726z M387.155,414.415c4.913,0.001,8.894-3.981,8.894-8.893V263.907h28.556
			l22.975,60.087v81.527v86.173h-9.994v-17.788c0-4.912-3.981-8.895-8.895-8.895c-4.913,0-8.895,3.982-8.895,8.895v17.788h-14.229
			v-17.788c0-4.912-3.981-8.895-8.895-8.895s-8.895,3.982-8.895,8.895v17.788h-14.23v-17.788c0-4.912-3.981-8.895-8.895-8.895
			s-8.895,3.982-8.895,8.895v17.788h-9.222v-77.278H387.155z M346.539,396.627V257.242l8.713,11.415
			c0.326,0.427,0.697,0.81,1.087,1.166c1.625,1.481,3.748,2.332,5.982,2.332c2.773,0,5.388-1.293,7.071-3.497l8.868-11.617v139.588
			h0H346.539z M362.323,248.6l-31.357-41.078c4.478-2.528,9.237-4.502,14.23-5.886c10.971-3.042,22.839-3.079,33.832-0.116
			c5.146,1.392,10.044,3.408,14.648,6.007L362.323,248.6z M404.546,193.286c-3.962-2.398-8.108-4.445-12.417-6.132l26.911-99.428
			h66.084L404.546,193.286z M428.71,69.937l27.982-42.61l29.453,42.61H428.71z"/>
	</g>
</g>
<g>
</g>
<g>
</g>
<g>
</g>
<g>
</g>
<g>
</g>
<g>
</g>
<g>
</g>
<g>
</g>
<g>
</g>
<g>
</g>
<g>
</g>
<g>
</g>
<g>
</g>
<g>
</g>
<g>
</g>
</svg>
