<?xml version="1.0" encoding="iso-8859-1"?>
<!-- Generator: Adobe Illustrator 19.0.0, SVG Export Plug-In . SVG Version: 6.00 Build 0)  -->
<svg version="1.1" id="Layer_1" xmlns="http://www.w3.org/2000/svg" xmlns:xlink="http://www.w3.org/1999/xlink" x="0px" y="0px"
	 viewBox="0 0 511.999 511.999" style="enable-background:new 0 0 511.999 511.999;" xml:space="preserve">
<g>
	<g>
		<path d="M447.861,0H64.139C50.644,0,39.665,10.979,39.665,24.474V38v6.579v430.833v8.992c0,15.216,12.379,27.595,27.595,27.595
			h377.481c15.216,0,27.594-12.379,27.594-27.595v-8.992V44.58v-6.579V24.474C472.335,10.979,461.355,0,447.861,0z M56.514,24.474
			c0-4.204,3.42-7.625,7.625-7.625H447.86c4.204,0,7.625,3.42,7.625,7.625v5.101H56.514V24.474z M455.486,484.405
			c0,5.925-4.82,10.745-10.745,10.745H67.259c-5.924,0-10.745-4.82-10.745-10.745v-0.567h398.972V484.405z M304.815,466.987h-97.632
			V437.28c0-2.197,1.787-3.984,3.983-3.984h89.666c2.196,0,3.983,1.787,3.983,3.984V466.987z M455.486,466.987h-133.82V437.28
			c0-11.488-9.345-20.834-20.833-20.834h-89.666c-11.488,0-20.833,9.346-20.833,20.834v29.708H56.514V289.865h398.972V466.987z
			 M455.486,273.015H56.514V46.425h398.972V273.015z"/>
	</g>
</g>
<g>
	<g>
		<path d="M432.782,58.117H79.217c-4.653,0-8.425,3.772-8.425,8.425v186.356c0,4.653,3.772,8.425,8.425,8.425h353.565
			c4.654,0,8.425-3.772,8.425-8.425V66.542C441.207,61.889,437.436,58.117,432.782,58.117z M424.357,244.473H87.642V74.966h336.716
			V244.473z"/>
	</g>
</g>
<g>
	<g>
		<path d="M428.652,297.235H83.348c-4.653,0-8.425,3.772-8.425,8.425v96.841c0,4.653,3.772,8.425,8.425,8.425h345.303
			c4.654,0,8.425-3.772,8.425-8.425V305.66C437.076,301.008,433.306,297.235,428.652,297.235z M264.424,314.085h26.993v15.431
			h-26.993V314.085z M248.285,346.365h26.993v15.432h-26.993V346.365z M220.582,314.085h26.993v15.431h-26.993V314.085z
			 M91.773,346.365h8.136v15.432h-8.136V346.365z M116.05,394.077H91.773v-15.431h24.277V394.077z M116.05,329.516H91.773v-15.431
			h24.277V329.516z M116.758,346.365h26.993v15.432h-26.993V346.365z M159.892,394.077h-26.993v-15.431h26.993V394.077z
			 M159.892,329.516h-26.993v-15.431h26.993V329.516z M160.6,346.365h26.993v15.432H160.6V346.365z M203.734,394.077h-26.993
			v-15.431h26.993V394.077z M203.734,329.516h-26.993v-15.431h26.993V329.516z M204.443,346.365h26.993v15.432h-26.993V346.365z
			 M291.418,394.077h-70.835v-15.431h70.835V394.077z M292.127,346.365h26.992v15.432h-26.992V346.365z M335.259,394.077h-26.993
			v-15.431h26.993V394.077z M335.259,329.516h-26.993v-15.431h26.993V329.516z M335.968,346.365h26.993v15.432h-26.993V346.365z
			 M379.1,394.077h-26.992v-15.431H379.1V394.077z M379.1,329.516h-26.992v-15.431H379.1V329.516z M395.242,361.797h-15.431v-15.432
			h15.431V361.797z M420.227,394.077H395.95v-15.431h24.277V394.077z M420.227,361.797h-8.136v-15.432h8.136V361.797z
			 M420.227,329.516H395.95v-15.431h24.277V329.516z"/>
	</g>
</g>
<g>
	<g>
		<path d="M401.174,88.075c-0.508-4.625-4.645-7.965-9.292-7.459l-62.706,6.858H183.429l-62.707-6.858
			c-4.634-0.507-8.785,2.834-9.291,7.459c-0.505,4.626,2.833,8.785,7.459,9.291l55.653,6.087v80.83l-45.752,32.027
			c-3.812,2.668-4.739,7.922-2.07,11.733c1.639,2.341,4.253,3.594,6.908,3.594c1.668,0,3.354-0.494,4.823-1.523l47.17-33.019h76.299
			c4.654,0,8.425-3.772,8.425-8.425v-54.738h21.64v54.738c0,4.653,3.771,8.425,8.425,8.425h26.569l47.17,33.019
			c1.47,1.03,3.155,1.523,4.823,1.523c2.657,0,5.271-1.252,6.909-3.594c2.668-3.811,1.741-9.065-2.071-11.733l-45.752-32.027v-80.83
			l55.654-6.087C398.34,96.86,401.68,92.701,401.174,88.075z M321.21,180.245h-12.375v-54.738c0.001-4.653-3.77-8.425-8.424-8.425
			h-38.49c-4.654,0-8.425,3.772-8.425,8.425v54.738h-62.105v-75.921H321.21V180.245z"/>
	</g>
</g>
<g>
	<g>
		<path d="M156.9,117.102l-28.62-1.974c-4.638-0.315-8.664,3.183-8.985,7.825c-0.32,4.641,3.183,8.664,7.825,8.985l20.775,1.432
			v27.536l-27.108,14.402c-4.109,2.183-5.67,7.283-3.488,11.392c1.514,2.85,4.43,4.474,7.447,4.474c1.333,0,2.686-0.318,3.945-0.986
			l31.583-16.779c2.752-1.463,4.472-4.324,4.472-7.441v-40.463C164.745,121.079,161.317,117.406,156.9,117.102z"/>
	</g>
</g>
<g>
	<g>
		<path d="M390.462,175.308l-27.11-14.402V133.37l20.775-1.432c4.643-0.32,8.146-4.343,7.826-8.985
			c-0.321-4.643-4.378-8.137-8.984-7.825l-28.62,1.974c-4.418,0.304-7.845,3.978-7.845,8.404v40.463c0,3.116,1.72,5.978,4.472,7.441
			l31.581,16.777c1.259,0.669,2.612,0.986,3.945,0.986c3.017,0,5.933-1.624,7.447-4.474
			C396.132,182.591,394.571,177.49,390.462,175.308z"/>
	</g>
</g>
<g>
</g>
<g>
</g>
<g>
</g>
<g>
</g>
<g>
</g>
<g>
</g>
<g>
</g>
<g>
</g>
<g>
</g>
<g>
</g>
<g>
</g>
<g>
</g>
<g>
</g>
<g>
</g>
<g>
</g>
</svg>
