<?xml version="1.0" encoding="iso-8859-1"?>
<!-- Generator: Adobe Illustrator 19.0.0, SVG Export Plug-In . SVG Version: 6.00 Build 0)  -->
<svg version="1.1" id="Layer_1" xmlns="http://www.w3.org/2000/svg" xmlns:xlink="http://www.w3.org/1999/xlink" x="0px" y="0px"
	 viewBox="0 0 511.998 511.998" style="enable-background:new 0 0 511.998 511.998;" xml:space="preserve">
<g>
	<g>
		<path d="M436.859,331.135c0-28.838-23.466-52.3-52.311-52.3c-0.773,0-1.577,0.017-2.409,0.051c0.612-0.564,1.192-1.12,1.738-1.666
			c9.882-9.876,15.325-23.009,15.325-36.981c0-13.971-5.442-27.107-15.323-36.987c-11.295-11.295-26.722-16.604-42.024-15.1
			l8.013-25.743l2.629,0.838c0.809,0.258,1.645,0.385,2.478,0.385c1.291,0,2.574-0.307,3.74-0.909
			c1.922-0.993,3.372-2.707,4.029-4.768l10.259-32.161c1.369-4.291-1-8.879-5.291-10.248l-12.985-4.142l28.661-83.087
			c1.89-5.479,1.499-11.349-1.099-16.531c-2.599-5.181-7.071-9.004-12.592-10.766c-5.524-1.761-11.384-1.233-16.501,1.485
			c-5.119,2.718-8.837,7.28-10.469,12.842l-24.744,84.337l-12.986-4.143c-2.062-0.657-4.298-0.469-6.219,0.523
			c-1.922,0.993-3.372,2.707-4.029,4.768l-10.259,32.161c-1.369,4.291,1,8.879,5.291,10.248l2.738,0.873l-5.163,16.584
			c-8.926-6.719-19.82-10.42-31.363-10.42c-28.838,0-52.301,23.462-52.301,52.3c0,0.774,0.017,1.579,0.052,2.412
			c-0.565-0.612-1.121-1.194-1.668-1.741c-20.387-20.386-53.568-20.387-73.967,0c-9.88,9.88-15.321,23.016-15.321,36.987
			c0,13.972,5.442,27.106,15.321,36.979c0.548,0.547,1.129,1.104,1.742,1.668c-0.834-0.034-1.637-0.051-2.412-0.051
			c-28.838,0-52.3,23.462-52.3,52.3c0,28.844,23.461,52.311,52.3,52.311c0.771,0,1.572-0.017,2.402-0.051
			c-0.61,0.561-1.187,1.113-1.732,1.657c-9.88,9.88-15.321,23.016-15.321,36.987c0,13.972,5.442,27.105,15.323,36.979
			c9.88,9.88,23.016,15.323,36.987,15.323c13.972,0,27.106-5.442,36.975-15.318c0.548-0.548,1.106-1.13,1.672-1.744
			c-0.035,0.832-0.052,1.636-0.052,2.409c0,28.844,23.462,52.311,52.301,52.311c28.843,0,52.31-23.467,52.31-52.311
			c0-0.77-0.017-1.57-0.051-2.4c0.561,0.609,1.112,1.185,1.656,1.729c9.882,9.88,23.017,15.323,36.988,15.323
			c13.972,0,27.106-5.442,36.977-15.32c9.882-9.876,15.325-23.01,15.325-36.981s-5.442-27.107-15.323-36.987
			c-0.544-0.544-1.121-1.096-1.73-1.657c0.828,0.034,1.63,0.051,2.4,0.051C413.392,383.446,436.859,359.98,436.859,331.135z
			 M372.344,214.786c6.801,6.8,10.546,15.84,10.546,25.455c0,9.613-3.745,18.65-10.55,25.451
			c-6.695,6.706-20.439,15.627-34.398,22.445c-4.905-9.337-11.426-17.852-19.381-25.148l17.79-57.151
			C349.026,201.939,362.82,205.26,372.344,214.786z M358.376,19.942c0.385-1.312,1.262-2.389,2.47-3.03
			c1.209-0.641,2.592-0.765,3.893-0.35c1.303,0.415,2.357,1.317,2.969,2.539c0.613,1.223,0.706,2.607,0.26,3.9l-28.786,83.447
			l-5.659-1.805L358.376,19.942z M307.81,113.561l47.175,15.048l-5.302,16.623l-2.675-0.854c-0.003,0-0.005-0.001-0.008-0.002
			l-41.808-13.336h-0.001l-2.681-0.856L307.81,113.561z M308.057,149.073l26.271,8.38l-19.175,61.598l-30.522,5.277L308.057,149.073
			z M266.905,326.608c2.278,0.726,4.612,1.087,6.936,1.086c3.582,0,7.136-0.856,10.409-2.545c5.397-2.787,9.387-7.509,11.231-13.294
			c0.215-0.676,0.399-1.36,0.549-2.054c0.698-0.42,1.37-0.874,2.028-1.346c3.728,6.928,5.733,14.73,5.733,22.68
			c0,26.357-21.443,47.799-47.799,47.799c-26.355,0-47.799-21.442-47.799-47.799c0-24.459,18.47-44.674,42.193-47.458
			c-0.051,4.236,0.79,8.445,2.504,12.365c-0.278,0.65-0.525,1.313-0.742,1.989C248.34,309.978,254.96,322.798,266.905,326.608z
			 M293.621,288.226c-1.272,3.988-4.254,7.147-8.178,8.665c-3.228,1.248-5.317,4.398-5.209,7.859
			c0.023,0.752-0.073,1.473-0.289,2.147c-0.521,1.636-1.651,2.972-3.176,3.76c-1.527,0.787-3.271,0.934-4.906,0.412
			c-3.378-1.078-5.251-4.704-4.174-8.08c0.215-0.675,0.556-1.322,1.011-1.923c2.089-2.759,2.208-6.534,0.301-9.419
			c-2.321-3.511-2.923-7.812-1.634-11.854l11.821-37.972l30.521-5.278L293.621,288.226z M255.994,166.591
			c9.995,0,19.287,4.024,26.057,11.157l-19.034,61.141c-2.329-0.175-4.675-0.264-7.023-0.264c-9.583,0-18.828,1.466-27.527,4.182
			c-5.049-14.684-8.465-30.727-8.465-40.227C220.004,182.737,236.149,166.591,255.994,166.591z M129.098,240.24
			c0-9.614,3.745-18.655,10.543-25.453c14.039-14.031,36.875-14.03,50.902-0.002c6.719,6.719,15.657,20.496,22.476,34.467
			c-16.57,8.732-30.176,22.339-38.909,38.909c-13.972-6.819-27.749-15.756-34.469-22.476
			C132.843,258.891,129.098,249.854,129.098,240.24z M127.44,367.136c-19.845,0-35.99-16.15-35.99-36.001
			c0-19.845,16.146-35.99,35.99-35.99c9.5,0,25.542,3.415,40.228,8.465c-2.717,8.699-4.182,17.944-4.182,27.525
			s1.465,18.828,4.181,27.527C152.969,363.717,136.926,367.136,127.44,367.136z M190.543,447.488
			c-6.795,6.799-15.831,10.544-25.444,10.544c-9.615,0-18.654-3.745-25.456-10.547c-6.799-6.795-10.543-15.831-10.543-25.444
			c0-9.615,3.745-18.655,10.54-25.451c6.737-6.728,20.514-15.666,34.469-22.477c8.732,16.574,22.34,30.184,38.911,38.917
			C206.198,427.006,197.261,440.778,190.543,447.488z M255.994,495.691c-19.846,0-35.991-16.15-35.991-36.001
			c0-9.494,3.415-25.532,8.465-40.216c8.699,2.717,17.944,4.183,27.527,4.183s18.828-1.466,27.527-4.182
			c5.054,14.698,8.473,30.736,8.473,40.214C291.995,479.541,275.845,495.691,255.994,495.691z M255.994,407.347
			c-42.017,0-76.199-34.188-76.199-76.21c0-42.016,34.183-76.199,76.199-76.199c0.673,0,1.345,0.021,2.016,0.038l-3.766,12.098
			c-34.542,0.933-62.359,29.301-62.359,64.064c0,35.35,28.758,64.108,64.108,64.108c35.35,0,64.108-28.759,64.108-64.108
			c0-13.088-4.039-25.885-11.456-36.573c0.178-0.476,0.373-0.945,0.529-1.433l3.889-12.493
			c12.276,13.836,19.139,31.671,19.139,50.499C332.204,373.158,298.017,407.347,255.994,407.347z M382.891,422.039
			c0,9.613-3.745,18.65-10.547,25.448c-6.795,6.799-15.831,10.544-25.444,10.544c-9.615,0-18.654-3.745-25.454-10.545
			c-6.724-6.725-15.661-20.496-22.474-34.455c16.575-8.733,30.186-22.344,38.919-38.919c13.96,6.814,27.732,15.751,34.455,22.474
			C379.145,403.385,382.891,412.425,382.891,422.039z M344.333,358.663c2.716-8.699,4.182-17.945,4.182-27.527
			c0-9.471-1.433-18.733-4.167-27.532c14.68-5.045,30.709-8.458,40.199-8.458c19.851,0,36.001,16.146,36.001,35.99
			c0,19.851-16.151,36.001-36.001,36.001C375.067,367.136,359.028,363.717,344.333,358.663z"/>
	</g>
</g>
<g>
</g>
<g>
</g>
<g>
</g>
<g>
</g>
<g>
</g>
<g>
</g>
<g>
</g>
<g>
</g>
<g>
</g>
<g>
</g>
<g>
</g>
<g>
</g>
<g>
</g>
<g>
</g>
<g>
</g>
</svg>
