<?xml version="1.0" encoding="iso-8859-1"?>
<!-- Generator: Adobe Illustrator 19.0.0, SVG Export Plug-In . SVG Version: 6.00 Build 0)  -->
<svg version="1.1" id="Layer_1" xmlns="http://www.w3.org/2000/svg" xmlns:xlink="http://www.w3.org/1999/xlink" x="0px" y="0px"
	 viewBox="0 0 512 512" style="enable-background:new 0 0 512 512;" xml:space="preserve">
<g>
	<g>
		<path d="M297.846,0H11.701C6.489,0,2.264,4.225,2.264,9.437v375.166c0,5.212,4.225,9.437,9.437,9.437h286.144
			c5.212,0,9.437-4.225,9.437-9.437V9.437C307.283,4.225,303.058,0,297.846,0z M288.407,375.166H21.138v0V133.95h267.269V375.166z
			 M288.409,115.076H21.138V18.875h267.27V115.076z"/>
	</g>
</g>
<g>
	<g>
		<path d="M500.299,0H339.456c-5.212,0-9.437,4.225-9.437,9.437v95.803c0,5.212,4.225,9.437,9.437,9.437h160.843
			c5.212,0,9.437-4.225,9.437-9.437V9.437C509.736,4.225,505.511,0,500.299,0z M490.862,95.803H348.893V18.875h141.968V95.803z"/>
	</g>
</g>
<g>
	<g>
		<path d="M500.299,134.045H339.456c-5.212,0-9.437,4.225-9.437,9.437v95.803c0,5.212,4.225,9.437,9.437,9.437h160.843
			c5.212,0,9.437-4.225,9.437-9.437v-95.803C509.736,138.27,505.511,134.045,500.299,134.045z M490.862,229.849H348.893v-76.928
			h141.968V229.849z"/>
	</g>
</g>
<g>
	<g>
		<path d="M500.299,268.764H339.456c-5.212,0-9.437,4.225-9.437,9.437v224.362c0,5.212,4.225,9.437,9.437,9.437h160.843
			c5.212,0,9.437-4.225,9.437-9.437V278.201C509.736,272.989,505.511,268.764,500.299,268.764z M490.862,493.125H348.893V287.638
			h141.968V493.125z"/>
	</g>
</g>
<g>
	<g>
		<path d="M297.662,424.446c-1.592-3.216-4.87-5.252-8.46-5.252H81.718c-1.871,0-3.701,0.556-5.256,1.599l-55.136,36.966
			c-2.614,1.753-4.181,4.692-4.181,7.838c0,3.146,1.568,6.086,4.181,7.838l55.136,36.966c1.554,1.042,3.384,1.599,5.256,1.599
			h207.485c3.59,0,6.868-2.036,8.46-5.253C310.406,480.979,310.406,450.213,297.662,424.446z M51.792,471.139l-8.263-5.54
			l8.263-5.542c0.395,1.804,0.601,3.659,0.601,5.539C52.394,467.478,52.187,469.333,51.792,471.139z M76.862,487.945l-8.748-5.865
			c2.071-5.206,3.156-10.779,3.156-16.484c0-5.701-1.085-11.273-3.156-16.48l8.749-5.865
			C80.892,457.848,80.892,473.346,76.862,487.945z M240.549,493.125H95.003c1.648-5.935,2.762-11.989,3.322-18.091h146.906
			C244.446,481.208,242.881,487.29,240.549,493.125z M98.325,456.16c-0.56-6.102-1.674-12.155-3.322-18.091h145.546
			c2.333,5.835,3.897,11.918,4.682,18.091H98.325z M283.087,493.125h-22.52c5.513-17.879,5.513-37.177,0-55.056h22.52
			C290.116,455.658,290.116,475.536,283.087,493.125z"/>
	</g>
</g>
<g>
	<g>
		<path d="M419.878,23.507c-18.655,0-33.832,15.178-33.832,33.832s15.177,33.832,33.832,33.832
			c18.655,0,33.832-15.178,33.832-33.832S438.532,23.507,419.878,23.507z M419.878,72.297c-8.247,0-14.958-6.711-14.958-14.958
			s6.709-14.958,14.958-14.958c8.247,0,14.958,6.711,14.958,14.958S428.124,72.297,419.878,72.297z"/>
	</g>
</g>
<g>
	<g>
		<path d="M387.241,161.548c-16.637,0-30.173,13.536-30.173,30.173c0,16.637,13.534,30.173,30.173,30.173
			c16.637,0,30.173-13.536,30.173-30.173C417.414,175.083,403.878,161.548,387.241,161.548z M387.241,203.019
			c-6.23,0-11.298-5.068-11.298-11.298s5.067-11.298,11.298-11.298c6.23,0,11.298,5.069,11.298,11.298
			S393.47,203.019,387.241,203.019z"/>
	</g>
</g>
<g>
	<g>
		<path d="M419.878,296.693c-18.655,0-33.832,15.178-33.832,33.832s15.177,33.832,33.832,33.832
			c18.655,0,33.832-15.178,33.832-33.832C453.71,311.871,438.532,296.693,419.878,296.693z M419.878,345.484
			c-8.247,0-14.958-6.711-14.958-14.958s6.709-14.958,14.958-14.958c8.247,0,14.958,6.711,14.958,14.958
			S428.124,345.484,419.878,345.484z"/>
	</g>
</g>
<g>
	<g>
		<path d="M65.794,32.792c-18.656,0-33.832,15.178-33.832,33.832c0,18.654,15.177,33.831,33.832,33.831
			c18.655,0,33.832-15.178,33.832-33.832S84.448,32.792,65.794,32.792z M65.794,81.582c-8.248,0-14.958-6.711-14.958-14.958
			c0-8.247,6.709-14.958,14.958-14.958c8.247,0,14.958,6.711,14.958,14.958S74.041,81.582,65.794,81.582z"/>
	</g>
</g>
<g>
	<g>
		<path d="M467.047,168.142h-25.454c-5.212,0-9.437,4.225-9.437,9.437c0,5.212,4.225,9.437,9.437,9.437h25.454
			c5.212,0,9.437-4.225,9.437-9.437C476.484,172.368,472.259,168.142,467.047,168.142z"/>
	</g>
</g>
<g>
	<g>
		<path d="M467.047,195.751h-25.454c-5.212,0-9.437,4.225-9.437,9.437c0,5.212,4.225,9.437,9.437,9.437h25.454
			c5.212,0,9.437-4.225,9.437-9.437C476.484,199.977,472.259,195.751,467.047,195.751z"/>
	</g>
</g>
<g>
	<g>
		<path d="M462.079,379.005h-84.404c-5.212,0-9.437,4.225-9.437,9.437c0,5.212,4.225,9.437,9.437,9.437h84.404
			c5.212,0,9.437-4.225,9.437-9.437C471.516,383.23,467.291,379.005,462.079,379.005z"/>
	</g>
</g>
<g>
	<g>
		<path d="M462.079,414.509h-84.404c-5.212,0-9.437,4.225-9.437,9.437c0,5.212,4.225,9.437,9.437,9.437h84.404
			c5.212,0,9.437-4.225,9.437-9.437C471.516,418.735,467.291,414.509,462.079,414.509z"/>
	</g>
</g>
<g>
	<g>
		<path d="M462.079,450.012h-84.404c-5.212,0-9.437,4.225-9.437,9.437c0,5.212,4.225,9.437,9.437,9.437h84.404
			c5.212,0,9.437-4.225,9.437-9.437C471.516,454.237,467.291,450.012,462.079,450.012z"/>
	</g>
</g>
<g>
	<g>
		<path d="M263.293,195.459H46.255c-5.212,0-9.437,4.225-9.437,9.437c0,5.212,4.225,9.437,9.437,9.437h217.038
			c5.212,0,9.437-4.225,9.437-9.437C272.73,199.685,268.505,195.459,263.293,195.459z"/>
	</g>
</g>
<g>
	<g>
		<path d="M263.293,235.652H46.255c-5.212,0-9.437,4.225-9.437,9.437c0,5.212,4.225,9.437,9.437,9.437h217.038
			c5.212,0,9.437-4.225,9.437-9.437C272.73,239.878,268.505,235.652,263.293,235.652z"/>
	</g>
</g>
<g>
	<g>
		<path d="M263.293,275.844H46.255c-5.212,0-9.437,4.225-9.437,9.437c0,5.212,4.225,9.437,9.437,9.437h217.038
			c5.212,0,9.437-4.225,9.437-9.437C272.73,280.07,268.505,275.844,263.293,275.844z"/>
	</g>
</g>
<g>
	<g>
		<path d="M263.293,334.794h-34.721c-5.212,0-9.437,4.225-9.437,9.437c0,5.212,4.225,9.437,9.437,9.437h34.721
			c5.212,0,9.437-4.225,9.437-9.437C272.73,339.019,268.505,334.794,263.293,334.794z"/>
	</g>
</g>
<g>
	<g>
		<path d="M203.117,155.267H106.43c-5.212,0-9.437,4.225-9.437,9.437c0,5.212,4.225,9.437,9.437,9.437h96.688
			c5.212,0,9.437-4.225,9.437-9.437C212.555,159.493,208.329,155.267,203.117,155.267z"/>
	</g>
</g>
<g>
</g>
<g>
</g>
<g>
</g>
<g>
</g>
<g>
</g>
<g>
</g>
<g>
</g>
<g>
</g>
<g>
</g>
<g>
</g>
<g>
</g>
<g>
</g>
<g>
</g>
<g>
</g>
<g>
</g>
</svg>
