<?xml version="1.0" encoding="iso-8859-1"?>
<!-- Generator: Adobe Illustrator 19.0.0, SVG Export Plug-In . SVG Version: 6.00 Build 0)  -->
<svg version="1.1" id="Layer_1" xmlns="http://www.w3.org/2000/svg" xmlns:xlink="http://www.w3.org/1999/xlink" x="0px" y="0px"
	 viewBox="0 0 512 512" style="enable-background:new 0 0 512 512;" xml:space="preserve">
<g>
	<g>
		<path d="M300.547,176.791c-36.727,0-66.607,29.88-66.607,66.607s29.88,66.607,66.607,66.607s66.607-29.88,66.607-66.607
			S337.274,176.791,300.547,176.791z M300.547,291.242c-10.997,0-21.132-3.739-29.222-10.001c8.361-6.166,18.526-9.588,29.098-9.614
			c0.044,0,0.088,0.004,0.133,0.004c0.041,0,0.083-0.003,0.124-0.003c10.569,0.028,20.73,3.45,29.089,9.614
			C321.679,287.503,311.545,291.242,300.547,291.242z M289.374,241.684c0-6.166,5.016-11.182,11.182-11.182
			c6.166,0,11.182,5.016,11.182,11.182c0,6.138-4.971,11.133-11.099,11.178c-0.031,0-0.061-0.003-0.091-0.003
			c-0.028,0-0.054,0.003-0.081,0.003C294.343,252.813,289.374,247.82,289.374,241.684z M342.105,267.058
			c-4.992-3.856-10.47-6.995-16.288-9.324c2.961-4.643,4.685-10.148,4.685-16.051c0-16.512-13.433-29.945-29.945-29.945
			s-29.945,13.433-29.945,29.945c0,5.9,1.722,11.403,4.681,16.045c-5.823,2.329-11.305,5.471-16.302,9.329
			c-3.992-6.984-6.287-15.057-6.287-23.66c-0.001-26.379,21.461-47.843,47.842-47.843s47.844,21.463,47.844,47.844
			C348.391,252.002,346.097,260.075,342.105,267.058z"/>
	</g>
</g>
<g>
	<g>
		<path d="M334.619,0.001L63.542,0c-24.322,0-44.11,19.786-44.11,44.109V467.89c0,24.322,19.786,44.109,44.109,44.109h108.174
			c5.181,0,9.382-4.201,9.382-9.382s-4.2-9.38-9.382-9.38H99.389v-0.013c-7.39,0-13.635-4.921-13.635-10.745v-36.776h24.667
			c5.181,0,9.382-4.2,9.382-9.382c0-5.181-4.201-9.382-9.382-9.382H85.754V84.852h271.882c3.154,0,6.096-1.586,7.832-4.219
			c1.041-1.579,1.564-3.41,1.549-5.246V29.51C367.016,13.238,352.482,0.001,334.619,0.001z M38.196,44.109
			c0-13.975,11.371-25.345,25.347-25.345h5.683c-1.436,3.332-2.234,6.955-2.234,10.746v85.485H38.196V44.109z M38.196,133.758
			h28.795v28.16H38.196V133.758z M38.196,180.681h28.795v28.16H38.196V180.681z M63.542,493.236
			c-13.976,0.001-25.347-11.369-25.347-25.345V227.606h28.795v254.872c0,3.795,0.799,7.422,2.239,10.758H63.542z M348.252,66.089
			H85.754V29.51c0-5.824,6.244-10.745,13.635-10.745h235.229c7.39-0.001,13.635,4.921,13.635,10.745V66.089z"/>
	</g>
</g>
<g>
	<g>
		<path d="M243.442,34.367h-52.871c-5.181,0-9.382,4.2-9.382,9.382s4.201,9.382,9.382,9.382h52.871c5.181,0,9.382-4.201,9.382-9.382
			S248.623,34.367,243.442,34.367z"/>
	</g>
</g>
<g>
	<g>
		<path d="M422.679,99.622H141.418c-5.181,0-9.382,4.201-9.382,9.382v360.855c0,5.181,4.2,9.382,9.382,9.382h30.296
			c5.181,0,9.382-4.2,9.382-9.382s-4.2-9.382-9.382-9.382H150.8V118.385h271.879c5.181,0,9.382-4.2,9.382-9.382
			S427.861,99.622,422.679,99.622z"/>
	</g>
</g>
<g>
	<g>
		<path d="M483.185,132.39H201.926c-5.181,0-9.382,4.201-9.382,9.382v360.847c0,5.181,4.2,9.382,9.382,9.382h281.26
			c5.181,0,9.382-4.2,9.382-9.382V141.771C492.566,136.59,488.366,132.39,483.185,132.39z M473.804,493.237h-0.001H211.308V151.153
			h262.496V493.237z"/>
	</g>
</g>
<g>
	<g>
		<path d="M446.909,205.334h-57.541c-5.181,0-9.382,4.201-9.382,9.382s4.2,9.382,9.382,9.382h57.541c5.181,0,9.382-4.2,9.382-9.382
			S452.09,205.334,446.909,205.334z"/>
	</g>
</g>
<g>
	<g>
		<path d="M446.909,246.613h-57.541c-5.181,0-9.382,4.201-9.382,9.382s4.2,9.382,9.382,9.382h57.541c5.181,0,9.382-4.2,9.382-9.382
			S452.09,246.613,446.909,246.613z"/>
	</g>
</g>
<g>
	<g>
		<path d="M446.909,330.422H243.322c-5.181,0-9.382,4.201-9.382,9.382s4.201,9.382,9.382,9.382h203.587
			c5.181,0,9.382-4.2,9.382-9.382S452.09,330.422,446.909,330.422z"/>
	</g>
</g>
<g>
	<g>
		<path d="M413.135,374.203H243.322c-5.181,0-9.382,4.2-9.382,9.382s4.201,9.382,9.382,9.382h169.814c5.181,0,9.382-4.2,9.382-9.382
			S418.316,374.203,413.135,374.203z"/>
	</g>
</g>
<g>
	<g>
		<path d="M273.088,445.502l1.769-1.769c3.664-3.663,3.664-9.603,0-13.267s-9.604-3.664-13.267,0l-1.769,1.769l-1.769-1.769
			c-3.664-3.664-9.604-3.664-13.267,0c-3.664,3.664-3.664,9.604,0,13.267l1.769,1.769l-1.769,1.769
			c-3.664,3.664-3.664,9.604,0,13.267c1.831,1.831,4.233,2.748,6.633,2.748c2.4,0,4.802-0.916,6.633-2.748l1.769-1.769l1.769,1.769
			c1.831,1.831,4.233,2.748,6.633,2.748c2.4,0,4.802-0.916,6.633-2.748c3.664-3.664,3.664-9.604,0-13.267L273.088,445.502z"/>
	</g>
</g>
<g>
	<g>
		<path d="M440.327,447.271l-1.769-1.769l1.769-1.769c3.664-3.663,3.664-9.603,0-13.267s-9.604-3.664-13.267,0l-1.769,1.769
			l-1.769-1.769c-3.664-3.664-9.604-3.664-13.267,0c-3.664,3.664-3.664,9.604,0,13.267l1.769,1.769l-1.769,1.769
			c-3.664,3.664-3.664,9.604,0,13.267c1.831,1.831,4.233,2.748,6.633,2.748s4.802-0.916,6.633-2.748l1.769-1.769l1.769,1.769
			c1.831,1.831,4.233,2.748,6.633,2.748s4.802-0.916,6.633-2.748C443.991,456.874,443.991,450.933,440.327,447.271z"/>
	</g>
</g>
<g>
	<g>
		<path d="M355.822,445.502l1.769-1.769c3.665-3.663,3.665-9.603,0-13.267c-3.664-3.664-9.604-3.664-13.267,0l-1.769,1.769
			l-1.769-1.769c-3.664-3.664-9.604-3.664-13.267,0c-3.664,3.664-3.664,9.604,0,13.267l1.769,1.769l-1.769,1.769
			c-3.664,3.664-3.664,9.604,0,13.267c1.831,1.831,4.233,2.748,6.633,2.748s4.802-0.916,6.633-2.748l1.769-1.769l1.769,1.769
			c1.831,1.831,4.233,2.748,6.633,2.748s4.802-0.916,6.633-2.748c3.664-3.664,3.664-9.604,0-13.267L355.822,445.502z"/>
	</g>
</g>
<g>
</g>
<g>
</g>
<g>
</g>
<g>
</g>
<g>
</g>
<g>
</g>
<g>
</g>
<g>
</g>
<g>
</g>
<g>
</g>
<g>
</g>
<g>
</g>
<g>
</g>
<g>
</g>
<g>
</g>
</svg>
