<?xml version="1.0" encoding="iso-8859-1"?>
<!-- Generator: Adobe Illustrator 19.0.0, SVG Export Plug-In . SVG Version: 6.00 Build 0)  -->
<svg version="1.1" id="Layer_1" xmlns="http://www.w3.org/2000/svg" xmlns:xlink="http://www.w3.org/1999/xlink" x="0px" y="0px"
	 viewBox="0 0 511.999 511.999" style="enable-background:new 0 0 511.999 511.999;" xml:space="preserve">
<g>
	<g>
		<path d="M270.301,55.455h-50.537c-4.954,0-8.967,4.015-8.967,8.967c0,4.952,4.014,8.967,8.967,8.967h50.537
			c4.954,0,8.967-4.015,8.967-8.967C279.268,59.47,275.254,55.455,270.301,55.455z"/>
	</g>
</g>
<g>
	<g>
		<path d="M253.278,462.279h-16.491c-4.954,0-8.967,4.015-8.967,8.967c0,4.952,4.014,8.967,8.967,8.967h16.491
			c4.954,0,8.967-4.015,8.967-8.967C262.246,466.294,258.231,462.279,253.278,462.279z"/>
	</g>
</g>
<g>
	<g>
		<path d="M488.863,9.615c-12.822-12.821-33.682-12.819-46.502,0l-20.807,20.807c-5.629-4.926-13.219-7.82-21.438-7.82
			L55.684,22.605c-23.248,0-42.162,18.914-42.162,42.161v405.072c0,23.248,18.913,42.161,42.162,42.161l344.433-0.002
			c17.075,0,30.968-12.658,30.968-28.218V113.893l57.778-57.778C501.683,43.295,501.683,22.436,488.863,9.615z M76.92,50.81
			c0-5.553,5.936-10.243,12.975-10.268h149.878v-0.002h160.344c3.279-0.001,6.339,0.983,8.678,2.644l-42.6,42.6H76.92V50.81z
			 M76.92,103.717h271.341L220.853,231.125c-0.942,0.943-1.664,2.085-2.11,3.342l-16.482,46.45h-56.832
			c-21.761,0-39.466,17.705-39.466,39.467s17.705,39.466,39.466,39.466h113.7c41.469,0,75.205-33.737,75.205-75.205
			c0-4.952-4.014-8.967-8.967-8.967s-8.967,4.015-8.967,8.967c0,31.579-25.691,57.27-57.27,57.27h-113.7
			c-11.873,0-21.531-9.66-21.531-21.531c0-11.873,9.659-21.533,21.531-21.533h63.165h0.002c0.469,0,0.925-0.047,1.375-0.116
			c0.072-0.011,0.142-0.02,0.214-0.032c0.456-0.081,0.897-0.198,1.326-0.346c0.026-0.01,0.054-0.012,0.08-0.021l52.419-18.6
			c1.258-0.446,2.4-1.167,3.343-2.11L413.15,131.829v298.864H76.92V103.717z M31.456,64.767c0-13.358,10.869-24.226,24.228-24.226
			h5.434c-1.371,3.184-2.134,6.646-2.134,10.268v81.715H31.456V64.767z M31.456,150.459h27.528v26.917H31.456V150.459z
			 M55.683,494.066c-13.358,0-24.226-10.867-24.226-24.226V195.31h27.528v288.471c0,3.629,0.764,7.096,2.139,10.285H55.683z
			 M413.151,483.781c0,5.574-5.969,10.283-13.034,10.283H89.951c-7.064,0-13.031-4.708-13.031-10.283v-35.154h336.231V483.781z
			 M256.103,263.511l-32.761,11.625l11.627-32.761l192.579-192.58l21.136,21.136L256.103,263.511z M476.181,43.434l-14.815,14.815
			L440.23,37.114l14.815-14.815c5.825-5.826,15.308-5.829,21.136,0C482.009,28.125,482.009,37.606,476.181,43.434z"/>
	</g>
</g>
<g>
</g>
<g>
</g>
<g>
</g>
<g>
</g>
<g>
</g>
<g>
</g>
<g>
</g>
<g>
</g>
<g>
</g>
<g>
</g>
<g>
</g>
<g>
</g>
<g>
</g>
<g>
</g>
<g>
</g>
</svg>
