<?xml version="1.0" encoding="iso-8859-1"?>
<!-- Generator: Adobe Illustrator 19.0.0, SVG Export Plug-In . SVG Version: 6.00 Build 0)  -->
<svg version="1.1" id="Layer_1" xmlns="http://www.w3.org/2000/svg" xmlns:xlink="http://www.w3.org/1999/xlink" x="0px" y="0px"
	 viewBox="0 0 511.999 511.999" style="enable-background:new 0 0 511.999 511.999;" xml:space="preserve">
<g>
	<g>
		<path d="M397.397,0h-78.488H162.163h-35.847c-24.322,0-44.109,19.788-44.109,44.109V467.89c0,24.322,19.788,44.109,44.11,44.109
			l271.08-0.006c17.863,0,32.394-13.238,32.394-29.512V29.512C429.791,13.238,415.26,0,397.397,0z M148.533,29.512
			c0-5.827,6.242-10.749,13.63-10.749h156.747h78.488c7.389,0,13.631,4.922,13.631,10.749v36.577H148.533V29.512z M148.533,84.852
			h262.496v342.084H148.533V84.852z M100.971,44.109c0-13.975,11.369-25.345,25.345-25.345h5.686
			c-1.436,3.334-2.234,6.956-2.234,10.749v85.484h-28.798V44.109z M100.971,133.758h28.799v28.16h-28.799V133.758z M100.971,180.681
			h28.799v28.16h-28.799V180.681z M126.317,493.237c-13.977,0-25.347-11.37-25.347-25.347V227.604h28.799v254.877
			c0,3.794,0.799,7.42,2.237,10.755H126.317z M411.029,482.482c-0.001,5.827-6.243,10.749-13.632,10.749H162.163
			c-7.389,0-13.63-4.922-13.63-10.749v-36.783h262.496V482.482z"/>
	</g>
</g>
<g>
	<g>
		<path d="M322.951,285.94l-6.693-6.692c4.299-6.722,6.805-14.697,6.805-23.251c0-8.532-2.492-16.489-6.771-23.2l6.168-6.168
			c3.664-3.664,3.664-9.603,0-13.267c-3.664-3.663-9.603-3.664-13.268,0l-6.158,6.158c-6.722-4.301-14.698-6.805-23.253-6.805
			c-8.555,0-16.53,2.504-23.251,6.805l-6.158-6.158c-3.664-3.664-9.604-3.664-13.267,0c-3.664,3.664-3.664,9.603,0,13.267
			l6.167,6.167c-4.281,6.711-6.772,14.669-6.772,23.201c0,8.555,2.504,16.53,6.805,23.253l-6.691,6.691
			c-3.664,3.664-3.664,9.603,0,13.267c1.831,1.833,4.233,2.748,6.633,2.748c2.4,0,4.802-0.916,6.633-2.748l6.7-6.7
			c6.711,4.279,14.668,6.772,23.201,6.772c8.534,0,16.49-2.492,23.201-6.772l6.7,6.7c1.833,1.833,4.234,2.748,6.635,2.748
			s4.802-0.916,6.635-2.748C326.615,295.544,326.615,289.604,322.951,285.94z M257.145,265.406c-1.21-2.9-1.884-6.077-1.884-9.409
			c0-3.31,0.667-6.466,1.861-9.349l9.39,9.39L257.145,265.406z M279.779,280.515c-3.31,0-6.465-0.668-9.348-1.861l9.349-9.349
			l9.348,9.348C286.245,279.849,283.09,280.515,279.779,280.515z M279.781,242.77l-9.41-9.409c2.9-1.21,6.077-1.884,9.409-1.884
			c3.334,0,6.511,0.674,9.41,1.884L279.781,242.77z M302.415,265.406l-9.368-9.367l9.389-9.389c1.195,2.882,1.863,6.037,1.863,9.347
			C304.299,259.329,303.625,262.506,302.415,265.406z"/>
	</g>
</g>
<g>
	<g>
		<path d="M390.536,353.463c4.77-7.255,7.555-15.926,7.555-25.239V183.768c0-9.324-2.792-18.004-7.572-25.264l8.088-8.067
			c3.669-3.659,3.675-9.599,0.016-13.268c-3.659-3.668-9.599-3.676-13.267-0.016l-8.109,8.088
			c-7.255-4.77-15.926-7.554-25.239-7.554H207.552c-9.313,0-17.984,2.786-25.239,7.555l-8.109-8.088
			c-3.669-3.659-9.609-3.651-13.267,0.016c-3.659,3.669-3.651,9.608,0.018,13.268l8.088,8.067
			c-4.78,7.261-7.572,15.941-7.572,25.264v144.456c0,9.313,2.786,17.983,7.554,25.239l-8.089,8.111
			c-3.659,3.669-3.65,9.608,0.018,13.267c1.831,1.826,4.228,2.739,6.625,2.739c2.405,0,4.81-0.919,6.643-2.757l8.066-8.088
			c7.261,4.78,15.941,7.572,25.265,7.572h144.456c9.324,0,18.004-2.792,25.264-7.572l8.066,8.088
			c1.833,1.838,4.238,2.757,6.643,2.757c2.397,0,4.793-0.913,6.625-2.739c3.67-3.659,3.676-9.599,0.019-13.267L390.536,353.463z
			 M289.161,156.45h62.847c4.094-0.001,7.976,0.909,11.464,2.529l-8.722,8.701c-3.669,3.659-3.675,9.599-0.018,13.268
			c1.834,1.838,4.238,2.756,6.643,2.756c2.397,0,4.795-0.913,6.626-2.739l8.76-8.739c1.642,3.509,2.566,7.418,2.566,11.542v62.847
			h-7.787c-4.403-43.383-38.996-77.977-82.379-82.379V156.45z M180.232,183.768c0-4.123,0.923-8.033,2.566-11.542l8.762,8.739
			c1.831,1.826,4.228,2.739,6.625,2.739c2.404,0,4.81-0.919,6.642-2.756c3.659-3.669,3.651-9.608-0.018-13.268l-8.722-8.7
			c3.489-1.62,7.371-2.531,11.464-2.531h62.846v7.786c-43.383,4.403-77.976,38.996-82.379,82.379h-7.785V183.768z M270.398,355.543
			h-62.846c-4.123,0-8.033-0.923-11.543-2.566l7.818-7.839c3.659-3.669,3.65-9.608-0.018-13.267
			c-3.67-3.66-9.609-3.651-13.268,0.018l-7.778,7.799c-1.62-3.489-2.531-7.37-2.531-11.463v-62.847h7.785
			c4.403,43.383,38.996,77.976,82.379,82.379V355.543z M206.307,255.997c0-40.512,32.96-73.473,73.472-73.473
			c40.514,0,73.472,32.96,73.472,73.473c0.001,40.512-32.958,73.472-73.472,73.472C239.267,329.469,206.307,296.509,206.307,255.997
			z M379.328,328.225c0,4.093-0.911,7.974-2.531,11.463l-7.778-7.799c-3.658-3.669-9.598-3.676-13.267-0.018
			c-3.67,3.659-3.676,9.599-0.019,13.267l7.818,7.839c-3.51,1.642-7.42,2.566-11.543,2.566h-62.847v-7.786
			c43.383-4.403,77.976-38.996,82.379-82.379h7.787V328.225z"/>
	</g>
</g>
<g>
	<g>
		<path d="M306.215,34.367h-52.871c-5.181,0-9.382,4.2-9.382,9.382s4.201,9.382,9.382,9.382h52.871c5.182,0,9.382-4.201,9.382-9.382
			S311.398,34.367,306.215,34.367z"/>
	</g>
</g>
<g>
	<g>
		<path d="M288.407,459.981h-17.252c-5.182,0-9.382,4.2-9.382,9.382s4.199,9.382,9.382,9.382h17.252
			c5.182,0,9.382-4.201,9.382-9.382S293.588,459.981,288.407,459.981z"/>
	</g>
</g>
<g>
</g>
<g>
</g>
<g>
</g>
<g>
</g>
<g>
</g>
<g>
</g>
<g>
</g>
<g>
</g>
<g>
</g>
<g>
</g>
<g>
</g>
<g>
</g>
<g>
</g>
<g>
</g>
<g>
</g>
</svg>
