<?xml version="1.0" encoding="iso-8859-1"?>
<!-- Generator: Adobe Illustrator 19.0.0, SVG Export Plug-In . SVG Version: 6.00 Build 0)  -->
<svg version="1.1" id="Layer_1" xmlns="http://www.w3.org/2000/svg" xmlns:xlink="http://www.w3.org/1999/xlink" x="0px" y="0px"
	 viewBox="0 0 512 512" style="enable-background:new 0 0 512 512;" xml:space="preserve">
<g>
	<g>
		<path d="M390.279,476.79c-4.862,0-8.803,3.941-8.803,8.803v8.802h-70.423V149.647h70.423v10.818c0,4.862,3.941,8.803,8.803,8.803
			s8.803-3.941,8.803-8.803v-19.621c0-0.072-0.016-0.137-0.023-0.207c-0.055-2.313-1.001-4.567-2.758-6.215l-96.691-90.655V8.803
			c0-4.862-3.941-8.803-8.803-8.803h-88.023c-4.862,0-8.803,3.941-8.803,8.803v35.553l-96.686,90.648
			c-1.529,1.434-2.465,3.337-2.712,5.346c-0.042,0.16-0.069,0.323-0.069,0.494v19.621c0,4.862,3.941,8.803,8.803,8.803
			s8.803-3.941,8.803-8.803v-10.231h181.328v344.16H112.121v-8.802c0-4.862-3.941-8.803-8.803-8.803s-8.803,3.941-8.803,8.803
			v17.604c0,4.862,3.941,8.803,8.803,8.803H390.28c4.862,0,8.803-3.941,8.803-8.803v-17.604
			C399.082,480.731,395.14,476.79,390.279,476.79z M211.587,17.606h70.417v21.173h-70.417V17.606z M125.57,132.629l77.214-72.393
			l77.214,72.393H125.57z M224.418,56.385h62.909l80.693,75.656h-62.908L224.418,56.385z"/>
	</g>
</g>
<g>
	<g>
		<path d="M219.508,183.963H25.856c-4.862,0-8.803,3.941-8.803,8.803v98.587c0,4.862,3.94,8.803,8.803,8.803h193.652
			c4.862,0,8.803-3.941,8.803-8.803v-98.587C228.311,187.905,224.37,183.963,219.508,183.963z M210.705,282.551H34.659v-80.982
			h176.047V282.551z"/>
	</g>
</g>
<g>
	<g>
		<path d="M486.144,183.926H343.545c-4.862,0-8.803,3.941-8.803,8.803v263.508c0,4.862,3.941,8.803,8.803,8.803h142.599
			c4.862,0,8.803-3.941,8.803-8.803V192.729C494.947,187.867,491.006,183.926,486.144,183.926z M477.341,447.433H352.348V201.531
			h124.994V447.433z"/>
	</g>
</g>
<g>
	<g>
		<path d="M219.508,314.239H25.856c-4.862,0-8.803,3.941-8.803,8.803v135.639c0,4.862,3.941,8.803,8.803,8.803h193.652
			c4.862,0,8.803-3.94,8.803-8.803V323.041C228.311,318.18,224.37,314.239,219.508,314.239z M191.597,331.844l-68.915,48.269
			l-68.915-48.269H191.597z M34.657,339.955l72.68,50.906l-72.68,50.906V339.955z M53.768,449.878l68.913-48.269l68.915,48.269
			H53.768z M210.706,441.767l-72.68-50.906l72.68-50.906V441.767z"/>
	</g>
</g>
<g>
	<g>
		<path d="M405.534,212.169h-32.94c-4.862,0-8.803,3.941-8.803,8.803s3.941,8.803,8.803,8.803h32.94
			c4.862,0,8.803-3.941,8.803-8.803S410.395,212.169,405.534,212.169z"/>
	</g>
</g>
<g>
	<g>
		<path d="M457.097,245.792h-84.504c-4.862,0-8.803,3.941-8.803,8.803s3.941,8.803,8.803,8.803h84.504
			c4.862,0,8.803-3.941,8.803-8.803S461.959,245.792,457.097,245.792z"/>
	</g>
</g>
<g>
	<g>
		<path d="M457.097,279.416h-84.504c-4.862,0-8.803,3.941-8.803,8.803c0,4.862,3.941,8.803,8.803,8.803h84.504
			c4.862,0,8.803-3.941,8.803-8.803C465.9,283.357,461.959,279.416,457.097,279.416z"/>
	</g>
</g>
<g>
	<g>
		<path d="M414.845,313.039h-42.251c-4.862,0-8.803,3.941-8.803,8.803c0,4.862,3.941,8.803,8.803,8.803h42.251
			c4.862,0,8.803-3.941,8.803-8.803C423.648,316.98,419.706,313.039,414.845,313.039z"/>
	</g>
</g>
<g>
	<g>
		<path d="M457.097,346.661h-84.504c-4.862,0-8.803,3.941-8.803,8.803s3.941,8.803,8.803,8.803h84.504
			c4.862,0,8.803-3.941,8.803-8.803S461.959,346.661,457.097,346.661z"/>
	</g>
</g>
<g>
	<g>
		<path d="M437.221,380.285h-64.628c-4.862,0-8.803,3.941-8.803,8.803c0,4.862,3.941,8.803,8.803,8.803h64.628
			c4.862,0,8.803-3.941,8.803-8.803C446.024,384.226,442.083,380.285,437.221,380.285z"/>
	</g>
</g>
<g>
	<g>
		<path d="M457.097,413.908h-84.504c-4.862,0-8.803,3.941-8.803,8.803c0,4.862,3.941,8.803,8.803,8.803h84.504
			c4.862,0,8.803-3.941,8.803-8.803C465.9,417.849,461.959,413.908,457.097,413.908z"/>
	</g>
</g>
<g>
	<g>
		<path d="M138.526,217.412H50.503c-4.862,0-8.803,3.941-8.803,8.803s3.94,8.803,8.803,8.803h88.024
			c4.862,0,8.803-3.941,8.803-8.803S143.388,217.412,138.526,217.412z"/>
	</g>
</g>
<g>
	<g>
		<path d="M170.216,249.101H50.503c-4.862,0-8.803,3.941-8.803,8.803c0,4.862,3.941,8.803,8.803,8.803h119.713
			c4.862,0,8.803-3.941,8.803-8.803C179.018,253.042,175.077,249.101,170.216,249.101z"/>
	</g>
</g>
<g>
</g>
<g>
</g>
<g>
</g>
<g>
</g>
<g>
</g>
<g>
</g>
<g>
</g>
<g>
</g>
<g>
</g>
<g>
</g>
<g>
</g>
<g>
</g>
<g>
</g>
<g>
</g>
<g>
</g>
</svg>
