<?xml version="1.0" encoding="iso-8859-1"?>
<!-- Generator: Adobe Illustrator 19.0.0, SVG Export Plug-In . SVG Version: 6.00 Build 0)  -->
<svg version="1.1" id="Layer_1" xmlns="http://www.w3.org/2000/svg" xmlns:xlink="http://www.w3.org/1999/xlink" x="0px" y="0px"
	 viewBox="0 0 512.001 512.001" style="enable-background:new 0 0 512.001 512.001;" xml:space="preserve">
<g>
	<g>
		<path d="M485.262,108.455c-11.743,0-21.735,7.613-25.319,18.16H287.79v-14.639c0-4.735-3.839-8.573-8.573-8.573h-46.434
			c-4.735,0-8.573,3.839-8.573,8.573v14.639H52.057c-3.584-10.547-13.576-18.16-25.319-18.16C11.995,108.455,0,120.45,0,135.193
			s11.995,26.738,26.738,26.738c11.747,0,21.741-7.618,25.322-18.171h172.15v14.648c0,4.735,3.839,8.573,8.573,8.573h8.77
			l-49.481,90.661c-9.443,17.299-8.413,41.226,2.447,56.893c3.692,5.326,5.809,12.859,5.809,20.666v19.282h-11.982
			c-4.735,0-8.573,3.839-8.573,8.573v36.967c0,4.735,3.839,8.573,8.573,8.573h135.307c4.735,0,8.573-3.839,8.573-8.573v-36.967
			c0-4.735-3.839-8.573-8.573-8.573h-11.982v-19.282c0-7.807,2.117-15.34,5.809-20.666c10.861-15.667,11.891-39.595,2.449-56.893
			l-49.481-90.661h8.77c4.735,0,8.573-3.839,8.573-8.573v-14.648h172.15c3.58,10.552,13.576,18.171,25.322,18.171
			c14.744,0,26.738-11.995,26.738-26.738C512.001,120.45,500.005,108.455,485.262,108.455z M26.738,144.785
			c-5.289,0-9.592-4.303-9.592-9.592c0-5.289,4.303-9.592,9.592-9.592c5.288,0,9.592,4.303,9.592,9.592
			C36.33,140.483,32.027,144.785,26.738,144.785z M315.08,371.632v19.82H196.92v-19.82H315.08z M304.877,265.858
			c6.295,11.533,5.641,28.624-1.49,38.91c-5.715,8.246-8.864,19.054-8.864,30.435v19.282h-77.049v-19.282
			c0-11.381-3.148-22.189-8.864-30.435c-7.131-10.286-7.785-27.377-1.489-38.91l40.303-73.844v62.642
			c-10.55,3.582-18.165,13.576-18.165,25.321c0,14.744,11.995,26.738,26.738,26.738c14.743,0,26.738-11.995,26.738-26.738
			c0-11.745-7.615-21.738-18.165-25.32v-62.642L304.877,265.858z M256,270.385c5.288,0,9.592,4.303,9.592,9.592
			s-4.303,9.592-9.592,9.592c-5.289,0-9.592-4.303-9.592-9.592S250.711,270.385,256,270.385z M270.643,149.837h-29.287V120.55
			h29.287V149.837z M485.262,144.785c-5.288,0-9.592-4.303-9.592-9.592c0-5.289,4.303-9.592,9.592-9.592
			c5.289,0,9.592,4.303,9.592,9.592C494.854,140.483,490.551,144.785,485.262,144.785z"/>
	</g>
</g>
<g>
</g>
<g>
</g>
<g>
</g>
<g>
</g>
<g>
</g>
<g>
</g>
<g>
</g>
<g>
</g>
<g>
</g>
<g>
</g>
<g>
</g>
<g>
</g>
<g>
</g>
<g>
</g>
<g>
</g>
</svg>
