<?xml version="1.0" encoding="iso-8859-1"?>
<!-- Generator: Adobe Illustrator 19.0.0, SVG Export Plug-In . SVG Version: 6.00 Build 0)  -->
<svg xmlns="http://www.w3.org/2000/svg" xmlns:xlink="http://www.w3.org/1999/xlink" version="1.1" id="Layer_1" x="0px" y="0px" viewBox="0 0 512.001 512.001" style="enable-background:new 0 0 512.001 512.001;" xml:space="preserve">
<g>
	<g>
		<path d="M224.626,231.587h-53.249c-4.264,0-7.721,3.457-7.721,7.721s3.457,7.721,7.721,7.721h53.249    c4.264,0,7.721-3.457,7.721-7.721S228.89,231.587,224.626,231.587z"/>
	</g>
</g>
<g>
	<g>
		<path d="M224.626,258.212h-53.249c-4.264,0-7.721,3.457-7.721,7.721s3.457,7.721,7.721,7.721h53.249    c4.264,0,7.721-3.457,7.721-7.721S228.89,258.212,224.626,258.212z"/>
	</g>
</g>
<g>
	<g>
		<path d="M224.626,284.838h-53.249c-4.264,0-7.721,3.457-7.721,7.721s3.457,7.721,7.721,7.721h53.249    c4.264,0,7.721-3.457,7.721-7.721S228.89,284.838,224.626,284.838z"/>
	</g>
</g>
<g>
	<g>
		<path d="M374.434,224.532c-22.828,0-41.402,18.572-41.402,41.401s18.573,41.402,41.402,41.402s41.401-18.573,41.401-41.402    S397.262,224.532,374.434,224.532z M374.434,291.893c-14.313,0-25.959-11.646-25.959-25.959c0-14.313,11.646-25.958,25.959-25.958    c14.313,0,25.958,11.645,25.958,25.958C400.392,280.247,388.747,291.893,374.434,291.893z"/>
	</g>
</g>
<g>
	<g>
		<path d="M374.434,246.769c-4.264,0-7.721,3.457-7.721,7.721v22.931c0,4.264,3.457,7.721,7.721,7.721s7.721-3.457,7.721-7.721    v-22.931C382.155,250.225,378.698,246.769,374.434,246.769z"/>
	</g>
</g>
<g>
	<g>
		<path d="M504.279,245.488h-31.743v-38.78c0-4.264-3.457-7.721-7.721-7.721h-12.762v-91.278c0-3.675-2.59-6.841-6.193-7.569    L317.099,74.125v-21.38c0-4.264-3.457-7.721-7.721-7.721h-39.274c-2.102,0-4.114,0.858-5.57,2.374    c-1.456,1.516-2.231,3.561-2.144,5.662l0.485,11.891h-46.88c-18.05,0-33.846,12.198-38.412,29.661l-27.285,104.374h-23.012    c-40.965,0-74.293,33.327-74.293,74.293v53.549h-7.617c-3.545,0-6.428-2.884-6.428-6.428c0-10.738-8.736-19.474-19.474-19.474    C8.736,300.925,0,309.661,0,320.399c0,25.02,20.355,45.377,45.377,45.377h30.211v10.426c0,0.407,0.032,0.812,0.096,1.213    l2.149,13.513L75.67,405.54c-0.106,0.718-0.11,1.446-0.013,2.166l2.186,16.142l-2.164,13.945    c-0.061,0.391-0.092,0.788-0.092,1.184v20.279c0,4.264,3.457,7.721,7.721,7.721h16.699c11.99,0,21.745-9.755,21.745-21.745    v-79.457h343.064c4.264,0,7.721-3.457,7.721-7.721v-23.506c0-0.203-0.015-0.401-0.03-0.599c0.015-0.199,0.03-0.396,0.03-0.599    v-40.799h31.743c4.264,0,7.721-3.457,7.721-7.721v-31.62C512,248.945,508.543,245.488,504.279,245.488z M301.657,60.466v10.538    l-23.272-4.702l-0.238-5.836H301.657z M192.522,98.517c2.789-10.672,12.441-18.125,23.471-18.125h54.15l37.648,7.606    c0.022,0.004,0.042,0.008,0.064,0.012l128.756,26.015v84.96h-15.175v-49.173c0-13.071-9.299-24.435-22.111-27.025l-100.718-20.349    c-8.726-1.761-17.682,0.46-24.572,6.096c-6.888,5.639-10.841,13.978-10.841,22.88v67.573H166.26L192.522,98.517z M405.992,149.812    v49.174H278.637v-67.573c0-4.252,1.887-8.234,5.177-10.926c3.289-2.691,7.568-3.754,11.734-2.911l100.718,20.349    C401.902,139.063,405.992,144.062,405.992,149.812z M68.437,273.278c0-32.45,26.4-58.85,58.85-58.85h28.974h114.654h142.799    h30.618h12.762v38.78v31.62v40.799H68.437V273.278z M100.006,451.535h-8.976v-11.963l2.244-14.464    c0.114-0.735,0.121-1.482,0.022-2.22l-2.189-16.169l2.175-14.703c0.114-0.777,0.11-1.567-0.013-2.343l-2.239-14.082v-9.816h15.278    v79.458h0.001C106.308,448.707,103.481,451.535,100.006,451.535z M114.031,350.333H83.31H45.377    c-16.506,0-29.934-13.429-29.934-29.934c0-2.223,1.809-4.032,4.032-4.032c2.223,0,4.032,1.809,4.032,4.032    c0,12.06,9.811,21.871,21.871,21.871h411.717v8.063H114.031z M496.557,277.108h-24.022V260.93h24.022V277.108z"/>
	</g>
</g>
<g>
</g>
<g>
</g>
<g>
</g>
<g>
</g>
<g>
</g>
<g>
</g>
<g>
</g>
<g>
</g>
<g>
</g>
<g>
</g>
<g>
</g>
<g>
</g>
<g>
</g>
<g>
</g>
<g>
</g>
</svg>
