<?xml version="1.0" encoding="iso-8859-1"?>
<!-- Generator: Adobe Illustrator 19.0.0, SVG Export Plug-In . SVG Version: 6.00 Build 0)  -->
<svg xmlns="http://www.w3.org/2000/svg" xmlns:xlink="http://www.w3.org/1999/xlink" version="1.1" id="Layer_1" x="0px" y="0px" viewBox="0 0 512 512" style="enable-background:new 0 0 512 512;" xml:space="preserve">
<g>
	<g>
		<path d="M415.562,45.955h-50.976v-23.27c0-12.464-10.14-22.604-22.604-22.604H308.15c-0.338-0.047-0.679-0.08-1.029-0.081    c-0.009,0-0.017,0-0.025,0c-0.358,0-0.708,0.033-1.052,0.081H137.808C137.463,0.033,137.113,0,136.755,0    c-0.358,0-0.708,0.033-1.052,0.081h-15.179c-10.324,0-19.046,6.959-21.741,16.431H87.305c-7.54,0-13.675,6.134-13.675,13.674    v72.153c0,7.54,6.135,13.674,13.675,13.674H97.95c0.612,11.921,10.503,21.433,22.574,21.433h11.326    c3.419,5.845,9.747,9.79,16.993,9.79c7.247,0,13.574-3.945,16.994-9.79h60.575v29.722c0,10.858,8.833,19.691,19.691,19.691    s19.691-8.833,19.691-19.691v-29.722h76.189c12.464,0,22.604-10.141,22.604-22.606V91.572h28.168v51.441L219.663,252.74    c-6.636,4.206-10.596,11.408-10.596,19.263v40.431h-23.298c-12.017,0-21.795,9.777-21.795,21.795v12.905    c0,12.017,9.777,21.795,21.795,21.795h3.99v121.276c0,12.017,9.777,21.795,21.795,21.795h43.623    c12.017,0,21.795-9.777,21.795-21.795V368.922c11.738-0.323,21.187-9.973,21.187-21.786V334.23    c0-12.017-9.777-21.795-21.795-21.795h-21.68v-27.885l173.09-109.728c6.636-4.206,10.596-11.408,10.596-19.263V68.763    C438.37,56.187,428.138,45.955,415.562,45.955z M97.919,100.807h-9.084v-69.09h9.084V100.807z M129.153,122.24h-8.629    c-4.079,0-7.399-3.32-7.399-7.4v-12.501V30.186v-7.5c0-4.079,3.319-7.399,7.399-7.399h8.629V122.24z M226.411,99.53v22.71h-57.878    V73.752l0.276-14.948c0-0.036,0.001-0.072,0.001-0.108c0.01-2.431,2.036-4.494,4.503-4.467c2.419,0.01,4.455,2.05,4.467,4.464    l-0.276,14.949c-0.002,0.1-0.001,0.199,0.001,0.299l0.275,13.222v3.879c0,10.858,8.833,19.691,19.691,19.691    c10.858,0,19.691-8.833,19.691-19.691v-9.989l0.277-14.949c0-0.036,0.001-0.072,0.001-0.107c0.01-2.426,2.063-4.467,4.486-4.467    c0.006,0,0.012,0,0.018,0c2.418,0.01,4.454,2.049,4.467,4.462l-0.276,14.951c-0.001,0.085-0.001,0.17,0,0.255L226.411,99.53z     M265.792,122.241v-27.02l0.276-14.948c0-0.036,0.001-0.073,0.001-0.109c0.005-1.185,0.479-2.305,1.336-3.156    c0.857-0.851,1.944-1.284,3.166-1.311c2.419,0.01,4.455,2.049,4.467,4.462l-0.276,14.951c-0.004,0.213,0.001,0.426,0.015,0.639    l0.262,3.976v3.71c0,8.825,5.837,16.312,13.852,18.806H265.792z M299.215,93.375v10.059c0,2.43-2.054,4.485-4.486,4.485    c-2.432,0-4.486-2.054-4.486-4.485v-3.959c0-0.166-0.005-0.331-0.016-0.498l-0.256-3.906l0.272-14.7    c0-0.036,0.001-0.072,0.001-0.108c0.046-10.857-8.752-19.727-19.611-19.772c-0.027,0-0.054,0-0.08,0    c-10.8,0-19.613,8.747-19.69,19.548l-0.276,14.972c-0.001,0.048-0.001,0.094-0.001,0.141v72.015h0.001    c0,2.431-2.054,4.486-4.486,4.486c-2.432,0-4.486-2.054-4.486-4.486V99.474c0-0.039,0-0.076-0.001-0.115l-0.275-18.265    l0.275-14.891c0-0.036,0.001-0.073,0.001-0.109c0.044-10.857-8.753-19.726-19.611-19.771c-0.027,0-0.054,0-0.08,0    c-10.8,0-19.614,8.748-19.691,19.549l-0.275,14.972c-0.001,0.047-0.001,0.093-0.001,0.14v10.058c0,2.431-2.054,4.486-4.486,4.486    c-2.432,0-4.486-2.054-4.486-4.486v-3.958c0-0.053-0.001-0.105-0.002-0.158l-0.275-13.152l0.275-14.87    c0-0.036,0.001-0.073,0.001-0.109c0.044-10.857-8.753-19.726-19.611-19.771c-0.027,0-0.054,0-0.08,0    c-10.799,0-19.612,8.747-19.691,19.548l-0.276,14.972c-0.001,0.048-0.001,0.094-0.001,0.141v53.864    c0,2.431-2.054,4.485-4.486,4.485c-2.432,0-4.485-2.053-4.485-4.485V15.287h155.111L299.215,93.375z M341.981,122.24h-41.413    c8.016-2.494,13.852-9.981,13.852-18.806V93.4l0.252-78.114h27.307c4.079,0,7.399,3.319,7.399,7.399v30.872v30.411v30.871h0.001    C349.38,118.92,346.061,122.24,341.981,122.24z M276.363,327.641c3.632-0.001,6.588,2.955,6.588,6.588v12.905    c0,3.633-2.956,6.589-6.589,6.589c-8.05,0-14.598,6.548-14.598,14.598v121.883c0,3.633-2.956,6.589-6.589,6.589h-43.623    c-3.633,0-6.589-2.956-6.589-6.589V368.323c0-8.05-6.548-14.598-14.598-14.598h-4.596c-3.633,0-6.589-2.956-6.589-6.589V334.23    c0-3.633,2.956-6.589,6.589-6.589h30.901h30.411H276.363z M419.633,161.981L243.009,273.947c-2.2,1.394-3.532,3.817-3.532,6.421    v32.067h-15.206v-40.431c0-2.618,1.321-5.019,3.532-6.422l176.622-111.965c2.2-1.394,3.532-3.817,3.532-6.421V83.969    c0-4.2-3.403-7.603-7.603-7.603h-35.77V61.161h50.976c4.193,0,7.603,3.41,7.603,7.603v86.796h0.001    C423.164,158.178,421.844,160.578,419.633,161.981z"/>
	</g>
</g>
<g>
	<g>
		<path d="M221.924,373.282c-4.2,0-7.603,3.403-7.603,7.603v86.382c0,4.2,3.403,7.603,7.603,7.603s7.603-3.403,7.603-7.603v-86.382    C229.527,376.686,226.124,373.282,221.924,373.282z"/>
	</g>
</g>
<g>
	<g>
		<path d="M245.27,373.282c-4.2,0-7.603,3.404-7.603,7.603v86.382c0,4.2,3.403,7.603,7.603,7.603s7.603-3.403,7.603-7.603v-86.382    C252.873,376.685,249.47,373.282,245.27,373.282z"/>
	</g>
</g>
<g>
</g>
<g>
</g>
<g>
</g>
<g>
</g>
<g>
</g>
<g>
</g>
<g>
</g>
<g>
</g>
<g>
</g>
<g>
</g>
<g>
</g>
<g>
</g>
<g>
</g>
<g>
</g>
<g>
</g>
</svg>
