<?xml version="1.0" encoding="iso-8859-1"?>
<!-- Generator: Adobe Illustrator 19.0.0, SVG Export Plug-In . SVG Version: 6.00 Build 0)  -->
<svg xmlns="http://www.w3.org/2000/svg" xmlns:xlink="http://www.w3.org/1999/xlink" version="1.1" id="Layer_1" x="0px" y="0px" viewBox="0 0 511.996 511.996" style="enable-background:new 0 0 511.996 511.996;" xml:space="preserve">
<g>
	<g>
		<path d="M222.837,164.727v-17.752h0.001c0-15.645-12.728-28.373-28.374-28.373c-4.702,0-9.138,1.157-13.047,3.19v-1.994    c0-15.645-12.728-28.373-28.373-28.373c-4.807,0-9.338,1.206-13.309,3.325c-1.868-13.849-13.758-24.563-28.109-24.563    c-8.164,0-15.529,3.471-20.711,9.008c-5.181-5.538-12.546-9.008-20.71-9.008c-15.645,0-28.373,12.728-28.373,28.373v111.764    c-4.007-2.169-8.593-3.403-13.462-3.403C12.728,206.922,0,219.65,0,235.294v91.996c0,0.956,0.179,1.904,0.528,2.793    l41.834,106.855c1.149,2.938,3.981,4.87,7.135,4.87h128.317c24.994,0,45.328-20.334,45.328-45.328V256.836L222.837,164.727z     M207.819,396.48h-0.002c0,16.543-13.459,30.002-30.002,30.002H54.727L15.326,325.843v-90.549c0-7.194,5.853-13.047,13.047-13.047    S41.42,228.1,41.42,235.294v51.409c0,3.653,2.617,6.805,6.198,7.522c1.501,0.3,36.754,7.855,36.754,51.278    c0,4.232,3.43,7.663,7.663,7.663c4.233,0,7.663-3.431,7.663-7.663c0-29.26-13.284-45.754-24.428-54.439    c-6.857-5.344-13.754-8.423-18.523-10.103v-4.559c0.265-0.777,0.415-1.605,0.415-2.472V98.561c0-7.194,5.853-13.047,13.047-13.047    s13.045,5.854,13.045,13.047v63.14v70.582c0,4.232,3.43,7.663,7.663,7.663c4.233,0,7.663-3.431,7.663-7.663v-70.582v-63.14    c0-7.194,5.854-13.047,13.048-13.047s13.047,5.853,13.047,13.047v21.237v17.751v94.785c0,4.232,3.43,7.663,7.663,7.663    c4.233,0,7.663-3.431,7.663-7.663v-94.785v-17.751c0-7.194,5.853-13.047,13.047-13.047s13.047,5.853,13.047,13.047v27.177v17.751    v67.608c0,4.232,3.43,7.663,7.663,7.663c4.233,0,7.663-3.431,7.663-7.663v-67.608v-17.751c0-7.194,5.853-13.047,13.047-13.047    c7.194,0,13.048,5.853,13.048,13.047v17.776l0.305,92.109V396.48z"/>
	</g>
</g>
<g>
	<g>
		<path d="M483.627,206.922c-4.869,0-9.454,1.234-13.463,3.403V98.561c0-15.645-12.728-28.373-28.373-28.373    c-8.164,0-15.529,3.471-20.71,9.008c-5.181-5.538-12.546-9.008-20.71-9.008c-14.353,0-26.243,10.714-28.111,24.563    c-3.971-2.119-8.502-3.325-13.309-3.325c-15.645,0-28.373,12.728-28.373,28.373v1.995c-3.909-2.033-8.344-3.19-13.047-3.19    c-15.645,0-28.373,12.728-28.373,28.373v17.725l-0.115,35.077c-0.237,1.054-0.25,2.169-0.011,3.282l-0.178,53.801v47.026    c0,0.017,0,0.034,0,0.051v92.542c0,24.994,20.333,45.328,45.327,45.328h128.317c3.154,0,5.985-1.932,7.135-4.87l41.835-106.855    c0.349-0.891,0.528-1.838,0.528-2.794v-91.996C512,219.65,499.272,206.922,483.627,206.922z M358.953,106.751    c7.194,0,13.047,5.853,13.047,13.047v17.751v33.419l-26.093,7.775v-14.016v-17.751v-27.177h-0.001    C345.907,112.604,351.759,106.751,358.953,106.751z M304.488,146.975c0-7.194,5.853-13.047,13.047-13.047    c7.194,0,13.047,5.853,13.047,13.047v17.751v18.583l-26.179,7.8l0.087-26.383v-17.751H304.488z M496.677,325.843h-0.003    l-39.402,100.639H334.184c-16.542,0-30.001-13.459-30.001-30.002v-86.767l61.514-18.328c4.056-1.209,6.365-5.476,5.156-9.532    c-1.209-4.056-5.479-6.366-9.532-5.156l-57.138,17.024v-36.835l0.165-49.77l26.233-7.816v33.034c0,4.232,3.43,7.663,7.663,7.663    c4.233,0,7.663-3.431,7.663-7.663v-37.601l26.093-7.775v45.375c0,4.232,3.43,7.663,7.663,7.663s7.663-3.431,7.663-7.663v-49.942    l12.306-3.667c4.056-1.209,6.365-5.476,5.156-9.532c-1.209-4.056-5.48-6.365-9.532-5.156l-7.93,2.362v-28.851v-17.751V98.561    c0-7.194,5.854-13.047,13.048-13.047s13.047,5.853,13.047,13.047v63.14v70.582c0,4.232,3.43,7.663,7.663,7.663    c4.233,0,7.663-3.431,7.663-7.663v-70.582v-63.14c0-7.194,5.853-13.047,13.047-13.047c7.194,0,13.047,5.853,13.047,13.047V273.93    c0,0.866,0.15,1.695,0.415,2.472v4.559c-4.77,1.681-11.666,4.759-18.523,10.103c-11.144,8.685-24.428,25.179-24.428,54.439    c0,4.232,3.43,7.663,7.663,7.663c4.233,0,7.663-3.431,7.663-7.663c0-43.424,35.253-50.977,36.717-51.271    c3.617-0.686,6.236-3.848,6.236-7.529v-51.409c0-7.194,5.854-13.047,13.048-13.047s13.047,5.853,13.047,13.047V325.843z"/>
	</g>
</g>
<g>
	<g>
		<path d="M185.826,324.207c-2.275-3.568-7.012-4.615-10.581-2.34l-52.315,33.366c-3.568,2.275-4.616,7.013-2.34,10.581    c1.462,2.292,3.938,3.543,6.468,3.543c1.41,0,2.836-0.389,4.114-1.204l52.315-33.366    C187.055,332.513,188.103,327.775,185.826,324.207z"/>
	</g>
</g>
<g>
	<g>
		<path d="M185.826,357.574c-2.276-3.568-7.011-4.616-10.581-2.34L122.93,388.6c-3.568,2.275-4.616,7.013-2.34,10.581    c1.462,2.291,3.938,3.543,6.468,3.543c1.41,0,2.836-0.388,4.114-1.204l52.315-33.366    C187.055,365.879,188.103,361.141,185.826,357.574z"/>
	</g>
</g>
<g>
	<g>
		<path d="M383.779,308.945c-1.209-4.056-5.482-6.365-9.533-5.156l-43.052,12.828c-4.056,1.209-6.365,5.476-5.156,9.532    c0.991,3.326,4.039,5.477,7.341,5.477c0.724,0,1.462-0.104,2.192-0.321l43.052-12.828    C382.68,317.268,384.988,313.002,383.779,308.945z"/>
	</g>
</g>
<g>
</g>
<g>
</g>
<g>
</g>
<g>
</g>
<g>
</g>
<g>
</g>
<g>
</g>
<g>
</g>
<g>
</g>
<g>
</g>
<g>
</g>
<g>
</g>
<g>
</g>
<g>
</g>
<g>
</g>
</svg>
