<?xml version="1.0" encoding="iso-8859-1"?>
<!-- Generator: Adobe Illustrator 19.0.0, SVG Export Plug-In . SVG Version: 6.00 Build 0)  -->
<svg xmlns="http://www.w3.org/2000/svg" xmlns:xlink="http://www.w3.org/1999/xlink" version="1.1" id="Layer_1" x="0px" y="0px" viewBox="0 0 512 512" style="enable-background:new 0 0 512 512;" xml:space="preserve">
<g>
	<g>
		<path d="M494.565,72.187L428.547,6.168C424.569,2.191,419.278,0,413.652,0c-5.626,0-10.916,2.191-14.894,6.168l-29.109,29.109    c-0.003,0.003-0.007,0.006-0.01,0.009L30.735,374.193c-2.267,2.267-2.874,5.71-1.519,8.616l5.106,10.958l-20.82,20.819    c-2.267,2.267-2.875,5.71-1.52,8.616l39.326,84.391c1.051,2.256,3.136,3.858,5.588,4.29c0.442,0.078,0.885,0.116,1.326,0.116    c2.006,0,3.951-0.791,5.394-2.233l16.891-16.891l2.759,5.921c1.051,2.256,3.137,3.858,5.588,4.29    c0.442,0.078,0.886,0.116,1.326,0.116c2.006,0,3.951-0.791,5.394-2.233l350.255-350.254l48.738-48.738    c3.978-3.979,6.168-9.268,6.168-14.895C500.734,81.455,498.543,76.166,494.565,72.187z M360.789,65.712    c0.006-0.006,0.013-0.011,0.02-0.018l19.626-19.626c2.264-2.257,5.945-2.255,8.205,0.007l16.283,16.283l-50.765,50.765    c-6.394,0.519-12.643,3.211-17.524,8.091l-30.516,30.516l-19.744,19.744c-9.321-4.113-20.643-2.3-28.146,5.201    c-7.504,7.505-9.315,18.825-5.201,28.147l-24.856,24.856c-9.324-4.116-20.645-2.303-28.147,5.201    c-7.504,7.504-9.314,18.825-5.2,28.147l-2.669,2.668c-0.013,0.013-0.026,0.028-0.04,0.041l-22.148,22.148    c-9.324-4.113-20.644-2.301-28.147,5.201c-7.504,7.505-9.315,18.825-5.201,28.147l-8.3,8.3c-0.007,0.006-0.013,0.013-0.02,0.02    l-16.537,16.537c-9.322-4.114-20.641-2.303-28.147,5.201c-7.504,7.504-9.314,18.825-5.2,28.147l-3.746,3.746    c-0.012,0.012-0.024,0.024-0.037,0.037l-19.37,19.369L45.3,381.204L360.789,65.712z M415.71,73.146l11.88,11.878l-44.511,44.511    c-1.227-2.19-2.762-4.252-4.622-6.112l-2.209-2.209c-1.478-1.478-3.085-2.749-4.779-3.826L415.71,73.146z M312.804,217.134    c3.425,3.951,3.215,9.941-0.48,13.636c-3.697,3.696-9.687,3.906-13.637,0.481c-3.025-2.621-7.561-2.46-10.391,0.369    l-18.383,18.383l-8.845-31.649l6.987-6.987c2.811-2.812,2.991-7.31,0.414-10.338c-3.357-3.944-3.117-9.904,0.546-13.567    c3.663-3.663,9.622-3.903,13.567-0.545c3.03,2.576,7.526,2.394,10.338-0.415l18.591-18.592l20.248,20.248l-18.586,18.585    C310.344,209.573,310.182,214.109,312.804,217.134z M322.3,157.123l25.122-25.121c4.972-4.974,13.067-4.974,18.038,0l2.209,2.209    c4.974,4.973,4.974,13.066,0,18.038l-25.121,25.122L322.3,157.123z M254.6,275.338c3.425,3.951,3.214,9.94-0.482,13.636    c-3.696,3.696-9.683,3.907-13.634,0.481c-3.025-2.622-7.561-2.462-10.392,0.368l-15.254,15.254l-8.845-31.649l3.858-3.858    c2.811-2.812,2.991-7.31,0.414-10.338c-3.358-3.945-3.118-9.904,0.545-13.568c3.663-3.662,9.621-3.903,13.567-0.545    c3.029,2.578,7.526,2.396,10.338-0.414l13.972-13.972l8.845,31.649l-2.564,2.564C252.14,267.779,251.977,272.316,254.6,275.338z     M196.396,333.542c3.426,3.952,3.215,9.941-0.482,13.636c-3.694,3.695-9.683,3.906-13.635,0.482    c-3.023-2.621-7.56-2.461-10.391,0.368l-20.878,20.878l-8.845-31.649l9.483-9.483c2.811-2.812,2.991-7.31,0.414-10.338    c-3.357-3.944-3.117-9.904,0.546-13.567c3.663-3.663,9.622-3.903,13.567-0.545c3.03,2.576,7.528,2.394,10.337-0.415l17.101-17.1    l8.845,31.649l-5.692,5.692C193.936,325.982,193.774,330.518,196.396,333.542z M93.857,375.642    c-3.358-3.945-3.118-9.904,0.545-13.567c3.662-3.665,9.621-3.905,13.567-0.546c3.029,2.578,7.526,2.396,10.338-0.414    l11.476-11.476l8.845,31.649l-0.068,0.068c-2.829,2.83-2.991,7.367-0.368,10.391c3.425,3.951,3.214,9.94-0.482,13.635    c-3.695,3.696-9.685,3.909-13.636,0.482c-3.025-2.621-7.561-2.46-10.391,0.369l-16.329,16.33l-8.845-31.65l4.934-4.934    C96.254,383.168,96.434,378.67,93.857,375.642z M60.531,491.274l-32.468-69.676l13.115-13.115l24.544,52.669l0.001,0.002    l7.923,17.003L60.531,491.274z M75.102,444.815l-12.564-27.93l13.59-13.59l8.845,31.65L75.102,444.815z M454.658,120.304    l-19.619,19.619L92.489,482.476l-10.64-22.833l16.974-16.974c0.003-0.003,0.006-0.006,0.008-0.008l21.358-21.359    c9.351,4.22,20.737,2.439,28.308-5.131c7.571-7.572,9.349-18.956,5.13-28.307l24.768-24.767    c9.349,4.217,20.735,2.439,28.306-5.131c7.573-7.571,9.352-18.956,5.132-28.308l4.471-4.471c0.007-0.006,0.013-0.013,0.02-0.02    l20.275-20.275c9.349,4.219,20.735,2.44,28.308-5.131c7.571-7.572,9.349-18.956,5.13-28.307l1.342-1.342    c0.007-0.006,0.013-0.013,0.02-0.02l23.405-23.405c9.349,4.22,20.735,2.439,28.308-5.131c7.57-7.571,9.348-18.956,5.13-28.307    l19.7-19.699l30.516-30.516c4.268-4.269,6.861-9.585,7.792-15.129c0.114-0.101,0.231-0.197,0.34-0.307l51.788-51.788    l16.281,16.281C456.923,114.357,456.923,118.041,454.658,120.304z M483.777,91.188l-14.805,14.805    c-0.943-1.695-2.115-3.277-3.526-4.687L421.11,56.969c-0.002-0.002-0.004-0.005-0.006-0.007c-0.002-0.002-0.005-0.004-0.007-0.006    l-21.671-21.67c-1.425-1.425-3.012-2.586-4.695-3.517l14.814-14.815c1.096-1.096,2.555-1.701,4.106-1.701s3.01,0.604,4.107,1.701    l66.019,66.019c1.096,1.096,1.7,2.555,1.7,4.106S484.874,90.092,483.777,91.188z"/>
	</g>
</g>
<g>
</g>
<g>
</g>
<g>
</g>
<g>
</g>
<g>
</g>
<g>
</g>
<g>
</g>
<g>
</g>
<g>
</g>
<g>
</g>
<g>
</g>
<g>
</g>
<g>
</g>
<g>
</g>
<g>
</g>
</svg>
