<?xml version="1.0" encoding="iso-8859-1"?>
<!-- Generator: Adobe Illustrator 19.0.0, SVG Export Plug-In . SVG Version: 6.00 Build 0)  -->
<svg xmlns="http://www.w3.org/2000/svg" xmlns:xlink="http://www.w3.org/1999/xlink" version="1.1" id="Layer_1" x="0px" y="0px" viewBox="0 0 511.997 511.997" style="enable-background:new 0 0 511.997 511.997;" xml:space="preserve">
<g>
	<g>
		<path d="M498.408,217.299c-0.777,0-1.267-0.394-1.542-0.725c-0.274-0.33-0.571-0.885-0.426-1.649l4.575-24.247    c2.072-10.984,3.123-22.22,3.123-33.395v-28.821V90.165V65.808c0-14.106-11.477-25.582-25.583-25.582h-37.148    c-14.106,0-25.583,11.476-25.583,25.582v24.356v38.299v28.242c0,11.033,1.024,22.126,3.044,32.972l4.702,25.252    c0.143,0.763-0.154,1.318-0.429,1.647c-0.275,0.329-0.763,0.723-1.587,0.723c-7.496,0-13.592,6.098-13.592,13.592v27.906    c0,4.199,3.404,7.602,7.602,7.602h21.664v29.343c-82.642,14.31-279.814,14.31-362.455,0v-29.343h21.664    c4.198,0,7.602-3.403,7.602-7.602v-27.906c0-7.496-6.098-13.592-13.592-13.592c-0.777,0-1.267-0.394-1.542-0.725    c-0.274-0.33-0.571-0.885-0.426-1.649l4.575-24.247c2.072-10.981,3.123-22.218,3.123-33.395v-28.821V90.165V65.808    c0-14.106-11.476-25.582-25.583-25.582H33.445c-14.106,0-25.583,11.476-25.583,25.582v24.356v38.299v28.242    c0,11.033,1.024,22.126,3.044,32.972l4.703,25.252c0.142,0.764-0.155,1.318-0.429,1.647c-0.275,0.329-0.763,0.723-1.587,0.723    C6.098,217.299,0,223.397,0,230.892v27.906c0,4.199,3.404,7.602,7.602,7.602h21.664v24.874v41.598v79.109    c0,7.758,1.89,15.499,5.467,22.385l17.301,33.307c1.117,2.15,3.192,3.64,5.587,4.009c0.387,0.06,0.774,0.089,1.161,0.089    c2,0,3.939-0.79,5.375-2.226l16.538-16.538l16.538,16.538c2.969,2.968,7.782,2.968,10.75,0l16.538-16.538l16.538,16.538    c2.969,2.968,7.782,2.968,10.75,0l16.538-16.538l16.538,16.538c2.969,2.968,7.782,2.968,10.75,0l16.538-16.538l16.538,16.538    c2.969,2.968,7.782,2.968,10.75,0l16.538-16.538l16.538,16.538c2.969,2.968,7.782,2.968,10.75,0l16.538-16.538l16.538,16.538    c2.969,2.968,7.782,2.968,10.75,0l16.538-16.538l16.538,16.538c2.969,2.968,7.782,2.968,10.75,0l16.538-16.538l16.538,16.538    c2.969,2.968,7.782,2.968,10.75,0l16.538-16.538l16.538,16.538c1.713,1.712,4.139,2.503,6.535,2.137    c2.394-0.369,4.47-1.858,5.587-4.009l17.302-33.307c3.577-6.886,5.467-14.627,5.467-22.385v-79.109v-41.598V266.4h21.664    c4.198,0,7.602-3.403,7.602-7.602v-27.906C512,223.397,505.902,217.299,498.408,217.299z M431.028,65.808    c0-5.722,4.656-10.378,10.379-10.378h37.148c5.723,0,10.379,4.656,10.379,10.378v16.754h-57.907V65.808z M431.028,97.767h57.907    v23.095h-57.907V97.767z M74.773,311.163c40.243,6.636,106.771,10.544,181.227,10.544c74.455,0,140.983-3.908,181.227-10.544    v10.456c-82.642,14.311-279.814,14.311-362.455,0V311.163z M23.065,65.808c0-5.722,4.656-10.378,10.379-10.378h37.148    c5.723,0,10.379,4.656,10.379,10.378v16.754H23.065V65.808z M23.065,97.767h57.907v23.095H23.065V97.767z M15.204,251.197v-18.764    c4.538-0.411,8.726-2.597,11.67-6.14c3.279-3.947,4.622-9.102,3.681-14.147l-4.703-25.252c-1.849-9.931-2.787-20.087-2.787-30.189    v-20.64h57.907v21.219c0,10.234-0.962,20.521-2.859,30.576l-4.575,24.247c-0.953,5.049,0.381,10.214,3.661,14.17    c2.934,3.541,7.108,5.729,11.635,6.151v18.769H67.171H36.868H15.204z M44.471,291.274V266.4h15.099v0.001v35.711    c0,0.021,0,0.043,0,0.063v25.808c0,0.022,0,0.046,0,0.068v4.821c0,3.633-2.956,6.588-6.588,6.588h-1.922    c-3.633,0-6.588-2.956-6.588-6.588V291.274z M467.533,411.982c-0.003,5.328-1.301,10.646-3.758,15.376l-12.518,24.097    l-14.576-14.576c-2.969-2.968-7.782-2.968-10.75,0l-16.539,16.539l-16.538-16.538c-2.969-2.968-7.782-2.968-10.75,0    l-16.538,16.538l-16.538-16.538c-2.969-2.968-7.782-2.968-10.75,0l-16.538,16.538l-16.538-16.538    c-2.969-2.968-7.782-2.968-10.75,0l-16.538,16.538l-16.538-16.538c-2.969-2.968-7.782-2.968-10.75,0l-16.538,16.538    l-16.538-16.538c-2.969-2.968-7.782-2.968-10.75,0l-16.538,16.538l-16.538-16.538c-2.969-2.968-7.782-2.968-10.75,0    l-16.538,16.538l-16.538-16.538c-2.969-2.968-7.782-2.968-10.75,0l-16.538,16.538l-16.538-16.538    c-2.969-2.968-7.782-2.968-10.75,0l-14.576,14.576l-12.518-24.097c-2.457-4.73-3.756-10.048-3.756-15.377v-58.341    c2.08,0.661,4.293,1.024,6.588,1.024h1.922c10.614,0,19.468-7.631,21.393-17.693c40.202,6.677,106.927,10.61,181.628,10.61    c74.7,0,141.424-3.934,181.627-10.61c1.925,10.062,10.779,17.693,21.393,17.693h1.922c2.296,0,4.508-0.362,6.588-1.024V411.982z     M452.432,332.873v-4.823c0-0.021,0-0.043,0-0.063v-25.811c0-0.021,0-0.043,0-0.063v-35.711h15.099v24.873v41.598    c0,3.633-2.956,6.588-6.588,6.588h-1.922C455.387,339.461,452.432,336.506,452.432,332.873z M475.132,251.197H444.83h-21.664    v-18.764c4.538-0.41,8.725-2.597,11.669-6.139c3.28-3.947,4.622-9.102,3.682-14.148l-4.703-25.252    c-1.849-9.931-2.787-20.087-2.787-30.189v-20.64h57.907v21.219c0,10.232-0.962,20.519-2.859,30.576l-4.575,24.247    c-0.953,5.049,0.381,10.214,3.66,14.17c2.934,3.541,7.108,5.729,11.635,6.151v18.769H475.132z"/>
	</g>
</g>
<g>
</g>
<g>
</g>
<g>
</g>
<g>
</g>
<g>
</g>
<g>
</g>
<g>
</g>
<g>
</g>
<g>
</g>
<g>
</g>
<g>
</g>
<g>
</g>
<g>
</g>
<g>
</g>
<g>
</g>
</svg>
