<?xml version="1.0" encoding="iso-8859-1"?>
<!-- Generator: Adobe Illustrator 19.0.0, SVG Export Plug-In . SVG Version: 6.00 Build 0)  -->
<svg xmlns="http://www.w3.org/2000/svg" xmlns:xlink="http://www.w3.org/1999/xlink" version="1.1" id="Layer_1" x="0px" y="0px" viewBox="0 0 512 512" style="enable-background:new 0 0 512 512;" xml:space="preserve">
<g>
	<g>
		<path d="M357.634,148.518h-7.714V7.861c0-4.207-3.41-7.616-7.616-7.616h-39.996C301.703,0.09,301.074,0,300.421,0    c-0.653,0-1.282,0.09-1.886,0.245H211.89C211.285,0.09,210.656,0,210.004,0s-1.282,0.09-1.886,0.245h-38.42    c-4.206,0-7.616,3.409-7.616,7.616v140.657h-7.714c-4.206,0-7.616,3.409-7.616,7.616v54.25c0,4.207,3.41,7.616,7.616,7.616h15.518    c7.454,17.063,20.002,31.784,35.799,41.822c9.602,6.101,15.333,16.474,15.333,27.748v86.097c0,18.58-4.9,36.198-14.17,50.952    c-6.124,9.747-9.119,21.015-8.667,32.589c1.159,29.577,25.236,53.626,54.813,54.747c0.751,0.028,1.498,0.044,2.244,0.044    c14.843,0,28.815-5.618,39.551-15.954c11.281-10.861,17.494-25.465,17.494-41.122c0-10.464-2.862-20.699-8.276-29.599    c-9.554-15.708-14.604-33.09-14.604-50.266v-86.505c0-11.476,5.874-21.937,15.712-27.983    c16.379-10.065,29.351-25.054,36.997-42.57h15.518c4.206,0,7.616-3.409,7.616-7.616v-54.25    C365.251,151.927,361.841,148.518,357.634,148.518z M217.62,15.478h75.184v88.543c0,3.64-2.961,6.601-6.601,6.601H284.5    c-3.64,0-6.601-2.961-6.601-6.601V64.395c0-12.039-9.795-21.834-21.834-21.834h-1.704c-12.039,0-21.834,9.795-21.834,21.834    v59.937c0,3.64-2.961,6.601-6.601,6.601h-1.705c-3.64,0-6.601-2.961-6.601-6.601V15.478z M177.314,15.478h25.073v108.854    c0,12.039,9.795,21.834,21.834,21.834h1.705c12.039,0,21.834-9.795,21.834-21.834V64.395c0-3.64,2.961-6.601,6.601-6.601h1.704    c3.64,0,6.601,2.961,6.601,6.601v39.627c0,12.039,9.795,21.834,21.834,21.834h1.704c12.039,0,21.834-9.795,21.834-21.834V15.479    h26.649v133.041H177.314V15.478z M297.143,247.593c-14.383,8.837-22.969,24.15-22.969,40.96v86.505    c0,19.969,5.817,40.089,16.822,58.182c3.963,6.516,6.058,14.013,6.058,21.684c0,11.478-4.555,22.185-12.826,30.148    c-8.266,7.959-19.158,12.107-30.654,11.663c-21.675-0.824-39.32-18.447-40.17-40.123c-0.333-8.492,1.861-16.752,6.344-23.887    c10.797-17.185,16.503-37.606,16.503-59.056v-86.097c0-16.515-8.373-31.694-22.397-40.605    c-11.327-7.198-20.67-17.258-27.044-28.963l138.385-0.002C318.634,230.061,308.938,240.344,297.143,247.593z M350.018,202.768    H161.984v-39.017h188.034V202.768z"/>
	</g>
</g>
<g>
	<g>
		<path d="M256.001,435.931c-11.907,0-21.594,9.687-21.594,21.594c0,11.908,9.687,21.595,21.594,21.595    c11.907,0,21.594-9.687,21.594-21.595C277.595,445.618,267.908,435.931,256.001,435.931z M256.001,463.889    c-3.508,0-6.361-2.855-6.361-6.362s2.854-6.361,6.361-6.361c3.508,0,6.361,2.854,6.361,6.361S259.509,463.889,256.001,463.889z"/>
	</g>
</g>
<g>
</g>
<g>
</g>
<g>
</g>
<g>
</g>
<g>
</g>
<g>
</g>
<g>
</g>
<g>
</g>
<g>
</g>
<g>
</g>
<g>
</g>
<g>
</g>
<g>
</g>
<g>
</g>
<g>
</g>
</svg>
