<?xml version="1.0" encoding="iso-8859-1"?>
<!-- Generator: Adobe Illustrator 19.0.0, SVG Export Plug-In . SVG Version: 6.00 Build 0)  -->
<svg xmlns="http://www.w3.org/2000/svg" xmlns:xlink="http://www.w3.org/1999/xlink" version="1.1" id="Layer_1" x="0px" y="0px" viewBox="0 0 512 512" style="enable-background:new 0 0 512 512;" xml:space="preserve">
<g>
	<g>
		<path d="M504.505,33.772L478.231,7.495C473.397,2.662,466.971,0,460.135,0s-13.261,2.662-18.095,7.495l-64.291,64.291    c-7.805,7.805-14.927,16.376-21.167,25.474l-14.535,21.188c-0.44,0.64-1.04,0.821-1.467,0.861    c-0.424,0.041-1.049-0.028-1.633-0.612c-5.301-5.299-13.925-5.302-19.229,0.001l-19.738,19.739c-2.97,2.97-2.97,7.783,0,10.753    l13.945,13.945l-48.953,48.953l-72.561-72.56c-5.912-5.912-14.343-8.491-22.551-6.903c-8.208,1.589-15.066,7.129-18.345,14.82    L61.786,357.915c-18.312,5.058-31.803,21.856-31.803,41.755c0,1.672,0.096,3.337,0.286,4.986    c-13.9,3.31-24.27,15.833-24.27,30.733c0,10.092,4.762,19.09,12.152,24.876L0.61,501.414c-1.217,2.855-0.576,6.164,1.618,8.359    c1.457,1.456,3.4,2.226,5.38,2.226c1.005,0,2.018-0.199,2.98-0.609L45.61,496.46c5.26,3.913,11.772,6.233,18.817,6.233    c15.4,0,28.26-11.077,31.033-25.682c3.655-1.049,7.137-2.574,10.379-4.541c5.894,7.424,14.976,12.008,24.745,12.008    c17.417,0,31.587-14.171,31.587-31.587c0-1.988-0.191-3.956-0.557-5.885l202.941-86.518c7.69-3.278,13.231-10.137,14.82-18.345    c1.589-8.209-0.992-16.639-6.903-22.552l-72.561-72.56l48.953-48.953l13.945,13.945c1.485,1.484,3.431,2.226,5.378,2.226    c1.946,0,3.892-0.742,5.377-2.226l19.741-19.74c5.299-5.301,5.299-13.926-0.001-19.227c-0.551-0.55-0.618-1.175-0.578-1.603    c0.04-0.427,0.222-1.029,0.866-1.467l20.384-13.913c9.23-6.299,17.921-13.503,25.831-21.411l64.697-64.699    c4.834-4.834,7.496-11.259,7.496-18.095C511.999,45.031,509.338,38.604,504.505,33.772z M22.013,489.987l10.021-23.506    c0.371,0.066,0.743,0.131,1.119,0.185c-0.21,1.465-0.316,2.949-0.316,4.441c0,4.656,1.021,9.074,2.837,13.056L22.013,489.987z     M146.371,433.483c-3.431,2.333-4.358,6.986-2.083,10.456c1.752,2.673,2.678,5.769,2.678,8.954    c-0.001,9.028-7.349,16.376-16.381,16.376c-6.809,0-12.975-4.305-15.344-10.711c-0.889-2.403-2.928-4.197-5.424-4.772    c-2.492-0.58-5.114,0.143-6.965,1.915c-4.295,4.108-9.656,6.71-15.507,7.523c-3.807,0.529-6.621,3.816-6.557,7.66    c0.002,0.134,0.008,0.267,0.016,0.404c-0.097,8.949-7.407,16.199-16.378,16.199c-9.031,0-16.38-7.347-16.38-16.379    c0-3.035,0.859-6.019,2.483-8.627c1.661-2.663,1.513-6.073-0.371-8.584c-1.459-1.946-3.729-3.041-6.082-3.041    c-0.684,0-1.375,0.092-2.055,0.283c-1.488,0.418-2.98,0.63-4.434,0.63c-9.031,0-16.379-7.347-16.379-16.379    s7.347-16.38,16.379-16.38c0.418,0,0.912,0.036,1.386,0.076c2.562,0.202,5.07-0.889,6.647-2.928    c1.577-2.04,2.013-4.738,1.159-7.17c-1.053-2.999-1.587-6.134-1.587-9.316c0-15.502,12.611-28.113,28.113-28.113    c3.71,0,7.32,0.714,10.728,2.123c3.461,1.431,7.451,0.129,9.399-3.071c3.01-4.943,8.237-7.893,13.981-7.893    c7.824,0,14.581,5.568,16.069,13.24c0.688,3.547,3.778,6.12,7.389,6.156c15.345,0.152,27.828,12.76,27.828,28.105    C158.7,419.534,154.091,428.232,146.371,433.483z M361.717,330.342c2.372,2.371,3.366,5.619,2.728,8.909    c-0.637,3.291-2.77,5.932-5.853,7.245L170.67,426.611c2.101-5.133,3.235-10.686,3.235-16.396c0-21.713-16.22-39.87-37.179-42.877    c-4.721-11.774-16.247-19.832-29.315-19.832c-8.997,0-17.328,3.734-23.246,10.218c-1.752-0.454-3.531-0.795-5.33-1.025    l86.668-203.29c1.314-3.083,3.954-5.217,7.245-5.853c3.292-0.639,6.538,0.358,8.907,2.726l77.933,77.933    c0.001,0.001,0.002,0.003,0.004,0.004l24.187,24.187c0.002,0.002,0.004,0.003,0.006,0.005L361.717,330.342z M289.159,236.276    l-13.434-13.434l48.953-48.953l13.434,13.434L289.159,236.276z M493.751,59.205l-64.697,64.699    c-7.243,7.241-15.199,13.836-23.65,19.604l-20.384,13.913c-4.246,2.897-6.955,7.494-7.434,12.611    c-0.429,4.581,0.975,9.081,3.879,12.581l-13.275,13.274l-13.935-13.936c-0.003-0.003-0.006-0.007-0.009-0.01l-24.187-24.187    c-0.003-0.003-0.007-0.006-0.01-0.009l-13.935-13.935l13.271-13.272c3.5,2.92,8.015,4.335,12.596,3.911    c5.111-0.471,9.707-3.169,12.61-7.401l14.535-21.188c5.714-8.33,12.234-16.177,19.381-23.323l64.289-64.29    c4.047-4.049,10.633-4.046,14.681-0.001l26.275,26.276c1.961,1.961,3.041,4.567,3.041,7.34S495.712,57.246,493.751,59.205z"/>
	</g>
</g>
<g>
	<g>
		<path d="M460.918,48.7c-2.957-2.98-7.772-2.995-10.753-0.036l-48.01,47.686c-2.98,2.959-2.996,7.774-0.036,10.753    c1.486,1.497,3.441,2.246,5.395,2.246c1.938,0,3.875-0.736,5.358-2.209l48.01-47.686C463.861,56.493,463.877,51.678,460.918,48.7z    "/>
	</g>
</g>
<g>
</g>
<g>
</g>
<g>
</g>
<g>
</g>
<g>
</g>
<g>
</g>
<g>
</g>
<g>
</g>
<g>
</g>
<g>
</g>
<g>
</g>
<g>
</g>
<g>
</g>
<g>
</g>
<g>
</g>
</svg>
