<?xml version="1.0" encoding="iso-8859-1"?>
<!-- Generator: Adobe Illustrator 19.0.0, SVG Export Plug-In . SVG Version: 6.00 Build 0)  -->
<svg xmlns="http://www.w3.org/2000/svg" xmlns:xlink="http://www.w3.org/1999/xlink" version="1.1" id="Layer_1" x="0px" y="0px" viewBox="0 0 511.999 511.999" style="enable-background:new 0 0 511.999 511.999;" xml:space="preserve">
<g>
	<g>
		<path d="M354.899,50.578V11.815c0-4.165-3.375-7.541-7.54-7.541h-44.035c-4.165,0-7.54,3.375-7.54,7.541v38.714h-2.34    c-4.165,0-7.541,3.375-7.541,7.54v6.893L210.275,1.754c-2.995-2.502-7.407-2.305-10.168,0.453    c-66.28,66.282-66.28,174.127,0,240.407c1.466,1.465,3.397,2.208,5.335,2.208c1.711,0,3.428-0.58,4.834-1.754l23.689-19.799    c0.442-0.219,0.874-0.471,1.279-0.785c0.567-0.439,1.049-0.948,1.454-1.499l49.206-41.126v6.373c0,4.165,3.375,7.541,7.54,7.541    h2.341v106.903c0,8.391-1.271,16.708-3.773,24.71l-0.063,0.201c-5.802,18.548-8.745,37.807-8.745,57.243v121.63    c0,4.165,3.375,7.541,7.541,7.541h45.416c4.992,0,9.761-2.134,13.087-5.856c3.325-3.722,4.91-8.701,4.35-13.659l-10.455-92.62    c-0.001-0.012-0.003-0.025-0.004-0.037l-0.818-7.253c0.041-17.763,2.751-35.365,8.052-52.31l0.063-0.201    c2.962-9.469,4.464-19.301,4.464-29.223V193.724c3.77-0.417,6.703-3.61,6.703-7.491V58.069    C361.602,54.188,358.669,50.995,354.899,50.578z M310.864,19.355h28.954v31.173h-28.954V19.355z M206.011,226.977    c-54.057-59.022-54.057-150.109,0.001-209.132l18.092,15.121c-41.023,53.57-42.318,127.292-3.886,182.136L206.011,226.977z     M288.608,157.944l-56.755,47.435c-33.793-49.189-32.514-114.781,3.848-162.72l52.907,44.219c2.247,1.877,5.378,2.283,8.029,1.045    c2.652-1.24,4.346-3.903,4.346-6.831V69.048c0.737,0.24,1.522,0.375,2.34,0.375h18.978v109.271h-21.317v-14.962    c0-2.928-1.695-5.591-4.346-6.831C293.982,155.658,290.855,156.067,288.608,157.944z M327.284,393.838l0.257,2.277    c-13.315,7.075-22.687,17.988-29.258,29.373v-20.569c0.561-5.85,9.103-38.098,25.553-51.607    c4.114-3.379,7.752-8.107,10.953-13.585c-5.011,17.318-7.553,35.216-7.553,53.266    C327.237,393.275,327.253,393.557,327.284,393.838z M337.998,496.096c-0.274,0.309-0.879,0.823-1.84,0.823h-37.875v-23.534    c0.425-3.772,5.418-42.653,31.124-60.743l9.203,81.535C338.716,495.131,338.273,495.788,337.998,496.096z M339.817,272.868    c-2.329,15.637-11.203,57.004-25.553,68.788c-5.591,4.592-10.338,10.554-14.315,16.983c1.336-9.658,3.466-19.198,6.387-28.539    l0.063-0.202c2.962-9.472,4.464-19.304,4.464-29.222v-26.659c0.764-4.619,7.378-40.724,28.953-53.699V272.868z M339.818,203.623    c-13.011,4.9-22.338,15.091-28.953,26.169v-31.743h28.953V203.623z M346.521,178.693h-9.139V69.422h9.139V178.693z"/>
	</g>
</g>
<g>
	<g>
		<path d="M275.901,91.35l-30.155-25.449c-3.181-2.686-7.94-2.283-10.625,0.9c-2.686,3.182-2.283,7.94,0.9,10.625l30.155,25.449    c1.415,1.194,3.142,1.779,4.859,1.779c2.145,0,4.275-0.91,5.766-2.677C279.486,98.793,279.084,94.035,275.901,91.35z"/>
	</g>
</g>
<g>
</g>
<g>
</g>
<g>
</g>
<g>
</g>
<g>
</g>
<g>
</g>
<g>
</g>
<g>
</g>
<g>
</g>
<g>
</g>
<g>
</g>
<g>
</g>
<g>
</g>
<g>
</g>
<g>
</g>
</svg>
