<?xml version="1.0" encoding="iso-8859-1"?>
<!-- Generator: Adobe Illustrator 19.0.0, SVG Export Plug-In . SVG Version: 6.00 Build 0)  -->
<svg xmlns="http://www.w3.org/2000/svg" xmlns:xlink="http://www.w3.org/1999/xlink" version="1.1" id="Layer_1" x="0px" y="0px" viewBox="0 0 512 512" style="enable-background:new 0 0 512 512;" xml:space="preserve">
<g>
	<g>
		<path d="M105.471,265.416c-25.37,0-46.009,20.641-46.009,46.009c0,25.369,20.64,46.009,46.009,46.009s46.009-20.641,46.009-46.009    C151.48,286.055,130.841,265.416,105.471,265.416z M105.471,342.221c-16.981,0-30.796-13.815-30.796-30.796    s13.815-30.797,30.796-30.797c16.981,0,30.797,13.815,30.797,30.797C136.268,328.406,122.453,342.221,105.471,342.221z"/>
	</g>
</g>
<g>
	<g>
		<path d="M105.471,295.027c-9.042,0-16.398,7.356-16.398,16.398c0,9.041,7.356,16.397,16.398,16.397    c9.042,0,16.398-7.356,16.398-16.397C121.87,302.382,114.514,295.027,105.471,295.027z M105.471,312.609    c-0.654,0-1.186-0.532-1.186-1.185c0-0.654,0.531-1.186,1.186-1.186c0.654,0,1.186,0.531,1.186,1.186    C106.657,312.078,106.125,312.609,105.471,312.609z"/>
	</g>
</g>
<g>
	<g>
		<path d="M504.394,295.027h-43.435c-9.638-36.552-42.97-63.586-82.507-63.586H223.367c-18.337-27.031-45.529-47.588-77.376-57.47    V97.403h1.21c12.025,0,21.808-9.783,21.808-21.808s-9.783-21.808-21.808-21.808H96.655c-12.025,0-21.808,9.783-21.808,21.808    s9.783,21.808,21.808,21.808h1.21v70.17c-16.531,0.571-32.657,3.894-48.005,9.924c-13.341,5.241-19.932,20.36-14.691,33.701    c2.169,5.523,6.077,10.027,11.136,12.956C18.379,243.149,0,275.18,0,311.425c0,50.742,36.022,93.227,83.835,103.235    c-4.246,4.629-6.844,10.794-6.844,17.556c0,14.334,11.662,25.996,25.996,25.996c46.545,0,88.046-21.991,114.67-56.127h160.794    c37.672,0,69.696-24.55,80.974-58.483h44.969c4.202,0,7.606-3.405,7.606-7.606v-33.362    C512,298.431,508.595,295.027,504.394,295.027z M96.655,82.19c-3.637,0-6.595-2.958-6.595-6.595S93.018,69,96.655,69h50.548    c3.637,0,6.595,2.958,6.595,6.595s-2.958,6.595-6.595,6.595h-8.816c-4.201,0-7.606,3.405-7.606,7.606v80.355    c-5.787-1.125-11.695-1.907-17.702-2.32V89.797c0-4.202-3.406-7.606-7.606-7.606H96.655z M15.213,311.425    c0-49.769,40.49-90.259,90.259-90.259c49.769,0,90.259,40.49,90.259,90.259c0,49.768-40.49,90.258-90.259,90.258    C55.703,401.682,15.213,361.193,15.213,311.425z M102.988,442.999c-5.946,0-10.784-4.838-10.784-10.784    s4.838-10.784,10.784-10.784c59.875,0,108.587-48.712,108.587-108.588s-48.712-108.588-108.587-108.588    c-13.701,0-27.051,2.515-39.681,7.477c-2.68,1.053-5.61,0.997-8.25-0.152c-2.641-1.151-4.675-3.262-5.728-5.942    c-2.174-5.534,0.56-11.806,6.094-13.98c15.15-5.95,31.154-8.968,47.565-8.968c71.767,0,130.154,58.387,130.154,130.155    S174.756,442.999,102.988,442.999z M378.452,386.872H228.045c12.892-21.697,20.31-47.011,20.31-74.029    c0-23.824-5.762-46.328-15.963-66.191h146.06c38.658,0,70.11,31.452,70.11,70.11C448.561,355.421,417.111,386.872,378.452,386.872    z M496.787,328.389h-33.826c0.521-3.804,0.813-7.681,0.813-11.626c0-2.198-0.111-4.368-0.275-6.524h33.287V328.389z"/>
	</g>
</g>
<g>
	<g>
		<path d="M105.471,233.504c-42.966,0-77.921,34.956-77.921,77.921c0,4.202,3.406,7.606,7.606,7.606s7.606-3.405,7.606-7.606    c0.001-34.578,28.131-62.709,62.709-62.709c4.201,0,7.606-3.405,7.606-7.606C113.078,236.908,109.672,233.504,105.471,233.504z"/>
	</g>
</g>
<g>
	<g>
		<path d="M280.821,329.718c-11.089,0-20.109,9.022-20.109,20.11s9.021,20.109,20.109,20.109s20.11-9.021,20.11-20.109    S291.91,329.718,280.821,329.718z M280.821,354.724c-2.654,0-4.896-2.242-4.896-4.896s2.242-4.897,4.896-4.897    s4.897,2.243,4.897,4.897S283.476,354.724,280.821,354.724z"/>
	</g>
</g>
<g>
	<g>
		<path d="M325.853,329.718c-11.089,0-20.11,9.022-20.11,20.11s9.022,20.109,20.11,20.109s20.109-9.021,20.109-20.109    S336.942,329.718,325.853,329.718z M325.853,354.724c-2.654,0-4.897-2.242-4.897-4.896s2.243-4.897,4.897-4.897    s4.896,2.243,4.896,4.897S328.508,354.724,325.853,354.724z"/>
	</g>
</g>
<g>
	<g>
		<path d="M370.81,329.718c-11.089,0-20.11,9.022-20.11,20.11s9.022,20.109,20.11,20.109s20.109-9.021,20.109-20.109    S381.899,329.718,370.81,329.718z M370.81,354.724c-2.654,0-4.897-2.242-4.897-4.896s2.243-4.897,4.897-4.897    s4.896,2.243,4.896,4.897S373.466,354.724,370.81,354.724z"/>
	</g>
</g>
<g>
	<g>
		<path d="M383.314,291.003H268.319c-4.202,0-7.606,3.405-7.606,7.606c0,4.202,3.405,7.606,7.606,7.606h114.995    c4.202,0,7.606-3.405,7.606-7.606C390.92,294.408,387.515,291.003,383.314,291.003z"/>
	</g>
</g>
<g>
	<g>
		<path d="M383.314,267.497H268.319c-4.202,0-7.606,3.405-7.606,7.606c0,4.202,3.405,7.606,7.606,7.606h114.995    c4.202,0,7.606-3.405,7.606-7.606C390.92,270.901,387.515,267.497,383.314,267.497z"/>
	</g>
</g>
<g>
</g>
<g>
</g>
<g>
</g>
<g>
</g>
<g>
</g>
<g>
</g>
<g>
</g>
<g>
</g>
<g>
</g>
<g>
</g>
<g>
</g>
<g>
</g>
<g>
</g>
<g>
</g>
<g>
</g>
</svg>
