<?xml version="1.0" encoding="iso-8859-1"?>
<!-- Generator: Adobe Illustrator 19.0.0, SVG Export Plug-In . SVG Version: 6.00 Build 0)  -->
<svg xmlns="http://www.w3.org/2000/svg" xmlns:xlink="http://www.w3.org/1999/xlink" version="1.1" id="Layer_1" x="0px" y="0px" viewBox="0 0 512 512" style="enable-background:new 0 0 512 512;" xml:space="preserve">
<g>
	<g>
		<path d="M136.21,375.792c-6.634-6.635-15.454-10.287-24.836-10.287c-9.381,0-18.202,3.652-24.834,10.286    c-6.634,6.634-10.287,15.454-10.287,24.834c0,9.381,3.653,18.201,10.287,24.834c6.634,6.635,15.454,10.287,24.834,10.287    c9.382,0,18.202-3.652,24.835-10.287c6.634-6.634,10.286-15.454,10.286-24.834C146.496,391.245,142.843,382.424,136.21,375.792z     M125.347,414.598c-3.732,3.732-8.694,5.786-13.971,5.786c-5.277,0-10.239-2.055-13.971-5.787    c-3.732-3.732-5.787-8.693-5.787-13.971c-0.001-5.278,2.055-10.239,5.787-13.971c3.732-3.732,8.694-5.786,13.971-5.786    s10.24,2.055,13.971,5.786c0,0.001,0,0.001,0,0.001c3.732,3.731,5.787,8.693,5.787,13.971    C131.134,405.903,129.079,410.865,125.347,414.598z"/>
	</g>
</g>
<g>
	<g>
		<path d="M509.75,81.505L430.494,2.249c-3-2.999-7.864-2.999-10.863,0l-154.009,154.01c-1.441,1.441-2.25,3.394-2.25,5.432    s0.809,3.99,2.25,5.432l2.311,2.311l-98.5,98.499l-2.311-2.311c-3-2.999-7.864-2.999-10.863,0L2.25,419.63    C0.809,421.071,0,423.025,0,425.063s0.809,3.99,2.25,5.432l79.256,79.256c1.499,1.499,3.466,2.249,5.431,2.249    s3.932-0.75,5.431-2.249l20.844-20.844c0.002-0.002,0.003-0.003,0.005-0.005c0.002-0.002,0.003-0.003,0.005-0.005L509.75,92.37    c1.441-1.442,2.25-3.395,2.25-5.432S511.191,82.947,509.75,81.505z M278.797,180.297l3.918,3.918l-98.5,98.499l-3.918-3.918    L278.797,180.297z M293.342,195.315c1.998,3.505,1.513,8.051-1.475,11.039l-85.513,85.513c-2.988,2.988-7.535,3.473-11.04,1.475    L293.342,195.315z M86.937,493.454l-68.393-68.392l9.985-9.985l68.393,68.392L86.937,493.454z M107.787,472.605l-68.393-68.392    l122.297-122.296l20.813,20.813c9.571,9.57,25.144,9.57,34.714,0l85.513-85.513c9.57-9.571,9.57-25.144,0-34.715l-10.407-10.406    l-8.096-8.096c-0.001-0.001-0.003-0.002-0.004-0.004l-2.307-2.307L402.015,41.593l68.392,68.393L107.787,472.605z M481.271,99.122    l-68.392-68.393l12.183-12.183l68.393,68.392L481.271,99.122z"/>
	</g>
</g>
<g>
	<g>
		<path d="M420.292,82.464L407.513,69.34c-1.422-1.46-3.366-2.295-5.403-2.322c-2.073-0.041-4.003,0.756-5.462,2.179l-26.936,26.247    c-3.039,2.962-3.101,7.825-0.141,10.863c1.507,1.546,3.504,2.321,5.503,2.321c1.933,0,3.866-0.725,5.36-2.18l21.433-20.885    l7.417,7.618c2.959,3.039,7.823,3.104,10.862,0.144C423.186,90.366,423.251,85.503,420.292,82.464z"/>
	</g>
</g>
<g>
</g>
<g>
</g>
<g>
</g>
<g>
</g>
<g>
</g>
<g>
</g>
<g>
</g>
<g>
</g>
<g>
</g>
<g>
</g>
<g>
</g>
<g>
</g>
<g>
</g>
<g>
</g>
<g>
</g>
</svg>
