<?xml version="1.0" encoding="iso-8859-1"?>
<!-- Generator: Adobe Illustrator 19.0.0, SVG Export Plug-In . SVG Version: 6.00 Build 0)  -->
<svg xmlns="http://www.w3.org/2000/svg" xmlns:xlink="http://www.w3.org/1999/xlink" version="1.1" id="Layer_1" x="0px" y="0px" viewBox="0 0 511.996 511.996" style="enable-background:new 0 0 511.996 511.996;" xml:space="preserve">
<g>
	<g>
		<path d="M489.858,333.752c-0.306,0-0.612,0.019-0.917,0.056l-83.039,10.081c-1.376-0.022-3.419-0.148-5.749-0.291    c-14.978-0.919-26.898-1.182-32.769,4.339c-0.257,0.242-0.497,0.496-0.728,0.755h-34.278v-185.73    c0-34.357-27.951-62.307-62.308-62.307H62.31c-34.357,0-62.307,27.951-62.307,62.307v73.597c0,0.014-0.003,0.028-0.003,0.043    v38.765c0,0.015,0.003,0.03,0.003,0.046v80.885v29.818c0,2.017,0.801,3.951,2.227,5.379l17.62,17.62    c2.971,2.969,7.786,2.969,10.756,0l12.242-12.243l12.241,12.242c1.427,1.427,3.361,2.228,5.379,2.228s3.951-0.801,5.379-2.227    l12.242-12.243l12.242,12.243c2.971,2.969,7.786,2.969,10.756,0l12.242-12.243l12.242,12.243c1.427,1.426,3.361,2.227,5.379,2.227    c2.018,0,3.951-0.801,5.379-2.228l12.241-12.242l12.242,12.243c2.971,2.969,7.786,2.969,10.756,0l12.242-12.243l12.242,12.243    c2.971,2.969,7.786,2.969,10.756,0l12.242-12.243l12.242,12.243c1.427,1.426,3.361,2.227,5.379,2.227s3.951-0.801,5.379-2.228    l12.241-12.242l12.242,12.243c2.971,2.969,7.786,2.969,10.756,0l12.242-12.243l12.242,12.243c1.486,1.485,3.433,2.227,5.379,2.227    c1.946,0,3.893-0.742,5.379-2.227l15.993-15.993h36.839c0.536,0.925,1.211,1.783,2.021,2.545    c5.869,5.523,17.793,5.261,32.768,4.339c2.329-0.143,4.373-0.268,5.75-0.291l83.039,10.081c0.305,0.036,0.612,0.056,0.917,0.056    c12.209,0,22.143-9.934,22.143-22.143v-31.813C512,343.684,502.067,333.752,489.858,333.752z M15.214,162.961    c0-25.969,21.127-47.096,47.096-47.096H270.07c25.969,0,47.097,21.127,47.097,47.096v49.436l-22.253,11.641v-47.903    c0-21.998-18.292-39.896-40.775-39.896H78.647c-22.484,0-40.776,17.897-40.776,39.896v36.431l-22.657,11.596V162.961z     M317.167,268.329v80.363h-22.253V279.97L317.167,268.329z M294.914,262.804v-21.598l21.838-11.426v21.598L294.914,262.804z     M279.704,176.136v60.465v38.765v73.326H53.082v-92.708v-38.765v-41.083c0-13.612,11.469-24.685,25.565-24.685h175.494    C268.236,151.451,279.704,162.524,279.704,176.136z M15.214,241.251l22.657-11.596v21.677l-22.657,11.596V241.251z     M15.214,280.016l22.657-11.596v80.272H15.214V280.016z M317.168,382.965l-10.015,10.015l-12.242-12.243    c-2.971-2.969-7.786-2.969-10.756,0l-12.242,12.243l-12.242-12.243c-1.427-1.426-3.361-2.227-5.379-2.227    s-3.951,0.801-5.379,2.228l-12.241,12.242l-12.242-12.243c-2.971-2.969-7.786-2.969-10.756,0l-12.242,12.243l-12.242-12.243    c-2.971-2.969-7.786-2.969-10.756,0l-12.242,12.243l-12.242-12.243c-1.427-1.426-3.361-2.227-5.379-2.227    s-3.951,0.801-5.379,2.228l-12.241,12.242l-12.242-12.243c-2.971-2.969-7.786-2.969-10.756,0L95.714,392.98l-12.246-12.243    c-2.971-2.969-7.786-2.969-10.756,0L60.469,392.98l-12.241-12.242c-1.427-1.427-3.361-2.228-5.379-2.228    c-2.018,0-3.951,0.801-5.379,2.227L25.229,392.98l-10.015-10.015v-19.062h30.263H287.31h29.858V382.965z M363.905,377.91h-31.526    v-14.007h31.526V377.91z M496.789,387.708c0,3.696-2.907,6.725-6.555,6.922l-82.988-10.076c-0.305-0.036-0.612-0.056-0.917-0.056    c-1.827,0-4.274,0.15-7.109,0.323c-4.444,0.273-15.293,0.938-20.105-0.008v-26.027c4.812-0.948,15.663-0.281,20.105-0.009    c2.834,0.173,5.281,0.323,7.109,0.323c0.306,0,0.612-0.019,0.917-0.056l82.987-10.076c3.649,0.197,6.556,3.227,6.556,6.923    V387.708z"/>
	</g>
</g>
<g>
</g>
<g>
</g>
<g>
</g>
<g>
</g>
<g>
</g>
<g>
</g>
<g>
</g>
<g>
</g>
<g>
</g>
<g>
</g>
<g>
</g>
<g>
</g>
<g>
</g>
<g>
</g>
<g>
</g>
</svg>
