<?xml version="1.0" encoding="iso-8859-1"?>
<!-- Generator: Adobe Illustrator 19.0.0, SVG Export Plug-In . SVG Version: 6.00 Build 0)  -->
<svg xmlns="http://www.w3.org/2000/svg" xmlns:xlink="http://www.w3.org/1999/xlink" version="1.1" id="Layer_1" x="0px" y="0px" viewBox="0 0 511.999 511.999" style="enable-background:new 0 0 511.999 511.999;" xml:space="preserve">
<g>
	<g>
		<path d="M454.06,307.054c-14.924-7.932-29.725-11.856-37.794-13.571c10.985-25.486,17.083-53.555,17.083-83.023    C433.348,94.411,338.936,0,222.889,0c-29.262,0-57.144,6.01-82.488,16.849c-0.551,0.171-1.074,0.401-1.563,0.685    c-21.027,9.196-40.278,21.723-57.068,36.925c-0.689,0.457-1.299,1.017-1.801,1.663C38.46,94.588,12.43,149.538,12.43,210.459    c0,16.525,1.921,32.608,5.539,48.045c0.063,0.348,0.142,0.691,0.25,1.021c4.293,17.906,10.872,34.932,19.425,50.744    c0.315,1.024,0.837,1.943,1.51,2.722c23.262,41.521,60.184,74.392,104.643,92.487c0.452,0.24,0.925,0.434,1.416,0.58    c14.544,5.796,29.88,10.02,45.799,12.448c0.246,0.047,0.494,0.083,0.745,0.104c10.161,1.513,20.555,2.306,31.131,2.306    c61.42,0,116.775-26.452,155.284-68.558c21.66,4.497,48.822,14.882,48.822,24.736c0,0.517-0.535,5.316-19.098,14.565    c-13.9,6.927-33.334,14.137-53.91,21.77c-61.014,22.637-130.169,48.293-130.169,90.981c0,4.191,3.396,7.587,7.587,7.587h77.42    c2.503,0,4.843-1.234,6.259-3.299c0.179-0.26,18.401-26.156,70.555-41.902c33.467-10.102,58.664-20.976,77.03-33.24    c24.485-16.35,36.901-35.524,36.901-56.991C499.57,346.917,483.832,322.879,454.06,307.054z M222.889,15.174    c93.319,0,171.544,65.799,190.755,153.435c-19.474-30.596-42.482-57.06-68.7-78.948c-28.225-23.563-60.181-41.891-94.981-54.476    c-24.836-8.981-47.431-13.733-65.453-16.216C196.925,16.485,209.756,15.174,222.889,15.174z M144.534,31.602    c8.031-0.253,49.48-0.515,100.271,17.853c51.812,18.735,123.805,61.264,173.325,157.46c0.021,1.179,0.045,2.358,0.045,3.542    c0,6.757-0.346,13.435-1.019,20.016c-5.84-10.184-12.034-19.967-18.565-29.349c-0.166-0.277-0.352-0.541-0.551-0.794    c-17.084-24.403-36.493-46.031-58.073-64.699c-0.042-0.036-0.08-0.076-0.122-0.11c-0.013-0.011-0.028-0.019-0.041-0.03    c-4.62-3.992-9.336-7.853-14.153-11.571c-21.232-16.386-44.378-30.114-69.149-41.073c-0.195-0.096-0.395-0.182-0.597-0.26    c-9.834-4.328-19.926-8.218-30.256-11.661c-0.249-0.097-0.502-0.181-0.76-0.252c-3.787-1.253-7.597-2.467-11.448-3.6    c-43.526-12.805-81.447-15.168-104.597-15.041C119.928,44.032,131.882,37.167,144.534,31.602z M152.158,210.811    c0.012,0.255,0.036,0.506,0.073,0.753c-15.044,7.81-29.095,13.853-41.548,18.491c-2.299,0.856-4.558,1.663-6.796,2.446    c7.623-43.042,29.533-80.468,65.233-111.356c1.15-0.995,2.296-1.96,3.44-2.911C161.613,139.945,150.357,172.158,152.158,210.811z     M87.722,237.735c-10.391,3.088-19.839,5.376-28.067,7.067c2.816-46.777,19.9-89.506,50.857-127.138    C135.314,87.516,160.216,72.152,160.465,72c0.407-0.248,0.778-0.532,1.121-0.84c12.592,1.882,26.27,4.61,40.62,8.507    c-11.263,6.208-26.631,15.892-42.593,29.639C131.464,133.55,96.329,175.438,87.722,237.735z M203.171,97.96    c0.532-0.63,0.939-1.324,1.232-2.049c8.635-5.059,15.38-8.27,18.801-9.8c5.463,1.873,11.063,3.952,16.773,6.265    c-9.869,12.031-25.421,37.557-31.565,83.685c-14.099,10.651-27.969,19.675-41.26,27.333    C166.919,141.964,202.667,98.564,203.171,97.96z M254.606,98.721c7.462,3.453,15.056,7.31,22.719,11.616    c-16.726,19.936-33.981,36.961-51.135,51.487C233.932,124.272,248.264,105.496,254.606,98.721z M27.605,210.459    c0-56.104,23.79-106.75,61.803-142.402c6.397-0.555,24.609-1.688,49.785,0.472c-10.219,7.947-25.033,20.905-40.017,39.034    C75.549,136.149,47.273,183.33,44.32,247.546c-5.341,0.805-9.673,1.292-12.862,1.587    C28.936,236.629,27.605,223.697,27.605,210.459z M35.082,264.051c14.252-1.45,43.443-5.906,80.232-19.53    c28.729-10.64,65.558-28.381,103.807-57.555c0.715-0.387,1.368-0.881,1.925-1.473c23.177-17.89,46.826-40.011,69.485-67.315    c11.25,7.049,22.565,15.109,33.749,24.328c-58.408,69.186-130.083,108.23-180.565,128.925    c-44.959,18.431-81.354,25.914-94.521,28.226C43.381,288.379,38.631,276.467,35.082,264.051z M76.462,339.517    c-7.115-8.063-13.574-16.716-19.298-25.875c16.706-3.213,50.472-11.067,91.841-27.979c52.173-21.331,126.26-61.63,186.755-133.228    c0.947,0.858,1.893,1.726,2.836,2.602c-0.02,0.163-0.044,0.325-0.056,0.491c-0.02,0.331-1.732,25.709-13.721,60.273    c-0.074,0.065-0.153,0.123-0.225,0.191c-60.318,56.769-124.362,87.298-167.468,102.911    c-46.814,16.959-79.766,20.493-80.095,20.527C76.84,339.449,76.651,339.483,76.462,339.517z M211.083,312.441    c30.881-15.081,65.833-36.014,100.581-64.799c-0.439,0.907-0.883,1.818-1.336,2.73c-12.552,25.277-28.098,47.702-46.545,67.226    C240.035,322.472,221.89,317.382,211.083,312.441z M245.97,334.74c-8.179,7.172-16.826,13.866-25.944,20.074    c-19.689,5.216-39.194,2.759-57.985-7.338c-5.681-3.053-10.452-6.387-14.182-9.332c4.483-1.468,9.123-3.057,13.918-4.788    c9.812-3.542,20.675-7.833,32.313-12.994c7.509,4.91,25.305,14.393,50.812,14.393C245.255,334.755,245.615,334.744,245.97,334.74z     M89.496,352.943c9.036-1.535,23.271-4.414,41.246-9.551c8.072,7.804,29.656,25.722,60.111,28.818    c-13.566,7.043-27.977,13.191-43.209,18.447C126.018,381.593,106.361,368.743,89.496,352.943z M192.25,403.334    c-7.572-1.199-15-2.829-22.258-4.875c20.308-8.262,39.217-18.259,56.601-29.931c0.401-0.224,0.777-0.479,1.124-0.766    c12.491-8.472,24.209-17.791,35.069-27.973c3.058-2.867,6.048-5.802,8.974-8.802c1.159-0.701,2.092-1.694,2.727-2.857    c19.72-20.791,36.318-44.604,49.43-71.009c18.768-37.796,25.811-71.415,28.374-88.607c10.963,11.435,21.618,24.187,31.76,38.403    c-1.954,10.358-9.973,46.294-32.903,84.718C315.34,351.634,261.879,389.203,192.25,403.334z M240.692,404.924    c22.423-8.745,43.01-20.338,61.51-34.723c24.581-19.115,45.538-43.107,62.286-71.312c17.56-29.57,26.714-57.289,31.213-74.611    c6.043,9.576,11.857,19.74,17.389,30.534C394.26,335.587,325.155,397.254,240.692,404.924z M381.253,452.275    c-46.666,14.088-68.989,36.205-76.095,44.552h-64.909c3.694-11.131,15.573-22.257,36.011-33.798    c23.617-13.338,55.169-25.042,83.007-35.37c52.947-19.644,82.904-31.677,82.904-50.562c0-12.819-11.61-23.593-34.505-32.026    c-6.615-2.436-13.182-4.323-18.546-5.69c7.708-9.916,14.547-20.538,20.408-31.75c5.046,0.898,21.561,4.322,37.755,13.006    c24.628,13.205,37.113,32.023,37.113,55.934C484.396,406.558,450.658,431.323,381.253,452.275z"/>
	</g>
</g>
<g>
</g>
<g>
</g>
<g>
</g>
<g>
</g>
<g>
</g>
<g>
</g>
<g>
</g>
<g>
</g>
<g>
</g>
<g>
</g>
<g>
</g>
<g>
</g>
<g>
</g>
<g>
</g>
<g>
</g>
</svg>
