<?xml version="1.0" encoding="iso-8859-1"?>
<!-- Generator: Adobe Illustrator 19.0.0, SVG Export Plug-In . SVG Version: 6.00 Build 0)  -->
<svg xmlns="http://www.w3.org/2000/svg" xmlns:xlink="http://www.w3.org/1999/xlink" version="1.1" id="Layer_1" x="0px" y="0px" viewBox="0 0 512.001 512.001" style="enable-background:new 0 0 512.001 512.001;" xml:space="preserve">
<g>
	<g>
		<path d="M281.668,119.158h-59.205c-4.199,0-7.604,3.404-7.604,7.604c0,4.2,3.405,7.604,7.604,7.604h59.205    c4.199,0,7.604-3.404,7.604-7.604S285.867,119.158,281.668,119.158z"/>
	</g>
</g>
<g>
	<g>
		<path d="M281.668,146.09h-59.205c-4.199,0-7.604,3.404-7.604,7.604s3.405,7.604,7.604,7.604h59.205    c4.199,0,7.604-3.404,7.604-7.604S285.867,146.09,281.668,146.09z"/>
	</g>
</g>
<g>
	<g>
		<path d="M281.668,173.02h-59.205c-4.199,0-7.604,3.404-7.604,7.604s3.405,7.604,7.604,7.604h59.205    c4.199,0,7.604-3.404,7.604-7.604S285.867,173.02,281.668,173.02z"/>
	</g>
</g>
<g>
	<g>
		<path d="M464.086,85.94h-84.327V63.783c0-2.221-0.971-4.331-2.659-5.776c-1.687-1.446-3.923-2.084-6.118-1.737l-37.566,5.861    l-37.566-5.861c-2.197-0.344-4.43,0.292-6.118,1.737s-2.659,3.555-2.659,5.776V85.94H186.901c-4.199,0-7.604,3.404-7.604,7.604    v5.786h-35.558c-4.199,0-7.604,3.404-7.604,7.604v12.225h-24.357c-4.199,0-7.604,3.404-7.604,7.604v8.674H17.35    C7.783,135.435,0,143.219,0,152.785v1.817c0,9.567,7.783,17.349,17.35,17.349h86.824v8.674c0,4.2,3.405,7.604,7.604,7.604h24.359    v12.225c0,4.2,3.405,7.604,7.604,7.604h35.558v28.757c0,4.2,3.405,7.604,7.604,7.604h27.017l-10.094,86.554    c-0.251,2.155,0.43,4.316,1.874,5.936c1.443,1.622,3.509,2.549,5.68,2.549h48.964c4.199,0,7.604-3.404,7.604-7.604v-87.435h74.76    v87.435c0,4.2,3.405,7.604,7.604,7.604h5.383v39.916c0,4.2,3.405,7.604,7.604,7.604h4.389v61.242c0,4.2,3.405,7.604,7.604,7.604    h13.738c4.199,0,7.604-3.404,7.604-7.604v-61.242h5.801c4.199,0,7.604-3.404,7.604-7.604v-39.916h5.383    c4.199,0,7.604-3.404,7.604-7.604v-87.435h41.061c26.42,0,47.914-21.494,47.914-47.915v-62.651    C512,107.434,490.506,85.94,464.086,85.94z M104.174,156.745H17.35v-0.001c-1.181,0-2.142-0.96-2.142-2.141v-1.817    c0-1.181,0.961-2.141,2.142-2.141h86.824V156.745z M136.137,173.02h-16.755v-8.673v-21.308v-8.674h16.755V173.02z     M179.298,192.848h-27.954v-12.224v-53.862v-12.225h27.954V192.848z M302.283,72.665l29.962,4.675    c0.778,0.121,1.567,0.121,2.345,0l29.962-4.675V85.94h-62.268V72.665z M252.74,324.25h-32.819l9.31-79.831h23.508V324.25z     M394.831,371.77h-5.801h-13.738h-4.389v-32.312h23.928V371.77z M402.434,324.25h-39.136h-5.383v-79.831h49.9v79.831H402.434z     M496.792,188.486h-77.703v-0.001c-2.624,0-4.759-2.134-4.759-4.758c0-2.625,2.134-4.759,4.759-4.759h77.703V188.486z     M496.792,163.76h-77.703c-11.01,0-19.967,8.957-19.967,19.967s8.956,19.966,19.967,19.966h76.897    c-3.286,14.586-16.336,25.518-31.9,25.518h-48.665h-65.108h-89.968h-37.881h-27.956v-28.757v-93.52v-5.786H294.68h77.476h91.931    c9.002,0,17.167,3.657,23.087,9.563H419.09c-11.01,0-19.967,8.956-19.967,19.966s8.956,19.967,19.967,19.967h77.702V163.76z     M496.792,135.435h-77.703c-2.624,0-4.759-2.134-4.759-4.759c0-2.624,2.134-4.758,4.759-4.758h76.725v-0.001    c0.636,2.542,0.978,5.199,0.978,7.935V135.435z"/>
	</g>
</g>
<g>
</g>
<g>
</g>
<g>
</g>
<g>
</g>
<g>
</g>
<g>
</g>
<g>
</g>
<g>
</g>
<g>
</g>
<g>
</g>
<g>
</g>
<g>
</g>
<g>
</g>
<g>
</g>
<g>
</g>
</svg>
