<?xml version="1.0" encoding="iso-8859-1"?>
<!-- Generator: Adobe Illustrator 19.0.0, SVG Export Plug-In . SVG Version: 6.00 Build 0)  -->
<svg xmlns="http://www.w3.org/2000/svg" xmlns:xlink="http://www.w3.org/1999/xlink" version="1.1" id="Layer_1" x="0px" y="0px" viewBox="0 0 512.001 512.001" style="enable-background:new 0 0 512.001 512.001;" xml:space="preserve">
<g>
	<g>
		<path d="M436.18,69.516h-3.221l-11.072-63.23C421.25,2.651,418.094,0,414.405,0h-37.465c-3.69,0-6.846,2.651-7.482,6.286    l-11.071,63.23h-3.221c-4.196,0-7.595,3.401-7.595,7.595v32.475v394.819c0,4.195,3.4,7.595,7.595,7.595h81.014    c4.196,0,7.595-3.401,7.595-7.595V109.586V77.112C443.775,72.916,440.374,69.516,436.18,69.516z M383.321,15.191h24.703    l9.511,54.325H373.81L383.321,15.191z M362.76,84.707h0.001h2.007h61.807h2.007v17.284H362.76V84.707z M428.584,496.809h-65.823    V117.181h65.823V496.809z"/>
	</g>
</g>
<g>
	<g>
		<path d="M296.507,69.516h-3.221l-11.072-63.23C281.579,2.651,278.422,0,274.733,0h-37.465c-3.69,0-6.846,2.651-7.482,6.286    l-11.071,63.23h-3.221c-4.196,0-7.595,3.401-7.595,7.595v32.475v394.819c0,4.195,3.4,7.595,7.595,7.595h81.014    c4.196,0,7.595-3.401,7.595-7.595V109.586V77.112C304.103,72.916,300.702,69.516,296.507,69.516z M243.648,15.191h24.703    l9.511,54.325h-43.725L243.648,15.191z M223.088,84.707h0.001h2.007h61.807h2.007v17.284h-65.823V84.707z M288.912,496.809    h-65.823V117.181h65.823V496.809z"/>
	</g>
</g>
<g>
	<g>
		<path d="M156.835,69.516h-3.221l-11.072-63.23C141.906,2.651,138.75,0,135.06,0H97.596c-3.69,0-6.846,2.651-7.482,6.286    l-11.071,63.23h-3.221c-4.196,0-7.595,3.401-7.595,7.595v32.475v394.819c0,4.195,3.4,7.595,7.595,7.595h81.014    c4.196,0,7.595-3.401,7.595-7.595V109.586V77.112C164.43,72.916,161.03,69.516,156.835,69.516z M103.976,15.191h24.703    l9.511,54.325H94.465L103.976,15.191z M83.417,84.707h2.007h61.807h2.007v17.284H83.417V84.707z M149.24,496.809H83.417V117.181    h65.823V496.809z"/>
	</g>
</g>
<g>
</g>
<g>
</g>
<g>
</g>
<g>
</g>
<g>
</g>
<g>
</g>
<g>
</g>
<g>
</g>
<g>
</g>
<g>
</g>
<g>
</g>
<g>
</g>
<g>
</g>
<g>
</g>
<g>
</g>
</svg>
