<?xml version="1.0" encoding="iso-8859-1"?>
<!-- Generator: Adobe Illustrator 19.0.0, SVG Export Plug-In . SVG Version: 6.00 Build 0)  -->
<svg xmlns="http://www.w3.org/2000/svg" xmlns:xlink="http://www.w3.org/1999/xlink" version="1.1" id="Layer_1" x="0px" y="0px" viewBox="0 0 512 512" style="enable-background:new 0 0 512 512;" xml:space="preserve">
<g>
	<g>
		<path d="M437.019,74.981C388.667,26.629,324.38,0,256,0S123.332,26.629,74.981,74.981S0,187.621,0,256    s26.628,132.667,74.981,181.018C123.333,485.371,187.62,512,256,512s132.668-26.628,181.019-74.981    C485.371,388.666,512,324.379,512,256C512,187.621,485.371,123.334,437.019,74.981z M256,496.772    C123.238,496.772,15.228,388.763,15.228,256S123.238,15.228,256,15.228S496.772,123.238,496.772,256S388.762,496.772,256,496.772z    "/>
	</g>
</g>
<g>
	<g>
		<path d="M413.821,98.18C371.666,56.024,315.617,32.808,256,32.808S140.334,56.024,98.178,98.18    C56.023,140.335,32.806,196.383,32.806,256c0,59.617,23.216,115.666,65.372,157.821c42.155,42.155,98.204,65.372,157.821,65.372    s115.666-23.216,157.821-65.372c42.156-42.156,65.372-98.204,65.372-157.821C479.192,196.383,455.977,140.335,413.821,98.18z     M256,463.966c-114.672,0-207.965-93.292-207.965-207.965S141.327,48.035,256,48.035S463.965,141.328,463.965,256    S370.673,463.966,256,463.966z"/>
	</g>
</g>
<g>
	<g>
		<path d="M256,84.232c-94.713,0-171.767,77.055-171.767,171.768S161.287,427.768,256,427.768s171.768-77.055,171.768-171.767    S350.713,84.232,256,84.232z M256,412.54c-86.316,0-156.54-70.224-156.54-156.54S169.684,99.46,256,99.46    S412.541,169.683,412.541,256S342.316,412.54,256,412.54z"/>
	</g>
</g>
<g>
	<g>
		<path d="M317.071,266.096c-3.131,0-6.22,0.356-9.235,1.048c-4.605-4.36-9.173-8.691-13.762-13.047l14.101-13.542    c2.911,0.643,5.893,0.985,8.897,0.985c22.716,0,41.198-18.481,41.198-41.198s-18.481-41.198-41.198-41.198    c-22.717,0-41.198,18.481-41.198,41.198c0,2.445,0.227,4.878,0.654,7.27l-15.571,14.953c-5.779-5.526-10.677-10.223-14.829-14.221    c0.518-2.624,0.78-5.301,0.78-8.004c0-22.716-18.481-41.198-41.198-41.198s-41.198,18.481-41.198,41.198    s18.481,41.198,41.198,41.198c2.743,0,5.46-0.271,8.122-0.804c4.089,3.927,8.771,8.402,14.132,13.516l-13.347,12.819    c-2.911-0.643-5.892-0.973-8.908-0.973c-22.717,0-41.198,18.481-41.198,41.198c0,22.717,18.481,41.198,41.198,41.198    c22.716,0,41.198-18.481,41.198-41.198c0-2.447-0.241-4.87-0.666-7.257l14.851-14.263c5.471,5.194,10.66,10.112,15.388,14.588    c-0.388,2.283-0.607,4.598-0.607,6.933c0,22.716,18.481,41.198,41.198,41.198c22.716,0,41.198-18.481,41.198-41.198    C358.268,284.578,339.787,266.096,317.071,266.096z M317.072,174.373c14.319,0,25.97,11.65,25.97,25.97    c0,11.925-8.082,21.992-19.055,25.027l8.906-8.554c4.401-4.226,6.892-9.913,7.016-16.012c0.123-6.1-2.137-11.883-6.363-16.282    c-4.226-4.401-9.913-6.893-16.013-7.016c-6.084-0.117-11.883,2.136-16.283,6.364l-8.91,8.558    C295.695,181.967,305.511,174.373,317.072,174.373z M179.741,200.343c0-14.319,11.65-25.97,25.97-25.97    c11.917,0,21.977,8.072,25.021,19.031c-3.987-3.921-5.895-5.869-6.782-6.821c-5.729-7.594-15.614-10.858-24.768-8.13    c-12.068,3.601-18.958,16.349-15.357,28.419c1.29,4.324,1.838,6.149,13.887,18.173    C187.294,221.662,179.741,211.87,179.741,200.343z M198.414,202.519c-1.2-4.023,1.096-8.273,5.119-9.473    c3.107-0.927,6.467,0.215,8.359,2.843c0.169,0.233,0.35,0.459,0.545,0.672c3.147,3.461,15.768,15.755,37.528,36.562    l-11.004,10.569C202.987,209.373,199.249,205.316,198.414,202.519z M205.71,333.265c-14.319,0-25.97-11.65-25.97-25.97    c0-11.925,8.082-21.992,19.055-25.027l-8.906,8.554c-4.401,4.226-6.892,9.913-7.016,16.012c-0.123,6.1,2.137,11.883,6.363,16.282    c4.347,4.527,10.198,7.021,16.476,7.021c5.927,0,11.546-2.262,15.819-6.367l8.909-8.557    C227.086,325.672,217.27,333.265,205.71,333.265z M210.984,312.787c-1.425,1.368-3.297,2.123-5.272,2.123    c-2.093,0-4.043-0.83-5.493-2.34c-1.409-1.467-2.162-3.394-2.121-5.427c0.042-2.033,0.871-3.929,2.339-5.338l111.361-106.953    c1.428-1.373,3.294-2.123,5.269-2.123c0.053,0,0.106,0,0.158,0.001c2.032,0.042,3.929,0.871,5.338,2.339    c1.409,1.467,2.162,3.394,2.121,5.427c-0.042,2.033-0.871,3.929-2.339,5.338L210.984,312.787z M272.087,275.215l10.993-10.558    c12.793,12.148,25.35,24.026,39.214,37.098c3.055,2.88,3.197,7.708,0.317,10.763c-1.454,1.542-3.422,2.391-5.543,2.391    c-1.948,0-3.802-0.737-5.223-2.076C311.658,312.656,294.202,296.206,272.087,275.215z M317.071,333.265    c-11.478,0-21.234-7.488-24.658-17.833c5.563,5.255,8.906,8.406,8.987,8.481c4.255,4.013,9.819,6.223,15.667,6.223    c6.266,0,12.324-2.614,16.622-7.171c8.64-9.163,8.214-23.647-0.949-32.289c-3.056-2.881-6.034-5.692-8.979-8.473    c11.088,2.959,19.279,13.086,19.279,25.091C343.041,321.614,331.391,333.265,317.071,333.265z"/>
	</g>
</g>
<g>
</g>
<g>
</g>
<g>
</g>
<g>
</g>
<g>
</g>
<g>
</g>
<g>
</g>
<g>
</g>
<g>
</g>
<g>
</g>
<g>
</g>
<g>
</g>
<g>
</g>
<g>
</g>
<g>
</g>
</svg>
