<?xml version="1.0" encoding="iso-8859-1"?>
<!-- Generator: Adobe Illustrator 19.0.0, SVG Export Plug-In . SVG Version: 6.00 Build 0)  -->
<svg xmlns="http://www.w3.org/2000/svg" xmlns:xlink="http://www.w3.org/1999/xlink" version="1.1" id="Layer_1" x="0px" y="0px" viewBox="0 0 512 512" style="enable-background:new 0 0 512 512;" xml:space="preserve">
<g>
	<g>
		<path d="M501.36,34.173l-26.621-26.62c-10.069-10.07-26.456-10.069-36.527,0l-65.133,65.135    c-7.903,7.904-15.115,16.582-21.435,25.795l-14.726,21.465c-0.491,0.716-1.187,0.88-1.558,0.915c-0.372,0.029-1.085,0-1.732-0.648    c-2.584-2.583-6.019-4.006-9.671-4.006c-3.655,0-7.089,1.423-9.671,4.006l-19.998,19.997c-1.426,1.426-2.227,3.361-2.227,5.378    s0.801,3.952,2.227,5.378l13.029,13.029l-26.105,26.106c-3.988,3.989-10.479,3.989-14.466,0c-1.427-1.427-3.361-2.228-5.379-2.228    s-3.951,0.801-5.379,2.228L5.302,440.789c-1.426,1.426-2.227,3.361-2.227,5.378c0,2.017,0.801,3.952,2.227,5.378l58.227,58.227    c1.486,1.485,3.433,2.228,5.379,2.228s3.893-0.742,5.379-2.228l250.686-250.686c2.971-2.971,2.971-7.787,0-10.756l-1.993-1.992    c-1.931-1.932-2.996-4.501-2.996-7.232c0-2.732,1.065-5.301,2.997-7.233l26.105-26.105l8.858,8.858    c1.427,1.427,3.361,2.228,5.379,2.228s3.951-0.801,5.379-2.228l19.996-19.997c2.584-2.583,4.007-6.018,4.007-9.671    c0-3.653-1.423-7.088-4.006-9.671c-0.615-0.615-0.649-1.331-0.614-1.702c0.034-0.372,0.2-1.068,0.918-1.559l20.653-14.095    c9.351-6.381,18.15-13.675,26.155-21.68l65.548-65.548c4.879-4.878,7.566-11.365,7.566-18.264    C508.925,45.537,506.238,39.051,501.36,34.173z M312.222,221.115c-4.805,4.805-7.452,11.195-7.452,17.991    c0,5.17,1.532,10.105,4.381,14.287L68.908,493.636l-47.47-47.469l240.75-240.75c9.592,5.009,21.735,3.491,29.782-4.558    l26.105-26.105l20.254,20.254L312.222,221.115z M490.602,59.942l-65.549,65.549c-7.337,7.338-15.403,14.023-23.972,19.872    l-20.654,14.096c-4.277,2.919-7.006,7.551-7.489,12.707c-0.434,4.643,1.001,9.206,3.964,12.741l-13.58,13.581l-8.858-8.858v-0.001    l-31.011-31.012c-0.003-0.003-0.006-0.005-0.009-0.008l-13.021-13.021l13.578-13.577c3.535,2.98,8.109,4.43,12.758,3.997    c5.148-0.476,9.779-3.193,12.703-7.457l14.726-21.465c5.793-8.444,12.403-16.399,19.648-23.644l65.133-65.134    c4.139-4.14,10.874-4.139,15.013,0l26.62,26.62c2.006,2.005,3.109,4.67,3.109,7.506C493.712,55.272,492.607,57.937,490.602,59.942    z"/>
	</g>
</g>
<g>
	<g>
		<path d="M458.052,50.862c-2.971-2.971-7.787-2.971-10.758,0l-59.664,59.664c-2.971,2.971-2.971,7.787,0,10.756    c1.486,1.486,3.432,2.228,5.379,2.228c1.946,0,3.893-0.742,5.379-2.228l59.664-59.664    C461.022,58.648,461.022,53.832,458.052,50.862z"/>
	</g>
</g>
<g>
	<g>
		<path d="M71.828,424.929c-2.972-2.971-7.787-2.971-10.759,0l-13.378,13.378c-2.971,2.971-2.971,7.787,0,10.757    c1.486,1.485,3.433,2.228,5.379,2.228s3.893-0.742,5.379-2.228l13.378-13.378C74.798,432.715,74.798,427.899,71.828,424.929z"/>
	</g>
</g>
<g>
	<g>
		<path d="M124.95,409.753c-2.972-2.97-7.788-2.971-10.758,0.001l-13.378,13.377c-2.972,2.971-2.972,7.786-0.001,10.756    c1.486,1.486,3.432,2.228,5.379,2.228c1.946,0,3.893-0.742,5.378-2.228l13.378-13.378    C127.921,417.539,127.921,412.723,124.95,409.753z"/>
	</g>
</g>
<g>
	<g>
		<path d="M91.573,443.131c-2.972-2.971-7.788-2.972-10.758,0l-13.378,13.378c-2.972,2.971-2.972,7.786-0.001,10.756    c1.486,1.486,3.432,2.228,5.379,2.228c1.946,0,3.893-0.742,5.378-2.228l13.378-13.378    C94.544,450.917,94.544,446.101,91.573,443.131z"/>
	</g>
</g>
<g>
	<g>
		<path d="M105.978,390.78c-2.971-2.971-7.787-2.972-10.756,0l-13.378,13.378c-2.972,2.971-2.972,7.786-0.001,10.757    c1.486,1.486,3.432,2.228,5.379,2.228c1.946,0,3.893-0.742,5.378-2.228l13.378-13.378    C108.947,398.567,108.947,393.751,105.978,390.78z"/>
	</g>
</g>
<g>
	<g>
		<path d="M158.065,376.638c-2.973-2.971-7.788-2.971-10.759,0l-13.378,13.378c-2.971,2.971-2.971,7.787,0,10.756    c1.486,1.485,3.433,2.228,5.379,2.228s3.893-0.742,5.379-2.228l13.378-13.378C161.036,384.424,161.036,379.608,158.065,376.638z"/>
	</g>
</g>
<g>
	<g>
		<path d="M139.09,357.665c-2.97-2.971-7.786-2.97-10.756,0l-13.377,13.378c-2.971,2.971-2.971,7.787,0.001,10.758    c1.484,1.486,3.431,2.228,5.377,2.228s3.893-0.742,5.379-2.228l13.377-13.378C142.061,365.452,142.061,360.635,139.09,357.665z"/>
	</g>
</g>
<g>
	<g>
		<path d="M191.18,343.524c-2.972-2.97-7.787-2.97-10.759,0l-13.378,13.378c-2.971,2.971-2.971,7.787,0,10.757    c1.486,1.485,3.433,2.228,5.379,2.228c1.946,0,3.893-0.742,5.379-2.228l13.378-13.378    C194.15,351.31,194.15,346.494,191.18,343.524z"/>
	</g>
</g>
<g>
	<g>
		<path d="M172.205,324.552c-2.972-2.971-7.787-2.971-10.758,0L148.07,337.93c-2.971,2.971-2.971,7.787,0,10.757    c1.485,1.486,3.432,2.228,5.378,2.228s3.893-0.742,5.379-2.228l13.378-13.378C175.176,332.338,175.176,327.521,172.205,324.552z"/>
	</g>
</g>
<g>
	<g>
		<path d="M223.258,311.443c-2.97-2.97-7.786-2.969-10.758,0.001l-13.377,13.378c-2.971,2.971-2.971,7.787,0.001,10.758    c1.485,1.485,3.432,2.227,5.378,2.227s3.893-0.742,5.379-2.228l13.377-13.378C226.229,319.23,226.229,314.414,223.258,311.443z"/>
	</g>
</g>
<g>
	<g>
		<path d="M204.285,292.473c-2.972-2.971-7.787-2.971-10.758,0l-13.378,13.378c-2.971,2.971-2.971,7.787,0,10.757    c1.485,1.485,3.432,2.228,5.378,2.228s3.893-0.742,5.379-2.228l13.378-13.378C207.256,300.259,207.256,295.442,204.285,292.473z"/>
	</g>
</g>
<g>
	<g>
		<path d="M255.338,279.365c-2.972-2.971-7.788-2.972-10.758,0l-13.378,13.378c-2.972,2.971-2.972,7.786-0.001,10.757    c1.486,1.486,3.432,2.228,5.379,2.228c1.946,0,3.893-0.742,5.378-2.228l13.378-13.378    C258.309,287.151,258.309,282.336,255.338,279.365z"/>
	</g>
</g>
<g>
	<g>
		<path d="M236.365,260.393c-2.971-2.971-7.787-2.972-10.757,0l-13.378,13.378c-2.972,2.971-2.972,7.786-0.001,10.756    c1.485,1.486,3.431,2.228,5.378,2.228c1.946,0,3.893-0.742,5.378-2.228l13.378-13.378    C239.336,268.179,239.336,263.363,236.365,260.393z"/>
	</g>
</g>
<g>
	<g>
		<path d="M287.418,247.285c-2.973-2.971-7.788-2.971-10.758,0l-13.378,13.378c-2.971,2.971-2.971,7.787,0,10.756    c1.486,1.485,3.433,2.228,5.379,2.228c1.946,0,3.893-0.742,5.379-2.228l13.378-13.378    C290.389,255.071,290.389,250.255,287.418,247.285z"/>
	</g>
</g>
<g>
	<g>
		<path d="M268.445,228.313c-2.972-2.971-7.787-2.971-10.758,0l-13.378,13.378c-2.971,2.971-2.971,7.787,0,10.756    c1.485,1.486,3.432,2.228,5.378,2.228s3.893-0.742,5.379-2.228l13.378-13.378C271.415,236.099,271.415,231.283,268.445,228.313z"/>
	</g>
</g>
<g>
</g>
<g>
</g>
<g>
</g>
<g>
</g>
<g>
</g>
<g>
</g>
<g>
</g>
<g>
</g>
<g>
</g>
<g>
</g>
<g>
</g>
<g>
</g>
<g>
</g>
<g>
</g>
<g>
</g>
</svg>
