<?xml version="1.0" encoding="iso-8859-1"?>
<!-- Generator: Adobe Illustrator 19.0.0, SVG Export Plug-In . SVG Version: 6.00 Build 0)  -->
<svg xmlns="http://www.w3.org/2000/svg" xmlns:xlink="http://www.w3.org/1999/xlink" version="1.1" id="Layer_1" x="0px" y="0px" viewBox="0 0 512 512" style="enable-background:new 0 0 512 512;" xml:space="preserve">
<g>
	<g>
		<path d="M372.746,9.341h-96.318c-4.2,0-7.604,3.405-7.604,7.604v487.451c0,4.199,3.404,7.604,7.604,7.604h96.318    c4.2,0,7.604-3.405,7.604-7.604V16.945C380.35,12.745,376.947,9.341,372.746,9.341z M294.92,496.792h-10.888V24.549h10.888    V496.792z M365.144,119.195c-5.589-0.005-13.953-0.159-21.344-0.375c-0.075-0.002-0.15-0.003-0.226-0.003    c-4.096,0-7.476,3.26-7.597,7.382c-0.123,4.197,3.182,7.7,7.379,7.822c9.721,0.284,16.49,0.437,21.283,0.437    c0.173,0,0.337-0.001,0.504-0.001v17.672c-5.589-0.006-13.953-0.159-21.344-0.375c-0.075-0.002-0.15-0.003-0.226-0.003    c-4.096,0-7.476,3.26-7.597,7.382c-0.123,4.198,3.181,7.7,7.379,7.823c9.722,0.284,16.492,0.437,21.286,0.437    c0.172,0,0.335-0.001,0.501-0.001v13.197c-4.275-0.036-10.046-0.178-15.15-0.367c-4.201-0.167-7.724,3.121-7.88,7.317    c-0.155,4.196,3.121,7.725,7.318,7.88c0.23,0.009,5.684,0.21,11.34,0.317c1.632,0.031,3.07,0.055,4.373,0.069v13.249    c-4.276-0.036-10.046-0.178-15.15-0.367c-4.201-0.176-7.724,3.121-7.88,7.317c-0.155,4.196,3.121,7.725,7.318,7.88    c0.23,0.009,5.684,0.21,11.34,0.317c1.632,0.031,3.07,0.055,4.373,0.069v13.255c-5.589-0.005-13.953-0.159-21.344-0.375    c-0.075-0.002-0.15-0.003-0.226-0.003c-4.096,0-7.476,3.26-7.597,7.382c-0.123,4.198,3.182,7.7,7.379,7.823    c9.722,0.284,16.492,0.437,21.286,0.437c0.172,0,0.335-0.001,0.501-0.001v17.672c-5.589-0.005-13.953-0.159-21.344-0.375    c-0.075-0.002-0.15-0.003-0.226-0.003c-4.096,0-7.476,3.26-7.597,7.382c-0.123,4.198,3.182,7.7,7.379,7.823    c9.722,0.284,16.492,0.437,21.286,0.437c0.172,0,0.335-0.001,0.501-0.001v13.198c-4.275-0.035-10.046-0.179-15.15-0.368    c-4.201-0.181-7.724,3.121-7.88,7.317c-0.155,4.196,3.121,7.725,7.318,7.88c0.23,0.009,5.684,0.21,11.34,0.317    c1.632,0.031,3.07,0.055,4.373,0.069v13.25c-4.275-0.035-10.046-0.179-15.15-0.368c-4.201-0.169-7.724,3.121-7.88,7.317    c-0.155,4.196,3.121,7.725,7.318,7.88c0.23,0.009,5.684,0.21,11.34,0.317c1.632,0.031,3.07,0.055,4.373,0.069v13.255    c-5.589-0.005-13.953-0.159-21.344-0.375c-0.075-0.002-0.15-0.003-0.226-0.003c-4.096,0-7.476,3.26-7.597,7.382    c-0.123,4.198,3.182,7.7,7.379,7.823c9.722,0.284,16.492,0.437,21.286,0.437c0.172,0,0.335-0.001,0.501-0.001v17.672    c-5.589-0.005-13.953-0.159-21.344-0.375c-0.075-0.002-0.15-0.003-0.226-0.003c-4.096,0-7.476,3.26-7.597,7.382    c-0.123,4.197,3.182,7.7,7.379,7.822c9.721,0.284,16.49,0.437,21.283,0.437c0.173,0,0.337-0.001,0.504-0.001v13.198    c-4.275-0.036-10.046-0.18-15.15-0.367c-4.201-0.173-7.724,3.121-7.88,7.317c-0.155,4.196,3.121,7.725,7.318,7.88    c0.23,0.009,5.684,0.21,11.34,0.317c1.632,0.031,3.07,0.055,4.373,0.069v13.25c-4.275-0.036-10.046-0.18-15.15-0.367    c-4.201-0.183-7.724,3.121-7.88,7.317c-0.155,4.196,3.121,7.725,7.318,7.88c0.23,0.009,5.684,0.21,11.34,0.317    c1.632,0.031,3.07,0.055,4.373,0.069v13.255c-5.589-0.005-13.953-0.159-21.344-0.375c-4.146-0.134-7.7,3.18-7.823,7.378    c-0.123,4.198,3.181,7.7,7.379,7.823c9.722,0.284,16.492,0.437,21.286,0.437c0.172,0,0.335-0.001,0.501-0.001v7.343h-55.014    V24.549h55.014v9.25c-5.589-0.005-13.953-0.159-21.344-0.375c-4.146-0.121-7.7,3.18-7.823,7.378    c-0.123,4.198,3.182,7.7,7.379,7.823c9.722,0.284,16.492,0.437,21.286,0.437c0.172,0,0.335-0.001,0.501-0.001v13.197    c-4.275-0.035-10.046-0.178-15.15-0.367c-4.201-0.174-7.724,3.121-7.88,7.317c-0.155,4.196,3.121,7.725,7.318,7.88    c0.23,0.009,5.684,0.21,11.34,0.317c1.632,0.031,3.07,0.055,4.373,0.069v13.249c-4.276-0.036-10.046-0.178-15.15-0.367    c-4.201-0.183-7.724,3.121-7.88,7.317c-0.155,4.196,3.121,7.725,7.318,7.88c0.23,0.009,5.684,0.21,11.34,0.317    c1.632,0.031,3.07,0.055,4.373,0.069V119.195z"/>
	</g>
</g>
<g>
	<g>
		<path d="M210.251,111.968c-0.002-0.112-0.006-0.223-0.015-0.334c-0.014-0.188-0.037-0.371-0.066-0.555    c-0.013-0.087-0.023-0.173-0.04-0.261c-0.048-0.255-0.107-0.507-0.18-0.753c-0.004-0.015-0.006-0.03-0.011-0.045l-0.005-0.017    c-0.007-0.022-0.013-0.045-0.02-0.067L178.236,5.399C177.265,2.193,174.309,0,170.958,0c-3.351,0-6.306,2.193-7.278,5.399    l-31.677,104.535c-0.007,0.024-0.014,0.049-0.022,0.073l-0.004,0.014c-0.004,0.012-0.005,0.025-0.009,0.038    c-0.074,0.248-0.134,0.503-0.182,0.761c-0.016,0.086-0.026,0.172-0.04,0.259c-0.028,0.183-0.052,0.368-0.066,0.556    c-0.009,0.112-0.013,0.222-0.017,0.333c-0.003,0.087-0.013,0.171-0.013,0.259v328.926v35.526    c0,19.477,15.846,35.323,35.323,35.323h7.806c19.477,0,35.323-15.846,35.323-35.323v-33.958c0.105-0.506,0.163-1.03,0.163-1.567    V112.226C210.265,112.139,210.255,112.054,210.251,111.968z M170.958,33.824l5.603,18.487h-11.204L170.958,33.824z     M160.748,67.519h20.421l11.244,37.103h-42.908L160.748,67.519z M146.859,119.83h16.496v283.274c0,0.247,0.014,0.492,0.036,0.733    h-16.532V119.83z M194.895,476.677c0,11.092-9.023,20.115-20.115,20.115h-7.806c-11.091,0-20.115-9.023-20.115-20.115v-27.922    h48.036V476.677z M195.059,433.547H146.86v-14.502h48.199V433.547z M195.059,403.838h-16.533c0.023-0.241,0.036-0.486,0.036-0.733    V119.83h16.497V403.838z"/>
	</g>
</g>
<g>
</g>
<g>
</g>
<g>
</g>
<g>
</g>
<g>
</g>
<g>
</g>
<g>
</g>
<g>
</g>
<g>
</g>
<g>
</g>
<g>
</g>
<g>
</g>
<g>
</g>
<g>
</g>
<g>
</g>
</svg>
