<?xml version="1.0" encoding="iso-8859-1"?>
<!-- Generator: Adobe Illustrator 19.0.0, SVG Export Plug-In . SVG Version: 6.00 Build 0)  -->
<svg xmlns="http://www.w3.org/2000/svg" xmlns:xlink="http://www.w3.org/1999/xlink" version="1.1" id="Layer_1" x="0px" y="0px" viewBox="0 0 512 512" style="enable-background:new 0 0 512 512;" xml:space="preserve">
<g>
	<g>
		<path d="M356.758,211.569c-25.696,0-46.6,20.904-46.6,46.6s20.904,46.6,46.6,46.6s46.6-20.904,46.6-46.6    S382.453,211.569,356.758,211.569z M356.758,289.556c-17.306,0-31.387-14.08-31.387-31.387s14.081-31.387,31.387-31.387    s31.387,14.08,31.387,31.387S374.064,289.556,356.758,289.556z"/>
	</g>
</g>
<g>
	<g>
		<path d="M504.393,84.626h-41.212c-4.202,0-7.607,3.406-7.607,7.607v20.482H444.62V26.999c0-9.786-7.963-17.749-17.749-17.749    H39.777c-20.779,0-37.683,16.904-37.683,37.683v53.878c-0.346,0.87-0.543,1.815-0.543,2.809v76.192    c0,9.644,6.405,17.816,15.183,20.499v23.204c0,9.786,7.963,17.749,17.749,17.749h9.907v31.528c0,4.201,3.406,7.607,7.607,7.607    h12.999v22.336c0,4.201,3.406,7.607,7.607,7.607c4.201,0,7.607-3.406,7.607-7.607v-22.336H93.21c4.201,0,7.607-3.406,7.607-7.607    v-31.528h9.907c9.786,0,17.749-7.963,17.749-17.749v-23.204c8.778-2.682,15.184-10.854,15.184-20.499v-30.625h125.237v217.965    H122.529V349.67c0-4.201-3.406-7.607-7.607-7.607H33.777c-4.201,0-7.607,3.406-7.607,7.607v17.481H7.607    c-4.201,0-7.607,3.406-7.607,7.607v120.385c0,4.201,3.406,7.607,7.607,7.607h429.407c4.202,0,7.607-3.406,7.607-7.607V374.759    V175.215h10.954v29.81c0,4.201,3.405,7.607,7.607,7.607h41.212c4.202,0,7.607-3.406,7.607-7.607V92.233    C512,88.032,508.595,84.626,504.393,84.626z M85.605,265.184H59.606v-23.921h25.999V265.184z M110.725,226.049H93.211H51.999    H34.484c-1.374,0-2.536-1.161-2.536-2.536v-21.851h81.311v21.851h0.001C113.261,224.888,112.1,226.049,110.725,226.049z     M122.225,186.031H22.986c-3.43,0-6.22-2.79-6.22-6.22v-30.625h111.679v30.625h0.001    C128.445,183.241,125.655,186.031,122.225,186.031z M17.308,133.973v-87.04c0-12.39,10.079-22.469,22.469-22.469h387.094    c1.374,0,2.536,1.161,2.536,2.536v93.322v13.652H276.501H17.308z M41.384,357.277h65.932v9.875H41.384V357.277z M429.408,487.537    h-0.001H15.214V382.365h18.564h81.145h161.579h152.906V487.537z M429.408,167.61v199.543h-145.3V149.187h145.3V167.61z     M455.574,160.002H444.62v-18.423v-13.652h10.954V160.002z M496.786,197.419h-25.999v-29.81v-47.288V99.839h25.999V197.419z"/>
	</g>
</g>
<g>
	<g>
		<path d="M127.3,41.691H69.577c-4.201,0-7.607,3.406-7.607,7.607c0,4.201,3.406,7.607,7.607,7.607H127.3    c4.201,0,7.607-3.406,7.607-7.607C134.907,45.097,131.501,41.691,127.3,41.691z"/>
	</g>
</g>
<g>
	<g>
		<path d="M127.3,69.899H69.577c-4.201,0-7.607,3.406-7.607,7.607c0,4.201,3.406,7.607,7.607,7.607H127.3    c4.201,0,7.607-3.406,7.607-7.607C134.907,73.305,131.501,69.899,127.3,69.899z"/>
	</g>
</g>
<g>
	<g>
		<path d="M127.3,98.106H69.577c-4.201,0-7.607,3.406-7.607,7.607c0,4.201,3.406,7.607,7.607,7.607H127.3    c4.201,0,7.607-3.406,7.607-7.607C134.907,101.512,131.501,98.106,127.3,98.106z"/>
	</g>
</g>
<g>
	<g>
		<path d="M407.683,400.138c-4.202,0-7.607,3.406-7.607,7.607v45.571h-27.398c-4.202,0-7.607,3.406-7.607,7.607    c0,4.201,3.405,7.607,7.607,7.607h35.004c4.202,0,7.607-3.406,7.607-7.607v-53.177    C415.289,403.544,411.885,400.138,407.683,400.138z"/>
	</g>
</g>
<g>
	<g>
		<path d="M356.758,239.438c-4.202,0-7.607,3.406-7.607,7.607v20.684c0,4.201,3.405,7.607,7.607,7.607    c4.202,0,7.607-3.406,7.607-7.607v-20.684C364.365,242.844,360.959,239.438,356.758,239.438z"/>
	</g>
</g>
<g>
	<g>
		<path d="M356.758,192.478c-36.222,0-65.692,29.47-65.692,65.692c0,36.222,29.47,65.691,65.692,65.691    c36.222,0,65.692-29.469,65.692-65.691S392.979,192.478,356.758,192.478z M356.758,308.646c-27.834,0-50.479-22.644-50.479-50.478    c0-27.834,22.644-50.479,50.479-50.479s50.479,22.645,50.479,50.479C407.236,286.003,384.592,308.646,356.758,308.646z"/>
	</g>
</g>
<g>
</g>
<g>
</g>
<g>
</g>
<g>
</g>
<g>
</g>
<g>
</g>
<g>
</g>
<g>
</g>
<g>
</g>
<g>
</g>
<g>
</g>
<g>
</g>
<g>
</g>
<g>
</g>
<g>
</g>
</svg>
