<?xml version="1.0" encoding="iso-8859-1"?>
<!-- Generator: Adobe Illustrator 19.0.0, SVG Export Plug-In . SVG Version: 6.00 Build 0)  -->
<svg xmlns="http://www.w3.org/2000/svg" xmlns:xlink="http://www.w3.org/1999/xlink" version="1.1" id="Layer_1" x="0px" y="0px" viewBox="0 0 512 512" style="enable-background:new 0 0 512 512;" xml:space="preserve">
<g>
	<g>
		<path d="M440.927,413.559h-1.326v-33.086c0-4.174-3.384-7.558-7.558-7.558h-9.861V338.39c0-28.654-23.312-51.964-51.964-51.964    h-36.875l117.764-117.764c5.023,1.831,10.302,2.757,15.585,2.757c11.608,0,23.215-4.418,32.052-13.255    c17.673-17.673,17.673-46.43,0-64.103c-17.673-17.672-46.43-17.673-64.103,0c-13.121,13.121-16.491,32.349-10.13,48.617    L280.763,286.424h-3.619V109.779c16.002-7.005,27.215-22.984,27.215-41.54c0-24.993-20.334-45.327-45.327-45.327    s-45.327,20.334-45.327,45.327c0,18.185,10.77,33.894,26.261,41.108v177.078h-8.705L87.512,142.676    c6.362-16.269,2.992-35.496-10.13-48.617c-17.672-17.673-46.43-17.673-64.103,0s-17.673,46.43,0,64.103    c8.562,8.562,19.945,13.277,32.052,13.277c5.411,0,10.675-0.948,15.61-2.754l117.742,117.739h-30.836    c-28.654,0-51.964,23.312-51.964,51.964v34.526H74.383c-4.174,0-7.558,3.384-7.558,7.558v33.115    C29.874,414.204,0,444.435,0,481.53c0,4.174,3.384,7.558,7.558,7.558h493.783c4.174,0,7.558-3.384,7.558-7.558    C508.899,444.05,478.408,413.559,440.927,413.559z M445.33,104.747c11.778-11.779,30.945-11.78,42.726,0    c11.779,11.779,11.779,30.946,0,42.726c-10.314,10.313-26.289,11.596-38.012,3.851l-8.564-8.564    C433.734,131.037,435.017,115.06,445.33,104.747z M432.601,155.965c0.655,0.748,1.328,1.484,2.042,2.197    c0.942,0.942,1.922,1.823,2.922,2.664L312.013,286.378l-2.324,0.046h-7.549L432.601,155.965z M228.82,68.239    c0-16.659,13.553-30.211,30.211-30.211s30.211,13.553,30.211,30.211c0,14.585-10.389,26.788-24.154,29.602h-12.115    C239.209,95.027,228.82,82.823,228.82,68.239z M262.029,113.456v172.968h-6.948V113.384h0.001c1.303,0.113,2.619,0.182,3.95,0.182    C260.039,113.566,261.037,113.521,262.029,113.456z M61.968,151.337c-4.894,3.242-10.631,4.985-16.636,4.985    c-8.07,0-15.657-3.143-21.364-8.849c-11.779-11.779-11.779-30.946,0-42.726c5.891-5.89,13.625-8.835,21.364-8.835    c7.735,0,15.474,2.946,21.363,8.835c10.314,10.314,11.597,26.29,3.849,38.014L61.968,151.337z M74.463,160.828    c1.004-0.844,1.981-1.728,2.92-2.666c0.712-0.712,1.387-1.45,2.042-2.197l130.46,130.46h-7.549l-2.324-0.046L74.463,160.828z     M110.996,338.39c0-20.319,16.531-36.848,36.848-36.848h54.324l26.341,0.53c0.051,0.001,0.102,0.001,0.153,0.001    c0.954,0,1.871-0.198,2.73-0.531h16.131h22.064h11.046c0.858,0.334,1.776,0.531,2.729,0.531c0.051,0,0.102,0,0.153-0.001    l26.34-0.53h60.364c20.319,0,36.848,16.531,36.848,36.848v34.526H110.996V338.39z M81.941,388.031h19.426    c0.659,0.187,1.352,0.294,2.072,0.294h311.186c0.719,0,1.413-0.107,2.072-0.294h7.789v25.528H81.941V388.031z M15.655,473.972    c3.677-25.578,25.738-45.298,52.318-45.298h6.411h357.66h8.884c26.58,0,48.64,19.72,52.317,45.298H15.655z"/>
	</g>
</g>
<g>
</g>
<g>
</g>
<g>
</g>
<g>
</g>
<g>
</g>
<g>
</g>
<g>
</g>
<g>
</g>
<g>
</g>
<g>
</g>
<g>
</g>
<g>
</g>
<g>
</g>
<g>
</g>
<g>
</g>
</svg>
