<?xml version="1.0" encoding="iso-8859-1"?>
<!-- Generator: Adobe Illustrator 19.0.0, SVG Export Plug-In . SVG Version: 6.00 Build 0)  -->
<svg xmlns="http://www.w3.org/2000/svg" xmlns:xlink="http://www.w3.org/1999/xlink" version="1.1" id="Layer_1" x="0px" y="0px" viewBox="0 0 512 512" style="enable-background:new 0 0 512 512;" xml:space="preserve">
<g>
	<g>
		<path d="M459.11,446.113h-30.043c3.299-5.131,5.223-11.226,5.223-17.766V134.363c0-6.54-1.923-12.635-5.223-17.766h30.043    c18.165,0,32.943-14.778,32.943-32.943c0-18.165-14.778-32.943-32.943-32.943h-76.854c3.299-5.131,5.223-11.226,5.223-17.767    C387.479,14.778,372.701,0,354.536,0H144.857c-18.165,0-32.943,14.778-32.943,32.943c0,6.54,1.923,12.636,5.223,17.767H52.89    c-18.165,0-32.943,14.778-32.943,32.943c0,18.165,14.778,32.943,32.943,32.943h26.753c-3.299,5.131-5.223,11.226-5.223,17.766    v293.983c0,6.406,1.844,12.386,5.021,17.451l-0.35,0.316H52.89c-18.165,0-32.943,14.778-32.943,32.944    C19.947,497.222,34.725,512,52.89,512h406.219c18.165,0,32.943-14.778,32.943-32.944    C492.053,460.891,477.275,446.113,459.11,446.113z M144.857,15.177h209.678c9.796,0,17.766,7.97,17.766,17.766    c0,9.797-7.97,17.767-17.766,17.767H144.857c-9.796,0-17.766-7.97-17.766-17.767C127.091,23.147,135.061,15.177,144.857,15.177z     M52.89,101.42c-9.796,0-17.766-7.97-17.766-17.766c0-9.796,7.97-17.766,17.766-17.766h91.968h209.678h104.574    c9.796,0,17.766,7.97,17.766,17.766c0,9.796-7.97,17.766-17.766,17.766h-57.763H107.363H52.89z M322.815,446.113h-56.796    l153.094-138.181v50.525L322.815,446.113z M419.113,378.98v49.367c0,9.796-7.97,17.766-17.766,17.766h-55.986L419.113,378.98z     M216.078,116.596h65.491v0.001L89.597,266.609v-55.253L216.078,116.596z M89.597,192.392v-58.029    c0-9.796,7.97-17.766,17.766-17.766h83.402L89.597,192.392z M262.315,283.257h64.172l51.944,40.948l-26.492,23.912    L262.315,283.257z M340.419,358.514l-29.725,26.829l-86.13-62.332c-0.019-0.014-0.039-0.028-0.06-0.044l-54.873-39.71h66.797    L340.419,358.514z M112.362,268.08l51.168-39.984c0.491,0.1,0.999,0.153,1.519,0.153h254.064v39.831H112.362z M182.757,213.072    l51.037-39.882c0.246,0.024,0.495,0.038,0.748,0.038h184.57v39.844H182.757z M253.169,158.051l53.049-41.454h95.129    c9.796,0,17.766,7.97,17.766,17.766v23.688H253.169z M92.941,283.257h50.807c0.008,0.006,0.015,0.012,0.022,0.018l23.285,16.851    l-77.457,69.912v-84.168L92.941,283.257z M179.626,309.224l28.375,20.534L91.033,435.333c-0.922-2.146-1.436-4.507-1.436-6.986    v-37.863L179.626,309.224z M220.572,338.857l31.084,22.494l-93.119,84.761h-51.174c-1.685,0-3.31-0.251-4.856-0.691    L220.572,338.857z M181.084,446.113l83.133-75.671l34.96,25.3l-55.808,50.372h-62.284V446.113z M389.861,313.89l-38.857-30.632    h68.11v4.228L389.861,313.89z M459.11,496.823H52.89c-9.796,0-17.766-7.97-17.766-17.767c0-9.796,7.97-17.766,17.766-17.766    h54.472h293.984h57.763c9.796,0,17.766,7.97,17.766,17.767C476.876,488.853,468.906,496.823,459.11,496.823z"/>
	</g>
</g>
<g>
</g>
<g>
</g>
<g>
</g>
<g>
</g>
<g>
</g>
<g>
</g>
<g>
</g>
<g>
</g>
<g>
</g>
<g>
</g>
<g>
</g>
<g>
</g>
<g>
</g>
<g>
</g>
<g>
</g>
</svg>
