<?xml version="1.0" encoding="iso-8859-1"?>
<!-- Generator: Adobe Illustrator 19.0.0, SVG Export Plug-In . SVG Version: 6.00 Build 0)  -->
<svg xmlns="http://www.w3.org/2000/svg" xmlns:xlink="http://www.w3.org/1999/xlink" version="1.1" id="Layer_1" x="0px" y="0px" viewBox="0 0 511.999 511.999" style="enable-background:new 0 0 511.999 511.999;" xml:space="preserve">
<g>
	<g>
		<path d="M405.96,80.97C405.96,36.323,369.636,0,324.99,0h-48.628c-4.218,0-7.636,3.419-7.636,7.636v17.375    c0,4.185,3.368,7.589,7.552,7.636l23.086,0.256c23.012,0,41.733,18.722,41.733,41.734c0,23.012-18.722,41.734-41.733,41.734h-7.31    C284.54,104.347,271.192,96.328,256,96.328c-15.193,0-28.541,8.02-36.055,20.042h-7.31c-23.012,0-41.733-18.722-41.733-41.734    s18.722-41.734,41.733-41.734h23.003c4.218,0,7.636-3.419,7.636-7.636V7.636c0-4.217-3.418-7.636-7.636-7.636h-48.629    c-44.648,0-80.97,36.323-80.97,80.97c0,43.296,34.159,78.761,76.94,80.868c-3.536,5.338-5.603,11.73-5.603,18.599v323.926    c0,4.217,3.418,7.636,7.636,7.636h28.734c4.108,0,7.481-3.251,7.631-7.357l10.181-278.309c0.003-0.094,0.005-0.186,0.005-0.279    c0-2.711,1.041-5.275,2.931-7.219l12.366-12.722c3.816-3.928,10.054-4.199,14.197-0.617l15.792,13.648    c2.278,1.969,3.585,4.825,3.585,7.836c0,0.094,0.002,0.187,0.005,0.28l10.181,277.383c0.151,4.106,3.523,7.356,7.631,7.356h28.734    c4.218,0,7.636-3.419,7.636-7.636V180.438c0-6.868-2.067-13.261-5.603-18.598C371.802,159.731,405.96,124.267,405.96,80.97z     M255.999,111.6c15.01,0,27.22,12.212,27.22,27.221s-12.211,27.221-27.22,27.221c-15.009,0-27.221-12.212-27.221-27.221    C228.778,123.812,240.99,111.6,255.999,111.6z M121.31,80.97c0-36.227,29.472-65.698,65.698-65.698H228v2.358h-15.367    c-31.433,0-57.005,25.573-57.005,57.006c0,31.433,25.572,57.006,57.005,57.006h1.491c-0.399,2.336-0.619,4.731-0.619,7.179    c0,2.682,0.261,5.302,0.738,7.848h-3.1h-24.136C150.782,146.669,121.31,117.197,121.31,80.97z M319.352,496.728h-0.002h-13.737    l-9.906-269.898c-0.044-7.395-3.271-14.4-8.87-19.239l-15.792-13.648c-10.253-8.862-25.687-8.193-35.135,1.526l-12.366,12.722    c-4.642,4.774-7.214,11.059-7.252,17.713l-9.907,270.826h-13.736V180.438c0-10.2,8.297-18.497,18.497-18.497h9.229    c7.586,11.65,20.717,19.373,35.626,19.373c14.908,0,28.039-7.724,35.625-19.373h9.229c10.2,0,18.497,8.297,18.497,18.497V496.728z     M324.99,146.669h-24.136h-3.1c0.478-2.545,0.738-5.166,0.738-7.848c0-2.448-0.22-4.843-0.619-7.179h1.491    c31.433,0,57.005-25.573,57.005-57.006s-25.572-57.006-56.92-57.005l-15.45-0.171v-2.188h40.992    c36.226,0,65.698,29.472,65.698,65.698C390.686,117.196,361.215,146.669,324.99,146.669z"/>
	</g>
</g>
<g>
	<g>
		<path d="M266.799,138.822l2.402-2.402c2.982-2.982,2.982-7.817,0-10.798c-2.983-2.982-7.817-2.982-10.799,0L256,128.024    l-2.402-2.402c-2.983-2.982-7.817-2.982-10.799,0c-2.982,2.982-2.982,7.817,0,10.798l2.402,2.402l-2.402,2.402    c-2.984,2.981-2.984,7.816-0.002,10.798c1.492,1.491,3.446,2.237,5.4,2.237c1.954,0,3.909-0.745,5.4-2.237l2.402-2.402    l2.402,2.402c1.492,1.491,3.446,2.237,5.4,2.237c1.954,0,3.909-0.745,5.4-2.237c2.982-2.982,2.982-7.817,0-10.798L266.799,138.822    z"/>
	</g>
</g>
<g>
</g>
<g>
</g>
<g>
</g>
<g>
</g>
<g>
</g>
<g>
</g>
<g>
</g>
<g>
</g>
<g>
</g>
<g>
</g>
<g>
</g>
<g>
</g>
<g>
</g>
<g>
</g>
<g>
</g>
</svg>
