<?xml version="1.0" encoding="iso-8859-1"?>
<!-- Generator: Adobe Illustrator 19.0.0, SVG Export Plug-In . SVG Version: 6.00 Build 0)  -->
<svg xmlns="http://www.w3.org/2000/svg" xmlns:xlink="http://www.w3.org/1999/xlink" version="1.1" id="Layer_1" x="0px" y="0px" viewBox="0 0 512 512" style="enable-background:new 0 0 512 512;" xml:space="preserve">
<g>
	<g>
		<path d="M504.396,303.357h-39.068v-51.76c0-4.19-3.389-7.59-7.58-7.604c-18.2-0.059-33.006-14.913-33.006-33.113    s14.806-33.054,33.006-33.113c4.19-0.014,7.58-3.415,7.58-7.604v-40.366c0-4.199-3.404-7.604-7.604-7.604h-10.388l24.03-26.669    c2.009-2.232,2.518-5.437,1.298-8.182c-1.222-2.745-3.944-4.513-6.948-4.513h-46.555c-2.079,0-4.068,0.852-5.503,2.356    L272.494,233.195c1.021-16.535-4.757-33.415-17.364-46.023c-23.328-23.326-61.279-23.325-84.605,0c-2.97,2.97-2.97,7.784,0,10.753    c2.971,2.97,7.784,2.97,10.754,0c8.427-8.427,19.63-13.068,31.548-13.068c11.917,0,23.121,4.64,31.547,13.068    c6.238,6.238,10.227,13.882,11.991,21.921c-0.4-0.441-0.811-0.876-1.237-1.301c-7.11-7.109-16.562-11.025-26.617-11.025    c-10.053,0-19.506,3.916-26.616,11.025c-2.97,2.97-2.97,7.784,0.001,10.753c2.969,2.971,7.783,2.97,10.753,0    c4.237-4.237,9.869-6.57,15.862-6.57c5.993,0,11.626,2.333,15.863,6.57c8.747,8.747,8.747,22.978,0,31.725    c-0.802,0.802-1.38,1.741-1.749,2.739H113.859c-7.553,0-14.266-3.934-17.958-10.524c-3.693-6.59-3.54-14.37,0.404-20.812    l46.719-76.282c1.438-2.346,1.495-5.286,0.149-7.688c-1.344-2.401-3.882-3.887-6.634-3.887H87.116    c-9.601,0-18.455,4.806-23.686,12.855l-44.416,68.335c-27.57,38.407-20.934,91.202,13.96,121.756L2.109,379.782    c-0.029,0.03-0.052,0.066-0.08,0.097c-0.2,0.216-0.386,0.442-0.561,0.68c-0.036,0.048-0.073,0.094-0.106,0.143    c-0.188,0.27-0.356,0.552-0.508,0.845c-0.028,0.056-0.054,0.112-0.081,0.168c-0.128,0.262-0.24,0.531-0.338,0.808    c-0.016,0.048-0.036,0.094-0.052,0.142c-0.102,0.311-0.185,0.631-0.246,0.958c-0.012,0.062-0.018,0.125-0.028,0.187    c-0.043,0.262-0.071,0.528-0.086,0.799c-0.005,0.088-0.011,0.175-0.013,0.264C0.007,384.928,0,384.982,0,385.038v36.527    c0,4.199,3.404,7.604,7.604,7.604h496.792c4.2,0,7.604-3.405,7.604-7.604v-36.527v-74.077    C512,306.761,508.596,303.357,504.396,303.357z M422.416,98.04h26.212l-23.96,26.592L295.646,259.907    c-2.337,2.451-5.619,3.856-9.005,3.856h-22.287L422.416,98.04z M496.792,413.961H15.208v-21.319h481.584V413.961z     M496.792,377.434H25.4l22.071-23.074h449.321V377.434z M496.792,339.152H46.78C14.413,314.266,7.421,267.846,31.46,234.499    c0.071-0.099,0.141-0.2,0.207-0.302l44.514-68.485c2.415-3.716,6.502-5.934,10.935-5.934h35.848l-39.629,64.707    c-6.86,11.2-7.122,24.728-0.704,36.187c6.42,11.459,18.093,18.299,31.227,18.299h172.783c7.525,0,14.818-3.123,20.01-8.567    l126.852-133h16.616v25.778c-22.971,3.72-40.585,23.72-40.585,47.7c0,23.979,17.616,43.978,40.585,47.7v52.38    c0,4.199,3.404,7.604,7.604,7.604h39.069V339.152z"/>
	</g>
</g>
<g>
	<g>
		<path d="M61.996,315.563c-8.699-6.271-14.434-15.553-16.152-26.137c-1.716-10.584,0.791-21.204,7.062-29.902    c2.456-3.407,1.685-8.159-1.722-10.615c-3.404-2.456-8.159-1.686-10.615,1.722c-8.645,11.994-12.104,26.636-9.737,41.231    c2.366,14.595,10.276,27.394,22.27,36.039c1.345,0.97,2.9,1.437,4.441,1.437c2.36,0,4.688-1.097,6.174-3.158    C66.173,322.771,65.402,318.018,61.996,315.563z"/>
	</g>
</g>
<g>
</g>
<g>
</g>
<g>
</g>
<g>
</g>
<g>
</g>
<g>
</g>
<g>
</g>
<g>
</g>
<g>
</g>
<g>
</g>
<g>
</g>
<g>
</g>
<g>
</g>
<g>
</g>
<g>
</g>
</svg>
