<?xml version="1.0" encoding="iso-8859-1"?>
<!-- Generator: Adobe Illustrator 19.0.0, SVG Export Plug-In . SVG Version: 6.00 Build 0)  -->
<svg xmlns="http://www.w3.org/2000/svg" xmlns:xlink="http://www.w3.org/1999/xlink" version="1.1" id="Layer_1" x="0px" y="0px" viewBox="0 0 511.999 511.999" style="enable-background:new 0 0 511.999 511.999;" xml:space="preserve">
<g>
	<g>
		<path d="M493.049,18.931C480.854,6.735,464.58,0.019,447.226,0.019c-17.354,0-33.628,6.716-45.822,18.911L282.995,137.338    c-11.746-6.952-27.173-5.386-37.258,4.7l-24.129,24.129c-2.969,2.969-2.969,7.782,0,10.749l36.061,36.061L53.652,416.994    l-8.566-8.566c-2.969-2.97-7.782-2.969-10.749,0l-32.11,32.11c-2.969,2.969-2.969,7.782,0,10.749l58.466,58.466    c1.484,1.484,3.43,2.227,5.375,2.227s3.891-0.742,5.375-2.227l32.109-32.109c2.969-2.969,2.969-7.782,0-10.749l-8.566-8.566    l204.017-204.017l38.033,38.033c1.484,1.484,3.43,2.227,5.375,2.227s3.891-0.742,5.375-2.227l24.129-24.129    c5.784-5.784,8.97-13.474,8.97-21.654c0-6.553-2.044-12.792-5.832-17.989l117.997-117.996    C518.316,85.309,518.316,44.197,493.049,18.931z M78.861,452.953c-2.969,2.969-2.969,7.782,0,10.749l8.566,8.566l-21.36,21.36    l-47.715-47.715l21.36-21.36l8.566,8.566c2.969,2.969,7.782,2.969,10.749,0l209.392-209.392l19.834,19.834L78.861,452.953z     M359.192,222.934c-1.426,1.425-2.227,3.359-2.227,5.375c0,2.016,0.801,3.95,2.227,5.375l1.973,1.973    c2.913,2.913,4.517,6.786,4.517,10.904c0,4.119-1.604,7.992-4.517,10.904l-18.754,18.754l-38.028-38.028    c-0.002-0.002-0.003-0.004-0.005-0.005l-30.584-30.583l-36.061-36.061l18.754-18.754c6.013-6.013,15.796-6.013,21.809,0    c2.969,2.97,7.782,2.969,10.749,0L412.153,29.68c9.323-9.323,21.78-14.459,35.073-14.459c13.293,0,25.749,5.134,35.073,14.459    c9.323,9.324,14.459,21.779,14.459,35.073c0,13.293-5.135,25.749-14.459,35.073L359.192,222.934z"/>
	</g>
</g>
<g>
	<g>
		<path d="M451.826,85.804c-2.968-2.969-7.781-2.969-10.749,0L335.515,191.365c-2.969,2.969-2.969,7.782,0,10.749    c1.484,1.484,3.43,2.227,5.375,2.227s3.891-0.742,5.375-2.227L451.826,96.553C454.795,93.584,454.795,88.771,451.826,85.804z"/>
	</g>
</g>
<g>
	<g>
		<path d="M426.176,60.152c-2.969-2.969-7.782-2.969-10.749,0L309.865,165.714c-2.969,2.969-2.969,7.782,0,10.749    c1.484,1.484,3.43,2.227,5.375,2.227s3.891-0.742,5.375-2.227L426.176,70.903C429.146,67.934,429.146,63.121,426.176,60.152z"/>
	</g>
</g>
<g>
</g>
<g>
</g>
<g>
</g>
<g>
</g>
<g>
</g>
<g>
</g>
<g>
</g>
<g>
</g>
<g>
</g>
<g>
</g>
<g>
</g>
<g>
</g>
<g>
</g>
<g>
</g>
<g>
</g>
</svg>
