<?xml version="1.0" encoding="iso-8859-1"?>
<!-- Generator: Adobe Illustrator 19.0.0, SVG Export Plug-In . SVG Version: 6.00 Build 0)  -->
<svg xmlns="http://www.w3.org/2000/svg" xmlns:xlink="http://www.w3.org/1999/xlink" version="1.1" id="Layer_1" x="0px" y="0px" viewBox="0 0 512 512" style="enable-background:new 0 0 512 512;" xml:space="preserve">
<g>
	<g>
		<path d="M441.245,114.025H168.34c-36.319,0-55.915,73.15-55.915,141.976c0,27.827,3.076,55.084,8.729,77.972H32.002    C14.355,333.972,0,348.328,0,365.973c0,17.645,14.355,32.002,32.002,32.002h136.339h6.4h266.504    C480.922,397.975,512,335.612,512,256S480.921,114.025,441.245,114.025z M168.34,129.279c1.281,0,2.573,0.249,3.868,0.722    c-17.896,23.613-29.132,71.328-29.132,125.998c0,27.828,3.075,55.085,8.728,77.972h-14.897    c-5.962-22.394-9.226-49.812-9.226-77.972C127.68,183.472,149.147,129.279,168.34,129.279z M183.681,140.093    C197.428,159.385,209,202.751,209,256c0,29.966-3.666,56.795-9.321,77.972h-32.121c-5.962-22.393-9.226-49.81-9.226-77.972    C158.332,206.439,168.521,160.874,183.681,140.093z M168.34,382.72H32.002c-9.234,0-16.746-7.513-16.746-16.746    s7.513-16.746,16.746-16.746h99c0.018,0,0.038,0,0.056,0h30.687c0.008,0,0.016,0.002,0.024,0.002c0.009,0,0.018-0.002,0.027-0.002    h33.124C187.285,370.23,177.551,382.72,168.34,382.72z M242.557,382.72h-47.905c7.289-9.415,13.283-22.642,17.925-38.133    c0.221-0.517,0.379-1.065,0.481-1.633c7.381-25.393,11.196-56.592,11.196-86.954c0-49.723-10.23-101.696-29.603-126.72h47.905    c19.193,0,40.66,54.193,40.66,126.72S261.751,382.72,242.557,382.72z M360.923,382.72H268.87    c19.372-25.024,29.603-76.997,29.603-126.72c0-49.723-10.23-101.696-29.603-126.72h92.053c19.193,0.001,40.66,54.193,40.66,126.72    S380.116,382.72,360.923,382.72z M441.245,382.72h-54.009c19.372-25.024,29.603-76.997,29.603-126.72    c0-49.723-10.23-101.696-29.603-126.72h54.009c26.803,0,55.499,50.919,55.499,126.72S468.047,382.72,441.245,382.72z"/>
	</g>
</g>
<g>
	<g>
		<path d="M352.308,226.794c-13.504,0-37.189,17.761-44.127,23.205c-1.843,1.446-2.919,3.658-2.919,6    c0,2.342,1.077,4.555,2.919,6.002c6.937,5.444,30.622,23.205,44.127,23.205c16.105,0,29.206-13.102,29.206-29.207    C381.514,239.895,368.412,226.794,352.308,226.794z M352.308,269.951c-4.387,0-15.889-6.472-26.59-13.952    c10.701-7.478,22.203-13.951,26.59-13.951c7.692,0,13.951,6.258,13.951,13.951C366.258,263.692,360,269.951,352.308,269.951z"/>
	</g>
</g>
<g>
</g>
<g>
</g>
<g>
</g>
<g>
</g>
<g>
</g>
<g>
</g>
<g>
</g>
<g>
</g>
<g>
</g>
<g>
</g>
<g>
</g>
<g>
</g>
<g>
</g>
<g>
</g>
<g>
</g>
</svg>
