<?xml version="1.0" encoding="iso-8859-1"?>
<!-- Generator: Adobe Illustrator 19.0.0, SVG Export Plug-In . SVG Version: 6.00 Build 0)  -->
<svg xmlns="http://www.w3.org/2000/svg" xmlns:xlink="http://www.w3.org/1999/xlink" version="1.1" id="Layer_1" x="0px" y="0px" viewBox="0 0 512 512" style="enable-background:new 0 0 512 512;" xml:space="preserve">
<g>
	<g>
		<path d="M428.412,88.072l-31.333-47.111C380.021,15.313,351.448,0,320.644,0H192.868c-10.545,0-19.124,8.579-19.124,19.123v16.364    c0,2.145-1.745,3.891-3.89,3.891h-24.16c-2.145,0-3.891-1.745-3.891-3.891v-4.888c0-10.121-8.234-18.357-18.357-18.357h-22.776    c-10.122,0-18.357,8.234-18.357,18.357v72.841c0,10.121,8.234,18.357,18.357,18.357h22.777c10.121,0,18.357-8.234,18.357-18.357    v-4.889c0-2.145,1.745-3.89,3.891-3.89h24.16c2.145,0,3.89,1.745,3.89,3.89v16.365c0,10.545,8.579,19.123,19.124,19.123h7.276    l-7.968,196.293c-0.191,2.373-0.294,4.823-0.299,7.354l-5.625,138.573c-0.383,9.431,3.006,18.374,9.543,25.182    C202.335,508.25,211.133,512,220.571,512h37.992c9.439,0,18.238-3.75,24.775-10.558c6.537-6.808,9.926-15.752,9.543-25.182    l-6.223-153.328c0-0.004,0-0.008,0-0.011l-3.253-80.126c-0.001-0.015-0.001-0.03-0.002-0.046L278.99,134.04h2.039    c10.545,0,19.123-8.579,19.123-19.123V86.401c0-6.487,5.278-11.764,11.764-11.764h22.702c8.505,0,16.895,1.405,24.937,4.174    l60.031,20.68c3.089,1.064,6.511,0.04,8.509-2.544C430.093,94.362,430.219,90.792,428.412,88.072z M213.012,495.221    c-2.311-0.994-4.424-2.452-6.227-4.328c-3.64-3.789-5.526-8.766-5.313-14.014l5.88-144.843    c1.489-19.674,10.273-33.461,18.817-46.814c8.455-13.214,16.441-25.695,16.441-42.14c0-25.318-16.913-36.476-30.018-40.099    l0.327-8.049h53.298l1.877,46.226c-3.749,6.583-15.443,28.588-27.176,65.85C228.601,346.131,214.002,410.078,213.012,495.221z     M209.33,283.338l2.617-64.493c6.763,2.758,15.43,9.22,15.43,24.236c0,11.989-6.506,22.157-14.039,33.93    C212.015,279.078,210.669,281.182,209.33,283.338z M265.214,170.251l0.383,9.447h-52.061l0.384-9.447H265.214z M214.539,155.018    l0.852-20.978h48.354l0.851,20.978H214.539z M228.229,496.766c0.822-83.611,15.03-146.272,27.007-184.508    c4.927-15.727,9.874-28.677,14.169-38.783l1.933,47.633c-35.245,57.478-36.877,148.232-36.501,175.659H228.229z M272.35,490.891    c-3.638,3.788-8.534,5.875-13.786,5.875h-8.459c-0.228-22.289,0.976-91.341,22.508-144.245l5.047,124.356    C277.873,482.126,275.987,487.103,272.35,490.891z M364.518,64.408c-9.642-3.322-19.7-5.006-29.898-5.006h-22.702    c-14.887,0-26.998,12.112-26.998,26.998v28.515c0,2.145-1.745,3.89-3.89,3.89h-9.973h-62.982h-15.207    c-2.145,0-3.891-1.745-3.891-3.89V98.552c0-10.545-8.579-19.123-19.123-19.123h-24.16c-10.545,0-19.124,8.579-19.124,19.123v4.888    c0,1.693-1.43,3.123-3.123,3.123h-22.776c-1.693,0-3.123-1.43-3.123-3.123v-72.84c0-1.693,1.43-3.123,3.123-3.123h22.777    c1.693,0,3.123,1.43,3.123,3.123v4.888c0,10.545,8.579,19.124,19.124,19.124h24.16c10.545,0,19.123-8.579,19.123-19.124V19.123    c0-2.145,1.745-3.89,3.891-3.89h127.776c25.691,0,49.523,12.771,63.749,34.163l18.858,28.355L364.518,64.408z"/>
	</g>
</g>
<g>
	<g>
		<path d="M238.091,23.969h-24.067c-8.29,0-15.035,6.744-15.035,15.035v11.88c0,4.207,3.41,7.617,7.617,7.617    s7.617-3.41,7.617-7.617V39.202h23.868c4.206,0,7.617-3.41,7.617-7.617S242.298,23.969,238.091,23.969z"/>
	</g>
</g>
<g>
</g>
<g>
</g>
<g>
</g>
<g>
</g>
<g>
</g>
<g>
</g>
<g>
</g>
<g>
</g>
<g>
</g>
<g>
</g>
<g>
</g>
<g>
</g>
<g>
</g>
<g>
</g>
<g>
</g>
</svg>
