<?xml version="1.0" encoding="iso-8859-1"?>
<!-- Generator: Adobe Illustrator 19.0.0, SVG Export Plug-In . SVG Version: 6.00 Build 0)  -->
<svg version="1.1" id="Capa_1" xmlns="http://www.w3.org/2000/svg" xmlns:xlink="http://www.w3.org/1999/xlink" x="0px" y="0px"
	 viewBox="0 0 472 472" style="enable-background:new 0 0 472 472;" xml:space="preserve">
<path d="M428,195.019c0-34.856-22.316-64.022-66.328-86.687c-34.125-17.573-73.865-27.385-101.194-32.521
	c-0.002,0-0.004,0-0.005-0.001c-1.172-0.222-1.271-0.488-1.449-0.968c-2.82-7.61,8.188-32.299,22.224-49.844
	c1.654-2.068,2.178-4.821,1.398-7.353c-0.779-2.531-2.761-4.513-5.293-5.292l-39-12c-1.765-0.543-3.666-0.46-5.376,0.24
	c-12.71,5.188-15.128,25.329-17.689,46.653c-1.139,9.483-3.01,25.058-5.8,28.952c-27.263,5.243-66.364,15.098-99.868,32.499
	C66.078,131.313,44,160.356,44,195.019c0,12.85,7.129,24.185,17.918,30.815C60.645,233.721,60,242.053,60,250.656
	c0,34.024,9.223,66.465,27.412,96.42c14.424,23.755,34.476,45.961,59.599,66.002c34.328,27.384,68.266,42.988,80.989,48.327V464
	c0,4.418,3.582,8,8,8s8-3.582,8-8v-2.596c12.722-5.339,46.661-20.943,80.989-48.327c25.123-20.041,45.175-42.247,59.599-66.002
	C402.778,317.121,412,284.68,412,250.656c0-8.601-0.645-16.934-1.918-24.822C420.871,219.203,428,207.868,428,195.019z M354.956,216
	h-26.834c2.466-5.886,3.878-13.068,3.878-20.981c0-42.043-16.633-70.428-35.839-89.194C332.565,121.289,372,148.727,372,195.019
	C372,206.588,364.354,216,354.956,216z M273.374,151.956c-0.578-4.38-4.599-7.462-8.977-6.886c-4.38,0.578-7.463,4.597-6.885,8.978
	c1.651,12.523,2.488,26.378,2.488,41.178c0,10.143-1.023,17.172-1.903,20.775h-44.194c-0.879-3.604-1.903-10.633-1.903-20.775
	c0-64.795,15.615-92.674,23.998-102.961c4.105,5.059,10.274,14.805,15.335,31.833c1.033,3.476,4.216,5.724,7.665,5.724
	c0.754,0,1.522-0.107,2.282-0.333c4.235-1.259,6.648-5.713,5.39-9.947c-2.605-8.766-5.521-15.948-8.462-21.843
	c9.71,5.245,20.549,12.71,30.284,23.192C306.745,140.543,316,165.485,316,195.019c0,14.233-5.859,20.981-7.305,20.981h-34.279
	c1.02-5.77,1.584-13.079,1.584-20.775C276,179.728,275.117,165.17,273.374,151.956z M156,195.019c0-8.163,0.718-16.078,2.133-23.525
	c0.825-4.34-2.025-8.527-6.366-9.353c-4.34-0.82-8.528,2.025-9.353,6.366c-1.602,8.429-2.414,17.349-2.414,26.512
	c0,7.913,1.412,15.096,3.878,20.981h-26.834c-9.398,0-17.044-9.412-17.044-20.981c0-46.301,39.556-73.749,75.87-89.189
	c-7.906,7.736-15.377,17.096-21.438,28.388c-2.089,3.893-0.627,8.742,3.266,10.832c1.204,0.646,2.499,0.953,3.776,0.953
	c2.852,0,5.612-1.529,7.056-4.219c11.927-22.22,30.308-35.96,45.174-44.027C204.65,115.857,196,146.024,196,195.225
	c0,7.697,0.564,15.005,1.584,20.775h-34.279C161.859,216,156,209.252,156,195.019z M231.174,49.155
	c1.004-8.358,2.042-17.001,3.672-23.751c1.102-4.561,2.207-7.091,3.002-8.465l24.068,7.406c-4.96,7.366-9.489,15.431-12.799,22.898
	c-5.126,11.563-7.208,21.116-6.227,28.495l-16.124,0.065C228.844,68.544,229.95,59.349,231.174,49.155z M116.994,122.898
	c0.663-0.344,1.332-0.681,2-1.019C98.765,139.728,84,163.534,84,195.019c0,7.787,2.167,15.015,5.854,20.981h-5.853
	c-13.234,0-24-9.412-24-20.981C60,166.805,79.176,142.539,116.994,122.898z M396,250.656c0,30.975-8.398,60.551-24.961,87.907
	c-13.388,22.111-32.123,42.882-55.685,61.733C280.9,427.863,245.956,443.288,236,447.388c-9.961-4.103-44.902-19.527-79.354-47.092
	c-23.562-18.852-42.297-39.622-55.685-61.733C84.399,311.206,76,281.63,76,250.656c0-6.631,0.422-13.061,1.256-19.192
	C79.45,231.81,81.701,232,84.001,232h33.043h46.261h46.261h52.869h46.261h46.261H388c2.299,0,4.551-0.19,6.745-0.536
	C395.579,237.594,396,244.025,396,250.656z M388,216h-5.853c3.687-5.966,5.854-13.194,5.854-20.981
	c0-31.453-14.7-55.24-34.887-73.086c0.411,0.208,0.825,0.413,1.234,0.624c38.255,19.7,57.653,44.08,57.653,72.462
	C412,206.588,401.234,216,388,216z"/>
<g>
</g>
<g>
</g>
<g>
</g>
<g>
</g>
<g>
</g>
<g>
</g>
<g>
</g>
<g>
</g>
<g>
</g>
<g>
</g>
<g>
</g>
<g>
</g>
<g>
</g>
<g>
</g>
<g>
</g>
</svg>
