<?xml version="1.0" encoding="iso-8859-1"?>
<!-- Generator: Adobe Illustrator 19.0.0, SVG Export Plug-In . SVG Version: 6.00 Build 0)  -->
<svg version="1.1" id="Capa_1" xmlns="http://www.w3.org/2000/svg" xmlns:xlink="http://www.w3.org/1999/xlink" x="0px" y="0px"
	 viewBox="0 0 480 480" style="enable-background:new 0 0 480 480;" xml:space="preserve">
<g>
	<path d="M472,291.999H80v-232c0-13.233,10.767-24,24-24s24,10.767,24,24c0,4.418,3.582,8,8,8s8-3.582,8-8c0-22.056-17.944-40-40-40
		s-40,17.944-40,40v232H8c-4.418,0-8,3.582-8,8s3.582,8,8,8h10.494l16.224,67.073c6.252,25.849,27.8,47.975,52.713,56.811
		l-6.858,17.146c-1.641,4.102,0.354,8.758,4.457,10.398c0.975,0.39,1.979,0.574,2.969,0.574c3.175,0,6.179-1.903,7.43-5.031
		l7.76-19.4c2.403,0.273,4.813,0.429,7.222,0.429h260.039c2.136,0,4.272-0.113,6.404-0.328l7.719,19.299
		c1.251,3.129,4.255,5.031,7.43,5.031c0.989,0,1.995-0.185,2.969-0.574c4.102-1.641,6.098-6.297,4.457-10.398l-6.75-16.875
		c25.23-8.653,47.148-30.972,53.464-57.081l16.223-67.073H472c4.418,0,8-3.582,8-8S476.418,291.999,472,291.999z M430.589,371.311
		c-5.06,20.919-23.415,39.253-43.864,45.962l-3.298-8.244c-1.641-4.104-6.296-6.099-10.399-4.457
		c-4.102,1.641-6.098,6.297-4.457,10.398l2.01,5.026c-0.045,0-0.089,0.003-0.134,0.003H110.41c-0.327,0-0.656-0.019-0.983-0.026
		l2.001-5.003c1.641-4.102-0.354-8.758-4.457-10.398c-4.103-1.643-8.758,0.354-10.399,4.457l-3.2,8
		c-20.143-6.909-38.106-25.057-43.103-45.717l-15.314-63.312h410.947L430.589,371.311z"/>
	<path d="M144,83.999c0-4.418-3.582-8-8-8s-8,3.582-8,8v16h-24c-4.418,0-8,3.582-8,8s3.582,8,8,8h64c4.418,0,8-3.582,8-8
		s-3.582-8-8-8h-24V83.999z"/>
</g>
<g>
</g>
<g>
</g>
<g>
</g>
<g>
</g>
<g>
</g>
<g>
</g>
<g>
</g>
<g>
</g>
<g>
</g>
<g>
</g>
<g>
</g>
<g>
</g>
<g>
</g>
<g>
</g>
<g>
</g>
</svg>
