<?xml version="1.0" encoding="iso-8859-1"?>
<!-- Generator: Adobe Illustrator 19.0.0, SVG Export Plug-In . SVG Version: 6.00 Build 0)  -->
<svg version="1.1" id="Capa_1" xmlns="http://www.w3.org/2000/svg" xmlns:xlink="http://www.w3.org/1999/xlink" x="0px" y="0px"
	 viewBox="0 0 456 456" style="enable-background:new 0 0 456 456;" xml:space="preserve">
<g>
	<path d="M352,256h-16c-4.418,0-8,3.582-8,8s3.582,8,8,8h16c4.418,0,8-3.582,8-8S356.418,256,352,256z"/>
	<path d="M432,128c-13.233,0-24,10.767-24,24v24.107c-43.805,1.15-91.075,11.755-103.918,33.875
		c-2.917,5.024-3.773,9.812-3.489,14.018H48v-32c0-13.233-10.766-24-24-24S0,178.767,0,192v128c0,4.418,3.582,8,8,8h32
		c4.418,0,8-3.582,8-8v-24h360v24c0,4.418,3.582,8,8,8h32c4.418,0,8-3.582,8-8V152C456,138.767,445.233,128,432,128z
		 M317.918,218.017c8.123-13.99,46.1-24.73,90.082-25.905V224h-91.265C316.406,222.488,316.501,220.457,317.918,218.017z M32,312H16
		V192c0-4.411,3.589-8,8-8s8,3.589,8,8V312z M48,280v-8h256c4.418,0,8-3.582,8-8s-3.582-8-8-8H48v-16h360v16h-24
		c-4.418,0-8,3.582-8,8s3.582,8,8,8h24v8H48z M440,312h-16V152c0-4.411,3.589-8,8-8s8,3.589,8,8V312z"/>
</g>
<g>
</g>
<g>
</g>
<g>
</g>
<g>
</g>
<g>
</g>
<g>
</g>
<g>
</g>
<g>
</g>
<g>
</g>
<g>
</g>
<g>
</g>
<g>
</g>
<g>
</g>
<g>
</g>
<g>
</g>
</svg>
