<?xml version="1.0" encoding="iso-8859-1"?>
<!-- Generator: Adobe Illustrator 19.0.0, SVG Export Plug-In . SVG Version: 6.00 Build 0)  -->
<svg version="1.1" id="Capa_1" xmlns="http://www.w3.org/2000/svg" xmlns:xlink="http://www.w3.org/1999/xlink" x="0px" y="0px"
	 viewBox="0 0 448 448" style="enable-background:new 0 0 448 448;" xml:space="preserve">
<g>
	<path d="M310.66,185.477c15.238,9.838,28.614,22.096,39.756,36.436c1.577,2.029,3.938,3.091,6.323,3.091
		c1.715,0,3.443-0.549,4.903-1.683c3.488-2.711,4.119-7.737,1.408-11.227c-12.251-15.765-26.958-29.242-43.713-40.059
		c-3.711-2.396-8.665-1.329-11.06,2.382C305.882,178.129,306.948,183.081,310.66,185.477z"/>
	<path d="M266.855,165.802c6.121,1.697,12.208,3.788,18.091,6.214c0.998,0.411,2.03,0.605,3.047,0.605
		c3.144,0,6.126-1.865,7.399-4.952c1.684-4.085-0.263-8.762-4.347-10.446c-6.476-2.67-13.177-4.971-19.915-6.839
		c-4.259-1.176-8.666,1.314-9.847,5.571C260.104,160.213,262.598,164.621,266.855,165.802z"/>
	<path d="M432,344H256v-16h168c4.418,0,8-3.582,8-8c0-112.011-89.003-203.611-200-207.831V96c0-0.456-0.047-0.9-0.12-1.335
		C241.253,91.396,248,82.474,248,72c0-13.233-10.767-24-24-24c-13.234,0-24,10.767-24,24c0,10.474,6.747,19.396,16.12,22.665
		C216.047,95.1,216,95.544,216,96v16.169C105.003,116.389,16,207.989,16,320c0,4.418,3.582,8,8,8h168v16H16c-8.822,0-16,7.178-16,16
		v24c0,8.822,7.178,16,16,16h416c8.822,0,16-7.178,16-16v-24C448,351.178,440.822,344,432,344z M224,64c4.411,0,8,3.589,8,8
		s-3.589,8-8,8s-8-3.589-8-8S219.589,64,224,64z M224,128c103.188,0,187.611,81.828,191.821,184H32.179
		C36.389,209.828,120.812,128,224,128z M208,328h32v16h-32V328z M16,384v-24h416l0.002,24H16z"/>
</g>
<g>
</g>
<g>
</g>
<g>
</g>
<g>
</g>
<g>
</g>
<g>
</g>
<g>
</g>
<g>
</g>
<g>
</g>
<g>
</g>
<g>
</g>
<g>
</g>
<g>
</g>
<g>
</g>
<g>
</g>
</svg>
