<?xml version="1.0" encoding="iso-8859-1"?>
<!-- Generator: Adobe Illustrator 19.0.0, SVG Export Plug-In . SVG Version: 6.00 Build 0)  -->
<svg version="1.1" id="Capa_1" xmlns="http://www.w3.org/2000/svg" xmlns:xlink="http://www.w3.org/1999/xlink" x="0px" y="0px"
	 viewBox="0 0 464 464" style="enable-background:new 0 0 464 464;" xml:space="preserve">
<g>
	<path d="M339.353,48.737l-104-48c-2.127-0.982-4.578-0.982-6.705,0l-104,48C121.815,50.044,120,52.88,120,56v32
		c0,2.729,1.391,5.269,3.688,6.738c2.296,1.47,5.187,1.67,7.664,0.525L136,93.119V272c-4.418,0-8,3.582-8,8s3.582,8,8,8h72v168
		c0,4.418,3.582,8,8,8s8-3.582,8-8V288h16v168c0,4.418,3.582,8,8,8s8-3.582,8-8V288h72c4.418,0,8-3.582,8-8s-3.582-8-8-8V93.119
		l4.647,2.145c1.067,0.493,2.212,0.736,3.352,0.736c1.506,0,3.005-0.425,4.313-1.262C342.61,93.269,344,90.729,344,88V56
		C344,52.88,342.186,50.044,339.353,48.737z M328,75.498l-18.647-8.606c-4.012-1.851-8.765-0.101-10.616,3.911
		s-0.101,8.765,3.911,10.616L312,85.735V272H152V85.734l80-36.923l41.647,19.223c4.013,1.851,8.764,0.101,10.616-3.911
		c1.852-4.012,0.101-8.765-3.911-10.616l-45-20.77c-2.127-0.982-4.578-0.982-6.705,0L136,75.498V61.12l96-44.309l96,44.309V75.498z"
		/>
	<path d="M232,104c-22.056,0-40,17.944-40,40s17.944,40,40,40s40-17.944,40-40S254.056,104,232,104z M232,168
		c-13.233,0-24-10.767-24-24s10.767-24,24-24s24,10.767,24,24S245.234,168,232,168z"/>
	<path d="M232,200c-8.822,0-16,7.178-16,16s7.178,16,16,16s16-7.178,16-16S240.823,200,232,200z"/>
</g>
<g>
</g>
<g>
</g>
<g>
</g>
<g>
</g>
<g>
</g>
<g>
</g>
<g>
</g>
<g>
</g>
<g>
</g>
<g>
</g>
<g>
</g>
<g>
</g>
<g>
</g>
<g>
</g>
<g>
</g>
</svg>
