<?xml version="1.0" encoding="iso-8859-1"?>
<!-- Generator: Adobe Illustrator 19.0.0, SVG Export Plug-In . SVG Version: 6.00 Build 0)  -->
<svg version="1.1" id="Capa_1" xmlns="http://www.w3.org/2000/svg" xmlns:xlink="http://www.w3.org/1999/xlink" x="0px" y="0px"
	 viewBox="0 0 441 441" style="enable-background:new 0 0 441 441;" xml:space="preserve">
<g>
	<path d="M418.183,236.255c-0.132-0.455-0.305-0.901-0.521-1.334c-2.211-4.444-4.175-8.809-5.958-13.088
		c5.792-9.159,8.796-18.847,8.796-28.833c0-16.227-8.16-32.118-23.596-45.958c-0.281-0.252-0.579-0.471-0.883-0.676
		c0.06-5.313,0.411-8.319,0.417-8.368c0.287-2.277-0.419-4.568-1.938-6.29s-3.704-2.708-6-2.708h-336c-2.296,0-4.481,0.986-6,2.708
		s-2.225,4.013-1.938,6.29c0.014,0.112,0.362,3.091,0.42,8.35c-0.281,0.193-0.556,0.399-0.817,0.633
		C28.683,160.836,20.5,176.749,20.5,193c0,9.992,3.008,19.688,8.808,28.853c-1.786,4.277-3.766,8.639-5.97,13.068
		c-0.218,0.438-0.392,0.887-0.524,1.34C15.97,251.939,12.5,268.331,12.5,285c0,45.39,17.343,83.71,50.154,110.819
		C98.94,425.799,152.047,441,220.5,441s121.56-15.201,157.846-45.181C411.157,368.71,428.5,330.39,428.5,285
		C428.5,268.329,425.029,251.935,418.183,236.255z M404.5,193c0,2.212-0.231,4.405-0.66,6.578
		c-3.005-10.314-4.858-19.598-5.986-27.354C402.261,179.008,404.5,185.956,404.5,193z M380.016,145
		c-0.086,4.117-0.017,9.528,0.469,16H348.5c-4.418,0-8,3.582-8,8s3.582,8,8,8h33.85c1.938,12.325,5.367,26.819,11.251,42.603
		C367.742,250.356,298.909,273,220.5,273c-78.409,0-147.242-22.644-173.101-53.397c5.884-15.784,9.313-30.278,11.251-42.603H316.5
		c4.418,0,8-3.582,8-8s-3.582-8-8-8H60.515c0.485-6.472,0.555-11.883,0.468-16H380.016z M234.473,288.772
		c-2.738,4.902-7.972,8.228-13.973,8.228s-11.236-3.326-13.973-8.228c4.63,0.149,9.289,0.228,13.973,0.228
		S229.844,288.922,234.473,288.772z M36.5,193c0-7.045,2.239-13.993,6.647-20.777c-1.173,8.109-3.043,17.355-5.975,27.41
		C36.735,197.442,36.5,195.23,36.5,193z M368.155,383.484C334.812,411.032,285.134,425,220.5,425s-114.312-13.968-147.655-41.516
		C43.834,359.516,28.5,325.46,28.5,285c0-14.773,3.156-29.324,9.381-43.25c0.102-0.229,0.193-0.46,0.272-0.692
		c0.876-1.78,1.707-3.546,2.518-5.304c10.063,9.919,23.743,18.958,40.732,26.745c29.771,13.645,67.266,22.388,107.846,25.362
		C192.398,302.218,205.21,313,220.5,313s28.102-10.782,31.252-25.14c40.58-2.974,78.075-11.718,107.846-25.362
		c16.989-7.787,30.669-16.826,40.732-26.745c0.812,1.759,1.643,3.525,2.519,5.306c0.079,0.233,0.17,0.465,0.271,0.692
		c6.225,13.925,9.38,28.476,9.38,43.248C412.5,325.46,397.166,359.516,368.155,383.484z"/>
	<path d="M204.5,104c0,4.418,3.582,8,8,8s8-3.582,8-8c0-4.495,1.734-6.419,5.656-10.341c4.365-4.365,10.344-10.343,10.344-21.656
		c0-11.314-5.978-17.293-10.343-21.658c-3.922-3.922-5.657-5.846-5.657-10.343s1.734-6.421,5.657-10.345
		C230.522,25.292,236.5,19.314,236.5,8c0-4.418-3.582-8-8-8s-8,3.582-8,8c0,4.497-1.734,6.421-5.657,10.345
		C210.478,22.71,204.5,28.688,204.5,40.002c0,11.313,5.978,17.292,10.343,21.656c3.923,3.924,5.657,5.848,5.657,10.345
		c0,4.496-1.734,6.42-5.657,10.342C210.478,86.71,204.5,92.688,204.5,104z"/>
	<path d="M244.5,104c0,4.418,3.582,8,8,8s8-3.582,8-8c0-4.495,1.734-6.419,5.656-10.341c4.365-4.365,10.344-10.343,10.344-21.656
		c0-11.314-5.978-17.293-10.343-21.658c-3.922-3.922-5.657-5.846-5.657-10.343c0-4.418-3.582-8-8-8s-8,3.582-8,8
		c0,11.313,5.978,17.292,10.343,21.656c3.923,3.924,5.657,5.848,5.657,10.345c0,4.496-1.734,6.42-5.657,10.342
		C250.478,86.71,244.5,92.688,244.5,104z"/>
	<path d="M164.5,104c0,4.418,3.582,8,8,8s8-3.582,8-8c0-4.495,1.734-6.419,5.656-10.341c4.365-4.365,10.344-10.343,10.344-21.656
		c0-11.314-5.978-17.293-10.343-21.658c-3.922-3.922-5.657-5.846-5.657-10.343c0-4.418-3.582-8-8-8s-8,3.582-8,8
		c0,11.313,5.978,17.292,10.343,21.656c3.923,3.924,5.657,5.848,5.657,10.345c0,4.496-1.734,6.42-5.657,10.342
		C170.478,86.71,164.5,92.688,164.5,104z"/>
</g>
<g>
</g>
<g>
</g>
<g>
</g>
<g>
</g>
<g>
</g>
<g>
</g>
<g>
</g>
<g>
</g>
<g>
</g>
<g>
</g>
<g>
</g>
<g>
</g>
<g>
</g>
<g>
</g>
<g>
</g>
</svg>
