<?xml version="1.0" encoding="iso-8859-1"?>
<!-- Generator: Adobe Illustrator 19.0.0, SVG Export Plug-In . SVG Version: 6.00 Build 0)  -->
<svg version="1.1" id="Capa_1" xmlns="http://www.w3.org/2000/svg" xmlns:xlink="http://www.w3.org/1999/xlink" x="0px" y="0px"
	 viewBox="0 0 440 440" style="enable-background:new 0 0 440 440;" xml:space="preserve">
<path d="M423.5,218.165V192c0-56.63-36.971-104.781-88.041-121.605c-0.778-27.439-21.376-49.994-47.959-53.814V16
	c0-8.822-7.178-16-16-16h-96c-8.822,0-16,7.178-16,16v16c0,8.822,7.178,16,16,16v16h-24c-70.58,0-128,57.421-128,128v24.051
	c-8.356,0.52-15,7.464-15,15.949v40c0,8.485,6.644,15.429,15,15.949V312c0,70.579,57.42,128,128,128h144
	c70.579,0,128-57.421,128-128v-26.165c4.774-2.772,8-7.928,8-13.835v-40C431.5,226.094,428.274,220.937,423.5,218.165z
	 M319.072,66.184C311.429,64.755,303.552,64,295.5,64h-24V48c8.553,0,15.54-6.752,15.96-15.202
	C303.849,36.121,316.63,49.496,319.072,66.184z M175.5,16h96l0.001,7.981c0,0.007-0.001,0.013-0.001,0.019s0.001,0.013,0.001,0.019
	L271.502,32H175.5V16z M191.5,48h64v16h-64V48z M295.5,424h-144c-61.757,0-112-50.243-112-112v-24h24c4.418,0,8-3.582,8-8
	s-3.582-8-8-8h-39v-40h303c4.418,0,8-3.582,8-8s-3.582-8-8-8h-288v-24c0-61.757,50.243-112,112-112h144c61.757,0,112,50.243,112,112
	v24h-48c-4.418,0-8,3.582-8,8s3.582,8,8,8h56v40h-320c-4.418,0-8,3.582-8,8s3.582,8,8,8h312v24C407.5,373.757,357.257,424,295.5,424
	z"/>
<g>
</g>
<g>
</g>
<g>
</g>
<g>
</g>
<g>
</g>
<g>
</g>
<g>
</g>
<g>
</g>
<g>
</g>
<g>
</g>
<g>
</g>
<g>
</g>
<g>
</g>
<g>
</g>
<g>
</g>
</svg>
