<?xml version="1.0" encoding="iso-8859-1"?>
<!-- Generator: Adobe Illustrator 19.0.0, SVG Export Plug-In . SVG Version: 6.00 Build 0)  -->
<svg version="1.1" id="Capa_1" xmlns="http://www.w3.org/2000/svg" xmlns:xlink="http://www.w3.org/1999/xlink" x="0px" y="0px"
	 viewBox="0 0 480 480" style="enable-background:new 0 0 480 480;" xml:space="preserve">
<g>
	<path d="M144.619,249.99c0.505,4.048,3.951,7.011,7.928,7.011c0.33,0,0.665-0.021,1-0.063c4.384-0.547,7.495-4.544,6.948-8.929
		c-0.329-2.637-0.496-5.332-0.496-8.01c0-35.29,28.71-64,64-64c27.201,0,51.493,17.245,60.446,42.912
		c1.455,4.172,6.015,6.374,10.188,4.919c4.172-1.456,6.374-6.017,4.919-10.188C288.361,181.557,257.998,160,224,160
		c-44.112,0-80,35.888-80,80C144,243.337,144.208,246.698,144.619,249.99z"/>
	<path d="M64,248h48c4.418,0,8-3.582,8-8s-3.582-8-8-8H64c-4.418,0-8,3.582-8,8S59.582,248,64,248z"/>
	<path d="M32,232H8c-4.418,0-8,3.582-8,8s3.582,8,8,8h24c4.418,0,8-3.582,8-8S36.418,232,32,232z"/>
	<path d="M336,232c-4.418,0-8,3.582-8,8s3.582,8,8,8h48c4.418,0,8-3.582,8-8s-3.582-8-8-8H336z"/>
	<path d="M416,248h24c4.418,0,8-3.582,8-8s-3.582-8-8-8h-24c-4.418,0-8,3.582-8,8S411.582,248,416,248z"/>
	<path d="M224,136c4.418,0,8-3.582,8-8V80c0-4.418-3.582-8-8-8s-8,3.582-8,8v48C216,132.418,219.582,136,224,136z"/>
	<path d="M224,56c4.418,0,8-3.582,8-8V24c0-4.418-3.582-8-8-8s-8,3.582-8,8v24C216,52.418,219.582,56,224,56z"/>
	<path d="M303.196,168.804c2.048,0,4.095-0.781,5.657-2.343l33.94-33.941c3.124-3.124,3.124-8.189,0-11.313
		c-3.125-3.125-8.189-3.124-11.314,0l-33.94,33.941c-3.124,3.124-3.124,8.189,0,11.313
		C299.102,168.023,301.148,168.804,303.196,168.804z"/>
	<path d="M359.765,112.235c2.047,0,4.095-0.781,5.657-2.343l16.971-16.97c3.124-3.124,3.124-8.189,0-11.313s-8.188-3.125-11.314,0
		l-16.971,16.97c-3.124,3.124-3.124,8.189,0,11.313C355.67,111.455,357.717,112.235,359.765,112.235z"/>
	<path d="M139.147,166.461c1.562,1.562,3.609,2.343,5.657,2.343s4.095-0.781,5.657-2.343c3.125-3.124,3.125-8.189,0-11.313
		l-33.941-33.941c-3.124-3.124-8.189-3.124-11.313,0c-3.125,3.124-3.125,8.189,0,11.313L139.147,166.461z"/>
	<path d="M82.579,109.892c1.562,1.563,3.609,2.343,5.657,2.343s4.095-0.781,5.657-2.343c3.125-3.124,3.125-8.189,0-11.313
		l-16.971-16.97c-3.124-3.125-8.189-3.124-11.313,0c-3.125,3.124-3.125,8.189,0,11.313L82.579,109.892z"/>
	<path d="M349.698,328.021C337.315,308.149,315.639,296,292,296c-5.008,0-9.971,0.545-14.82,1.625
		C260.538,276.469,235.083,264,208,264c-26.917,0-52.311,12.375-68.958,33.356C134.079,296.455,129.04,296,124,296
		c-46.318,0-84,37.682-84,84s37.682,84,84,84h228c0.743,0,1.463-0.102,2.146-0.291C388.962,460.583,416,431.15,416,396
		C416,359.072,386.413,328.925,349.698,328.021z M351.474,447.87c-0.342,0.023-0.678,0.066-1.006,0.13H124
		c-37.495,0-68-30.505-68-68s30.505-68,68-68c5.536,0,11.073,0.678,16.458,2.016c3.214,0.802,6.591-0.466,8.487-3.182
		C162.432,291.527,184.509,280,208,280c23.721,0,45.919,11.697,59.38,31.29c1.99,2.897,5.639,4.156,8.995,3.101
		C281.417,312.804,286.674,312,292,312c19.353,0,36.988,10.653,46.025,27.803c1.447,2.749,4.374,4.406,7.459,4.261
		C346.388,344.021,347.21,344,348,344c28.673,0,52,23.327,52,52C400,423.293,378.685,446.077,351.474,447.87z"/>
	<path d="M413.698,304.021C401.315,284.149,379.639,272,356,272c-5.007,0-9.972,0.545-14.82,1.625
		C324.538,252.469,299.083,240,272,240c-8.61,0-17.122,1.244-25.299,3.697c-4.232,1.27-6.633,5.729-5.364,9.961
		c1.27,4.231,5.726,6.633,9.962,5.364C257.982,257.017,264.947,256,272,256c23.721,0,45.919,11.697,59.38,31.29
		c1.99,2.897,5.639,4.156,8.995,3.101C345.417,288.804,350.674,288,356,288c19.353,0,36.988,10.653,46.025,27.803
		c1.447,2.749,4.369,4.41,7.459,4.261c0.903-0.043,1.727-0.064,2.516-0.064c28.673,0,52,23.327,52,52
		c0,21.36-13.395,40.864-33.33,48.534c-4.123,1.586-6.18,6.215-4.594,10.339c1.224,3.179,4.255,5.129,7.469,5.129
		c0.955,0,1.926-0.172,2.871-0.536C462.484,425.438,480,399.932,480,372C480,335.072,450.413,304.925,413.698,304.021z"/>
</g>
<g>
</g>
<g>
</g>
<g>
</g>
<g>
</g>
<g>
</g>
<g>
</g>
<g>
</g>
<g>
</g>
<g>
</g>
<g>
</g>
<g>
</g>
<g>
</g>
<g>
</g>
<g>
</g>
<g>
</g>
</svg>
