<?xml version="1.0" encoding="iso-8859-1"?>
<!-- Generator: Adobe Illustrator 19.0.0, SVG Export Plug-In . SVG Version: 6.00 Build 0)  -->
<svg version="1.1" id="Capa_1" xmlns="http://www.w3.org/2000/svg" xmlns:xlink="http://www.w3.org/1999/xlink" x="0px" y="0px"
	 viewBox="0 0 488 488" style="enable-background:new 0 0 488 488;" xml:space="preserve">
<g>
	<path d="M486.304,280.913c0.105-0.135,0.211-0.269,0.307-0.41c0.058-0.085,0.109-0.175,0.164-0.262
		c0.08-0.127,0.162-0.253,0.234-0.384c0.066-0.12,0.123-0.246,0.184-0.37c0.05-0.104,0.105-0.206,0.15-0.312
		c0.064-0.147,0.117-0.299,0.172-0.451c0.032-0.089,0.069-0.176,0.098-0.266c0.048-0.15,0.087-0.304,0.126-0.457
		c0.026-0.1,0.055-0.199,0.077-0.299c0.029-0.134,0.049-0.27,0.071-0.407c0.021-0.128,0.044-0.255,0.059-0.384
		c0.013-0.113,0.019-0.227,0.027-0.341c0.011-0.157,0.022-0.314,0.024-0.471c0-0.033,0.005-0.065,0.005-0.098
		c0-0.071-0.009-0.139-0.011-0.209c-0.004-0.164-0.01-0.328-0.025-0.492c-0.009-0.109-0.024-0.216-0.037-0.323
		c-0.019-0.15-0.041-0.3-0.069-0.45c-0.022-0.12-0.049-0.238-0.077-0.356c-0.031-0.132-0.063-0.263-0.101-0.394
		c-0.038-0.132-0.082-0.262-0.126-0.392c-0.039-0.113-0.079-0.226-0.124-0.338c-0.057-0.143-0.12-0.283-0.185-0.421
		c-0.045-0.096-0.089-0.192-0.138-0.288c-0.077-0.149-0.16-0.293-0.246-0.436c-0.035-0.059-0.063-0.119-0.1-0.177
		c-0.017-0.027-0.038-0.051-0.055-0.078c-0.087-0.134-0.181-0.263-0.276-0.391c-0.067-0.09-0.132-0.182-0.201-0.269
		c-0.083-0.102-0.171-0.199-0.259-0.298c-0.09-0.102-0.179-0.205-0.274-0.301c-0.074-0.075-0.153-0.145-0.23-0.217
		c-0.114-0.107-0.226-0.215-0.345-0.314c-0.075-0.062-0.155-0.119-0.232-0.178c-0.125-0.097-0.25-0.195-0.38-0.284
		c-0.096-0.066-0.198-0.124-0.298-0.186c-0.116-0.072-0.23-0.147-0.349-0.212c-0.131-0.073-0.268-0.135-0.404-0.201
		c-0.093-0.044-0.183-0.093-0.277-0.134c-0.157-0.068-0.319-0.126-0.481-0.184c-0.079-0.028-0.156-0.061-0.236-0.086
		c-0.158-0.051-0.32-0.092-0.481-0.133c-0.092-0.023-0.182-0.05-0.275-0.071c-0.14-0.031-0.284-0.052-0.427-0.075
		c-0.121-0.02-0.242-0.041-0.364-0.055c-0.118-0.013-0.237-0.02-0.357-0.028c-0.152-0.011-0.303-0.021-0.456-0.023
		c-0.035,0-0.068-0.005-0.103-0.005h-40.739l-48.739-68.632c-0.015-0.021-0.031-0.038-0.046-0.059
		c-0.016-0.022-0.028-0.045-0.044-0.066C387.067,194.693,369.402,172,352,172h-72c-4.418,0-8,3.582-8,8v16h-96v-16
		c0-8.822-7.178-16-16-16h-24c-7.379,0-15.433,4.978-18.733,11.577L107.056,196H72c-0.078,0-0.154,0.009-0.231,0.012
		c-0.157,0.005-0.314,0.01-0.47,0.024c-0.126,0.011-0.25,0.029-0.375,0.045c-0.129,0.018-0.258,0.035-0.386,0.059
		c-0.139,0.026-0.276,0.057-0.413,0.09c-0.113,0.027-0.225,0.055-0.337,0.087c-0.139,0.04-0.276,0.085-0.412,0.133
		c-0.11,0.038-0.219,0.077-0.327,0.12c-0.128,0.051-0.252,0.106-0.377,0.162c-0.115,0.053-0.23,0.107-0.343,0.165
		c-0.11,0.057-0.217,0.117-0.324,0.179c-0.121,0.07-0.241,0.142-0.359,0.218c-0.095,0.062-0.187,0.126-0.279,0.192
		c-0.12,0.085-0.238,0.172-0.354,0.265c-0.088,0.071-0.173,0.144-0.258,0.218c-0.108,0.094-0.216,0.189-0.319,0.29
		c-0.091,0.088-0.178,0.181-0.265,0.274c-0.088,0.094-0.176,0.187-0.26,0.287c-0.1,0.117-0.193,0.239-0.285,0.362
		c-0.048,0.064-0.101,0.121-0.147,0.187L16.739,268H8c-4.418,0-8,3.582-8,8c0,0.119,0.013,0.234,0.018,0.352
		C0.013,276.47,0,276.585,0,276.704C0,302.783,21.217,324,47.295,324H392c14.716,0,36.09-5.996,48.659-13.649
		c0.039-0.023,0.078-0.048,0.116-0.072l43.502-27.518c0.028-0.018,0.053-0.039,0.081-0.057c0.13-0.085,0.255-0.176,0.38-0.268
		c0.094-0.069,0.19-0.137,0.281-0.21c0.097-0.078,0.189-0.163,0.282-0.245c0.107-0.095,0.215-0.188,0.316-0.287
		c0.069-0.068,0.132-0.141,0.198-0.211c0.113-0.12,0.227-0.24,0.332-0.366C486.203,281.051,486.252,280.981,486.304,280.913z
		 M288,188h64c3.675,0,8.893,3.482,13.911,8H288V188z M131.578,182.733c0.613-1.227,3.052-2.733,4.422-2.733h24v16h-35.056
		L131.578,182.733z M42.044,260H128c4.418,0,8-3.582,8-8s-3.582-8-8-8H53.406l5.681-8H128c4.418,0,8-3.582,8-8s-3.582-8-8-8H70.449
		l5.681-8h35.829c0.011,0,0.023,0.002,0.034,0.002c0.01,0,0.019-0.002,0.028-0.002h267.847l5.681,8H208c-4.418,0-8,3.582-8,8
		s3.582,8,8,8h188.912l5.681,8H208c-4.418,0-8,3.582-8,8s3.582,8,8,8h205.956l5.681,8H36.362L42.044,260z M432.282,296.718
		C422.198,302.837,403.771,308,392,308H47.295c-14.744,0-27.131-10.252-30.428-24h435.52L432.282,296.718z"/>
	<path d="M176,220h-16c-4.418,0-8,3.582-8,8s3.582,8,8,8h16c4.418,0,8-3.582,8-8S180.418,220,176,220z"/>
	<path d="M176,244h-16c-4.418,0-8,3.582-8,8s3.582,8,8,8h16c4.418,0,8-3.582,8-8S180.418,244,176,244z"/>
</g>
<g>
</g>
<g>
</g>
<g>
</g>
<g>
</g>
<g>
</g>
<g>
</g>
<g>
</g>
<g>
</g>
<g>
</g>
<g>
</g>
<g>
</g>
<g>
</g>
<g>
</g>
<g>
</g>
<g>
</g>
</svg>
