<?xml version="1.0" encoding="iso-8859-1"?>
<!-- Generator: Adobe Illustrator 19.0.0, SVG Export Plug-In . SVG Version: 6.00 Build 0)  -->
<svg version="1.1" id="Capa_1" xmlns="http://www.w3.org/2000/svg" xmlns:xlink="http://www.w3.org/1999/xlink" x="0px" y="0px"
	 viewBox="0 0 448 448" style="enable-background:new 0 0 448 448;" xml:space="preserve">
<g>
	<path d="M296,16H24C10.767,16,0,26.767,0,40v368c0,13.233,10.767,24,24,24h272c13.233,0,24-10.767,24-24V40
		C320,26.767,309.233,16,296,16z M304,408c0,4.411-3.589,8-8,8H168V88c0-4.418-3.582-8-8-8s-8,3.582-8,8v328H24
		c-4.411,0-8-3.589-8-8V40c0-4.411,3.589-8,8-8h128v24c0,4.418,3.582,8,8,8s8-3.582,8-8V32h128c4.411,0,8,3.589,8,8V408z"/>
	<path d="M434.343,298.343L408,324.686V144c0-4.418-3.582-8-8-8s-8,3.582-8,8v180.686l-26.343-26.343
		c-3.125-3.123-8.189-3.123-11.314,0c-3.124,3.125-3.124,8.189,0,11.314l40,40c0.054,0.054,0.114,0.101,0.169,0.153
		c0.135,0.127,0.27,0.255,0.414,0.374c0.106,0.088,0.219,0.165,0.328,0.246c0.1,0.074,0.197,0.152,0.301,0.221
		c0.122,0.082,0.248,0.152,0.373,0.227c0.099,0.059,0.196,0.122,0.298,0.176c0.124,0.067,0.252,0.123,0.379,0.183
		c0.11,0.052,0.219,0.107,0.332,0.154c0.121,0.05,0.245,0.091,0.368,0.135c0.124,0.044,0.245,0.092,0.372,0.13
		c0.122,0.037,0.245,0.063,0.368,0.095c0.13,0.033,0.259,0.069,0.391,0.095c0.141,0.028,0.283,0.045,0.425,0.065
		c0.116,0.017,0.231,0.039,0.349,0.05c0.262,0.026,0.526,0.04,0.79,0.04s0.527-0.014,0.79-0.04c0.118-0.012,0.233-0.034,0.349-0.05
		c0.142-0.02,0.284-0.037,0.425-0.065c0.133-0.026,0.261-0.063,0.391-0.095c0.123-0.031,0.247-0.058,0.368-0.095
		c0.126-0.039,0.248-0.086,0.372-0.13c0.123-0.044,0.247-0.084,0.368-0.135c0.113-0.047,0.222-0.102,0.332-0.154
		c0.127-0.06,0.254-0.116,0.379-0.183c0.102-0.055,0.199-0.117,0.298-0.176c0.125-0.074,0.251-0.145,0.373-0.227
		c0.104-0.069,0.201-0.147,0.301-0.221c0.11-0.081,0.222-0.158,0.328-0.246c0.144-0.118,0.279-0.246,0.414-0.374
		c0.056-0.052,0.115-0.099,0.169-0.153l40-40c3.124-3.125,3.124-8.189,0-11.314C442.532,295.22,437.468,295.22,434.343,298.343z"/>
	<path d="M360,152c2.048,0,4.095-0.781,5.657-2.343L400,115.315l34.343,34.343c1.563,1.562,3.609,2.343,5.657,2.343
		s4.095-0.781,5.657-2.343c3.124-3.125,3.124-8.189,0-11.314l-40-40c-3.125-3.123-8.189-3.123-11.314,0l-40,40
		c-3.124,3.125-3.124,8.189,0,11.314C355.905,151.219,357.952,152,360,152z"/>
</g>
<g>
</g>
<g>
</g>
<g>
</g>
<g>
</g>
<g>
</g>
<g>
</g>
<g>
</g>
<g>
</g>
<g>
</g>
<g>
</g>
<g>
</g>
<g>
</g>
<g>
</g>
<g>
</g>
<g>
</g>
</svg>
