<?xml version="1.0" encoding="iso-8859-1"?>
<!-- Generator: Adobe Illustrator 19.0.0, SVG Export Plug-In . SVG Version: 6.00 Build 0)  -->
<svg version="1.1" id="Capa_1" xmlns="http://www.w3.org/2000/svg" xmlns:xlink="http://www.w3.org/1999/xlink" x="0px" y="0px"
	 viewBox="0 0 432 432" style="enable-background:new 0 0 432 432;" xml:space="preserve">
<g>
	<path d="M384,92h-72.93C294.316,57.892,257.336,36,216,36c-20.935,0-41.153,5.655-58.47,16.354
		C141.399,62.32,128.801,75.987,120.926,92H48c-26.467,0-48,21.532-48,48v208c0,26.468,21.533,48,48,48h336
		c26.468,0,48-21.532,48-48V140C432,113.532,410.468,92,384,92z M216,52c17.933,0,35.22,4.814,49.991,13.923
		c11.123,6.859,20.22,15.762,26.758,26.077H139.271C154.747,67.727,184.277,52,216,52z M416,348c0,17.645-14.355,32-32,32H48
		c-17.645,0-32-14.355-32-32V140c0-17.645,14.355-32,32-32h336c17.645,0,32,14.355,32,32V348z"/>
	<path d="M392,172c-4.418,0-8,3.582-8,8l0.014,167.91c-0.015,0.034-0.069,0.089-0.014,0.09l-335.91,0.015
		c-0.033-0.016-0.091-0.074-0.09-0.015l-0.014-207.91c0.015-0.034,0.07-0.089,0.014-0.09h280c4.418,0,8-3.582,8-8s-3.582-8-8-8H48
		c-8.822,0-16,7.178-16,16v208c0,8.822,7.178,16,16,16h336c8.822,0,16-7.178,16-16V180C400,175.582,396.418,172,392,172z"/>
	<path d="M384.013,124c-0.004,0-0.009,0-0.013,0h-24c-4.418,0-8,3.582-8,8s3.582,8,8,8h23.936c0.031,0.021,0.064,0.041,0.064,0v8
		c0,4.418,3.582,8,8,8s8-3.582,8-8v-8C400,131.182,392.829,124.007,384.013,124z"/>
	<path d="M208,324h16c8.822,0,16-7.178,16-16v-40h40c8.822,0,16-7.178,16-16v-16c0-8.822-7.178-16-16-16h-40v-40
		c0-8.822-7.178-16-16-16h-16c-8.822,0-16,7.178-16,16v40h-40c-8.822,0-16,7.178-16,16v16c0,8.822,7.178,16,16,16h40v40
		C192,316.822,199.178,324,208,324z M152,252v-16h48c4.418,0,8-3.582,8-8v-48h16v48c0,4.418,3.582,8,8,8h48v16h-48
		c-4.418,0-8,3.582-8,8l0.002,48H208v-48c0-4.418-3.582-8-8-8H152z"/>
</g>
<g>
</g>
<g>
</g>
<g>
</g>
<g>
</g>
<g>
</g>
<g>
</g>
<g>
</g>
<g>
</g>
<g>
</g>
<g>
</g>
<g>
</g>
<g>
</g>
<g>
</g>
<g>
</g>
<g>
</g>
</svg>
