<?xml version="1.0" encoding="iso-8859-1"?>
<!-- Generator: Adobe Illustrator 19.0.0, SVG Export Plug-In . SVG Version: 6.00 Build 0)  -->
<svg version="1.1" id="Capa_1" xmlns="http://www.w3.org/2000/svg" xmlns:xlink="http://www.w3.org/1999/xlink" x="0px" y="0px"
	 viewBox="0 0 464 464" style="enable-background:new 0 0 464 464;" xml:space="preserve">
<g>
	<path d="M456,208h-13.707c-6.66-20.622-19.374-38.389-36.833-51.409C387.399,143.12,365.917,136,343.336,136
		c-22.582,0-44.063,7.12-62.124,20.591c-17.458,13.021-30.173,30.787-36.834,51.409h-25.084
		c-6.661-20.622-19.375-38.388-36.833-51.409C164.399,143.12,142.917,136,120.336,136s-44.063,7.12-62.124,20.591
		C40.753,169.612,28.039,187.377,21.378,208H8c-4.418,0-8,3.582-8,8s3.582,8,8,8h13.388c1.982,5.581,6.001,10.376,11.448,13.238
		c-0.318,0.862-0.5,1.79-0.5,2.762c0,48.523,39.477,88,88,88s88-39.477,88-88c0-0.973-0.182-1.9-0.5-2.762
		c5.447-2.861,9.466-7.656,11.448-13.238h25.104c2.016,5.678,6.14,10.543,11.73,13.385c-0.284,0.82-0.446,1.698-0.446,2.615
		c0,48.523,39.477,88,88,88s88-39.477,88-88c0-1.027-0.2-2.005-0.553-2.906c4.172-2.254,7.582-5.692,9.824-9.989
		c0.528-1.011,0.976-2.049,1.352-3.105H456c4.418,0,8-3.582,8-8S460.418,208,456,208z M259.371,213.603
		c5.572-17.739,16.433-33.018,31.407-44.187C306.054,158.022,324.229,152,343.336,152s37.282,6.022,52.559,17.416
		c14.974,11.168,25.834,26.447,31.406,44.187c0.64,2.039,0.448,4.205-0.54,6.099c-0.989,1.895-2.656,3.29-4.695,3.931
		c-0.786,0.247-1.594,0.372-2.401,0.372c-3.509,0-6.575-2.253-7.629-5.607C402.567,188.253,374.959,168,343.336,168
		s-59.231,20.253-68.7,50.398c-1.053,3.353-4.118,5.606-7.628,5.606c-0.808,0-1.616-0.125-2.401-0.372
		C260.398,222.311,258.05,217.811,259.371,213.603z M36.372,213.603c5.572-17.739,16.432-33.018,31.406-44.187
		C83.054,158.022,101.228,152,120.336,152s37.282,6.022,52.559,17.416c14.974,11.168,25.834,26.448,31.406,44.187
		c1.322,4.208-1.026,8.708-5.234,10.03c-0.787,0.247-1.595,0.372-2.402,0.372c-3.509,0-6.575-2.253-7.628-5.607
		c-9.469-30.144-37.077-50.397-68.7-50.397s-59.231,20.253-68.7,50.397c-1.053,3.354-4.119,5.606-7.628,5.607
		c-0.808,0-1.616-0.125-2.402-0.372C37.398,222.311,35.05,217.811,36.372,213.603z M120.336,312c-39.701,0-72-32.299-72-72
		c0-0.133-0.013-0.262-0.02-0.393c8.668-1.563,15.866-7.76,18.585-16.415C74.264,199.75,95.738,184,120.336,184
		s46.072,15.75,53.435,39.192c2.719,8.655,9.917,14.853,18.585,16.415c-0.006,0.131-0.02,0.26-0.02,0.393
		C192.336,279.701,160.037,312,120.336,312z M343.673,312c-39.701,0-72-32.299-72-72c0-0.155-0.015-0.307-0.023-0.46
		c8.518-1.661,15.569-7.805,18.252-16.347C297.265,199.75,318.738,184,343.336,184s46.071,15.75,53.436,39.193
		c2.754,8.766,10.101,15.021,18.918,16.482c-0.004,0.109-0.016,0.215-0.016,0.325C415.673,279.701,383.374,312,343.673,312z"/>
	<path d="M166.345,254.893c-3.924-2.028-8.751-0.49-10.779,3.436C148.659,271.696,135.032,280,120,280c-4.418,0-8,3.582-8,8
		s3.582,8,8,8c21.042,0,40.116-11.621,49.78-30.328C171.808,261.747,170.27,256.92,166.345,254.893z"/>
	<path d="M390.345,254.893c-3.925-2.028-8.752-0.49-10.779,3.436C372.659,271.696,359.031,280,344,280c-4.418,0-8,3.582-8,8
		s3.582,8,8,8c21.041,0,40.115-11.621,49.78-30.328C395.809,261.747,394.271,256.92,390.345,254.893z"/>
</g>
<g>
</g>
<g>
</g>
<g>
</g>
<g>
</g>
<g>
</g>
<g>
</g>
<g>
</g>
<g>
</g>
<g>
</g>
<g>
</g>
<g>
</g>
<g>
</g>
<g>
</g>
<g>
</g>
<g>
</g>
</svg>
