<?xml version="1.0" encoding="iso-8859-1"?>
<!-- Generator: Adobe Illustrator 19.0.0, SVG Export Plug-In . SVG Version: 6.00 Build 0)  -->
<svg version="1.1" id="Capa_1" xmlns="http://www.w3.org/2000/svg" xmlns:xlink="http://www.w3.org/1999/xlink" x="0px" y="0px"
	 viewBox="0 0 470.763 470.763" style="enable-background:new 0 0 470.763 470.763;" xml:space="preserve">
<path d="M453.802,281.903L268.861,149.802c-7.216-5.155-16.06-8.488-25.479-9.702v-25.385c22.673-3.819,40-23.591,40-47.333
	c0-26.468-21.532-48-48-48s-48,21.532-48,48c0,4.418,3.582,8,8,8s8-3.582,8-8c0-17.645,14.355-32,32-32s32,14.355,32,32
	s-14.355,32-32,32c-4.418,0-8,3.582-8,8v32.718c-9.42,1.214-18.264,4.548-25.479,9.702L16.962,281.903
	c-20.134,14.381-17.65,30.46-15.648,36.706c2.002,6.245,9.33,20.772,34.068,20.772h64v80c0,17.645,14.355,32,32,32h208
	c17.645,0,32-14.355,32-32v-80h64c24.738,0,32.066-14.527,34.068-20.772C471.452,312.363,473.935,296.284,453.802,281.903z
	 M454.214,313.724c-2.025,6.318-8.537,9.657-18.832,9.657h-71c-0.169,0-0.334,0.015-0.5,0.025c-0.166-0.01-0.331-0.025-0.5-0.025
	c-4.418,0-8,3.582-8,8v88c0,8.822-7.178,16-16,16h-208c-8.822,0-16-7.178-16-16v-120h240v8c0,4.418,3.582,8,8,8s8-3.582,8-8h38.073
	c3.478,0,6.557-2.247,7.618-5.559s-0.139-6.93-2.968-8.951L250.26,175.84c-3.794-2.709-9.217-4.263-14.878-4.263
	s-11.084,1.554-14.879,4.264L56.658,292.872c-2.829,2.021-4.029,5.64-2.968,8.951s4.141,5.559,7.618,5.559h22.073
	c4.418,0,8-3.582,8-8c0-3.588-2.362-6.624-5.615-7.639l144.035-102.882c0.723-0.517,2.805-1.284,5.58-1.284s4.857,0.768,5.58,1.283
	l143.529,102.521h-13.109c0-4.418-3.582-8-8-8h-256c-4.418,0-8,3.582-8,8v32h-64c-10.295,0-16.807-3.339-18.832-9.657
	c-2.024-6.315,1.333-12.817,9.711-18.802l184.942-132.102c6.539-4.672,15.127-7.244,24.179-7.244s17.64,2.572,24.179,7.244
	l184.942,132.102C452.881,300.907,456.238,307.409,454.214,313.724z"/>
<g>
</g>
<g>
</g>
<g>
</g>
<g>
</g>
<g>
</g>
<g>
</g>
<g>
</g>
<g>
</g>
<g>
</g>
<g>
</g>
<g>
</g>
<g>
</g>
<g>
</g>
<g>
</g>
<g>
</g>
</svg>
