<?xml version="1.0" encoding="iso-8859-1"?>
<!-- Generator: Adobe Illustrator 19.0.0, SVG Export Plug-In . SVG Version: 6.00 Build 0)  -->
<svg version="1.1" id="Capa_1" xmlns="http://www.w3.org/2000/svg" xmlns:xlink="http://www.w3.org/1999/xlink" x="0px" y="0px"
	 viewBox="0 0 457 457" style="enable-background:new 0 0 457 457;" xml:space="preserve">
<path d="M337,0c-49.275,0-91.501,30.752-108.5,74.071C211.501,30.752,169.275,0,120,0C55.762,0,3.5,52.262,3.5,116.5
	c0,15.028,2.823,29.66,8.39,43.488c0.013,0.032,0.032,0.061,0.046,0.093c0.141,0.338,0.3,0.668,0.488,0.986
	c0.023,0.039,0.049,0.075,0.073,0.114c0.168,0.275,0.355,0.539,0.558,0.794c0.046,0.058,0.09,0.118,0.138,0.175
	c0.222,0.263,0.46,0.515,0.719,0.751c0.054,0.05,0.112,0.094,0.168,0.142c0.212,0.183,0.435,0.355,0.67,0.519
	c0.078,0.054,0.154,0.109,0.234,0.16c0.049,0.031,0.093,0.067,0.143,0.098c0.139,0.085,0.284,0.146,0.426,0.222
	c0.152,0.081,0.301,0.167,0.458,0.239c0.219,0.1,0.442,0.178,0.666,0.256c0.131,0.046,0.258,0.1,0.391,0.139
	c0.262,0.077,0.526,0.129,0.792,0.178c0.107,0.02,0.211,0.05,0.319,0.066c0.365,0.052,0.73,0.08,1.095,0.081
	c0.014,0,0.027,0.003,0.041,0.003c0.304,0,0.609-0.024,0.914-0.059c0.072-0.008,0.143-0.02,0.215-0.031
	c0.234-0.033,0.467-0.078,0.701-0.133c0.082-0.019,0.164-0.038,0.246-0.06c0.245-0.066,0.488-0.145,0.73-0.236
	c0.051-0.019,0.103-0.033,0.154-0.054c0.009-0.003,0.018-0.006,0.026-0.009c0.278-0.112,0.544-0.24,0.802-0.379
	c0.078-0.042,0.152-0.091,0.229-0.135c0.195-0.113,0.385-0.231,0.567-0.359c0.084-0.059,0.166-0.12,0.248-0.183
	c0.181-0.137,0.355-0.282,0.522-0.433c0.064-0.058,0.13-0.113,0.193-0.174c0.227-0.219,0.442-0.448,0.64-0.689
	c0.021-0.025,0.039-0.053,0.059-0.079c0.18-0.226,0.346-0.462,0.5-0.706c0.022-0.035,0.049-0.064,0.071-0.1l17.189-28
	c2.312-3.765,1.133-8.692-2.632-11.003c-3.766-2.312-8.692-1.133-11.003,2.633l-7.936,12.928C20.254,130.81,19.5,123.709,19.5,116.5
	C19.5,61.084,64.584,16,120,16c30.229,0,57.383,13.417,75.822,34.607c-8.43-3.736-17.745-5.829-27.544-5.829
	c-37.617,0-68.221,30.604-68.221,68.222c0,4.418,3.582,8,8,8c0.08,0,0.158-0.01,0.237-0.012c0.071,0.002,0.142,0.013,0.213,0.013
	c1.556,0,3.129-0.453,4.51-1.398l19-13c3.646-2.495,4.58-7.474,2.085-11.12s-7.474-4.58-11.12-2.085l-4.149,2.839
	c7.002-20.594,26.514-35.458,49.445-35.458c25.81,0,47.294,18.827,51.473,43.465c0.491,4.018,0.749,8.107,0.749,12.256v114.254
	l-9.94,2.485c-4.286,1.072-6.892,5.415-5.821,9.701c0.909,3.635,4.17,6.062,7.755,6.062c0.642,0,1.295-0.078,1.946-0.241l6.06-1.515
	v7.507l-9.94,2.485c-4.286,1.072-6.892,5.415-5.821,9.701c0.909,3.635,4.17,6.062,7.755,6.062c0.642,0,1.295-0.078,1.946-0.241
	l6.06-1.515v7.507l-9.94,2.485c-4.286,1.072-6.892,5.415-5.821,9.701c0.909,3.635,4.17,6.062,7.755,6.062
	c0.642,0,1.295-0.078,1.946-0.241l6.06-1.515v7.507l-9.94,2.485c-4.286,1.072-6.892,5.415-5.821,9.701
	c0.909,3.635,4.17,6.062,7.755,6.062c0.642,0,1.295-0.078,1.946-0.241l6.06-1.515v7.507l-9.94,2.485
	c-4.286,1.072-6.892,5.415-5.821,9.701c0.909,3.635,4.17,6.062,7.755,6.062c0.642,0,1.295-0.078,1.946-0.241l6.06-1.515v10.766
	c-13.786,3.561-24,16.104-24,30.987s10.214,27.426,24,30.987V449c0,4.418,3.582,8,8,8s8-3.582,8-8v-33.013
	c13.786-3.561,24-16.104,24-30.987s-10.214-27.426-24-30.987v-14.766l9.94-2.485c4.286-1.072,6.892-5.415,5.821-9.701
	c-1.071-4.287-5.415-6.893-9.702-5.821l-6.06,1.515v-7.507l9.94-2.485c4.286-1.072,6.892-5.415,5.821-9.701
	s-5.415-6.892-9.702-5.821l-6.06,1.515v-7.507l9.94-2.485c4.286-1.072,6.892-5.415,5.821-9.701
	c-1.071-4.287-5.415-6.891-9.702-5.821l-6.06,1.515v-7.507l9.94-2.485c4.286-1.072,6.892-5.415,5.821-9.701
	s-5.415-6.892-9.702-5.821l-6.06,1.515v-7.507l9.94-2.485c4.286-1.072,6.892-5.415,5.821-9.701
	c-1.071-4.287-5.415-6.892-9.702-5.821l-6.06,1.515V116.5c0-4.149,0.258-8.238,0.749-12.256
	c4.179-24.639,25.663-43.465,51.473-43.465c22.931,0,42.444,14.864,49.445,35.458l-4.149-2.839
	c-3.646-2.494-8.625-1.561-11.12,2.085c-2.495,3.646-1.562,8.625,2.085,11.12l19,13c1.381,0.945,2.954,1.398,4.51,1.398
	c0.071,0,0.142-0.011,0.213-0.013c0.079,0.002,0.157,0.012,0.237,0.012c4.418,0,8-3.582,8-8c0-37.617-30.604-68.222-68.221-68.222
	c-9.799,0-19.113,2.093-27.544,5.829C279.617,29.417,306.771,16,337,16c55.416,0,100.5,45.084,100.5,100.5
	c0,7.289-0.769,14.468-2.293,21.473l-8.078-13.158c-2.311-3.765-7.236-4.944-11.003-2.633c-3.765,2.312-4.944,7.238-2.632,11.003
	l17.189,28c1.4,2.28,3.759,3.596,6.238,3.779c0.037,0.003,0.073,0.004,0.11,0.007c0.159,0.01,0.318,0.03,0.478,0.03
	c0.022,0,0.043-0.004,0.065-0.004c0.038,0,0.076,0.005,0.114,0.005c3.168,0,6.168-1.895,7.423-5.014
	c5.567-13.828,8.39-28.459,8.39-43.488C453.5,52.262,401.238,0,337,0z M244.5,385c0,8.823-7.178,16-16,16s-16-7.177-16-16
	c0-5.907,3.226-11.063,8-13.835V385c0,4.418,3.582,8,8,8s8-3.582,8-8v-13.835C241.274,373.937,244.5,379.093,244.5,385z"/>
<g>
</g>
<g>
</g>
<g>
</g>
<g>
</g>
<g>
</g>
<g>
</g>
<g>
</g>
<g>
</g>
<g>
</g>
<g>
</g>
<g>
</g>
<g>
</g>
<g>
</g>
<g>
</g>
<g>
</g>
</svg>
