<?xml version="1.0" encoding="iso-8859-1"?>
<!-- Generator: Adobe Illustrator 19.0.0, SVG Export Plug-In . SVG Version: 6.00 Build 0)  -->
<svg version="1.1" id="Capa_1" xmlns="http://www.w3.org/2000/svg" xmlns:xlink="http://www.w3.org/1999/xlink" x="0px" y="0px"
	 viewBox="0 0 459.942 459.942" style="enable-background:new 0 0 459.942 459.942;" xml:space="preserve">
<g>
	<path d="M388.342,377.627c1.563,1.562,3.609,2.343,5.657,2.343s4.095-0.781,5.657-2.343c3.124-3.125,3.124-8.189,0-11.314
		l-12.999-12.999c-3.125-3.123-8.189-3.123-11.314,0c-3.124,3.125-3.124,8.189,0,11.314L388.342,377.627z"/>
	<path d="M218.343,196.314c-3.124,3.125-3.124,8.189,0,11.314L349.345,338.63c1.563,1.562,3.609,2.343,5.657,2.343
		s4.095-0.781,5.657-2.343c3.124-3.125,3.124-8.189,0-11.314L229.657,196.314C226.532,193.191,221.468,193.191,218.343,196.314z"/>
	<path d="M457.599,380.372L249.011,171.786c4.641-13.418,6.989-27.459,6.989-41.815c0-70.579-57.421-128-128-128S0,59.392,0,129.971
		c0,41.568,19.883,80.007,53.477,104.064C50.149,241.176,48,249.334,48,255.971v178c0,13.233,10.767,24,24,24h80
		c13.233,0,24-10.767,24-24v-176.8l62.432,62.455c1.501,1.501,3.536,2.345,5.658,2.345H288v40c0,4.418,3.582,8,8,8h40v36.662
		c0,3.324,2.056,6.302,5.164,7.48c9.412,3.568,17.645,3.87,23.524,3.87c0.626,0,1.226-0.004,1.796-0.007l1.516-0.006
		c10.451,0,68.778-18.623,86.406-24.33c2.649-0.858,4.662-3.032,5.313-5.74C460.371,385.194,459.567,382.342,457.599,380.372z
		 M160,433.971c0,4.411-3.589,8-8,8H72c-4.411,0-8-3.589-8-8v-178c0-6.782,4.104-17.575,8.609-22.645l34.74-39.082
		c1.289-1.449,2.94-2.248,4.65-2.248s3.361,0.799,4.65,2.249l22.242,25.022c0.084,0.099,0.171,0.196,0.259,0.292l12.238,13.768
		c4.506,5.068,8.609,15.861,8.609,22.644V433.971z M119.88,136.635c-0.637-3.781-3.918-6.665-7.88-6.665s-7.243,2.884-7.88,6.665
		C94.747,133.367,88,124.445,88,113.971c0-13.233,10.767-24,24-24s24,10.767,24,24C136,124.445,129.253,133.367,119.88,136.635z
		 M368,401.971l-1.606,0.006c-4.081,0.026-8.918,0.05-14.394-1.242v-38.764c0-4.418-3.582-8-8-8h-40v-40c0-4.418-3.582-8-8-8
		h-48.596l-69.895-69.923c-1.926-1.926-4.588-2.66-7.08-2.212c-2.009-4.27-4.437-8.166-7.081-11.14l-3.938-4.43
		c15.917-5.797,30.191-15.827,41.051-29.057C214.352,172.29,222,150.898,222,128.971c0-52.383-42.617-95-95-95s-95,42.617-95,95
		c0,23.956,8.944,46.837,25.186,64.429c2.997,3.246,8.059,3.448,11.305,0.451s3.448-8.059,0.451-11.305
		C55.438,167.919,48,148.892,48,128.971c0-43.561,35.439-79,79-79s79,35.439,79,79c0,35.625-24.224,66.964-58.211,76.22
		l-19.179-21.576c-2.411-2.713-5.372-4.776-8.609-6.068v-24.382c18.235-3.716,32-19.878,32-39.195c0-22.056-17.944-40-40-40
		s-40,17.944-40,40c0,19.316,13.765,35.479,32,39.195v24.382c-3.237,1.292-6.198,3.355-8.609,6.068L62.389,220.74
		C33.237,199.668,16,166.174,16,129.971c0-61.757,50.243-112,112-112s112,50.243,112,112c0,14.126-2.595,27.896-7.713,40.927
		c-1.163,2.962-0.461,6.332,1.789,8.582l202.935,202.933C405.248,392.484,373.278,401.824,368,401.971z"/>
</g>
<g>
</g>
<g>
</g>
<g>
</g>
<g>
</g>
<g>
</g>
<g>
</g>
<g>
</g>
<g>
</g>
<g>
</g>
<g>
</g>
<g>
</g>
<g>
</g>
<g>
</g>
<g>
</g>
<g>
</g>
</svg>
