<?xml version="1.0" encoding="iso-8859-1"?>
<!-- Generator: Adobe Illustrator 19.0.0, SVG Export Plug-In . SVG Version: 6.00 Build 0)  -->
<svg version="1.1" id="Capa_1" xmlns="http://www.w3.org/2000/svg" xmlns:xlink="http://www.w3.org/1999/xlink" x="0px" y="0px"
	 viewBox="0 0 464.348 464.348" style="enable-background:new 0 0 464.348 464.348;" xml:space="preserve">
<path d="M459.622,8.151c-0.367-0.704-0.846-1.365-1.437-1.956c-0.583-0.583-1.233-1.056-1.926-1.422
	c-3.851-3.078-8.703-4.741-13.977-4.741c-0.846,0-1.708,0.044-2.564,0.131L267.031,17.672c-13.458,1.364-25.07,12.975-26.435,26.434
	l-17.508,172.687c-0.432,4.262,0.21,8.343,1.822,11.947c-13.42,15.946-30.498,43.549-45.694,81.331l-4.14-1.725
	c-4.08-1.7-8.763,0.229-10.462,4.308c-1.699,4.079,0.229,8.762,4.308,10.462l4.583,1.909c-1.389,3.833-2.757,7.747-4.095,11.759
	c-9.233,27.698-24.052,40.448-42.824,48.601l-2.308-5.061c-1.833-4.02-6.578-5.792-10.598-3.96c-4.02,1.833-5.793,6.578-3.96,10.598
	l1.789,3.924c-5.625,1.763-11.506,3.384-17.622,5.065c-19.692,5.413-41.081,11.305-61.134,24.99l-3.265-4
	c-2.794-3.423-7.833-3.933-11.256-1.14c-3.423,2.794-3.934,7.833-1.14,11.256l3.062,3.752c-6.471,5.801-12.722,12.645-18.636,20.817
	c-2.59,3.579-1.789,8.581,1.791,11.171c1.417,1.026,3.058,1.52,4.683,1.52c2.479,0,4.923-1.148,6.488-3.311
	c5.021-6.938,10.317-12.779,15.815-17.77l2.551,3.126c1.582,1.938,3.883,2.942,6.203,2.942c1.778,0,3.568-0.59,5.053-1.802
	c3.423-2.794,3.934-7.833,1.14-11.256l-2.32-2.843c17.568-11.666,36.587-16.905,55.205-22.023c6.69-1.839,13.424-3.691,20.055-5.855
	l1.874,4.11c1.343,2.944,4.247,4.683,7.284,4.683c1.11,0,2.238-0.232,3.314-0.723c4.02-1.833,5.793-6.578,3.96-10.598l-1.429-3.135
	c21.415-9.456,40.403-25.017,51.402-58.016c1.138-3.415,2.385-6.981,3.723-10.65l3.611,1.505c1.006,0.419,2.048,0.617,3.074,0.617
	c3.133,0,6.108-1.853,7.388-4.925c1.699-4.079-0.229-8.762-4.308-10.462l-4.013-1.672c10.974-27.08,26.048-56.907,42.407-76.439
	c2.639,1.048,5.523,1.603,8.549,1.603h0.001c0.845,0,1.708-0.044,2.564-0.131l172.687-17.508
	c13.459-1.365,25.07-12.976,26.434-26.434l17.508-172.688C464.844,18.475,463.215,12.667,459.622,8.151z M250.811,224.882
	l92.841-92.841l75.715,75.715c-0.236,0.04-0.471,0.086-0.707,0.11L250.811,224.882z M430.79,195.735
	c-0.024,0.236-0.069,0.471-0.109,0.707l-75.715-75.715l51.691-51.691c3.125-3.124,3.125-8.189,0-11.313
	c-3.124-3.124-8.189-3.124-11.313,0l-51.691,51.691l-39.995-39.995c-3.124-3.124-8.189-3.124-11.313,0
	c-3.125,3.124-3.125,8.189,0,11.313l39.995,39.995l-92.841,92.841L256.515,45.72c0.024-0.237,0.069-0.472,0.11-0.708l13.719,13.719
	c1.562,1.562,3.609,2.343,5.657,2.343s4.095-0.781,5.657-2.343c3.125-3.124,3.125-8.189,0-11.313l-13.719-13.719
	c0.235-0.04,0.471-0.086,0.707-0.109l167.849-17.018l-19.087,19.086c-3.125,3.124-3.125,8.189,0,11.313
	c1.562,1.563,3.609,2.343,5.657,2.343c2.047,0,4.095-0.781,5.657-2.343l19.087-19.086L430.79,195.735z"/>
<g>
</g>
<g>
</g>
<g>
</g>
<g>
</g>
<g>
</g>
<g>
</g>
<g>
</g>
<g>
</g>
<g>
</g>
<g>
</g>
<g>
</g>
<g>
</g>
<g>
</g>
<g>
</g>
<g>
</g>
</svg>
