<?xml version="1.0" encoding="iso-8859-1"?>
<!-- Generator: Adobe Illustrator 19.0.0, SVG Export Plug-In . SVG Version: 6.00 Build 0)  -->
<svg version="1.1" id="Capa_1" xmlns="http://www.w3.org/2000/svg" xmlns:xlink="http://www.w3.org/1999/xlink" x="0px" y="0px"
	 viewBox="0 0 463 463" style="enable-background:new 0 0 463 463;" xml:space="preserve">
<path d="M463,231.5c0-4.079-3.055-7.438-7-7.931v-53.783c0-43.178-16.928-83.884-47.665-114.621
	C377.599,24.428,336.892,7.5,293.714,7.5h-54.239C239.215,3.316,235.749,0,231.5,0s-7.715,3.316-7.975,7.5h-53.239
	c-43.178,0-83.885,16.928-114.621,47.665C24.928,85.901,8,126.608,8,169.786V223.5c-4.418,0-8,3.582-8,8s3.582,8,8,8v53.714
	c0,43.178,16.928,83.884,47.665,114.621c30.736,30.737,71.443,47.665,114.621,47.665h53.239c0.259,4.184,3.725,7.5,7.975,7.5
	s7.715-3.316,7.975-7.5h54.239c43.178,0,83.885-16.928,114.621-47.665C439.072,377.099,456,336.392,456,293.214v-53.783
	C459.945,238.938,463,235.579,463,231.5z M397.021,66.479C424.736,94.193,440,130.882,440,169.786V223.5h-0.169
	C435.706,114.992,348.072,27.519,239.5,23.65V23.5h54.214C332.618,23.5,369.307,38.763,397.021,66.479z M313.994,405.086
	l-11.633-27.325c-1.729-4.065-6.427-5.958-10.494-4.227c-4.065,1.731-5.958,6.429-4.227,10.495l11.623,27.301
	c-20.944,7.859-43.608,12.17-67.263,12.17c-23.98,0-46.94-4.432-68.123-12.498l34.517-81.076
	c10.547,3.611,21.851,5.574,33.606,5.574c11.431,0,22.434-1.859,32.73-5.281l8.692,20.415c1.295,3.043,4.253,4.868,7.364,4.868
	c1.045,0,2.107-0.206,3.13-0.641c4.065-1.731,5.958-6.43,4.227-10.495l-8.665-20.351c19.098-9.841,34.771-25.426,44.729-44.454
	l81.101,34.528C386.258,353.903,353.883,386.168,313.994,405.086z M92.36,290.634c-1.729-4.065-6.427-5.958-10.494-4.227
	L52.264,299.01C44.346,277.997,40,255.248,40,231.5s4.346-46.497,12.264-67.509l81.099,34.527
	C129.887,208.886,128,219.977,128,231.5s1.887,22.614,5.363,32.982l-21.497,9.152c-4.065,1.731-5.958,6.429-4.227,10.495
	c1.295,3.043,4.253,4.868,7.364,4.868c1.045,0,2.107-0.206,3.13-0.641l21.476-9.143c9.807,18.913,25.253,34.448,44.096,44.37
	l-34.533,81.113c-39.626-19.027-71.751-51.262-90.646-90.962l29.608-12.605C92.199,299.397,94.092,294.699,92.36,290.634z
	 M149.173,58.304l13.467,31.633c1.295,3.043,4.253,4.868,7.364,4.868c1.045,0,2.107-0.206,3.13-0.641
	c4.065-1.731,5.958-6.429,4.227-10.495l-13.483-31.671C185.06,43.932,208.02,39.5,232,39.5c23.655,0,46.319,4.311,67.263,12.17
	l-34.532,81.111c-10.296-3.423-21.3-5.281-32.73-5.281c-11.755,0-23.059,1.963-33.606,5.574l-8.034-18.871
	c-1.729-4.065-6.427-5.957-10.494-4.227c-4.065,1.731-5.958,6.429-4.227,10.495l8.066,18.946
	c-18.844,9.923-34.289,25.457-44.096,44.37l-81.083-34.521C77.422,109.566,109.547,77.331,149.173,58.304z M320,231.5
	c0,48.523-39.477,88-88,88s-88-39.477-88-88s39.477-88,88-88S320,182.977,320,231.5z M411.596,299.376l-81.082-34.52
	C334.07,254.381,336,243.162,336,231.5s-1.93-22.881-5.486-33.356l15.62-6.65c4.065-1.731,5.958-6.43,4.227-10.495
	c-1.729-4.065-6.428-5.958-10.494-4.227l-15.66,6.667c-9.958-19.028-25.63-34.613-44.729-44.454l34.515-81.072
	c39.889,18.918,72.264,51.183,91.314,90.998l-33.442,14.238c-4.065,1.731-5.958,6.429-4.227,10.495
	c1.295,3.043,4.253,4.868,7.364,4.868c1.045,0,2.107-0.206,3.13-0.641l33.462-14.246C419.603,184.739,424,207.614,424,231.5
	S419.603,278.261,411.596,299.376z M24,169.786c0-38.904,15.264-75.592,42.979-103.307C94.693,38.763,131.382,23.5,170.286,23.5
	H223.5v0.188C115.39,28.057,28.282,115.325,24.169,223.5H24V169.786z M66.979,396.521C39.264,368.807,24,332.118,24,293.214V239.5
	h0.169C28.282,347.675,115.39,434.943,223.5,439.312v0.188h-53.214C131.382,439.5,94.693,424.237,66.979,396.521z M397.021,396.521
	c-27.715,27.715-64.403,42.979-103.308,42.979H239.5v-0.15c25.036-0.892,48.956-6.228,70.999-15.245
	c0.884-0.055,1.773-0.25,2.635-0.617c0.854-0.364,1.606-0.865,2.256-1.458c70.982-31.188,121.338-100.907,124.442-182.531H440
	v53.714C440,332.118,424.736,368.807,397.021,396.521z"/>
<g>
</g>
<g>
</g>
<g>
</g>
<g>
</g>
<g>
</g>
<g>
</g>
<g>
</g>
<g>
</g>
<g>
</g>
<g>
</g>
<g>
</g>
<g>
</g>
<g>
</g>
<g>
</g>
<g>
</g>
</svg>
