<?xml version="1.0" encoding="iso-8859-1"?>
<!-- Generator: Adobe Illustrator 19.0.0, SVG Export Plug-In . SVG Version: 6.00 Build 0)  -->
<svg version="1.1" id="Capa_1" xmlns="http://www.w3.org/2000/svg" xmlns:xlink="http://www.w3.org/1999/xlink" x="0px" y="0px"
	 viewBox="0 0 462.934 462.934" style="enable-background:new 0 0 462.934 462.934;" xml:space="preserve">
<g>
	<path d="M437.038,137.318c-2.257-3.25-6.551-4.361-10.102-2.615c-18.584,9.14-53.527,21.023-68.187,13.994
		c-3.536-1.696-5.533-4.335-6.474-8.557c-0.614-2.756-2.636-4.983-5.319-5.861c-2.682-0.88-5.631-0.277-7.756,1.581
		c-14.968,13.094-41.36,30.497-53.178,28.212c-2.035-0.395-3.304-1.367-4.341-3.341c-0.543-3.989,8.416-17.698,14.359-26.794
		c15.237-23.316,36.105-55.249,29.243-86.734c-0.578-2.654-2.464-4.834-5.008-5.788c-2.544-0.952-5.398-0.55-7.579,1.068
		c-0.181,0.134-18.287,13.347-37.511,7.532c-15.002-4.541-27.178-19.586-36.188-44.72c0-0.001-0.001-0.002-0.001-0.002
		c-0.089-0.248-0.19-0.49-0.303-0.727c-0.063-0.132-0.135-0.257-0.204-0.384c-0.054-0.1-0.104-0.203-0.163-0.301
		c-0.085-0.142-0.179-0.275-0.271-0.41c-0.054-0.079-0.104-0.16-0.161-0.238c-0.094-0.128-0.197-0.247-0.298-0.368
		c-0.066-0.079-0.129-0.161-0.198-0.238c-0.097-0.107-0.201-0.206-0.303-0.308c-0.084-0.083-0.164-0.168-0.252-0.248
		c-0.099-0.089-0.203-0.171-0.305-0.255c-0.099-0.082-0.195-0.165-0.299-0.242c-0.11-0.082-0.226-0.155-0.34-0.23
		c-0.102-0.068-0.2-0.139-0.305-0.202c-0.167-0.1-0.339-0.189-0.512-0.277c-0.058-0.029-0.112-0.063-0.171-0.091
		c-0.486-0.232-0.995-0.414-1.52-0.545c-0.032-0.008-0.065-0.012-0.097-0.02c-0.222-0.052-0.446-0.098-0.672-0.131
		c-0.077-0.011-0.154-0.015-0.232-0.024c-0.181-0.021-0.362-0.042-0.545-0.051c-0.1-0.005-0.198-0.001-0.298-0.002
		c-0.16-0.002-0.32-0.005-0.481,0.003c-0.119,0.006-0.236,0.022-0.354,0.033c-0.14,0.013-0.28,0.023-0.421,0.044
		c-0.153,0.023-0.303,0.057-0.454,0.089c-0.104,0.022-0.208,0.038-0.311,0.064c-0.514,0.129-1.014,0.308-1.491,0.535
		c-0.121,0.057-0.234,0.124-0.351,0.187c-0.111,0.06-0.225,0.115-0.333,0.18c-0.137,0.082-0.266,0.173-0.396,0.262
		c-0.083,0.057-0.169,0.11-0.251,0.17c-0.123,0.091-0.238,0.19-0.355,0.287c-0.084,0.07-0.171,0.137-0.252,0.21
		c-0.1,0.091-0.193,0.188-0.288,0.284c-0.09,0.09-0.182,0.178-0.269,0.273c-0.079,0.087-0.15,0.18-0.225,0.27
		c-0.092,0.111-0.186,0.22-0.273,0.337c-0.064,0.087-0.121,0.179-0.182,0.268c-0.085,0.125-0.173,0.249-0.252,0.38
		c-0.065,0.109-0.121,0.222-0.181,0.334c-0.063,0.117-0.13,0.231-0.187,0.352c-0.113,0.238-0.214,0.48-0.303,0.728
		c0,0-0.001,0.001-0.001,0.002c-8.987,25.067-21.123,40.101-36.072,44.684c-19.074,5.846-37.467-7.377-37.627-7.496
		c-2.181-1.618-5.035-2.021-7.579-1.068c-2.543,0.954-4.43,3.134-5.008,5.788c-6.862,31.485,14.006,63.418,29.243,86.734
		c5.944,9.097,14.903,22.806,14.359,26.794c-1.038,1.973-2.305,2.945-4.338,3.34c-11.788,2.295-38.194-15.12-53.181-28.211
		c-2.124-1.857-5.072-2.461-7.756-1.581c-2.684,0.878-4.705,3.105-5.319,5.861c-0.941,4.22-2.936,6.858-6.469,8.554
		c-14.62,7.018-49.588-4.858-68.192-13.991c-3.552-1.747-7.845-0.635-10.102,2.615c-2.257,3.25-1.799,7.662,1.078,10.379
		c21.473,20.282,56.821,58.124,52.307,83.694c-1.885,10.68-10.52,14.519-10.798,14.64c-2.966,1.109-4.907,3.828-5.093,6.988
		c-0.186,3.161,1.602,6.099,4.417,7.548c51.267,26.382,53.817,41.228,53.377,45.149c-0.811,7.231-13.618,12.802-19.675,14.361
		c-3.37,0.851-5.805,3.78-6.026,7.249s1.824,6.683,5.059,7.954c19.363,7.606,41.696,11.665,63.248,11.665
		c5.525,0,10.999-0.267,16.358-0.809c17.185-1.738,31.474-6.124,42.067-12.754c-1.673,16.403-4.781,29.575-7.82,42.445
		c-5.415,22.935-10.529,44.598-6.884,79.926c0.424,4.116,3.898,7.18,7.948,7.18c0.274,0,0.552-0.015,0.831-0.043
		c4.395-0.454,7.59-4.384,7.136-8.779c-3.367-32.64,1.225-52.088,6.541-74.606c3.218-13.632,6.746-28.58,8.456-47.646
		c10.786,7.481,25.9,12.41,44.365,14.277c5.36,0.542,10.831,0.809,16.358,0.809c21.55,0,43.886-4.06,63.248-11.665
		c3.229-1.269,5.262-4.476,5.05-7.938s-2.64-6.396-5.999-7.261c-6.076-1.564-18.883-7.135-19.693-14.366
		c-0.445-3.971,2.564-9.443,8.473-15.409c8.889-8.975,23.997-18.98,44.904-29.74c2.815-1.449,4.647-4.368,4.461-7.529
		s-2.083-5.861-5.049-6.97c-0.366-0.158-9-3.997-10.886-14.677c-4.515-25.57,30.834-63.412,52.307-83.694
		C438.837,144.98,439.295,140.568,437.038,137.318z M367.985,234.654c1.478,7.795,5.009,13.532,8.733,17.618
		c-36.145,20.153-52.808,38.292-50.862,55.281c0.95,8.302,6.02,14.404,11.85,18.76c-38.429,9.357-80.52,4.239-95.758-12.423
		c6.729-11.033,22.879-35.695,45.155-57.809c3.136-3.113,3.154-8.179,0.041-11.313c-3.113-3.137-8.178-3.154-11.313-0.042
		c-15.223,15.113-27.578,31.08-36.363,43.684v-96.476c0-4.418-3.582-8-8-8s-8,3.582-8,8v94.999
		c-15.82-22.492-42.459-54.731-76.026-73.942c-3.835-2.193-8.723-0.865-10.917,2.97s-0.865,8.723,2.97,10.917
		c40.753,23.324,71.606,69.314,82.083,86.353c-14.719,17.185-57.414,22.56-96.348,13.083c5.83-4.355,10.899-10.458,11.85-18.76
		c1.945-16.989-14.717-35.128-50.862-55.281c3.725-4.086,7.256-9.823,8.733-17.618c3.7-19.525-6.986-43.845-31.812-72.527
		c16.332,4.594,35.021,7.207,47.966,0.997c4.242-2.034,7.716-4.91,10.336-8.517c3.969,3.071,9.101,6.843,14.795,10.534
		c18.468,11.973,32.768,16.761,43.723,14.638c6.951-1.347,12.36-5.485,15.646-11.966c5.479-10.809-3.244-24.156-15.315-42.629
		c-12.312-18.839-27.187-41.601-27.964-63.347c9.676,4.269,24.353,8.246,40.06,3.491c15.854-4.798,28.951-17.236,39.084-37.052
		c10.133,19.816,23.231,32.254,39.084,37.052c15.708,4.753,30.384,0.776,40.06-3.492c-0.777,21.747-15.653,44.509-27.964,63.348
		c-12.072,18.473-20.794,31.82-15.315,42.629c3.285,6.48,8.695,10.619,15.646,11.966c10.954,2.132,25.254-2.664,43.723-14.638
		c5.694-3.691,10.827-7.463,14.795-10.534c2.62,3.606,6.094,6.482,10.336,8.517c12.947,6.207,31.633,3.597,47.966-0.998
		C374.972,190.808,364.285,215.128,367.985,234.654z"/>
	<path d="M231.467,102.933c-4.418,0-8,3.582-8,8v49c0,4.418,3.582,8,8,8s8-3.582,8-8v-49
		C239.467,106.515,235.885,102.933,231.467,102.933z"/>
	<path d="M316.494,212.99c-5.236,2.996-10.537,6.453-15.754,10.276c-3.564,2.611-4.336,7.617-1.726,11.181
		c1.567,2.14,3.997,3.273,6.46,3.273c1.641,0,3.297-0.504,4.722-1.548c4.735-3.469,9.528-6.597,14.245-9.296
		c3.835-2.194,5.165-7.082,2.97-10.917C325.216,212.123,320.328,210.795,316.494,212.99z"/>
</g>
<g>
</g>
<g>
</g>
<g>
</g>
<g>
</g>
<g>
</g>
<g>
</g>
<g>
</g>
<g>
</g>
<g>
</g>
<g>
</g>
<g>
</g>
<g>
</g>
<g>
</g>
<g>
</g>
<g>
</g>
</svg>
