<?xml version="1.0" encoding="iso-8859-1"?>
<!-- Generator: Adobe Illustrator 19.0.0, SVG Export Plug-In . SVG Version: 6.00 Build 0)  -->
<svg version="1.1" id="Capa_1" xmlns="http://www.w3.org/2000/svg" xmlns:xlink="http://www.w3.org/1999/xlink" x="0px" y="0px"
	 viewBox="0 0 464.002 464.002" style="enable-background:new 0 0 464.002 464.002;" xml:space="preserve">
<path d="M348.327,337.271l-0.25-0.161c7.769-16.689,11.924-35.064,11.924-54.031c0-25.539-9.522-48.508-20.935-70.463
	c3.108-2.539,3.885-7.058,1.664-10.514c-1.987-3.092-5.746-4.348-9.094-3.31c-0.916-1.667-1.834-3.33-2.75-4.989
	c-12.798-23.181-24.886-45.076-24.886-65.804V96c0-0.038-0.005-0.074-0.006-0.112c-0.002-0.174-0.013-0.348-0.026-0.522
	c-0.008-0.097-0.014-0.194-0.025-0.29c-0.018-0.154-0.043-0.308-0.071-0.462c-0.02-0.117-0.04-0.233-0.066-0.348
	c-0.028-0.126-0.062-0.251-0.096-0.376c-0.038-0.139-0.077-0.278-0.122-0.414c-0.034-0.103-0.074-0.205-0.113-0.307
	c-0.058-0.152-0.117-0.302-0.183-0.449c-0.018-0.039-0.03-0.078-0.048-0.117L293.587,72h2.414c4.418,0,8-3.582,8-8s-3.582-8-8-8
	h-19.47l2.289-31.462c0.472-6.487-1.66-12.631-6.001-17.299C268.477,2.571,262.504,0,256.001,0h-48
	c-6.503,0-12.476,2.571-16.817,7.239c-4.341,4.668-6.473,10.812-6.001,17.299L187.471,56h-19.47c-4.418,0-8,3.582-8,8s3.582,8,8,8
	h2.414l-9.658,20.604c-0.018,0.039-0.03,0.078-0.048,0.117c-0.066,0.147-0.126,0.297-0.183,0.449
	c-0.039,0.102-0.078,0.204-0.112,0.307c-0.045,0.136-0.084,0.275-0.122,0.414c-0.034,0.125-0.069,0.25-0.097,0.376
	c-0.025,0.115-0.045,0.231-0.066,0.348c-0.027,0.154-0.053,0.307-0.071,0.462c-0.011,0.096-0.018,0.193-0.025,0.29
	c-0.014,0.174-0.024,0.348-0.026,0.522c0,0.038-0.006,0.074-0.006,0.112v32c0,16.097-11.209,37.095-23.076,59.325
	c-1.956,3.664-3.945,7.391-5.927,11.173c-2.959-0.37-6.006,0.928-7.726,3.604c-2.027,3.155-1.552,7.191,0.909,9.803
	c-10.958,22.385-20.179,46.433-20.179,71.173c0,18.966,4.155,37.342,11.924,54.031l-0.25,0.161
	c-3.717,2.39-4.792,7.339-2.403,11.056c1.528,2.378,4.105,3.675,6.737,3.675c1.208,0,2.423-0.29,3.558-0.857
	c5.683,9.037,12.528,17.398,20.434,24.876V406.7L130.234,448h-2.233c-4.418,0-8,3.582-8,8s3.582,8,8,8h7.977
	c0.008,0,0.016,0.002,0.024,0.002c0.008,0,0.016-0.002,0.025-0.002h191.948c0.008,0,0.017,0.002,0.025,0.002
	c0.008,0,0.016-0.002,0.024-0.002h7.977c4.418,0,8-3.582,8-8s-3.582-8-8-8h-2.233l-13.767-41.3v-30.681
	c7.906-7.477,14.751-15.839,20.435-24.875c1.135,0.568,2.349,0.857,3.558,0.857c2.632,0,5.209-1.297,6.737-3.675
	C353.119,344.609,352.044,339.66,348.327,337.271z M334.477,328.367l-55.382-35.603c-1.869-11.947-6.451-23.531-11.923-33.863
	l58.396-37.54c10.159,19.772,18.434,40.192,18.434,61.718C344.001,298.923,340.693,314.298,334.477,328.367z M264.001,304
	c0,7.892-2.923,15.417-8.053,21.211c-9.58-11.829-18.478-19.076-18.918-19.433c-2.945-2.38-7.158-2.371-10.09,0.025
	c-0.438,0.358-9.29,7.644-18.839,19.463c-5.16-5.801-8.101-13.347-8.101-21.267c0-0.648,0.023-1.298,0.048-1.948l31.952-20.541
	l31.953,20.541C263.978,302.702,264.001,303.351,264.001,304z M217.207,272l-12.334,7.929c1.587-4.219,3.472-8.343,5.532-12.301
	L217.207,272z M218.561,253.85c4.905-7.403,9.836-13.612,13.465-17.893c3.64,4.262,8.582,10.449,13.491,17.844l-13.516,8.689
	L218.561,253.85z M246.795,272l6.876-4.421c2.067,3.985,3.958,8.143,5.543,12.405L246.795,272z M201.14,23.378
	c-0.146-2.004,0.48-3.865,1.761-5.242S205.992,16,208.001,16h48c2.009,0,3.82,0.759,5.101,2.136s1.906,3.238,1.761,5.242L260.49,56
	h-56.977L201.14,23.378z M196.045,72c0.007,0,0.013,0.001,0.02,0.001c0.009,0,0.018-0.001,0.027-0.001h79.823l7.5,16h-11.413
	c-4.418,0-8,3.582-8,8s3.582,8,8,8h15.999v16h-112v-16h64c4.418,0,8-3.582,8-8s-3.582-8-8-8h-59.414l7.5-16H196.045z M175.402,136
	h113.047c2.385,21.967,14.098,43.2,26.43,65.537c1.04,1.884,2.082,3.773,3.121,5.667l-59.017,37.94
	c-10.2-15.459-20.453-25.92-21.302-26.777c-1.503-1.515-3.548-2.366-5.681-2.366c-0.006,0-0.011,0-0.017,0
	c-2.139,0.005-4.187,0.865-5.687,2.39c-0.848,0.862-11.05,11.354-21.221,26.792l-60.196-38.698
	c2.058-3.937,4.127-7.816,6.159-11.623C162.201,173.951,172.82,154.051,175.402,136z M120.001,283.079
	c0-20.846,7.925-42.084,17.633-62.233l59.255,38.092c-5.485,10.342-10.085,21.92-11.97,33.817l-55.394,35.61
	C123.309,314.298,120.001,298.923,120.001,283.079z M147.101,448l10.666-32h90.234c4.418,0,8-3.582,8-8s-3.582-8-8-8h-88v-16h144v16
	h-24c-4.418,0-8,3.582-8,8s3.582,8,8,8h26.234l10.666,32H147.101z M305.022,368H158.981c-8.651-7.441-16.004-16.033-21.918-25.458
	l47.617-30.611c2.129,12.683,9.286,24.124,20.064,31.573c1.388,0.959,2.973,1.42,4.542,1.42c2.503,0,4.968-1.173,6.526-3.364
	c5.817-8.181,12.019-14.718,16.211-18.774c4.204,4.039,10.416,10.553,16.233,18.729c2.54,3.57,7.479,4.434,11.08,1.935
	c10.732-7.449,17.861-18.87,19.986-31.519l47.618,30.611C321.026,351.967,313.673,360.559,305.022,368z"/>
<g>
</g>
<g>
</g>
<g>
</g>
<g>
</g>
<g>
</g>
<g>
</g>
<g>
</g>
<g>
</g>
<g>
</g>
<g>
</g>
<g>
</g>
<g>
</g>
<g>
</g>
<g>
</g>
<g>
</g>
</svg>
