<?xml version="1.0" encoding="iso-8859-1"?>
<!-- Generator: Adobe Illustrator 19.0.0, SVG Export Plug-In . SVG Version: 6.00 Build 0)  -->
<svg version="1.1" id="Capa_1" xmlns="http://www.w3.org/2000/svg" xmlns:xlink="http://www.w3.org/1999/xlink" x="0px" y="0px"
	 viewBox="0 0 456 456" style="enable-background:new 0 0 456 456;" xml:space="preserve">
<path d="M348,384V128c0-31.75-12.335-55.314-36.662-70.04C292.877,46.786,268.163,40.933,236,40.112V29.835
	c4.774-2.771,8-7.928,8-13.835c0-8.822-7.178-16-16-16s-16,7.178-16,16c0,5.907,3.226,11.063,8,13.835v10.277
	c-32.163,0.821-56.877,6.674-75.338,17.848C120.335,72.686,108,96.25,108,128v256c-4.418,0-8,3.582-8,8s3.582,8,8,8h24v9.376
	c-9.311,3.303-16,12.195-16,22.624c0,13.233,10.767,24,24,24s24-10.767,24-24c0-10.429-6.689-19.321-16-22.624V400h168v9.376
	c-9.311,3.303-16,12.195-16,22.624c0,13.233,10.767,24,24,24s24-10.767,24-24c0-10.429-6.689-19.321-16-22.624V400h16
	c4.418,0,8-3.582,8-8S352.418,384,348,384z M140,440c-4.411,0-8-3.589-8-8s3.589-8,8-8s8,3.589,8,8S144.411,440,140,440z M324,440
	c-4.411,0-8-3.589-8-8s3.589-8,8-8s8,3.589,8,8S328.411,440,324,440z M124,128c0-26.129,9.469-44.562,28.946-56.352
	c15.723-9.517,38.267-14.72,67.054-15.525V88h-64c-4.418,0-8,3.582-8,8c0,0.147,0.014,0.292,0.022,0.438
	c-0.008,0.146-0.022,0.29-0.022,0.438v15.25c0,4.418,3.582,8,8,8s8-3.582,8-8V104h128v8.125c0,4.418,3.582,8,8,8s8-3.582,8-8v-15.25
	c0-0.147-0.014-0.292-0.022-0.438C307.986,96.292,308,96.147,308,96c0-4.418-3.582-8-8-8h-64V56.124
	c28.787,0.805,51.331,6.008,67.054,15.525C322.531,83.438,332,101.871,332,128v256H124V128z"/>
<g>
</g>
<g>
</g>
<g>
</g>
<g>
</g>
<g>
</g>
<g>
</g>
<g>
</g>
<g>
</g>
<g>
</g>
<g>
</g>
<g>
</g>
<g>
</g>
<g>
</g>
<g>
</g>
<g>
</g>
</svg>
