<?xml version="1.0" encoding="iso-8859-1"?>
<!-- Generator: Adobe Illustrator 19.0.0, SVG Export Plug-In . SVG Version: 6.00 Build 0)  -->
<svg version="1.1" id="Capa_1" xmlns="http://www.w3.org/2000/svg" xmlns:xlink="http://www.w3.org/1999/xlink" x="0px" y="0px"
	 viewBox="0 0 464 464" style="enable-background:new 0 0 464 464;" xml:space="preserve">
<g>
	<path d="M316,160V24c0-13.233-10.767-24-24-24s-24,10.767-24,24v136H148c-17.645,0-32,14.355-32,32v240c0,17.645,14.355,32,32,32
		h168c17.645,0,32-14.355,32-32V192C348,174.355,333.645,160,316,160z M284,24c0-4.411,3.589-8,8-8s8,3.589,8,8v136h-16V24z
		 M332,432c0,8.822-7.178,16-16,16h-16v-16c0-4.418-3.582-8-8-8s-8,3.582-8,8v16H148c-8.822,0-16-7.178-16-16V192
		c0-8.822,7.178-16,16-16h136v224c0,4.418,3.582,8,8,8s8-3.582,8-8V176h16c8.822,0,16,7.178,16,16V432z"/>
	<path d="M208,192c-33.084,0-60,26.916-60,60s26.916,60,60,60s60-26.916,60-60S241.084,192,208,192z M208,296
		c-24.262,0-44-19.738-44-44s19.738-44,44-44s44,19.738,44,44S232.262,296,208,296z"/>
	<path d="M228,244c-4.418,0-8,3.582-8,8c0,6.617-5.383,12-12,12s-12-5.383-12-12s5.383-12,12-12c4.418,0,8-3.582,8-8s-3.582-8-8-8
		c-15.439,0-28,12.561-28,28s12.561,28,28,28s28-12.561,28-28C236,247.582,232.418,244,228,244z"/>
	<path d="M248,328h-4c-4.418,0-8,3.582-8,8s3.582,8,8,8h4c2.168,0,4,1.832,4,4v64c0,2.168-1.832,4-4,4h-80c-2.168,0-4-1.832-4-4v-64
		c0-2.168,1.832-4,4-4h44c4.418,0,8-3.582,8-8s-3.582-8-8-8h-44c-11.028,0-20,8.972-20,20v64c0,11.028,8.972,20,20,20h80
		c11.028,0,20-8.972,20-20v-64C268,336.972,259.028,328,248,328z"/>
	<path d="M316,192c-4.418,0-8,3.582-8,8v16c0,4.418,3.582,8,8,8s8-3.582,8-8v-16C324,195.582,320.418,192,316,192z"/>
	<path d="M316,240c-4.418,0-8,3.582-8,8v16c0,4.418,3.582,8,8,8s8-3.582,8-8v-16C324,243.582,320.418,240,316,240z"/>
</g>
<g>
</g>
<g>
</g>
<g>
</g>
<g>
</g>
<g>
</g>
<g>
</g>
<g>
</g>
<g>
</g>
<g>
</g>
<g>
</g>
<g>
</g>
<g>
</g>
<g>
</g>
<g>
</g>
<g>
</g>
</svg>
