<?xml version="1.0" encoding="iso-8859-1"?>
<!-- Generator: Adobe Illustrator 19.0.0, SVG Export Plug-In . SVG Version: 6.00 Build 0)  -->
<svg version="1.1" id="Capa_1" xmlns="http://www.w3.org/2000/svg" xmlns:xlink="http://www.w3.org/1999/xlink" x="0px" y="0px"
	 viewBox="0 0 432 432" style="enable-background:new 0 0 432 432;" xml:space="preserve">
<g>
	<path d="M392,44H40C17.944,44,0,61.944,0,84v240c0,19.316,13.764,35.479,32,39.195V372c0,8.822,7.178,16,16,16h16
		c8.822,0,16-7.178,16-16v-8h272v8c0,8.822,7.178,16,16,16h16c8.822,0,16-7.178,16-16v-8.805c18.236-3.716,32-19.878,32-39.195V84
		C432,61.944,414.056,44,392,44z M64,372H48v-8h16V372z M368,372v-8h16v8H368z M416,324c0,13.233-10.766,24-24,24H40
		c-13.234,0-24-10.767-24-24V84c0-13.233,10.766-24,24-24h352c13.234,0,24,10.767,24,24V324z"/>
	<path d="M392,76H40c-4.418,0-8,3.582-8,8v240c0,4.418,3.582,8,8,8h352c4.418,0,8-3.582,8-8v-40c0-4.418-3.582-8-8-8s-8,3.582-8,8
		v32H48V92h336v32c0,4.418,3.582,8,8,8s8-3.582,8-8V84C400,79.582,396.418,76,392,76z"/>
	<path d="M392,148c-4.418,0-8,3.582-8,8v96c0,4.418,3.582,8,8,8s8-3.582,8-8v-96C400,151.582,396.418,148,392,148z"/>
	<path d="M96,212c0,30.879,25.122,56,56,56s56-25.121,56-56s-25.122-56-56-56S96,181.121,96,212z M192,212c0,22.056-17.944,40-40,40
		s-40-17.944-40-40s17.944-40,40-40S192,189.944,192,212z"/>
	<path d="M141.496,190.417C133.297,194.412,128,202.884,128,212c0,13.233,10.767,24,24,24c9.83,0,18.564-5.887,22.252-14.998
		c1.658-4.096-0.318-8.76-4.414-10.417c-4.097-1.657-8.759,0.318-10.417,4.413c-1.23,3.039-4.143,5.002-7.421,5.002
		c-4.411,0-8-3.589-8-8c0-3.087,1.726-5.846,4.505-7.2c3.972-1.936,5.623-6.724,3.687-10.696
		C150.256,190.132,145.467,188.48,141.496,190.417z"/>
	<path d="M64,156v112c0,4.418,3.582,8,8,8s8-3.582,8-8V156c0-4.418-3.582-8-8-8S64,151.582,64,156z"/>
</g>
<g>
</g>
<g>
</g>
<g>
</g>
<g>
</g>
<g>
</g>
<g>
</g>
<g>
</g>
<g>
</g>
<g>
</g>
<g>
</g>
<g>
</g>
<g>
</g>
<g>
</g>
<g>
</g>
<g>
</g>
</svg>
