<?xml version="1.0" encoding="iso-8859-1"?>
<!-- Generator: Adobe Illustrator 19.0.0, SVG Export Plug-In . SVG Version: 6.00 Build 0)  -->
<svg version="1.1" id="Capa_1" xmlns="http://www.w3.org/2000/svg" xmlns:xlink="http://www.w3.org/1999/xlink" x="0px" y="0px"
	 viewBox="0 0 436.726 436.726" style="enable-background:new 0 0 436.726 436.726;" xml:space="preserve">
<g>
	<path d="M436.657,382.527l-1.477-15.932c-0.535-5.769-4.102-10.527-8.965-12.896c1.021-60.957,0.673-198.711-19.922-287.264
		c-0.192-0.824-0.506-1.586-0.916-2.277c2.667-2.86,4.313-6.683,4.313-10.892v-16c0-8.822-7.178-16-16-16h-352
		c-8.822,0-16,7.178-16,16v16c0,4.21,1.647,8.033,4.314,10.893c-0.41,0.69-0.724,1.453-0.915,2.276
		C8.523,154.86,8.746,292.569,10.022,353.135c-4.616,2.444-7.96,7.087-8.477,12.664L0.069,381.73
		c-0.814,8.785,5.669,16.595,14.454,17.409l175.248,16.251c0.5,0.046,0.996,0.069,1.489,0.069c8.161,0,15.151-6.239,15.92-14.524
		l1.477-15.931c0.685-7.39-3.804-14.073-10.475-16.499l11.155-116.788c0.987-3.757,4.44-6.452,8.354-6.452
		c3.915,0,7.368,2.695,8.355,6.452l11.615,122.558c-2.142,3.013-3.268,6.768-2.901,10.728l1.477,15.932
		c0.769,8.286,7.759,14.525,15.915,14.524c0.491,0,0.987-0.023,1.486-0.069l168.564-15.456
		C430.988,399.122,437.471,391.311,436.657,382.527z M252.169,399.459l-1.458-15.752c0.094-0.069,0.189-0.135,0.279-0.208
		l121.58-11.313c4.399-0.41,7.634-4.308,7.225-8.707s-4.313-7.635-8.707-7.225l-118.021,10.982l-11.149-117.641
		c-0.002-0.02-0.007-0.039-0.009-0.059c-0.015-0.145-0.041-0.291-0.064-0.437c-0.021-0.13-0.038-0.261-0.065-0.389
		c-0.005-0.023-0.006-0.045-0.011-0.068c-0.031-0.141-0.077-0.275-0.11-0.415c-0.023-0.084-0.042-0.171-0.067-0.254
		c-2.705-10.876-12.634-18.708-23.899-18.708c-11.259,0-21.184,7.825-23.894,18.694c-0.033,0.107-0.058,0.218-0.087,0.328
		c-0.028,0.12-0.068,0.235-0.094,0.355c-0.004,0.019-0.005,0.038-0.01,0.057c-0.03,0.141-0.049,0.286-0.071,0.43
		c-0.021,0.132-0.044,0.265-0.058,0.397c-0.002,0.021-0.007,0.042-0.009,0.064l-11.166,116.902l-4.03-0.374
		c-4.383-0.408-8.296,2.827-8.704,7.227c-0.408,4.399,2.828,8.297,7.228,8.705l15.931,1.478l-1.478,15.932L16.001,383.207
		l1.478-15.931l127.453,11.819c4.38,0.404,8.296-2.827,8.704-7.227c0.408-4.399-2.828-8.296-7.228-8.705L26.003,351.998
		c-1.249-60.327-1.402-195.634,18.671-281.939c0.062-0.265,0.109-0.529,0.143-0.793h276.875c4.418,0,8-3.582,8-8s-3.582-8-8-8h-280
		v-16h352v16h-40c-4.418,0-8,3.582-8,8s3.582,8,8,8h36.876c0.034,0.264,0.081,0.528,0.143,0.793
		c20.121,86.518,20.518,222.003,19.521,282.671l-7.163,0.56c-4.404,0.344-7.696,4.194-7.352,8.599s4.185,7.699,8.6,7.352
		l14.818-1.159c0.038-0.003,0.077-0.007,0.115-0.01l1.485,15.931L252.169,399.459z"/>
	<path d="M114.69,97.3c-4.33-0.927-8.573,1.826-9.5,6.145c-8.83,41.176-37.756,90.286-55.476,112.006
		c-2.793,3.424-2.281,8.463,1.143,11.256c1.484,1.212,3.273,1.802,5.052,1.802c2.32,0,4.622-1.005,6.204-2.943
		c17.441-21.379,48.807-72.528,58.722-118.766C121.761,102.479,119.009,98.226,114.69,97.3z"/>
	<path d="M330.193,103.445c-0.927-4.32-5.179-7.068-9.5-6.145c-4.319,0.926-7.071,5.18-6.145,9.499
		c9.915,46.237,41.28,97.386,58.722,118.766c1.582,1.938,3.883,2.943,6.204,2.943c1.777,0,3.567-0.59,5.052-1.802
		c3.424-2.793,3.936-7.832,1.143-11.256C367.949,193.73,339.023,144.621,330.193,103.445z"/>
</g>
<g>
</g>
<g>
</g>
<g>
</g>
<g>
</g>
<g>
</g>
<g>
</g>
<g>
</g>
<g>
</g>
<g>
</g>
<g>
</g>
<g>
</g>
<g>
</g>
<g>
</g>
<g>
</g>
<g>
</g>
</svg>
