<?xml version="1.0" encoding="iso-8859-1"?>
<!-- Generator: Adobe Illustrator 19.0.0, SVG Export Plug-In . SVG Version: 6.00 Build 0)  -->
<svg version="1.1" id="Capa_1" xmlns="http://www.w3.org/2000/svg" xmlns:xlink="http://www.w3.org/1999/xlink" x="0px" y="0px"
	 viewBox="0 0 442.709 442.709" style="enable-background:new 0 0 442.709 442.709;" xml:space="preserve">
<path d="M439.381,252.559c0.058-0.047,0.119-0.088,0.176-0.137c0.423-0.362,0.8-0.763,1.131-1.195
	c0.04-0.052,0.074-0.108,0.113-0.161c0.114-0.156,0.226-0.312,0.328-0.474c0.076-0.121,0.141-0.246,0.209-0.37
	c0.055-0.099,0.114-0.197,0.165-0.298c0.077-0.154,0.143-0.312,0.209-0.469c0.033-0.078,0.07-0.154,0.1-0.233
	c0.062-0.163,0.114-0.328,0.165-0.494c0.025-0.081,0.054-0.16,0.077-0.242c0.042-0.153,0.074-0.309,0.107-0.464
	c0.021-0.1,0.046-0.198,0.064-0.299c0.023-0.134,0.037-0.268,0.053-0.403c0.015-0.125,0.033-0.249,0.043-0.375
	c0.008-0.112,0.008-0.223,0.012-0.335c0.005-0.149,0.011-0.297,0.008-0.446c-0.002-0.096-0.012-0.191-0.018-0.286
	c-0.009-0.162-0.018-0.324-0.038-0.486c-0.011-0.096-0.031-0.19-0.046-0.285c-0.025-0.158-0.048-0.316-0.083-0.473
	c-0.026-0.121-0.063-0.239-0.095-0.359c-0.034-0.127-0.064-0.255-0.105-0.382c-0.061-0.19-0.135-0.375-0.21-0.561
	c-0.022-0.054-0.039-0.11-0.063-0.164c-0.261-0.602-0.606-1.173-1.02-1.708c-0.265-0.343-0.549-0.665-0.859-0.955
	c-25.547-24.072-53.496-38.049-75.456-38.237c-0.48-23.208-16.74-54.087-43.081-80.429c-26.55-26.549-57.856-42.914-81.133-43.085
	c0.133-22.116-13.862-50.412-38.177-76.218c-0.281-0.301-0.593-0.576-0.924-0.835c-0.542-0.425-1.123-0.778-1.736-1.043
	c-0.03-0.013-0.062-0.023-0.092-0.035c-0.208-0.087-0.419-0.169-0.633-0.238c-0.12-0.039-0.241-0.067-0.362-0.1
	c-0.126-0.034-0.252-0.073-0.38-0.101c-0.154-0.034-0.309-0.056-0.463-0.081c-0.099-0.016-0.196-0.036-0.295-0.048
	c-0.158-0.019-0.316-0.027-0.474-0.037c-0.1-0.006-0.199-0.016-0.299-0.019c-0.143-0.003-0.286,0.003-0.428,0.008
	c-0.118,0.004-0.235,0.003-0.352,0.012c-0.118,0.009-0.235,0.026-0.353,0.04c-0.142,0.017-0.284,0.031-0.425,0.056
	c-0.092,0.016-0.182,0.039-0.273,0.058c-0.164,0.034-0.327,0.068-0.488,0.112c-0.073,0.02-0.144,0.046-0.216,0.068
	c-0.174,0.053-0.348,0.107-0.52,0.173c-0.07,0.027-0.137,0.06-0.206,0.088c-0.167,0.069-0.333,0.139-0.496,0.22
	c-0.097,0.048-0.19,0.105-0.285,0.157c-0.128,0.071-0.258,0.138-0.383,0.216c-0.177,0.11-0.348,0.232-0.517,0.357
	c-0.039,0.029-0.08,0.053-0.118,0.083c-0.605,0.464-1.148,1.021-1.611,1.663c-0.186,0.256-0.357,0.52-0.509,0.792L28.807,289.667
	c-3.199,5.644-2.26,12.76,2.285,17.306l1.611,1.611l-11.247,11.248c-13.599,13.6-21.088,31.68-21.088,50.912
	c0,19.231,7.489,37.313,21.088,50.912c14.036,14.036,32.474,21.054,50.912,21.054s36.875-7.018,50.912-21.054l11.248-11.249
	l0.572,0.572c2.748,2.748,6.433,4.178,10.157,4.178c2.438,0,4.893-0.613,7.11-1.871l285.798-159.902
	c0.023-0.012,0.045-0.025,0.067-0.038l0.02-0.011c0.043-0.024,0.08-0.052,0.122-0.077c0.187-0.109,0.373-0.221,0.553-0.347
	C439.085,252.8,439.233,252.679,439.381,252.559z M117.622,404.684L66.71,353.772c-3.124-3.123-8.189-3.123-11.313,0
	c-3.125,3.125-3.125,8.19,0,11.314l50.501,50.5c-21.918,16.41-53.216,14.667-73.129-5.246
	c-10.577-10.577-16.402-24.64-16.402-39.598c0-12.257,3.917-23.909,11.148-33.538l5.254,5.254c1.562,1.562,3.609,2.343,5.657,2.343
	s4.095-0.781,5.657-2.343c3.125-3.125,3.125-8.189,0-11.314l-5.656-5.656l5.591-5.591l79.196,79.195L117.622,404.684z
	 M145.526,398.778l-14.644-14.644l168.206-122.868c3.568-2.606,4.348-7.611,1.741-11.179c-2.605-3.566-7.611-4.348-11.179-1.741
	L119.432,372.685l-50.05-50.05l26.976-37.155c2.596-3.575,1.802-8.578-1.773-11.174c-3.576-2.597-8.579-1.803-11.174,1.773
	l-25.484,35.1l-14.633-14.633L197.588,21.708c20.522,24.596,28.028,47.476,26.286,60.911L104.826,246.584
	c-2.596,3.575-1.802,8.578,1.773,11.174c1.42,1.031,3.064,1.527,4.694,1.527c2.474,0,4.915-1.146,6.48-3.301L234.497,95.22
	c0.032-0.006,0.064-0.008,0.096-0.014c15.05-2.972,45.052,7.64,75.362,37.949c20.952,20.952,40.097,51.757,38.355,72.343
	l-31.656,23.124c-3.568,2.606-4.348,7.611-1.741,11.179c1.566,2.145,4,3.282,6.466,3.282c1.637,0,3.29-0.501,4.712-1.541
	l30.974-22.625c0.367-0.021,0.737-0.058,1.108-0.131c13.118-2.592,36.832,4.691,62.451,26.077L145.526,398.778z"/>
<g>
</g>
<g>
</g>
<g>
</g>
<g>
</g>
<g>
</g>
<g>
</g>
<g>
</g>
<g>
</g>
<g>
</g>
<g>
</g>
<g>
</g>
<g>
</g>
<g>
</g>
<g>
</g>
<g>
</g>
</svg>
