<?xml version="1.0" encoding="iso-8859-1"?>
<!-- Generator: Adobe Illustrator 19.0.0, SVG Export Plug-In . SVG Version: 6.00 Build 0)  -->
<svg version="1.1" id="Capa_1" xmlns="http://www.w3.org/2000/svg" xmlns:xlink="http://www.w3.org/1999/xlink" x="0px" y="0px"
	 viewBox="0 0 470.911 470.911" style="enable-background:new 0 0 470.911 470.911;" xml:space="preserve">
<g>
	<path d="M468.695,73.283c-2.322-3.429-6.254-5.396-10.788-5.396c-2.489,0-5.19,0.575-8.029,1.711L423.022,80.34
		c-9.186,3.674-21.86,12.031-28.856,19.027L247.08,246.454c-8.539,1.201-16.425,5.111-22.63,11.315
		c-3.124,3.124-3.124,8.189,0,11.314l0,0L74.893,418.642c-4.521,4.521-7.011,10.547-7.011,16.971c0,6.423,2.489,12.45,7.01,16.97
		l11.314,11.314c4.521,4.52,10.547,7.01,16.971,7.01c6.423,0,12.449-2.49,16.971-7.01l149.558-149.558
		c1.562,1.562,3.609,2.343,5.656,2.343c2.047,0,4.095-0.781,5.657-2.343c6.205-6.205,10.114-14.091,11.316-22.629l147.087-147.087
		c6.994-6.995,15.352-19.669,19.026-28.855l10.743-26.857C472.286,81.171,470.63,76.14,468.695,73.283z M275.363,286.054
		l-22.628-22.628l1.333-1.333c5.909,0.322,11.42,2.773,15.637,6.99c4.217,4.217,6.669,9.728,6.991,15.637L275.363,286.054z
		 M108.834,452.583c-1.499,1.499-3.508,2.324-5.657,2.324c-2.15,0-4.159-0.825-5.657-2.323L86.206,441.27
		c-1.499-1.499-2.324-3.508-2.324-5.657c0-2.149,0.825-4.158,2.324-5.657L241.421,274.74l22.628,22.628L108.834,452.583z
		 M443.593,109.824c-2.891,7.227-9.982,17.981-15.485,23.484L289.98,271.437c-1.985-5.061-5.001-9.708-8.96-13.667
		c-3.959-3.959-8.607-6.976-13.667-8.961l138.127-138.128c5.504-5.503,16.259-12.595,23.485-15.485l24.381-9.752L443.593,109.824z"
		/>
	<path d="M224.449,314.337c-1.49-1.49-3.55-2.34-5.66-2.34c-2.1,0-4.16,0.85-5.65,2.34c-1.489,1.49-2.34,3.55-2.34,5.66
		c0,2.1,0.851,4.16,2.34,5.65c1.49,1.49,3.551,2.35,5.65,2.35c2.11,0,4.17-0.86,5.66-2.35s2.35-3.55,2.35-5.65
		C226.799,317.887,225.939,315.827,224.449,314.337z"/>
	<path d="M207.48,248.799c2.047,0,4.095-0.781,5.657-2.343c6.205-6.205,10.115-14.091,11.316-22.63L371.54,76.74
		c6.995-6.996,15.353-19.67,19.026-28.854l10.742-26.857c3.096-7.738,1.439-12.769-0.495-15.626
		c-2.322-3.43-6.254-5.397-10.788-5.397c-2.489,0-5.19,0.576-8.028,1.711l-26.858,10.743c-9.185,3.674-21.859,12.032-28.854,19.026
		L179.176,178.593c-8.277,1.177-16.253,4.94-22.608,11.294c-3.124,3.124-3.124,8.189,0,11.314l0,0L7.01,350.76
		C2.489,355.28,0,361.307,0,367.73c0,6.423,2.489,12.45,7.01,16.97l11.314,11.314c4.521,4.52,10.547,7.01,16.97,7.01
		s12.449-2.49,16.971-7.01l149.559-149.559C203.386,248.018,205.433,248.799,207.48,248.799z M186.152,194.245
		c5.705,0.307,11.322,2.607,15.671,6.956c4.217,4.217,6.669,9.727,6.991,15.636l-1.334,1.334l-22.627-22.627L186.152,194.245z
		 M337.598,42.799c5.504-5.503,16.258-12.595,23.483-15.485l24.382-9.752l-9.752,24.381c-2.891,7.226-9.982,17.98-15.485,23.483
		L222.098,203.554c-1.985-5.06-5.001-9.708-8.96-13.667c-4.022-4.021-8.696-6.997-13.683-8.945L337.598,42.799z M40.95,384.701
		c-1.498,1.499-3.507,2.324-5.656,2.324s-4.158-0.825-5.656-2.323l-11.313-11.314C16.825,371.889,16,369.88,16,367.73
		c0-2.149,0.825-4.159,2.324-5.657l155.215-155.215l22.627,22.627L40.95,384.701z"/>
	<path d="M156.569,246.457c-1.49-1.49-3.55-2.34-5.66-2.34c-2.1,0-4.16,0.85-5.65,2.34c-1.489,1.49-2.35,3.55-2.35,5.66
		c0,2.1,0.86,4.16,2.35,5.65c1.49,1.49,3.551,2.34,5.65,2.34c2.11,0,4.17-0.85,5.66-2.34s2.34-3.55,2.34-5.65
		C158.909,250.007,158.06,247.947,156.569,246.457z"/>
</g>
<g>
</g>
<g>
</g>
<g>
</g>
<g>
</g>
<g>
</g>
<g>
</g>
<g>
</g>
<g>
</g>
<g>
</g>
<g>
</g>
<g>
</g>
<g>
</g>
<g>
</g>
<g>
</g>
<g>
</g>
</svg>
