<?xml version="1.0" encoding="iso-8859-1"?>
<!-- Generator: Adobe Illustrator 19.0.0, SVG Export Plug-In . SVG Version: 6.00 Build 0)  -->
<svg version="1.1" id="Capa_1" xmlns="http://www.w3.org/2000/svg" xmlns:xlink="http://www.w3.org/1999/xlink" x="0px" y="0px"
	 viewBox="0 0 448 448" style="enable-background:new 0 0 448 448;" xml:space="preserve">
<path d="M392,196c-13.801,0-27.061,5.064-37.335,14.261c-3.293,2.946-3.573,8.004-0.626,11.296
	c2.945,3.292,8.004,3.573,11.296,0.625C372.673,215.617,382.143,212,392,212c22.056,0,40,17.944,40,40s-17.944,40-40,40h-40v-40h8
	c4.418,0,8-3.582,8-8s-3.582-8-8-8h-88c-21.136,0-55.553-34.884-78.326-57.967c-4.732-4.796-9.202-9.327-13.287-13.31
	C166.167,150.86,139.642,140,120,140H8c-4.418,0-8,3.582-8,8v76c0,15.439,12.561,28,28,28h20v40H8c-4.418,0-8,3.582-8,8s3.582,8,8,8
	h384c30.879,0,56-25.122,56-56S422.879,196,392,196z M16,224v-68h104c15.459,0,37.997,9.241,49.218,20.18
	c3.974,3.875,8.391,8.351,13.066,13.09c15.71,15.923,33.61,34.066,51.251,46.73H48v-56c0-4.418-3.582-8-8-8s-8,3.582-8,8v56h-4
	C21.383,236,16,230.617,16,224z M64,252h201h7h64v40H64V252z"/>
<g>
</g>
<g>
</g>
<g>
</g>
<g>
</g>
<g>
</g>
<g>
</g>
<g>
</g>
<g>
</g>
<g>
</g>
<g>
</g>
<g>
</g>
<g>
</g>
<g>
</g>
<g>
</g>
<g>
</g>
</svg>
