<?xml version="1.0" encoding="iso-8859-1"?>
<!-- Generator: Adobe Illustrator 19.0.0, SVG Export Plug-In . SVG Version: 6.00 Build 0)  -->
<svg version="1.1" id="Capa_1" xmlns="http://www.w3.org/2000/svg" xmlns:xlink="http://www.w3.org/1999/xlink" x="0px" y="0px"
	 viewBox="0 0 463.233 463.233" style="enable-background:new 0 0 463.233 463.233;" xml:space="preserve">
<g>
	<path d="M462.439,178.69c-2.581-9.273-10.705-15.504-20.214-15.504c-0.645,0-1.302,0.028-1.953,0.084l-148.776,12.734
		c-2.566,0.222-4.857-1.468-5.435-3.949l-33.863-145.43c-2.275-9.772-10.546-16.338-20.58-16.338s-18.304,6.566-20.58,16.338
		l-33.863,145.43c-0.544,2.336-2.595,3.968-4.988,3.968c-0.168-0.004-0.297-0.006-0.446-0.019L22.963,163.27
		c-0.652-0.056-1.309-0.084-1.954-0.084c-9.51,0-17.634,6.23-20.215,15.503c-2.569,9.23,1.229,18.765,9.45,23.725l127.848,77.146
		c2.169,1.309,3.062,4.056,2.076,6.389L82.082,423.51c-2.816,6.669-2.19,13.872,1.716,19.763c3.957,5.966,10.794,9.673,17.843,9.673
		c5.027,0,9.779-1.813,13.739-5.243l112.877-97.75c1.865-1.615,4.853-1.615,6.717,0l112.878,97.751
		c3.96,3.43,8.711,5.243,13.739,5.243c0.001,0,0.001,0,0.002,0c7.048,0,13.885-3.706,17.842-9.671
		c3.907-5.891,4.533-13.094,1.716-19.764l-58.086-137.559c-0.985-2.334-0.093-5.081,2.076-6.389l127.848-77.146
		C461.211,197.454,465.008,187.92,462.439,178.69z M316.875,265.862c-8.931,5.39-12.606,16.701-8.549,26.312l53.698,127.167
		l-68.693-96.773c-2.557-3.603-7.551-4.45-11.154-1.893c-3.603,2.557-4.45,7.551-1.893,11.154l66.68,93.937l-101.514-87.91
		c-3.84-3.325-8.752-5.156-13.833-5.156s-9.992,1.831-13.833,5.157l-103.967,90.034l67.63-95.448
		c2.555-3.605,1.703-8.598-1.902-11.152c-3.605-2.555-8.599-1.703-11.152,1.902l-65.789,92.85l52.305-123.869
		c4.057-9.609,0.382-20.921-8.549-26.311L32.007,196.86l104.996,32.587c0.79,0.245,1.588,0.361,2.374,0.361
		c3.412,0,6.573-2.201,7.638-5.631c1.31-4.22-1.05-8.702-5.27-10.012L31.988,180.101l138.387,11.845
		c0.601,0.051,1.21,0.077,1.811,0.077c9.872,0,18.331-6.719,20.571-16.339l30.239-129.867v108.127c0,4.418,3.582,8,8,8s8-3.582,8-8
		V40.488l31.48,135.197c2.241,9.621,10.7,16.339,20.571,16.339c0.601,0,1.21-0.026,1.811-0.078l138.534-11.858l-109.796,34.077
		c-4.22,1.31-6.579,5.792-5.27,10.012c1.065,3.431,4.226,5.631,7.638,5.631c0.785,0,1.584-0.117,2.374-0.361l104.776-32.519
		L316.875,265.862z"/>
	<path d="M290.606,223.784l-51.609,16.018v-53.856c0-4.418-3.582-8-8-8s-8,3.582-8,8v53.438l-50.262-15.599
		c-4.218-1.309-8.702,1.049-10.012,5.27c-1.31,4.22,1.05,8.702,5.27,10.012l49.191,15.267l-30.21,42.637
		c-2.555,3.605-1.703,8.598,1.902,11.152c1.404,0.995,3.019,1.473,4.618,1.473c2.506,0,4.975-1.175,6.534-3.375l31.01-43.765
		l30.643,43.168c1.56,2.198,4.026,3.37,6.53,3.37c1.601,0,3.219-0.479,4.624-1.477c3.603-2.557,4.45-7.551,1.893-11.154
		l-29.605-41.707l50.226-15.588c4.22-1.31,6.579-5.792,5.27-10.012S294.823,222.476,290.606,223.784z"/>
</g>
<g>
</g>
<g>
</g>
<g>
</g>
<g>
</g>
<g>
</g>
<g>
</g>
<g>
</g>
<g>
</g>
<g>
</g>
<g>
</g>
<g>
</g>
<g>
</g>
<g>
</g>
<g>
</g>
<g>
</g>
</svg>
