<?xml version="1.0" encoding="iso-8859-1"?>
<!-- Generator: Adobe Illustrator 19.0.0, SVG Export Plug-In . SVG Version: 6.00 Build 0)  -->
<svg version="1.1" id="Capa_1" xmlns="http://www.w3.org/2000/svg" xmlns:xlink="http://www.w3.org/1999/xlink" x="0px" y="0px"
	 viewBox="0 0 448 448" style="enable-background:new 0 0 448 448;" xml:space="preserve">
<g>
	<path d="M224,144.196c-44.004,0-79.804,35.8-79.804,79.804s35.8,79.804,79.804,79.804s79.804-35.8,79.804-79.804
		S268.004,144.196,224,144.196z M224,287.804c-35.182,0-63.804-28.623-63.804-63.804s28.623-63.804,63.804-63.804
		s63.804,28.623,63.804,63.804S259.182,287.804,224,287.804z"/>
	<path d="M112,232c4.418,0,8-3.582,8-8s-3.582-8-8-8H64c-4.418,0-8,3.582-8,8s3.582,8,8,8H112z"/>
	<path d="M32,216H8c-4.418,0-8,3.582-8,8s3.582,8,8,8h24c4.418,0,8-3.582,8-8S36.418,216,32,216z"/>
	<path d="M384,216h-48c-4.418,0-8,3.582-8,8s3.582,8,8,8h48c4.418,0,8-3.582,8-8S388.418,216,384,216z"/>
	<path d="M440,216h-24c-4.418,0-8,3.582-8,8s3.582,8,8,8h24c4.418,0,8-3.582,8-8S444.418,216,440,216z"/>
	<path d="M224,328c-4.418,0-8,3.582-8,8v48c0,4.418,3.582,8,8,8s8-3.582,8-8v-48C232,331.582,228.418,328,224,328z"/>
	<path d="M224,408c-4.418,0-8,3.582-8,8v24c0,4.418,3.582,8,8,8s8-3.582,8-8v-24C232,411.582,228.418,408,224,408z"/>
	<path d="M224,120c4.418,0,8-3.582,8-8V64c0-4.418-3.582-8-8-8s-8,3.582-8,8v48C216,116.418,219.582,120,224,120z"/>
	<path d="M224,40c4.418,0,8-3.582,8-8V8c0-4.418-3.582-8-8-8s-8,3.582-8,8v24C216,36.418,219.582,40,224,40z"/>
	<path d="M139.147,297.539l-33.941,33.941c-3.125,3.124-3.125,8.189,0,11.313c1.562,1.562,3.609,2.343,5.657,2.343
		s4.095-0.781,5.657-2.343l33.941-33.941c3.125-3.124,3.125-8.189,0-11.313C147.337,294.415,142.271,294.415,139.147,297.539z"/>
	<path d="M82.579,354.108l-16.97,16.97c-3.125,3.124-3.125,8.189,0,11.313c1.562,1.562,3.609,2.343,5.657,2.343
		s4.095-0.781,5.657-2.343l16.97-16.97c3.125-3.124,3.125-8.189,0-11.313C90.768,350.984,85.703,350.984,82.579,354.108z"/>
	<path d="M303.196,152.804c2.047,0,4.095-0.781,5.657-2.343l33.941-33.941c3.125-3.124,3.125-8.189,0-11.313
		c-3.124-3.124-8.189-3.124-11.313,0l-33.941,33.941c-3.125,3.124-3.125,8.189,0,11.313
		C299.101,152.023,301.148,152.804,303.196,152.804z"/>
	<path d="M359.765,96.235c2.047,0,4.095-0.781,5.657-2.343l16.971-16.97c3.125-3.124,3.125-8.189,0-11.313
		c-3.123-3.125-8.188-3.124-11.313,0l-16.971,16.97c-3.125,3.124-3.125,8.189,0,11.313C355.67,95.455,357.717,96.235,359.765,96.235
		z"/>
	<path d="M308.853,297.539c-3.124-3.124-8.189-3.124-11.313,0c-3.125,3.124-3.125,8.189,0,11.313l33.941,33.941
		c1.562,1.562,3.609,2.343,5.657,2.343s4.095-0.781,5.657-2.343c3.125-3.124,3.125-8.189,0-11.313L308.853,297.539z"/>
	<path d="M365.421,354.108c-3.124-3.125-8.189-3.124-11.313,0c-3.125,3.124-3.125,8.189,0,11.313l16.971,16.97
		c1.562,1.563,3.609,2.343,5.657,2.343s4.095-0.781,5.657-2.343c3.125-3.124,3.125-8.189,0-11.313L365.421,354.108z"/>
	<path d="M139.147,150.461c1.562,1.562,3.609,2.343,5.657,2.343s4.095-0.781,5.657-2.343c3.125-3.124,3.125-8.189,0-11.313
		l-33.941-33.941c-3.124-3.124-8.189-3.124-11.313,0c-3.125,3.124-3.125,8.189,0,11.313L139.147,150.461z"/>
	<path d="M82.579,93.892c1.562,1.562,3.609,2.343,5.657,2.343s4.095-0.781,5.657-2.343c3.125-3.124,3.125-8.189,0-11.313
		l-16.97-16.97c-3.124-3.124-8.189-3.124-11.313,0c-3.125,3.124-3.125,8.189,0,11.313L82.579,93.892z"/>
</g>
<g>
</g>
<g>
</g>
<g>
</g>
<g>
</g>
<g>
</g>
<g>
</g>
<g>
</g>
<g>
</g>
<g>
</g>
<g>
</g>
<g>
</g>
<g>
</g>
<g>
</g>
<g>
</g>
<g>
</g>
</svg>
