<?xml version="1.0" encoding="iso-8859-1"?>
<!-- Generator: Adobe Illustrator 19.0.0, SVG Export Plug-In . SVG Version: 6.00 Build 0)  -->
<svg version="1.1" id="Capa_1" xmlns="http://www.w3.org/2000/svg" xmlns:xlink="http://www.w3.org/1999/xlink" x="0px" y="0px"
	 viewBox="0 0 488.014 488.014" style="enable-background:new 0 0 488.014 488.014;" xml:space="preserve">
<g>
	<path d="M486.06,266.546c-3.788-8.839-12.45-14.55-22.067-14.55c-3.257,0-6.435,0.654-9.446,1.944l-151.049,64.735L41.84,27.944
		c-8.852-9.836-24.057-10.637-33.895-1.784C3.18,30.449,0.371,36.336,0.034,42.738C-0.303,49.14,1.873,55.29,6.162,60.054
		L28.09,84.419c2.286,60.152,16.55,120.771,40.263,170.931c25.661,54.28,61.831,95.077,105.246,118.995L62.547,421.94
		c-12.163,5.213-17.818,19.35-12.605,31.514c3.789,8.838,12.45,14.549,22.067,14.549c3.258,0,6.437-0.654,9.446-1.945
		l164.275-70.403c0.275,0.044,0.554,0.075,0.838,0.09c3.111,0.168,6.285,0.254,9.433,0.254c17.234,0,33.755-1.258,49.169-3.714
		l60.992,67.768c4.544,5.05,11.048,7.946,17.844,7.946c5.936,0,11.636-2.188,16.05-6.161c4.765-4.288,7.575-10.175,7.912-16.578
		c0.337-6.401-1.839-12.551-6.106-17.292l-44.702-50.076c33.088-13.734,59.836-35.247,79.579-64.098l36.716-15.735
		c5.892-2.525,10.449-7.194,12.83-13.146S488.585,272.437,486.06,266.546z M16.012,43.579c0.112-2.134,1.049-4.097,2.636-5.526
		c3.28-2.952,8.348-2.685,11.299,0.594l258.017,286.685l-15.534,6.658l-80.429-89.365v-17.625c0-4.418-3.582-8-8-8
		c-4.37,0-7.915,3.504-7.993,7.855L18.055,49.351C16.625,47.763,15.9,45.713,16.012,43.579z M192.775,366.128
		c-0.258-0.119-0.517-0.236-0.774-0.357v-99.229l64.895,72.105L192.775,366.128z M82.819,248.513
		c-20.232-42.797-33.321-93.585-37.561-145.018l130.743,145.27v108.518C137.903,334.629,105.951,297.445,82.819,248.513z
		 M285.4,378.654l5.413-2.32l1.44,1.6C289.992,378.201,287.705,378.438,285.4,378.654z M391.99,444.42
		c-0.112,2.134-1.049,4.096-2.638,5.526c-1.471,1.324-3.37,2.054-5.346,2.054c-2.301,0-4.414-0.94-5.951-2.648l-71.708-79.675
		l15.935-6.829l67.665,75.801C391.376,440.236,392.102,442.286,391.99,444.42z M345.818,365.185l-8.022-8.987l66.878-28.662
		C388.402,343.871,368.706,356.479,345.818,365.185z M471.429,278.97c-0.793,1.984-2.312,3.541-4.276,4.382l-392.001,168
		c-1.007,0.432-2.064,0.651-3.143,0.651c-3.208,0-6.098-1.905-7.361-4.852c-1.737-4.055,0.147-8.768,4.202-10.505l107.151-45.922
		v2.275c0,4.418,3.582,8,8,8s8-3.582,8-8v-9.133l268.848-115.22c1.008-0.432,2.066-0.651,3.144-0.651
		c3.208,0,6.098,1.904,7.361,4.853C472.196,274.812,472.222,276.986,471.429,278.97z"/>
	<path d="M296.003,340.001c-2.11,0-4.17,0.85-5.66,2.34c-1.49,1.49-2.34,3.55-2.34,5.66c0,2.1,0.85,4.17,2.34,5.66
		c1.49,1.48,3.55,2.34,5.66,2.34c2.1,0,4.17-0.86,5.66-2.34c1.48-1.49,2.34-3.56,2.34-5.66c0-2.11-0.86-4.17-2.34-5.66
		C300.173,340.852,298.102,340.001,296.003,340.001z"/>
</g>
<g>
</g>
<g>
</g>
<g>
</g>
<g>
</g>
<g>
</g>
<g>
</g>
<g>
</g>
<g>
</g>
<g>
</g>
<g>
</g>
<g>
</g>
<g>
</g>
<g>
</g>
<g>
</g>
<g>
</g>
</svg>
