<?xml version="1.0" encoding="iso-8859-1"?>
<!-- Generator: Adobe Illustrator 19.0.0, SVG Export Plug-In . SVG Version: 6.00 Build 0)  -->
<svg version="1.1" id="Capa_1" xmlns="http://www.w3.org/2000/svg" xmlns:xlink="http://www.w3.org/1999/xlink" x="0px" y="0px"
	 viewBox="0 0 482.816 482.816" style="enable-background:new 0 0 482.816 482.816;" xml:space="preserve">
<g>
	<path d="M480.479,181.934L356.029,57.484c-3.124-3.123-8.189-3.123-11.313,0l-67.882,67.882l-28.284,28.284
		c-0.586,0.586-1.062,1.24-1.428,1.937c-0.057,0.108-0.101,0.22-0.153,0.329c-0.059,0.127-0.124,0.251-0.177,0.381
		c-1.172,2.889-0.586,6.324,1.757,8.668c0.001,0.001,0.001,0.001,0.001,0.001c6.235,6.24,6.235,16.385,0.001,22.624
		c0,0-0.001,0.001-0.002,0.002l-36.752,36.752l-25.286-25.286l45.254-45.254c3.125-3.125,3.125-8.189,0-11.314
		c-3.124-3.123-8.189-3.123-11.313,0L163.882,85.92C145.75,67.789,121.643,57.803,96,57.803S46.25,67.789,28.118,85.92
		C9.986,104.052,0,128.16,0,153.802s9.986,49.75,28.118,67.883l56.569,56.569c-3.124,3.125-3.124,8.189,0,11.314
		c1.562,1.562,3.609,2.343,5.657,2.343s4.095-0.781,5.657-2.343l45.255-45.255l25.286,25.286L56.216,379.924
		c-3.125,3.125-3.125,8.189,0,11.314l33.941,33.941c1.5,1.5,3.535,2.343,5.657,2.343s4.157-0.843,5.657-2.343l110.327-110.327
		l110.478,110.478c1.562,1.562,3.609,2.343,5.657,2.343c2.047,0,4.095-0.781,5.657-2.343l33.941-33.94
		c1.5-1.501,2.343-3.535,2.343-5.657s-0.843-4.156-2.343-5.657L257.052,269.599l75.387-75.387c1.528,3.191,2.336,6.708,2.336,10.35
		c0,6.411-2.497,12.438-7.03,16.971c-0.195,0.195-0.378,0.398-0.549,0.608c-1.196,1.467-1.794,3.258-1.794,5.05
		c0,2.048,0.781,4.095,2.343,5.657l50.912,50.911c1.562,1.562,3.609,2.343,5.657,2.343c0.894,0,1.786-0.158,2.64-0.456
		c0.06-0.012,0.119-0.016,0.178-0.029c19.198-4.195,40.852-17.243,59.407-35.799c18.555-18.555,31.603-40.207,35.798-59.404
		c0.013-0.061,0.019-0.122,0.031-0.184C483.347,187.421,482.724,184.178,480.479,181.934z M96.001,266.94l-56.569-56.569
		C24.322,195.261,16,175.171,16,153.802c0-21.368,8.322-41.458,23.432-56.567c15.11-15.11,35.2-23.432,56.569-23.432
		s41.458,8.321,56.568,23.432l56.569,56.568l-33.941,33.941l-38.891-38.891c-0.119-0.119-0.246-0.225-0.371-0.335
		c-0.11-0.125-0.217-0.252-0.336-0.372c-12.477-12.475-32.777-12.475-45.255,0.001c-6.043,6.044-9.372,14.08-9.372,22.627
		c0,8.548,3.329,16.584,9.373,22.628c1.562,1.562,3.609,2.343,5.657,2.343s4.095-0.781,5.657-2.344
		c3.124-3.124,3.124-8.189,0-11.313c-3.022-3.021-4.686-7.039-4.686-11.313c0-4.273,1.664-8.292,4.686-11.313
		c6.239-6.239,16.39-6.237,22.627,0c0.119,0.119,0.246,0.225,0.371,0.335c0.11,0.125,0.216,0.252,0.336,0.372l38.891,38.891
		l-22.627,22.627l-18.989-18.989c-3.123-3.122-8.188-3.122-11.313,0c-3.125,3.124-3.125,8.189,0,11.314l18.988,18.988L96.001,266.94
		z M152.569,232.998l22.627-22.627l25.286,25.286l-22.627,22.627L152.569,232.998z M95.813,408.209l-22.627-22.628l186.676-186.676
		c0.003-0.003,0.005-0.006,0.009-0.009c10.516-10.524,12.16-26.61,4.932-38.873l17.687-17.687l39.598,39.598L95.813,408.209z
		 M350.559,385.734l-22.627,22.627L223.111,303.539l22.627-22.627L350.559,385.734z M435.225,238.502
		c-15.194,15.195-33.069,26.488-48.467,30.729l-42.608-42.607c4.308-6.488,6.624-14.097,6.624-22.063
		c0-10.685-4.161-20.729-11.716-28.284l-45.255-45.255l56.569-56.568l115.582,115.582
		C461.713,205.434,450.419,223.309,435.225,238.502z"/>
	<path d="M373,131.023l-22.627,22.627c-3.125,3.124-3.125,8.189,0,11.314c1.562,1.562,3.609,2.343,5.657,2.343
		c2.047,0,4.095-0.781,5.657-2.343l22.627-22.627c3.125-3.124,3.125-8.189,0-11.314C381.19,127.902,376.125,127.9,373,131.023z"/>
</g>
<g>
</g>
<g>
</g>
<g>
</g>
<g>
</g>
<g>
</g>
<g>
</g>
<g>
</g>
<g>
</g>
<g>
</g>
<g>
</g>
<g>
</g>
<g>
</g>
<g>
</g>
<g>
</g>
<g>
</g>
</svg>
