<?xml version="1.0" encoding="iso-8859-1"?>
<!-- Generator: Adobe Illustrator 19.0.0, SVG Export Plug-In . SVG Version: 6.00 Build 0)  -->
<svg version="1.1" id="Capa_1" xmlns="http://www.w3.org/2000/svg" xmlns:xlink="http://www.w3.org/1999/xlink" x="0px" y="0px"
	 viewBox="0 0 448 448" style="enable-background:new 0 0 448 448;" xml:space="preserve">
<g>
	<path d="M440,324h-8.169c-4.12-108.341-91.49-195.712-199.831-199.831V116h4c11.028,0,20-8.972,20-20s-8.972-20-20-20h-24
		c-11.028,0-20,8.972-20,20s8.972,20,20,20h4v8.169C107.659,128.288,20.288,215.659,16.169,324H8c-4.418,0-8,3.582-8,8s3.582,8,8,8
		h9.791l3.341,10.801C24.439,362.7,36.648,372,49,372h350c12.378,0,24.61-9.338,27.888-21.272L430.005,340H440c4.418,0,8-3.582,8-8
		S444.418,324,440,324z M208,96c0-2.168,1.832-4,4-4h24c2.168,0,4,1.832,4,4s-1.832,4-4,4h-24C209.832,100,208,98.168,208,96z
		 M411.466,346.464C410.113,351.455,404.171,356,399,356H49c-5.171,0-11.113-4.545-12.466-9.536
		c-0.024-0.091-0.051-0.181-0.079-0.271L34.539,340h317.465c4.418,0,8-3.582,8-8s-3.582-8-8-8H32.179
		C36.389,221.828,120.812,140,224,140s187.611,81.828,191.821,184h-31.82c-4.418,0-8,3.582-8,8s3.582,8,8,8h29.343l-1.838,6.325
		C411.492,346.371,411.479,346.418,411.466,346.464z"/>
	<path d="M319.338,184.035c-3.711-2.396-8.665-1.329-11.06,2.382c-2.396,3.712-1.33,8.664,2.382,11.06
		c15.238,9.838,28.614,22.096,39.756,36.436c1.577,2.029,3.938,3.091,6.323,3.091c1.715,0,3.443-0.549,4.903-1.683
		c3.488-2.711,4.119-7.737,1.408-11.227C350.8,208.329,336.093,194.852,319.338,184.035z"/>
	<path d="M291.046,169.223c-6.476-2.67-13.177-4.971-19.915-6.839c-4.259-1.18-8.666,1.314-9.847,5.571
		c-1.181,4.258,1.313,8.666,5.571,9.847c6.121,1.697,12.208,3.788,18.091,6.214c0.998,0.411,2.03,0.605,3.047,0.605
		c3.144,0,6.126-1.865,7.399-4.952C297.076,175.584,295.13,170.907,291.046,169.223z"/>
</g>
<g>
</g>
<g>
</g>
<g>
</g>
<g>
</g>
<g>
</g>
<g>
</g>
<g>
</g>
<g>
</g>
<g>
</g>
<g>
</g>
<g>
</g>
<g>
</g>
<g>
</g>
<g>
</g>
<g>
</g>
</svg>
