<?xml version="1.0" encoding="iso-8859-1"?>
<!-- Generator: Adobe Illustrator 19.0.0, SVG Export Plug-In . SVG Version: 6.00 Build 0)  -->
<svg version="1.1" id="Capa_1" xmlns="http://www.w3.org/2000/svg" xmlns:xlink="http://www.w3.org/1999/xlink" x="0px" y="0px"
	 viewBox="0 0 464 464" style="enable-background:new 0 0 464 464;" xml:space="preserve">
<path d="M456,356h-8V100c0-4.418-3.582-8-8-8s-8,3.582-8,8v8H32v-8c0-4.418-3.582-8-8-8s-8,3.582-8,8v256H8c-4.418,0-8,3.582-8,8
	s3.582,8,8,8h32c4.418,0,8-3.582,8-8s-3.582-8-8-8h-8V252h400v104h-8c-4.418,0-8,3.582-8,8s3.582,8,8,8h32c4.418,0,8-3.582,8-8
	S460.418,356,456,356z M432,172h-16v-16h16V172z M400,172h-16v-16h16V172z M304,172h-16v-16h16V172z M320,156h16v16h-16V156z
	 M272,172h-16v-16h16V172z M240,172h-16v-16h16V172z M208,172h-16v-16h16V172z M176,172h-16v-16h16V172z M144,172h-16v-16h16V172z
	 M112,172H96v-16h16V172z M112,188v16H96v-16H112z M128,188h16v16h-16V188z M160,188h16v16h-16V188z M192,188h16v16h-16V188z
	 M224,188h16v16h-16V188z M256,188h16v16h-16V188z M288,188h16v16h-16V188z M320,188h16v16h-16V188z M352,188h16v16h-16V188z
	 M352,172v-16h16v16H352z M384,140v-16h16v16H384z M368,140h-16v-16h16V140z M336,140h-16v-16h16V140z M304,140h-16v-16h16V140z
	 M272,140h-16v-16h16V140z M240,140h-16v-16h16V140z M208,140h-16v-16h16V140z M176,140h-16v-16h16V140z M144,140h-16v-16h16V140z
	 M112,140H96v-16h16V140z M80,140H64v-16h16V140z M80,156v16H64v-16H80z M48,172H32v-16h16V172z M32,188h16v16H32V188z M64,188h16
	v16H64V188z M80,220v16H64v-16H80z M96,220h16v16H96V220z M128,220h16v16h-16V220z M160,220h16v16h-16V220z M192,220h16v16h-16V220z
	 M224,220h16v16h-16V220z M256,220h16v16h-16V220z M288,220h16v16h-16V220z M320,220h16v16h-16V220z M352,220h16v16h-16V220z
	 M384,220h16v16h-16V220z M384,204v-16h16v16H384z M416,188h16v16h-16V188z M432,140h-16v-16h16V140z M48,124v16H32v-16H48z M32,220
	h16v16H32V220z M416,236v-16h16v16H416z"/>
<g>
</g>
<g>
</g>
<g>
</g>
<g>
</g>
<g>
</g>
<g>
</g>
<g>
</g>
<g>
</g>
<g>
</g>
<g>
</g>
<g>
</g>
<g>
</g>
<g>
</g>
<g>
</g>
<g>
</g>
</svg>
