<?xml version="1.0" encoding="iso-8859-1"?>
<!-- Generator: Adobe Illustrator 19.0.0, SVG Export Plug-In . SVG Version: 6.00 Build 0)  -->
<svg version="1.1" id="Capa_1" xmlns="http://www.w3.org/2000/svg" xmlns:xlink="http://www.w3.org/1999/xlink" x="0px" y="0px"
	 viewBox="0 0 465.002 465.002" style="enable-background:new 0 0 465.002 465.002;" xml:space="preserve">
<g>
	<path d="M366.385,224.962l-95.19-80.238l95.19-80.239c6.614-5.575,10.454-13.277,10.812-21.687
		c0.357-8.409-2.814-16.409-8.931-22.525L356.951,8.959c-6.116-6.116-14.109-9.294-22.526-8.93
		c-8.409,0.358-16.11,4.197-21.686,10.811l-80.238,95.189L152.263,10.84c-5.575-6.614-13.276-10.454-21.686-10.812
		c-8.396-0.366-16.41,2.813-22.527,8.931L96.737,20.273c-6.117,6.117-9.289,14.117-8.932,22.526
		c0.357,8.41,4.197,16.111,10.812,21.687l95.19,80.239l-95.19,80.238c-6.614,5.575-10.454,13.277-10.812,21.686
		c-0.357,8.41,2.814,16.41,8.931,22.526l11.313,11.313c5.806,5.806,13.308,8.958,21.246,8.958c0.426,0,0.853-0.009,1.281-0.027
		c8.409-0.358,16.11-4.198,21.686-10.812l25.906-30.733l-17.02,201.127h-0.648c-4.418,0-8,3.582-8,8s3.582,8,8,8h7.997
		c0.004,0,0.008,0,0.012,0c0.003,0,0.007,0,0.01,0h127.962c0.003,0,0.007,0,0.01,0c0.004,0,0.008,0,0.012,0h7.997
		c4.418,0,8-3.582,8-8s-3.582-8-8-8h-0.648l-17.02-201.128l25.906,30.734c5.575,6.614,13.276,10.454,21.686,10.812
		c0.429,0.018,0.855,0.027,1.281,0.027c7.938,0,15.44-3.153,21.246-8.958l11.313-11.313c6.116-6.117,9.288-14.117,8.931-22.526
		C376.839,238.239,372.999,230.537,366.385,224.962z M232.501,160.723c-4.273,0-8.292-1.664-11.313-4.686
		c-6.238-6.238-6.238-16.389-0.001-22.627c3.022-3.022,7.041-4.687,11.314-4.687s8.292,1.664,11.313,4.686
		c6.238,6.238,6.238,16.389,0.001,22.627C240.793,159.059,236.774,160.723,232.501,160.723z M324.974,21.151
		c2.653-3.148,6.251-4.973,10.131-5.138c3.874-0.172,7.621,1.347,10.533,4.259l0.139,0.139l-13.933,13.933
		c-3.124,3.124-3.124,8.189,0,11.313c1.563,1.562,3.609,2.343,5.657,2.343s4.095-0.781,5.657-2.343l13.926-13.926
		c2.82,2.89,4.289,6.568,4.127,10.386c-0.165,3.88-1.99,7.479-5.139,10.133l-94.323,79.509c-0.468-1.059-0.992-2.099-1.58-3.112
		l57.99-57.99c3.124-3.124,3.124-8.189,0-11.313c-3.125-3.124-8.189-3.124-11.314,0l-57.907,57.908
		c-1.117-0.671-2.275-1.263-3.462-1.789L324.974,21.151z M103.791,42.119c-0.162-3.818,1.307-7.495,4.127-10.386l13.926,13.926
		c1.563,1.562,3.609,2.343,5.657,2.343s4.095-0.781,5.657-2.343c3.124-3.124,3.124-8.189,0-11.313l-13.933-13.933l0.138-0.138
		c2.912-2.912,6.654-4.429,10.534-4.259c3.88,0.165,7.478,1.99,10.131,5.138l79.499,94.312c-1.186,0.526-2.344,1.118-3.462,1.789
		l-57.907-57.908c-3.124-3.124-8.188-3.124-11.314,0c-3.124,3.124-3.124,8.189,0,11.313l57.989,57.99
		c-0.588,1.013-1.112,2.053-1.58,3.112L108.93,52.252C105.781,49.598,103.956,45.999,103.791,42.119z M140.028,268.295
		c-2.653,3.148-6.252,4.973-10.132,5.138c-3.855,0.156-7.608-1.343-10.517-4.245l13.779-13.779c3.124-3.124,3.124-8.189,0-11.313
		c-3.125-3.124-8.189-3.124-11.314,0l-13.779,13.779l-0.014-0.014c-2.912-2.912-4.425-6.652-4.26-10.533s1.99-7.479,5.139-10.133
		l94.324-79.508c0.498,1.127,1.056,2.234,1.69,3.309l-58.1,58.1c-3.124,3.124-3.124,8.189,0,11.313
		c1.563,1.562,3.609,2.343,5.657,2.343s4.095-0.781,5.657-2.343l58.103-58.103c1.057,0.625,2.148,1.181,3.266,1.677L140.028,268.295
		z M240.501,449.002h-16v-40h16V449.002z M287.795,449.002h-31.294v-48c0-4.418-3.582-8-8-8h-32c-4.418,0-8,3.582-8,8v48h-31.294
		l18.729-221.326c0.026-0.305,0.03-0.606,0.022-0.905l36.543-43.353l36.482,43.28L287.795,449.002z M335.105,273.434
		c-3.88-0.166-7.479-1.99-10.132-5.139l-79.499-94.312c1.118-0.496,2.209-1.053,3.266-1.677l58.103,58.103
		c1.563,1.563,3.609,2.343,5.657,2.343c2.047,0,4.095-0.781,5.657-2.343c3.124-3.124,3.124-8.189,0-11.313l-58.1-58.1
		c0.634-1.075,1.192-2.182,1.69-3.309l94.323,79.508c3.148,2.654,4.974,6.252,5.139,10.133s-1.348,7.621-4.26,10.533l-0.014,0.014
		l-13.779-13.779c-3.125-3.124-8.189-3.124-11.314,0c-3.124,3.124-3.124,8.189,0,11.313l13.779,13.779
		C342.712,272.09,338.954,273.592,335.105,273.434z"/>
	<path d="M216.501,273.002c-4.418,0-8,3.582-8,8v32c0,4.418,3.582,8,8,8h32c4.418,0,8-3.582,8-8v-32c0-4.418-3.582-8-8-8H216.501z
		 M240.501,305.002h-16v-16h16V305.002z"/>
</g>
<g>
</g>
<g>
</g>
<g>
</g>
<g>
</g>
<g>
</g>
<g>
</g>
<g>
</g>
<g>
</g>
<g>
</g>
<g>
</g>
<g>
</g>
<g>
</g>
<g>
</g>
<g>
</g>
<g>
</g>
</svg>
